# Recovered local-space geometry; original node transforms not applied
o mesh_0
v 8.046626476243546e-07 71.25572967529297 0.0
v -35.62785720825195 61.70927047729492 0.0
v -61.70926284790039 35.627864837646484 0.0
v -71.2557373046875 4.577636354952119e-05 0.0
v -61.709293365478516 -35.62782669067383 0.0
v -35.62788772583008 -61.709232330322266 0.0
v -4.7922130761435255e-05 -71.2557144165039 0.0
v 35.6278190612793 -61.70928192138672 0.0
v 61.709232330322266 -35.62787628173828 0.0
v 71.25570678710938 -3.814696901827119e-05 0.0
v 61.70930099487305 35.6278190612793 0.0
v 35.6279182434082 61.7092399597168 0.0
v -5.006789706385462e-06 29.97284507751465 0.0
v -14.986432075500488 25.957242965698242 0.0
v -25.95725440979004 14.986418724060059 0.0
v -29.97286033630371 7.629394076502649e-06 0.0
v -25.957265853881836 -14.986418724060059 0.0
v -14.986443519592285 -25.957246780395508 0.0
v -2.5488434403087012e-05 -29.972856521606445 0.0
v 14.986401557922363 -25.957265853881836 0.0
v 25.957229614257812 -14.986441612243652 0.0
v 29.972843170166016 -2.2888181774760596e-05 0.0
v 25.957256317138672 14.986395835876465 0.0
v 14.986443519592285 25.95722770690918 0.0
v -14.986433029174805 25.957244873046875 -0.7043533325195312
v -5.006789706385462e-06 29.97284698486328 -0.7043533325195312
v 8.046626476243546e-07 71.25572967529297 -0.7043533325195312
v -35.62785720825195 61.70927429199219 -0.7043533325195312
v -25.957256317138672 14.986419677734375 -0.7043533325195312
v -61.709266662597656 35.627864837646484 -0.7043533325195312
v -29.972862243652344 7.629394076502649e-06 -0.7043533325195312
v -71.2557373046875 4.57763671875e-05 -0.7043533325195312
v -25.95726776123047 -14.986419677734375 -0.7043533325195312
v -61.70929718017578 -35.62782669067383 -0.7043533325195312
v -14.986444473266602 -25.95724868774414 -0.7043533325195312
v -35.62788772583008 -61.70923614501953 -0.7043533325195312
v -2.5488434403087012e-05 -29.972858428955078 -0.7043533325195312
v -4.7922130761435255e-05 -71.2557144165039 -0.7043533325195312
v 14.98640251159668 -25.95726776123047 -0.7043533325195312
v 35.6278190612793 -61.709285736083984 -0.7043533325195312
v 25.957231521606445 -14.986442565917969 -0.7043533325195312
v 61.70923614501953 -35.62787628173828 -0.7043533325195312
v 29.97284507751465 -2.288818359375e-05 -0.7043533325195312
v 71.25570678710938 -3.814696901827119e-05 -0.7043533325195312
v 25.957258224487305 14.986396789550781 -0.7043533325195312
v 61.70930480957031 35.6278190612793 -0.7043533325195312
v 14.986444473266602 25.957229614257812 -0.7043533325195312
v 35.6279182434082 61.70924377441406 -0.7043533325195312
v -25.95725440979004 14.986418724060059 0.0
v -61.70926284790039 35.627864837646484 0.0
v -25.957265853881836 -14.986418724060059 0.0
v -61.709293365478516 -35.62782669067383 0.0
v -2.5488434403087012e-05 -29.972856521606445 0.0
v -4.7922130761435255e-05 -71.2557144165039 0.0
v 25.957229614257812 -14.986441612243652 0.0
v 61.709232330322266 -35.62787628173828 0.0
v 25.957256317138672 14.986395835876465 0.0
v 61.70930099487305 35.6278190612793 0.0
v -5.006789706385462e-06 29.97284507751465 0.0
v 8.046626476243546e-07 71.25572967529297 0.0
v -61.709266662597656 35.627864837646484 -0.7043533325195312
v -25.957256317138672 14.986419677734375 -0.7043533325195312
v -61.70929718017578 -35.62782669067383 -0.7043533325195312
v -25.95726776123047 -14.986419677734375 -0.7043533325195312
v -4.7922130761435255e-05 -71.2557144165039 -0.7043533325195312
v -2.5488434403087012e-05 -29.972858428955078 -0.7043533325195312
v 61.70923614501953 -35.62787628173828 -0.7043533325195312
v 25.957231521606445 -14.986442565917969 -0.7043533325195312
v 61.70930480957031 35.6278190612793 -0.7043533325195312
v 25.957258224487305 14.986396789550781 -0.7043533325195312
v -5.006789706385462e-06 29.97284698486328 -0.7043533325195312
v 8.046626476243546e-07 71.25572967529297 -0.7043533325195312
vt 0.0019641555845737457 0.0
vt 0.12206043303012848 0.0
vt 0.24727334082126617 0.0
vt 0.12206043303012848 0.0
vt 0.24727334082126617 0.0
vt 0.12206043303012848 0.0
vt 0.24727334082126617 0.0
vt 0.12206043303012848 0.0
vt 0.24727334082126617 0.0
vt 0.12206043303012848 0.0
vt 0.24727334082126617 0.0
vt 0.12206043303012848 0.0
vt 0.0019641555845737457 1.0
vt 0.12206043303012848 1.0
vt 0.24727334082126617 1.0
vt 0.12206043303012848 1.0
vt 0.24727334082126617 1.0
vt 0.12206043303012848 1.0
vt 0.24727334082126617 1.0
vt 0.12206043303012848 1.0
vt 0.24727334082126617 1.0
vt 0.12206043303012848 1.0
vt 0.24727334082126617 1.0
vt 0.12206043303012848 1.0
vt 0.12206043303012848 1.0
vt 0.0019641555845737457 1.0
vt 0.0019641555845737457 0.0
vt 0.12206043303012848 0.0
vt 0.24727334082126617 1.0
vt 0.24727334082126617 0.0
vt 0.12206043303012848 1.0
vt 0.12206043303012848 0.0
vt 0.24727334082126617 1.0
vt 0.24727334082126617 0.0
vt 0.12206043303012848 1.0
vt 0.12206043303012848 0.0
vt 0.24727334082126617 1.0
vt 0.24727334082126617 0.0
vt 0.12206043303012848 1.0
vt 0.12206043303012848 0.0
vt 0.24727334082126617 1.0
vt 0.24727334082126617 0.0
vt 0.12206043303012848 1.0
vt 0.12206043303012848 0.0
vt 0.24727334082126617 1.0
vt 0.24727334082126617 0.0
vt 0.12206043303012848 1.0
vt 0.12206043303012848 0.0
vt 0.0019641555845737457 1.0
vt 0.0019641555845737457 0.0
vt 0.0019641555845737457 1.0
vt 0.0019641555845737457 0.0
vt 0.0019641555845737457 1.0
vt 0.0019641555845737457 0.0
vt 0.0019641555845737457 1.0
vt 0.0019641555845737457 0.0
vt 0.0019641555845737457 1.0
vt 0.0019641555845737457 0.0
vt 0.24727334082126617 1.0
vt 0.24727334082126617 0.0
vt 0.0019641555845737457 0.0
vt 0.0019641555845737457 1.0
vt 0.0019641555845737457 0.0
vt 0.0019641555845737457 1.0
vt 0.0019641555845737457 0.0
vt 0.0019641555845737457 1.0
vt 0.0019641555845737457 0.0
vt 0.0019641555845737457 1.0
vt 0.0019641555845737457 0.0
vt 0.0019641555845737457 1.0
vt 0.24727334082126617 1.0
vt 0.24727334082126617 0.0
vn 0.0 0.0 1.0
vn 0.0 0.0 1.0
vn 0.0 0.0 1.0
vn 0.0 0.0 1.0
vn 0.0 0.0 1.0
vn 0.0 0.0 1.0
vn 0.0 0.0 1.0
vn 0.0 0.0 1.0
vn 0.0 0.0 1.0
vn 0.0 0.0 1.0
vn 0.0 0.0 1.0
vn 0.0 0.0 1.0
vn 0.0 0.0 1.0
vn 0.0 0.0 1.0
vn 0.0 0.0 1.0
vn 0.0 0.0 1.0
vn 0.0 0.0 1.0
vn 0.0 0.0 1.0
vn 0.0 0.0 1.0
vn 0.0 0.0 1.0
vn 0.0 0.0 1.0
vn 0.0 0.0 1.0
vn 0.0 0.0 1.0
vn 0.0 0.0 1.0
vn 0.0 0.0 -1.0
vn 0.0 0.0 -1.0
vn 0.0 0.0 -1.0
vn 0.0 0.0 -1.0
vn 0.0 0.0 -1.0
vn 0.0 0.0 -1.0
vn 0.0 0.0 -1.0
vn 0.0 0.0 -1.0
vn 0.0 0.0 -1.0
vn 0.0 0.0 -1.0
vn 0.0 0.0 -1.0
vn 0.0 0.0 -1.0
vn 0.0 0.0 -1.0
vn 0.0 0.0 -1.0
vn 0.0 0.0 -1.0
vn 0.0 0.0 -1.0
vn 0.0 0.0 -1.0
vn 0.0 0.0 -1.0
vn 0.0 0.0 -1.0
vn 0.0 0.0 -1.0
vn 0.0 0.0 -1.0
vn 0.0 0.0 -1.0
vn 0.0 0.0 -1.0
vn 0.0 0.0 -1.0
vn 0.0 0.0 1.0
vn 0.0 0.0 1.0
vn 0.0 0.0 1.0
vn 0.0 0.0 1.0
vn 0.0 0.0 1.0
vn 0.0 0.0 1.0
vn 0.0 0.0 1.0
vn 0.0 0.0 1.0
vn 0.0 0.0 1.0
vn 0.0 0.0 1.0
vn 0.0 0.0 1.0
vn 0.0 0.0 1.0
vn 0.0 0.0 -1.0
vn 0.0 0.0 -1.0
vn 0.0 0.0 -1.0
vn 0.0 0.0 -1.0
vn 0.0 0.0 -1.0
vn 0.0 0.0 -1.0
vn 0.0 0.0 -1.0
vn 0.0 0.0 -1.0
vn 0.0 0.0 -1.0
vn 0.0 0.0 -1.0
vn 0.0 0.0 -1.0
vn 0.0 0.0 -1.0
f 48/48/48 47/47/47 71/71/71
f 71/71/71 72/72/72 48/48/48
f 69/69/69 70/70/70 47/47/47
f 47/47/47 48/48/48 69/69/69
f 44/44/44 43/43/43 45/45/45
f 45/45/45 46/46/46 44/44/44
f 67/67/67 68/68/68 43/43/43
f 43/43/43 44/44/44 67/67/67
f 40/40/40 39/39/39 41/41/41
f 41/41/41 42/42/42 40/40/40
f 65/65/65 66/66/66 39/39/39
f 39/39/39 40/40/40 65/65/65
f 36/36/36 35/35/35 37/37/37
f 37/37/37 38/38/38 36/36/36
f 63/63/63 64/64/64 35/35/35
f 35/35/35 36/36/36 63/63/63
f 32/32/32 31/31/31 33/33/33
f 33/33/33 34/34/34 32/32/32
f 61/61/61 62/62/62 31/31/31
f 31/31/31 32/32/32 61/61/61
f 28/28/28 25/25/25 29/29/29
f 29/29/29 30/30/30 28/28/28
f 27/27/27 26/26/26 25/25/25
f 25/25/25 28/28/28 27/27/27
f 12/12/12 60/60/60 59/59/59
f 59/59/59 24/24/24 12/12/12
f 58/58/58 12/12/12 24/24/24
f 24/24/24 57/57/57 58/58/58
f 10/10/10 11/11/11 23/23/23
f 23/23/23 22/22/22 10/10/10
f 56/56/56 10/10/10 22/22/22
f 22/22/22 55/55/55 56/56/56
f 8/8/8 9/9/9 21/21/21
f 21/21/21 20/20/20 8/8/8
f 54/54/54 8/8/8 20/20/20
f 20/20/20 53/53/53 54/54/54
f 6/6/6 7/7/7 19/19/19
f 19/19/19 18/18/18 6/6/6
f 52/52/52 6/6/6 18/18/18
f 18/18/18 51/51/51 52/52/52
f 4/4/4 5/5/5 17/17/17
f 17/17/17 16/16/16 4/4/4
f 50/50/50 4/4/4 16/16/16
f 16/16/16 49/49/49 50/50/50
f 2/2/2 3/3/3 15/15/15
f 15/15/15 14/14/14 2/2/2
f 1/1/1 2/2/2 14/14/14
f 14/14/14 13/13/13 1/1/1
