# Recovered local-space geometry; original node transforms not applied
o mesh_0
v -1.1920928955078125e-07 1.2645929814425472e-07 -8.347433090209961
v 5.909299850463867 -2.9802317058624794e-08 -1.1920928955078125e-07
v -1.557127689011395e-07 40.18323516845703 1.7564649397172616e-06
v 1.3113021850585938e-06 -1.2645929814425472e-07 8.347433090209961
v 1.557127689011395e-07 -40.18323516845703 -1.7564649397172616e-06
v -5.909299850463867 2.9802317058624794e-08 1.1920928955078125e-07
v -5.909299850463867 2.9802317058624794e-08 1.1920928955078125e-07
v -1.1920928955078125e-07 1.2645929814425472e-07 -8.347433090209961
v 1.557127689011395e-07 -40.18323516845703 -1.7564649397172616e-06
v -1.557127689011395e-07 40.18323516845703 1.7564649397172616e-06
v 5.909299850463867 -2.9802317058624794e-08 -1.1920928955078125e-07
v 1.3113021850585938e-06 -1.2645929814425472e-07 8.347433090209961
vt -5.960464477539063e-08 0.0
vt 1.0 1.0
vt 0.9999999403953552 -1.1920928955078125e-07
vt -5.960464477539063e-08 0.0
vt 1.0 0.9999999403953552
vt 1.0 0.9999999403953552
vt 0.9999999403953552 -1.1920928955078125e-07
vt 0.0 1.0
vt 1.0 0.0
vt 1.0 1.0000001192092896
vt 0.9999999403953552 1.1920928955078125e-07
vt 0.0 1.0
vn 0.0 5.1949914592341884e-08 -1.0
vn 1.0 2.2985180425649787e-09 -5.516443124520265e-08
vn 2.5007875592564233e-07 1.0 0.0
vn 1.5584974732973933e-07 -4.2209304496054756e-08 1.0
vn 2.5007875592564233e-07 -1.0 -1.2503937796282116e-07
vn -1.0 0.0 3.677628868103966e-08
vn -1.0 0.0 3.677628868103966e-08
vn 0.0 5.1949914592341884e-08 -1.0
vn 2.5007875592564233e-07 -1.0 -1.2503937796282116e-07
vn 2.5007875592564233e-07 1.0 0.0
vn 1.0 2.2985180425649787e-09 -5.516443124520265e-08
vn 1.5584974732973933e-07 -4.2209304496054756e-08 1.0
f 10/10/10 7/7/7 4/4/4
f 12/12/12 6/6/6 9/9/9
f 5/5/5 11/11/11 4/4/4
f 2/2/2 3/3/3 4/4/4
f 10/10/10 11/11/11 1/1/1
f 8/8/8 2/2/2 9/9/9
f 5/5/5 7/7/7 1/1/1
f 6/6/6 3/3/3 1/1/1
