# Recovered local-space geometry; original node transforms not applied
o mesh_0
v -4.0531158447265625e-06 16.782958984375 29.435155868530273
v -8.391481399536133 14.534477233886719 29.435155868530273
v -14.534465789794922 8.391494750976562 29.435155868530273
v -16.782958984375 2.288818359375e-05 29.435155868530273
v -14.534466743469238 -8.391460418701172 29.435155868530273
v -8.391483306884766 -14.534446716308594 29.435155868530273
v -1.5519559383392334e-05 -16.782943725585938 29.435155868530273
v 8.391459465026855 -14.534461975097656 29.435155868530273
v 14.534443855285645 -8.391475677490234 29.435155868530273
v 16.78294563293457 7.62939453125e-06 29.435155868530273
v 14.534463882446289 8.391464233398438 29.435155868530273
v 8.391484260559082 14.534469604492188 29.435155868530273
v -4.559755325317383e-06 27.32878875732422 0.0
v -13.664401054382324 23.66742706298828 0.0
v -23.66743278503418 13.664398193359375 0.0
v -27.328800201416016 7.62939453125e-06 0.0
v -23.667442321777344 -13.664390563964844 0.0
v -13.664411544799805 -23.667423248291016 0.0
v -2.323836088180542e-05 -27.328792572021484 0.0
v 13.664374351501465 -23.667442321777344 0.0
v 23.667409896850586 -13.664409637451172 0.0
v 27.328784942626953 -2.288818359375e-05 0.0
v 23.667434692382812 13.664375305175781 0.0
v 13.664412498474121 23.66741180419922 0.0
v -13.664401054382324 23.66742706298828 0.0
v -8.391481399536133 14.534477233886719 29.435155868530273
v -23.66743278503418 13.664398193359375 0.0
v -14.534465789794922 8.391494750976562 29.435155868530273
v -27.328800201416016 7.62939453125e-06 0.0
v -16.782958984375 2.288818359375e-05 29.435155868530273
v -23.667442321777344 -13.664390563964844 0.0
v -14.534466743469238 -8.391460418701172 29.435155868530273
v -13.664411544799805 -23.667423248291016 0.0
v -8.391483306884766 -14.534446716308594 29.435155868530273
v -2.323836088180542e-05 -27.328792572021484 0.0
v -1.5519559383392334e-05 -16.782943725585938 29.435155868530273
v 13.664374351501465 -23.667442321777344 0.0
v 8.391459465026855 -14.534461975097656 29.435155868530273
v 23.667409896850586 -13.664409637451172 0.0
v 14.534443855285645 -8.391475677490234 29.435155868530273
v 27.328784942626953 -2.288818359375e-05 0.0
v 16.78294563293457 7.62939453125e-06 29.435155868530273
v 23.667434692382812 13.664375305175781 0.0
v 14.534463882446289 8.391464233398438 29.435155868530273
v -4.559755325317383e-06 27.32878875732422 0.0
v 13.664412498474121 23.66741180419922 0.0
v 8.391484260559082 14.534469604492188 29.435155868530273
v -4.0531158447265625e-06 16.782958984375 29.435155868530273
vt 0.0019641555845737457 0.0
vt 0.12206043303012848 0.0
vt 0.12312497198581696 0.0
vt 0.12206043303012848 0.0
vt 0.12312497198581696 0.0
vt 0.12206043303012848 0.0
vt 0.12312497198581696 0.0
vt 0.12206043303012848 0.0
vt 0.12312497198581696 0.0
vt 0.12206043303012848 0.0
vt 0.12312497198581696 0.0
vt 0.12206043303012848 0.0
vt 0.0019641555845737457 1.0
vt 0.12206043303012848 1.0
vt 0.12312497198581696 1.0
vt 0.12206043303012848 1.0
vt 0.12312497198581696 1.0
vt 0.12206043303012848 1.0
vt 0.12312497198581696 1.0
vt 0.12206043303012848 1.0
vt 0.12312497198581696 1.0
vt 0.12206043303012848 1.0
vt 0.12312497198581696 1.0
vt 0.12206043303012848 1.0
vt 0.24815650284290314 1.0
vt 0.24815650284290314 0.0
vt 0.0019641555845737457 1.0
vt 0.0019641555845737457 0.0
vt 0.24815650284290314 1.0
vt 0.24815650284290314 0.0
vt 0.0019641555845737457 1.0
vt 0.0019641555845737457 0.0
vt 0.24815650284290314 1.0
vt 0.24815650284290314 0.0
vt 0.0019641555845737457 1.0
vt 0.0019641555845737457 0.0
vt 0.24815650284290314 1.0
vt 0.24815650284290314 0.0
vt 0.0019641555845737457 1.0
vt 0.0019641555845737457 0.0
vt 0.24815650284290314 1.0
vt 0.24815650284290314 0.0
vt 0.0019641555845737457 1.0
vt 0.0019641555845737457 0.0
vt 0.12312497198581696 1.0
vt 0.24815650284290314 1.0
vt 0.24815650284290314 0.0
vt 0.12312497198581696 0.0
vn 0.24458694458007812 -0.9128114581108093 -0.32703596353530884
vn 0.2445862889289856 -0.9128116965293884 -0.32703572511672974
vn 0.6682242155075073 -0.6682244539260864 -0.32703593373298645
vn 0.9128112196922302 -0.24458757042884827 -0.3270361125469208
vn 0.9128111600875854 0.24458713829517365 -0.327036589384079
vn 0.6682243347167969 0.6682239770889282 -0.327036589384079
vn 0.24458804726600647 0.9128109812736511 -0.32703644037246704
vn -0.2445862889289856 0.9128113985061646 -0.3270365595817566
vn -0.6682243347167969 0.6682240962982178 -0.3270365595817566
vn -0.9128111004829407 0.24458812177181244 -0.3270363211631775
vn -0.9128113389015198 -0.24458682537078857 -0.3270363211631775
vn -0.6682258248329163 -0.6682230234146118 -0.3270357549190521
vn 0.24458694458007812 -0.9128114581108093 -0.32703596353530884
vn 0.24458694458007812 -0.9128114581108093 -0.32703596353530884
vn 0.6682242751121521 -0.6682244539260864 -0.32703593373298645
vn 0.9128113389015198 -0.24458739161491394 -0.32703620195388794
vn 0.9128114581108093 0.24458664655685425 -0.32703644037246704
vn 0.6682242751121521 0.6682240962982178 -0.32703664898872375
vn 0.2445874810218811 0.9128110408782959 -0.32703661918640137
vn -0.24458615481853485 0.9128114581108093 -0.32703644037246704
vn -0.6682240962982178 0.6682243347167969 -0.32703641057014465
vn -0.9128110408782959 0.24458789825439453 -0.32703641057014465
vn -0.9128116965293884 -0.24458619952201843 -0.3270360827445984
vn -0.6682248115539551 -0.6682237982749939 -0.32703620195388794
vn 0.6682242751121521 -0.6682244539260864 -0.32703593373298645
vn 0.6682242751121521 -0.6682244539260864 -0.32703593373298645
vn 0.9128113389015198 -0.24458739161491394 -0.32703620195388794
vn 0.9128113389015198 -0.24458739161491394 -0.32703620195388794
vn 0.9128114581108093 0.24458664655685425 -0.32703644037246704
vn 0.9128114581108093 0.24458664655685425 -0.32703644037246704
vn 0.6682242751121521 0.6682240962982178 -0.32703664898872375
vn 0.6682242751121521 0.6682240962982178 -0.32703664898872375
vn 0.2445874810218811 0.9128110408782959 -0.32703661918640137
vn 0.2445874810218811 0.9128110408782959 -0.32703661918640137
vn -0.24458615481853485 0.9128114581108093 -0.32703644037246704
vn -0.24458615481853485 0.9128114581108093 -0.32703644037246704
vn -0.6682240962982178 0.6682243347167969 -0.32703641057014465
vn -0.6682240962982178 0.6682243347167969 -0.32703641057014465
vn -0.9128110408782959 0.24458789825439453 -0.32703641057014465
vn -0.9128110408782959 0.24458789825439453 -0.32703641057014465
vn -0.9128116965293884 -0.24458619952201843 -0.3270360827445984
vn -0.9128116965293884 -0.24458619952201843 -0.3270360827445984
vn -0.6682248115539551 -0.6682237982749939 -0.32703620195388794
vn -0.6682248115539551 -0.6682237982749939 -0.32703620195388794
vn -0.24458755552768707 -0.9128113985061646 -0.32703566551208496
vn -0.24458755552768707 -0.9128113985061646 -0.32703566551208496
vn -0.24458755552768707 -0.9128113985061646 -0.32703566551208496
vn -0.2445867955684662 -0.9128115773200989 -0.32703596353530884
f 47/47/47 48/48/48 45/45/45
f 45/45/45 46/46/46 47/47/47
f 44/44/44 12/12/12 24/24/24
f 24/24/24 43/43/43 44/44/44
f 42/42/42 11/11/11 23/23/23
f 23/23/23 41/41/41 42/42/42
f 40/40/40 10/10/10 22/22/22
f 22/22/22 39/39/39 40/40/40
f 38/38/38 9/9/9 21/21/21
f 21/21/21 37/37/37 38/38/38
f 36/36/36 8/8/8 20/20/20
f 20/20/20 35/35/35 36/36/36
f 34/34/34 7/7/7 19/19/19
f 19/19/19 33/33/33 34/34/34
f 32/32/32 6/6/6 18/18/18
f 18/18/18 31/31/31 32/32/32
f 30/30/30 5/5/5 17/17/17
f 17/17/17 29/29/29 30/30/30
f 28/28/28 4/4/4 16/16/16
f 16/16/16 27/27/27 28/28/28
f 26/26/26 3/3/3 15/15/15
f 15/15/15 25/25/25 26/26/26
f 1/1/1 2/2/2 14/14/14
f 14/14/14 13/13/13 1/1/1
