# Recovered local-space geometry; original node transforms not applied
o mesh_0
v 39.14855194091797 -13.395925521850586 7.7173752784729
v 39.14855194091797 -7.734140872955322 13.379158973693848
v 39.14855194091797 -4.3031570385210216e-05 15.45151424407959
v 39.14855194091797 7.734132289886475 13.379162788391113
v 39.14855194091797 13.395917892456055 7.717380523681641
v 23.155731201171875 -38.09700012207031 21.978548049926758
v 23.155733108520508 -21.99532127380371 38.08023452758789
v 23.155733108520508 -4.913777956971899e-05 43.97385787963867
v 23.155736923217773 21.99529457092285 38.08024597167969
v 23.15574073791504 38.09699630737305 21.97856903076172
v 4.374031066894531 -41.55842971801758 23.97700309753418
v 4.374031066894531 -23.9937801361084 41.54166030883789
v 4.374032497406006 -4.854611324844882e-05 47.97077178955078
v 4.374035358428955 23.993749618530273 41.54167175292969
v 4.374037742614746 41.55841827392578 23.977025985717773
v 35.7335205078125 -27.67999839782715 15.964287757873535
v 35.7335205078125 -15.981056213378906 27.663227081298828
v 35.7335205078125 -4.869471013080329e-05 31.945337295532227
v 35.7335205078125 15.981037139892578 27.663236618041992
v 35.73352813720703 27.67998504638672 15.964299201965332
v -14.861875534057617 -37.6749153137207 21.734848022460938
v -14.861875534057617 -21.75162124633789 37.65814971923828
v -14.861873626708984 -4.715980321634561e-05 43.48646926879883
v -14.861869812011719 21.75160789489746 37.65815734863281
v -14.861868858337402 37.67491149902344 21.7348690032959
v -36.19517517089844 -26.48843765258789 15.276342391967773
v -36.195167541503906 -15.293105125427246 26.47167205810547
v -36.19517517089844 -4.670412454288453e-05 30.56945037841797
v -36.195167541503906 15.293106079101562 26.471683502197266
v -36.195167541503906 26.488439559936523 15.276350021362305
v -43.15178680419922 -16.602088928222656 9.568458557128906
v -43.15177917480469 -9.585219383239746 16.585329055786133
v -43.15178680419922 -4.3615142203634605e-05 19.1536808013916
v -43.15177917480469 9.585227966308594 16.58533477783203
v -43.15177917480469 16.602100372314453 9.568464279174805
v -43.37928771972656 -8.029058456420898 4.618819236755371
v -43.37928771972656 -4.63557767868042 8.012301445007324
v -43.37928771972656 -3.6986453778808936e-05 9.254402160644531
v -43.37928771972656 4.635594367980957 8.012303352355957
v -43.37928771972656 8.029075622558594 4.618823528289795
v -43.15178680419922 -19.17044448852539 -0.016757283359766006
v 17.837757110595703 0.5391669273376465 -0.05536644160747528
v 52.30674743652344 -6.866411209106445 4.710043430328369
v 34.540748596191406 -8.784049034118652 -0.08460915088653564
v 38.15227508544922 -0.7044132947921753 7.400606632232666
v 38.83830261230469 7.079598426818848 -0.4756433367729187
v 44.93540954589844 -13.594066619873047 -1.8790843486785889
v 48.24866485595703 -6.628049850463867 -11.263206481933594
v 52.624237060546875 1.461801528930664 -3.655895471572876
v 36.33698272705078 -0.45880794525146484 -8.415960311889648
v 33.49589538574219 6.652199147083593e-08 -0.016759559512138367
v 39.14855194091797 15.468276977539062 -0.01676177605986595
v 39.14854431152344 13.39592170715332 -7.750895977020264
v 39.14854431152344 7.734140872955322 -13.412673950195312
v 39.14854431152344 3.998795000370592e-05 -15.485031127929688
v 39.14854431152344 -7.73413610458374 -13.412677764892578
v 39.14854431152344 -13.395919799804688 -7.750898361206055
v 39.14855194091797 -15.468279838562012 -0.016760170459747314
v 35.7335205078125 31.96209716796875 -0.016754470765590668
v 35.7335205078125 27.679994583129883 -15.997806549072266
v 35.7335205078125 15.981049537658691 -27.696746826171875
v 35.73351287841797 4.171774708083831e-05 -31.97885513305664
v 35.73351287841797 -15.981042861938477 -27.696748733520508
v 35.73351287841797 -27.67998504638672 -15.997810363769531
v 35.7335205078125 -31.962100982666016 -0.016763564199209213
v 23.155738830566406 43.990631103515625 -0.01674969494342804
v 4.374038219451904 47.987545013427734 -0.01674768701195717
v 4.3740315437316895 41.55842590332031 -24.010528564453125
v 23.155733108520508 38.09700393676758 -22.012069702148438
v 4.374031066894531 23.9937801361084 -41.57517623901367
v 23.155731201171875 21.995319366455078 -38.11375427246094
v 4.37402868270874 4.6789515181444585e-05 -48.004295349121094
v 23.155729293823242 4.379502934170887e-05 -44.007381439208984
v 4.374027729034424 -23.993755340576172 -41.57518768310547
v 23.155729293823242 -21.99530029296875 -38.11375427246094
v 4.374024868011475 -41.55842208862305 -24.01053237915039
v 23.155725479125977 -38.09700012207031 -22.012083053588867
v 4.374030590057373 -47.98754119873047 -0.016768187284469604
v 23.155731201171875 -43.990623474121094 -0.016766443848609924
v -14.861867904663086 43.50324249267578 -0.016748882830142975
v -14.861873626708984 37.6749153137207 -21.768369674682617
v -14.86187744140625 21.751625061035156 -37.691673278808594
v -14.861881256103516 4.780848394148052e-05 -43.51999282836914
v -14.861883163452148 -21.751605987548828 -37.69166946411133
v -14.861879348754883 -37.67491149902344 -21.768381118774414
v -14.8618745803833 -43.50323486328125 -0.01676652953028679
v -36.195167541503906 30.586223602294922 -0.0167534239590168
v -36.195167541503906 26.488445281982422 -15.309859275817871
v -36.19517517089844 15.293113708496094 -26.505191802978516
v -36.19517517089844 5.2160346967866644e-05 -30.602970123291016
v -36.19517517089844 -15.293097496032715 -26.50519561767578
v -36.19517517089844 -26.488431930541992 -15.30986213684082
v -36.19517517089844 -30.586214065551758 -0.016761545091867447
v -43.15178680419922 19.170459747314453 -0.016756571829319
v -43.15178680419922 16.60209846496582 -9.60197639465332
v -43.15178680419922 9.585229873657227 -16.61884307861328
v -43.15179443359375 5.2435480029089376e-05 -19.18720245361328
v -43.15178680419922 -9.585220336914062 -16.618846893310547
v -43.15178680419922 -16.602088928222656 -9.601975440979004
v -43.37928771972656 9.27117919921875 -0.016758590936660767
v -43.37928771972656 8.029069900512695 -4.652334690093994
v -43.37928771972656 4.635590076446533 -8.045816421508789
v -43.379295349121094 4.736787741421722e-05 -9.28791618347168
v -43.37928771972656 -4.635584831237793 -8.045814514160156
v -43.37928771972656 -8.029064178466797 -4.652336120605469
v -43.37928771972656 -9.271167755126953 -0.016753047704696655
v -39.70574188232422 5.558293651120039e-06 -0.01675642654299736
v 52.30674743652344 -6.866411209106445 4.710043430328369
v 48.24866485595703 -6.628049850463867 -11.263206481933594
v 44.93540954589844 -13.594066619873047 -1.8790843486785889
v 52.624237060546875 1.461801528930664 -3.655895471572876
v 39.14855194091797 15.468276977539062 -0.01676177605986595
v 39.14855194091797 -15.468279838562012 -0.016760170459747314
v 35.7335205078125 31.96209716796875 -0.016754470765590668
v 35.7335205078125 -31.962100982666016 -0.016763564199209213
v 23.155738830566406 43.990631103515625 -0.01674969494342804
v 4.374038219451904 47.987545013427734 -0.01674768701195717
v 4.374030590057373 -47.98754119873047 -0.016768187284469604
v 23.155731201171875 -43.990623474121094 -0.016766443848609924
v -14.861867904663086 43.50324249267578 -0.016748882830142975
v -14.8618745803833 -43.50323486328125 -0.01676652953028679
v -36.195167541503906 30.586223602294922 -0.0167534239590168
v -36.19517517089844 -30.586214065551758 -0.016761545091867447
v -43.15178680419922 19.170459747314453 -0.016756571829319
v -43.15178680419922 -19.17044448852539 -0.016757283359766006
v -43.37928771972656 9.27117919921875 -0.016758590936660767
v -43.37928771972656 -9.271167755126953 -0.016753047704696655
vt 0.41514265537261963 0.5846335887908936
vt 0.4140849709510803 0.5846339464187622
vt 0.41514265537261963 0.5846335887908936
vt 0.416174054145813 0.5846339464187622
vt 0.41514265537261963 0.5846335887908936
vt 0.41514265537261963 0.585830569267273
vt 0.41343754529953003 0.5858328938484192
vt 0.41514265537261963 0.585830569267273
vt 0.41682153940200806 0.5858328938484192
vt 0.41514265537261963 0.585830569267273
vt 0.41514283418655396 0.5866023302078247
vt 0.4131677746772766 0.586602509021759
vt 0.41514283418655396 0.5866023302078247
vt 0.4171510338783264 0.586602509021759
vt 0.41514283418655396 0.5866023302078247
vt 0.4151427149772644 0.5850976705551147
vt 0.4138050675392151 0.5850990414619446
vt 0.4151427149772644 0.5850976705551147
vt 0.41648387908935547 0.5850990414619446
vt 0.4151427149772644 0.5850976705551147
vt 0.4151427149772644 0.5879744291305542
vt 0.41290146112442017 0.5879759788513184
vt 0.4151427149772644 0.5879744291305542
vt 0.4173874855041504 0.5879759788513184
vt 0.4151427149772644 0.5879744291305542
vt 0.4151427149772644 0.5865864157676697
vt 0.41321080923080444 0.586586594581604
vt 0.4151427149772644 0.5865864157676697
vt 0.41707807779312134 0.586586594581604
vt 0.4151427149772644 0.5865864157676697
vt 0.4151427149772644 0.5857049822807312
vt 0.4135759472846985 0.5857061147689819
vt 0.4151427149772644 0.5857049822807312
vt 0.41671305894851685 0.5857061147689819
vt 0.4151427149772644 0.5857049822807312
vt 0.4151427149772644 0.5846748948097229
vt 0.4140700697898865 0.5846756100654602
vt 0.4151427149772644 0.5846748948097229
vt 0.4162188172340393 0.5846756100654602
vt 0.4151427149772644 0.5846748948097229
vt 0.41671305894851685 0.5857061147689819
vt 0.41723209619522095 0.5846339464187622
vt 0.41723138093948364 0.583423912525177
vt 0.4171537756919861 0.5840287208557129
vt 0.4172316789627075 0.584028959274292
vt 0.4173097014427185 0.5840287208557129
vt 0.4170754551887512 0.5834234952926636
vt 0.41723138093948364 0.583423912525177
vt 0.41738730669021606 0.5834234952926636
vt 0.4172316789627075 0.584028959274292
vt 0.41514265537261963 0.5834234952926636
vt 0.4140849709510803 0.5846339464187622
vt 0.41514265537261963 0.5846335887908936
vt 0.4140849709510803 0.5846339464187622
vt 0.41514265537261963 0.5846335887908936
vt 0.416174054145813 0.5846339464187622
vt 0.41514265537261963 0.5846335887908936
vt 0.416174054145813 0.5846339464187622
vt 0.4138050675392151 0.5850990414619446
vt 0.4151427149772644 0.5850976705551147
vt 0.4138050675392151 0.5850990414619446
vt 0.4151427149772644 0.5850976705551147
vt 0.41648387908935547 0.5850990414619446
vt 0.4151427149772644 0.5850976705551147
vt 0.41648387908935547 0.5850990414619446
vt 0.41343754529953003 0.5858328938484192
vt 0.4131677746772766 0.586602509021759
vt 0.41514283418655396 0.5866023302078247
vt 0.41514265537261963 0.585830569267273
vt 0.4131677746772766 0.586602509021759
vt 0.41343754529953003 0.5858328938484192
vt 0.41514283418655396 0.5866023302078247
vt 0.41514265537261963 0.585830569267273
vt 0.4171510338783264 0.586602509021759
vt 0.41682153940200806 0.5858328938484192
vt 0.41514283418655396 0.5866023302078247
vt 0.41514265537261963 0.585830569267273
vt 0.4171510338783264 0.586602509021759
vt 0.41682153940200806 0.5858328938484192
vt 0.41290146112442017 0.5879759788513184
vt 0.4151427149772644 0.5879744291305542
vt 0.41290146112442017 0.5879759788513184
vt 0.4151427149772644 0.5879744291305542
vt 0.4173874855041504 0.5879759788513184
vt 0.4151427149772644 0.5879744291305542
vt 0.4173874855041504 0.5879759788513184
vt 0.41321080923080444 0.586586594581604
vt 0.4151427149772644 0.5865864157676697
vt 0.41321080923080444 0.586586594581604
vt 0.4151427149772644 0.5865864157676697
vt 0.41707807779312134 0.586586594581604
vt 0.4151427149772644 0.5865864157676697
vt 0.41707807779312134 0.586586594581604
vt 0.4135759472846985 0.5857061147689819
vt 0.4151427149772644 0.5857049822807312
vt 0.4135759472846985 0.5857061147689819
vt 0.4151427149772644 0.5857049822807312
vt 0.41671305894851685 0.5857061147689819
vt 0.4151427149772644 0.5857049822807312
vt 0.4140700697898865 0.5846756100654602
vt 0.4151427149772644 0.5846748948097229
vt 0.4140700697898865 0.5846756100654602
vt 0.4151427149772644 0.5846748948097229
vt 0.4162188172340393 0.5846756100654602
vt 0.4151427149772644 0.5846748948097229
vt 0.4162188172340393 0.5846756100654602
vt 0.4151427149772644 0.5834358930587769
vt 0.41723138093948364 0.583423912525177
vt 0.41723138093948364 0.583423912525177
vt 0.4170754551887512 0.5834234952926636
vt 0.41738730669021606 0.5834234952926636
vt 0.416174054145813 0.5846339464187622
vt 0.4140849709510803 0.5846339464187622
vt 0.41648387908935547 0.5850990414619446
vt 0.4138050675392151 0.5850990414619446
vt 0.41682153940200806 0.5858328938484192
vt 0.4171510338783264 0.586602509021759
vt 0.4131677746772766 0.586602509021759
vt 0.41343754529953003 0.5858328938484192
vt 0.4173874855041504 0.5879759788513184
vt 0.41290146112442017 0.5879759788513184
vt 0.41707807779312134 0.586586594581604
vt 0.41321080923080444 0.586586594581604
vt 0.41671305894851685 0.5857061147689819
vt 0.4135759472846985 0.5857061147689819
vt 0.4162188172340393 0.5846756100654602
vt 0.4140700697898865 0.5846756100654602
vn -0.9998103976249695 -0.008095281198620796 0.017710449174046516
vn -0.9998103976249695 0.0018441653810441494 0.019385071471333504
vn -0.9998103976249695 0.011289832182228565 0.0158658679574728
vn -0.9998103976249695 0.017710523679852486 0.008095411583781242
vn -0.9998103976249695 0.019385304301977158 -0.0018441096181049943
vn -0.46783390641212463 0.7230595946311951 -0.5082482695579529
vn -0.4678339958190918 0.37206393480300903 -0.8016855716705322
vn -0.467833936214447 -0.07862559705972672 -0.8803121447563171
vn -0.467833936214447 -0.5082477927207947 -0.723059892654419
vn -0.4678340554237366 -0.8016855120658875 -0.3720639944076538
vn 0.009667117148637772 0.9070305228233337 -0.420954167842865
vn 0.00966712087392807 0.5750343799591064 -0.8180721402168274
vn 0.00966713484376669 0.08895854651927948 -0.9959884285926819
vn 0.00966707430779934 -0.42095351219177246 -0.9070307016372681
vn 0.00966708268970251 -0.8180720210075378 -0.5750347375869751
vn -0.8757420778274536 0.4295576214790344 -0.22035452723503113
vn -0.8757420778274536 0.26183053851127625 -0.4056113362312317
vn -0.8757421374320984 0.023946670815348625 -0.48218488693237305
vn -0.8757422566413879 -0.22035400569438934 -0.429557740688324
vn -0.8757422566413879 -0.4056110084056854 -0.2618304491043091
vn 0.3777042031288147 0.7993370294570923 -0.4673326909542084
vn 0.37770435214042664 0.45857977867126465 -0.8043906092643738
vn 0.3777042627334595 -0.005053031258285046 -0.925912618637085
vn 0.37770402431488037 -0.46733224391937256 -0.7993373870849609
vn 0.3777042031288147 -0.8043904900550842 -0.4585798382759094
vn 0.707400381565094 0.6045345067977905 -0.3662278950214386
vn 0.7074003219604492 0.3404286801815033 -0.6194297671318054
vn 0.7074001431465149 -0.01489422470331192 -0.7066563367843628
vn 0.7074002623558044 -0.3662273585796356 -0.6045348644256592
vn 0.7074001431465149 -0.6194298267364502 -0.34042873978614807
vn 0.9597343802452087 0.23103037476539612 -0.15979650616645813
vn 0.9597343802452087 0.12018081545829773 -0.2539029121398926
vn 0.9597343802452087 -0.022871624678373337 -0.279976487159729
vn 0.959734320640564 -0.15979640185832977 -0.23103071749210358
vn 0.9597342610359192 -0.25390303134918213 -0.12018083035945892
vn 0.9907485246658325 -0.11815334111452103 0.06676330417394638
vn 0.9907484650611877 -0.06894158571958542 0.11689551919698715
vn 0.990748405456543 -0.0012582015478983521 0.13570566475391388
vn 0.9907484650611877 0.06676289439201355 0.11815331876277924
vn 0.9907485842704773 0.11689535528421402 0.06894147396087646
vn 0.9597343802452087 0.27997636795043945 -0.02287232130765915
vn 0.9696373343467712 -0.22281654179096222 -0.10077813267707825
vn -0.05385887622833252 0.2660071551799774 -0.9624652862548828
vn 0.4427250325679779 0.8937950730323792 -0.0715886726975441
vn -0.043643854558467865 -0.21429343521595 -0.9757938981056213
vn -0.02989979088306427 -0.9995487928390503 -0.0028975498862564564
vn 0.40214163064956665 0.9092221856117249 -0.10769104212522507
vn 0.31954658031463623 0.26336097717285156 0.9102367758750916
vn -0.383026123046875 -0.9222115278244019 0.05307431146502495
vn 0.21404291689395905 -0.23911647498607635 0.9471055865287781
vn -1.0 7.965958559452702e-09 2.2304685387553036e-07
vn -0.9998103976249695 0.015865985304117203 -0.011289405636489391
vn -0.9998103976249695 0.008095457218587399 -0.017710059881210327
vn -0.9998103976249695 -0.0018442536238580942 -0.01938524655997753
vn -0.9998103976249695 -0.011289693415164948 -0.015865854918956757
vn -0.9998103976249695 -0.017710233107209206 -0.008095268160104752
vn -0.9998103976249695 -0.0193851999938488 0.001844554441049695
vn -0.9998103976249695 -0.015865910798311234 0.01129028107970953
vn -0.8757423162460327 -0.48218458890914917 -0.02394602634012699
vn -0.8757423758506775 -0.4295572340488434 0.22035448253154755
vn -0.8757421970367432 -0.26183030009269714 0.4056112468242645
vn -0.8757421374320984 -0.023946374654769897 0.48218488693237305
vn -0.8757422566413879 0.22035427391529083 0.42955759167671204
vn -0.8757421970367432 0.4056110680103302 0.2618306875228882
vn -0.8757421374320984 0.48218491673469543 0.023946404457092285
vn -0.46783411502838135 -0.8803119659423828 0.07862626016139984
vn 0.009667121805250645 -0.9959884285926819 -0.08895830065011978
vn 0.00966718140989542 -0.9070303440093994 0.42095425724983215
vn -0.467833936214447 -0.7230594158172607 0.5082484483718872
vn 0.00966703426092863 -0.5750344395637512 0.8180720806121826
vn -0.4678339660167694 -0.37206387519836426 0.801685631275177
vn 0.009667066857218742 -0.08895859122276306 0.9959884285926819
vn -0.46783408522605896 0.0786258727312088 0.8803120255470276
vn 0.009667056612670422 0.4209538400173187 0.9070305824279785
vn -0.4678340256214142 0.5082480907440186 0.7230597138404846
vn 0.009667166508734226 0.8180719614028931 0.5750346183776855
vn -0.4678339958190918 0.8016855716705322 0.3720640242099762
vn 0.009667173027992249 0.9959885478019714 0.08895817399024963
vn -0.4678339958190918 0.8803121447563171 -0.07862623780965805
vn 0.3777041435241699 -0.9259125590324402 0.005053499713540077
vn 0.3777041435241699 -0.7993370294570923 0.46733275055885315
vn 0.3777042031288147 -0.4585799276828766 0.8043904304504395
vn 0.37770432233810425 0.005053207278251648 0.9259124994277954
vn 0.37770429253578186 0.4673323929309845 0.7993371486663818
vn 0.377704381942749 0.8043904304504395 0.45857977867126465
vn 0.37770429253578186 0.9259124994277954 -0.005053587723523378
vn 0.7074001431465149 -0.7066563367843628 0.014894806779921055
vn 0.7074001431465149 -0.6045348048210144 0.3662276566028595
vn 0.7074002623558044 -0.34042888879776 0.6194297075271606
vn 0.7074001431465149 0.014894392341375351 0.7066563367843628
vn 0.7074002623558044 0.366227388381958 0.6045348644256592
vn 0.7074002623558044 0.6194297075271606 0.3404286801815033
vn 0.7074002623558044 0.7066562175750732 -0.014895014464855194
vn 0.9597342610359192 -0.2799767851829529 0.022871805354952812
vn 0.959734320640564 -0.23103082180023193 0.15979614853858948
vn 0.959734320640564 -0.12018076330423355 0.2539028227329254
vn 0.959734320640564 0.022871535271406174 0.2799767255783081
vn 0.959734320640564 0.15979638695716858 0.2310306429862976
vn 0.9597343802452087 0.25390276312828064 0.1201804056763649
vn 0.9907484650611877 0.13570529222488403 0.0012571834959089756
vn 0.990748405456543 0.11815327405929565 -0.06676372140645981
vn 0.9907484650611877 0.06894144415855408 -0.11689569801092148
vn 0.9907483458518982 0.001258013304322958 -0.13570594787597656
vn 0.990748405456543 -0.06676286458969116 -0.11815375089645386
vn 0.990748405456543 -0.11689554899930954 -0.06894199550151825
vn 0.990748405456543 -0.13570554554462433 -0.0012579496251419187
vn 1.0 -3.489670419298818e-08 -2.738049147410493e-07
vn -0.858150839805603 0.4615139663219452 0.2249043732881546
vn -0.858150839805603 0.4615139663219452 0.2249043732881546
vn -0.7521397471427917 0.6277773976325989 0.20045281946659088
vn -0.9302823543548584 0.2770301103591919 0.2404767870903015
vn -0.9998103976249695 0.015865985304117203 -0.011289405636489391
vn -0.9998103976249695 -0.015865910798311234 0.01129028107970953
vn -0.8757423162460327 -0.48218458890914917 -0.02394602634012699
vn -0.8757421374320984 0.48218491673469543 0.023946404457092285
vn -0.46783411502838135 -0.8803119659423828 0.07862626016139984
vn 0.009667121805250645 -0.9959884285926819 -0.08895830065011978
vn 0.009667173027992249 0.9959885478019714 0.08895817399024963
vn -0.4678339958190918 0.8803121447563171 -0.07862623780965805
vn 0.3777041435241699 -0.9259125590324402 0.005053499713540077
vn 0.37770429253578186 0.9259124994277954 -0.005053587723523378
vn 0.7074001431465149 -0.7066563367843628 0.014894806779921055
vn 0.7074002623558044 0.7066562175750732 -0.014895014464855194
vn 0.9597342610359192 -0.2799767851829529 0.022871805354952812
vn 0.9597343802452087 0.27997636795043945 -0.02287232130765915
vn 0.9907484650611877 0.13570529222488403 0.0012571834959089756
vn 0.990748405456543 -0.13570554554462433 -0.0012579496251419187
f 127/127/127 105/105/105 107/107/107
f 105/105/105 104/104/104 107/107/107
f 104/104/104 103/103/103 107/107/107
f 103/103/103 102/102/102 107/107/107
f 102/102/102 101/101/101 107/107/107
f 101/101/101 126/126/126 107/107/107
f 105/105/105 127/127/127 125/125/125
f 125/125/125 99/99/99 105/105/105
f 104/104/104 105/105/105 99/99/99
f 99/99/99 98/98/98 104/104/104
f 103/103/103 104/104/104 98/98/98
f 98/98/98 97/97/97 103/103/103
f 102/102/102 103/103/103 97/97/97
f 97/97/97 96/96/96 102/102/102
f 101/101/101 102/102/102 96/96/96
f 96/96/96 95/95/95 101/101/101
f 126/126/126 101/101/101 95/95/95
f 95/95/95 124/124/124 126/126/126
f 99/99/99 125/125/125 123/123/123
f 123/123/123 92/92/92 99/99/99
f 98/98/98 99/99/99 92/92/92
f 92/92/92 91/91/91 98/98/98
f 97/97/97 98/98/98 91/91/91
f 91/91/91 90/90/90 97/97/97
f 96/96/96 97/97/97 90/90/90
f 90/90/90 89/89/89 96/96/96
f 95/95/95 96/96/96 89/89/89
f 89/89/89 88/88/88 95/95/95
f 124/124/124 95/95/95 88/88/88
f 88/88/88 122/122/122 124/124/124
f 92/92/92 123/123/123 121/121/121
f 121/121/121 85/85/85 92/92/92
f 91/91/91 92/92/92 85/85/85
f 85/85/85 84/84/84 91/91/91
f 90/90/90 91/91/91 84/84/84
f 84/84/84 83/83/83 90/90/90
f 89/89/89 90/90/90 83/83/83
f 83/83/83 82/82/82 89/89/89
f 88/88/88 89/89/89 82/82/82
f 82/82/82 81/81/81 88/88/88
f 122/122/122 88/88/88 81/81/81
f 81/81/81 120/120/120 122/122/122
f 85/85/85 121/121/121 118/118/118
f 118/118/118 76/76/76 85/85/85
f 84/84/84 85/85/85 76/76/76
f 76/76/76 74/74/74 84/84/84
f 83/83/83 84/84/84 74/74/74
f 74/74/74 72/72/72 83/83/83
f 82/82/82 83/83/83 72/72/72
f 72/72/72 70/70/70 82/82/82
f 81/81/81 82/82/82 70/70/70
f 70/70/70 68/68/68 81/81/81
f 120/120/120 81/81/81 68/68/68
f 68/68/68 117/117/117 120/120/120
f 115/115/115 64/64/64 77/77/77
f 77/77/77 119/119/119 115/115/115
f 64/64/64 63/63/63 75/75/75
f 75/75/75 77/77/77 64/64/64
f 63/63/63 62/62/62 73/73/73
f 73/73/73 75/75/75 63/63/63
f 62/62/62 61/61/61 71/71/71
f 71/71/71 73/73/73 62/62/62
f 61/61/61 60/60/60 69/69/69
f 69/69/69 71/71/71 61/61/61
f 60/60/60 114/114/114 116/116/116
f 116/116/116 69/69/69 60/60/60
f 77/77/77 76/76/76 118/118/118
f 118/118/118 119/119/119 77/77/77
f 75/75/75 74/74/74 76/76/76
f 76/76/76 77/77/77 75/75/75
f 73/73/73 72/72/72 74/74/74
f 74/74/74 75/75/75 73/73/73
f 71/71/71 70/70/70 72/72/72
f 72/72/72 73/73/73 71/71/71
f 69/69/69 68/68/68 70/70/70
f 70/70/70 71/71/71 69/69/69
f 116/116/116 117/117/117 68/68/68
f 68/68/68 69/69/69 116/116/116
f 113/113/113 57/57/57 64/64/64
f 64/64/64 115/115/115 113/113/113
f 57/57/57 56/56/56 63/63/63
f 63/63/63 64/64/64 57/57/57
f 56/56/56 55/55/55 62/62/62
f 62/62/62 63/63/63 56/56/56
f 55/55/55 54/54/54 61/61/61
f 61/61/61 62/62/62 55/55/55
f 54/54/54 53/53/53 60/60/60
f 60/60/60 61/61/61 54/54/54
f 53/53/53 112/112/112 114/114/114
f 114/114/114 60/60/60 53/53/53
f 51/51/51 57/57/57 113/113/113
f 51/51/51 56/56/56 57/57/57
f 51/51/51 55/55/55 56/56/56
f 51/51/51 54/54/54 55/55/55
f 51/51/51 53/53/53 54/54/54
f 51/51/51 112/112/112 53/53/53
f 108/108/108 111/111/111 109/109/109
f 108/108/108 109/109/109 110/110/110
f 50/50/50 46/46/46 42/42/42
f 44/44/44 50/50/50 42/42/42
f 50/50/50 48/48/48 49/49/49
f 49/49/49 46/46/46 50/50/50
f 44/44/44 47/47/47 48/48/48
f 48/48/48 50/50/50 44/44/44
f 45/45/45 42/42/42 46/46/46
f 44/44/44 42/42/42 45/45/45
f 45/45/45 46/46/46 49/49/49
f 49/49/49 43/43/43 45/45/45
f 44/44/44 45/45/45 43/43/43
f 43/43/43 47/47/47 44/44/44
f 100/100/100 40/40/40 107/107/107
f 40/40/40 39/39/39 107/107/107
f 39/39/39 38/38/38 107/107/107
f 38/38/38 37/37/37 107/107/107
f 37/37/37 36/36/36 107/107/107
f 36/36/36 106/106/106 107/107/107
f 40/40/40 100/100/100 94/94/94
f 94/94/94 35/35/35 40/40/40
f 39/39/39 40/40/40 35/35/35
f 35/35/35 34/34/34 39/39/39
f 38/38/38 39/39/39 34/34/34
f 34/34/34 33/33/33 38/38/38
f 37/37/37 38/38/38 33/33/33
f 33/33/33 32/32/32 37/37/37
f 36/36/36 37/37/37 32/32/32
f 32/32/32 31/31/31 36/36/36
f 106/106/106 36/36/36 31/31/31
f 31/31/31 41/41/41 106/106/106
f 35/35/35 94/94/94 87/87/87
f 87/87/87 30/30/30 35/35/35
f 34/34/34 35/35/35 30/30/30
f 30/30/30 29/29/29 34/34/34
f 33/33/33 34/34/34 29/29/29
f 29/29/29 28/28/28 33/33/33
f 32/32/32 33/33/33 28/28/28
f 28/28/28 27/27/27 32/32/32
f 31/31/31 32/32/32 27/27/27
f 27/27/27 26/26/26 31/31/31
f 41/41/41 31/31/31 26/26/26
f 26/26/26 93/93/93 41/41/41
f 30/30/30 87/87/87 80/80/80
f 80/80/80 25/25/25 30/30/30
f 29/29/29 30/30/30 25/25/25
f 25/25/25 24/24/24 29/29/29
f 28/28/28 29/29/29 24/24/24
f 24/24/24 23/23/23 28/28/28
f 27/27/27 28/28/28 23/23/23
f 23/23/23 22/22/22 27/27/27
f 26/26/26 27/27/27 22/22/22
f 22/22/22 21/21/21 26/26/26
f 93/93/93 26/26/26 21/21/21
f 21/21/21 86/86/86 93/93/93
f 25/25/25 80/80/80 67/67/67
f 67/67/67 15/15/15 25/25/25
f 24/24/24 25/25/25 15/15/15
f 15/15/15 14/14/14 24/24/24
f 23/23/23 24/24/24 14/14/14
f 14/14/14 13/13/13 23/23/23
f 22/22/22 23/23/23 13/13/13
f 13/13/13 12/12/12 22/22/22
f 21/21/21 22/22/22 12/12/12
f 12/12/12 11/11/11 21/21/21
f 86/86/86 21/21/21 11/11/11
f 11/11/11 78/78/78 86/86/86
f 59/59/59 20/20/20 10/10/10
f 10/10/10 66/66/66 59/59/59
f 20/20/20 19/19/19 9/9/9
f 9/9/9 10/10/10 20/20/20
f 19/19/19 18/18/18 8/8/8
f 8/8/8 9/9/9 19/19/19
f 18/18/18 17/17/17 7/7/7
f 7/7/7 8/8/8 18/18/18
f 17/17/17 16/16/16 6/6/6
f 6/6/6 7/7/7 17/17/17
f 16/16/16 65/65/65 79/79/79
f 79/79/79 6/6/6 16/16/16
f 10/10/10 15/15/15 67/67/67
f 67/67/67 66/66/66 10/10/10
f 9/9/9 14/14/14 15/15/15
f 15/15/15 10/10/10 9/9/9
f 8/8/8 13/13/13 14/14/14
f 14/14/14 9/9/9 8/8/8
f 7/7/7 12/12/12 13/13/13
f 13/13/13 8/8/8 7/7/7
f 6/6/6 11/11/11 12/12/12
f 12/12/12 7/7/7 6/6/6
f 79/79/79 78/78/78 11/11/11
f 11/11/11 6/6/6 79/79/79
f 52/52/52 5/5/5 20/20/20
f 20/20/20 59/59/59 52/52/52
f 5/5/5 4/4/4 19/19/19
f 19/19/19 20/20/20 5/5/5
f 4/4/4 3/3/3 18/18/18
f 18/18/18 19/19/19 4/4/4
f 3/3/3 2/2/2 17/17/17
f 17/17/17 18/18/18 3/3/3
f 2/2/2 1/1/1 16/16/16
f 16/16/16 17/17/17 2/2/2
f 1/1/1 58/58/58 65/65/65
f 65/65/65 16/16/16 1/1/1
f 51/51/51 5/5/5 52/52/52
f 51/51/51 4/4/4 5/5/5
f 51/51/51 3/3/3 4/4/4
f 51/51/51 2/2/2 3/3/3
f 51/51/51 1/1/1 2/2/2
f 51/51/51 58/58/58 1/1/1
