# Recovered local-space geometry; original node transforms not applied
o mesh_0
v 0.25026735663414 -0.030978679656982422 24.58522605895996
v -1.0711331367492676 6.5986647605896 50.44121170043945
v 0.5009511709213257 4.134995937347412 38.582679748535156
v -1.7179546356201172 1.8652901649475098 40.3889045715332
v 0.6587416529655457 -0.8391642570495605 40.3862419128418
v 1.9551634788513184 9.149633407592773 46.93854904174805
v 6.209508895874023 6.428637981414795 48.49778366088867
v 2.7185139656066895 3.097071886062622 50.32783126831055
v 2.9997940063476562 1.8652901649475098 39.97615432739258
v -7.784682750701904 13.567660331726074 31.46751594543457
v -13.519052505493164 7.83328914642334 31.46751594543457
v -15.617975234985352 2.765655517578125e-05 31.46751594543457
v -13.519049644470215 -7.833305358886719 31.46751594543457
v -7.784678936004639 -13.56767749786377 31.46751594543457
v -14.388936996459961 25.006561279296875 28.904268264770508
v -24.957950592041016 14.437535285949707 28.90427017211914
v -28.82647705078125 2.4080276489257812e-05 28.904266357421875
v -24.95794677734375 -14.4375581741333 28.904268264770508
v -14.388930320739746 -25.006576538085938 28.90427017211914
v -19.827878952026367 34.42708206176758 16.24090576171875
v -34.37847137451172 19.876468658447266 16.240907669067383
v -41.93940353393555 2.193450927734375e-05 -0.079631008207798
v -39.70435333251953 2.3126602172851562e-05 16.240903854370117
v -34.378456115722656 -19.876501083374023 16.24090576171875
v -19.827871322631836 -34.42710494995117 16.24090576171875
v -20.945404052734375 36.3626823425293 -0.07963140308856964
v -36.3140754699707 20.993999481201172 -0.07963009178638458
v -36.31407165527344 -20.99402618408203 -0.07963009178638458
v -20.945392608642578 -36.36271286010742 -0.07962758839130402
v 0.04861372709274292 -5.7220458984375e-06 28.26715087890625
v 0.04861414432525635 -28.875102996826172 28.90427017211914
v 0.04861164093017578 28.875091552734375 28.90427017211914
v 0.048612870275974274 -39.75298309326172 16.24091339111328
v 0.048616230487823486 -15.666603088378906 31.467517852783203
v 0.048613619059324265 -41.988040924072266 -0.07962416857481003
v 7.881906986236572 -13.567673683166504 31.467519760131836
v 13.616278648376465 -7.8333024978637695 31.467519760131836
v 15.715201377868652 -4.145889397477731e-05 31.467519760131836
v 13.616278648376465 7.833292007446289 31.467519760131836
v 7.881906986236572 13.56766414642334 31.467519760131836
v 0.048609793186187744 15.66659164428711 31.467517852783203
v 14.486159324645996 -25.006572723388672 28.904272079467773
v 25.05517578125 -14.43755054473877 28.90427589416504
v 28.9237060546875 -3.987704258179292e-05 28.904272079467773
v 25.055179595947266 14.437542915344238 28.904273986816406
v 14.486160278320312 25.00656509399414 28.904273986816406
v 19.92510223388672 -34.427101135253906 16.24091339111328
v 34.47568893432617 -19.876487731933594 16.240915298461914
v 42.03663635253906 -3.971127443946898e-05 -0.07962114363908768
v 39.801578521728516 -4.0565882954979315e-05 16.24091148376465
v 36.41130447387695 20.994007110595703 -0.07962015271186829
v 34.47568893432617 19.87648582458496 16.240915298461914
v 19.92510986328125 34.427085876464844 16.24091339111328
v 0.04861874505877495 41.98802947998047 -0.07962416857481003
v 0.04861650615930557 39.75297546386719 16.24091339111328
v 21.04262924194336 -36.362701416015625 -0.07962456345558167
v 36.41130065917969 -20.9940185546875 -0.07962015271186829
v 21.042633056640625 36.362693786621094 -0.07962074875831604
v 0.04861634224653244 -8.742014870222192e-06 -0.0796254426240921
v 0.33658432960510254 0.7142820358276367 27.53093147277832
v -5.644937515258789 -8.255260467529297 32.8128776550293
v -0.21034789085388184 -6.8648200035095215 35.655399322509766
v -7.396496772766113 -15.850849151611328 37.26642608642578
v -0.14534497261047363 -14.218755722045898 40.71287155151367
v 0.8836953639984131 -24.09964942932129 42.76220703125
v 5.360360145568848 -5.417886257171631 36.546939849853516
v 7.330506324768066 -12.053951263427734 42.26325225830078
v 0.48992323875427246 0.7142801284790039 27.37905502319336
v -5.491599082946777 -8.255260467529297 32.6609992980957
v -0.05700945854187012 -6.864820957183838 35.50352096557617
v -7.243158340454102 -15.850849151611328 37.11454772949219
v 0.007994413375854492 -14.218755722045898 40.560997009277344
v 1.037034273147583 -24.09964942932129 42.61033248901367
v 5.513698577880859 -5.417887210845947 36.395057678222656
v 7.483844757080078 -12.053951263427734 42.11137008666992
v 0.048616230487823486 -15.666603088378906 31.467517852783203
v 0.048609793186187744 15.66659164428711 31.467517852783203
v 0.04861414432525635 -28.875102996826172 28.90427017211914
v 0.04861164093017578 28.875091552734375 28.90427017211914
v 0.048612870275974274 -39.75298309326172 16.24091339111328
v 0.048613619059324265 -41.988040924072266 -0.07962416857481003
v 0.04861874505877495 41.98802947998047 -0.07962416857481003
v 0.04861650615930557 39.75297546386719 16.24091339111328
v -20.945404052734375 36.3626823425293 -0.07963140308856964
v 0.04861874505877495 41.98802947998047 -0.07962416857481003
v -36.3140754699707 20.993999481201172 -0.07963009178638458
v -41.93940353393555 2.193450927734375e-05 -0.079631008207798
v -20.945392608642578 -36.36271286010742 -0.07962758839130402
v -36.31407165527344 -20.99402618408203 -0.07963009178638458
v 0.048613619059324265 -41.988040924072266 -0.07962416857481003
v 42.03663635253906 -3.971127443946898e-05 -0.07962114363908768
v 36.41130065917969 -20.9940185546875 -0.07962015271186829
v 36.41130447387695 20.994007110595703 -0.07962015271186829
v 21.042633056640625 36.362693786621094 -0.07962074875831604
v 21.04262924194336 -36.362701416015625 -0.07962456345558167
vt 0.9696025252342224 0.6323694586753845
vt 0.9984216690063477 0.6323450207710266
vt 0.9840167164802551 0.6295238137245178
vt 0.9840121865272522 0.6323572993278503
vt 0.9840167164802551 0.6351909637451172
vt 0.9984310269355774 0.6266777515411377
vt 0.9984216690063477 0.6323450207710266
vt 0.9984310269355774 0.6380124092102051
vt 0.9840121865272522 0.6323572993278503
vt 0.9214303493499756 0.6326181292533875
vt 0.929116427898407 0.6326181292533875
vt 0.9381238222122192 0.6326181292533875
vt 0.947131335735321 0.6326181292533875
vt 0.9548173546791077 0.6326181292533875
vt 0.9073560237884521 0.6432704329490662
vt 0.9215222001075745 0.6432704329490662
vt 0.9381238222122192 0.6432704329490662
vt 0.9547255039215088 0.6432704329490662
vt 0.9688917398452759 0.6432704329490662
vt 0.8957650661468506 0.6601335406303406
vt 0.915267825126648 0.6601335406303406
vt 0.9381238222122192 0.682903528213501
vt 0.9381238222122192 0.6601335406303406
vt 0.9609797596931458 0.6601335406303406
vt 0.9804825782775879 0.6601335406303406
vt 0.8933835029602051 0.682903528213501
vt 0.9139828681945801 0.682903528213501
vt 0.9622647166252136 0.682903528213501
vt 0.9828640818595886 0.682903528213501
vt 0.9381238222122192 0.6253888607025146
vt 0.979296088218689 0.6432704329490662
vt 0.8969516158103943 0.6432704329490662
vt 0.9948065280914307 0.6601335406303406
vt 0.9604624509811401 0.6326181292533875
vt 0.9979934096336365 0.682903528213501
vt 0.9214303493499756 0.6326181292533875
vt 0.929116427898407 0.6326181292533875
vt 0.9381238222122192 0.6326181292533875
vt 0.947131335735321 0.6326181292533875
vt 0.9548173546791077 0.6326181292533875
vt 0.9157851934432983 0.6326181292533875
vt 0.9073560237884521 0.6432704329490662
vt 0.9215222001075745 0.6432704329490662
vt 0.9381238222122192 0.6432704329490662
vt 0.9547255039215088 0.6432704329490662
vt 0.9688917398452759 0.6432704329490662
vt 0.8957650661468506 0.6601335406303406
vt 0.915267825126648 0.6601335406303406
vt 0.9381238222122192 0.682903528213501
vt 0.9381238222122192 0.6601335406303406
vt 0.9622647166252136 0.682903528213501
vt 0.9609797596931458 0.6601335406303406
vt 0.9804825782775879 0.6601335406303406
vt 0.8782541155815125 0.682903528213501
vt 0.8814409971237183 0.6601335406303406
vt 0.8933835029602051 0.682903528213501
vt 0.9139828681945801 0.682903528213501
vt 0.9828640818595886 0.682903528213501
vt 0.9981040358543396 0.7166044116020203
vt 0.8763159513473511 0.7168105840682983
vt 0.8766264915466309 0.7326212525367737
vt 0.8821430206298828 0.7294790744781494
vt 0.8809423446655273 0.7436528205871582
vt 0.8888430595397949 0.7375882863998413
vt 0.8948150277137756 0.7473145723342896
vt 0.8896733522415161 0.7260664105415344
vt 0.8952239155769348 0.735195517539978
vt 0.8763159513473511 0.7168105840682983
vt 0.8766264915466309 0.7326212525367737
vt 0.8821430206298828 0.7294790744781494
vt 0.8809423446655273 0.7436528205871582
vt 0.8888430595397949 0.7375882863998413
vt 0.8948150277137756 0.7473145723342896
vt 0.8896733522415161 0.7260664105415344
vt 0.8952239155769348 0.735195517539978
vt 0.9157851934432983 0.6326181292533875
vt 0.9604624509811401 0.6326181292533875
vt 0.8969516158103943 0.6432704329490662
vt 0.979296088218689 0.6432704329490662
vt 0.8814409971237183 0.6601335406303406
vt 0.8782541155815125 0.682903528213501
vt 0.9979934096336365 0.682903528213501
vt 0.9948065280914307 0.6601335406303406
vt 0.9980716705322266 0.7476364374160767
vt 0.9980784058570862 0.7476400136947632
vt 0.9980716705322266 0.7476364374160767
vt 0.9980716705322266 0.7476364374160767
vt 0.9980716705322266 0.7476364374160767
vt 0.9980784058570862 0.7476400136947632
vt 0.9980716705322266 0.7476364374160767
vt 0.9980716705322266 0.7476364374160767
vt 0.9980784058570862 0.7476400136947632
vt 0.9980716705322266 0.7476364374160767
vt 0.9980784058570862 0.7476400136947632
vt 0.9980716705322266 0.7476364374160767
vn -0.11055517941713333 -0.0865616723895073 -0.9900932312011719
vn -0.6326891183853149 0.5309094786643982 0.5637726783752441
vn -0.07261292636394501 0.8868001699447632 -0.45641300082206726
vn -0.9746066927909851 -0.2042333334684372 0.09181781113147736
vn 0.025560621172189713 -0.9869168400764465 0.15919123589992523
vn 0.011017084121704102 0.9998089671134949 -0.016151180490851402
vn 0.8487374186515808 0.4689894914627075 0.2443227916955948
vn 0.133668914437294 -0.7780932784080505 0.6137617826461792
vn 0.9617480635643005 -0.2268865704536438 -0.1535029411315918
vn -0.008442807011306286 0.03542608395218849 0.9993366599082947
vn -0.025024592876434326 0.026458539068698883 0.9993366599082947
vn -0.03490126132965088 0.010401429608464241 0.9993366599082947
vn -0.03542613610625267 -0.008442661724984646 0.9993366599082947
vn -0.02645864523947239 -0.025024540722370148 0.9993366599082947
vn -0.22681035101413727 0.4456954598426819 0.8659750819206238
vn -0.4192712903022766 0.27257853746414185 0.8659749031066895
vn -0.4993889629840851 0.026424558833241463 0.8659749627113342
vn -0.44569578766822815 -0.22681008279323578 0.8659748435020447
vn -0.27257871627807617 -0.4192710816860199 0.8659750819206238
vn -0.5242712497711182 0.7458536028862 0.4109039902687073
vn -0.8269588351249695 0.383792906999588 0.41090402007102966
vn -0.9868961572647095 0.08814630657434464 0.13515248894691467
vn -0.9080638885498047 -0.08110479265451431 0.4109041392803192
vn -0.7458540201187134 -0.5242706537246704 0.4109041392803192
vn -0.3837929368019104 -0.8269586563110352 0.41090428829193115
vn -0.4171118140220642 0.8987500071525574 0.13515228033065796
vn -0.8106042742729187 0.5697846412658691 0.13515232503414154
vn -0.8987502455711365 -0.41711121797561646 0.13515277206897736
vn -0.5697850584983826 -0.8106040954589844 0.13515251874923706
vn -1.510383071945398e-07 3.807688386814334e-09 1.0
vn -0.026424357667565346 -0.49938875436782837 0.8659749627113342
vn 0.026424149051308632 0.4993886649608612 0.865975022315979
vn 0.08110503107309341 -0.9080636501312256 0.41090431809425354
vn -0.01040163915604353 -0.0349012054502964 0.9993366599082947
vn -0.08814575523138046 -0.9868961572647095 0.13515281677246094
vn 0.008442539721727371 -0.03542608395218849 0.9993366599082947
vn 0.025024447590112686 -0.0264584943652153 0.9993366599082947
vn 0.03490106761455536 -0.010401432402431965 0.9993366599082947
vn 0.035425957292318344 0.008442554622888565 0.9993366599082947
vn 0.02645837888121605 0.025024529546499252 0.9993366599082947
vn 0.010401205159723759 0.03490124270319939 0.9993366599082947
vn 0.22681006789207458 -0.4456954598426819 0.865975022315979
vn 0.41927120089530945 -0.27257850766181946 0.8659749627113342
vn 0.4993889033794403 -0.026424717158079147 0.8659748435020447
vn 0.4456957280635834 0.22680996358394623 0.8659749031066895
vn 0.27257850766181946 0.4192710518836975 0.865975022315979
vn 0.5242710709571838 -0.7458536624908447 0.41090425848960876
vn 0.8269588351249695 -0.38379305601119995 0.4109041690826416
vn 0.9868960976600647 -0.08814650774002075 0.13515299558639526
vn 0.9080637693405151 0.08110451698303223 0.410904198884964
vn 0.8987503051757812 0.41711103916168213 0.13515286147594452
vn 0.7458540201187134 0.5242704749107361 0.4109041690826416
vn 0.38379302620887756 0.8269585967063904 0.4109043478965759
vn 0.08814585953950882 0.986896276473999 0.1351526975631714
vn -0.08110523223876953 0.9080636501312256 0.41090428829193115
vn 0.4171115458011627 -0.8987501263618469 0.1351524144411087
vn 0.8106043338775635 -0.5697847008705139 0.1351526379585266
vn 0.5697852373123169 0.8106039762496948 0.13515251874923706
vn 1.3463834136473452e-07 -1.8947806851624636e-14 -1.0
vn -0.38256537914276123 0.6883032917976379 0.6163460612297058
vn -0.4871023893356323 0.5928646922111511 0.6412820816040039
vn -0.40183550119400024 0.593555212020874 0.6972951889038086
vn -0.47841063141822815 0.3934849798679352 0.7850432395935059
vn -0.3587006628513336 0.39279136061668396 0.8467873334884644
vn -0.35090896487236023 0.15499094128608704 0.9234937429428101
vn -0.29373395442962646 0.6084210276603699 0.7372545003890991
vn -0.2913125455379486 0.3760470747947693 0.8796167373657227
vn 0.38256505131721497 -0.6883032917976379 -0.6163461208343506
vn 0.48710229992866516 -0.5928646326065063 -0.6412822008132935
vn 0.4018353521823883 -0.5935553908348083 -0.6972951292991638
vn 0.47841089963912964 -0.39348503947257996 -0.7850431799888611
vn 0.35870039463043213 -0.3927915692329407 -0.8467873334884644
vn 0.3509087562561035 -0.1549910306930542 -0.9234939217567444
vn 0.2937334179878235 -0.6084212064743042 -0.7372545599937439
vn 0.2913118004798889 -0.37604737281799316 -0.8796169757843018
vn -0.01040163915604353 -0.0349012054502964 0.9993366599082947
vn 0.010401205159723759 0.03490124270319939 0.9993366599082947
vn -0.026424357667565346 -0.49938875436782837 0.8659749627113342
vn 0.026424149051308632 0.4993886649608612 0.865975022315979
vn 0.08110503107309341 -0.9080636501312256 0.41090431809425354
vn -0.08814575523138046 -0.9868961572647095 0.13515281677246094
vn 0.08814585953950882 0.986896276473999 0.1351526975631714
vn -0.08110523223876953 0.9080636501312256 0.41090428829193115
vn 1.9314747135013022e-07 -5.240323375232947e-08 -1.0
vn 2.53746776479602e-07 3.034313422745072e-08 -1.0
vn 9.118917887462885e-08 -6.350757075779256e-08 -1.0
vn 1.3255171893433726e-07 2.4868995751603507e-14 -1.0
vn 1.4772157896913996e-07 -2.6276941511582663e-08 -1.0
vn 1.3661518494245684e-07 -1.5172561873555424e-08 -1.0
vn 7.204284457884569e-08 -3.034315554373279e-08 -1.0
vn 1.0238598946443744e-07 -1.2434497875801753e-13 -1.0
vn 1.498309956105004e-07 7.54239337652507e-09 -1.0
vn 1.0440501085895448e-07 7.113765576605147e-08 -1.0
vn 1.387246300055267e-07 4.899192163065891e-08 -1.0
vn 9.329863814855344e-08 2.968824475146903e-08 -1.0
f 72/72/72 75/75/75 73/73/73
f 74/74/74 75/75/75 72/72/72
f 72/72/72 70/70/70 74/74/74
f 68/68/68 74/74/74 70/70/70
f 71/71/71 72/72/72 73/73/73
f 70/70/70 72/72/72 71/71/71
f 71/71/71 69/69/69 70/70/70
f 68/68/68 70/70/70 69/69/69
f 64/64/64 65/65/65 67/67/67
f 66/66/66 62/62/62 64/64/64
f 64/64/64 67/67/67 66/66/66
f 60/60/60 62/62/62 66/66/66
f 63/63/63 65/65/65 64/64/64
f 62/62/62 61/61/61 63/63/63
f 63/63/63 64/64/64 62/62/62
f 60/60/60 61/61/61 62/62/62
f 94/94/94 93/93/93 59/59/59
f 92/92/92 95/95/95 59/59/59
f 95/95/95 90/90/90 59/59/59
f 85/85/85 94/94/94 59/59/59
f 93/93/93 91/91/91 59/59/59
f 91/91/91 92/92/92 59/59/59
f 89/89/89 87/87/87 59/59/59
f 90/90/90 88/88/88 59/59/59
f 88/88/88 89/89/89 59/59/59
f 87/87/87 86/86/86 59/59/59
f 86/86/86 84/84/84 59/59/59
f 84/84/84 85/85/85 59/59/59
f 79/79/79 46/46/46 53/53/53
f 53/53/53 83/83/83 79/79/79
f 46/46/46 45/45/45 52/52/52
f 52/52/52 53/53/53 46/46/46
f 45/45/45 44/44/44 50/50/50
f 50/50/50 52/52/52 45/45/45
f 44/44/44 43/43/43 48/48/48
f 48/48/48 50/50/50 44/44/44
f 43/43/43 42/42/42 47/47/47
f 47/47/47 48/48/48 43/43/43
f 42/42/42 78/78/78 80/80/80
f 80/80/80 47/47/47 42/42/42
f 53/53/53 58/58/58 82/82/82
f 82/82/82 83/83/83 53/53/53
f 52/52/52 51/51/51 58/58/58
f 58/58/58 53/53/53 52/52/52
f 50/50/50 49/49/49 51/51/51
f 51/51/51 52/52/52 50/50/50
f 48/48/48 57/57/57 49/49/49
f 49/49/49 50/50/50 48/48/48
f 47/47/47 56/56/56 57/57/57
f 57/57/57 48/48/48 47/47/47
f 80/80/80 81/81/81 56/56/56
f 56/56/56 47/47/47 80/80/80
f 77/77/77 40/40/40 46/46/46
f 46/46/46 79/79/79 77/77/77
f 40/40/40 39/39/39 45/45/45
f 45/45/45 46/46/46 40/40/40
f 39/39/39 38/38/38 44/44/44
f 44/44/44 45/45/45 39/39/39
f 38/38/38 37/37/37 43/43/43
f 43/43/43 44/44/44 38/38/38
f 37/37/37 36/36/36 42/42/42
f 42/42/42 43/43/43 37/37/37
f 36/36/36 76/76/76 78/78/78
f 78/78/78 42/42/42 36/36/36
f 30/30/30 40/40/40 77/77/77
f 30/30/30 39/39/39 40/40/40
f 30/30/30 38/38/38 39/39/39
f 30/30/30 37/37/37 38/38/38
f 30/30/30 36/36/36 37/37/37
f 30/30/30 76/76/76 36/36/36
f 31/31/31 19/19/19 25/25/25
f 25/25/25 33/33/33 31/31/31
f 19/19/19 18/18/18 24/24/24
f 24/24/24 25/25/25 19/19/19
f 18/18/18 17/17/17 23/23/23
f 23/23/23 24/24/24 18/18/18
f 17/17/17 16/16/16 21/21/21
f 21/21/21 23/23/23 17/17/17
f 16/16/16 15/15/15 20/20/20
f 20/20/20 21/21/21 16/16/16
f 15/15/15 32/32/32 55/55/55
f 55/55/55 20/20/20 15/15/15
f 25/25/25 29/29/29 35/35/35
f 35/35/35 33/33/33 25/25/25
f 24/24/24 28/28/28 29/29/29
f 29/29/29 25/25/25 24/24/24
f 23/23/23 22/22/22 28/28/28
f 28/28/28 24/24/24 23/23/23
f 21/21/21 27/27/27 22/22/22
f 22/22/22 23/23/23 21/21/21
f 20/20/20 26/26/26 27/27/27
f 27/27/27 21/21/21 20/20/20
f 55/55/55 54/54/54 26/26/26
f 26/26/26 20/20/20 55/55/55
f 34/34/34 14/14/14 19/19/19
f 19/19/19 31/31/31 34/34/34
f 14/14/14 13/13/13 18/18/18
f 18/18/18 19/19/19 14/14/14
f 13/13/13 12/12/12 17/17/17
f 17/17/17 18/18/18 13/13/13
f 12/12/12 11/11/11 16/16/16
f 16/16/16 17/17/17 12/12/12
f 11/11/11 10/10/10 15/15/15
f 15/15/15 16/16/16 11/11/11
f 10/10/10 41/41/41 32/32/32
f 32/32/32 15/15/15 10/10/10
f 30/30/30 14/14/14 34/34/34
f 30/30/30 13/13/13 14/14/14
f 30/30/30 12/12/12 13/13/13
f 30/30/30 11/11/11 12/12/12
f 30/30/30 10/10/10 11/11/11
f 30/30/30 41/41/41 10/10/10
f 2/2/2 8/8/8 7/7/7
f 2/2/2 7/7/7 6/6/6
f 9/9/9 5/5/5 1/1/1
f 3/3/3 9/9/9 1/1/1
f 9/9/9 7/7/7 8/8/8
f 8/8/8 5/5/5 9/9/9
f 3/3/3 6/6/6 7/7/7
f 7/7/7 9/9/9 3/3/3
f 4/4/4 1/1/1 5/5/5
f 3/3/3 1/1/1 4/4/4
f 4/4/4 5/5/5 8/8/8
f 8/8/8 2/2/2 4/4/4
f 3/3/3 4/4/4 2/2/2
f 2/2/2 6/6/6 3/3/3
