# Recovered local-space geometry; original node transforms not applied
o mesh_0
v 15.140092849731445 -0.05212593078613281 -0.029891550540924072
v 57.62347412109375 4.480294227600098 1.0342786312103271
v 43.621788024902344 0.8199489116668701 -0.312491238117218
v 45.93638610839844 -2.0885863304138184 2.5309455394744873
v 45.93297576904297 -5.554234981536865 -0.5146936178207397
v 53.995201110839844 7.122743606567383 -2.1005465984344482
v 55.61035919189453 4.304169654846191 -6.507461071014404
v 62.09539794921875 -0.8728203773498535 -2.891273260116577
v 45.40746307373047 -2.0885863304138184 -3.5146567821502686
v 35.340843200683594 13.567663192749023 7.8165202140808105
v 35.340843200683594 7.8332929611206055 13.550895690917969
v 35.340843200683594 3.265208943048492e-05 15.649818420410156
v 35.340843200683594 -7.8333024978637695 13.550895690917969
v 35.340843200683594 -13.56767749786377 7.816527843475342
v 30.588579177856445 33.90369415283203 -0.016761787235736847
v 30.588579177856445 29.3614559173584 16.935073852539062
v 30.588579177856445 16.951841354370117 29.344688415527344
v 30.588571548461914 3.98547163058538e-05 33.88691711425781
v 30.588579177856445 -16.95184898376465 29.344688415527344
v 30.588579177856445 -29.361469268798828 16.935081481933594
v 20.457246780395508 38.631690979003906 -0.01676681637763977
v 4.450791358947754 44.75959396362305 -0.01676681637763977
v 4.450788497924805 38.762935638427734 20.97724151611328
v 20.457244873046875 33.456024169921875 19.299072265625
v 4.450788497924805 22.37979507446289 36.345916748046875
v 20.457244873046875 19.31584358215332 33.43925476074219
v 4.450788497924805 3.750289397430606e-05 41.97126007080078
v 20.457242965698242 3.421237488510087e-05 38.61492156982422
v 4.450788497924805 -22.37979507446289 36.34593200683594
v 20.457244873046875 -19.31584358215332 33.43925476074219
v 4.450788497924805 -38.7629508972168 20.977249145507812
v 20.457244873046875 -33.45603561401367 19.299087524414062
v 4.450791358947754 -44.759605407714844 -0.01676049828529358
v -12.706491470336914 36.8577880859375 -0.01676570624113083
v -12.706494331359863 31.919784545898438 18.412124633789062
v -12.706498146057129 18.428890228271484 31.90301513671875
v -12.706498146057129 3.441765147726983e-05 36.841026306152344
v -12.706498146057129 -18.428897857666016 31.90302276611328
v -12.706494331359863 -31.919795989990234 18.412132263183594
v -12.706491470336914 -36.85780334472656 -0.016760211437940598
v -32.054473876953125 28.259109497070312 -0.016759444028139114
v -32.054473876953125 24.473100662231445 14.112777709960938
v -32.054473876953125 14.129548072814941 24.456336975097656
v -32.054473876953125 3.915710840374231e-05 28.242340087890625
v -32.054473876953125 -14.129559516906738 24.456336975097656
v -32.054473876953125 -24.47311782836914 14.112777709960938
v -32.054473876953125 -28.25912094116211 -0.01676066219806671
v -37.444374084472656 17.31964683532715 -0.016758233308792114
v -37.444374084472656 14.999244689941406 8.643043518066406
v -37.444374084472656 8.65981388092041 14.982475280761719
v -37.44438171386719 3.576271774363704e-05 17.302871704101562
v -37.444374084472656 -8.659832000732422 14.982475280761719
v -37.444374084472656 -14.99926471710205 8.643043518066406
v -37.444374084472656 -17.31965446472168 -0.016760557889938354
v -33.81651306152344 -1.8546228602644987e-05 -0.016759958118200302
v 27.49589729309082 -5.720210538129322e-06 -0.016764193773269653
v 35.340843200683594 -15.666603088378906 -0.016763359308242798
v 35.34083557128906 -13.567673683166504 -7.85005521774292
v 35.34083557128906 -7.8333024978637695 -13.58442497253418
v 35.34083557128906 -4.172325134277344e-05 -15.683349609375
v 35.34083557128906 7.8332929611206055 -13.58442497253418
v 35.34083557128906 13.567667007446289 -7.85005521774292
v 35.340843200683594 15.66659164428711 -0.016760021448135376
v 30.588579177856445 -33.9036979675293 -0.016763046383857727
v 30.588577270507812 -29.361467361450195 -16.968605041503906
v 30.588577270507812 -16.95184898376465 -29.378219604492188
v 30.58856964111328 -4.645558146876283e-05 -33.92045211791992
v 30.588577270507812 16.951839447021484 -29.37821388244629
v 30.588577270507812 29.36145782470703 -16.968605041503906
v 20.457246780395508 -38.63169860839844 -0.016761332750320435
v 4.450786590576172 -38.762943267822266 -21.01077651977539
v 20.457242965698242 -33.456031799316406 -19.33260726928711
v 4.450786590576172 -22.37980079650879 -36.379451751708984
v 20.457242965698242 -19.31584930419922 -33.472782135009766
v 4.450786590576172 -4.246043317834847e-05 -42.00478744506836
v 20.45724105834961 -3.981590270996094e-05 -38.6484489440918
v 4.450786590576172 22.379789352416992 -36.379459381103516
v 20.457242965698242 19.315837860107422 -33.472782135009766
v 4.450786590576172 38.762943267822266 -21.010772705078125
v 20.457242965698242 33.45602798461914 -19.332611083984375
v -12.706496238708496 -31.91979217529297 -18.445653915405273
v -12.706500053405762 -18.428895950317383 -31.93655014038086
v -12.706500053405762 -4.0199571230914444e-05 -36.874549865722656
v -12.706500053405762 18.428892135620117 -31.936546325683594
v -12.706496238708496 31.919788360595703 -18.445653915405273
v -32.054473876953125 -24.473112106323242 -14.146309852600098
v -32.054473876953125 -14.129554748535156 -24.489864349365234
v -32.054473876953125 -4.628941314877011e-05 -28.275863647460938
v -32.054473876953125 14.12955379486084 -24.489858627319336
v -32.054473876953125 24.473108291625977 -14.146306991577148
v -37.444374084472656 -14.999255180358887 -8.676576614379883
v -37.444374084472656 -8.659823417663574 -15.016006469726562
v -37.44438171386719 -4.458427429199219e-05 -17.33639907836914
v -37.444374084472656 8.659822463989258 -15.016006469726562
v -37.444374084472656 14.99925422668457 -8.67657470703125
v 57.62347412109375 4.480294227600098 1.0342786312103271
v 55.61035919189453 4.304169654846191 -6.507461071014404
v 53.995201110839844 7.122743606567383 -2.1005465984344482
v 57.62347412109375 4.480294227600098 1.0342786312103271
v 62.09539794921875 -0.8728203773498535 -2.891273260116577
v 55.61035919189453 4.304169654846191 -6.507461071014404
v 4.450788497924805 38.762935638427734 20.97724151611328
v 4.450791358947754 44.75959396362305 -0.01676681637763977
v -12.706491470336914 36.8577880859375 -0.01676570624113083
v 4.450788497924805 38.762935638427734 20.97724151611328
v 4.450788497924805 22.37979507446289 36.345916748046875
v 4.450788497924805 38.762935638427734 20.97724151611328
v -12.706494331359863 31.919784545898438 18.412124633789062
v -12.706494331359863 31.919784545898438 18.412124633789062
v 4.450788497924805 22.37979507446289 36.345916748046875
v 4.450788497924805 3.750289397430606e-05 41.97126007080078
v 4.450788497924805 22.37979507446289 36.345916748046875
v -12.706498146057129 18.428890228271484 31.90301513671875
v -12.706498146057129 18.428890228271484 31.90301513671875
v 4.450788497924805 3.750289397430606e-05 41.97126007080078
v 4.450788497924805 -22.37979507446289 36.34593200683594
v 4.450788497924805 3.750289397430606e-05 41.97126007080078
v -12.706498146057129 3.441765147726983e-05 36.841026306152344
v -12.706498146057129 3.441765147726983e-05 36.841026306152344
v 4.450788497924805 -22.37979507446289 36.34593200683594
v 4.450788497924805 -38.7629508972168 20.977249145507812
v 4.450788497924805 -22.37979507446289 36.34593200683594
v -12.706498146057129 -18.428897857666016 31.90302276611328
v -12.706498146057129 -18.428897857666016 31.90302276611328
v 4.450788497924805 -38.7629508972168 20.977249145507812
v 4.450791358947754 -44.759605407714844 -0.01676049828529358
v 4.450788497924805 -38.7629508972168 20.977249145507812
v -12.706494331359863 -31.919795989990234 18.412132263183594
v -12.706494331359863 -31.919795989990234 18.412132263183594
v 4.450791358947754 -44.759605407714844 -0.01676049828529358
v -12.706494331359863 31.919784545898438 18.412124633789062
v -12.706491470336914 36.8577880859375 -0.01676570624113083
v -12.706498146057129 18.428890228271484 31.90301513671875
v -12.706494331359863 31.919784545898438 18.412124633789062
v -32.054473876953125 24.473100662231445 14.112777709960938
v -12.706498146057129 3.441765147726983e-05 36.841026306152344
v -12.706498146057129 18.428890228271484 31.90301513671875
v -32.054473876953125 14.129548072814941 24.456336975097656
v -12.706498146057129 -18.428897857666016 31.90302276611328
v -12.706498146057129 3.441765147726983e-05 36.841026306152344
v -32.054473876953125 3.915710840374231e-05 28.242340087890625
v -12.706494331359863 -31.919795989990234 18.412132263183594
v -12.706498146057129 -18.428897857666016 31.90302276611328
v -32.054473876953125 -14.129559516906738 24.456336975097656
v -12.706491470336914 -36.85780334472656 -0.016760211437940598
v -12.706494331359863 -31.919795989990234 18.412132263183594
v -32.054473876953125 -24.47311782836914 14.112777709960938
v -32.054473876953125 24.473100662231445 14.112777709960938
v -32.054473876953125 28.259109497070312 -0.016759444028139114
v -32.054473876953125 14.129548072814941 24.456336975097656
v -32.054473876953125 24.473100662231445 14.112777709960938
v -37.444374084472656 14.999244689941406 8.643043518066406
v -32.054473876953125 3.915710840374231e-05 28.242340087890625
v -32.054473876953125 14.129548072814941 24.456336975097656
v -37.444374084472656 8.65981388092041 14.982475280761719
v -32.054473876953125 -14.129559516906738 24.456336975097656
v -32.054473876953125 3.915710840374231e-05 28.242340087890625
v -37.44438171386719 3.576271774363704e-05 17.302871704101562
v -32.054473876953125 -24.47311782836914 14.112777709960938
v -32.054473876953125 -14.129559516906738 24.456336975097656
v -37.444374084472656 -8.659832000732422 14.982475280761719
v -32.054473876953125 -28.25912094116211 -0.01676066219806671
v -32.054473876953125 -24.47311782836914 14.112777709960938
v -37.444374084472656 -14.99926471710205 8.643043518066406
v -37.444374084472656 8.65981388092041 14.982475280761719
v -37.444374084472656 14.999244689941406 8.643043518066406
v -37.44438171386719 3.576271774363704e-05 17.302871704101562
v -37.444374084472656 8.65981388092041 14.982475280761719
v -33.81651306152344 -1.8546228602644987e-05 -0.016759958118200302
v -37.444374084472656 -8.659832000732422 14.982475280761719
v -37.44438171386719 3.576271774363704e-05 17.302871704101562
v -33.81651306152344 -1.8546228602644987e-05 -0.016759958118200302
v -37.444374084472656 -14.99926471710205 8.643043518066406
v -37.444374084472656 -8.659832000732422 14.982475280761719
v -33.81651306152344 -1.8546228602644987e-05 -0.016759958118200302
v -37.444374084472656 -17.31965446472168 -0.016760557889938354
v -37.444374084472656 -14.99926471710205 8.643043518066406
v -33.81651306152344 -1.8546228602644987e-05 -0.016759958118200302
v -33.81651306152344 -1.8546228602644987e-05 -0.016759958118200302
v -37.444374084472656 14.999244689941406 8.643043518066406
v -37.444374084472656 17.31964683532715 -0.016758233308792114
v 4.450786590576172 -38.762943267822266 -21.01077651977539
v 4.450791358947754 -44.759605407714844 -0.01676049828529358
v -12.706491470336914 -36.85780334472656 -0.016760211437940598
v -12.706491470336914 -36.85780334472656 -0.016760211437940598
v 4.450786590576172 -38.762943267822266 -21.01077651977539
v 4.450786590576172 -22.37980079650879 -36.379451751708984
v 4.450786590576172 -38.762943267822266 -21.01077651977539
v -12.706496238708496 -31.91979217529297 -18.445653915405273
v -12.706496238708496 -31.91979217529297 -18.445653915405273
v 4.450786590576172 -22.37980079650879 -36.379451751708984
v 4.450786590576172 -4.246043317834847e-05 -42.00478744506836
v 4.450786590576172 -22.37980079650879 -36.379451751708984
v -12.706500053405762 -18.428895950317383 -31.93655014038086
v -12.706500053405762 -18.428895950317383 -31.93655014038086
v 4.450786590576172 -4.246043317834847e-05 -42.00478744506836
v 4.450786590576172 22.379789352416992 -36.379459381103516
v 4.450786590576172 -4.246043317834847e-05 -42.00478744506836
v -12.706500053405762 -4.0199571230914444e-05 -36.874549865722656
v -12.706500053405762 -4.0199571230914444e-05 -36.874549865722656
v 4.450786590576172 22.379789352416992 -36.379459381103516
v 4.450786590576172 38.762943267822266 -21.010772705078125
v 4.450786590576172 22.379789352416992 -36.379459381103516
v -12.706500053405762 18.428892135620117 -31.936546325683594
v -12.706500053405762 18.428892135620117 -31.936546325683594
v 4.450786590576172 38.762943267822266 -21.010772705078125
v 4.450791358947754 44.75959396362305 -0.01676681637763977
v 4.450786590576172 38.762943267822266 -21.010772705078125
v -12.706496238708496 31.919788360595703 -18.445653915405273
v -12.706496238708496 31.919788360595703 -18.445653915405273
v -12.706491470336914 36.8577880859375 -0.01676570624113083
v 4.450791358947754 44.75959396362305 -0.01676681637763977
v -12.706496238708496 -31.91979217529297 -18.445653915405273
v -12.706491470336914 -36.85780334472656 -0.016760211437940598
v -32.054473876953125 -28.25912094116211 -0.01676066219806671
v -12.706500053405762 -18.428895950317383 -31.93655014038086
v -12.706496238708496 -31.91979217529297 -18.445653915405273
v -32.054473876953125 -24.473112106323242 -14.146309852600098
v -12.706500053405762 -4.0199571230914444e-05 -36.874549865722656
v -12.706500053405762 -18.428895950317383 -31.93655014038086
v -32.054473876953125 -14.129554748535156 -24.489864349365234
v -12.706500053405762 18.428892135620117 -31.936546325683594
v -12.706500053405762 -4.0199571230914444e-05 -36.874549865722656
v -32.054473876953125 -4.628941314877011e-05 -28.275863647460938
v -12.706496238708496 31.919788360595703 -18.445653915405273
v -12.706500053405762 18.428892135620117 -31.936546325683594
v -32.054473876953125 14.12955379486084 -24.489858627319336
v -12.706491470336914 36.8577880859375 -0.01676570624113083
v -12.706496238708496 31.919788360595703 -18.445653915405273
v -32.054473876953125 24.473108291625977 -14.146306991577148
v -32.054473876953125 28.259109497070312 -0.016759444028139114
v -32.054473876953125 -24.473112106323242 -14.146309852600098
v -32.054473876953125 -28.25912094116211 -0.01676066219806671
v -37.444374084472656 -17.31965446472168 -0.016760557889938354
v -32.054473876953125 -14.129554748535156 -24.489864349365234
v -32.054473876953125 -24.473112106323242 -14.146309852600098
v -37.444374084472656 -14.999255180358887 -8.676576614379883
v -32.054473876953125 -4.628941314877011e-05 -28.275863647460938
v -32.054473876953125 -14.129554748535156 -24.489864349365234
v -37.444374084472656 -8.659823417663574 -15.016006469726562
v -32.054473876953125 14.12955379486084 -24.489858627319336
v -32.054473876953125 -4.628941314877011e-05 -28.275863647460938
v -37.44438171386719 -4.458427429199219e-05 -17.33639907836914
v -32.054473876953125 24.473108291625977 -14.146306991577148
v -32.054473876953125 14.12955379486084 -24.489858627319336
v -37.444374084472656 8.659822463989258 -15.016006469726562
v -32.054473876953125 28.259109497070312 -0.016759444028139114
v -32.054473876953125 24.473108291625977 -14.146306991577148
v -37.444374084472656 14.99925422668457 -8.67657470703125
v -37.444374084472656 17.31964683532715 -0.016758233308792114
v -37.444374084472656 -14.999255180358887 -8.676576614379883
v -37.444374084472656 -17.31965446472168 -0.016760557889938354
v -33.81651306152344 -1.8546228602644987e-05 -0.016759958118200302
v -37.444374084472656 -8.659823417663574 -15.016006469726562
v -37.444374084472656 -14.999255180358887 -8.676576614379883
v -33.81651306152344 -1.8546228602644987e-05 -0.016759958118200302
v -37.44438171386719 -4.458427429199219e-05 -17.33639907836914
v -37.444374084472656 -8.659823417663574 -15.016006469726562
v -33.81651306152344 -1.8546228602644987e-05 -0.016759958118200302
v -37.444374084472656 8.659822463989258 -15.016006469726562
v -37.44438171386719 -4.458427429199219e-05 -17.33639907836914
v -33.81651306152344 -1.8546228602644987e-05 -0.016759958118200302
v -37.444374084472656 14.99925422668457 -8.67657470703125
v -37.444374084472656 8.659822463989258 -15.016006469726562
v -33.81651306152344 -1.8546228602644987e-05 -0.016759958118200302
v -37.444374084472656 17.31964683532715 -0.016758233308792114
v -37.444374084472656 14.99925422668457 -8.67657470703125
v -33.81651306152344 -1.8546228602644987e-05 -0.016759958118200302
vt 0.6929529905319214 0.6048918962478638
vt 0.7006816267967224 0.552872359752655
vt 0.6995848417282104 0.5862802863121033
vt 0.7032844424247742 0.5862895250320435
vt 0.7069836258888245 0.5862802863121033
vt 0.6930477023124695 0.5559107065200806
vt 0.7006816267967224 0.552872359752655
vt 0.7099617719650269 0.5610843896865845
vt 0.7032844424247742 0.5862895250320435
vt 0.6700792908668518 0.5191692113876343
vt 0.6793534159660339 0.519879937171936
vt 0.6874196529388428 0.519879937171936
vt 0.6962963342666626 0.519879937171936
vt 0.7049852013587952 0.5193157196044922
vt 0.6461143493652344 0.5241501331329346
vt 0.6584693193435669 0.5288201570510864
vt 0.6721396446228027 0.52964186668396
vt 0.6874256730079651 0.52964186668396
vt 0.7030724883079529 0.52964186668396
vt 0.718999981880188 0.5290974378585815
vt 0.6382119655609131 0.5375840663909912
vt 0.6361656188964844 0.558602511882782
vt 0.6506327986717224 0.5594579577445984
vt 0.6522082686424255 0.5391507744789124
vt 0.6661987900733948 0.5601427555084229
vt 0.6679109930992126 0.5414330959320068
vt 0.6874259114265442 0.5601427555084229
vt 0.6874259114265442 0.5414330959320068
vt 0.7090370655059814 0.5601427555084229
vt 0.7073251008987427 0.5414330959320068
vt 0.7256883382797241 0.5585930943489075
vt 0.7249356508255005 0.5401514172554016
vt 0.7405310869216919 0.558602511882782
vt 0.6383829712867737 0.581555187702179
vt 0.6531021595001221 0.5785970687866211
vt 0.6682701110839844 0.5763149261474609
vt 0.6876542568206787 0.5763149261474609
vt 0.7067375779151917 0.577455997467041
vt 0.7233081459999084 0.5805354118347168
vt 0.7389208078384399 0.5832669734954834
vt 0.649603545665741 0.6007040739059448
vt 0.6597750782966614 0.5964651107788086
vt 0.6722540855407715 0.5942314267158508
vt 0.6870627999305725 0.5932608842849731
vt 0.7025254368782043 0.5940368175506592
vt 0.7141181826591492 0.5976516604423523
vt 0.7241964936256409 0.6026439666748047
vt 0.659604012966156 0.6102252006530762
vt 0.6655094623565674 0.6055985689163208
vt 0.6753309369087219 0.6034750938415527
vt 0.6874289512634277 0.6028817296028137
vt 0.7003728747367859 0.6034750938415527
vt 0.7092328667640686 0.6061921119689941
vt 0.714936375617981 0.6105220317840576
vt 0.6874310970306396 0.6223045587539673
vt 0.6888060569763184 0.5022101402282715
vt 0.7135856747627258 0.5160900950431824
vt 0.7049852013587952 0.5193157196044922
vt 0.6962963342666626 0.519879937171936
vt 0.6874197721481323 0.519879937171936
vt 0.6793534159660339 0.519879937171936
vt 0.6700792908668518 0.5191692113876343
vt 0.661855161190033 0.5154839754104614
vt 0.7295117974281311 0.5253043174743652
vt 0.718999981880188 0.5290974378585815
vt 0.7030724883079529 0.52964186668396
vt 0.6874256730079651 0.52964186668396
vt 0.6721396446228027 0.52964186668396
vt 0.6584693193435669 0.5288201570510864
vt 0.738090455532074 0.5375158786773682
vt 0.7256883382797241 0.5585858821868896
vt 0.7249356508255005 0.5401514172554016
vt 0.7090370655059814 0.5601427555084229
vt 0.7073251008987427 0.5414330959320068
vt 0.6874259114265442 0.5601427555084229
vt 0.6874259114265442 0.5414330959320068
vt 0.6661987900733948 0.5601427555084229
vt 0.6679109930992126 0.5414330959320068
vt 0.6506327986717224 0.5594579577445984
vt 0.6522082686424255 0.5391507744789124
vt 0.7233081459999084 0.5805354118347168
vt 0.7067375779151917 0.577455997467041
vt 0.6876542568206787 0.5763149261474609
vt 0.6682701110839844 0.5763149261474609
vt 0.6531021595001221 0.5785970687866211
vt 0.7141181826591492 0.5976516604423523
vt 0.7025254368782043 0.5940368175506592
vt 0.6870627999305725 0.5932608842849731
vt 0.6722540855407715 0.5942314267158508
vt 0.6597750782966614 0.5964651107788086
vt 0.7092328667640686 0.6061921119689941
vt 0.7003727555274963 0.6034750938415527
vt 0.6874290108680725 0.6028817296028137
vt 0.6753309369087219 0.6034750938415527
vt 0.6655094623565674 0.6055985689163208
vt 0.7006816267967224 0.552872359752655
vt 0.7006816267967224 0.552872359752655
vt 0.6930477023124695 0.5559107065200806
vt 0.7006816267967224 0.552872359752655
vt 0.7099617719650269 0.5610843896865845
vt 0.7006816267967224 0.552872359752655
vt 0.6506327986717224 0.5594579577445984
vt 0.6361656188964844 0.558602511882782
vt 0.6383829712867737 0.581555187702179
vt 0.6506327986717224 0.5594579577445984
vt 0.6661987900733948 0.5601427555084229
vt 0.6506327986717224 0.5594579577445984
vt 0.6531021595001221 0.5785970687866211
vt 0.6531021595001221 0.5785970687866211
vt 0.6661987900733948 0.5601427555084229
vt 0.6874259114265442 0.5601427555084229
vt 0.6661987900733948 0.5601427555084229
vt 0.6682701110839844 0.5763149261474609
vt 0.6682701110839844 0.5763149261474609
vt 0.6874259114265442 0.5601427555084229
vt 0.7090370655059814 0.5601427555084229
vt 0.6874259114265442 0.5601427555084229
vt 0.6876542568206787 0.5763149261474609
vt 0.6876542568206787 0.5763149261474609
vt 0.7090370655059814 0.5601427555084229
vt 0.7256883382797241 0.5585930943489075
vt 0.7090370655059814 0.5601427555084229
vt 0.7067375779151917 0.577455997467041
vt 0.7067375779151917 0.577455997467041
vt 0.7256883382797241 0.5585930943489075
vt 0.7405310869216919 0.558602511882782
vt 0.7256883382797241 0.5585930943489075
vt 0.7233081459999084 0.5805354118347168
vt 0.7233081459999084 0.5805354118347168
vt 0.7405310869216919 0.558602511882782
vt 0.6531021595001221 0.5785970687866211
vt 0.6383829712867737 0.581555187702179
vt 0.6682701110839844 0.5763149261474609
vt 0.6531021595001221 0.5785970687866211
vt 0.6597750782966614 0.5964651107788086
vt 0.6876542568206787 0.5763149261474609
vt 0.6682701110839844 0.5763149261474609
vt 0.6722540855407715 0.5942314267158508
vt 0.7067375779151917 0.577455997467041
vt 0.6876542568206787 0.5763149261474609
vt 0.6870627999305725 0.5932608842849731
vt 0.7233081459999084 0.5805354118347168
vt 0.7067375779151917 0.577455997467041
vt 0.7025254368782043 0.5940368175506592
vt 0.7389208078384399 0.5832669734954834
vt 0.7233081459999084 0.5805354118347168
vt 0.7141181826591492 0.5976516604423523
vt 0.6597750782966614 0.5964651107788086
vt 0.649603545665741 0.6007040739059448
vt 0.6722540855407715 0.5942314267158508
vt 0.6597750782966614 0.5964651107788086
vt 0.6655094623565674 0.6055985689163208
vt 0.6870627999305725 0.5932608842849731
vt 0.6722540855407715 0.5942314267158508
vt 0.6753309369087219 0.6034750938415527
vt 0.7025254368782043 0.5940368175506592
vt 0.6870627999305725 0.5932608842849731
vt 0.6874289512634277 0.6028817296028137
vt 0.7141181826591492 0.5976516604423523
vt 0.7025254368782043 0.5940368175506592
vt 0.7003728747367859 0.6034750938415527
vt 0.7241964936256409 0.6026439666748047
vt 0.7141181826591492 0.5976516604423523
vt 0.7092328667640686 0.6061921119689941
vt 0.6753309369087219 0.6034750938415527
vt 0.6655094623565674 0.6055985689163208
vt 0.6874289512634277 0.6028817296028137
vt 0.6753309369087219 0.6034750938415527
vt 0.6874310970306396 0.6223045587539673
vt 0.7003728747367859 0.6034750938415527
vt 0.6874289512634277 0.6028817296028137
vt 0.6874310970306396 0.6223045587539673
vt 0.7092328667640686 0.6061921119689941
vt 0.7003728747367859 0.6034750938415527
vt 0.6874310970306396 0.6223045587539673
vt 0.714936375617981 0.6105220317840576
vt 0.7092328667640686 0.6061921119689941
vt 0.6880457401275635 0.6225844025611877
vt 0.6880274415016174 0.6221697330474854
vt 0.6655094623565674 0.6055985689163208
vt 0.659604012966156 0.6102252006530762
vt 0.7256883382797241 0.5585858821868896
vt 0.7405310869216919 0.558602511882782
vt 0.7389208078384399 0.5832669734954834
vt 0.7389208078384399 0.5832669734954834
vt 0.7256883382797241 0.5585858821868896
vt 0.7090370655059814 0.5601427555084229
vt 0.7256883382797241 0.5585858821868896
vt 0.7233081459999084 0.5805354118347168
vt 0.7233081459999084 0.5805354118347168
vt 0.7090370655059814 0.5601427555084229
vt 0.6874259114265442 0.5601427555084229
vt 0.7090370655059814 0.5601427555084229
vt 0.7067375779151917 0.577455997467041
vt 0.7067375779151917 0.577455997467041
vt 0.6874259114265442 0.5601427555084229
vt 0.6661987900733948 0.5601427555084229
vt 0.6874259114265442 0.5601427555084229
vt 0.6876542568206787 0.5763149261474609
vt 0.6876542568206787 0.5763149261474609
vt 0.6661987900733948 0.5601427555084229
vt 0.6506327986717224 0.5594579577445984
vt 0.6661987900733948 0.5601427555084229
vt 0.6682701110839844 0.5763149261474609
vt 0.6682701110839844 0.5763149261474609
vt 0.6506327986717224 0.5594579577445984
vt 0.6361656188964844 0.558602511882782
vt 0.6506327986717224 0.5594579577445984
vt 0.6531021595001221 0.5785970687866211
vt 0.6531021595001221 0.5785970687866211
vt 0.6383829712867737 0.581555187702179
vt 0.6361656188964844 0.558602511882782
vt 0.7233081459999084 0.5805354118347168
vt 0.7389208078384399 0.5832669734954834
vt 0.7241964936256409 0.6026439666748047
vt 0.7067375779151917 0.577455997467041
vt 0.7233081459999084 0.5805354118347168
vt 0.7141181826591492 0.5976516604423523
vt 0.6876542568206787 0.5763149261474609
vt 0.7067375779151917 0.577455997467041
vt 0.7025254368782043 0.5940368175506592
vt 0.6682701110839844 0.5763149261474609
vt 0.6876542568206787 0.5763149261474609
vt 0.6870627999305725 0.5932608842849731
vt 0.6531021595001221 0.5785970687866211
vt 0.6682701110839844 0.5763149261474609
vt 0.6722540855407715 0.5942314267158508
vt 0.6383829712867737 0.581555187702179
vt 0.6531021595001221 0.5785970687866211
vt 0.6597750782966614 0.5964651107788086
vt 0.649603545665741 0.6007040739059448
vt 0.7141181826591492 0.5976516604423523
vt 0.7241964936256409 0.6026439666748047
vt 0.714936375617981 0.6105220317840576
vt 0.7025254368782043 0.5940368175506592
vt 0.7141181826591492 0.5976516604423523
vt 0.7092328667640686 0.6061921119689941
vt 0.6870627999305725 0.5932608842849731
vt 0.7025254368782043 0.5940368175506592
vt 0.7003727555274963 0.6034750938415527
vt 0.6722540855407715 0.5942314267158508
vt 0.6870627999305725 0.5932608842849731
vt 0.6874290108680725 0.6028817296028137
vt 0.6597750782966614 0.5964651107788086
vt 0.6722540855407715 0.5942314267158508
vt 0.6753309369087219 0.6034750938415527
vt 0.649603545665741 0.6007040739059448
vt 0.6597750782966614 0.5964651107788086
vt 0.6655094623565674 0.6055985689163208
vt 0.659604012966156 0.6102252006530762
vt 0.7092328667640686 0.6061921119689941
vt 0.714936375617981 0.6105220317840576
vt 0.6874310970306396 0.6223045587539673
vt 0.7003727555274963 0.6034750938415527
vt 0.7092328667640686 0.6061921119689941
vt 0.6874310970306396 0.6223045587539673
vt 0.6874290108680725 0.6028817296028137
vt 0.7003727555274963 0.6034750938415527
vt 0.6874310970306396 0.6223045587539673
vt 0.6753309369087219 0.6034750938415527
vt 0.6874290108680725 0.6028817296028137
vt 0.6874310970306396 0.6223045587539673
vt 0.6655094623565674 0.6055985689163208
vt 0.6753309369087219 0.6034750938415527
vt 0.6874310970306396 0.6223045587539673
vt 0.659604012966156 0.6102252006530762
vt 0.6655094623565674 0.6055985689163208
vt 0.6874310970306396 0.6223045587539673
vn -0.9205089211463928 0.3588166832923889 0.15464116632938385
vn -0.05354396253824234 0.3159041106700897 0.9472790956497192
vn -0.3730255365371704 0.9251595735549927 0.0702262744307518
vn 0.06783366203308105 -0.09942933171987534 0.9927297830581665
vn 0.04970649257302284 -0.9986810088157654 -0.012866511940956116
vn -0.49954622983932495 0.8573620319366455 0.12403181195259094
vn -0.3827706575393677 0.2492576688528061 -0.8895827531814575
vn 0.32935288548469543 -0.9441407322883606 -0.011180631816387177
vn -0.1362462341785431 -0.15871316194534302 -0.9778788685798645
vn 0.9994829297065735 -0.0176802147179842 -0.02686021663248539
vn 0.9994829297065735 -0.001881476491689682 -0.03210173174738884
vn 0.9994828701019287 0.014421360567212105 -0.028741536661982536
vn 0.9994829297065735 0.02686023898422718 -0.017680149525403976
vn 0.9994829297065735 0.032101694494485855 -0.001881403150036931
vn 0.7719182968139648 0.6349405646324158 -0.03150664642453194
vn 0.7719182372093201 0.5656279921531677 0.29018476605415344
vn 0.7719183564186096 0.34475597739219666 0.5341213345527649
vn 0.7719182372093201 0.03150714561343193 0.6349405646324158
vn 0.7719182968139648 -0.2901841998100281 0.5656282305717468
vn 0.7719183564186096 -0.5341212153434753 0.344756156206131
vn 0.3859844505786896 0.9185934066772461 0.08486688882112503
vn 0.35045960545539856 0.9328093528747559 -0.08393432199954987
vn 0.3312244117259979 0.8486395478248596 0.4124336838722229
vn 0.3616988956928253 0.7591511607170105 0.5411685705184937
vn 0.2618042826652527 0.5410882830619812 0.7991758584976196
vn 0.3279246687889099 0.39476290345191956 0.8582701683044434
vn 0.2106657773256302 0.08653669059276581 0.973720371723175
vn 0.3187404274940491 -0.08160635828971863 0.9443224668502808
vn 0.2305530160665512 -0.3947148323059082 0.8894073963165283
vn 0.3438277542591095 -0.5350103378295898 0.7717165350914001
vn 0.30104860663414 -0.7700302004814148 0.5625150799751282
vn 0.37731796503067017 -0.8385612368583679 0.3929964303970337
vn 0.3504597842693329 -0.9328092932701111 0.08393429964780807
vn -0.4049130380153656 0.8791924715042114 0.25112953782081604
vn -0.39032378792762756 0.889306366443634 0.2382887303829193
vn -0.32692644000053406 0.668251097202301 0.6682511568069458
vn -0.2774815559387207 0.24865613877773285 0.9279946684837341
vn -0.2958614230155945 -0.24723130464553833 0.9226823449134827
vn -0.3615197241306305 -0.6592811346054077 0.6592813730239868
vn -0.4064539670944214 -0.8825386762619019 0.23647549748420715
vn -0.3944685757160187 0.8875983953475952 0.23783107101917267
vn -0.3944692313671112 0.887597918510437 0.23783184587955475
vn -0.39446893334388733 0.6497672200202942 0.6497668027877808
vn -0.3944689929485321 0.2378319948911667 0.8875980973243713
vn -0.39446917176246643 -0.23783056437969208 0.8875983953475952
vn -0.3944692313671112 -0.6497669219970703 0.6497668623924255
vn -0.3944687843322754 -0.8875982165336609 0.23783151805400848
vn -0.8908055424690247 0.4389021098613739 0.11760380119085312
vn -0.8908059000968933 0.43890121579170227 0.11760438978672028
vn -0.8908057808876038 0.3212982416152954 0.321298211812973
vn -0.8908053040504456 0.11760502308607101 0.43890202045440674
vn -0.8908057808876038 -0.11760365962982178 0.438901424407959
vn -0.8908056616783142 -0.32129836082458496 0.32129842042922974
vn -0.8908054828643799 -0.4389019310474396 0.11760392785072327
vn -0.9772852063179016 -0.14985594153404236 -0.14985592663288116
vn 1.0 -1.958187745287887e-08 -1.5665501962303097e-07
vn 0.9994828701019287 0.02874152734875679 0.014421327039599419
vn 0.9994828701019287 0.01768018677830696 0.026860008016228676
vn 0.9994829297065735 0.0018814633367583156 0.03210171312093735
vn 0.9994828701019287 -0.014421356841921806 0.02874152734875679
vn 0.9994829297065735 -0.026860198006033897 0.017680125311017036
vn 0.9994829297065735 -0.032101746648550034 0.0018812018679454923
vn 0.9994829297065735 -0.02874162048101425 -0.014421755447983742
vn 0.7719182968139648 -0.6349405646324158 0.031506530940532684
vn 0.7719183564186096 -0.5656280517578125 -0.29018473625183105
vn 0.7719181776046753 -0.3447559177875519 -0.5341213941574097
vn 0.7719181180000305 -0.03150706738233566 -0.6349407434463501
vn 0.7719182968139648 0.29018434882164 -0.5656281113624573
vn 0.7719183564186096 0.534121036529541 -0.3447560966014862
vn 0.38598448038101196 -0.9185932874679565 -0.08486683666706085
vn 0.3312244117259979 -0.8486394286155701 -0.4124336838722229
vn 0.3616988956928253 -0.7591512203216553 -0.5411686897277832
vn 0.2618045210838318 -0.5410880446434021 -0.799176037311554
vn 0.32792454957962036 -0.39476272463798523 -0.8582702875137329
vn 0.21066592633724213 -0.08653657883405685 -0.9737204313278198
vn 0.31874027848243713 0.08160644769668579 -0.9443225264549255
vn 0.2305530309677124 0.39471495151519775 -0.8894073367118835
vn 0.34382790327072144 0.5350103974342346 -0.7717164754867554
vn 0.30104854702949524 0.7700302600860596 -0.5625150203704834
vn 0.37731796503067017 0.8385612368583679 -0.39299649000167847
vn -0.3903239369392395 -0.8893062472343445 -0.238289013504982
vn -0.32692644000053406 -0.6682512164115906 -0.668251097202301
vn -0.27748173475265503 -0.24865557253360748 -0.9279947876930237
vn -0.2958616018295288 0.24723128974437714 -0.9226822853088379
vn -0.36151981353759766 0.6592811942100525 -0.6592812538146973
vn -0.3944690227508545 -0.8875980377197266 -0.23783165216445923
vn -0.39446917176246643 -0.6497668027877808 -0.6497670412063599
vn -0.3944689631462097 -0.23783175647258759 -0.8875980377197266
vn -0.3944692611694336 0.23783063888549805 -0.8875983357429504
vn -0.39446911215782166 0.6497668623924255 -0.6497671008110046
vn -0.8908056020736694 -0.43890172243118286 -0.11760378628969193
vn -0.8908056616783142 -0.3212984800338745 -0.3212985694408417
vn -0.8908051252365112 -0.11760494112968445 -0.4389024078845978
vn -0.8908055424690247 0.1176036149263382 -0.43890196084976196
vn -0.8908055424690247 0.3212985694408417 -0.3212985694408417
vn 0.6833826303482056 0.7024661898612976 -0.19882044196128845
vn 0.6833826303482056 0.7024661898612976 -0.19882044196128845
vn 0.6833826303482056 0.7024661898612976 -0.19882044196128845
vn 0.6764264106750488 0.7096384167671204 -0.19713109731674194
vn 0.6764264106750488 0.7096384167671204 -0.19713109731674194
vn 0.6764264106750488 0.7096384167671204 -0.19713109731674194
vn -0.4049130380153656 0.8791924715042114 0.25112953782081604
vn -0.4049130380153656 0.8791924715042114 0.25112953782081604
vn -0.39032378792762756 0.889306366443634 0.2382887303829193
vn -0.39032378792762756 0.889306366443634 0.2382887303829193
vn -0.35678210854530334 0.6391391754150391 0.6813278794288635
vn -0.35678210854530334 0.6391391754150391 0.6813278794288635
vn -0.35678210854530334 0.6391391754150391 0.6813278794288635
vn -0.32692644000053406 0.668251097202301 0.6682511568069458
vn -0.32692644000053406 0.668251097202301 0.6682511568069458
vn -0.29372116923332214 0.23302282392978668 0.9270535111427307
vn -0.29372116923332214 0.23302282392978668 0.9270535111427307
vn -0.29372116923332214 0.23302282392978668 0.9270535111427307
vn -0.2774815559387207 0.24865613877773285 0.9279946684837341
vn -0.2774815559387207 0.24865613877773285 0.9279946684837341
vn -0.2785167694091797 -0.23412828147411346 0.9314571022987366
vn -0.2785167694091797 -0.23412828147411346 0.9314571022987366
vn -0.2785167694091797 -0.23412828147411346 0.9314571022987366
vn -0.2958614230155945 -0.24723130464553833 0.9226823449134827
vn -0.2958614230155945 -0.24723130464553833 0.9226823449134827
vn -0.3273239731788635 -0.6464763879776001 0.6891497373580933
vn -0.3273239731788635 -0.6464763879776001 0.6891497373580933
vn -0.3273239731788635 -0.6464763879776001 0.6891497373580933
vn -0.3615197241306305 -0.6592811346054077 0.6592813730239868
vn -0.3615197241306305 -0.6592811346054077 0.6592813730239868
vn -0.3908071517944336 -0.8850746154785156 0.2528095543384552
vn -0.3908071517944336 -0.8850746154785156 0.2528095543384552
vn -0.3908071517944336 -0.8850746154785156 0.2528095543384552
vn -0.4064539670944214 -0.8825386762619019 0.23647549748420715
vn -0.4064539670944214 -0.8825386762619019 0.23647549748420715
vn -0.3944685757160187 0.8875983953475952 0.23783107101917267
vn -0.3944685757160187 0.8875983953475952 0.23783107101917267
vn -0.3944692015647888 0.6497669219970703 0.6497669219970703
vn -0.3944692015647888 0.6497669219970703 0.6497669219970703
vn -0.3944692015647888 0.6497669219970703 0.6497669219970703
vn -0.3944690227508545 0.23783186078071594 0.8875979781150818
vn -0.3944690227508545 0.23783186078071594 0.8875979781150818
vn -0.3944690227508545 0.23783186078071594 0.8875979781150818
vn -0.39446917176246643 -0.23783056437969208 0.8875982761383057
vn -0.39446917176246643 -0.23783056437969208 0.8875982761383057
vn -0.39446917176246643 -0.23783056437969208 0.8875982761383057
vn -0.39446911215782166 -0.6497668623924255 0.6497670412063599
vn -0.39446911215782166 -0.6497668623924255 0.6497670412063599
vn -0.39446911215782166 -0.6497668623924255 0.6497670412063599
vn -0.3944689929485321 -0.8875982165336609 0.23783117532730103
vn -0.3944689929485321 -0.8875982165336609 0.23783117532730103
vn -0.3944689929485321 -0.8875982165336609 0.23783117532730103
vn -0.8908055424690247 0.4389021098613739 0.11760380119085312
vn -0.8908055424690247 0.4389021098613739 0.11760380119085312
vn -0.890805721282959 0.32129839062690735 0.32129818201065063
vn -0.890805721282959 0.32129839062690735 0.32129818201065063
vn -0.890805721282959 0.32129839062690735 0.32129818201065063
vn -0.8908058404922485 0.11760364472866058 0.43890130519866943
vn -0.8908058404922485 0.11760364472866058 0.43890130519866943
vn -0.8908058404922485 0.11760364472866058 0.43890130519866943
vn -0.8908054828643799 -0.1176031306385994 0.43890219926834106
vn -0.8908054828643799 -0.1176031306385994 0.43890219926834106
vn -0.8908054828643799 -0.1176031306385994 0.43890219926834106
vn -0.8908056616783142 -0.32129836082458496 0.3212983310222626
vn -0.8908056616783142 -0.32129836082458496 0.3212983310222626
vn -0.8908056616783142 -0.32129836082458496 0.3212983310222626
vn -0.8908056616783142 -0.4389016628265381 0.11760349571704865
vn -0.8908056616783142 -0.4389016628265381 0.11760349571704865
vn -0.8908056616783142 -0.4389016628265381 0.11760349571704865
vn -0.9772852063179016 -0.14985594153404236 -0.14985592663288116
vn -0.9772852063179016 -0.14985594153404236 -0.14985592663288116
vn -0.9772852659225464 -0.054850682616233826 -0.20470736920833588
vn -0.9772852659225464 -0.054850682616233826 -0.20470736920833588
vn -0.9772852659225464 -0.054850682616233826 -0.20470736920833588
vn -0.9772851467132568 0.05485019460320473 -0.20470765233039856
vn -0.9772851467132568 0.05485019460320473 -0.20470765233039856
vn -0.9772851467132568 0.05485019460320473 -0.20470765233039856
vn -0.9772852063179016 0.14985600113868713 -0.14985603094100952
vn -0.9772852063179016 0.14985600113868713 -0.14985603094100952
vn -0.9772852063179016 0.14985600113868713 -0.14985603094100952
vn -0.9772852063179016 0.20470723509788513 -0.05485076829791069
vn -0.9772852063179016 0.20470723509788513 -0.05485076829791069
vn -0.9772852063179016 0.20470723509788513 -0.05485076829791069
vn -0.9772852659225464 -0.20470690727233887 -0.054850984364748
vn -0.9772852659225464 -0.20470690727233887 -0.054850984364748
vn -0.9772852659225464 -0.20470690727233887 -0.054850984364748
vn -0.40491288900375366 -0.8791925311088562 -0.2511295676231384
vn -0.40491288900375366 -0.8791925311088562 -0.2511295676231384
vn -0.40491288900375366 -0.8791925311088562 -0.2511295676231384
vn -0.3903239369392395 -0.8893062472343445 -0.238289013504982
vn -0.3903239369392395 -0.8893062472343445 -0.238289013504982
vn -0.35678228735923767 -0.6391390562057495 -0.6813278794288635
vn -0.35678228735923767 -0.6391390562057495 -0.6813278794288635
vn -0.35678228735923767 -0.6391390562057495 -0.6813278794288635
vn -0.32692644000053406 -0.6682512164115906 -0.668251097202301
vn -0.32692644000053406 -0.6682512164115906 -0.668251097202301
vn -0.29372113943099976 -0.233022540807724 -0.9270536303520203
vn -0.29372113943099976 -0.233022540807724 -0.9270536303520203
vn -0.29372113943099976 -0.233022540807724 -0.9270536303520203
vn -0.27748173475265503 -0.24865557253360748 -0.9279947876930237
vn -0.27748173475265503 -0.24865557253360748 -0.9279947876930237
vn -0.2785169780254364 0.23412831127643585 -0.9314571619033813
vn -0.2785169780254364 0.23412831127643585 -0.9314571619033813
vn -0.2785169780254364 0.23412831127643585 -0.9314571619033813
vn -0.2958616018295288 0.24723128974437714 -0.9226822853088379
vn -0.2958616018295288 0.24723128974437714 -0.9226822853088379
vn -0.32732412219047546 0.6464764475822449 -0.6891495585441589
vn -0.32732412219047546 0.6464764475822449 -0.6891495585441589
vn -0.32732412219047546 0.6464764475822449 -0.6891495585441589
vn -0.36151981353759766 0.6592811942100525 -0.6592812538146973
vn -0.36151981353759766 0.6592811942100525 -0.6592812538146973
vn -0.3908071517944336 0.8850746750831604 -0.2528093755245209
vn -0.3908071517944336 0.8850746750831604 -0.2528093755245209
vn -0.3908071517944336 0.8850746750831604 -0.2528093755245209
vn -0.4064541459083557 0.8825386762619019 -0.2364751398563385
vn -0.4064541459083557 0.8825386762619019 -0.2364751398563385
vn -0.4064541459083557 0.8825386762619019 -0.2364751398563385
vn -0.394468754529953 -0.8875982761383057 -0.23783133924007416
vn -0.394468754529953 -0.8875982761383057 -0.23783133924007416
vn -0.394468754529953 -0.8875982761383057 -0.23783133924007416
vn -0.3944689631462097 -0.6497670412063599 -0.6497669219970703
vn -0.3944689631462097 -0.6497670412063599 -0.6497669219970703
vn -0.3944689631462097 -0.6497670412063599 -0.6497669219970703
vn -0.3944692611694336 -0.23783130943775177 -0.8875980377197266
vn -0.3944692611694336 -0.23783130943775177 -0.8875980377197266
vn -0.3944692611694336 -0.23783130943775177 -0.8875980377197266
vn -0.39446917176246643 0.23783056437969208 -0.8875982761383057
vn -0.39446917176246643 0.23783056437969208 -0.8875982761383057
vn -0.39446917176246643 0.23783056437969208 -0.8875982761383057
vn -0.39446911215782166 0.6497669219970703 -0.6497669219970703
vn -0.39446911215782166 0.6497669219970703 -0.6497669219970703
vn -0.39446911215782166 0.6497669219970703 -0.6497669219970703
vn -0.3944690227508545 0.8875983953475952 -0.23783086240291595
vn -0.3944690227508545 0.8875983953475952 -0.23783086240291595
vn -0.3944690227508545 0.8875983953475952 -0.23783086240291595
vn -0.394468754529953 0.8875983953475952 -0.23783129453659058
vn -0.8908055424690247 -0.4389019310474396 -0.11760365217924118
vn -0.8908055424690247 -0.4389019310474396 -0.11760365217924118
vn -0.8908055424690247 -0.4389019310474396 -0.11760365217924118
vn -0.8908056616783142 -0.3212984800338745 -0.3212985694408417
vn -0.8908056616783142 -0.3212984800338745 -0.3212985694408417
vn -0.8908056616783142 -0.3212984800338745 -0.3212985694408417
vn -0.8908056020736694 -0.11760365217924118 -0.43890175223350525
vn -0.8908056020736694 -0.11760365217924118 -0.43890175223350525
vn -0.8908056020736694 -0.11760365217924118 -0.43890175223350525
vn -0.8908053040504456 0.11760325729846954 -0.43890249729156494
vn -0.8908053040504456 0.11760325729846954 -0.43890249729156494
vn -0.8908053040504456 0.11760325729846954 -0.43890249729156494
vn -0.8908056020736694 0.3212985694408417 -0.32129865884780884
vn -0.8908056020736694 0.3212985694408417 -0.32129865884780884
vn -0.8908056020736694 0.3212985694408417 -0.32129865884780884
vn -0.8908055424690247 0.43890196084976196 -0.11760343611240387
vn -0.8908055424690247 0.43890196084976196 -0.11760343611240387
vn -0.8908055424690247 0.43890196084976196 -0.11760343611240387
vn -0.8908054828643799 0.4389020502567291 -0.11760353296995163
vn -0.9772851467132568 0.20470723509788513 0.054851338267326355
vn -0.9772851467132568 0.20470723509788513 0.054851338267326355
vn -0.9772851467132568 0.20470723509788513 0.054851338267326355
vn -0.9772851467132568 0.14985613524913788 0.14985616505146027
vn -0.9772851467132568 0.14985613524913788 0.14985616505146027
vn -0.9772851467132568 0.14985613524913788 0.14985616505146027
vn -0.9772851467132568 0.05485064536333084 0.2047075480222702
vn -0.9772851467132568 0.05485064536333084 0.2047075480222702
vn -0.9772851467132568 0.05485064536333084 0.2047075480222702
vn -0.9772851467132568 -0.05485012009739876 0.20470771193504333
vn -0.9772851467132568 -0.05485012009739876 0.20470771193504333
vn -0.9772851467132568 -0.05485012009739876 0.20470771193504333
vn -0.9772852063179016 -0.14985595643520355 0.14985595643520355
vn -0.9772852063179016 -0.14985595643520355 0.14985595643520355
vn -0.9772852063179016 -0.14985595643520355 0.14985595643520355
vn -0.9772852659225464 -0.20470690727233887 0.054851096123456955
vn -0.9772852659225464 -0.20470690727233887 0.054851096123456955
vn -0.9772852659225464 -0.20470690727233887 0.054851096123456955
f 266/266/266 267/267/267 268/268/268
f 263/263/263 264/264/264 265/265/265
f 260/260/260 261/261/261 262/262/262
f 257/257/257 258/258/258 259/259/259
f 254/254/254 255/255/255 256/256/256
f 251/251/251 252/252/252 253/253/253
f 249/249/249 250/250/250 247/247/247
f 247/247/247 248/248/248 249/249/249
f 246/246/246 95/95/95 244/244/244
f 244/244/244 245/245/245 246/246/246
f 243/243/243 94/94/94 241/241/241
f 241/241/241 242/242/242 243/243/243
f 240/240/240 93/93/93 238/238/238
f 238/238/238 239/239/239 240/240/240
f 237/237/237 92/92/92 235/235/235
f 235/235/235 236/236/236 237/237/237
f 234/234/234 91/91/91 232/232/232
f 232/232/232 233/233/233 234/234/234
f 230/230/230 231/231/231 228/228/228
f 228/228/228 229/229/229 230/230/230
f 227/227/227 90/90/90 225/225/225
f 225/225/225 226/226/226 227/227/227
f 224/224/224 89/89/89 222/222/222
f 222/222/222 223/223/223 224/224/224
f 221/221/221 88/88/88 219/219/219
f 219/219/219 220/220/220 221/221/221
f 218/218/218 87/87/87 216/216/216
f 216/216/216 217/217/217 218/218/218
f 215/215/215 86/86/86 213/213/213
f 213/213/213 214/214/214 215/215/215
f 210/210/210 211/211/211 212/212/212
f 207/207/207 208/208/208 209/209/209
f 205/205/205 85/85/85 206/206/206
f 202/202/202 203/203/203 204/204/204
f 200/200/200 84/84/84 201/201/201
f 197/197/197 198/198/198 199/199/199
f 195/195/195 83/83/83 196/196/196
f 192/192/192 193/193/193 194/194/194
f 190/190/190 82/82/82 191/191/191
f 187/187/187 188/188/188 189/189/189
f 185/185/185 81/81/81 186/186/186
f 182/182/182 183/183/183 184/184/184
f 15/15/15 69/69/69 80/80/80
f 80/80/80 21/21/21 15/15/15
f 69/69/69 68/68/68 78/78/78
f 78/78/78 80/80/80 69/69/69
f 68/68/68 67/67/67 76/76/76
f 76/76/76 78/78/78 68/68/68
f 67/67/67 66/66/66 74/74/74
f 74/74/74 76/76/76 67/67/67
f 66/66/66 65/65/65 72/72/72
f 72/72/72 74/74/74 66/66/66
f 65/65/65 64/64/64 70/70/70
f 70/70/70 72/72/72 65/65/65
f 80/80/80 79/79/79 22/22/22
f 22/22/22 21/21/21 80/80/80
f 78/78/78 77/77/77 79/79/79
f 79/79/79 80/80/80 78/78/78
f 76/76/76 75/75/75 77/77/77
f 77/77/77 78/78/78 76/76/76
f 74/74/74 73/73/73 75/75/75
f 75/75/75 76/76/76 74/74/74
f 72/72/72 71/71/71 73/73/73
f 73/73/73 74/74/74 72/72/72
f 70/70/70 33/33/33 71/71/71
f 71/71/71 72/72/72 70/70/70
f 63/63/63 62/62/62 69/69/69
f 69/69/69 15/15/15 63/63/63
f 62/62/62 61/61/61 68/68/68
f 68/68/68 69/69/69 62/62/62
f 61/61/61 60/60/60 67/67/67
f 67/67/67 68/68/68 61/61/61
f 60/60/60 59/59/59 66/66/66
f 66/66/66 67/67/67 60/60/60
f 59/59/59 58/58/58 65/65/65
f 65/65/65 66/66/66 59/59/59
f 58/58/58 57/57/57 64/64/64
f 64/64/64 65/65/65 58/58/58
f 56/56/56 62/62/62 63/63/63
f 56/56/56 61/61/61 62/62/62
f 56/56/56 60/60/60 61/61/61
f 56/56/56 59/59/59 60/60/60
f 56/56/56 58/58/58 59/59/59
f 56/56/56 57/57/57 58/58/58
f 179/179/179 180/180/180 181/181/181
f 176/176/176 177/177/177 178/178/178
f 173/173/173 174/174/174 175/175/175
f 170/170/170 171/171/171 172/172/172
f 167/167/167 168/168/168 169/169/169
f 165/165/165 166/166/166 55/55/55
f 164/164/164 54/54/54 162/162/162
f 162/162/162 163/163/163 164/164/164
f 161/161/161 53/53/53 159/159/159
f 159/159/159 160/160/160 161/161/161
f 158/158/158 52/52/52 156/156/156
f 156/156/156 157/157/157 158/158/158
f 155/155/155 51/51/51 153/153/153
f 153/153/153 154/154/154 155/155/155
f 152/152/152 50/50/50 150/150/150
f 150/150/150 151/151/151 152/152/152
f 48/48/48 49/49/49 148/148/148
f 148/148/148 149/149/149 48/48/48
f 147/147/147 47/47/47 145/145/145
f 145/145/145 146/146/146 147/147/147
f 144/144/144 46/46/46 142/142/142
f 142/142/142 143/143/143 144/144/144
f 141/141/141 45/45/45 139/139/139
f 139/139/139 140/140/140 141/141/141
f 138/138/138 44/44/44 136/136/136
f 136/136/136 137/137/137 138/138/138
f 135/135/135 43/43/43 133/133/133
f 133/133/133 134/134/134 135/135/135
f 41/41/41 42/42/42 131/131/131
f 131/131/131 132/132/132 41/41/41
f 129/129/129 40/40/40 130/130/130
f 126/126/126 127/127/127 128/128/128
f 124/124/124 39/39/39 125/125/125
f 121/121/121 122/122/122 123/123/123
f 119/119/119 38/38/38 120/120/120
f 116/116/116 117/117/117 118/118/118
f 114/114/114 37/37/37 115/115/115
f 111/111/111 112/112/112 113/113/113
f 109/109/109 36/36/36 110/110/110
f 106/106/106 107/107/107 108/108/108
f 104/104/104 35/35/35 105/105/105
f 102/102/102 103/103/103 34/34/34
f 64/64/64 20/20/20 32/32/32
f 32/32/32 70/70/70 64/64/64
f 20/20/20 19/19/19 30/30/30
f 30/30/30 32/32/32 20/20/20
f 19/19/19 18/18/18 28/28/28
f 28/28/28 30/30/30 19/19/19
f 18/18/18 17/17/17 26/26/26
f 26/26/26 28/28/28 18/18/18
f 17/17/17 16/16/16 24/24/24
f 24/24/24 26/26/26 17/17/17
f 16/16/16 15/15/15 21/21/21
f 21/21/21 24/24/24 16/16/16
f 32/32/32 31/31/31 33/33/33
f 33/33/33 70/70/70 32/32/32
f 30/30/30 29/29/29 31/31/31
f 31/31/31 32/32/32 30/30/30
f 28/28/28 27/27/27 29/29/29
f 29/29/29 30/30/30 28/28/28
f 26/26/26 25/25/25 27/27/27
f 27/27/27 28/28/28 26/26/26
f 24/24/24 23/23/23 25/25/25
f 25/25/25 26/26/26 24/24/24
f 21/21/21 22/22/22 23/23/23
f 23/23/23 24/24/24 21/21/21
f 57/57/57 14/14/14 20/20/20
f 20/20/20 64/64/64 57/57/57
f 14/14/14 13/13/13 19/19/19
f 19/19/19 20/20/20 14/14/14
f 13/13/13 12/12/12 18/18/18
f 18/18/18 19/19/19 13/13/13
f 12/12/12 11/11/11 17/17/17
f 17/17/17 18/18/18 12/12/12
f 11/11/11 10/10/10 16/16/16
f 16/16/16 17/17/17 11/11/11
f 10/10/10 63/63/63 15/15/15
f 15/15/15 16/16/16 10/10/10
f 56/56/56 14/14/14 57/57/57
f 56/56/56 13/13/13 14/14/14
f 56/56/56 12/12/12 13/13/13
f 56/56/56 11/11/11 12/12/12
f 56/56/56 10/10/10 11/11/11
f 56/56/56 63/63/63 10/10/10
f 99/99/99 100/100/100 101/101/101
f 96/96/96 97/97/97 98/98/98
f 9/9/9 5/5/5 1/1/1
f 3/3/3 9/9/9 1/1/1
f 9/9/9 7/7/7 8/8/8
f 8/8/8 5/5/5 9/9/9
f 3/3/3 6/6/6 7/7/7
f 7/7/7 9/9/9 3/3/3
f 4/4/4 1/1/1 5/5/5
f 3/3/3 1/1/1 4/4/4
f 4/4/4 5/5/5 8/8/8
f 8/8/8 2/2/2 4/4/4
f 3/3/3 4/4/4 2/2/2
f 2/2/2 6/6/6 3/3/3
