# Recovered local-space geometry; original node transforms not applied
o mesh_0
v 27.495895385742188 -5.7183751778211445e-06 -0.016764670610427856
v 33.151824951171875 -13.567673683166504 -7.85005521774292
v 33.151824951171875 -7.8333024978637695 -13.58442497253418
v 33.151824951171875 -4.172325134277344e-05 -15.683349609375
v 33.151824951171875 7.8332929611206055 -13.58442497253418
v 33.151824951171875 13.567667007446289 -7.85005521774292
v 30.58857536315918 -28.875102996826172 -0.016763538122177124
v 30.58857536315918 -25.006572723388672 -14.454307556152344
v 30.58857536315918 -14.43755054473877 -25.023326873779297
v 30.588571548461914 -4.029273986816406e-05 -28.89185333251953
v 30.58857536315918 14.437541961669922 -25.02332305908203
v 30.58857536315918 25.00656509399414 -14.454307556152344
v 4.450786590576172 -36.36269760131836 -21.01077651977539
v 20.457242965698242 -33.456031799316406 -19.33260726928711
v 4.450786590576172 -20.9940185546875 -36.379451751708984
v 20.457242965698242 -19.31584930419922 -33.472782135009766
v 4.450786590576172 -4.00543212890625e-05 -42.00478744506836
v 20.45724105834961 -3.981590270996094e-05 -38.6484489440918
v 4.450786590576172 20.994007110595703 -36.379459381103516
v 20.457242965698242 19.315837860107422 -33.472782135009766
v 4.450786590576172 36.36269760131836 -21.010772705078125
v 20.457242965698242 33.45602798461914 -19.332611083984375
v -12.64553451538086 -32.84626388549805 -18.980552673339844
v -12.645538330078125 -18.963794708251953 -32.86302185058594
v -12.645538330078125 -4.124641418457031e-05 -37.9443473815918
v -12.645538330078125 18.963790893554688 -32.86301803588867
v -12.64553451538086 32.84626007080078 -18.980552673339844
v -32.07029724121094 -22.71497344970703 -13.131248474121094
v -32.07029724121094 -13.114494323730469 -22.731727600097656
v -32.07029724121094 -4.3392181396484375e-05 -26.245742797851562
v -32.07029724121094 13.11449146270752 -22.73172378540039
v -32.07029724121094 22.714969635009766 -13.131246566772461
v -37.444374084472656 -14.999255180358887 -8.676576614379883
v -37.444374084472656 -8.659823417663574 -15.016006469726562
v -37.44438171386719 -4.458427429199219e-05 -17.33639907836914
v -37.444374084472656 8.659822463989258 -15.016006469726562
v -37.444374084472656 14.99925422668457 -8.67657470703125
v -37.444374084472656 -8.792357444763184 -5.093021869659424
v -37.444374084472656 -5.076268196105957 -8.80910873413086
v -37.44438171386719 -4.5299530029296875e-05 -10.169288635253906
v -37.444374084472656 5.076269626617432 -8.809106826782227
v -37.444374084472656 8.792356491088867 -5.093020439147949
v -33.70574951171875 -5.7183751778211445e-06 -0.01676449179649353
v 24.155452728271484 -0.49338531494140625 -0.029891550540924072
v 52.697235107421875 5.819061279296875 1.0342786312103271
v 39.108734130859375 3.235004425048828 -0.3423827886581421
v 40.929969787597656 0.9464411735534668 1.894958257675171
v 40.927284240722656 -1.7804834842681885 -0.5014845132827759
v 49.06896209716797 8.46151065826416 -2.1005465984344482
v 50.684112548828125 5.642936706542969 -6.507461071014404
v 52.579795837402344 2.191894769668579 -2.891273260116577
v 40.51378631591797 0.9464411735534668 -2.861987352371216
v 33.151824951171875 15.66659164428711 -0.01676240563392639
v 33.151824951171875 13.567663192749023 7.816524028778076
v 33.151824951171875 7.8332929611206055 13.550895690917969
v 33.151824951171875 3.265208943048492e-05 15.649821281433105
v 33.151824951171875 -7.8333024978637695 13.550897598266602
v 33.151824951171875 -13.56767749786377 7.816527843475342
v 33.151824951171875 -15.666603088378906 -0.01676669716835022
v 30.58857536315918 28.875091552734375 -0.01676580309867859
v 30.588577270507812 25.006563186645508 14.420775413513184
v 30.588577270507812 14.437542915344238 24.989795684814453
v 30.58856964111328 3.32160088873934e-05 28.858325958251953
v 30.588577270507812 -14.437549591064453 24.989795684814453
v 30.588577270507812 -25.006574630737305 14.420783042907715
v 20.457244873046875 38.631690979003906 -0.016769200563430786
v 4.4507904052734375 41.98802947998047 -0.016770154237747192
v 4.450786590576172 36.36268997192383 20.97724151611328
v 20.457242965698242 33.456024169921875 19.299072265625
v 4.450786590576172 20.9940128326416 36.34592056274414
v 20.457242965698242 19.31584358215332 33.43925094604492
v 4.450786590576172 3.495758573990315e-05 41.97126007080078
v 20.45724105834961 3.421237488510087e-05 38.61492156982422
v 4.450786590576172 -20.9940128326416 36.3459358215332
v 20.457242965698242 -19.31584358215332 33.43925857543945
v 4.450786590576172 -36.36270523071289 20.977249145507812
v 20.457242965698242 -33.45603561401367 19.299087524414062
v 4.4507904052734375 -41.988040924072266 -0.016758590936660767
v 20.457244873046875 -38.63169860839844 -0.016759902238845825
v -12.645530700683594 37.927589416503906 -0.01676902174949646
v -12.64553451538086 32.846256256103516 18.947017669677734
v -12.645538330078125 18.963788986206055 32.829490661621094
v -12.645538330078125 3.55365700670518e-05 37.91082000732422
v -12.645538330078125 -18.963796615600586 32.82949447631836
v -12.64553451538086 -32.84626770019531 18.94702911376953
v -12.645530700683594 -37.92759704589844 -0.016759663820266724
v -32.07029724121094 26.228986740112305 -0.016765445470809937
v -32.07029724121094 22.714963912963867 13.097716331481934
v -32.07029724121094 13.114486694335938 22.698196411132812
v -32.07029724121094 3.5915898479288444e-05 26.212215423583984
v -32.07029724121094 -13.11449909210205 22.698196411132812
v -32.07029724121094 -22.71497917175293 13.097722053527832
v -32.07029724121094 -26.2289981842041 -0.01676371693611145
v -37.444374084472656 17.319644927978516 -0.01676347851753235
v -37.444374084472656 14.999244689941406 8.643046379089355
v -37.444374084472656 8.65981388092041 14.982477188110352
v -37.44438171386719 3.576271774363704e-05 17.302871704101562
v -37.444374084472656 -8.659832000732422 14.982479095458984
v -37.444374084472656 -14.99926471710205 8.643048286437988
v -37.444374084472656 -17.319656372070312 -0.016765326261520386
v -37.44438171386719 10.15253734588623 -0.01676037907600403
v -37.444374084472656 8.792346954345703 5.059491157531738
v -37.444374084472656 5.076258182525635 8.775579452514648
v -37.44438171386719 3.539576937328093e-05 10.135760307312012
v -37.444374084472656 -5.076279640197754 8.775579452514648
v -37.444374084472656 -8.792366981506348 5.059492588043213
v -37.44438171386719 -10.152548789978027 -0.016768664121627808
v 4.450786590576172 -36.36269760131836 -21.01077651977539
v 4.4507904052734375 -41.988040924072266 -0.016758590936660767
v 4.450786590576172 -20.9940185546875 -36.379451751708984
v 4.450786590576172 -36.36269760131836 -21.01077651977539
v -12.64553451538086 -32.84626388549805 -18.980552673339844
v 4.450786590576172 -4.00543212890625e-05 -42.00478744506836
v 4.450786590576172 -20.9940185546875 -36.379451751708984
v -12.645538330078125 -18.963794708251953 -32.86302185058594
v 4.450786590576172 20.994007110595703 -36.379459381103516
v 4.450786590576172 -4.00543212890625e-05 -42.00478744506836
v -12.645538330078125 -4.124641418457031e-05 -37.9443473815918
v 4.450786590576172 36.36269760131836 -21.010772705078125
v 4.450786590576172 20.994007110595703 -36.379459381103516
v -12.645538330078125 18.963790893554688 -32.86301803588867
v 4.4507904052734375 41.98802947998047 -0.016770154237747192
v 4.450786590576172 36.36269760131836 -21.010772705078125
v -12.64553451538086 32.84626007080078 -18.980552673339844
v -12.64553451538086 -32.84626388549805 -18.980552673339844
v -12.645530700683594 -37.92759704589844 -0.016759663820266724
v -12.645538330078125 -18.963794708251953 -32.86302185058594
v -12.64553451538086 -32.84626388549805 -18.980552673339844
v -32.07029724121094 -22.71497344970703 -13.131248474121094
v -12.645538330078125 -4.124641418457031e-05 -37.9443473815918
v -12.645538330078125 -18.963794708251953 -32.86302185058594
v -32.07029724121094 -13.114494323730469 -22.731727600097656
v -12.645538330078125 18.963790893554688 -32.86301803588867
v -12.645538330078125 -4.124641418457031e-05 -37.9443473815918
v -32.07029724121094 -4.3392181396484375e-05 -26.245742797851562
v -12.64553451538086 32.84626007080078 -18.980552673339844
v -12.645538330078125 18.963790893554688 -32.86301803588867
v -32.07029724121094 13.11449146270752 -22.73172378540039
v -12.645530700683594 37.927589416503906 -0.01676902174949646
v -12.64553451538086 32.84626007080078 -18.980552673339844
v -32.07029724121094 22.714969635009766 -13.131246566772461
v -32.07029724121094 -22.71497344970703 -13.131248474121094
v -32.07029724121094 -26.2289981842041 -0.01676371693611145
v -32.07029724121094 -13.114494323730469 -22.731727600097656
v -32.07029724121094 -22.71497344970703 -13.131248474121094
v -37.444374084472656 -14.999255180358887 -8.676576614379883
v -32.07029724121094 -4.3392181396484375e-05 -26.245742797851562
v -32.07029724121094 -13.114494323730469 -22.731727600097656
v -37.444374084472656 -8.659823417663574 -15.016006469726562
v -32.07029724121094 13.11449146270752 -22.73172378540039
v -32.07029724121094 -4.3392181396484375e-05 -26.245742797851562
v -37.44438171386719 -4.458427429199219e-05 -17.33639907836914
v -32.07029724121094 22.714969635009766 -13.131246566772461
v -32.07029724121094 13.11449146270752 -22.73172378540039
v -37.444374084472656 8.659822463989258 -15.016006469726562
v -32.07029724121094 26.228986740112305 -0.016765445470809937
v -32.07029724121094 22.714969635009766 -13.131246566772461
v -37.444374084472656 14.99925422668457 -8.67657470703125
v -37.444374084472656 -14.999255180358887 -8.676576614379883
v -37.444374084472656 -17.319656372070312 -0.016765326261520386
v -37.444374084472656 -8.659823417663574 -15.016006469726562
v -37.44438171386719 -4.458427429199219e-05 -17.33639907836914
v -37.444374084472656 8.659822463989258 -15.016006469726562
v -37.444374084472656 14.99925422668457 -8.67657470703125
v -37.444374084472656 17.319644927978516 -0.01676347851753235
v -37.444374084472656 -8.792357444763184 -5.093021869659424
v -37.44438171386719 -10.152548789978027 -0.016768664121627808
v -37.444374084472656 -5.076268196105957 -8.80910873413086
v -37.444374084472656 -8.792357444763184 -5.093021869659424
v -33.70574951171875 -5.7183751778211445e-06 -0.01676449179649353
v -37.44438171386719 -4.5299530029296875e-05 -10.169288635253906
v -37.444374084472656 -5.076268196105957 -8.80910873413086
v -33.70574951171875 -5.7183751778211445e-06 -0.01676449179649353
v -37.444374084472656 5.076269626617432 -8.809106826782227
v -37.44438171386719 -4.5299530029296875e-05 -10.169288635253906
v -33.70574951171875 -5.7183751778211445e-06 -0.01676449179649353
v -37.444374084472656 8.792356491088867 -5.093020439147949
v -37.444374084472656 5.076269626617432 -8.809106826782227
v -33.70574951171875 -5.7183751778211445e-06 -0.01676449179649353
v -37.44438171386719 10.15253734588623 -0.01676037907600403
v -37.444374084472656 8.792356491088867 -5.093020439147949
v -33.70574951171875 -5.7183751778211445e-06 -0.01676449179649353
v 52.697235107421875 5.819061279296875 1.0342786312103271
v 50.684112548828125 5.642936706542969 -6.507461071014404
v 49.06896209716797 8.46151065826416 -2.1005465984344482
v 52.697235107421875 5.819061279296875 1.0342786312103271
v 52.579795837402344 2.191894769668579 -2.891273260116577
v 50.684112548828125 5.642936706542969 -6.507461071014404
v 4.450786590576172 36.36268997192383 20.97724151611328
v 4.4507904052734375 41.98802947998047 -0.016770154237747192
v -12.645530700683594 37.927589416503906 -0.01676902174949646
v 4.450786590576172 20.9940128326416 36.34592056274414
v 4.450786590576172 36.36268997192383 20.97724151611328
v -12.64553451538086 32.846256256103516 18.947017669677734
v 4.450786590576172 3.495758573990315e-05 41.97126007080078
v 4.450786590576172 20.9940128326416 36.34592056274414
v -12.645538330078125 18.963788986206055 32.829490661621094
v 4.450786590576172 -20.9940128326416 36.3459358215332
v 4.450786590576172 3.495758573990315e-05 41.97126007080078
v -12.645538330078125 3.55365700670518e-05 37.91082000732422
v 4.450786590576172 -36.36270523071289 20.977249145507812
v 4.450786590576172 -20.9940128326416 36.3459358215332
v -12.645538330078125 -18.963796615600586 32.82949447631836
v 4.4507904052734375 -41.988040924072266 -0.016758590936660767
v 4.450786590576172 -36.36270523071289 20.977249145507812
v -12.64553451538086 -32.84626770019531 18.94702911376953
v -12.645530700683594 -37.92759704589844 -0.016759663820266724
v -12.64553451538086 32.846256256103516 18.947017669677734
v -12.645530700683594 37.927589416503906 -0.01676902174949646
v -32.07029724121094 26.228986740112305 -0.016765445470809937
v -12.645538330078125 18.963788986206055 32.829490661621094
v -12.64553451538086 32.846256256103516 18.947017669677734
v -32.07029724121094 22.714963912963867 13.097716331481934
v -12.645538330078125 3.55365700670518e-05 37.91082000732422
v -12.645538330078125 18.963788986206055 32.829490661621094
v -32.07029724121094 13.114486694335938 22.698196411132812
v -12.645538330078125 -18.963796615600586 32.82949447631836
v -12.645538330078125 3.55365700670518e-05 37.91082000732422
v -32.07029724121094 3.5915898479288444e-05 26.212215423583984
v -12.64553451538086 -32.84626770019531 18.94702911376953
v -12.645538330078125 -18.963796615600586 32.82949447631836
v -32.07029724121094 -13.11449909210205 22.698196411132812
v -12.645530700683594 -37.92759704589844 -0.016759663820266724
v -12.64553451538086 -32.84626770019531 18.94702911376953
v -32.07029724121094 -22.71497917175293 13.097722053527832
v -32.07029724121094 -26.2289981842041 -0.01676371693611145
v -32.07029724121094 22.714963912963867 13.097716331481934
v -32.07029724121094 26.228986740112305 -0.016765445470809937
v -37.444374084472656 17.319644927978516 -0.01676347851753235
v -32.07029724121094 13.114486694335938 22.698196411132812
v -32.07029724121094 22.714963912963867 13.097716331481934
v -37.444374084472656 14.999244689941406 8.643046379089355
v -32.07029724121094 3.5915898479288444e-05 26.212215423583984
v -32.07029724121094 13.114486694335938 22.698196411132812
v -37.444374084472656 8.65981388092041 14.982477188110352
v -32.07029724121094 -13.11449909210205 22.698196411132812
v -32.07029724121094 3.5915898479288444e-05 26.212215423583984
v -37.44438171386719 3.576271774363704e-05 17.302871704101562
v -32.07029724121094 -22.71497917175293 13.097722053527832
v -32.07029724121094 -13.11449909210205 22.698196411132812
v -37.444374084472656 -8.659832000732422 14.982479095458984
v -32.07029724121094 -26.2289981842041 -0.01676371693611145
v -32.07029724121094 -22.71497917175293 13.097722053527832
v -37.444374084472656 -14.99926471710205 8.643048286437988
v -37.444374084472656 -17.319656372070312 -0.016765326261520386
v -37.444374084472656 14.999244689941406 8.643046379089355
v -37.444374084472656 8.65981388092041 14.982477188110352
v -37.44438171386719 3.576271774363704e-05 17.302871704101562
v -37.444374084472656 -8.659832000732422 14.982479095458984
v -37.444374084472656 -14.99926471710205 8.643048286437988
v -37.444374084472656 8.792346954345703 5.059491157531738
v -37.44438171386719 10.15253734588623 -0.01676037907600403
v -33.70574951171875 -5.7183751778211445e-06 -0.01676449179649353
v -37.444374084472656 5.076258182525635 8.775579452514648
v -37.444374084472656 8.792346954345703 5.059491157531738
v -33.70574951171875 -5.7183751778211445e-06 -0.01676449179649353
v -37.44438171386719 3.539576937328093e-05 10.135760307312012
v -37.444374084472656 5.076258182525635 8.775579452514648
v -33.70574951171875 -5.7183751778211445e-06 -0.01676449179649353
v -37.444374084472656 -5.076279640197754 8.775579452514648
v -37.44438171386719 3.539576937328093e-05 10.135760307312012
v -33.70574951171875 -5.7183751778211445e-06 -0.01676449179649353
v -37.444374084472656 -8.792366981506348 5.059492588043213
v -37.444374084472656 -5.076279640197754 8.775579452514648
v -33.70574951171875 -5.7183751778211445e-06 -0.01676449179649353
v -37.44438171386719 -10.152548789978027 -0.016768664121627808
v -37.444374084472656 -8.792366981506348 5.059492588043213
v -33.70574951171875 -5.7183751778211445e-06 -0.01676449179649353
vt 0.5608605146408081 0.3781927824020386
vt 0.5804615616798401 0.3945079445838928
vt 0.5718295574188232 0.39506852626800537
vt 0.5630111694335938 0.39506852626800537
vt 0.5549976825714111 0.39506852626800537
vt 0.5467015504837036 0.39298659563064575
vt 0.6037136316299438 0.402563214302063
vt 0.5953343510627747 0.40449702739715576
vt 0.5795111656188965 0.40503793954849243
vt 0.5639668107032776 0.40503793954849243
vt 0.5487809181213379 0.40503793954849243
vt 0.5352001190185547 0.4042215347290039
vt 0.600832462310791 0.4305819272994995
vt 0.6012312173843384 0.41547858715057373
vt 0.5854367613792419 0.4353390336036682
vt 0.5837358832359314 0.4167519211769104
vt 0.5639671683311462 0.4353390336036682
vt 0.5639671683311462 0.4167519211769104
vt 0.542879045009613 0.4353390336036682
vt 0.5445799827575684 0.4167519211769104
vt 0.527414858341217 0.4346587657928467
vt 0.5289800763130188 0.41448450088500977
vt 0.6023660898208618 0.4546809196472168
vt 0.587738573551178 0.45230960845947266
vt 0.5641939043998718 0.45140522718429565
vt 0.5449367761611938 0.45140522718429565
vt 0.5303266644477844 0.4493156671524048
vt 0.5904844999313354 0.47260230779647827
vt 0.5787383913993835 0.4687817692756653
vt 0.563606321811676 0.46824032068252563
vt 0.5488946437835693 0.46920448541641235
vt 0.5394784212112427 0.4727994203567505
vt 0.5851725935935974 0.4808575510978699
vt 0.5747653841972351 0.4770117998123169
vt 0.5639702677726746 0.47779810428619385
vt 0.5519513487815857 0.47838765382766724
vt 0.5467804074287415 0.48347824811935425
vt 0.5724667906761169 0.4903566241264343
vt 0.569303035736084 0.4894525408744812
vt 0.5639671683311462 0.4894525408744812
vt 0.559012770652771 0.4894525408744812
vt 0.5553969144821167 0.49065810441970825
vt 0.5639722347259521 0.4970938563346863
vt 0.6189761757850647 0.40706050395965576
vt 0.61896151304245 0.3806474208831787
vt 0.6172672510147095 0.39384955167770386
vt 0.6189688444137573 0.3938538432121277
vt 0.6206701993942261 0.39384955167770386
vt 0.6155585646629333 0.3806387782096863
vt 0.61896151304245 0.3806474208831787
vt 0.6223644614219666 0.3806387782096863
vt 0.6189688444137573 0.3938538432121277
vt 0.5387930870056152 0.39303648471832275
vt 0.5457842946052551 0.3955090045928955
vt 0.5540804266929626 0.39690303802490234
vt 0.5641576051712036 0.39690303802490234
vt 0.5732054114341736 0.39690303802490234
vt 0.5834426283836365 0.39565449953079224
vt 0.5874330997467041 0.39295071363449097
vt 0.5229260325431824 0.39958202838897705
vt 0.5352001190185547 0.4042215347290039
vt 0.5487809181213379 0.40503793954849243
vt 0.5639668107032776 0.40503793954849243
vt 0.5795111656188965 0.40503793954849243
vt 0.5953343510627747 0.404496967792511
vt 0.5150753855705261 0.41292810440063477
vt 0.5130424499511719 0.43380892276763916
vt 0.527414858341217 0.4346587657928467
vt 0.5289800763130188 0.41448450088500977
vt 0.542879045009613 0.4353390336036682
vt 0.5445799827575684 0.4167519211769104
vt 0.5639671683311462 0.4353390336036682
vt 0.5639671683311462 0.4167519211769104
vt 0.5854367613792419 0.4353390336036682
vt 0.5837358832359314 0.4167519211769104
vt 0.6051893830299377 0.4390736222267151
vt 0.6012312173843384 0.41547858715057373
vt 0.6146606802940369 0.43472617864608765
vt 0.6117774248123169 0.41423624753952026
vt 0.515245258808136 0.4566112160682678
vt 0.5278042554855347 0.4545897841453552
vt 0.5449367761611938 0.45140522718429565
vt 0.5641939043998718 0.45140522718429565
vt 0.5872799158096313 0.45712512731552124
vt 0.6016781330108643 0.46110159158706665
vt 0.6142075657844543 0.45808249711990356
vt 0.5263925194740295 0.47563469409942627
vt 0.5321404337882996 0.4670666456222534
vt 0.5488946437835693 0.46920448541641235
vt 0.563606321811676 0.46824032068252563
vt 0.5849297642707825 0.4701576828956604
vt 0.5948414206504822 0.4739781618118286
vt 0.6004968881607056 0.477561891078949
vt 0.5363273620605469 0.48509353399276733
vt 0.5385252237319946 0.4798092246055603
vt 0.5519513487815857 0.47838765382766724
vt 0.563970148563385 0.47779810428619385
vt 0.5788930654525757 0.4813687205314636
vt 0.5865484476089478 0.4829213619232178
vt 0.5912973880767822 0.4853883385658264
vt 0.5522211790084839 0.49291110038757324
vt 0.5553969144821167 0.49065810441970825
vt 0.559012770652771 0.4894525408744812
vt 0.5639671683311462 0.4894525408744812
vt 0.569303035736084 0.4894525408744812
vt 0.5724667906761169 0.4903566241264343
vt 0.5760012269020081 0.49306172132492065
vt 0.600832462310791 0.4305819272994995
vt 0.6146606802940369 0.43472617864608765
vt 0.5854367613792419 0.4353390336036682
vt 0.600832462310791 0.4305819272994995
vt 0.6023660898208618 0.4546809196472168
vt 0.5639671683311462 0.4353390336036682
vt 0.5854367613792419 0.4353390336036682
vt 0.587738573551178 0.45230960845947266
vt 0.542879045009613 0.4353390336036682
vt 0.5639671683311462 0.4353390336036682
vt 0.5641939043998718 0.45140522718429565
vt 0.527414858341217 0.4346587657928467
vt 0.542879045009613 0.4353390336036682
vt 0.5449367761611938 0.45140522718429565
vt 0.5130424499511719 0.43380892276763916
vt 0.527414858341217 0.4346587657928467
vt 0.5303266644477844 0.4493156671524048
vt 0.6023660898208618 0.4546809196472168
vt 0.6142075657844543 0.45808249711990356
vt 0.587738573551178 0.45230960845947266
vt 0.6023660898208618 0.4546809196472168
vt 0.5904844999313354 0.47260230779647827
vt 0.5641939043998718 0.45140522718429565
vt 0.587738573551178 0.45230960845947266
vt 0.5787383913993835 0.4687817692756653
vt 0.5449367761611938 0.45140522718429565
vt 0.5641939043998718 0.45140522718429565
vt 0.563606321811676 0.46824032068252563
vt 0.5303266644477844 0.4493156671524048
vt 0.5449367761611938 0.45140522718429565
vt 0.5488946437835693 0.46920448541641235
vt 0.515245258808136 0.4566112160682678
vt 0.5303266644477844 0.4493156671524048
vt 0.5394784212112427 0.4727994203567505
vt 0.5904844999313354 0.47260230779647827
vt 0.6004968881607056 0.477561891078949
vt 0.5787383913993835 0.4687817692756653
vt 0.5904844999313354 0.47260230779647827
vt 0.5851725935935974 0.4808575510978699
vt 0.563606321811676 0.46824032068252563
vt 0.5787383913993835 0.4687817692756653
vt 0.5747653841972351 0.4770117998123169
vt 0.5488946437835693 0.46920448541641235
vt 0.563606321811676 0.46824032068252563
vt 0.5639702677726746 0.47779810428619385
vt 0.5394784212112427 0.4727994203567505
vt 0.5488946437835693 0.46920448541641235
vt 0.5519513487815857 0.47838765382766724
vt 0.5263925194740295 0.47563469409942627
vt 0.5394784212112427 0.4727994203567505
vt 0.5467804074287415 0.48347824811935425
vt 0.5851725935935974 0.4808575510978699
vt 0.5912973880767822 0.4853883385658264
vt 0.5747653841972351 0.4770117998123169
vt 0.5639702677726746 0.47779810428619385
vt 0.5519513487815857 0.47838765382766724
vt 0.5467804074287415 0.48347824811935425
vt 0.5363273620605469 0.48509353399276733
vt 0.5724667906761169 0.4903566241264343
vt 0.5760012269020081 0.49306172132492065
vt 0.569303035736084 0.4894525408744812
vt 0.5724667906761169 0.4903566241264343
vt 0.5639722347259521 0.4970938563346863
vt 0.5639671683311462 0.4894525408744812
vt 0.569303035736084 0.4894525408744812
vt 0.5639722347259521 0.4970938563346863
vt 0.559012770652771 0.4894525408744812
vt 0.5639671683311462 0.4894525408744812
vt 0.5639722347259521 0.4970938563346863
vt 0.5553969144821167 0.49065810441970825
vt 0.559012770652771 0.4894525408744812
vt 0.5639722347259521 0.4970938563346863
vt 0.5522211790084839 0.49291110038757324
vt 0.5553969144821167 0.49065810441970825
vt 0.5639722347259521 0.4970938563346863
vt 0.61896151304245 0.3806474208831787
vt 0.61896151304245 0.3806474208831787
vt 0.6155585646629333 0.3806387782096863
vt 0.61896151304245 0.3806474208831787
vt 0.6223644614219666 0.3806387782096863
vt 0.61896151304245 0.3806474208831787
vt 0.527414858341217 0.4346587657928467
vt 0.5130424499511719 0.4340382218360901
vt 0.515245258808136 0.4563819169998169
vt 0.542879045009613 0.4353390336036682
vt 0.527414858341217 0.4346587657928467
vt 0.5278042554855347 0.4545897841453552
vt 0.5639671683311462 0.4353390336036682
vt 0.542879045009613 0.4353390336036682
vt 0.5449367761611938 0.45140522718429565
vt 0.5854367613792419 0.4353390336036682
vt 0.5639671683311462 0.4353390336036682
vt 0.5641939043998718 0.45140522718429565
vt 0.6051893830299377 0.4390736222267151
vt 0.5854367613792419 0.4353390336036682
vt 0.5872799158096313 0.45712512731552124
vt 0.6146606802940369 0.43472617864608765
vt 0.6051893830299377 0.4390736222267151
vt 0.6016781330108643 0.46110159158706665
vt 0.6142075657844543 0.45808249711990356
vt 0.5278042554855347 0.4545897841453552
vt 0.515245258808136 0.4563819169998169
vt 0.5263925194740295 0.47563469409942627
vt 0.5449367761611938 0.45140522718429565
vt 0.5278042554855347 0.4545897841453552
vt 0.5321404337882996 0.4670666456222534
vt 0.5641939043998718 0.45140522718429565
vt 0.5449367761611938 0.45140522718429565
vt 0.5488946437835693 0.46920448541641235
vt 0.5872799158096313 0.45712512731552124
vt 0.5641939043998718 0.45140522718429565
vt 0.563606321811676 0.46824032068252563
vt 0.6016781330108643 0.46110159158706665
vt 0.5872799158096313 0.45712512731552124
vt 0.5849297642707825 0.4701576828956604
vt 0.6142075657844543 0.45808249711990356
vt 0.6016781330108643 0.46110159158706665
vt 0.5948414206504822 0.4739781618118286
vt 0.6004968881607056 0.477561891078949
vt 0.5321404337882996 0.4670666456222534
vt 0.5263925194740295 0.47563469409942627
vt 0.5363273620605469 0.48509353399276733
vt 0.5488946437835693 0.46920448541641235
vt 0.5321404337882996 0.4670666456222534
vt 0.5385252237319946 0.4798092246055603
vt 0.563606321811676 0.46824032068252563
vt 0.5488946437835693 0.46920448541641235
vt 0.5519513487815857 0.47838765382766724
vt 0.5849297642707825 0.4701576828956604
vt 0.563606321811676 0.46824032068252563
vt 0.563970148563385 0.47779810428619385
vt 0.5948414206504822 0.4739781618118286
vt 0.5849297642707825 0.4701576828956604
vt 0.5788930654525757 0.4813687205314636
vt 0.6004968881607056 0.477561891078949
vt 0.5948414206504822 0.4739781618118286
vt 0.5865484476089478 0.4829213619232178
vt 0.5912973880767822 0.4853883385658264
vt 0.5385252237319946 0.4798092246055603
vt 0.5519513487815857 0.47838765382766724
vt 0.563970148563385 0.47779810428619385
vt 0.5788930654525757 0.4813687205314636
vt 0.5865484476089478 0.4829213619232178
vt 0.5553969144821167 0.49065810441970825
vt 0.5522211790084839 0.49291110038757324
vt 0.5639722347259521 0.4970938563346863
vt 0.559012770652771 0.4894525408744812
vt 0.5553969144821167 0.49065810441970825
vt 0.5639722347259521 0.4970938563346863
vt 0.5639671683311462 0.4894525408744812
vt 0.559012770652771 0.4894525408744812
vt 0.5639722347259521 0.4970938563346863
vt 0.569303035736084 0.4894525408744812
vt 0.5639671683311462 0.4894525408744812
vt 0.5639722347259521 0.4970938563346863
vt 0.5724667906761169 0.4903566241264343
vt 0.569303035736084 0.4894525408744812
vt 0.5639722347259521 0.4970938563346863
vt 0.5760012269020081 0.49306172132492065
vt 0.5724667906761169 0.4903566241264343
vt 0.5639722347259521 0.4970938563346863
vn 1.0 -2.6513228945646006e-08 1.4582275831287461e-08
vn 0.9997037053108215 0.013689938932657242 0.02012678235769272
vn 0.9997037053108215 0.0017925217980518937 0.024275287985801697
vn 0.9997037053108215 -0.010585208423435688 0.021919211372733116
vn 0.9997037053108215 -0.020126773044466972 0.013689936138689518
vn 0.9997037053108215 -0.02427523583173752 0.001792464405298233
vn 0.8795763254165649 -0.4751294255256653 0.02444477565586567
vn 0.8795763254165649 -0.42369651794433594 -0.21639488637447357
vn 0.8795762658119202 -0.2587346136569977 -0.3992518186569214
vn 0.8795762658119202 -0.02444513700902462 -0.47512951493263245
vn 0.8795763850212097 0.21639463305473328 -0.4236967861652374
vn 0.8795764446258545 0.39925163984298706 -0.25873467326164246
vn 0.2044435292482376 -0.8879137635231018 -0.4120824933052063
vn 0.468092679977417 -0.7229472994804382 -0.5081697702407837
vn 0.20444346964359283 -0.5629149079322815 -0.800830602645874
vn 0.46809273958206177 -0.3720061480998993 -0.8015613555908203
vn 0.20444370806217194 -0.08708377182483673 -0.9749970436096191
vn 0.46809297800064087 0.07861368358135223 -0.8801755905151367
vn 0.20444388687610626 0.4120819568634033 -0.8879139423370361
vn 0.46809282898902893 0.5081692337989807 -0.7229475378990173
vn 0.20444349944591522 0.8008304238319397 -0.5629151463508606
vn 0.46809282898902893 0.8015612959861755 -0.3720061779022217
vn -0.22360192239284515 -0.941469132900238 -0.2522658705711365
vn -0.22360198199748993 -0.6892033219337463 -0.6892032027244568
vn -0.2236023247241974 -0.2522660195827484 -0.9414690136909485
vn -0.22360211610794067 0.25226521492004395 -0.9414692521095276
vn -0.22360216081142426 0.689203143119812 -0.6892033219337463
vn -0.5028373003005981 -0.8349278569221497 -0.2237188220024109
vn -0.5028373599052429 -0.6112097501754761 -0.6112097501754761
vn -0.5028372406959534 -0.22371885180473328 -0.834928035736084
vn -0.5028373599052429 0.22371770441532135 -0.8349281549453735
vn -0.5028373003005981 0.6112097501754761 -0.6112098097801208
vn -0.8481988310813904 -0.5116294622421265 -0.13709138333797455
vn -0.8481988310813904 -0.3745388686656952 -0.37453892827033997
vn -0.8481982350349426 -0.13709233701229095 -0.5116301774978638
vn -0.8481987118721008 0.13709084689617157 -0.5116298198699951
vn -0.8481987118721008 0.3745390474796295 -0.3745390474796295
vn -1.0 3.7573909139609896e-07 -6.507989951387572e-07
vn -1.0 0.0 0.0
vn -1.0 -1.5029667110866285e-06 -1.499914829925647e-13
vn -1.0 1.3015855984122027e-06 7.514702815569763e-07
vn -1.0 0.0 0.0
vn -0.9343996047973633 0.34408843517303467 0.09219842404127121
vn -0.9930649995803833 -0.028047163039445877 0.11417297273874283
vn -0.024094026535749435 0.23904502391815186 0.9707096219062805
vn -0.4075542688369751 0.910881757736206 0.06476099044084549
vn 0.08761388063430786 -0.19914501905441284 0.9760457277297974
vn 0.12225925177335739 -0.992273211479187 -0.0211325790733099
vn -0.44625023007392883 0.8879344463348389 0.11150424927473068
vn -0.3870610296726227 0.20358268916606903 -0.8992985486984253
vn 0.2955263555049896 -0.9541827440261841 -0.0468984916806221
vn -0.1595369428396225 -0.22136685252189636 -0.9620523452758789
vn 0.9997037053108215 -0.02191917784512043 -0.010585317388176918
vn 0.9997037053108215 -0.013689987361431122 -0.020126823335886
vn 0.9997037053108215 -0.001792578841559589 -0.024275340139865875
vn 0.9997037053108215 0.010585149750113487 -0.021919166669249535
vn 0.9997037053108215 0.0201268307864666 -0.013689929619431496
vn 0.9997037053108215 0.024275315925478935 -0.0017925092251971364
vn 0.9997037053108215 0.02191920205950737 0.010585281997919083
vn 0.8795763850212097 0.4751293361186981 -0.024444861337542534
vn 0.8795763850212097 0.42369648814201355 0.21639476716518402
vn 0.8795762658119202 0.2587346136569977 0.399251788854599
vn 0.8795762658119202 0.02444521337747574 0.47512951493263245
vn 0.8795763850212097 -0.21639442443847656 0.42369669675827026
vn 0.8795764446258545 -0.39925163984298706 0.25873470306396484
vn 0.4680928885936737 0.8801754713058472 0.0786142498254776
vn 0.20444364845752716 0.9749971032142639 -0.08708313852548599
vn 0.20444343984127045 0.8879138231277466 0.4120824337005615
vn 0.4680926501750946 0.722947359085083 0.5081696510314941
vn 0.20444348454475403 0.5629150867462158 0.8008304834365845
vn 0.4680927097797394 0.37200629711151123 0.8015612959861755
vn 0.20444372296333313 0.08708395808935165 0.9749971032142639
vn 0.4680928885936737 -0.07861348986625671 0.8801755309104919
vn 0.20444385707378387 -0.4120818078517914 0.8879140019416809
vn 0.46809276938438416 -0.5081691741943359 0.7229475975036621
vn 0.20444351434707642 -0.8008304238319397 0.5629152059555054
vn 0.4680928885936737 -0.8015614151954651 0.3720061480998993
vn 0.2044437974691391 -0.9749970436096191 0.0870831236243248
vn 0.4680928885936737 -0.8801754713058472 -0.07861428707838058
vn -0.22360244393348694 0.941469132900238 -0.2522658109664917
vn -0.22360190749168396 0.941469132900238 0.25226590037345886
vn -0.22360196709632874 0.6892034411430359 0.6892030835151672
vn -0.22360233962535858 0.25226616859436035 0.9414689540863037
vn -0.22360210120677948 -0.2522650361061096 0.9414693117141724
vn -0.22360217571258545 -0.689203143119812 0.6892033219337463
vn -0.2236025631427765 -0.9414688348770142 -0.25226637721061707
vn -0.502837061882019 0.8349280953407288 -0.22371847927570343
vn -0.5028373599052429 0.8349279761314392 0.2237187772989273
vn -0.5028373599052429 0.6112098097801208 0.6112095713615417
vn -0.5028371810913086 0.22371906042099 0.8349278569221497
vn -0.5028374195098877 -0.22371765971183777 0.8349280953407288
vn -0.5028372406959534 -0.6112095713615417 0.6112099289894104
vn -0.5028368830680847 -0.8349282741546631 -0.22371825575828552
vn -0.8481987118721008 0.5116297602653503 -0.13709086179733276
vn -0.8481989502906799 0.5116294622421265 0.13709136843681335
vn -0.8481988310813904 0.3745388984680176 0.3745388984680176
vn -0.8481982350349426 0.1370924562215805 0.5116301774978638
vn -0.8481987118721008 -0.13709084689617157 0.5116298198699951
vn -0.8481987118721008 -0.37453895807266235 0.3745390772819519
vn -0.848198652267456 -0.5116298198699951 -0.13709115982055664
vn -1.0 5.322501692717196e-07 -8.940940574575507e-07
vn -1.0 -3.757391482395178e-07 6.507992225124326e-07
vn -1.0 0.0 0.0
vn -1.0 1.5029668247734662e-06 -7.695028018646702e-14
vn -1.0 -1.3015855984122027e-06 -7.514702247135574e-07
vn -1.0 0.0 0.0
vn -1.0 -5.322506808624894e-07 -1.426168552143281e-07
vn -0.2236025631427765 -0.9414688348770142 -0.25226637721061707
vn -0.2236025631427765 -0.9414688348770142 -0.25226637721061707
vn -0.22360216081142426 -0.689203143119812 -0.6892033219337463
vn -0.22360216081142426 -0.689203143119812 -0.6892033219337463
vn -0.22360216081142426 -0.689203143119812 -0.6892033219337463
vn -0.22360169887542725 -0.2522665858268738 -0.9414690136909485
vn -0.22360169887542725 -0.2522665858268738 -0.9414690136909485
vn -0.22360169887542725 -0.2522665858268738 -0.9414690136909485
vn -0.22360239923000336 0.25226545333862305 -0.941469132900238
vn -0.22360239923000336 0.25226545333862305 -0.941469132900238
vn -0.22360239923000336 0.25226545333862305 -0.941469132900238
vn -0.22360211610794067 0.6892030835151672 -0.6892033219337463
vn -0.22360211610794067 0.6892030835151672 -0.6892033219337463
vn -0.22360211610794067 0.6892030835151672 -0.6892033219337463
vn -0.2236020863056183 0.941469132900238 -0.2522661089897156
vn -0.2236020863056183 0.941469132900238 -0.2522661089897156
vn -0.2236020863056183 0.941469132900238 -0.2522661089897156
vn -0.5028368830680847 -0.8349282741546631 -0.22371825575828552
vn -0.5028368830680847 -0.8349282741546631 -0.22371825575828552
vn -0.5028372406959534 -0.6112098097801208 -0.6112096905708313
vn -0.5028372406959534 -0.6112098097801208 -0.6112096905708313
vn -0.5028372406959534 -0.6112098097801208 -0.6112096905708313
vn -0.5028374195098877 -0.22371838986873627 -0.8349279165267944
vn -0.5028374195098877 -0.22371838986873627 -0.8349279165267944
vn -0.5028374195098877 -0.22371838986873627 -0.8349279165267944
vn -0.5028373599052429 0.22371768951416016 -0.8349281549453735
vn -0.5028373599052429 0.22371768951416016 -0.8349281549453735
vn -0.5028373599052429 0.22371768951416016 -0.8349281549453735
vn -0.5028373599052429 0.6112097501754761 -0.6112097501754761
vn -0.5028373599052429 0.6112097501754761 -0.6112097501754761
vn -0.5028373599052429 0.6112097501754761 -0.6112097501754761
vn -0.5028371810913086 0.8349280953407288 -0.22371816635131836
vn -0.5028371810913086 0.8349280953407288 -0.22371816635131836
vn -0.5028371810913086 0.8349280953407288 -0.22371816635131836
vn -0.848198652267456 -0.5116298198699951 -0.13709115982055664
vn -0.848198652267456 -0.5116298198699951 -0.13709115982055664
vn -0.8481987714767456 -0.37453895807266235 -0.37453895807266235
vn -0.8481987714767456 -0.37453895807266235 -0.37453895807266235
vn -0.8481987714767456 -0.37453895807266235 -0.37453895807266235
vn -0.8481988310813904 -0.13709105551242828 -0.5116295218467712
vn -0.8481988310813904 -0.13709105551242828 -0.5116295218467712
vn -0.8481988310813904 -0.13709105551242828 -0.5116295218467712
vn -0.8481985926628113 0.1370905488729477 -0.5116302967071533
vn -0.8481985926628113 0.1370905488729477 -0.5116302967071533
vn -0.8481985926628113 0.1370905488729477 -0.5116302967071533
vn -0.8481987118721008 0.37453901767730713 -0.3745390772819519
vn -0.8481987118721008 0.37453901767730713 -0.3745390772819519
vn -0.8481987118721008 0.37453901767730713 -0.3745390772819519
vn -0.8481987118721008 0.5116297602653503 -0.13709089159965515
vn -0.8481987118721008 0.5116297602653503 -0.13709089159965515
vn -0.8481987118721008 0.5116297602653503 -0.13709089159965515
vn -1.0 -5.322506808624894e-07 -1.426168552143281e-07
vn -1.0 -5.322506808624894e-07 -1.426168552143281e-07
vn -1.0 0.0 0.0
vn -1.0 -7.629807896591956e-07 4.405073070756771e-07
vn -1.0 8.810059739516873e-07 8.792170821687179e-14
vn -1.0 0.0 0.0
vn -1.0 0.0 0.0
vn -0.9343996047973633 0.34408843517303467 0.09219842404127121
vn -0.9343996047973633 0.34408843517303467 0.09219842404127121
vn -0.9343996047973633 0.2518903613090515 0.25189048051834106
vn -0.9343996047973633 0.2518903613090515 0.25189048051834106
vn -0.9343996047973633 0.2518903613090515 0.25189048051834106
vn -0.9343995451927185 0.09219767153263092 0.3440890610218048
vn -0.9343995451927185 0.09219767153263092 0.3440890610218048
vn -0.9343995451927185 0.09219767153263092 0.3440890610218048
vn -0.9343993663787842 -0.09219629317522049 0.34408968687057495
vn -0.9343993663787842 -0.09219629317522049 0.34408968687057495
vn -0.9343993663787842 -0.09219629317522049 0.34408968687057495
vn -0.9343996047973633 -0.25189024209976196 0.25189024209976196
vn -0.9343996047973633 -0.25189024209976196 0.25189024209976196
vn -0.9343996047973633 -0.25189024209976196 0.25189024209976196
vn -0.9343996644020081 -0.34408852458000183 0.09219761192798615
vn -0.9343996644020081 -0.34408852458000183 0.09219761192798615
vn -0.9343996644020081 -0.34408852458000183 0.09219761192798615
vn 0.6833826303482056 0.7024661898612976 -0.19882044196128845
vn 0.6833826303482056 0.7024661898612976 -0.19882044196128845
vn 0.6833826303482056 0.7024661898612976 -0.19882044196128845
vn 0.9350184798240662 0.24606195092201233 -0.2553311288356781
vn 0.9350184798240662 0.24606195092201233 -0.2553311288356781
vn 0.9350184798240662 0.24606195092201233 -0.2553311288356781
vn -0.22360236942768097 0.9414688944816589 0.2522662878036499
vn -0.22360236942768097 0.9414688944816589 0.2522662878036499
vn -0.22360236942768097 0.9414688944816589 0.2522662878036499
vn -0.22360216081142426 0.6892032623291016 0.689203143119812
vn -0.22360216081142426 0.6892032623291016 0.689203143119812
vn -0.22360216081142426 0.6892032623291016 0.689203143119812
vn -0.22360171377658844 0.25226670503616333 0.9414689540863037
vn -0.22360171377658844 0.25226670503616333 0.9414689540863037
vn -0.22360171377658844 0.25226670503616333 0.9414689540863037
vn -0.22360239923000336 -0.2522653043270111 0.9414691925048828
vn -0.22360239923000336 -0.2522653043270111 0.9414691925048828
vn -0.22360239923000336 -0.2522653043270111 0.9414691925048828
vn -0.22360211610794067 -0.6892030239105225 0.6892033815383911
vn -0.22360211610794067 -0.6892030239105225 0.6892033815383911
vn -0.22360211610794067 -0.6892030239105225 0.6892033815383911
vn -0.2236020863056183 -0.9414690136909485 0.25226619839668274
vn -0.2236020863056183 -0.9414690136909485 0.25226619839668274
vn -0.2236020863056183 -0.9414690136909485 0.25226619839668274
vn -0.22360265254974365 -0.9414690136909485 0.25226569175720215
vn -0.5028370022773743 0.8349282145500183 0.2237183004617691
vn -0.5028370022773743 0.8349282145500183 0.2237183004617691
vn -0.5028370022773743 0.8349282145500183 0.2237183004617691
vn -0.5028372406959534 0.6112099289894104 0.6112095713615417
vn -0.5028372406959534 0.6112099289894104 0.6112095713615417
vn -0.5028372406959534 0.6112099289894104 0.6112095713615417
vn -0.5028374195098877 0.2237185537815094 0.8349278569221497
vn -0.5028374195098877 0.2237185537815094 0.8349278569221497
vn -0.5028374195098877 0.2237185537815094 0.8349278569221497
vn -0.5028374195098877 -0.2237175554037094 0.8349282741546631
vn -0.5028374195098877 -0.2237175554037094 0.8349282741546631
vn -0.5028374195098877 -0.2237175554037094 0.8349282741546631
vn -0.5028373599052429 -0.6112096905708313 0.6112097501754761
vn -0.5028373599052429 -0.6112096905708313 0.6112097501754761
vn -0.5028373599052429 -0.6112096905708313 0.6112097501754761
vn -0.5028371810913086 -0.8349281549453735 0.22371810674667358
vn -0.5028371810913086 -0.8349281549453735 0.22371810674667358
vn -0.5028371810913086 -0.8349281549453735 0.22371810674667358
vn -0.5028369426727295 -0.8349281549453735 0.22371850907802582
vn -0.848198652267456 0.5116298198699951 0.13709110021591187
vn -0.848198652267456 0.5116298198699951 0.13709110021591187
vn -0.848198652267456 0.5116298198699951 0.13709110021591187
vn -0.8481987714767456 0.3745390474796295 0.3745388984680176
vn -0.8481987714767456 0.3745390474796295 0.3745388984680176
vn -0.8481987714767456 0.3745390474796295 0.3745388984680176
vn -0.8481988310813904 0.13709118962287903 0.5116295218467712
vn -0.8481988310813904 0.13709118962287903 0.5116295218467712
vn -0.8481988310813904 0.13709118962287903 0.5116295218467712
vn -0.8481984734535217 -0.1370905339717865 0.5116302967071533
vn -0.8481984734535217 -0.1370905339717865 0.5116302967071533
vn -0.8481984734535217 -0.1370905339717865 0.5116302967071533
vn -0.848198652267456 -0.37453892827033997 0.37453919649124146
vn -0.848198652267456 -0.37453892827033997 0.37453919649124146
vn -0.848198652267456 -0.37453892827033997 0.37453919649124146
vn -0.8481987118721008 -0.5116298198699951 0.13709090650081635
vn -0.8481987118721008 -0.5116298198699951 0.13709090650081635
vn -0.8481987118721008 -0.5116298198699951 0.13709090650081635
vn -0.8481987118721008 -0.5116298198699951 0.13709090650081635
vn -1.0 5.322506808624894e-07 1.4261684100347338e-07
vn -1.0 0.0 0.0
vn -1.0 7.629807328157767e-07 -4.405073070756771e-07
vn -1.0 -8.810059171082685e-07 4.510655426102385e-14
vn -1.0 0.0 0.0
vn -0.9343996047973633 -0.34408843517303467 -0.09219839423894882
vn -0.9343996047973633 -0.34408843517303467 -0.09219839423894882
vn -0.9343996047973633 -0.34408843517303467 -0.09219839423894882
vn -0.9343995451927185 -0.2518903315067291 -0.2518904209136963
vn -0.9343995451927185 -0.2518903315067291 -0.2518904209136963
vn -0.9343995451927185 -0.2518903315067291 -0.2518904209136963
vn -0.9343995451927185 -0.0921977162361145 -0.3440890312194824
vn -0.9343995451927185 -0.0921977162361145 -0.3440890312194824
vn -0.9343995451927185 -0.0921977162361145 -0.3440890312194824
vn -0.9343993663787842 0.09219623357057571 -0.34408968687057495
vn -0.9343993663787842 0.09219623357057571 -0.34408968687057495
vn -0.9343993663787842 0.09219623357057571 -0.34408968687057495
vn -0.9343996047973633 0.2518902122974396 -0.25189027190208435
vn -0.9343996047973633 0.2518902122974396 -0.25189027190208435
vn -0.9343996047973633 0.2518902122974396 -0.25189027190208435
vn -0.9343996644020081 0.34408849477767944 -0.09219765663146973
vn -0.9343996644020081 0.34408849477767944 -0.09219765663146973
vn -0.9343996644020081 0.34408849477767944 -0.09219765663146973
f 266/266/266 267/267/267 268/268/268
f 263/263/263 264/264/264 265/265/265
f 260/260/260 261/261/261 262/262/262
f 257/257/257 258/258/258 259/259/259
f 254/254/254 255/255/255 256/256/256
f 251/251/251 252/252/252 253/253/253
f 106/106/106 107/107/107 160/160/160
f 160/160/160 250/250/250 106/106/106
f 105/105/105 106/106/106 250/250/250
f 250/250/250 249/249/249 105/105/105
f 104/104/104 105/105/105 249/249/249
f 249/249/249 248/248/248 104/104/104
f 103/103/103 104/104/104 248/248/248
f 248/248/248 247/247/247 103/103/103
f 102/102/102 103/103/103 247/247/247
f 247/247/247 246/246/246 102/102/102
f 101/101/101 102/102/102 246/246/246
f 246/246/246 165/165/165 101/101/101
f 244/244/244 245/245/245 242/242/242
f 242/242/242 243/243/243 244/244/244
f 241/241/241 99/99/99 239/239/239
f 239/239/239 240/240/240 241/241/241
f 238/238/238 98/98/98 236/236/236
f 236/236/236 237/237/237 238/238/238
f 235/235/235 97/97/97 233/233/233
f 233/233/233 234/234/234 235/235/235
f 232/232/232 96/96/96 230/230/230
f 230/230/230 231/231/231 232/232/232
f 229/229/229 95/95/95 227/227/227
f 227/227/227 228/228/228 229/229/229
f 225/225/225 226/226/226 223/223/223
f 223/223/223 224/224/224 225/225/225
f 222/222/222 92/92/92 220/220/220
f 220/220/220 221/221/221 222/222/222
f 219/219/219 91/91/91 217/217/217
f 217/217/217 218/218/218 219/219/219
f 216/216/216 90/90/90 214/214/214
f 214/214/214 215/215/215 216/216/216
f 213/213/213 89/89/89 211/211/211
f 211/211/211 212/212/212 213/213/213
f 210/210/210 88/88/88 208/208/208
f 208/208/208 209/209/209 210/210/210
f 206/206/206 207/207/207 204/204/204
f 204/204/204 205/205/205 206/206/206
f 203/203/203 85/85/85 201/201/201
f 201/201/201 202/202/202 203/203/203
f 200/200/200 84/84/84 198/198/198
f 198/198/198 199/199/199 200/200/200
f 197/197/197 83/83/83 195/195/195
f 195/195/195 196/196/196 197/197/197
f 194/194/194 82/82/82 192/192/192
f 192/192/192 193/193/193 194/194/194
f 191/191/191 81/81/81 189/189/189
f 189/189/189 190/190/190 191/191/191
f 7/7/7 65/65/65 77/77/77
f 77/77/77 79/79/79 7/7/7
f 65/65/65 64/64/64 75/75/75
f 75/75/75 77/77/77 65/65/65
f 64/64/64 63/63/63 73/73/73
f 73/73/73 75/75/75 64/64/64
f 63/63/63 62/62/62 71/71/71
f 71/71/71 73/73/73 63/63/63
f 62/62/62 61/61/61 69/69/69
f 69/69/69 71/71/71 62/62/62
f 61/61/61 60/60/60 66/66/66
f 66/66/66 69/69/69 61/61/61
f 77/77/77 76/76/76 78/78/78
f 78/78/78 79/79/79 77/77/77
f 75/75/75 74/74/74 76/76/76
f 76/76/76 77/77/77 75/75/75
f 73/73/73 72/72/72 74/74/74
f 74/74/74 75/75/75 73/73/73
f 71/71/71 70/70/70 72/72/72
f 72/72/72 73/73/73 71/71/71
f 69/69/69 68/68/68 70/70/70
f 70/70/70 71/71/71 69/69/69
f 66/66/66 67/67/67 68/68/68
f 68/68/68 69/69/69 66/66/66
f 59/59/59 58/58/58 65/65/65
f 65/65/65 7/7/7 59/59/59
f 58/58/58 57/57/57 64/64/64
f 64/64/64 65/65/65 58/58/58
f 57/57/57 56/56/56 63/63/63
f 63/63/63 64/64/64 57/57/57
f 56/56/56 55/55/55 62/62/62
f 62/62/62 63/63/63 56/56/56
f 55/55/55 54/54/54 61/61/61
f 61/61/61 62/62/62 55/55/55
f 54/54/54 53/53/53 60/60/60
f 60/60/60 61/61/61 54/54/54
f 1/1/1 58/58/58 59/59/59
f 1/1/1 57/57/57 58/58/58
f 1/1/1 56/56/56 57/57/57
f 1/1/1 55/55/55 56/56/56
f 1/1/1 54/54/54 55/55/55
f 1/1/1 53/53/53 54/54/54
f 186/186/186 187/187/187 188/188/188
f 183/183/183 184/184/184 185/185/185
f 52/52/52 48/48/48 44/44/44
f 46/46/46 52/52/52 44/44/44
f 52/52/52 50/50/50 51/51/51
f 51/51/51 48/48/48 52/52/52
f 46/46/46 49/49/49 50/50/50
f 50/50/50 52/52/52 46/46/46
f 47/47/47 44/44/44 48/48/48
f 46/46/46 44/44/44 47/47/47
f 47/47/47 48/48/48 51/51/51
f 51/51/51 45/45/45 47/47/47
f 46/46/46 47/47/47 45/45/45
f 45/45/45 49/49/49 46/46/46
f 180/180/180 181/181/181 182/182/182
f 177/177/177 178/178/178 179/179/179
f 174/174/174 175/175/175 176/176/176
f 171/171/171 172/172/172 173/173/173
f 168/168/168 169/169/169 170/170/170
f 166/166/166 167/167/167 43/43/43
f 42/42/42 101/101/101 165/165/165
f 165/165/165 164/164/164 42/42/42
f 41/41/41 42/42/42 164/164/164
f 164/164/164 163/163/163 41/41/41
f 40/40/40 41/41/41 163/163/163
f 163/163/163 162/162/162 40/40/40
f 39/39/39 40/40/40 162/162/162
f 162/162/162 161/161/161 39/39/39
f 38/38/38 39/39/39 161/161/161
f 161/161/161 159/159/159 38/38/38
f 107/107/107 38/38/38 159/159/159
f 159/159/159 160/160/160 107/107/107
f 158/158/158 94/94/94 156/156/156
f 156/156/156 157/157/157 158/158/158
f 155/155/155 37/37/37 153/153/153
f 153/153/153 154/154/154 155/155/155
f 152/152/152 36/36/36 150/150/150
f 150/150/150 151/151/151 152/152/152
f 149/149/149 35/35/35 147/147/147
f 147/147/147 148/148/148 149/149/149
f 146/146/146 34/34/34 144/144/144
f 144/144/144 145/145/145 146/146/146
f 100/100/100 33/33/33 142/142/142
f 142/142/142 143/143/143 100/100/100
f 141/141/141 87/87/87 139/139/139
f 139/139/139 140/140/140 141/141/141
f 138/138/138 32/32/32 136/136/136
f 136/136/136 137/137/137 138/138/138
f 135/135/135 31/31/31 133/133/133
f 133/133/133 134/134/134 135/135/135
f 132/132/132 30/30/30 130/130/130
f 130/130/130 131/131/131 132/132/132
f 129/129/129 29/29/29 127/127/127
f 127/127/127 128/128/128 129/129/129
f 93/93/93 28/28/28 125/125/125
f 125/125/125 126/126/126 93/93/93
f 124/124/124 80/80/80 122/122/122
f 122/122/122 123/123/123 124/124/124
f 121/121/121 27/27/27 119/119/119
f 119/119/119 120/120/120 121/121/121
f 118/118/118 26/26/26 116/116/116
f 116/116/116 117/117/117 118/118/118
f 115/115/115 25/25/25 113/113/113
f 113/113/113 114/114/114 115/115/115
f 112/112/112 24/24/24 110/110/110
f 110/110/110 111/111/111 112/112/112
f 86/86/86 23/23/23 108/108/108
f 108/108/108 109/109/109 86/86/86
f 60/60/60 12/12/12 22/22/22
f 22/22/22 66/66/66 60/60/60
f 12/12/12 11/11/11 20/20/20
f 20/20/20 22/22/22 12/12/12
f 11/11/11 10/10/10 18/18/18
f 18/18/18 20/20/20 11/11/11
f 10/10/10 9/9/9 16/16/16
f 16/16/16 18/18/18 10/10/10
f 9/9/9 8/8/8 14/14/14
f 14/14/14 16/16/16 9/9/9
f 8/8/8 7/7/7 79/79/79
f 79/79/79 14/14/14 8/8/8
f 22/22/22 21/21/21 67/67/67
f 67/67/67 66/66/66 22/22/22
f 20/20/20 19/19/19 21/21/21
f 21/21/21 22/22/22 20/20/20
f 18/18/18 17/17/17 19/19/19
f 19/19/19 20/20/20 18/18/18
f 16/16/16 15/15/15 17/17/17
f 17/17/17 18/18/18 16/16/16
f 14/14/14 13/13/13 15/15/15
f 15/15/15 16/16/16 14/14/14
f 79/79/79 78/78/78 13/13/13
f 13/13/13 14/14/14 79/79/79
f 53/53/53 6/6/6 12/12/12
f 12/12/12 60/60/60 53/53/53
f 6/6/6 5/5/5 11/11/11
f 11/11/11 12/12/12 6/6/6
f 5/5/5 4/4/4 10/10/10
f 10/10/10 11/11/11 5/5/5
f 4/4/4 3/3/3 9/9/9
f 9/9/9 10/10/10 4/4/4
f 3/3/3 2/2/2 8/8/8
f 8/8/8 9/9/9 3/3/3
f 2/2/2 59/59/59 7/7/7
f 7/7/7 8/8/8 2/2/2
f 1/1/1 6/6/6 53/53/53
f 1/1/1 5/5/5 6/6/6
f 1/1/1 4/4/4 5/5/5
f 1/1/1 3/3/3 4/4/4
f 1/1/1 2/2/2 3/3/3
f 1/1/1 59/59/59 2/2/2
