# Recovered local-space geometry; original node transforms not applied
o mesh_0
v 24.155452728271484 -0.49338531494140625 -0.029891550540924072
v 52.697235107421875 5.819061279296875 1.0342786312103271
v 39.108734130859375 3.235004425048828 -0.3423827886581421
v 40.929969787597656 0.9464411735534668 1.894958257675171
v 40.927284240722656 -1.7804834842681885 -0.5014845132827759
v 49.06896209716797 8.46151065826416 -2.1005465984344482
v 50.684112548828125 5.642936706542969 -6.507461071014404
v 52.579795837402344 2.191894769668579 -2.891273260116577
v 40.51378631591797 0.9464411735534668 -2.861987352371216
v 27.495895385742188 -5.714704457204789e-06 -0.016763031482696533
v 33.151824951171875 15.666590690612793 -0.01676684245467186
v 33.151824951171875 13.567663192749023 7.816524028778076
v 33.151824951171875 7.8332929611206055 13.550895690917969
v 33.151824951171875 3.265208943048492e-05 15.649821281433105
v 33.151824951171875 -7.8333024978637695 13.550897598266602
v 33.151824951171875 -13.56767749786377 7.816527843475342
v 33.151824951171875 -15.666604042053223 -0.01676875725388527
v 30.588577270507812 28.875091552734375 -0.016769707202911377
v 30.588577270507812 25.006563186645508 14.420775413513184
v 30.588577270507812 14.437542915344238 24.989795684814453
v 30.58856964111328 3.32160088873934e-05 28.858325958251953
v 30.588577270507812 -14.437549591064453 24.989795684814453
v 30.588577270507812 -25.006574630737305 14.420783042907715
v 30.588577270507812 -28.875102996826172 -0.016763031482696533
v 20.457244873046875 38.63168716430664 -0.016774475574493408
v 4.4507904052734375 41.98802947998047 -0.01677638292312622
v 4.450786590576172 36.36268997192383 20.97724151611328
v 20.457242965698242 33.456024169921875 19.299072265625
v 4.450786590576172 20.9940128326416 36.34592056274414
v 20.457242965698242 19.31584358215332 33.43925094604492
v 4.450786590576172 3.495758573990315e-05 41.97126007080078
v 20.45724105834961 3.421237488510087e-05 38.61492156982422
v 4.450786590576172 -20.9940128326416 36.3459358215332
v 20.457242965698242 -19.31584358215332 33.43925857543945
v 4.450786590576172 -36.36270523071289 20.977249145507812
v 20.457242965698242 -33.45603561401367 19.299087524414062
v 4.4507904052734375 -41.988040924072266 -0.016758263111114502
v 20.457244873046875 -38.6317024230957 -0.016759216785430908
v -12.645530700683594 37.92758560180664 -0.01677638664841652
v -12.64553451538086 32.846256256103516 18.947017669677734
v -12.645538330078125 18.963788986206055 32.829490661621094
v -12.645538330078125 3.55365700670518e-05 37.91082000732422
v -12.645538330078125 -18.963796615600586 32.82949447631836
v -12.64553451538086 -32.84626770019531 18.94702911376953
v -12.645530700683594 -37.9276008605957 -0.016761120408773422
v -32.07029724121094 26.228984832763672 -0.016773518174886703
v -32.07029724121094 22.714963912963867 13.097716331481934
v -32.07029724121094 13.114486694335938 22.698196411132812
v -32.07029724121094 3.5915898479288444e-05 26.212215423583984
v -32.07029724121094 -13.11449909210205 22.698196411132812
v -32.07029724121094 -22.71497917175293 13.097722053527832
v -32.07029724121094 -26.229000091552734 -0.016767803579568863
v -37.444374084472656 17.31964111328125 -0.016772568225860596
v -37.444374084472656 14.999244689941406 8.643046379089355
v -37.444374084472656 8.65981388092041 14.982477188110352
v -37.44438171386719 3.576271774363704e-05 17.302871704101562
v -37.444374084472656 -8.659832000732422 14.982479095458984
v -37.444374084472656 -14.99926471710205 8.643048286437988
v -37.444374084472656 -17.319660186767578 -0.01677161455154419
v -37.44438171386719 10.152534484863281 -0.016767799854278564
v -37.444374084472656 8.792346954345703 5.059491157531738
v -37.444374084472656 5.076258182525635 8.775579452514648
v -37.44438171386719 3.539576937328093e-05 10.135760307312012
v -37.444374084472656 -5.076279640197754 8.775579452514648
v -37.444374084472656 -8.792366981506348 5.059492588043213
v -37.444374084472656 -10.152551651000977 -0.016774475574493408
v -33.70574951171875 8.590410288888961e-06 -0.016770660877227783
v 13.585914611816406 -15.845846176147461 -0.016770660877227783
v 14.788028717041016 -5.953123036306351e-06 -0.016763031482696533
v 7.686412811279297 -28.926841735839844 -0.01676398515701294
v -19.233562469482422 -4.69611186417751e-05 -0.01676112413406372
v -18.87655258178711 -13.99876594543457 -0.0167735256254673
v -16.088150024414062 -26.217517852783203 -0.01676589623093605
v 13.585914611816406 15.845837593078613 -0.016758263111114502
v 7.686412811279297 28.92682647705078 -0.01676875352859497
v -18.87655258178711 13.998753547668457 -0.016761120408773422
v -16.088150024414062 26.217506408691406 -0.01676970347762108
v 27.495895385742188 -5.714704457204789e-06 -0.016763031482696533
v 33.151824951171875 -15.666604042053223 -0.01676875725388527
v 30.588577270507812 -28.875102996826172 -0.016763031482696533
v 20.457244873046875 -38.6317024230957 -0.016759216785430908
v 30.588577270507812 -28.875102996826172 -0.016763031482696533
v 7.686412811279297 -28.926841735839844 -0.01676398515701294
v -37.444374084472656 -10.152551651000977 -0.016774475574493408
v -33.70574951171875 8.590410288888961e-06 -0.016770660877227783
v -32.07029724121094 -26.229000091552734 -0.016767803579568863
v -37.444374084472656 -17.319660186767578 -0.01677161455154419
v -16.088150024414062 -26.217517852783203 -0.01676589623093605
v -37.444374084472656 -17.319660186767578 -0.01677161455154419
v -18.87655258178711 -13.99876594543457 -0.0167735256254673
v -19.233562469482422 -4.69611186417751e-05 -0.01676112413406372
v 14.788028717041016 -5.953123036306351e-06 -0.016763031482696533
v 13.585914611816406 -15.845846176147461 -0.016770660877227783
v 4.4507904052734375 -41.988040924072266 -0.016758263111114502
v -12.645530700683594 -37.9276008605957 -0.016761120408773422
v 7.686412811279297 -28.926841735839844 -0.01676398515701294
v -16.088150024414062 -26.217517852783203 -0.01676589623093605
v 20.457244873046875 -38.6317024230957 -0.016759216785430908
v 33.151824951171875 15.666590690612793 -0.01676684245467186
v 30.588577270507812 28.875091552734375 -0.016769707202911377
v 20.457244873046875 38.63168716430664 -0.016774475574493408
v 30.588577270507812 28.875091552734375 -0.016769707202911377
v 7.686412811279297 28.92682647705078 -0.01676875352859497
v -37.44438171386719 10.152534484863281 -0.016767799854278564
v -37.444374084472656 17.31964111328125 -0.016772568225860596
v -32.07029724121094 26.228984832763672 -0.016773518174886703
v -37.444374084472656 17.31964111328125 -0.016772568225860596
v -16.088150024414062 26.217506408691406 -0.01676970347762108
v -18.87655258178711 13.998753547668457 -0.016761120408773422
v 13.585914611816406 15.845837593078613 -0.016758263111114502
v 4.4507904052734375 41.98802947998047 -0.01677638292312622
v -12.645530700683594 37.92758560180664 -0.01677638664841652
v 7.686412811279297 28.92682647705078 -0.01676875352859497
v -16.088150024414062 26.217506408691406 -0.01676970347762108
v 20.457244873046875 38.63168716430664 -0.016774475574493408
vt 0.4907238185405731 0.28236645460128784
vt 0.4907091557979584 0.2559533715248108
vt 0.4890148937702179 0.26915550231933594
vt 0.49071648716926575 0.26915979385375977
vt 0.4924178421497345 0.26915550231933594
vt 0.4873062074184418 0.25594472885131836
vt 0.4907091557979584 0.2559533715248108
vt 0.494112104177475 0.25594472885131836
vt 0.49071648716926575 0.26915979385375977
vt 0.4370858371257782 0.25309163331985474
vt 0.41031143069267273 0.26627862453460693
vt 0.4184817373752594 0.2699398398399353
vt 0.4276951253414154 0.2706458568572998
vt 0.43570849299430847 0.2706458568572998
vt 0.4445270001888275 0.2706458568572998
vt 0.45315900444984436 0.27008527517318726
vt 0.4617031514644623 0.26688075065612793
vt 0.3946736752986908 0.27488797903060913
vt 0.4069477617740631 0.279527485370636
vt 0.4205285608768463 0.2803438901901245
vt 0.435714453458786 0.2803438901901245
vt 0.4512588083744049 0.2803438901901245
vt 0.4670819938182831 0.27980291843414307
vt 0.47752508521080017 0.2760346531867981
vt 0.38682302832603455 0.28823405504226685
vt 0.3847900927066803 0.30911487340927124
vt 0.39916250109672546 0.30996471643447876
vt 0.4007277190685272 0.28979045152664185
vt 0.41462668776512146 0.3106449842453003
vt 0.4163276255130768 0.2920578718185425
vt 0.43571481108665466 0.3106449842453003
vt 0.43571481108665466 0.2920578718185425
vt 0.45718440413475037 0.3106449842453003
vt 0.4554835259914398 0.2920578718185425
vt 0.47372666001319885 0.30910545587539673
vt 0.4729788601398468 0.2907845377922058
vt 0.4884721338748932 0.30911487340927124
vt 0.4860474765300751 0.288166344165802
vt 0.3869929015636444 0.3319171667098999
vt 0.401615709066391 0.3289784789085388
vt 0.41668441891670227 0.32671117782592773
vt 0.43594154715538025 0.32671117782592773
vt 0.45489993691444397 0.32784485816955566
vt 0.4713619649410248 0.3309040665626526
vt 0.48687246441841125 0.3336177468299866
vt 0.39814016222953796 0.35094064474105835
vt 0.4082449972629547 0.3467295169830322
vt 0.42064228653907776 0.34451043605804443
vt 0.43535396456718445 0.3435462713241577
vt 0.4507153332233429 0.34431707859039307
vt 0.46223214268684387 0.34790825843811035
vt 0.472244530916214 0.35286784172058105
vt 0.4080750048160553 0.3603994846343994
vt 0.4139418303966522 0.35580313205718994
vt 0.4236989915370941 0.3536936044692993
vt 0.43571779131889343 0.3531040549278259
vt 0.4485768973827362 0.3536936044692993
vt 0.4573788344860077 0.3563928008079529
vt 0.46304503083229065 0.3606942892074585
vt 0.4239688217639923 0.3682170510292053
vt 0.4271445572376251 0.36596405506134033
vt 0.4307604134082794 0.3647584915161133
vt 0.43571481108665466 0.3647584915161133
vt 0.4410506784915924 0.3647584915161133
vt 0.44421443343162537 0.3656625747680664
vt 0.4477488696575165 0.36836767196655273
vt 0.43571987748146057 0.37239980697631836
vt 0.5531392693519592 0.3742474913597107
vt 0.5626915097236633 0.3742477297782898
vt 0.5294259786605835 0.3742477297782898
vt 0.5038692951202393 0.37424784898757935
vt 0.5145295262336731 0.3742474317550659
vt 0.5294259190559387 0.3742477297782898
vt 0.5531392693519592 0.3742474913597107
vt 0.5294259786605835 0.3742477297782898
vt 0.5145295262336731 0.3742474317550659
vt 0.5294259190559387 0.3742477297782898
vt 0.5627158284187317 0.3135365843772888
vt 0.5531389117240906 0.31353336572647095
vt 0.5294207334518433 0.3135365843772888
vt 0.5314879417419434 0.31353336572647095
vt 0.5384981036186218 0.3135365843772888
vt 0.5385225415229797 0.3742477297782898
vt 0.5145295858383179 0.31353992223739624
vt 0.5038436055183411 0.31353819370269775
vt 0.5314879417419434 0.31356531381607056
vt 0.5294209122657776 0.3135044574737549
vt 0.5252084732055664 0.37424784898757935
vt 0.5252086520195007 0.31353819370269775
vt 0.5661777853965759 0.3521864414215088
vt 0.5655682682991028 0.3742471933364868
vt 0.6236385703086853 0.3742471933364868
vt 0.6215867400169373 0.3503348231315613
vt 0.5314879417419434 0.31353336572647095
vt 0.5294207334518433 0.3135368227958679
vt 0.6130656599998474 0.32715660333633423
vt 0.5744214653968811 0.3290752172470093
vt 0.5294207334518433 0.3135365843772888
vt 0.5531389117240906 0.3135335445404053
vt 0.5294207334518433 0.3135365843772888
vt 0.5314879417419434 0.31353336572647095
vt 0.5384981036186218 0.3135365843772888
vt 0.5385225415229797 0.3742477297782898
vt 0.5145295858383179 0.31353992223739624
vt 0.5294209122657776 0.3135044574737549
vt 0.5314879417419434 0.31356531381607056
vt 0.5252086520195007 0.31353819370269775
vt 0.5252084732055664 0.37424784898757935
vt 0.5661776661872864 0.352186381816864
vt 0.6215866208076477 0.35033464431762695
vt 0.5314879417419434 0.31353336572647095
vt 0.5294207334518433 0.31353574991226196
vt 0.6130656599998474 0.3271564245223999
vt 0.5744213461875916 0.3290750980377197
vt 0.5294207334518433 0.3135365843772888
vn -0.9930649995803833 -0.028047163039445877 0.11417297273874283
vn 0.5690744519233704 0.5386447906494141 0.6213018894195557
vn -0.4075542688369751 0.910881757736206 0.06476099044084549
vn 0.08761388063430786 -0.19914501905441284 0.9760457277297974
vn 0.12225925177335739 -0.992273211479187 -0.0211325790733099
vn 0.016990959644317627 0.9996879696846008 -0.018309883773326874
vn 0.254452109336853 0.47772806882858276 -0.8408507704734802
vn 0.583611011505127 -0.8018699288368225 -0.1280733346939087
vn -0.1595369428396225 -0.22136685252189636 -0.9620523452758789
vn 0.9722372889518738 -1.727069047774421e-07 -0.2339971512556076
vn 0.9968252182006836 -0.07690808176994324 -0.020607491955161095
vn 0.9997037053108215 -0.013690038584172726 -0.020126815885305405
vn 0.9997037053108215 -0.0017925865249708295 -0.024275358766317368
vn 0.9997037053108215 0.010585147887468338 -0.02191917784512043
vn 0.9997037053108215 0.020126836374402046 -0.013689936138689518
vn 0.9997037053108215 0.02427532896399498 -0.0017925185384228826
vn 0.9998855590820312 -0.014613098464906216 0.003915559966117144
vn 0.9199132323265076 0.37876075506210327 0.10148865729570389
vn 0.8795763254165649 0.4236965477466583 0.2163947969675064
vn 0.8795762658119202 0.2587346136569977 0.399251788854599
vn 0.8795762658119202 0.02444521337747574 0.47512951493263245
vn 0.8795763850212097 -0.21639442443847656 0.42369669675827026
vn 0.8795763850212097 -0.3992515206336975 0.25873470306396484
vn 0.8156904578208923 -0.5587772727012634 0.14972396194934845
vn 0.45693328976631165 0.8591919541358948 0.23021985590457916
vn -0.01283496804535389 0.9658462405204773 0.25879818201065063
vn -0.013235000893473625 0.9069932699203491 0.42093709111213684
vn 0.468092679977417 0.722947359085083 0.5081695914268494
vn -0.013234871439635754 0.5750110149383545 0.8180386424064636
vn 0.4680927097797394 0.37200629711151123 0.8015612959861755
vn -0.013234877958893776 0.08895514160394669 0.9959477186203003
vn 0.4680928885936737 -0.07861348986625671 0.8801755309104919
vn -0.013234831392765045 -0.42093661427497864 0.9069936275482178
vn 0.46809276938438416 -0.5081691741943359 0.7229475975036621
vn -0.013234964571893215 -0.8180386424064636 0.5750109553337097
vn 0.46809279918670654 -0.8015612959861755 0.37200623750686646
vn -0.012834985740482807 -0.9658463001251221 0.2587979733943939
vn 0.45693352818489075 -0.8591918349266052 0.23021987080574036
vn -0.31990060210227966 0.915167510509491 0.24521832168102264
vn -0.37850821018218994 0.7991008162498474 0.46708613634109497
vn -0.3785082995891571 0.45849868655204773 0.8040587306022644
vn -0.37850847840309143 -0.004957596305757761 0.9255846738815308
vn -0.37850844860076904 -0.4670858085155487 0.7991008758544922
vn -0.37850841879844666 -0.8040587902069092 0.45849844813346863
vn -0.4139254689216614 -0.8792926669120789 0.23560583591461182
vn -0.6344789862632751 0.7466028928756714 0.2000516951084137
vn -0.7081985473632812 0.6037167310714722 0.36603406071662903
vn -0.708198606967926 0.3398172855377197 0.6188530325889587
vn -0.7081984281539917 -0.015135619789361954 0.7058511972427368
vn -0.7081984281539917 -0.3660338521003723 0.6037169694900513
vn -0.7081984281539917 -0.6188531517982483 0.33981722593307495
vn -0.7526771426200867 -0.6359556317329407 0.17040400207042694
vn -0.9307446479797363 0.35320985317230225 0.09464246034622192
vn -0.9634805917739868 0.21907232701778412 0.15398921072483063
vn -0.963480532169342 0.11272819340229034 0.24289436638355255
vn -0.963480532169342 -0.02382160723209381 0.26671677827835083
vn -0.9634805917739868 -0.1539893001317978 0.21907223761081696
vn -0.963480532169342 -0.2428944706916809 0.11272779107093811
vn -0.9831437468528748 -0.17660485208034515 0.04732120409607887
vn -0.9927119016647339 -0.11640582233667374 -0.031190048903226852
vn -0.990158200263977 -0.12120340764522552 -0.06997627019882202
vn -0.9901581406593323 -0.0699760839343071 -0.12120326608419418
vn -0.9901580810546875 -4.484149940253701e-07 -0.1399536430835724
vn -0.9901581406593323 0.0699758306145668 -0.12120330333709717
vn -0.9901581406593323 0.12120277434587479 -0.06997653096914291
vn -0.9834632277488708 0.17493672668933868 -0.046874258667230606
vn -0.971162736415863 -6.504722023237264e-07 -0.23841767013072968
vn 9.36350872393632e-08 3.992803101482423e-07 -1.0
vn -9.033213359179587e-15 4.814762064597744e-07 -1.0
vn 4.262450659098249e-08 -4.3524798343241855e-07 -1.0
vn 2.3591664444211347e-07 8.91918489287491e-07 -1.0
vn 2.3591664444211347e-07 8.91918489287491e-07 -1.0
vn 1.1959791379467788e-07 -3.5560924516175874e-07 -1.0
vn -5.6457566554213474e-15 3.0092255087765807e-07 -1.0
vn -4.284575894075715e-08 -5.332245791578316e-07 -1.0
vn 3.6158721172796504e-07 -8.955404418031776e-09 -1.0
vn 2.385049526765215e-07 -2.504890233012702e-07 -1.0
vn 9.36350872393632e-08 3.992803101482423e-07 -1.0
vn 9.36350872393632e-08 3.992803101482423e-07 -1.0
vn 4.262450659098249e-08 -4.3524798343241855e-07 -1.0
vn 4.262450659098249e-08 -4.3524798343241855e-07 -1.0
vn 4.283779375668928e-08 -5.296571430335462e-07 -1.0
vn 4.283779375668928e-08 -5.296571430335462e-07 -1.0
vn 2.3591664444211347e-07 8.91918489287491e-07 -1.0
vn 6.589708050341869e-07 1.33075062080934e-07 -1.0
vn 1.1959791379467788e-07 -3.5560924516175874e-07 -1.0
vn 1.1959791379467788e-07 -3.5560924516175874e-07 -1.0
vn 8.408178153729295e-09 -6.224815933819627e-07 -1.0
vn 8.408178153729295e-09 -6.224815933819627e-07 -1.0
vn -5.6063957032392864e-08 8.844721151035628e-07 -1.0
vn -5.6063957032392864e-08 8.844721151035628e-07 -1.0
vn -5.6063957032392864e-08 8.844721151035628e-07 -1.0
vn 1.1514646303112386e-07 4.7274082248804916e-07 -1.0
vn 7.554071856930022e-08 -3.856304431337776e-07 -1.0
vn 7.554071856930022e-08 -3.856304431337776e-07 -1.0
vn 9.473492212919155e-09 -6.222385877663328e-07 -1.0
vn 9.473492212919155e-09 -6.222385877663328e-07 -1.0
vn 3.405080306606578e-08 -4.465303220513306e-07 -1.0
vn -4.3926004877903324e-07 -8.467372225595682e-08 -1.0
vn -4.284575894075715e-08 -5.332245791578316e-07 -1.0
vn -4.284575894075715e-08 -5.332245791578316e-07 -1.0
vn -4.412557359501079e-07 -3.0251692351157544e-07 -1.0
vn -4.349713478291051e-08 -8.215761795327126e-07 -1.0
vn 6.58972396649915e-07 5.244683620730939e-07 -1.0
vn 2.385049526765215e-07 -2.504890233012702e-07 -1.0
vn 2.385049526765215e-07 -2.504890233012702e-07 -1.0
vn 4.975480578650604e-07 -6.653139053014456e-07 -1.0
vn 4.7165542582661146e-07 -8.100855097836757e-07 -1.0
vn 7.059158235733776e-08 3.062778546336631e-07 -1.0
vn 7.059158235733776e-08 3.062778546336631e-07 -1.0
vn 1.0359821800420832e-07 -5.58462375011004e-07 -1.0
vn 1.4595725872368348e-07 -6.136291972325125e-07 -1.0
vn 1.3030540912950528e-07 -7.431916060340882e-07 -1.0
vn 1.2321117992541986e-07 -7.305681606339931e-07 -1.0
vn -3.504435408530071e-09 -5.849946660418937e-07 -1.0
f 77/77/77 106/106/106 112/112/112
f 115/115/115 75/75/75 111/111/111
f 109/109/109 114/114/114 113/113/113
f 113/113/113 110/110/110 109/109/109
f 77/77/77 112/112/112 111/111/111
f 111/111/111 75/75/75 77/77/77
f 92/92/92 91/91/91 109/109/109
f 109/109/109 110/110/110 92/92/92
f 107/107/107 108/108/108 76/76/76
f 76/76/76 104/104/104 107/107/107
f 77/77/77 105/105/105 106/106/106
f 104/104/104 76/76/76 71/71/71
f 71/71/71 85/85/85 104/104/104
f 74/74/74 103/103/103 102/102/102
f 102/102/102 99/99/99 74/74/74
f 100/100/100 75/75/75 101/101/101
f 74/74/74 99/99/99 78/78/78
f 78/78/78 69/69/69 74/74/74
f 73/73/73 95/95/95 86/86/86
f 98/98/98 94/94/94 70/70/70
f 90/90/90 93/93/93 96/96/96
f 96/96/96 97/97/97 90/90/90
f 73/73/73 70/70/70 94/94/94
f 94/94/94 95/95/95 73/73/73
f 92/92/92 93/93/93 90/90/90
f 90/90/90 91/91/91 92/92/92
f 89/89/89 84/84/84 72/72/72
f 72/72/72 88/88/88 89/89/89
f 73/73/73 86/86/86 87/87/87
f 84/84/84 85/85/85 71/71/71
f 71/71/71 72/72/72 84/84/84
f 68/68/68 79/79/79 82/82/82
f 82/82/82 83/83/83 68/68/68
f 80/80/80 81/81/81 70/70/70
f 68/68/68 69/69/69 78/78/78
f 78/78/78 79/79/79 68/68/68
f 66/66/66 65/65/65 67/67/67
f 65/65/65 64/64/64 67/67/67
f 64/64/64 63/63/63 67/67/67
f 63/63/63 62/62/62 67/67/67
f 62/62/62 61/61/61 67/67/67
f 61/61/61 60/60/60 67/67/67
f 65/65/65 66/66/66 59/59/59
f 59/59/59 58/58/58 65/65/65
f 64/64/64 65/65/65 58/58/58
f 58/58/58 57/57/57 64/64/64
f 63/63/63 64/64/64 57/57/57
f 57/57/57 56/56/56 63/63/63
f 62/62/62 63/63/63 56/56/56
f 56/56/56 55/55/55 62/62/62
f 61/61/61 62/62/62 55/55/55
f 55/55/55 54/54/54 61/61/61
f 60/60/60 61/61/61 54/54/54
f 54/54/54 53/53/53 60/60/60
f 58/58/58 59/59/59 52/52/52
f 52/52/52 51/51/51 58/58/58
f 57/57/57 58/58/58 51/51/51
f 51/51/51 50/50/50 57/57/57
f 56/56/56 57/57/57 50/50/50
f 50/50/50 49/49/49 56/56/56
f 55/55/55 56/56/56 49/49/49
f 49/49/49 48/48/48 55/55/55
f 54/54/54 55/55/55 48/48/48
f 48/48/48 47/47/47 54/54/54
f 53/53/53 54/54/54 47/47/47
f 47/47/47 46/46/46 53/53/53
f 51/51/51 52/52/52 45/45/45
f 45/45/45 44/44/44 51/51/51
f 50/50/50 51/51/51 44/44/44
f 44/44/44 43/43/43 50/50/50
f 49/49/49 50/50/50 43/43/43
f 43/43/43 42/42/42 49/49/49
f 48/48/48 49/49/49 42/42/42
f 42/42/42 41/41/41 48/48/48
f 47/47/47 48/48/48 41/41/41
f 41/41/41 40/40/40 47/47/47
f 46/46/46 47/47/47 40/40/40
f 40/40/40 39/39/39 46/46/46
f 44/44/44 45/45/45 37/37/37
f 37/37/37 35/35/35 44/44/44
f 43/43/43 44/44/44 35/35/35
f 35/35/35 33/33/33 43/43/43
f 42/42/42 43/43/43 33/33/33
f 33/33/33 31/31/31 42/42/42
f 41/41/41 42/42/42 31/31/31
f 31/31/31 29/29/29 41/41/41
f 40/40/40 41/41/41 29/29/29
f 29/29/29 27/27/27 40/40/40
f 39/39/39 40/40/40 27/27/27
f 27/27/27 26/26/26 39/39/39
f 24/24/24 23/23/23 36/36/36
f 36/36/36 38/38/38 24/24/24
f 23/23/23 22/22/22 34/34/34
f 34/34/34 36/36/36 23/23/23
f 22/22/22 21/21/21 32/32/32
f 32/32/32 34/34/34 22/22/22
f 21/21/21 20/20/20 30/30/30
f 30/30/30 32/32/32 21/21/21
f 20/20/20 19/19/19 28/28/28
f 28/28/28 30/30/30 20/20/20
f 19/19/19 18/18/18 25/25/25
f 25/25/25 28/28/28 19/19/19
f 36/36/36 35/35/35 37/37/37
f 37/37/37 38/38/38 36/36/36
f 34/34/34 33/33/33 35/35/35
f 35/35/35 36/36/36 34/34/34
f 32/32/32 31/31/31 33/33/33
f 33/33/33 34/34/34 32/32/32
f 30/30/30 29/29/29 31/31/31
f 31/31/31 32/32/32 30/30/30
f 28/28/28 27/27/27 29/29/29
f 29/29/29 30/30/30 28/28/28
f 25/25/25 26/26/26 27/27/27
f 27/27/27 28/28/28 25/25/25
f 17/17/17 16/16/16 23/23/23
f 23/23/23 24/24/24 17/17/17
f 16/16/16 15/15/15 22/22/22
f 22/22/22 23/23/23 16/16/16
f 15/15/15 14/14/14 21/21/21
f 21/21/21 22/22/22 15/15/15
f 14/14/14 13/13/13 20/20/20
f 20/20/20 21/21/21 14/14/14
f 13/13/13 12/12/12 19/19/19
f 19/19/19 20/20/20 13/13/13
f 12/12/12 11/11/11 18/18/18
f 18/18/18 19/19/19 12/12/12
f 10/10/10 16/16/16 17/17/17
f 10/10/10 15/15/15 16/16/16
f 10/10/10 14/14/14 15/15/15
f 10/10/10 13/13/13 14/14/14
f 10/10/10 12/12/12 13/13/13
f 10/10/10 11/11/11 12/12/12
f 2/2/2 8/8/8 7/7/7
f 2/2/2 7/7/7 6/6/6
f 9/9/9 5/5/5 1/1/1
f 3/3/3 9/9/9 1/1/1
f 9/9/9 7/7/7 8/8/8
f 8/8/8 5/5/5 9/9/9
f 3/3/3 6/6/6 7/7/7
f 7/7/7 9/9/9 3/3/3
f 4/4/4 1/1/1 5/5/5
f 3/3/3 1/1/1 4/4/4
f 4/4/4 5/5/5 8/8/8
f 8/8/8 2/2/2 4/4/4
f 3/3/3 4/4/4 2/2/2
f 2/2/2 6/6/6 3/3/3
