# Recovered local-space geometry; original node transforms not applied
o mesh_0
v 18.179237365722656 -1.0015757083892822 0.1331518590450287
v 56.88154602050781 7.340261459350586 5.056400775909424
v 37.10009765625 8.8746337890625 0.05756300687789917
v 40.98175048828125 0.45555874705314636 7.874619960784912
v 41.667381286621094 -7.732911109924316 -0.357070654630661
v 48.97206115722656 14.459846496582031 -1.9976835250854492
v 52.524871826171875 7.075780391693115 -12.035440444946289
v 57.181602478027344 -1.5259408950805664 -3.8917953968048096
v 39.10472869873047 0.20995360612869263 -8.64749813079834
v 39.14854431152344 15.468273162841797 -0.01676236093044281
v 39.14854431152344 13.395913124084473 7.7173638343811035
v 39.14854431152344 7.734132766723633 13.379144668579102
v 39.14854431152344 3.243111859774217e-05 15.451502799987793
v 39.14854431152344 -7.734142780303955 13.379148483276367
v 39.14854431152344 -13.395928382873535 7.717368125915527
v 39.14854431152344 -15.468284606933594 -0.0167667418718338
v 35.7335205078125 31.962093353271484 -0.0167657732963562
v 35.7335205078125 27.67998504638672 15.964276313781738
v 35.7335205078125 15.981043815612793 27.663217544555664
v 35.73351287841797 3.543319689924829e-05 31.945327758789062
v 35.7335205078125 -15.981047630310059 27.663219451904297
v 35.7335205078125 -27.679996490478516 15.96428394317627
v 23.155733108520508 43.990623474121094 -0.01676907390356064
v 4.374032020568848 47.9875373840332 -0.016769371926784515
v 4.37402868270874 41.55841827392578 23.97699737548828
v 23.155729293823242 38.09699630737305 21.978540420532227
v 4.374029636383057 23.993770599365234 41.54164505004883
v 23.155729293823242 21.995311737060547 38.080223083496094
v 4.374028205871582 3.930362072424032e-05 47.970767974853516
v 23.155729293823242 3.776052108150907e-05 43.973854064941406
v 4.374029636383057 -23.993764877319336 41.541664123535156
v 23.155729293823242 -21.99530792236328 38.080230712890625
v 4.374028205871582 -41.558433532714844 23.977005004882812
v 23.155729293823242 -38.097007751464844 21.978557586669922
v -14.861872673034668 43.50323486328125 -0.016768597066402435
v -14.861876487731934 37.67490768432617 21.734840393066406
v -14.8618803024292 21.75161361694336 37.65814208984375
v -14.861881256103516 3.8847909308969975e-05 43.48646545410156
v -14.861881256103516 -21.751617431640625 37.658145904541016
v -14.861876487731934 -37.67491912841797 21.734851837158203
v -14.861873626708984 -43.50324249267578 -0.016759876161813736
v -36.19517517089844 30.586212158203125 -0.01676470786333084
v -36.19517517089844 26.48843002319336 15.27632999420166
v -36.19517517089844 15.29310131072998 26.471662521362305
v -36.19517517089844 3.941943941754289e-05 30.569442749023438
v -36.19517517089844 -15.293109893798828 26.471664428710938
v -36.19517517089844 -26.488445281982422 15.276335716247559
v -36.19517517089844 -30.586223602294922 -0.01676463708281517
v -43.15178680419922 19.170446395874023 -0.016762126237154007
v -43.15178680419922 16.602083206176758 9.56844711303711
v -43.15178680419922 9.585216522216797 16.58531379699707
v -43.15179443359375 3.878198185702786e-05 19.15367317199707
v -43.15178680419922 -9.585233688354492 16.58531951904297
v -43.15178680419922 -16.60210418701172 9.568449020385742
v -43.15178680419922 -19.170459747314453 -0.016766566783189774
v -43.379295349121094 9.271170616149902 -0.01676126942038536
v -43.37928771972656 8.029056549072266 4.618807315826416
v -43.37928771972656 4.635576248168945 8.012288093566895
v -43.379295349121094 3.319519601063803e-05 9.254388809204102
v -43.37928771972656 -4.6356000900268555 8.012289047241211
v -43.37928771972656 -8.029077529907227 4.618810176849365
v -43.379295349121094 -9.2711820602417 -0.01676778495311737
v 33.49589538574219 -5.734547812608071e-06 -0.016764577478170395
v 39.14854431152344 -13.395923614501953 -7.7508955001831055
v 39.14854431152344 -7.734142303466797 -13.412674903869629
v 39.14854431152344 -4.152437759330496e-05 -15.485031127929688
v 39.14854431152344 7.734133720397949 -13.412675857543945
v 39.14854431152344 13.395917892456055 -7.750895977020264
v 35.7335205078125 -31.96210479736328 -0.016764186322689056
v 35.7335205078125 -27.679994583129883 -15.997808456420898
v 35.7335205078125 -15.981051445007324 -27.696748733520508
v 35.73351287841797 -4.204640572424978e-05 -31.97885513305664
v 35.7335205078125 15.981040954589844 -27.696746826171875
v 35.7335205078125 27.67998504638672 -15.997808456420898
v 23.155733108520508 -43.990631103515625 -0.016760315746068954
v 4.374032974243164 -47.987548828125 -0.016759246587753296
v 4.374028205871582 -41.55842208862305 -24.01053237915039
v 23.155729293823242 -38.09700393676758 -22.012075424194336
v 4.374029636383057 -23.9937744140625 -41.57517623901367
v 23.155729293823242 -21.995317459106445 -38.11375427246094
v 4.37402868270874 -4.3431096855783835e-05 -48.004295349121094
v 23.155729293823242 -4.216021261527203e-05 -44.007381439208984
v 4.374029636383057 23.99376106262207 -41.57518768310547
v 23.155729293823242 21.995302200317383 -38.11375427246094
v 4.374028205871582 41.55842590332031 -24.010528564453125
v 23.155729293823242 38.09700012207031 -22.012081146240234
v -14.861876487731934 -37.6749153137207 -21.768375396728516
v -14.861879348754883 -21.751617431640625 -37.691673278808594
v -14.861881256103516 -4.337296195444651e-05 -43.51999282836914
v -14.861881256103516 21.751611709594727 -37.69166946411133
v -14.861876487731934 37.67491149902344 -21.768375396728516
v -36.19517517089844 -26.488439559936523 -15.30986213684082
v -36.19517517089844 -15.293107986450195 -26.50519371032715
v -36.19517517089844 -4.6342531277332455e-05 -30.602968215942383
v -36.19517517089844 15.293102264404297 -26.505191802978516
v -36.19517517089844 26.48843765258789 -15.309859275817871
v -43.15178680419922 -16.602094650268555 -9.601977348327637
v -43.15178680419922 -9.585226058959961 -16.61884307861328
v -43.15179443359375 -4.743830504594371e-05 -19.18720054626465
v -43.15178680419922 9.585224151611328 -16.618846893310547
v -43.15178680419922 16.602094650268555 -9.601974487304688
v -43.37928771972656 -8.029067993164062 -4.652337551116943
v -43.37928771972656 -4.635586261749268 -8.045817375183105
v -43.379295349121094 -4.324294059188105e-05 -9.287917137145996
v -43.37928771972656 4.635589599609375 -8.045816421508789
v -43.37928771972656 8.029067039489746 -4.652338027954102
v -39.70574951171875 -5.677747594745597e-06 -0.016764458268880844
v 56.88154602050781 7.340261459350586 5.056400775909424
v 48.97206115722656 14.459846496582031 -1.9976835250854492
v 52.524871826171875 7.075780391693115 -12.035440444946289
v 56.88154602050781 7.340261459350586 5.056400775909424
v 52.524871826171875 7.075780391693115 -12.035440444946289
v 57.181602478027344 -1.5259408950805664 -3.8917953968048096
v 4.37402868270874 41.55841827392578 23.97699737548828
v 4.374032020568848 47.9875373840332 -0.016769371926784515
v 4.374029636383057 23.993770599365234 41.54164505004883
v -14.861876487731934 37.67490768432617 21.734840393066406
v 4.37402868270874 41.55841827392578 23.97699737548828
v 4.374028205871582 3.930362072424032e-05 47.970767974853516
v -14.8618803024292 21.75161361694336 37.65814208984375
v 4.374029636383057 23.993770599365234 41.54164505004883
v 4.374029636383057 -23.993764877319336 41.541664123535156
v -14.861881256103516 3.8847909308969975e-05 43.48646545410156
v 4.374028205871582 3.930362072424032e-05 47.970767974853516
v 4.374028205871582 -41.558433532714844 23.977005004882812
v -14.861881256103516 -21.751617431640625 37.658145904541016
v 4.374029636383057 -23.993764877319336 41.541664123535156
v 4.374032974243164 -47.987548828125 -0.016759246587753296
v -14.861876487731934 -37.67491912841797 21.734851837158203
v 4.374028205871582 -41.558433532714844 23.977005004882812
v -14.861876487731934 37.67490768432617 21.734840393066406
v -14.861872673034668 43.50323486328125 -0.016768597066402435
v -14.8618803024292 21.75161361694336 37.65814208984375
v -36.19517517089844 26.48843002319336 15.27632999420166
v -14.861876487731934 37.67490768432617 21.734840393066406
v -14.861881256103516 3.8847909308969975e-05 43.48646545410156
v -36.19517517089844 15.29310131072998 26.471662521362305
v -14.8618803024292 21.75161361694336 37.65814208984375
v -14.861881256103516 -21.751617431640625 37.658145904541016
v -36.19517517089844 3.941943941754289e-05 30.569442749023438
v -14.861881256103516 3.8847909308969975e-05 43.48646545410156
v -14.861876487731934 -37.67491912841797 21.734851837158203
v -36.19517517089844 -15.293109893798828 26.471664428710938
v -14.861881256103516 -21.751617431640625 37.658145904541016
v -14.861873626708984 -43.50324249267578 -0.016759876161813736
v -36.19517517089844 -26.488445281982422 15.276335716247559
v -14.861876487731934 -37.67491912841797 21.734851837158203
v -36.19517517089844 26.48843002319336 15.27632999420166
v -36.19517517089844 30.586212158203125 -0.01676470786333084
v -36.19517517089844 15.29310131072998 26.471662521362305
v -43.15178680419922 16.602083206176758 9.56844711303711
v -36.19517517089844 26.48843002319336 15.27632999420166
v -36.19517517089844 3.941943941754289e-05 30.569442749023438
v -43.15178680419922 9.585216522216797 16.58531379699707
v -36.19517517089844 15.29310131072998 26.471662521362305
v -36.19517517089844 -15.293109893798828 26.471664428710938
v -43.15179443359375 3.878198185702786e-05 19.15367317199707
v -36.19517517089844 3.941943941754289e-05 30.569442749023438
v -36.19517517089844 -26.488445281982422 15.276335716247559
v -43.15178680419922 -9.585233688354492 16.58531951904297
v -36.19517517089844 -15.293109893798828 26.471664428710938
v -36.19517517089844 -30.586223602294922 -0.01676463708281517
v -43.15178680419922 -16.60210418701172 9.568449020385742
v -36.19517517089844 -26.488445281982422 15.276335716247559
v -43.15178680419922 16.602083206176758 9.56844711303711
v -43.15178680419922 19.170446395874023 -0.016762126237154007
v -43.15178680419922 9.585216522216797 16.58531379699707
v -43.37928771972656 8.029056549072266 4.618807315826416
v -43.15178680419922 16.602083206176758 9.56844711303711
v -43.15179443359375 3.878198185702786e-05 19.15367317199707
v -43.37928771972656 4.635576248168945 8.012288093566895
v -43.15178680419922 9.585216522216797 16.58531379699707
v -43.15178680419922 -9.585233688354492 16.58531951904297
v -43.379295349121094 3.319519601063803e-05 9.254388809204102
v -43.15179443359375 3.878198185702786e-05 19.15367317199707
v -43.15178680419922 -16.60210418701172 9.568449020385742
v -43.37928771972656 -4.6356000900268555 8.012289047241211
v -43.15178680419922 -9.585233688354492 16.58531951904297
v -43.15178680419922 -19.170459747314453 -0.016766566783189774
v -43.37928771972656 -8.029077529907227 4.618810176849365
v -43.15178680419922 -16.60210418701172 9.568449020385742
v -43.37928771972656 8.029056549072266 4.618807315826416
v -43.379295349121094 9.271170616149902 -0.01676126942038536
v -43.37928771972656 4.635576248168945 8.012288093566895
v -39.70574951171875 -5.677747594745597e-06 -0.016764458268880844
v -43.37928771972656 8.029056549072266 4.618807315826416
v -43.379295349121094 3.319519601063803e-05 9.254388809204102
v -39.70574951171875 -5.677747594745597e-06 -0.016764458268880844
v -43.37928771972656 4.635576248168945 8.012288093566895
v -43.37928771972656 -4.6356000900268555 8.012289047241211
v -39.70574951171875 -5.677747594745597e-06 -0.016764458268880844
v -43.379295349121094 3.319519601063803e-05 9.254388809204102
v -43.37928771972656 -8.029077529907227 4.618810176849365
v -39.70574951171875 -5.677747594745597e-06 -0.016764458268880844
v -43.37928771972656 -4.6356000900268555 8.012289047241211
v -43.379295349121094 -9.2711820602417 -0.01676778495311737
v -39.70574951171875 -5.677747594745597e-06 -0.016764458268880844
v -43.37928771972656 -8.029077529907227 4.618810176849365
v 4.374028205871582 -41.55842208862305 -24.01053237915039
v -14.861873626708984 -43.50324249267578 -0.016759876161813736
v 4.374032974243164 -47.987548828125 -0.016759246587753296
v 4.374029636383057 -23.9937744140625 -41.57517623901367
v -14.861876487731934 -37.6749153137207 -21.768375396728516
v 4.374028205871582 -41.55842208862305 -24.01053237915039
v 4.37402868270874 -4.3431096855783835e-05 -48.004295349121094
v -14.861879348754883 -21.751617431640625 -37.691673278808594
v 4.374029636383057 -23.9937744140625 -41.57517623901367
v 4.374029636383057 23.99376106262207 -41.57518768310547
v -14.861881256103516 -4.337296195444651e-05 -43.51999282836914
v 4.37402868270874 -4.3431096855783835e-05 -48.004295349121094
v 4.374028205871582 41.55842590332031 -24.010528564453125
v -14.861881256103516 21.751611709594727 -37.69166946411133
v 4.374029636383057 23.99376106262207 -41.57518768310547
v 4.374032020568848 47.9875373840332 -0.016769371926784515
v -14.861872673034668 43.50323486328125 -0.016768597066402435
v -14.861876487731934 37.67491149902344 -21.768375396728516
v 4.374028205871582 41.55842590332031 -24.010528564453125
v -14.861876487731934 -37.6749153137207 -21.768375396728516
v -36.19517517089844 -30.586223602294922 -0.01676463708281517
v -14.861873626708984 -43.50324249267578 -0.016759876161813736
v -14.861879348754883 -21.751617431640625 -37.691673278808594
v -36.19517517089844 -26.488439559936523 -15.30986213684082
v -14.861876487731934 -37.6749153137207 -21.768375396728516
v -14.861881256103516 -4.337296195444651e-05 -43.51999282836914
v -36.19517517089844 -15.293107986450195 -26.50519371032715
v -14.861879348754883 -21.751617431640625 -37.691673278808594
v -14.861881256103516 21.751611709594727 -37.69166946411133
v -36.19517517089844 -4.6342531277332455e-05 -30.602968215942383
v -14.861881256103516 -4.337296195444651e-05 -43.51999282836914
v -14.861876487731934 37.67491149902344 -21.768375396728516
v -36.19517517089844 15.293102264404297 -26.505191802978516
v -14.861881256103516 21.751611709594727 -37.69166946411133
v -14.861872673034668 43.50323486328125 -0.016768597066402435
v -36.19517517089844 30.586212158203125 -0.01676470786333084
v -36.19517517089844 26.48843765258789 -15.309859275817871
v -14.861876487731934 37.67491149902344 -21.768375396728516
v -36.19517517089844 -26.488439559936523 -15.30986213684082
v -43.15178680419922 -19.170459747314453 -0.016766566783189774
v -36.19517517089844 -30.586223602294922 -0.01676463708281517
v -36.19517517089844 -15.293107986450195 -26.50519371032715
v -43.15178680419922 -16.602094650268555 -9.601977348327637
v -36.19517517089844 -26.488439559936523 -15.30986213684082
v -36.19517517089844 -4.6342531277332455e-05 -30.602968215942383
v -43.15178680419922 -9.585226058959961 -16.61884307861328
v -36.19517517089844 -15.293107986450195 -26.50519371032715
v -36.19517517089844 15.293102264404297 -26.505191802978516
v -43.15179443359375 -4.743830504594371e-05 -19.18720054626465
v -36.19517517089844 -4.6342531277332455e-05 -30.602968215942383
v -36.19517517089844 26.48843765258789 -15.309859275817871
v -43.15178680419922 9.585224151611328 -16.618846893310547
v -36.19517517089844 15.293102264404297 -26.505191802978516
v -36.19517517089844 30.586212158203125 -0.01676470786333084
v -43.15178680419922 19.170446395874023 -0.016762126237154007
v -43.15178680419922 16.602094650268555 -9.601974487304688
v -36.19517517089844 26.48843765258789 -15.309859275817871
v -43.15178680419922 -16.602094650268555 -9.601977348327637
v -43.379295349121094 -9.2711820602417 -0.01676778495311737
v -43.15178680419922 -19.170459747314453 -0.016766566783189774
v -43.15178680419922 -9.585226058959961 -16.61884307861328
v -43.37928771972656 -8.029067993164062 -4.652337551116943
v -43.15178680419922 -16.602094650268555 -9.601977348327637
v -43.15179443359375 -4.743830504594371e-05 -19.18720054626465
v -43.37928771972656 -4.635586261749268 -8.045817375183105
v -43.15178680419922 -9.585226058959961 -16.61884307861328
v -43.15178680419922 9.585224151611328 -16.618846893310547
v -43.379295349121094 -4.324294059188105e-05 -9.287917137145996
v -43.15179443359375 -4.743830504594371e-05 -19.18720054626465
v -43.15178680419922 16.602094650268555 -9.601974487304688
v -43.37928771972656 4.635589599609375 -8.045816421508789
v -43.15178680419922 9.585224151611328 -16.618846893310547
v -43.15178680419922 19.170446395874023 -0.016762126237154007
v -43.379295349121094 9.271170616149902 -0.01676126942038536
v -43.37928771972656 8.029067039489746 -4.652338027954102
v -43.15178680419922 16.602094650268555 -9.601974487304688
v -43.37928771972656 -8.029067993164062 -4.652337551116943
v -39.70574951171875 -5.677747594745597e-06 -0.016764458268880844
v -43.379295349121094 -9.2711820602417 -0.01676778495311737
v -43.37928771972656 -4.635586261749268 -8.045817375183105
v -39.70574951171875 -5.677747594745597e-06 -0.016764458268880844
v -43.37928771972656 -8.029067993164062 -4.652337551116943
v -43.379295349121094 -4.324294059188105e-05 -9.287917137145996
v -39.70574951171875 -5.677747594745597e-06 -0.016764458268880844
v -43.37928771972656 -4.635586261749268 -8.045817375183105
v -43.37928771972656 4.635589599609375 -8.045816421508789
v -39.70574951171875 -5.677747594745597e-06 -0.016764458268880844
v -43.379295349121094 -4.324294059188105e-05 -9.287917137145996
v -43.37928771972656 8.029067039489746 -4.652338027954102
v -39.70574951171875 -5.677747594745597e-06 -0.016764458268880844
v -43.37928771972656 4.635589599609375 -8.045816421508789
v -43.379295349121094 9.271170616149902 -0.01676126942038536
v -39.70574951171875 -5.677747594745597e-06 -0.016764458268880844
v -43.37928771972656 8.029067039489746 -4.652338027954102
vt 0.46387141942977905 0.6096558570861816
vt 0.4638708233833313 0.6085909605026245
vt 0.4638025760650635 0.6091232299804688
vt 0.46387118101119995 0.6091234087944031
vt 0.46393972635269165 0.6091232299804688
vt 0.4637337327003479 0.6085906028747559
vt 0.4638708233833313 0.6085909605026245
vt 0.46400803327560425 0.6085906028747559
vt 0.46387118101119995 0.6091234087944031
vt 0.4606296420097351 0.6090072393417358
vt 0.4609590172767639 0.6091548800468445
vt 0.46133047342300415 0.6091833114624023
vt 0.46165353059768677 0.6091833114624023
vt 0.4620090126991272 0.6091833114624023
vt 0.4623569846153259 0.6091606616973877
vt 0.4627014994621277 0.6090315580368042
vt 0.4599992036819458 0.6093543171882629
vt 0.4604939818382263 0.6095414161682129
vt 0.46104151010513306 0.6095743179321289
vt 0.46165376901626587 0.6095743179321289
vt 0.4622804522514343 0.6095743179321289
vt 0.46291834115982056 0.6095524430274963
vt 0.4596827030181885 0.6098923683166504
vt 0.45960068702697754 0.610734224319458
vt 0.4601801037788391 0.6107684373855591
vt 0.46024322509765625 0.6099551320075989
vt 0.4608035683631897 0.6107958555221558
vt 0.4608721137046814 0.6100465655326843
vt 0.46165376901626587 0.6107958555221558
vt 0.46165376901626587 0.6100465655326843
vt 0.4625193476676941 0.6107958555221558
vt 0.4624508023262024 0.6100465655326843
vt 0.46318626403808594 0.6107338666915894
vt 0.4631560444831848 0.6099952459335327
vt 0.45968955755233765 0.6116535067558289
vt 0.46027904748916626 0.6115350127220154
vt 0.46088653802871704 0.6114436388015747
vt 0.4616628885269165 0.6114436388015747
vt 0.46242719888687134 0.6114892959594727
vt 0.4630908966064453 0.6116126775741577
vt 0.46371620893478394 0.6117220520973206
vt 0.4601389765739441 0.6124204397201538
vt 0.4605463147163391 0.6122506260871887
vt 0.46104615926742554 0.6121611595153809
vt 0.4616392254829407 0.6121222972869873
vt 0.462258517742157 0.6121534109115601
vt 0.4627228379249573 0.6122981905937195
vt 0.4631264805793762 0.6124981641769409
vt 0.46053940057754517 0.6128017902374268
vt 0.46077603101730347 0.6126164197921753
vt 0.4611693024635315 0.6125314235687256
vt 0.4616538882255554 0.6125076413154602
vt 0.46217232942581177 0.6125314235687256
vt 0.46252715587615967 0.6126402616500854
vt 0.46275562047958374 0.6128136515617371
vt 0.4611802101135254 0.6131169199943542
vt 0.4613083004951477 0.6130260825157166
vt 0.46145403385162354 0.6129775047302246
vt 0.46165376901626587 0.6129775047302246
vt 0.4618688225746155 0.6129775047302246
vt 0.4619964361190796 0.6130139231681824
vt 0.4621388912200928 0.6131229996681213
vt 0.46170902252197266 0.6084756255149841
vt 0.4623569846153259 0.6091606616973877
vt 0.4620090126991272 0.6091833114624023
vt 0.46165353059768677 0.6091833114624023
vt 0.46133047342300415 0.6091833114624023
vt 0.4609590172767639 0.6091548800468445
vt 0.4633393883705139 0.6094005703926086
vt 0.46291834115982056 0.6095525026321411
vt 0.4622804522514343 0.6095743179321289
vt 0.46165376901626587 0.6095743179321289
vt 0.46104151010513306 0.6095743179321289
vt 0.4604939818382263 0.6095414161682129
vt 0.46368294954299927 0.6098896265029907
vt 0.4637807011604309 0.610734224319458
vt 0.46318626403808594 0.6107335090637207
vt 0.4631560444831848 0.6099952459335327
vt 0.4625193476676941 0.6107958555221558
vt 0.4624508023262024 0.6100465655326843
vt 0.46165376901626587 0.6107958555221558
vt 0.46165376901626587 0.6100465655326843
vt 0.4608035683631897 0.6107958555221558
vt 0.4608721137046814 0.6100465655326843
vt 0.4601801037788391 0.6107684373855591
vt 0.46024322509765625 0.6099551320075989
vt 0.4630908966064453 0.6116126775741577
vt 0.46242719888687134 0.6114892959594727
vt 0.4616628885269165 0.6114436388015747
vt 0.46088653802871704 0.6114436388015747
vt 0.46027904748916626 0.6115350127220154
vt 0.4627228379249573 0.6122981905937195
vt 0.462258517742157 0.6121534109115601
vt 0.4616392254829407 0.6121222972869873
vt 0.46104615926742554 0.6121611595153809
vt 0.4605463147163391 0.6122506260871887
vt 0.46252715587615967 0.6126402616500854
vt 0.46217232942581177 0.6125314235687256
vt 0.4616538882255554 0.6125076413154602
vt 0.4611693024635315 0.6125314235687256
vt 0.46077603101730347 0.6126164197921753
vt 0.4619964361190796 0.6130139231681824
vt 0.4618688225746155 0.6129775047302246
vt 0.46165376901626587 0.6129775047302246
vt 0.46145403385162354 0.6129775047302246
vt 0.4613083004951477 0.6130260825157166
vt 0.46165400743484497 0.6132855415344238
vt 0.4638708233833313 0.6085909605026245
vt 0.4637337327003479 0.6085906028747559
vt 0.4638708233833313 0.6085909605026245
vt 0.4638708233833313 0.6085909605026245
vt 0.4638708233833313 0.6085909605026245
vt 0.46400803327560425 0.6085906028747559
vt 0.4601801037788391 0.6107684373855591
vt 0.45960068702697754 0.610734224319458
vt 0.4608035683631897 0.6107958555221558
vt 0.46027904748916626 0.6115350127220154
vt 0.4601801037788391 0.6107684373855591
vt 0.46165376901626587 0.6107958555221558
vt 0.46088653802871704 0.6114436388015747
vt 0.4608035683631897 0.6107958555221558
vt 0.4625193476676941 0.6107958555221558
vt 0.4616628885269165 0.6114436388015747
vt 0.46165376901626587 0.6107958555221558
vt 0.46318626403808594 0.6107338666915894
vt 0.46242719888687134 0.6114892959594727
vt 0.4625193476676941 0.6107958555221558
vt 0.4637807011604309 0.610734224319458
vt 0.4630908966064453 0.6116126775741577
vt 0.46318626403808594 0.6107338666915894
vt 0.46027904748916626 0.6115350127220154
vt 0.45968955755233765 0.6116535067558289
vt 0.46088653802871704 0.6114436388015747
vt 0.4605463147163391 0.6122506260871887
vt 0.46027904748916626 0.6115350127220154
vt 0.4616628885269165 0.6114436388015747
vt 0.46104615926742554 0.6121611595153809
vt 0.46088653802871704 0.6114436388015747
vt 0.46242719888687134 0.6114892959594727
vt 0.4616392254829407 0.6121222972869873
vt 0.4616628885269165 0.6114436388015747
vt 0.4630908966064453 0.6116126775741577
vt 0.462258517742157 0.6121534109115601
vt 0.46242719888687134 0.6114892959594727
vt 0.46371620893478394 0.6117220520973206
vt 0.4627228379249573 0.6122981905937195
vt 0.4630908966064453 0.6116126775741577
vt 0.4605463147163391 0.6122506260871887
vt 0.4601389765739441 0.6124204397201538
vt 0.46104615926742554 0.6121611595153809
vt 0.46077603101730347 0.6126164197921753
vt 0.4605463147163391 0.6122506260871887
vt 0.4616392254829407 0.6121222972869873
vt 0.4611693024635315 0.6125314235687256
vt 0.46104615926742554 0.6121611595153809
vt 0.462258517742157 0.6121534109115601
vt 0.4616538882255554 0.6125076413154602
vt 0.4616392254829407 0.6121222972869873
vt 0.4627228379249573 0.6122981905937195
vt 0.46217232942581177 0.6125314235687256
vt 0.462258517742157 0.6121534109115601
vt 0.4631264805793762 0.6124981641769409
vt 0.46252715587615967 0.6126402616500854
vt 0.4627228379249573 0.6122981905937195
vt 0.46077603101730347 0.6126164197921753
vt 0.46053940057754517 0.6128017902374268
vt 0.4611693024635315 0.6125314235687256
vt 0.4613083004951477 0.6130260825157166
vt 0.46077603101730347 0.6126164197921753
vt 0.4616538882255554 0.6125076413154602
vt 0.46145403385162354 0.6129775047302246
vt 0.4611693024635315 0.6125314235687256
vt 0.46217232942581177 0.6125314235687256
vt 0.46165376901626587 0.6129775047302246
vt 0.4616538882255554 0.6125076413154602
vt 0.46252715587615967 0.6126402616500854
vt 0.4618688225746155 0.6129775047302246
vt 0.46217232942581177 0.6125314235687256
vt 0.46275562047958374 0.6128136515617371
vt 0.4619964361190796 0.6130139231681824
vt 0.46252715587615967 0.6126402616500854
vt 0.4613083004951477 0.6130260825157166
vt 0.4611802101135254 0.6131169199943542
vt 0.46145403385162354 0.6129775047302246
vt 0.46165400743484497 0.6132855415344238
vt 0.4613083004951477 0.6130260825157166
vt 0.46165376901626587 0.6129775047302246
vt 0.46165400743484497 0.6132855415344238
vt 0.46145403385162354 0.6129775047302246
vt 0.4618688225746155 0.6129775047302246
vt 0.46165400743484497 0.6132855415344238
vt 0.46165376901626587 0.6129775047302246
vt 0.4619964361190796 0.6130139231681824
vt 0.46165400743484497 0.6132855415344238
vt 0.4618688225746155 0.6129775047302246
vt 0.4621388912200928 0.6131229996681213
vt 0.46165400743484497 0.6132855415344238
vt 0.4619964361190796 0.6130139231681824
vt 0.46318626403808594 0.6107335090637207
vt 0.46371620893478394 0.6117220520973206
vt 0.4637807011604309 0.610734224319458
vt 0.4625193476676941 0.6107958555221558
vt 0.4630908966064453 0.6116126775741577
vt 0.46318626403808594 0.6107335090637207
vt 0.46165376901626587 0.6107958555221558
vt 0.46242719888687134 0.6114892959594727
vt 0.4625193476676941 0.6107958555221558
vt 0.4608035683631897 0.6107958555221558
vt 0.4616628885269165 0.6114436388015747
vt 0.46165376901626587 0.6107958555221558
vt 0.4601801037788391 0.6107684373855591
vt 0.46088653802871704 0.6114436388015747
vt 0.4608035683631897 0.6107958555221558
vt 0.45960068702697754 0.610734224319458
vt 0.45968955755233765 0.6116535067558289
vt 0.46027904748916626 0.6115350127220154
vt 0.4601801037788391 0.6107684373855591
vt 0.4630908966064453 0.6116126775741577
vt 0.4631264805793762 0.6124981641769409
vt 0.46371620893478394 0.6117220520973206
vt 0.46242719888687134 0.6114892959594727
vt 0.4627228379249573 0.6122981905937195
vt 0.4630908966064453 0.6116126775741577
vt 0.4616628885269165 0.6114436388015747
vt 0.462258517742157 0.6121534109115601
vt 0.46242719888687134 0.6114892959594727
vt 0.46088653802871704 0.6114436388015747
vt 0.4616392254829407 0.6121222972869873
vt 0.4616628885269165 0.6114436388015747
vt 0.46027904748916626 0.6115350127220154
vt 0.46104615926742554 0.6121611595153809
vt 0.46088653802871704 0.6114436388015747
vt 0.45968955755233765 0.6116535067558289
vt 0.4601389765739441 0.6124204397201538
vt 0.4605463147163391 0.6122506260871887
vt 0.46027904748916626 0.6115350127220154
vt 0.4627228379249573 0.6122981905937195
vt 0.46275562047958374 0.6128136515617371
vt 0.4631264805793762 0.6124981641769409
vt 0.462258517742157 0.6121534109115601
vt 0.46252715587615967 0.6126402616500854
vt 0.4627228379249573 0.6122981905937195
vt 0.4616392254829407 0.6121222972869873
vt 0.46217232942581177 0.6125314235687256
vt 0.462258517742157 0.6121534109115601
vt 0.46104615926742554 0.6121611595153809
vt 0.4616538882255554 0.6125076413154602
vt 0.4616392254829407 0.6121222972869873
vt 0.4605463147163391 0.6122506260871887
vt 0.4611693024635315 0.6125314235687256
vt 0.46104615926742554 0.6121611595153809
vt 0.4601389765739441 0.6124204397201538
vt 0.46053940057754517 0.6128017902374268
vt 0.46077603101730347 0.6126164197921753
vt 0.4605463147163391 0.6122506260871887
vt 0.46252715587615967 0.6126402616500854
vt 0.4621388912200928 0.6131229996681213
vt 0.46275562047958374 0.6128136515617371
vt 0.46217232942581177 0.6125314235687256
vt 0.4619964361190796 0.6130139231681824
vt 0.46252715587615967 0.6126402616500854
vt 0.4616538882255554 0.6125076413154602
vt 0.4618688225746155 0.6129775047302246
vt 0.46217232942581177 0.6125314235687256
vt 0.4611693024635315 0.6125314235687256
vt 0.46165376901626587 0.6129775047302246
vt 0.4616538882255554 0.6125076413154602
vt 0.46077603101730347 0.6126164197921753
vt 0.46145403385162354 0.6129775047302246
vt 0.4611693024635315 0.6125314235687256
vt 0.46053940057754517 0.6128017902374268
vt 0.4611802101135254 0.6131169199943542
vt 0.4613083004951477 0.6130260825157166
vt 0.46077603101730347 0.6126164197921753
vt 0.4619964361190796 0.6130139231681824
vt 0.46165400743484497 0.6132855415344238
vt 0.4621388912200928 0.6131229996681213
vt 0.4618688225746155 0.6129775047302246
vt 0.46165400743484497 0.6132855415344238
vt 0.4619964361190796 0.6130139231681824
vt 0.46165376901626587 0.6129775047302246
vt 0.46165400743484497 0.6132855415344238
vt 0.4618688225746155 0.6129775047302246
vt 0.46145403385162354 0.6129775047302246
vt 0.46165400743484497 0.6132855415344238
vt 0.46165376901626587 0.6129775047302246
vt 0.4613083004951477 0.6130260825157166
vt 0.46165400743484497 0.6132855415344238
vt 0.46145403385162354 0.6129775047302246
vt 0.4611802101135254 0.6131169199943542
vt 0.46165400743484497 0.6132855415344238
vt 0.4613083004951477 0.6130260825157166
vn 0.9695037007331848 0.22293759882450104 -0.1017911285161972
vn -0.045431192964315414 -0.26320287585258484 -0.9636701941490173
vn 0.4388880431652069 -0.8956971168518066 -0.07144210487604141
vn -0.04807218164205551 0.2136278748512268 -0.9757317304611206
vn -0.039664775133132935 0.9992120265960693 -0.0014257637085393071
vn 0.40774857997894287 -0.9066283106803894 -0.10847216844558716
vn 0.32779988646507263 -0.25862330198287964 0.908659040927887
vn -0.37334680557250977 0.9262506365776062 0.05169060081243515
vn 0.20832490921020508 0.23862536251544952 0.9485033750534058
vn -0.9998103976249695 0.015865987166762352 0.011289858259260654
vn -0.9998103976249695 0.00809547584503889 0.017710348591208458
vn -0.9998103976249695 -0.001844187150709331 0.019385365769267082
vn -0.9998103976249695 -0.01128969807177782 0.015865972265601158
vn -0.9998103976249695 -0.017710361629724503 0.008095422759652138
vn -0.9998103976249695 -0.0193853210657835 -0.0018442582804709673
vn -0.9998103976249695 -0.015865998342633247 -0.011289858259260654
vn -0.8757423758506775 -0.4821847081184387 0.023946097120642662
vn -0.8757423162460327 -0.4295573830604553 -0.22035446763038635
vn -0.8757422566413879 -0.2618304491043091 -0.4056113362312317
vn -0.8757421374320984 -0.023946480825543404 -0.4821849465370178
vn -0.8757421970367432 0.2203540802001953 -0.42955753207206726
vn -0.8757422566413879 0.4056110084056854 -0.26183050870895386
vn -0.4678339958190918 -0.8803120255470276 -0.07862642407417297
vn -0.20735806226730347 -0.9743863940238953 0.08702860027551651
vn -0.20735789835453033 -0.8873575925827026 -0.41182422637939453
vn -0.4678339660167694 -0.7230594754219055 -0.508248507976532
vn -0.20735788345336914 -0.5625624060630798 -0.8003288507461548
vn -0.4678339958190918 -0.3720640242099762 -0.8016856908798218
vn -0.20735804736614227 -0.08702939003705978 -0.9743863344192505
vn -0.46783411502838135 0.07862571626901627 -0.8803121447563171
vn -0.20735827088356018 0.41182368993759155 -0.887357771396637
vn -0.4678339958190918 0.508247971534729 -0.7230597138404846
vn -0.20735791325569153 0.8003287315368652 -0.5625625848770142
vn -0.4678340256214142 0.801685631275177 -0.37206384539604187
vn 0.2196771800518036 -0.9423307776451111 -0.2524968087673187
vn 0.2196771800518036 -0.9423307776451111 -0.2524968087673187
vn 0.21967707574367523 -0.6898341774940491 -0.6898338794708252
vn 0.21967746317386627 -0.25249701738357544 -0.9423306584358215
vn 0.21967729926109314 0.25249600410461426 -0.9423309564590454
vn 0.2196774184703827 0.68983393907547 -0.6898341178894043
vn 0.21967771649360657 0.9423307180404663 -0.2524965703487396
vn 0.5048510432243347 -0.8337932825088501 -0.22341476380825043
vn 0.5048510432243347 -0.8337932825088501 -0.22341476380825043
vn 0.5048510432243347 -0.6103792786598206 -0.6103790998458862
vn 0.5048507452011108 -0.22341516613960266 -0.8337934017181396
vn 0.5048511028289795 0.2234138399362564 -0.8337935209274292
vn 0.5048508644104004 0.6103790402412415 -0.6103793978691101
vn 0.5048505663871765 0.8337936401367188 -0.2234145849943161
vn 0.8457545042037964 -0.5153911113739014 -0.1380990594625473
vn 0.8457545042037964 -0.5153911113739014 -0.1380990594625473
vn 0.8457545638084412 -0.3772926330566406 -0.3772926330566406
vn 0.8457542657852173 -0.13810007274150848 -0.5153914093971252
vn 0.8457545042037964 0.13809867203235626 -0.5153912305831909
vn 0.8457543253898621 0.3772924840450287 -0.3772929608821869
vn 0.8457544445991516 0.5153912901878357 -0.1380985826253891
vn 0.999717116355896 -0.022974610328674316 -0.006156935356557369
vn 0.999717116355896 -0.022974610328674316 -0.006156935356557369
vn 0.9997171759605408 -0.01681891456246376 -0.01681891456246376
vn 0.9997170567512512 -0.006157947238534689 -0.022975433617830276
vn 0.9997171759605408 0.0061576152220368385 -0.022974656894803047
vn 0.9997171759605408 0.01681891828775406 -0.01681891456246376
vn 0.9997170567512512 0.02297583594918251 -0.00615720497444272
vn -1.0 1.0621278079270269e-08 -1.5931917118905403e-08
vn -0.9998103976249695 -0.008095478639006615 -0.017710357904434204
vn -0.9998103976249695 0.0018441933207213879 -0.01938537135720253
vn -0.9998103976249695 0.011289699003100395 -0.015865972265601158
vn -0.9998103976249695 0.017710376530885696 -0.00809542927891016
vn -0.9998103976249695 0.019385313615202904 0.0018442583968862891
vn -0.8757423162460327 0.48218482732772827 -0.02394607849419117
vn -0.8757423162460327 0.42955735325813293 0.22035448253154755
vn -0.8757421970367432 0.26183032989501953 0.4056113064289093
vn -0.8757421374320984 0.023946411907672882 0.48218491673469543
vn -0.8757423162460327 -0.22035416960716248 0.4295575022697449
vn -0.8757422566413879 -0.4056110680103302 0.2618304193019867
vn -0.4678340554237366 0.8803119659423828 0.07862648367881775
vn -0.20735815167427063 0.9743862748146057 -0.08702849596738815
vn -0.20735786855220795 0.8873575329780579 0.41182437539100647
vn -0.46783387660980225 0.7230594754219055 0.5082485675811768
vn -0.20735782384872437 0.5625623464584351 0.8003290295600891
vn -0.467833936214447 0.3720638155937195 0.8016856908798218
vn -0.20735801756381989 0.08702921122312546 0.9743862748146057
vn -0.46783408522605896 -0.07862585037946701 0.8803120255470276
vn -0.20735830068588257 -0.4118237793445587 0.8873577117919922
vn -0.4678340256214142 -0.5082480311393738 0.7230596542358398
vn -0.2073579877614975 -0.8003288507461548 0.5625625252723694
vn -0.4678340554237366 -0.8016855716705322 0.37206387519836426
vn 0.21967698633670807 0.9423308372497559 0.25249671936035156
vn 0.21967713534832 0.6898340582847595 0.6898340582847595
vn 0.21967746317386627 0.2524968981742859 0.9423307180404663
vn 0.21967735886573792 -0.2524961829185486 0.9423310160636902
vn 0.2196774035692215 -0.68983393907547 0.6898340582847595
vn 0.5048509836196899 0.8337933421134949 0.2234148532152176
vn 0.5048510432243347 0.6103792190551758 0.6103792190551758
vn 0.5048508048057556 0.22341488301753998 0.8337934017181396
vn 0.5048510432243347 -0.22341378033161163 0.8337936997413635
vn 0.5048509240150452 -0.610379159450531 0.6103792786598206
vn 0.8457544445991516 0.5153911709785461 0.13809911906719208
vn 0.8457545638084412 0.37729254364967346 0.3772926926612854
vn 0.8457541465759277 0.13809996843338013 0.51539146900177
vn 0.8457543253898621 -0.13809843361377716 0.5153915882110596
vn 0.8457545042037964 -0.3772927522659302 0.377292662858963
vn 0.999717116355896 0.022974610328674316 0.006156934425234795
vn 0.9997171759605408 0.016818910837173462 0.016818920150399208
vn 0.9997170567512512 0.006157942581921816 0.022975435480475426
vn 0.999717116355896 -0.006157516036182642 0.022974267601966858
vn 0.9997171759605408 -0.016818920150399208 0.01681891269981861
vn 0.9251835942268372 0.36658787727355957 0.09822753071784973
vn -0.7481521368026733 -0.6325126886367798 0.20048995316028595
vn -0.7481521368026733 -0.6325126886367798 0.20048995316028595
vn -0.7481521368026733 -0.6325126886367798 0.20048995316028595
vn -0.9305749535560608 -0.27518609166145325 0.24145983159542084
vn -0.9305749535560608 -0.27518609166145325 0.24145983159542084
vn -0.9305749535560608 -0.27518609166145325 0.24145983159542084
vn 0.2196771800518036 -0.9423307776451111 -0.2524968087673187
vn 0.21967749297618866 -0.9423306584358215 -0.25249701738357544
vn 0.21967707574367523 -0.6898341774940491 -0.6898338794708252
vn 0.21967707574367523 -0.6898341774940491 -0.6898338794708252
vn 0.2196774035692215 -0.6898339986801147 -0.6898339986801147
vn 0.21967746317386627 -0.25249701738357544 -0.9423306584358215
vn 0.21967746317386627 -0.25249701738357544 -0.9423306584358215
vn 0.21967679262161255 -0.2524976134300232 -0.9423306584358215
vn 0.21967729926109314 0.25249600410461426 -0.9423309564590454
vn 0.21967729926109314 0.25249600410461426 -0.9423309564590454
vn 0.21967752277851105 0.2524961531162262 -0.9423308968544006
vn 0.2196774184703827 0.68983393907547 -0.6898341178894043
vn 0.2196774184703827 0.68983393907547 -0.6898341178894043
vn 0.21967726945877075 0.6898338198661804 -0.6898341774940491
vn 0.21967771649360657 0.9423307180404663 -0.2524965703487396
vn 0.21967771649360657 0.9423307180404663 -0.2524965703487396
vn 0.21967731416225433 0.9423307180404663 -0.2524969279766083
vn 0.5048510432243347 -0.8337932825088501 -0.22341476380825043
vn 0.5048506855964661 -0.8337937593460083 -0.223414346575737
vn 0.5048510432243347 -0.6103792786598206 -0.6103790998458862
vn 0.5048510432243347 -0.6103792786598206 -0.6103790998458862
vn 0.5048509240150452 -0.6103793978691101 -0.6103790402412415
vn 0.5048507452011108 -0.22341516613960266 -0.8337934017181396
vn 0.5048507452011108 -0.22341516613960266 -0.8337934017181396
vn 0.5048511028289795 -0.22341451048851013 -0.8337933421134949
vn 0.5048511028289795 0.2234138399362564 -0.8337935209274292
vn 0.5048511028289795 0.2234138399362564 -0.8337935209274292
vn 0.5048509240150452 0.2234136164188385 -0.8337936997413635
vn 0.5048508644104004 0.6103790402412415 -0.6103793978691101
vn 0.5048508644104004 0.6103790402412415 -0.6103793978691101
vn 0.5048510432243347 0.610379159450531 -0.6103792786598206
vn 0.5048505663871765 0.8337936401367188 -0.2234145849943161
vn 0.5048505663871765 0.8337936401367188 -0.2234145849943161
vn 0.5048508644104004 0.833793580532074 -0.2234141230583191
vn 0.8457545042037964 -0.5153911113739014 -0.1380990594625473
vn 0.8457545042037964 -0.5153912901878357 -0.13809901475906372
vn 0.8457545638084412 -0.3772926330566406 -0.3772926330566406
vn 0.8457545638084412 -0.3772926330566406 -0.3772926330566406
vn 0.8457545042037964 -0.3772927522659302 -0.3772926330566406
vn 0.8457542657852173 -0.13810007274150848 -0.5153914093971252
vn 0.8457542657852173 -0.13810007274150848 -0.5153914093971252
vn 0.8457545638084412 -0.13809914886951447 -0.5153909921646118
vn 0.8457545042037964 0.13809867203235626 -0.5153912305831909
vn 0.8457545042037964 0.13809867203235626 -0.5153912305831909
vn 0.8457543253898621 0.13809844851493835 -0.5153915286064148
vn 0.8457543253898621 0.3772924840450287 -0.3772929608821869
vn 0.8457543253898621 0.3772924840450287 -0.3772929608821869
vn 0.8457544445991516 0.3772925138473511 -0.3772927522659302
vn 0.8457544445991516 0.5153912901878357 -0.1380985826253891
vn 0.8457544445991516 0.5153912901878357 -0.1380985826253891
vn 0.8457543253898621 0.5153914093971252 -0.13809886574745178
vn 0.999717116355896 -0.022974610328674316 -0.006156935356557369
vn 0.9997170567512512 -0.02297583967447281 -0.006155993789434433
vn 0.9997171759605408 -0.01681891456246376 -0.01681891456246376
vn 0.9997171759605408 -0.01681891456246376 -0.01681891456246376
vn 0.9997171759605408 -0.01681891456246376 -0.01681891456246376
vn 0.9997170567512512 -0.006157947238534689 -0.022975433617830276
vn 0.9997170567512512 -0.006157947238534689 -0.022975433617830276
vn 0.999717116355896 -0.006156533490866423 -0.02297484315931797
vn 0.9997171759605408 0.0061576152220368385 -0.022974656894803047
vn 0.9997171759605408 0.0061576152220368385 -0.022974656894803047
vn 0.9997170567512512 0.006157015450298786 -0.022975435480475426
vn 0.9997171759605408 0.01681891828775406 -0.01681891456246376
vn 0.9997171759605408 0.01681891828775406 -0.01681891456246376
vn 0.9997171759605408 0.016818854957818985 -0.01681939698755741
vn 0.9997170567512512 0.02297583594918251 -0.00615720497444272
vn 0.9997170567512512 0.02297583594918251 -0.00615720497444272
vn 0.9997171759605408 0.0229752566665411 -0.006155815906822681
vn 0.9251835942268372 0.36658787727355957 0.09822753071784973
vn 0.9251835942268372 0.36658787727355957 0.09822753071784973
vn 0.9251835346221924 0.2683611512184143 0.26836124062538147
vn 0.9251835346221924 0.2683611512184143 0.26836124062538147
vn 0.9251835346221924 0.2683611512184143 0.26836124062538147
vn 0.9251834750175476 0.09822648018598557 0.3665887117385864
vn 0.9251834750175476 0.09822648018598557 0.3665887117385864
vn 0.9251834750175476 0.09822648018598557 0.3665887117385864
vn 0.9251832962036133 -0.09822472929954529 0.3665894567966461
vn 0.9251832962036133 -0.09822472929954529 0.3665894567966461
vn 0.9251832962036133 -0.09822472929954529 0.3665894567966461
vn 0.9251836538314819 -0.26836097240448 0.2683609426021576
vn 0.9251836538314819 -0.26836097240448 0.2683609426021576
vn 0.9251836538314819 -0.26836097240448 0.2683609426021576
vn 0.9251837730407715 -0.36658793687820435 0.0982266291975975
vn 0.9251837730407715 -0.36658793687820435 0.0982266291975975
vn 0.9251837730407715 -0.36658793687820435 0.0982266291975975
vn 0.21967698633670807 0.9423308372497559 0.25249671936035156
vn 0.21967698633670807 0.9423308372497559 0.25249671936035156
vn 0.2196776419878006 0.942330539226532 0.25249725580215454
vn 0.21967713534832 0.6898340582847595 0.6898340582847595
vn 0.21967713534832 0.6898340582847595 0.6898340582847595
vn 0.21967726945877075 0.68983393907547 0.6898340582847595
vn 0.21967746317386627 0.2524968981742859 0.9423307180404663
vn 0.21967746317386627 0.2524968981742859 0.9423307180404663
vn 0.21967683732509613 0.25249752402305603 0.9423307776451111
vn 0.21967735886573792 -0.2524961829185486 0.9423310160636902
vn 0.21967735886573792 -0.2524961829185486 0.9423310160636902
vn 0.21967749297618866 -0.25249630212783813 0.9423308372497559
vn 0.2196774035692215 -0.68983393907547 0.6898340582847595
vn 0.2196774035692215 -0.68983393907547 0.6898340582847595
vn 0.21967735886573792 -0.68983393907547 0.6898341178894043
vn 0.21967753767967224 -0.9423307776451111 0.252496600151062
vn 0.21967753767967224 -0.9423307776451111 0.252496600151062
vn 0.21967753767967224 -0.9423307776451111 0.252496600151062
vn 0.21967732906341553 -0.9423308372497559 0.2524968683719635
vn 0.5048509836196899 0.8337933421134949 0.2234148532152176
vn 0.5048509836196899 0.8337933421134949 0.2234148532152176
vn 0.5048506259918213 0.8337938189506531 0.22341428697109222
vn 0.5048510432243347 0.6103792190551758 0.6103792190551758
vn 0.5048510432243347 0.6103792190551758 0.6103792190551758
vn 0.5048508644104004 0.6103792786598206 0.610379159450531
vn 0.5048508048057556 0.22341488301753998 0.8337934017181396
vn 0.5048508048057556 0.22341488301753998 0.8337934017181396
vn 0.5048510432243347 0.22341443598270416 0.8337934017181396
vn 0.5048510432243347 -0.22341378033161163 0.8337936997413635
vn 0.5048510432243347 -0.22341378033161163 0.8337936997413635
vn 0.5048510432243347 -0.22341376543045044 0.8337936997413635
vn 0.5048509240150452 -0.610379159450531 0.6103792786598206
vn 0.5048509240150452 -0.610379159450531 0.6103792786598206
vn 0.5048509836196899 -0.6103792190551758 0.6103792786598206
vn 0.5048506259918213 -0.8337936401367188 0.22341445088386536
vn 0.5048506259918213 -0.8337936401367188 0.22341445088386536
vn 0.5048506259918213 -0.8337936401367188 0.22341445088386536
vn 0.5048508644104004 -0.833793580532074 0.2234141230583191
vn 0.8457544445991516 0.5153911709785461 0.13809911906719208
vn 0.8457544445991516 0.5153911709785461 0.13809911906719208
vn 0.8457543849945068 0.5153912901878357 0.1380990445613861
vn 0.8457545638084412 0.37729254364967346 0.3772926926612854
vn 0.8457545638084412 0.37729254364967346 0.3772926926612854
vn 0.8457545042037964 0.3772926926612854 0.3772926926612854
vn 0.8457541465759277 0.13809996843338013 0.51539146900177
vn 0.8457541465759277 0.13809996843338013 0.51539146900177
vn 0.8457545638084412 0.13809898495674133 0.5153910517692566
vn 0.8457543253898621 -0.13809843361377716 0.5153915882110596
vn 0.8457543253898621 -0.13809843361377716 0.5153915882110596
vn 0.8457543253898621 -0.13809840381145477 0.5153915882110596
vn 0.8457545042037964 -0.3772927522659302 0.377292662858963
vn 0.8457545042037964 -0.3772927522659302 0.377292662858963
vn 0.8457543253898621 -0.3772927224636078 0.37729281187057495
vn 0.8457545042037964 -0.5153912305831909 0.13809840381145477
vn 0.8457545042037964 -0.5153912305831909 0.13809840381145477
vn 0.8457545042037964 -0.5153912305831909 0.13809840381145477
vn 0.8457543849945068 -0.5153914093971252 0.1380987912416458
vn 0.999717116355896 0.022974610328674316 0.006156934425234795
vn 0.999717116355896 0.022974610328674316 0.006156934425234795
vn 0.9997170567512512 0.02297583594918251 0.006155995652079582
vn 0.9997171759605408 0.016818910837173462 0.016818920150399208
vn 0.9997171759605408 0.016818910837173462 0.016818920150399208
vn 0.9997171759605408 0.01681891269981861 0.01681891828775406
vn 0.9997170567512512 0.006157942581921816 0.022975435480475426
vn 0.9997170567512512 0.006157942581921816 0.022975435480475426
vn 0.999717116355896 0.006156529299914837 0.02297484502196312
vn 0.999717116355896 -0.006157516036182642 0.022974267601966858
vn 0.999717116355896 -0.006157516036182642 0.022974267601966858
vn 0.9997171759605408 -0.006156620569527149 0.022975441068410873
vn 0.9997171759605408 -0.016818920150399208 0.01681891269981861
vn 0.9997171759605408 -0.016818920150399208 0.01681891269981861
vn 0.9997171759605408 -0.016818920150399208 0.01681891456246376
vn 0.9997170567512512 -0.02297583967447281 0.006157203111797571
vn 0.9997170567512512 -0.02297583967447281 0.006157203111797571
vn 0.9997170567512512 -0.02297583967447281 0.006157203111797571
vn 0.9997171759605408 -0.022975260391831398 0.006155808921903372
vn 0.9251835942268372 -0.36658787727355957 -0.09822750836610794
vn 0.9251835942268372 -0.36658787727355957 -0.09822750836610794
vn 0.9251835942268372 -0.36658787727355957 -0.09822750836610794
vn 0.9251835942268372 -0.2683612108230591 -0.26836130023002625
vn 0.9251835942268372 -0.2683612108230591 -0.26836130023002625
vn 0.9251835942268372 -0.2683612108230591 -0.26836130023002625
vn 0.9251834750175476 -0.09822644293308258 -0.3665887415409088
vn 0.9251834750175476 -0.09822644293308258 -0.3665887415409088
vn 0.9251834750175476 -0.09822644293308258 -0.3665887415409088
vn 0.9251832962036133 0.09822481125593185 -0.36658942699432373
vn 0.9251832962036133 0.09822481125593185 -0.36658942699432373
vn 0.9251832962036133 0.09822481125593185 -0.36658942699432373
vn 0.9251836538314819 0.26836103200912476 -0.2683608829975128
vn 0.9251836538314819 0.26836103200912476 -0.2683608829975128
vn 0.9251836538314819 0.26836103200912476 -0.2683608829975128
vn 0.9251837730407715 0.36658796668052673 -0.09822656959295273
vn 0.9251837730407715 0.36658796668052673 -0.09822656959295273
vn 0.9251837730407715 0.36658796668052673 -0.09822656959295273
f 290/290/290 291/291/291 292/292/292
f 287/287/287 288/288/288 289/289/289
f 284/284/284 285/285/285 286/286/286
f 281/281/281 282/282/282 283/283/283
f 278/278/278 279/279/279 280/280/280
f 275/275/275 276/276/276 277/277/277
f 273/273/273 274/274/274 271/271/271
f 271/271/271 272/272/272 273/273/273
f 269/269/269 270/270/270 268/268/268
f 268/268/268 106/106/106 269/269/269
f 266/266/266 267/267/267 265/265/265
f 265/265/265 105/105/105 266/266/266
f 263/263/263 264/264/264 262/262/262
f 262/262/262 104/104/104 263/263/263
f 260/260/260 261/261/261 259/259/259
f 259/259/259 103/103/103 260/260/260
f 257/257/257 258/258/258 256/256/256
f 256/256/256 102/102/102 257/257/257
f 254/254/254 255/255/255 252/252/252
f 252/252/252 253/253/253 254/254/254
f 250/250/250 251/251/251 249/249/249
f 249/249/249 101/101/101 250/250/250
f 247/247/247 248/248/248 246/246/246
f 246/246/246 100/100/100 247/247/247
f 244/244/244 245/245/245 243/243/243
f 243/243/243 99/99/99 244/244/244
f 241/241/241 242/242/242 240/240/240
f 240/240/240 98/98/98 241/241/241
f 238/238/238 239/239/239 237/237/237
f 237/237/237 97/97/97 238/238/238
f 235/235/235 236/236/236 233/233/233
f 233/233/233 234/234/234 235/235/235
f 231/231/231 232/232/232 230/230/230
f 230/230/230 96/96/96 231/231/231
f 228/228/228 229/229/229 227/227/227
f 227/227/227 95/95/95 228/228/228
f 225/225/225 226/226/226 224/224/224
f 224/224/224 94/94/94 225/225/225
f 222/222/222 223/223/223 221/221/221
f 221/221/221 93/93/93 222/222/222
f 219/219/219 220/220/220 218/218/218
f 218/218/218 92/92/92 219/219/219
f 216/216/216 217/217/217 214/214/214
f 214/214/214 215/215/215 216/216/216
f 212/212/212 213/213/213 211/211/211
f 211/211/211 91/91/91 212/212/212
f 209/209/209 210/210/210 208/208/208
f 208/208/208 90/90/90 209/209/209
f 206/206/206 207/207/207 205/205/205
f 205/205/205 89/89/89 206/206/206
f 203/203/203 204/204/204 202/202/202
f 202/202/202 88/88/88 203/203/203
f 200/200/200 201/201/201 199/199/199
f 199/199/199 87/87/87 200/200/200
f 17/17/17 23/23/23 86/86/86
f 86/86/86 74/74/74 17/17/17
f 74/74/74 86/86/86 84/84/84
f 84/84/84 73/73/73 74/74/74
f 73/73/73 84/84/84 82/82/82
f 82/82/82 72/72/72 73/73/73
f 72/72/72 82/82/82 80/80/80
f 80/80/80 71/71/71 72/72/72
f 71/71/71 80/80/80 78/78/78
f 78/78/78 70/70/70 71/71/71
f 70/70/70 78/78/78 75/75/75
f 75/75/75 69/69/69 70/70/70
f 86/86/86 23/23/23 24/24/24
f 24/24/24 85/85/85 86/86/86
f 84/84/84 86/86/86 85/85/85
f 85/85/85 83/83/83 84/84/84
f 82/82/82 84/84/84 83/83/83
f 83/83/83 81/81/81 82/82/82
f 80/80/80 82/82/82 81/81/81
f 81/81/81 79/79/79 80/80/80
f 78/78/78 80/80/80 79/79/79
f 79/79/79 77/77/77 78/78/78
f 75/75/75 78/78/78 77/77/77
f 77/77/77 76/76/76 75/75/75
f 10/10/10 17/17/17 74/74/74
f 74/74/74 68/68/68 10/10/10
f 68/68/68 74/74/74 73/73/73
f 73/73/73 67/67/67 68/68/68
f 67/67/67 73/73/73 72/72/72
f 72/72/72 66/66/66 67/67/67
f 66/66/66 72/72/72 71/71/71
f 71/71/71 65/65/65 66/66/66
f 65/65/65 71/71/71 70/70/70
f 70/70/70 64/64/64 65/65/65
f 64/64/64 70/70/70 69/69/69
f 69/69/69 16/16/16 64/64/64
f 63/63/63 10/10/10 68/68/68
f 63/63/63 68/68/68 67/67/67
f 63/63/63 67/67/67 66/66/66
f 63/63/63 66/66/66 65/65/65
f 63/63/63 65/65/65 64/64/64
f 63/63/63 64/64/64 16/16/16
f 196/196/196 197/197/197 198/198/198
f 193/193/193 194/194/194 195/195/195
f 190/190/190 191/191/191 192/192/192
f 187/187/187 188/188/188 189/189/189
f 184/184/184 185/185/185 186/186/186
f 182/182/182 107/107/107 183/183/183
f 180/180/180 181/181/181 179/179/179
f 179/179/179 62/62/62 180/180/180
f 177/177/177 178/178/178 176/176/176
f 176/176/176 61/61/61 177/177/177
f 174/174/174 175/175/175 173/173/173
f 173/173/173 60/60/60 174/174/174
f 171/171/171 172/172/172 170/170/170
f 170/170/170 59/59/59 171/171/171
f 168/168/168 169/169/169 167/167/167
f 167/167/167 58/58/58 168/168/168
f 56/56/56 166/166/166 165/165/165
f 165/165/165 57/57/57 56/56/56
f 163/163/163 164/164/164 162/162/162
f 162/162/162 55/55/55 163/163/163
f 160/160/160 161/161/161 159/159/159
f 159/159/159 54/54/54 160/160/160
f 157/157/157 158/158/158 156/156/156
f 156/156/156 53/53/53 157/157/157
f 154/154/154 155/155/155 153/153/153
f 153/153/153 52/52/52 154/154/154
f 151/151/151 152/152/152 150/150/150
f 150/150/150 51/51/51 151/151/151
f 49/49/49 149/149/149 148/148/148
f 148/148/148 50/50/50 49/49/49
f 146/146/146 147/147/147 145/145/145
f 145/145/145 48/48/48 146/146/146
f 143/143/143 144/144/144 142/142/142
f 142/142/142 47/47/47 143/143/143
f 140/140/140 141/141/141 139/139/139
f 139/139/139 46/46/46 140/140/140
f 137/137/137 138/138/138 136/136/136
f 136/136/136 45/45/45 137/137/137
f 134/134/134 135/135/135 133/133/133
f 133/133/133 44/44/44 134/134/134
f 42/42/42 132/132/132 131/131/131
f 131/131/131 43/43/43 42/42/42
f 129/129/129 130/130/130 128/128/128
f 128/128/128 41/41/41 129/129/129
f 126/126/126 127/127/127 125/125/125
f 125/125/125 40/40/40 126/126/126
f 123/123/123 124/124/124 122/122/122
f 122/122/122 39/39/39 123/123/123
f 120/120/120 121/121/121 119/119/119
f 119/119/119 38/38/38 120/120/120
f 117/117/117 118/118/118 116/116/116
f 116/116/116 37/37/37 117/117/117
f 35/35/35 115/115/115 114/114/114
f 114/114/114 36/36/36 35/35/35
f 69/69/69 75/75/75 34/34/34
f 34/34/34 22/22/22 69/69/69
f 22/22/22 34/34/34 32/32/32
f 32/32/32 21/21/21 22/22/22
f 21/21/21 32/32/32 30/30/30
f 30/30/30 20/20/20 21/21/21
f 20/20/20 30/30/30 28/28/28
f 28/28/28 19/19/19 20/20/20
f 19/19/19 28/28/28 26/26/26
f 26/26/26 18/18/18 19/19/19
f 18/18/18 26/26/26 23/23/23
f 23/23/23 17/17/17 18/18/18
f 34/34/34 75/75/75 76/76/76
f 76/76/76 33/33/33 34/34/34
f 32/32/32 34/34/34 33/33/33
f 33/33/33 31/31/31 32/32/32
f 30/30/30 32/32/32 31/31/31
f 31/31/31 29/29/29 30/30/30
f 28/28/28 30/30/30 29/29/29
f 29/29/29 27/27/27 28/28/28
f 26/26/26 28/28/28 27/27/27
f 27/27/27 25/25/25 26/26/26
f 23/23/23 26/26/26 25/25/25
f 25/25/25 24/24/24 23/23/23
f 16/16/16 69/69/69 22/22/22
f 22/22/22 15/15/15 16/16/16
f 15/15/15 22/22/22 21/21/21
f 21/21/21 14/14/14 15/15/15
f 14/14/14 21/21/21 20/20/20
f 20/20/20 13/13/13 14/14/14
f 13/13/13 20/20/20 19/19/19
f 19/19/19 12/12/12 13/13/13
f 12/12/12 19/19/19 18/18/18
f 18/18/18 11/11/11 12/12/12
f 11/11/11 18/18/18 17/17/17
f 17/17/17 10/10/10 11/11/11
f 63/63/63 16/16/16 15/15/15
f 63/63/63 15/15/15 14/14/14
f 63/63/63 14/14/14 13/13/13
f 63/63/63 13/13/13 12/12/12
f 63/63/63 12/12/12 11/11/11
f 63/63/63 11/11/11 10/10/10
f 111/111/111 112/112/112 113/113/113
f 108/108/108 109/109/109 110/110/110
f 9/9/9 1/1/1 5/5/5
f 3/3/3 1/1/1 9/9/9
f 9/9/9 5/5/5 8/8/8
f 8/8/8 7/7/7 9/9/9
f 3/3/3 9/9/9 7/7/7
f 7/7/7 6/6/6 3/3/3
f 4/4/4 5/5/5 1/1/1
f 3/3/3 4/4/4 1/1/1
f 4/4/4 2/2/2 8/8/8
f 8/8/8 5/5/5 4/4/4
f 3/3/3 6/6/6 2/2/2
f 2/2/2 4/4/4 3/3/3
