# Recovered local-space geometry; original node transforms not applied
o mesh_0
v 27.495895385742188 -5.7220458984375e-06 -0.01676630973815918
v 35.34083557128906 -15.66660213470459 -0.01676464080810547
v 35.34083557128906 -13.567673683166504 -7.85005521774292
v 35.34083557128906 -7.8333024978637695 -13.58442497253418
v 35.34083557128906 -4.172325134277344e-05 -15.683349609375
v 35.34083557128906 7.8332929611206055 -13.58442497253418
v 35.34083557128906 13.567667007446289 -7.85005521774292
v 35.34083557128906 15.666592597961426 -0.016757965087890625
v 30.588577270507812 -33.9036979675293 -0.01676401123404503
v 30.588577270507812 -29.361467361450195 -16.968605041503906
v 30.588577270507812 -16.95184898376465 -29.378219604492188
v 30.58856964111328 -4.645558146876283e-05 -33.92045211791992
v 30.588577270507812 16.951839447021484 -29.37821388244629
v 30.588577270507812 29.36145782470703 -16.968605041503906
v 30.588577270507812 33.90369415283203 -0.01676149293780327
v 20.457244873046875 -38.63169860839844 -0.016760587692260742
v 4.4507904052734375 -44.759605407714844 -0.01675891876220703
v 4.450786590576172 -38.762943267822266 -21.01077651977539
v 20.457242965698242 -33.456031799316406 -19.33260726928711
v 4.450786590576172 -22.37980079650879 -36.379451751708984
v 20.457242965698242 -19.31584930419922 -33.472782135009766
v 4.450786590576172 -4.246043317834847e-05 -42.00478744506836
v 20.45724105834961 -3.981590270996094e-05 -38.6484489440918
v 4.450786590576172 22.379789352416992 -36.379459381103516
v 20.457242965698242 19.315837860107422 -33.472782135009766
v 4.450786590576172 38.762943267822266 -21.010772705078125
v 20.457242965698242 33.45602798461914 -19.332611083984375
v 4.4507904052734375 44.75959396362305 -0.016763925552368164
v 20.457244873046875 38.631690979003906 -0.016763925552368164
v -12.70649242401123 -36.8577995300293 -0.016758345067501068
v -12.706496238708496 -31.91979217529297 -18.445653915405273
v -12.706500053405762 -18.428895950317383 -31.93655014038086
v -12.706500053405762 -4.0199571230914444e-05 -36.874549865722656
v -12.706500053405762 18.428892135620117 -31.936546325683594
v -12.706496238708496 31.919788360595703 -18.445653915405273
v -12.70649242401123 36.857791900634766 -0.016761701554059982
v -32.054473876953125 -28.259119033813477 -0.016759250313043594
v -32.054473876953125 -24.473112106323242 -14.146309852600098
v -32.054473876953125 -14.129554748535156 -24.489864349365234
v -32.054473876953125 -4.628941314877011e-05 -28.275863647460938
v -32.054473876953125 14.12955379486084 -24.489858627319336
v -32.054473876953125 24.473108291625977 -14.146306991577148
v -32.054473876953125 28.259111404418945 -0.016756810247898102
v -37.444374084472656 -17.319652557373047 -0.016759037971496582
v -37.444374084472656 -14.999255180358887 -8.676576614379883
v -37.444374084472656 -8.659823417663574 -15.016006469726562
v -37.44438171386719 -4.458427429199219e-05 -17.33639907836914
v -37.444374084472656 8.659822463989258 -15.016006469726562
v -37.444374084472656 14.99925422668457 -8.67657470703125
v -37.444374084472656 17.31964874267578 -0.0167543888092041
v -37.44438171386719 -10.152545928955078 -0.016762852668762207
v -37.444374084472656 -8.792357444763184 -5.093021869659424
v -37.444374084472656 -5.076268196105957 -8.80910873413086
v -37.44438171386719 -4.5299530029296875e-05 -10.169288635253906
v -37.444374084472656 5.076269626617432 -8.809106826782227
v -37.444374084472656 8.792356491088867 -5.093020439147949
v -37.444374084472656 10.15254020690918 -0.016752958297729492
v -33.81651306152344 -2.1115938579896465e-05 -0.016757838428020477
v 13.585914611816406 15.845834732055664 -0.01675558090209961
v 14.788028717041016 -5.4836273193359375e-06 -0.016765475273132324
v 7.686412811279297 30.836244583129883 -0.01676023006439209
v -19.108701705932617 3.440579166635871e-05 -0.01676807552576065
v -18.76175880432129 13.603901863098145 -0.016753826290369034
v -16.0520076751709 25.478008270263672 -0.016759037971496582
v 13.585914611816406 -15.84584903717041 -0.01677262783050537
v 7.686412811279297 -30.836254119873047 -0.01676487922668457
v -18.76175880432129 -13.603911399841309 -0.016769926995038986
v -16.0520076751709 -25.47801971435547 -0.016762975603342056
v 4.450786590576172 -38.762943267822266 -21.01077651977539
v 4.4507904052734375 -44.759605407714844 -0.01675891876220703
v -12.70649242401123 -36.8577995300293 -0.016758345067501068
v 4.450786590576172 -38.762943267822266 -21.01077651977539
v 4.450786590576172 -22.37980079650879 -36.379451751708984
v 4.450786590576172 -38.762943267822266 -21.01077651977539
v -12.706496238708496 -31.91979217529297 -18.445653915405273
v -12.706496238708496 -31.91979217529297 -18.445653915405273
v 4.450786590576172 -22.37980079650879 -36.379451751708984
v 4.450786590576172 -4.246043317834847e-05 -42.00478744506836
v 4.450786590576172 -22.37980079650879 -36.379451751708984
v -12.706500053405762 -18.428895950317383 -31.93655014038086
v -12.706500053405762 -18.428895950317383 -31.93655014038086
v 4.450786590576172 -4.246043317834847e-05 -42.00478744506836
v 4.450786590576172 22.379789352416992 -36.379459381103516
v 4.450786590576172 -4.246043317834847e-05 -42.00478744506836
v -12.706500053405762 -4.0199571230914444e-05 -36.874549865722656
v -12.706500053405762 -4.0199571230914444e-05 -36.874549865722656
v 4.450786590576172 22.379789352416992 -36.379459381103516
v 4.450786590576172 38.762943267822266 -21.010772705078125
v 4.450786590576172 22.379789352416992 -36.379459381103516
v -12.706500053405762 18.428892135620117 -31.936546325683594
v -12.706500053405762 18.428892135620117 -31.936546325683594
v 4.450786590576172 38.762943267822266 -21.010772705078125
v 4.4507904052734375 44.75959396362305 -0.016763925552368164
v 4.450786590576172 38.762943267822266 -21.010772705078125
v -12.706496238708496 31.919788360595703 -18.445653915405273
v -12.706496238708496 31.919788360595703 -18.445653915405273
v 4.4507904052734375 44.75959396362305 -0.016763925552368164
v -12.706496238708496 -31.91979217529297 -18.445653915405273
v -12.70649242401123 -36.8577995300293 -0.016758345067501068
v -12.706500053405762 -18.428895950317383 -31.93655014038086
v -12.706496238708496 -31.91979217529297 -18.445653915405273
v -32.054473876953125 -24.473112106323242 -14.146309852600098
v -12.706500053405762 -4.0199571230914444e-05 -36.874549865722656
v -12.706500053405762 -18.428895950317383 -31.93655014038086
v -32.054473876953125 -14.129554748535156 -24.489864349365234
v -12.706500053405762 18.428892135620117 -31.936546325683594
v -12.706500053405762 -4.0199571230914444e-05 -36.874549865722656
v -32.054473876953125 -4.628941314877011e-05 -28.275863647460938
v -12.706496238708496 31.919788360595703 -18.445653915405273
v -12.706500053405762 18.428892135620117 -31.936546325683594
v -32.054473876953125 14.12955379486084 -24.489858627319336
v -12.70649242401123 36.857791900634766 -0.016761701554059982
v -12.706496238708496 31.919788360595703 -18.445653915405273
v -32.054473876953125 24.473108291625977 -14.146306991577148
v -32.054473876953125 -24.473112106323242 -14.146309852600098
v -32.054473876953125 -28.259119033813477 -0.016759250313043594
v -32.054473876953125 -14.129554748535156 -24.489864349365234
v -32.054473876953125 -24.473112106323242 -14.146309852600098
v -37.444374084472656 -14.999255180358887 -8.676576614379883
v -32.054473876953125 -4.628941314877011e-05 -28.275863647460938
v -32.054473876953125 -14.129554748535156 -24.489864349365234
v -37.444374084472656 -8.659823417663574 -15.016006469726562
v -32.054473876953125 14.12955379486084 -24.489858627319336
v -32.054473876953125 -4.628941314877011e-05 -28.275863647460938
v -37.44438171386719 -4.458427429199219e-05 -17.33639907836914
v -32.054473876953125 24.473108291625977 -14.146306991577148
v -32.054473876953125 14.12955379486084 -24.489858627319336
v -37.444374084472656 8.659822463989258 -15.016006469726562
v -32.054473876953125 28.259111404418945 -0.016756810247898102
v -32.054473876953125 24.473108291625977 -14.146306991577148
v -37.444374084472656 14.99925422668457 -8.67657470703125
v -37.444374084472656 -14.999255180358887 -8.676576614379883
v -37.444374084472656 -17.319652557373047 -0.016759037971496582
v -37.444374084472656 -8.659823417663574 -15.016006469726562
v -37.44438171386719 -4.458427429199219e-05 -17.33639907836914
v -37.444374084472656 8.659822463989258 -15.016006469726562
v -37.444374084472656 14.99925422668457 -8.67657470703125
v -37.444374084472656 17.31964874267578 -0.0167543888092041
v -37.444374084472656 -8.792357444763184 -5.093021869659424
v -37.44438171386719 -10.152545928955078 -0.016762852668762207
v -37.444374084472656 -5.076268196105957 -8.80910873413086
v -37.444374084472656 -8.792357444763184 -5.093021869659424
v -33.81651306152344 -2.1115938579896465e-05 -0.016757838428020477
v -37.44438171386719 -4.5299530029296875e-05 -10.169288635253906
v -37.444374084472656 -5.076268196105957 -8.80910873413086
v -33.81651306152344 -2.1115938579896465e-05 -0.016757838428020477
v -37.444374084472656 5.076269626617432 -8.809106826782227
v -37.44438171386719 -4.5299530029296875e-05 -10.169288635253906
v -33.81651306152344 -2.1115938579896465e-05 -0.016757838428020477
v -37.444374084472656 8.792356491088867 -5.093020439147949
v -37.444374084472656 5.076269626617432 -8.809106826782227
v -33.81651306152344 -2.1115938579896465e-05 -0.016757838428020477
v -37.444374084472656 10.15254020690918 -0.016752958297729492
v -37.444374084472656 8.792356491088867 -5.093020439147949
v -33.81651306152344 -2.1115938579896465e-05 -0.016757838428020477
v 27.495895385742188 -5.7220458984375e-06 -0.01676630973815918
v 35.34083557128906 15.666592597961426 -0.016757965087890625
v 30.588577270507812 33.90369415283203 -0.01676149293780327
v 20.457244873046875 38.631690979003906 -0.016763925552368164
v -37.444374084472656 10.15254020690918 -0.016752958297729492
v -33.81651306152344 -2.1115938579896465e-05 -0.016757838428020477
v -32.054473876953125 28.259111404418945 -0.016756810247898102
v -37.444374084472656 17.31964874267578 -0.0167543888092041
v 4.4507904052734375 44.75959396362305 -0.016763925552368164
v -12.70649242401123 36.857791900634766 -0.016761701554059982
v 35.34083557128906 -15.66660213470459 -0.01676464080810547
v 30.588577270507812 -33.9036979675293 -0.01676401123404503
v 20.457244873046875 -38.63169860839844 -0.016760587692260742
v -37.44438171386719 -10.152545928955078 -0.016762852668762207
v -37.444374084472656 -17.319652557373047 -0.016759037971496582
v -32.054473876953125 -28.259119033813477 -0.016759250313043594
v 4.4507904052734375 -44.759605407714844 -0.01675891876220703
v -12.70649242401123 -36.8577995300293 -0.016758345067501068
vt 0.6891976594924927 0.503177285194397
vt 0.7134888172149658 0.5167836546897888
vt 0.7050579190254211 0.5199456810951233
vt 0.6965402960777283 0.5204988718032837
vt 0.6878387331962585 0.5204988718032837
vt 0.6799315214157104 0.5204988718032837
vt 0.6708401441574097 0.5198022127151489
vt 0.6627780795097351 0.5161895155906677
vt 0.7291010618209839 0.5258162617683411
vt 0.7187963724136353 0.5295345783233643
vt 0.7031828761100769 0.5300683975219727
vt 0.6878445148468018 0.5300683975219727
vt 0.6728599071502686 0.5300683975219727
vt 0.6594590544700623 0.5292628407478333
vt 0.647347629070282 0.524684727191925
vt 0.737510621547699 0.537787139415741
vt 0.7399030327796936 0.5584580302238464
vt 0.7253530025482178 0.5584417581558228
vt 0.7246150374412537 0.5403706431388855
vt 0.7090299725532532 0.5599679350852966
vt 0.7073516249656677 0.5416271090507507
vt 0.6878448724746704 0.5599679350852966
vt 0.6878448724746704 0.5416271090507507
vt 0.6670361757278442 0.5599679350852966
vt 0.6687145829200745 0.5416271090507507
vt 0.6517769694328308 0.5592966675758362
vt 0.6533214449882507 0.5393897891044617
vt 0.6375950574874878 0.5584580302238464
vt 0.6396009922027588 0.5378539562225342
vt 0.7383245825767517 0.5826362371444702
vt 0.7230195999145508 0.5799585580825806
vt 0.7067757248878479 0.5769398808479309
vt 0.6880685687065125 0.5758212208747864
vt 0.6690667271614075 0.5758212208747864
vt 0.654197633266449 0.5780584812164307
vt 0.639768660068512 0.5809582471847534
vt 0.7238905429840088 0.601631224155426
vt 0.7140107750892639 0.5967373847961426
vt 0.7026466727256775 0.5931938290596008
vt 0.687488853931427 0.5924331545829773
vt 0.6729720830917358 0.5933845639228821
vt 0.6607390642166138 0.5955742597579956
vt 0.6507681012153625 0.599729597568512
vt 0.7148129343986511 0.6093540191650391
vt 0.7092218399047852 0.605109453201294
vt 0.7005364298820496 0.6024460792541504
vt 0.687847912311554 0.6018643379211426
vt 0.6759883165359497 0.6024460792541504
vt 0.6663604378700256 0.6045275926589966
vt 0.6605713367462158 0.6090630888938904
vt 0.6997194886207581 0.6169256567955017
vt 0.6962318420410156 0.6142564415931702
vt 0.6931100487709045 0.6133643388748169
vt 0.6878448724746704 0.6133643388748169
vt 0.6829561591148376 0.6133643388748169
vt 0.6793882250785828 0.6145539283752441
vt 0.6762545108795166 0.6167770624160767
vt 0.6878499388694763 0.6209043860435486
vt 0.6735770106315613 0.6661496162414551
vt 0.6339961886405945 0.6642353534698486
vt 0.7110220789909363 0.6754655838012695
vt 0.6339960694313049 0.7177621126174927
vt 0.6679768562316895 0.7172302007675171
vt 0.6976375579833984 0.7129511833190918
vt 0.6735780835151672 0.6661336421966553
vt 0.7110230922698975 0.6754496097564697
vt 0.6679778099060059 0.7172142267227173
vt 0.6976386308670044 0.712935209274292
vt 0.7253530025482178 0.5584417581558228
vt 0.7399030327796936 0.5584580302238464
vt 0.7383245825767517 0.5826362371444702
vt 0.7253530025482178 0.5584417581558228
vt 0.7090299725532532 0.5599679350852966
vt 0.7253530025482178 0.5584417581558228
vt 0.7230195999145508 0.5799585580825806
vt 0.7230195999145508 0.5799585580825806
vt 0.7090299725532532 0.5599679350852966
vt 0.6878448724746704 0.5599679350852966
vt 0.7090299725532532 0.5599679350852966
vt 0.7067757248878479 0.5769398808479309
vt 0.7067757248878479 0.5769398808479309
vt 0.6878448724746704 0.5599679350852966
vt 0.6670361757278442 0.5599679350852966
vt 0.6878448724746704 0.5599679350852966
vt 0.6880685687065125 0.5758212208747864
vt 0.6880685687065125 0.5758212208747864
vt 0.6670361757278442 0.5599679350852966
vt 0.6517769694328308 0.5592966675758362
vt 0.6670361757278442 0.5599679350852966
vt 0.6690667271614075 0.5758212208747864
vt 0.6690667271614075 0.5758212208747864
vt 0.6517769694328308 0.5592966675758362
vt 0.6375950574874878 0.5584580302238464
vt 0.6517769694328308 0.5592966675758362
vt 0.654197633266449 0.5780584812164307
vt 0.654197633266449 0.5780584812164307
vt 0.6375950574874878 0.5584580302238464
vt 0.7230195999145508 0.5799585580825806
vt 0.7383245825767517 0.5826362371444702
vt 0.7067757248878479 0.5769398808479309
vt 0.7230195999145508 0.5799585580825806
vt 0.7140107750892639 0.5967373847961426
vt 0.6880685687065125 0.5758212208747864
vt 0.7067757248878479 0.5769398808479309
vt 0.7026466727256775 0.5931938290596008
vt 0.6690667271614075 0.5758212208747864
vt 0.6880685687065125 0.5758212208747864
vt 0.687488853931427 0.5924331545829773
vt 0.654197633266449 0.5780584812164307
vt 0.6690667271614075 0.5758212208747864
vt 0.6729720830917358 0.5933845639228821
vt 0.639768660068512 0.5809582471847534
vt 0.654197633266449 0.5780584812164307
vt 0.6607390642166138 0.5955742597579956
vt 0.7140107750892639 0.5967373847961426
vt 0.7238905429840088 0.601631224155426
vt 0.7026466727256775 0.5931938290596008
vt 0.7140107750892639 0.5967373847961426
vt 0.7092218399047852 0.605109453201294
vt 0.687488853931427 0.5924331545829773
vt 0.7026466727256775 0.5931938290596008
vt 0.7005364298820496 0.6024460792541504
vt 0.6729720830917358 0.5933845639228821
vt 0.687488853931427 0.5924331545829773
vt 0.687847912311554 0.6018643379211426
vt 0.6607390642166138 0.5955742597579956
vt 0.6729720830917358 0.5933845639228821
vt 0.6759883165359497 0.6024460792541504
vt 0.6507681012153625 0.599729597568512
vt 0.6607390642166138 0.5955742597579956
vt 0.6663604378700256 0.6045275926589966
vt 0.7092218399047852 0.605109453201294
vt 0.7148129343986511 0.6093540191650391
vt 0.7005364298820496 0.6024460792541504
vt 0.687847912311554 0.6018643379211426
vt 0.6759883165359497 0.6024460792541504
vt 0.6663604378700256 0.6045275926589966
vt 0.6605713367462158 0.6090630888938904
vt 0.6962318420410156 0.6142564415931702
vt 0.6997194886207581 0.6169256567955017
vt 0.6931100487709045 0.6133643388748169
vt 0.6962318420410156 0.6142564415931702
vt 0.6878499388694763 0.6209043860435486
vt 0.6878448724746704 0.6133643388748169
vt 0.6931100487709045 0.6133643388748169
vt 0.6878499388694763 0.6209043860435486
vt 0.6829561591148376 0.6133643388748169
vt 0.6878448724746704 0.6133643388748169
vt 0.6878499388694763 0.6209043860435486
vt 0.6793882250785828 0.6145539283752441
vt 0.6829561591148376 0.6133643388748169
vt 0.6878499388694763 0.6209043860435486
vt 0.6762545108795166 0.6167770624160767
vt 0.6793882250785828 0.6145539283752441
vt 0.6878499388694763 0.6209043860435486
vt 0.6339961886405945 0.6441682577133179
vt 0.6731292605400085 0.6317961812019348
vt 0.7186843752861023 0.639300525188446
vt 0.7304945588111877 0.6552990078926086
vt 0.6593554615974426 0.7467321157455444
vt 0.6339961886405945 0.7409873008728027
vt 0.7045845985412598 0.7382208108901978
vt 0.6772585511207581 0.7467321157455444
vt 0.7458017468452454 0.6805750131607056
vt 0.7260635495185852 0.7076682448387146
vt 0.6731303334236145 0.6317802667617798
vt 0.7186854481697083 0.639284610748291
vt 0.7304956912994385 0.6552830934524536
vt 0.6593565344810486 0.7467161417007446
vt 0.6772595047950745 0.7467161417007446
vt 0.7045855522155762 0.7382048964500427
vt 0.7458027601242065 0.6805590391159058
vt 0.7260645031929016 0.7076523303985596
vn 0.9485421180725098 1.910492954948495e-07 0.31665098667144775
vn 0.9942402243614197 0.10352352261543274 0.027739105746150017
vn 0.9994829297065735 0.017680183053016663 0.026860235258936882
vn 0.9994829297065735 0.0018814889481291175 0.03210175409913063
vn 0.9994829297065735 -0.014421360567212105 0.028741585090756416
vn 0.9994829297065735 -0.026860229671001434 0.017680175602436066
vn 0.9994829297065735 -0.03210168704390526 0.0018813979113474488
vn 0.9997683167457581 0.02079091966152191 -0.005570925772190094
vn 0.8530526161193848 -0.5040441751480103 -0.1350582242012024
vn 0.7719182968139648 -0.5656279921531677 -0.2901846766471863
vn 0.7719181776046753 -0.3447559177875519 -0.5341213941574097
vn 0.7719181180000305 -0.03150706738233566 -0.6349407434463501
vn 0.7719182968139648 0.29018434882164 -0.5656281113624573
vn 0.7719184756278992 0.5341210961341858 -0.3447560667991638
vn 0.6510607004165649 0.733162522315979 -0.196450337767601
vn 0.3741901218891144 -0.8947471380233765 -0.2437402307987213
vn 0.3454541563987732 -0.9023467898368835 -0.2577434182167053
vn 0.3312244117259979 -0.8486394286155701 -0.4124336540699005
vn 0.36169886589050293 -0.7591511607170105 -0.5411686301231384
vn 0.2618045210838318 -0.5410880446434021 -0.799176037311554
vn 0.32792454957962036 -0.39476272463798523 -0.8582702875137329
vn 0.21066592633724213 -0.08653657883405685 -0.9737204313278198
vn 0.31874027848243713 0.08160644769668579 -0.9443225264549255
vn 0.2305530309677124 0.39471495151519775 -0.8894073367118835
vn 0.34382790327072144 0.5350103974342346 -0.7717164754867554
vn 0.30104854702949524 0.7700302600860596 -0.5625150203704834
vn 0.37731796503067017 0.8385612368583679 -0.3929964601993561
vn 0.3376084864139557 0.9071739912033081 -0.25110921263694763
vn 0.37912121415138245 0.8938165903091431 -0.2394973635673523
vn -0.4049130380153656 -0.8791924715042114 -0.25112953782081604
vn -0.39032384753227234 -0.8893063068389893 -0.23828881978988647
vn -0.32692644000053406 -0.6682512164115906 -0.668251097202301
vn -0.27748173475265503 -0.24865557253360748 -0.9279947876930237
vn -0.2958616018295288 0.24723128974437714 -0.9226822853088379
vn -0.36151981353759766 0.6592811942100525 -0.6592812538146973
vn -0.40645408630371094 0.8825387954711914 -0.23647531867027283
vn -0.3944687247276306 -0.8875983357429504 -0.23783117532730103
vn -0.3944689929485321 -0.8875980973243713 -0.23783151805400848
vn -0.39446917176246643 -0.6497668027877808 -0.6497670412063599
vn -0.3944689631462097 -0.23783175647258759 -0.8875980377197266
vn -0.3944692611694336 0.23783063888549805 -0.8875983357429504
vn -0.39446911215782166 0.6497668623924255 -0.6497671008110046
vn -0.3944687247276306 0.8875982761383057 -0.23783132433891296
vn -0.8908055424690247 -0.4389019012451172 -0.11760358512401581
vn -0.8908056020736694 -0.43890175223350525 -0.11760368943214417
vn -0.8908056616783142 -0.3212984800338745 -0.3212985694408417
vn -0.8908051252365112 -0.11760494112968445 -0.4389024078845978
vn -0.8908055424690247 0.1176036149263382 -0.43890196084976196
vn -0.8908055424690247 0.3212985694408417 -0.3212985694408417
vn -0.8908054828643799 0.43890202045440674 -0.11760357767343521
vn -1.0 -1.0645014754118165e-06 -2.852330851510487e-07
vn -1.0 7.514776712014282e-07 -1.3015970807828126e-06
vn -1.0 0.0 0.0
vn -1.0 -1.5029667110866285e-06 -1.499914829925647e-13
vn -1.0 1.3015855984122027e-06 7.514702815569763e-07
vn -1.0 0.0 0.0
vn -1.0 0.0 0.0
vn -0.9378796219825745 0.3351386785507202 0.08979932218790054
vn 1.0477217671223116e-07 -5.851035211890121e-07 1.0
vn 6.566522614548376e-08 -6.194328534547822e-07 1.0
vn -1.0699440444739139e-08 4.915855811304937e-07 1.0
vn 2.410962167687103e-07 -1.0535886758589186e-06 1.0
vn 2.410962167687103e-07 -1.0535886758589186e-06 1.0
vn 1.6366563215797214e-07 1.407105116868479e-07 1.0
vn 6.566522614548376e-08 -4.563653703826276e-07 1.0
vn 4.590779667523748e-08 6.257263862607942e-07 1.0
vn 3.551892291397962e-07 -1.2703954155313113e-07 1.0
vn 2.175406308424499e-07 8.777218596378589e-08 1.0
vn -0.4049130380153656 -0.8791924715042114 -0.25112953782081604
vn -0.4049130380153656 -0.8791924715042114 -0.25112953782081604
vn -0.39032384753227234 -0.8893063068389893 -0.23828881978988647
vn -0.39032384753227234 -0.8893063068389893 -0.23828881978988647
vn -0.35678228735923767 -0.6391390562057495 -0.6813278794288635
vn -0.35678228735923767 -0.6391390562057495 -0.6813278794288635
vn -0.35678228735923767 -0.6391390562057495 -0.6813278794288635
vn -0.32692644000053406 -0.6682512164115906 -0.668251097202301
vn -0.32692644000053406 -0.6682512164115906 -0.668251097202301
vn -0.29372113943099976 -0.233022540807724 -0.9270536303520203
vn -0.29372113943099976 -0.233022540807724 -0.9270536303520203
vn -0.29372113943099976 -0.233022540807724 -0.9270536303520203
vn -0.27748173475265503 -0.24865557253360748 -0.9279947876930237
vn -0.27748173475265503 -0.24865557253360748 -0.9279947876930237
vn -0.2785169780254364 0.23412831127643585 -0.9314571619033813
vn -0.2785169780254364 0.23412831127643585 -0.9314571619033813
vn -0.2785169780254364 0.23412831127643585 -0.9314571619033813
vn -0.2958616018295288 0.24723128974437714 -0.9226822853088379
vn -0.2958616018295288 0.24723128974437714 -0.9226822853088379
vn -0.32732412219047546 0.6464764475822449 -0.6891495585441589
vn -0.32732412219047546 0.6464764475822449 -0.6891495585441589
vn -0.32732412219047546 0.6464764475822449 -0.6891495585441589
vn -0.36151981353759766 0.6592811942100525 -0.6592812538146973
vn -0.36151981353759766 0.6592811942100525 -0.6592812538146973
vn -0.3908071517944336 0.8850746750831604 -0.2528093755245209
vn -0.3908071517944336 0.8850746750831604 -0.2528093755245209
vn -0.3908071517944336 0.8850746750831604 -0.2528093755245209
vn -0.40645408630371094 0.8825387954711914 -0.23647531867027283
vn -0.40645408630371094 0.8825387954711914 -0.23647531867027283
vn -0.3944687247276306 -0.8875983357429504 -0.23783117532730103
vn -0.3944687247276306 -0.8875983357429504 -0.23783117532730103
vn -0.3944689631462097 -0.6497670412063599 -0.6497669219970703
vn -0.3944689631462097 -0.6497670412063599 -0.6497669219970703
vn -0.3944689631462097 -0.6497670412063599 -0.6497669219970703
vn -0.3944692611694336 -0.23783130943775177 -0.8875980377197266
vn -0.3944692611694336 -0.23783130943775177 -0.8875980377197266
vn -0.3944692611694336 -0.23783130943775177 -0.8875980377197266
vn -0.39446917176246643 0.23783056437969208 -0.8875982761383057
vn -0.39446917176246643 0.23783056437969208 -0.8875982761383057
vn -0.39446917176246643 0.23783056437969208 -0.8875982761383057
vn -0.39446911215782166 0.6497669219970703 -0.6497669219970703
vn -0.39446911215782166 0.6497669219970703 -0.6497669219970703
vn -0.39446911215782166 0.6497669219970703 -0.6497669219970703
vn -0.3944690525531769 0.8875983357429504 -0.2378310114145279
vn -0.3944690525531769 0.8875983357429504 -0.2378310114145279
vn -0.3944690525531769 0.8875983357429504 -0.2378310114145279
vn -0.8908055424690247 -0.4389019012451172 -0.11760358512401581
vn -0.8908055424690247 -0.4389019012451172 -0.11760358512401581
vn -0.8908056616783142 -0.3212984800338745 -0.3212985694408417
vn -0.8908056616783142 -0.3212984800338745 -0.3212985694408417
vn -0.8908056616783142 -0.3212984800338745 -0.3212985694408417
vn -0.8908056020736694 -0.11760365217924118 -0.43890175223350525
vn -0.8908056020736694 -0.11760365217924118 -0.43890175223350525
vn -0.8908056020736694 -0.11760365217924118 -0.43890175223350525
vn -0.8908053040504456 0.11760325729846954 -0.43890249729156494
vn -0.8908053040504456 0.11760325729846954 -0.43890249729156494
vn -0.8908053040504456 0.11760325729846954 -0.43890249729156494
vn -0.8908056020736694 0.3212985694408417 -0.32129865884780884
vn -0.8908056020736694 0.3212985694408417 -0.32129865884780884
vn -0.8908056020736694 0.3212985694408417 -0.32129865884780884
vn -0.8908056020736694 0.4389020502567291 -0.11760349571704865
vn -0.8908056020736694 0.4389020502567291 -0.11760349571704865
vn -0.8908056020736694 0.4389020502567291 -0.11760349571704865
vn -1.0 -1.0645014754118165e-06 -2.852330851510487e-07
vn -1.0 -1.0645014754118165e-06 -2.852330851510487e-07
vn -1.0 0.0 0.0
vn -1.0 -7.629807896591956e-07 4.405073070756771e-07
vn -1.0 8.810059739516873e-07 8.792170821687179e-14
vn -1.0 0.0 0.0
vn -1.0 0.0 0.0
vn -0.9378796219825745 0.3351386785507202 0.08979932218790054
vn -0.9378796219825745 0.3351386785507202 0.08979932218790054
vn -0.9378798007965088 0.24533815681934357 0.2453382909297943
vn -0.9378798007965088 0.24533815681934357 0.2453382909297943
vn -0.9378798007965088 0.24533815681934357 0.2453382909297943
vn -0.937879741191864 0.08979929983615875 0.33513832092285156
vn -0.937879741191864 0.08979929983615875 0.33513832092285156
vn -0.937879741191864 0.08979929983615875 0.33513832092285156
vn -0.9378796815872192 -0.08979792147874832 0.33513879776000977
vn -0.9378796815872192 -0.08979792147874832 0.33513879776000977
vn -0.9378796815872192 -0.08979792147874832 0.33513879776000977
vn -0.9378800392150879 -0.2453375607728958 0.2453375607728958
vn -0.9378800392150879 -0.2453375607728958 0.2453375607728958
vn -0.9378800392150879 -0.2453375607728958 0.2453375607728958
vn -0.9378801584243774 -0.3351370096206665 0.08979982137680054
vn -0.9378801584243774 -0.3351370096206665 0.08979982137680054
vn -0.9378801584243774 -0.3351370096206665 0.08979982137680054
vn 1.0477217671223116e-07 -5.851035211890121e-07 1.0
vn 1.0477217671223116e-07 -5.851035211890121e-07 1.0
vn -1.0699440444739139e-08 4.915855811304937e-07 1.0
vn -1.0699440444739139e-08 4.915855811304937e-07 1.0
vn 2.410962167687103e-07 -1.0535886758589186e-06 1.0
vn 6.960321456972451e-07 -2.319634120340197e-07 1.0
vn 1.6366563215797214e-07 1.407105116868479e-07 1.0
vn 1.6366563215797214e-07 1.407105116868479e-07 1.0
vn 2.5244375478905567e-08 2.2664114851522754e-07 1.0
vn 2.5244375478905567e-08 2.2664114851522754e-07 1.0
vn -3.6650192214437993e-07 -7.699544823935867e-08 1.0
vn 4.590779667523748e-08 6.257263862607942e-07 1.0
vn 4.590779667523748e-08 6.257263862607942e-07 1.0
vn 6.960340215300675e-07 -7.426094157381158e-07 1.0
vn 2.175406308424499e-07 8.777218596378589e-08 1.0
vn 2.175406308424499e-07 8.777218596378589e-08 1.0
vn 1.6800760249680025e-07 3.890482673796214e-07 1.0
vn 2.554231741669355e-07 4.820003596250899e-07 1.0
f 68/68/68 171/171/171 173/173/173
f 168/168/168 66/66/66 172/172/172
f 67/67/67 68/68/68 66/66/66
f 66/66/66 65/65/65 67/67/67
f 68/68/68 173/173/173 172/172/172
f 172/172/172 66/66/66 68/68/68
f 60/60/60 62/62/62 67/67/67
f 67/67/67 65/65/65 60/60/60
f 170/170/170 68/68/68 67/67/67
f 67/67/67 169/169/169 170/170/170
f 68/68/68 170/170/170 171/171/171
f 169/169/169 67/67/67 62/62/62
f 62/62/62 161/161/161 169/169/169
f 65/65/65 66/66/66 167/167/167
f 167/167/167 166/166/166 65/65/65
f 167/167/167 66/66/66 168/168/168
f 65/65/65 166/166/166 156/156/156
f 156/156/156 60/60/60 65/65/65
f 64/64/64 165/165/165 162/162/162
f 159/159/159 164/164/164 61/61/61
f 63/63/63 59/59/59 61/61/61
f 61/61/61 64/64/64 63/63/63
f 64/64/64 61/61/61 164/164/164
f 164/164/164 165/165/165 64/64/64
f 60/60/60 59/59/59 63/63/63
f 63/63/63 62/62/62 60/60/60
f 163/163/163 160/160/160 63/63/63
f 63/63/63 64/64/64 163/163/163
f 64/64/64 162/162/162 163/163/163
f 160/160/160 161/161/161 62/62/62
f 62/62/62 63/63/63 160/160/160
f 59/59/59 157/157/157 158/158/158
f 158/158/158 61/61/61 59/59/59
f 158/158/158 159/159/159 61/61/61
f 59/59/59 60/60/60 156/156/156
f 156/156/156 157/157/157 59/59/59
f 153/153/153 154/154/154 155/155/155
f 150/150/150 151/151/151 152/152/152
f 147/147/147 148/148/148 149/149/149
f 144/144/144 145/145/145 146/146/146
f 141/141/141 142/142/142 143/143/143
f 139/139/139 140/140/140 58/58/58
f 56/56/56 57/57/57 138/138/138
f 138/138/138 137/137/137 56/56/56
f 55/55/55 56/56/56 137/137/137
f 137/137/137 136/136/136 55/55/55
f 54/54/54 55/55/55 136/136/136
f 136/136/136 135/135/135 54/54/54
f 53/53/53 54/54/54 135/135/135
f 135/135/135 134/134/134 53/53/53
f 52/52/52 53/53/53 134/134/134
f 134/134/134 132/132/132 52/52/52
f 51/51/51 52/52/52 132/132/132
f 132/132/132 133/133/133 51/51/51
f 131/131/131 50/50/50 129/129/129
f 129/129/129 130/130/130 131/131/131
f 128/128/128 49/49/49 126/126/126
f 126/126/126 127/127/127 128/128/128
f 125/125/125 48/48/48 123/123/123
f 123/123/123 124/124/124 125/125/125
f 122/122/122 47/47/47 120/120/120
f 120/120/120 121/121/121 122/122/122
f 119/119/119 46/46/46 117/117/117
f 117/117/117 118/118/118 119/119/119
f 44/44/44 45/45/45 115/115/115
f 115/115/115 116/116/116 44/44/44
f 114/114/114 43/43/43 112/112/112
f 112/112/112 113/113/113 114/114/114
f 111/111/111 42/42/42 109/109/109
f 109/109/109 110/110/110 111/111/111
f 108/108/108 41/41/41 106/106/106
f 106/106/106 107/107/107 108/108/108
f 105/105/105 40/40/40 103/103/103
f 103/103/103 104/104/104 105/105/105
f 102/102/102 39/39/39 100/100/100
f 100/100/100 101/101/101 102/102/102
f 37/37/37 38/38/38 98/98/98
f 98/98/98 99/99/99 37/37/37
f 96/96/96 36/36/36 97/97/97
f 93/93/93 94/94/94 95/95/95
f 91/91/91 35/35/35 92/92/92
f 88/88/88 89/89/89 90/90/90
f 86/86/86 34/34/34 87/87/87
f 83/83/83 84/84/84 85/85/85
f 81/81/81 33/33/33 82/82/82
f 78/78/78 79/79/79 80/80/80
f 76/76/76 32/32/32 77/77/77
f 73/73/73 74/74/74 75/75/75
f 71/71/71 31/31/31 72/72/72
f 69/69/69 70/70/70 30/30/30
f 15/15/15 14/14/14 27/27/27
f 27/27/27 29/29/29 15/15/15
f 14/14/14 13/13/13 25/25/25
f 25/25/25 27/27/27 14/14/14
f 13/13/13 12/12/12 23/23/23
f 23/23/23 25/25/25 13/13/13
f 12/12/12 11/11/11 21/21/21
f 21/21/21 23/23/23 12/12/12
f 11/11/11 10/10/10 19/19/19
f 19/19/19 21/21/21 11/11/11
f 10/10/10 9/9/9 16/16/16
f 16/16/16 19/19/19 10/10/10
f 27/27/27 26/26/26 28/28/28
f 28/28/28 29/29/29 27/27/27
f 25/25/25 24/24/24 26/26/26
f 26/26/26 27/27/27 25/25/25
f 23/23/23 22/22/22 24/24/24
f 24/24/24 25/25/25 23/23/23
f 21/21/21 20/20/20 22/22/22
f 22/22/22 23/23/23 21/21/21
f 19/19/19 18/18/18 20/20/20
f 20/20/20 21/21/21 19/19/19
f 16/16/16 17/17/17 18/18/18
f 18/18/18 19/19/19 16/16/16
f 8/8/8 7/7/7 14/14/14
f 14/14/14 15/15/15 8/8/8
f 7/7/7 6/6/6 13/13/13
f 13/13/13 14/14/14 7/7/7
f 6/6/6 5/5/5 12/12/12
f 12/12/12 13/13/13 6/6/6
f 5/5/5 4/4/4 11/11/11
f 11/11/11 12/12/12 5/5/5
f 4/4/4 3/3/3 10/10/10
f 10/10/10 11/11/11 4/4/4
f 3/3/3 2/2/2 9/9/9
f 9/9/9 10/10/10 3/3/3
f 1/1/1 7/7/7 8/8/8
f 1/1/1 6/6/6 7/7/7
f 1/1/1 5/5/5 6/6/6
f 1/1/1 4/4/4 5/5/5
f 1/1/1 3/3/3 4/4/4
f 1/1/1 2/2/2 3/3/3
