# Recovered local-space geometry; original node transforms not applied
o mesh_0
v 24.155452728271484 -0.49338531494140625 -0.029891550540924072
v 52.697235107421875 5.819061279296875 1.0342786312103271
v 39.108734130859375 3.235004425048828 -0.3423827886581421
v 40.929969787597656 0.9464411735534668 1.894958257675171
v 40.927284240722656 -1.7804834842681885 -0.5014845132827759
v 49.06896209716797 8.46151065826416 -2.1005465984344482
v 50.684112548828125 5.642936706542969 -6.507461071014404
v 52.579795837402344 2.191894769668579 -2.891273260116577
v 40.51378631591797 0.9464411735534668 -2.861987352371216
v 27.495895385742188 -5.714704457204789e-06 -0.016763031482696533
v 33.151824951171875 15.666590690612793 -0.01676684245467186
v 33.151824951171875 13.567663192749023 7.816524028778076
v 33.151824951171875 7.8332929611206055 13.550895690917969
v 33.151824951171875 3.265208943048492e-05 15.649821281433105
v 33.151824951171875 -7.8333024978637695 13.550897598266602
v 33.151824951171875 -13.56767749786377 7.816527843475342
v 33.151824951171875 -15.666604042053223 -0.01676875725388527
v 30.588577270507812 28.875091552734375 -0.016769707202911377
v 30.588577270507812 25.006563186645508 14.420775413513184
v 30.588577270507812 14.437542915344238 24.989795684814453
v 30.58856964111328 3.32160088873934e-05 28.858325958251953
v 30.588577270507812 -14.437549591064453 24.989795684814453
v 30.588577270507812 -25.006574630737305 14.420783042907715
v 30.588577270507812 -28.875102996826172 -0.016763031482696533
v 20.457244873046875 38.63168716430664 -0.016774475574493408
v 4.4507904052734375 41.98802947998047 -0.01677638292312622
v 4.450786590576172 36.36268997192383 20.97724151611328
v 20.457242965698242 33.456024169921875 19.299072265625
v 4.450786590576172 20.9940128326416 36.34592056274414
v 20.457242965698242 19.31584358215332 33.43925094604492
v 4.450786590576172 3.495758573990315e-05 41.97126007080078
v 20.45724105834961 3.421237488510087e-05 38.61492156982422
v 4.450786590576172 -20.9940128326416 36.3459358215332
v 20.457242965698242 -19.31584358215332 33.43925857543945
v 4.450786590576172 -36.36270523071289 20.977249145507812
v 20.457242965698242 -33.45603561401367 19.299087524414062
v 4.4507904052734375 -41.988040924072266 -0.016758263111114502
v 20.457244873046875 -38.6317024230957 -0.016759216785430908
v -12.645530700683594 37.92758560180664 -0.01677638664841652
v -12.64553451538086 32.846256256103516 18.947017669677734
v -12.645538330078125 18.963788986206055 32.829490661621094
v -12.645538330078125 3.55365700670518e-05 37.91082000732422
v -12.645538330078125 -18.963796615600586 32.82949447631836
v -12.64553451538086 -32.84626770019531 18.94702911376953
v -12.645530700683594 -37.9276008605957 -0.016761120408773422
v -32.07029724121094 26.228984832763672 -0.016773518174886703
v -32.07029724121094 22.714963912963867 13.097716331481934
v -32.07029724121094 13.114486694335938 22.698196411132812
v -32.07029724121094 3.5915898479288444e-05 26.212215423583984
v -32.07029724121094 -13.11449909210205 22.698196411132812
v -32.07029724121094 -22.71497917175293 13.097722053527832
v -32.07029724121094 -26.229000091552734 -0.016767803579568863
v -37.444374084472656 17.31964111328125 -0.016772568225860596
v -37.444374084472656 14.999244689941406 8.643046379089355
v -37.444374084472656 8.65981388092041 14.982477188110352
v -37.44438171386719 3.576271774363704e-05 17.302871704101562
v -37.444374084472656 -8.659832000732422 14.982479095458984
v -37.444374084472656 -14.99926471710205 8.643048286437988
v -37.444374084472656 -17.319660186767578 -0.01677161455154419
v -37.44438171386719 10.152534484863281 -0.016767799854278564
v -37.444374084472656 8.792346954345703 5.059491157531738
v -37.444374084472656 5.076258182525635 8.775579452514648
v -37.44438171386719 3.539576937328093e-05 10.135760307312012
v -37.444374084472656 -5.076279640197754 8.775579452514648
v -37.444374084472656 -8.792366981506348 5.059492588043213
v -37.444374084472656 -10.152551651000977 -0.016774475574493408
v -33.70574951171875 8.590410288888961e-06 -0.016770660877227783
v 13.585914611816406 -15.845846176147461 -0.016770660877227783
v 14.788028717041016 -5.953123036306351e-06 -0.016763031482696533
v 7.686412811279297 -28.926841735839844 -0.01676398515701294
v -19.233562469482422 -4.69611186417751e-05 -0.01676112413406372
v -18.87655258178711 -13.99876594543457 -0.0167735256254673
v -16.088150024414062 -26.217517852783203 -0.01676589623093605
v 13.585914611816406 15.845837593078613 -0.016758263111114502
v 7.686412811279297 28.92682647705078 -0.01676875352859497
v -18.87655258178711 13.998753547668457 -0.016761120408773422
v -16.088150024414062 26.217506408691406 -0.01676970347762108
v 52.697235107421875 5.819061279296875 1.0342786312103271
v 50.684112548828125 5.642936706542969 -6.507461071014404
v 49.06896209716797 8.46151065826416 -2.1005465984344482
v 52.697235107421875 5.819061279296875 1.0342786312103271
v 52.579795837402344 2.191894769668579 -2.891273260116577
v 50.684112548828125 5.642936706542969 -6.507461071014404
v 4.450786590576172 36.36268997192383 20.97724151611328
v 4.4507904052734375 41.98802947998047 -0.01677638292312622
v 4.450786590576172 20.9940128326416 36.34592056274414
v 4.450786590576172 36.36268997192383 20.97724151611328
v -12.64553451538086 32.846256256103516 18.947017669677734
v 4.450786590576172 3.495758573990315e-05 41.97126007080078
v 4.450786590576172 20.9940128326416 36.34592056274414
v -12.645538330078125 18.963788986206055 32.829490661621094
v 4.450786590576172 -20.9940128326416 36.3459358215332
v 4.450786590576172 3.495758573990315e-05 41.97126007080078
v -12.645538330078125 3.55365700670518e-05 37.91082000732422
v 4.450786590576172 -36.36270523071289 20.977249145507812
v 4.450786590576172 -20.9940128326416 36.3459358215332
v -12.645538330078125 -18.963796615600586 32.82949447631836
v 4.4507904052734375 -41.988040924072266 -0.016758263111114502
v 4.450786590576172 -36.36270523071289 20.977249145507812
v -12.64553451538086 -32.84626770019531 18.94702911376953
v -12.64553451538086 32.846256256103516 18.947017669677734
v -12.645530700683594 37.92758560180664 -0.01677638664841652
v -12.645538330078125 18.963788986206055 32.829490661621094
v -12.64553451538086 32.846256256103516 18.947017669677734
v -32.07029724121094 22.714963912963867 13.097716331481934
v -12.645538330078125 3.55365700670518e-05 37.91082000732422
v -12.645538330078125 18.963788986206055 32.829490661621094
v -32.07029724121094 13.114486694335938 22.698196411132812
v -12.645538330078125 -18.963796615600586 32.82949447631836
v -12.645538330078125 3.55365700670518e-05 37.91082000732422
v -32.07029724121094 3.5915898479288444e-05 26.212215423583984
v -12.64553451538086 -32.84626770019531 18.94702911376953
v -12.645538330078125 -18.963796615600586 32.82949447631836
v -32.07029724121094 -13.11449909210205 22.698196411132812
v -12.645530700683594 -37.9276008605957 -0.016761120408773422
v -12.64553451538086 -32.84626770019531 18.94702911376953
v -32.07029724121094 -22.71497917175293 13.097722053527832
v -32.07029724121094 22.714963912963867 13.097716331481934
v -32.07029724121094 26.228984832763672 -0.016773518174886703
v -32.07029724121094 13.114486694335938 22.698196411132812
v -32.07029724121094 22.714963912963867 13.097716331481934
v -37.444374084472656 14.999244689941406 8.643046379089355
v -32.07029724121094 3.5915898479288444e-05 26.212215423583984
v -32.07029724121094 13.114486694335938 22.698196411132812
v -37.444374084472656 8.65981388092041 14.982477188110352
v -32.07029724121094 -13.11449909210205 22.698196411132812
v -32.07029724121094 3.5915898479288444e-05 26.212215423583984
v -37.44438171386719 3.576271774363704e-05 17.302871704101562
v -32.07029724121094 -22.71497917175293 13.097722053527832
v -32.07029724121094 -13.11449909210205 22.698196411132812
v -37.444374084472656 -8.659832000732422 14.982479095458984
v -32.07029724121094 -26.229000091552734 -0.016767803579568863
v -32.07029724121094 -22.71497917175293 13.097722053527832
v -37.444374084472656 -14.99926471710205 8.643048286437988
v -37.444374084472656 14.999244689941406 8.643046379089355
v -37.444374084472656 17.31964111328125 -0.016772568225860596
v -37.444374084472656 8.65981388092041 14.982477188110352
v -37.44438171386719 3.576271774363704e-05 17.302871704101562
v -37.444374084472656 -8.659832000732422 14.982479095458984
v -37.444374084472656 -14.99926471710205 8.643048286437988
v -37.444374084472656 -17.319660186767578 -0.01677161455154419
v -37.444374084472656 8.792346954345703 5.059491157531738
v -37.44438171386719 10.152534484863281 -0.016767799854278564
v -37.444374084472656 5.076258182525635 8.775579452514648
v -37.444374084472656 8.792346954345703 5.059491157531738
v -33.70574951171875 8.590410288888961e-06 -0.016770660877227783
v -37.44438171386719 3.539576937328093e-05 10.135760307312012
v -37.444374084472656 5.076258182525635 8.775579452514648
v -33.70574951171875 8.590410288888961e-06 -0.016770660877227783
v -37.444374084472656 -5.076279640197754 8.775579452514648
v -37.44438171386719 3.539576937328093e-05 10.135760307312012
v -33.70574951171875 8.590410288888961e-06 -0.016770660877227783
v -37.444374084472656 -8.792366981506348 5.059492588043213
v -37.444374084472656 -5.076279640197754 8.775579452514648
v -33.70574951171875 8.590410288888961e-06 -0.016770660877227783
v -37.444374084472656 -10.152551651000977 -0.016774475574493408
v -37.444374084472656 -8.792366981506348 5.059492588043213
v -33.70574951171875 8.590410288888961e-06 -0.016770660877227783
v 27.495895385742188 -5.714704457204789e-06 -0.016763031482696533
v 33.151824951171875 -15.666604042053223 -0.01676875725388527
v 30.588577270507812 -28.875102996826172 -0.016763031482696533
v 20.457244873046875 -38.6317024230957 -0.016759216785430908
v 30.588577270507812 -28.875102996826172 -0.016763031482696533
v 7.686412811279297 -28.926841735839844 -0.01676398515701294
v -37.444374084472656 -10.152551651000977 -0.016774475574493408
v -33.70574951171875 8.590410288888961e-06 -0.016770660877227783
v -32.07029724121094 -26.229000091552734 -0.016767803579568863
v -37.444374084472656 -17.319660186767578 -0.01677161455154419
v -16.088150024414062 -26.217517852783203 -0.01676589623093605
v -37.444374084472656 -17.319660186767578 -0.01677161455154419
v -18.87655258178711 -13.99876594543457 -0.0167735256254673
v -19.233562469482422 -4.69611186417751e-05 -0.01676112413406372
v 14.788028717041016 -5.953123036306351e-06 -0.016763031482696533
v 13.585914611816406 -15.845846176147461 -0.016770660877227783
v 4.4507904052734375 -41.988040924072266 -0.016758263111114502
v -12.645530700683594 -37.9276008605957 -0.016761120408773422
v 7.686412811279297 -28.926841735839844 -0.01676398515701294
v -16.088150024414062 -26.217517852783203 -0.01676589623093605
v 20.457244873046875 -38.6317024230957 -0.016759216785430908
v 33.151824951171875 15.666590690612793 -0.01676684245467186
v 30.588577270507812 28.875091552734375 -0.016769707202911377
v 20.457244873046875 38.63168716430664 -0.016774475574493408
v 30.588577270507812 28.875091552734375 -0.016769707202911377
v 7.686412811279297 28.92682647705078 -0.01676875352859497
v -37.44438171386719 10.152534484863281 -0.016767799854278564
v -37.444374084472656 17.31964111328125 -0.016772568225860596
v -32.07029724121094 26.228984832763672 -0.016773518174886703
v -37.444374084472656 17.31964111328125 -0.016772568225860596
v -16.088150024414062 26.217506408691406 -0.01676970347762108
v -18.87655258178711 13.998753547668457 -0.016761120408773422
v 13.585914611816406 15.845837593078613 -0.016758263111114502
v 4.4507904052734375 41.98802947998047 -0.01677638292312622
v -12.645530700683594 37.92758560180664 -0.01677638664841652
v 7.686412811279297 28.92682647705078 -0.01676875352859497
v -16.088150024414062 26.217506408691406 -0.01676970347762108
v 20.457244873046875 38.63168716430664 -0.016774475574493408
vt 0.6189761757850647 0.40706050395965576
vt 0.61896151304245 0.3806474208831787
vt 0.6172672510147095 0.39384955167770386
vt 0.6189688444137573 0.3938538432121277
vt 0.6206701993942261 0.39384955167770386
vt 0.6155585646629333 0.3806387782096863
vt 0.61896151304245 0.3806474208831787
vt 0.6223644614219666 0.3806387782096863
vt 0.6189688444137573 0.3938538432121277
vt 0.5608605146408081 0.3781927824020386
vt 0.5387930870056152 0.39303648471832275
vt 0.5457842946052551 0.3955090045928955
vt 0.5540804266929626 0.39690303802490234
vt 0.5641576051712036 0.39690303802490234
vt 0.5732054114341736 0.39690303802490234
vt 0.5834426283836365 0.39565449953079224
vt 0.5874330997467041 0.39295071363449097
vt 0.5229260325431824 0.39958202838897705
vt 0.5352001190185547 0.4042215347290039
vt 0.5487809181213379 0.40503793954849243
vt 0.5639668107032776 0.40503793954849243
vt 0.5795111656188965 0.40503793954849243
vt 0.5953343510627747 0.404496967792511
vt 0.6037136316299438 0.402563214302063
vt 0.5150753855705261 0.41292810440063477
vt 0.5130424499511719 0.4340382218360901
vt 0.527414858341217 0.4346587657928467
vt 0.5289800763130188 0.41448450088500977
vt 0.542879045009613 0.4353390336036682
vt 0.5445799827575684 0.4167519211769104
vt 0.5639671683311462 0.4353390336036682
vt 0.5639671683311462 0.4167519211769104
vt 0.5854367613792419 0.4353390336036682
vt 0.5837358832359314 0.4167519211769104
vt 0.6051893830299377 0.4390736222267151
vt 0.6012312173843384 0.41547858715057373
vt 0.6146606802940369 0.43472617864608765
vt 0.6117774248123169 0.41423624753952026
vt 0.515245258808136 0.4563819169998169
vt 0.5278042554855347 0.4545897841453552
vt 0.5449367761611938 0.45140522718429565
vt 0.5641939043998718 0.45140522718429565
vt 0.5872799158096313 0.45712512731552124
vt 0.6016781330108643 0.46110159158706665
vt 0.6142075657844543 0.45808249711990356
vt 0.5263925194740295 0.47563469409942627
vt 0.5321404337882996 0.4670666456222534
vt 0.5488946437835693 0.46920448541641235
vt 0.563606321811676 0.46824032068252563
vt 0.5849297642707825 0.4701576828956604
vt 0.5948414206504822 0.4739781618118286
vt 0.6004968881607056 0.477561891078949
vt 0.5363273620605469 0.48509353399276733
vt 0.5385252237319946 0.4798092246055603
vt 0.5519513487815857 0.47838765382766724
vt 0.563970148563385 0.47779810428619385
vt 0.5788930654525757 0.4813687205314636
vt 0.5865484476089478 0.4829213619232178
vt 0.5912973880767822 0.4853883385658264
vt 0.5522211790084839 0.49291110038757324
vt 0.5553969144821167 0.49065810441970825
vt 0.559012770652771 0.4894525408744812
vt 0.5639671683311462 0.4894525408744812
vt 0.569303035736084 0.4894525408744812
vt 0.5724667906761169 0.4903566241264343
vt 0.5760012269020081 0.49306172132492065
vt 0.5639722347259521 0.4970938563346863
vt 0.5531392693519592 0.3742474913597107
vt 0.5626915097236633 0.3742477297782898
vt 0.5294259786605835 0.3742477297782898
vt 0.5038692951202393 0.37424784898757935
vt 0.5145295262336731 0.3742474317550659
vt 0.5294259190559387 0.3742477297782898
vt 0.5531392693519592 0.3742474913597107
vt 0.5294259786605835 0.3742477297782898
vt 0.5145295262336731 0.3742474317550659
vt 0.5294259190559387 0.3742477297782898
vt 0.61896151304245 0.3806474208831787
vt 0.61896151304245 0.3806474208831787
vt 0.6155585646629333 0.3806387782096863
vt 0.61896151304245 0.3806474208831787
vt 0.6223644614219666 0.3806387782096863
vt 0.61896151304245 0.3806474208831787
vt 0.527414858341217 0.4346587657928467
vt 0.5130424499511719 0.4340382218360901
vt 0.542879045009613 0.4353390336036682
vt 0.527414858341217 0.4346587657928467
vt 0.5278042554855347 0.4545897841453552
vt 0.5639671683311462 0.4353390336036682
vt 0.542879045009613 0.4353390336036682
vt 0.5449367761611938 0.45140522718429565
vt 0.5854367613792419 0.4353390336036682
vt 0.5639671683311462 0.4353390336036682
vt 0.5641939043998718 0.45140522718429565
vt 0.6051893830299377 0.4390736222267151
vt 0.5854367613792419 0.4353390336036682
vt 0.5872799158096313 0.45712512731552124
vt 0.6146606802940369 0.43472617864608765
vt 0.6051893830299377 0.4390736222267151
vt 0.6016781330108643 0.46110159158706665
vt 0.5278042554855347 0.4545897841453552
vt 0.515245258808136 0.4563819169998169
vt 0.5449367761611938 0.45140522718429565
vt 0.5278042554855347 0.4545897841453552
vt 0.5321404337882996 0.4670666456222534
vt 0.5641939043998718 0.45140522718429565
vt 0.5449367761611938 0.45140522718429565
vt 0.5488946437835693 0.46920448541641235
vt 0.5872799158096313 0.45712512731552124
vt 0.5641939043998718 0.45140522718429565
vt 0.563606321811676 0.46824032068252563
vt 0.6016781330108643 0.46110159158706665
vt 0.5872799158096313 0.45712512731552124
vt 0.5849297642707825 0.4701576828956604
vt 0.6142075657844543 0.45808249711990356
vt 0.6016781330108643 0.46110159158706665
vt 0.5948414206504822 0.4739781618118286
vt 0.5321404337882996 0.4670666456222534
vt 0.5263925194740295 0.47563469409942627
vt 0.5488946437835693 0.46920448541641235
vt 0.5321404337882996 0.4670666456222534
vt 0.5385252237319946 0.4798092246055603
vt 0.563606321811676 0.46824032068252563
vt 0.5488946437835693 0.46920448541641235
vt 0.5519513487815857 0.47838765382766724
vt 0.5849297642707825 0.4701576828956604
vt 0.563606321811676 0.46824032068252563
vt 0.563970148563385 0.47779810428619385
vt 0.5948414206504822 0.4739781618118286
vt 0.5849297642707825 0.4701576828956604
vt 0.5788930654525757 0.4813687205314636
vt 0.6004968881607056 0.477561891078949
vt 0.5948414206504822 0.4739781618118286
vt 0.5865484476089478 0.4829213619232178
vt 0.5385252237319946 0.4798092246055603
vt 0.5363273620605469 0.48509353399276733
vt 0.5519513487815857 0.47838765382766724
vt 0.563970148563385 0.47779810428619385
vt 0.5788930654525757 0.4813687205314636
vt 0.5865484476089478 0.4829213619232178
vt 0.5912973880767822 0.4853883385658264
vt 0.5553969144821167 0.49065810441970825
vt 0.5522211790084839 0.49291110038757324
vt 0.559012770652771 0.4894525408744812
vt 0.5553969144821167 0.49065810441970825
vt 0.5639722347259521 0.4970938563346863
vt 0.5639671683311462 0.4894525408744812
vt 0.559012770652771 0.4894525408744812
vt 0.5639722347259521 0.4970938563346863
vt 0.569303035736084 0.4894525408744812
vt 0.5639671683311462 0.4894525408744812
vt 0.5639722347259521 0.4970938563346863
vt 0.5724667906761169 0.4903566241264343
vt 0.569303035736084 0.4894525408744812
vt 0.5639722347259521 0.4970938563346863
vt 0.5760012269020081 0.49306172132492065
vt 0.5724667906761169 0.4903566241264343
vt 0.5639722347259521 0.4970938563346863
vt 0.5627158284187317 0.3135365843772888
vt 0.5531389117240906 0.31353336572647095
vt 0.5294207334518433 0.3135365843772888
vt 0.5314879417419434 0.31353336572647095
vt 0.5384981036186218 0.3135365843772888
vt 0.5385225415229797 0.3742477297782898
vt 0.5145295858383179 0.31353992223739624
vt 0.5038436055183411 0.31353819370269775
vt 0.5314879417419434 0.31356531381607056
vt 0.5294209122657776 0.3135044574737549
vt 0.5252084732055664 0.37424784898757935
vt 0.5252086520195007 0.31353819370269775
vt 0.5661777853965759 0.3521864414215088
vt 0.5655682682991028 0.3742471933364868
vt 0.6236385703086853 0.3742471933364868
vt 0.6215867400169373 0.3503348231315613
vt 0.5314879417419434 0.31353336572647095
vt 0.5294207334518433 0.3135368227958679
vt 0.6130656599998474 0.32715660333633423
vt 0.5744214653968811 0.3290752172470093
vt 0.5294207334518433 0.3135365843772888
vt 0.5531389117240906 0.3135335445404053
vt 0.5294207334518433 0.3135365843772888
vt 0.5314879417419434 0.31353336572647095
vt 0.5384981036186218 0.3135365843772888
vt 0.5385225415229797 0.3742477297782898
vt 0.5145295858383179 0.31353992223739624
vt 0.5294209122657776 0.3135044574737549
vt 0.5314879417419434 0.31356531381607056
vt 0.5252086520195007 0.31353819370269775
vt 0.5252084732055664 0.37424784898757935
vt 0.5661776661872864 0.352186381816864
vt 0.6215866208076477 0.35033464431762695
vt 0.5314879417419434 0.31353336572647095
vt 0.5294207334518433 0.31353574991226196
vt 0.6130656599998474 0.3271564245223999
vt 0.5744213461875916 0.3290750980377197
vt 0.5294207334518433 0.3135365843772888
vn -0.9930649995803833 -0.028047163039445877 0.11417297273874283
vn -0.024094026535749435 0.23904502391815186 0.9707096219062805
vn -0.4075542688369751 0.910881757736206 0.06476099044084549
vn 0.08761388063430786 -0.19914501905441284 0.9760457277297974
vn 0.12225925177335739 -0.992273211479187 -0.0211325790733099
vn -0.44625023007392883 0.8879344463348389 0.11150424927473068
vn -0.3870610296726227 0.20358268916606903 -0.8992985486984253
vn 0.2955263555049896 -0.9541827440261841 -0.0468984916806221
vn -0.1595369428396225 -0.22136685252189636 -0.9620523452758789
vn 0.9722372889518738 -1.727069047774421e-07 -0.2339971512556076
vn 0.9968252182006836 -0.07690808176994324 -0.020607491955161095
vn 0.9997037053108215 -0.013690038584172726 -0.020126815885305405
vn 0.9997037053108215 -0.0017925865249708295 -0.024275358766317368
vn 0.9997037053108215 0.010585147887468338 -0.02191917784512043
vn 0.9997037053108215 0.020126836374402046 -0.013689936138689518
vn 0.9997037053108215 0.02427532896399498 -0.0017925185384228826
vn 0.9998855590820312 -0.014613098464906216 0.003915559966117144
vn 0.9199132323265076 0.37876075506210327 0.10148865729570389
vn 0.8795763254165649 0.4236965477466583 0.2163947969675064
vn 0.8795762658119202 0.2587346136569977 0.399251788854599
vn 0.8795762658119202 0.02444521337747574 0.47512951493263245
vn 0.8795763850212097 -0.21639442443847656 0.42369669675827026
vn 0.8795763850212097 -0.3992515206336975 0.25873470306396484
vn 0.8156904578208923 -0.5587772727012634 0.14972396194934845
vn 0.45693328976631165 0.8591919541358948 0.23021985590457916
vn 0.198511004447937 0.9467024803161621 0.2536686360836029
vn 0.2044435441493988 0.8879138231277466 0.41208240389823914
vn 0.468092679977417 0.722947359085083 0.5081695914268494
vn 0.20444348454475403 0.5629150867462158 0.8008304834365845
vn 0.4680927097797394 0.37200629711151123 0.8015612959861755
vn 0.20444372296333313 0.08708395808935165 0.9749971032142639
vn 0.4680928885936737 -0.07861348986625671 0.8801755309104919
vn 0.20444385707378387 -0.4120818078517914 0.8879140019416809
vn 0.46809276938438416 -0.5081691741943359 0.7229475975036621
vn 0.20444351434707642 -0.8008304238319397 0.5629152059555054
vn 0.46809279918670654 -0.8015612959861755 0.37200623750686646
vn 0.19851066172122955 -0.9467027187347412 0.2536684572696686
vn 0.45693352818489075 -0.8591918349266052 0.23021987080574036
vn -0.22360259294509888 0.9414688944816589 0.25226619839668274
vn -0.22360192239284515 0.9414691925048828 0.25226566195487976
vn -0.22360196709632874 0.6892034411430359 0.6892030835151672
vn -0.22360233962535858 0.25226616859436035 0.9414689540863037
vn -0.22360210120677948 -0.2522650361061096 0.9414693117141724
vn -0.22360217571258545 -0.689203143119812 0.6892033219337463
vn -0.22360244393348694 -0.9414690136909485 0.2522658705711365
vn -0.502837061882019 0.8349283337593079 0.2237180918455124
vn -0.5028373599052429 0.834928035736084 0.2237185388803482
vn -0.5028373599052429 0.6112098097801208 0.6112095713615417
vn -0.5028371810913086 0.22371906042099 0.8349278569221497
vn -0.5028374195098877 -0.22371765971183777 0.8349280953407288
vn -0.5028372406959534 -0.6112095713615417 0.6112099289894104
vn -0.502837061882019 -0.8349282145500183 0.2237185835838318
vn -0.8481987118721008 0.5116297602653503 0.13709093630313873
vn -0.8481988906860352 0.5116296410560608 0.1370910406112671
vn -0.8481988310813904 0.3745388984680176 0.3745388984680176
vn -0.8481982350349426 0.1370924562215805 0.5116301774978638
vn -0.8481987118721008 -0.13709084689617157 0.5116298198699951
vn -0.8481987118721008 -0.37453895807266235 0.3745390772819519
vn -0.848198652267456 -0.5116298794746399 0.1370910257101059
vn -1.0 1.0645015890986542e-06 2.852329430425016e-07
vn -1.0 -7.514775575145904e-07 1.3015970807828126e-06
vn -1.0 0.0 0.0
vn -1.0 1.5029668247734662e-06 -7.695028018646702e-14
vn -1.0 -1.3015855984122027e-06 -7.514702247135574e-07
vn -1.0 0.0 0.0
vn -1.0 0.0 0.0
vn -0.9343993663787842 -0.3440892696380615 -0.09219758212566376
vn 9.36350872393632e-08 3.992803101482423e-07 -1.0
vn -9.033213359179587e-15 4.814762064597744e-07 -1.0
vn 4.262450659098249e-08 -4.3524798343241855e-07 -1.0
vn 2.3591664444211347e-07 8.91918489287491e-07 -1.0
vn 2.3591664444211347e-07 8.91918489287491e-07 -1.0
vn 1.1959791379467788e-07 -3.5560924516175874e-07 -1.0
vn -5.6457566554213474e-15 3.0092255087765807e-07 -1.0
vn -4.284575894075715e-08 -5.332245791578316e-07 -1.0
vn 3.6158721172796504e-07 -8.955404418031776e-09 -1.0
vn 2.385049526765215e-07 -2.504890233012702e-07 -1.0
vn 0.6833826303482056 0.7024661898612976 -0.19882044196128845
vn 0.6833826303482056 0.7024661898612976 -0.19882044196128845
vn 0.6833826303482056 0.7024661898612976 -0.19882044196128845
vn 0.9350184798240662 0.24606195092201233 -0.2553311288356781
vn 0.9350184798240662 0.24606195092201233 -0.2553311288356781
vn 0.9350184798240662 0.24606195092201233 -0.2553311288356781
vn -0.22360259294509888 0.9414688944816589 0.25226619839668274
vn -0.22360259294509888 0.9414688944816589 0.25226619839668274
vn -0.22360216081142426 0.6892032623291016 0.689203143119812
vn -0.22360216081142426 0.6892032623291016 0.689203143119812
vn -0.22360216081142426 0.6892032623291016 0.689203143119812
vn -0.22360171377658844 0.25226670503616333 0.9414689540863037
vn -0.22360171377658844 0.25226670503616333 0.9414689540863037
vn -0.22360171377658844 0.25226670503616333 0.9414689540863037
vn -0.22360239923000336 -0.2522653043270111 0.9414691925048828
vn -0.22360239923000336 -0.2522653043270111 0.9414691925048828
vn -0.22360239923000336 -0.2522653043270111 0.9414691925048828
vn -0.22360211610794067 -0.6892030239105225 0.6892033815383911
vn -0.22360211610794067 -0.6892030239105225 0.6892033815383911
vn -0.22360211610794067 -0.6892030239105225 0.6892033815383911
vn -0.2236020863056183 -0.9414690136909485 0.25226619839668274
vn -0.2236020863056183 -0.9414690136909485 0.25226619839668274
vn -0.2236020863056183 -0.9414690136909485 0.25226619839668274
vn -0.502837061882019 0.8349283337593079 0.2237180918455124
vn -0.502837061882019 0.8349283337593079 0.2237180918455124
vn -0.5028372406959534 0.6112099289894104 0.6112095713615417
vn -0.5028372406959534 0.6112099289894104 0.6112095713615417
vn -0.5028372406959534 0.6112099289894104 0.6112095713615417
vn -0.5028374195098877 0.2237185537815094 0.8349278569221497
vn -0.5028374195098877 0.2237185537815094 0.8349278569221497
vn -0.5028374195098877 0.2237185537815094 0.8349278569221497
vn -0.5028374195098877 -0.2237175554037094 0.8349282741546631
vn -0.5028374195098877 -0.2237175554037094 0.8349282741546631
vn -0.5028374195098877 -0.2237175554037094 0.8349282741546631
vn -0.5028373599052429 -0.6112096905708313 0.6112097501754761
vn -0.5028373599052429 -0.6112096905708313 0.6112097501754761
vn -0.5028373599052429 -0.6112096905708313 0.6112097501754761
vn -0.5028371810913086 -0.8349280953407288 0.22371825575828552
vn -0.5028371810913086 -0.8349280953407288 0.22371825575828552
vn -0.5028371810913086 -0.8349280953407288 0.22371825575828552
vn -0.8481987118721008 0.5116297602653503 0.13709093630313873
vn -0.8481987118721008 0.5116297602653503 0.13709093630313873
vn -0.8481987714767456 0.3745390474796295 0.3745388984680176
vn -0.8481987714767456 0.3745390474796295 0.3745388984680176
vn -0.8481987714767456 0.3745390474796295 0.3745388984680176
vn -0.8481988310813904 0.13709118962287903 0.5116295218467712
vn -0.8481988310813904 0.13709118962287903 0.5116295218467712
vn -0.8481988310813904 0.13709118962287903 0.5116295218467712
vn -0.8481984734535217 -0.1370905339717865 0.5116302967071533
vn -0.8481984734535217 -0.1370905339717865 0.5116302967071533
vn -0.8481984734535217 -0.1370905339717865 0.5116302967071533
vn -0.848198652267456 -0.37453892827033997 0.37453919649124146
vn -0.848198652267456 -0.37453892827033997 0.37453919649124146
vn -0.848198652267456 -0.37453892827033997 0.37453919649124146
vn -0.8481987118721008 -0.5116297602653503 0.13709095120429993
vn -0.8481987118721008 -0.5116297602653503 0.13709095120429993
vn -0.8481987118721008 -0.5116297602653503 0.13709095120429993
vn -1.0 1.0645015890986542e-06 2.852329430425016e-07
vn -1.0 1.0645015890986542e-06 2.852329430425016e-07
vn -1.0 0.0 0.0
vn -1.0 7.629807328157767e-07 -4.405073070756771e-07
vn -1.0 -8.810059171082685e-07 4.510655426102385e-14
vn -1.0 0.0 0.0
vn -1.0 0.0 0.0
vn -0.9343993663787842 -0.3440892696380615 -0.09219758212566376
vn -0.9343993663787842 -0.3440892696380615 -0.09219758212566376
vn -0.9343995451927185 -0.25189051032066345 -0.2518905699253082
vn -0.9343995451927185 -0.25189051032066345 -0.2518905699253082
vn -0.9343995451927185 -0.25189051032066345 -0.2518905699253082
vn -0.9343994855880737 -0.09219770133495331 -0.34408897161483765
vn -0.9343994855880737 -0.09219770133495331 -0.34408897161483765
vn -0.9343994855880737 -0.09219770133495331 -0.34408897161483765
vn -0.9343994855880737 0.09219616651535034 -0.34408941864967346
vn -0.9343994855880737 0.09219616651535034 -0.34408941864967346
vn -0.9343994855880737 0.09219616651535034 -0.34408941864967346
vn -0.9343997836112976 0.2518898546695709 -0.2518899440765381
vn -0.9343997836112976 0.2518898546695709 -0.2518899440765381
vn -0.9343997836112976 0.2518898546695709 -0.2518899440765381
vn -0.9343999028205872 0.344087690114975 -0.09219822287559509
vn -0.9343999028205872 0.344087690114975 -0.09219822287559509
vn -0.9343999028205872 0.344087690114975 -0.09219822287559509
vn 9.36350872393632e-08 3.992803101482423e-07 -1.0
vn 9.36350872393632e-08 3.992803101482423e-07 -1.0
vn 4.262450659098249e-08 -4.3524798343241855e-07 -1.0
vn 4.262450659098249e-08 -4.3524798343241855e-07 -1.0
vn 4.283779375668928e-08 -5.296571430335462e-07 -1.0
vn 4.283779375668928e-08 -5.296571430335462e-07 -1.0
vn 2.3591664444211347e-07 8.91918489287491e-07 -1.0
vn 6.589708050341869e-07 1.33075062080934e-07 -1.0
vn 1.1959791379467788e-07 -3.5560924516175874e-07 -1.0
vn 1.1959791379467788e-07 -3.5560924516175874e-07 -1.0
vn 8.408178153729295e-09 -6.224815933819627e-07 -1.0
vn 8.408178153729295e-09 -6.224815933819627e-07 -1.0
vn -5.6063957032392864e-08 8.844721151035628e-07 -1.0
vn -5.6063957032392864e-08 8.844721151035628e-07 -1.0
vn -5.6063957032392864e-08 8.844721151035628e-07 -1.0
vn 1.1514646303112386e-07 4.7274082248804916e-07 -1.0
vn 7.554071856930022e-08 -3.856304431337776e-07 -1.0
vn 7.554071856930022e-08 -3.856304431337776e-07 -1.0
vn 9.473492212919155e-09 -6.222385877663328e-07 -1.0
vn 9.473492212919155e-09 -6.222385877663328e-07 -1.0
vn 3.405080306606578e-08 -4.465303220513306e-07 -1.0
vn -4.3926004877903324e-07 -8.467372225595682e-08 -1.0
vn -4.284575894075715e-08 -5.332245791578316e-07 -1.0
vn -4.284575894075715e-08 -5.332245791578316e-07 -1.0
vn -4.412557359501079e-07 -3.0251692351157544e-07 -1.0
vn -4.349713478291051e-08 -8.215761795327126e-07 -1.0
vn 6.58972396649915e-07 5.244683620730939e-07 -1.0
vn 2.385049526765215e-07 -2.504890233012702e-07 -1.0
vn 2.385049526765215e-07 -2.504890233012702e-07 -1.0
vn 4.975480578650604e-07 -6.653139053014456e-07 -1.0
vn 4.7165542582661146e-07 -8.100855097836757e-07 -1.0
vn 7.059158235733776e-08 3.062778546336631e-07 -1.0
vn 7.059158235733776e-08 3.062778546336631e-07 -1.0
vn 1.0359821800420832e-07 -5.58462375011004e-07 -1.0
vn 1.4595725872368348e-07 -6.136291972325125e-07 -1.0
vn 1.3030540912950528e-07 -7.431916060340882e-07 -1.0
vn 1.2321117992541986e-07 -7.305681606339931e-07 -1.0
vn -3.504435408530071e-09 -5.849946660418937e-07 -1.0
f 77/77/77 187/187/187 193/193/193
f 196/196/196 75/75/75 192/192/192
f 190/190/190 195/195/195 194/194/194
f 194/194/194 191/191/191 190/190/190
f 77/77/77 193/193/193 192/192/192
f 192/192/192 75/75/75 77/77/77
f 173/173/173 172/172/172 190/190/190
f 190/190/190 191/191/191 173/173/173
f 188/188/188 189/189/189 76/76/76
f 76/76/76 185/185/185 188/188/188
f 77/77/77 186/186/186 187/187/187
f 185/185/185 76/76/76 71/71/71
f 71/71/71 166/166/166 185/185/185
f 74/74/74 184/184/184 183/183/183
f 183/183/183 180/180/180 74/74/74
f 181/181/181 75/75/75 182/182/182
f 74/74/74 180/180/180 159/159/159
f 159/159/159 69/69/69 74/74/74
f 73/73/73 176/176/176 167/167/167
f 179/179/179 175/175/175 70/70/70
f 171/171/171 174/174/174 177/177/177
f 177/177/177 178/178/178 171/171/171
f 73/73/73 70/70/70 175/175/175
f 175/175/175 176/176/176 73/73/73
f 173/173/173 174/174/174 171/171/171
f 171/171/171 172/172/172 173/173/173
f 170/170/170 165/165/165 72/72/72
f 72/72/72 169/169/169 170/170/170
f 73/73/73 167/167/167 168/168/168
f 165/165/165 166/166/166 71/71/71
f 71/71/71 72/72/72 165/165/165
f 68/68/68 160/160/160 163/163/163
f 163/163/163 164/164/164 68/68/68
f 161/161/161 162/162/162 70/70/70
f 68/68/68 69/69/69 159/159/159
f 159/159/159 160/160/160 68/68/68
f 156/156/156 157/157/157 158/158/158
f 153/153/153 154/154/154 155/155/155
f 150/150/150 151/151/151 152/152/152
f 147/147/147 148/148/148 149/149/149
f 144/144/144 145/145/145 146/146/146
f 142/142/142 143/143/143 67/67/67
f 65/65/65 66/66/66 141/141/141
f 141/141/141 140/140/140 65/65/65
f 64/64/64 65/65/65 140/140/140
f 140/140/140 139/139/139 64/64/64
f 63/63/63 64/64/64 139/139/139
f 139/139/139 138/138/138 63/63/63
f 62/62/62 63/63/63 138/138/138
f 138/138/138 137/137/137 62/62/62
f 61/61/61 62/62/62 137/137/137
f 137/137/137 135/135/135 61/61/61
f 60/60/60 61/61/61 135/135/135
f 135/135/135 136/136/136 60/60/60
f 134/134/134 59/59/59 132/132/132
f 132/132/132 133/133/133 134/134/134
f 131/131/131 58/58/58 129/129/129
f 129/129/129 130/130/130 131/131/131
f 128/128/128 57/57/57 126/126/126
f 126/126/126 127/127/127 128/128/128
f 125/125/125 56/56/56 123/123/123
f 123/123/123 124/124/124 125/125/125
f 122/122/122 55/55/55 120/120/120
f 120/120/120 121/121/121 122/122/122
f 53/53/53 54/54/54 118/118/118
f 118/118/118 119/119/119 53/53/53
f 117/117/117 52/52/52 115/115/115
f 115/115/115 116/116/116 117/117/117
f 114/114/114 51/51/51 112/112/112
f 112/112/112 113/113/113 114/114/114
f 111/111/111 50/50/50 109/109/109
f 109/109/109 110/110/110 111/111/111
f 108/108/108 49/49/49 106/106/106
f 106/106/106 107/107/107 108/108/108
f 105/105/105 48/48/48 103/103/103
f 103/103/103 104/104/104 105/105/105
f 46/46/46 47/47/47 101/101/101
f 101/101/101 102/102/102 46/46/46
f 100/100/100 45/45/45 98/98/98
f 98/98/98 99/99/99 100/100/100
f 97/97/97 44/44/44 95/95/95
f 95/95/95 96/96/96 97/97/97
f 94/94/94 43/43/43 92/92/92
f 92/92/92 93/93/93 94/94/94
f 91/91/91 42/42/42 89/89/89
f 89/89/89 90/90/90 91/91/91
f 88/88/88 41/41/41 86/86/86
f 86/86/86 87/87/87 88/88/88
f 39/39/39 40/40/40 84/84/84
f 84/84/84 85/85/85 39/39/39
f 24/24/24 23/23/23 36/36/36
f 36/36/36 38/38/38 24/24/24
f 23/23/23 22/22/22 34/34/34
f 34/34/34 36/36/36 23/23/23
f 22/22/22 21/21/21 32/32/32
f 32/32/32 34/34/34 22/22/22
f 21/21/21 20/20/20 30/30/30
f 30/30/30 32/32/32 21/21/21
f 20/20/20 19/19/19 28/28/28
f 28/28/28 30/30/30 20/20/20
f 19/19/19 18/18/18 25/25/25
f 25/25/25 28/28/28 19/19/19
f 36/36/36 35/35/35 37/37/37
f 37/37/37 38/38/38 36/36/36
f 34/34/34 33/33/33 35/35/35
f 35/35/35 36/36/36 34/34/34
f 32/32/32 31/31/31 33/33/33
f 33/33/33 34/34/34 32/32/32
f 30/30/30 29/29/29 31/31/31
f 31/31/31 32/32/32 30/30/30
f 28/28/28 27/27/27 29/29/29
f 29/29/29 30/30/30 28/28/28
f 25/25/25 26/26/26 27/27/27
f 27/27/27 28/28/28 25/25/25
f 17/17/17 16/16/16 23/23/23
f 23/23/23 24/24/24 17/17/17
f 16/16/16 15/15/15 22/22/22
f 22/22/22 23/23/23 16/16/16
f 15/15/15 14/14/14 21/21/21
f 21/21/21 22/22/22 15/15/15
f 14/14/14 13/13/13 20/20/20
f 20/20/20 21/21/21 14/14/14
f 13/13/13 12/12/12 19/19/19
f 19/19/19 20/20/20 13/13/13
f 12/12/12 11/11/11 18/18/18
f 18/18/18 19/19/19 12/12/12
f 10/10/10 16/16/16 17/17/17
f 10/10/10 15/15/15 16/16/16
f 10/10/10 14/14/14 15/15/15
f 10/10/10 13/13/13 14/14/14
f 10/10/10 12/12/12 13/13/13
f 10/10/10 11/11/11 12/12/12
f 81/81/81 82/82/82 83/83/83
f 78/78/78 79/79/79 80/80/80
f 9/9/9 5/5/5 1/1/1
f 3/3/3 9/9/9 1/1/1
f 9/9/9 7/7/7 8/8/8
f 8/8/8 5/5/5 9/9/9
f 3/3/3 6/6/6 7/7/7
f 7/7/7 9/9/9 3/3/3
f 4/4/4 1/1/1 5/5/5
f 3/3/3 1/1/1 4/4/4
f 4/4/4 5/5/5 8/8/8
f 8/8/8 2/2/2 4/4/4
f 3/3/3 4/4/4 2/2/2
f 2/2/2 6/6/6 3/3/3
