# Recovered local-space geometry; original node transforms not applied
o mesh_0
v 27.495895385742188 -5.7220458984375e-06 -0.01676630973815918
v 33.151824951171875 -15.66660213470459 -0.01676464080810547
v 33.151824951171875 -13.567673683166504 -7.85005521774292
v 33.151824951171875 -7.8333024978637695 -13.58442497253418
v 33.151824951171875 -4.172325134277344e-05 -15.683349609375
v 33.151824951171875 7.8332929611206055 -13.58442497253418
v 33.151824951171875 13.567667007446289 -7.85005521774292
v 33.151824951171875 15.666592597961426 -0.016757965087890625
v 30.58857536315918 -28.875102996826172 -0.016764044761657715
v 30.58857536315918 -25.006572723388672 -14.454307556152344
v 30.58857536315918 -14.43755054473877 -25.023326873779297
v 30.588571548461914 -4.029273986816406e-05 -28.89185333251953
v 30.58857536315918 14.437541961669922 -25.02332305908203
v 30.58857536315918 25.00656509399414 -14.454307556152344
v 30.58857536315918 28.875091552734375 -0.0167618989944458
v 20.457244873046875 -38.63169860839844 -0.016760587692260742
v 4.4507904052734375 -41.988040924072266 -0.01675891876220703
v 4.450786590576172 -36.36269760131836 -21.01077651977539
v 20.457242965698242 -33.456031799316406 -19.33260726928711
v 4.450786590576172 -20.9940185546875 -36.379451751708984
v 20.457242965698242 -19.31584930419922 -33.472782135009766
v 4.450786590576172 -4.00543212890625e-05 -42.00478744506836
v 20.45724105834961 -3.981590270996094e-05 -38.6484489440918
v 4.450786590576172 20.994007110595703 -36.379459381103516
v 20.457242965698242 19.315837860107422 -33.472782135009766
v 4.450786590576172 36.36269760131836 -21.010772705078125
v 20.457242965698242 33.45602798461914 -19.332611083984375
v 4.4507904052734375 41.98802947998047 -0.016763925552368164
v 20.457244873046875 38.631690979003906 -0.016763925552368164
v -12.645530700683594 -37.92759704589844 -0.016758203506469727
v -12.64553451538086 -32.84626388549805 -18.980552673339844
v -12.645538330078125 -18.963794708251953 -32.86302185058594
v -12.645538330078125 -4.124641418457031e-05 -37.9443473815918
v -12.645538330078125 18.963790893554688 -32.86301803588867
v -12.64553451538086 32.84626007080078 -18.980552673339844
v -12.645530700683594 37.927589416503906 -0.0167616605758667
v -32.07029724121094 -26.22899627685547 -0.016759634017944336
v -32.07029724121094 -22.71497344970703 -13.131248474121094
v -32.07029724121094 -13.114494323730469 -22.731727600097656
v -32.07029724121094 -4.3392181396484375e-05 -26.245742797851562
v -32.07029724121094 13.11449146270752 -22.73172378540039
v -32.07029724121094 22.714969635009766 -13.131246566772461
v -32.07029724121094 26.228988647460938 -0.01675736904144287
v -37.444374084472656 -17.319652557373047 -0.016759037971496582
v -37.444374084472656 -14.999255180358887 -8.676576614379883
v -37.444374084472656 -8.659823417663574 -15.016006469726562
v -37.44438171386719 -4.458427429199219e-05 -17.33639907836914
v -37.444374084472656 8.659822463989258 -15.016006469726562
v -37.444374084472656 14.99925422668457 -8.67657470703125
v -37.444374084472656 17.31964874267578 -0.0167543888092041
v -37.44438171386719 -10.152545928955078 -0.016762852668762207
v -37.444374084472656 -8.792357444763184 -5.093021869659424
v -37.444374084472656 -5.076268196105957 -8.80910873413086
v -37.44438171386719 -4.5299530029296875e-05 -10.169288635253906
v -37.444374084472656 5.076269626617432 -8.809106826782227
v -37.444374084472656 8.792356491088867 -5.093020439147949
v -37.444374084472656 10.15254020690918 -0.016752958297729492
v -33.70574951171875 -2.002716064453125e-05 -0.016758322715759277
v 13.585914611816406 15.845834732055664 -0.01675558090209961
v 14.788028717041016 -5.4836273193359375e-06 -0.016765475273132324
v 7.686412811279297 28.926830291748047 -0.01676023006439209
v -19.233562469482422 3.552436828613281e-05 -0.016768217086791992
v -18.87655258178711 13.998754501342773 -0.016753554344177246
v -16.088150024414062 26.217506408691406 -0.01675891876220703
v 13.585914611816406 -15.84584903717041 -0.01677262783050537
v 7.686412811279297 -28.926837921142578 -0.01676487922668457
v -18.87655258178711 -13.998764991760254 -0.016770124435424805
v -16.088150024414062 -26.217517852783203 -0.016762971878051758
v 4.450786590576172 -36.36269760131836 -21.01077651977539
v 4.4507904052734375 -41.988040924072266 -0.01675891876220703
v 4.450786590576172 -20.9940185546875 -36.379451751708984
v 4.450786590576172 -36.36269760131836 -21.01077651977539
v -12.64553451538086 -32.84626388549805 -18.980552673339844
v 4.450786590576172 -4.00543212890625e-05 -42.00478744506836
v 4.450786590576172 -20.9940185546875 -36.379451751708984
v -12.645538330078125 -18.963794708251953 -32.86302185058594
v 4.450786590576172 20.994007110595703 -36.379459381103516
v 4.450786590576172 -4.00543212890625e-05 -42.00478744506836
v -12.645538330078125 -4.124641418457031e-05 -37.9443473815918
v 4.450786590576172 36.36269760131836 -21.010772705078125
v 4.450786590576172 20.994007110595703 -36.379459381103516
v -12.645538330078125 18.963790893554688 -32.86301803588867
v 4.4507904052734375 41.98802947998047 -0.016763925552368164
v 4.450786590576172 36.36269760131836 -21.010772705078125
v -12.64553451538086 32.84626007080078 -18.980552673339844
v -12.64553451538086 -32.84626388549805 -18.980552673339844
v -12.645530700683594 -37.92759704589844 -0.016758203506469727
v -12.645538330078125 -18.963794708251953 -32.86302185058594
v -12.64553451538086 -32.84626388549805 -18.980552673339844
v -32.07029724121094 -22.71497344970703 -13.131248474121094
v -12.645538330078125 -4.124641418457031e-05 -37.9443473815918
v -12.645538330078125 -18.963794708251953 -32.86302185058594
v -32.07029724121094 -13.114494323730469 -22.731727600097656
v -12.645538330078125 18.963790893554688 -32.86301803588867
v -12.645538330078125 -4.124641418457031e-05 -37.9443473815918
v -32.07029724121094 -4.3392181396484375e-05 -26.245742797851562
v -12.64553451538086 32.84626007080078 -18.980552673339844
v -12.645538330078125 18.963790893554688 -32.86301803588867
v -32.07029724121094 13.11449146270752 -22.73172378540039
v -12.645530700683594 37.927589416503906 -0.0167616605758667
v -12.64553451538086 32.84626007080078 -18.980552673339844
v -32.07029724121094 22.714969635009766 -13.131246566772461
v -32.07029724121094 -22.71497344970703 -13.131248474121094
v -32.07029724121094 -26.22899627685547 -0.016759634017944336
v -32.07029724121094 -13.114494323730469 -22.731727600097656
v -32.07029724121094 -22.71497344970703 -13.131248474121094
v -37.444374084472656 -14.999255180358887 -8.676576614379883
v -32.07029724121094 -4.3392181396484375e-05 -26.245742797851562
v -32.07029724121094 -13.114494323730469 -22.731727600097656
v -37.444374084472656 -8.659823417663574 -15.016006469726562
v -32.07029724121094 13.11449146270752 -22.73172378540039
v -32.07029724121094 -4.3392181396484375e-05 -26.245742797851562
v -37.44438171386719 -4.458427429199219e-05 -17.33639907836914
v -32.07029724121094 22.714969635009766 -13.131246566772461
v -32.07029724121094 13.11449146270752 -22.73172378540039
v -37.444374084472656 8.659822463989258 -15.016006469726562
v -32.07029724121094 26.228988647460938 -0.01675736904144287
v -32.07029724121094 22.714969635009766 -13.131246566772461
v -37.444374084472656 14.99925422668457 -8.67657470703125
v -37.444374084472656 -14.999255180358887 -8.676576614379883
v -37.444374084472656 -17.319652557373047 -0.016759037971496582
v -37.444374084472656 -8.659823417663574 -15.016006469726562
v -37.44438171386719 -4.458427429199219e-05 -17.33639907836914
v -37.444374084472656 8.659822463989258 -15.016006469726562
v -37.444374084472656 14.99925422668457 -8.67657470703125
v -37.444374084472656 17.31964874267578 -0.0167543888092041
v -37.444374084472656 -8.792357444763184 -5.093021869659424
v -37.44438171386719 -10.152545928955078 -0.016762852668762207
v -37.444374084472656 -5.076268196105957 -8.80910873413086
v -37.444374084472656 -8.792357444763184 -5.093021869659424
v -33.70574951171875 -2.002716064453125e-05 -0.016758322715759277
v -37.44438171386719 -4.5299530029296875e-05 -10.169288635253906
v -37.444374084472656 -5.076268196105957 -8.80910873413086
v -33.70574951171875 -2.002716064453125e-05 -0.016758322715759277
v -37.444374084472656 5.076269626617432 -8.809106826782227
v -37.44438171386719 -4.5299530029296875e-05 -10.169288635253906
v -33.70574951171875 -2.002716064453125e-05 -0.016758322715759277
v -37.444374084472656 8.792356491088867 -5.093020439147949
v -37.444374084472656 5.076269626617432 -8.809106826782227
v -33.70574951171875 -2.002716064453125e-05 -0.016758322715759277
v -37.444374084472656 10.15254020690918 -0.016752958297729492
v -37.444374084472656 8.792356491088867 -5.093020439147949
v -33.70574951171875 -2.002716064453125e-05 -0.016758322715759277
v 27.495895385742188 -5.7220458984375e-06 -0.01676630973815918
v 33.151824951171875 15.666592597961426 -0.016757965087890625
v 30.58857536315918 28.875091552734375 -0.0167618989944458
v 20.457244873046875 38.631690979003906 -0.016763925552368164
v 30.58857536315918 28.875091552734375 -0.0167618989944458
v 7.686412811279297 28.926830291748047 -0.01676023006439209
v -37.444374084472656 10.15254020690918 -0.016752958297729492
v -33.70574951171875 -2.002716064453125e-05 -0.016758322715759277
v -32.07029724121094 26.228988647460938 -0.01675736904144287
v -37.444374084472656 17.31964874267578 -0.0167543888092041
v -16.088150024414062 26.217506408691406 -0.01675891876220703
v -37.444374084472656 17.31964874267578 -0.0167543888092041
v -18.87655258178711 13.998754501342773 -0.016753554344177246
v -19.233562469482422 3.552436828613281e-05 -0.016768217086791992
v 14.788028717041016 -5.4836273193359375e-06 -0.016765475273132324
v 13.585914611816406 15.845834732055664 -0.01675558090209961
v 4.4507904052734375 41.98802947998047 -0.016763925552368164
v -12.645530700683594 37.927589416503906 -0.0167616605758667
v 7.686412811279297 28.926830291748047 -0.01676023006439209
v -16.088150024414062 26.217506408691406 -0.01675891876220703
v 20.457244873046875 38.631690979003906 -0.016763925552368164
v 33.151824951171875 -15.66660213470459 -0.01676464080810547
v 30.58857536315918 -28.875102996826172 -0.016764044761657715
v 20.457244873046875 -38.63169860839844 -0.016760587692260742
v 30.58857536315918 -28.875102996826172 -0.016764044761657715
v 7.686412811279297 -28.926837921142578 -0.01676487922668457
v -37.44438171386719 -10.152545928955078 -0.016762852668762207
v -37.444374084472656 -17.319652557373047 -0.016759037971496582
v -32.07029724121094 -26.22899627685547 -0.016759634017944336
v -37.444374084472656 -17.319652557373047 -0.016759037971496582
v -16.088150024414062 -26.217517852783203 -0.016762971878051758
v -18.87655258178711 -13.998764991760254 -0.016770124435424805
v 13.585914611816406 -15.84584903717041 -0.01677262783050537
v 4.4507904052734375 -41.988040924072266 -0.01675891876220703
v -12.645530700683594 -37.92759704589844 -0.016758203506469727
v 7.686412811279297 -28.926837921142578 -0.01676487922668457
v -16.088150024414062 -26.217517852783203 -0.016762971878051758
v 20.457244873046875 -38.63169860839844 -0.016760587692260742
vt 0.5608605146408081 0.3781927824020386
vt 0.5874330997467041 0.39295071363449097
vt 0.5804615616798401 0.3945079445838928
vt 0.5718295574188232 0.39506852626800537
vt 0.5630111694335938 0.39506852626800537
vt 0.5549976825714111 0.39506852626800537
vt 0.5467015504837036 0.39298659563064575
vt 0.5387930870056152 0.39303648471832275
vt 0.6037136316299438 0.402563214302063
vt 0.5953343510627747 0.40449702739715576
vt 0.5795111656188965 0.40503793954849243
vt 0.5639668107032776 0.40503793954849243
vt 0.5487809181213379 0.40503793954849243
vt 0.5352001190185547 0.4042215347290039
vt 0.5229260325431824 0.39958202838897705
vt 0.6117774248123169 0.41423624753952026
vt 0.6146606802940369 0.43472617864608765
vt 0.600832462310791 0.4305819272994995
vt 0.6012312173843384 0.41547858715057373
vt 0.5854367613792419 0.4353390336036682
vt 0.5837358832359314 0.4167519211769104
vt 0.5639671683311462 0.4353390336036682
vt 0.5639671683311462 0.4167519211769104
vt 0.542879045009613 0.4353390336036682
vt 0.5445799827575684 0.4167519211769104
vt 0.527414858341217 0.4346587657928467
vt 0.5289800763130188 0.41448450088500977
vt 0.5130424499511719 0.43380892276763916
vt 0.5150753855705261 0.41292810440063477
vt 0.6142075657844543 0.45808249711990356
vt 0.6023660898208618 0.4546809196472168
vt 0.587738573551178 0.45230960845947266
vt 0.5641939043998718 0.45140522718429565
vt 0.5449367761611938 0.45140522718429565
vt 0.5303266644477844 0.4493156671524048
vt 0.515245258808136 0.4566112160682678
vt 0.6004968881607056 0.477561891078949
vt 0.5904844999313354 0.47260230779647827
vt 0.5787383913993835 0.4687817692756653
vt 0.563606321811676 0.46824032068252563
vt 0.5488946437835693 0.46920448541641235
vt 0.5394784212112427 0.4727994203567505
vt 0.5263925194740295 0.47563469409942627
vt 0.5912973880767822 0.4853883385658264
vt 0.5851725935935974 0.4808575510978699
vt 0.5747653841972351 0.4770117998123169
vt 0.5639702677726746 0.47779810428619385
vt 0.5519513487815857 0.47838765382766724
vt 0.5467804074287415 0.48347824811935425
vt 0.5363273620605469 0.48509353399276733
vt 0.5760012269020081 0.49306172132492065
vt 0.5724667906761169 0.4903566241264343
vt 0.569303035736084 0.4894525408744812
vt 0.5639671683311462 0.4894525408744812
vt 0.559012770652771 0.4894525408744812
vt 0.5553969144821167 0.49065810441970825
vt 0.5522211790084839 0.49291110038757324
vt 0.5639722347259521 0.4970938563346863
vt 0.5531392693519592 0.3742474913597107
vt 0.5626915097236633 0.3742477297782898
vt 0.5294259786605835 0.3742477297782898
vt 0.5038692951202393 0.37424784898757935
vt 0.5145295262336731 0.3742474317550659
vt 0.5294259190559387 0.3742477297782898
vt 0.5531392693519592 0.3742474913597107
vt 0.5294259786605835 0.3742477297782898
vt 0.5145295262336731 0.3742474317550659
vt 0.5294259190559387 0.3742477297782898
vt 0.600832462310791 0.4305819272994995
vt 0.6146606802940369 0.43472617864608765
vt 0.5854367613792419 0.4353390336036682
vt 0.600832462310791 0.4305819272994995
vt 0.6023660898208618 0.4546809196472168
vt 0.5639671683311462 0.4353390336036682
vt 0.5854367613792419 0.4353390336036682
vt 0.587738573551178 0.45230960845947266
vt 0.542879045009613 0.4353390336036682
vt 0.5639671683311462 0.4353390336036682
vt 0.5641939043998718 0.45140522718429565
vt 0.527414858341217 0.4346587657928467
vt 0.542879045009613 0.4353390336036682
vt 0.5449367761611938 0.45140522718429565
vt 0.5130424499511719 0.43380892276763916
vt 0.527414858341217 0.4346587657928467
vt 0.5303266644477844 0.4493156671524048
vt 0.6023660898208618 0.4546809196472168
vt 0.6142075657844543 0.45808249711990356
vt 0.587738573551178 0.45230960845947266
vt 0.6023660898208618 0.4546809196472168
vt 0.5904844999313354 0.47260230779647827
vt 0.5641939043998718 0.45140522718429565
vt 0.587738573551178 0.45230960845947266
vt 0.5787383913993835 0.4687817692756653
vt 0.5449367761611938 0.45140522718429565
vt 0.5641939043998718 0.45140522718429565
vt 0.563606321811676 0.46824032068252563
vt 0.5303266644477844 0.4493156671524048
vt 0.5449367761611938 0.45140522718429565
vt 0.5488946437835693 0.46920448541641235
vt 0.515245258808136 0.4566112160682678
vt 0.5303266644477844 0.4493156671524048
vt 0.5394784212112427 0.4727994203567505
vt 0.5904844999313354 0.47260230779647827
vt 0.6004968881607056 0.477561891078949
vt 0.5787383913993835 0.4687817692756653
vt 0.5904844999313354 0.47260230779647827
vt 0.5851725935935974 0.4808575510978699
vt 0.563606321811676 0.46824032068252563
vt 0.5787383913993835 0.4687817692756653
vt 0.5747653841972351 0.4770117998123169
vt 0.5488946437835693 0.46920448541641235
vt 0.563606321811676 0.46824032068252563
vt 0.5639702677726746 0.47779810428619385
vt 0.5394784212112427 0.4727994203567505
vt 0.5488946437835693 0.46920448541641235
vt 0.5519513487815857 0.47838765382766724
vt 0.5263925194740295 0.47563469409942627
vt 0.5394784212112427 0.4727994203567505
vt 0.5467804074287415 0.48347824811935425
vt 0.5851725935935974 0.4808575510978699
vt 0.5912973880767822 0.4853883385658264
vt 0.5747653841972351 0.4770117998123169
vt 0.5639702677726746 0.47779810428619385
vt 0.5519513487815857 0.47838765382766724
vt 0.5467804074287415 0.48347824811935425
vt 0.5363273620605469 0.48509353399276733
vt 0.5724667906761169 0.4903566241264343
vt 0.5760012269020081 0.49306172132492065
vt 0.569303035736084 0.4894525408744812
vt 0.5724667906761169 0.4903566241264343
vt 0.5639722347259521 0.4970938563346863
vt 0.5639671683311462 0.4894525408744812
vt 0.569303035736084 0.4894525408744812
vt 0.5639722347259521 0.4970938563346863
vt 0.559012770652771 0.4894525408744812
vt 0.5639671683311462 0.4894525408744812
vt 0.5639722347259521 0.4970938563346863
vt 0.5553969144821167 0.49065810441970825
vt 0.559012770652771 0.4894525408744812
vt 0.5639722347259521 0.4970938563346863
vt 0.5522211790084839 0.49291110038757324
vt 0.5553969144821167 0.49065810441970825
vt 0.5639722347259521 0.4970938563346863
vt 0.5627158284187317 0.3135365843772888
vt 0.5531389117240906 0.31353336572647095
vt 0.5294207334518433 0.3135365843772888
vt 0.5314879417419434 0.31353336572647095
vt 0.5384981036186218 0.3135365843772888
vt 0.5385225415229797 0.3742477297782898
vt 0.5145295858383179 0.31353992223739624
vt 0.5038436055183411 0.31353819370269775
vt 0.5314879417419434 0.31356531381607056
vt 0.5294209122657776 0.3135044574737549
vt 0.5252084732055664 0.37424784898757935
vt 0.5252086520195007 0.31353819370269775
vt 0.5661777853965759 0.3521864414215088
vt 0.5655682682991028 0.3742471933364868
vt 0.6236385703086853 0.3742471933364868
vt 0.6215867400169373 0.3503348231315613
vt 0.5314879417419434 0.31353336572647095
vt 0.5294207334518433 0.3135368227958679
vt 0.6130656599998474 0.32715660333633423
vt 0.5744214653968811 0.3290752172470093
vt 0.5294207334518433 0.3135365843772888
vt 0.5531389117240906 0.3135335445404053
vt 0.5294207334518433 0.3135365843772888
vt 0.5314879417419434 0.31353336572647095
vt 0.5384981036186218 0.3135365843772888
vt 0.5385225415229797 0.3742477297782898
vt 0.5145295858383179 0.31353992223739624
vt 0.5294209122657776 0.3135044574737549
vt 0.5314879417419434 0.31356531381607056
vt 0.5252086520195007 0.31353819370269775
vt 0.5252084732055664 0.37424784898757935
vt 0.5661776661872864 0.352186381816864
vt 0.6215866208076477 0.35033464431762695
vt 0.5314879417419434 0.31353336572647095
vt 0.5294207334518433 0.31353574991226196
vt 0.6130656599998474 0.3271564245223999
vt 0.5744213461875916 0.3290750980377197
vt 0.5294207334518433 0.3135365843772888
vn 0.9722372889518738 1.39196600912328e-07 0.2339971512556076
vn 0.9968252182006836 0.07690799236297607 0.02060748264193535
vn 0.9997037053108215 0.013689948245882988 0.020126787945628166
vn 0.9997037053108215 0.0017925279680639505 0.024275293573737144
vn 0.9997037053108215 -0.010585208423435688 0.021919211372733116
vn 0.9997037053108215 -0.020126773044466972 0.013689936138689518
vn 0.9997037053108215 -0.024275239557027817 0.0017924627754837275
vn 0.9998855590820312 0.01461322233080864 -0.003915591165423393
vn 0.9199132323265076 -0.37876078486442566 -0.10148873180150986
vn 0.8795763254165649 -0.42369651794433594 -0.21639488637447357
vn 0.8795762658119202 -0.2587346136569977 -0.3992518186569214
vn 0.8795762658119202 -0.02444513700902462 -0.47512951493263245
vn 0.8795763850212097 0.21639463305473328 -0.4236967861652374
vn 0.8795763850212097 0.3992515802383423 -0.2587346136569977
vn 0.8156903982162476 0.5587772130966187 -0.1497238278388977
vn 0.4569334089756012 -0.8591919541358948 -0.2302200198173523
vn 0.1985110193490982 -0.9467025399208069 -0.25366881489753723
vn 0.2044435292482376 -0.8879137635231018 -0.4120824933052063
vn 0.468092679977417 -0.7229472994804382 -0.5081697702407837
vn 0.20444346964359283 -0.5629149079322815 -0.800830602645874
vn 0.46809273958206177 -0.3720061480998993 -0.8015613555908203
vn 0.20444370806217194 -0.08708377182483673 -0.9749970436096191
vn 0.46809297800064087 0.07861368358135223 -0.8801755905151367
vn 0.20444388687610626 0.4120819568634033 -0.8879139423370361
vn 0.46809282898902893 0.5081692337989807 -0.7229475378990173
vn 0.20444349944591522 0.8008304238319397 -0.5629151463508606
vn 0.4680928587913513 0.8015612959861755 -0.3720061182975769
vn 0.19851060211658478 0.9467026591300964 -0.25366827845573425
vn 0.45693355798721313 0.8591918349266052 -0.23021969199180603
vn -0.22360259294509888 -0.9414688348770142 -0.25226637721061707
vn -0.22360192239284515 -0.941469132900238 -0.2522658407688141
vn -0.22360198199748993 -0.6892033219337463 -0.6892032027244568
vn -0.2236023247241974 -0.2522660195827484 -0.9414690136909485
vn -0.22360211610794067 0.25226521492004395 -0.9414692521095276
vn -0.22360216081142426 0.689203143119812 -0.6892033219337463
vn -0.22360245883464813 0.9414690732955933 -0.25226569175720215
vn -0.5028370022773743 -0.8349282145500183 -0.22371824085712433
vn -0.5028373003005981 -0.8349279165267944 -0.22371862828731537
vn -0.5028373599052429 -0.6112097501754761 -0.6112097501754761
vn -0.5028372406959534 -0.22371885180473328 -0.834928035736084
vn -0.5028373599052429 0.22371770441532135 -0.8349281549453735
vn -0.5028373003005981 0.6112097501754761 -0.6112098097801208
vn -0.5028370022773743 0.8349281549453735 -0.22371844947338104
vn -0.8481988310813904 -0.5116297602653503 -0.1370910108089447
vn -0.8481988906860352 -0.5116296410560608 -0.13709111511707306
vn -0.8481988310813904 -0.3745388686656952 -0.37453892827033997
vn -0.8481982350349426 -0.13709233701229095 -0.5116301774978638
vn -0.8481987118721008 0.13709084689617157 -0.5116298198699951
vn -0.8481987118721008 0.3745390474796295 -0.3745390474796295
vn -0.848198652267456 0.5116298794746399 -0.13709096610546112
vn -1.0 -1.0645014754118165e-06 -2.852330851510487e-07
vn -1.0 7.514776712014282e-07 -1.3015970807828126e-06
vn -1.0 0.0 0.0
vn -1.0 -1.5029667110866285e-06 -1.499914829925647e-13
vn -1.0 1.3015855984122027e-06 7.514702815569763e-07
vn -1.0 0.0 0.0
vn -1.0 0.0 0.0
vn -0.9343993663787842 0.3440892696380615 0.09219765663146973
vn 1.1658901399869137e-07 -5.747303362113598e-07 1.0
vn 6.566522614548376e-08 -6.194328534547822e-07 1.0
vn 7.351386699383511e-08 2.840489230493404e-07 1.0
vn 2.503936684661312e-07 -1.053820483321033e-06 1.0
vn 2.503936684661312e-07 -1.053820483321033e-06 1.0
vn 9.716394799852424e-08 2.7589763362811937e-07 1.0
vn 6.566522614548376e-08 -4.563653703826276e-07 1.0
vn -3.73240496287508e-08 3.930891239178891e-07 1.0
vn 3.6533896263790666e-07 -1.2693365647464816e-07 1.0
vn 2.0880685269730748e-07 5.905010880269401e-08 1.0
vn -0.22360259294509888 -0.9414688348770142 -0.25226637721061707
vn -0.22360259294509888 -0.9414688348770142 -0.25226637721061707
vn -0.22360216081142426 -0.689203143119812 -0.6892033219337463
vn -0.22360216081142426 -0.689203143119812 -0.6892033219337463
vn -0.22360216081142426 -0.689203143119812 -0.6892033219337463
vn -0.22360169887542725 -0.2522665858268738 -0.9414690136909485
vn -0.22360169887542725 -0.2522665858268738 -0.9414690136909485
vn -0.22360169887542725 -0.2522665858268738 -0.9414690136909485
vn -0.22360239923000336 0.25226545333862305 -0.941469132900238
vn -0.22360239923000336 0.25226545333862305 -0.941469132900238
vn -0.22360239923000336 0.25226545333862305 -0.941469132900238
vn -0.22360211610794067 0.6892030835151672 -0.6892033219337463
vn -0.22360211610794067 0.6892030835151672 -0.6892033219337463
vn -0.22360211610794067 0.6892030835151672 -0.6892033219337463
vn -0.2236020714044571 0.9414690732955933 -0.252265989780426
vn -0.2236020714044571 0.9414690732955933 -0.252265989780426
vn -0.2236020714044571 0.9414690732955933 -0.252265989780426
vn -0.5028370022773743 -0.8349282145500183 -0.22371824085712433
vn -0.5028370022773743 -0.8349282145500183 -0.22371824085712433
vn -0.5028372406959534 -0.6112098097801208 -0.6112096905708313
vn -0.5028372406959534 -0.6112098097801208 -0.6112096905708313
vn -0.5028372406959534 -0.6112098097801208 -0.6112096905708313
vn -0.5028374195098877 -0.22371838986873627 -0.8349279165267944
vn -0.5028374195098877 -0.22371838986873627 -0.8349279165267944
vn -0.5028374195098877 -0.22371838986873627 -0.8349279165267944
vn -0.5028373599052429 0.22371768951416016 -0.8349281549453735
vn -0.5028373599052429 0.22371768951416016 -0.8349281549453735
vn -0.5028373599052429 0.22371768951416016 -0.8349281549453735
vn -0.5028373599052429 0.6112097501754761 -0.6112097501754761
vn -0.5028373599052429 0.6112097501754761 -0.6112097501754761
vn -0.5028373599052429 0.6112097501754761 -0.6112097501754761
vn -0.5028371810913086 0.8349281549453735 -0.2237180769443512
vn -0.5028371810913086 0.8349281549453735 -0.2237180769443512
vn -0.5028371810913086 0.8349281549453735 -0.2237180769443512
vn -0.8481988310813904 -0.5116297602653503 -0.1370910108089447
vn -0.8481988310813904 -0.5116297602653503 -0.1370910108089447
vn -0.8481987714767456 -0.37453895807266235 -0.37453895807266235
vn -0.8481987714767456 -0.37453895807266235 -0.37453895807266235
vn -0.8481987714767456 -0.37453895807266235 -0.37453895807266235
vn -0.8481988310813904 -0.13709105551242828 -0.5116295218467712
vn -0.8481988310813904 -0.13709105551242828 -0.5116295218467712
vn -0.8481988310813904 -0.13709105551242828 -0.5116295218467712
vn -0.8481985926628113 0.1370905488729477 -0.5116302967071533
vn -0.8481985926628113 0.1370905488729477 -0.5116302967071533
vn -0.8481985926628113 0.1370905488729477 -0.5116302967071533
vn -0.8481987118721008 0.37453901767730713 -0.3745390772819519
vn -0.8481987118721008 0.37453901767730713 -0.3745390772819519
vn -0.8481987118721008 0.37453901767730713 -0.3745390772819519
vn -0.8481987118721008 0.5116298198699951 -0.13709087669849396
vn -0.8481987118721008 0.5116298198699951 -0.13709087669849396
vn -0.8481987118721008 0.5116298198699951 -0.13709087669849396
vn -1.0 -1.0645014754118165e-06 -2.852330851510487e-07
vn -1.0 -1.0645014754118165e-06 -2.852330851510487e-07
vn -1.0 0.0 0.0
vn -1.0 -7.629807896591956e-07 4.405073070756771e-07
vn -1.0 8.810059739516873e-07 8.792170821687179e-14
vn -1.0 0.0 0.0
vn -1.0 0.0 0.0
vn -0.9343993663787842 0.3440892696380615 0.09219765663146973
vn -0.9343993663787842 0.3440892696380615 0.09219765663146973
vn -0.9343995451927185 0.25189048051834106 0.2518905997276306
vn -0.9343995451927185 0.25189048051834106 0.2518905997276306
vn -0.9343995451927185 0.25189048051834106 0.2518905997276306
vn -0.9343994855880737 0.09219764173030853 0.34408897161483765
vn -0.9343994855880737 0.09219764173030853 0.34408897161483765
vn -0.9343994855880737 0.09219764173030853 0.34408897161483765
vn -0.9343995451927185 -0.09219622611999512 0.34408941864967346
vn -0.9343995451927185 -0.09219622611999512 0.34408941864967346
vn -0.9343995451927185 -0.09219622611999512 0.34408941864967346
vn -0.9343997836112976 -0.2518899142742157 0.2518899142742157
vn -0.9343997836112976 -0.2518899142742157 0.2518899142742157
vn -0.9343997836112976 -0.2518899142742157 0.2518899142742157
vn -0.9343999028205872 -0.344087690114975 0.09219814836978912
vn -0.9343999028205872 -0.344087690114975 0.09219814836978912
vn -0.9343999028205872 -0.344087690114975 0.09219814836978912
vn 1.1658901399869137e-07 -5.747303362113598e-07 1.0
vn 1.1658901399869137e-07 -5.747303362113598e-07 1.0
vn 7.351386699383511e-08 2.840489230493404e-07 1.0
vn 7.351386699383511e-08 2.840489230493404e-07 1.0
vn 7.375022192945835e-08 3.8867469243086816e-07 1.0
vn 7.375022192945835e-08 3.8867469243086816e-07 1.0
vn 2.503936684661312e-07 -1.053820483321033e-06 1.0
vn 6.83682742419478e-07 -2.7661835133585555e-07 1.0
vn 9.716394799852424e-08 2.7589763362811937e-07 1.0
vn 9.716394799852424e-08 2.7589763362811937e-07 1.0
vn 3.2263415050692856e-08 4.3166880914213834e-07 1.0
vn 3.2263415050692856e-08 4.3166880914213834e-07 1.0
vn -8.059166844986976e-08 -1.0453793493070407e-06 1.0
vn -8.059166844986976e-08 -1.0453793493070407e-06 1.0
vn -8.059166844986976e-08 -1.0453793493070407e-06 1.0
vn 9.753523499966832e-08 -6.170150754769566e-07 1.0
vn 8.264433404292504e-08 2.098448703691247e-07 1.0
vn 8.264433404292504e-08 2.098448703691247e-07 1.0
vn 5.2609241407708396e-09 4.3783100522887253e-07 1.0
vn 5.2609241407708396e-09 4.3783100522887253e-07 1.0
vn 6.257861429048717e-08 2.984388061122445e-07 1.0
vn -4.078382289662841e-07 -4.070911785447606e-08 1.0
vn -3.73240496287508e-08 3.930891239178891e-07 1.0
vn -3.73240496287508e-08 3.930891239178891e-07 1.0
vn -4.0935233869277e-07 1.2456507647584658e-07 1.0
vn -3.7812707631701414e-08 6.094095397202182e-07 1.0
vn 6.836845045654627e-07 -6.979541922191856e-07 1.0
vn 2.0880685269730748e-07 5.905010880269401e-08 1.0
vn 2.0880685269730748e-07 5.905010880269401e-08 1.0
vn 5.018853244109778e-07 5.32251249296678e-07 1.0
vn 4.73075346008045e-07 6.933344707249489e-07 1.0
vn 5.121222201864839e-08 -4.552689745196403e-07 1.0
vn 5.121222201864839e-08 -4.552689745196403e-07 1.0
vn 1.286009023715451e-07 4.2449084958207095e-07 1.0
vn 1.4894908417772967e-07 4.5099153567207395e-07 1.0
vn 1.0804843952882948e-07 5.436264700620086e-07 1.0
vn 1.5085836935213592e-07 6.198022788339586e-07 1.0
vn 9.045623805548075e-09 4.541080045328272e-07 1.0
f 68/68/68 172/172/172 178/178/178
f 181/181/181 66/66/66 177/177/177
f 175/175/175 180/180/180 179/179/179
f 179/179/179 176/176/176 175/175/175
f 68/68/68 178/178/178 177/177/177
f 177/177/177 66/66/66 68/68/68
f 158/158/158 157/157/157 175/175/175
f 175/175/175 176/176/176 158/158/158
f 173/173/173 174/174/174 67/67/67
f 67/67/67 170/170/170 173/173/173
f 68/68/68 171/171/171 172/172/172
f 170/170/170 67/67/67 62/62/62
f 62/62/62 151/151/151 170/170/170
f 65/65/65 169/169/169 168/168/168
f 168/168/168 165/165/165 65/65/65
f 166/166/166 66/66/66 167/167/167
f 65/65/65 165/165/165 144/144/144
f 144/144/144 60/60/60 65/65/65
f 64/64/64 161/161/161 152/152/152
f 164/164/164 160/160/160 61/61/61
f 156/156/156 159/159/159 162/162/162
f 162/162/162 163/163/163 156/156/156
f 64/64/64 61/61/61 160/160/160
f 160/160/160 161/161/161 64/64/64
f 158/158/158 159/159/159 156/156/156
f 156/156/156 157/157/157 158/158/158
f 155/155/155 150/150/150 63/63/63
f 63/63/63 154/154/154 155/155/155
f 64/64/64 152/152/152 153/153/153
f 150/150/150 151/151/151 62/62/62
f 62/62/62 63/63/63 150/150/150
f 59/59/59 145/145/145 148/148/148
f 148/148/148 149/149/149 59/59/59
f 146/146/146 147/147/147 61/61/61
f 59/59/59 60/60/60 144/144/144
f 144/144/144 145/145/145 59/59/59
f 141/141/141 142/142/142 143/143/143
f 138/138/138 139/139/139 140/140/140
f 135/135/135 136/136/136 137/137/137
f 132/132/132 133/133/133 134/134/134
f 129/129/129 130/130/130 131/131/131
f 127/127/127 128/128/128 58/58/58
f 56/56/56 57/57/57 126/126/126
f 126/126/126 125/125/125 56/56/56
f 55/55/55 56/56/56 125/125/125
f 125/125/125 124/124/124 55/55/55
f 54/54/54 55/55/55 124/124/124
f 124/124/124 123/123/123 54/54/54
f 53/53/53 54/54/54 123/123/123
f 123/123/123 122/122/122 53/53/53
f 52/52/52 53/53/53 122/122/122
f 122/122/122 120/120/120 52/52/52
f 51/51/51 52/52/52 120/120/120
f 120/120/120 121/121/121 51/51/51
f 119/119/119 50/50/50 117/117/117
f 117/117/117 118/118/118 119/119/119
f 116/116/116 49/49/49 114/114/114
f 114/114/114 115/115/115 116/116/116
f 113/113/113 48/48/48 111/111/111
f 111/111/111 112/112/112 113/113/113
f 110/110/110 47/47/47 108/108/108
f 108/108/108 109/109/109 110/110/110
f 107/107/107 46/46/46 105/105/105
f 105/105/105 106/106/106 107/107/107
f 44/44/44 45/45/45 103/103/103
f 103/103/103 104/104/104 44/44/44
f 102/102/102 43/43/43 100/100/100
f 100/100/100 101/101/101 102/102/102
f 99/99/99 42/42/42 97/97/97
f 97/97/97 98/98/98 99/99/99
f 96/96/96 41/41/41 94/94/94
f 94/94/94 95/95/95 96/96/96
f 93/93/93 40/40/40 91/91/91
f 91/91/91 92/92/92 93/93/93
f 90/90/90 39/39/39 88/88/88
f 88/88/88 89/89/89 90/90/90
f 37/37/37 38/38/38 86/86/86
f 86/86/86 87/87/87 37/37/37
f 85/85/85 36/36/36 83/83/83
f 83/83/83 84/84/84 85/85/85
f 82/82/82 35/35/35 80/80/80
f 80/80/80 81/81/81 82/82/82
f 79/79/79 34/34/34 77/77/77
f 77/77/77 78/78/78 79/79/79
f 76/76/76 33/33/33 74/74/74
f 74/74/74 75/75/75 76/76/76
f 73/73/73 32/32/32 71/71/71
f 71/71/71 72/72/72 73/73/73
f 30/30/30 31/31/31 69/69/69
f 69/69/69 70/70/70 30/30/30
f 15/15/15 14/14/14 27/27/27
f 27/27/27 29/29/29 15/15/15
f 14/14/14 13/13/13 25/25/25
f 25/25/25 27/27/27 14/14/14
f 13/13/13 12/12/12 23/23/23
f 23/23/23 25/25/25 13/13/13
f 12/12/12 11/11/11 21/21/21
f 21/21/21 23/23/23 12/12/12
f 11/11/11 10/10/10 19/19/19
f 19/19/19 21/21/21 11/11/11
f 10/10/10 9/9/9 16/16/16
f 16/16/16 19/19/19 10/10/10
f 27/27/27 26/26/26 28/28/28
f 28/28/28 29/29/29 27/27/27
f 25/25/25 24/24/24 26/26/26
f 26/26/26 27/27/27 25/25/25
f 23/23/23 22/22/22 24/24/24
f 24/24/24 25/25/25 23/23/23
f 21/21/21 20/20/20 22/22/22
f 22/22/22 23/23/23 21/21/21
f 19/19/19 18/18/18 20/20/20
f 20/20/20 21/21/21 19/19/19
f 16/16/16 17/17/17 18/18/18
f 18/18/18 19/19/19 16/16/16
f 8/8/8 7/7/7 14/14/14
f 14/14/14 15/15/15 8/8/8
f 7/7/7 6/6/6 13/13/13
f 13/13/13 14/14/14 7/7/7
f 6/6/6 5/5/5 12/12/12
f 12/12/12 13/13/13 6/6/6
f 5/5/5 4/4/4 11/11/11
f 11/11/11 12/12/12 5/5/5
f 4/4/4 3/3/3 10/10/10
f 10/10/10 11/11/11 4/4/4
f 3/3/3 2/2/2 9/9/9
f 9/9/9 10/10/10 3/3/3
f 1/1/1 7/7/7 8/8/8
f 1/1/1 6/6/6 7/7/7
f 1/1/1 5/5/5 6/6/6
f 1/1/1 4/4/4 5/5/5
f 1/1/1 3/3/3 4/4/4
f 1/1/1 2/2/2 3/3/3
