# Recovered local-space geometry; original node transforms not applied
o mesh_0
v 15.140092849731445 -0.05212593078613281 -0.029891550540924072
v 57.62347412109375 4.480294227600098 1.0342786312103271
v 43.621788024902344 0.8199489116668701 -0.312491238117218
v 45.93638610839844 -2.0885863304138184 2.5309455394744873
v 45.93297576904297 -5.554234981536865 -0.5146936178207397
v 53.995201110839844 7.122743606567383 -2.1005465984344482
v 55.61035919189453 4.304169654846191 -6.507461071014404
v 62.09539794921875 -0.8728203773498535 -2.891273260116577
v 45.40746307373047 -2.0885863304138184 -3.5146567821502686
v 35.340843200683594 15.66659164428711 -0.016762077808380127
v 35.340843200683594 13.567663192749023 7.8165202140808105
v 35.340843200683594 7.8332929611206055 13.550895690917969
v 35.340843200683594 3.265208943048492e-05 15.649818420410156
v 35.340843200683594 -7.8333024978637695 13.550895690917969
v 35.340843200683594 -13.56767749786377 7.816527843475342
v 35.340843200683594 -15.666603088378906 -0.016762077808380127
v 30.588579177856445 33.90369415283203 -0.016762077808380127
v 30.588579177856445 29.3614559173584 16.935073852539062
v 30.588579177856445 16.951841354370117 29.344688415527344
v 30.588571548461914 3.98547163058538e-05 33.88691711425781
v 30.588579177856445 -16.95184898376465 29.344688415527344
v 30.588579177856445 -29.361469268798828 16.935081481933594
v 30.588579177856445 -33.9036979675293 -0.016762077808380127
v 20.457246780395508 38.631690979003906 -0.016769707202911377
v 4.45079231262207 44.75959396362305 -0.016769707202911377
v 4.450788497924805 38.762935638427734 20.97724151611328
v 20.457244873046875 33.456024169921875 19.299072265625
v 4.450788497924805 22.37979507446289 36.345916748046875
v 20.457244873046875 19.31584358215332 33.43925476074219
v 4.450788497924805 3.750289397430606e-05 41.97126007080078
v 20.457242965698242 3.421237488510087e-05 38.61492156982422
v 4.450788497924805 -22.37979507446289 36.34593200683594
v 20.457244873046875 -19.31584358215332 33.43925476074219
v 4.450788497924805 -38.7629508972168 20.977249145507812
v 20.457244873046875 -33.45603561401367 19.299087524414062
v 4.45079231262207 -44.759605407714844 -0.016762077808380127
v 20.457246780395508 -38.63169860839844 -0.016762077808380127
v -12.706490516662598 36.8577880859375 -0.016769707202911377
v -12.706494331359863 31.919784545898438 18.412124633789062
v -12.706498146057129 18.428890228271484 31.90301513671875
v -12.706498146057129 3.441765147726983e-05 36.841026306152344
v -12.706498146057129 -18.428897857666016 31.90302276611328
v -12.706494331359863 -31.919795989990234 18.412132263183594
v -12.706490516662598 -36.85780334472656 -0.016762077808380127
v -32.054473876953125 28.259109497070312 -0.016762077808380127
v -32.054473876953125 24.473100662231445 14.112777709960938
v -32.054473876953125 14.129548072814941 24.456336975097656
v -32.054473876953125 3.915710840374231e-05 28.242340087890625
v -32.054473876953125 -14.129559516906738 24.456336975097656
v -32.054473876953125 -24.47311782836914 14.112777709960938
v -32.054473876953125 -28.25912094116211 -0.016762077808380127
v -37.444374084472656 17.319644927978516 -0.016762077808380127
v -37.444374084472656 14.999244689941406 8.643043518066406
v -37.444374084472656 8.65981388092041 14.982475280761719
v -37.44438171386719 3.576271774363704e-05 17.302871704101562
v -37.444374084472656 -8.659832000732422 14.982475280761719
v -37.444374084472656 -14.99926471710205 8.643043518066406
v -37.444374084472656 -17.319656372070312 -0.016762077808380127
v -37.444374084472656 5.076258182525635 8.775581359863281
v -37.44438171386719 3.539576937328093e-05 10.135757446289062
v -37.444374084472656 -5.076279640197754 8.775581359863281
v -37.444374084472656 -8.792366981506348 5.059493541717529
v -37.44438171386719 -10.152549743652344 -0.016762077808380127
v -33.81651306152344 -1.597651862539351e-05 -0.016762077808380127
v -37.444374084472656 10.152536392211914 -0.016762077808380127
v -37.444374084472656 8.792346954345703 5.059485912322998
v 27.49589729309082 -5.7183751778211445e-06 -0.016762077808380127
v 13.585916519165039 15.845834732055664 -0.016746819019317627
v 14.788030624389648 -5.4836273193359375e-06 -0.016762077808380127
v 7.68641471862793 30.836244583129883 -0.016762077808380127
v -19.108699798583984 3.440579166635871e-05 -0.016762077808380127
v -18.761756896972656 13.603901863098145 -0.016746819019317627
v -16.052005767822266 25.478008270263672 -0.016754448413848877
v 13.585916519165039 -15.84584903717041 -0.016769707202911377
v 7.68641471862793 -30.836254119873047 -0.016762077808380127
v -18.761756896972656 -13.603911399841309 -0.016762077808380127
v -16.052005767822266 -25.47801971435547 -0.016762077808380127
v 57.62347412109375 4.480294227600098 1.0342786312103271
v 55.61035919189453 4.304169654846191 -6.507461071014404
v 53.995201110839844 7.122743606567383 -2.1005465984344482
v 57.62347412109375 4.480294227600098 1.0342786312103271
v 62.09539794921875 -0.8728203773498535 -2.891273260116577
v 55.61035919189453 4.304169654846191 -6.507461071014404
v 4.450788497924805 38.762935638427734 20.97724151611328
v 4.45079231262207 44.75959396362305 -0.016769707202911377
v -12.706490516662598 36.8577880859375 -0.016769707202911377
v 4.450788497924805 38.762935638427734 20.97724151611328
v 4.450788497924805 22.37979507446289 36.345916748046875
v 4.450788497924805 38.762935638427734 20.97724151611328
v -12.706494331359863 31.919784545898438 18.412124633789062
v -12.706494331359863 31.919784545898438 18.412124633789062
v 4.450788497924805 22.37979507446289 36.345916748046875
v 4.450788497924805 3.750289397430606e-05 41.97126007080078
v 4.450788497924805 22.37979507446289 36.345916748046875
v -12.706498146057129 18.428890228271484 31.90301513671875
v -12.706498146057129 18.428890228271484 31.90301513671875
v 4.450788497924805 3.750289397430606e-05 41.97126007080078
v 4.450788497924805 -22.37979507446289 36.34593200683594
v 4.450788497924805 3.750289397430606e-05 41.97126007080078
v -12.706498146057129 3.441765147726983e-05 36.841026306152344
v -12.706498146057129 3.441765147726983e-05 36.841026306152344
v 4.450788497924805 -22.37979507446289 36.34593200683594
v 4.450788497924805 -38.7629508972168 20.977249145507812
v 4.450788497924805 -22.37979507446289 36.34593200683594
v -12.706498146057129 -18.428897857666016 31.90302276611328
v -12.706498146057129 -18.428897857666016 31.90302276611328
v 4.450788497924805 -38.7629508972168 20.977249145507812
v 4.45079231262207 -44.759605407714844 -0.016762077808380127
v 4.450788497924805 -38.7629508972168 20.977249145507812
v -12.706494331359863 -31.919795989990234 18.412132263183594
v -12.706494331359863 -31.919795989990234 18.412132263183594
v 4.45079231262207 -44.759605407714844 -0.016762077808380127
v -12.706494331359863 31.919784545898438 18.412124633789062
v -12.706490516662598 36.8577880859375 -0.016769707202911377
v -12.706498146057129 18.428890228271484 31.90301513671875
v -12.706494331359863 31.919784545898438 18.412124633789062
v -32.054473876953125 24.473100662231445 14.112777709960938
v -12.706498146057129 3.441765147726983e-05 36.841026306152344
v -12.706498146057129 18.428890228271484 31.90301513671875
v -32.054473876953125 14.129548072814941 24.456336975097656
v -12.706498146057129 -18.428897857666016 31.90302276611328
v -12.706498146057129 3.441765147726983e-05 36.841026306152344
v -32.054473876953125 3.915710840374231e-05 28.242340087890625
v -12.706494331359863 -31.919795989990234 18.412132263183594
v -12.706498146057129 -18.428897857666016 31.90302276611328
v -32.054473876953125 -14.129559516906738 24.456336975097656
v -12.706490516662598 -36.85780334472656 -0.016762077808380127
v -12.706494331359863 -31.919795989990234 18.412132263183594
v -32.054473876953125 -24.47311782836914 14.112777709960938
v -32.054473876953125 24.473100662231445 14.112777709960938
v -32.054473876953125 28.259109497070312 -0.016762077808380127
v -32.054473876953125 14.129548072814941 24.456336975097656
v -32.054473876953125 24.473100662231445 14.112777709960938
v -37.444374084472656 14.999244689941406 8.643043518066406
v -32.054473876953125 3.915710840374231e-05 28.242340087890625
v -32.054473876953125 14.129548072814941 24.456336975097656
v -37.444374084472656 8.65981388092041 14.982475280761719
v -32.054473876953125 -14.129559516906738 24.456336975097656
v -32.054473876953125 3.915710840374231e-05 28.242340087890625
v -37.44438171386719 3.576271774363704e-05 17.302871704101562
v -32.054473876953125 -24.47311782836914 14.112777709960938
v -32.054473876953125 -14.129559516906738 24.456336975097656
v -37.444374084472656 -8.659832000732422 14.982475280761719
v -32.054473876953125 -28.25912094116211 -0.016762077808380127
v -32.054473876953125 -24.47311782836914 14.112777709960938
v -37.444374084472656 -14.99926471710205 8.643043518066406
v -37.444374084472656 14.999244689941406 8.643043518066406
v -37.444374084472656 17.319644927978516 -0.016762077808380127
v -37.444374084472656 8.65981388092041 14.982475280761719
v -37.44438171386719 3.576271774363704e-05 17.302871704101562
v -37.444374084472656 -8.659832000732422 14.982475280761719
v -37.444374084472656 -14.99926471710205 8.643043518066406
v -37.444374084472656 -17.319656372070312 -0.016762077808380127
v -37.444374084472656 5.076258182525635 8.775581359863281
v -37.444374084472656 8.792346954345703 5.059485912322998
v -37.44438171386719 3.539576937328093e-05 10.135757446289062
v -37.444374084472656 5.076258182525635 8.775581359863281
v -33.81651306152344 -1.597651862539351e-05 -0.016762077808380127
v -37.444374084472656 -5.076279640197754 8.775581359863281
v -37.44438171386719 3.539576937328093e-05 10.135757446289062
v -33.81651306152344 -1.597651862539351e-05 -0.016762077808380127
v -37.444374084472656 -8.792366981506348 5.059493541717529
v -37.444374084472656 -5.076279640197754 8.775581359863281
v -33.81651306152344 -1.597651862539351e-05 -0.016762077808380127
v -37.444374084472656 -8.792366981506348 5.059493541717529
v -33.81651306152344 -1.597651862539351e-05 -0.016762077808380127
v -37.44438171386719 -10.152549743652344 -0.016762077808380127
v -37.444374084472656 10.152536392211914 -0.016762077808380127
v -33.81651306152344 -1.597651862539351e-05 -0.016762077808380127
v -37.444374084472656 8.792346954345703 5.059485912322998
v 27.49589729309082 -5.7183751778211445e-06 -0.016762077808380127
v 35.340843200683594 15.66659164428711 -0.016762077808380127
v 30.588579177856445 33.90369415283203 -0.016762077808380127
v 20.457246780395508 38.631690979003906 -0.016769707202911377
v -33.81651306152344 -1.597651862539351e-05 -0.016762077808380127
v -37.444374084472656 10.152536392211914 -0.016762077808380127
v -37.444374084472656 17.319644927978516 -0.016762077808380127
v -32.054473876953125 28.259109497070312 -0.016762077808380127
v 4.45079231262207 44.75959396362305 -0.016769707202911377
v -12.706490516662598 36.8577880859375 -0.016769707202911377
v 35.340843200683594 -15.666603088378906 -0.016762077808380127
v 30.588579177856445 -33.9036979675293 -0.016762077808380127
v 20.457246780395508 -38.63169860839844 -0.016762077808380127
v -37.44438171386719 -10.152549743652344 -0.016762077808380127
v -32.054473876953125 -28.25912094116211 -0.016762077808380127
v -37.444374084472656 -17.319656372070312 -0.016762077808380127
v 4.45079231262207 -44.759605407714844 -0.016762077808380127
v -12.706490516662598 -36.85780334472656 -0.016762077808380127
vt 0.6932629346847534 0.603834867477417
vt 0.7008392810821533 0.5528408288955688
vt 0.6997640132904053 0.5855902433395386
vt 0.7033907175064087 0.5855993032455444
vt 0.7070170044898987 0.5855902433395386
vt 0.6933557391166687 0.5558193325996399
vt 0.7008392810821533 0.5528408288955688
vt 0.7099364399909973 0.5608910322189331
vt 0.7033907175064087 0.5855993032455444
vt 0.6627780795097351 0.5161895155906677
vt 0.6708401441574097 0.5198022127151489
vt 0.6799315214157104 0.5204988718032837
vt 0.687838613986969 0.5204988718032837
vt 0.6965402960777283 0.5204988718032837
vt 0.7050579190254211 0.5199456810951233
vt 0.7134888172149658 0.5167836546897888
vt 0.647347629070282 0.524684727191925
vt 0.6594590544700623 0.5292628407478333
vt 0.6728599071502686 0.5300683975219727
vt 0.6878445148468018 0.5300683975219727
vt 0.7031828761100769 0.5300683975219727
vt 0.7187963724136353 0.5295345783233643
vt 0.7291010618209839 0.5258162617683411
vt 0.6396009922027588 0.5378539562225342
vt 0.6375950574874878 0.5584580302238464
vt 0.6517769694328308 0.5592966675758362
vt 0.6533214449882507 0.5393897891044617
vt 0.6670361757278442 0.5599679350852966
vt 0.6687145829200745 0.5416271090507507
vt 0.6878448724746704 0.5599679350852966
vt 0.6878448724746704 0.5416271090507507
vt 0.7090299725532532 0.5599679350852966
vt 0.7073516249656677 0.5416271090507507
vt 0.7253530025482178 0.5584487915039062
vt 0.7246150374412537 0.5403706431388855
vt 0.7399030327796936 0.5584580302238464
vt 0.737510621547699 0.537787139415741
vt 0.639768660068512 0.5809582471847534
vt 0.654197633266449 0.5780584812164307
vt 0.6690667271614075 0.5758212208747864
vt 0.6880685687065125 0.5758212208747864
vt 0.7067757248878479 0.5769398808479309
vt 0.7230195999145508 0.5799585580825806
vt 0.7383245825767517 0.5826362371444702
vt 0.6507681012153625 0.599729597568512
vt 0.6607390642166138 0.5955742597579956
vt 0.6729720830917358 0.5933845639228821
vt 0.687488853931427 0.5924331545829773
vt 0.7026466727256775 0.5931938290596008
vt 0.7140107750892639 0.5967373847961426
vt 0.7238905429840088 0.601631224155426
vt 0.6605713367462158 0.6090630888938904
vt 0.6663604378700256 0.6045275926589966
vt 0.6759883165359497 0.6024460792541504
vt 0.6878478527069092 0.6018643379211426
vt 0.7005364894866943 0.6024460792541504
vt 0.7092218399047852 0.605109453201294
vt 0.7148129343986511 0.6093540191650391
vt 0.6829561591148376 0.6133643388748169
vt 0.6878448724746704 0.6133643388748169
vt 0.6931100487709045 0.6133643388748169
vt 0.6962318420410156 0.6142564415931702
vt 0.6997194886207581 0.6169256567955017
vt 0.6878499388694763 0.6209043860435486
vt 0.6762545108795166 0.6167770624160767
vt 0.6793882250785828 0.6145539283752441
vt 0.6891976594924927 0.503177285194397
vt 0.6735770106315613 0.6661496162414551
vt 0.6339961886405945 0.6642353534698486
vt 0.7110220789909363 0.6754655838012695
vt 0.6339960694313049 0.7177621126174927
vt 0.6679768562316895 0.7172302007675171
vt 0.6976375579833984 0.7129511833190918
vt 0.6735780835151672 0.6661336421966553
vt 0.7110230922698975 0.6754496097564697
vt 0.6679778099060059 0.7172142267227173
vt 0.6976386308670044 0.712935209274292
vt 0.7008392810821533 0.5528408288955688
vt 0.7008392810821533 0.5528408288955688
vt 0.6933557391166687 0.5558193325996399
vt 0.7008392810821533 0.5528408288955688
vt 0.7099364399909973 0.5608910322189331
vt 0.7008392810821533 0.5528408288955688
vt 0.6517769694328308 0.5592966675758362
vt 0.6375950574874878 0.5584580302238464
vt 0.639768660068512 0.5809582471847534
vt 0.6517769694328308 0.5592966675758362
vt 0.6670361757278442 0.5599679350852966
vt 0.6517769694328308 0.5592966675758362
vt 0.654197633266449 0.5780584812164307
vt 0.654197633266449 0.5780584812164307
vt 0.6670361757278442 0.5599679350852966
vt 0.6878448724746704 0.5599679350852966
vt 0.6670361757278442 0.5599679350852966
vt 0.6690667271614075 0.5758212208747864
vt 0.6690667271614075 0.5758212208747864
vt 0.6878448724746704 0.5599679350852966
vt 0.7090299725532532 0.5599679350852966
vt 0.6878448724746704 0.5599679350852966
vt 0.6880685687065125 0.5758212208747864
vt 0.6880685687065125 0.5758212208747864
vt 0.7090299725532532 0.5599679350852966
vt 0.7253530025482178 0.5584487915039062
vt 0.7090299725532532 0.5599679350852966
vt 0.7067757248878479 0.5769398808479309
vt 0.7067757248878479 0.5769398808479309
vt 0.7253530025482178 0.5584487915039062
vt 0.7399030327796936 0.5584580302238464
vt 0.7253530025482178 0.5584487915039062
vt 0.7230195999145508 0.5799585580825806
vt 0.7230195999145508 0.5799585580825806
vt 0.7399030327796936 0.5584580302238464
vt 0.654197633266449 0.5780584812164307
vt 0.639768660068512 0.5809582471847534
vt 0.6690667271614075 0.5758212208747864
vt 0.654197633266449 0.5780584812164307
vt 0.6607390642166138 0.5955742597579956
vt 0.6880685687065125 0.5758212208747864
vt 0.6690667271614075 0.5758212208747864
vt 0.6729720830917358 0.5933845639228821
vt 0.7067757248878479 0.5769398808479309
vt 0.6880685687065125 0.5758212208747864
vt 0.687488853931427 0.5924331545829773
vt 0.7230195999145508 0.5799585580825806
vt 0.7067757248878479 0.5769398808479309
vt 0.7026466727256775 0.5931938290596008
vt 0.7383245825767517 0.5826362371444702
vt 0.7230195999145508 0.5799585580825806
vt 0.7140107750892639 0.5967373847961426
vt 0.6607390642166138 0.5955742597579956
vt 0.6507681012153625 0.599729597568512
vt 0.6729720830917358 0.5933845639228821
vt 0.6607390642166138 0.5955742597579956
vt 0.6663604378700256 0.6045275926589966
vt 0.687488853931427 0.5924331545829773
vt 0.6729720830917358 0.5933845639228821
vt 0.6759883165359497 0.6024460792541504
vt 0.7026466727256775 0.5931938290596008
vt 0.687488853931427 0.5924331545829773
vt 0.6878478527069092 0.6018643379211426
vt 0.7140107750892639 0.5967373847961426
vt 0.7026466727256775 0.5931938290596008
vt 0.7005364894866943 0.6024460792541504
vt 0.7238905429840088 0.601631224155426
vt 0.7140107750892639 0.5967373847961426
vt 0.7092218399047852 0.605109453201294
vt 0.6663604378700256 0.6045275926589966
vt 0.6605713367462158 0.6090630888938904
vt 0.6759883165359497 0.6024460792541504
vt 0.6878478527069092 0.6018643379211426
vt 0.7005364894866943 0.6024460792541504
vt 0.7092218399047852 0.605109453201294
vt 0.7148129343986511 0.6093540191650391
vt 0.6829561591148376 0.6133643388748169
vt 0.6793882250785828 0.6145539283752441
vt 0.6878448724746704 0.6133643388748169
vt 0.6829561591148376 0.6133643388748169
vt 0.6878499388694763 0.6209043860435486
vt 0.6931100487709045 0.6133643388748169
vt 0.6878448724746704 0.6133643388748169
vt 0.6878499388694763 0.6209043860435486
vt 0.6962318420410156 0.6142564415931702
vt 0.6931100487709045 0.6133643388748169
vt 0.6878499388694763 0.6209043860435486
vt 0.6962318420410156 0.6142564415931702
vt 0.6878499388694763 0.6209043860435486
vt 0.6997194886207581 0.6169256567955017
vt 0.6762545108795166 0.6167770624160767
vt 0.6878499388694763 0.6209043860435486
vt 0.6793882250785828 0.6145539283752441
vt 0.6339961886405945 0.6441682577133179
vt 0.6731292605400085 0.6317961812019348
vt 0.7186843752861023 0.639300525188446
vt 0.7304945588111877 0.6552990078926086
vt 0.6339961886405945 0.7409873008728027
vt 0.6593554615974426 0.7467321157455444
vt 0.6772585511207581 0.7467321157455444
vt 0.7045845985412598 0.7382208108901978
vt 0.7458017468452454 0.6805750131607056
vt 0.7260635495185852 0.7076682448387146
vt 0.6731303334236145 0.6317802667617798
vt 0.7186854481697083 0.639284610748291
vt 0.7304956912994385 0.6552830934524536
vt 0.6593565344810486 0.7467161417007446
vt 0.7045855522155762 0.7382048964500427
vt 0.6772595047950745 0.7467161417007446
vt 0.7458027601242065 0.6805590391159058
vt 0.7260645031929016 0.7076523303985596
vn -0.9205089211463928 0.3588166832923889 0.15464116632938385
vn -0.05354396253824234 0.3159041106700897 0.9472790956497192
vn -0.3730255365371704 0.9251595735549927 0.0702262744307518
vn 0.06783366203308105 -0.09942933171987534 0.9927297830581665
vn 0.04970649257302284 -0.9986810088157654 -0.012866511940956116
vn -0.49954622983932495 0.8573620319366455 0.12403181195259094
vn -0.3827706575393677 0.2492576688528061 -0.8895827531814575
vn 0.32935288548469543 -0.9441407322883606 -0.011180631816387177
vn -0.1362462341785431 -0.15871316194534302 -0.9778788685798645
vn 0.9942401051521301 -0.10352354496717453 -0.027739139273762703
vn 0.9994829297065735 -0.017680225893855095 -0.026860222220420837
vn 0.9994829297065735 -0.0018814924405887723 -0.03210175782442093
vn 0.9994829297065735 0.014421363361179829 -0.028741559013724327
vn 0.9994829297065735 0.026860248297452927 -0.017680175602436066
vn 0.9994829297065735 0.03210169076919556 -0.0018814204959198833
vn 0.9997683167457581 -0.02079097554087639 0.005570886190980673
vn 0.85305255651474 0.504044234752655 0.13505849242210388
vn 0.7719182372093201 0.5656279921531677 0.29018476605415344
vn 0.7719183564186096 0.34475597739219666 0.5341213345527649
vn 0.7719182372093201 0.03150714561343193 0.6349405646324158
vn 0.7719182968139648 -0.2901841998100281 0.5656282305717468
vn 0.7719183564186096 -0.5341212153434753 0.344756156206131
vn 0.6510606408119202 -0.7331625819206238 0.19645017385482788
vn 0.3741900622844696 0.8947471380233765 0.24374036490917206
vn 0.34545406699180603 0.9023469686508179 0.25774338841438293
vn 0.3312244117259979 0.8486395478248596 0.4124336838722229
vn 0.3616988956928253 0.7591511607170105 0.5411685705184937
vn 0.2618042826652527 0.5410882830619812 0.7991758584976196
vn 0.3279246687889099 0.39476290345191956 0.8582701683044434
vn 0.2106657773256302 0.08653669059276581 0.973720371723175
vn 0.3187404274940491 -0.08160635828971863 0.9443224668502808
vn 0.2305530160665512 -0.3947148323059082 0.8894073963165283
vn 0.3438277542591095 -0.5350103378295898 0.7717165350914001
vn 0.30104860663414 -0.7700302004814148 0.5625150799751282
vn 0.37731796503067017 -0.8385612368583679 0.3929964303970337
vn 0.3376085162162781 -0.9071739912033081 0.2511092722415924
vn 0.37912142276763916 -0.8938166499137878 0.2394973188638687
vn -0.404913067817688 0.8791924715042114 0.25112950801849365
vn -0.39032384753227234 0.8893064856529236 0.23828870058059692
vn -0.32692644000053406 0.668251097202301 0.6682511568069458
vn -0.2774815559387207 0.24865613877773285 0.9279946684837341
vn -0.2958614230155945 -0.24723130464553833 0.9226823449134827
vn -0.3615197241306305 -0.6592811346054077 0.6592813730239868
vn -0.4064539968967438 -0.8825386762619019 0.23647545278072357
vn -0.39446863532066345 0.8875985145568848 0.23783104121685028
vn -0.3944692611694336 0.8875980377197266 0.23783180117607117
vn -0.39446893334388733 0.6497672200202942 0.6497668027877808
vn -0.3944689929485321 0.2378319948911667 0.8875980973243713
vn -0.39446917176246643 -0.23783056437969208 0.8875983953475952
vn -0.3944692313671112 -0.6497669219970703 0.6497668623924255
vn -0.394468754529953 -0.8875982165336609 0.2378314882516861
vn -0.890805721282959 0.43890178203582764 0.11760368943214417
vn -0.8908058404922485 0.43890145421028137 0.11760392040014267
vn -0.8908057808876038 0.3212982416152954 0.321298211812973
vn -0.8908053040504456 0.11760502308607101 0.43890202045440674
vn -0.8908057808876038 -0.11760365962982178 0.438901424407959
vn -0.8908056616783142 -0.32129836082458496 0.32129842042922974
vn -0.890805721282959 -0.43890178203582764 0.11760357022285461
vn -1.0 0.0 0.0
vn -1.0 1.5029668247734662e-06 -7.695024630514913e-14
vn -1.0 -1.3015861668463913e-06 -7.51471191051678e-07
vn -1.0 0.0 0.0
vn -1.0 -1.0645013617249788e-06 1.788190274965018e-06
vn -0.9378800392150879 -0.24533796310424805 -0.2453375607728958
vn -1.0 0.0 0.0
vn -1.0 0.0 0.0
vn 0.9485421776771545 -2.494255113560939e-07 -0.3166511356830597
vn 1.7788274651008018e-14 9.629524129195488e-07 -1.0
vn 1.7788274651008018e-14 9.629524129195488e-07 -1.0
vn 1.6793197232800594e-07 -1.253812229151663e-06 -1.0
vn 0.0 0.0 -1.0
vn 6.124125206952158e-07 1.1060323004130623e-06 -1.0
vn 4.391593506625213e-07 -2.1637470126734115e-07 -1.0
vn 3.4925636782645597e-07 1.748877878071653e-07 -1.0
vn 0.0 0.0 -1.0
vn 0.0 0.0 -1.0
vn 0.0 0.0 -1.0
vn 0.6833826303482056 0.7024661898612976 -0.19882044196128845
vn 0.6833826303482056 0.7024661898612976 -0.19882044196128845
vn 0.6833826303482056 0.7024661898612976 -0.19882044196128845
vn 0.6764264106750488 0.7096384167671204 -0.19713109731674194
vn 0.6764264106750488 0.7096384167671204 -0.19713109731674194
vn 0.6764264106750488 0.7096384167671204 -0.19713109731674194
vn -0.404913067817688 0.8791924715042114 0.25112950801849365
vn -0.404913067817688 0.8791924715042114 0.25112950801849365
vn -0.39032384753227234 0.8893064856529236 0.23828870058059692
vn -0.39032384753227234 0.8893064856529236 0.23828870058059692
vn -0.35678210854530334 0.6391391754150391 0.6813278794288635
vn -0.35678210854530334 0.6391391754150391 0.6813278794288635
vn -0.35678210854530334 0.6391391754150391 0.6813278794288635
vn -0.32692644000053406 0.668251097202301 0.6682511568069458
vn -0.32692644000053406 0.668251097202301 0.6682511568069458
vn -0.29372116923332214 0.23302282392978668 0.9270535111427307
vn -0.29372116923332214 0.23302282392978668 0.9270535111427307
vn -0.29372116923332214 0.23302282392978668 0.9270535111427307
vn -0.2774815559387207 0.24865613877773285 0.9279946684837341
vn -0.2774815559387207 0.24865613877773285 0.9279946684837341
vn -0.2785167694091797 -0.23412828147411346 0.9314571022987366
vn -0.2785167694091797 -0.23412828147411346 0.9314571022987366
vn -0.2785167694091797 -0.23412828147411346 0.9314571022987366
vn -0.2958614230155945 -0.24723130464553833 0.9226823449134827
vn -0.2958614230155945 -0.24723130464553833 0.9226823449134827
vn -0.3273239731788635 -0.6464763879776001 0.6891497373580933
vn -0.3273239731788635 -0.6464763879776001 0.6891497373580933
vn -0.3273239731788635 -0.6464763879776001 0.6891497373580933
vn -0.3615197241306305 -0.6592811346054077 0.6592813730239868
vn -0.3615197241306305 -0.6592811346054077 0.6592813730239868
vn -0.39080721139907837 -0.8850747346878052 0.2528095543384552
vn -0.39080721139907837 -0.8850747346878052 0.2528095543384552
vn -0.39080721139907837 -0.8850747346878052 0.2528095543384552
vn -0.4064539968967438 -0.8825386762619019 0.23647545278072357
vn -0.4064539968967438 -0.8825386762619019 0.23647545278072357
vn -0.39446863532066345 0.8875985145568848 0.23783104121685028
vn -0.39446863532066345 0.8875985145568848 0.23783104121685028
vn -0.3944692015647888 0.6497669219970703 0.6497669219970703
vn -0.3944692015647888 0.6497669219970703 0.6497669219970703
vn -0.3944692015647888 0.6497669219970703 0.6497669219970703
vn -0.3944690227508545 0.23783186078071594 0.8875979781150818
vn -0.3944690227508545 0.23783186078071594 0.8875979781150818
vn -0.3944690227508545 0.23783186078071594 0.8875979781150818
vn -0.39446917176246643 -0.23783056437969208 0.8875982761383057
vn -0.39446917176246643 -0.23783056437969208 0.8875982761383057
vn -0.39446917176246643 -0.23783056437969208 0.8875982761383057
vn -0.39446911215782166 -0.6497668623924255 0.6497670412063599
vn -0.39446911215782166 -0.6497668623924255 0.6497670412063599
vn -0.39446911215782166 -0.6497668623924255 0.6497670412063599
vn -0.3944689631462097 -0.8875982165336609 0.23783111572265625
vn -0.3944689631462097 -0.8875982165336609 0.23783111572265625
vn -0.3944689631462097 -0.8875982165336609 0.23783111572265625
vn -0.890805721282959 0.43890178203582764 0.11760368943214417
vn -0.890805721282959 0.43890178203582764 0.11760368943214417
vn -0.890805721282959 0.32129839062690735 0.32129818201065063
vn -0.890805721282959 0.32129839062690735 0.32129818201065063
vn -0.890805721282959 0.32129839062690735 0.32129818201065063
vn -0.8908058404922485 0.11760364472866058 0.43890130519866943
vn -0.8908058404922485 0.11760364472866058 0.43890130519866943
vn -0.8908058404922485 0.11760364472866058 0.43890130519866943
vn -0.8908054828643799 -0.1176031306385994 0.43890219926834106
vn -0.8908054828643799 -0.1176031306385994 0.43890219926834106
vn -0.8908054828643799 -0.1176031306385994 0.43890219926834106
vn -0.8908056616783142 -0.32129836082458496 0.3212983310222626
vn -0.8908056616783142 -0.32129836082458496 0.3212983310222626
vn -0.8908056616783142 -0.32129836082458496 0.3212983310222626
vn -0.8908056616783142 -0.43890172243118286 0.11760349571704865
vn -0.8908056616783142 -0.43890172243118286 0.11760349571704865
vn -0.8908056616783142 -0.43890172243118286 0.11760349571704865
vn -1.0 0.0 0.0
vn -1.0 0.0 0.0
vn -1.0 0.0 0.0
vn -1.0 7.629805622855201e-07 -4.405075060276431e-07
vn -1.0 -8.810059739516873e-07 4.5106537320364903e-14
vn -1.0 0.0 0.0
vn -1.0 0.0 0.0
vn -0.9378800392150879 -0.24533796310424805 -0.2453375607728958
vn -0.9378800392150879 -0.24533796310424805 -0.2453375607728958
vn -0.9378798604011536 -0.08979899436235428 -0.33513811230659485
vn -0.9378798604011536 -0.08979899436235428 -0.33513811230659485
vn -0.9378798604011536 -0.08979899436235428 -0.33513811230659485
vn -0.937879741191864 0.08979760855436325 -0.33513903617858887
vn -0.937879741191864 0.08979760855436325 -0.33513903617858887
vn -0.937879741191864 0.08979760855436325 -0.33513903617858887
vn -0.9378799796104431 0.24533787369728088 -0.24533787369728088
vn -0.9378799796104431 0.24533787369728088 -0.24533787369728088
vn -0.9378799796104431 0.24533787369728088 -0.24533787369728088
vn -0.9378798604011536 0.33513814210891724 -0.08979887515306473
vn -0.9378798604011536 0.33513814210891724 -0.08979887515306473
vn -0.9378798604011536 0.33513814210891724 -0.08979887515306473
vn -0.9378802180290222 -0.33513692021369934 -0.08980053663253784
vn -0.9378802180290222 -0.33513692021369934 -0.08980053663253784
vn -0.9378802180290222 -0.33513692021369934 -0.08980053663253784
vn 1.7788274651008018e-14 9.629524129195488e-07 -1.0
vn -6.985128493397497e-07 3.4977563245774945e-07 -1.0
vn 1.6793197232800594e-07 -1.253812229151663e-06 -1.0
vn 1.6793197232800594e-07 -1.253812229151663e-06 -1.0
vn 0.0 0.0 -1.0
vn 0.0 0.0 -1.0
vn 4.391593506625213e-07 -2.1637470126734115e-07 -1.0
vn 4.391593506625213e-07 -2.1637470126734115e-07 -1.0
vn -1.87855647482138e-07 -5.916123200222501e-07 -1.0
vn 7.142446065699914e-07 -1.550847628095653e-06 -1.0
vn 3.4925636782645597e-07 1.748877878071653e-07 -1.0
vn 0.0 0.0 -1.0
vn 0.0 0.0 -1.0
vn 0.0 0.0 -1.0
vn 0.0 0.0 -1.0
vn 0.0 0.0 -1.0
vn 0.0 0.0 -1.0
vn 0.0 0.0 -1.0
f 77/77/77 188/188/188 185/185/185
f 183/183/183 187/187/187 75/75/75
f 76/76/76 74/74/74 75/75/75
f 75/75/75 77/77/77 76/76/76
f 77/77/77 75/75/75 187/187/187
f 187/187/187 188/188/188 77/77/77
f 69/69/69 74/74/74 76/76/76
f 76/76/76 71/71/71 69/69/69
f 186/186/186 184/184/184 76/76/76
f 76/76/76 77/77/77 186/186/186
f 77/77/77 185/185/185 186/186/186
f 184/184/184 175/175/175 71/71/71
f 71/71/71 76/76/76 184/184/184
f 74/74/74 181/181/181 182/182/182
f 182/182/182 75/75/75 74/74/74
f 182/182/182 183/183/183 75/75/75
f 74/74/74 69/69/69 171/171/171
f 171/171/171 181/181/181 74/74/74
f 73/73/73 178/178/178 180/180/180
f 174/174/174 70/70/70 179/179/179
f 72/72/72 73/73/73 70/70/70
f 70/70/70 68/68/68 72/72/72
f 73/73/73 180/180/180 179/179/179
f 179/179/179 70/70/70 73/73/73
f 69/69/69 71/71/71 72/72/72
f 72/72/72 68/68/68 69/69/69
f 177/177/177 73/73/73 72/72/72
f 72/72/72 176/176/176 177/177/177
f 73/73/73 177/177/177 178/178/178
f 176/176/176 72/72/72 71/71/71
f 71/71/71 175/175/175 176/176/176
f 68/68/68 70/70/70 173/173/173
f 173/173/173 172/172/172 68/68/68
f 173/173/173 70/70/70 174/174/174
f 68/68/68 172/172/172 171/171/171
f 171/171/171 69/69/69 68/68/68
f 168/168/168 169/169/169 170/170/170
f 165/165/165 166/166/166 167/167/167
f 162/162/162 163/163/163 164/164/164
f 159/159/159 160/160/160 161/161/161
f 156/156/156 157/157/157 158/158/158
f 154/154/154 155/155/155 64/64/64
f 62/62/62 63/63/63 153/153/153
f 153/153/153 152/152/152 62/62/62
f 61/61/61 62/62/62 152/152/152
f 152/152/152 151/151/151 61/61/61
f 60/60/60 61/61/61 151/151/151
f 151/151/151 150/150/150 60/60/60
f 59/59/59 60/60/60 150/150/150
f 150/150/150 149/149/149 59/59/59
f 66/66/66 59/59/59 149/149/149
f 149/149/149 147/147/147 66/66/66
f 65/65/65 66/66/66 147/147/147
f 147/147/147 148/148/148 65/65/65
f 146/146/146 58/58/58 144/144/144
f 144/144/144 145/145/145 146/146/146
f 143/143/143 57/57/57 141/141/141
f 141/141/141 142/142/142 143/143/143
f 140/140/140 56/56/56 138/138/138
f 138/138/138 139/139/139 140/140/140
f 137/137/137 55/55/55 135/135/135
f 135/135/135 136/136/136 137/137/137
f 134/134/134 54/54/54 132/132/132
f 132/132/132 133/133/133 134/134/134
f 52/52/52 53/53/53 130/130/130
f 130/130/130 131/131/131 52/52/52
f 129/129/129 51/51/51 127/127/127
f 127/127/127 128/128/128 129/129/129
f 126/126/126 50/50/50 124/124/124
f 124/124/124 125/125/125 126/126/126
f 123/123/123 49/49/49 121/121/121
f 121/121/121 122/122/122 123/123/123
f 120/120/120 48/48/48 118/118/118
f 118/118/118 119/119/119 120/120/120
f 117/117/117 47/47/47 115/115/115
f 115/115/115 116/116/116 117/117/117
f 45/45/45 46/46/46 113/113/113
f 113/113/113 114/114/114 45/45/45
f 111/111/111 44/44/44 112/112/112
f 108/108/108 109/109/109 110/110/110
f 106/106/106 43/43/43 107/107/107
f 103/103/103 104/104/104 105/105/105
f 101/101/101 42/42/42 102/102/102
f 98/98/98 99/99/99 100/100/100
f 96/96/96 41/41/41 97/97/97
f 93/93/93 94/94/94 95/95/95
f 91/91/91 40/40/40 92/92/92
f 88/88/88 89/89/89 90/90/90
f 86/86/86 39/39/39 87/87/87
f 84/84/84 85/85/85 38/38/38
f 23/23/23 22/22/22 35/35/35
f 35/35/35 37/37/37 23/23/23
f 22/22/22 21/21/21 33/33/33
f 33/33/33 35/35/35 22/22/22
f 21/21/21 20/20/20 31/31/31
f 31/31/31 33/33/33 21/21/21
f 20/20/20 19/19/19 29/29/29
f 29/29/29 31/31/31 20/20/20
f 19/19/19 18/18/18 27/27/27
f 27/27/27 29/29/29 19/19/19
f 18/18/18 17/17/17 24/24/24
f 24/24/24 27/27/27 18/18/18
f 35/35/35 34/34/34 36/36/36
f 36/36/36 37/37/37 35/35/35
f 33/33/33 32/32/32 34/34/34
f 34/34/34 35/35/35 33/33/33
f 31/31/31 30/30/30 32/32/32
f 32/32/32 33/33/33 31/31/31
f 29/29/29 28/28/28 30/30/30
f 30/30/30 31/31/31 29/29/29
f 27/27/27 26/26/26 28/28/28
f 28/28/28 29/29/29 27/27/27
f 24/24/24 25/25/25 26/26/26
f 26/26/26 27/27/27 24/24/24
f 16/16/16 15/15/15 22/22/22
f 22/22/22 23/23/23 16/16/16
f 15/15/15 14/14/14 21/21/21
f 21/21/21 22/22/22 15/15/15
f 14/14/14 13/13/13 20/20/20
f 20/20/20 21/21/21 14/14/14
f 13/13/13 12/12/12 19/19/19
f 19/19/19 20/20/20 13/13/13
f 12/12/12 11/11/11 18/18/18
f 18/18/18 19/19/19 12/12/12
f 11/11/11 10/10/10 17/17/17
f 17/17/17 18/18/18 11/11/11
f 67/67/67 15/15/15 16/16/16
f 67/67/67 14/14/14 15/15/15
f 67/67/67 13/13/13 14/14/14
f 67/67/67 12/12/12 13/13/13
f 67/67/67 11/11/11 12/12/12
f 67/67/67 10/10/10 11/11/11
f 81/81/81 82/82/82 83/83/83
f 78/78/78 79/79/79 80/80/80
f 9/9/9 5/5/5 1/1/1
f 3/3/3 9/9/9 1/1/1
f 9/9/9 7/7/7 8/8/8
f 8/8/8 5/5/5 9/9/9
f 3/3/3 6/6/6 7/7/7
f 7/7/7 9/9/9 3/3/3
f 4/4/4 1/1/1 5/5/5
f 3/3/3 1/1/1 4/4/4
f 4/4/4 5/5/5 8/8/8
f 8/8/8 2/2/2 4/4/4
f 3/3/3 4/4/4 2/2/2
f 2/2/2 6/6/6 3/3/3
