# Recovered local-space geometry; original node transforms not applied
o mesh_0
v 0.25026735663414 -0.030978679656982422 24.58522605895996
v -1.0711331367492676 6.5986647605896 50.44121170043945
v 0.5009511709213257 4.134995937347412 38.582679748535156
v -1.7179546356201172 1.8652901649475098 40.3889045715332
v 0.6587416529655457 -0.8391642570495605 40.3862419128418
v 1.9551634788513184 9.149633407592773 46.93854904174805
v 6.209508895874023 6.428637981414795 48.49778366088867
v 2.7185139656066895 3.097071886062622 50.32783126831055
v 2.9997940063476562 1.8652901649475098 39.97615432739258
v -7.784682750701904 13.567660331726074 31.46751594543457
v -13.519052505493164 7.83328914642334 31.46751594543457
v -15.617975234985352 2.765655517578125e-05 31.46751594543457
v -13.519049644470215 -7.833305358886719 31.46751594543457
v -7.784678936004639 -13.56767749786377 31.46751594543457
v -14.388936996459961 25.006561279296875 28.904268264770508
v -24.957950592041016 14.437535285949707 28.90427017211914
v -28.82647705078125 2.4080276489257812e-05 28.904266357421875
v -24.95794677734375 -14.4375581741333 28.904268264770508
v -14.388930320739746 -25.006576538085938 28.90427017211914
v -19.827878952026367 34.42708206176758 16.24090576171875
v -34.37847137451172 19.876468658447266 16.240907669067383
v -41.93940353393555 2.193450927734375e-05 -0.079631008207798
v -39.70435333251953 2.3126602172851562e-05 16.240903854370117
v -34.378456115722656 -19.876501083374023 16.24090576171875
v -19.827871322631836 -34.42710494995117 16.24090576171875
v -20.945404052734375 36.3626823425293 -0.07963140308856964
v -36.31407165527344 -20.99402618408203 -0.07963009178638458
v -20.945392608642578 -36.36271286010742 -0.07962758839130402
v 0.04861372709274292 -5.7220458984375e-06 28.26715087890625
v 0.04861414432525635 -28.875102996826172 28.90427017211914
v 0.04861164093017578 28.875091552734375 28.90427017211914
v 0.048612870275974274 -39.75298309326172 16.24091339111328
v 0.048616230487823486 -15.666603088378906 31.467517852783203
v 0.048613619059324265 -41.988040924072266 -0.07962416857481003
v 7.881906986236572 -13.567673683166504 31.467519760131836
v 13.616278648376465 -7.8333024978637695 31.467519760131836
v 15.715201377868652 -4.145889397477731e-05 31.467519760131836
v 13.616278648376465 7.833292007446289 31.467519760131836
v 7.881906986236572 13.56766414642334 31.467519760131836
v 0.048609793186187744 15.66659164428711 31.467517852783203
v 14.486159324645996 -25.006572723388672 28.904272079467773
v 25.05517578125 -14.43755054473877 28.90427589416504
v 28.9237060546875 -3.987704258179292e-05 28.904272079467773
v 25.055179595947266 14.437542915344238 28.904273986816406
v 14.486160278320312 25.00656509399414 28.904273986816406
v 19.92510223388672 -34.427101135253906 16.24091339111328
v 34.47568893432617 -19.876487731933594 16.240915298461914
v 39.801578521728516 -4.0565882954979315e-05 16.24091148376465
v 36.41130447387695 20.994007110595703 -0.07962015271186829
v 34.47568893432617 19.87648582458496 16.240915298461914
v 19.92510986328125 34.427085876464844 16.24091339111328
v 0.04861874505877495 41.98802947998047 -0.07962416857481003
v 0.04861650615930557 39.75297546386719 16.24091339111328
v 36.41130065917969 -20.9940185546875 -0.07962015271186829
v 0.33658432960510254 0.7142820358276367 27.53093147277832
v -5.644937515258789 -8.255260467529297 32.8128776550293
v -0.21034789085388184 -6.8648200035095215 35.655399322509766
v -7.396496772766113 -15.850849151611328 37.26642608642578
v -0.14534497261047363 -14.218755722045898 40.71287155151367
v 0.8836953639984131 -24.09964942932129 42.76220703125
v 5.360360145568848 -5.417886257171631 36.546939849853516
v 7.330506324768066 -12.053951263427734 42.26325225830078
v 0.48992323875427246 0.7142801284790039 27.37905502319336
v -5.491599082946777 -8.255260467529297 32.6609992980957
v -0.05700945854187012 -6.864820957183838 35.50352096557617
v -7.243158340454102 -15.850849151611328 37.11454772949219
v 0.007994413375854492 -14.218755722045898 40.560997009277344
v 1.037034273147583 -24.09964942932129 42.61033248901367
v 5.513698577880859 -5.417887210845947 36.395057678222656
v 7.483844757080078 -12.053951263427734 42.11137008666992
v -18.555192947387695 32.22273635864258 -16.725643157958984
v -32.174129486083984 18.60379409790039 -16.725648880004883
v -37.15899658203125 2.3126602172851562e-05 -16.725648880004883
v -32.17411422729492 -18.603822708129883 -16.725648880004883
v -18.55518913269043 -32.222755432128906 -16.725643157958984
v -13.065874099731445 22.7149600982666 -33.754608154296875
v -22.666353225708008 13.114480018615723 -33.754608154296875
v -26.18036460876465 2.7894973754882812e-05 -33.754608154296875
v -22.666345596313477 -13.114505767822266 -33.754608154296875
v -13.065864562988281 -22.714982986450195 -33.754608154296875
v -8.611199378967285 14.999241828918457 -39.12868118286133
v -14.950630187988281 8.659810066223145 -39.128684997558594
v -17.271020889282227 3.0279159545898438e-05 -39.128692626953125
v -14.950630187988281 -8.659835815429688 -39.128684997558594
v -8.611194610595703 -14.999266624450684 -39.12868118286133
v -5.027644157409668 8.792344093322754 -39.12868118286133
v -8.743731498718262 5.076254844665527 -39.12868118286133
v -10.103909492492676 3.218650817871094e-05 -39.12868881225586
v -8.74372673034668 -5.0762834548950195 -39.12868118286133
v -5.027639865875244 -8.792367935180664 -39.12868118286133
v 0.048626359552145004 -10.152547836303711 -39.128684997558594
v 0.048621222376823425 -5.7183751778211445e-06 -35.39006042480469
v 0.0486227422952652 -26.2289981842041 -33.754608154296875
v 0.0486171655356884 -37.20763397216797 -16.725635528564453
v 18.652421951293945 -32.222755432128906 -16.72563362121582
v 32.27136993408203 -18.60381317138672 -16.72563934326172
v 37.2562370300293 -4.018154868390411e-05 -16.72563934326172
v 32.27135467529297 18.60380744934082 -16.72563934326172
v 18.652433395385742 32.22274398803711 -16.72563362121582
v 0.048620861023664474 37.207618713378906 -16.72563934326172
v 13.16311264038086 -22.714975357055664 -33.75460433959961
v 22.763591766357422 -13.114495277404785 -33.75460433959961
v 26.277605056762695 -4.329219154897146e-05 -33.75460433959961
v 22.763591766357422 13.114490509033203 -33.75460433959961
v 13.163110733032227 22.714967727661133 -33.75460433959961
v 0.048619285225868225 26.228986740112305 -33.754608154296875
v 0.048624392598867416 -17.319656372070312 -39.128684997558594
v 8.708440780639648 -14.999255180358887 -39.128684997558594
v 15.047871589660645 -8.659823417663574 -39.12868118286133
v 17.368263244628906 -4.433110007084906e-05 -39.12868881225586
v 15.04787540435791 8.659822463989258 -39.12868118286133
v 8.708439826965332 14.999253273010254 -39.128684997558594
v 0.04861992225050926 17.319644927978516 -39.128684997558594
v 5.124885082244873 -8.792357444763184 -39.128684997558594
v 8.840974807739258 -5.076268196105957 -39.128684997558594
v 10.201152801513672 -4.5156251871958375e-05 -39.128692626953125
v 8.840971946716309 5.07627010345459 -39.128684997558594
v 5.124884128570557 8.792356491088867 -39.128684997558594
v 0.048617180436849594 10.152536392211914 -39.128684997558594
v -36.3140754699707 20.993999481201172 -0.07963009178638458
v 42.03663635253906 -3.971127443946898e-05 -0.07962114363908768
v 21.04262924194336 -36.362701416015625 -0.07962456345558167
v 21.042633056640625 36.362693786621094 -0.07962074875831604
v 0.048616230487823486 -15.666603088378906 31.467517852783203
v 0.048609793186187744 15.66659164428711 31.467517852783203
v 0.04861414432525635 -28.875102996826172 28.90427017211914
v 0.04861164093017578 28.875091552734375 28.90427017211914
v 0.048612870275974274 -39.75298309326172 16.24091339111328
v 0.048613619059324265 -41.988040924072266 -0.07962416857481003
v 0.04861874505877495 41.98802947998047 -0.07962416857481003
v 0.04861650615930557 39.75297546386719 16.24091339111328
v 0.0486171655356884 -37.20763397216797 -16.725635528564453
v 0.048620861023664474 37.207618713378906 -16.72563934326172
v 0.0486227422952652 -26.2289981842041 -33.754608154296875
v 0.048619285225868225 26.228986740112305 -33.754608154296875
v 0.048624392598867416 -17.319656372070312 -39.128684997558594
v 0.04861992225050926 17.319644927978516 -39.128684997558594
v 0.048626359552145004 -10.152547836303711 -39.128684997558594
v 0.048617180436849594 10.152536392211914 -39.128684997558594
vt 0.9696025252342224 0.6323694586753845
vt 0.9984216690063477 0.6323450207710266
vt 0.9840167164802551 0.6295238137245178
vt 0.9840121865272522 0.6323572993278503
vt 0.9840167164802551 0.6351909637451172
vt 0.9984310269355774 0.6266777515411377
vt 0.9984216690063477 0.6323450207710266
vt 0.9984310269355774 0.6380124092102051
vt 0.9840121865272522 0.6323572993278503
vt 0.9214303493499756 0.6326181292533875
vt 0.929116427898407 0.6326181292533875
vt 0.9381238222122192 0.6326181292533875
vt 0.947131335735321 0.6326181292533875
vt 0.9548173546791077 0.6326181292533875
vt 0.9073560237884521 0.6432704329490662
vt 0.9215222001075745 0.6432704329490662
vt 0.9381238222122192 0.6432704329490662
vt 0.9547255039215088 0.6432704329490662
vt 0.9688917398452759 0.6432704329490662
vt 0.8957650661468506 0.6601335406303406
vt 0.915267825126648 0.6601335406303406
vt 0.9381238222122192 0.682903528213501
vt 0.9381238222122192 0.6601335406303406
vt 0.9609797596931458 0.6601335406303406
vt 0.9804825782775879 0.6601335406303406
vt 0.8933835029602051 0.682903528213501
vt 0.9622647166252136 0.682903528213501
vt 0.9828640818595886 0.682903528213501
vt 0.9381238222122192 0.6253888607025146
vt 0.979296088218689 0.6432704329490662
vt 0.8969516158103943 0.6432704329490662
vt 0.9948065280914307 0.6601335406303406
vt 0.9604624509811401 0.6326181292533875
vt 0.9979934096336365 0.682903528213501
vt 0.9214303493499756 0.6326181292533875
vt 0.929116427898407 0.6326181292533875
vt 0.9381238222122192 0.6326181292533875
vt 0.947131335735321 0.6326181292533875
vt 0.9548173546791077 0.6326181292533875
vt 0.9157851934432983 0.6326181292533875
vt 0.9073560237884521 0.6432704329490662
vt 0.9215222001075745 0.6432704329490662
vt 0.9381238222122192 0.6432704329490662
vt 0.9547255039215088 0.6432704329490662
vt 0.9688917398452759 0.6432704329490662
vt 0.8957650661468506 0.6601335406303406
vt 0.915267825126648 0.6601335406303406
vt 0.9381238222122192 0.6601335406303406
vt 0.9622647166252136 0.682903528213501
vt 0.9609797596931458 0.6601335406303406
vt 0.9804825782775879 0.6601335406303406
vt 0.8782541155815125 0.682903528213501
vt 0.8814409971237183 0.6601335406303406
vt 0.9139828681945801 0.682903528213501
vt 0.8763159513473511 0.7168105840682983
vt 0.8766264915466309 0.7326212525367737
vt 0.8821430206298828 0.7294790744781494
vt 0.8809423446655273 0.7436528205871582
vt 0.8888430595397949 0.7375882863998413
vt 0.8948150277137756 0.7473145723342896
vt 0.8896733522415161 0.7260664105415344
vt 0.8952239155769348 0.735195517539978
vt 0.8763159513473511 0.7168105840682983
vt 0.8766264915466309 0.7326212525367737
vt 0.8821430206298828 0.7294790744781494
vt 0.8809423446655273 0.7436528205871582
vt 0.8888430595397949 0.7375882863998413
vt 0.8948150277137756 0.7473145723342896
vt 0.8896733522415161 0.7260664105415344
vt 0.8952239155769348 0.735195517539978
vt 0.8984772562980652 0.7052313685417175
vt 0.9167314171791077 0.7052313685417175
vt 0.9381238222122192 0.7052313685417175
vt 0.9595163464546204 0.7052313685417175
vt 0.9777704477310181 0.7052313685417175
vt 0.9101755023002625 0.7286908030509949
vt 0.9230434894561768 0.7286908030509949
vt 0.9381237030029297 0.7286908030509949
vt 0.9532040953636169 0.7286908030509949
vt 0.966072142124176 0.7286908030509949
vt 0.9196689128875732 0.736188530921936
vt 0.9281659126281738 0.736188530921936
vt 0.9381237030029297 0.736188530921936
vt 0.9480816125869751 0.736188530921936
vt 0.95657879114151 0.736188530921936
vt 0.9273056983947754 0.7418630719184875
vt 0.9322865605354309 0.7418630719184875
vt 0.9381237030029297 0.7418630719184875
vt 0.9439610242843628 0.7418630719184875
vt 0.9489418864250183 0.7418630719184875
vt 0.9526000618934631 0.7418630719184875
vt 0.9381238222122192 0.7461890578269958
vt 0.975523054599762 0.7286908030509949
vt 0.9911771416664124 0.7052313685417175
vt 0.8984772562980652 0.7052313685417175
vt 0.9167314171791077 0.7052313685417175
vt 0.9381238222122192 0.7052313685417175
vt 0.9595163464546204 0.7052313685417175
vt 0.9777704477310181 0.7052313685417175
vt 0.8850705027580261 0.7052313685417175
vt 0.9101755023002625 0.7286908030509949
vt 0.9230434894561768 0.7286908030509949
vt 0.9381237030029297 0.7286908030509949
vt 0.9532040953636169 0.7286908030509949
vt 0.966072142124176 0.7286908030509949
vt 0.9007245898246765 0.7286908030509949
vt 0.9628194570541382 0.736188530921936
vt 0.9196689128875732 0.736188530921936
vt 0.9281659126281738 0.736188530921936
vt 0.9381237030029297 0.736188530921936
vt 0.9480816125869751 0.736188530921936
vt 0.95657879114151 0.736188530921936
vt 0.9134281873703003 0.736188530921936
vt 0.9273056983947754 0.7418630719184875
vt 0.9322865605354309 0.7418630719184875
vt 0.9381237030029297 0.7418630719184875
vt 0.9439610242843628 0.7418630719184875
vt 0.9489418864250183 0.7418630719184875
vt 0.9236475229263306 0.7418630719184875
vt 0.9139828681945801 0.682903528213501
vt 0.9381238222122192 0.682903528213501
vt 0.8933835029602051 0.682903528213501
vt 0.9828640818595886 0.682903528213501
vt 0.9157851934432983 0.6326181292533875
vt 0.9604624509811401 0.6326181292533875
vt 0.8969516158103943 0.6432704329490662
vt 0.979296088218689 0.6432704329490662
vt 0.8814409971237183 0.6601335406303406
vt 0.8782541155815125 0.682903528213501
vt 0.9979934096336365 0.682903528213501
vt 0.9948065280914307 0.6601335406303406
vt 0.8850705027580261 0.7052313685417175
vt 0.9911771416664124 0.7052313685417175
vt 0.9007245898246765 0.7286908030509949
vt 0.975523054599762 0.7286908030509949
vt 0.9134281873703003 0.736188530921936
vt 0.9628194570541382 0.736188530921936
vt 0.9236475229263306 0.7418630719184875
vt 0.9526000618934631 0.7418630719184875
vn -0.11055517941713333 -0.0865616723895073 -0.9900932312011719
vn -0.6326891183853149 0.5309094786643982 0.5637726783752441
vn -0.07261292636394501 0.8868001699447632 -0.45641300082206726
vn -0.9746066927909851 -0.2042333334684372 0.09181781113147736
vn 0.025560621172189713 -0.9869168400764465 0.15919123589992523
vn 0.011017084121704102 0.9998089671134949 -0.016151180490851402
vn 0.8487374186515808 0.4689894914627075 0.2443227916955948
vn 0.133668914437294 -0.7780932784080505 0.6137617826461792
vn 0.9617480635643005 -0.2268865704536438 -0.1535029411315918
vn -0.008442807011306286 0.03542608395218849 0.9993366599082947
vn -0.025024592876434326 0.026458539068698883 0.9993366599082947
vn -0.03490126132965088 0.010401429608464241 0.9993366599082947
vn -0.03542613610625267 -0.008442661724984646 0.9993366599082947
vn -0.02645864523947239 -0.025024540722370148 0.9993366599082947
vn -0.22681035101413727 0.4456954598426819 0.8659750819206238
vn -0.4192712903022766 0.27257853746414185 0.8659749031066895
vn -0.4993889629840851 0.026424558833241463 0.8659749627113342
vn -0.44569578766822815 -0.22681008279323578 0.8659748435020447
vn -0.27257871627807617 -0.4192710816860199 0.8659750819206238
vn -0.5242712497711182 0.7458536028862 0.4109039902687073
vn -0.8269588351249695 0.383792906999588 0.41090402007102966
vn -0.9934760332107544 0.0887339785695076 -0.07163586467504501
vn -0.9080638885498047 -0.08110479265451431 0.4109041392803192
vn -0.7458540201187134 -0.5242706537246704 0.4109041392803192
vn -0.3837929368019104 -0.8269586563110352 0.41090428829193115
vn -0.419892817735672 0.9047422409057617 -0.07163604348897934
vn -0.904742419719696 -0.41989219188690186 -0.07163581997156143
vn -0.5735838413238525 -0.8160086274147034 -0.07163601368665695
vn -1.510383071945398e-07 3.807688386814334e-09 1.0
vn -0.026424357667565346 -0.49938875436782837 0.8659749627113342
vn 0.026424149051308632 0.4993886649608612 0.865975022315979
vn 0.08110503107309341 -0.9080636501312256 0.41090431809425354
vn -0.01040163915604353 -0.0349012054502964 0.9993366599082947
vn -0.08873350918292999 -0.993476152420044 -0.07163582742214203
vn 0.008442539721727371 -0.03542608395218849 0.9993366599082947
vn 0.025024447590112686 -0.0264584943652153 0.9993366599082947
vn 0.03490106761455536 -0.010401432402431965 0.9993366599082947
vn 0.035425957292318344 0.008442554622888565 0.9993366599082947
vn 0.02645837888121605 0.025024529546499252 0.9993366599082947
vn 0.010401205159723759 0.03490124270319939 0.9993366599082947
vn 0.22681006789207458 -0.4456954598426819 0.865975022315979
vn 0.41927120089530945 -0.27257850766181946 0.8659749627113342
vn 0.4993889033794403 -0.026424717158079147 0.8659748435020447
vn 0.4456957280635834 0.22680996358394623 0.8659749031066895
vn 0.27257850766181946 0.4192710518836975 0.865975022315979
vn 0.5242710709571838 -0.7458536624908447 0.41090425848960876
vn 0.8269588351249695 -0.38379305601119995 0.4109041690826416
vn 0.9080637693405151 0.08110451698303223 0.410904198884964
vn 0.9047425985336304 0.4198921322822571 -0.07163557410240173
vn 0.7458540201187134 0.5242704749107361 0.4109041690826416
vn 0.38379302620887756 0.8269585967063904 0.4109043478965759
vn 0.08873359113931656 0.9934760332107544 -0.07163587957620621
vn -0.08110523223876953 0.9080636501312256 0.41090428829193115
vn 0.8160086870193481 -0.5735836625099182 -0.07163546979427338
vn -0.38256537914276123 0.6883032917976379 0.6163460612297058
vn -0.4871023893356323 0.5928646922111511 0.6412820816040039
vn -0.40183550119400024 0.593555212020874 0.6972951889038086
vn -0.47841063141822815 0.3934849798679352 0.7850432395935059
vn -0.3587006628513336 0.39279136061668396 0.8467873334884644
vn -0.35090896487236023 0.15499094128608704 0.9234937429428101
vn -0.29373395442962646 0.6084210276603699 0.7372545003890991
vn -0.2913125455379486 0.3760470747947693 0.8796167373657227
vn 0.38256505131721497 -0.6883032917976379 -0.6163461208343506
vn 0.48710229992866516 -0.5928646326065063 -0.6412822008132935
vn 0.4018353521823883 -0.5935553908348083 -0.6972951292991638
vn 0.47841089963912964 -0.39348503947257996 -0.7850431799888611
vn 0.35870039463043213 -0.3927915692329407 -0.8467873334884644
vn 0.3509087562561035 -0.1549910306930542 -0.9234939217567444
vn 0.2937334179878235 -0.6084212064743042 -0.7372545599937439
vn 0.2913118004798889 -0.37604737281799316 -0.8796169757843018
vn -0.45962202548980713 0.7857927680015564 -0.4138566553592682
vn -0.7909405827522278 0.45070570707321167 -0.41385671496391296
vn -0.9103274345397949 -0.005147584713995457 -0.4138568639755249
vn -0.7857929468154907 -0.4596216082572937 -0.4138568043708801
vn -0.4507056474685669 -0.790940523147583 -0.4138568341732025
vn -0.3600117266178131 0.5948076248168945 -0.718745768070221
vn -0.6091828942298889 0.33511295914649963 -0.7187458276748657
vn -0.695124626159668 -0.014374741353094578 -0.7187455296516418
vn -0.5948079824447632 -0.3600114583969116 -0.7187455892562866
vn -0.3351127803325653 -0.6091830730438232 -0.7187457084655762
vn -0.15398909151554108 0.2190721184015274 -0.9634806513786316
vn -0.24289415776729584 0.11272808909416199 -0.9634805917739868
vn -0.26671651005744934 -0.023821666836738586 -0.9634805917739868
vn -0.21907177567481995 -0.1539893001317978 -0.9634805917739868
vn -0.112727589905262 -0.24289439618587494 -0.9634805917739868
vn 0.06997659802436829 -0.12120301276445389 -0.9901581406593323
vn 0.12120340019464493 -0.06997604668140411 -0.9901581406593323
vn 0.1399538367986679 -3.510127726258361e-07 -0.9901580214500427
vn 0.1212034597992897 0.06997589766979218 -0.9901581406593323
vn 0.06997610628604889 0.1212029829621315 -0.9901582598686218
vn -4.6062382352829445e-07 0.13995307683944702 -0.9901581406593323
vn -1.9668350148549507e-07 1.8605195606369307e-08 -1.0
vn 0.014375410042703152 -0.6951245069503784 -0.7187457084655762
vn 0.005147912539541721 -0.9103274941444397 -0.4138566851615906
vn 0.4596220552921295 -0.7857929468154907 -0.413856565952301
vn 0.7909407019615173 -0.45070597529411316 -0.41385647654533386
vn 0.9103275537490845 0.005147584713995457 -0.413856565952301
vn 0.7857931852340698 0.45962151885032654 -0.4138564467430115
vn 0.4507058262825012 0.790940523147583 -0.4138566851615906
vn -0.0051478613168001175 0.9103274345397949 -0.4138568043708801
vn 0.3600117862224579 -0.5948078632354736 -0.7187455296516418
vn 0.6091830134391785 -0.33511295914649963 -0.7187457084655762
vn 0.6951247453689575 0.014374608173966408 -0.7187454104423523
vn 0.5948081612586975 0.36001136898994446 -0.7187454700469971
vn 0.3351131081581116 0.6091831922531128 -0.7187455296516418
vn -0.014375271275639534 0.6951245665550232 -0.7187456488609314
vn 0.023822113871574402 -0.2667165994644165 -0.963480532169342
vn 0.15398915112018585 -0.21907219290733337 -0.963480532169342
vn 0.24289463460445404 -0.11272811144590378 -0.9634804725646973
vn 0.2667170763015747 0.02382153831422329 -0.9634804129600525
vn 0.21907255053520203 0.15398937463760376 -0.9634804129600525
vn 0.11272796243429184 0.24289457499980927 -0.9634804725646973
vn -0.023822449147701263 0.26671651005744934 -0.9634805917739868
vn -0.0699765682220459 0.12120291590690613 -0.9901581406593323
vn -0.12120288610458374 0.06997586041688919 -0.990158200263977
vn -0.13995333015918732 4.3066120269941166e-07 -0.990158200263977
vn -0.12120313942432404 -0.06997587531805038 -0.9901582598686218
vn -0.06997652351856232 -0.12120295315980911 -0.9901581406593323
vn -1.7780780581233557e-07 -0.1399531364440918 -0.9901581406593323
vn -0.8160086870193481 0.5735836029052734 -0.0716358870267868
vn 0.9934760332107544 -0.08873413503170013 -0.07163533568382263
vn 0.4198926091194153 -0.9047422409057617 -0.07163591682910919
vn 0.5735840201377869 0.8160083889961243 -0.07163577526807785
vn -0.01040163915604353 -0.0349012054502964 0.9993366599082947
vn 0.010401205159723759 0.03490124270319939 0.9993366599082947
vn -0.026424357667565346 -0.49938875436782837 0.8659749627113342
vn 0.026424149051308632 0.4993886649608612 0.865975022315979
vn 0.08110503107309341 -0.9080636501312256 0.41090431809425354
vn -0.08873350918292999 -0.993476152420044 -0.07163582742214203
vn 0.08873359113931656 0.9934760332107544 -0.07163587957620621
vn -0.08110523223876953 0.9080636501312256 0.41090428829193115
vn 0.005147912539541721 -0.9103274941444397 -0.4138566851615906
vn -0.0051478613168001175 0.9103274345397949 -0.4138568043708801
vn 0.014375410042703152 -0.6951245069503784 -0.7187457084655762
vn -0.014375271275639534 0.6951245665550232 -0.7187456488609314
vn 0.023822113871574402 -0.2667165994644165 -0.963480532169342
vn -0.023822449147701263 0.26671651005744934 -0.9634805917739868
vn -4.6062382352829445e-07 0.13995307683944702 -0.9901581406593323
vn -1.7780780581233557e-07 -0.1399531364440918 -0.9901581406593323
f 139/139/139 118/118/118 92/92/92
f 118/118/118 117/117/117 92/92/92
f 117/117/117 116/116/116 92/92/92
f 116/116/116 115/115/115 92/92/92
f 115/115/115 114/114/114 92/92/92
f 114/114/114 138/138/138 92/92/92
f 118/118/118 139/139/139 137/137/137
f 137/137/137 112/112/112 118/118/118
f 117/117/117 118/118/118 112/112/112
f 112/112/112 111/111/111 117/117/117
f 116/116/116 117/117/117 111/111/111
f 111/111/111 110/110/110 116/116/116
f 115/115/115 116/116/116 110/110/110
f 110/110/110 109/109/109 115/115/115
f 114/114/114 115/115/115 109/109/109
f 109/109/109 108/108/108 114/114/114
f 138/138/138 114/114/114 108/108/108
f 108/108/108 136/136/136 138/138/138
f 112/112/112 137/137/137 135/135/135
f 135/135/135 105/105/105 112/112/112
f 111/111/111 112/112/112 105/105/105
f 105/105/105 104/104/104 111/111/111
f 110/110/110 111/111/111 104/104/104
f 104/104/104 103/103/103 110/110/110
f 109/109/109 110/110/110 103/103/103
f 103/103/103 102/102/102 109/109/109
f 108/108/108 109/109/109 102/102/102
f 102/102/102 101/101/101 108/108/108
f 136/136/136 108/108/108 101/101/101
f 101/101/101 134/134/134 136/136/136
f 105/105/105 135/135/135 133/133/133
f 133/133/133 99/99/99 105/105/105
f 104/104/104 105/105/105 99/99/99
f 99/99/99 98/98/98 104/104/104
f 103/103/103 104/104/104 98/98/98
f 98/98/98 97/97/97 103/103/103
f 102/102/102 103/103/103 97/97/97
f 97/97/97 96/96/96 102/102/102
f 101/101/101 102/102/102 96/96/96
f 96/96/96 95/95/95 101/101/101
f 134/134/134 101/101/101 95/95/95
f 95/95/95 132/132/132 134/134/134
f 99/99/99 133/133/133 130/130/130
f 130/130/130 123/123/123 99/99/99
f 98/98/98 99/99/99 123/123/123
f 123/123/123 49/49/49 98/98/98
f 97/97/97 98/98/98 49/49/49
f 49/49/49 121/121/121 97/97/97
f 96/96/96 97/97/97 121/121/121
f 121/121/121 54/54/54 96/96/96
f 95/95/95 96/96/96 54/54/54
f 54/54/54 122/122/122 95/95/95
f 132/132/132 95/95/95 122/122/122
f 122/122/122 129/129/129 132/132/132
f 91/91/91 90/90/90 92/92/92
f 90/90/90 89/89/89 92/92/92
f 89/89/89 88/88/88 92/92/92
f 88/88/88 87/87/87 92/92/92
f 87/87/87 86/86/86 92/92/92
f 86/86/86 119/119/119 92/92/92
f 90/90/90 91/91/91 107/107/107
f 107/107/107 85/85/85 90/90/90
f 89/89/89 90/90/90 85/85/85
f 85/85/85 84/84/84 89/89/89
f 88/88/88 89/89/89 84/84/84
f 84/84/84 83/83/83 88/88/88
f 87/87/87 88/88/88 83/83/83
f 83/83/83 82/82/82 87/87/87
f 86/86/86 87/87/87 82/82/82
f 82/82/82 81/81/81 86/86/86
f 119/119/119 86/86/86 81/81/81
f 81/81/81 113/113/113 119/119/119
f 85/85/85 107/107/107 93/93/93
f 93/93/93 80/80/80 85/85/85
f 84/84/84 85/85/85 80/80/80
f 80/80/80 79/79/79 84/84/84
f 83/83/83 84/84/84 79/79/79
f 79/79/79 78/78/78 83/83/83
f 82/82/82 83/83/83 78/78/78
f 78/78/78 77/77/77 82/82/82
f 81/81/81 82/82/82 77/77/77
f 77/77/77 76/76/76 81/81/81
f 113/113/113 81/81/81 76/76/76
f 76/76/76 106/106/106 113/113/113
f 80/80/80 93/93/93 94/94/94
f 94/94/94 75/75/75 80/80/80
f 79/79/79 80/80/80 75/75/75
f 75/75/75 74/74/74 79/79/79
f 78/78/78 79/79/79 74/74/74
f 74/74/74 73/73/73 78/78/78
f 77/77/77 78/78/78 73/73/73
f 73/73/73 72/72/72 77/77/77
f 76/76/76 77/77/77 72/72/72
f 72/72/72 71/71/71 76/76/76
f 106/106/106 76/76/76 71/71/71
f 71/71/71 100/100/100 106/106/106
f 75/75/75 94/94/94 34/34/34
f 34/34/34 28/28/28 75/75/75
f 74/74/74 75/75/75 28/28/28
f 28/28/28 27/27/27 74/74/74
f 73/73/73 74/74/74 27/27/27
f 27/27/27 22/22/22 73/73/73
f 72/72/72 73/73/73 22/22/22
f 22/22/22 120/120/120 72/72/72
f 71/71/71 72/72/72 120/120/120
f 120/120/120 26/26/26 71/71/71
f 100/100/100 71/71/71 26/26/26
f 26/26/26 52/52/52 100/100/100
f 67/67/67 70/70/70 68/68/68
f 69/69/69 70/70/70 67/67/67
f 67/67/67 65/65/65 69/69/69
f 63/63/63 69/69/69 65/65/65
f 66/66/66 67/67/67 68/68/68
f 65/65/65 67/67/67 66/66/66
f 66/66/66 64/64/64 65/65/65
f 63/63/63 65/65/65 64/64/64
f 59/59/59 60/60/60 62/62/62
f 61/61/61 57/57/57 59/59/59
f 59/59/59 62/62/62 61/61/61
f 55/55/55 57/57/57 61/61/61
f 58/58/58 60/60/60 59/59/59
f 57/57/57 56/56/56 58/58/58
f 58/58/58 59/59/59 57/57/57
f 55/55/55 56/56/56 57/57/57
f 127/127/127 45/45/45 51/51/51
f 51/51/51 131/131/131 127/127/127
f 45/45/45 44/44/44 50/50/50
f 50/50/50 51/51/51 45/45/45
f 44/44/44 43/43/43 48/48/48
f 48/48/48 50/50/50 44/44/44
f 43/43/43 42/42/42 47/47/47
f 47/47/47 48/48/48 43/43/43
f 42/42/42 41/41/41 46/46/46
f 46/46/46 47/47/47 42/42/42
f 41/41/41 126/126/126 128/128/128
f 128/128/128 46/46/46 41/41/41
f 51/51/51 123/123/123 130/130/130
f 130/130/130 131/131/131 51/51/51
f 50/50/50 49/49/49 123/123/123
f 123/123/123 51/51/51 50/50/50
f 48/48/48 121/121/121 49/49/49
f 49/49/49 50/50/50 48/48/48
f 47/47/47 54/54/54 121/121/121
f 121/121/121 48/48/48 47/47/47
f 46/46/46 122/122/122 54/54/54
f 54/54/54 47/47/47 46/46/46
f 128/128/128 129/129/129 122/122/122
f 122/122/122 46/46/46 128/128/128
f 125/125/125 39/39/39 45/45/45
f 45/45/45 127/127/127 125/125/125
f 39/39/39 38/38/38 44/44/44
f 44/44/44 45/45/45 39/39/39
f 38/38/38 37/37/37 43/43/43
f 43/43/43 44/44/44 38/38/38
f 37/37/37 36/36/36 42/42/42
f 42/42/42 43/43/43 37/37/37
f 36/36/36 35/35/35 41/41/41
f 41/41/41 42/42/42 36/36/36
f 35/35/35 124/124/124 126/126/126
f 126/126/126 41/41/41 35/35/35
f 29/29/29 39/39/39 125/125/125
f 29/29/29 38/38/38 39/39/39
f 29/29/29 37/37/37 38/38/38
f 29/29/29 36/36/36 37/37/37
f 29/29/29 35/35/35 36/36/36
f 29/29/29 124/124/124 35/35/35
f 30/30/30 19/19/19 25/25/25
f 25/25/25 32/32/32 30/30/30
f 19/19/19 18/18/18 24/24/24
f 24/24/24 25/25/25 19/19/19
f 18/18/18 17/17/17 23/23/23
f 23/23/23 24/24/24 18/18/18
f 17/17/17 16/16/16 21/21/21
f 21/21/21 23/23/23 17/17/17
f 16/16/16 15/15/15 20/20/20
f 20/20/20 21/21/21 16/16/16
f 15/15/15 31/31/31 53/53/53
f 53/53/53 20/20/20 15/15/15
f 25/25/25 28/28/28 34/34/34
f 34/34/34 32/32/32 25/25/25
f 24/24/24 27/27/27 28/28/28
f 28/28/28 25/25/25 24/24/24
f 23/23/23 22/22/22 27/27/27
f 27/27/27 24/24/24 23/23/23
f 21/21/21 120/120/120 22/22/22
f 22/22/22 23/23/23 21/21/21
f 20/20/20 26/26/26 120/120/120
f 120/120/120 21/21/21 20/20/20
f 53/53/53 52/52/52 26/26/26
f 26/26/26 20/20/20 53/53/53
f 33/33/33 14/14/14 19/19/19
f 19/19/19 30/30/30 33/33/33
f 14/14/14 13/13/13 18/18/18
f 18/18/18 19/19/19 14/14/14
f 13/13/13 12/12/12 17/17/17
f 17/17/17 18/18/18 13/13/13
f 12/12/12 11/11/11 16/16/16
f 16/16/16 17/17/17 12/12/12
f 11/11/11 10/10/10 15/15/15
f 15/15/15 16/16/16 11/11/11
f 10/10/10 40/40/40 31/31/31
f 31/31/31 15/15/15 10/10/10
f 29/29/29 14/14/14 33/33/33
f 29/29/29 13/13/13 14/14/14
f 29/29/29 12/12/12 13/13/13
f 29/29/29 11/11/11 12/12/12
f 29/29/29 10/10/10 11/11/11
f 29/29/29 40/40/40 10/10/10
f 2/2/2 8/8/8 7/7/7
f 2/2/2 7/7/7 6/6/6
f 9/9/9 5/5/5 1/1/1
f 3/3/3 9/9/9 1/1/1
f 9/9/9 7/7/7 8/8/8
f 8/8/8 5/5/5 9/9/9
f 3/3/3 6/6/6 7/7/7
f 7/7/7 9/9/9 3/3/3
f 4/4/4 1/1/1 5/5/5
f 3/3/3 1/1/1 4/4/4
f 4/4/4 5/5/5 8/8/8
f 8/8/8 2/2/2 4/4/4
f 3/3/3 4/4/4 2/2/2
f 2/2/2 6/6/6 3/3/3
