# Recovered local-space geometry; original node transforms not applied
o mesh_0
v 27.495895385742188 -5.7220458984375e-06 -0.01676630973815918
v 33.151824951171875 -15.66660213470459 -0.01676464080810547
v 33.151824951171875 -13.567673683166504 -7.85005521774292
v 33.151824951171875 -7.8333024978637695 -13.58442497253418
v 33.151824951171875 -4.172325134277344e-05 -15.683349609375
v 33.151824951171875 7.8332929611206055 -13.58442497253418
v 33.151824951171875 13.567667007446289 -7.85005521774292
v 33.151824951171875 15.666592597961426 -0.016757965087890625
v 30.58857536315918 -28.875102996826172 -0.016764044761657715
v 30.58857536315918 -25.006572723388672 -14.454307556152344
v 30.58857536315918 -14.43755054473877 -25.023326873779297
v 30.588571548461914 -4.029273986816406e-05 -28.89185333251953
v 30.58857536315918 14.437541961669922 -25.02332305908203
v 30.58857536315918 25.00656509399414 -14.454307556152344
v 30.58857536315918 28.875091552734375 -0.0167618989944458
v 20.457244873046875 -38.63169860839844 -0.016760587692260742
v 4.4507904052734375 -41.988040924072266 -0.01675891876220703
v 4.450786590576172 -36.36269760131836 -21.01077651977539
v 20.457242965698242 -33.456031799316406 -19.33260726928711
v 4.450786590576172 -20.9940185546875 -36.379451751708984
v 20.457242965698242 -19.31584930419922 -33.472782135009766
v 4.450786590576172 -4.00543212890625e-05 -42.00478744506836
v 20.45724105834961 -3.981590270996094e-05 -38.6484489440918
v 4.450786590576172 20.994007110595703 -36.379459381103516
v 20.457242965698242 19.315837860107422 -33.472782135009766
v 4.450786590576172 36.36269760131836 -21.010772705078125
v 20.457242965698242 33.45602798461914 -19.332611083984375
v 4.4507904052734375 41.98802947998047 -0.016763925552368164
v 20.457244873046875 38.631690979003906 -0.016763925552368164
v -12.645530700683594 -37.92759704589844 -0.016758203506469727
v -12.64553451538086 -32.84626388549805 -18.980552673339844
v -12.645538330078125 -18.963794708251953 -32.86302185058594
v -12.645538330078125 -4.124641418457031e-05 -37.9443473815918
v -12.645538330078125 18.963790893554688 -32.86301803588867
v -12.64553451538086 32.84626007080078 -18.980552673339844
v -12.645530700683594 37.927589416503906 -0.0167616605758667
v -32.07029724121094 -26.22899627685547 -0.016759634017944336
v -32.07029724121094 -22.71497344970703 -13.131248474121094
v -32.07029724121094 -13.114494323730469 -22.731727600097656
v -32.07029724121094 -4.3392181396484375e-05 -26.245742797851562
v -32.07029724121094 13.11449146270752 -22.73172378540039
v -32.07029724121094 22.714969635009766 -13.131246566772461
v -32.07029724121094 26.228988647460938 -0.01675736904144287
v -37.444374084472656 -17.319652557373047 -0.016759037971496582
v -37.444374084472656 -14.999255180358887 -8.676576614379883
v -37.444374084472656 -8.659823417663574 -15.016006469726562
v -37.44438171386719 -4.458427429199219e-05 -17.33639907836914
v -37.444374084472656 8.659822463989258 -15.016006469726562
v -37.444374084472656 14.99925422668457 -8.67657470703125
v -37.444374084472656 17.31964874267578 -0.0167543888092041
v -37.44438171386719 -10.152545928955078 -0.016762852668762207
v -37.444374084472656 -8.792357444763184 -5.093021869659424
v -37.444374084472656 -5.076268196105957 -8.80910873413086
v -37.44438171386719 -4.5299530029296875e-05 -10.169288635253906
v -37.444374084472656 5.076269626617432 -8.809106826782227
v -37.444374084472656 8.792356491088867 -5.093020439147949
v -37.444374084472656 10.15254020690918 -0.016752958297729492
v -33.70574951171875 -2.002716064453125e-05 -0.016758322715759277
v 13.585914611816406 15.845834732055664 -0.01675558090209961
v 14.788028717041016 -5.4836273193359375e-06 -0.016765475273132324
v 7.686412811279297 28.926830291748047 -0.01676023006439209
v -19.233562469482422 3.552436828613281e-05 -0.016768217086791992
v -18.87655258178711 13.998754501342773 -0.016753554344177246
v -16.088150024414062 26.217506408691406 -0.01675891876220703
v 13.585914611816406 -15.84584903717041 -0.01677262783050537
v 7.686412811279297 -28.926837921142578 -0.01676487922668457
v -18.87655258178711 -13.998764991760254 -0.016770124435424805
v -16.088150024414062 -26.217517852783203 -0.016762971878051758
v 27.495895385742188 -5.7220458984375e-06 -0.01676630973815918
v 33.151824951171875 15.666592597961426 -0.016757965087890625
v 30.58857536315918 28.875091552734375 -0.0167618989944458
v 20.457244873046875 38.631690979003906 -0.016763925552368164
v 30.58857536315918 28.875091552734375 -0.0167618989944458
v 7.686412811279297 28.926830291748047 -0.01676023006439209
v -37.444374084472656 10.15254020690918 -0.016752958297729492
v -33.70574951171875 -2.002716064453125e-05 -0.016758322715759277
v -32.07029724121094 26.228988647460938 -0.01675736904144287
v -37.444374084472656 17.31964874267578 -0.0167543888092041
v -16.088150024414062 26.217506408691406 -0.01675891876220703
v -37.444374084472656 17.31964874267578 -0.0167543888092041
v -18.87655258178711 13.998754501342773 -0.016753554344177246
v -19.233562469482422 3.552436828613281e-05 -0.016768217086791992
v 14.788028717041016 -5.4836273193359375e-06 -0.016765475273132324
v 13.585914611816406 15.845834732055664 -0.01675558090209961
v 4.4507904052734375 41.98802947998047 -0.016763925552368164
v -12.645530700683594 37.927589416503906 -0.0167616605758667
v 7.686412811279297 28.926830291748047 -0.01676023006439209
v -16.088150024414062 26.217506408691406 -0.01675891876220703
v 20.457244873046875 38.631690979003906 -0.016763925552368164
v 33.151824951171875 -15.66660213470459 -0.01676464080810547
v 30.58857536315918 -28.875102996826172 -0.016764044761657715
v 20.457244873046875 -38.63169860839844 -0.016760587692260742
v 30.58857536315918 -28.875102996826172 -0.016764044761657715
v 7.686412811279297 -28.926837921142578 -0.01676487922668457
v -37.44438171386719 -10.152545928955078 -0.016762852668762207
v -37.444374084472656 -17.319652557373047 -0.016759037971496582
v -32.07029724121094 -26.22899627685547 -0.016759634017944336
v -37.444374084472656 -17.319652557373047 -0.016759037971496582
v -16.088150024414062 -26.217517852783203 -0.016762971878051758
v -18.87655258178711 -13.998764991760254 -0.016770124435424805
v 13.585914611816406 -15.84584903717041 -0.01677262783050537
v 4.4507904052734375 -41.988040924072266 -0.01675891876220703
v -12.645530700683594 -37.92759704589844 -0.016758203506469727
v 7.686412811279297 -28.926837921142578 -0.01676487922668457
v -16.088150024414062 -26.217517852783203 -0.016762971878051758
v 20.457244873046875 -38.63169860839844 -0.016760587692260742
vt 0.4370858371257782 0.25309163331985474
vt 0.4617031514644623 0.26688075065612793
vt 0.45315900444984436 0.27008527517318726
vt 0.4445270001888275 0.2706458568572998
vt 0.435708612203598 0.2706458568572998
vt 0.4276951253414154 0.2706458568572998
vt 0.4184817373752594 0.2699398398399353
vt 0.41031143069267273 0.26627862453460693
vt 0.47752508521080017 0.2760346531867981
vt 0.4670819938182831 0.27980297803878784
vt 0.4512588083744049 0.2803438901901245
vt 0.435714453458786 0.2803438901901245
vt 0.4205285608768463 0.2803438901901245
vt 0.4069477617740631 0.279527485370636
vt 0.3946736752986908 0.27488797903060913
vt 0.4860474765300751 0.288166344165802
vt 0.4884721338748932 0.30911487340927124
vt 0.47372666001319885 0.3090983033180237
vt 0.4729788601398468 0.2907845377922058
vt 0.45718440413475037 0.3106449842453003
vt 0.4554835259914398 0.2920578718185425
vt 0.43571481108665466 0.3106449842453003
vt 0.43571481108665466 0.2920578718185425
vt 0.41462668776512146 0.3106449842453003
vt 0.4163276255130768 0.2920578718185425
vt 0.39916250109672546 0.30996471643447876
vt 0.4007277190685272 0.28979045152664185
vt 0.3847900927066803 0.30911487340927124
vt 0.38682302832603455 0.28823405504226685
vt 0.48687246441841125 0.3336177468299866
vt 0.4713619649410248 0.3309040665626526
vt 0.45489993691444397 0.32784485816955566
vt 0.43594154715538025 0.32671117782592773
vt 0.41668441891670227 0.32671117782592773
vt 0.401615709066391 0.3289784789085388
vt 0.3869929015636444 0.3319171667098999
vt 0.472244530916214 0.35286784172058105
vt 0.46223214268684387 0.34790825843811035
vt 0.4507153332233429 0.34431707859039307
vt 0.43535396456718445 0.3435462713241577
vt 0.42064228653907776 0.34451043605804443
vt 0.4082449972629547 0.3467295169830322
vt 0.39814016222953796 0.35094064474105835
vt 0.46304503083229065 0.3606942892074585
vt 0.4573788344860077 0.3563928008079529
vt 0.44857683777809143 0.3536936044692993
vt 0.435717910528183 0.3531040549278259
vt 0.4236989915370941 0.3536936044692993
vt 0.4139418303966522 0.35580313205718994
vt 0.4080750048160553 0.3603994846343994
vt 0.4477488696575165 0.36836767196655273
vt 0.44421443343162537 0.3656625747680664
vt 0.4410506784915924 0.3647584915161133
vt 0.43571481108665466 0.3647584915161133
vt 0.4307604134082794 0.3647584915161133
vt 0.4271445572376251 0.36596405506134033
vt 0.4239688217639923 0.3682170510292053
vt 0.43571987748146057 0.37239980697631836
vt 0.5531392693519592 0.3742474913597107
vt 0.5626915097236633 0.3742477297782898
vt 0.5294259786605835 0.3742477297782898
vt 0.5038692951202393 0.37424784898757935
vt 0.5145295262336731 0.3742474317550659
vt 0.5294259190559387 0.3742477297782898
vt 0.5531392693519592 0.3742474913597107
vt 0.5294259786605835 0.3742477297782898
vt 0.5145295262336731 0.3742474317550659
vt 0.5294259190559387 0.3742477297782898
vt 0.5627158284187317 0.3135365843772888
vt 0.5531389117240906 0.31353336572647095
vt 0.5294207334518433 0.3135365843772888
vt 0.5314879417419434 0.31353336572647095
vt 0.5384981036186218 0.3135365843772888
vt 0.5385225415229797 0.3742477297782898
vt 0.5145295858383179 0.31353992223739624
vt 0.5038436055183411 0.31353819370269775
vt 0.5314879417419434 0.31356531381607056
vt 0.5294209122657776 0.3135044574737549
vt 0.5252084732055664 0.37424784898757935
vt 0.5252086520195007 0.31353819370269775
vt 0.5661777853965759 0.3521864414215088
vt 0.5655682682991028 0.3742471933364868
vt 0.6236385703086853 0.3742471933364868
vt 0.6215867400169373 0.3503348231315613
vt 0.5314879417419434 0.31353336572647095
vt 0.5294207334518433 0.3135368227958679
vt 0.6130656599998474 0.32715660333633423
vt 0.5744214653968811 0.3290752172470093
vt 0.5294207334518433 0.3135365843772888
vt 0.5531389117240906 0.3135335445404053
vt 0.5294207334518433 0.3135365843772888
vt 0.5314879417419434 0.31353336572647095
vt 0.5384981036186218 0.3135365843772888
vt 0.5385225415229797 0.3742477297782898
vt 0.5145295858383179 0.31353992223739624
vt 0.5294209122657776 0.3135044574737549
vt 0.5314879417419434 0.31356531381607056
vt 0.5252086520195007 0.31353819370269775
vt 0.5252084732055664 0.37424784898757935
vt 0.5661776661872864 0.352186381816864
vt 0.6215866208076477 0.35033464431762695
vt 0.5314879417419434 0.31353336572647095
vt 0.5294207334518433 0.31353574991226196
vt 0.6130656599998474 0.3271564245223999
vt 0.5744213461875916 0.3290750980377197
vt 0.5294207334518433 0.3135365843772888
vn 0.9722372889518738 1.39196600912328e-07 0.2339971512556076
vn 0.9968252182006836 0.07690799236297607 0.02060748264193535
vn 0.9997037053108215 0.013689948245882988 0.020126787945628166
vn 0.9997037053108215 0.0017925279680639505 0.024275293573737144
vn 0.9997037053108215 -0.010585208423435688 0.021919211372733116
vn 0.9997037053108215 -0.020126773044466972 0.013689936138689518
vn 0.9997037053108215 -0.024275239557027817 0.0017924627754837275
vn 0.9998855590820312 0.01461322233080864 -0.003915591165423393
vn 0.9199132323265076 -0.37876078486442566 -0.10148873180150986
vn 0.8795763254165649 -0.42369651794433594 -0.21639488637447357
vn 0.8795762658119202 -0.2587346136569977 -0.3992518186569214
vn 0.8795762658119202 -0.02444513700902462 -0.47512951493263245
vn 0.8795763850212097 0.21639463305473328 -0.4236967861652374
vn 0.8795763850212097 0.3992515802383423 -0.2587346136569977
vn 0.8156903982162476 0.5587772130966187 -0.1497238278388977
vn 0.4569334089756012 -0.8591919541358948 -0.2302200198173523
vn -0.01283496618270874 -0.9658461213111877 -0.2587983012199402
vn -0.013235007412731647 -0.9069932103157043 -0.42093729972839355
vn 0.468092679977417 -0.7229472994804382 -0.5081697702407837
vn -0.01323486678302288 -0.5750108361244202 -0.8180387616157532
vn 0.46809273958206177 -0.3720061480998993 -0.8015613555908203
vn -0.0132348807528615 -0.08895497024059296 -0.9959477186203003
vn 0.46809297800064087 0.07861368358135223 -0.8801755905151367
vn -0.013234825804829597 0.420936644077301 -0.9069935083389282
vn 0.46809282898902893 0.5081692337989807 -0.7229475378990173
vn -0.013234971091151237 0.8180387020111084 -0.5750108957290649
vn 0.4680928587913513 0.8015612959861755 -0.3720061182975769
vn -0.012834995985031128 0.9658463597297668 -0.2587977647781372
vn 0.45693355798721313 0.8591918349266052 -0.23021969199180603
vn -0.31990063190460205 -0.9151674509048462 -0.24521850049495697
vn -0.3785082697868347 -0.7991008162498474 -0.4670863151550293
vn -0.3785082995891571 -0.4584985375404358 -0.8040587902069092
vn -0.37850844860076904 0.004957766737788916 -0.9255845546722412
vn -0.37850841879844666 0.46708592772483826 -0.7991008162498474
vn -0.37850838899612427 0.8040589094161987 -0.4584982991218567
vn -0.4139254689216614 0.8792927265167236 -0.23560567200183868
vn -0.6344789862632751 -0.7466027736663818 -0.20005179941654205
vn -0.7081984877586365 -0.6037167310714722 -0.3660341799259186
vn -0.708198606967926 -0.33981719613075256 -0.6188530921936035
vn -0.7081983685493469 0.015135731548070908 -0.7058512568473816
vn -0.7081984877586365 0.3660339415073395 -0.6037169098854065
vn -0.7081984281539917 0.6188532710075378 -0.339817076921463
vn -0.7526771426200867 0.6359556913375854 -0.17040392756462097
vn -0.9307446479797363 -0.35320985317230225 -0.09464249759912491
vn -0.9634805917739868 -0.21907228231430054 -0.15398922562599182
vn -0.963480532169342 -0.11272813379764557 -0.24289436638355255
vn -0.963480532169342 0.023821627721190453 -0.26671677827835083
vn -0.9634805917739868 0.15398931503295898 -0.21907220780849457
vn -0.963480532169342 0.2428945004940033 -0.11272776126861572
vn -0.9831437468528748 0.17660485208034515 -0.04732118546962738
vn -0.9927119016647339 0.11640582233667374 0.031190073117613792
vn -0.990158200263977 0.12120340019464493 0.06997629255056381
vn -0.9901581406593323 0.06997605413198471 0.12120328098535538
vn -0.9901580810546875 4.2720205328805605e-07 0.1399536430835724
vn -0.9901581406593323 -0.0699758529663086 0.12120329588651657
vn -0.9901582598686218 -0.12120278924703598 0.06997651606798172
vn -0.9834632277488708 -0.17493672668933868 0.04687421768903732
vn -0.971162736415863 6.143348514342506e-07 0.23841767013072968
vn 1.1658901399869137e-07 -5.747303362113598e-07 1.0
vn 6.566522614548376e-08 -6.194328534547822e-07 1.0
vn 7.351386699383511e-08 2.840489230493404e-07 1.0
vn 2.503936684661312e-07 -1.053820483321033e-06 1.0
vn 2.503936684661312e-07 -1.053820483321033e-06 1.0
vn 9.716394799852424e-08 2.7589763362811937e-07 1.0
vn 6.566522614548376e-08 -4.563653703826276e-07 1.0
vn -3.73240496287508e-08 3.930891239178891e-07 1.0
vn 3.6533896263790666e-07 -1.2693365647464816e-07 1.0
vn 2.0880685269730748e-07 5.905010880269401e-08 1.0
vn 1.1658901399869137e-07 -5.747303362113598e-07 1.0
vn 1.1658901399869137e-07 -5.747303362113598e-07 1.0
vn 7.351386699383511e-08 2.840489230493404e-07 1.0
vn 7.351386699383511e-08 2.840489230493404e-07 1.0
vn 7.375022192945835e-08 3.8867469243086816e-07 1.0
vn 7.375022192945835e-08 3.8867469243086816e-07 1.0
vn 2.503936684661312e-07 -1.053820483321033e-06 1.0
vn 6.83682742419478e-07 -2.7661835133585555e-07 1.0
vn 9.716394799852424e-08 2.7589763362811937e-07 1.0
vn 9.716394799852424e-08 2.7589763362811937e-07 1.0
vn 3.2263415050692856e-08 4.3166880914213834e-07 1.0
vn 3.2263415050692856e-08 4.3166880914213834e-07 1.0
vn -8.059166844986976e-08 -1.0453793493070407e-06 1.0
vn -8.059166844986976e-08 -1.0453793493070407e-06 1.0
vn -8.059166844986976e-08 -1.0453793493070407e-06 1.0
vn 9.753523499966832e-08 -6.170150754769566e-07 1.0
vn 8.264433404292504e-08 2.098448703691247e-07 1.0
vn 8.264433404292504e-08 2.098448703691247e-07 1.0
vn 5.2609241407708396e-09 4.3783100522887253e-07 1.0
vn 5.2609241407708396e-09 4.3783100522887253e-07 1.0
vn 6.257861429048717e-08 2.984388061122445e-07 1.0
vn -4.078382289662841e-07 -4.070911785447606e-08 1.0
vn -3.73240496287508e-08 3.930891239178891e-07 1.0
vn -3.73240496287508e-08 3.930891239178891e-07 1.0
vn -4.0935233869277e-07 1.2456507647584658e-07 1.0
vn -3.7812707631701414e-08 6.094095397202182e-07 1.0
vn 6.836845045654627e-07 -6.979541922191856e-07 1.0
vn 2.0880685269730748e-07 5.905010880269401e-08 1.0
vn 2.0880685269730748e-07 5.905010880269401e-08 1.0
vn 5.018853244109778e-07 5.32251249296678e-07 1.0
vn 4.73075346008045e-07 6.933344707249489e-07 1.0
vn 5.121222201864839e-08 -4.552689745196403e-07 1.0
vn 5.121222201864839e-08 -4.552689745196403e-07 1.0
vn 1.286009023715451e-07 4.2449084958207095e-07 1.0
vn 1.4894908417772967e-07 4.5099153567207395e-07 1.0
vn 1.0804843952882948e-07 5.436264700620086e-07 1.0
vn 1.5085836935213592e-07 6.198022788339586e-07 1.0
vn 9.045623805548075e-09 4.541080045328272e-07 1.0
f 68/68/68 97/97/97 103/103/103
f 106/106/106 66/66/66 102/102/102
f 100/100/100 105/105/105 104/104/104
f 104/104/104 101/101/101 100/100/100
f 68/68/68 103/103/103 102/102/102
f 102/102/102 66/66/66 68/68/68
f 83/83/83 82/82/82 100/100/100
f 100/100/100 101/101/101 83/83/83
f 98/98/98 99/99/99 67/67/67
f 67/67/67 95/95/95 98/98/98
f 68/68/68 96/96/96 97/97/97
f 95/95/95 67/67/67 62/62/62
f 62/62/62 76/76/76 95/95/95
f 65/65/65 94/94/94 93/93/93
f 93/93/93 90/90/90 65/65/65
f 91/91/91 66/66/66 92/92/92
f 65/65/65 90/90/90 69/69/69
f 69/69/69 60/60/60 65/65/65
f 64/64/64 86/86/86 77/77/77
f 89/89/89 85/85/85 61/61/61
f 81/81/81 84/84/84 87/87/87
f 87/87/87 88/88/88 81/81/81
f 64/64/64 61/61/61 85/85/85
f 85/85/85 86/86/86 64/64/64
f 83/83/83 84/84/84 81/81/81
f 81/81/81 82/82/82 83/83/83
f 80/80/80 75/75/75 63/63/63
f 63/63/63 79/79/79 80/80/80
f 64/64/64 77/77/77 78/78/78
f 75/75/75 76/76/76 62/62/62
f 62/62/62 63/63/63 75/75/75
f 59/59/59 70/70/70 73/73/73
f 73/73/73 74/74/74 59/59/59
f 71/71/71 72/72/72 61/61/61
f 59/59/59 60/60/60 69/69/69
f 69/69/69 70/70/70 59/59/59
f 57/57/57 56/56/56 58/58/58
f 56/56/56 55/55/55 58/58/58
f 55/55/55 54/54/54 58/58/58
f 54/54/54 53/53/53 58/58/58
f 53/53/53 52/52/52 58/58/58
f 52/52/52 51/51/51 58/58/58
f 56/56/56 57/57/57 50/50/50
f 50/50/50 49/49/49 56/56/56
f 55/55/55 56/56/56 49/49/49
f 49/49/49 48/48/48 55/55/55
f 54/54/54 55/55/55 48/48/48
f 48/48/48 47/47/47 54/54/54
f 53/53/53 54/54/54 47/47/47
f 47/47/47 46/46/46 53/53/53
f 52/52/52 53/53/53 46/46/46
f 46/46/46 45/45/45 52/52/52
f 51/51/51 52/52/52 45/45/45
f 45/45/45 44/44/44 51/51/51
f 49/49/49 50/50/50 43/43/43
f 43/43/43 42/42/42 49/49/49
f 48/48/48 49/49/49 42/42/42
f 42/42/42 41/41/41 48/48/48
f 47/47/47 48/48/48 41/41/41
f 41/41/41 40/40/40 47/47/47
f 46/46/46 47/47/47 40/40/40
f 40/40/40 39/39/39 46/46/46
f 45/45/45 46/46/46 39/39/39
f 39/39/39 38/38/38 45/45/45
f 44/44/44 45/45/45 38/38/38
f 38/38/38 37/37/37 44/44/44
f 42/42/42 43/43/43 36/36/36
f 36/36/36 35/35/35 42/42/42
f 41/41/41 42/42/42 35/35/35
f 35/35/35 34/34/34 41/41/41
f 40/40/40 41/41/41 34/34/34
f 34/34/34 33/33/33 40/40/40
f 39/39/39 40/40/40 33/33/33
f 33/33/33 32/32/32 39/39/39
f 38/38/38 39/39/39 32/32/32
f 32/32/32 31/31/31 38/38/38
f 37/37/37 38/38/38 31/31/31
f 31/31/31 30/30/30 37/37/37
f 35/35/35 36/36/36 28/28/28
f 28/28/28 26/26/26 35/35/35
f 34/34/34 35/35/35 26/26/26
f 26/26/26 24/24/24 34/34/34
f 33/33/33 34/34/34 24/24/24
f 24/24/24 22/22/22 33/33/33
f 32/32/32 33/33/33 22/22/22
f 22/22/22 20/20/20 32/32/32
f 31/31/31 32/32/32 20/20/20
f 20/20/20 18/18/18 31/31/31
f 30/30/30 31/31/31 18/18/18
f 18/18/18 17/17/17 30/30/30
f 15/15/15 14/14/14 27/27/27
f 27/27/27 29/29/29 15/15/15
f 14/14/14 13/13/13 25/25/25
f 25/25/25 27/27/27 14/14/14
f 13/13/13 12/12/12 23/23/23
f 23/23/23 25/25/25 13/13/13
f 12/12/12 11/11/11 21/21/21
f 21/21/21 23/23/23 12/12/12
f 11/11/11 10/10/10 19/19/19
f 19/19/19 21/21/21 11/11/11
f 10/10/10 9/9/9 16/16/16
f 16/16/16 19/19/19 10/10/10
f 27/27/27 26/26/26 28/28/28
f 28/28/28 29/29/29 27/27/27
f 25/25/25 24/24/24 26/26/26
f 26/26/26 27/27/27 25/25/25
f 23/23/23 22/22/22 24/24/24
f 24/24/24 25/25/25 23/23/23
f 21/21/21 20/20/20 22/22/22
f 22/22/22 23/23/23 21/21/21
f 19/19/19 18/18/18 20/20/20
f 20/20/20 21/21/21 19/19/19
f 16/16/16 17/17/17 18/18/18
f 18/18/18 19/19/19 16/16/16
f 8/8/8 7/7/7 14/14/14
f 14/14/14 15/15/15 8/8/8
f 7/7/7 6/6/6 13/13/13
f 13/13/13 14/14/14 7/7/7
f 6/6/6 5/5/5 12/12/12
f 12/12/12 13/13/13 6/6/6
f 5/5/5 4/4/4 11/11/11
f 11/11/11 12/12/12 5/5/5
f 4/4/4 3/3/3 10/10/10
f 10/10/10 11/11/11 4/4/4
f 3/3/3 2/2/2 9/9/9
f 9/9/9 10/10/10 3/3/3
f 1/1/1 7/7/7 8/8/8
f 1/1/1 6/6/6 7/7/7
f 1/1/1 5/5/5 6/6/6
f 1/1/1 4/4/4 5/5/5
f 1/1/1 3/3/3 4/4/4
f 1/1/1 2/2/2 3/3/3
