# Recovered local-space geometry; original node transforms not applied
o mesh_0
v 24.155452728271484 -0.49338531494140625 -0.029891550540924072
v 52.697235107421875 5.819061279296875 1.0342786312103271
v 39.108734130859375 3.235004425048828 -0.3423827886581421
v 40.929969787597656 0.9464411735534668 1.894958257675171
v 40.927284240722656 -1.7804834842681885 -0.5014845132827759
v 49.06896209716797 8.46151065826416 -2.1005465984344482
v 50.684112548828125 5.642936706542969 -6.507461071014404
v 52.579795837402344 2.191894769668579 -2.891273260116577
v 40.51378631591797 0.9464411735534668 -2.861987352371216
v 33.151824951171875 15.66659164428711 -0.01676240563392639
v 33.151824951171875 13.567663192749023 7.816524028778076
v 33.151824951171875 7.8332929611206055 13.550895690917969
v 33.151824951171875 3.265208943048492e-05 15.649821281433105
v 33.151824951171875 -7.8333024978637695 13.550897598266602
v 33.151824951171875 -13.56767749786377 7.816527843475342
v 33.151824951171875 -15.666603088378906 -0.01676669716835022
v 30.58857536315918 28.875091552734375 -0.01676580309867859
v 30.588577270507812 25.006563186645508 14.420775413513184
v 30.588577270507812 14.437542915344238 24.989795684814453
v 30.58856964111328 3.32160088873934e-05 28.858325958251953
v 30.588577270507812 -14.437549591064453 24.989795684814453
v 30.588577270507812 -25.006574630737305 14.420783042907715
v 20.457244873046875 38.631690979003906 -0.016769200563430786
v 4.4507904052734375 41.98802947998047 -0.016770154237747192
v 4.450786590576172 36.36268997192383 20.97724151611328
v 20.457242965698242 33.456024169921875 19.299072265625
v 4.450786590576172 20.9940128326416 36.34592056274414
v 20.457242965698242 19.31584358215332 33.43925094604492
v 4.450786590576172 3.495758573990315e-05 41.97126007080078
v 20.45724105834961 3.421237488510087e-05 38.61492156982422
v 4.450786590576172 -20.9940128326416 36.3459358215332
v 20.457242965698242 -19.31584358215332 33.43925857543945
v 4.450786590576172 -36.36270523071289 20.977249145507812
v 20.457242965698242 -33.45603561401367 19.299087524414062
v -12.645530700683594 37.927589416503906 -0.01676902174949646
v -12.64553451538086 32.846256256103516 18.947017669677734
v -12.645538330078125 18.963788986206055 32.829490661621094
v -12.645538330078125 3.55365700670518e-05 37.91082000732422
v -12.645538330078125 -18.963796615600586 32.82949447631836
v -12.64553451538086 -32.84626770019531 18.94702911376953
v -12.645530700683594 -37.92759704589844 -0.016759663820266724
v -32.07029724121094 26.228986740112305 -0.016765445470809937
v -32.07029724121094 22.714963912963867 13.097716331481934
v -32.07029724121094 13.114486694335938 22.698196411132812
v -32.07029724121094 3.5915898479288444e-05 26.212215423583984
v -32.07029724121094 -13.11449909210205 22.698196411132812
v -32.07029724121094 -22.71497917175293 13.097722053527832
v -32.07029724121094 -26.2289981842041 -0.01676371693611145
v -37.444374084472656 17.319644927978516 -0.01676347851753235
v -37.444374084472656 14.999244689941406 8.643046379089355
v -37.444374084472656 8.65981388092041 14.982477188110352
v -37.44438171386719 3.576271774363704e-05 17.302871704101562
v -37.444374084472656 -8.659832000732422 14.982479095458984
v -37.444374084472656 -14.99926471710205 8.643048286437988
v -37.444374084472656 -17.319656372070312 -0.016765326261520386
v -37.44438171386719 10.15253734588623 -0.01676037907600403
v -37.444374084472656 8.792346954345703 5.059491157531738
v -37.444374084472656 5.076258182525635 8.775579452514648
v -37.44438171386719 3.539576937328093e-05 10.135760307312012
v -37.444374084472656 -5.076279640197754 8.775579452514648
v -37.444374084472656 -8.792366981506348 5.059492588043213
v -37.44438171386719 -10.152548789978027 -0.016768664121627808
v 27.495895385742188 -5.7183751778211445e-06 -0.016764670610427856
v 33.151824951171875 -13.567673683166504 -7.85005521774292
v 33.151824951171875 -7.8333024978637695 -13.58442497253418
v 33.151824951171875 -4.172325134277344e-05 -15.683349609375
v 33.151824951171875 7.8332929611206055 -13.58442497253418
v 33.151824951171875 13.567667007446289 -7.85005521774292
v 30.58857536315918 -28.875102996826172 -0.016763538122177124
v 30.58857536315918 -25.006572723388672 -14.454307556152344
v 30.58857536315918 -14.43755054473877 -25.023326873779297
v 30.588571548461914 -4.029273986816406e-05 -28.89185333251953
v 30.58857536315918 14.437541961669922 -25.02332305908203
v 30.58857536315918 25.00656509399414 -14.454307556152344
v 20.457244873046875 -38.63169860839844 -0.016759902238845825
v 4.4507904052734375 -41.988040924072266 -0.016758590936660767
v 4.450786590576172 -36.36269760131836 -21.01077651977539
v 20.457242965698242 -33.456031799316406 -19.33260726928711
v 4.450786590576172 -20.9940185546875 -36.379451751708984
v 20.457242965698242 -19.31584930419922 -33.472782135009766
v 4.450786590576172 -4.00543212890625e-05 -42.00478744506836
v 20.45724105834961 -3.981590270996094e-05 -38.6484489440918
v 4.450786590576172 20.994007110595703 -36.379459381103516
v 20.457242965698242 19.315837860107422 -33.472782135009766
v 4.450786590576172 36.36269760131836 -21.010772705078125
v 20.457242965698242 33.45602798461914 -19.332611083984375
v -12.64553451538086 -32.84626388549805 -18.980552673339844
v -12.645538330078125 -18.963794708251953 -32.86302185058594
v -12.645538330078125 -4.124641418457031e-05 -37.9443473815918
v -12.645538330078125 18.963790893554688 -32.86301803588867
v -12.64553451538086 32.84626007080078 -18.980552673339844
v -32.07029724121094 -22.71497344970703 -13.131248474121094
v -32.07029724121094 -13.114494323730469 -22.731727600097656
v -32.07029724121094 -4.3392181396484375e-05 -26.245742797851562
v -32.07029724121094 13.11449146270752 -22.73172378540039
v -32.07029724121094 22.714969635009766 -13.131246566772461
v -37.444374084472656 -14.999255180358887 -8.676576614379883
v -37.444374084472656 -8.659823417663574 -15.016006469726562
v -37.44438171386719 -4.458427429199219e-05 -17.33639907836914
v -37.444374084472656 8.659822463989258 -15.016006469726562
v -37.444374084472656 14.99925422668457 -8.67657470703125
v -37.444374084472656 -8.792357444763184 -5.093021869659424
v -37.444374084472656 -5.076268196105957 -8.80910873413086
v -37.44438171386719 -4.5299530029296875e-05 -10.169288635253906
v -37.444374084472656 5.076269626617432 -8.809106826782227
v -37.444374084472656 8.792356491088867 -5.093020439147949
v -33.70574951171875 -5.7183751778211445e-06 -0.01676449179649353
vt 0.4907238185405731 0.28236645460128784
vt 0.4907091557979584 0.2559533715248108
vt 0.4890148937702179 0.26915550231933594
vt 0.49071648716926575 0.26915979385375977
vt 0.4924178421497345 0.26915550231933594
vt 0.4873062074184418 0.25594472885131836
vt 0.4907091557979584 0.2559533715248108
vt 0.494112104177475 0.25594472885131836
vt 0.49071648716926575 0.26915979385375977
vt 0.41031143069267273 0.26627862453460693
vt 0.4184817373752594 0.2699398398399353
vt 0.4276951253414154 0.2706458568572998
vt 0.43570849299430847 0.2706458568572998
vt 0.4445270001888275 0.2706458568572998
vt 0.45315900444984436 0.27008527517318726
vt 0.4617031514644623 0.26688075065612793
vt 0.3946736752986908 0.27488797903060913
vt 0.4069477617740631 0.279527485370636
vt 0.4205285608768463 0.2803438901901245
vt 0.435714453458786 0.2803438901901245
vt 0.4512588083744049 0.2803438901901245
vt 0.4670819938182831 0.27980291843414307
vt 0.38682302832603455 0.28823405504226685
vt 0.3847900927066803 0.30911487340927124
vt 0.39916250109672546 0.30996471643447876
vt 0.4007277190685272 0.28979045152664185
vt 0.41462668776512146 0.3106449842453003
vt 0.4163276255130768 0.2920578718185425
vt 0.43571481108665466 0.3106449842453003
vt 0.43571481108665466 0.2920578718185425
vt 0.45718440413475037 0.3106449842453003
vt 0.4554835259914398 0.2920578718185425
vt 0.47372666001319885 0.30910545587539673
vt 0.4729788601398468 0.2907845377922058
vt 0.3869929015636444 0.3319171667098999
vt 0.401615709066391 0.3289784789085388
vt 0.41668441891670227 0.32671117782592773
vt 0.43594154715538025 0.32671117782592773
vt 0.45489993691444397 0.32784485816955566
vt 0.4713619649410248 0.3309040665626526
vt 0.48687246441841125 0.3336177468299866
vt 0.39814016222953796 0.35094064474105835
vt 0.4082449972629547 0.3467295169830322
vt 0.42064228653907776 0.34451043605804443
vt 0.43535396456718445 0.3435462713241577
vt 0.4507153332233429 0.34431707859039307
vt 0.46223214268684387 0.34790825843811035
vt 0.472244530916214 0.35286784172058105
vt 0.4080750048160553 0.3603994846343994
vt 0.4139418303966522 0.35580313205718994
vt 0.4236989915370941 0.3536936044692993
vt 0.43571779131889343 0.3531040549278259
vt 0.4485768973827362 0.3536936044692993
vt 0.4573788344860077 0.3563928008079529
vt 0.46304503083229065 0.3606942892074585
vt 0.4239688217639923 0.3682170510292053
vt 0.4271445572376251 0.36596405506134033
vt 0.4307604134082794 0.3647584915161133
vt 0.43571481108665466 0.3647584915161133
vt 0.4410506784915924 0.3647584915161133
vt 0.44421443343162537 0.3656625747680664
vt 0.4477488696575165 0.36836767196655273
vt 0.4370858371257782 0.25309163331985474
vt 0.45315900444984436 0.27008527517318726
vt 0.4445270001888275 0.2706458568572998
vt 0.435708612203598 0.2706458568572998
vt 0.4276951253414154 0.2706458568572998
vt 0.4184817373752594 0.2699398398399353
vt 0.47752508521080017 0.2760346531867981
vt 0.4670819938182831 0.27980297803878784
vt 0.4512588083744049 0.2803438901901245
vt 0.435714453458786 0.2803438901901245
vt 0.4205285608768463 0.2803438901901245
vt 0.4069477617740631 0.279527485370636
vt 0.4860474765300751 0.288166344165802
vt 0.4884721338748932 0.30911487340927124
vt 0.47372666001319885 0.3090983033180237
vt 0.4729788601398468 0.2907845377922058
vt 0.45718440413475037 0.3106449842453003
vt 0.4554835259914398 0.2920578718185425
vt 0.43571481108665466 0.3106449842453003
vt 0.43571481108665466 0.2920578718185425
vt 0.41462668776512146 0.3106449842453003
vt 0.4163276255130768 0.2920578718185425
vt 0.39916250109672546 0.30996471643447876
vt 0.4007277190685272 0.28979045152664185
vt 0.4713619649410248 0.3309040665626526
vt 0.45489993691444397 0.32784485816955566
vt 0.43594154715538025 0.32671117782592773
vt 0.41668441891670227 0.32671117782592773
vt 0.401615709066391 0.3289784789085388
vt 0.46223214268684387 0.34790825843811035
vt 0.4507153332233429 0.34431707859039307
vt 0.43535396456718445 0.3435462713241577
vt 0.42064228653907776 0.34451043605804443
vt 0.4082449972629547 0.3467295169830322
vt 0.4573788344860077 0.3563928008079529
vt 0.44857683777809143 0.3536936044692993
vt 0.435717910528183 0.3531040549278259
vt 0.4236989915370941 0.3536936044692993
vt 0.4139418303966522 0.35580313205718994
vt 0.44421443343162537 0.3656625747680664
vt 0.4410506784915924 0.3647584915161133
vt 0.43571481108665466 0.3647584915161133
vt 0.4307604134082794 0.3647584915161133
vt 0.4271445572376251 0.36596405506134033
vt 0.43571987748146057 0.37239980697631836
vn -0.9930649995803833 -0.028047163039445877 0.11417297273874283
vn 0.5690744519233704 0.5386447906494141 0.6213018894195557
vn -0.4075542688369751 0.910881757736206 0.06476099044084549
vn 0.08761388063430786 -0.19914501905441284 0.9760457277297974
vn 0.12225925177335739 -0.992273211479187 -0.0211325790733099
vn 0.016990959644317627 0.9996879696846008 -0.018309883773326874
vn 0.254452109336853 0.47772806882858276 -0.8408507704734802
vn 0.583611011505127 -0.8018699288368225 -0.1280733346939087
vn -0.1595369428396225 -0.22136685252189636 -0.9620523452758789
vn 0.9997037053108215 -0.021919170394539833 -0.010585317388176918
vn 0.9997037053108215 -0.013689987361431122 -0.020126823335886
vn 0.9997037053108215 -0.001792578841559589 -0.024275340139865875
vn 0.9997037053108215 0.010585149750113487 -0.021919166669249535
vn 0.9997037053108215 0.0201268307864666 -0.013689929619431496
vn 0.9997037053108215 0.024275315925478935 -0.0017925092251971364
vn 0.9997037053108215 0.02191920578479767 0.010585284791886806
vn 0.8795763850212097 0.4751293361186981 -0.024444857612252235
vn 0.8795763850212097 0.42369648814201355 0.21639476716518402
vn 0.8795762658119202 0.2587346136569977 0.399251788854599
vn 0.8795762658119202 0.02444521337747574 0.47512951493263245
vn 0.8795763850212097 -0.21639442443847656 0.42369669675827026
vn 0.8795764446258545 -0.39925163984298706 0.25873470306396484
vn 0.4680928885936737 0.8801754713058472 0.0786142498254776
vn -0.013234985060989857 0.9959477782249451 -0.08895435929298401
vn -0.013235005550086498 0.9069932103157043 0.4209372401237488
vn 0.4680926501750946 0.722947359085083 0.5081696510314941
vn -0.013234871439635754 0.5750110149383545 0.8180386424064636
vn 0.4680927097797394 0.37200629711151123 0.8015612959861755
vn -0.013234877958893776 0.08895514160394669 0.9959477186203003
vn 0.4680928885936737 -0.07861348986625671 0.8801755309104919
vn -0.013234831392765045 -0.42093661427497864 0.9069936275482178
vn 0.46809276938438416 -0.5081691741943359 0.7229475975036621
vn -0.013234964571893215 -0.8180386424064636 0.5750109553337097
vn 0.4680928885936737 -0.8015614151954651 0.3720061480998993
vn -0.3785082697868347 0.925584614276886 0.004958286881446838
vn -0.37850821018218994 0.7991007566452026 0.46708619594573975
vn -0.3785082995891571 0.45849868655204773 0.8040587306022644
vn -0.37850847840309143 -0.004957596305757761 0.9255846738815308
vn -0.37850844860076904 -0.4670858085155487 0.7991008758544922
vn -0.37850844860076904 -0.8040587902069092 0.45849841833114624
vn -0.3785083591938019 -0.925584614276886 -0.004958305042237043
vn -0.7081984877586365 0.7058511972427368 0.015136471949517727
vn -0.7081985473632812 0.6037167310714722 0.36603423953056335
vn -0.708198606967926 0.3398172855377197 0.6188530325889587
vn -0.7081984281539917 -0.015135619789361954 0.7058511972427368
vn -0.7081984281539917 -0.3660338521003723 0.6037169694900513
vn -0.7081984281539917 -0.6188532710075378 0.33981719613075256
vn -0.7081984281539917 -0.7058511972427368 -0.015136479400098324
vn -0.963480532169342 0.26671671867370605 0.023822179064154625
vn -0.963480532169342 0.21907222270965576 0.15398910641670227
vn -0.963480532169342 0.11272819340229034 0.24289436638355255
vn -0.963480532169342 -0.02382160723209381 0.26671677827835083
vn -0.9634805917739868 -0.1539893001317978 0.21907223761081696
vn -0.963480532169342 -0.24289445579051971 0.11272776126861572
vn -0.9634805917739868 -0.2667168080806732 -0.02382219396531582
vn -0.9901581406593323 -0.13995306193828583 -1.7978149458031112e-07
vn -0.9901581406593323 -0.12120310962200165 -0.06997653096914291
vn -0.9901581406593323 -0.06997605413198471 -0.12120326608419418
vn -0.9901581406593323 -4.3780858050013194e-07 -0.13995371758937836
vn -0.9901581406593323 0.06997591257095337 -0.12120341509580612
vn -0.9901581406593323 0.12120290845632553 -0.06997630000114441
vn -0.9901581406593323 0.13995306193828583 1.7727955992086208e-07
vn 1.0 -1.4582275831287461e-08 6.6283072364115014e-09
vn 0.9997037053108215 0.013689938932657242 0.02012678235769272
vn 0.9997037053108215 0.0017925217980518937 0.024275287985801697
vn 0.9997037053108215 -0.010585208423435688 0.021919211372733116
vn 0.9997037053108215 -0.020126773044466972 0.013689936138689518
vn 0.9997037053108215 -0.02427523583173752 0.001792464405298233
vn 0.8795763254165649 -0.4751294255256653 0.02444477751851082
vn 0.8795763254165649 -0.42369651794433594 -0.21639488637447357
vn 0.8795762658119202 -0.2587346136569977 -0.3992518186569214
vn 0.8795762658119202 -0.02444513700902462 -0.47512951493263245
vn 0.8795763850212097 0.21639463305473328 -0.4236967861652374
vn 0.8795764446258545 0.39925163984298706 -0.25873467326164246
vn 0.4680928885936737 -0.8801754713058472 -0.07861428707838058
vn -0.013234985060989857 -0.9959477782249451 0.08895435929298401
vn -0.0132350018247962 -0.9069931507110596 -0.42093732953071594
vn 0.468092679977417 -0.7229472994804382 -0.5081697702407837
vn -0.01323486678302288 -0.5750108361244202 -0.8180387616157532
vn 0.46809273958206177 -0.3720061480998993 -0.8015613555908203
vn -0.0132348807528615 -0.08895497024059296 -0.9959477186203003
vn 0.46809297800064087 0.07861368358135223 -0.8801755905151367
vn -0.013234825804829597 0.420936644077301 -0.9069935083389282
vn 0.46809282898902893 0.5081692337989807 -0.7229475378990173
vn -0.013234970159828663 0.8180387020111084 -0.5750108957290649
vn 0.46809282898902893 0.8015612959861755 -0.3720061779022217
vn -0.37850821018218994 -0.7991006970405579 -0.4670862853527069
vn -0.3785082995891571 -0.4584985375404358 -0.8040587902069092
vn -0.37850844860076904 0.004957766737788916 -0.9255845546722412
vn -0.37850841879844666 0.46708592772483826 -0.7991008162498474
vn -0.37850841879844666 0.8040589690208435 -0.45849841833114624
vn -0.7081984877586365 -0.6037166714668274 -0.36603426933288574
vn -0.708198606967926 -0.33981719613075256 -0.6188530921936035
vn -0.7081983685493469 0.015135731548070908 -0.7058512568473816
vn -0.7081984877586365 0.3660339415073395 -0.6037169098854065
vn -0.7081984281539917 0.6188532114028931 -0.3398171067237854
vn -0.963480532169342 -0.21907220780849457 -0.15398912131786346
vn -0.963480532169342 -0.11272813379764557 -0.24289436638355255
vn -0.963480532169342 0.023821627721190453 -0.26671677827835083
vn -0.9634805917739868 0.15398931503295898 -0.21907220780849457
vn -0.963480532169342 0.24289445579051971 -0.11272775381803513
vn -0.9901581406593323 0.12120310962200165 0.06997654587030411
vn -0.9901581406593323 0.06997604668140411 0.12120326608419418
vn -0.9901581406593323 4.1811082951426215e-07 0.13995374739170074
vn -0.9901581406593323 -0.06997593492269516 0.12120341509580612
vn -0.9901581406593323 -0.12120291590690613 0.06997628509998322
vn -1.0 -2.3920968317270308e-08 2.657885467272081e-09
f 56/56/56 106/106/106 107/107/107
f 106/106/106 105/105/105 107/107/107
f 105/105/105 104/104/104 107/107/107
f 104/104/104 103/103/103 107/107/107
f 103/103/103 102/102/102 107/107/107
f 102/102/102 62/62/62 107/107/107
f 106/106/106 56/56/56 49/49/49
f 49/49/49 101/101/101 106/106/106
f 105/105/105 106/106/106 101/101/101
f 101/101/101 100/100/100 105/105/105
f 104/104/104 105/105/105 100/100/100
f 100/100/100 99/99/99 104/104/104
f 103/103/103 104/104/104 99/99/99
f 99/99/99 98/98/98 103/103/103
f 102/102/102 103/103/103 98/98/98
f 98/98/98 97/97/97 102/102/102
f 62/62/62 102/102/102 97/97/97
f 97/97/97 55/55/55 62/62/62
f 101/101/101 49/49/49 42/42/42
f 42/42/42 96/96/96 101/101/101
f 100/100/100 101/101/101 96/96/96
f 96/96/96 95/95/95 100/100/100
f 99/99/99 100/100/100 95/95/95
f 95/95/95 94/94/94 99/99/99
f 98/98/98 99/99/99 94/94/94
f 94/94/94 93/93/93 98/98/98
f 97/97/97 98/98/98 93/93/93
f 93/93/93 92/92/92 97/97/97
f 55/55/55 97/97/97 92/92/92
f 92/92/92 48/48/48 55/55/55
f 96/96/96 42/42/42 35/35/35
f 35/35/35 91/91/91 96/96/96
f 95/95/95 96/96/96 91/91/91
f 91/91/91 90/90/90 95/95/95
f 94/94/94 95/95/95 90/90/90
f 90/90/90 89/89/89 94/94/94
f 93/93/93 94/94/94 89/89/89
f 89/89/89 88/88/88 93/93/93
f 92/92/92 93/93/93 88/88/88
f 88/88/88 87/87/87 92/92/92
f 48/48/48 92/92/92 87/87/87
f 87/87/87 41/41/41 48/48/48
f 91/91/91 35/35/35 24/24/24
f 24/24/24 85/85/85 91/91/91
f 90/90/90 91/91/91 85/85/85
f 85/85/85 83/83/83 90/90/90
f 89/89/89 90/90/90 83/83/83
f 83/83/83 81/81/81 89/89/89
f 88/88/88 89/89/89 81/81/81
f 81/81/81 79/79/79 88/88/88
f 87/87/87 88/88/88 79/79/79
f 79/79/79 77/77/77 87/87/87
f 41/41/41 87/87/87 77/77/77
f 77/77/77 76/76/76 41/41/41
f 17/17/17 74/74/74 86/86/86
f 86/86/86 23/23/23 17/17/17
f 74/74/74 73/73/73 84/84/84
f 84/84/84 86/86/86 74/74/74
f 73/73/73 72/72/72 82/82/82
f 82/82/82 84/84/84 73/73/73
f 72/72/72 71/71/71 80/80/80
f 80/80/80 82/82/82 72/72/72
f 71/71/71 70/70/70 78/78/78
f 78/78/78 80/80/80 71/71/71
f 70/70/70 69/69/69 75/75/75
f 75/75/75 78/78/78 70/70/70
f 86/86/86 85/85/85 24/24/24
f 24/24/24 23/23/23 86/86/86
f 84/84/84 83/83/83 85/85/85
f 85/85/85 86/86/86 84/84/84
f 82/82/82 81/81/81 83/83/83
f 83/83/83 84/84/84 82/82/82
f 80/80/80 79/79/79 81/81/81
f 81/81/81 82/82/82 80/80/80
f 78/78/78 77/77/77 79/79/79
f 79/79/79 80/80/80 78/78/78
f 75/75/75 76/76/76 77/77/77
f 77/77/77 78/78/78 75/75/75
f 10/10/10 68/68/68 74/74/74
f 74/74/74 17/17/17 10/10/10
f 68/68/68 67/67/67 73/73/73
f 73/73/73 74/74/74 68/68/68
f 67/67/67 66/66/66 72/72/72
f 72/72/72 73/73/73 67/67/67
f 66/66/66 65/65/65 71/71/71
f 71/71/71 72/72/72 66/66/66
f 65/65/65 64/64/64 70/70/70
f 70/70/70 71/71/71 65/65/65
f 64/64/64 16/16/16 69/69/69
f 69/69/69 70/70/70 64/64/64
f 63/63/63 68/68/68 10/10/10
f 63/63/63 67/67/67 68/68/68
f 63/63/63 66/66/66 67/67/67
f 63/63/63 65/65/65 66/66/66
f 63/63/63 64/64/64 65/65/65
f 63/63/63 16/16/16 64/64/64
f 62/62/62 61/61/61 107/107/107
f 61/61/61 60/60/60 107/107/107
f 60/60/60 59/59/59 107/107/107
f 59/59/59 58/58/58 107/107/107
f 58/58/58 57/57/57 107/107/107
f 57/57/57 56/56/56 107/107/107
f 61/61/61 62/62/62 55/55/55
f 55/55/55 54/54/54 61/61/61
f 60/60/60 61/61/61 54/54/54
f 54/54/54 53/53/53 60/60/60
f 59/59/59 60/60/60 53/53/53
f 53/53/53 52/52/52 59/59/59
f 58/58/58 59/59/59 52/52/52
f 52/52/52 51/51/51 58/58/58
f 57/57/57 58/58/58 51/51/51
f 51/51/51 50/50/50 57/57/57
f 56/56/56 57/57/57 50/50/50
f 50/50/50 49/49/49 56/56/56
f 54/54/54 55/55/55 48/48/48
f 48/48/48 47/47/47 54/54/54
f 53/53/53 54/54/54 47/47/47
f 47/47/47 46/46/46 53/53/53
f 52/52/52 53/53/53 46/46/46
f 46/46/46 45/45/45 52/52/52
f 51/51/51 52/52/52 45/45/45
f 45/45/45 44/44/44 51/51/51
f 50/50/50 51/51/51 44/44/44
f 44/44/44 43/43/43 50/50/50
f 49/49/49 50/50/50 43/43/43
f 43/43/43 42/42/42 49/49/49
f 47/47/47 48/48/48 41/41/41
f 41/41/41 40/40/40 47/47/47
f 46/46/46 47/47/47 40/40/40
f 40/40/40 39/39/39 46/46/46
f 45/45/45 46/46/46 39/39/39
f 39/39/39 38/38/38 45/45/45
f 44/44/44 45/45/45 38/38/38
f 38/38/38 37/37/37 44/44/44
f 43/43/43 44/44/44 37/37/37
f 37/37/37 36/36/36 43/43/43
f 42/42/42 43/43/43 36/36/36
f 36/36/36 35/35/35 42/42/42
f 40/40/40 41/41/41 76/76/76
f 76/76/76 33/33/33 40/40/40
f 39/39/39 40/40/40 33/33/33
f 33/33/33 31/31/31 39/39/39
f 38/38/38 39/39/39 31/31/31
f 31/31/31 29/29/29 38/38/38
f 37/37/37 38/38/38 29/29/29
f 29/29/29 27/27/27 37/37/37
f 36/36/36 37/37/37 27/27/27
f 27/27/27 25/25/25 36/36/36
f 35/35/35 36/36/36 25/25/25
f 25/25/25 24/24/24 35/35/35
f 69/69/69 22/22/22 34/34/34
f 34/34/34 75/75/75 69/69/69
f 22/22/22 21/21/21 32/32/32
f 32/32/32 34/34/34 22/22/22
f 21/21/21 20/20/20 30/30/30
f 30/30/30 32/32/32 21/21/21
f 20/20/20 19/19/19 28/28/28
f 28/28/28 30/30/30 20/20/20
f 19/19/19 18/18/18 26/26/26
f 26/26/26 28/28/28 19/19/19
f 18/18/18 17/17/17 23/23/23
f 23/23/23 26/26/26 18/18/18
f 34/34/34 33/33/33 76/76/76
f 76/76/76 75/75/75 34/34/34
f 32/32/32 31/31/31 33/33/33
f 33/33/33 34/34/34 32/32/32
f 30/30/30 29/29/29 31/31/31
f 31/31/31 32/32/32 30/30/30
f 28/28/28 27/27/27 29/29/29
f 29/29/29 30/30/30 28/28/28
f 26/26/26 25/25/25 27/27/27
f 27/27/27 28/28/28 26/26/26
f 23/23/23 24/24/24 25/25/25
f 25/25/25 26/26/26 23/23/23
f 16/16/16 15/15/15 22/22/22
f 22/22/22 69/69/69 16/16/16
f 15/15/15 14/14/14 21/21/21
f 21/21/21 22/22/22 15/15/15
f 14/14/14 13/13/13 20/20/20
f 20/20/20 21/21/21 14/14/14
f 13/13/13 12/12/12 19/19/19
f 19/19/19 20/20/20 13/13/13
f 12/12/12 11/11/11 18/18/18
f 18/18/18 19/19/19 12/12/12
f 11/11/11 10/10/10 17/17/17
f 17/17/17 18/18/18 11/11/11
f 63/63/63 15/15/15 16/16/16
f 63/63/63 14/14/14 15/15/15
f 63/63/63 13/13/13 14/14/14
f 63/63/63 12/12/12 13/13/13
f 63/63/63 11/11/11 12/12/12
f 63/63/63 10/10/10 11/11/11
f 2/2/2 8/8/8 7/7/7
f 2/2/2 7/7/7 6/6/6
f 9/9/9 5/5/5 1/1/1
f 3/3/3 9/9/9 1/1/1
f 9/9/9 7/7/7 8/8/8
f 8/8/8 5/5/5 9/9/9
f 3/3/3 6/6/6 7/7/7
f 7/7/7 9/9/9 3/3/3
f 4/4/4 1/1/1 5/5/5
f 3/3/3 1/1/1 4/4/4
f 4/4/4 5/5/5 8/8/8
f 8/8/8 2/2/2 4/4/4
f 3/3/3 4/4/4 2/2/2
f 2/2/2 6/6/6 3/3/3
