# Recovered local-space geometry; original node transforms not applied
o mesh_0
v -18.555192947387695 32.22273635864258 -16.725643157958984
v -32.174129486083984 18.60379409790039 -16.725648880004883
v -37.15899658203125 2.3126602172851562e-05 -16.725648880004883
v -32.17411422729492 -18.603822708129883 -16.725648880004883
v -18.55518913269043 -32.222755432128906 -16.725643157958984
v -13.065874099731445 22.7149600982666 -33.754608154296875
v -22.666353225708008 13.114480018615723 -33.754608154296875
v -26.18036460876465 2.7894973754882812e-05 -33.754608154296875
v -22.666345596313477 -13.114505767822266 -33.754608154296875
v -13.065864562988281 -22.714982986450195 -33.754608154296875
v -8.611199378967285 14.999241828918457 -39.12868118286133
v -14.950630187988281 8.659810066223145 -39.128684997558594
v -17.271020889282227 3.0279159545898438e-05 -39.128692626953125
v -14.950630187988281 -8.659835815429688 -39.128684997558594
v -8.611194610595703 -14.999266624450684 -39.12868118286133
v -5.027644157409668 8.792344093322754 -39.12868118286133
v -8.743731498718262 5.076254844665527 -39.12868118286133
v -10.103909492492676 3.218650817871094e-05 -39.12868881225586
v -8.74372673034668 -5.0762834548950195 -39.12868118286133
v -5.027639865875244 -8.792367935180664 -39.12868118286133
v 0.048626359552145004 -10.152547836303711 -39.128684997558594
v 0.048621222376823425 -5.7183751778211445e-06 -35.39006042480469
v 0.0486227422952652 -26.2289981842041 -33.754608154296875
v 0.0486171655356884 -37.20763397216797 -16.725635528564453
v 18.652421951293945 -32.222755432128906 -16.72563362121582
v 32.27136993408203 -18.60381317138672 -16.72563934326172
v 37.2562370300293 -4.018154868390411e-05 -16.72563934326172
v 32.27135467529297 18.60380744934082 -16.72563934326172
v 18.652433395385742 32.22274398803711 -16.72563362121582
v 0.048620861023664474 37.207618713378906 -16.72563934326172
v 13.16311264038086 -22.714975357055664 -33.75460433959961
v 22.763591766357422 -13.114495277404785 -33.75460433959961
v 26.277605056762695 -4.329219154897146e-05 -33.75460433959961
v 22.763591766357422 13.114490509033203 -33.75460433959961
v 13.163110733032227 22.714967727661133 -33.75460433959961
v 0.048619285225868225 26.228986740112305 -33.754608154296875
v 0.048624392598867416 -17.319656372070312 -39.128684997558594
v 8.708440780639648 -14.999255180358887 -39.128684997558594
v 15.047871589660645 -8.659823417663574 -39.12868118286133
v 17.368263244628906 -4.433110007084906e-05 -39.12868881225586
v 15.04787540435791 8.659822463989258 -39.12868118286133
v 8.708439826965332 14.999253273010254 -39.128684997558594
v 0.04861992225050926 17.319644927978516 -39.128684997558594
v 5.124885082244873 -8.792357444763184 -39.128684997558594
v 8.840974807739258 -5.076268196105957 -39.128684997558594
v 10.201152801513672 -4.5156251871958375e-05 -39.128692626953125
v 8.840971946716309 5.07627010345459 -39.128684997558594
v 5.124884128570557 8.792356491088867 -39.128684997558594
v 0.048617180436849594 10.152536392211914 -39.128684997558594
v -41.93940353393555 2.193450927734375e-05 -0.079631008207798
v -20.945404052734375 36.3626823425293 -0.07963140308856964
v -36.3140754699707 20.993999481201172 -0.07963009178638458
v -36.31407165527344 -20.99402618408203 -0.07963009178638458
v -20.945392608642578 -36.36271286010742 -0.07962758839130402
v 0.048613619059324265 -41.988040924072266 -0.07962416857481003
v 42.03663635253906 -3.971127443946898e-05 -0.07962114363908768
v 36.41130447387695 20.994007110595703 -0.07962015271186829
v 0.04861874505877495 41.98802947998047 -0.07962416857481003
v 21.04262924194336 -36.362701416015625 -0.07962456345558167
v 36.41130065917969 -20.9940185546875 -0.07962015271186829
v 21.042633056640625 36.362693786621094 -0.07962074875831604
v 0.048615388572216034 -8.742014870222192e-06 -0.0796254351735115
v 0.048613619059324265 -41.988040924072266 -0.07962416857481003
v 0.0486171655356884 -37.20763397216797 -16.725635528564453
v 0.04861874505877495 41.98802947998047 -0.07962416857481003
v 0.048620861023664474 37.207618713378906 -16.72563934326172
v 0.0486227422952652 -26.2289981842041 -33.754608154296875
v 0.048619285225868225 26.228986740112305 -33.754608154296875
v 0.048624392598867416 -17.319656372070312 -39.128684997558594
v 0.04861992225050926 17.319644927978516 -39.128684997558594
v 0.048626359552145004 -10.152547836303711 -39.128684997558594
v 0.048617180436849594 10.152536392211914 -39.128684997558594
v 0.04861874505877495 41.98802947998047 -0.07962416857481003
v -20.945404052734375 36.3626823425293 -0.07963140308856964
v -36.3140754699707 20.993999481201172 -0.07963009178638458
v -41.93940353393555 2.193450927734375e-05 -0.079631008207798
v -36.31407165527344 -20.99402618408203 -0.07963009178638458
v -20.945392608642578 -36.36271286010742 -0.07962758839130402
v 0.048613619059324265 -41.988040924072266 -0.07962416857481003
v 36.41130065917969 -20.9940185546875 -0.07962015271186829
v 42.03663635253906 -3.971127443946898e-05 -0.07962114363908768
v 36.41130447387695 20.994007110595703 -0.07962015271186829
v 21.042633056640625 36.362693786621094 -0.07962074875831604
v 21.04262924194336 -36.362701416015625 -0.07962456345558167
vt 0.8984772562980652 0.7052313685417175
vt 0.9167314171791077 0.7052313685417175
vt 0.9381238222122192 0.7052313685417175
vt 0.9595163464546204 0.7052313685417175
vt 0.9777704477310181 0.7052313685417175
vt 0.9101755023002625 0.7286908030509949
vt 0.9230434894561768 0.7286908030509949
vt 0.9381237030029297 0.7286908030509949
vt 0.9532040953636169 0.7286908030509949
vt 0.966072142124176 0.7286908030509949
vt 0.9196689128875732 0.736188530921936
vt 0.9281659126281738 0.736188530921936
vt 0.9381237030029297 0.736188530921936
vt 0.9480816125869751 0.736188530921936
vt 0.95657879114151 0.736188530921936
vt 0.9273056983947754 0.7418630719184875
vt 0.9322865605354309 0.7418630719184875
vt 0.9381237030029297 0.7418630719184875
vt 0.9439610242843628 0.7418630719184875
vt 0.9489418864250183 0.7418630719184875
vt 0.9526000618934631 0.7418630719184875
vt 0.9381238222122192 0.7461890578269958
vt 0.975523054599762 0.7286908030509949
vt 0.9911771416664124 0.7052313685417175
vt 0.8984772562980652 0.7052313685417175
vt 0.9167314171791077 0.7052313685417175
vt 0.9381238222122192 0.7052313685417175
vt 0.9595163464546204 0.7052313685417175
vt 0.9777704477310181 0.7052313685417175
vt 0.8850705027580261 0.7052313685417175
vt 0.9101755023002625 0.7286908030509949
vt 0.9230434894561768 0.7286908030509949
vt 0.9381237030029297 0.7286908030509949
vt 0.9532040953636169 0.7286908030509949
vt 0.966072142124176 0.7286908030509949
vt 0.9007245898246765 0.7286908030509949
vt 0.9628194570541382 0.736188530921936
vt 0.9196689128875732 0.736188530921936
vt 0.9281659126281738 0.736188530921936
vt 0.9381237030029297 0.736188530921936
vt 0.9480816125869751 0.736188530921936
vt 0.95657879114151 0.736188530921936
vt 0.9134281873703003 0.736188530921936
vt 0.9273056983947754 0.7418630719184875
vt 0.9322865605354309 0.7418630719184875
vt 0.9381237030029297 0.7418630719184875
vt 0.9439610242843628 0.7418630719184875
vt 0.9489418864250183 0.7418630719184875
vt 0.9236475229263306 0.7418630719184875
vt 0.9381238222122192 0.682903528213501
vt 0.8933835029602051 0.682903528213501
vt 0.9139828681945801 0.682903528213501
vt 0.9622647166252136 0.682903528213501
vt 0.9828640818595886 0.682903528213501
vt 0.9979934096336365 0.682903528213501
vt 0.9381238222122192 0.682903528213501
vt 0.9622647166252136 0.682903528213501
vt 0.8782541155815125 0.682903528213501
vt 0.8933835029602051 0.682903528213501
vt 0.9139828681945801 0.682903528213501
vt 0.9828640818595886 0.682903528213501
vt 0.9980839490890503 0.7165911197662354
vt 0.8782541155815125 0.682903528213501
vt 0.8850705027580261 0.7052313685417175
vt 0.9979934096336365 0.682903528213501
vt 0.9911771416664124 0.7052313685417175
vt 0.9007245898246765 0.7286908030509949
vt 0.975523054599762 0.7286908030509949
vt 0.9134281873703003 0.736188530921936
vt 0.9628194570541382 0.736188530921936
vt 0.9236475229263306 0.7418630719184875
vt 0.9526000618934631 0.7418630719184875
vt 0.9980704188346863 0.7476478219032288
vt 0.9980705976486206 0.7476480007171631
vt 0.9980705976486206 0.7476480007171631
vt 0.9980705976486206 0.7476480007171631
vt 0.9980704188346863 0.7476478219032288
vt 0.9980705976486206 0.7476480007171631
vt 0.9980705976486206 0.7476480007171631
vt 0.9980704188346863 0.7476478219032288
vt 0.9980705976486206 0.7476480007171631
vt 0.9980705976486206 0.7476480007171631
vt 0.9980704188346863 0.7476478219032288
vt 0.9980705976486206 0.7476480007171631
vn -0.45962202548980713 0.7857927680015564 -0.4138566553592682
vn -0.7909405827522278 0.45070570707321167 -0.41385671496391296
vn -0.9103274345397949 -0.005147584713995457 -0.4138568639755249
vn -0.7857929468154907 -0.4596216082572937 -0.4138568043708801
vn -0.4507056474685669 -0.790940523147583 -0.4138568341732025
vn -0.3600117266178131 0.5948076248168945 -0.718745768070221
vn -0.6091828942298889 0.33511295914649963 -0.7187458276748657
vn -0.695124626159668 -0.014374741353094578 -0.7187455296516418
vn -0.5948079824447632 -0.3600114583969116 -0.7187455892562866
vn -0.3351127803325653 -0.6091830730438232 -0.7187457084655762
vn -0.15398909151554108 0.2190721184015274 -0.9634806513786316
vn -0.24289415776729584 0.11272808909416199 -0.9634805917739868
vn -0.26671651005744934 -0.023821666836738586 -0.9634805917739868
vn -0.21907177567481995 -0.1539893001317978 -0.9634805917739868
vn -0.112727589905262 -0.24289439618587494 -0.9634805917739868
vn 0.06997659802436829 -0.12120301276445389 -0.9901581406593323
vn 0.12120340019464493 -0.06997604668140411 -0.9901581406593323
vn 0.1399538367986679 -3.510127726258361e-07 -0.9901580214500427
vn 0.1212034597992897 0.06997589766979218 -0.9901581406593323
vn 0.06997610628604889 0.1212029829621315 -0.9901582598686218
vn -4.6062382352829445e-07 0.13995307683944702 -0.9901581406593323
vn -1.9668350148549507e-07 1.8605195606369307e-08 -1.0
vn 0.014375410042703152 -0.6951245069503784 -0.7187457084655762
vn 0.005147912539541721 -0.9103274941444397 -0.4138566851615906
vn 0.4596220552921295 -0.7857929468154907 -0.413856565952301
vn 0.7909407019615173 -0.45070597529411316 -0.41385647654533386
vn 0.9103275537490845 0.005147584713995457 -0.413856565952301
vn 0.7857931852340698 0.45962151885032654 -0.4138564467430115
vn 0.4507058262825012 0.790940523147583 -0.4138566851615906
vn -0.0051478613168001175 0.9103274345397949 -0.4138568043708801
vn 0.3600117862224579 -0.5948078632354736 -0.7187455296516418
vn 0.6091830134391785 -0.33511295914649963 -0.7187457084655762
vn 0.6951247453689575 0.014374608173966408 -0.7187454104423523
vn 0.5948081612586975 0.36001136898994446 -0.7187454700469971
vn 0.3351131081581116 0.6091831922531128 -0.7187455296516418
vn -0.014375271275639534 0.6951245665550232 -0.7187456488609314
vn 0.023822113871574402 -0.2667165994644165 -0.963480532169342
vn 0.15398915112018585 -0.21907219290733337 -0.963480532169342
vn 0.24289463460445404 -0.11272811144590378 -0.9634804725646973
vn 0.2667170763015747 0.02382153831422329 -0.9634804129600525
vn 0.21907255053520203 0.15398937463760376 -0.9634804129600525
vn 0.11272796243429184 0.24289457499980927 -0.9634804725646973
vn -0.023822449147701263 0.26671651005744934 -0.9634805917739868
vn -0.0699765682220459 0.12120291590690613 -0.9901581406593323
vn -0.12120288610458374 0.06997586041688919 -0.990158200263977
vn -0.13995333015918732 4.3066120269941166e-07 -0.990158200263977
vn -0.12120313942432404 -0.06997587531805038 -0.9901582598686218
vn -0.06997652351856232 -0.12120295315980911 -0.9901581406593323
vn -1.7780780581233557e-07 -0.1399531364440918 -0.9901581406593323
vn -0.9576287865638733 0.08553220331668854 -0.27501192688941956
vn -0.4047418236732483 0.872096598148346 -0.2750120460987091
vn -0.7865648865699768 0.5528871417045593 -0.2750117778778076
vn -0.8720968961715698 -0.4047413468360901 -0.27501213550567627
vn -0.5528872609138489 -0.7865646481513977 -0.27501219511032104
vn -0.0855318084359169 -0.9576286673545837 -0.27501213550567627
vn 0.9576288461685181 -0.0855323001742363 -0.2750113606452942
vn 0.8720969557762146 0.4047412872314453 -0.27501168847084045
vn 0.08553186804056168 0.9576286673545837 -0.27501213550567627
vn 0.4047418236732483 -0.872096598148346 -0.27501192688941956
vn 0.7865648865699768 -0.5528874397277832 -0.275011271238327
vn 0.5528875589370728 0.7865646481513977 -0.27501174807548523
vn -1.346383271538798e-07 1.7763568394002505e-14 1.0
vn -0.0855318084359169 -0.9576286673545837 -0.27501213550567627
vn 0.005147912539541721 -0.9103274941444397 -0.4138566851615906
vn 0.08553186804056168 0.9576286673545837 -0.27501213550567627
vn -0.0051478613168001175 0.9103274345397949 -0.4138568043708801
vn 0.014375410042703152 -0.6951245069503784 -0.7187457084655762
vn -0.014375271275639534 0.6951245665550232 -0.7187456488609314
vn 0.023822113871574402 -0.2667165994644165 -0.963480532169342
vn -0.023822449147701263 0.26671651005744934 -0.9634805917739868
vn -4.6062382352829445e-07 0.13995307683944702 -0.9901581406593323
vn -1.7780780581233557e-07 -0.1399531364440918 -0.9901581406593323
vn -2.53746776479602e-07 -3.0165676179194634e-08 1.0
vn -1.9323618971611722e-07 5.255691348793334e-08 1.0
vn -9.134284084666433e-08 6.359629622920693e-08 1.0
vn -1.3272915566631127e-07 -2.4868995751603507e-14 1.0
vn -1.3676884691449231e-07 1.50838381784979e-08 1.0
vn -1.4781029733512696e-07 2.6123268881406148e-08 1.0
vn -7.204284457884569e-08 3.016570815361774e-08 1.0
vn -1.496773194276102e-07 -7.631122400653112e-09 1.0
vn -1.0220853852160872e-07 1.2079226507921703e-13 1.0
vn -1.0425133467606429e-07 -7.10489302946371e-08 1.0
vn -1.3863589742868498e-07 -4.8838245447768713e-08 1.0
vn -9.320991978256643e-08 -2.984192093435922e-08 1.0
f 82/82/82 83/83/83 62/62/62
f 84/84/84 80/80/80 62/62/62
f 79/79/79 84/84/84 62/62/62
f 83/83/83 73/73/73 62/62/62
f 81/81/81 82/82/82 62/62/62
f 80/80/80 81/81/81 62/62/62
f 76/76/76 77/77/77 62/62/62
f 78/78/78 79/79/79 62/62/62
f 77/77/77 78/78/78 62/62/62
f 75/75/75 76/76/76 62/62/62
f 74/74/74 75/75/75 62/62/62
f 73/73/73 74/74/74 62/62/62
f 72/72/72 48/48/48 22/22/22
f 48/48/48 47/47/47 22/22/22
f 47/47/47 46/46/46 22/22/22
f 46/46/46 45/45/45 22/22/22
f 45/45/45 44/44/44 22/22/22
f 44/44/44 71/71/71 22/22/22
f 48/48/48 72/72/72 70/70/70
f 70/70/70 42/42/42 48/48/48
f 47/47/47 48/48/48 42/42/42
f 42/42/42 41/41/41 47/47/47
f 46/46/46 47/47/47 41/41/41
f 41/41/41 40/40/40 46/46/46
f 45/45/45 46/46/46 40/40/40
f 40/40/40 39/39/39 45/45/45
f 44/44/44 45/45/45 39/39/39
f 39/39/39 38/38/38 44/44/44
f 71/71/71 44/44/44 38/38/38
f 38/38/38 69/69/69 71/71/71
f 42/42/42 70/70/70 68/68/68
f 68/68/68 35/35/35 42/42/42
f 41/41/41 42/42/42 35/35/35
f 35/35/35 34/34/34 41/41/41
f 40/40/40 41/41/41 34/34/34
f 34/34/34 33/33/33 40/40/40
f 39/39/39 40/40/40 33/33/33
f 33/33/33 32/32/32 39/39/39
f 38/38/38 39/39/39 32/32/32
f 32/32/32 31/31/31 38/38/38
f 69/69/69 38/38/38 31/31/31
f 31/31/31 67/67/67 69/69/69
f 35/35/35 68/68/68 66/66/66
f 66/66/66 29/29/29 35/35/35
f 34/34/34 35/35/35 29/29/29
f 29/29/29 28/28/28 34/34/34
f 33/33/33 34/34/34 28/28/28
f 28/28/28 27/27/27 33/33/33
f 32/32/32 33/33/33 27/27/27
f 27/27/27 26/26/26 32/32/32
f 31/31/31 32/32/32 26/26/26
f 26/26/26 25/25/25 31/31/31
f 67/67/67 31/31/31 25/25/25
f 25/25/25 64/64/64 67/67/67
f 29/29/29 66/66/66 65/65/65
f 65/65/65 61/61/61 29/29/29
f 28/28/28 29/29/29 61/61/61
f 61/61/61 57/57/57 28/28/28
f 27/27/27 28/28/28 57/57/57
f 57/57/57 56/56/56 27/27/27
f 26/26/26 27/27/27 56/56/56
f 56/56/56 60/60/60 26/26/26
f 25/25/25 26/26/26 60/60/60
f 60/60/60 59/59/59 25/25/25
f 64/64/64 25/25/25 59/59/59
f 59/59/59 63/63/63 64/64/64
f 21/21/21 20/20/20 22/22/22
f 20/20/20 19/19/19 22/22/22
f 19/19/19 18/18/18 22/22/22
f 18/18/18 17/17/17 22/22/22
f 17/17/17 16/16/16 22/22/22
f 16/16/16 49/49/49 22/22/22
f 20/20/20 21/21/21 37/37/37
f 37/37/37 15/15/15 20/20/20
f 19/19/19 20/20/20 15/15/15
f 15/15/15 14/14/14 19/19/19
f 18/18/18 19/19/19 14/14/14
f 14/14/14 13/13/13 18/18/18
f 17/17/17 18/18/18 13/13/13
f 13/13/13 12/12/12 17/17/17
f 16/16/16 17/17/17 12/12/12
f 12/12/12 11/11/11 16/16/16
f 49/49/49 16/16/16 11/11/11
f 11/11/11 43/43/43 49/49/49
f 15/15/15 37/37/37 23/23/23
f 23/23/23 10/10/10 15/15/15
f 14/14/14 15/15/15 10/10/10
f 10/10/10 9/9/9 14/14/14
f 13/13/13 14/14/14 9/9/9
f 9/9/9 8/8/8 13/13/13
f 12/12/12 13/13/13 8/8/8
f 8/8/8 7/7/7 12/12/12
f 11/11/11 12/12/12 7/7/7
f 7/7/7 6/6/6 11/11/11
f 43/43/43 11/11/11 6/6/6
f 6/6/6 36/36/36 43/43/43
f 10/10/10 23/23/23 24/24/24
f 24/24/24 5/5/5 10/10/10
f 9/9/9 10/10/10 5/5/5
f 5/5/5 4/4/4 9/9/9
f 8/8/8 9/9/9 4/4/4
f 4/4/4 3/3/3 8/8/8
f 7/7/7 8/8/8 3/3/3
f 3/3/3 2/2/2 7/7/7
f 6/6/6 7/7/7 2/2/2
f 2/2/2 1/1/1 6/6/6
f 36/36/36 6/6/6 1/1/1
f 1/1/1 30/30/30 36/36/36
f 5/5/5 24/24/24 55/55/55
f 55/55/55 54/54/54 5/5/5
f 4/4/4 5/5/5 54/54/54
f 54/54/54 53/53/53 4/4/4
f 3/3/3 4/4/4 53/53/53
f 53/53/53 50/50/50 3/3/3
f 2/2/2 3/3/3 50/50/50
f 50/50/50 52/52/52 2/2/2
f 1/1/1 2/2/2 52/52/52
f 52/52/52 51/51/51 1/1/1
f 30/30/30 1/1/1 51/51/51
f 51/51/51 58/58/58 30/30/30
