# Recovered local-space geometry; original node transforms not applied
o mesh_0
v 16.97149658203125 -16.235992431640625 59.73368835449219
v 28.637752532958984 -11.710821151733398 58.713016510009766
v 33.14570617675781 -2.282921559526585e-05 58.31863784790039
v 28.63775634765625 11.710798263549805 58.71299743652344
v 16.971506118774414 16.23599624633789 59.73368835449219
v 5.305265426635742 11.7108154296875 60.754364013671875
v 0.7972850799560547 1.8074938452627975e-06 61.148738861083984
v 5.30523681640625 -11.71080493927002 60.75434494018555
v 15.273370742797852 -23.36212921142578 30.599773406982422
v 32.52208709716797 -16.850799560546875 29.0906925201416
v 39.18714904785156 1.8074938452627975e-06 28.507583618164062
v 32.5220947265625 16.8508243560791 29.0906982421875
v 15.273387908935547 23.36214828491211 30.599773406982422
v -1.9753189086914062 16.850839614868164 32.10884094238281
v -8.64040756225586 1.823196726036258e-05 32.69194793701172
v -1.975351333618164 -16.850793838500977 32.10884094238281
v 4.995843887329102 -26.10344886779785 -0.045196533203125
v 25.093555450439453 18.828083038330078 -0.045196533203125
v -15.101886749267578 -18.82807731628418 -0.04518890380859375
v 13.84099006652832 -7.1672773361206055 73.24939727783203
v 18.42884063720703 -4.76389217376709 73.42664337158203
v 19.792800903320312 -6.404743089660769e-06 73.68578338623047
v 18.42884063720703 4.763887882232666 73.42662048339844
v 13.840993881225586 7.167264461517334 73.2493896484375
v 8.556968688964844 5.39048957824707 73.39679718017578
v 6.421881198883057 1.8074938452627975e-06 73.49723815917969
v 8.556952476501465 -5.390485763549805 73.39678955078125
v 25.093549728393555 -18.82809829711914 -0.045196533203125
v -0.8566513061523438 1.8074938452627975e-06 87.97911834716797
v 1.2736568450927734 -6.136682510375977 87.75825500488281
v 7.547645568847656 -8.159422874450684 88.51222229003906
v 11.444774627685547 -5.423342704772949 92.53863525390625
v 12.0847749710083 -6.404743089660769e-06 94.62190246582031
v 11.444781303405762 5.423346519470215 92.53861236572266
v 7.547651290893555 8.159417152404785 88.5122299194336
v 1.2736625671386719 6.136694431304932 87.7582778930664
v 17.28263282775879 -21.84772300720215 62.15568542480469
v 32.72359085083008 -15.502449035644531 61.23965072631836
v 38.711246490478516 -2.4706152544240467e-05 60.86405563354492
v 32.723602294921875 15.50241756439209 61.23963928222656
v 17.282651901245117 21.84772300720215 62.15568923950195
v 1.488814353942871 15.878825187683105 63.10309982299805
v -4.897260665893555 5.0351800382486545e-06 63.390647888183594
v 1.4887809753417969 -15.878811836242676 63.10308074951172
v 15.551380157470703 -29.40631103515625 31.51896858215332
v 36.93522262573242 -21.086044311523438 29.293901443481445
v 45.30666732788086 3.586778802855406e-07 28.431005477905273
v 36.93523025512695 21.086069107055664 29.293907165527344
v 15.551400184631348 29.406330108642578 31.51896858215332
v -5.878293991088867 21.20449447631836 33.916290283203125
v -14.350746154785156 2.316154132131487e-05 34.893409729003906
v -5.878332138061523 -21.20444107055664 33.916290283203125
v 14.446121215820312 -12.920402526855469 75.246826171875
v 22.547061920166016 -8.172280311584473 76.4061508178711
v 24.997997283935547 3.0260753192123957e-07 76.90433502197266
v 22.547056198120117 8.172281265258789 76.4061279296875
v 14.446133613586426 12.920388221740723 75.24681854248047
v 4.510434150695801 9.941739082336426 73.99761962890625
v 0.30265045166015625 1.1014962183253374e-05 73.4608383178711
v 4.510405540466309 -9.94172477722168 73.99761199951172
v -6.708989143371582 4.998914846510161e-07 89.76898956298828
v -3.2434349060058594 -9.926069259643555 89.39818572998047
v 7.223043441772461 -13.997557640075684 90.31903076171875
v 13.57876205444336 -9.081766128540039 96.95629119873047
v 14.184016227722168 -2.2781841835239902e-06 100.37039947509766
v 13.57878589630127 9.08177375793457 96.95626068115234
v 7.223057270050049 13.997552871704102 90.31903839111328
v -3.2434234619140625 9.926081657409668 89.39823150634766
v 29.170000076293945 23.085250854492188 -1.6924667358398438
v 29.16999626159668 -23.085269927978516 -1.6924591064453125
v 5.125997543334961 32.2196044921875 -0.2187042236328125
v 5.125979423522949 -32.2196044921875 -0.21869659423828125
v 38.572837829589844 -3.262152404204244e-06 -2.2388381958007812
v -18.969446182250977 23.23686981201172 1.70379638671875
v -28.443954467773438 -17.515464782714844 -44.126434326171875
v -18.7659969329834 -12.633679389953613 -52.24720764160156
v 6.246723175048828 -16.856901168823242 -31.49138641357422
v -10.029560089111328 -23.370553970336914 -25.567283630371094
v 12.536029815673828 -8.243760930781718e-06 -33.780494689941406
v -32.59513854980469 -3.152217686874792e-08 -17.354110717773438
v -38.121910095214844 -12.633666038513184 -36.00562286376953
v -26.305831909179688 -16.856863021850586 -19.643218994140625
v 32.859493255615234 -3.218133315385785e-06 -0.045192718505859375
v -22.867816925048828 1.3206342373450752e-05 -0.045196533203125
v -44.26820755004883 -5.455256462097168 -59.12645721435547
v -47.48970413208008 -8.20743465423584 -54.97145080566406
v -53.16812515258789 -3.152240424242336e-08 -48.645729064941406
v -51.5084342956543 -6.172785758972168 -50.4447021484375
v -28.443946838378906 17.515457153320312 -44.126426696777344
v -18.7659912109375 12.633681297302246 -52.24720764160156
v 6.246726989746094 16.856876373291016 -31.49138641357422
v -10.029556274414062 23.37055778503418 -25.567291259765625
v -15.026336669921875 -3.152308636344969e-08 -55.3851318359375
v -41.86156463623047 -3.152217686874792e-08 -32.867706298828125
v -38.12190628051758 12.633662223815918 -36.005615234375
v -26.305828094482422 16.85686683654785 -19.643211364746094
v 4.995857238769531 26.10344886779785 -0.045196533203125
v -15.10186767578125 18.828096389770508 -0.04518890380859375
v -44.26820755004883 5.455250263214111 -59.12645721435547
v -47.48970413208008 8.207430839538574 -54.97145080566406
v -43.49155807495117 -3.1522631616098806e-08 -60.513694763183594
v -53.16812515258789 -3.152240424242336e-08 -48.645729064941406
v -51.5084342956543 6.172776699066162 -50.4447021484375
v -53.62527847290039 8.180713848560117e-06 -57.118309020996094
v -28.334430694580078 1.6863328710314818e-05 2.7062644958496094
v -29.61539077758789 -23.315237045288086 -45.69001770019531
v -17.240671157836914 -16.559030532836914 -56.68785858154297
v 9.461862564086914 -20.9573974609375 -34.70124053955078
v -10.288707733154297 -29.39151382446289 -26.632766723632812
v 17.178436279296875 -8.453566806565505e-06 -37.768280029296875
v -37.88880157470703 -4.402648983159452e-07 -14.283035278320312
v -42.110416412353516 -16.938390731811523 -34.269081115722656
v -30.15499496459961 -21.31914520263672 -17.99205780029297
v -45.144283294677734 -8.52122974395752 -64.35002136230469
v -50.12959671020508 -13.094789505004883 -57.54010772705078
v -58.78812026977539 9.412449344381457e-07 -46.531715393066406
v -56.32650375366211 -9.889780044555664 -49.79424285888672
v -29.61538314819336 23.315229415893555 -45.69001007080078
v -17.240665435791016 16.55903434753418 -56.68785858154297
v 9.461870193481445 20.957368850708008 -34.70124816894531
v -10.288698196411133 29.391517639160156 -26.632774353027344
v -12.397823333740234 -6.874084874652908e-07 -60.91191101074219
v -46.99460220336914 -1.575708665768616e-07 -29.535125732421875
v -42.110408782958984 16.938385009765625 -34.269073486328125
v -30.15499496459961 21.319149017333984 -17.992050170898438
v -45.144283294677734 8.521223068237305 -64.35002136230469
v -50.12958908081055 13.094788551330566 -57.54010772705078
v -43.83909225463867 6.014195150783053e-07 -66.62373352050781
v -56.32650375366211 9.889772415161133 -49.79423522949219
v -58.716373443603516 1.227784468937898e-05 -60.5146484375
v -18.969467163085938 -23.236846923828125 1.70379638671875
v 33.14570617675781 -2.282921559526585e-05 58.31863784790039
v 39.18714904785156 1.8074938452627975e-06 28.507583618164062
v 0.7972850799560547 1.8074938452627975e-06 61.148738861083984
v -8.64040756225586 1.823196726036258e-05 32.69194793701172
v 32.859493255615234 -3.218133315385785e-06 -0.045192718505859375
v -22.867816925048828 1.3206342373450752e-05 -0.045196533203125
v 19.792800903320312 -6.404743089660769e-06 73.68578338623047
v 6.421881198883057 1.8074938452627975e-06 73.49723815917969
v 1.2736568450927734 -6.136682510375977 87.75825500488281
v 1.2736568450927734 -6.136682510375977 87.75825500488281
v 11.444774627685547 -5.423342704772949 92.53863525390625
v 12.0847749710083 -6.404743089660769e-06 94.62190246582031
v -0.8566513061523438 1.8074938452627975e-06 87.97911834716797
v -0.8566513061523438 1.8074938452627975e-06 87.97911834716797
v 12.0847749710083 -6.404743089660769e-06 94.62190246582031
v 11.444781303405762 5.423346519470215 92.53861236572266
v 11.444781303405762 5.423346519470215 92.53861236572266
v 1.2736625671386719 6.136694431304932 87.7582778930664
v 18.42884063720703 -4.76389217376709 73.42664337158203
v 11.444774627685547 -5.423342704772949 92.53863525390625
v 7.547645568847656 -8.159422874450684 88.51222229003906
v 7.547645568847656 -8.159422874450684 88.51222229003906
v 13.84099006652832 -7.1672773361206055 73.24939727783203
v 18.42884063720703 -4.76389217376709 73.42664337158203
v 19.792800903320312 -6.404743089660769e-06 73.68578338623047
v 12.0847749710083 -6.404743089660769e-06 94.62190246582031
v 11.444774627685547 -5.423342704772949 92.53863525390625
v 11.444774627685547 -5.423342704772949 92.53863525390625
v 18.42884063720703 -4.76389217376709 73.42664337158203
v 19.792800903320312 -6.404743089660769e-06 73.68578338623047
v 18.42884063720703 4.763887882232666 73.42662048339844
v 11.444781303405762 5.423346519470215 92.53861236572266
v 12.0847749710083 -6.404743089660769e-06 94.62190246582031
v 12.0847749710083 -6.404743089660769e-06 94.62190246582031
v 19.792800903320312 -6.404743089660769e-06 73.68578338623047
v 18.42884063720703 4.763887882232666 73.42662048339844
v 13.840993881225586 7.167264461517334 73.2493896484375
v 7.547651290893555 8.159417152404785 88.5122299194336
v 11.444781303405762 5.423346519470215 92.53861236572266
v 11.444781303405762 5.423346519470215 92.53861236572266
v 18.42884063720703 4.763887882232666 73.42662048339844
v 13.840993881225586 7.167264461517334 73.2493896484375
v 8.556968688964844 5.39048957824707 73.39679718017578
v 1.2736625671386719 6.136694431304932 87.7582778930664
v 7.547651290893555 8.159417152404785 88.5122299194336
v 7.547651290893555 8.159417152404785 88.5122299194336
v 13.840993881225586 7.167264461517334 73.2493896484375
v 8.556968688964844 5.39048957824707 73.39679718017578
v 6.421881198883057 1.8074938452627975e-06 73.49723815917969
v -0.8566513061523438 1.8074938452627975e-06 87.97911834716797
v 1.2736625671386719 6.136694431304932 87.7582778930664
v 1.2736625671386719 6.136694431304932 87.7582778930664
v 8.556968688964844 5.39048957824707 73.39679718017578
v 6.421881198883057 1.8074938452627975e-06 73.49723815917969
v 8.556952476501465 -5.390485763549805 73.39678955078125
v 1.2736568450927734 -6.136682510375977 87.75825500488281
v -0.8566513061523438 1.8074938452627975e-06 87.97911834716797
v -0.8566513061523438 1.8074938452627975e-06 87.97911834716797
v 6.421881198883057 1.8074938452627975e-06 73.49723815917969
v 8.556952476501465 -5.390485763549805 73.39678955078125
v 13.84099006652832 -7.1672773361206055 73.24939727783203
v 7.547645568847656 -8.159422874450684 88.51222229003906
v 1.2736568450927734 -6.136682510375977 87.75825500488281
v 1.2736568450927734 -6.136682510375977 87.75825500488281
v 8.556952476501465 -5.390485763549805 73.39678955078125
v 13.84099006652832 -7.1672773361206055 73.24939727783203
v 13.57876205444336 -9.081766128540039 96.95629119873047
v -3.2434349060058594 -9.926069259643555 89.39818572998047
v -3.2434349060058594 -9.926069259643555 89.39818572998047
v 14.184016227722168 -2.2781841835239902e-06 100.37039947509766
v 14.184016227722168 -2.2781841835239902e-06 100.37039947509766
v -6.708989143371582 4.998914846510161e-07 89.76898956298828
v -6.708989143371582 4.998914846510161e-07 89.76898956298828
v 13.57878589630127 9.08177375793457 96.95626068115234
v 13.57878589630127 9.08177375793457 96.95626068115234
v -3.2434234619140625 9.926081657409668 89.39823150634766
v 22.547061920166016 -8.172280311584473 76.4061508178711
v 14.446121215820312 -12.920402526855469 75.246826171875
v 7.223043441772461 -13.997557640075684 90.31903076171875
v 7.223043441772461 -13.997557640075684 90.31903076171875
v 13.57876205444336 -9.081766128540039 96.95629119873047
v 22.547061920166016 -8.172280311584473 76.4061508178711
v 24.997997283935547 3.0260753192123957e-07 76.90433502197266
v 22.547061920166016 -8.172280311584473 76.4061508178711
v 13.57876205444336 -9.081766128540039 96.95629119873047
v 13.57876205444336 -9.081766128540039 96.95629119873047
v 14.184016227722168 -2.2781841835239902e-06 100.37039947509766
v 24.997997283935547 3.0260753192123957e-07 76.90433502197266
v 22.547056198120117 8.172281265258789 76.4061279296875
v 24.997997283935547 3.0260753192123957e-07 76.90433502197266
v 14.184016227722168 -2.2781841835239902e-06 100.37039947509766
v 14.184016227722168 -2.2781841835239902e-06 100.37039947509766
v 13.57878589630127 9.08177375793457 96.95626068115234
v 22.547056198120117 8.172281265258789 76.4061279296875
v 14.446133613586426 12.920388221740723 75.24681854248047
v 22.547056198120117 8.172281265258789 76.4061279296875
v 13.57878589630127 9.08177375793457 96.95626068115234
v 13.57878589630127 9.08177375793457 96.95626068115234
v 7.223057270050049 13.997552871704102 90.31903839111328
v 14.446133613586426 12.920388221740723 75.24681854248047
v 4.510434150695801 9.941739082336426 73.99761962890625
v 14.446133613586426 12.920388221740723 75.24681854248047
v 7.223057270050049 13.997552871704102 90.31903839111328
v 7.223057270050049 13.997552871704102 90.31903839111328
v -3.2434234619140625 9.926081657409668 89.39823150634766
v 4.510434150695801 9.941739082336426 73.99761962890625
v 0.30265045166015625 1.1014962183253374e-05 73.4608383178711
v 4.510434150695801 9.941739082336426 73.99761962890625
v -3.2434234619140625 9.926081657409668 89.39823150634766
v -3.2434234619140625 9.926081657409668 89.39823150634766
v -6.708989143371582 4.998914846510161e-07 89.76898956298828
v 0.30265045166015625 1.1014962183253374e-05 73.4608383178711
v 4.510405540466309 -9.94172477722168 73.99761199951172
v 0.30265045166015625 1.1014962183253374e-05 73.4608383178711
v -6.708989143371582 4.998914846510161e-07 89.76898956298828
v -6.708989143371582 4.998914846510161e-07 89.76898956298828
v -3.2434349060058594 -9.926069259643555 89.39818572998047
v 4.510405540466309 -9.94172477722168 73.99761199951172
v 14.446121215820312 -12.920402526855469 75.246826171875
v 4.510405540466309 -9.94172477722168 73.99761199951172
v -3.2434349060058594 -9.926069259643555 89.39818572998047
v -3.2434349060058594 -9.926069259643555 89.39818572998047
v 7.223043441772461 -13.997557640075684 90.31903076171875
v 14.446121215820312 -12.920402526855469 75.246826171875
v 25.093549728393555 -18.82809829711914 -0.045196533203125
v 4.995843887329102 -26.10344886779785 -0.045196533203125
v 32.859493255615234 -3.218133315385785e-06 -0.045192718505859375
v -15.101886749267578 -18.82807731628418 -0.04518890380859375
v -22.867816925048828 1.3206342373450752e-05 -0.045196533203125
v 25.093555450439453 18.828083038330078 -0.045196533203125
v 4.995857238769531 26.10344886779785 -0.045196533203125
v -15.10186767578125 18.828096389770508 -0.04518890380859375
v -44.26820755004883 -5.455256462097168 -59.12645721435547
v -47.48970413208008 -8.20743465423584 -54.97145080566406
v -43.49155807495117 -3.1522631616098806e-08 -60.513694763183594
v -44.26820755004883 -5.455256462097168 -59.12645721435547
v -53.62527847290039 8.180713848560117e-06 -57.118309020996094
v -51.5084342956543 -6.172785758972168 -50.4447021484375
v -53.16812515258789 -3.152240424242336e-08 -48.645729064941406
v -53.62527847290039 8.180713848560117e-06 -57.118309020996094
v -47.48970413208008 -8.20743465423584 -54.97145080566406
v -51.5084342956543 -6.172785758972168 -50.4447021484375
v -53.62527847290039 8.180713848560117e-06 -57.118309020996094
v -47.48970413208008 8.207430839538574 -54.97145080566406
v -44.26820755004883 5.455250263214111 -59.12645721435547
v -53.62527847290039 8.180713848560117e-06 -57.118309020996094
v -44.26820755004883 5.455250263214111 -59.12645721435547
v -43.49155807495117 -3.1522631616098806e-08 -60.513694763183594
v -53.62527847290039 8.180713848560117e-06 -57.118309020996094
v -53.16812515258789 -3.152240424242336e-08 -48.645729064941406
v -51.5084342956543 6.172776699066162 -50.4447021484375
v -53.62527847290039 8.180713848560117e-06 -57.118309020996094
v -51.5084342956543 6.172776699066162 -50.4447021484375
v -47.48970413208008 8.207430839538574 -54.97145080566406
v -53.62527847290039 8.180713848560117e-06 -57.118309020996094
v -45.144283294677734 -8.52122974395752 -64.35002136230469
v -50.12959671020508 -13.094789505004883 -57.54010772705078
v -43.83909225463867 6.014195150783053e-07 -66.62373352050781
v -58.716373443603516 1.227784468937898e-05 -60.5146484375
v -45.144283294677734 -8.52122974395752 -64.35002136230469
v -56.32650375366211 -9.889780044555664 -49.79424285888672
v -58.716373443603516 1.227784468937898e-05 -60.5146484375
v -58.78812026977539 9.412449344381457e-07 -46.531715393066406
v -50.12959671020508 -13.094789505004883 -57.54010772705078
v -58.716373443603516 1.227784468937898e-05 -60.5146484375
v -56.32650375366211 -9.889780044555664 -49.79424285888672
v -50.12958908081055 13.094788551330566 -57.54010772705078
v -58.716373443603516 1.227784468937898e-05 -60.5146484375
v -45.144283294677734 8.521223068237305 -64.35002136230469
v -45.144283294677734 8.521223068237305 -64.35002136230469
v -58.716373443603516 1.227784468937898e-05 -60.5146484375
v -43.83909225463867 6.014195150783053e-07 -66.62373352050781
v -58.78812026977539 9.412449344381457e-07 -46.531715393066406
v -58.716373443603516 1.227784468937898e-05 -60.5146484375
v -56.32650375366211 9.889772415161133 -49.79423522949219
v -56.32650375366211 9.889772415161133 -49.79423522949219
v -58.716373443603516 1.227784468937898e-05 -60.5146484375
v -50.12958908081055 13.094788551330566 -57.54010772705078
vt 0.8479114770889282 0.6653481721878052
vt 0.8146838545799255 0.6653300523757935
vt 0.7809338569641113 0.6644694805145264
vt 0.8146838545799255 0.6653300523757935
vt 0.7809338569641113 0.6644694805145264
vt 0.8146838545799255 0.6653300523757935
vt 0.8479114770889282 0.6653481721878052
vt 0.8146838545799255 0.6653300523757935
vt 0.8569254279136658 0.692004382610321
vt 0.8147310614585876 0.6927744150161743
vt 0.7707938551902771 0.6913067698478699
vt 0.8147310614585876 0.6927744150161743
vt 0.7707938551902771 0.6913067698478699
vt 0.8147310614585876 0.6927744150161743
vt 0.8569254279136658 0.692004382610321
vt 0.8147310614585876 0.6927744150161743
vt 0.861419141292572 0.7480244636535645
vt 0.8148248195648193 0.7481285333633423
vt 0.8148248195648193 0.7481285333633423
vt 0.83135986328125 0.647112250328064
vt 0.8146044015884399 0.6469837427139282
vt 0.7968627214431763 0.6471027135848999
vt 0.8146044015884399 0.6469837427139282
vt 0.7968627214431763 0.6471027135848999
vt 0.8146044015884399 0.6469837427139282
vt 0.83135986328125 0.647112250328064
vt 0.8146044015884399 0.6469837427139282
vt 0.8148248195648193 0.7481285333633423
vt 0.8119348883628845 0.6521152257919312
vt 0.7874394059181213 0.6521152257919312
vt 0.8402628302574158 0.6521152257919312
vt 0.7874394059181213 0.6521152257919312
vt 0.8119348883628845 0.6521152257919312
vt 0.8119348883628845 0.6521152257919312
vt 0.7874394059181213 0.6521152257919312
vt 0.8119348883628845 0.6521152257919312
vt 0.6082540154457092 0.6390203237533569
vt 0.6082696318626404 0.6390179395675659
vt 0.6082846522331238 0.6390218734741211
vt 0.6083001494407654 0.6390228271484375
vt 0.6083161234855652 0.6390203237533569
vt 0.6082167029380798 0.639022707939148
vt 0.6082294583320618 0.6390236616134644
vt 0.6082404255867004 0.639022707939148
vt 0.6082602143287659 0.6390366554260254
vt 0.6082735657691956 0.6390330791473389
vt 0.6082846522331238 0.6390317678451538
vt 0.6082952618598938 0.6390330791473389
vt 0.6083109974861145 0.6390366554260254
vt 0.6082137227058411 0.6390402317047119
vt 0.6082294583320618 0.6390416622161865
vt 0.6082447171211243 0.6390402317047119
vt 0.6082046627998352 0.6390295028686523
vt 0.6082037091255188 0.6390295028686523
vt 0.6082026362419128 0.6390295028686523
vt 0.6082037091255188 0.6390295028686523
vt 0.6082026362419128 0.6390295028686523
vt 0.6082037091255188 0.6390295028686523
vt 0.6082046627998352 0.6390295028686523
vt 0.6082037091255188 0.6390295028686523
vt 0.6082063317298889 0.6390283107757568
vt 0.6082059741020203 0.6390283107757568
vt 0.6082069277763367 0.6390283107757568
vt 0.6082059741020203 0.6390283107757568
vt 0.6082063317298889 0.6390283107757568
vt 0.6082063317298889 0.6390283107757568
vt 0.6082059741020203 0.6390283107757568
vt 0.6082063317298889 0.6390283107757568
vt 0.6082947850227356 0.6390509605407715
vt 0.6082740426063538 0.6390509605407715
vt 0.6083099246025085 0.6390560865402222
vt 0.6082615256309509 0.6390560865402222
vt 0.6082846522331238 0.6390489339828491
vt 0.608212411403656 0.6390612125396729
vt 0.8477028608322144 0.7186338901519775
vt 0.8122895359992981 0.7186521291732788
vt 0.8122954368591309 0.6907038688659668
vt 0.8567168116569519 0.6914739608764648
vt 0.7690351009368896 0.692171573638916
vt 0.7690351009368896 0.692171573638916
vt 0.8122895359992981 0.7186521291732788
vt 0.8122954368591309 0.6907038688659668
vt 0.7670742273330688 0.747978150844574
vt 0.861419141292572 0.7480244636535645
vt 0.8122795224189758 0.744152843952179
vt 0.8311512470245361 0.744024395942688
vt 0.7951039671897888 0.7440338730812073
vt 0.8122795224189758 0.744152843952179
vt 0.8477028608322144 0.7186338901519775
vt 0.8122895359992981 0.7186521291732788
vt 0.8122954368591309 0.6907038688659668
vt 0.8567168116569519 0.6914739608764648
vt 0.7791751027107239 0.7195127010345459
vt 0.7791751027107239 0.7195127010345459
vt 0.8122895359992981 0.7186521291732788
vt 0.8122954368591309 0.6907038688659668
vt 0.7670742273330688 0.747978150844574
vt 0.8148248195648193 0.7481285333633423
vt 0.8122795224189758 0.744152843952179
vt 0.8311512470245361 0.744024395942688
vt 0.7951039671897888 0.7440338730812073
vt 0.7951039671897888 0.7440338730812073
vt 0.8122795224189758 0.744152843952179
vt 0.8122376799583435 0.7539061903953552
vt 0.6082294583320618 0.6390631198883057
vt 0.6082556843757629 0.6390886306762695
vt 0.6082715392112732 0.6390906572341919
vt 0.6082738041877747 0.6390728950500488
vt 0.6082605719566345 0.6390738487243652
vt 0.6082846522331238 0.6390725374221802
vt 0.6082294583320618 0.6390750408172607
vt 0.6082412600517273 0.6390867233276367
vt 0.6082445979118347 0.6390748023986816
vt 0.6082037091255188 0.6390295028686523
vt 0.6082046627998352 0.6390295028686523
vt 0.6082026362419128 0.6390295028686523
vt 0.6082037091255188 0.6390295028686523
vt 0.6083140969276428 0.6390899419784546
vt 0.6082977652549744 0.6390906572341919
vt 0.6082950234413147 0.6390728950500488
vt 0.6083106398582458 0.6390738487243652
vt 0.6082846522331238 0.6390913724899292
vt 0.6082294583320618 0.6390858888626099
vt 0.6082161068916321 0.6390867233276367
vt 0.6082137227058411 0.6390748023986816
vt 0.6082037091255188 0.6390295028686523
vt 0.6082046627998352 0.6390295028686523
vt 0.6082026362419128 0.6390295028686523
vt 0.6082037091255188 0.6390295028686523
vt 0.6082037091255188 0.6390283107757568
vt 0.608246386051178 0.6390612125396729
vt 0.8479114770889282 0.6653481721878052
vt 0.8569254279136658 0.692004382610321
vt 0.7809338569641113 0.6644694805145264
vt 0.7707938551902771 0.6913067698478699
vt 0.861419141292572 0.7480244636535645
vt 0.7670742273330688 0.747978150844574
vt 0.83135986328125 0.647112250328064
vt 0.7968627214431763 0.6471027135848999
vt 0.7874394059181213 0.6521152257919312
vt 0.7874394059181213 0.6521152257919312
vt 0.7874394059181213 0.6521152257919312
vt 0.8119348883628845 0.6521152257919312
vt 0.8119348883628845 0.6521152257919312
vt 0.8119348883628845 0.6521152257919312
vt 0.8119348883628845 0.6521152257919312
vt 0.8119348883628845 0.6521152257919312
vt 0.8119348883628845 0.6521152257919312
vt 0.8119348883628845 0.6521152257919312
vt 0.8126643300056458 0.6535871028900146
vt 0.8126479983329773 0.6521422266960144
vt 0.8397294878959656 0.6521422863006592
vt 0.8397294878959656 0.6521422863006592
vt 0.8377177119255066 0.6535895466804504
vt 0.8126643300056458 0.6535871028900146
vt 0.7895029187202454 0.6535841226577759
vt 0.7876449227333069 0.6521422266960144
vt 0.8126586079597473 0.6521422266960144
vt 0.8126586079597473 0.6521422266960144
vt 0.812676727771759 0.6535866260528564
vt 0.7895029187202454 0.6535841226577759
vt 0.8126643300056458 0.6535871028900146
vt 0.8126479983329773 0.6521422266960144
vt 0.8397294878959656 0.6521422863006592
vt 0.8397294878959656 0.6521422863006592
vt 0.8377177119255066 0.6535895466804504
vt 0.8126643300056458 0.6535871028900146
vt 0.7895029187202454 0.6535841226577759
vt 0.7876449227333069 0.6521422266960144
vt 0.8126586079597473 0.6521422266960144
vt 0.8126586079597473 0.6521422266960144
vt 0.812676727771759 0.6535866260528564
vt 0.7895029187202454 0.6535841226577759
vt 0.8126643300056458 0.6535871028900146
vt 0.8126479983329773 0.6521422266960144
vt 0.8397294878959656 0.6521422863006592
vt 0.8397294878959656 0.6521422863006592
vt 0.8377177119255066 0.6535895466804504
vt 0.8126643300056458 0.6535871028900146
vt 0.7895029187202454 0.6535841226577759
vt 0.7876449227333069 0.6521422266960144
vt 0.8126586079597473 0.6521422266960144
vt 0.8126586079597473 0.6521422266960144
vt 0.812676727771759 0.6535866260528564
vt 0.7895029187202454 0.6535841226577759
vt 0.8126643300056458 0.6535871028900146
vt 0.8126479983329773 0.6521422266960144
vt 0.8397294878959656 0.6521422863006592
vt 0.8397294878959656 0.6521422863006592
vt 0.8377177119255066 0.6535895466804504
vt 0.8126643300056458 0.6535871028900146
vt 0.7895029187202454 0.6535841226577759
vt 0.7876449227333069 0.6521422266960144
vt 0.8126586079597473 0.6521422266960144
vt 0.8126586079597473 0.6521422266960144
vt 0.812676727771759 0.6535866260528564
vt 0.7895029187202454 0.6535841226577759
vt 0.6082059741020203 0.6390283107757568
vt 0.6082059741020203 0.6390283107757568
vt 0.6082059741020203 0.6390283107757568
vt 0.6082063317298889 0.6390283107757568
vt 0.6082063317298889 0.6390283107757568
vt 0.6082063317298889 0.6390283107757568
vt 0.6082063317298889 0.6390283107757568
vt 0.6082063317298889 0.6390283107757568
vt 0.6082063317298889 0.6390283107757568
vt 0.6082063317298889 0.6390283107757568
vt 0.6082064509391785 0.6390297412872314
vt 0.6082068085670471 0.6390297412872314
vt 0.6082069277763367 0.6390284299850464
vt 0.6082069277763367 0.6390284299850464
vt 0.6082064509391785 0.6390284299850464
vt 0.6082064509391785 0.6390297412872314
vt 0.6082060933113098 0.6390297412872314
vt 0.6082064509391785 0.6390297412872314
vt 0.6082064509391785 0.6390284299850464
vt 0.6082064509391785 0.6390284299850464
vt 0.6082059741020203 0.6390284299850464
vt 0.6082060933113098 0.6390297412872314
vt 0.6082064509391785 0.6390297412872314
vt 0.6082068085670471 0.6390297412872314
vt 0.6082069277763367 0.6390284299850464
vt 0.6082069277763367 0.6390284299850464
vt 0.6082064509391785 0.6390284299850464
vt 0.6082064509391785 0.6390297412872314
vt 0.6082060933113098 0.6390297412872314
vt 0.6082064509391785 0.6390297412872314
vt 0.6082064509391785 0.6390284299850464
vt 0.6082064509391785 0.6390284299850464
vt 0.6082059741020203 0.6390284299850464
vt 0.6082060933113098 0.6390297412872314
vt 0.6082064509391785 0.6390297412872314
vt 0.6082068085670471 0.6390297412872314
vt 0.6082069277763367 0.6390284299850464
vt 0.6082069277763367 0.6390284299850464
vt 0.6082064509391785 0.6390284299850464
vt 0.6082064509391785 0.6390297412872314
vt 0.6082060933113098 0.6390297412872314
vt 0.6082064509391785 0.6390297412872314
vt 0.6082064509391785 0.6390284299850464
vt 0.6082064509391785 0.6390284299850464
vt 0.6082059741020203 0.6390284299850464
vt 0.6082060933113098 0.6390297412872314
vt 0.6082064509391785 0.6390297412872314
vt 0.6082068085670471 0.6390297412872314
vt 0.6082069277763367 0.6390284299850464
vt 0.6082069277763367 0.6390284299850464
vt 0.6082064509391785 0.6390284299850464
vt 0.6082064509391785 0.6390297412872314
vt 0.6082060933113098 0.6390297412872314
vt 0.6082064509391785 0.6390297412872314
vt 0.6082064509391785 0.6390284299850464
vt 0.6082064509391785 0.6390284299850464
vt 0.6082059741020203 0.6390284299850464
vt 0.6082060933113098 0.6390297412872314
vt 0.8123072385787964 0.6499598622322083
vt 0.8612105250358582 0.6500639319419861
vt 0.7653154730796814 0.6501102447509766
vt 0.8123072385787964 0.6499598622322083
vt 0.7653154730796814 0.6501102447509766
vt 0.8123072385787964 0.6499598622322083
vt 0.8612105250358582 0.6500639319419861
vt 0.8123072385787964 0.6499598622322083
vt 0.8122795224189758 0.744152843952179
vt 0.8311512470245361 0.744024395942688
vt 0.7951039671897888 0.7440338730812073
vt 0.8122795224189758 0.744152843952179
vt 0.8122376799583435 0.7539061903953552
vt 0.8122795224189758 0.744152843952179
vt 0.7951039671897888 0.7440338730812073
vt 0.8122376799583435 0.7539061903953552
vt 0.8311512470245361 0.744024395942688
vt 0.8122795224189758 0.744152843952179
vt 0.8122376799583435 0.7539061903953552
vt 0.8311512470245361 0.744024395942688
vt 0.8122795224189758 0.744152843952179
vt 0.8122376799583435 0.753941535949707
vt 0.8122795224189758 0.744152843952179
vt 0.7951039671897888 0.7440338730812073
vt 0.8122376799583435 0.753941535949707
vt 0.7951039671897888 0.7440338730812073
vt 0.8122795224189758 0.744152843952179
vt 0.8122376799583435 0.753941535949707
vt 0.8122795224189758 0.744152843952179
vt 0.8311512470245361 0.744024395942688
vt 0.8122376799583435 0.753941535949707
vt 0.6082035899162292 0.6390295028686523
vt 0.6082046627998352 0.6390295028686523
vt 0.6082026362419128 0.6390295028686523
vt 0.6082037091255188 0.6390283107757568
vt 0.6082035899162292 0.6390295028686523
vt 0.6082035899162292 0.6390295028686523
vt 0.6082037091255188 0.6390283107757568
vt 0.6082026362419128 0.6390295028686523
vt 0.6082046627998352 0.6390295028686523
vt 0.6082037091255188 0.6390283107757568
vt 0.6082035899162292 0.6390295028686523
vt 0.6082046627998352 0.6390295028686523
vt 0.6082037091255188 0.6390283107757568
vt 0.6082035899162292 0.6390295028686523
vt 0.6082035899162292 0.6390295028686523
vt 0.6082037091255188 0.6390283107757568
vt 0.6082026362419128 0.6390295028686523
vt 0.6082026362419128 0.6390295028686523
vt 0.6082037091255188 0.6390283107757568
vt 0.6082035899162292 0.6390295028686523
vt 0.6082035899162292 0.6390295028686523
vt 0.6082037091255188 0.6390283107757568
vt 0.6082046627998352 0.6390295028686523
vn 0.09881983697414398 -0.9240928292274475 0.36917078495025635
vn 0.6636013388633728 -0.6098811626434326 0.43321850895881653
vn 0.8957508206367493 0.02012973092496395 0.444100558757782
vn 0.6365296244621277 0.6278877854347229 0.44786933064460754
vn 0.024487584829330444 0.9064655303955078 0.42156919836997986
vn -0.6372552514076233 0.6589294075965881 0.399647057056427
vn -0.9311496615409851 -0.002750560874119401 0.36462682485580444
vn -0.5908647775650024 -0.7038578391075134 0.39428794384002686
vn 0.011662325821816921 -0.9889305233955383 0.14792092144489288
vn 0.7034195065498352 -0.7101869583129883 0.028907079249620438
vn 0.9999392628669739 0.00465062540024519 -0.009991226717829704
vn 0.7003687024116516 0.711506187915802 0.056944992393255234
vn 0.016329405829310417 0.9837791919708252 0.17863896489143372
vn -0.6511788964271545 0.6920391321182251 0.3115251958370209
vn -0.9343672394752502 -0.0003015583788510412 0.3563113808631897
vn -0.6584201455116272 -0.6951013207435608 0.28864702582359314
vn -0.12070486694574356 -0.9915437698364258 0.04765816032886505
vn 0.6560514569282532 0.7060645222663879 -0.26658838987350464
vn -0.7280260324478149 -0.5901452898979187 0.34886494278907776
vn 0.039903461933135986 -0.824361264705658 0.5646558403968811
vn 0.6329873204231262 -0.42742279171943665 0.6454741358757019
vn 0.7540812492370605 0.08937849849462509 0.6506713032722473
vn 0.5017484426498413 0.5994206666946411 0.6236533522605896
vn -0.06381833553314209 0.8374086022377014 0.5428388714790344
vn -0.7066207528114319 0.5440001487731934 0.45249417424201965
vn -0.902957558631897 -0.12049080431461334 0.41249221563339233
vn -0.6062175631523132 -0.6379702091217041 0.47486254572868347
vn 0.5483111143112183 -0.8030709028244019 -0.23330722749233246
vn -0.44858118891716003 -0.1871749460697174 0.87392258644104
vn -0.2910468876361847 -0.6365192532539368 0.7142373919487
vn -0.2910468876361847 -0.6365192532539368 0.7142373919487
vn -0.2910468876361847 -0.6365192532539368 0.7142373919487
vn -0.44858118891716003 -0.1871749460697174 0.87392258644104
vn -0.40882304310798645 0.17415887117385864 0.8958417177200317
vn -0.29104357957839966 0.6365195512771606 0.7142384052276611
vn -0.40882304310798645 0.17415887117385864 0.8958417177200317
vn -0.1043873280286789 0.9219344854354858 -0.3730148673057556
vn -0.663434624671936 0.6111876368522644 -0.4316296875476837
vn -0.8975201845169067 -0.017547430470585823 -0.4406241178512573
vn -0.6391659379005432 -0.6277725100517273 -0.4442618191242218
vn -0.02482919953763485 -0.9051595330238342 -0.42434626817703247
vn 0.637301504611969 -0.651807963848114 -0.4110878109931946
vn 0.9225406050682068 0.006015123799443245 -0.385853111743927
vn 0.5896944403648376 0.6954759359359741 -0.41057729721069336
vn -0.018277116119861603 0.9889428019523621 -0.14716747403144836
vn -0.7075394988059998 0.7060521841049194 -0.029635857790708542
vn -0.9999560117721558 -0.0042377617210149765 0.008378630504012108
vn -0.7042098045349121 -0.7077162265777588 -0.0568014495074749
vn -0.023419946432113647 -0.9836065769195557 -0.1788010150194168
vn 0.6484084725379944 -0.6947221755981445 -0.3113321363925934
vn 0.9343539476394653 -0.00010177552758250386 -0.35634633898735046
vn 0.6551044583320618 0.6986582279205322 -0.28760209679603577
vn -0.026389507576823235 0.8166553974151611 -0.5765219330787659
vn -0.631624698638916 0.4385662376880646 -0.6393042206764221
vn -0.7586161494255066 -0.09244292229413986 -0.6449463963508606
vn -0.4973684549331665 -0.6049430966377258 -0.621826708316803
vn 0.08244582265615463 -0.8249721527099609 -0.5591275691986084
vn 0.7012249231338501 -0.5217835903167725 -0.4858245551586151
vn 0.8846562504768372 0.12194942682981491 -0.4500131905078888
vn 0.6159576177597046 0.6072931885719299 -0.5017880201339722
vn 0.4444364607334137 0.18788906931877136 -0.8758846521377563
vn 0.3005179464817047 0.6059478521347046 -0.7365570068359375
vn 0.3005179464817047 0.6059478521347046 -0.7365570068359375
vn 0.3005179464817047 0.6059478521347046 -0.7365570068359375
vn 0.37775617837905884 0.30364981293678284 -0.874698281288147
vn 0.43280091881752014 -0.2918105721473694 -0.8529537916183472
vn 0.3005145788192749 -0.6059485673904419 -0.7365578413009644
vn 0.39650842547416687 -0.17211806774139404 -0.9017519950866699
vn -0.6580087542533875 -0.704295814037323 0.26644325256347656
vn -0.552232563495636 0.8001748323440552 0.23400737345218658
vn -0.005314577836543322 -0.99996018409729 -0.007166821975260973
vn 0.11816558986902237 0.9918809533119202 -0.04700075462460518
vn -0.9162229299545288 0.05709344893693924 0.3965802490711212
vn 0.6360278129577637 -0.7032662034034729 -0.31762439012527466
vn -0.12189571559429169 -0.9522853493690491 -0.2798108160495758
vn 0.24519459903240204 -0.640861451625824 -0.7274450063705444
vn 0.5145167708396912 -0.6861409544944763 -0.5142791867256165
vn -0.05257858335971832 -0.9891542196273804 -0.13714811205863953
vn 0.7027903199195862 -3.7618736570266265e-08 -0.7113970518112183
vn -0.871855616569519 1.3292236644701916e-07 0.4897629916667938
vn -0.618719756603241 -0.7388885021209717 0.2668887972831726
vn -0.6351422071456909 -0.7131521105766296 0.2966621220111847
vn 0.9157283902168274 -0.05664242431521416 -0.39778533577919006
vn -0.8975806832313538 0.07506868988275528 0.43441179394721985
vn 0.09728187322616577 -0.47811082005500793 -0.8728954792022705
vn -0.27415168285369873 -0.9119797348976135 -0.3051786720752716
vn -0.7586442828178406 -0.3606867492198944 0.542553186416626
vn -0.6584478616714478 -0.6893883347511292 0.3019772469997406
vn -0.12189553678035736 0.9522854089736938 -0.27981096506118774
vn 0.24519464373588562 0.6408616304397583 -0.7274448275566101
vn 0.514517068862915 0.6861406564712524 -0.514279305934906
vn -0.052578095346689224 0.9891541600227356 -0.13714879751205444
vn 0.33106693625450134 -2.1406174610660855e-08 -0.9436072707176208
vn -0.8426806926727295 -1.598263388302712e-08 0.5384136438369751
vn -0.6187198162078857 0.7388885617256165 0.2668886184692383
vn -0.6351421475410461 0.7131522297859192 0.29666197299957275
vn 0.001003808923996985 0.9999623894691467 0.008617940358817577
vn -0.6389418244361877 0.6997690796852112 0.31949448585510254
vn 0.0972817987203598 0.47811073064804077 -0.8728954195976257
vn -0.2741518020629883 0.9119796752929688 -0.3051784038543701
vn 0.17731450498104095 1.2365082113774406e-07 -0.984154224395752
vn -0.7586442828178406 0.3606869876384735 0.5425530076026917
vn -0.6584479212760925 0.6893882155418396 0.30197715759277344
vn -0.46209916472435 -0.5312008261680603 -0.7101338505744934
vn 0.8974921703338623 -0.07675759494304657 -0.4342995882034302
vn 0.12064936757087708 0.9511227607727051 0.2842699885368347
vn -0.2455306053161621 0.6396483182907104 0.7283987998962402
vn -0.5154175758361816 0.6839378476142883 0.5163077712059021
vn 0.05130840092897415 0.9888986349105835 0.13945229351520538
vn -0.7018453478813171 1.1836822011446202e-07 0.7123293876647949
vn 0.8722573518753052 -6.937044361166045e-08 -0.48904716968536377
vn 0.6204599738121033 0.7391083240509033 -0.2621992528438568
vn 0.6332855820655823 0.7155117392539978 -0.2949445843696594
vn -0.0972825288772583 0.4826914370059967 0.8703706860542297
vn 0.2782158851623535 0.9096248149871826 0.30851033329963684
vn 0.8207734823226929 -5.606737829566555e-08 -0.5712539553642273
vn 0.6635227203369141 0.6873153448104858 -0.29552528262138367
vn 0.12064924836158752 -0.9511227011680603 0.28426995873451233
vn -0.2455306351184845 -0.6396483778953552 0.7283986806869507
vn -0.5154179334640503 -0.6839374899864197 0.5163078904151917
vn 0.05130799487233162 -0.9888985753059387 0.13945285975933075
vn -0.33177927136421204 2.6810447195657616e-08 0.9433570504188538
vn 0.8448993563652039 -3.7416231890574636e-08 -0.5349252820014954
vn 0.6204599142074585 -0.7391083240509033 -0.2621990740299225
vn 0.6332854628562927 -0.7155119180679321 -0.2949444055557251
vn -0.09728245437145233 -0.48269131779670715 0.8703707456588745
vn 0.2782159447669983 -0.9096248745918274 0.3085101246833801
vn -0.17874088883399963 -1.2411786087795917e-07 0.9838961958885193
vn 0.6635226011276245 -0.6873153448104858 -0.29552555084228516
vn 0.5093107223510742 0.49403882026672363 0.7046476006507874
vn 0.7247133851051331 0.5951237678527832 -0.34730130434036255
vn 0.8957508206367493 0.02012973092496395 0.444100558757782
vn 0.9999392628669739 0.00465062540024519 -0.009991226717829704
vn -0.9311496615409851 -0.002750560874119401 0.36462682485580444
vn -0.9343672394752502 -0.0003015583788510412 0.3563113808631897
vn 0.9157283902168274 -0.05664242431521416 -0.39778533577919006
vn -0.8975806832313538 0.07506868988275528 0.43441179394721985
vn 0.7540812492370605 0.08937849849462509 0.6506713032722473
vn -0.902957558631897 -0.12049080431461334 0.41249221563339233
vn -0.44858118891716003 -0.1871749460697174 0.87392258644104
vn -0.3904159367084503 -0.28961795568466187 0.8738974928855896
vn -0.3904159367084503 -0.28961795568466187 0.8738974928855896
vn -0.3904159367084503 -0.28961795568466187 0.8738974928855896
vn -0.40882304310798645 0.17415887117385864 0.8958417177200317
vn -0.43883243203163147 0.2766219675540924 0.8549306392669678
vn -0.43883243203163147 0.2766219675540924 0.8549306392669678
vn -0.43883243203163147 0.2766219675540924 0.8549306392669678
vn -0.29104357957839966 0.6365195512771606 0.7142384052276611
vn -0.29104357957839966 0.6365195512771606 0.7142384052276611
vn 0.46740224957466125 -0.8727784752845764 0.1406872719526291
vn 0.46740224957466125 -0.8727784752845764 0.1406872719526291
vn 0.46740224957466125 -0.8727784752845764 0.1406872719526291
vn 0.4560813307762146 -0.8802680373191833 0.13083574175834656
vn 0.4560813307762146 -0.8802680373191833 0.13083574175834656
vn 0.4560813307762146 -0.8802680373191833 0.13083574175834656
vn 0.9117873311042786 -0.2365480363368988 0.3356916606426239
vn 0.9117873311042786 -0.2365480363368988 0.3356916606426239
vn 0.9117873311042786 -0.2365480363368988 0.3356916606426239
vn 0.9056010842323303 -0.27676713466644287 0.32138270139694214
vn 0.9056010842323303 -0.27676713466644287 0.32138270139694214
vn 0.9056010842323303 -0.27676713466644287 0.32138270139694214
vn 0.9158486127853394 0.2335416078567505 0.3266185224056244
vn 0.9158486127853394 0.2335416078567505 0.3266185224056244
vn 0.9158486127853394 0.2335416078567505 0.3266185224056244
vn 0.9018921852111816 0.2762865126132965 0.33204853534698486
vn 0.9018921852111816 0.2762865126132965 0.33204853534698486
vn 0.9018921852111816 0.2762865126132965 0.33204853534698486
vn 0.4702697992324829 0.871786892414093 0.1372368037700653
vn 0.4702697992324829 0.871786892414093 0.1372368037700653
vn 0.4702697992324829 0.871786892414093 0.1372368037700653
vn 0.45558884739875793 0.8797200322151184 0.13613027334213257
vn 0.45558884739875793 0.8797200322151184 0.13613027334213257
vn 0.45558884739875793 0.8797200322151184 0.13613027334213257
vn -0.2803232967853546 0.9407029747962952 -0.19104140996932983
vn -0.2803232967853546 0.9407029747962952 -0.19104140996932983
vn -0.2803232967853546 0.9407029747962952 -0.19104140996932983
vn -0.3176211416721344 0.9287128448486328 -0.1913355439901352
vn -0.3176211416721344 0.9287128448486328 -0.1913355439901352
vn -0.3176211416721344 0.9287128448486328 -0.1913355439901352
vn -0.8572153449058533 0.2820725440979004 -0.43083280324935913
vn -0.8572153449058533 0.2820725440979004 -0.43083280324935913
vn -0.8572153449058533 0.2820725440979004 -0.43083280324935913
vn -0.8370768427848816 0.3233299255371094 -0.4413163959980011
vn -0.8370768427848816 0.3233299255371094 -0.4413163959980011
vn -0.8370768427848816 0.3233299255371094 -0.4413163959980011
vn -0.8504713773727417 -0.2791901230812073 -0.4458155930042267
vn -0.8504713773727417 -0.2791901230812073 -0.4458155930042267
vn -0.8504713773727417 -0.2791901230812073 -0.4458155930042267
vn -0.8445056676864624 -0.3265835642814636 -0.4244450032711029
vn -0.8445056676864624 -0.3265835642814636 -0.4244450032711029
vn -0.8445056676864624 -0.3265835642814636 -0.4244450032711029
vn -0.2825431525707245 -0.9426372647285461 -0.17777669429779053
vn -0.2825431525707245 -0.9426372647285461 -0.17777669429779053
vn -0.2825431525707245 -0.9426372647285461 -0.17777669429779053
vn -0.31692296266555786 -0.9251833558082581 -0.2087957113981247
vn -0.31692296266555786 -0.9251833558082581 -0.2087957113981247
vn -0.31692296266555786 -0.9251833558082581 -0.2087957113981247
vn 0.37775617837905884 0.30364981293678284 -0.874698281288147
vn 0.37775617837905884 0.30364981293678284 -0.874698281288147
vn 0.4444364607334137 0.18788906931877136 -0.8758846521377563
vn 0.4444364607334137 0.18788906931877136 -0.8758846521377563
vn 0.43280091881752014 -0.2918105721473694 -0.8529537916183472
vn 0.43280091881752014 -0.2918105721473694 -0.8529537916183472
vn 0.39650842547416687 -0.17211806774139404 -0.9017519950866699
vn 0.39650842547416687 -0.17211806774139404 -0.9017519950866699
vn 0.3005145788192749 -0.6059485673904419 -0.7365578413009644
vn 0.3005145788192749 -0.6059485673904419 -0.7365578413009644
vn -0.4803388714790344 0.8607096076011658 -0.16868187487125397
vn -0.4803388714790344 0.8607096076011658 -0.16868187487125397
vn -0.4803388714790344 0.8607096076011658 -0.16868187487125397
vn -0.4832379221916199 0.8582448959350586 -0.17290692031383514
vn -0.4832379221916199 0.8582448959350586 -0.17290692031383514
vn -0.4832379221916199 0.8582448959350586 -0.17290692031383514
vn -0.8824643492698669 0.28735998272895813 -0.37239915132522583
vn -0.8824643492698669 0.28735998272895813 -0.37239915132522583
vn -0.8824643492698669 0.28735998272895813 -0.37239915132522583
vn -0.8873864412307739 0.21287217736244202 -0.40893861651420593
vn -0.8873864412307739 0.21287217736244202 -0.40893861651420593
vn -0.8873864412307739 0.21287217736244202 -0.40893861651420593
vn -0.8704032301902771 -0.2854948043823242 -0.4011121690273285
vn -0.8704032301902771 -0.2854948043823242 -0.4011121690273285
vn -0.8704032301902771 -0.2854948043823242 -0.4011121690273285
vn -0.9004682898521423 -0.20434091985225677 -0.38392922282218933
vn -0.9004682898521423 -0.20434091985225677 -0.38392922282218933
vn -0.9004682898521423 -0.20434091985225677 -0.38392922282218933
vn -0.4798245131969452 -0.8604758977890015 -0.17131760716438293
vn -0.4798245131969452 -0.8604758977890015 -0.17131760716438293
vn -0.4798245131969452 -0.8604758977890015 -0.17131760716438293
vn -0.48480224609375 -0.8577381372451782 -0.17103242874145508
vn -0.48480224609375 -0.8577381372451782 -0.17103242874145508
vn -0.48480224609375 -0.8577381372451782 -0.17103242874145508
vn 0.259588360786438 -0.94643235206604 0.19204139709472656
vn 0.259588360786438 -0.94643235206604 0.19204139709472656
vn 0.259588360786438 -0.94643235206604 0.19204139709472656
vn 0.3439236283302307 -0.9230694770812988 0.17221927642822266
vn 0.3439236283302307 -0.9230694770812988 0.17221927642822266
vn 0.3439236283302307 -0.9230694770812988 0.17221927642822266
vn 0.8287726640701294 -0.37328261137008667 0.41688868403434753
vn 0.8287726640701294 -0.37328261137008667 0.41688868403434753
vn 0.8287726640701294 -0.37328261137008667 0.41688868403434753
vn 0.8784798979759216 -0.2926023304462433 0.37769952416419983
vn 0.8784798979759216 -0.2926023304462433 0.37769952416419983
vn 0.8784798979759216 -0.2926023304462433 0.37769952416419983
vn 0.8499712944030762 0.37947407364845276 0.36544278264045715
vn 0.8499712944030762 0.37947407364845276 0.36544278264045715
vn 0.8499712944030762 0.37947407364845276 0.36544278264045715
vn 0.8567761182785034 0.283028244972229 0.4310796856880188
vn 0.8567761182785034 0.283028244972229 0.4310796856880188
vn 0.8567761182785034 0.283028244972229 0.4310796856880188
vn 0.26900890469551086 0.9537044167518616 0.1344704031944275
vn 0.26900890469551086 0.9537044167518616 0.1344704031944275
vn 0.26900890469551086 0.9537044167518616 0.1344704031944275
vn 0.3357820212841034 0.9143606424331665 0.2262633740901947
vn 0.3357820212841034 0.9143606424331665 0.2262633740901947
vn 0.3357820212841034 0.9143606424331665 0.2262633740901947
vn 0.5483111143112183 -0.8030709028244019 -0.23330722749233246
vn -0.12070486694574356 -0.9915437698364258 0.04765816032886505
vn 0.9157283902168274 -0.05664242431521416 -0.39778533577919006
vn -0.7280260324478149 -0.5901452898979187 0.34886494278907776
vn -0.8975806832313538 0.07506868988275528 0.43441179394721985
vn 0.6560514569282532 0.7060645222663879 -0.26658838987350464
vn 0.001003808923996985 0.9999623894691467 0.008617940358817577
vn -0.6389418244361877 0.6997690796852112 0.31949448585510254
vn -0.46209916472435 -0.5312008261680603 -0.7101338505744934
vn -0.46209916472435 -0.5312008261680603 -0.7101338505744934
vn -0.31177401542663574 -0.19223561882972717 -0.9305066466331482
vn -0.31177401542663574 -0.19223561882972717 -0.9305066466331482
vn -0.31177401542663574 -0.19223561882972717 -0.9305066466331482
vn -0.9605147242546082 -0.2733597755432129 0.05182603746652603
vn -0.9605147242546082 -0.2733597755432129 0.05182603746652603
vn -0.9605147242546082 -0.2733597755432129 0.05182603746652603
vn -0.704929769039154 -0.6180164813995361 -0.3480370044708252
vn -0.704929769039154 -0.6180164813995361 -0.3480370044708252
vn -0.704929769039154 -0.6180164813995361 -0.3480370044708252
vn -0.4620983600616455 0.5312014818191528 -0.7101338505744934
vn -0.4620983600616455 0.5312014818191528 -0.7101338505744934
vn -0.4620983600616455 0.5312014818191528 -0.7101338505744934
vn -0.3117736876010895 0.19223590195178986 -0.930506706237793
vn -0.3117736876010895 0.19223590195178986 -0.930506706237793
vn -0.3117736876010895 0.19223590195178986 -0.930506706237793
vn -0.9605145454406738 0.2733602523803711 0.05182656645774841
vn -0.9605145454406738 0.2733602523803711 0.05182656645774841
vn -0.9605145454406738 0.2733602523803711 0.05182656645774841
vn -0.704929530620575 0.6180174946784973 -0.3480355739593506
vn -0.704929530620575 0.6180174946784973 -0.3480355739593506
vn -0.704929530620575 0.6180174946784973 -0.3480355739593506
vn 0.5093107223510742 0.49403882026672363 0.7046476006507874
vn 0.5093107223510742 0.49403882026672363 0.7046476006507874
vn 0.37326982617378235 0.18537767231464386 0.9090130925178528
vn 0.37326982617378235 0.18537767231464386 0.9090130925178528
vn 0.37326982617378235 0.18537767231464386 0.9090130925178528
vn 0.9707638621330261 0.23998479545116425 0.004981212317943573
vn 0.9707638621330261 0.23998479545116425 0.004981212317943573
vn 0.9707638621330261 0.23998479545116425 0.004981212317943573
vn 0.7413355708122253 0.5675058364868164 0.35827189683914185
vn 0.7413355708122253 0.5675058364868164 0.35827189683914185
vn 0.7413355708122253 0.5675058364868164 0.35827189683914185
vn 0.5093100666999817 -0.4940396547317505 0.7046474814414978
vn 0.5093100666999817 -0.4940396547317505 0.7046474814414978
vn 0.5093100666999817 -0.4940396547317505 0.7046474814414978
vn 0.37326958775520325 -0.18537789583206177 0.9090131521224976
vn 0.37326958775520325 -0.18537789583206177 0.9090131521224976
vn 0.37326958775520325 -0.18537789583206177 0.9090131521224976
vn 0.9707638025283813 -0.2399851530790329 0.004980821628123522
vn 0.9707638025283813 -0.2399851530790329 0.004980821628123522
vn 0.9707638025283813 -0.2399851530790329 0.004980821628123522
vn 0.7413350939750671 -0.5675069689750671 0.3582710027694702
vn 0.7413350939750671 -0.5675069689750671 0.3582710027694702
vn 0.7413350939750671 -0.5675069689750671 0.3582710027694702
f 307/307/307 308/308/308 309/309/309
f 304/304/304 305/305/305 306/306/306
f 301/301/301 302/302/302 303/303/303
f 298/298/298 299/299/299 300/300/300
f 295/295/295 296/296/296 297/297/297
f 292/292/292 293/293/293 294/294/294
f 289/289/289 290/290/290 291/291/291
f 287/287/287 130/130/130 288/288/288
f 127/127/127 118/118/118 124/124/124
f 124/124/124 129/129/129 127/127/127
f 116/116/116 129/129/129 124/124/124
f 124/124/124 123/123/123 116/116/116
f 126/126/126 128/128/128 122/122/122
f 122/122/122 119/119/119 126/126/126
f 127/127/127 126/126/126 119/119/119
f 119/119/119 118/118/118 127/127/127
f 125/125/125 121/121/121 71/71/71
f 71/71/71 74/74/74 125/125/125
f 111/111/111 125/125/125 74/74/74
f 74/74/74 105/105/105 111/111/111
f 120/120/120 110/110/110 73/73/73
f 73/73/73 69/69/69 120/120/120
f 121/121/121 120/120/120 69/69/69
f 69/69/69 71/71/71 121/121/121
f 124/124/124 118/118/118 121/121/121
f 121/121/121 125/125/125 124/124/124
f 123/123/123 124/124/124 125/125/125
f 125/125/125 111/111/111 123/123/123
f 119/119/119 122/122/122 110/110/110
f 110/110/110 120/120/120 119/119/119
f 118/118/118 119/119/119 120/120/120
f 120/120/120 121/121/121 118/118/118
f 115/115/115 117/117/117 112/112/112
f 112/112/112 106/106/106 115/115/115
f 116/116/116 123/123/123 112/112/112
f 112/112/112 117/117/117 116/116/116
f 114/114/114 107/107/107 122/122/122
f 122/122/122 128/128/128 114/114/114
f 115/115/115 106/106/106 107/107/107
f 107/107/107 114/114/114 115/115/115
f 113/113/113 131/131/131 72/72/72
f 72/72/72 109/109/109 113/113/113
f 111/111/111 105/105/105 131/131/131
f 131/131/131 113/113/113 111/111/111
f 108/108/108 70/70/70 73/73/73
f 73/73/73 110/110/110 108/108/108
f 109/109/109 72/72/72 70/70/70
f 70/70/70 108/108/108 109/109/109
f 112/112/112 113/113/113 109/109/109
f 109/109/109 106/106/106 112/112/112
f 123/123/123 111/111/111 113/113/113
f 113/113/113 112/112/112 123/123/123
f 107/107/107 108/108/108 110/110/110
f 110/110/110 122/122/122 107/107/107
f 106/106/106 109/109/109 108/108/108
f 108/108/108 107/107/107 106/106/106
f 284/284/284 285/285/285 286/286/286
f 281/281/281 282/282/282 283/283/283
f 278/278/278 279/279/279 280/280/280
f 275/275/275 276/276/276 277/277/277
f 272/272/272 273/273/273 274/274/274
f 269/269/269 270/270/270 271/271/271
f 266/266/266 267/267/267 268/268/268
f 264/264/264 265/265/265 104/104/104
f 100/100/100 103/103/103 95/95/95
f 95/95/95 89/89/89 100/100/100
f 102/102/102 94/94/94 95/95/95
f 95/95/95 103/103/103 102/102/102
f 99/99/99 90/90/90 93/93/93
f 93/93/93 101/101/101 99/99/99
f 100/100/100 89/89/89 90/90/90
f 90/90/90 99/99/99 100/100/100
f 96/96/96 263/263/263 262/262/262
f 262/262/262 92/92/92 96/96/96
f 80/80/80 260/260/260 263/263/263
f 263/263/263 96/96/96 80/80/80
f 91/91/91 261/261/261 258/258/258
f 258/258/258 79/79/79 91/91/91
f 92/92/92 262/262/262 261/261/261
f 261/261/261 91/91/91 92/92/92
f 95/95/95 96/96/96 92/92/92
f 92/92/92 89/89/89 95/95/95
f 94/94/94 80/80/80 96/96/96
f 96/96/96 95/95/95 94/94/94
f 90/90/90 91/91/91 79/79/79
f 79/79/79 93/93/93 90/90/90
f 89/89/89 92/92/92 91/91/91
f 91/91/91 90/90/90 89/89/89
f 86/86/86 75/75/75 81/81/81
f 81/81/81 88/88/88 86/86/86
f 87/87/87 88/88/88 81/81/81
f 81/81/81 94/94/94 87/87/87
f 85/85/85 101/101/101 93/93/93
f 93/93/93 76/76/76 85/85/85
f 86/86/86 85/85/85 76/76/76
f 76/76/76 75/75/75 86/86/86
f 82/82/82 78/78/78 257/257/257
f 257/257/257 259/259/259 82/82/82
f 80/80/80 82/82/82 259/259/259
f 259/259/259 260/260/260 80/80/80
f 77/77/77 79/79/79 258/258/258
f 258/258/258 256/256/256 77/77/77
f 78/78/78 77/77/77 256/256/256
f 256/256/256 257/257/257 78/78/78
f 81/81/81 75/75/75 78/78/78
f 78/78/78 82/82/82 81/81/81
f 94/94/94 81/81/81 82/82/82
f 82/82/82 80/80/80 94/94/94
f 76/76/76 93/93/93 79/79/79
f 79/79/79 77/77/77 76/76/76
f 75/75/75 76/76/76 77/77/77
f 77/77/77 78/78/78 75/75/75
f 253/253/253 254/254/254 255/255/255
f 250/250/250 251/251/251 252/252/252
f 247/247/247 248/248/248 249/249/249
f 244/244/244 245/245/245 246/246/246
f 241/241/241 242/242/242 243/243/243
f 238/238/238 239/239/239 240/240/240
f 235/235/235 236/236/236 237/237/237
f 232/232/232 233/233/233 234/234/234
f 229/229/229 230/230/230 231/231/231
f 226/226/226 227/227/227 228/228/228
f 223/223/223 224/224/224 225/225/225
f 220/220/220 221/221/221 222/222/222
f 217/217/217 218/218/218 219/219/219
f 214/214/214 215/215/215 216/216/216
f 211/211/211 212/212/212 213/213/213
f 208/208/208 209/209/209 210/210/210
f 206/206/206 207/207/207 67/67/67
f 204/204/204 68/68/68 205/205/205
f 66/66/66 202/202/202 203/203/203
f 200/200/200 61/61/61 201/201/201
f 65/65/65 198/198/198 199/199/199
f 64/64/64 63/63/63 62/62/62
f 53/53/53 37/37/37 44/44/44
f 44/44/44 60/60/60 53/53/53
f 59/59/59 60/60/60 44/44/44
f 44/44/44 43/43/43 59/59/59
f 58/58/58 59/59/59 43/43/43
f 43/43/43 42/42/42 58/58/58
f 57/57/57 58/58/58 42/42/42
f 42/42/42 41/41/41 57/57/57
f 56/56/56 57/57/57 41/41/41
f 41/41/41 40/40/40 56/56/56
f 55/55/55 56/56/56 40/40/40
f 40/40/40 39/39/39 55/55/55
f 54/54/54 55/55/55 39/39/39
f 39/39/39 38/38/38 54/54/54
f 53/53/53 54/54/54 38/38/38
f 38/38/38 37/37/37 53/53/53
f 52/52/52 45/45/45 72/72/72
f 72/72/72 131/131/131 52/52/52
f 51/51/51 52/52/52 131/131/131
f 131/131/131 105/105/105 51/51/51
f 50/50/50 51/51/51 105/105/105
f 105/105/105 74/74/74 50/50/50
f 49/49/49 50/50/50 74/74/74
f 74/74/74 71/71/71 49/49/49
f 48/48/48 49/49/49 71/71/71
f 71/71/71 69/69/69 48/48/48
f 47/47/47 48/48/48 69/69/69
f 69/69/69 73/73/73 47/47/47
f 46/46/46 47/47/47 73/73/73
f 73/73/73 70/70/70 46/46/46
f 45/45/45 46/46/46 70/70/70
f 70/70/70 72/72/72 45/45/45
f 44/44/44 37/37/37 45/45/45
f 45/45/45 52/52/52 44/44/44
f 43/43/43 44/44/44 52/52/52
f 52/52/52 51/51/51 43/43/43
f 42/42/42 43/43/43 51/51/51
f 51/51/51 50/50/50 42/42/42
f 41/41/41 42/42/42 50/50/50
f 50/50/50 49/49/49 41/41/41
f 40/40/40 41/41/41 49/49/49
f 49/49/49 48/48/48 40/40/40
f 39/39/39 40/40/40 48/48/48
f 48/48/48 47/47/47 39/39/39
f 38/38/38 39/39/39 47/47/47
f 47/47/47 46/46/46 38/38/38
f 37/37/37 38/38/38 46/46/46
f 46/46/46 45/45/45 37/37/37
f 195/195/195 196/196/196 197/197/197
f 192/192/192 193/193/193 194/194/194
f 189/189/189 190/190/190 191/191/191
f 186/186/186 187/187/187 188/188/188
f 183/183/183 184/184/184 185/185/185
f 180/180/180 181/181/181 182/182/182
f 177/177/177 178/178/178 179/179/179
f 174/174/174 175/175/175 176/176/176
f 171/171/171 172/172/172 173/173/173
f 168/168/168 169/169/169 170/170/170
f 165/165/165 166/166/166 167/167/167
f 162/162/162 163/163/163 164/164/164
f 159/159/159 160/160/160 161/161/161
f 156/156/156 157/157/157 158/158/158
f 153/153/153 154/154/154 155/155/155
f 150/150/150 151/151/151 152/152/152
f 148/148/148 35/35/35 149/149/149
f 145/145/145 146/146/146 147/147/147
f 34/34/34 36/36/36 144/144/144
f 141/141/141 142/142/142 143/143/143
f 33/33/33 29/29/29 140/140/140
f 32/32/32 30/30/30 31/31/31
f 20/20/20 27/27/27 8/8/8
f 8/8/8 1/1/1 20/20/20
f 139/139/139 134/134/134 8/8/8
f 8/8/8 27/27/27 139/139/139
f 25/25/25 6/6/6 7/7/7
f 7/7/7 26/26/26 25/25/25
f 24/24/24 5/5/5 6/6/6
f 6/6/6 25/25/25 24/24/24
f 23/23/23 4/4/4 5/5/5
f 5/5/5 24/24/24 23/23/23
f 138/138/138 132/132/132 4/4/4
f 4/4/4 23/23/23 138/138/138
f 21/21/21 2/2/2 3/3/3
f 3/3/3 22/22/22 21/21/21
f 20/20/20 1/1/1 2/2/2
f 2/2/2 21/21/21 20/20/20
f 16/16/16 19/19/19 17/17/17
f 17/17/17 9/9/9 16/16/16
f 135/135/135 137/137/137 19/19/19
f 19/19/19 16/16/16 135/135/135
f 14/14/14 98/98/98 84/84/84
f 84/84/84 15/15/15 14/14/14
f 13/13/13 97/97/97 98/98/98
f 98/98/98 14/14/14 13/13/13
f 12/12/12 18/18/18 97/97/97
f 97/97/97 13/13/13 12/12/12
f 133/133/133 136/136/136 18/18/18
f 18/18/18 12/12/12 133/133/133
f 10/10/10 28/28/28 83/83/83
f 83/83/83 11/11/11 10/10/10
f 9/9/9 17/17/17 28/28/28
f 28/28/28 10/10/10 9/9/9
f 8/8/8 16/16/16 9/9/9
f 9/9/9 1/1/1 8/8/8
f 134/134/134 135/135/135 16/16/16
f 16/16/16 8/8/8 134/134/134
f 6/6/6 14/14/14 15/15/15
f 15/15/15 7/7/7 6/6/6
f 5/5/5 13/13/13 14/14/14
f 14/14/14 6/6/6 5/5/5
f 4/4/4 12/12/12 13/13/13
f 13/13/13 5/5/5 4/4/4
f 132/132/132 133/133/133 12/12/12
f 12/12/12 4/4/4 132/132/132
f 2/2/2 10/10/10 11/11/11
f 11/11/11 3/3/3 2/2/2
f 1/1/1 9/9/9 10/10/10
f 10/10/10 2/2/2 1/1/1
