# Recovered local-space geometry; original node transforms not applied
o mesh_0
v 17.271793365478516 -21.738996505737305 62.105770111083984
v 32.64189147949219 -15.429380416870117 61.190757751464844
v 38.60126876831055 -2.4493241653544828e-05 60.816001892089844
v 32.64189910888672 15.429349899291992 61.19074249267578
v 17.271814346313477 21.738998413085938 62.10577392578125
v 1.5529909133911133 15.797835350036621 63.03837585449219
v -4.795807838439941 5.006320407119347e-06 63.320674896240234
v 1.552957534790039 -15.797821998596191 63.038352966308594
v 15.537694931030273 -29.28821563720703 31.500686645507812
v 36.844844818115234 -21.007043838500977 29.289167404174805
v 45.18667221069336 2.989451104440377e-07 28.431838989257812
v 36.844852447509766 21.007068634033203 29.289173126220703
v 15.537714004516602 29.28823471069336 31.50068473815918
v -5.805660247802734 21.11579132080078 33.88047409057617
v -14.238609313964844 2.2939941118238494e-05 34.850677490234375
v -5.805699348449707 -21.115737915039062 33.88047409057617
v 5.117952346801758 -32.099788665771484 -0.2155216485261917
v 29.087039947509766 23.005298614501953 -1.658560037612915
v 14.42428970336914 -12.809402465820312 75.20545959472656
v 22.472021102905273 -8.106444358825684 76.33869171142578
v 24.922008514404297 1.0869416655623354e-07 76.79885864257812
v 22.472017288208008 8.1064453125 76.33866882324219
v 14.424302101135254 12.809388160705566 75.20545959472656
v 4.560370445251465 9.83831787109375 73.89078521728516
v 0.4240736961364746 1.0626927178236656e-05 73.33505249023438
v 4.5603437423706055 -9.83830451965332 73.89077758789062
v -6.606577396392822 7.44139128983079e-07 89.69327545166016
v -3.135467529296875 -9.888956069946289 89.33307647705078
v 7.264680862426758 -13.88515853881836 90.28306579589844
v 13.532169342041016 -9.040873527526855 96.84632873535156
v 14.206701278686523 -1.5302953215723392e-06 100.23416137695312
v 13.53219223022461 9.040882110595703 96.84629821777344
v 7.264695167541504 13.885152816772461 90.28307342529297
v -3.13545560836792 9.888968467712402 89.33311462402344
v -29.59391975402832 -23.202106475830078 -45.656044006347656
v -17.270517349243164 -16.4842529296875 -56.59883117675781
v 9.396585464477539 -20.88129425048828 -34.63505172729492
v -10.289542198181152 -29.273895263671875 -26.607952117919922
v 17.08875846862793 -8.211666681745555e-06 -37.68852233886719
v -37.7847785949707 -1.0063947684102459e-06 -14.342863082885742
v -42.03160095214844 -16.85262680053711 -34.298377990722656
v -30.084003448486328 -21.226858139038086 -18.02193260192871
v 29.0870361328125 -23.00531768798828 -1.6585557460784912
v 38.461421966552734 -3.218133315385785e-06 -2.194240093231201
v -28.226411819458008 1.6869546016096137e-05 2.653963804244995
v -18.898212432861328 -23.146739959716797 1.6685941219329834
v -45.08186721801758 -8.471380233764648 -64.24905395507812
v -50.03989791870117 -13.025187492370605 -57.47859573364258
v -58.446502685546875 1.430511474609375e-06 -46.62062072753906
v -56.198936462402344 -9.857033729553223 -49.79237747192383
v -29.59390640258789 23.202098846435547 -45.656036376953125
v -17.270511627197266 16.484256744384766 -56.59883117675781
v 9.396592140197754 20.88126564025879 -34.63505172729492
v -10.289533615112305 29.273897171020508 -26.60796356201172
v -12.448631286621094 -5.863946626050165e-07 -60.803199768066406
v -46.88372802734375 8.934921424952336e-08 -29.584739685058594
v -42.03159713745117 16.852624893188477 -34.298370361328125
v -30.083999633789062 21.22686004638672 -18.02192497253418
v 5.1179704666137695 32.09978485107422 -0.21552681922912598
v -18.898189544677734 23.14676284790039 1.6685911417007446
v -45.08186721801758 8.47137451171875 -64.24905395507812
v -50.03989791870117 13.025186538696289 -57.47859573364258
v -43.787635803222656 5.64945025871566e-07 -66.50638580322266
v -56.198936462402344 9.857027053833008 -49.79237747192383
v -58.61356735229492 1.2425461136444937e-05 -60.4525260925293
v 45.18667221069336 2.989451104440377e-07 28.431838989257812
v 38.60126876831055 -2.4493241653544828e-05 60.816001892089844
v -14.238609313964844 2.2939941118238494e-05 34.850677490234375
v -4.795807838439941 5.006320407119347e-06 63.320674896240234
v 38.461421966552734 -3.218133315385785e-06 -2.194240093231201
v -28.226411819458008 1.6869546016096137e-05 2.653963804244995
v 24.922008514404297 1.0869416655623354e-07 76.79885864257812
v 0.4240736961364746 1.0626927178236656e-05 73.33505249023438
v 13.532169342041016 -9.040873527526855 96.84632873535156
v -3.135467529296875 -9.888956069946289 89.33307647705078
v -3.135467529296875 -9.888956069946289 89.33307647705078
v 14.206701278686523 -1.5302953215723392e-06 100.23416137695312
v 14.206701278686523 -1.5302953215723392e-06 100.23416137695312
v -6.606577396392822 7.44139128983079e-07 89.69327545166016
v -6.606577396392822 7.44139128983079e-07 89.69327545166016
v 13.53219223022461 9.040882110595703 96.84629821777344
v 13.53219223022461 9.040882110595703 96.84629821777344
v -3.13545560836792 9.888968467712402 89.33311462402344
v 22.472021102905273 -8.106444358825684 76.33869171142578
v 14.42428970336914 -12.809402465820312 75.20545959472656
v 7.264680862426758 -13.88515853881836 90.28306579589844
v 7.264680862426758 -13.88515853881836 90.28306579589844
v 13.532169342041016 -9.040873527526855 96.84632873535156
v 22.472021102905273 -8.106444358825684 76.33869171142578
v 24.922008514404297 1.0869416655623354e-07 76.79885864257812
v 22.472021102905273 -8.106444358825684 76.33869171142578
v 13.532169342041016 -9.040873527526855 96.84632873535156
v 13.532169342041016 -9.040873527526855 96.84632873535156
v 14.206701278686523 -1.5302953215723392e-06 100.23416137695312
v 24.922008514404297 1.0869416655623354e-07 76.79885864257812
v 22.472017288208008 8.1064453125 76.33866882324219
v 24.922008514404297 1.0869416655623354e-07 76.79885864257812
v 14.206701278686523 -1.5302953215723392e-06 100.23416137695312
v 14.206701278686523 -1.5302953215723392e-06 100.23416137695312
v 13.53219223022461 9.040882110595703 96.84629821777344
v 22.472017288208008 8.1064453125 76.33866882324219
v 14.424302101135254 12.809388160705566 75.20545959472656
v 22.472017288208008 8.1064453125 76.33866882324219
v 13.53219223022461 9.040882110595703 96.84629821777344
v 13.53219223022461 9.040882110595703 96.84629821777344
v 7.264695167541504 13.885152816772461 90.28307342529297
v 14.424302101135254 12.809388160705566 75.20545959472656
v 4.560370445251465 9.83831787109375 73.89078521728516
v 14.424302101135254 12.809388160705566 75.20545959472656
v 7.264695167541504 13.885152816772461 90.28307342529297
v 7.264695167541504 13.885152816772461 90.28307342529297
v -3.13545560836792 9.888968467712402 89.33311462402344
v 4.560370445251465 9.83831787109375 73.89078521728516
v 0.4240736961364746 1.0626927178236656e-05 73.33505249023438
v 4.560370445251465 9.83831787109375 73.89078521728516
v -3.13545560836792 9.888968467712402 89.33311462402344
v -3.13545560836792 9.888968467712402 89.33311462402344
v -6.606577396392822 7.44139128983079e-07 89.69327545166016
v 0.4240736961364746 1.0626927178236656e-05 73.33505249023438
v 4.5603437423706055 -9.83830451965332 73.89077758789062
v 0.4240736961364746 1.0626927178236656e-05 73.33505249023438
v -6.606577396392822 7.44139128983079e-07 89.69327545166016
v -6.606577396392822 7.44139128983079e-07 89.69327545166016
v -3.135467529296875 -9.888956069946289 89.33307647705078
v 4.5603437423706055 -9.83830451965332 73.89077758789062
v 14.42428970336914 -12.809402465820312 75.20545959472656
v 4.5603437423706055 -9.83830451965332 73.89077758789062
v -3.135467529296875 -9.888956069946289 89.33307647705078
v -3.135467529296875 -9.888956069946289 89.33307647705078
v 7.264680862426758 -13.88515853881836 90.28306579589844
v 14.42428970336914 -12.809402465820312 75.20545959472656
v 5.1179704666137695 32.09978485107422 -0.21552681922912598
v -45.08186721801758 -8.471380233764648 -64.24905395507812
v -50.03989791870117 -13.025187492370605 -57.47859573364258
v -43.787635803222656 5.64945025871566e-07 -66.50638580322266
v -58.61356735229492 1.2425461136444937e-05 -60.4525260925293
v -45.08186721801758 -8.471380233764648 -64.24905395507812
v -56.198936462402344 -9.857033729553223 -49.79237747192383
v -58.61356735229492 1.2425461136444937e-05 -60.4525260925293
v -58.446502685546875 1.430511474609375e-06 -46.62062072753906
v -50.03989791870117 -13.025187492370605 -57.47859573364258
v -58.61356735229492 1.2425461136444937e-05 -60.4525260925293
v -56.198936462402344 -9.857033729553223 -49.79237747192383
v -50.03989791870117 13.025186538696289 -57.47859573364258
v -58.61356735229492 1.2425461136444937e-05 -60.4525260925293
v -45.08186721801758 8.47137451171875 -64.24905395507812
v -45.08186721801758 8.47137451171875 -64.24905395507812
v -58.61356735229492 1.2425461136444937e-05 -60.4525260925293
v -43.787635803222656 5.64945025871566e-07 -66.50638580322266
v -58.446502685546875 1.430511474609375e-06 -46.62062072753906
v -58.61356735229492 1.2425461136444937e-05 -60.4525260925293
v -56.198936462402344 9.857027053833008 -49.79237747192383
v -56.198936462402344 9.857027053833008 -49.79237747192383
v -58.61356735229492 1.2425461136444937e-05 -60.4525260925293
v -50.03989791870117 13.025186538696289 -57.47859573364258
vt 0.4294435381889343 0.5734694600105286
vt 0.4283881187438965 0.5734689235687256
vt 0.4273160696029663 0.5734415650367737
vt 0.4283881187438965 0.5734689235687256
vt 0.4273160696029663 0.5734415650367737
vt 0.4283881187438965 0.5734689235687256
vt 0.4294435381889343 0.5734694600105286
vt 0.4283881187438965 0.5734689235687256
vt 0.4297298789024353 0.5745722055435181
vt 0.42838966846466064 0.5745967030525208
vt 0.4269939661026001 0.5745500326156616
vt 0.42838966846466064 0.5745967030525208
vt 0.4269939661026001 0.5745500326156616
vt 0.42838966846466064 0.5745967030525208
vt 0.4297298789024353 0.5745722055435181
vt 0.42838966846466064 0.5745967030525208
vt 0.42987263202667236 0.575743556022644
vt 0.42839258909225464 0.5757468342781067
vt 0.4289177656173706 0.5726310014724731
vt 0.4283856153488159 0.5726269483566284
vt 0.4278220534324646 0.5726307034492493
vt 0.4283856153488159 0.5726269483566284
vt 0.4278220534324646 0.5726307034492493
vt 0.4283856153488159 0.5726269483566284
vt 0.4289177656173706 0.5726310014724731
vt 0.4283856153488159 0.5726269483566284
vt 0.4298677444458008 0.5720081925392151
vt 0.42964982986450195 0.5720081925392151
vt 0.4301946759223938 0.5720082521438599
vt 0.42964982986450195 0.5720081925392151
vt 0.4298677444458008 0.5720081925392151
vt 0.4298677444458008 0.5720081925392151
vt 0.42964982986450195 0.5720081925392151
vt 0.4298677444458008 0.5720081925392151
vt 0.4294435381889343 0.5734694600105286
vt 0.4283881187438965 0.5734689235687256
vt 0.42838966846466064 0.5745967030525208
vt 0.4297298789024353 0.5745722055435181
vt 0.4269939661026001 0.5745500326156616
vt 0.4269939661026001 0.5745500326156616
vt 0.4283881187438965 0.5734689235687256
vt 0.42838966846466064 0.5745967030525208
vt 0.42839258909225464 0.5757468342781067
vt 0.4268758296966553 0.5757420659065247
vt 0.42987263202667236 0.575743556022644
vt 0.42839258909225464 0.5757468342781067
vt 0.4283856153488159 0.5726269483566284
vt 0.4289177656173706 0.5726310014724731
vt 0.4278220534324646 0.5726307034492493
vt 0.4283856153488159 0.5726269483566284
vt 0.4294435381889343 0.5734694600105286
vt 0.4283881187438965 0.5734689235687256
vt 0.42838966846466064 0.5745967030525208
vt 0.4297298789024353 0.5745722055435181
vt 0.4273160696029663 0.5734415650367737
vt 0.4273160696029663 0.5734415650367737
vt 0.4283881187438965 0.5734689235687256
vt 0.42838966846466064 0.5745967030525208
vt 0.4268758296966553 0.5757420659065247
vt 0.42839258909225464 0.5757468342781067
vt 0.4283856153488159 0.5726269483566284
vt 0.4289177656173706 0.5726310014724731
vt 0.4278220534324646 0.5726307034492493
vt 0.4283856153488159 0.5726269483566284
vt 0.4283750057220459 0.5719970464706421
vt 0.4297298789024353 0.5745722055435181
vt 0.4294435381889343 0.5734694600105286
vt 0.4269939661026001 0.5745500326156616
vt 0.4273160696029663 0.5734415650367737
vt 0.42987263202667236 0.575743556022644
vt 0.4268758296966553 0.5757420659065247
vt 0.4289177656173706 0.5726310014724731
vt 0.4278220534324646 0.5726307034492493
vt 0.42964982986450195 0.5720081925392151
vt 0.42964982986450195 0.5720081925392151
vt 0.42964982986450195 0.5720081925392151
vt 0.4298677444458008 0.5720081925392151
vt 0.4298677444458008 0.5720081925392151
vt 0.4298677444458008 0.5720081925392151
vt 0.4298677444458008 0.5720081925392151
vt 0.4298677444458008 0.5720081925392151
vt 0.4298677444458008 0.5720081925392151
vt 0.4298677444458008 0.5720081925392151
vt 0.429911732673645 0.572793185710907
vt 0.4300966262817383 0.572794497013092
vt 0.4301741123199463 0.5720226764678955
vt 0.4301741123199463 0.5720226764678955
vt 0.4299107789993286 0.5720226168632507
vt 0.429911732673645 0.572793185710907
vt 0.42973268032073975 0.5727916359901428
vt 0.4299124479293823 0.5727929472923279
vt 0.42991137504577637 0.5720226168632507
vt 0.42991137504577637 0.5720226168632507
vt 0.42965811491012573 0.5720226168632507
vt 0.42973268032073975 0.5727916359901428
vt 0.429911732673645 0.572793185710907
vt 0.4300966262817383 0.572794497013092
vt 0.4301741123199463 0.5720226764678955
vt 0.4301741123199463 0.5720226764678955
vt 0.4299107789993286 0.5720226168632507
vt 0.429911732673645 0.572793185710907
vt 0.42973268032073975 0.5727916359901428
vt 0.4299124479293823 0.5727929472923279
vt 0.42991137504577637 0.5720226168632507
vt 0.42991137504577637 0.5720226168632507
vt 0.42965811491012573 0.5720226168632507
vt 0.42973268032073975 0.5727916359901428
vt 0.429911732673645 0.572793185710907
vt 0.4300966262817383 0.572794497013092
vt 0.4301741123199463 0.5720226764678955
vt 0.4301741123199463 0.5720226764678955
vt 0.4299107789993286 0.5720226168632507
vt 0.429911732673645 0.572793185710907
vt 0.42973268032073975 0.5727916359901428
vt 0.4299124479293823 0.5727929472923279
vt 0.42991137504577637 0.5720226168632507
vt 0.42991137504577637 0.5720226168632507
vt 0.42965811491012573 0.5720226168632507
vt 0.42973268032073975 0.5727916359901428
vt 0.429911732673645 0.572793185710907
vt 0.4300966262817383 0.572794497013092
vt 0.4301741123199463 0.5720226764678955
vt 0.4301741123199463 0.5720226764678955
vt 0.4299107789993286 0.5720226168632507
vt 0.429911732673645 0.572793185710907
vt 0.42973268032073975 0.5727916359901428
vt 0.4299124479293823 0.5727929472923279
vt 0.42991137504577637 0.5720226168632507
vt 0.42991137504577637 0.5720226168632507
vt 0.42965811491012573 0.5720226168632507
vt 0.42973268032073975 0.5727916359901428
vt 0.42987263202667236 0.575743556022644
vt 0.4283638000488281 0.5726631879806519
vt 0.4289177656173706 0.5726673007011414
vt 0.4278220534324646 0.5726670026779175
vt 0.4283750057220459 0.5719970464706421
vt 0.4283638000488281 0.5726631879806519
vt 0.4283638000488281 0.5726631879806519
vt 0.4283750057220459 0.5719970464706421
vt 0.4278220534324646 0.5726670026779175
vt 0.4289177656173706 0.5726673007011414
vt 0.4283750057220459 0.5719970464706421
vt 0.4283638000488281 0.5726631879806519
vt 0.4289177656173706 0.5726673007011414
vt 0.4283750057220459 0.5719959735870361
vt 0.4283638000488281 0.5726631879806519
vt 0.4283638000488281 0.5726631879806519
vt 0.4283750057220459 0.5719959735870361
vt 0.4278220534324646 0.5726670026779175
vt 0.4278220534324646 0.5726670026779175
vt 0.4283750057220459 0.5719959735870361
vt 0.4283638000488281 0.5726631879806519
vt 0.4283638000488281 0.5726631879806519
vt 0.4283750057220459 0.5719959735870361
vt 0.4289177656173706 0.5726673007011414
vn -0.10407435148954391 0.9220099449157715 -0.3729158341884613
vn -0.6633514165878296 0.6112232804298401 -0.43170714378356934
vn -0.8974172472953796 -0.01772112026810646 -0.44082704186439514
vn -0.6390922665596008 -0.6277392506599426 -0.44441482424736023
vn -0.024599600583314896 -0.9051972031593323 -0.42427951097488403
vn 0.6380078792572021 -0.650852620601654 -0.4115055501461029
vn 0.9219809174537659 0.006599972955882549 -0.38717904686927795
vn 0.590488076210022 0.6943150758743286 -0.41140052676200867
vn -0.01797988824546337 0.988943338394165 -0.14720050990581512
vn -0.7073814272880554 0.706210732460022 -0.029630906879901886
vn -0.9999556541442871 -0.004252425394952297 0.008405542001128197
vn -0.7040548324584961 -0.7078683376312256 -0.056826621294021606
vn -0.023128505796194077 -0.983608603477478 -0.1788271814584732
vn 0.6485576629638672 -0.6945835947990417 -0.3113305866718292
vn 0.9343659281730652 -8.716803131392226e-05 -0.3563151955604553
vn 0.6552712917327881 0.6984995603561401 -0.28760722279548645
vn 0.11837112903594971 0.9918529391288757 -0.0470748245716095
vn -0.657895565032959 -0.7044119834899902 0.26641568541526794
vn -0.025081034749746323 0.8160943984985352 -0.5773741602897644
vn -0.6315485239028931 0.4381827116012573 -0.6396424174308777
vn -0.7584048509597778 -0.09241142868995667 -0.6451994180679321
vn -0.4974548816680908 -0.604724109172821 -0.6219707131385803
vn 0.08415237069129944 -0.8241287469863892 -0.5601162314414978
vn 0.7019785642623901 -0.518669068813324 -0.4880661070346832
vn 0.8836053609848022 0.12186931073665619 -0.45209455490112305
vn 0.618643581867218 0.6036230325698853 -0.502910852432251
vn 0.4437817335128784 0.1876884549856186 -0.8762595653533936
vn 0.3005611300468445 0.6074060797691345 -0.7353372573852539
vn 0.3005611300468445 0.6074060797691345 -0.7353372573852539
vn 0.3005611300468445 0.6074060797691345 -0.7353372573852539
vn 0.3793385922908783 0.29971957206726074 -0.8753687143325806
vn 0.4326860010623932 -0.28786706924438477 -0.8543508648872375
vn 0.30055809020996094 -0.6074065566062927 -0.7353380918502808
vn 0.3974929749965668 -0.17234864830970764 -0.9012743830680847
vn 0.12065267562866211 0.9512064456939697 0.28398802876472473
vn -0.2456999123096466 0.6396901607513428 0.7283049821853638
vn -0.5153400897979736 0.684070885181427 0.5162088871002197
vn 0.05148059502243996 0.9889131188392639 0.13928669691085815
vn -0.7018777132034302 4.3043389297281465e-08 0.7122974991798401
vn 0.8722478747367859 -1.493979056021999e-07 -0.4890640676021576
vn 0.6222016215324402 0.7374264001846313 -0.26280686259269714
vn 0.6334103941917419 0.7153599858283997 -0.2950448989868164
vn -0.5520585179328918 0.8003108501434326 0.2339528650045395
vn -0.9162152409553528 0.057100728154182434 0.3965969383716583
vn 0.8974960446357727 -0.07671116292476654 -0.4342997074127197
vn 0.7248266935348511 0.5949526429176331 -0.3473581075668335
vn -0.09766591340303421 0.4824863374233246 0.8704414367675781
vn 0.2775169610977173 0.9098563194274902 0.30845749378204346
vn 0.821708083152771 -6.384698281181045e-08 -0.5699087977409363
vn 0.6665601134300232 0.6816652417182922 -0.3017122149467468
vn 0.12065237015485764 -0.9512065052986145 0.28398802876472473
vn -0.2456999272108078 -0.6396903395652771 0.7283047437667847
vn -0.5153403878211975 -0.6840706467628479 0.516209065914154
vn 0.05148012936115265 -0.9889130592346191 0.1392873078584671
vn -0.3320174813270569 3.2170476060855435e-08 0.9432732462882996
vn 0.8467578291893005 5.343545161906604e-09 -0.5319785475730896
vn 0.6222016215324402 -0.7374264597892761 -0.2628066837787628
vn 0.6334102749824524 -0.7153600454330444 -0.29504480957984924
vn -0.00508106267079711 -0.9999607801437378 -0.007252178154885769
vn 0.6361633539199829 -0.7031143307685852 -0.3176894187927246
vn -0.09766586869955063 -0.48248615860939026 0.8704415559768677
vn 0.2775169610977173 -0.9098562598228455 0.30845731496810913
vn -0.1790430098772049 -1.3961781064608658e-07 0.9838412404060364
vn 0.6665602326393127 -0.6816650629043579 -0.30171212553977966
vn 0.5077930092811584 0.49519845843315125 0.7049288749694824
vn -0.9999556541442871 -0.004252425394952297 0.008405542001128197
vn -0.8974172472953796 -0.01772112026810646 -0.44082704186439514
vn 0.9343659281730652 -8.716803131392226e-05 -0.3563151955604553
vn 0.9219809174537659 0.006599972955882549 -0.38717904686927795
vn -0.9162152409553528 0.057100728154182434 0.3965969383716583
vn 0.8974960446357727 -0.07671116292476654 -0.4342997074127197
vn -0.7584048509597778 -0.09241142868995667 -0.6451994180679321
vn 0.8836053609848022 0.12186931073665619 -0.45209455490112305
vn 0.3793385922908783 0.29971957206726074 -0.8753687143325806
vn 0.3793385922908783 0.29971957206726074 -0.8753687143325806
vn 0.4437817335128784 0.1876884549856186 -0.8762595653533936
vn 0.4437817335128784 0.1876884549856186 -0.8762595653533936
vn 0.4326860010623932 -0.28786706924438477 -0.8543508648872375
vn 0.4326860010623932 -0.28786706924438477 -0.8543508648872375
vn 0.3974929749965668 -0.17234864830970764 -0.9012743830680847
vn 0.3974929749965668 -0.17234864830970764 -0.9012743830680847
vn 0.30055809020996094 -0.6074065566062927 -0.7353380918502808
vn 0.30055809020996094 -0.6074065566062927 -0.7353380918502808
vn -0.4799339771270752 0.8613716959953308 -0.16643981635570526
vn -0.4799339771270752 0.8613716959953308 -0.16643981635570526
vn -0.4799339771270752 0.8613716959953308 -0.16643981635570526
vn -0.4835876226425171 0.8582899570465088 -0.17170141637325287
vn -0.4835876226425171 0.8582899570465088 -0.17170141637325287
vn -0.4835876226425171 0.8582899570465088 -0.17170141637325287
vn -0.882623016834259 0.28784921765327454 -0.3716442286968231
vn -0.882623016834259 0.28784921765327454 -0.3716442286968231
vn -0.882623016834259 0.28784921765327454 -0.3716442286968231
vn -0.8875147700309753 0.2182789444923401 -0.4057977497577667
vn -0.8875147700309753 0.2182789444923401 -0.4057977497577667
vn -0.8875147700309753 0.2182789444923401 -0.4057977497577667
vn -0.8714573979377747 -0.28599813580513 -0.3984558880329132
vn -0.8714573979377747 -0.28599813580513 -0.3984558880329132
vn -0.8714573979377747 -0.28599813580513 -0.3984558880329132
vn -0.8996273279190063 -0.21048149466514587 -0.3825809955596924
vn -0.8996273279190063 -0.21048149466514587 -0.3825809955596924
vn -0.8996273279190063 -0.21048149466514587 -0.3825809955596924
vn -0.47930580377578735 -0.8610841035842896 -0.16970664262771606
vn -0.47930580377578735 -0.8610841035842896 -0.16970664262771606
vn -0.47930580377578735 -0.8610841035842896 -0.16970664262771606
vn -0.4855387806892395 -0.8576523065567017 -0.16936597228050232
vn -0.4855387806892395 -0.8576523065567017 -0.16936597228050232
vn -0.4855387806892395 -0.8576523065567017 -0.16936597228050232
vn 0.25969600677490234 -0.9466420412063599 0.1908581554889679
vn 0.25969600677490234 -0.9466420412063599 0.1908581554889679
vn 0.25969600677490234 -0.9466420412063599 0.1908581554889679
vn 0.33956533670425415 -0.9246742129325867 0.1722583919763565
vn 0.33956533670425415 -0.9246742129325867 0.1722583919763565
vn 0.33956533670425415 -0.9246742129325867 0.1722583919763565
vn 0.830132007598877 -0.37244823575019836 0.4149255156517029
vn 0.830132007598877 -0.37244823575019836 0.4149255156517029
vn 0.830132007598877 -0.37244823575019836 0.4149255156517029
vn 0.8780089020729065 -0.29444578289985657 0.3773619830608368
vn 0.8780089020729065 -0.29444578289985657 0.3773619830608368
vn 0.8780089020729065 -0.29444578289985657 0.3773619830608368
vn 0.850492000579834 0.37821540236473083 0.36553582549095154
vn 0.850492000579834 0.37821540236473083 0.36553582549095154
vn 0.850492000579834 0.37821540236473083 0.36553582549095154
vn 0.857424259185791 0.28536495566368103 0.42824122309684753
vn 0.857424259185791 0.28536495566368103 0.42824122309684753
vn 0.857424259185791 0.28536495566368103 0.42824122309684753
vn 0.2688833475112915 0.9533613324165344 0.1371275633573532
vn 0.2688833475112915 0.9533613324165344 0.1371275633573532
vn 0.2688833475112915 0.9533613324165344 0.1371275633573532
vn 0.3318348228931427 0.9166079163551331 0.22297002375125885
vn 0.3318348228931427 0.9166079163551331 0.22297002375125885
vn 0.3318348228931427 0.9166079163551331 0.22297002375125885
vn -0.00508106267079711 -0.9999607801437378 -0.007252178154885769
vn 0.5077930092811584 0.49519845843315125 0.7049288749694824
vn 0.5077930092811584 0.49519845843315125 0.7049288749694824
vn 0.3714568316936493 0.18565353751182556 0.9096992015838623
vn 0.3714568316936493 0.18565353751182556 0.9096992015838623
vn 0.3714568316936493 0.18565353751182556 0.9096992015838623
vn 0.97408127784729 0.22589223086833954 -0.011764978989958763
vn 0.97408127784729 0.22589223086833954 -0.011764978989958763
vn 0.97408127784729 0.22589223086833954 -0.011764978989958763
vn 0.740079402923584 0.5690004825592041 0.35849833488464355
vn 0.740079402923584 0.5690004825592041 0.35849833488464355
vn 0.740079402923584 0.5690004825592041 0.35849833488464355
vn 0.5077922940254211 -0.4951990246772766 0.7049290537834167
vn 0.5077922940254211 -0.4951990246772766 0.7049290537834167
vn 0.5077922940254211 -0.4951990246772766 0.7049290537834167
vn 0.3714565932750702 -0.18565374612808228 0.9096992611885071
vn 0.3714565932750702 -0.18565374612808228 0.9096992611885071
vn 0.3714565932750702 -0.18565374612808228 0.9096992611885071
vn 0.97408127784729 -0.225892573595047 -0.01176533941179514
vn 0.97408127784729 -0.225892573595047 -0.01176533941179514
vn 0.97408127784729 -0.225892573595047 -0.01176533941179514
vn 0.7400791645050049 -0.5690012574195862 0.35849741101264954
vn 0.7400791645050049 -0.5690012574195862 0.35849741101264954
vn 0.7400791645050049 -0.5690012574195862 0.35849741101264954
f 153/153/153 154/154/154 155/155/155
f 150/150/150 151/151/151 152/152/152
f 147/147/147 148/148/148 149/149/149
f 144/144/144 145/145/145 146/146/146
f 141/141/141 142/142/142 143/143/143
f 138/138/138 139/139/139 140/140/140
f 135/135/135 136/136/136 137/137/137
f 133/133/133 65/65/65 134/134/134
f 62/62/62 51/51/51 57/57/57
f 57/57/57 64/64/64 62/62/62
f 49/49/49 64/64/64 57/57/57
f 57/57/57 56/56/56 49/49/49
f 61/61/61 63/63/63 55/55/55
f 55/55/55 52/52/52 61/61/61
f 62/62/62 61/61/61 52/52/52
f 52/52/52 51/51/51 62/62/62
f 58/58/58 54/54/54 132/132/132
f 132/132/132 60/60/60 58/58/58
f 40/40/40 58/58/58 60/60/60
f 60/60/60 71/71/71 40/40/40
f 53/53/53 39/39/39 44/44/44
f 44/44/44 18/18/18 53/53/53
f 54/54/54 53/53/53 18/18/18
f 18/18/18 132/132/132 54/54/54
f 57/57/57 51/51/51 54/54/54
f 54/54/54 58/58/58 57/57/57
f 56/56/56 57/57/57 58/58/58
f 58/58/58 40/40/40 56/56/56
f 52/52/52 55/55/55 39/39/39
f 39/39/39 53/53/53 52/52/52
f 51/51/51 52/52/52 53/53/53
f 53/53/53 54/54/54 51/51/51
f 48/48/48 50/50/50 41/41/41
f 41/41/41 35/35/35 48/48/48
f 49/49/49 56/56/56 41/41/41
f 41/41/41 50/50/50 49/49/49
f 47/47/47 36/36/36 55/55/55
f 55/55/55 63/63/63 47/47/47
f 48/48/48 35/35/35 36/36/36
f 36/36/36 47/47/47 48/48/48
f 42/42/42 46/46/46 17/17/17
f 17/17/17 38/38/38 42/42/42
f 40/40/40 71/71/71 46/46/46
f 46/46/46 42/42/42 40/40/40
f 37/37/37 43/43/43 44/44/44
f 44/44/44 39/39/39 37/37/37
f 38/38/38 17/17/17 43/43/43
f 43/43/43 37/37/37 38/38/38
f 41/41/41 42/42/42 38/38/38
f 38/38/38 35/35/35 41/41/41
f 56/56/56 40/40/40 42/42/42
f 42/42/42 41/41/41 56/56/56
f 36/36/36 37/37/37 39/39/39
f 39/39/39 55/55/55 36/36/36
f 35/35/35 38/38/38 37/37/37
f 37/37/37 36/36/36 35/35/35
f 129/129/129 130/130/130 131/131/131
f 126/126/126 127/127/127 128/128/128
f 123/123/123 124/124/124 125/125/125
f 120/120/120 121/121/121 122/122/122
f 117/117/117 118/118/118 119/119/119
f 114/114/114 115/115/115 116/116/116
f 111/111/111 112/112/112 113/113/113
f 108/108/108 109/109/109 110/110/110
f 105/105/105 106/106/106 107/107/107
f 102/102/102 103/103/103 104/104/104
f 99/99/99 100/100/100 101/101/101
f 96/96/96 97/97/97 98/98/98
f 93/93/93 94/94/94 95/95/95
f 90/90/90 91/91/91 92/92/92
f 87/87/87 88/88/88 89/89/89
f 84/84/84 85/85/85 86/86/86
f 82/82/82 83/83/83 33/33/33
f 80/80/80 34/34/34 81/81/81
f 32/32/32 78/78/78 79/79/79
f 76/76/76 27/27/27 77/77/77
f 31/31/31 74/74/74 75/75/75
f 30/30/30 29/29/29 28/28/28
f 19/19/19 1/1/1 8/8/8
f 8/8/8 26/26/26 19/19/19
f 73/73/73 26/26/26 8/8/8
f 8/8/8 69/69/69 73/73/73
f 24/24/24 25/25/25 7/7/7
f 7/7/7 6/6/6 24/24/24
f 23/23/23 24/24/24 6/6/6
f 6/6/6 5/5/5 23/23/23
f 22/22/22 23/23/23 5/5/5
f 5/5/5 4/4/4 22/22/22
f 72/72/72 22/22/22 4/4/4
f 4/4/4 67/67/67 72/72/72
f 20/20/20 21/21/21 3/3/3
f 3/3/3 2/2/2 20/20/20
f 19/19/19 20/20/20 2/2/2
f 2/2/2 1/1/1 19/19/19
f 16/16/16 9/9/9 17/17/17
f 17/17/17 46/46/46 16/16/16
f 68/68/68 16/16/16 46/46/46
f 46/46/46 71/71/71 68/68/68
f 14/14/14 15/15/15 45/45/45
f 45/45/45 60/60/60 14/14/14
f 13/13/13 14/14/14 60/60/60
f 60/60/60 59/59/59 13/13/13
f 12/12/12 13/13/13 59/59/59
f 59/59/59 18/18/18 12/12/12
f 66/66/66 12/12/12 18/18/18
f 18/18/18 70/70/70 66/66/66
f 10/10/10 11/11/11 44/44/44
f 44/44/44 43/43/43 10/10/10
f 9/9/9 10/10/10 43/43/43
f 43/43/43 17/17/17 9/9/9
f 8/8/8 1/1/1 9/9/9
f 9/9/9 16/16/16 8/8/8
f 69/69/69 8/8/8 16/16/16
f 16/16/16 68/68/68 69/69/69
f 6/6/6 7/7/7 15/15/15
f 15/15/15 14/14/14 6/6/6
f 5/5/5 6/6/6 14/14/14
f 14/14/14 13/13/13 5/5/5
f 4/4/4 5/5/5 13/13/13
f 13/13/13 12/12/12 4/4/4
f 67/67/67 4/4/4 12/12/12
f 12/12/12 66/66/66 67/67/67
f 2/2/2 3/3/3 11/11/11
f 11/11/11 10/10/10 2/2/2
f 1/1/1 2/2/2 10/10/10
f 10/10/10 9/9/9 1/1/1
