# Recovered local-space geometry; original node transforms not applied
o mesh_0
v 16.7845458984375 -15.264701843261719 57.78648376464844
v 27.664981842041016 -10.890240669250488 56.923892974853516
v 31.949386596679688 -1.547410647617653e-05 56.59721755981445
v 27.66498565673828 10.890225410461426 56.92388153076172
v 16.784557342529297 15.264704704284668 57.78648376464844
v 5.835956573486328 10.950518608093262 58.68006134033203
v 1.478555679321289 4.80125436297385e-06 59.039894104003906
v 5.835935115814209 -10.950508117675781 58.6800537109375
v 30.590373992919922 -15.590446472167969 29.248092651367188
v 36.948856353759766 3.058123638766119e-07 28.78652572631836
v 30.590381622314453 15.590457916259766 29.24809455871582
v -1.446152687072754 15.590471267700195 31.57368278503418
v -7.804648399353027 1.6942005458986387e-05 32.035247802734375
v -1.4461774826049805 -15.590436935424805 31.573680877685547
v 18.84700584411621 -5.478672504425049 73.96353912353516
v 20.60665512084961 -7.217171514639631e-06 74.2805404663086
v 18.847009658813477 5.478664875030518 73.9635238647461
v 7.913456916809082 5.9089674949646 73.61271667480469
v 5.5583367347717285 2.1406865471362835e-06 73.7258529663086
v 7.913443088531494 -5.908964157104492 73.61270904541016
v 11.023809432983398 -5.184244155883789 89.40347290039062
v 11.630789756774902 -3.6391670619195793e-06 90.7689208984375
v 3.929961681365967 5.587646007537842 86.6379623413086
v 6.531465530395508 -5.393161296844482 90.15609741210938
v 5.951949119567871 -7.51213519833982e-07 91.01248931884766
v 6.531470775604248 5.393166542053223 90.15609741210938
v 14.572101593017578 -21.77910614013672 30.410890579223633
v 14.572117805480957 21.779125213623047 30.410888671875
v 13.691967964172363 -8.021535873413086 73.54935455322266
v 13.691974639892578 8.021528244018555 73.54934692382812
v 8.731059074401855 -7.168206691741943 85.7052230834961
v 11.023815155029297 5.184245586395264 89.4034652709961
v 8.731066703796387 7.1682047843933105 85.7052230834961
v 2.172327995300293 1.8807461401593173e-06 86.88957977294922
v 3.9299559593200684 -5.587639808654785 86.63795471191406
v 4.517415523529053 -24.266077041625977 0.5896186828613281
v 22.7686767578125 17.370725631713867 0.5821304321289062
v -20.97870635986328 1.767213143466506e-05 0.6000823974609375
v -13.73384952545166 -17.370716094970703 0.59710693359375
v -13.733826637268066 17.370744705200195 0.59710693359375
v -53.816471099853516 6.288267286436167e-06 -55.375518798828125
v 22.768672943115234 -17.370742797851562 0.5821304321289062
v 30.013534545898438 -2.0755819605255965e-06 0.5791587829589844
v 4.517427921295166 24.266075134277344 0.5896186828613281
v -6.578132629394531 -14.510814666748047 -41.28834533691406
v -19.348892211914062 -20.27090072631836 -34.55360412597656
v -1.5087566375732422 -4.678929144574795e-06 -43.961708068847656
v -37.7391357421875 4.9694563131197356e-08 -25.13732147216797
v -32.11964797973633 -14.510793685913086 -27.818862915039062
v 14.648303985595703 -16.904565811157227 -15.541107177734375
v 21.4881591796875 -7.098669811966829e-06 -16.626708984375
v -26.65345001220703 6.070376002753619e-06 -8.985790252685547
v -19.81360626220703 -16.904544830322266 -10.071392059326172
v -32.94055938720703 -9.203146934509277 -55.97138977050781
v -46.57611846923828 -9.498257637023926 -43.283203125
v -6.578126907348633 14.510805130004883 -41.28834533691406
v -32.11964416503906 14.51079273223877 -27.81885528564453
v 14.64831256866455 16.90454864501953 -15.541107177734375
v -2.5826377868652344 23.614850997924805 -12.80624771118164
v -19.81359100341797 16.904552459716797 -10.071388244628906
v -32.940555572509766 9.203145027160645 -55.97138977050781
v -30.508373260498047 -1.5672878816985758e-07 -58.30292510986328
v -49.91196823120117 8.792108019406442e-08 -40.5311279296875
v -46.57610321044922 9.498250961303711 -43.283203125
v -49.01409149169922 -3.1810386180877686 -57.971771240234375
v -53.12693405151367 -3.502664089202881 -53.142539978027344
v -49.01409149169922 3.1810429096221924 -57.971771240234375
v -48.44678497314453 2.996961256940267e-06 -58.819549560546875
v -54.4209098815918 4.292841367714573e-06 -52.54426574707031
v -53.12693405151367 3.50266695022583 -53.142539978027344
v -2.582648277282715 -23.614852905273438 -12.806243896484375
v -39.4945068359375 -13.108813285827637 -49.90385437011719
v -19.348888397216797 20.27090072631836 -34.55360412597656
v -39.4945068359375 13.108805656433105 -49.903846740722656
v -50.88798522949219 -4.721324443817139 -55.640098571777344
v -50.88798522949219 4.721329212188721 -55.640098571777344
v 16.684673309326172 -21.03200912475586 59.846832275390625
v 31.446979522705078 -14.782228469848633 59.100242614746094
v 37.24634552001953 -1.7337986719212495e-05 58.81285858154297
v 31.44698715209961 14.782206535339355 59.1002311706543
v 16.6846923828125 21.032007217407227 59.84683609008789
v 1.4927253723144531 15.229548454284668 60.64998245239258
v -4.777783393859863 8.8884262368083e-06 60.93145751953125
v 1.4926996231079102 -15.229533195495605 60.64997100830078
v 34.474815368652344 -19.71997833251953 29.351032257080078
v 42.50424575805664 -8.429714171143132e-07 28.5730037689209
v 34.47482681274414 19.719987869262695 29.35103416442871
v -5.595113754272461 19.806114196777344 33.43157196044922
v -13.694483757019043 2.1115169147378765e-05 34.3109130859375
v -5.5951433181762695 -19.806074142456055 33.43157196044922
v 22.722688674926758 -9.216665267944336 76.8344955444336
v 25.704509735107422 -5.366110599425156e-06 77.54168701171875
v 22.722694396972656 9.216656684875488 76.83448028564453
v 3.2586612701416016 10.46747875213623 74.10651397705078
v -1.083085060119629 8.532212632417213e-06 73.76998138427734
v 3.258634090423584 -10.467464447021484 74.10650634765625
v 13.960853576660156 -8.911113739013672 93.52711486816406
v 14.739328384399414 -2.8228059818502516e-06 96.30583953857422
v -1.030116081237793 9.655862808227539 87.58768463134766
v 4.512719631195068 -9.015127182006836 95.12460327148438
v 3.222909927368164 -2.3914401481306413e-07 96.97962951660156
v 4.512734413146973 9.015135765075684 95.12460327148438
v 14.457823753356934 -27.654708862304688 31.324623107910156
v 14.457844734191895 27.65472984313965 31.32461929321289
v 13.727663040161133 -14.04343032836914 75.3759765625
v 13.727676391601562 14.043421745300293 75.3759765625
v 8.582071304321289 -13.39810848236084 86.76575469970703
v 13.960866928100586 8.911114692687988 93.527099609375
v 8.582086563110352 13.398106575012207 86.76575469970703
v -4.205669403076172 3.426075863899314e-06 88.39751434326172
v -1.0301265716552734 -9.655850410461426 87.58767700195312
v 4.51853609085083 -30.1469669342041 0.5976715087890625
v 26.568954467773438 21.476436614990234 -0.9600028991699219
v -26.260028839111328 2.170488005504012e-05 3.5031967163085938
v -17.532794952392578 -21.537616729736328 2.54437255859375
v -17.53276824951172 21.53765106201172 2.5443687438964844
v -57.941463470458984 8.865586096362676e-06 -58.846405029296875
v 26.568946838378906 -21.47645378112793 -0.9599990844726562
v 35.38990020751953 -2.227666300314013e-06 -1.5516510009765625
v 4.5185546875 30.14696502685547 0.5976676940917969
v -3.6065454483032227 -18.424726486206055 -45.29320526123047
v -19.412837982177734 -26.10088539123535 -35.84379577636719
v 2.689507007598877 -5.366676759877009e-06 -48.95628356933594
v -42.051151275634766 1.1490601536934264e-07 -21.336944580078125
v -35.24437713623047 -18.900348663330078 -25.805259704589844
v 18.200319290161133 -20.880064010620117 -18.266929626464844
v 26.457019805908203 -8.212601642298978e-06 -20.06500244140625
v -31.483383178710938 7.1595168265048414e-06 -5.535713195800781
v -23.35628890991211 -21.128374099731445 -8.020641326904297
v -31.326862335205078 -12.874584197998047 -61.108924865722656
v -49.815765380859375 -13.790059089660645 -41.83192443847656
v -3.606536865234375 18.42471694946289 -45.29320526123047
v -35.2443733215332 18.900348663330078 -25.805252075195312
v 18.200328826904297 20.88004493713379 -18.266929626464844
v -2.5411252975463867 29.47895622253418 -13.473812103271484
v -23.356277465820312 21.12838363647461 -8.020637512207031
v -31.326858520507812 12.874585151672363 -61.108917236328125
v -27.977245330810547 5.4743395594414324e-08 -64.56177520751953
v -54.309749603271484 4.78284800919937e-06 -37.351226806640625
v -49.81575012207031 13.790056228637695 -41.83192443847656
v -49.75928497314453 -5.886066913604736 -63.49567413330078
v -57.18125534057617 -6.995368957519531 -53.565589904785156
v -49.75928497314453 5.886073112487793 -63.49567413330078
v -48.71715545654297 3.2138943879544968e-06 -65.14307403564453
v -59.5056266784668 5.386861630540807e-06 -51.929283142089844
v -57.18125534057617 6.995376110076904 -53.565582275390625
v -2.5411386489868164 -29.478958129882812 -13.473804473876953
v -40.24642562866211 -18.674968719482422 -51.98938751220703
v -19.412830352783203 26.10088348388672 -35.84380340576172
v -40.24642562866211 18.67496109008789 -51.98937225341797
v -53.15815734863281 -9.000391006469727 -58.83030700683594
v -53.15815734863281 9.000398635864258 -58.830299377441406
v 16.784557342529297 15.264704704284668 57.78648376464844
v 14.572117805480957 21.779125213623047 30.410888671875
v 14.572101593017578 -21.77910614013672 30.410890579223633
v 16.7845458984375 -15.264701843261719 57.78648376464844
v 4.517427921295166 24.266075134277344 0.5896186828613281
v 4.517415523529053 -24.266077041625977 0.5896186828613281
v 13.691974639892578 8.021528244018555 73.54934692382812
v 13.691967964172363 -8.021535873413086 73.54935455322266
v 11.023809432983398 -5.184244155883789 89.40347290039062
v 8.731059074401855 -7.168206691741943 85.7052230834961
v 11.630789756774902 -3.6391670619195793e-06 90.7689208984375
v 11.023815155029297 5.184245586395264 89.4034652709961
v 8.731066703796387 7.1682047843933105 85.7052230834961
v 3.929961681365967 5.587646007537842 86.6379623413086
v 8.731066703796387 7.1682047843933105 85.7052230834961
v 2.172327995300293 1.8807461401593173e-06 86.88957977294922
v 3.9299559593200684 -5.587639808654785 86.63795471191406
v 8.731059074401855 -7.168206691741943 85.7052230834961
v -39.4945068359375 -13.108813285827637 -49.90385437011719
v -19.348892211914062 -20.27090072631836 -34.55360412597656
v -2.582648277282715 -23.614852905273438 -12.806243896484375
v 22.768672943115234 -17.370742797851562 0.5821304321289062
v 4.517415523529053 -24.266077041625977 0.5896186828613281
v 30.013534545898438 -2.0755819605255965e-06 0.5791587829589844
v -13.73384952545166 -17.370716094970703 0.59710693359375
v -20.97870635986328 1.767213143466506e-05 0.6000823974609375
v 4.517415523529053 -24.266077041625977 0.5896186828613281
v -50.88798522949219 -4.721324443817139 -55.640098571777344
v -19.348888397216797 20.27090072631836 -34.55360412597656
v -39.4945068359375 13.108805656433105 -49.903846740722656
v -2.5826377868652344 23.614850997924805 -12.80624771118164
v 4.517427921295166 24.266075134277344 0.5896186828613281
v 22.7686767578125 17.370725631713867 0.5821304321289062
v -13.733826637268066 17.370744705200195 0.59710693359375
v 4.517427921295166 24.266075134277344 0.5896186828613281
v -50.88798522949219 4.721329212188721 -55.640098571777344
v 35.38990020751953 -2.227666300314013e-06 -1.5516510009765625
v -26.260028839111328 2.170488005504012e-05 3.5031967163085938
v 4.51853609085083 -30.1469669342041 0.5976715087890625
vt 0.6394229531288147 0.5451501607894897
vt 0.6495575308799744 0.5485607981681824
vt 0.6600695252418518 0.5493488311767578
vt 0.6705586910247803 0.5485729575157166
vt 0.6807364821434021 0.5451418161392212
vt 0.6495575308799744 0.5485607981681824
vt 0.6600695252418518 0.5493488311767578
vt 0.6705586910247803 0.5485729575157166
vt 0.645033061504364 0.581135630607605
vt 0.6601338386535645 0.5830233693122864
vt 0.675232470035553 0.5811055898666382
vt 0.645033061504364 0.581135630607605
vt 0.6601338386535645 0.5830233693122864
vt 0.675232470035553 0.5811055898666382
vt 0.653829038143158 0.5305832624435425
vt 0.660099446773529 0.5307825803756714
vt 0.6663696765899658 0.5305804014205933
vt 0.653829038143158 0.5305832624435425
vt 0.660099446773529 0.5307825803756714
vt 0.6663696765899658 0.5305804014205933
vt 0.6297944188117981 0.5071648359298706
vt 0.6281195282936096 0.515769362449646
vt 0.6424741148948669 0.5250492095947266
vt 0.6360273361206055 0.5090513825416565
vt 0.6365215182304382 0.5159232020378113
vt 0.6365509629249573 0.5228021740913391
vt 0.6302196383476257 0.5754786729812622
vt 0.6900359988212585 0.5754166841506958
vt 0.648252546787262 0.5297613143920898
vt 0.6719435453414917 0.529761552810669
vt 0.6360157132148743 0.5013949275016785
vt 0.6300730109214783 0.5240412950515747
vt 0.6353344917297363 0.530339777469635
vt 0.6448859572410583 0.5161038637161255
vt 0.6422508955001831 0.5074267983436584
vt 0.6273097991943359 0.6119513511657715
vt 0.6766530275344849 0.619819700717926
vt 0.6601504683494568 0.6227495074272156
vt 0.6766530275344849 0.619819700717926
vt 0.6436446905136108 0.6198500990867615
vt 0.7178428769111633 0.6191807389259338
vt 0.6436446905136108 0.6198500990867615
vt 0.6601504683494568 0.6227495074272156
vt 0.6929796934127808 0.6118930578231812
vt 0.7046576142311096 0.5646733641624451
vt 0.6931626200675964 0.5727731585502625
vt 0.716278076171875 0.5613550543785095
vt 0.716278076171875 0.5613550543785095
vt 0.7285770773887634 0.5637741088867188
vt 0.6978842616081238 0.5298393964767456
vt 0.7141672372817993 0.5242609977722168
vt 0.7141672372817993 0.5242609977722168
vt 0.7309480905532837 0.5284944176673889
vt 0.7105980515480042 0.5963219404220581
vt 0.7253223061561584 0.5957323312759399
vt 0.7285770773887634 0.5637741088867188
vt 0.7046576142311096 0.5646733641624451
vt 0.7309480905532837 0.5284944176673889
vt 0.7461990118026733 0.5398699045181274
vt 0.6978842616081238 0.5298393964767456
vt 0.7253223061561584 0.5957323312759399
vt 0.7180326581001282 0.5947280526161194
vt 0.7180326581001282 0.5947280526161194
vt 0.7105980515480042 0.5963219404220581
vt 0.7155224680900574 0.6132020354270935
vt 0.7209078073501587 0.6132931113243103
vt 0.7209078073501587 0.6132931113243103
vt 0.718294084072113 0.6127727031707764
vt 0.718294084072113 0.6127727031707764
vt 0.7155224680900574 0.6132020354270935
vt 0.6848918795585632 0.5421149730682373
vt 0.703159749507904 0.6010981202125549
vt 0.7409895658493042 0.5715960264205933
vt 0.7320333123207092 0.6008426547050476
vt 0.7130793333053589 0.6153333187103271
vt 0.722635805606842 0.6154117584228516
vt 0.743983268737793 0.6315494775772095
vt 0.7440645694732666 0.6315768957138062
vt 0.7441489100456238 0.6315832138061523
vt 0.7442331314086914 0.6315769553184509
vt 0.7443148493766785 0.6315494179725647
vt 0.7440645694732666 0.6315768957138062
vt 0.7441489100456238 0.6315832138061523
vt 0.7442331314086914 0.6315769553184509
vt 0.7440282702445984 0.6318382620811462
vt 0.7441495060920715 0.6318534016609192
vt 0.7442706227302551 0.6318380236625671
vt 0.7440282702445984 0.6318382620811462
vt 0.7441495060920715 0.6318534016609192
vt 0.7442706227302551 0.6318380236625671
vt 0.7440988421440125 0.6314325928688049
vt 0.7441492080688477 0.6314342021942139
vt 0.7441995143890381 0.6314325332641602
vt 0.7440988421440125 0.6314325928688049
vt 0.7441492080688477 0.6314342021942139
vt 0.7441995143890381 0.6314325332641602
vt 0.7439059615135193 0.6312446594238281
vt 0.7438925504684448 0.631313681602478
vt 0.7440077662467957 0.6313881874084473
vt 0.7439560294151306 0.6312597990036011
vt 0.7439599633216858 0.6313149333000183
vt 0.7439602017402649 0.6313701272010803
vt 0.7439094185829163 0.6317929029464722
vt 0.7443894743919373 0.6317923665046692
vt 0.7440541386604309 0.6314259767532349
vt 0.7442442774772644 0.6314259767532349
vt 0.7439559102058411 0.6311982870101929
vt 0.7439082264900208 0.6313800811767578
vt 0.7439504265785217 0.6314306259155273
vt 0.7440270781517029 0.6313163638114929
vt 0.7440059781074524 0.6312467455863953
vt 0.7438860535621643 0.6320855617523193
vt 0.744282066822052 0.6321487426757812
vt 0.7441496253013611 0.6321722269058228
vt 0.744282066822052 0.6321487426757812
vt 0.7440171241760254 0.6321489810943604
vt 0.7446126341819763 0.6321436166763306
vt 0.7440171241760254 0.6321489810943604
vt 0.7441496253013611 0.6321722269058228
vt 0.7444130778312683 0.6320850849151611
vt 0.7445067763328552 0.631706178188324
vt 0.7444145083427429 0.6317712068557739
vt 0.7446000576019287 0.6316795349121094
vt 0.7446000576019287 0.6316795349121094
vt 0.7446987628936768 0.6316989660263062
vt 0.7444524168968201 0.6314265727996826
vt 0.7445830702781677 0.6313818693161011
vt 0.7445830702781677 0.6313818693161011
vt 0.7447177767753601 0.631415843963623
vt 0.7445544600486755 0.6319601535797119
vt 0.7446725964546204 0.6319553852081299
vt 0.7446987628936768 0.6316989660263062
vt 0.7445067763328552 0.631706178188324
vt 0.7447177767753601 0.631415843963623
vt 0.7448402047157288 0.6315070986747742
vt 0.7444524168968201 0.6314265727996826
vt 0.7446725964546204 0.6319553852081299
vt 0.7446141242980957 0.63194739818573
vt 0.7446141242980957 0.63194739818573
vt 0.7445544600486755 0.6319601535797119
vt 0.7445939779281616 0.6320956349372864
vt 0.7446371912956238 0.6320963501930237
vt 0.7446371912956238 0.6320963501930237
vt 0.7446162104606628 0.6320921778678894
vt 0.7446162104606628 0.6320921778678894
vt 0.7445939779281616 0.6320956349372864
vt 0.7443481683731079 0.6315251588821411
vt 0.7444947361946106 0.6319984793663025
vt 0.7447983622550964 0.6317617297172546
vt 0.7447264790534973 0.6319964528083801
vt 0.7445743680000305 0.6321127414703369
vt 0.7446510791778564 0.6321133375167847
vt 0.6394229531288147 0.5451501607894897
vt 0.6302196383476257 0.5754786729812622
vt 0.6900359988212585 0.5754166841506958
vt 0.6807364821434021 0.5451418161392212
vt 0.6273097991943359 0.6119513511657715
vt 0.6929796934127808 0.6118930578231812
vt 0.648252546787262 0.5297613143920898
vt 0.6719435453414917 0.529761552810669
vt 0.6557844877243042 0.5147663950920105
vt 0.6516723036766052 0.5145692825317383
vt 0.660102903842926 0.5146870613098145
vt 0.6644224524497986 0.514763355255127
vt 0.6686238646507263 0.5147451162338257
vt 0.6557844877243042 0.5147663950920105
vt 0.6516723036766052 0.5145692825317383
vt 0.660102903842926 0.5146870613098145
vt 0.6644224524497986 0.514763355255127
vt 0.6686238646507263 0.5147451162338257
vt 0.7320333123207092 0.6008426547050476
vt 0.7409895658493042 0.5715960264205933
vt 0.7461990118026733 0.5398699045181274
vt 0.6943126916885376 0.510741651058197
vt 0.6802165508270264 0.525907576084137
vt 0.7137649059295654 0.5038532018661499
vt 0.7334960103034973 0.5094433426856995
vt 0.7137649059295654 0.5038532018661499
vt 0.7490474581718445 0.5232624411582947
vt 0.722635805606842 0.6154117584228516
vt 0.6931626200675964 0.5727731585502625
vt 0.703159749507904 0.6010981202125549
vt 0.6848918795585632 0.5421149730682373
vt 0.7490474581718445 0.5232624411582947
vt 0.7334960103034973 0.5094433426856995
vt 0.6943126916885376 0.510741651058197
vt 0.6802165508270264 0.525907576084137
vt 0.7130793333053589 0.6153333187103271
vt 0.7445798516273499 0.6312180757522583
vt 0.7445798516273499 0.6312180757522583
vt 0.7448630332946777 0.6313738226890564
vn 0.09680682420730591 -0.928933322429657 0.35736748576164246
vn 0.7107579112052917 -0.6160658597946167 0.33953797817230225
vn 0.9241999983787537 0.11774299293756485 0.3633056581020355
vn 0.5757268071174622 0.7390914559364319 0.3496890962123871
vn -0.05328523367643356 0.9479963183403015 0.3137892782688141
vn -0.7017175555229187 0.639365553855896 0.3143313527107239
vn -0.9472417235374451 -0.12969745695590973 0.2931073009967804
vn -0.554231584072113 -0.7730023264884949 0.308698832988739
vn 0.7575057744979858 -0.6521947383880615 -0.028759170323610306
vn 0.9994736909866333 0.0033269384875893593 -0.032269008457660675
vn 0.7005249857902527 0.7125606536865234 0.039013441652059555
vn -0.6533446907997131 0.6918730735778809 0.30733102560043335
vn -0.9345768690109253 0.00040507919038645923 0.3557611107826233
vn -0.6593717336654663 -0.6945362091064453 0.2878339886665344
vn 0.5724457502365112 -0.7105211019515991 0.4092257022857666
vn 0.8596767783164978 -0.09117164462804794 0.5026366710662842
vn 0.7311998009681702 0.49938058853149414 0.4647212624549866
vn -0.6243434548377991 0.780174195766449 0.03903242200613022
vn -0.9930443167686462 0.11773065477609634 0.0015716352500021458
vn -0.8019566535949707 -0.5955314636230469 0.04698967933654785
vn 0.5556550621986389 -0.5984140038490295 0.5771898627281189
vn 0.5510198473930359 0.02516832761466503 0.8341125249862671
vn -0.7856507301330566 0.5911678671836853 0.18241021037101746
vn -0.1770019233226776 -0.5980633497238159 0.7816588282585144
vn -0.45159071683883667 0.04005276411771774 0.8913257718086243
vn -0.23987162113189697 0.6747169494628906 0.6980105042457581
vn 0.06786806136369705 -0.986314594745636 0.150257870554924
vn 0.014252891764044762 0.9849596619606018 0.1721961349248886
vn -0.09516700357198715 -0.9706204533576965 0.22099600732326508
vn 0.0879674181342125 0.948377251625061 0.3047003746032715
vn 0.07481841742992401 -0.9717297554016113 0.22392748296260834
vn 0.3986264169216156 0.6514970064163208 0.6454832553863525
vn -0.08857858926057816 0.9836028814315796 0.15709622204303741
vn -0.9876949191093445 -0.08313313871622086 0.13246817886829376
vn -0.6726973056793213 -0.7081723809242249 0.21440695226192474
vn -0.12169905006885529 -0.9898800253868103 0.07298566401004791
vn 0.7524428367614746 0.5982261300086975 -0.27559980750083923
vn -0.8882512450218201 0.12788380682468414 0.4411977231502533
vn -0.7264543175697327 -0.5856912732124329 0.3594857454299927
vn -0.5902804136276245 0.7516557574272156 0.2942492961883545
vn -0.7885740399360657 2.4411883714492433e-07 -0.61493980884552
vn 0.5632186532020569 -0.7996655106544495 -0.2081342339515686
vn 0.929899275302887 -0.13133496046066284 -0.3435673117637634
vn 0.0531146377325058 0.9985869526863098 -0.0017157678958028555
vn 0.33281373977661133 -0.7562320828437805 -0.5633365511894226
vn -0.20193085074424744 -0.9758203029632568 -0.08365834504365921
vn 0.5880342721939087 -0.050912342965602875 -0.8072322010993958
vn -0.8115559816360474 0.07531130313873291 0.5794006586074829
vn -0.673069179058075 -0.6102785468101501 0.4177773892879486
vn 0.6691291332244873 -0.5797058343887329 -0.46498116850852966
vn 0.8268811702728271 0.12546981871128082 -0.5482016801834106
vn -0.841816246509552 -0.1304800659418106 0.5237560272216797
vn -0.5401449203491211 -0.7977167963981628 0.26812610030174255
vn 0.14102686941623688 -0.4928685426712036 -0.8585990071296692
vn -0.6232032775878906 -0.7696632742881775 0.13869431614875793
vn 0.48490285873413086 0.604678750038147 -0.6318487524986267
vn -0.6006547212600708 0.7207058072090149 0.3461171090602875
vn 0.4962195158004761 0.7798841595649719 -0.381506085395813
vn -0.09167414158582687 0.9948590993881226 -0.043025676161050797
vn -0.6569529175758362 0.658455491065979 0.3672182857990265
vn 0.13561877608299255 0.5546180009841919 -0.8209789395332336
vn 0.23916368186473846 -7.972675852840894e-09 -0.9709792733192444
vn -0.8732073307037354 4.137310440910369e-07 0.48734891414642334
vn -0.623202919960022 0.7696635127067566 0.13869452476501465
vn -0.32624903321266174 -0.46712616086006165 -0.8217996954917908
vn -0.8620030879974365 -0.5061781406402588 -0.027099374681711197
vn -0.32624882459640503 0.46712663769721985 -0.821799635887146
vn -0.17277392745018005 6.895161419606666e-08 -0.9849615097045898
vn -0.9975100755691528 2.977117219415959e-07 0.07052396982908249
vn -0.8620026707649231 0.5061788558959961 -0.027098748832941055
vn 0.09420204162597656 -0.9847885370254517 -0.14600537717342377
vn -0.2049824446439743 -0.8821627497673035 -0.423994243144989
vn -0.06194434314966202 0.9746734499931335 -0.21488311886787415
vn -0.2726787030696869 0.8753799796104431 -0.39919447898864746
vn -0.5811823010444641 -0.6798616647720337 -0.44723081588745117
vn -0.581182062625885 0.6798622012138367 -0.44723013043403625
vn -0.1015235036611557 0.931130051612854 -0.3502710163593292
vn -0.7154141068458557 0.6163875460624695 -0.32901227474212646
vn -0.9283279180526733 -0.11966702342033386 -0.3519760072231293
vn -0.5816447138786316 -0.7388731837272644 -0.3402293026447296
vn 0.04878361150622368 -0.9502973556518555 -0.30749815702438354
vn 0.7021253108978271 -0.6399997472763062 -0.3121223449707031
vn 0.9471890926361084 0.1310836374759674 -0.292660117149353
vn 0.5554724335670471 0.7732656002044678 -0.30579516291618347
vn -0.7603582143783569 0.6489298343658447 0.027302898466587067
vn -0.9995338916778564 -0.003279624506831169 0.03035239316523075
vn -0.7044653296470642 -0.7087462544441223 -0.03751612454652786
vn 0.6526697278022766 -0.6958466172218323 -0.29969945549964905
vn 0.9375962018966675 -0.0006909191142767668 -0.34772536158561707
vn 0.6581590175628662 0.6988234519958496 -0.2801295220851898
vn -0.5761614441871643 0.7079201936721802 -0.4085180461406708
vn -0.8575863242149353 0.09345785528421402 -0.5057779550552368
vn -0.7298489809036255 -0.5015073418617249 -0.46455448865890503
vn 0.6263768076896667 -0.778347909450531 -0.04273924231529236
vn 0.9924505352973938 -0.12102586030960083 -0.019867654889822006
vn 0.7973358035087585 0.60005122423172 -0.06476229429244995
vn -0.5415949821472168 0.5898732542991638 -0.5989362001419067
vn -0.5459070801734924 -0.018679356202483177 -0.8376374840736389
vn 0.7838606834411621 -0.5889108777046204 -0.1968410462141037
vn 0.1854672133922577 0.5897142291069031 -0.7860273718833923
vn 0.4533981382846832 -0.04744376614689827 -0.890044629573822
vn 0.2520519495010376 -0.6526262164115906 -0.7145270109176636
vn -0.07506303489208221 0.986475944519043 -0.14570841193199158
vn -0.020966192707419395 -0.9856806397438049 -0.16731493175029755
vn 0.10059811919927597 0.9699795246124268 -0.2214040458202362
vn -0.09612859785556793 -0.9473202228546143 -0.30552205443382263
vn -0.05619906634092331 0.9647670388221741 -0.2570338845252991
vn -0.3959846794605255 -0.6436848640441895 -0.654878556728363
vn 0.10440709441900253 -0.9751223921775818 -0.1955394595861435
vn 0.9867706298828125 0.08670220524072647 -0.13699139654636383
vn 0.6765223741531372 0.7040643692016602 -0.21589542925357819
vn 0.11886795610189438 0.990414559841156 -0.07035191357135773
vn -0.7547879219055176 -0.5986601114273071 0.2681441009044647
vn 0.8924630880355835 -0.13079407811164856 -0.4317435920238495
vn 0.7261704802513123 0.5915445685386658 -0.3503590226173401
vn 0.5892241597175598 -0.7556644082069397 -0.2859829068183899
vn 0.8038352131843567 -2.82230558923402e-07 0.5948520302772522
vn -0.5673473477363586 0.7981586456298828 0.2026326060295105
vn -0.9333649277687073 0.13232235610485077 0.33364787697792053
vn -0.05791746452450752 -0.9983140230178833 0.003835539100691676
vn -0.33700188994407654 0.7590399980545044 0.5570350289344788
vn 0.1990349292755127 0.9762555956840515 0.08549930900335312
vn -0.5965535640716553 0.05228782072663307 0.8008682131767273
vn 0.8194689154624939 -0.07778498530387878 -0.5678207278251648
vn 0.6755014657974243 0.6148113012313843 -0.4070686399936676
vn -0.6727231740951538 0.5823962688446045 0.45635324716567993
vn -0.8327682018280029 -0.12764661014080048 0.5387053489685059
vn 0.847874641418457 0.1334470808506012 -0.5131281614303589
vn 0.5394100546836853 0.8010615706443787 -0.2594940662384033
vn -0.1432783156633377 0.5032545328140259 0.8521773219108582
vn 0.6258633732795715 0.768374502658844 -0.13377472758293152
vn -0.48999500274658203 -0.6090453863143921 0.6236736178398132
vn 0.6028926372528076 -0.7230350375175476 -0.33725476264953613
vn -0.5002871155738831 -0.7806400060653687 0.3745850920677185
vn 0.08878709375858307 -0.9950993657112122 0.04352155327796936
vn 0.6574642062187195 -0.6632972955703735 -0.35745981335639954
vn -0.1374131292104721 -0.5643922686576843 0.8139896988868713
vn -0.2442379593849182 -2.2439120073158847e-07 0.9697153568267822
vn 0.88043212890625 -2.699653975923866e-07 -0.4741722047328949
vn 0.6258630156517029 -0.7683748006820679 -0.13377484679222107
vn 0.33963650465011597 0.47572988271713257 0.8113743662834167
vn 0.8729598522186279 0.4867993891239166 0.031107427552342415
vn 0.33963626623153687 -0.47573044896125793 0.8113740086555481
vn 0.18301819264888763 -1.1209585437654823e-07 0.9831095337867737
vn 0.9984963536262512 -6.546631681203507e-08 -0.054819848388433456
vn 0.872959554195404 -0.486799955368042 0.031106989830732346
vn -0.09723734110593796 0.9845863580703735 0.145377516746521
vn 0.2059934288263321 0.8846884369850159 0.41820216178894043
vn 0.058785390108823776 -0.9749481081962585 0.2145238071680069
vn 0.2740127444267273 -0.8773662447929382 0.39388513565063477
vn 0.5936136841773987 0.6764508485794067 0.43593236804008484
vn 0.5936133861541748 -0.6764516234397888 0.4359317719936371
vn -0.05328523367643356 0.9479963183403015 0.3137892782688141
vn 0.014252891764044762 0.9849596619606018 0.1721961349248886
vn 0.06786806136369705 -0.986314594745636 0.150257870554924
vn 0.09680682420730591 -0.928933322429657 0.35736748576164246
vn 0.0531146377325058 0.9985869526863098 -0.0017157678958028555
vn -0.12169905006885529 -0.9898800253868103 0.07298566401004791
vn 0.0879674181342125 0.948377251625061 0.3047003746032715
vn -0.09516700357198715 -0.9706204533576965 0.22099600732326508
vn 0.5556550621986389 -0.5984140038490295 0.5771898627281189
vn 0.07481841742992401 -0.9717297554016113 0.22392748296260834
vn 0.5510198473930359 0.02516832761466503 0.8341125249862671
vn 0.3986264169216156 0.6514970064163208 0.6454832553863525
vn -0.08857858926057816 0.9836028814315796 0.15709622204303741
vn -0.7856507301330566 0.5911678671836853 0.18241021037101746
vn -0.08857858926057816 0.9836028814315796 0.15709622204303741
vn -0.9876949191093445 -0.08313313871622086 0.13246817886829376
vn -0.6726973056793213 -0.7081723809242249 0.21440695226192474
vn 0.07481841742992401 -0.9717297554016113 0.22392748296260834
vn -0.2049824446439743 -0.8821627497673035 -0.423994243144989
vn -0.20193085074424744 -0.9758203029632568 -0.08365834504365921
vn 0.09420204162597656 -0.9847885370254517 -0.14600537717342377
vn 0.5632186532020569 -0.7996655106544495 -0.2081342339515686
vn -0.12169905006885529 -0.9898800253868103 0.07298566401004791
vn 0.929899275302887 -0.13133496046066284 -0.3435673117637634
vn -0.7264543175697327 -0.5856912732124329 0.3594857454299927
vn -0.8882512450218201 0.12788380682468414 0.4411977231502533
vn -0.12169905006885529 -0.9898800253868103 0.07298566401004791
vn -0.5811823010444641 -0.6798616647720337 -0.44723081588745117
vn -0.06194434314966202 0.9746734499931335 -0.21488311886787415
vn -0.2726787030696869 0.8753799796104431 -0.39919447898864746
vn -0.09167414158582687 0.9948590993881226 -0.043025676161050797
vn 0.0531146377325058 0.9985869526863098 -0.0017157678958028555
vn 0.7524428367614746 0.5982261300086975 -0.27559980750083923
vn -0.5902804136276245 0.7516557574272156 0.2942492961883545
vn 0.0531146377325058 0.9985869526863098 -0.0017157678958028555
vn -0.581182062625885 0.6798622012138367 -0.44723013043403625
vn -0.9333649277687073 0.13232235610485077 0.33364787697792053
vn 0.8924630880355835 -0.13079407811164856 -0.4317435920238495
vn 0.11886795610189438 0.990414559841156 -0.07035191357135773
f 117/117/117 152/152/152 146/146/146
f 117/117/117 146/146/146 145/145/145
f 117/117/117 144/144/144 143/143/143
f 117/117/117 143/143/143 152/152/152
f 117/117/117 142/142/142 151/151/151
f 117/117/117 145/145/145 142/142/142
f 117/117/117 141/141/141 144/144/144
f 117/117/117 151/151/151 141/141/141
f 140/140/140 146/146/146 152/152/152
f 152/152/152 150/150/150 140/140/140
f 139/139/139 145/145/145 146/146/146
f 146/146/146 140/140/140 139/139/139
f 137/137/137 143/143/143 144/144/144
f 144/144/144 138/138/138 137/137/137
f 150/150/150 152/152/152 143/143/143
f 143/143/143 137/137/137 150/150/150
f 120/120/120 116/116/116 136/136/136
f 136/136/136 135/135/135 120/120/120
f 136/136/136 116/116/116 190/190/190
f 190/190/190 128/128/128 136/136/136
f 127/127/127 189/189/189 113/113/113
f 113/113/113 134/134/134 127/127/127
f 134/134/134 113/113/113 120/120/120
f 120/120/120 135/135/135 134/134/134
f 135/135/135 136/136/136 133/133/133
f 133/133/133 149/149/149 135/135/135
f 140/140/140 150/150/150 149/149/149
f 149/149/149 133/133/133 140/140/140
f 136/136/136 128/128/128 124/124/124
f 124/124/124 133/133/133 136/136/136
f 139/139/139 140/140/140 133/133/133
f 133/133/133 124/124/124 139/139/139
f 127/127/127 134/134/134 132/132/132
f 132/132/132 123/123/123 127/127/127
f 137/137/137 138/138/138 123/123/123
f 123/123/123 132/132/132 137/137/137
f 134/134/134 135/135/135 149/149/149
f 149/149/149 132/132/132 134/134/134
f 137/137/137 132/132/132 149/149/149
f 149/149/149 150/150/150 137/137/137
f 151/151/151 142/142/142 131/131/131
f 131/131/131 148/148/148 151/151/151
f 142/142/142 145/145/145 139/139/139
f 139/139/139 131/131/131 142/142/142
f 144/144/144 141/141/141 130/130/130
f 130/130/130 138/138/138 144/144/144
f 141/141/141 151/151/151 148/148/148
f 148/148/148 130/130/130 141/141/141
f 129/129/129 115/115/115 191/191/191
f 191/191/191 147/147/147 129/129/129
f 128/128/128 190/190/190 115/115/115
f 115/115/115 129/129/129 128/128/128
f 126/126/126 118/118/118 189/189/189
f 189/189/189 127/127/127 126/126/126
f 147/147/147 112/112/112 118/118/118
f 118/118/118 126/126/126 147/147/147
f 122/122/122 125/125/125 129/129/129
f 129/129/129 147/147/147 122/122/122
f 122/122/122 148/148/148 131/131/131
f 131/131/131 125/125/125 122/122/122
f 125/125/125 124/124/124 128/128/128
f 128/128/128 129/129/129 125/125/125
f 125/125/125 131/131/131 139/139/139
f 139/139/139 124/124/124 125/125/125
f 123/123/123 121/121/121 126/126/126
f 126/126/126 127/127/127 123/123/123
f 123/123/123 138/138/138 130/130/130
f 130/130/130 121/121/121 123/123/123
f 121/121/121 122/122/122 147/147/147
f 147/147/147 126/126/126 121/121/121
f 121/121/121 130/130/130 148/148/148
f 148/148/148 122/122/122 121/121/121
f 109/109/109 102/102/102 99/99/99
f 111/111/111 107/107/107 105/105/105
f 105/105/105 96/96/96 111/111/111
f 110/110/110 111/111/111 96/96/96
f 96/96/96 95/95/95 110/110/110
f 99/99/99 110/110/110 95/95/95
f 95/95/95 94/94/94 99/99/99
f 109/109/109 99/99/99 94/94/94
f 94/94/94 106/106/106 109/109/109
f 108/108/108 109/109/109 106/106/106
f 106/106/106 93/93/93 108/108/108
f 98/98/98 108/108/108 93/93/93
f 93/93/93 92/92/92 98/98/98
f 97/97/97 98/98/98 92/92/92
f 92/92/92 91/91/91 97/97/97
f 107/107/107 97/97/97 91/91/91
f 91/91/91 105/105/105 107/107/107
f 108/108/108 102/102/102 109/109/109
f 101/101/101 110/110/110 99/99/99
f 99/99/99 102/102/102 101/101/101
f 101/101/101 102/102/102 108/108/108
f 108/108/108 98/98/98 101/101/101
f 111/111/111 110/110/110 101/101/101
f 101/101/101 100/100/100 111/111/111
f 100/100/100 101/101/101 98/98/98
f 98/98/98 97/97/97 100/100/100
f 100/100/100 107/107/107 111/111/111
f 97/97/97 107/107/107 100/100/100
f 84/84/84 96/96/96 105/105/105
f 105/105/105 77/77/77 84/84/84
f 83/83/83 95/95/95 96/96/96
f 96/96/96 84/84/84 83/83/83
f 82/82/82 94/94/94 95/95/95
f 95/95/95 83/83/83 82/82/82
f 82/82/82 81/81/81 106/106/106
f 106/106/106 94/94/94 82/82/82
f 80/80/80 93/93/93 106/106/106
f 106/106/106 81/81/81 80/80/80
f 79/79/79 92/92/92 93/93/93
f 93/93/93 80/80/80 79/79/79
f 78/78/78 91/91/91 92/92/92
f 92/92/92 79/79/79 78/78/78
f 77/77/77 105/105/105 91/91/91
f 91/91/91 78/78/78 77/77/77
f 112/112/112 115/115/115 90/90/90
f 90/90/90 103/103/103 112/112/112
f 115/115/115 114/114/114 89/89/89
f 89/89/89 90/90/90 115/115/115
f 114/114/114 116/116/116 88/88/88
f 88/88/88 89/89/89 114/114/114
f 116/116/116 120/120/120 104/104/104
f 104/104/104 88/88/88 116/116/116
f 120/120/120 113/113/113 87/87/87
f 87/87/87 104/104/104 120/120/120
f 113/113/113 119/119/119 86/86/86
f 86/86/86 87/87/87 113/113/113
f 119/119/119 118/118/118 85/85/85
f 85/85/85 86/86/86 119/119/119
f 118/118/118 112/112/112 103/103/103
f 103/103/103 85/85/85 118/118/118
f 103/103/103 90/90/90 84/84/84
f 84/84/84 77/77/77 103/103/103
f 90/90/90 89/89/89 83/83/83
f 83/83/83 84/84/84 90/90/90
f 89/89/89 88/88/88 82/82/82
f 82/82/82 83/83/83 89/89/89
f 88/88/88 104/104/104 81/81/81
f 81/81/81 82/82/82 88/88/88
f 104/104/104 87/87/87 80/80/80
f 80/80/80 81/81/81 104/104/104
f 87/87/87 86/86/86 79/79/79
f 79/79/79 80/80/80 87/87/87
f 86/86/86 85/85/85 78/78/78
f 78/78/78 79/79/79 86/86/86
f 78/78/78 85/85/85 103/103/103
f 103/103/103 77/77/77 78/78/78
f 41/41/41 70/70/70 188/188/188
f 41/41/41 69/69/69 70/70/70
f 41/41/41 67/67/67 68/68/68
f 41/41/41 76/76/76 67/67/67
f 41/41/41 180/180/180 66/66/66
f 41/41/41 66/66/66 69/69/69
f 41/41/41 68/68/68 65/65/65
f 41/41/41 65/65/65 75/75/75
f 64/64/64 182/182/182 188/188/188
f 188/188/188 70/70/70 64/64/64
f 63/63/63 64/64/64 70/70/70
f 70/70/70 69/69/69 63/63/63
f 61/61/61 62/62/62 68/68/68
f 68/68/68 67/67/67 61/61/61
f 74/74/74 61/61/61 67/67/67
f 67/67/67 76/76/76 74/74/74
f 187/187/187 183/183/183 60/60/60
f 60/60/60 186/186/186 187/187/187
f 60/60/60 52/52/52 178/178/178
f 178/178/178 186/186/186 60/60/60
f 51/51/51 58/58/58 185/185/185
f 185/185/185 176/176/176 51/51/51
f 58/58/58 59/59/59 184/184/184
f 184/184/184 185/185/185 58/58/58
f 183/183/183 181/181/181 57/57/57
f 57/57/57 60/60/60 183/183/183
f 64/64/64 57/57/57 181/181/181
f 181/181/181 182/182/182 64/64/64
f 60/60/60 57/57/57 48/48/48
f 48/48/48 52/52/52 60/60/60
f 63/63/63 48/48/48 57/57/57
f 57/57/57 64/64/64 63/63/63
f 51/51/51 47/47/47 56/56/56
f 56/56/56 58/58/58 51/51/51
f 61/61/61 56/56/56 47/47/47
f 47/47/47 62/62/62 61/61/61
f 58/58/58 56/56/56 73/73/73
f 73/73/73 59/59/59 58/58/58
f 61/61/61 74/74/74 73/73/73
f 73/73/73 56/56/56 61/61/61
f 180/180/180 171/171/171 55/55/55
f 55/55/55 66/66/66 180/180/180
f 66/66/66 55/55/55 63/63/63
f 63/63/63 69/69/69 66/66/66
f 68/68/68 62/62/62 54/54/54
f 54/54/54 65/65/65 68/68/68
f 65/65/65 54/54/54 72/72/72
f 72/72/72 75/75/75 65/65/65
f 53/53/53 173/173/173 179/179/179
f 179/179/179 177/177/177 53/53/53
f 52/52/52 53/53/53 177/177/177
f 177/177/177 178/178/178 52/52/52
f 50/50/50 51/51/51 176/176/176
f 176/176/176 174/174/174 50/50/50
f 71/71/71 50/50/50 174/174/174
f 174/174/174 175/175/175 71/71/71
f 172/172/172 173/173/173 53/53/53
f 53/53/53 49/49/49 172/172/172
f 172/172/172 49/49/49 55/55/55
f 55/55/55 171/171/171 172/172/172
f 49/49/49 53/53/53 52/52/52
f 52/52/52 48/48/48 49/49/49
f 49/49/49 48/48/48 63/63/63
f 63/63/63 55/55/55 49/49/49
f 47/47/47 51/51/51 50/50/50
f 50/50/50 45/45/45 47/47/47
f 47/47/47 45/45/45 54/54/54
f 54/54/54 62/62/62 47/47/47
f 45/45/45 50/50/50 71/71/71
f 71/71/71 46/46/46 45/45/45
f 45/45/45 46/46/46 72/72/72
f 72/72/72 54/54/54 45/45/45
f 33/33/33 23/23/23 26/26/26
f 169/169/169 20/20/20 160/160/160
f 160/160/160 170/170/170 169/169/169
f 168/168/168 19/19/19 20/20/20
f 20/20/20 169/169/169 168/168/168
f 166/166/166 18/18/18 19/19/19
f 19/19/19 168/168/168 166/166/166
f 167/167/167 159/159/159 18/18/18
f 18/18/18 166/166/166 167/167/167
f 164/164/164 17/17/17 30/30/30
f 30/30/30 165/165/165 164/164/164
f 163/163/163 16/16/16 17/17/17
f 17/17/17 164/164/164 163/163/163
f 161/161/161 15/15/15 16/16/16
f 16/16/16 163/163/163 161/161/161
f 162/162/162 29/29/29 15/15/15
f 15/15/15 161/161/161 162/162/162
f 32/32/32 33/33/33 26/26/26
f 25/25/25 26/26/26 23/23/23
f 23/23/23 34/34/34 25/25/25
f 25/25/25 22/22/22 32/32/32
f 32/32/32 26/26/26 25/25/25
f 35/35/35 24/24/24 25/25/25
f 25/25/25 34/34/34 35/35/35
f 24/24/24 21/21/21 22/22/22
f 22/22/22 25/25/25 24/24/24
f 24/24/24 35/35/35 31/31/31
f 21/21/21 24/24/24 31/31/31
f 8/8/8 156/156/156 160/160/160
f 160/160/160 20/20/20 8/8/8
f 7/7/7 8/8/8 20/20/20
f 20/20/20 19/19/19 7/7/7
f 6/6/6 7/7/7 19/19/19
f 19/19/19 18/18/18 6/6/6
f 6/6/6 18/18/18 159/159/159
f 159/159/159 153/153/153 6/6/6
f 4/4/4 5/5/5 30/30/30
f 30/30/30 17/17/17 4/4/4
f 3/3/3 4/4/4 17/17/17
f 17/17/17 16/16/16 3/3/3
f 2/2/2 3/3/3 16/16/16
f 16/16/16 15/15/15 2/2/2
f 1/1/1 2/2/2 15/15/15
f 15/15/15 29/29/29 1/1/1
f 158/158/158 155/155/155 14/14/14
f 14/14/14 39/39/39 158/158/158
f 39/39/39 14/14/14 13/13/13
f 13/13/13 38/38/38 39/39/39
f 38/38/38 13/13/13 12/12/12
f 12/12/12 40/40/40 38/38/38
f 40/40/40 12/12/12 154/154/154
f 154/154/154 157/157/157 40/40/40
f 44/44/44 28/28/28 11/11/11
f 11/11/11 37/37/37 44/44/44
f 37/37/37 11/11/11 10/10/10
f 10/10/10 43/43/43 37/37/37
f 43/43/43 10/10/10 9/9/9
f 9/9/9 42/42/42 43/43/43
f 42/42/42 9/9/9 27/27/27
f 27/27/27 36/36/36 42/42/42
f 155/155/155 156/156/156 8/8/8
f 8/8/8 14/14/14 155/155/155
f 14/14/14 8/8/8 7/7/7
f 7/7/7 13/13/13 14/14/14
f 13/13/13 7/7/7 6/6/6
f 6/6/6 12/12/12 13/13/13
f 12/12/12 6/6/6 153/153/153
f 153/153/153 154/154/154 12/12/12
f 28/28/28 5/5/5 4/4/4
f 4/4/4 11/11/11 28/28/28
f 11/11/11 4/4/4 3/3/3
f 3/3/3 10/10/10 11/11/11
f 10/10/10 3/3/3 2/2/2
f 2/2/2 9/9/9 10/10/10
f 2/2/2 1/1/1 27/27/27
f 27/27/27 9/9/9 2/2/2
