# Recovered local-space geometry; original node transforms not applied
o mesh_0
v -28.443954467773438 -17.515464782714844 -44.12643814086914
v -18.7659969329834 -12.633679389953613 -52.24720764160156
v 6.246723175048828 -16.856901168823242 -31.49138641357422
v -10.029560089111328 -23.370553970336914 -25.56728744506836
v 12.536029815673828 -8.243760930781718e-06 -33.780494689941406
v -32.59513854980469 -3.152217686874792e-08 -17.35411262512207
v -38.121910095214844 -12.633666038513184 -36.00562286376953
v -26.305831909179688 -16.856863021850586 -19.643218994140625
v -44.268211364746094 -5.455256462097168 -59.12645721435547
v -47.489707946777344 -8.20743465423584 -54.97145080566406
v -53.168128967285156 -3.152240424242336e-08 -48.645729064941406
v -51.50843811035156 -6.172785758972168 -50.4447021484375
v -28.443946838378906 17.515457153320312 -44.12643051147461
v -18.7659912109375 12.633681297302246 -52.24720764160156
v 6.246726989746094 16.856876373291016 -31.49138641357422
v -10.029555320739746 23.37055778503418 -25.56729507446289
v -15.026336669921875 -3.152308636344969e-08 -55.3851318359375
v -41.86156463623047 -3.152217686874792e-08 -32.867706298828125
v -38.12190628051758 12.633662223815918 -36.005615234375
v -26.305828094482422 16.85686683654785 -19.643211364746094
v -44.268211364746094 5.455250263214111 -59.12645721435547
v -47.489707946777344 8.207430839538574 -54.97145080566406
v -43.49156188964844 -3.1522631616098806e-08 -60.513694763183594
v -53.168128967285156 -3.152240424242336e-08 -48.645729064941406
v -51.50843811035156 6.172776699066162 -50.4447021484375
v -53.625282287597656 8.180713848560117e-06 -57.118309020996094
v -29.615392684936523 -23.315237045288086 -45.69001770019531
v -17.240671157836914 -16.559030532836914 -56.68785858154297
v 9.461862564086914 -20.9573974609375 -34.70124435424805
v -10.28870677947998 -29.39151382446289 -26.63276481628418
v 17.178436279296875 -8.453566806565505e-06 -37.76828384399414
v -37.88880157470703 -4.402648983159452e-07 -14.283035278320312
v -42.11042022705078 -16.938390731811523 -34.26908493041992
v -30.154996871948242 -21.31914520263672 -17.9920597076416
v -45.144287109375 -8.52122974395752 -64.35002136230469
v -50.129600524902344 -13.094789505004883 -57.54011154174805
v -58.788124084472656 9.412449344381457e-07 -46.531715393066406
v -56.326507568359375 -9.889780044555664 -49.79424285888672
v -29.61538314819336 23.315229415893555 -45.69001007080078
v -17.240665435791016 16.55903434753418 -56.68785858154297
v 9.461870193481445 20.957368850708008 -34.70124816894531
v -10.288698196411133 29.391517639160156 -26.632776260375977
v -12.397823333740234 -6.874084874652908e-07 -60.91191482543945
v -46.994606018066406 -1.575708665768616e-07 -29.535125732421875
v -42.11041259765625 16.938385009765625 -34.26907730102539
v -30.154993057250977 21.319149017333984 -17.99205207824707
v -45.144287109375 8.521223068237305 -64.35002136230469
v -50.12959289550781 13.094788551330566 -57.54011154174805
v -43.83909606933594 6.014195150783053e-07 -66.62373352050781
v -56.326507568359375 9.889772415161133 -49.79423904418945
v -58.71637725830078 1.227784468937898e-05 -60.514652252197266
v 4.995843887329102 -26.103450775146484 -0.045196533203125
v 25.09355354309082 18.828083038330078 -0.045196533203125
v 25.09355354309082 -18.82809829711914 -0.045196533203125
v 32.85948944091797 -3.218133315385785e-06 -0.04519462585449219
v -22.867816925048828 1.3206342373450752e-05 -0.045196533203125
v -15.101886749267578 -18.828079223632812 -0.045192718505859375
v 4.995857238769531 26.10344696044922 -0.04519844055175781
v -15.10186767578125 18.828096389770508 -0.045192718505859375
v 5.125979423522949 -32.2196044921875 -0.21870040893554688
v 29.170000076293945 23.085250854492188 -1.6924667358398438
v 29.16999626159668 -23.085269927978516 -1.6924610137939453
v 38.572837829589844 -3.262152404204244e-06 -2.238840103149414
v -28.334430694580078 1.6863328710314818e-05 2.7062644958496094
v -18.969467163085938 -23.236846923828125 1.7037925720214844
v 5.125997543334961 32.2196044921875 -0.2187061309814453
v -18.969446182250977 23.23686981201172 1.7037925720214844
v 4.995841026306152 8.344650268554688e-07 -0.04519462585449219
v 5.111433982849121 2.1457672119140625e-06 0.00658416748046875
v -10.029560089111328 -23.370553970336914 -25.56728744506836
v -28.443954467773438 -17.515464782714844 -44.12643814086914
v 4.995843887329102 -26.103450775146484 -0.045196533203125
v -18.7659969329834 -12.633679389953613 -52.24720764160156
v -28.443954467773438 -17.515464782714844 -44.12643814086914
v -15.026336669921875 -3.152308636344969e-08 -55.3851318359375
v -38.121910095214844 -12.633666038513184 -36.00562286376953
v -41.86156463623047 -3.152217686874792e-08 -32.867706298828125
v -10.029555320739746 23.37055778503418 -25.56729507446289
v -28.443946838378906 17.515457153320312 -44.12643051147461
v 4.995857238769531 26.10344696044922 -0.04519844055175781
v -18.7659912109375 12.633681297302246 -52.24720764160156
v -28.443946838378906 17.515457153320312 -44.12643051147461
v -38.12190628051758 12.633662223815918 -36.005615234375
v -44.268211364746094 -5.455256462097168 -59.12645721435547
v -47.489707946777344 -8.20743465423584 -54.97145080566406
v -43.49156188964844 -3.1522631616098806e-08 -60.513694763183594
v -44.268211364746094 -5.455256462097168 -59.12645721435547
v -53.625282287597656 8.180713848560117e-06 -57.118309020996094
v -51.50843811035156 -6.172785758972168 -50.4447021484375
v -53.168128967285156 -3.152240424242336e-08 -48.645729064941406
v -53.625282287597656 8.180713848560117e-06 -57.118309020996094
v -47.489707946777344 -8.20743465423584 -54.97145080566406
v -51.50843811035156 -6.172785758972168 -50.4447021484375
v -53.625282287597656 8.180713848560117e-06 -57.118309020996094
v -47.489707946777344 8.207430839538574 -54.97145080566406
v -44.268211364746094 5.455250263214111 -59.12645721435547
v -53.625282287597656 8.180713848560117e-06 -57.118309020996094
v -44.268211364746094 5.455250263214111 -59.12645721435547
v -43.49156188964844 -3.1522631616098806e-08 -60.513694763183594
v -53.625282287597656 8.180713848560117e-06 -57.118309020996094
v -53.168128967285156 -3.152240424242336e-08 -48.645729064941406
v -51.50843811035156 6.172776699066162 -50.4447021484375
v -53.625282287597656 8.180713848560117e-06 -57.118309020996094
v -51.50843811035156 6.172776699066162 -50.4447021484375
v -47.489707946777344 8.207430839538574 -54.97145080566406
v -53.625282287597656 8.180713848560117e-06 -57.118309020996094
v -17.240671157836914 -16.559030532836914 -56.68785858154297
v -29.615392684936523 -23.315237045288086 -45.69001770019531
v -12.397823333740234 -6.874084874652908e-07 -60.91191482543945
v -42.11042022705078 -16.938390731811523 -34.26908493041992
v -46.994606018066406 -1.575708665768616e-07 -29.535125732421875
v -10.288698196411133 29.391517639160156 -26.632776260375977
v -29.61538314819336 23.315229415893555 -45.69001007080078
v 5.125997543334961 32.2196044921875 -0.2187061309814453
v -17.240665435791016 16.55903434753418 -56.68785858154297
v -29.61538314819336 23.315229415893555 -45.69001007080078
v -42.11041259765625 16.938385009765625 -34.26907730102539
v -45.144287109375 -8.52122974395752 -64.35002136230469
v -50.129600524902344 -13.094789505004883 -57.54011154174805
v -43.83909606933594 6.014195150783053e-07 -66.62373352050781
v -58.71637725830078 1.227784468937898e-05 -60.514652252197266
v -45.144287109375 -8.52122974395752 -64.35002136230469
v -56.326507568359375 -9.889780044555664 -49.79424285888672
v -58.71637725830078 1.227784468937898e-05 -60.514652252197266
v -58.788124084472656 9.412449344381457e-07 -46.531715393066406
v -50.129600524902344 -13.094789505004883 -57.54011154174805
v -58.71637725830078 1.227784468937898e-05 -60.514652252197266
v -56.326507568359375 -9.889780044555664 -49.79424285888672
v -50.12959289550781 13.094788551330566 -57.54011154174805
v -58.71637725830078 1.227784468937898e-05 -60.514652252197266
v -45.144287109375 8.521223068237305 -64.35002136230469
v -45.144287109375 8.521223068237305 -64.35002136230469
v -58.71637725830078 1.227784468937898e-05 -60.514652252197266
v -43.83909606933594 6.014195150783053e-07 -66.62373352050781
v -58.788124084472656 9.412449344381457e-07 -46.531715393066406
v -58.71637725830078 1.227784468937898e-05 -60.514652252197266
v -56.326507568359375 9.889772415161133 -49.79423904418945
v -56.326507568359375 9.889772415161133 -49.79423904418945
v -58.71637725830078 1.227784468937898e-05 -60.514652252197266
v -50.12959289550781 13.094788551330566 -57.54011154174805
v -15.101886749267578 -18.828079223632812 -0.045192718505859375
v 4.995843887329102 -26.103450775146484 -0.045196533203125
v 32.85948944091797 -3.218133315385785e-06 -0.04519462585449219
v 25.09355354309082 18.828083038330078 -0.045196533203125
v 4.995857238769531 26.10344696044922 -0.04519844055175781
v 25.09355354309082 -18.82809829711914 -0.045196533203125
v -22.867816925048828 1.3206342373450752e-05 -0.045196533203125
v -15.10186767578125 18.828096389770508 -0.045192718505859375
v 4.995857238769531 26.10344696044922 -0.04519844055175781
v 5.125979423522949 -32.2196044921875 -0.21870040893554688
v -18.969467163085938 -23.236846923828125 1.7037925720214844
v 29.170000076293945 23.085250854492188 -1.6924667358398438
v 38.572837829589844 -3.262152404204244e-06 -2.238840103149414
v 5.111433982849121 2.1457672119140625e-06 0.00658416748046875
v 5.125997543334961 32.2196044921875 -0.2187061309814453
v 29.170000076293945 23.085250854492188 -1.6924667358398438
v 5.111433982849121 2.1457672119140625e-06 0.00658416748046875
v 29.16999626159668 -23.085269927978516 -1.6924610137939453
v 5.125979423522949 -32.2196044921875 -0.21870040893554688
v 5.111433982849121 2.1457672119140625e-06 0.00658416748046875
v 38.572837829589844 -3.262152404204244e-06 -2.238840103149414
v 29.16999626159668 -23.085269927978516 -1.6924610137939453
v 5.111433982849121 2.1457672119140625e-06 0.00658416748046875
v -18.969467163085938 -23.236846923828125 1.7037925720214844
v -28.334430694580078 1.6863328710314818e-05 2.7062644958496094
v 5.111433982849121 2.1457672119140625e-06 0.00658416748046875
v -28.334430694580078 1.6863328710314818e-05 2.7062644958496094
v -18.969446182250977 23.23686981201172 1.7037925720214844
v 5.111433982849121 2.1457672119140625e-06 0.00658416748046875
v -18.969446182250977 23.23686981201172 1.7037925720214844
v 5.125997543334961 32.2196044921875 -0.2187061309814453
v 5.111433982849121 2.1457672119140625e-06 0.00658416748046875
vt 0.8800569772720337 0.11977243423461914
vt 0.9111379384994507 0.12317705154418945
vt 0.9156904220581055 0.09258425235748291
vt 0.8896695375442505 0.09415614604949951
vt 0.9369447231292725 0.09197700023651123
vt 0.9365490674972534 0.09926092624664307
vt 0.9573171138763428 0.11967873573303223
vt 0.9631900787353516 0.09864187240600586
vt 0.891189455986023 0.018980979919433594
vt 0.8928738832473755 0.018993854522705078
vt 0.8894057273864746 0.018992900848388672
vt 0.891189455986023 0.018980979919433594
vt 0.9945989847183228 0.12194204330444336
vt 0.9625481367111206 0.12317705154418945
vt 0.957085371017456 0.09258425235748291
vt 0.9879443645477295 0.09415614604949951
vt 0.9369447231292725 0.12449252605438232
vt 0.9365490674972534 0.11833786964416504
vt 0.9130991697311401 0.11967861652374268
vt 0.9088761806488037 0.09864187240600586
vt 0.891189455986023 0.018980979919433594
vt 0.8928738832473755 0.018993854522705078
vt 0.8894057273864746 0.018992900848388672
vt 0.8894057273864746 0.018992900848388672
vt 0.891189455986023 0.018980979919433594
vt 0.8911560773849487 0.01698756217956543
vt 0.9401237368583679 0.07510989904403687
vt 0.9404202103614807 0.07514685392379761
vt 0.9404638409614563 0.07481509447097778
vt 0.940215528011322 0.07483214139938354
vt 0.9406664967536926 0.07480853796005249
vt 0.9396331906318665 0.0748557448387146
vt 0.9398539662361145 0.07507294416427612
vt 0.93991619348526 0.0748491883277893
vt 0.9391505122184753 0.07400184869766235
vt 0.9391685128211975 0.0740019679069519
vt 0.9391315579414368 0.0740019679069519
vt 0.9391505122184753 0.07400184869766235
vt 0.9412165284156799 0.07513344287872314
vt 0.9409108757972717 0.07514685392379761
vt 0.9408589005470276 0.07481509447097778
vt 0.9411529898643494 0.07483214139938354
vt 0.9406664967536926 0.07516103982925415
vt 0.9396331906318665 0.0750586986541748
vt 0.939383327960968 0.07507294416427612
vt 0.9393386244773865 0.0748491883277893
vt 0.9391505122184753 0.07400184869766235
vt 0.9391685128211975 0.0740019679069519
vt 0.9391315579414368 0.0740019679069519
vt 0.9391505122184753 0.07400184869766235
vt 0.9391500353813171 0.07398062944412231
vt 0.8914752006530762 0.06346046924591064
vt 0.9567655324935913 0.05461680889129639
vt 0.9159564971923828 0.05461680889129639
vt 0.9369447231292725 0.05119943618774414
vt 0.9365490674972534 0.07825052738189697
vt 0.9663732051849365 0.07476752996444702
vt 0.9864364862442017 0.06346040964126587
vt 0.9065871238708496 0.07476752996444702
vt 0.9402328133583069 0.07449942827224731
vt 0.9408556818962097 0.07440346479415894
vt 0.9404661059379578 0.07440346479415894
vt 0.9406664967536926 0.07436639070510864
vt 0.9396331906318665 0.07463234663009644
vt 0.9399504065513611 0.07459527254104614
vt 0.9411386847496033 0.07449942827224731
vt 0.939314067363739 0.07459527254104614
vt 0.9404591917991638 0.07523214817047119
vt 0.9401412606239319 0.07449930906295776
vt 0.9913113117218018 0.09703981876373291
vt 0.9826897382736206 0.12314879894256592
vt 0.9929307699203491 0.06575387716293335
vt 0.8911973237991333 0.021645784378051758
vt 0.8945378065109253 0.02164757251739502
vt 0.8878045082092285 0.021559298038482666
vt 0.8911973237991333 0.021645784378051758
vt 0.8878045082092285 0.021559298038482666
vt 0.8804980516433716 0.09703981876373291
vt 0.8920257091522217 0.12314879894256592
vt 0.8783328533172607 0.06575381755828857
vt 0.8911973237991333 0.021645784378051758
vt 0.8945378065109253 0.02164757251739502
vt 0.8911973237991333 0.021645784378051758
vt 0.8911206722259521 0.019095778465270996
vt 0.8928738832473755 0.01910877227783203
vt 0.8894057273864746 0.019107818603515625
vt 0.8911206722259521 0.019095778465270996
vt 0.8911560773849487 0.01698756217956543
vt 0.8911206722259521 0.019095778465270996
vt 0.8894057273864746 0.019107818603515625
vt 0.8911560773849487 0.01698756217956543
vt 0.8928738832473755 0.01910877227783203
vt 0.8911206722259521 0.019095778465270996
vt 0.8911560773849487 0.01698756217956543
vt 0.8928738832473755 0.01910877227783203
vt 0.8911206722259521 0.019095778465270996
vt 0.8911560773849487 0.016983985900878906
vt 0.8911206722259521 0.019095778465270996
vt 0.8894057273864746 0.019107818603515625
vt 0.8911560773849487 0.016983985900878906
vt 0.8894057273864746 0.019107818603515625
vt 0.8911206722259521 0.019095778465270996
vt 0.8911560773849487 0.016983985900878906
vt 0.8911206722259521 0.019095778465270996
vt 0.8928738832473755 0.01910877227783203
vt 0.8911560773849487 0.016983985900878906
vt 0.9391505122184753 0.07403022050857544
vt 0.9391860365867615 0.07403022050857544
vt 0.939114511013031 0.07402926683425903
vt 0.9391505122184753 0.07403022050857544
vt 0.939114511013031 0.07402926683425903
vt 0.9390366673469543 0.07483214139938354
vt 0.9391593337059021 0.07510989904403687
vt 0.9390137791633606 0.07449942827224731
vt 0.9391505122184753 0.07403022050857544
vt 0.9391860365867615 0.07403022050857544
vt 0.9391505122184753 0.07403022050857544
vt 0.9391495585441589 0.07400310039520264
vt 0.9391685128211975 0.07400315999984741
vt 0.9391315579414368 0.07400315999984741
vt 0.9391500353813171 0.07398062944412231
vt 0.9391495585441589 0.07400310039520264
vt 0.9391495585441589 0.07400310039520264
vt 0.9391500353813171 0.07398062944412231
vt 0.9391315579414368 0.07400315999984741
vt 0.9391685128211975 0.07400315999984741
vt 0.9391500353813171 0.07398062944412231
vt 0.9391495585441589 0.07400310039520264
vt 0.9391685128211975 0.07400315999984741
vt 0.9391500353813171 0.07398062944412231
vt 0.9391495585441589 0.07400310039520264
vt 0.9391495585441589 0.07400310039520264
vt 0.9391500353813171 0.07398062944412231
vt 0.9391315579414368 0.07400315999984741
vt 0.9391315579414368 0.07400315999984741
vt 0.9391500353813171 0.07398062944412231
vt 0.9391495585441589 0.07400310039520264
vt 0.9391495585441589 0.07400310039520264
vt 0.9391500353813171 0.07398062944412231
vt 0.9391685128211975 0.07400315999984741
vt 0.9402963519096375 0.07531392574310303
vt 0.94053715467453 0.07523214817047119
vt 0.9409071803092957 0.0751187801361084
vt 0.9410684704780579 0.07515037059783936
vt 0.9413098692893982 0.07523214817047119
vt 0.9407365918159485 0.07515037059783936
vt 0.9400256276130676 0.07534551620483398
vt 0.9397539496421814 0.07531392574310303
vt 0.9394974112510681 0.07523214817047119
vt 0.9402328133583069 0.07449942827224731
vt 0.9399504065513611 0.07459527254104614
vt 0.9408556818962097 0.07440346479415894
vt 0.9406664967536926 0.07436639070510864
vt 0.9401412606239319 0.07449930906295776
vt 0.9411386847496033 0.07449942827224731
vt 0.9408556818962097 0.07440346479415894
vt 0.9401412606239319 0.07449930906295776
vt 0.9404661059379578 0.07440346479415894
vt 0.9402328133583069 0.07449942827224731
vt 0.9401412606239319 0.07449930906295776
vt 0.9406664967536926 0.07436639070510864
vt 0.9404661059379578 0.07440346479415894
vt 0.9401412606239319 0.07449930906295776
vt 0.9399504065513611 0.07459527254104614
vt 0.9396331906318665 0.07463234663009644
vt 0.9401412606239319 0.07449930906295776
vt 0.9396331906318665 0.07463234663009644
vt 0.939314067363739 0.07459527254104614
vt 0.9401412606239319 0.07449930906295776
vt 0.939314067363739 0.07459527254104614
vt 0.9390137791633606 0.07449942827224731
vt 0.9401412606239319 0.07449930906295776
vn -0.12189566344022751 -0.9522854089736938 -0.27981093525886536
vn 0.24519459903240204 -0.640861451625824 -0.7274450063705444
vn 0.5145167708396912 -0.6861408948898315 -0.5142792463302612
vn -0.05257854983210564 -0.9891542196273804 -0.1371481567621231
vn 0.7027902603149414 -2.1496422419886585e-08 -0.711397111415863
vn -0.871855616569519 1.5418994792071317e-07 0.4897629916667938
vn -0.618719756603241 -0.7388885617256165 0.26688891649246216
vn -0.6351422667503357 -0.7131521701812744 0.2966621220111847
vn 0.09728186577558517 -0.47811082005500793 -0.8728954792022705
vn -0.27415159344673157 -0.9119796752929688 -0.3051786720752716
vn -0.7586442828178406 -0.3606868386268616 0.5425533056259155
vn -0.6584477424621582 -0.6893883347511292 0.3019773066043854
vn -0.12189549952745438 0.9522854089736938 -0.27981096506118774
vn 0.24519465863704681 0.6408616900444031 -0.7274447679519653
vn 0.5145171284675598 0.6861405968666077 -0.514279305934906
vn -0.05257808789610863 0.9891541600227356 -0.13714875280857086
vn 0.33106693625450134 -1.605463140208485e-08 -0.9436072707176208
vn -0.8426807522773743 -2.1310182063416505e-08 0.5384137630462646
vn -0.618719756603241 0.7388885617256165 0.26688864827156067
vn -0.6351421475410461 0.7131522297859192 0.29666200280189514
vn 0.09728178381919861 0.47811073064804077 -0.8728954195976257
vn -0.2741517424583435 0.9119796752929688 -0.3051784336566925
vn 0.17731450498104095 1.3910720042531466e-07 -0.9841543436050415
vn -0.7586442828178406 0.3606869876384735 0.5425530076026917
vn -0.6584479212760925 0.6893882155418396 0.3019772171974182
vn -0.46209916472435 -0.5312008261680603 -0.7101338505744934
vn 0.12064935266971588 0.9511227607727051 0.2842699885368347
vn -0.24553057551383972 0.6396483182907104 0.7283987998962402
vn -0.5154176354408264 0.6839378476142883 0.5163077116012573
vn 0.05130840465426445 0.9888986349105835 0.1394522786140442
vn -0.7018453478813171 9.684674040499885e-08 0.7123294472694397
vn 0.8722572922706604 -1.1205995775753763e-07 -0.4890472888946533
vn 0.620459794998169 0.7391083836555481 -0.2621992230415344
vn 0.6332855224609375 0.7155118584632874 -0.2949446737766266
vn -0.09728248417377472 0.4826914370059967 0.8703706860542297
vn 0.27821582555770874 0.9096248149871826 0.30851036310195923
vn 0.8207734823226929 -7.208662822222323e-08 -0.5712539553642273
vn 0.6635226607322693 0.6873154044151306 -0.29552534222602844
vn 0.12064921110868454 -0.9511227011680603 0.28426992893218994
vn -0.2455306202173233 -0.6396483778953552 0.7283986806869507
vn -0.5154179334640503 -0.6839374899864197 0.5163078904151917
vn 0.05130799487233162 -0.9888985753059387 0.13945285975933075
vn -0.33177921175956726 3.217254018750282e-08 0.9433571696281433
vn 0.8448992967605591 -4.81065889346155e-08 -0.5349254012107849
vn 0.6204598546028137 -0.7391083836555481 -0.2621990740299225
vn 0.633285403251648 -0.7155119776725769 -0.2949444353580475
vn -0.09728239476680756 -0.48269131779670715 0.8703707456588745
vn 0.27821585536003113 -0.9096248745918274 0.3085101842880249
vn -0.17874076962471008 -1.5514733320287633e-07 0.9838961958885193
vn 0.6635226011276245 -0.6873154044151306 -0.2955254912376404
vn 0.5093105435371399 0.49403873085975647 0.7046477794647217
vn -0.12563766539096832 -0.9915567636489868 -0.03209920600056648
vn 0.5095038414001465 0.7781387567520142 -0.36729538440704346
vn 0.5095033645629883 -0.7781393527984619 -0.36729511618614197
vn 0.8522486686706543 3.177843055368612e-08 -0.5231369137763977
vn -0.8717679381370544 5.225616064308269e-07 0.4899190366268158
vn -0.7186755537986755 -0.5945938229560852 0.36050474643707275
vn -0.12563712894916534 0.9915568232536316 -0.03209942206740379
vn -0.7186753153800964 0.5945943593978882 0.36050447821617126
vn 0.1264379620552063 0.9914889931678772 0.03103320673108101
vn -0.5107694268226624 -0.7773094773292542 0.3672935664653778
vn -0.5107689499855042 0.7773098945617676 0.3672933280467987
vn -0.8524816632270813 3.978363949386221e-08 0.522757351398468
vn 0.8716219067573547 -4.452292046153161e-07 -0.49017903208732605
vn 0.7157211303710938 0.5991821885108948 -0.3587814271450043
vn 0.12643736600875854 -0.991489052772522 0.03103354573249817
vn 0.7157208323478699 -0.5991827249526978 -0.35878095030784607
vn 1.6335647501364292e-07 -7.306881144586441e-08 1.0
vn -0.07696208357810974 0.0069365049712359905 -0.9970099925994873
vn -0.05257854983210564 -0.9891542196273804 -0.1371481567621231
vn -0.12189566344022751 -0.9522854089736938 -0.27981093525886536
vn -0.12563766539096832 -0.9915567636489868 -0.03209920600056648
vn 0.24519459903240204 -0.640861451625824 -0.7274450063705444
vn -0.12189566344022751 -0.9522854089736938 -0.27981093525886536
vn 0.33106693625450134 -1.605463140208485e-08 -0.9436072707176208
vn -0.618719756603241 -0.7388885617256165 0.26688891649246216
vn -0.8426807522773743 -2.1310182063416505e-08 0.5384137630462646
vn -0.05257808789610863 0.9891541600227356 -0.13714875280857086
vn -0.12189549952745438 0.9522854089736938 -0.27981096506118774
vn -0.12563712894916534 0.9915568232536316 -0.03209942206740379
vn 0.24519465863704681 0.6408616900444031 -0.7274447679519653
vn -0.12189549952745438 0.9522854089736938 -0.27981096506118774
vn -0.618719756603241 0.7388885617256165 0.26688864827156067
vn -0.46209916472435 -0.5312008261680603 -0.7101338505744934
vn -0.46209916472435 -0.5312008261680603 -0.7101338505744934
vn -0.31177401542663574 -0.19223561882972717 -0.9305066466331482
vn -0.31177401542663574 -0.19223561882972717 -0.9305066466331482
vn -0.31177401542663574 -0.19223561882972717 -0.9305066466331482
vn -0.9605147242546082 -0.2733597755432129 0.05182603746652603
vn -0.9605147242546082 -0.2733597755432129 0.05182603746652603
vn -0.9605147242546082 -0.2733597755432129 0.05182603746652603
vn -0.704929769039154 -0.6180164813995361 -0.3480370044708252
vn -0.704929769039154 -0.6180164813995361 -0.3480370044708252
vn -0.704929769039154 -0.6180164813995361 -0.3480370044708252
vn -0.4620983600616455 0.5312014818191528 -0.7101338505744934
vn -0.4620983600616455 0.5312014818191528 -0.7101338505744934
vn -0.4620983600616455 0.5312014818191528 -0.7101338505744934
vn -0.3117736876010895 0.19223590195178986 -0.930506706237793
vn -0.3117736876010895 0.19223590195178986 -0.930506706237793
vn -0.3117736876010895 0.19223590195178986 -0.930506706237793
vn -0.9605145454406738 0.2733602523803711 0.05182656645774841
vn -0.9605145454406738 0.2733602523803711 0.05182656645774841
vn -0.9605145454406738 0.2733602523803711 0.05182656645774841
vn -0.704929530620575 0.6180174946784973 -0.3480355739593506
vn -0.704929530620575 0.6180174946784973 -0.3480355739593506
vn -0.704929530620575 0.6180174946784973 -0.3480355739593506
vn -0.24553057551383972 0.6396483182907104 0.7283987998962402
vn 0.12064935266971588 0.9511227607727051 0.2842699885368347
vn -0.33177921175956726 3.217254018750282e-08 0.9433571696281433
vn 0.620459794998169 0.7391083836555481 -0.2621992230415344
vn 0.8448992967605591 -4.81065889346155e-08 -0.5349254012107849
vn 0.05130799487233162 -0.9888985753059387 0.13945285975933075
vn 0.12064921110868454 -0.9511227011680603 0.28426992893218994
vn 0.12643736600875854 -0.991489052772522 0.03103354573249817
vn -0.2455306202173233 -0.6396483778953552 0.7283986806869507
vn 0.12064921110868454 -0.9511227011680603 0.28426992893218994
vn 0.6204598546028137 -0.7391083836555481 -0.2621990740299225
vn 0.5093105435371399 0.49403873085975647 0.7046477794647217
vn 0.5093105435371399 0.49403873085975647 0.7046477794647217
vn 0.373269647359848 0.18537770211696625 0.9090131521224976
vn 0.373269647359848 0.18537770211696625 0.9090131521224976
vn 0.373269647359848 0.18537770211696625 0.9090131521224976
vn 0.9707638621330261 0.23998476564884186 0.004981210455298424
vn 0.9707638621330261 0.23998476564884186 0.004981210455298424
vn 0.9707638621330261 0.23998476564884186 0.004981210455298424
vn 0.7413356304168701 0.5675058960914612 0.3582717776298523
vn 0.7413356304168701 0.5675058960914612 0.3582717776298523
vn 0.7413356304168701 0.5675058960914612 0.3582717776298523
vn 0.5093098878860474 -0.49403953552246094 0.7046477198600769
vn 0.5093098878860474 -0.49403953552246094 0.7046477198600769
vn 0.5093098878860474 -0.49403953552246094 0.7046477198600769
vn 0.37326937913894653 -0.18537794053554535 0.9090132117271423
vn 0.37326937913894653 -0.18537794053554535 0.9090132117271423
vn 0.37326937913894653 -0.18537794053554535 0.9090132117271423
vn 0.9707638025283813 -0.2399851530790329 0.004980820696800947
vn 0.9707638025283813 -0.2399851530790329 0.004980820696800947
vn 0.9707638025283813 -0.2399851530790329 0.004980820696800947
vn 0.7413350939750671 -0.5675069689750671 0.3582710027694702
vn 0.7413350939750671 -0.5675069689750671 0.3582710027694702
vn 0.7413350939750671 -0.5675069689750671 0.3582710027694702
vn 1.6335647501364292e-07 -7.306881144586441e-08 1.0
vn 1.6335647501364292e-07 -7.306881144586441e-08 1.0
vn 1.3869027793073953e-14 1.0130337813052392e-07 1.0
vn 1.3869027793073953e-14 1.0130337813052392e-07 1.0
vn -4.2002010758324104e-08 1.4613770815685712e-07 1.0
vn 2.6450846846159948e-08 -7.306882565671913e-08 1.0
vn -6.845282740641778e-08 1.7437227484151663e-07 1.0
vn -6.845299083124701e-08 -1.7437223220895248e-07 1.0
vn 2.318095226883088e-07 1.4613753762660053e-07 1.0
vn -0.07696208357810974 0.0069365049712359905 -0.9970099925994873
vn -0.07696208357810974 0.0069365049712359905 -0.9970099925994873
vn -0.0669538676738739 -0.0036565656773746014 -0.997749388217926
vn -0.0669538676738739 -0.0036565656773746014 -0.997749388217926
vn -0.0669538676738739 -0.0036565656773746014 -0.997749388217926
vn -0.0638078972697258 -0.006949076894670725 -0.9979380965232849
vn -0.0638078972697258 -0.006949076894670725 -0.9979380965232849
vn -0.0638078972697258 -0.006949076894670725 -0.9979380965232849
vn -0.06380779296159744 0.006948933005332947 -0.9979380369186401
vn -0.06380779296159744 0.006948933005332947 -0.9979380369186401
vn -0.06380779296159744 0.006948933005332947 -0.9979380369186401
vn -0.0669538751244545 0.0036563267931342125 -0.997749388217926
vn -0.0669538751244545 0.0036563267931342125 -0.997749388217926
vn -0.0669538751244545 0.0036563267931342125 -0.997749388217926
vn -0.08045172691345215 0.010575380176305771 -0.9967024326324463
vn -0.08045172691345215 0.010575380176305771 -0.9967024326324463
vn -0.08045172691345215 0.010575380176305771 -0.9967024326324463
vn -0.08045174926519394 -0.010575308464467525 -0.9967024922370911
vn -0.08045174926519394 -0.010575308464467525 -0.9967024922370911
vn -0.08045174926519394 -0.010575308464467525 -0.9967024922370911
vn -0.07696226984262466 -0.006936640478670597 -0.9970098733901978
vn -0.07696226984262466 -0.006936640478670597 -0.9970098733901978
vn -0.07696226984262466 -0.006936640478670597 -0.9970098733901978
f 170/170/170 171/171/171 172/172/172
f 167/167/167 168/168/168 169/169/169
f 164/164/164 165/165/165 166/166/166
f 161/161/161 162/162/162 163/163/163
f 158/158/158 159/159/159 160/160/160
f 155/155/155 156/156/156 157/157/157
f 152/152/152 153/153/153 154/154/154
f 150/150/150 151/151/151 69/69/69
f 149/149/149 148/148/148 68/68/68
f 148/148/148 147/147/147 68/68/68
f 147/147/147 141/141/141 68/68/68
f 146/146/146 143/143/143 68/68/68
f 142/142/142 146/146/146 68/68/68
f 144/144/144 145/145/145 68/68/68
f 143/143/143 144/144/144 68/68/68
f 141/141/141 142/142/142 68/68/68
f 138/138/138 139/139/139 140/140/140
f 135/135/135 136/136/136 137/137/137
f 132/132/132 133/133/133 134/134/134
f 129/129/129 130/130/130 131/131/131
f 126/126/126 127/127/127 128/128/128
f 123/123/123 124/124/124 125/125/125
f 120/120/120 121/121/121 122/122/122
f 118/118/118 51/51/51 119/119/119
f 48/48/48 116/116/116 117/117/117
f 117/117/117 50/50/50 48/48/48
f 37/37/37 50/50/50 117/117/117
f 117/117/117 111/111/111 37/37/37
f 47/47/47 49/49/49 109/109/109
f 109/109/109 115/115/115 47/47/47
f 48/48/48 47/47/47 115/115/115
f 115/115/115 116/116/116 48/48/48
f 46/46/46 112/112/112 114/114/114
f 114/114/114 67/67/67 46/46/46
f 32/32/32 46/46/46 67/67/67
f 67/67/67 64/64/64 32/32/32
f 41/41/41 31/31/31 63/63/63
f 63/63/63 61/61/61 41/41/41
f 42/42/42 41/41/41 61/61/61
f 61/61/61 66/66/66 42/42/42
f 45/45/45 113/113/113 112/112/112
f 112/112/112 46/46/46 45/45/45
f 44/44/44 45/45/45 46/46/46
f 46/46/46 32/32/32 44/44/44
f 40/40/40 43/43/43 31/31/31
f 31/31/31 41/41/41 40/40/40
f 39/39/39 40/40/40 41/41/41
f 41/41/41 42/42/42 39/39/39
f 36/36/36 38/38/38 110/110/110
f 110/110/110 108/108/108 36/36/36
f 37/37/37 111/111/111 110/110/110
f 110/110/110 38/38/38 37/37/37
f 35/35/35 107/107/107 109/109/109
f 109/109/109 49/49/49 35/35/35
f 36/36/36 108/108/108 107/107/107
f 107/107/107 35/35/35 36/36/36
f 34/34/34 65/65/65 60/60/60
f 60/60/60 30/30/30 34/34/34
f 32/32/32 64/64/64 65/65/65
f 65/65/65 34/34/34 32/32/32
f 29/29/29 62/62/62 63/63/63
f 63/63/63 31/31/31 29/29/29
f 30/30/30 60/60/60 62/62/62
f 62/62/62 29/29/29 30/30/30
f 33/33/33 34/34/34 30/30/30
f 30/30/30 27/27/27 33/33/33
f 44/44/44 32/32/32 34/34/34
f 34/34/34 33/33/33 44/44/44
f 28/28/28 29/29/29 31/31/31
f 31/31/31 43/43/43 28/28/28
f 27/27/27 30/30/30 29/29/29
f 29/29/29 28/28/28 27/27/27
f 104/104/104 105/105/105 106/106/106
f 101/101/101 102/102/102 103/103/103
f 98/98/98 99/99/99 100/100/100
f 95/95/95 96/96/96 97/97/97
f 92/92/92 93/93/93 94/94/94
f 89/89/89 90/90/90 91/91/91
f 86/86/86 87/87/87 88/88/88
f 84/84/84 85/85/85 26/26/26
f 22/22/22 25/25/25 83/83/83
f 83/83/83 82/82/82 22/22/22
f 24/24/24 77/77/77 83/83/83
f 83/83/83 25/25/25 24/24/24
f 21/21/21 81/81/81 75/75/75
f 75/75/75 23/23/23 21/21/21
f 22/22/22 82/82/82 81/81/81
f 81/81/81 21/21/21 22/22/22
f 20/20/20 59/59/59 80/80/80
f 80/80/80 78/78/78 20/20/20
f 6/6/6 56/56/56 59/59/59
f 59/59/59 20/20/20 6/6/6
f 15/15/15 53/53/53 55/55/55
f 55/55/55 5/5/5 15/15/15
f 16/16/16 58/58/58 53/53/53
f 53/53/53 15/15/15 16/16/16
f 19/19/19 20/20/20 78/78/78
f 78/78/78 79/79/79 19/19/19
f 18/18/18 6/6/6 20/20/20
f 20/20/20 19/19/19 18/18/18
f 14/14/14 15/15/15 5/5/5
f 5/5/5 17/17/17 14/14/14
f 13/13/13 16/16/16 15/15/15
f 15/15/15 14/14/14 13/13/13
f 10/10/10 74/74/74 76/76/76
f 76/76/76 12/12/12 10/10/10
f 11/11/11 12/12/12 76/76/76
f 76/76/76 77/77/77 11/11/11
f 9/9/9 23/23/23 75/75/75
f 75/75/75 73/73/73 9/9/9
f 10/10/10 9/9/9 73/73/73
f 73/73/73 74/74/74 10/10/10
f 8/8/8 70/70/70 72/72/72
f 72/72/72 57/57/57 8/8/8
f 6/6/6 8/8/8 57/57/57
f 57/57/57 56/56/56 6/6/6
f 3/3/3 5/5/5 55/55/55
f 55/55/55 54/54/54 3/3/3
f 4/4/4 3/3/3 54/54/54
f 54/54/54 52/52/52 4/4/4
f 7/7/7 71/71/71 70/70/70
f 70/70/70 8/8/8 7/7/7
f 18/18/18 7/7/7 8/8/8
f 8/8/8 6/6/6 18/18/18
f 2/2/2 17/17/17 5/5/5
f 5/5/5 3/3/3 2/2/2
f 1/1/1 2/2/2 3/3/3
f 3/3/3 4/4/4 1/1/1
