# Recovered local-space geometry; original node transforms not applied
o mesh_0
v 16.97149658203125 -16.235992431640625 59.73368835449219
v 28.637752532958984 -11.710821151733398 58.713016510009766
v 33.14570617675781 -2.282921559526585e-05 58.31863784790039
v 28.63775634765625 11.710798263549805 58.71299743652344
v 16.971506118774414 16.23599624633789 59.73368835449219
v 5.305265426635742 11.7108154296875 60.754364013671875
v 0.7972850799560547 1.8074938452627975e-06 61.148738861083984
v 5.30523681640625 -11.71080493927002 60.75434494018555
v 15.273370742797852 -23.36212921142578 30.599773406982422
v 32.52208709716797 -16.850799560546875 29.0906925201416
v 39.18714904785156 1.8074938452627975e-06 28.507583618164062
v 32.5220947265625 16.8508243560791 29.0906982421875
v 15.273387908935547 23.36214828491211 30.599773406982422
v -1.9753189086914062 16.850839614868164 32.10884094238281
v -8.64040756225586 1.823196726036258e-05 32.69194793701172
v -1.975351333618164 -16.850793838500977 32.10884094238281
v 4.995843887329102 -26.103450775146484 -0.045196533203125
v 25.093555450439453 18.828083038330078 -0.045196533203125
v 13.84099006652832 -7.1672773361206055 73.24939727783203
v 18.42884063720703 -4.76389217376709 73.42664337158203
v 19.792800903320312 -6.404743089660769e-06 73.68578338623047
v 18.42884063720703 4.763887882232666 73.42662048339844
v 13.840993881225586 7.167264461517334 73.2493896484375
v 8.556968688964844 5.39048957824707 73.39679718017578
v 6.421881198883057 1.8074938452627975e-06 73.49723815917969
v 8.556952476501465 -5.390485763549805 73.39678955078125
v -0.8566513061523438 1.8074938452627975e-06 87.97911834716797
v 1.2736568450927734 -6.136682510375977 87.75825500488281
v 7.547645568847656 -8.159422874450684 88.51222229003906
v 11.444774627685547 -5.423342704772949 92.53863525390625
v 12.0847749710083 -6.404743089660769e-06 94.62190246582031
v 11.444781303405762 5.423346519470215 92.53861236572266
v 7.547651290893555 8.159417152404785 88.5122299194336
v 1.2736625671386719 6.136694431304932 87.7582778930664
v 25.093551635742188 -18.82809829711914 -0.045196533203125
v 32.859493255615234 -3.218133315385785e-06 -0.045196533203125
v -22.867816925048828 1.3206342373450752e-05 -0.045196533203125
v -15.101886749267578 -18.828079223632812 -0.045192718505859375
v 4.995857238769531 26.10344696044922 -0.045196533203125
v -15.10186767578125 18.828096389770508 -0.045192718505859375
v 17.28263282775879 -21.84772300720215 62.15568542480469
v 32.72359085083008 -15.502449035644531 61.23965072631836
v 38.711246490478516 -2.4706152544240467e-05 60.86405563354492
v 32.723602294921875 15.50241756439209 61.23963928222656
v 17.282651901245117 21.84772300720215 62.15568923950195
v 1.488814353942871 15.878825187683105 63.10309982299805
v -4.897260665893555 5.0351800382486545e-06 63.390647888183594
v 1.4887809753417969 -15.878811836242676 63.10308074951172
v 15.551380157470703 -29.40631103515625 31.51896858215332
v 36.93522262573242 -21.086044311523438 29.293901443481445
v 45.30666732788086 3.586778802855406e-07 28.431005477905273
v 36.93523025512695 21.086069107055664 29.293907165527344
v 15.551400184631348 29.406330108642578 31.51896858215332
v -5.878293991088867 21.20449447631836 33.916290283203125
v -14.350746154785156 2.316154132131487e-05 34.893409729003906
v -5.878332138061523 -21.20444107055664 33.916290283203125
v 5.125979423522949 -32.2196044921875 -0.21870040893554688
v 29.170000076293945 23.085250854492188 -1.6924667358398438
v 14.446121215820312 -12.920402526855469 75.246826171875
v 22.547061920166016 -8.172280311584473 76.4061508178711
v 24.997997283935547 3.0260753192123957e-07 76.90433502197266
v 22.547056198120117 8.172281265258789 76.4061279296875
v 14.446133613586426 12.920388221740723 75.24681854248047
v 4.510434150695801 9.941739082336426 73.99761962890625
v 0.30265045166015625 1.1014962183253374e-05 73.4608383178711
v 4.510405540466309 -9.94172477722168 73.99761199951172
v -6.708989143371582 4.998914846510161e-07 89.76898956298828
v -3.2434349060058594 -9.926069259643555 89.39818572998047
v 7.223043441772461 -13.997557640075684 90.31903076171875
v 13.57876205444336 -9.081766128540039 96.95629119873047
v 14.184016227722168 -2.2781841835239902e-06 100.37039947509766
v 13.57878589630127 9.08177375793457 96.95626068115234
v 7.223057270050049 13.997552871704102 90.31903839111328
v -3.2434234619140625 9.926081657409668 89.39823150634766
v 29.16999626159668 -23.085269927978516 -1.6924629211425781
v 38.572837829589844 -3.262152404204244e-06 -2.2388381958007812
v -28.334430694580078 1.6863328710314818e-05 2.7062644958496094
v -18.969467163085938 -23.236846923828125 1.70379638671875
v 5.125997543334961 32.2196044921875 -0.21870803833007812
v -18.969446182250977 23.23686981201172 1.7037925720214844
v 4.9958415031433105 9.5367431640625e-07 -0.045196533203125
v 5.111433506011963 1.6689300537109375e-06 0.00658416748046875
v 28.637752532958984 -11.710821151733398 58.713016510009766
v 28.63775634765625 11.710798263549805 58.71299743652344
v 16.971506118774414 16.23599624633789 59.73368835449219
v 15.273387908935547 23.36214828491211 30.599773406982422
v 15.273370742797852 -23.36212921142578 30.599773406982422
v 16.97149658203125 -16.235992431640625 59.73368835449219
v 4.995857238769531 26.10344696044922 -0.045196533203125
v 4.995843887329102 -26.103450775146484 -0.045196533203125
v 28.637752532958984 -11.710821151733398 58.713016510009766
v 16.97149658203125 -16.235992431640625 59.73368835449219
v 33.14570617675781 -2.282921559526585e-05 58.31863784790039
v 28.63775634765625 11.710798263549805 58.71299743652344
v 19.792800903320312 -6.404743089660769e-06 73.68578338623047
v 33.14570617675781 -2.282921559526585e-05 58.31863784790039
v 16.971506118774414 16.23599624633789 59.73368835449219
v 5.305265426635742 11.7108154296875 60.754364013671875
v 0.7972850799560547 1.8074938452627975e-06 61.148738861083984
v 5.30523681640625 -11.71080493927002 60.75434494018555
v 6.421881198883057 1.8074938452627975e-06 73.49723815917969
v 0.7972850799560547 1.8074938452627975e-06 61.148738861083984
v 1.2736568450927734 -6.136682510375977 87.75825500488281
v 1.2736568450927734 -6.136682510375977 87.75825500488281
v 11.444774627685547 -5.423342704772949 92.53863525390625
v 12.0847749710083 -6.404743089660769e-06 94.62190246582031
v -0.8566513061523438 1.8074938452627975e-06 87.97911834716797
v -0.8566513061523438 1.8074938452627975e-06 87.97911834716797
v 12.0847749710083 -6.404743089660769e-06 94.62190246582031
v 11.444781303405762 5.423346519470215 92.53861236572266
v 11.444781303405762 5.423346519470215 92.53861236572266
v 1.2736625671386719 6.136694431304932 87.7582778930664
v 18.42884063720703 -4.76389217376709 73.42664337158203
v 11.444774627685547 -5.423342704772949 92.53863525390625
v 7.547645568847656 -8.159422874450684 88.51222229003906
v 7.547645568847656 -8.159422874450684 88.51222229003906
v 13.84099006652832 -7.1672773361206055 73.24939727783203
v 18.42884063720703 -4.76389217376709 73.42664337158203
v 19.792800903320312 -6.404743089660769e-06 73.68578338623047
v 12.0847749710083 -6.404743089660769e-06 94.62190246582031
v 11.444774627685547 -5.423342704772949 92.53863525390625
v 11.444774627685547 -5.423342704772949 92.53863525390625
v 18.42884063720703 -4.76389217376709 73.42664337158203
v 19.792800903320312 -6.404743089660769e-06 73.68578338623047
v 18.42884063720703 4.763887882232666 73.42662048339844
v 11.444781303405762 5.423346519470215 92.53861236572266
v 12.0847749710083 -6.404743089660769e-06 94.62190246582031
v 12.0847749710083 -6.404743089660769e-06 94.62190246582031
v 19.792800903320312 -6.404743089660769e-06 73.68578338623047
v 18.42884063720703 4.763887882232666 73.42662048339844
v 13.840993881225586 7.167264461517334 73.2493896484375
v 7.547651290893555 8.159417152404785 88.5122299194336
v 11.444781303405762 5.423346519470215 92.53861236572266
v 11.444781303405762 5.423346519470215 92.53861236572266
v 18.42884063720703 4.763887882232666 73.42662048339844
v 13.840993881225586 7.167264461517334 73.2493896484375
v 8.556968688964844 5.39048957824707 73.39679718017578
v 1.2736625671386719 6.136694431304932 87.7582778930664
v 7.547651290893555 8.159417152404785 88.5122299194336
v 7.547651290893555 8.159417152404785 88.5122299194336
v 13.840993881225586 7.167264461517334 73.2493896484375
v 8.556968688964844 5.39048957824707 73.39679718017578
v 6.421881198883057 1.8074938452627975e-06 73.49723815917969
v -0.8566513061523438 1.8074938452627975e-06 87.97911834716797
v 1.2736625671386719 6.136694431304932 87.7582778930664
v 1.2736625671386719 6.136694431304932 87.7582778930664
v 8.556968688964844 5.39048957824707 73.39679718017578
v 6.421881198883057 1.8074938452627975e-06 73.49723815917969
v 8.556952476501465 -5.390485763549805 73.39678955078125
v 1.2736568450927734 -6.136682510375977 87.75825500488281
v -0.8566513061523438 1.8074938452627975e-06 87.97911834716797
v -0.8566513061523438 1.8074938452627975e-06 87.97911834716797
v 6.421881198883057 1.8074938452627975e-06 73.49723815917969
v 8.556952476501465 -5.390485763549805 73.39678955078125
v 13.84099006652832 -7.1672773361206055 73.24939727783203
v 7.547645568847656 -8.159422874450684 88.51222229003906
v 1.2736568450927734 -6.136682510375977 87.75825500488281
v 1.2736568450927734 -6.136682510375977 87.75825500488281
v 8.556952476501465 -5.390485763549805 73.39678955078125
v 13.84099006652832 -7.1672773361206055 73.24939727783203
v 15.551400184631348 29.406330108642578 31.51896858215332
v 17.282651901245117 21.84772300720215 62.15568923950195
v 5.125997543334961 32.2196044921875 -0.21870803833007812
v 32.72359085083008 -15.502449035644531 61.23965072631836
v 38.711246490478516 -2.4706152544240467e-05 60.86405563354492
v 32.723602294921875 15.50241756439209 61.23963928222656
v 13.57876205444336 -9.081766128540039 96.95629119873047
v -3.2434349060058594 -9.926069259643555 89.39818572998047
v -3.2434349060058594 -9.926069259643555 89.39818572998047
v 14.184016227722168 -2.2781841835239902e-06 100.37039947509766
v 14.184016227722168 -2.2781841835239902e-06 100.37039947509766
v -6.708989143371582 4.998914846510161e-07 89.76898956298828
v -6.708989143371582 4.998914846510161e-07 89.76898956298828
v 13.57878589630127 9.08177375793457 96.95626068115234
v 13.57878589630127 9.08177375793457 96.95626068115234
v -3.2434234619140625 9.926081657409668 89.39823150634766
v 22.547061920166016 -8.172280311584473 76.4061508178711
v 14.446121215820312 -12.920402526855469 75.246826171875
v 7.223043441772461 -13.997557640075684 90.31903076171875
v 7.223043441772461 -13.997557640075684 90.31903076171875
v 13.57876205444336 -9.081766128540039 96.95629119873047
v 22.547061920166016 -8.172280311584473 76.4061508178711
v 24.997997283935547 3.0260753192123957e-07 76.90433502197266
v 22.547061920166016 -8.172280311584473 76.4061508178711
v 13.57876205444336 -9.081766128540039 96.95629119873047
v 13.57876205444336 -9.081766128540039 96.95629119873047
v 14.184016227722168 -2.2781841835239902e-06 100.37039947509766
v 24.997997283935547 3.0260753192123957e-07 76.90433502197266
v 22.547056198120117 8.172281265258789 76.4061279296875
v 24.997997283935547 3.0260753192123957e-07 76.90433502197266
v 14.184016227722168 -2.2781841835239902e-06 100.37039947509766
v 14.184016227722168 -2.2781841835239902e-06 100.37039947509766
v 13.57878589630127 9.08177375793457 96.95626068115234
v 22.547056198120117 8.172281265258789 76.4061279296875
v 14.446133613586426 12.920388221740723 75.24681854248047
v 22.547056198120117 8.172281265258789 76.4061279296875
v 13.57878589630127 9.08177375793457 96.95626068115234
v 13.57878589630127 9.08177375793457 96.95626068115234
v 7.223057270050049 13.997552871704102 90.31903839111328
v 14.446133613586426 12.920388221740723 75.24681854248047
v 4.510434150695801 9.941739082336426 73.99761962890625
v 14.446133613586426 12.920388221740723 75.24681854248047
v 7.223057270050049 13.997552871704102 90.31903839111328
v 7.223057270050049 13.997552871704102 90.31903839111328
v -3.2434234619140625 9.926081657409668 89.39823150634766
v 4.510434150695801 9.941739082336426 73.99761962890625
v 0.30265045166015625 1.1014962183253374e-05 73.4608383178711
v 4.510434150695801 9.941739082336426 73.99761962890625
v -3.2434234619140625 9.926081657409668 89.39823150634766
v -3.2434234619140625 9.926081657409668 89.39823150634766
v -6.708989143371582 4.998914846510161e-07 89.76898956298828
v 0.30265045166015625 1.1014962183253374e-05 73.4608383178711
v 4.510405540466309 -9.94172477722168 73.99761199951172
v 0.30265045166015625 1.1014962183253374e-05 73.4608383178711
v -6.708989143371582 4.998914846510161e-07 89.76898956298828
v -6.708989143371582 4.998914846510161e-07 89.76898956298828
v -3.2434349060058594 -9.926069259643555 89.39818572998047
v 4.510405540466309 -9.94172477722168 73.99761199951172
v 14.446121215820312 -12.920402526855469 75.246826171875
v 4.510405540466309 -9.94172477722168 73.99761199951172
v -3.2434349060058594 -9.926069259643555 89.39818572998047
v -3.2434349060058594 -9.926069259643555 89.39818572998047
v 7.223043441772461 -13.997557640075684 90.31903076171875
v 14.446121215820312 -12.920402526855469 75.246826171875
v 4.995843887329102 -26.103450775146484 -0.045196533203125
v -15.101886749267578 -18.828079223632812 -0.045192718505859375
v 25.093555450439453 18.828083038330078 -0.045196533203125
v 32.859493255615234 -3.218133315385785e-06 -0.045196533203125
v 4.995857238769531 26.10344696044922 -0.045196533203125
v 25.093551635742188 -18.82809829711914 -0.045196533203125
v -22.867816925048828 1.3206342373450752e-05 -0.045196533203125
v -15.10186767578125 18.828096389770508 -0.045192718505859375
v 4.995857238769531 26.10344696044922 -0.045196533203125
v -18.969467163085938 -23.236846923828125 1.70379638671875
v 5.125979423522949 -32.2196044921875 -0.21870040893554688
v 38.572837829589844 -3.262152404204244e-06 -2.2388381958007812
v 29.170000076293945 23.085250854492188 -1.6924667358398438
v 5.111433506011963 1.6689300537109375e-06 0.00658416748046875
v 29.170000076293945 23.085250854492188 -1.6924667358398438
v 5.125997543334961 32.2196044921875 -0.21870803833007812
v 5.111433506011963 1.6689300537109375e-06 0.00658416748046875
v 5.125979423522949 -32.2196044921875 -0.21870040893554688
v 29.16999626159668 -23.085269927978516 -1.6924629211425781
v 5.111433506011963 1.6689300537109375e-06 0.00658416748046875
v 29.16999626159668 -23.085269927978516 -1.6924629211425781
v 38.572837829589844 -3.262152404204244e-06 -2.2388381958007812
v 5.111433506011963 1.6689300537109375e-06 0.00658416748046875
v -28.334430694580078 1.6863328710314818e-05 2.7062644958496094
v -18.969467163085938 -23.236846923828125 1.70379638671875
v 5.111433506011963 1.6689300537109375e-06 0.00658416748046875
v -18.969446182250977 23.23686981201172 1.7037925720214844
v -28.334430694580078 1.6863328710314818e-05 2.7062644958496094
v 5.111433506011963 1.6689300537109375e-06 0.00658416748046875
v 5.125997543334961 32.2196044921875 -0.21870803833007812
v -18.969446182250977 23.23686981201172 1.7037925720214844
v 5.111433506011963 1.6689300537109375e-06 0.00658416748046875
vt 0.8768234252929688 0.0017802715301513672
vt 0.9072725772857666 0.0009119510650634766
vt 0.9369447231292725 0.004510402679443359
vt 0.967186450958252 0.00612187385559082
vt 0.9986718893051147 0.0017802715301513672
vt 0.9141474962234497 0.00713801383972168
vt 0.9365490674972534 0.008780479431152344
vt 0.9558595418930054 0.00713801383972168
vt 0.8889411687850952 0.030019760131835938
vt 0.9152307510375977 0.023853778839111328
vt 0.9369447231292725 0.02147120237350464
vt 0.9576365947723389 0.023853778839111328
vt 0.9885525703430176 0.030019760131835938
vt 0.9087612628936768 0.03795456886291504
vt 0.9365490674972534 0.040382981300354004
vt 0.9633496999740601 0.03795456886291504
vt 0.8914752006530762 0.06346046924591064
vt 0.9567655324935913 0.05461680889129639
vt 0.8928738832473755 0.018993854522705078
vt 0.891189455986023 0.018980979919433594
vt 0.8894057273864746 0.018992900848388672
vt 0.891189455986023 0.018980979919433594
vt 0.8894057273864746 0.018992900848388672
vt 0.891189455986023 0.018980979919433594
vt 0.8928738832473755 0.018993854522705078
vt 0.891189455986023 0.018980979919433594
vt 0.8958804607391357 0.01702284812927246
vt 0.8951907157897949 0.01702284812927246
vt 0.8969148397445679 0.01702296733856201
vt 0.8951907157897949 0.01702284812927246
vt 0.8958804607391357 0.01702284812927246
vt 0.8958804607391357 0.01702284812927246
vt 0.8951907157897949 0.01702284812927246
vt 0.8958804607391357 0.01702284812927246
vt 0.9159564971923828 0.05461680889129639
vt 0.9369447231292725 0.05119943618774414
vt 0.9365490674972534 0.07825052738189697
vt 0.9663732051849365 0.07476752996444702
vt 0.9864364862442017 0.06346040964126587
vt 0.9065871238708496 0.07476752996444702
vt 0.9400928616523743 0.07383066415786743
vt 0.9403836131095886 0.07378542423248291
vt 0.9406664967536926 0.07386022806167603
vt 0.9409549832344055 0.07387775182723999
vt 0.9412552714347839 0.07383066415786743
vt 0.939395010471344 0.07387584447860718
vt 0.9396331906318665 0.07389336824417114
vt 0.9398382306098938 0.07387584447860718
vt 0.940208375453949 0.07413679361343384
vt 0.9404591917991638 0.0740700364112854
vt 0.9406664967536926 0.07404416799545288
vt 0.9408639073371887 0.0740700364112854
vt 0.9411589503288269 0.07413679361343384
vt 0.939337432384491 0.07420367002487183
vt 0.9396331906318665 0.07422947883605957
vt 0.9399178624153137 0.07420367002487183
vt 0.9402328133583069 0.07449942827224731
vt 0.9408556818962097 0.07440346479415894
vt 0.9391685128211975 0.0740019679069519
vt 0.9391505122184753 0.07400184869766235
vt 0.9391315579414368 0.0740019679069519
vt 0.9391505122184753 0.07400184869766235
vt 0.9391315579414368 0.0740019679069519
vt 0.9391505122184753 0.07400184869766235
vt 0.9391685128211975 0.0740019679069519
vt 0.9391505122184753 0.07400184869766235
vt 0.9392003417015076 0.07398104667663574
vt 0.9391929507255554 0.07398104667663574
vt 0.9392113089561462 0.07398104667663574
vt 0.9391929507255554 0.07398104667663574
vt 0.9392003417015076 0.07398104667663574
vt 0.9392003417015076 0.07398104667663574
vt 0.9391929507255554 0.07398104667663574
vt 0.9392003417015076 0.07398104667663574
vt 0.9404661059379578 0.07440346479415894
vt 0.9406664967536926 0.07436639070510864
vt 0.9396331906318665 0.07463234663009644
vt 0.9399504065513611 0.07459527254104614
vt 0.9411386847496033 0.07449942827224731
vt 0.939314067363739 0.07459527254104614
vt 0.940238356590271 0.07488459348678589
vt 0.9401412606239319 0.07449930906295776
vt 0.9072725772857666 0.00612187385559082
vt 0.967186450958252 0.0009119510650634766
vt 0.8959032297134399 0.0028874874114990234
vt 0.8813717365264893 0.03167009353637695
vt 0.990658164024353 0.03167009353637695
vt 0.9797898530960083 0.0028874874114990234
vt 0.8783328533172607 0.06575381755828857
vt 0.9929307699203491 0.06575387716293335
vt 0.8911973237991333 0.021645784378051758
vt 0.8945378065109253 0.02164757251739502
vt 0.8878045082092285 0.021559298038482666
vt 0.8911973237991333 0.021645784378051758
vt 0.8928738832473755 0.018993854522705078
vt 0.8945378065109253 0.02164757251739502
vt 0.8878045082092285 0.021559298038482666
vt 0.8911973237991333 0.021645784378051758
vt 0.8945378065109253 0.02164757251739502
vt 0.8911973237991333 0.021645784378051758
vt 0.8894057273864746 0.018992900848388672
vt 0.8878045082092285 0.021559298038482666
vt 0.8951907157897949 0.01702284812927246
vt 0.8951907157897949 0.01702284812927246
vt 0.8951907157897949 0.01702284812927246
vt 0.8958804607391357 0.01702284812927246
vt 0.8958804607391357 0.01702284812927246
vt 0.8958804607391357 0.01702284812927246
vt 0.8958804607391357 0.01702284812927246
vt 0.8958804607391357 0.01702284812927246
vt 0.8958804607391357 0.01702284812927246
vt 0.8958804607391357 0.01702284812927246
vt 0.8960195779800415 0.019507288932800293
vt 0.8960164785385132 0.01706850528717041
vt 0.8968497514724731 0.01706850528717041
vt 0.8968497514724731 0.01706850528717041
vt 0.8966045379638672 0.01951134204864502
vt 0.8960195779800415 0.019507288932800293
vt 0.8954529762268066 0.01950228214263916
vt 0.8952168226242065 0.01706850528717041
vt 0.896018385887146 0.01706850528717041
vt 0.896018385887146 0.01706850528717041
vt 0.896021842956543 0.019506454467773438
vt 0.8954529762268066 0.01950228214263916
vt 0.8960195779800415 0.019507288932800293
vt 0.8960164785385132 0.01706850528717041
vt 0.8968497514724731 0.01706850528717041
vt 0.8968497514724731 0.01706850528717041
vt 0.8966045379638672 0.01951134204864502
vt 0.8960195779800415 0.019507288932800293
vt 0.8954529762268066 0.01950228214263916
vt 0.8952168226242065 0.01706850528717041
vt 0.896018385887146 0.01706850528717041
vt 0.896018385887146 0.01706850528717041
vt 0.896021842956543 0.019506454467773438
vt 0.8954529762268066 0.01950228214263916
vt 0.8960195779800415 0.019507288932800293
vt 0.8960164785385132 0.01706850528717041
vt 0.8968497514724731 0.01706850528717041
vt 0.8968497514724731 0.01706850528717041
vt 0.8966045379638672 0.01951134204864502
vt 0.8960195779800415 0.019507288932800293
vt 0.8954529762268066 0.01950228214263916
vt 0.8952168226242065 0.01706850528717041
vt 0.896018385887146 0.01706850528717041
vt 0.896018385887146 0.01706850528717041
vt 0.896021842956543 0.019506454467773438
vt 0.8954529762268066 0.01950228214263916
vt 0.8960195779800415 0.019507288932800293
vt 0.8960164785385132 0.01706850528717041
vt 0.8968497514724731 0.01706850528717041
vt 0.8968497514724731 0.01706850528717041
vt 0.8966045379638672 0.01951134204864502
vt 0.8960195779800415 0.019507288932800293
vt 0.8954529762268066 0.01950228214263916
vt 0.8952168226242065 0.01706850528717041
vt 0.896018385887146 0.01706850528717041
vt 0.896018385887146 0.01706850528717041
vt 0.896021842956543 0.019506454467773438
vt 0.8954529762268066 0.01950228214263916
vt 0.9390459656715393 0.07413679361343384
vt 0.9392004609107971 0.07383066415786743
vt 0.9390137791633606 0.07449942827224731
vt 0.9391505122184753 0.07403022050857544
vt 0.939114511013031 0.07402926683425903
vt 0.9391505122184753 0.07403022050857544
vt 0.9391929507255554 0.07398104667663574
vt 0.9391929507255554 0.07398104667663574
vt 0.9391929507255554 0.07398104667663574
vt 0.9392003417015076 0.07398104667663574
vt 0.9392003417015076 0.07398104667663574
vt 0.9392003417015076 0.07398104667663574
vt 0.9392003417015076 0.07398104667663574
vt 0.9392003417015076 0.07398104667663574
vt 0.9392003417015076 0.07398104667663574
vt 0.9392003417015076 0.07398104667663574
vt 0.9392018914222717 0.07400745153427124
vt 0.9392080903053284 0.07400745153427124
vt 0.9392107129096985 0.07398146390914917
vt 0.9392107129096985 0.07398146390914917
vt 0.9392018914222717 0.07398146390914917
vt 0.9392018914222717 0.07400745153427124
vt 0.9391958117485046 0.07400745153427124
vt 0.9392018914222717 0.07400745153427124
vt 0.9392018914222717 0.07398146390914917
vt 0.9392018914222717 0.07398146390914917
vt 0.9391934275627136 0.07398146390914917
vt 0.9391958117485046 0.07400745153427124
vt 0.9392018914222717 0.07400745153427124
vt 0.9392080903053284 0.07400745153427124
vt 0.9392107129096985 0.07398146390914917
vt 0.9392107129096985 0.07398146390914917
vt 0.9392018914222717 0.07398146390914917
vt 0.9392018914222717 0.07400745153427124
vt 0.9391958117485046 0.07400745153427124
vt 0.9392018914222717 0.07400745153427124
vt 0.9392018914222717 0.07398146390914917
vt 0.9392018914222717 0.07398146390914917
vt 0.9391934275627136 0.07398146390914917
vt 0.9391958117485046 0.07400745153427124
vt 0.9392018914222717 0.07400745153427124
vt 0.9392080903053284 0.07400745153427124
vt 0.9392107129096985 0.07398146390914917
vt 0.9392107129096985 0.07398146390914917
vt 0.9392018914222717 0.07398146390914917
vt 0.9392018914222717 0.07400745153427124
vt 0.9391958117485046 0.07400745153427124
vt 0.9392018914222717 0.07400745153427124
vt 0.9392018914222717 0.07398146390914917
vt 0.9392018914222717 0.07398146390914917
vt 0.9391934275627136 0.07398146390914917
vt 0.9391958117485046 0.07400745153427124
vt 0.9392018914222717 0.07400745153427124
vt 0.9392080903053284 0.07400745153427124
vt 0.9392107129096985 0.07398146390914917
vt 0.9392107129096985 0.07398146390914917
vt 0.9392018914222717 0.07398146390914917
vt 0.9392018914222717 0.07400745153427124
vt 0.9391958117485046 0.07400745153427124
vt 0.9392018914222717 0.07400745153427124
vt 0.9392018914222717 0.07398146390914917
vt 0.9392018914222717 0.07398146390914917
vt 0.9391934275627136 0.07398146390914917
vt 0.9391958117485046 0.07400745153427124
vt 0.9403283596038818 0.07488459348678589
vt 0.9400508403778076 0.07497888803482056
vt 0.9409408569335938 0.07479041814804077
vt 0.9407548904418945 0.07475394010543823
vt 0.9412189722061157 0.07488459348678589
vt 0.9405579566955566 0.07479041814804077
vt 0.9397389888763428 0.0750153660774231
vt 0.9394254684448242 0.07497888803482056
vt 0.9391298294067383 0.07488459348678589
vt 0.9399504065513611 0.07459527254104614
vt 0.9402328133583069 0.07449942827224731
vt 0.9406664967536926 0.07436639070510864
vt 0.9408556818962097 0.07440346479415894
vt 0.9401412606239319 0.07449930906295776
vt 0.9408556818962097 0.07440346479415894
vt 0.9411386847496033 0.07449942827224731
vt 0.9401412606239319 0.07449930906295776
vt 0.9402328133583069 0.07449942827224731
vt 0.9404661059379578 0.07440346479415894
vt 0.9401412606239319 0.07449930906295776
vt 0.9404661059379578 0.07440346479415894
vt 0.9406664967536926 0.07436639070510864
vt 0.9401412606239319 0.07449930906295776
vt 0.9396331906318665 0.07463234663009644
vt 0.9399504065513611 0.07459527254104614
vt 0.9401412606239319 0.07449930906295776
vt 0.939314067363739 0.07459527254104614
vt 0.9396331906318665 0.07463234663009644
vt 0.9401412606239319 0.07449930906295776
vt 0.9390137791633606 0.07449942827224731
vt 0.939314067363739 0.07459527254104614
vt 0.9401412606239319 0.07449930906295776
vn 0.09881983697414398 -0.9240928292274475 0.36917078495025635
vn 0.6636013388633728 -0.6098811626434326 0.43321850895881653
vn 0.8957508206367493 0.02012973092496395 0.444100558757782
vn 0.6365296244621277 0.6278877854347229 0.44786933064460754
vn 0.024487584829330444 0.9064655303955078 0.42156919836997986
vn -0.6372552514076233 0.6589294075965881 0.399647057056427
vn -0.9311496615409851 -0.002750560874119401 0.36462682485580444
vn -0.5908647775650024 -0.7038578391075134 0.39428794384002686
vn 0.011662336997687817 -0.9889305233955383 0.14792095124721527
vn 0.7034195065498352 -0.7101869583129883 0.02890709601342678
vn 0.9999392628669739 0.00465063052251935 -0.009991215541958809
vn 0.7003687024116516 0.711506187915802 0.056944988667964935
vn 0.01632942259311676 0.9837791919708252 0.17863892018795013
vn -0.6511788368225098 0.6920391321182251 0.3115251958370209
vn -0.9343672394752502 -0.0003015637048520148 0.3563113808631897
vn -0.6584201455116272 -0.6951013207435608 0.2886470556259155
vn -0.11507008969783783 -0.9853065013885498 0.12621481716632843
vn 0.7788913249969482 0.6075494289398193 -0.15560205280780792
vn 0.039903461933135986 -0.824361264705658 0.5646558403968811
vn 0.6329873204231262 -0.42742279171943665 0.6454741358757019
vn 0.7540812492370605 0.08937849849462509 0.6506713032722473
vn 0.5017484426498413 0.5994206666946411 0.6236533522605896
vn -0.06381833553314209 0.8374086022377014 0.5428388714790344
vn -0.7066207528114319 0.5440001487731934 0.45249417424201965
vn -0.902957558631897 -0.12049080431461334 0.41249221563339233
vn -0.6062175631523132 -0.6379702091217041 0.47486254572868347
vn -0.44858118891716003 -0.1871749460697174 0.87392258644104
vn -0.2910468876361847 -0.6365192532539368 0.7142373919487
vn -0.2910468876361847 -0.6365192532539368 0.7142373919487
vn -0.2910468876361847 -0.6365192532539368 0.7142373919487
vn -0.44858118891716003 -0.1871749460697174 0.87392258644104
vn -0.40882304310798645 0.17415887117385864 0.8958417177200317
vn -0.29104357957839966 0.6365195512771606 0.7142384052276611
vn -0.40882304310798645 0.17415887117385864 0.8958417177200317
vn 0.5761533379554749 -0.8118776679039001 -0.09435047954320908
vn 0.9676324129104614 -0.13023215532302856 -0.21616454422473907
vn -0.9100924730300903 0.12462776154279709 0.3952209949493408
vn -0.7371234893798828 -0.5855926871299744 0.3372391164302826
vn 0.12632523477077484 0.9907895922660828 0.048765938729047775
vn -0.5478226542472839 0.7908666729927063 0.2728007733821869
vn -0.1043873280286789 0.9219344854354858 -0.3730148673057556
vn -0.663434624671936 0.6111876368522644 -0.4316296875476837
vn -0.8975201845169067 -0.017547430470585823 -0.4406241178512573
vn -0.6391659379005432 -0.6277725100517273 -0.4442618191242218
vn -0.02482919953763485 -0.9051595330238342 -0.42434626817703247
vn 0.637301504611969 -0.651807963848114 -0.4110878109931946
vn 0.9225406050682068 0.006015123799443245 -0.385853111743927
vn 0.5896944403648376 0.6954759359359741 -0.41057729721069336
vn -0.01827712543308735 0.9889428019523621 -0.14716747403144836
vn -0.707539439201355 0.7060521841049194 -0.02963586151599884
vn -0.9999560117721558 -0.0042377617210149765 0.008378630504012108
vn -0.7042098045349121 -0.7077162265777588 -0.0568014495074749
vn -0.023419946432113647 -0.9836065769195557 -0.1788010150194168
vn 0.6484084129333496 -0.6947221755981445 -0.3113320767879486
vn 0.9343539476394653 -0.00010177552758250386 -0.35634633898735046
vn 0.6551044583320618 0.6986582279205322 -0.28760209679603577
vn 0.10925145447254181 0.9862453937530518 -0.12403298169374466
vn -0.7811535000801086 -0.6047166585922241 0.1552964150905609
vn -0.026389507576823235 0.8166553974151611 -0.5765219330787659
vn -0.631624698638916 0.4385662376880646 -0.6393042206764221
vn -0.7586161494255066 -0.09244292229413986 -0.6449463963508606
vn -0.4973684549331665 -0.6049430966377258 -0.621826708316803
vn 0.08244582265615463 -0.8249721527099609 -0.5591275691986084
vn 0.7012249231338501 -0.5217835903167725 -0.4858245551586151
vn 0.8846562504768372 0.12194942682981491 -0.4500131905078888
vn 0.6159576177597046 0.6072931885719299 -0.5017880201339722
vn 0.4444364607334137 0.18788906931877136 -0.8758846521377563
vn 0.3005179464817047 0.6059478521347046 -0.7365570068359375
vn 0.3005179464817047 0.6059478521347046 -0.7365570068359375
vn 0.3005179464817047 0.6059478521347046 -0.7365570068359375
vn 0.37775617837905884 0.30364981293678284 -0.874698281288147
vn 0.43280091881752014 -0.2918105721473694 -0.8529537916183472
vn 0.3005145788192749 -0.6059485673904419 -0.7365578413009644
vn 0.39650842547416687 -0.17211806774139404 -0.9017519950866699
vn -0.5827005505561829 0.8070278763771057 0.0957399383187294
vn -0.9679986834526062 0.13115213811397552 0.21395723521709442
vn 0.9098756909370422 -0.12733441591262817 -0.39485716819763184
vn 0.7334840297698975 0.5909560918807983 -0.33581551909446716
vn -0.13578397035598755 -0.9897209405899048 -0.04489047825336456
vn 0.5449877977371216 -0.7935048937797546 -0.27081039547920227
vn -1.8980736626872385e-07 -1.3869002382085535e-14 -1.0
vn 0.07696222513914108 -0.006936504505574703 0.9970098733901978
vn 0.6636013388633728 -0.6098811626434326 0.43321850895881653
vn 0.6365296244621277 0.6278877854347229 0.44786933064460754
vn 0.024487584829330444 0.9064655303955078 0.42156919836997986
vn 0.01632942259311676 0.9837791919708252 0.17863892018795013
vn 0.011662336997687817 -0.9889305233955383 0.14792095124721527
vn 0.09881983697414398 -0.9240928292274475 0.36917078495025635
vn 0.12632523477077484 0.9907895922660828 0.048765938729047775
vn -0.11507008969783783 -0.9853065013885498 0.12621481716632843
vn 0.6636013388633728 -0.6098811626434326 0.43321850895881653
vn 0.09881983697414398 -0.9240928292274475 0.36917078495025635
vn 0.8957508206367493 0.02012973092496395 0.444100558757782
vn 0.6365296244621277 0.6278877854347229 0.44786933064460754
vn 0.7540812492370605 0.08937849849462509 0.6506713032722473
vn 0.8957508206367493 0.02012973092496395 0.444100558757782
vn 0.024487584829330444 0.9064655303955078 0.42156919836997986
vn -0.6372552514076233 0.6589294075965881 0.399647057056427
vn -0.9311496615409851 -0.002750560874119401 0.36462682485580444
vn -0.5908647775650024 -0.7038578391075134 0.39428794384002686
vn -0.902957558631897 -0.12049080431461334 0.41249221563339233
vn -0.9311496615409851 -0.002750560874119401 0.36462682485580444
vn -0.44858118891716003 -0.1871749460697174 0.87392258644104
vn -0.3904159367084503 -0.28961795568466187 0.8738974928855896
vn -0.3904159367084503 -0.28961795568466187 0.8738974928855896
vn -0.3904159367084503 -0.28961795568466187 0.8738974928855896
vn -0.40882304310798645 0.17415887117385864 0.8958417177200317
vn -0.43883243203163147 0.2766219675540924 0.8549306392669678
vn -0.43883243203163147 0.2766219675540924 0.8549306392669678
vn -0.43883243203163147 0.2766219675540924 0.8549306392669678
vn -0.29104357957839966 0.6365195512771606 0.7142384052276611
vn -0.29104357957839966 0.6365195512771606 0.7142384052276611
vn 0.46740224957466125 -0.8727784752845764 0.1406872719526291
vn 0.46740224957466125 -0.8727784752845764 0.1406872719526291
vn 0.46740224957466125 -0.8727784752845764 0.1406872719526291
vn 0.4560813307762146 -0.8802680373191833 0.13083574175834656
vn 0.4560813307762146 -0.8802680373191833 0.13083574175834656
vn 0.4560813307762146 -0.8802680373191833 0.13083574175834656
vn 0.9117873311042786 -0.2365480363368988 0.3356916606426239
vn 0.9117873311042786 -0.2365480363368988 0.3356916606426239
vn 0.9117873311042786 -0.2365480363368988 0.3356916606426239
vn 0.9056010842323303 -0.27676713466644287 0.32138270139694214
vn 0.9056010842323303 -0.27676713466644287 0.32138270139694214
vn 0.9056010842323303 -0.27676713466644287 0.32138270139694214
vn 0.9158486127853394 0.2335416078567505 0.3266185224056244
vn 0.9158486127853394 0.2335416078567505 0.3266185224056244
vn 0.9158486127853394 0.2335416078567505 0.3266185224056244
vn 0.9018921852111816 0.2762865126132965 0.33204853534698486
vn 0.9018921852111816 0.2762865126132965 0.33204853534698486
vn 0.9018921852111816 0.2762865126132965 0.33204853534698486
vn 0.4702697992324829 0.871786892414093 0.1372368037700653
vn 0.4702697992324829 0.871786892414093 0.1372368037700653
vn 0.4702697992324829 0.871786892414093 0.1372368037700653
vn 0.45558884739875793 0.8797200322151184 0.13613027334213257
vn 0.45558884739875793 0.8797200322151184 0.13613027334213257
vn 0.45558884739875793 0.8797200322151184 0.13613027334213257
vn -0.2803232967853546 0.9407029747962952 -0.19104140996932983
vn -0.2803232967853546 0.9407029747962952 -0.19104140996932983
vn -0.2803232967853546 0.9407029747962952 -0.19104140996932983
vn -0.3176211416721344 0.9287128448486328 -0.1913355439901352
vn -0.3176211416721344 0.9287128448486328 -0.1913355439901352
vn -0.3176211416721344 0.9287128448486328 -0.1913355439901352
vn -0.8572153449058533 0.2820725440979004 -0.43083280324935913
vn -0.8572153449058533 0.2820725440979004 -0.43083280324935913
vn -0.8572153449058533 0.2820725440979004 -0.43083280324935913
vn -0.8370768427848816 0.3233299255371094 -0.4413163959980011
vn -0.8370768427848816 0.3233299255371094 -0.4413163959980011
vn -0.8370768427848816 0.3233299255371094 -0.4413163959980011
vn -0.8504713773727417 -0.2791901230812073 -0.4458155930042267
vn -0.8504713773727417 -0.2791901230812073 -0.4458155930042267
vn -0.8504713773727417 -0.2791901230812073 -0.4458155930042267
vn -0.8445056676864624 -0.3265835642814636 -0.4244450032711029
vn -0.8445056676864624 -0.3265835642814636 -0.4244450032711029
vn -0.8445056676864624 -0.3265835642814636 -0.4244450032711029
vn -0.2825431525707245 -0.9426372647285461 -0.17777669429779053
vn -0.2825431525707245 -0.9426372647285461 -0.17777669429779053
vn -0.2825431525707245 -0.9426372647285461 -0.17777669429779053
vn -0.31692296266555786 -0.9251833558082581 -0.2087957113981247
vn -0.31692296266555786 -0.9251833558082581 -0.2087957113981247
vn -0.31692296266555786 -0.9251833558082581 -0.2087957113981247
vn -0.023419946432113647 -0.9836065769195557 -0.1788010150194168
vn -0.02482919953763485 -0.9051595330238342 -0.42434626817703247
vn -0.13578397035598755 -0.9897209405899048 -0.04489047825336456
vn -0.663434624671936 0.6111876368522644 -0.4316296875476837
vn -0.8975201845169067 -0.017547430470585823 -0.4406241178512573
vn -0.6391659379005432 -0.6277725100517273 -0.4442618191242218
vn 0.37775617837905884 0.30364981293678284 -0.874698281288147
vn 0.37775617837905884 0.30364981293678284 -0.874698281288147
vn 0.4444364607334137 0.18788906931877136 -0.8758846521377563
vn 0.4444364607334137 0.18788906931877136 -0.8758846521377563
vn 0.43280091881752014 -0.2918105721473694 -0.8529537916183472
vn 0.43280091881752014 -0.2918105721473694 -0.8529537916183472
vn 0.39650842547416687 -0.17211806774139404 -0.9017519950866699
vn 0.39650842547416687 -0.17211806774139404 -0.9017519950866699
vn 0.3005145788192749 -0.6059485673904419 -0.7365578413009644
vn 0.3005145788192749 -0.6059485673904419 -0.7365578413009644
vn -0.4803388714790344 0.8607096076011658 -0.16868187487125397
vn -0.4803388714790344 0.8607096076011658 -0.16868187487125397
vn -0.4803388714790344 0.8607096076011658 -0.16868187487125397
vn -0.4832379221916199 0.8582448959350586 -0.17290692031383514
vn -0.4832379221916199 0.8582448959350586 -0.17290692031383514
vn -0.4832379221916199 0.8582448959350586 -0.17290692031383514
vn -0.8824643492698669 0.28735998272895813 -0.37239915132522583
vn -0.8824643492698669 0.28735998272895813 -0.37239915132522583
vn -0.8824643492698669 0.28735998272895813 -0.37239915132522583
vn -0.8873864412307739 0.21287217736244202 -0.40893861651420593
vn -0.8873864412307739 0.21287217736244202 -0.40893861651420593
vn -0.8873864412307739 0.21287217736244202 -0.40893861651420593
vn -0.8704032301902771 -0.2854948043823242 -0.4011121690273285
vn -0.8704032301902771 -0.2854948043823242 -0.4011121690273285
vn -0.8704032301902771 -0.2854948043823242 -0.4011121690273285
vn -0.9004682898521423 -0.20434091985225677 -0.38392922282218933
vn -0.9004682898521423 -0.20434091985225677 -0.38392922282218933
vn -0.9004682898521423 -0.20434091985225677 -0.38392922282218933
vn -0.4798245131969452 -0.8604758977890015 -0.17131760716438293
vn -0.4798245131969452 -0.8604758977890015 -0.17131760716438293
vn -0.4798245131969452 -0.8604758977890015 -0.17131760716438293
vn -0.48480224609375 -0.8577381372451782 -0.17103242874145508
vn -0.48480224609375 -0.8577381372451782 -0.17103242874145508
vn -0.48480224609375 -0.8577381372451782 -0.17103242874145508
vn 0.259588360786438 -0.94643235206604 0.19204139709472656
vn 0.259588360786438 -0.94643235206604 0.19204139709472656
vn 0.259588360786438 -0.94643235206604 0.19204139709472656
vn 0.3439236283302307 -0.9230694770812988 0.17221927642822266
vn 0.3439236283302307 -0.9230694770812988 0.17221927642822266
vn 0.3439236283302307 -0.9230694770812988 0.17221927642822266
vn 0.8287726640701294 -0.37328261137008667 0.41688868403434753
vn 0.8287726640701294 -0.37328261137008667 0.41688868403434753
vn 0.8287726640701294 -0.37328261137008667 0.41688868403434753
vn 0.8784798979759216 -0.2926023304462433 0.37769952416419983
vn 0.8784798979759216 -0.2926023304462433 0.37769952416419983
vn 0.8784798979759216 -0.2926023304462433 0.37769952416419983
vn 0.8499712944030762 0.37947407364845276 0.36544278264045715
vn 0.8499712944030762 0.37947407364845276 0.36544278264045715
vn 0.8499712944030762 0.37947407364845276 0.36544278264045715
vn 0.8567761182785034 0.283028244972229 0.4310796856880188
vn 0.8567761182785034 0.283028244972229 0.4310796856880188
vn 0.8567761182785034 0.283028244972229 0.4310796856880188
vn 0.26900890469551086 0.9537044167518616 0.1344704031944275
vn 0.26900890469551086 0.9537044167518616 0.1344704031944275
vn 0.26900890469551086 0.9537044167518616 0.1344704031944275
vn 0.3357820212841034 0.9143606424331665 0.2262633740901947
vn 0.3357820212841034 0.9143606424331665 0.2262633740901947
vn 0.3357820212841034 0.9143606424331665 0.2262633740901947
vn -1.8980736626872385e-07 -1.3869002382085535e-14 -1.0
vn -1.8980736626872385e-07 -1.3869002382085535e-14 -1.0
vn 0.0 0.0 -1.0
vn 0.0 0.0 -1.0
vn 0.0 0.0 -1.0
vn 0.0 0.0 -1.0
vn -8.909356813500274e-14 -2.026067136284837e-07 -1.0
vn 8.321412948899404e-14 2.0260674205019313e-07 -1.0
vn -1.8980746574470686e-07 1.1441935181440155e-13 -1.0
vn 0.07696222513914108 -0.006936504505574703 0.9970098733901978
vn 0.07696222513914108 -0.006936504505574703 0.9970098733901978
vn 0.06695381551980972 0.0036566234193742275 0.997749388217926
vn 0.06695381551980972 0.0036566234193742275 0.997749388217926
vn 0.06695381551980972 0.0036566234193742275 0.997749388217926
vn 0.06380783021450043 0.006949134636670351 0.9979380369186401
vn 0.06380783021450043 0.006949134636670351 0.9979380369186401
vn 0.06380783021450043 0.006949134636670351 0.9979380369186401
vn 0.06380786746740341 -0.006948933005332947 0.9979380369186401
vn 0.06380786746740341 -0.006948933005332947 0.9979380369186401
vn 0.06380786746740341 -0.006948933005332947 0.9979380369186401
vn 0.06695381551980972 -0.0036564671900123358 0.997749388217926
vn 0.06695381551980972 -0.0036564671900123358 0.997749388217926
vn 0.06695381551980972 -0.0036564671900123358 0.997749388217926
vn 0.08045173436403275 -0.010575215332210064 0.9967024326324463
vn 0.08045173436403275 -0.010575215332210064 0.9967024326324463
vn 0.08045173436403275 -0.010575215332210064 0.9967024326324463
vn 0.08045174926519394 0.010575310327112675 0.9967024922370911
vn 0.08045174926519394 0.010575310327112675 0.9967024922370911
vn 0.08045174926519394 0.010575310327112675 0.9967024922370911
vn 0.07696233689785004 0.006936699617654085 0.9970098733901978
vn 0.07696233689785004 0.006936699617654085 0.9970098733901978
vn 0.07696233689785004 0.006936699617654085 0.9970098733901978
f 254/254/254 255/255/255 256/256/256
f 251/251/251 252/252/252 253/253/253
f 248/248/248 249/249/249 250/250/250
f 245/245/245 246/246/246 247/247/247
f 242/242/242 243/243/243 244/244/244
f 239/239/239 240/240/240 241/241/241
f 236/236/236 237/237/237 238/238/238
f 234/234/234 235/235/235 82/82/82
f 232/232/232 233/233/233 81/81/81
f 231/231/231 232/232/232 81/81/81
f 226/226/226 231/231/231 81/81/81
f 228/228/228 230/230/230 81/81/81
f 230/230/230 225/225/225 81/81/81
f 229/229/229 227/227/227 81/81/81
f 227/227/227 228/228/228 81/81/81
f 225/225/225 226/226/226 81/81/81
f 222/222/222 223/223/223 224/224/224
f 219/219/219 220/220/220 221/221/221
f 216/216/216 217/217/217 218/218/218
f 213/213/213 214/214/214 215/215/215
f 210/210/210 211/211/211 212/212/212
f 207/207/207 208/208/208 209/209/209
f 204/204/204 205/205/205 206/206/206
f 201/201/201 202/202/202 203/203/203
f 198/198/198 199/199/199 200/200/200
f 195/195/195 196/196/196 197/197/197
f 192/192/192 193/193/193 194/194/194
f 189/189/189 190/190/190 191/191/191
f 186/186/186 187/187/187 188/188/188
f 183/183/183 184/184/184 185/185/185
f 180/180/180 181/181/181 182/182/182
f 177/177/177 178/178/178 179/179/179
f 175/175/175 176/176/176 73/73/73
f 173/173/173 74/74/74 174/174/174
f 72/72/72 171/171/171 172/172/172
f 169/169/169 67/67/67 170/170/170
f 71/71/71 167/167/167 168/168/168
f 70/70/70 69/69/69 68/68/68
f 59/59/59 41/41/41 48/48/48
f 48/48/48 66/66/66 59/59/59
f 65/65/65 66/66/66 48/48/48
f 48/48/48 47/47/47 65/65/65
f 64/64/64 65/65/65 47/47/47
f 47/47/47 46/46/46 64/64/64
f 63/63/63 64/64/64 46/46/46
f 46/46/46 162/162/162 63/63/63
f 62/62/62 63/63/63 162/162/162
f 162/162/162 166/166/166 62/62/62
f 61/61/61 62/62/62 166/166/166
f 166/166/166 165/165/165 61/61/61
f 60/60/60 61/61/61 165/165/165
f 165/165/165 164/164/164 60/60/60
f 59/59/59 60/60/60 164/164/164
f 164/164/164 41/41/41 59/59/59
f 56/56/56 49/49/49 57/57/57
f 57/57/57 78/78/78 56/56/56
f 55/55/55 56/56/56 78/78/78
f 78/78/78 77/77/77 55/55/55
f 54/54/54 55/55/55 77/77/77
f 77/77/77 80/80/80 54/54/54
f 161/161/161 54/54/54 80/80/80
f 80/80/80 163/163/163 161/161/161
f 52/52/52 53/53/53 79/79/79
f 79/79/79 58/58/58 52/52/52
f 51/51/51 52/52/52 58/58/58
f 58/58/58 76/76/76 51/51/51
f 50/50/50 51/51/51 76/76/76
f 76/76/76 75/75/75 50/50/50
f 49/49/49 50/50/50 75/75/75
f 75/75/75 57/57/57 49/49/49
f 48/48/48 41/41/41 49/49/49
f 49/49/49 56/56/56 48/48/48
f 47/47/47 48/48/48 56/56/56
f 56/56/56 55/55/55 47/47/47
f 46/46/46 47/47/47 55/55/55
f 55/55/55 54/54/54 46/46/46
f 162/162/162 46/46/46 54/54/54
f 54/54/54 161/161/161 162/162/162
f 44/44/44 45/45/45 53/53/53
f 53/53/53 52/52/52 44/44/44
f 43/43/43 44/44/44 52/52/52
f 52/52/52 51/51/51 43/43/43
f 42/42/42 43/43/43 51/51/51
f 51/51/51 50/50/50 42/42/42
f 41/41/41 42/42/42 50/50/50
f 50/50/50 49/49/49 41/41/41
f 158/158/158 159/159/159 160/160/160
f 155/155/155 156/156/156 157/157/157
f 152/152/152 153/153/153 154/154/154
f 149/149/149 150/150/150 151/151/151
f 146/146/146 147/147/147 148/148/148
f 143/143/143 144/144/144 145/145/145
f 140/140/140 141/141/141 142/142/142
f 137/137/137 138/138/138 139/139/139
f 134/134/134 135/135/135 136/136/136
f 131/131/131 132/132/132 133/133/133
f 128/128/128 129/129/129 130/130/130
f 125/125/125 126/126/126 127/127/127
f 122/122/122 123/123/123 124/124/124
f 119/119/119 120/120/120 121/121/121
f 116/116/116 117/117/117 118/118/118
f 113/113/113 114/114/114 115/115/115
f 111/111/111 33/33/33 112/112/112
f 108/108/108 109/109/109 110/110/110
f 32/32/32 34/34/34 107/107/107
f 104/104/104 105/105/105 106/106/106
f 31/31/31 27/27/27 103/103/103
f 30/30/30 28/28/28 29/29/29
f 19/19/19 26/26/26 100/100/100
f 100/100/100 92/92/92 19/19/19
f 101/101/101 102/102/102 100/100/100
f 100/100/100 26/26/26 101/101/101
f 24/24/24 98/98/98 99/99/99
f 99/99/99 25/25/25 24/24/24
f 23/23/23 97/97/97 98/98/98
f 98/98/98 24/24/24 23/23/23
f 22/22/22 94/94/94 97/97/97
f 97/97/97 23/23/23 22/22/22
f 95/95/95 96/96/96 94/94/94
f 94/94/94 22/22/22 95/95/95
f 20/20/20 91/91/91 93/93/93
f 93/93/93 21/21/21 20/20/20
f 19/19/19 92/92/92 91/91/91
f 91/91/91 20/20/20 19/19/19
f 16/16/16 38/38/38 90/90/90
f 90/90/90 87/87/87 16/16/16
f 15/15/15 37/37/37 38/38/38
f 38/38/38 16/16/16 15/15/15
f 14/14/14 40/40/40 37/37/37
f 37/37/37 15/15/15 14/14/14
f 86/86/86 89/89/89 40/40/40
f 40/40/40 14/14/14 86/86/86
f 12/12/12 18/18/18 39/39/39
f 39/39/39 13/13/13 12/12/12
f 11/11/11 36/36/36 18/18/18
f 18/18/18 12/12/12 11/11/11
f 10/10/10 35/35/35 36/36/36
f 36/36/36 11/11/11 10/10/10
f 9/9/9 17/17/17 35/35/35
f 35/35/35 10/10/10 9/9/9
f 8/8/8 16/16/16 87/87/87
f 87/87/87 88/88/88 8/8/8
f 7/7/7 15/15/15 16/16/16
f 16/16/16 8/8/8 7/7/7
f 6/6/6 14/14/14 15/15/15
f 15/15/15 7/7/7 6/6/6
f 85/85/85 86/86/86 14/14/14
f 14/14/14 6/6/6 85/85/85
f 84/84/84 12/12/12 13/13/13
f 13/13/13 5/5/5 84/84/84
f 3/3/3 11/11/11 12/12/12
f 12/12/12 4/4/4 3/3/3
f 83/83/83 10/10/10 11/11/11
f 11/11/11 3/3/3 83/83/83
f 1/1/1 9/9/9 10/10/10
f 10/10/10 2/2/2 1/1/1
