# Recovered local-space geometry; original node transforms not applied
o mesh_0
v 16.357038497924805 -14.87590503692627 57.78648376464844
v 26.960346221923828 -10.612862586975098 56.923892974853516
v 31.135623931884766 -1.5079975128173828e-05 56.59721755981445
v 26.960350036621094 10.612847328186035 56.92388153076172
v 16.3570499420166 14.875906944274902 57.78648376464844
v 5.687313079833984 10.671605110168457 58.68006134033203
v 1.4408965110778809 4.678964614868164e-06 59.039894104003906
v 5.687292098999023 -10.671594619750977 58.6800537109375
v 29.811227798461914 -15.193352699279785 29.248092651367188
v 36.007755279541016 2.980232238769531e-07 28.78652572631836
v 29.811233520507812 15.193363189697266 29.24809455871582
v -1.409317970275879 15.193376541137695 31.57368278503418
v -7.605861663818359 1.6510486602783203e-05 32.035247802734375
v -1.4093427658081055 -15.193343162536621 31.573680877685547
v 18.366966247558594 -5.3391289710998535 73.96353912353516
v 20.081796646118164 -7.033348083496094e-06 74.2805404663086
v 18.36697006225586 5.339121341705322 73.9635238647461
v 7.7118988037109375 5.7584638595581055 73.61271667480469
v 5.416764259338379 2.086162567138672e-06 73.7258529663086
v 7.711885452270508 -5.758460998535156 73.61270904541016
v 10.743029594421387 -5.052199840545654 89.40347290039062
v 11.334549903869629 -3.546476364135742e-06 90.7689208984375
v 3.829864501953125 5.445326805114746 86.6379623413086
v 4.998493671417236 0.040950775146484375 0.5894584655761719
v 6.365107536315918 -5.255795478820801 90.15609741210938
v 5.800351142883301 -7.320797976717586e-07 91.01248931884766
v 6.3651123046875 5.255800724029541 90.15609741210938
v 4.998492240905762 -13.973506927490234 0.5894584655761719
v 15.680887222290039 10.061260223388672 0.584747314453125
v -5.683887481689453 10.061283111572266 0.5941696166992188
v -9.941925048828125 0.04096221923828125 0.5960464477539062
v -5.683904647827148 -9.979373931884766 0.5941696166992188
v 15.68088150024414 -9.979381561279297 0.584747314453125
v 19.93891143798828 0.04094696044921875 0.5828704833984375
v 4.998503684997559 14.055400848388672 0.5894584655761719
v 4.40235710144043 -23.64801025390625 0.5896186828613281
v 22.188756942749023 16.928287506103516 0.5821304321289062
v 22.188749313354492 -16.928298950195312 0.5821304321289062
v 29.24908447265625 1.7920974642038345e-06 0.5791587829589844
v -20.44437026977539 2.485141158103943e-05 0.6000823974609375
v -13.384040832519531 -16.928272247314453 0.59710693359375
v 4.40237283706665 23.648014068603516 0.5896186828613281
v -13.384014129638672 16.928316116333008 0.59710693359375
v 14.200944900512695 -21.224384307861328 30.410890579223633
v 14.200961112976074 21.224403381347656 30.410888671875
v 13.343229293823242 -7.817224979400635 73.54935455322266
v 13.34323501586914 7.8172173500061035 73.54934692382812
v 8.508676528930664 -6.985630035400391 85.7052230834961
v 10.743035316467285 5.052200794219971 89.4034652709961
v 8.508684158325195 6.985628128051758 85.7052230834961
v 2.1169981956481934 1.8328428268432617e-06 86.88957977294922
v 3.8298587799072266 -5.4453206062316895 86.63795471191406
v 16.3570499420166 14.875906944274902 57.78648376464844
v 14.200961112976074 21.224403381347656 30.410888671875
v 14.200944900512695 -21.224384307861328 30.410890579223633
v 16.357038497924805 -14.87590503692627 57.78648376464844
v 4.40237283706665 23.648014068603516 0.5896186828613281
v 4.40235710144043 -23.64801025390625 0.5896186828613281
v 13.34323501586914 7.8172173500061035 73.54934692382812
v 13.343229293823242 -7.817224979400635 73.54935455322266
v 10.743029594421387 -5.052199840545654 89.40347290039062
v 8.508676528930664 -6.985630035400391 85.7052230834961
v 11.334549903869629 -3.546476364135742e-06 90.7689208984375
v 10.743035316467285 5.052200794219971 89.4034652709961
v 8.508684158325195 6.985628128051758 85.7052230834961
v 3.829864501953125 5.445326805114746 86.6379623413086
v 8.508684158325195 6.985628128051758 85.7052230834961
v 2.1169981956481934 1.8328428268432617e-06 86.88957977294922
v 3.8298587799072266 -5.4453206062316895 86.63795471191406
v 8.508676528930664 -6.985630035400391 85.7052230834961
v 4.40235710144043 -23.64801025390625 0.5896186828613281
v 22.188749313354492 -16.928298950195312 0.5821304321289062
v 4.40237283706665 23.648014068603516 0.5896186828613281
v -13.384014129638672 16.928316116333008 0.59710693359375
v -20.44437026977539 2.485141158103943e-05 0.6000823974609375
v -13.384040832519531 -16.928272247314453 0.59710693359375
v 29.24908447265625 1.7920974642038345e-06 0.5791587829589844
v 22.188756942749023 16.928287506103516 0.5821304321289062
vt 0.1391938328742981 0.2950618863105774
vt 0.14932842552661896 0.29847252368927
vt 0.15984037518501282 0.29926055669784546
vt 0.17032958567142487 0.2984846830368042
vt 0.1805073767900467 0.29505354166030884
vt 0.14932842552661896 0.29847252368927
vt 0.15984037518501282 0.29926055669784546
vt 0.17032958567142487 0.2984846830368042
vt 0.1448039710521698 0.3310473561286926
vt 0.15990473330020905 0.332935094833374
vt 0.17500333487987518 0.33101731538772583
vt 0.1448039710521698 0.3310473561286926
vt 0.15990473330020905 0.332935094833374
vt 0.17500333487987518 0.33101731538772583
vt 0.15359994769096375 0.2804949879646301
vt 0.15987035632133484 0.28069430589675903
vt 0.16614055633544922 0.2804921269416809
vt 0.15359994769096375 0.2804949879646301
vt 0.15987035632133484 0.28069430589675903
vt 0.16614055633544922 0.2804921269416809
vt 0.1295652687549591 0.25707656145095825
vt 0.1278904229402542 0.26568108797073364
vt 0.14224500954151154 0.2749609351158142
vt 0.31318697333335876 0.3787471055984497
vt 0.13579821586608887 0.25896310806274414
vt 0.13629239797592163 0.2658349275588989
vt 0.13632184267044067 0.27271389961242676
vt 0.2919815480709076 0.437524676322937
vt 0.3351587951183319 0.437527060508728
vt 0.3351587951183319 0.437527060508728
vt 0.2920165956020355 0.437524676322937
vt 0.3351587951183319 0.437527060508728
vt 0.3351587951183319 0.437527060508728
vt 0.2920165956020355 0.437524676322937
vt 0.2919815480709076 0.437524676322937
vt 0.12708067893981934 0.36186307668685913
vt 0.17642390727996826 0.36973142623901367
vt 0.14341555535793304 0.3697618246078491
vt 0.15992134809494019 0.3726612329483032
vt 0.15992134809494019 0.3726612329483032
vt 0.17642390727996826 0.36973142623901367
vt 0.19275057315826416 0.3618047833442688
vt 0.14341555535793304 0.3697618246078491
vt 0.12999050319194794 0.32539039850234985
vt 0.18980686366558075 0.32532840967178345
vt 0.14802342653274536 0.2796730399131775
vt 0.1717144101858139 0.2796732783317566
vt 0.13578662276268005 0.2513066530227661
vt 0.12984392046928406 0.27395302057266235
vt 0.13510538637638092 0.28025150299072266
vt 0.14465686678886414 0.26601558923721313
vt 0.1420217603445053 0.2573385238647461
vt 0.1391938328742981 0.2950618863105774
vt 0.12999050319194794 0.32539039850234985
vt 0.18980686366558075 0.32532840967178345
vt 0.1805073767900467 0.29505354166030884
vt 0.12708067893981934 0.36186307668685913
vt 0.19275057315826416 0.3618047833442688
vt 0.14802342653274536 0.2796730399131775
vt 0.1717144101858139 0.2796732783317566
vt 0.1555553823709488 0.26467812061309814
vt 0.151443213224411 0.2644810080528259
vt 0.15987375378608704 0.2645987868309021
vt 0.16419334709644318 0.2646750807762146
vt 0.16839471459388733 0.26465684175491333
vt 0.1555553823709488 0.26467812061309814
vt 0.151443213224411 0.2644810080528259
vt 0.15987375378608704 0.2645987868309021
vt 0.16419334709644318 0.2646750807762146
vt 0.16839471459388733 0.26465684175491333
vt 0.2711349427700043 0.4969235062599182
vt 0.3547603189945221 0.4969233274459839
vt 0.2711349427700043 0.4969235062599182
vt 0.3547603189945221 0.4969233274459839
vt 0.27113643288612366 0.4969235062599182
vt 0.3547603189945221 0.4969233274459839
vt 0.27113643288612366 0.4969235062599182
vt 0.3547603189945221 0.4969233274459839
vn 0.09736959636211395 -0.9318351745605469 0.34957483410835266
vn 0.7128908038139343 -0.6175455451011658 0.33230140805244446
vn 0.927078127861023 0.11808627843856812 0.3557833135128021
vn 0.5775148272514343 0.7411922216415405 0.342214435338974
vn -0.053248338401317596 0.9503136873245239 0.3067062199115753
vn -0.7033829092979431 0.6410398483276367 0.3071163296699524
vn -0.949292004108429 -0.1299753338098526 0.28627103567123413
vn -0.555509626865387 -0.7748899459838867 0.30158689618110657
vn 0.7575944066047668 -0.6521221399307251 -0.028061533346772194
vn 0.9994978904724121 0.003367331577464938 -0.03150646388530731
vn 0.7006317377090454 0.7125094532966614 0.03801882639527321
vn -0.6551352739334106 0.6932752132415771 0.30027857422828674
vn -0.937559962272644 0.00033947694464586675 0.347823828458786
vn -0.66096431016922 -0.6957613229751587 0.2811447083950043
vn 0.5751267671585083 -0.7131837010383606 0.40074706077575684
vn 0.8651766180992126 -0.09174700826406479 0.49300292134284973
vn 0.735399603843689 0.5016943216323853 0.4555109441280365
vn -0.624468207359314 0.780116081237793 0.03818833827972412
vn -0.9930418729782104 0.11775179207324982 0.0015342646511271596
vn -0.8020079135894775 -0.5955476760864258 0.04589421674609184
vn 0.5593859553337097 -0.6022343635559082 0.5695621967315674
vn 0.5566407442092896 0.024766908958554268 0.8303840756416321
vn -0.7867240905761719 0.5906266570091248 0.1795147955417633
vn -0.000440985313616693 2.206641952495758e-10 -1.0
vn -0.17793354392051697 -0.6038997769355774 0.7769457697868347
vn -0.45747750997543335 0.041193317621946335 0.8882665634155273
vn -0.24149540066719055 0.6801517605781555 0.6921514272689819
vn -0.0004336484707891941 1.3339107681531459e-05 -1.0
vn -0.0004238509282004088 1.0103620297741145e-05 -1.0
vn -0.00042521694558672607 -1.1962461940129288e-05 -1.0
vn -0.0004096539632882923 -1.96588848666579e-06 -0.9999999403953552
vn -0.0004164633865002543 1.6532991139683872e-05 -0.9999999403953552
vn -0.0004314604739192873 -2.6872514808928827e-06 -1.0
vn -0.00041867673280648887 -5.25558675690263e-07 -0.9999999403953552
vn -0.0004349321825429797 1.4154220480122603e-06 -1.0
vn -0.11934517323970795 -0.9857878088951111 0.11823415756225586
vn 0.7765089273452759 0.6069067120552063 -0.16940516233444214
vn 0.5801166296005249 -0.8075586557388306 -0.10636598616838455
vn 0.9637063145637512 -0.13339397311210632 -0.23124928772449493
vn -0.9179326891899109 0.128465935587883 0.37536129355430603
vn -0.742800235748291 -0.5882929563522339 0.31962376832962036
vn 0.12926727533340454 0.9908415675163269 0.03902548551559448
vn -0.5566385984420776 0.7888655662536621 0.26047003269195557
vn 0.06775398552417755 -0.9868756532669067 0.14658047258853912
vn 0.01417151652276516 0.9856895804405212 0.16797442734241486
vn -0.09500924497842789 -0.9717607498168945 0.21599604189395905
vn 0.08837256580591202 0.9504944682121277 0.2979103922843933
vn 0.07502319663763046 -0.972905695438385 0.21869172155857086
vn 0.401226282119751 0.6555153131484985 0.6397790908813477
vn -0.08839048445224762 0.9841918349266052 0.1534716933965683
vn -0.9878440499305725 -0.08289498090744019 0.1315019130706787
vn -0.674376368522644 -0.7076590657234192 0.21079647541046143
vn -0.053248338401317596 0.9503136873245239 0.3067062199115753
vn 0.01417151652276516 0.9856895804405212 0.16797442734241486
vn 0.06775398552417755 -0.9868756532669067 0.14658047258853912
vn 0.09736959636211395 -0.9318351745605469 0.34957483410835266
vn 0.12926727533340454 0.9908415675163269 0.03902548551559448
vn -0.11934517323970795 -0.9857878088951111 0.11823415756225586
vn 0.08837256580591202 0.9504944682121277 0.2979103922843933
vn -0.09500924497842789 -0.9717607498168945 0.21599604189395905
vn 0.5593859553337097 -0.6022343635559082 0.5695621967315674
vn 0.07502319663763046 -0.972905695438385 0.21869172155857086
vn 0.5566407442092896 0.024766908958554268 0.8303840756416321
vn 0.401226282119751 0.6555153131484985 0.6397790908813477
vn -0.08839048445224762 0.9841918349266052 0.1534716933965683
vn -0.7867240905761719 0.5906266570091248 0.1795147955417633
vn -0.08839048445224762 0.9841918349266052 0.1534716933965683
vn -0.9878440499305725 -0.08289498090744019 0.1315019130706787
vn -0.674376368522644 -0.7076590657234192 0.21079647541046143
vn 0.07502319663763046 -0.972905695438385 0.21869172155857086
vn -0.0004262332513462752 2.319619397894712e-06 -1.0
vn -0.0004096536722499877 -1.120903471019119e-05 -0.9999999403953552
vn -0.00042367386049591005 -1.7099868273362517e-05 -1.0
vn -0.0003970770922023803 -2.164787110814359e-05 -0.9999999403953552
vn -0.00038699989090673625 6.852948445157381e-06 -0.9999999403953552
vn -0.0004111708840355277 2.2647564037470147e-05 -0.9999999403953552
vn -0.00040171845466829836 4.704576440417441e-06 -0.9999999403953552
vn -0.00042112055234611034 7.659447874175385e-06 -0.9999999403953552
f 50/50/50 23/23/23 27/27/27
f 29/29/29 24/24/24 35/35/35
f 35/35/35 73/73/73 78/78/78
f 78/78/78 29/29/29 35/35/35
f 34/34/34 24/24/24 29/29/29
f 29/29/29 78/78/78 77/77/77
f 77/77/77 34/34/34 29/29/29
f 33/33/33 24/24/24 34/34/34
f 34/34/34 77/77/77 72/72/72
f 72/72/72 33/33/33 34/34/34
f 32/32/32 24/24/24 28/28/28
f 28/28/28 71/71/71 76/76/76
f 76/76/76 32/32/32 28/28/28
f 31/31/31 24/24/24 32/32/32
f 32/32/32 76/76/76 75/75/75
f 75/75/75 31/31/31 32/32/32
f 30/30/30 24/24/24 31/31/31
f 31/31/31 75/75/75 74/74/74
f 74/74/74 30/30/30 31/31/31
f 35/35/35 24/24/24 30/30/30
f 30/30/30 74/74/74 73/73/73
f 73/73/73 35/35/35 30/30/30
f 28/28/28 24/24/24 33/33/33
f 33/33/33 72/72/72 71/71/71
f 71/71/71 28/28/28 33/33/33
f 69/69/69 20/20/20 60/60/60
f 60/60/60 70/70/70 69/69/69
f 68/68/68 19/19/19 20/20/20
f 20/20/20 69/69/69 68/68/68
f 66/66/66 18/18/18 19/19/19
f 19/19/19 68/68/68 66/66/66
f 67/67/67 59/59/59 18/18/18
f 18/18/18 66/66/66 67/67/67
f 64/64/64 17/17/17 47/47/47
f 47/47/47 65/65/65 64/64/64
f 63/63/63 16/16/16 17/17/17
f 17/17/17 64/64/64 63/63/63
f 61/61/61 15/15/15 16/16/16
f 16/16/16 63/63/63 61/61/61
f 62/62/62 46/46/46 15/15/15
f 15/15/15 61/61/61 62/62/62
f 49/49/49 50/50/50 27/27/27
f 26/26/26 27/27/27 23/23/23
f 23/23/23 51/51/51 26/26/26
f 26/26/26 22/22/22 49/49/49
f 49/49/49 27/27/27 26/26/26
f 52/52/52 25/25/25 26/26/26
f 26/26/26 51/51/51 52/52/52
f 25/25/25 21/21/21 22/22/22
f 22/22/22 26/26/26 25/25/25
f 25/25/25 52/52/52 48/48/48
f 21/21/21 25/25/25 48/48/48
f 8/8/8 56/56/56 60/60/60
f 60/60/60 20/20/20 8/8/8
f 7/7/7 8/8/8 20/20/20
f 20/20/20 19/19/19 7/7/7
f 6/6/6 7/7/7 19/19/19
f 19/19/19 18/18/18 6/6/6
f 6/6/6 18/18/18 59/59/59
f 59/59/59 53/53/53 6/6/6
f 4/4/4 5/5/5 47/47/47
f 47/47/47 17/17/17 4/4/4
f 3/3/3 4/4/4 17/17/17
f 17/17/17 16/16/16 3/3/3
f 2/2/2 3/3/3 16/16/16
f 16/16/16 15/15/15 2/2/2
f 1/1/1 2/2/2 15/15/15
f 15/15/15 46/46/46 1/1/1
f 58/58/58 55/55/55 14/14/14
f 14/14/14 41/41/41 58/58/58
f 41/41/41 14/14/14 13/13/13
f 13/13/13 40/40/40 41/41/41
f 40/40/40 13/13/13 12/12/12
f 12/12/12 43/43/43 40/40/40
f 43/43/43 12/12/12 54/54/54
f 54/54/54 57/57/57 43/43/43
f 42/42/42 45/45/45 11/11/11
f 11/11/11 37/37/37 42/42/42
f 37/37/37 11/11/11 10/10/10
f 10/10/10 39/39/39 37/37/37
f 39/39/39 10/10/10 9/9/9
f 9/9/9 38/38/38 39/39/39
f 38/38/38 9/9/9 44/44/44
f 44/44/44 36/36/36 38/38/38
f 55/55/55 56/56/56 8/8/8
f 8/8/8 14/14/14 55/55/55
f 14/14/14 8/8/8 7/7/7
f 7/7/7 13/13/13 14/14/14
f 13/13/13 7/7/7 6/6/6
f 6/6/6 12/12/12 13/13/13
f 12/12/12 6/6/6 53/53/53
f 53/53/53 54/54/54 12/12/12
f 45/45/45 5/5/5 4/4/4
f 4/4/4 11/11/11 45/45/45
f 11/11/11 4/4/4 3/3/3
f 3/3/3 10/10/10 11/11/11
f 10/10/10 3/3/3 2/2/2
f 2/2/2 9/9/9 10/10/10
f 2/2/2 1/1/1 44/44/44
f 44/44/44 9/9/9 2/2/2
