# Recovered local-space geometry; original node transforms not applied
o mesh_0
v 16.357038497924805 -14.87590503692627 57.78648376464844
v 26.960346221923828 -10.612862586975098 56.923892974853516
v 31.135623931884766 -1.5079975128173828e-05 56.59721755981445
v 26.960350036621094 10.612847328186035 56.92388153076172
v 16.3570499420166 14.875906944274902 57.78648376464844
v 5.687313079833984 10.671605110168457 58.68006134033203
v 1.4408965110778809 4.678964614868164e-06 59.039894104003906
v 5.687292098999023 -10.671594619750977 58.6800537109375
v 29.811227798461914 -15.193352699279785 29.248092651367188
v 36.007755279541016 2.980232238769531e-07 28.78652572631836
v 29.811233520507812 15.193363189697266 29.24809455871582
v -1.409317970275879 15.193376541137695 31.57368278503418
v -7.605861663818359 1.6510486602783203e-05 32.035247802734375
v -1.4093427658081055 -15.193343162536621 31.573680877685547
v 18.366966247558594 -5.3391289710998535 73.96353912353516
v 20.081796646118164 -7.033348083496094e-06 74.2805404663086
v 18.36697006225586 5.339121341705322 73.9635238647461
v 7.7118988037109375 5.7584638595581055 73.61271667480469
v 5.416764259338379 2.086162567138672e-06 73.7258529663086
v 7.711885452270508 -5.758460998535156 73.61270904541016
v 10.743029594421387 -5.052199840545654 89.40347290039062
v 11.334549903869629 -3.546476364135742e-06 90.7689208984375
v 3.829864501953125 5.445326805114746 86.6379623413086
v 6.365107536315918 -5.255795478820801 90.15609741210938
v 5.800351142883301 -7.320797976717586e-07 91.01248931884766
v 6.3651123046875 5.255800724029541 90.15609741210938
v 14.200944900512695 -21.224384307861328 30.410890579223633
v 14.200961112976074 21.224403381347656 30.410888671875
v 13.343229293823242 -7.817224979400635 73.54935455322266
v 13.34323501586914 7.8172173500061035 73.54934692382812
v 8.508676528930664 -6.985630035400391 85.7052230834961
v 10.743035316467285 5.052200794219971 89.4034652709961
v 8.508684158325195 6.985628128051758 85.7052230834961
v 2.1169981956481934 1.8328428268432617e-06 86.88957977294922
v 3.8298587799072266 -5.4453206062316895 86.63795471191406
v 4.402355670928955 -23.648012161254883 0.5896186828613281
v 22.188751220703125 16.928287506103516 0.5821304321289062
v -20.44437026977539 1.722201704978943e-05 0.6000823974609375
v -13.384042739868164 -16.92827796936035 0.59710693359375
v -13.384021759033203 16.928306579589844 0.59710693359375
v -52.44574737548828 6.128102540969849e-06 -55.375518798828125
v 22.18874740600586 -16.92830467224121 0.5821304321289062
v 29.249080657958984 -2.0227162167429924e-06 0.5791587829589844
v 4.40236759185791 23.64801025390625 0.5896186828613281
v -6.410585403442383 -14.141219139099121 -41.28834533691406
v -18.856069564819336 -19.754594802856445 -34.55360412597656
v -1.470327377319336 -4.559755325317383e-06 -43.961708068847656
v -36.77790832519531 4.842877388000488e-08 -25.13732147216797
v -31.301551818847656 -14.141199111938477 -27.818862915039062
v 14.27520751953125 -16.474000930786133 -15.541107177734375
v 20.94084930419922 -6.917864084243774e-06 -16.626708984375
v -25.974578857421875 5.9157609939575195e-06 -8.985790252685547
v -19.308944702148438 -16.473979949951172 -10.071392059326172
v -32.1015510559082 -8.96873950958252 -55.97138977050781
v -45.389808654785156 -9.256333351135254 -43.283203125
v -6.410579681396484 14.141209602355957 -41.28834533691406
v -31.30154800415039 14.14119815826416 -27.81885528564453
v 14.275215148925781 16.473983764648438 -15.541107177734375
v -2.516857147216797 23.01337242126465 -12.80624771118164
v -19.30893325805664 16.473987579345703 -10.071388244628906
v -32.10154724121094 8.968737602233887 -55.97138977050781
v -29.73131561279297 -1.5273690223693848e-07 -58.30292510986328
v -48.64069366455078 8.568167686462402e-08 -40.5311279296875
v -45.389793395996094 9.256327629089355 -43.283203125
v -47.76568603515625 -3.1000165939331055 -57.971771240234375
v -51.773773193359375 -3.413450002670288 -53.142539978027344
v -47.76568603515625 3.10002064704895 -57.971771240234375
v -47.21282958984375 2.9206275939941406e-06 -58.819549560546875
v -53.0347900390625 4.1835010051727295e-06 -52.54426574707031
v -51.773773193359375 3.4134528636932373 -53.142539978027344
v -2.516866683959961 -23.01337432861328 -12.806243896484375
v -38.48856735229492 -12.774927139282227 -49.90385437011719
v -18.856063842773438 19.754592895507812 -34.55360412597656
v -38.48856735229492 12.774919509887695 -49.903846740722656
v -49.59185028076172 -4.601070880889893 -55.640098571777344
v -49.59185028076172 4.601075172424316 -55.640098571777344
v 16.3570499420166 14.875906944274902 57.78648376464844
v 14.200961112976074 21.224403381347656 30.410888671875
v 14.200944900512695 -21.224384307861328 30.410890579223633
v 16.357038497924805 -14.87590503692627 57.78648376464844
v 4.40236759185791 23.64801025390625 0.5896186828613281
v 4.402355670928955 -23.648012161254883 0.5896186828613281
v 13.34323501586914 7.8172173500061035 73.54934692382812
v 13.343229293823242 -7.817224979400635 73.54935455322266
v 10.743029594421387 -5.052199840545654 89.40347290039062
v 8.508676528930664 -6.985630035400391 85.7052230834961
v 11.334549903869629 -3.546476364135742e-06 90.7689208984375
v 10.743035316467285 5.052200794219971 89.4034652709961
v 8.508684158325195 6.985628128051758 85.7052230834961
v 3.829864501953125 5.445326805114746 86.6379623413086
v 8.508684158325195 6.985628128051758 85.7052230834961
v 2.1169981956481934 1.8328428268432617e-06 86.88957977294922
v 3.8298587799072266 -5.4453206062316895 86.63795471191406
v 8.508676528930664 -6.985630035400391 85.7052230834961
v -38.48856735229492 -12.774927139282227 -49.90385437011719
v -18.856069564819336 -19.754594802856445 -34.55360412597656
v -2.516866683959961 -23.01337432861328 -12.806243896484375
v 22.18874740600586 -16.92830467224121 0.5821304321289062
v 4.402355670928955 -23.648012161254883 0.5896186828613281
v 29.249080657958984 -2.0227162167429924e-06 0.5791587829589844
v -13.384042739868164 -16.92827796936035 0.59710693359375
v -20.44437026977539 1.722201704978943e-05 0.6000823974609375
v 4.402355670928955 -23.648012161254883 0.5896186828613281
v -49.59185028076172 -4.601070880889893 -55.640098571777344
v -18.856063842773438 19.754592895507812 -34.55360412597656
v -38.48856735229492 12.774919509887695 -49.903846740722656
v -2.516857147216797 23.01337242126465 -12.80624771118164
v 4.40236759185791 23.64801025390625 0.5896186828613281
v 22.188751220703125 16.928287506103516 0.5821304321289062
v -13.384021759033203 16.928306579589844 0.59710693359375
v 4.40236759185791 23.64801025390625 0.5896186828613281
v -49.59185028076172 4.601075172424316 -55.640098571777344
vt 0.1391938328742981 0.2950618863105774
vt 0.14932842552661896 0.29847252368927
vt 0.15984037518501282 0.29926055669784546
vt 0.17032958567142487 0.2984846830368042
vt 0.1805073767900467 0.29505354166030884
vt 0.14932842552661896 0.29847252368927
vt 0.15984037518501282 0.29926055669784546
vt 0.17032958567142487 0.2984846830368042
vt 0.1448039710521698 0.3310473561286926
vt 0.15990473330020905 0.332935094833374
vt 0.17500333487987518 0.33101731538772583
vt 0.1448039710521698 0.3310473561286926
vt 0.15990473330020905 0.332935094833374
vt 0.17500333487987518 0.33101731538772583
vt 0.15359994769096375 0.2804949879646301
vt 0.15987035632133484 0.28069430589675903
vt 0.16614055633544922 0.2804921269416809
vt 0.15359994769096375 0.2804949879646301
vt 0.15987035632133484 0.28069430589675903
vt 0.16614055633544922 0.2804921269416809
vt 0.1295652687549591 0.25707656145095825
vt 0.1278904229402542 0.26568108797073364
vt 0.14224500954151154 0.2749609351158142
vt 0.13579821586608887 0.25896310806274414
vt 0.13629239797592163 0.2658349275588989
vt 0.13632184267044067 0.27271389961242676
vt 0.12999050319194794 0.32539039850234985
vt 0.18980686366558075 0.32532840967178345
vt 0.14802342653274536 0.2796730399131775
vt 0.1717144101858139 0.2796732783317566
vt 0.13578662276268005 0.2513066530227661
vt 0.12984392046928406 0.27395302057266235
vt 0.13510538637638092 0.28025150299072266
vt 0.14465686678886414 0.26601558923721313
vt 0.1420217603445053 0.2573385238647461
vt 0.12708067893981934 0.36186307668685913
vt 0.17642390727996826 0.36973142623901367
vt 0.15992134809494019 0.3726612329483032
vt 0.17642390727996826 0.36973142623901367
vt 0.14341555535793304 0.3697618246078491
vt 0.21761374175548553 0.3690924644470215
vt 0.14341555535793304 0.3697618246078491
vt 0.15992134809494019 0.3726612329483032
vt 0.19275057315826416 0.3618047833442688
vt 0.2044285088777542 0.3145850896835327
vt 0.19293352961540222 0.3226848840713501
vt 0.2160489410161972 0.31126677989959717
vt 0.2160489410161972 0.31126677989959717
vt 0.22834792733192444 0.3136858344078064
vt 0.19765517115592957 0.27975112199783325
vt 0.21393811702728271 0.27417272329330444
vt 0.21393811702728271 0.27417272329330444
vt 0.23071898519992828 0.27840614318847656
vt 0.21036893129348755 0.34623366594314575
vt 0.22509320080280304 0.3456440567970276
vt 0.22834792733192444 0.3136858344078064
vt 0.2044285088777542 0.3145850896835327
vt 0.23071898519992828 0.27840614318847656
vt 0.24596990644931793 0.2897816300392151
vt 0.19765517115592957 0.27975112199783325
vt 0.22509320080280304 0.3456440567970276
vt 0.21780355274677277 0.34463977813720703
vt 0.21780355274677277 0.34463977813720703
vt 0.21036893129348755 0.34623366594314575
vt 0.21529337763786316 0.36311376094818115
vt 0.2206786721944809 0.36320483684539795
vt 0.2206786721944809 0.36320483684539795
vt 0.21806494891643524 0.362684428691864
vt 0.21806494891643524 0.362684428691864
vt 0.21529337763786316 0.36311376094818115
vt 0.18466278910636902 0.29202669858932495
vt 0.20293064415454865 0.3510098457336426
vt 0.2407604604959488 0.3215077519416809
vt 0.23180416226387024 0.35075438022613525
vt 0.2128501981496811 0.3652450442314148
vt 0.22240670025348663 0.3653234839439392
vt 0.1391938328742981 0.2950618863105774
vt 0.12999050319194794 0.32539039850234985
vt 0.18980686366558075 0.32532840967178345
vt 0.1805073767900467 0.29505354166030884
vt 0.12708067893981934 0.36186307668685913
vt 0.19275057315826416 0.3618047833442688
vt 0.14802342653274536 0.2796730399131775
vt 0.1717144101858139 0.2796732783317566
vt 0.1555553823709488 0.26467812061309814
vt 0.151443213224411 0.2644810080528259
vt 0.15987375378608704 0.2645987868309021
vt 0.16419334709644318 0.2646750807762146
vt 0.16839471459388733 0.26465684175491333
vt 0.1555553823709488 0.26467812061309814
vt 0.151443213224411 0.2644810080528259
vt 0.15987375378608704 0.2645987868309021
vt 0.16419334709644318 0.2646750807762146
vt 0.16839471459388733 0.26465684175491333
vt 0.23180416226387024 0.35075438022613525
vt 0.2407604604959488 0.3215077519416809
vt 0.24596990644931793 0.2897816300392151
vt 0.1940835863351822 0.26065337657928467
vt 0.17998741567134857 0.2758193016052246
vt 0.21353580057621002 0.25376492738723755
vt 0.2332669049501419 0.2593550682067871
vt 0.21353580057621002 0.25376492738723755
vt 0.24881836771965027 0.2731741666793823
vt 0.22240670025348663 0.3653234839439392
vt 0.19293352961540222 0.3226848840713501
vt 0.20293064415454865 0.3510098457336426
vt 0.18466278910636902 0.29202669858932495
vt 0.24881836771965027 0.2731741666793823
vt 0.2332669049501419 0.2593550682067871
vt 0.1940835863351822 0.26065337657928467
vt 0.17998741567134857 0.2758193016052246
vt 0.2128501981496811 0.3652450442314148
vn 0.09736959636211395 -0.9318351745605469 0.34957483410835266
vn 0.7128908038139343 -0.6175455451011658 0.33230140805244446
vn 0.927078127861023 0.11808627843856812 0.3557833135128021
vn 0.5775148272514343 0.7411922216415405 0.342214435338974
vn -0.053248338401317596 0.9503136873245239 0.3067062199115753
vn -0.7033829092979431 0.6410398483276367 0.3071163296699524
vn -0.949292004108429 -0.1299753338098526 0.28627103567123413
vn -0.555509626865387 -0.7748899459838867 0.30158689618110657
vn 0.7575945258140564 -0.6521221399307251 -0.028061525896191597
vn 0.9994978904724121 0.0033673043362796307 -0.03150651976466179
vn 0.7006317377090454 0.7125094532966614 0.03801877424120903
vn -0.6551353335380554 0.6932752132415771 0.30027851462364197
vn -0.9375598430633545 0.0003394875966478139 0.347823828458786
vn -0.66096431016922 -0.6957613229751587 0.28114476799964905
vn 0.5751267671585083 -0.7131837010383606 0.40074706077575684
vn 0.8651766180992126 -0.09174700826406479 0.49300292134284973
vn 0.735399603843689 0.5016943216323853 0.4555109441280365
vn -0.624468207359314 0.780116081237793 0.03818833827972412
vn -0.9930418729782104 0.11775179207324982 0.0015342646511271596
vn -0.8020079135894775 -0.5955476760864258 0.04589421674609184
vn 0.5593859553337097 -0.6022343635559082 0.5695621967315674
vn 0.5566407442092896 0.024766908958554268 0.8303840756416321
vn -0.7867240905761719 0.5906266570091248 0.1795147955417633
vn -0.17793354392051697 -0.6038997769355774 0.7769457697868347
vn -0.45747750997543335 0.041193317621946335 0.8882665634155273
vn -0.24149540066719055 0.6801517605781555 0.6921514272689819
vn 0.06775397062301636 -0.9868756532669067 0.1465805172920227
vn 0.01417146623134613 0.9856895208358765 0.1679743528366089
vn -0.09500924497842789 -0.9717607498168945 0.21599604189395905
vn 0.08837256580591202 0.9504944682121277 0.2979103922843933
vn 0.07502319663763046 -0.972905695438385 0.21869172155857086
vn 0.401226282119751 0.6555153131484985 0.6397790908813477
vn -0.08839048445224762 0.9841918349266052 0.1534716933965683
vn -0.9878440499305725 -0.08289498090744019 0.1315019130706787
vn -0.674376368522644 -0.7076590657234192 0.21079647541046143
vn -0.12172746658325195 -0.9900120496749878 0.07112393528223038
vn 0.7540924549102783 0.5990089178085327 -0.2693192660808563
vn -0.8926025032997131 0.12848754227161407 0.4321478009223938
vn -0.7291666269302368 -0.5870545506477356 0.35168588161468506
vn -0.5920447707176208 0.7528336644172668 0.28761863708496094
vn -0.7949531674385071 2.648244787906151e-07 -0.6066707968711853
vn 0.5641484260559082 -0.8002593517303467 -0.20327696204185486
vn 0.9326112270355225 -0.13173288106918335 -0.33598023653030396
vn 0.0530913770198822 0.9985883235931396 -0.0016888667596504092
vn 0.33613041043281555 -0.761179506778717 -0.5546368956565857
vn -0.20145174860954285 -0.9760441184043884 -0.08218948543071747
vn 0.5971633195877075 -0.0515156164765358 -0.8004636764526367
vn -0.8184792399406433 0.07586833089590073 0.5695047974586487
vn -0.67655348777771 -0.6119587421417236 0.40961188077926636
vn 0.673172652721405 -0.5821037888526917 -0.45606350898742676
vn 0.8330391049385071 0.12645168602466583 -0.5385683178901672
vn -0.8476778864860535 -0.13133032619953156 0.5139985680580139
vn -0.5417870879173279 -0.7985588908195496 0.2622412145137787
vn 0.14400187134742737 -0.500400722026825 -0.8537344932556152
vn -0.6239123940467834 -0.7695947885513306 0.1358572542667389
vn 0.4902488887310028 0.6095057725906372 -0.6230238676071167
vn -0.6032036542892456 0.7218837738037109 0.3391595482826233
vn 0.498644083738327 0.7821354866027832 -0.37365517020225525
vn -0.09138191491365433 0.9949232935905457 -0.042154405266046524
vn -0.6598108410835266 0.659809947013855 0.35958391427993774
vn 0.1382971853017807 0.5622097253799438 -0.8153491020202637
vn 0.244425967335701 -1.599341636904228e-08 -0.9696679711341858
vn -0.8782857656478882 4.4271780552662676e-07 0.4781360924243927
vn -0.62391197681427 0.7695950865745544 0.13585740327835083
vn -0.3315221965312958 -0.47432488203048706 -0.8155421018600464
vn -0.862084150314331 -0.5060685276985168 -0.026562925428152084
vn -0.3315219581127167 0.4743252992630005 -0.8155419826507568
vn -0.176298126578331 5.8518448753375196e-08 -0.9843369126319885
vn -0.9976183772087097 3.219747668481432e-07 0.0689755380153656
vn -0.8620837330818176 0.5060692429542542 -0.026562370359897614
vn 0.0944599136710167 -0.9852730631828308 -0.1425289660692215
vn -0.2053000032901764 -0.885769784450531 -0.41624996066093445
vn -0.061472855508327484 0.9757000803947449 -0.21031084656715393
vn -0.273105651140213 0.878487765789032 -0.392010897397995
vn -0.5838916301727295 -0.682598352432251 -0.43946561217308044
vn -0.5838913321495056 0.6825990080833435 -0.4394650459289551
vn -0.053248338401317596 0.9503136873245239 0.3067062199115753
vn 0.01417146623134613 0.9856895208358765 0.1679743528366089
vn 0.06775397062301636 -0.9868756532669067 0.1465805172920227
vn 0.09736959636211395 -0.9318351745605469 0.34957483410835266
vn 0.0530913770198822 0.9985883235931396 -0.0016888667596504092
vn -0.12172746658325195 -0.9900120496749878 0.07112393528223038
vn 0.08837256580591202 0.9504944682121277 0.2979103922843933
vn -0.09500924497842789 -0.9717607498168945 0.21599604189395905
vn 0.5593859553337097 -0.6022343635559082 0.5695621967315674
vn 0.07502319663763046 -0.972905695438385 0.21869172155857086
vn 0.5566407442092896 0.024766908958554268 0.8303840756416321
vn 0.401226282119751 0.6555153131484985 0.6397790908813477
vn -0.08839048445224762 0.9841918349266052 0.1534716933965683
vn -0.7867240905761719 0.5906266570091248 0.1795147955417633
vn -0.08839048445224762 0.9841918349266052 0.1534716933965683
vn -0.9878440499305725 -0.08289498090744019 0.1315019130706787
vn -0.674376368522644 -0.7076590657234192 0.21079647541046143
vn 0.07502319663763046 -0.972905695438385 0.21869172155857086
vn -0.2053000032901764 -0.885769784450531 -0.41624996066093445
vn -0.20145174860954285 -0.9760441184043884 -0.08218948543071747
vn 0.0944599136710167 -0.9852730631828308 -0.1425289660692215
vn 0.5641484260559082 -0.8002593517303467 -0.20327696204185486
vn -0.12172746658325195 -0.9900120496749878 0.07112393528223038
vn 0.9326112270355225 -0.13173288106918335 -0.33598023653030396
vn -0.7291666269302368 -0.5870545506477356 0.35168588161468506
vn -0.8926025032997131 0.12848754227161407 0.4321478009223938
vn -0.12172746658325195 -0.9900120496749878 0.07112393528223038
vn -0.5838916301727295 -0.682598352432251 -0.43946561217308044
vn -0.061472855508327484 0.9757000803947449 -0.21031084656715393
vn -0.273105651140213 0.878487765789032 -0.392010897397995
vn -0.09138191491365433 0.9949232935905457 -0.042154405266046524
vn 0.0530913770198822 0.9985883235931396 -0.0016888667596504092
vn 0.7540924549102783 0.5990089178085327 -0.2693192660808563
vn -0.5920447707176208 0.7528336644172668 0.28761863708496094
vn 0.0530913770198822 0.9985883235931396 -0.0016888667596504092
vn -0.5838913321495056 0.6825990080833435 -0.4394650459289551
f 41/41/41 70/70/70 112/112/112
f 41/41/41 69/69/69 70/70/70
f 41/41/41 67/67/67 68/68/68
f 41/41/41 76/76/76 67/67/67
f 41/41/41 104/104/104 66/66/66
f 41/41/41 66/66/66 69/69/69
f 41/41/41 68/68/68 65/65/65
f 41/41/41 65/65/65 75/75/75
f 64/64/64 106/106/106 112/112/112
f 112/112/112 70/70/70 64/64/64
f 63/63/63 64/64/64 70/70/70
f 70/70/70 69/69/69 63/63/63
f 61/61/61 62/62/62 68/68/68
f 68/68/68 67/67/67 61/61/61
f 74/74/74 61/61/61 67/67/67
f 67/67/67 76/76/76 74/74/74
f 111/111/111 107/107/107 60/60/60
f 60/60/60 110/110/110 111/111/111
f 60/60/60 52/52/52 102/102/102
f 102/102/102 110/110/110 60/60/60
f 51/51/51 58/58/58 109/109/109
f 109/109/109 100/100/100 51/51/51
f 58/58/58 59/59/59 108/108/108
f 108/108/108 109/109/109 58/58/58
f 107/107/107 105/105/105 57/57/57
f 57/57/57 60/60/60 107/107/107
f 64/64/64 57/57/57 105/105/105
f 105/105/105 106/106/106 64/64/64
f 60/60/60 57/57/57 48/48/48
f 48/48/48 52/52/52 60/60/60
f 63/63/63 48/48/48 57/57/57
f 57/57/57 64/64/64 63/63/63
f 51/51/51 47/47/47 56/56/56
f 56/56/56 58/58/58 51/51/51
f 61/61/61 56/56/56 47/47/47
f 47/47/47 62/62/62 61/61/61
f 58/58/58 56/56/56 73/73/73
f 73/73/73 59/59/59 58/58/58
f 61/61/61 74/74/74 73/73/73
f 73/73/73 56/56/56 61/61/61
f 104/104/104 95/95/95 55/55/55
f 55/55/55 66/66/66 104/104/104
f 66/66/66 55/55/55 63/63/63
f 63/63/63 69/69/69 66/66/66
f 68/68/68 62/62/62 54/54/54
f 54/54/54 65/65/65 68/68/68
f 65/65/65 54/54/54 72/72/72
f 72/72/72 75/75/75 65/65/65
f 53/53/53 97/97/97 103/103/103
f 103/103/103 101/101/101 53/53/53
f 52/52/52 53/53/53 101/101/101
f 101/101/101 102/102/102 52/52/52
f 50/50/50 51/51/51 100/100/100
f 100/100/100 98/98/98 50/50/50
f 71/71/71 50/50/50 98/98/98
f 98/98/98 99/99/99 71/71/71
f 96/96/96 97/97/97 53/53/53
f 53/53/53 49/49/49 96/96/96
f 96/96/96 49/49/49 55/55/55
f 55/55/55 95/95/95 96/96/96
f 49/49/49 53/53/53 52/52/52
f 52/52/52 48/48/48 49/49/49
f 49/49/49 48/48/48 63/63/63
f 63/63/63 55/55/55 49/49/49
f 47/47/47 51/51/51 50/50/50
f 50/50/50 45/45/45 47/47/47
f 47/47/47 45/45/45 54/54/54
f 54/54/54 62/62/62 47/47/47
f 45/45/45 50/50/50 71/71/71
f 71/71/71 46/46/46 45/45/45
f 45/45/45 46/46/46 72/72/72
f 72/72/72 54/54/54 45/45/45
f 33/33/33 23/23/23 26/26/26
f 93/93/93 20/20/20 84/84/84
f 84/84/84 94/94/94 93/93/93
f 92/92/92 19/19/19 20/20/20
f 20/20/20 93/93/93 92/92/92
f 90/90/90 18/18/18 19/19/19
f 19/19/19 92/92/92 90/90/90
f 91/91/91 83/83/83 18/18/18
f 18/18/18 90/90/90 91/91/91
f 88/88/88 17/17/17 30/30/30
f 30/30/30 89/89/89 88/88/88
f 87/87/87 16/16/16 17/17/17
f 17/17/17 88/88/88 87/87/87
f 85/85/85 15/15/15 16/16/16
f 16/16/16 87/87/87 85/85/85
f 86/86/86 29/29/29 15/15/15
f 15/15/15 85/85/85 86/86/86
f 32/32/32 33/33/33 26/26/26
f 25/25/25 26/26/26 23/23/23
f 23/23/23 34/34/34 25/25/25
f 25/25/25 22/22/22 32/32/32
f 32/32/32 26/26/26 25/25/25
f 35/35/35 24/24/24 25/25/25
f 25/25/25 34/34/34 35/35/35
f 24/24/24 21/21/21 22/22/22
f 22/22/22 25/25/25 24/24/24
f 24/24/24 35/35/35 31/31/31
f 21/21/21 24/24/24 31/31/31
f 8/8/8 80/80/80 84/84/84
f 84/84/84 20/20/20 8/8/8
f 7/7/7 8/8/8 20/20/20
f 20/20/20 19/19/19 7/7/7
f 6/6/6 7/7/7 19/19/19
f 19/19/19 18/18/18 6/6/6
f 6/6/6 18/18/18 83/83/83
f 83/83/83 77/77/77 6/6/6
f 4/4/4 5/5/5 30/30/30
f 30/30/30 17/17/17 4/4/4
f 3/3/3 4/4/4 17/17/17
f 17/17/17 16/16/16 3/3/3
f 2/2/2 3/3/3 16/16/16
f 16/16/16 15/15/15 2/2/2
f 1/1/1 2/2/2 15/15/15
f 15/15/15 29/29/29 1/1/1
f 82/82/82 79/79/79 14/14/14
f 14/14/14 39/39/39 82/82/82
f 39/39/39 14/14/14 13/13/13
f 13/13/13 38/38/38 39/39/39
f 38/38/38 13/13/13 12/12/12
f 12/12/12 40/40/40 38/38/38
f 40/40/40 12/12/12 78/78/78
f 78/78/78 81/81/81 40/40/40
f 44/44/44 28/28/28 11/11/11
f 11/11/11 37/37/37 44/44/44
f 37/37/37 11/11/11 10/10/10
f 10/10/10 43/43/43 37/37/37
f 43/43/43 10/10/10 9/9/9
f 9/9/9 42/42/42 43/43/43
f 42/42/42 9/9/9 27/27/27
f 27/27/27 36/36/36 42/42/42
f 79/79/79 80/80/80 8/8/8
f 8/8/8 14/14/14 79/79/79
f 14/14/14 8/8/8 7/7/7
f 7/7/7 13/13/13 14/14/14
f 13/13/13 7/7/7 6/6/6
f 6/6/6 12/12/12 13/13/13
f 12/12/12 6/6/6 77/77/77
f 77/77/77 78/78/78 12/12/12
f 28/28/28 5/5/5 4/4/4
f 4/4/4 11/11/11 28/28/28
f 11/11/11 4/4/4 3/3/3
f 3/3/3 10/10/10 11/11/11
f 10/10/10 3/3/3 2/2/2
f 2/2/2 9/9/9 10/10/10
f 2/2/2 1/1/1 27/27/27
f 27/27/27 9/9/9 2/2/2
