# Recovered local-space geometry; original node transforms not applied
o mesh_0
v 16.7845458984375 -15.264701843261719 57.78648376464844
v 27.664981842041016 -10.890240669250488 56.923892974853516
v 31.949386596679688 -1.547410647617653e-05 56.59721755981445
v 27.66498565673828 10.890225410461426 56.92388153076172
v 16.784557342529297 15.264704704284668 57.78648376464844
v 5.835956573486328 10.950518608093262 58.68006134033203
v 1.478555679321289 4.80125436297385e-06 59.039894104003906
v 5.835935115814209 -10.950508117675781 58.6800537109375
v 30.590373992919922 -15.590446472167969 29.248092651367188
v 36.948856353759766 3.058123638766119e-07 28.78652572631836
v 30.590381622314453 15.590457916259766 29.24809455871582
v -1.446152687072754 15.590471267700195 31.57368278503418
v -7.804648399353027 1.6942005458986387e-05 32.035247802734375
v -1.4461774826049805 -15.590436935424805 31.573680877685547
v 18.84700584411621 -5.478672504425049 73.96353912353516
v 20.60665512084961 -7.217171514639631e-06 74.2805404663086
v 18.847009658813477 5.478664875030518 73.9635238647461
v 7.913456916809082 5.9089674949646 73.61271667480469
v 5.5583367347717285 2.1406865471362835e-06 73.7258529663086
v 7.913443088531494 -5.908964157104492 73.61270904541016
v 11.023809432983398 -5.184244155883789 89.40347290039062
v 11.630789756774902 -3.6391670619195793e-06 90.7689208984375
v 3.929961681365967 5.587646007537842 86.6379623413086
v 5.129134178161621 0.04202106595039368 0.5894584655761719
v 6.531465530395508 -5.393161296844482 90.15609741210938
v 5.951949119567871 -7.51213519833982e-07 91.01248931884766
v 6.531470775604248 5.393166542053223 90.15609741210938
v 5.1291327476501465 -14.338719367980957 0.5894584655761719
v 16.090723037719727 10.32422161102295 0.584747314453125
v -5.832442283630371 10.32424545288086 0.5941696166992188
v -10.201767921447754 0.04203281179070473 0.5960464477539062
v -5.832459449768066 -10.240195274353027 0.5941696166992188
v 16.090717315673828 -10.240202903747559 0.584747314453125
v 20.46003532409668 0.04201715439558029 0.5828704833984375
v 5.129144668579102 14.42275333404541 0.5894584655761719
v 4.517416954040527 -24.266075134277344 0.5896186828613281
v 22.7686824798584 17.370725631713867 0.5821304321289062
v 22.768674850463867 -17.370737075805664 0.5821304321289062
v 30.013538360595703 1.838935759224114e-06 0.5791587829589844
v -20.97870635986328 2.550092904129997e-05 0.6000823974609375
v -13.733847618103027 -17.370710372924805 0.59710693359375
v 4.517433166503906 24.26607894897461 0.5896186828613281
v -13.733819007873535 17.370756149291992 0.59710693359375
v 14.572101593017578 -21.77910614013672 30.410890579223633
v 14.572117805480957 21.779125213623047 30.410888671875
v 13.691967964172363 -8.021535873413086 73.54935455322266
v 13.691974639892578 8.021528244018555 73.54934692382812
v 8.731059074401855 -7.168206691741943 85.7052230834961
v 11.023815155029297 5.184245586395264 89.4034652709961
v 8.731066703796387 7.1682047843933105 85.7052230834961
v 2.172327995300293 1.8807461401593173e-06 86.88957977294922
v 3.9299559593200684 -5.587639808654785 86.63795471191406
v 16.684673309326172 -21.032007217407227 59.846832275390625
v 31.446979522705078 -14.782227516174316 59.100242614746094
v 37.246341705322266 -1.7337986719212495e-05 58.81285858154297
v 31.44698715209961 14.782205581665039 59.1002311706543
v 16.6846923828125 21.032005310058594 59.84683609008789
v 1.4927263259887695 15.229547500610352 60.64998245239258
v -4.777782440185547 8.888425327313598e-06 60.93145751953125
v 1.4927000999450684 -15.229532241821289 60.64997100830078
v 34.47481155395508 -19.7199764251709 29.351032257080078
v 42.504241943359375 -8.42971530801151e-07 28.5730037689209
v 34.474822998046875 19.719985961914062 29.35103416442871
v -5.5951128005981445 19.80611228942871 33.43157196044922
v -13.69448184967041 2.111516732838936e-05 34.3109130859375
v -5.595142364501953 -19.806072235107422 33.43157196044922
v 22.722686767578125 -9.21666431427002 76.8344955444336
v 25.704509735107422 -5.366110599425156e-06 77.54168701171875
v 22.722694396972656 9.216655731201172 76.83448028564453
v 3.2586617469787598 10.467477798461914 74.10651397705078
v -1.0830841064453125 8.532211722922511e-06 73.76998138427734
v 3.258634567260742 -10.467463493347168 74.10650634765625
v 13.96085262298584 -8.911112785339355 93.52711486816406
v 14.739328384399414 -2.8228059818502516e-06 96.30583953857422
v -1.0301151275634766 9.655861854553223 87.58768463134766
v 4.512720108032227 -9.01512622833252 95.12460327148438
v 3.2229104042053223 -2.3914412849990185e-07 96.97962951660156
v 4.512734889984131 9.015134811401367 95.12460327148438
v 14.457822799682617 -27.654706954956055 31.324623107910156
v 14.457843780517578 27.654727935791016 31.32461929321289
v 13.727663040161133 -14.043429374694824 75.3759765625
v 13.727676391601562 14.043420791625977 75.3759765625
v 8.582071304321289 -13.398107528686523 86.76575469970703
v 13.960866928100586 8.911113739013672 93.527099609375
v 8.582087516784668 13.39810562133789 86.76575469970703
v -4.2056684494018555 3.426075409151963e-06 88.39751434326172
v -1.030125617980957 -9.65584945678711 87.58767700195312
v 4.518536567687988 -30.14696502685547 0.5976715087890625
v 26.568954467773438 21.4764347076416 -0.9600028991699219
v -26.260025024414062 2.1704878236050718e-05 3.5031967163085938
v -17.532791137695312 -21.537614822387695 2.54437255859375
v -17.532764434814453 21.537649154663086 2.5443687438964844
v 26.568946838378906 -21.476451873779297 -0.9599990844726562
v 35.389896392822266 -2.227666300314013e-06 -1.5516510009765625
v 4.518555164337158 30.146963119506836 0.5976676940917969
v 16.784557342529297 15.264704704284668 57.78648376464844
v 14.572117805480957 21.779125213623047 30.410888671875
v 14.572101593017578 -21.77910614013672 30.410890579223633
v 16.7845458984375 -15.264701843261719 57.78648376464844
v 4.517433166503906 24.26607894897461 0.5896186828613281
v 4.517416954040527 -24.266075134277344 0.5896186828613281
v 13.691974639892578 8.021528244018555 73.54934692382812
v 13.691967964172363 -8.021535873413086 73.54935455322266
v 11.023809432983398 -5.184244155883789 89.40347290039062
v 8.731059074401855 -7.168206691741943 85.7052230834961
v 11.630789756774902 -3.6391670619195793e-06 90.7689208984375
v 11.023815155029297 5.184245586395264 89.4034652709961
v 8.731066703796387 7.1682047843933105 85.7052230834961
v 3.929961681365967 5.587646007537842 86.6379623413086
v 8.731066703796387 7.1682047843933105 85.7052230834961
v 2.172327995300293 1.8807461401593173e-06 86.88957977294922
v 3.9299559593200684 -5.587639808654785 86.63795471191406
v 8.731059074401855 -7.168206691741943 85.7052230834961
v 4.517416954040527 -24.266075134277344 0.5896186828613281
v 22.768674850463867 -17.370737075805664 0.5821304321289062
v 4.517433166503906 24.26607894897461 0.5896186828613281
v -13.733819007873535 17.370756149291992 0.59710693359375
v -20.97870635986328 2.550092904129997e-05 0.6000823974609375
v -13.733847618103027 -17.370710372924805 0.59710693359375
v 30.013538360595703 1.838935759224114e-06 0.5791587829589844
v 22.7686824798584 17.370725631713867 0.5821304321289062
vt 0.6394229531288147 0.5451501607894897
vt 0.6495575308799744 0.5485607981681824
vt 0.6600695252418518 0.5493488311767578
vt 0.6705586910247803 0.5485729575157166
vt 0.6807364821434021 0.5451418161392212
vt 0.6495575308799744 0.5485607981681824
vt 0.6600695252418518 0.5493488311767578
vt 0.6705586910247803 0.5485729575157166
vt 0.645033061504364 0.581135630607605
vt 0.6601338386535645 0.5830233693122864
vt 0.675232470035553 0.5811055898666382
vt 0.645033061504364 0.581135630607605
vt 0.6601338386535645 0.5830233693122864
vt 0.675232470035553 0.5811055898666382
vt 0.653829038143158 0.5305832624435425
vt 0.660099446773529 0.5307825803756714
vt 0.6663696765899658 0.5305804014205933
vt 0.653829038143158 0.5305832624435425
vt 0.660099446773529 0.5307825803756714
vt 0.6663696765899658 0.5305804014205933
vt 0.6297944188117981 0.5071648359298706
vt 0.6281195282936096 0.515769362449646
vt 0.6424741148948669 0.5250492095947266
vt 0.7472555637359619 0.677150547504425
vt 0.6360273361206055 0.5090513825416565
vt 0.6365215182304382 0.5159232020378113
vt 0.6365509629249573 0.5228021740913391
vt 0.6884779930114746 0.6559451222419739
vt 0.6884756088256836 0.6991223692893982
vt 0.6884756088256836 0.6991223692893982
vt 0.6884779930114746 0.6559801697731018
vt 0.6884756088256836 0.6991223692893982
vt 0.6884756088256836 0.6991223692893982
vt 0.6884779930114746 0.6559801697731018
vt 0.6884779930114746 0.6559451222419739
vt 0.6273097991943359 0.6119513511657715
vt 0.6766530275344849 0.619819700717926
vt 0.6436446905136108 0.6198500990867615
vt 0.6601504683494568 0.6227495074272156
vt 0.6601504683494568 0.6227495074272156
vt 0.6766530275344849 0.619819700717926
vt 0.6929796934127808 0.6118930578231812
vt 0.6436446905136108 0.6198500990867615
vt 0.6302196383476257 0.5754786729812622
vt 0.6900359988212585 0.5754166841506958
vt 0.648252546787262 0.5297613143920898
vt 0.6719435453414917 0.529761552810669
vt 0.6360157132148743 0.5013949275016785
vt 0.6300730109214783 0.5240412950515747
vt 0.6353344917297363 0.530339777469635
vt 0.6448859572410583 0.5161038637161255
vt 0.6422508955001831 0.5074267983436584
vt 0.743983268737793 0.6315494775772095
vt 0.7440645694732666 0.6315768957138062
vt 0.7441489100456238 0.6315832138061523
vt 0.7442331314086914 0.6315769553184509
vt 0.7443148493766785 0.6315494179725647
vt 0.7440645694732666 0.6315768957138062
vt 0.7441489100456238 0.6315832138061523
vt 0.7442331314086914 0.6315769553184509
vt 0.7440282702445984 0.6318382620811462
vt 0.7441495060920715 0.6318534016609192
vt 0.7442706227302551 0.6318380236625671
vt 0.7440282702445984 0.6318382620811462
vt 0.7441495060920715 0.6318534016609192
vt 0.7442706227302551 0.6318380236625671
vt 0.7440988421440125 0.6314325928688049
vt 0.7441492080688477 0.6314342021942139
vt 0.7441995143890381 0.6314325332641602
vt 0.7440988421440125 0.6314325928688049
vt 0.7441492080688477 0.6314342021942139
vt 0.7441995143890381 0.6314325332641602
vt 0.7439059615135193 0.6312446594238281
vt 0.7438925504684448 0.631313681602478
vt 0.7440077662467957 0.6313881874084473
vt 0.7439560294151306 0.6312597990036011
vt 0.7439599633216858 0.6313149333000183
vt 0.7439602017402649 0.6313701272010803
vt 0.7439094185829163 0.6317929029464722
vt 0.7443894743919373 0.6317923665046692
vt 0.7440541386604309 0.6314259767532349
vt 0.7442442774772644 0.6314259767532349
vt 0.7439559102058411 0.6311982870101929
vt 0.7439082264900208 0.6313800811767578
vt 0.7439504265785217 0.6314306259155273
vt 0.7440270781517029 0.6313163638114929
vt 0.7440059781074524 0.6312467455863953
vt 0.7438860535621643 0.6320855617523193
vt 0.744282066822052 0.6321487426757812
vt 0.7441496253013611 0.6321722269058228
vt 0.744282066822052 0.6321487426757812
vt 0.7440171241760254 0.6321489810943604
vt 0.7440171241760254 0.6321489810943604
vt 0.7441496253013611 0.6321722269058228
vt 0.7444130778312683 0.6320850849151611
vt 0.6394229531288147 0.5451501607894897
vt 0.6302196383476257 0.5754786729812622
vt 0.6900359988212585 0.5754166841506958
vt 0.6807364821434021 0.5451418161392212
vt 0.6273097991943359 0.6119513511657715
vt 0.6929796934127808 0.6118930578231812
vt 0.648252546787262 0.5297613143920898
vt 0.6719435453414917 0.529761552810669
vt 0.6557844877243042 0.5147663950920105
vt 0.6516723036766052 0.5145692825317383
vt 0.660102903842926 0.5146870613098145
vt 0.6644224524497986 0.514763355255127
vt 0.6686238646507263 0.5147451162338257
vt 0.6557844877243042 0.5147663950920105
vt 0.6516723036766052 0.5145692825317383
vt 0.660102903842926 0.5146870613098145
vt 0.6644224524497986 0.514763355255127
vt 0.6686238646507263 0.5147451162338257
vt 0.6290791034698486 0.6350985169410706
vt 0.6290793418884277 0.7187238931655884
vt 0.6290791034698486 0.6350985169410706
vt 0.6290793418884277 0.7187238931655884
vt 0.6290791034698486 0.6351000070571899
vt 0.6290793418884277 0.7187238931655884
vt 0.6290791034698486 0.6351000070571899
vt 0.6290793418884277 0.7187238931655884
vn 0.09680682420730591 -0.928933322429657 0.35736748576164246
vn 0.7107579112052917 -0.6160658597946167 0.33953797817230225
vn 0.9241999983787537 0.11774299293756485 0.3633056581020355
vn 0.5757268071174622 0.7390914559364319 0.3496890962123871
vn -0.05328523367643356 0.9479963183403015 0.3137892782688141
vn -0.7017175555229187 0.639365553855896 0.3143313527107239
vn -0.9472417235374451 -0.12969745695590973 0.2931073009967804
vn -0.554231584072113 -0.7730023264884949 0.308698832988739
vn 0.7575057744979858 -0.6521947383880615 -0.028759196400642395
vn 0.9994736909866333 0.0033269384875893593 -0.0322689414024353
vn 0.7005250453948975 0.7125605940818787 0.039013512432575226
vn -0.6533446907997131 0.6918731331825256 0.30733105540275574
vn -0.9345768690109253 0.00040505785727873445 0.3557610809803009
vn -0.6593717336654663 -0.6945362091064453 0.28783392906188965
vn 0.5724457502365112 -0.7105211019515991 0.4092257022857666
vn 0.8596767783164978 -0.09117164462804794 0.5026366710662842
vn 0.7311998009681702 0.49938058853149414 0.4647212624549866
vn -0.6243434548377991 0.780174195766449 0.03903242200613022
vn -0.9930443167686462 0.11773065477609634 0.0015716352500021458
vn -0.8019566535949707 -0.5955314636230469 0.04698967933654785
vn 0.5556550621986389 -0.5984140038490295 0.5771898627281189
vn 0.5510198473930359 0.02516832761466503 0.8341125249862671
vn -0.7856507301330566 0.5911678671836853 0.18241021037101746
vn -0.00042975330143235624 2.0722185078980715e-10 -1.0
vn -0.1770019233226776 -0.5980633497238159 0.7816588282585144
vn -0.45159071683883667 0.04005276411771774 0.8913257718086243
vn -0.23987162113189697 0.6747169494628906 0.6980105042457581
vn -0.0004226032178848982 1.2999367754673585e-05 -0.9999999403953552
vn -0.00041305526974610984 9.846283319348004e-06 -0.9999999403953552
vn -0.00041438647895120084 -1.165776757261483e-05 -0.9999999403953552
vn -0.0003992198908235878 -1.9158239865646465e-06 -0.9999999403953552
vn -0.0004058558552060276 1.6111893273773603e-05 -0.9999999403953552
vn -0.00042047101305797696 -2.618808593979338e-06 -0.9999999403953552
vn -0.00040801288560032845 -5.121765980220516e-07 -0.9999999403953552
vn -0.00042385427514091134 1.3793744528811658e-06 -1.0
vn -0.119158536195755 -0.9854459166526794 0.12123361229896545
vn 0.7757877111434937 0.6066282391548157 -0.17365369200706482
vn 0.5797664523124695 -0.8074511885643005 -0.10905718058347702
vn 0.962344765663147 -0.13320448994636536 -0.23695801198482513
vn -0.9145275354385376 0.12798811495304108 0.38374292850494385
vn -0.740553081035614 -0.58706134557724 0.3270169794559479
vn 0.1294092833995819 0.9907845258712769 0.0399930477142334
vn -0.5553123354911804 0.7877230048179626 0.2666846811771393
vn 0.06786807626485825 -0.9863147139549255 0.15025782585144043
vn 0.014252947643399239 0.9849595427513123 0.1721961796283722
vn -0.09516700357198715 -0.9706204533576965 0.22099600732326508
vn 0.0879674181342125 0.948377251625061 0.3047003746032715
vn 0.07481841742992401 -0.9717297554016113 0.22392748296260834
vn 0.3986264169216156 0.6514970064163208 0.6454832553863525
vn -0.08857858926057816 0.9836028814315796 0.15709622204303741
vn -0.9876949191093445 -0.08313313871622086 0.13246817886829376
vn -0.6726973056793213 -0.7081723809242249 0.21440695226192474
vn -0.10152354091405869 0.9311301708221436 -0.3502710163593292
vn -0.7154141068458557 0.6163875460624695 -0.3290122449398041
vn -0.9283280372619629 -0.11966704577207565 -0.3519759178161621
vn -0.5816447138786316 -0.7388731241226196 -0.34022921323776245
vn 0.04878363013267517 -0.9502973556518555 -0.30749809741973877
vn 0.7021253108978271 -0.6399998068809509 -0.31212228536605835
vn 0.9471890926361084 0.1310836225748062 -0.292660117149353
vn 0.5554724335670471 0.7732656002044678 -0.30579516291618347
vn -0.7603582739830017 0.6489297747612 0.02730291523039341
vn -0.9995338916778564 -0.003279635449871421 0.0303523950278759
vn -0.7044653296470642 -0.7087462544441223 -0.037516117095947266
vn 0.6526697874069214 -0.6958466172218323 -0.29969942569732666
vn 0.9375962018966675 -0.0006909351795911789 -0.3477253317832947
vn 0.658159077167511 0.6988233923912048 -0.28012949228286743
vn -0.5761614441871643 0.707920253276825 -0.4085180163383484
vn -0.8575864434242249 0.0934579074382782 -0.5057779550552368
vn -0.7298489809036255 -0.5015073418617249 -0.46455445885658264
vn 0.6263768076896667 -0.778347909450531 -0.04273923859000206
vn 0.9924505352973938 -0.12102586030960083 -0.01986764185130596
vn 0.7973358035087585 0.60005122423172 -0.06476227939128876
vn -0.541594922542572 0.5898732542991638 -0.598936140537262
vn -0.5459070801734924 -0.01867932640016079 -0.8376374840736389
vn 0.7838606834411621 -0.5889108777046204 -0.1968410164117813
vn 0.1854672133922577 0.5897142887115479 -0.7860273718833923
vn 0.4533981382846832 -0.047443781048059464 -0.890044629573822
vn 0.2520519495010376 -0.6526262760162354 -0.7145269513130188
vn -0.07506304234266281 0.986475944519043 -0.14570839703083038
vn -0.020966187119483948 -0.9856806397438049 -0.16731491684913635
vn 0.10059810429811478 0.9699795246124268 -0.2214040458202362
vn -0.09612862020730972 -0.9473202228546143 -0.30552205443382263
vn -0.0561990849673748 0.9647670388221741 -0.25703391432762146
vn -0.3959847092628479 -0.6436848640441895 -0.654878556728363
vn 0.10440707951784134 -0.9751223921775818 -0.1955394595861435
vn 0.9867706298828125 0.08670218288898468 -0.13699138164520264
vn 0.6765223741531372 0.7040643692016602 -0.215895414352417
vn 0.11436542868614197 0.9865835905075073 -0.11650500446557999
vn -0.7785883545875549 -0.6046625375747681 0.16787973046302795
vn 0.9177703261375427 -0.13050901889801025 -0.37505337595939636
vn 0.7400522232055664 0.592349648475647 -0.3185037672519684
vn 0.5541000366210938 -0.7911260724067688 -0.25902259349823
vn -0.5853582620620728 0.803746223449707 0.10652565211057663
vn -0.964428186416626 0.13390961289405823 0.22791780531406403
vn -0.13685837388038635 -0.9899199604988098 -0.03644509240984917
vn -0.05328523367643356 0.9479963183403015 0.3137892782688141
vn 0.014252947643399239 0.9849595427513123 0.1721961796283722
vn 0.06786807626485825 -0.9863147139549255 0.15025782585144043
vn 0.09680682420730591 -0.928933322429657 0.35736748576164246
vn 0.1294092833995819 0.9907845258712769 0.0399930477142334
vn -0.119158536195755 -0.9854459166526794 0.12123361229896545
vn 0.0879674181342125 0.948377251625061 0.3047003746032715
vn -0.09516700357198715 -0.9706204533576965 0.22099600732326508
vn 0.5556550621986389 -0.5984140038490295 0.5771898627281189
vn 0.07481841742992401 -0.9717297554016113 0.22392748296260834
vn 0.5510198473930359 0.02516832761466503 0.8341125249862671
vn 0.3986264169216156 0.6514970064163208 0.6454832553863525
vn -0.08857858926057816 0.9836028814315796 0.15709622204303741
vn -0.7856507301330566 0.5911678671836853 0.18241021037101746
vn -0.08857858926057816 0.9836028814315796 0.15709622204303741
vn -0.9876949191093445 -0.08313313871622086 0.13246817886829376
vn -0.6726973056793213 -0.7081723809242249 0.21440695226192474
vn 0.07481841742992401 -0.9717297554016113 0.22392748296260834
vn -0.00041537685319781303 2.260541350551648e-06 -0.9999999403953552
vn -0.0003992196870967746 -1.0923537956841756e-05 -0.9999999403953552
vn -0.0004128827422391623 -1.6664322174619883e-05 -0.9999999403953552
vn -0.00038696342380717397 -2.1096471755299717e-05 -0.9999999403953552
vn -0.0003771428018808365 6.678412319160998e-06 -0.9999999403953552
vn -0.00040069816168397665 2.2070746126701124e-05 -0.9999999403953552
vn -0.00039148659561760724 4.584750968206208e-06 -0.9999999403953552
vn -0.0004103944811504334 7.464366262865951e-06 -0.9999999403953552
f 85/85/85 78/78/78 75/75/75
f 87/87/87 83/83/83 81/81/81
f 81/81/81 72/72/72 87/87/87
f 86/86/86 87/87/87 72/72/72
f 72/72/72 71/71/71 86/86/86
f 75/75/75 86/86/86 71/71/71
f 71/71/71 70/70/70 75/75/75
f 85/85/85 75/75/75 70/70/70
f 70/70/70 82/82/82 85/85/85
f 84/84/84 85/85/85 82/82/82
f 82/82/82 69/69/69 84/84/84
f 74/74/74 84/84/84 69/69/69
f 69/69/69 68/68/68 74/74/74
f 73/73/73 74/74/74 68/68/68
f 68/68/68 67/67/67 73/73/73
f 83/83/83 73/73/73 67/67/67
f 67/67/67 81/81/81 83/83/83
f 84/84/84 78/78/78 85/85/85
f 77/77/77 86/86/86 75/75/75
f 75/75/75 78/78/78 77/77/77
f 77/77/77 78/78/78 84/84/84
f 84/84/84 74/74/74 77/77/77
f 87/87/87 86/86/86 77/77/77
f 77/77/77 76/76/76 87/87/87
f 76/76/76 77/77/77 74/74/74
f 74/74/74 73/73/73 76/76/76
f 76/76/76 83/83/83 87/87/87
f 73/73/73 83/83/83 76/76/76
f 60/60/60 72/72/72 81/81/81
f 81/81/81 53/53/53 60/60/60
f 59/59/59 71/71/71 72/72/72
f 72/72/72 60/60/60 59/59/59
f 58/58/58 70/70/70 71/71/71
f 71/71/71 59/59/59 58/58/58
f 58/58/58 57/57/57 82/82/82
f 82/82/82 70/70/70 58/58/58
f 56/56/56 69/69/69 82/82/82
f 82/82/82 57/57/57 56/56/56
f 55/55/55 68/68/68 69/69/69
f 69/69/69 56/56/56 55/55/55
f 54/54/54 67/67/67 68/68/68
f 68/68/68 55/55/55 54/54/54
f 53/53/53 81/81/81 67/67/67
f 67/67/67 54/54/54 53/53/53
f 88/88/88 91/91/91 66/66/66
f 66/66/66 79/79/79 88/88/88
f 91/91/91 90/90/90 65/65/65
f 65/65/65 66/66/66 91/91/91
f 90/90/90 92/92/92 64/64/64
f 64/64/64 65/65/65 90/90/90
f 92/92/92 95/95/95 80/80/80
f 80/80/80 64/64/64 92/92/92
f 95/95/95 89/89/89 63/63/63
f 63/63/63 80/80/80 95/95/95
f 89/89/89 94/94/94 62/62/62
f 62/62/62 63/63/63 89/89/89
f 94/94/94 93/93/93 61/61/61
f 61/61/61 62/62/62 94/94/94
f 93/93/93 88/88/88 79/79/79
f 79/79/79 61/61/61 93/93/93
f 79/79/79 66/66/66 60/60/60
f 60/60/60 53/53/53 79/79/79
f 66/66/66 65/65/65 59/59/59
f 59/59/59 60/60/60 66/66/66
f 65/65/65 64/64/64 58/58/58
f 58/58/58 59/59/59 65/65/65
f 64/64/64 80/80/80 57/57/57
f 57/57/57 58/58/58 64/64/64
f 80/80/80 63/63/63 56/56/56
f 56/56/56 57/57/57 80/80/80
f 63/63/63 62/62/62 55/55/55
f 55/55/55 56/56/56 63/63/63
f 62/62/62 61/61/61 54/54/54
f 54/54/54 55/55/55 62/62/62
f 54/54/54 61/61/61 79/79/79
f 79/79/79 53/53/53 54/54/54
f 50/50/50 23/23/23 27/27/27
f 29/29/29 24/24/24 35/35/35
f 35/35/35 116/116/116 121/121/121
f 121/121/121 29/29/29 35/35/35
f 34/34/34 24/24/24 29/29/29
f 29/29/29 121/121/121 120/120/120
f 120/120/120 34/34/34 29/29/29
f 33/33/33 24/24/24 34/34/34
f 34/34/34 120/120/120 115/115/115
f 115/115/115 33/33/33 34/34/34
f 32/32/32 24/24/24 28/28/28
f 28/28/28 114/114/114 119/119/119
f 119/119/119 32/32/32 28/28/28
f 31/31/31 24/24/24 32/32/32
f 32/32/32 119/119/119 118/118/118
f 118/118/118 31/31/31 32/32/32
f 30/30/30 24/24/24 31/31/31
f 31/31/31 118/118/118 117/117/117
f 117/117/117 30/30/30 31/31/31
f 35/35/35 24/24/24 30/30/30
f 30/30/30 117/117/117 116/116/116
f 116/116/116 35/35/35 30/30/30
f 28/28/28 24/24/24 33/33/33
f 33/33/33 115/115/115 114/114/114
f 114/114/114 28/28/28 33/33/33
f 112/112/112 20/20/20 103/103/103
f 103/103/103 113/113/113 112/112/112
f 111/111/111 19/19/19 20/20/20
f 20/20/20 112/112/112 111/111/111
f 109/109/109 18/18/18 19/19/19
f 19/19/19 111/111/111 109/109/109
f 110/110/110 102/102/102 18/18/18
f 18/18/18 109/109/109 110/110/110
f 107/107/107 17/17/17 47/47/47
f 47/47/47 108/108/108 107/107/107
f 106/106/106 16/16/16 17/17/17
f 17/17/17 107/107/107 106/106/106
f 104/104/104 15/15/15 16/16/16
f 16/16/16 106/106/106 104/104/104
f 105/105/105 46/46/46 15/15/15
f 15/15/15 104/104/104 105/105/105
f 49/49/49 50/50/50 27/27/27
f 26/26/26 27/27/27 23/23/23
f 23/23/23 51/51/51 26/26/26
f 26/26/26 22/22/22 49/49/49
f 49/49/49 27/27/27 26/26/26
f 52/52/52 25/25/25 26/26/26
f 26/26/26 51/51/51 52/52/52
f 25/25/25 21/21/21 22/22/22
f 22/22/22 26/26/26 25/25/25
f 25/25/25 52/52/52 48/48/48
f 21/21/21 25/25/25 48/48/48
f 8/8/8 99/99/99 103/103/103
f 103/103/103 20/20/20 8/8/8
f 7/7/7 8/8/8 20/20/20
f 20/20/20 19/19/19 7/7/7
f 6/6/6 7/7/7 19/19/19
f 19/19/19 18/18/18 6/6/6
f 6/6/6 18/18/18 102/102/102
f 102/102/102 96/96/96 6/6/6
f 4/4/4 5/5/5 47/47/47
f 47/47/47 17/17/17 4/4/4
f 3/3/3 4/4/4 17/17/17
f 17/17/17 16/16/16 3/3/3
f 2/2/2 3/3/3 16/16/16
f 16/16/16 15/15/15 2/2/2
f 1/1/1 2/2/2 15/15/15
f 15/15/15 46/46/46 1/1/1
f 101/101/101 98/98/98 14/14/14
f 14/14/14 41/41/41 101/101/101
f 41/41/41 14/14/14 13/13/13
f 13/13/13 40/40/40 41/41/41
f 40/40/40 13/13/13 12/12/12
f 12/12/12 43/43/43 40/40/40
f 43/43/43 12/12/12 97/97/97
f 97/97/97 100/100/100 43/43/43
f 42/42/42 45/45/45 11/11/11
f 11/11/11 37/37/37 42/42/42
f 37/37/37 11/11/11 10/10/10
f 10/10/10 39/39/39 37/37/37
f 39/39/39 10/10/10 9/9/9
f 9/9/9 38/38/38 39/39/39
f 38/38/38 9/9/9 44/44/44
f 44/44/44 36/36/36 38/38/38
f 98/98/98 99/99/99 8/8/8
f 8/8/8 14/14/14 98/98/98
f 14/14/14 8/8/8 7/7/7
f 7/7/7 13/13/13 14/14/14
f 13/13/13 7/7/7 6/6/6
f 6/6/6 12/12/12 13/13/13
f 12/12/12 6/6/6 96/96/96
f 96/96/96 97/97/97 12/12/12
f 45/45/45 5/5/5 4/4/4
f 4/4/4 11/11/11 45/45/45
f 11/11/11 4/4/4 3/3/3
f 3/3/3 10/10/10 11/11/11
f 10/10/10 3/3/3 2/2/2
f 2/2/2 9/9/9 10/10/10
f 2/2/2 1/1/1 44/44/44
f 44/44/44 9/9/9 2/2/2
