# Recovered local-space geometry; original node transforms not applied
o mesh_0
v 16.97149658203125 -16.235992431640625 59.73368835449219
v 28.637752532958984 -11.710821151733398 58.713016510009766
v 33.14570617675781 -2.282921559526585e-05 58.31863784790039
v 28.63775634765625 11.710798263549805 58.71299743652344
v 16.971506118774414 16.23599624633789 59.73368835449219
v 5.305265426635742 11.7108154296875 60.754364013671875
v 0.7972850799560547 1.8074938452627975e-06 61.148738861083984
v 5.30523681640625 -11.71080493927002 60.75434494018555
v 15.273370742797852 -23.36212921142578 30.599773406982422
v 32.52208709716797 -16.850799560546875 29.0906925201416
v 39.18714904785156 1.8074938452627975e-06 28.507583618164062
v 32.5220947265625 16.8508243560791 29.0906982421875
v 15.273387908935547 23.36214828491211 30.599773406982422
v -1.9753189086914062 16.850839614868164 32.10884094238281
v -8.64040756225586 1.823196726036258e-05 32.69194793701172
v -1.975351333618164 -16.850793838500977 32.10884094238281
v 4.995840072631836 -26.10344696044922 -0.045196533203125
v 25.093557357788086 18.828075408935547 -0.045196533203125
v -15.101852416992188 18.828109741210938 -0.045192718505859375
v -22.86782455444336 2.6444207833264954e-05 -0.045192718505859375
v -15.101886749267578 -18.82807731628418 -0.045192718505859375
v 13.84099006652832 -7.1672773361206055 73.24939727783203
v 18.42884063720703 -4.76389217376709 73.42664337158203
v 19.792800903320312 -6.404743089660769e-06 73.68578338623047
v 18.42884063720703 4.763887882232666 73.42662048339844
v 13.840993881225586 7.167264461517334 73.2493896484375
v 8.556968688964844 5.39048957824707 73.39679718017578
v 6.421881198883057 1.8074938452627975e-06 73.49723815917969
v 8.556952476501465 -5.390485763549805 73.39678955078125
v 25.09354591369629 -18.828092575073242 -0.045196533203125
v 32.859493255615234 1.8074936178891221e-06 -0.045196533203125
v 4.995858669281006 26.103450775146484 -0.045196533203125
v -0.8566513061523438 1.8074938452627975e-06 87.97911834716797
v 1.2736568450927734 -6.136682510375977 87.75825500488281
v 7.547645568847656 -8.159422874450684 88.51222229003906
v 11.444774627685547 -5.423342704772949 92.53863525390625
v 12.0847749710083 -6.404743089660769e-06 94.62190246582031
v 11.444781303405762 5.423346519470215 92.53861236572266
v 7.547651290893555 8.159417152404785 88.5122299194336
v 1.2736625671386719 6.136694431304932 87.7582778930664
v 4.995837688446045 1.0019730325439014e-05 -0.045192718505859375
v 17.28263282775879 -21.84772300720215 62.15568542480469
v 32.72359085083008 -15.502449035644531 61.23965072631836
v 38.711246490478516 -2.4706152544240467e-05 60.86405563354492
v 32.723602294921875 15.50241756439209 61.23963928222656
v 17.282651901245117 21.84772300720215 62.15568923950195
v 1.488814353942871 15.878825187683105 63.10309982299805
v -4.897260665893555 5.0351800382486545e-06 63.390647888183594
v 1.4887809753417969 -15.878811836242676 63.10308074951172
v 15.551380157470703 -29.40631103515625 31.51896858215332
v 36.93522262573242 -21.086044311523438 29.293901443481445
v 45.30666732788086 3.586778802855406e-07 28.431005477905273
v 36.93523025512695 21.086069107055664 29.293907165527344
v 15.551400184631348 29.406330108642578 31.51896858215332
v -5.878293991088867 21.20449447631836 33.916290283203125
v -14.350746154785156 2.316154132131487e-05 34.893409729003906
v -5.878332138061523 -21.20444107055664 33.916290283203125
v 14.446121215820312 -12.920402526855469 75.246826171875
v 22.547061920166016 -8.172280311584473 76.4061508178711
v 24.997997283935547 3.0260753192123957e-07 76.90433502197266
v 22.547056198120117 8.172281265258789 76.4061279296875
v 14.446133613586426 12.920388221740723 75.24681854248047
v 4.510434150695801 9.941739082336426 73.99761962890625
v 0.30265045166015625 1.1014962183253374e-05 73.4608383178711
v 4.510405540466309 -9.94172477722168 73.99761199951172
v -6.708989143371582 4.998914846510161e-07 89.76898956298828
v -3.2434349060058594 -9.926069259643555 89.39818572998047
v 7.223043441772461 -13.997557640075684 90.31903076171875
v 13.57876205444336 -9.081766128540039 96.95629119873047
v 14.184016227722168 -2.2781841835239902e-06 100.37039947509766
v 13.57878589630127 9.08177375793457 96.95626068115234
v 7.223057270050049 13.997552871704102 90.31903839111328
v -3.2434234619140625 9.926081657409668 89.39823150634766
v 29.170000076293945 23.085250854492188 -1.6924667358398438
v 29.16999626159668 -23.085269927978516 -1.6924629211425781
v -28.334430694580078 1.6863328710314818e-05 2.7062644958496094
v 5.125997543334961 32.2196044921875 -0.21870803833007812
v 5.125979423522949 -32.2196044921875 -0.21870040893554688
v 38.572837829589844 -3.262152404204244e-06 -2.2388381958007812
v -18.969467163085938 -23.236846923828125 1.70379638671875
v -18.969446182250977 23.23686981201172 1.7037925720214844
v 33.14570617675781 -2.282921559526585e-05 58.31863784790039
v 39.18714904785156 1.8074938452627975e-06 28.507583618164062
v 0.7972850799560547 1.8074938452627975e-06 61.148738861083984
v -8.64040756225586 1.823196726036258e-05 32.69194793701172
v 32.859493255615234 1.8074936178891221e-06 -0.045196533203125
v -22.86782455444336 2.6444207833264954e-05 -0.045192718505859375
v 19.792800903320312 -6.404743089660769e-06 73.68578338623047
v 6.421881198883057 1.8074938452627975e-06 73.49723815917969
v 1.2736568450927734 -6.136682510375977 87.75825500488281
v 1.2736568450927734 -6.136682510375977 87.75825500488281
v 11.444774627685547 -5.423342704772949 92.53863525390625
v 12.0847749710083 -6.404743089660769e-06 94.62190246582031
v -0.8566513061523438 1.8074938452627975e-06 87.97911834716797
v -0.8566513061523438 1.8074938452627975e-06 87.97911834716797
v 12.0847749710083 -6.404743089660769e-06 94.62190246582031
v 11.444781303405762 5.423346519470215 92.53861236572266
v 11.444781303405762 5.423346519470215 92.53861236572266
v 1.2736625671386719 6.136694431304932 87.7582778930664
v 18.42884063720703 -4.76389217376709 73.42664337158203
v 11.444774627685547 -5.423342704772949 92.53863525390625
v 7.547645568847656 -8.159422874450684 88.51222229003906
v 7.547645568847656 -8.159422874450684 88.51222229003906
v 13.84099006652832 -7.1672773361206055 73.24939727783203
v 18.42884063720703 -4.76389217376709 73.42664337158203
v 19.792800903320312 -6.404743089660769e-06 73.68578338623047
v 12.0847749710083 -6.404743089660769e-06 94.62190246582031
v 11.444774627685547 -5.423342704772949 92.53863525390625
v 11.444774627685547 -5.423342704772949 92.53863525390625
v 18.42884063720703 -4.76389217376709 73.42664337158203
v 19.792800903320312 -6.404743089660769e-06 73.68578338623047
v 18.42884063720703 4.763887882232666 73.42662048339844
v 11.444781303405762 5.423346519470215 92.53861236572266
v 12.0847749710083 -6.404743089660769e-06 94.62190246582031
v 12.0847749710083 -6.404743089660769e-06 94.62190246582031
v 19.792800903320312 -6.404743089660769e-06 73.68578338623047
v 18.42884063720703 4.763887882232666 73.42662048339844
v 13.840993881225586 7.167264461517334 73.2493896484375
v 7.547651290893555 8.159417152404785 88.5122299194336
v 11.444781303405762 5.423346519470215 92.53861236572266
v 11.444781303405762 5.423346519470215 92.53861236572266
v 18.42884063720703 4.763887882232666 73.42662048339844
v 13.840993881225586 7.167264461517334 73.2493896484375
v 8.556968688964844 5.39048957824707 73.39679718017578
v 1.2736625671386719 6.136694431304932 87.7582778930664
v 7.547651290893555 8.159417152404785 88.5122299194336
v 7.547651290893555 8.159417152404785 88.5122299194336
v 13.840993881225586 7.167264461517334 73.2493896484375
v 8.556968688964844 5.39048957824707 73.39679718017578
v 6.421881198883057 1.8074938452627975e-06 73.49723815917969
v -0.8566513061523438 1.8074938452627975e-06 87.97911834716797
v 1.2736625671386719 6.136694431304932 87.7582778930664
v 1.2736625671386719 6.136694431304932 87.7582778930664
v 8.556968688964844 5.39048957824707 73.39679718017578
v 6.421881198883057 1.8074938452627975e-06 73.49723815917969
v 8.556952476501465 -5.390485763549805 73.39678955078125
v 1.2736568450927734 -6.136682510375977 87.75825500488281
v -0.8566513061523438 1.8074938452627975e-06 87.97911834716797
v -0.8566513061523438 1.8074938452627975e-06 87.97911834716797
v 6.421881198883057 1.8074938452627975e-06 73.49723815917969
v 8.556952476501465 -5.390485763549805 73.39678955078125
v 13.84099006652832 -7.1672773361206055 73.24939727783203
v 7.547645568847656 -8.159422874450684 88.51222229003906
v 1.2736568450927734 -6.136682510375977 87.75825500488281
v 1.2736568450927734 -6.136682510375977 87.75825500488281
v 8.556952476501465 -5.390485763549805 73.39678955078125
v 13.84099006652832 -7.1672773361206055 73.24939727783203
v 4.995840072631836 -26.10344696044922 -0.045196533203125
v 25.09354591369629 -18.828092575073242 -0.045196533203125
v 4.995858669281006 26.103450775146484 -0.045196533203125
v -15.101852416992188 18.828109741210938 -0.045192718505859375
v -15.101852416992188 18.828109741210938 -0.045192718505859375
v 4.995837688446045 1.0019730325439014e-05 -0.045192718505859375
v -22.86782455444336 2.6444207833264954e-05 -0.045192718505859375
v -22.86782455444336 2.6444207833264954e-05 -0.045192718505859375
v -15.101886749267578 -18.82807731628418 -0.045192718505859375
v -15.101886749267578 -18.82807731628418 -0.045192718505859375
v 4.995840072631836 -26.10344696044922 -0.045196533203125
v 25.09354591369629 -18.828092575073242 -0.045196533203125
v 32.859493255615234 1.8074936178891221e-06 -0.045196533203125
v 32.859493255615234 1.8074936178891221e-06 -0.045196533203125
v 25.093557357788086 18.828075408935547 -0.045196533203125
v 25.093557357788086 18.828075408935547 -0.045196533203125
v 4.995858669281006 26.103450775146484 -0.045196533203125
v 13.57876205444336 -9.081766128540039 96.95629119873047
v -3.2434349060058594 -9.926069259643555 89.39818572998047
v -3.2434349060058594 -9.926069259643555 89.39818572998047
v 14.184016227722168 -2.2781841835239902e-06 100.37039947509766
v 14.184016227722168 -2.2781841835239902e-06 100.37039947509766
v -6.708989143371582 4.998914846510161e-07 89.76898956298828
v -6.708989143371582 4.998914846510161e-07 89.76898956298828
v 13.57878589630127 9.08177375793457 96.95626068115234
v 13.57878589630127 9.08177375793457 96.95626068115234
v -3.2434234619140625 9.926081657409668 89.39823150634766
v 22.547061920166016 -8.172280311584473 76.4061508178711
v 14.446121215820312 -12.920402526855469 75.246826171875
v 7.223043441772461 -13.997557640075684 90.31903076171875
v 7.223043441772461 -13.997557640075684 90.31903076171875
v 13.57876205444336 -9.081766128540039 96.95629119873047
v 22.547061920166016 -8.172280311584473 76.4061508178711
v 24.997997283935547 3.0260753192123957e-07 76.90433502197266
v 22.547061920166016 -8.172280311584473 76.4061508178711
v 13.57876205444336 -9.081766128540039 96.95629119873047
v 13.57876205444336 -9.081766128540039 96.95629119873047
v 14.184016227722168 -2.2781841835239902e-06 100.37039947509766
v 24.997997283935547 3.0260753192123957e-07 76.90433502197266
v 22.547056198120117 8.172281265258789 76.4061279296875
v 24.997997283935547 3.0260753192123957e-07 76.90433502197266
v 14.184016227722168 -2.2781841835239902e-06 100.37039947509766
v 14.184016227722168 -2.2781841835239902e-06 100.37039947509766
v 13.57878589630127 9.08177375793457 96.95626068115234
v 22.547056198120117 8.172281265258789 76.4061279296875
v 14.446133613586426 12.920388221740723 75.24681854248047
v 22.547056198120117 8.172281265258789 76.4061279296875
v 13.57878589630127 9.08177375793457 96.95626068115234
v 13.57878589630127 9.08177375793457 96.95626068115234
v 7.223057270050049 13.997552871704102 90.31903839111328
v 14.446133613586426 12.920388221740723 75.24681854248047
v 4.510434150695801 9.941739082336426 73.99761962890625
v 14.446133613586426 12.920388221740723 75.24681854248047
v 7.223057270050049 13.997552871704102 90.31903839111328
v 7.223057270050049 13.997552871704102 90.31903839111328
v -3.2434234619140625 9.926081657409668 89.39823150634766
v 4.510434150695801 9.941739082336426 73.99761962890625
v 0.30265045166015625 1.1014962183253374e-05 73.4608383178711
v 4.510434150695801 9.941739082336426 73.99761962890625
v -3.2434234619140625 9.926081657409668 89.39823150634766
v -3.2434234619140625 9.926081657409668 89.39823150634766
v -6.708989143371582 4.998914846510161e-07 89.76898956298828
v 0.30265045166015625 1.1014962183253374e-05 73.4608383178711
v 4.510405540466309 -9.94172477722168 73.99761199951172
v 0.30265045166015625 1.1014962183253374e-05 73.4608383178711
v -6.708989143371582 4.998914846510161e-07 89.76898956298828
v -6.708989143371582 4.998914846510161e-07 89.76898956298828
v -3.2434349060058594 -9.926069259643555 89.39818572998047
v 4.510405540466309 -9.94172477722168 73.99761199951172
v 14.446121215820312 -12.920402526855469 75.246826171875
v 4.510405540466309 -9.94172477722168 73.99761199951172
v -3.2434349060058594 -9.926069259643555 89.39818572998047
v -3.2434349060058594 -9.926069259643555 89.39818572998047
v 7.223043441772461 -13.997557640075684 90.31903076171875
v 14.446121215820312 -12.920402526855469 75.246826171875
vt 0.8479114770889282 0.6653481721878052
vt 0.8146838545799255 0.6653300523757935
vt 0.7809338569641113 0.6644694805145264
vt 0.8146838545799255 0.6653300523757935
vt 0.7809338569641113 0.6644694805145264
vt 0.8146838545799255 0.6653300523757935
vt 0.8479114770889282 0.6653481721878052
vt 0.8146838545799255 0.6653300523757935
vt 0.8569254279136658 0.692004382610321
vt 0.8147310614585876 0.6927744150161743
vt 0.7707938551902771 0.6913067698478699
vt 0.8147310614585876 0.6927744150161743
vt 0.7707938551902771 0.6913067698478699
vt 0.8147310614585876 0.6927744150161743
vt 0.8569254279136658 0.692004382610321
vt 0.8147310614585876 0.6927744150161743
vt 0.861419141292572 0.7480244636535645
vt 0.8148248195648193 0.7481285333633423
vt 0.8148248195648193 0.7481285333633423
vt 0.861419141292572 0.7480244636535645
vt 0.8148248195648193 0.7481285333633423
vt 0.83135986328125 0.647112250328064
vt 0.8146044015884399 0.6469837427139282
vt 0.7968627214431763 0.6471027135848999
vt 0.8146044015884399 0.6469837427139282
vt 0.7968627214431763 0.6471027135848999
vt 0.8146044015884399 0.6469837427139282
vt 0.83135986328125 0.647112250328064
vt 0.8146044015884399 0.6469837427139282
vt 0.8148248195648193 0.7481285333633423
vt 0.7670742273330688 0.747978150844574
vt 0.7670742273330688 0.747978150844574
vt 0.8119348883628845 0.6521152257919312
vt 0.7874394059181213 0.6521152257919312
vt 0.8402628302574158 0.6521152257919312
vt 0.7874394059181213 0.6521152257919312
vt 0.8119348883628845 0.6521152257919312
vt 0.8119348883628845 0.6521152257919312
vt 0.7874394059181213 0.6521152257919312
vt 0.8119348883628845 0.6521152257919312
vt 0.31360572576522827 0.37580060958862305
vt 0.6082540154457092 0.6390203237533569
vt 0.6082696318626404 0.6390179395675659
vt 0.6082846522331238 0.6390218734741211
vt 0.6083001494407654 0.6390228271484375
vt 0.6083161234855652 0.6390203237533569
vt 0.6082167029380798 0.639022707939148
vt 0.6082294583320618 0.6390236616134644
vt 0.6082404255867004 0.639022707939148
vt 0.6082602143287659 0.6390366554260254
vt 0.6082735657691956 0.6390330791473389
vt 0.6082846522331238 0.6390317678451538
vt 0.6082952618598938 0.6390330791473389
vt 0.6083109974861145 0.6390366554260254
vt 0.6082137227058411 0.6390402317047119
vt 0.6082294583320618 0.6390416622161865
vt 0.6082447171211243 0.6390402317047119
vt 0.6082046627998352 0.6390295028686523
vt 0.6082037091255188 0.6390295028686523
vt 0.6082026362419128 0.6390295028686523
vt 0.6082037091255188 0.6390295028686523
vt 0.6082026362419128 0.6390295028686523
vt 0.6082037091255188 0.6390295028686523
vt 0.6082046627998352 0.6390295028686523
vt 0.6082037091255188 0.6390295028686523
vt 0.6082063317298889 0.6390283107757568
vt 0.6082059741020203 0.6390283107757568
vt 0.6082069277763367 0.6390283107757568
vt 0.6082059741020203 0.6390283107757568
vt 0.6082063317298889 0.6390283107757568
vt 0.6082063317298889 0.6390283107757568
vt 0.6082059741020203 0.6390283107757568
vt 0.6082063317298889 0.6390283107757568
vt 0.6082947850227356 0.6390509605407715
vt 0.6082740426063538 0.6390509605407715
vt 0.6082294583320618 0.6390631198883057
vt 0.6083099246025085 0.6390560865402222
vt 0.6082615256309509 0.6390560865402222
vt 0.6082846522331238 0.6390489339828491
vt 0.608246386051178 0.6390612125396729
vt 0.608212411403656 0.6390612125396729
vt 0.8479114770889282 0.6653481721878052
vt 0.8569254279136658 0.692004382610321
vt 0.7809338569641113 0.6644694805145264
vt 0.7707938551902771 0.6913067698478699
vt 0.861419141292572 0.7480244636535645
vt 0.7670742273330688 0.747978150844574
vt 0.83135986328125 0.647112250328064
vt 0.7968627214431763 0.6471027135848999
vt 0.7874394059181213 0.6521152257919312
vt 0.7874394059181213 0.6521152257919312
vt 0.7874394059181213 0.6521152257919312
vt 0.8119348883628845 0.6521152257919312
vt 0.8119348883628845 0.6521152257919312
vt 0.8119348883628845 0.6521152257919312
vt 0.8119348883628845 0.6521152257919312
vt 0.8119348883628845 0.6521152257919312
vt 0.8119348883628845 0.6521152257919312
vt 0.8119348883628845 0.6521152257919312
vt 0.8126643300056458 0.6535871028900146
vt 0.8126479983329773 0.6521422266960144
vt 0.8397294878959656 0.6521422863006592
vt 0.8397294878959656 0.6521422863006592
vt 0.8377177119255066 0.6535895466804504
vt 0.8126643300056458 0.6535871028900146
vt 0.7895029187202454 0.6535841226577759
vt 0.7876449227333069 0.6521422266960144
vt 0.8126586079597473 0.6521422266960144
vt 0.8126586079597473 0.6521422266960144
vt 0.812676727771759 0.6535866260528564
vt 0.7895029187202454 0.6535841226577759
vt 0.8126643300056458 0.6535871028900146
vt 0.8126479983329773 0.6521422266960144
vt 0.8397294878959656 0.6521422863006592
vt 0.8397294878959656 0.6521422863006592
vt 0.8377177119255066 0.6535895466804504
vt 0.8126643300056458 0.6535871028900146
vt 0.7895029187202454 0.6535841226577759
vt 0.7876449227333069 0.6521422266960144
vt 0.8126586079597473 0.6521422266960144
vt 0.8126586079597473 0.6521422266960144
vt 0.812676727771759 0.6535866260528564
vt 0.7895029187202454 0.6535841226577759
vt 0.8126643300056458 0.6535871028900146
vt 0.8126479983329773 0.6521422266960144
vt 0.8397294878959656 0.6521422863006592
vt 0.8397294878959656 0.6521422863006592
vt 0.8377177119255066 0.6535895466804504
vt 0.8126643300056458 0.6535871028900146
vt 0.7895029187202454 0.6535841226577759
vt 0.7876449227333069 0.6521422266960144
vt 0.8126586079597473 0.6521422266960144
vt 0.8126586079597473 0.6521422266960144
vt 0.812676727771759 0.6535866260528564
vt 0.7895029187202454 0.6535841226577759
vt 0.8126643300056458 0.6535871028900146
vt 0.8126479983329773 0.6521422266960144
vt 0.8397294878959656 0.6521422863006592
vt 0.8397294878959656 0.6521422863006592
vt 0.8377177119255066 0.6535895466804504
vt 0.8126643300056458 0.6535871028900146
vt 0.7895029187202454 0.6535841226577759
vt 0.7876449227333069 0.6521422266960144
vt 0.8126586079597473 0.6521422266960144
vt 0.8126586079597473 0.6521422266960144
vt 0.812676727771759 0.6535866260528564
vt 0.7895029187202454 0.6535841226577759
vt 0.2582303285598755 0.4970184564590454
vt 0.37059271335601807 0.4970184564590454
vt 0.2582303285598755 0.4970184564590454
vt 0.37059271335601807 0.4970184564590454
vt 0.3508462607860565 0.4970184564590454
vt 0.3150276243686676 0.37580060958862305
vt 0.27816644310951233 0.4970184564590454
vt 0.2582303285598755 0.4970184564590454
vt 0.37059271335601807 0.4970184564590454
vt 0.3508462607860565 0.4970184564590454
vt 0.27816644310951233 0.4970184564590454
vt 0.3508462607860565 0.4970184564590454
vt 0.27816644310951233 0.4970184564590454
vt 0.2582303285598755 0.4970184564590454
vt 0.37059271335601807 0.4970184564590454
vt 0.3508462607860565 0.4970184564590454
vt 0.27816644310951233 0.4970184564590454
vt 0.6082059741020203 0.6390283107757568
vt 0.6082059741020203 0.6390283107757568
vt 0.6082059741020203 0.6390283107757568
vt 0.6082063317298889 0.6390283107757568
vt 0.6082063317298889 0.6390283107757568
vt 0.6082063317298889 0.6390283107757568
vt 0.6082063317298889 0.6390283107757568
vt 0.6082063317298889 0.6390283107757568
vt 0.6082063317298889 0.6390283107757568
vt 0.6082063317298889 0.6390283107757568
vt 0.6082064509391785 0.6390297412872314
vt 0.6082068085670471 0.6390297412872314
vt 0.6082069277763367 0.6390284299850464
vt 0.6082069277763367 0.6390284299850464
vt 0.6082064509391785 0.6390284299850464
vt 0.6082064509391785 0.6390297412872314
vt 0.6082060933113098 0.6390297412872314
vt 0.6082064509391785 0.6390297412872314
vt 0.6082064509391785 0.6390284299850464
vt 0.6082064509391785 0.6390284299850464
vt 0.6082059741020203 0.6390284299850464
vt 0.6082060933113098 0.6390297412872314
vt 0.6082064509391785 0.6390297412872314
vt 0.6082068085670471 0.6390297412872314
vt 0.6082069277763367 0.6390284299850464
vt 0.6082069277763367 0.6390284299850464
vt 0.6082064509391785 0.6390284299850464
vt 0.6082064509391785 0.6390297412872314
vt 0.6082060933113098 0.6390297412872314
vt 0.6082064509391785 0.6390297412872314
vt 0.6082064509391785 0.6390284299850464
vt 0.6082064509391785 0.6390284299850464
vt 0.6082059741020203 0.6390284299850464
vt 0.6082060933113098 0.6390297412872314
vt 0.6082064509391785 0.6390297412872314
vt 0.6082068085670471 0.6390297412872314
vt 0.6082069277763367 0.6390284299850464
vt 0.6082069277763367 0.6390284299850464
vt 0.6082064509391785 0.6390284299850464
vt 0.6082064509391785 0.6390297412872314
vt 0.6082060933113098 0.6390297412872314
vt 0.6082064509391785 0.6390297412872314
vt 0.6082064509391785 0.6390284299850464
vt 0.6082064509391785 0.6390284299850464
vt 0.6082059741020203 0.6390284299850464
vt 0.6082060933113098 0.6390297412872314
vt 0.6082064509391785 0.6390297412872314
vt 0.6082068085670471 0.6390297412872314
vt 0.6082069277763367 0.6390284299850464
vt 0.6082069277763367 0.6390284299850464
vt 0.6082064509391785 0.6390284299850464
vt 0.6082064509391785 0.6390297412872314
vt 0.6082060933113098 0.6390297412872314
vt 0.6082064509391785 0.6390297412872314
vt 0.6082064509391785 0.6390284299850464
vt 0.6082064509391785 0.6390284299850464
vt 0.6082059741020203 0.6390284299850464
vt 0.6082060933113098 0.6390297412872314
vn 0.09881983697414398 -0.9240928292274475 0.36917078495025635
vn 0.6636013388633728 -0.6098811626434326 0.43321850895881653
vn 0.8957508206367493 0.02012973092496395 0.444100558757782
vn 0.6365296244621277 0.6278877854347229 0.44786933064460754
vn 0.024487584829330444 0.9064655303955078 0.42156919836997986
vn -0.6372552514076233 0.6589294075965881 0.399647057056427
vn -0.9311496615409851 -0.002750560874119401 0.36462682485580444
vn -0.5908647775650024 -0.7038578391075134 0.39428794384002686
vn 0.011662357486784458 -0.9889304637908936 0.14792084693908691
vn 0.7034195065498352 -0.7101869583129883 0.02890700101852417
vn 0.9999392628669739 0.004650663118809462 -0.009991226717829704
vn 0.7003687620162964 0.7115060687065125 0.05694492906332016
vn 0.01632946915924549 0.9837791919708252 0.1786389797925949
vn -0.6511787176132202 0.6920392513275146 0.3115251958370209
vn -0.9343671798706055 -0.000301606283755973 0.35631147027015686
vn -0.6584201455116272 -0.6951013207435608 0.28864702582359314
vn -0.11507005244493484 -0.985306441783905 0.12621469795703888
vn 0.7788914442062378 0.6075493097305298 -0.15560214221477509
vn -0.5478224754333496 0.7908667922019958 0.2728007435798645
vn -0.9100924730300903 0.12462807446718216 0.39522114396095276
vn -0.737123429775238 -0.5855928063392639 0.337239146232605
vn 0.039903461933135986 -0.824361264705658 0.5646558403968811
vn 0.6329873204231262 -0.42742279171943665 0.6454741358757019
vn 0.7540812492370605 0.08937849849462509 0.6506713032722473
vn 0.5017484426498413 0.5994206666946411 0.6236533522605896
vn -0.06381833553314209 0.8374086022377014 0.5428388714790344
vn -0.7066207528114319 0.5440001487731934 0.45249417424201965
vn -0.902957558631897 -0.12049080431461334 0.41249221563339233
vn -0.6062175631523132 -0.6379702091217041 0.47486254572868347
vn 0.5761532783508301 -0.8118776679039001 -0.09435071051120758
vn 0.9676324129104614 -0.13023217022418976 -0.21616463363170624
vn 0.12632542848587036 0.9907894730567932 0.0487658716738224
vn -0.44858118891716003 -0.1871749460697174 0.87392258644104
vn -0.2910468876361847 -0.6365192532539368 0.7142373919487
vn -0.2910468876361847 -0.6365192532539368 0.7142373919487
vn -0.2910468876361847 -0.6365192532539368 0.7142373919487
vn -0.44858118891716003 -0.1871749460697174 0.87392258644104
vn -0.40882304310798645 0.17415887117385864 0.8958417177200317
vn -0.29104357957839966 0.6365195512771606 0.7142384052276611
vn -0.40882304310798645 0.17415887117385864 0.8958417177200317
vn -5.290171500860197e-08 1.4613763710258354e-07 -1.0
vn -0.1043873280286789 0.9219344854354858 -0.3730148673057556
vn -0.663434624671936 0.6111876368522644 -0.4316296875476837
vn -0.8975201845169067 -0.017547430470585823 -0.4406241178512573
vn -0.6391659379005432 -0.6277725100517273 -0.4442618191242218
vn -0.02482919953763485 -0.9051595330238342 -0.42434626817703247
vn 0.637301504611969 -0.651807963848114 -0.4110878109931946
vn 0.9225406050682068 0.006015123799443245 -0.385853111743927
vn 0.5896944403648376 0.6954759359359741 -0.41057729721069336
vn -0.01827712543308735 0.9889428019523621 -0.14716747403144836
vn -0.707539439201355 0.7060521841049194 -0.02963586151599884
vn -0.9999560117721558 -0.0042377617210149765 0.008378630504012108
vn -0.7042098045349121 -0.7077162265777588 -0.0568014495074749
vn -0.023419946432113647 -0.9836065769195557 -0.1788010150194168
vn 0.6484084129333496 -0.6947221755981445 -0.3113320767879486
vn 0.9343539476394653 -0.00010177552758250386 -0.35634633898735046
vn 0.6551044583320618 0.6986582279205322 -0.28760209679603577
vn -0.026389507576823235 0.8166553974151611 -0.5765219330787659
vn -0.631624698638916 0.4385662376880646 -0.6393042206764221
vn -0.7586161494255066 -0.09244292229413986 -0.6449463963508606
vn -0.4973684549331665 -0.6049430966377258 -0.621826708316803
vn 0.08244582265615463 -0.8249721527099609 -0.5591275691986084
vn 0.7012249231338501 -0.5217835903167725 -0.4858245551586151
vn 0.8846562504768372 0.12194942682981491 -0.4500131905078888
vn 0.6159576177597046 0.6072931885719299 -0.5017880201339722
vn 0.4444364607334137 0.18788906931877136 -0.8758846521377563
vn 0.3005179464817047 0.6059478521347046 -0.7365570068359375
vn 0.3005179464817047 0.6059478521347046 -0.7365570068359375
vn 0.3005179464817047 0.6059478521347046 -0.7365570068359375
vn 0.37775617837905884 0.30364981293678284 -0.874698281288147
vn 0.43280091881752014 -0.2918105721473694 -0.8529537916183472
vn 0.3005145788192749 -0.6059485673904419 -0.7365578413009644
vn 0.39650842547416687 -0.17211806774139404 -0.9017519950866699
vn -0.7811535000801086 -0.6047166585922241 0.1552964150905609
vn -0.5827005505561829 0.8070278763771057 0.0957399383187294
vn 0.9098756909370422 -0.12733441591262817 -0.39485716819763184
vn -0.13578397035598755 -0.9897209405899048 -0.04489047825336456
vn 0.10925145447254181 0.9862453937530518 -0.12403298169374466
vn -0.9679986834526062 0.13115213811397552 0.21395723521709442
vn 0.7334840297698975 0.5909560918807983 -0.33581551909446716
vn 0.5449877977371216 -0.7935048937797546 -0.27081039547920227
vn 0.8957508206367493 0.02012973092496395 0.444100558757782
vn 0.9999392628669739 0.004650663118809462 -0.009991226717829704
vn -0.9311496615409851 -0.002750560874119401 0.36462682485580444
vn -0.9343671798706055 -0.000301606283755973 0.35631147027015686
vn 0.9676324129104614 -0.13023217022418976 -0.21616463363170624
vn -0.9100924730300903 0.12462807446718216 0.39522114396095276
vn 0.7540812492370605 0.08937849849462509 0.6506713032722473
vn -0.902957558631897 -0.12049080431461334 0.41249221563339233
vn -0.44858118891716003 -0.1871749460697174 0.87392258644104
vn -0.3904159367084503 -0.28961795568466187 0.8738974928855896
vn -0.3904159367084503 -0.28961795568466187 0.8738974928855896
vn -0.3904159367084503 -0.28961795568466187 0.8738974928855896
vn -0.40882304310798645 0.17415887117385864 0.8958417177200317
vn -0.43883243203163147 0.2766219675540924 0.8549306392669678
vn -0.43883243203163147 0.2766219675540924 0.8549306392669678
vn -0.43883243203163147 0.2766219675540924 0.8549306392669678
vn -0.29104357957839966 0.6365195512771606 0.7142384052276611
vn -0.29104357957839966 0.6365195512771606 0.7142384052276611
vn 0.46740224957466125 -0.8727784752845764 0.1406872719526291
vn 0.46740224957466125 -0.8727784752845764 0.1406872719526291
vn 0.46740224957466125 -0.8727784752845764 0.1406872719526291
vn 0.4560813307762146 -0.8802680373191833 0.13083574175834656
vn 0.4560813307762146 -0.8802680373191833 0.13083574175834656
vn 0.4560813307762146 -0.8802680373191833 0.13083574175834656
vn 0.9117873311042786 -0.2365480363368988 0.3356916606426239
vn 0.9117873311042786 -0.2365480363368988 0.3356916606426239
vn 0.9117873311042786 -0.2365480363368988 0.3356916606426239
vn 0.9056010842323303 -0.27676713466644287 0.32138270139694214
vn 0.9056010842323303 -0.27676713466644287 0.32138270139694214
vn 0.9056010842323303 -0.27676713466644287 0.32138270139694214
vn 0.9158486127853394 0.2335416078567505 0.3266185224056244
vn 0.9158486127853394 0.2335416078567505 0.3266185224056244
vn 0.9158486127853394 0.2335416078567505 0.3266185224056244
vn 0.9018921852111816 0.2762865126132965 0.33204853534698486
vn 0.9018921852111816 0.2762865126132965 0.33204853534698486
vn 0.9018921852111816 0.2762865126132965 0.33204853534698486
vn 0.4702697992324829 0.871786892414093 0.1372368037700653
vn 0.4702697992324829 0.871786892414093 0.1372368037700653
vn 0.4702697992324829 0.871786892414093 0.1372368037700653
vn 0.45558884739875793 0.8797200322151184 0.13613027334213257
vn 0.45558884739875793 0.8797200322151184 0.13613027334213257
vn 0.45558884739875793 0.8797200322151184 0.13613027334213257
vn -0.2803232967853546 0.9407029747962952 -0.19104140996932983
vn -0.2803232967853546 0.9407029747962952 -0.19104140996932983
vn -0.2803232967853546 0.9407029747962952 -0.19104140996932983
vn -0.3176211416721344 0.9287128448486328 -0.1913355439901352
vn -0.3176211416721344 0.9287128448486328 -0.1913355439901352
vn -0.3176211416721344 0.9287128448486328 -0.1913355439901352
vn -0.8572153449058533 0.2820725440979004 -0.43083280324935913
vn -0.8572153449058533 0.2820725440979004 -0.43083280324935913
vn -0.8572153449058533 0.2820725440979004 -0.43083280324935913
vn -0.8370768427848816 0.3233299255371094 -0.4413163959980011
vn -0.8370768427848816 0.3233299255371094 -0.4413163959980011
vn -0.8370768427848816 0.3233299255371094 -0.4413163959980011
vn -0.8504713773727417 -0.2791901230812073 -0.4458155930042267
vn -0.8504713773727417 -0.2791901230812073 -0.4458155930042267
vn -0.8504713773727417 -0.2791901230812073 -0.4458155930042267
vn -0.8445056676864624 -0.3265835642814636 -0.4244450032711029
vn -0.8445056676864624 -0.3265835642814636 -0.4244450032711029
vn -0.8445056676864624 -0.3265835642814636 -0.4244450032711029
vn -0.2825431525707245 -0.9426372647285461 -0.17777669429779053
vn -0.2825431525707245 -0.9426372647285461 -0.17777669429779053
vn -0.2825431525707245 -0.9426372647285461 -0.17777669429779053
vn -0.31692296266555786 -0.9251833558082581 -0.2087957113981247
vn -0.31692296266555786 -0.9251833558082581 -0.2087957113981247
vn -0.31692296266555786 -0.9251833558082581 -0.2087957113981247
vn -5.290171500860197e-08 1.4613763710258354e-07 -1.0
vn -5.290171500860197e-08 1.4613763710258354e-07 -1.0
vn -1.369059674516393e-07 -1.461376086808741e-07 -1.0
vn -1.369059674516393e-07 -1.461376086808741e-07 -1.0
vn 0.0 0.0 -1.0
vn 0.0 0.0 -1.0
vn 0.0 0.0 -1.0
vn 0.0 0.0 -1.0
vn 0.0 0.0 -1.0
vn -1.3690562639112613e-07 1.461376086808741e-07 -1.0
vn -1.3690562639112613e-07 1.461376086808741e-07 -1.0
vn -1.3690583955394686e-07 5.646899126077187e-08 -1.0
vn -1.3690583955394686e-07 5.646899126077187e-08 -1.0
vn -1.3690585376480158e-07 -5.6468980602630836e-08 -1.0
vn -1.3690585376480158e-07 -5.6468980602630836e-08 -1.0
vn -5.2901899749713266e-08 -1.4613766552429297e-07 -1.0
vn -5.2901899749713266e-08 -1.4613766552429297e-07 -1.0
vn 0.37775617837905884 0.30364981293678284 -0.874698281288147
vn 0.37775617837905884 0.30364981293678284 -0.874698281288147
vn 0.4444364607334137 0.18788906931877136 -0.8758846521377563
vn 0.4444364607334137 0.18788906931877136 -0.8758846521377563
vn 0.43280091881752014 -0.2918105721473694 -0.8529537916183472
vn 0.43280091881752014 -0.2918105721473694 -0.8529537916183472
vn 0.39650842547416687 -0.17211806774139404 -0.9017519950866699
vn 0.39650842547416687 -0.17211806774139404 -0.9017519950866699
vn 0.3005145788192749 -0.6059485673904419 -0.7365578413009644
vn 0.3005145788192749 -0.6059485673904419 -0.7365578413009644
vn -0.4803388714790344 0.8607096076011658 -0.16868187487125397
vn -0.4803388714790344 0.8607096076011658 -0.16868187487125397
vn -0.4803388714790344 0.8607096076011658 -0.16868187487125397
vn -0.4832379221916199 0.8582448959350586 -0.17290692031383514
vn -0.4832379221916199 0.8582448959350586 -0.17290692031383514
vn -0.4832379221916199 0.8582448959350586 -0.17290692031383514
vn -0.8824643492698669 0.28735998272895813 -0.37239915132522583
vn -0.8824643492698669 0.28735998272895813 -0.37239915132522583
vn -0.8824643492698669 0.28735998272895813 -0.37239915132522583
vn -0.8873864412307739 0.21287217736244202 -0.40893861651420593
vn -0.8873864412307739 0.21287217736244202 -0.40893861651420593
vn -0.8873864412307739 0.21287217736244202 -0.40893861651420593
vn -0.8704032301902771 -0.2854948043823242 -0.4011121690273285
vn -0.8704032301902771 -0.2854948043823242 -0.4011121690273285
vn -0.8704032301902771 -0.2854948043823242 -0.4011121690273285
vn -0.9004682898521423 -0.20434091985225677 -0.38392922282218933
vn -0.9004682898521423 -0.20434091985225677 -0.38392922282218933
vn -0.9004682898521423 -0.20434091985225677 -0.38392922282218933
vn -0.4798245131969452 -0.8604758977890015 -0.17131760716438293
vn -0.4798245131969452 -0.8604758977890015 -0.17131760716438293
vn -0.4798245131969452 -0.8604758977890015 -0.17131760716438293
vn -0.48480224609375 -0.8577381372451782 -0.17103242874145508
vn -0.48480224609375 -0.8577381372451782 -0.17103242874145508
vn -0.48480224609375 -0.8577381372451782 -0.17103242874145508
vn 0.259588360786438 -0.94643235206604 0.19204139709472656
vn 0.259588360786438 -0.94643235206604 0.19204139709472656
vn 0.259588360786438 -0.94643235206604 0.19204139709472656
vn 0.3439236283302307 -0.9230694770812988 0.17221927642822266
vn 0.3439236283302307 -0.9230694770812988 0.17221927642822266
vn 0.3439236283302307 -0.9230694770812988 0.17221927642822266
vn 0.8287726640701294 -0.37328261137008667 0.41688868403434753
vn 0.8287726640701294 -0.37328261137008667 0.41688868403434753
vn 0.8287726640701294 -0.37328261137008667 0.41688868403434753
vn 0.8784798979759216 -0.2926023304462433 0.37769952416419983
vn 0.8784798979759216 -0.2926023304462433 0.37769952416419983
vn 0.8784798979759216 -0.2926023304462433 0.37769952416419983
vn 0.8499712944030762 0.37947407364845276 0.36544278264045715
vn 0.8499712944030762 0.37947407364845276 0.36544278264045715
vn 0.8499712944030762 0.37947407364845276 0.36544278264045715
vn 0.8567761182785034 0.283028244972229 0.4310796856880188
vn 0.8567761182785034 0.283028244972229 0.4310796856880188
vn 0.8567761182785034 0.283028244972229 0.4310796856880188
vn 0.26900890469551086 0.9537044167518616 0.1344704031944275
vn 0.26900890469551086 0.9537044167518616 0.1344704031944275
vn 0.26900890469551086 0.9537044167518616 0.1344704031944275
vn 0.3357820212841034 0.9143606424331665 0.2262633740901947
vn 0.3357820212841034 0.9143606424331665 0.2262633740901947
vn 0.3357820212841034 0.9143606424331665 0.2262633740901947
f 220/220/220 221/221/221 222/222/222
f 217/217/217 218/218/218 219/219/219
f 214/214/214 215/215/215 216/216/216
f 211/211/211 212/212/212 213/213/213
f 208/208/208 209/209/209 210/210/210
f 205/205/205 206/206/206 207/207/207
f 202/202/202 203/203/203 204/204/204
f 199/199/199 200/200/200 201/201/201
f 196/196/196 197/197/197 198/198/198
f 193/193/193 194/194/194 195/195/195
f 190/190/190 191/191/191 192/192/192
f 187/187/187 188/188/188 189/189/189
f 184/184/184 185/185/185 186/186/186
f 181/181/181 182/182/182 183/183/183
f 178/178/178 179/179/179 180/180/180
f 175/175/175 176/176/176 177/177/177
f 173/173/173 174/174/174 72/72/72
f 171/171/171 73/73/73 172/172/172
f 71/71/71 169/169/169 170/170/170
f 167/167/167 66/66/66 168/168/168
f 70/70/70 165/165/165 166/166/166
f 69/69/69 68/68/68 67/67/67
f 58/58/58 42/42/42 49/49/49
f 49/49/49 65/65/65 58/58/58
f 64/64/64 65/65/65 49/49/49
f 49/49/49 48/48/48 64/64/64
f 63/63/63 64/64/64 48/48/48
f 48/48/48 47/47/47 63/63/63
f 62/62/62 63/63/63 47/47/47
f 47/47/47 46/46/46 62/62/62
f 61/61/61 62/62/62 46/46/46
f 46/46/46 45/45/45 61/61/61
f 60/60/60 61/61/61 45/45/45
f 45/45/45 44/44/44 60/60/60
f 59/59/59 60/60/60 44/44/44
f 44/44/44 43/43/43 59/59/59
f 58/58/58 59/59/59 43/43/43
f 43/43/43 42/42/42 58/58/58
f 57/57/57 50/50/50 78/78/78
f 78/78/78 80/80/80 57/57/57
f 56/56/56 57/57/57 80/80/80
f 80/80/80 76/76/76 56/56/56
f 55/55/55 56/56/56 76/76/76
f 76/76/76 81/81/81 55/55/55
f 54/54/54 55/55/55 81/81/81
f 81/81/81 77/77/77 54/54/54
f 53/53/53 54/54/54 77/77/77
f 77/77/77 74/74/74 53/53/53
f 52/52/52 53/53/53 74/74/74
f 74/74/74 79/79/79 52/52/52
f 51/51/51 52/52/52 79/79/79
f 79/79/79 75/75/75 51/51/51
f 50/50/50 51/51/51 75/75/75
f 75/75/75 78/78/78 50/50/50
f 49/49/49 42/42/42 50/50/50
f 50/50/50 57/57/57 49/49/49
f 48/48/48 49/49/49 57/57/57
f 57/57/57 56/56/56 48/48/48
f 47/47/47 48/48/48 56/56/56
f 56/56/56 55/55/55 47/47/47
f 46/46/46 47/47/47 55/55/55
f 55/55/55 54/54/54 46/46/46
f 45/45/45 46/46/46 54/54/54
f 54/54/54 53/53/53 45/45/45
f 44/44/44 45/45/45 53/53/53
f 53/53/53 52/52/52 44/44/44
f 43/43/43 44/44/44 52/52/52
f 52/52/52 51/51/51 43/43/43
f 42/42/42 43/43/43 51/51/51
f 51/51/51 50/50/50 42/42/42
f 163/163/163 153/153/153 164/164/164
f 161/161/161 41/41/41 162/162/162
f 159/159/159 153/153/153 160/160/160
f 157/157/157 153/153/153 158/158/158
f 155/155/155 41/41/41 156/156/156
f 152/152/152 153/153/153 154/154/154
f 150/150/150 41/41/41 151/151/151
f 148/148/148 41/41/41 149/149/149
f 145/145/145 146/146/146 147/147/147
f 142/142/142 143/143/143 144/144/144
f 139/139/139 140/140/140 141/141/141
f 136/136/136 137/137/137 138/138/138
f 133/133/133 134/134/134 135/135/135
f 130/130/130 131/131/131 132/132/132
f 127/127/127 128/128/128 129/129/129
f 124/124/124 125/125/125 126/126/126
f 121/121/121 122/122/122 123/123/123
f 118/118/118 119/119/119 120/120/120
f 115/115/115 116/116/116 117/117/117
f 112/112/112 113/113/113 114/114/114
f 109/109/109 110/110/110 111/111/111
f 106/106/106 107/107/107 108/108/108
f 103/103/103 104/104/104 105/105/105
f 100/100/100 101/101/101 102/102/102
f 98/98/98 39/39/39 99/99/99
f 95/95/95 96/96/96 97/97/97
f 38/38/38 40/40/40 94/94/94
f 91/91/91 92/92/92 93/93/93
f 37/37/37 33/33/33 90/90/90
f 36/36/36 34/34/34 35/35/35
f 22/22/22 29/29/29 8/8/8
f 8/8/8 1/1/1 22/22/22
f 89/89/89 84/84/84 8/8/8
f 8/8/8 29/29/29 89/89/89
f 27/27/27 6/6/6 7/7/7
f 7/7/7 28/28/28 27/27/27
f 26/26/26 5/5/5 6/6/6
f 6/6/6 27/27/27 26/26/26
f 25/25/25 4/4/4 5/5/5
f 5/5/5 26/26/26 25/25/25
f 88/88/88 82/82/82 4/4/4
f 4/4/4 25/25/25 88/88/88
f 23/23/23 2/2/2 3/3/3
f 3/3/3 24/24/24 23/23/23
f 22/22/22 1/1/1 2/2/2
f 2/2/2 23/23/23 22/22/22
f 16/16/16 21/21/21 17/17/17
f 17/17/17 9/9/9 16/16/16
f 85/85/85 87/87/87 21/21/21
f 21/21/21 16/16/16 85/85/85
f 14/14/14 19/19/19 20/20/20
f 20/20/20 15/15/15 14/14/14
f 13/13/13 32/32/32 19/19/19
f 19/19/19 14/14/14 13/13/13
f 12/12/12 18/18/18 32/32/32
f 32/32/32 13/13/13 12/12/12
f 83/83/83 86/86/86 18/18/18
f 18/18/18 12/12/12 83/83/83
f 10/10/10 30/30/30 31/31/31
f 31/31/31 11/11/11 10/10/10
f 9/9/9 17/17/17 30/30/30
f 30/30/30 10/10/10 9/9/9
f 8/8/8 16/16/16 9/9/9
f 9/9/9 1/1/1 8/8/8
f 84/84/84 85/85/85 16/16/16
f 16/16/16 8/8/8 84/84/84
f 6/6/6 14/14/14 15/15/15
f 15/15/15 7/7/7 6/6/6
f 5/5/5 13/13/13 14/14/14
f 14/14/14 6/6/6 5/5/5
f 4/4/4 12/12/12 13/13/13
f 13/13/13 5/5/5 4/4/4
f 82/82/82 83/83/83 12/12/12
f 12/12/12 4/4/4 82/82/82
f 2/2/2 10/10/10 11/11/11
f 11/11/11 3/3/3 2/2/2
f 1/1/1 9/9/9 10/10/10
f 10/10/10 2/2/2 1/1/1
