# Recovered local-space geometry; original node transforms not applied
o mesh_0
v 4.517414093017578 -24.26607894897461 0.5896186828613281
v 22.768672943115234 17.370725631713867 0.5821304321289062
v -20.97870635986328 9.843335647019558e-06 0.6000785827636719
v -13.733851432800293 -17.3707218170166 0.59710693359375
v -13.73383617401123 17.37073516845703 0.59710693359375
v -53.816471099853516 6.288267286436167e-06 -55.375518798828125
v 5.129129409790039 0.042009323835372925 0.5894584655761719
v 22.76866912841797 -17.37074851989746 0.5821304321289062
v 30.013534545898438 -5.990099452901632e-06 0.5791587829589844
v 4.517422676086426 24.266071319580078 0.5896186828613281
v -6.578132629394531 -14.510814666748047 -41.28834533691406
v -19.348892211914062 -20.27090072631836 -34.55360412597656
v -1.5087566375732422 -4.678929144574795e-06 -43.961708068847656
v -37.7391357421875 4.9694563131197356e-08 -25.13732147216797
v -32.11964797973633 -14.510793685913086 -27.818862915039062
v 14.648303985595703 -16.904565811157227 -15.541107177734375
v 21.4881591796875 -7.098669811966829e-06 -16.626708984375
v -26.65345001220703 6.070376002753619e-06 -8.985790252685547
v -19.81360626220703 -16.904544830322266 -10.071392059326172
v -32.94055938720703 -9.203146934509277 -55.97138977050781
v -46.57611846923828 -9.498257637023926 -43.283203125
v -6.578126907348633 14.510805130004883 -41.28834533691406
v -32.11964416503906 14.51079273223877 -27.81885528564453
v 14.64831256866455 16.90454864501953 -15.541107177734375
v -2.5826377868652344 23.614850997924805 -12.80624771118164
v -19.81359100341797 16.904552459716797 -10.071388244628906
v -32.940555572509766 9.203145027160645 -55.97138977050781
v -30.508373260498047 -1.5672878816985758e-07 -58.30292510986328
v -49.91196823120117 8.792108019406442e-08 -40.5311279296875
v -46.57610321044922 9.498250961303711 -43.283203125
v -49.01409149169922 -3.1810386180877686 -57.971771240234375
v -53.12693405151367 -3.502664089202881 -53.142539978027344
v -49.01409149169922 3.1810429096221924 -57.971771240234375
v -48.44678497314453 2.996961256940267e-06 -58.819549560546875
v -54.4209098815918 4.292841367714573e-06 -52.54426574707031
v -53.12693405151367 3.50266695022583 -53.142539978027344
v 16.09071922302246 -10.240219116210938 0.584747314453125
v 5.129131317138672 -14.338726997375488 0.5894584655761719
v 20.46002769470215 0.04200540855526924 0.5828704833984375
v -10.201767921447754 0.042009323835372925 0.5960464477539062
v -5.832461357116699 -10.240202903747559 0.5941696166992188
v 16.09071922302246 10.32422924041748 0.584747314453125
v 5.129134178161621 14.422745704650879 0.5894584655761719
v -5.832459449768066 10.32422161102295 0.5941696166992188
v -2.582648277282715 -23.614852905273438 -12.806243896484375
v -39.4945068359375 -13.108813285827637 -49.90385437011719
v -19.348888397216797 20.27090072631836 -34.55360412597656
v -39.4945068359375 13.108805656433105 -49.903846740722656
v -50.88798522949219 -4.721324443817139 -55.640098571777344
v -50.88798522949219 4.721329212188721 -55.640098571777344
v 4.518536567687988 -30.14696502685547 0.5976715087890625
v 26.568954467773438 21.4764347076416 -0.9600028991699219
v -26.260025024414062 2.1704878236050718e-05 3.5031967163085938
v -17.532791137695312 -21.537614822387695 2.54437255859375
v -17.532764434814453 21.537649154663086 2.5443687438964844
v -57.94145584106445 8.865585186867975e-06 -58.846405029296875
v 26.568946838378906 -21.476451873779297 -0.9599990844726562
v 35.389896392822266 -2.227666300314013e-06 -1.5516510009765625
v 4.518555164337158 30.146963119506836 0.5976676940917969
v -3.60654354095459 -18.424724578857422 -45.29320526123047
v -19.41283416748047 -26.10088348388672 -35.84379577636719
v 2.689507484436035 -5.3666763051296584e-06 -48.95628356933594
v -42.0511474609375 1.149057879956672e-07 -21.336944580078125
v -35.2443733215332 -18.900346755981445 -25.805259704589844
v 18.2003173828125 -20.880062103271484 -18.266929626464844
v 26.457015991210938 -8.212601642298978e-06 -20.06500244140625
v -31.483379364013672 7.15951591701014e-06 -5.535713195800781
v -23.35628890991211 -21.128372192382812 -8.020641326904297
v -31.326858520507812 -12.87458324432373 -61.108924865722656
v -49.81576156616211 -13.790058135986328 -41.83192443847656
v -3.6065359115600586 18.424715042114258 -45.29320526123047
v -35.24436950683594 18.900346755981445 -25.805252075195312
v 18.200328826904297 20.880043029785156 -18.266929626464844
v -2.5411243438720703 29.478954315185547 -13.473812103271484
v -23.356277465820312 21.128381729125977 -8.020637512207031
v -31.326854705810547 12.874584197998047 -61.108917236328125
v -27.97724151611328 5.474316822073888e-08 -64.56177520751953
v -54.30974197387695 4.78284800919937e-06 -37.351226806640625
v -49.81574630737305 13.790055274963379 -41.83192443847656
v -49.759281158447266 -5.886066436767578 -63.49567413330078
v -57.18124771118164 -6.995368480682373 -53.565589904785156
v -49.759281158447266 5.886072635650635 -63.49567413330078
v -48.7171516418457 3.213893933207146e-06 -65.14307403564453
v -59.505619049072266 5.386860721046105e-06 -51.929283142089844
v -57.18124771118164 6.995375633239746 -53.565582275390625
v -2.5411376953125 -29.47895622253418 -13.473804473876953
v -40.246421813964844 -18.67496681213379 -51.98938751220703
v -19.412826538085938 26.100881576538086 -35.84380340576172
v -40.246421813964844 18.674959182739258 -51.98937225341797
v -53.15815353393555 -9.00039005279541 -58.83030700683594
v -53.15815353393555 9.000397682189941 -58.830299377441406
v -39.4945068359375 -13.108813285827637 -49.90385437011719
v -19.348892211914062 -20.27090072631836 -34.55360412597656
v -2.582648277282715 -23.614852905273438 -12.806243896484375
v 4.517414093017578 -24.26607894897461 0.5896186828613281
v -50.88798522949219 -4.721324443817139 -55.640098571777344
v -19.348888397216797 20.27090072631836 -34.55360412597656
v -39.4945068359375 13.108805656433105 -49.903846740722656
v -2.5826377868652344 23.614850997924805 -12.80624771118164
v 4.517422676086426 24.266071319580078 0.5896186828613281
v -50.88798522949219 4.721329212188721 -55.640098571777344
v 4.517414093017578 -24.26607894897461 0.5896186828613281
v 22.76866912841797 -17.37074851989746 0.5821304321289062
v 30.013534545898438 -5.990099452901632e-06 0.5791587829589844
v -20.97870635986328 9.843335647019558e-06 0.6000785827636719
v -13.733851432800293 -17.3707218170166 0.59710693359375
v 22.768672943115234 17.370725631713867 0.5821304321289062
v 4.517422676086426 24.266071319580078 0.5896186828613281
v -13.73383617401123 17.37073516845703 0.59710693359375
vt 0.6802165508270264 0.525907576084137
vt 0.7334960103034973 0.5094433426856995
vt 0.7137649059295654 0.5038532018661499
vt 0.7334960103034973 0.5094433426856995
vt 0.6943126916885376 0.510741651058197
vt 0.7178428769111633 0.6191807389259338
vt 0.7472133636474609 0.6771528124809265
vt 0.6943126916885376 0.510741651058197
vt 0.7137649059295654 0.5038532018661499
vt 0.7490474581718445 0.5232624411582947
vt 0.7046576142311096 0.5646733641624451
vt 0.6931626200675964 0.5727731585502625
vt 0.716278076171875 0.5613550543785095
vt 0.716278076171875 0.5613550543785095
vt 0.7285770773887634 0.5637741088867188
vt 0.6978842616081238 0.5298393964767456
vt 0.7141672372817993 0.5242609977722168
vt 0.7141672372817993 0.5242609977722168
vt 0.7309480905532837 0.5284944176673889
vt 0.7105980515480042 0.5963219404220581
vt 0.7253223061561584 0.5957323312759399
vt 0.7285770773887634 0.5637741088867188
vt 0.7046576142311096 0.5646733641624451
vt 0.7309480905532837 0.5284944176673889
vt 0.7461990118026733 0.5398699045181274
vt 0.6978842616081238 0.5298393964767456
vt 0.7253223061561584 0.5957323312759399
vt 0.7180326581001282 0.5947280526161194
vt 0.7180326581001282 0.5947280526161194
vt 0.7105980515480042 0.5963219404220581
vt 0.7155224680900574 0.6132020354270935
vt 0.7209078073501587 0.6132931113243103
vt 0.7209078073501587 0.6132931113243103
vt 0.718294084072113 0.6127727031707764
vt 0.718294084072113 0.6127727031707764
vt 0.7155224680900574 0.6132020354270935
vt 0.684051513671875 0.7010765075683594
vt 0.684049129486084 0.6539968252182007
vt 0.684049129486084 0.6539965867996216
vt 0.684049129486084 0.6539968252182007
vt 0.684051513671875 0.7010765075683594
vt 0.684051513671875 0.7010765075683594
vt 0.684049129486084 0.6539965867996216
vt 0.684051513671875 0.7010765075683594
vt 0.6848918795585632 0.5421149730682373
vt 0.703159749507904 0.6010981202125549
vt 0.7409895658493042 0.5715960264205933
vt 0.7320333123207092 0.6008426547050476
vt 0.7130793333053589 0.6153333187103271
vt 0.722635805606842 0.6154117584228516
vt 0.7443106770515442 0.6313950419425964
vt 0.7447382807731628 0.6312628984451294
vt 0.7445798516273499 0.6312180757522583
vt 0.7447382807731628 0.6312628984451294
vt 0.7444237470626831 0.6312733292579651
vt 0.7446126341819763 0.6321436166763306
vt 0.7444237470626831 0.6312733292579651
vt 0.7445798516273499 0.6312180757522583
vt 0.7448630332946777 0.6313738226890564
vt 0.7445067763328552 0.631706178188324
vt 0.7444145083427429 0.6317712068557739
vt 0.7446000576019287 0.6316795349121094
vt 0.7446000576019287 0.6316795349121094
vt 0.7446987628936768 0.6316989660263062
vt 0.7444524168968201 0.6314265727996826
vt 0.7445830702781677 0.6313818693161011
vt 0.7445830702781677 0.6313818693161011
vt 0.7447177767753601 0.631415843963623
vt 0.7445544600486755 0.6319601535797119
vt 0.7446725964546204 0.6319553852081299
vt 0.7446987628936768 0.6316989660263062
vt 0.7445067763328552 0.631706178188324
vt 0.7447177767753601 0.631415843963623
vt 0.7448402047157288 0.6315070986747742
vt 0.7444524168968201 0.6314265727996826
vt 0.7446725964546204 0.6319553852081299
vt 0.7446141242980957 0.63194739818573
vt 0.7446141242980957 0.63194739818573
vt 0.7445544600486755 0.6319601535797119
vt 0.7445939779281616 0.6320956349372864
vt 0.7446371912956238 0.6320963501930237
vt 0.7446371912956238 0.6320963501930237
vt 0.7446162104606628 0.6320921778678894
vt 0.7446162104606628 0.6320921778678894
vt 0.7445939779281616 0.6320956349372864
vt 0.7443481683731079 0.6315251588821411
vt 0.7444947361946106 0.6319984793663025
vt 0.7447983622550964 0.6317617297172546
vt 0.7447264790534973 0.6319964528083801
vt 0.7445743680000305 0.6321127414703369
vt 0.7446510791778564 0.6321133375167847
vt 0.7320333123207092 0.6008426547050476
vt 0.7409895658493042 0.5715960264205933
vt 0.7461990118026733 0.5398699045181274
vt 0.7490474581718445 0.5232624411582947
vt 0.722635805606842 0.6154117584228516
vt 0.6931626200675964 0.5727731585502625
vt 0.703159749507904 0.6010981202125549
vt 0.6848918795585632 0.5421149730682373
vt 0.6802165508270264 0.525907576084137
vt 0.7130793333053589 0.6153333187103271
vt 0.6298438310623169 0.6320033073425293
vt 0.6298435926437378 0.7218218445777893
vt 0.6298438310623169 0.6320033073425293
vt 0.6298438310623169 0.6320033073425293
vt 0.6298435926437378 0.7218218445777893
vt 0.6298435926437378 0.7218218445777893
vt 0.6298438310623169 0.6320033073425293
vt 0.6298435926437378 0.7218218445777893
vn -0.1239732950925827 -0.9919928908348083 0.02410210110247135
vn 0.7210275530815125 0.5833470821380615 -0.373932421207428
vn -0.8586018681526184 0.1272737830877304 0.49659264087677
vn -0.7113696932792664 -0.5835744142532349 0.39165571331977844
vn -0.6398321390151978 0.6919520497322083 0.334390789270401
vn -0.7885740399360657 2.4411883714492433e-07 -0.61493980884552
vn 0.0004297532723285258 -2.9887207292356166e-11 1.0
vn 0.5410195589065552 -0.7838150858879089 -0.30484747886657715
vn 0.8862997889518738 -0.12786850333213806 -0.4451093375682831
vn -0.005234065465629101 0.9994264841079712 -0.0334564633667469
vn 0.33281373977661133 -0.7562320828437805 -0.5633365511894226
vn -0.20193085074424744 -0.9758203029632568 -0.08365834504365921
vn 0.5880342721939087 -0.050912342965602875 -0.8072322010993958
vn -0.8115559816360474 0.07531130313873291 0.5794006586074829
vn -0.673069179058075 -0.6102785468101501 0.4177773892879486
vn 0.6691290736198425 -0.5797058343887329 -0.46498116850852966
vn 0.8268811106681824 0.12546981871128082 -0.5482015609741211
vn -0.841816246509552 -0.13048002123832703 0.5237560272216797
vn -0.5401449203491211 -0.7977167367935181 0.26812586188316345
vn 0.14102686941623688 -0.4928685426712036 -0.8585990071296692
vn -0.6232032775878906 -0.7696632742881775 0.13869431614875793
vn 0.48490285873413086 0.604678750038147 -0.6318487524986267
vn -0.6006547212600708 0.7207058072090149 0.3461171090602875
vn 0.49621960520744324 0.7798842787742615 -0.3815060555934906
vn -0.09167413413524628 0.9948590993881226 -0.043025556951761246
vn -0.656952977180481 0.6584553718566895 0.36721840500831604
vn 0.13561877608299255 0.5546180009841919 -0.8209789395332336
vn 0.23916368186473846 -7.972675852840894e-09 -0.9709792733192444
vn -0.8732073307037354 4.137310440910369e-07 0.48734891414642334
vn -0.623202919960022 0.7696635127067566 0.13869452476501465
vn -0.32624903321266174 -0.46712616086006165 -0.8217996954917908
vn -0.8620030879974365 -0.5061781406402588 -0.027099374681711197
vn -0.32624882459640503 0.46712663769721985 -0.821799635887146
vn -0.17277392745018005 6.895161419606666e-08 -0.9849615097045898
vn -0.9975100755691528 2.977117219415959e-07 0.07052396982908249
vn -0.8620026707649231 0.5061788558959961 -0.027098748832941055
vn 0.0004204710712656379 2.6188477022515144e-06 0.9999999403953552
vn 0.00042260315967723727 -1.2999351383768953e-05 0.9999999403953552
vn 0.0004080129729118198 5.12215251546877e-07 0.9999999403953552
vn 0.0003990786790382117 1.8716457361733774e-06 0.9999999403953552
vn 0.0004057563783135265 -1.6110041542560793e-05 0.9999999403953552
vn 0.00041305521153844893 -9.846179636952002e-06 0.9999999403953552
vn 0.0004238541005179286 -1.3792258641842636e-06 1.0
vn 0.0004143864498473704 1.1657992217806168e-05 0.9999999403953552
vn 0.09420198202133179 -0.9847885966300964 -0.14600546658039093
vn -0.2049824446439743 -0.8821627497673035 -0.423994243144989
vn -0.06194434314966202 0.9746734499931335 -0.21488311886787415
vn -0.2726787030696869 0.8753799796104431 -0.39919447898864746
vn -0.5811823010444641 -0.6798616647720337 -0.44723081588745117
vn -0.581182062625885 0.6798622012138367 -0.44723013043403625
vn 0.12314093858003616 0.9921053647994995 -0.023733343929052353
vn -0.7230973839759827 -0.5863448977470398 0.365143746137619
vn 0.8638345003128052 -0.13057680428028107 -0.4865590035915375
vn 0.7113609313964844 0.5900184512138367 -0.3818950951099396
vn 0.6390126943588257 -0.6970586776733398 -0.3252260386943817
vn 0.8038353323936462 -3.108626174253004e-07 0.5948519110679626
vn -0.5439562201499939 0.7849550247192383 0.2965759038925171
vn -0.891271710395813 0.1291533261537552 0.4346885681152344
vn 0.0024323146790266037 -0.9994033575057983 0.03445267677307129
vn -0.3370019495487213 0.759040117263794 0.5570350289344788
vn 0.1990349292755127 0.9762555956840515 0.0854993388056755
vn -0.5965535640716553 0.052287835627794266 0.8008681535720825
vn 0.8194689154624939 -0.0777849480509758 -0.5678206086158752
vn 0.6755015254020691 0.6148112416267395 -0.4070686101913452
vn -0.672723114490509 0.5823962092399597 0.45635321736335754
vn -0.8327682018280029 -0.1276465654373169 0.5387053489685059
vn 0.847874641418457 0.13344706594944 -0.5131281614303589
vn 0.5394100546836853 0.8010615706443787 -0.2594941556453705
vn -0.1432783305644989 0.5032545328140259 0.8521773219108582
vn 0.6258634924888611 0.7683743834495544 -0.1337747722864151
vn -0.48999500274658203 -0.6090453267097473 0.6236735582351685
vn 0.6028926968574524 -0.7230350375175476 -0.33725473284721375
vn -0.5002871751785278 -0.7806400656700134 0.37458518147468567
vn 0.08878708630800247 -0.9950993657112122 0.04352157190442085
vn 0.6574642658233643 -0.6632972359657288 -0.3574598431587219
vn -0.1374131441116333 -0.5643922686576843 0.8139896988868713
vn -0.244238018989563 -2.1637724501033517e-07 0.969715416431427
vn 0.8804321885108948 -2.658750020145817e-07 -0.47417211532592773
vn 0.6258630752563477 -0.7683747410774231 -0.13377483189105988
vn 0.33963653445243835 0.4757297933101654 0.8113742470741272
vn 0.8729599118232727 0.48679929971694946 0.031107351183891296
vn 0.33963635563850403 -0.47573044896125793 0.8113739490509033
vn 0.1830182522535324 -1.067579660229967e-07 0.9831095337867737
vn 0.9984963536262512 -7.364960907807472e-08 -0.05481984093785286
vn 0.872959554195404 -0.48679977655410767 0.031106945127248764
vn -0.09723736345767975 0.9845863580703735 0.1453775316476822
vn 0.2059934139251709 0.8846884965896606 0.41820213198661804
vn 0.05878538265824318 -0.9749481081962585 0.2145237773656845
vn 0.2740127444267273 -0.8773662447929382 0.3938851058483124
vn 0.5936138033866882 0.676450788974762 0.43593230843544006
vn 0.5936135053634644 -0.6764515042304993 0.4359316825866699
vn -0.2049824446439743 -0.8821627497673035 -0.423994243144989
vn -0.20193085074424744 -0.9758203029632568 -0.08365834504365921
vn 0.09420198202133179 -0.9847885966300964 -0.14600546658039093
vn -0.1239732950925827 -0.9919928908348083 0.02410210110247135
vn -0.5811823010444641 -0.6798616647720337 -0.44723081588745117
vn -0.06194434314966202 0.9746734499931335 -0.21488311886787415
vn -0.2726787030696869 0.8753799796104431 -0.39919447898864746
vn -0.09167413413524628 0.9948590993881226 -0.043025556951761246
vn -0.005234065465629101 0.9994264841079712 -0.0334564633667469
vn -0.581182062625885 0.6798622012138367 -0.44723013043403625
vn 0.00041537685319781303 -2.260673682030756e-06 0.9999999403953552
vn 0.0003992198617197573 1.0923486115643755e-05 0.9999999403953552
vn 0.0003914865665137768 -4.584738235280383e-06 0.9999999403953552
vn 0.0003768591268453747 -6.699254299746826e-06 0.9999999403953552
vn 0.0004006501112598926 -2.2017615265212953e-05 0.9999999403953552
vn 0.0004103944811504334 -7.464163445547456e-06 0.9999999403953552
vn 0.00041288253851234913 1.666426396695897e-05 0.9999999403953552
vn 0.00038684564060531557 2.1072673916933127e-05 0.9999999403953552
f 56/56/56 91/91/91 85/85/85
f 56/56/56 85/85/85 84/84/84
f 56/56/56 83/83/83 82/82/82
f 56/56/56 82/82/82 91/91/91
f 56/56/56 81/81/81 90/90/90
f 56/56/56 84/84/84 81/81/81
f 56/56/56 80/80/80 83/83/83
f 56/56/56 90/90/90 80/80/80
f 79/79/79 85/85/85 91/91/91
f 91/91/91 89/89/89 79/79/79
f 78/78/78 84/84/84 85/85/85
f 85/85/85 79/79/79 78/78/78
f 76/76/76 82/82/82 83/83/83
f 83/83/83 77/77/77 76/76/76
f 89/89/89 91/91/91 82/82/82
f 82/82/82 76/76/76 89/89/89
f 59/59/59 55/55/55 75/75/75
f 75/75/75 74/74/74 59/59/59
f 75/75/75 55/55/55 53/53/53
f 53/53/53 67/67/67 75/75/75
f 66/66/66 58/58/58 52/52/52
f 52/52/52 73/73/73 66/66/66
f 73/73/73 52/52/52 59/59/59
f 59/59/59 74/74/74 73/73/73
f 74/74/74 75/75/75 72/72/72
f 72/72/72 88/88/88 74/74/74
f 79/79/79 89/89/89 88/88/88
f 88/88/88 72/72/72 79/79/79
f 75/75/75 67/67/67 63/63/63
f 63/63/63 72/72/72 75/75/75
f 78/78/78 79/79/79 72/72/72
f 72/72/72 63/63/63 78/78/78
f 66/66/66 73/73/73 71/71/71
f 71/71/71 62/62/62 66/66/66
f 76/76/76 77/77/77 62/62/62
f 62/62/62 71/71/71 76/76/76
f 73/73/73 74/74/74 88/88/88
f 88/88/88 71/71/71 73/73/73
f 76/76/76 71/71/71 88/88/88
f 88/88/88 89/89/89 76/76/76
f 90/90/90 81/81/81 70/70/70
f 70/70/70 87/87/87 90/90/90
f 81/81/81 84/84/84 78/78/78
f 78/78/78 70/70/70 81/81/81
f 83/83/83 80/80/80 69/69/69
f 69/69/69 77/77/77 83/83/83
f 80/80/80 90/90/90 87/87/87
f 87/87/87 69/69/69 80/80/80
f 68/68/68 54/54/54 51/51/51
f 51/51/51 86/86/86 68/68/68
f 67/67/67 53/53/53 54/54/54
f 54/54/54 68/68/68 67/67/67
f 65/65/65 57/57/57 58/58/58
f 58/58/58 66/66/66 65/65/65
f 86/86/86 51/51/51 57/57/57
f 57/57/57 65/65/65 86/86/86
f 61/61/61 64/64/64 68/68/68
f 68/68/68 86/86/86 61/61/61
f 61/61/61 87/87/87 70/70/70
f 70/70/70 64/64/64 61/61/61
f 64/64/64 63/63/63 67/67/67
f 67/67/67 68/68/68 64/64/64
f 64/64/64 70/70/70 78/78/78
f 78/78/78 63/63/63 64/64/64
f 62/62/62 60/60/60 65/65/65
f 65/65/65 66/66/66 62/62/62
f 62/62/62 77/77/77 69/69/69
f 69/69/69 60/60/60 62/62/62
f 60/60/60 61/61/61 86/86/86
f 86/86/86 65/65/65 60/60/60
f 60/60/60 69/69/69 87/87/87
f 87/87/87 61/61/61 60/60/60
f 7/7/7 43/43/43 44/44/44
f 44/44/44 43/43/43 108/108/108
f 108/108/108 109/109/109 44/44/44
f 7/7/7 44/44/44 40/40/40
f 40/40/40 44/44/44 109/109/109
f 109/109/109 105/105/105 40/40/40
f 7/7/7 39/39/39 42/42/42
f 42/42/42 39/39/39 104/104/104
f 104/104/104 107/107/107 42/42/42
f 7/7/7 42/42/42 43/43/43
f 43/43/43 42/42/42 107/107/107
f 107/107/107 108/108/108 43/43/43
f 7/7/7 41/41/41 38/38/38
f 38/38/38 41/41/41 106/106/106
f 106/106/106 102/102/102 38/38/38
f 7/7/7 40/40/40 41/41/41
f 41/41/41 40/40/40 105/105/105
f 105/105/105 106/106/106 41/41/41
f 7/7/7 37/37/37 39/39/39
f 39/39/39 37/37/37 103/103/103
f 103/103/103 104/104/104 39/39/39
f 7/7/7 38/38/38 37/37/37
f 37/37/37 38/38/38 102/102/102
f 102/102/102 103/103/103 37/37/37
f 6/6/6 36/36/36 101/101/101
f 6/6/6 35/35/35 36/36/36
f 6/6/6 33/33/33 34/34/34
f 6/6/6 50/50/50 33/33/33
f 6/6/6 96/96/96 32/32/32
f 6/6/6 32/32/32 35/35/35
f 6/6/6 34/34/34 31/31/31
f 6/6/6 31/31/31 49/49/49
f 30/30/30 98/98/98 101/101/101
f 101/101/101 36/36/36 30/30/30
f 29/29/29 30/30/30 36/36/36
f 36/36/36 35/35/35 29/29/29
f 27/27/27 28/28/28 34/34/34
f 34/34/34 33/33/33 27/27/27
f 48/48/48 27/27/27 33/33/33
f 33/33/33 50/50/50 48/48/48
f 100/100/100 99/99/99 26/26/26
f 26/26/26 5/5/5 100/100/100
f 26/26/26 18/18/18 3/3/3
f 3/3/3 5/5/5 26/26/26
f 17/17/17 24/24/24 2/2/2
f 2/2/2 9/9/9 17/17/17
f 24/24/24 25/25/25 10/10/10
f 10/10/10 2/2/2 24/24/24
f 99/99/99 97/97/97 23/23/23
f 23/23/23 26/26/26 99/99/99
f 30/30/30 23/23/23 97/97/97
f 97/97/97 98/98/98 30/30/30
f 26/26/26 23/23/23 14/14/14
f 14/14/14 18/18/18 26/26/26
f 29/29/29 14/14/14 23/23/23
f 23/23/23 30/30/30 29/29/29
f 17/17/17 13/13/13 22/22/22
f 22/22/22 24/24/24 17/17/17
f 27/27/27 22/22/22 13/13/13
f 13/13/13 28/28/28 27/27/27
f 24/24/24 22/22/22 47/47/47
f 47/47/47 25/25/25 24/24/24
f 27/27/27 48/48/48 47/47/47
f 47/47/47 22/22/22 27/27/27
f 96/96/96 92/92/92 21/21/21
f 21/21/21 32/32/32 96/96/96
f 32/32/32 21/21/21 29/29/29
f 29/29/29 35/35/35 32/32/32
f 34/34/34 28/28/28 20/20/20
f 20/20/20 31/31/31 34/34/34
f 31/31/31 20/20/20 46/46/46
f 46/46/46 49/49/49 31/31/31
f 19/19/19 94/94/94 95/95/95
f 95/95/95 4/4/4 19/19/19
f 18/18/18 19/19/19 4/4/4
f 4/4/4 3/3/3 18/18/18
f 16/16/16 17/17/17 9/9/9
f 9/9/9 8/8/8 16/16/16
f 45/45/45 16/16/16 8/8/8
f 8/8/8 1/1/1 45/45/45
f 93/93/93 94/94/94 19/19/19
f 19/19/19 15/15/15 93/93/93
f 93/93/93 15/15/15 21/21/21
f 21/21/21 92/92/92 93/93/93
f 15/15/15 19/19/19 18/18/18
f 18/18/18 14/14/14 15/15/15
f 15/15/15 14/14/14 29/29/29
f 29/29/29 21/21/21 15/15/15
f 13/13/13 17/17/17 16/16/16
f 16/16/16 11/11/11 13/13/13
f 13/13/13 11/11/11 20/20/20
f 20/20/20 28/28/28 13/13/13
f 11/11/11 16/16/16 45/45/45
f 45/45/45 12/12/12 11/11/11
f 11/11/11 12/12/12 46/46/46
f 46/46/46 20/20/20 11/11/11
