# Recovered local-space geometry; original node transforms not applied
o mesh_0
v -28.443954467773438 -17.515464782714844 -44.12643814086914
v -18.7659969329834 -12.633679389953613 -52.24720764160156
v 6.246723175048828 -16.856901168823242 -31.49138641357422
v -10.029560089111328 -23.370553970336914 -25.56728744506836
v 12.536029815673828 -8.243760930781718e-06 -33.780494689941406
v -32.59513854980469 -3.152217686874792e-08 -17.35411262512207
v -38.121910095214844 -12.633666038513184 -36.00562286376953
v -26.305831909179688 -16.856863021850586 -19.643218994140625
v 25.09355354309082 -18.82810401916504 -0.045196533203125
v 4.995847702026367 -26.103452682495117 -0.045196533203125
v 32.85948944091797 -8.243760021287017e-06 -0.045192718505859375
v -22.867807388305664 -3.1522631616098806e-08 -0.045200347900390625
v -15.101886749267578 -18.828079223632812 -0.045192718505859375
v -44.268211364746094 -5.455256462097168 -59.12645721435547
v -47.489707946777344 -8.20743465423584 -54.97145080566406
v -53.168128967285156 -3.152240424242336e-08 -48.645729064941406
v -51.50843811035156 -6.172785758972168 -50.4447021484375
v -28.443946838378906 17.515457153320312 -44.12643051147461
v -18.7659912109375 12.633681297302246 -52.24720764160156
v 6.246726989746094 16.856876373291016 -31.49138641357422
v -10.029555320739746 23.37055778503418 -25.56729507446289
v -15.026336669921875 -3.152308636344969e-08 -55.3851318359375
v -41.86156463623047 -3.152217686874792e-08 -32.867706298828125
v -38.12190628051758 12.633662223815918 -36.005615234375
v -26.305828094482422 16.85686683654785 -19.643211364746094
v 25.09355354309082 18.82809066772461 -0.045196533203125
v 4.995855331420898 26.103445053100586 -0.045200347900390625
v -15.101883888244629 18.828083038330078 -0.045192718505859375
v -44.268211364746094 5.455250263214111 -59.12645721435547
v -47.489707946777344 8.207430839538574 -54.97145080566406
v -43.49156188964844 -3.1522631616098806e-08 -60.513694763183594
v -53.168128967285156 -3.152240424242336e-08 -48.645729064941406
v -51.50843811035156 6.172776699066162 -50.4447021484375
v -53.625282287597656 8.180713848560117e-06 -57.118309020996094
v 4.995841979980469 8.180714758054819e-06 -0.045196533203125
v 29.170000076293945 23.085250854492188 -1.6924667358398438
v 29.16999626159668 -23.085269927978516 -1.6924610137939453
v -28.334430694580078 1.6863328710314818e-05 2.7062625885009766
v 5.125997543334961 32.2196044921875 -0.2187061309814453
v -29.615392684936523 -23.315237045288086 -45.69001770019531
v -17.240671157836914 -16.559030532836914 -56.68785858154297
v 9.461862564086914 -20.9573974609375 -34.70124435424805
v -10.28870677947998 -29.39151382446289 -26.63276481628418
v 17.178436279296875 -8.453566806565505e-06 -37.76828384399414
v -37.88880157470703 -4.402648983159452e-07 -14.283035278320312
v -42.11042022705078 -16.938390731811523 -34.26908493041992
v -30.154996871948242 -21.31914520263672 -17.9920597076416
v -45.144287109375 -8.52122974395752 -64.35002136230469
v -50.129600524902344 -13.094789505004883 -57.54011154174805
v -58.788124084472656 9.412449344381457e-07 -46.531715393066406
v -56.326507568359375 -9.889780044555664 -49.79424285888672
v -29.61538314819336 23.315229415893555 -45.69001007080078
v -17.240665435791016 16.55903434753418 -56.68785858154297
v 9.461870193481445 20.957368850708008 -34.70124816894531
v -10.288698196411133 29.391517639160156 -26.632776260375977
v -12.397823333740234 -6.874084874652908e-07 -60.91191482543945
v -46.994606018066406 -1.575708665768616e-07 -29.535125732421875
v -42.11041259765625 16.938385009765625 -34.26907730102539
v -30.154993057250977 21.319149017333984 -17.99205207824707
v -45.144287109375 8.521223068237305 -64.35002136230469
v -50.12959289550781 13.094788551330566 -57.54011154174805
v -43.83909606933594 6.014195150783053e-07 -66.62373352050781
v -56.326507568359375 9.889772415161133 -49.79423904418945
v -58.71637725830078 1.227784468937898e-05 -60.514652252197266
v 5.125979423522949 -32.2196044921875 -0.21870040893554688
v 38.572837829589844 -3.262152404204244e-06 -2.238840103149414
v -18.969467163085938 -23.236846923828125 1.7037944793701172
v -18.969446182250977 23.23686981201172 1.7037944793701172
v -44.268211364746094 -5.455256462097168 -59.12645721435547
v -47.489707946777344 -8.20743465423584 -54.97145080566406
v -43.49156188964844 -3.1522631616098806e-08 -60.513694763183594
v -44.268211364746094 -5.455256462097168 -59.12645721435547
v -53.625282287597656 8.180713848560117e-06 -57.118309020996094
v -51.50843811035156 -6.172785758972168 -50.4447021484375
v -53.168128967285156 -3.152240424242336e-08 -48.645729064941406
v -53.625282287597656 8.180713848560117e-06 -57.118309020996094
v -47.489707946777344 -8.20743465423584 -54.97145080566406
v -51.50843811035156 -6.172785758972168 -50.4447021484375
v -53.625282287597656 8.180713848560117e-06 -57.118309020996094
v -47.489707946777344 8.207430839538574 -54.97145080566406
v -44.268211364746094 5.455250263214111 -59.12645721435547
v -53.625282287597656 8.180713848560117e-06 -57.118309020996094
v -44.268211364746094 5.455250263214111 -59.12645721435547
v -43.49156188964844 -3.1522631616098806e-08 -60.513694763183594
v -53.625282287597656 8.180713848560117e-06 -57.118309020996094
v -53.168128967285156 -3.152240424242336e-08 -48.645729064941406
v -51.50843811035156 6.172776699066162 -50.4447021484375
v -53.625282287597656 8.180713848560117e-06 -57.118309020996094
v -51.50843811035156 6.172776699066162 -50.4447021484375
v -47.489707946777344 8.207430839538574 -54.97145080566406
v -53.625282287597656 8.180713848560117e-06 -57.118309020996094
v 4.995847702026367 -26.103452682495117 -0.045196533203125
v 25.09355354309082 -18.82810401916504 -0.045196533203125
v 32.85948944091797 -8.243760021287017e-06 -0.045192718505859375
v -22.867807388305664 -3.1522631616098806e-08 -0.045200347900390625
v -15.101886749267578 -18.828079223632812 -0.045192718505859375
v 25.09355354309082 18.82809066772461 -0.045196533203125
v 4.995855331420898 26.103445053100586 -0.045200347900390625
v -15.101883888244629 18.828083038330078 -0.045192718505859375
v -45.144287109375 -8.52122974395752 -64.35002136230469
v -50.129600524902344 -13.094789505004883 -57.54011154174805
v -43.83909606933594 6.014195150783053e-07 -66.62373352050781
v -58.71637725830078 1.227784468937898e-05 -60.514652252197266
v -45.144287109375 -8.52122974395752 -64.35002136230469
v -56.326507568359375 -9.889780044555664 -49.79424285888672
v -58.71637725830078 1.227784468937898e-05 -60.514652252197266
v -58.788124084472656 9.412449344381457e-07 -46.531715393066406
v -50.129600524902344 -13.094789505004883 -57.54011154174805
v -58.71637725830078 1.227784468937898e-05 -60.514652252197266
v -56.326507568359375 -9.889780044555664 -49.79424285888672
v -50.12959289550781 13.094788551330566 -57.54011154174805
v -58.71637725830078 1.227784468937898e-05 -60.514652252197266
v -45.144287109375 8.521223068237305 -64.35002136230469
v -45.144287109375 8.521223068237305 -64.35002136230469
v -58.71637725830078 1.227784468937898e-05 -60.514652252197266
v -43.83909606933594 6.014195150783053e-07 -66.62373352050781
v -58.788124084472656 9.412449344381457e-07 -46.531715393066406
v -58.71637725830078 1.227784468937898e-05 -60.514652252197266
v -56.326507568359375 9.889772415161133 -49.79423904418945
v -56.326507568359375 9.889772415161133 -49.79423904418945
v -58.71637725830078 1.227784468937898e-05 -60.514652252197266
v -50.12959289550781 13.094788551330566 -57.54011154174805
vt 0.8477028608322144 0.7186338901519775
vt 0.8122895359992981 0.7186521291732788
vt 0.8122954368591309 0.6907038688659668
vt 0.8567168116569519 0.6914739608764648
vt 0.7690351009368896 0.692171573638916
vt 0.7690351009368896 0.692171573638916
vt 0.8122895359992981 0.7186521291732788
vt 0.8122954368591309 0.6907038688659668
vt 0.8123072385787964 0.6499598622322083
vt 0.8612105250358582 0.6500639319419861
vt 0.7653154730796814 0.6501102447509766
vt 0.7653154730796814 0.6501102447509766
vt 0.8123072385787964 0.6499598622322083
vt 0.8122795224189758 0.744152843952179
vt 0.8311512470245361 0.744024395942688
vt 0.7951039671897888 0.7440338730812073
vt 0.8122795224189758 0.744152843952179
vt 0.8477028608322144 0.7186338901519775
vt 0.8122895359992981 0.7186521291732788
vt 0.8122954368591309 0.6907038688659668
vt 0.8567168116569519 0.6914739608764648
vt 0.7791751027107239 0.7195127010345459
vt 0.7791751027107239 0.7195127010345459
vt 0.8122895359992981 0.7186521291732788
vt 0.8122954368591309 0.6907038688659668
vt 0.8123072385787964 0.6499598622322083
vt 0.8612105250358582 0.6500639319419861
vt 0.8123072385787964 0.6499598622322083
vt 0.8122795224189758 0.744152843952179
vt 0.8311512470245361 0.744024395942688
vt 0.7951039671897888 0.7440338730812073
vt 0.7951039671897888 0.7440338730812073
vt 0.8122795224189758 0.744152843952179
vt 0.8122376799583435 0.7539061903953552
vt 0.3164956569671631 0.3812900185585022
vt 0.6082947850227356 0.6390509605407715
vt 0.6082740426063538 0.6390509605407715
vt 0.6082294583320618 0.6390631198883057
vt 0.6083099246025085 0.6390560865402222
vt 0.6082556843757629 0.6390886306762695
vt 0.6082715392112732 0.6390906572341919
vt 0.6082738041877747 0.6390728950500488
vt 0.6082605719566345 0.6390738487243652
vt 0.6082846522331238 0.6390725374221802
vt 0.6082294583320618 0.6390750408172607
vt 0.6082412600517273 0.6390867233276367
vt 0.6082445979118347 0.6390748023986816
vt 0.6082037091255188 0.6390295028686523
vt 0.6082046627998352 0.6390295028686523
vt 0.6082026362419128 0.6390295028686523
vt 0.6082037091255188 0.6390295028686523
vt 0.6083140969276428 0.6390899419784546
vt 0.6082977652549744 0.6390906572341919
vt 0.6082950234413147 0.6390728950500488
vt 0.6083106398582458 0.6390738487243652
vt 0.6082846522331238 0.6390913724899292
vt 0.6082294583320618 0.6390858888626099
vt 0.6082161068916321 0.6390867233276367
vt 0.6082137227058411 0.6390748023986816
vt 0.6082037091255188 0.6390295028686523
vt 0.6082046627998352 0.6390295028686523
vt 0.6082026362419128 0.6390295028686523
vt 0.6082037091255188 0.6390295028686523
vt 0.6082037091255188 0.6390283107757568
vt 0.6082615256309509 0.6390560865402222
vt 0.6082846522331238 0.6390489339828491
vt 0.608246386051178 0.6390612125396729
vt 0.608212411403656 0.6390612125396729
vt 0.8122795224189758 0.744152843952179
vt 0.8311512470245361 0.744024395942688
vt 0.7951039671897888 0.7440338730812073
vt 0.8122795224189758 0.744152843952179
vt 0.8122376799583435 0.7539061903953552
vt 0.8122795224189758 0.744152843952179
vt 0.7951039671897888 0.7440338730812073
vt 0.8122376799583435 0.7539061903953552
vt 0.8311512470245361 0.744024395942688
vt 0.8122795224189758 0.744152843952179
vt 0.8122376799583435 0.7539061903953552
vt 0.8311512470245361 0.744024395942688
vt 0.8122795224189758 0.744152843952179
vt 0.8122376799583435 0.753941535949707
vt 0.8122795224189758 0.744152843952179
vt 0.7951039671897888 0.7440338730812073
vt 0.8122376799583435 0.753941535949707
vt 0.7951039671897888 0.7440338730812073
vt 0.8122795224189758 0.744152843952179
vt 0.8122376799583435 0.753941535949707
vt 0.8122795224189758 0.744152843952179
vt 0.8311512470245361 0.744024395942688
vt 0.8122376799583435 0.753941535949707
vt 0.25922468304634094 0.4973910450935364
vt 0.3695983588695526 0.4973910450935364
vt 0.25922468304634094 0.4973910450935364
vt 0.25922468304634094 0.4973910450935364
vt 0.3695983588695526 0.4973910450935364
vt 0.3695983588695526 0.4973910450935364
vt 0.25922468304634094 0.4973910450935364
vt 0.3695983588695526 0.4973910450935364
vt 0.6082035899162292 0.6390295028686523
vt 0.6082046627998352 0.6390295028686523
vt 0.6082026362419128 0.6390295028686523
vt 0.6082037091255188 0.6390283107757568
vt 0.6082035899162292 0.6390295028686523
vt 0.6082035899162292 0.6390295028686523
vt 0.6082037091255188 0.6390283107757568
vt 0.6082026362419128 0.6390295028686523
vt 0.6082046627998352 0.6390295028686523
vt 0.6082037091255188 0.6390283107757568
vt 0.6082035899162292 0.6390295028686523
vt 0.6082046627998352 0.6390295028686523
vt 0.6082037091255188 0.6390283107757568
vt 0.6082035899162292 0.6390295028686523
vt 0.6082035899162292 0.6390295028686523
vt 0.6082037091255188 0.6390283107757568
vt 0.6082026362419128 0.6390295028686523
vt 0.6082026362419128 0.6390295028686523
vt 0.6082037091255188 0.6390283107757568
vt 0.6082035899162292 0.6390295028686523
vt 0.6082035899162292 0.6390295028686523
vt 0.6082037091255188 0.6390283107757568
vt 0.6082046627998352 0.6390295028686523
vn -0.1218956783413887 -0.9522854089736938 -0.27981093525886536
vn 0.24519459903240204 -0.640861451625824 -0.7274450063705444
vn 0.5145168304443359 -0.6861408948898315 -0.5142792463302612
vn -0.052578579634428024 -0.9891542196273804 -0.1371482014656067
vn 0.7027903199195862 -2.687052713667981e-08 -0.7113970518112183
vn -0.8718555569648743 0.0 0.489763081073761
vn -0.6187196969985962 -0.7388885617256165 0.2668888568878174
vn -0.6351422667503357 -0.7131521701812744 0.2966621220111847
vn 0.5095033049583435 -0.7781393527984619 -0.36729520559310913
vn -0.1256377398967743 -0.9915567636489868 -0.03209920972585678
vn 0.8522486686706543 -1.588921527684306e-08 -0.5231369137763977
vn -0.8717678189277649 4.7505597677854894e-08 0.4899194836616516
vn -0.7186756134033203 -0.5945937633514404 0.3605048656463623
vn 0.09728187322616577 -0.47811082005500793 -0.8728954792022705
vn -0.27415162324905396 -0.9119796752929688 -0.3051786422729492
vn -0.7586443424224854 -0.3606868088245392 0.5425532460212708
vn -0.6584477424621582 -0.6893883347511292 0.301977276802063
vn -0.12189549952745438 0.9522854089736938 -0.27981096506118774
vn 0.24519464373588562 0.6408616900444031 -0.7274447679519653
vn 0.5145171284675598 0.6861405968666077 -0.5142793655395508
vn -0.0525781624019146 0.9891541600227356 -0.13714875280857086
vn 0.33106693625450134 -1.605463140208485e-08 -0.9436072707176208
vn -0.8426806926727295 -1.598263388302712e-08 0.5384136438369751
vn -0.6187198162078857 0.7388885617256165 0.26688864827156067
vn -0.6351422071456909 0.7131522297859192 0.2966620624065399
vn 0.5095037221908569 0.7781388163566589 -0.36729541420936584
vn -0.12563733756542206 0.9915568232536316 -0.03209913522005081
vn -0.718675434589386 0.59459388256073 0.36050480604171753
vn 0.0972817912697792 0.47811073064804077 -0.8728954195976257
vn -0.2741517424583435 0.9119796752929688 -0.3051784336566925
vn 0.17731450498104095 1.3910718621445994e-07 -0.984154224395752
vn -0.7586442828178406 0.3606869578361511 0.5425530076026917
vn -0.6584479808807373 0.6893881559371948 0.3019771873950958
vn -0.46209916472435 -0.5312008261680603 -0.7101338505744934
vn 0.0 0.0 1.0
vn -0.5107694268226624 -0.7773094773292542 0.3672935664653778
vn -0.5107688903808594 0.7773099541664124 0.3672932982444763
vn 0.8716217875480652 -4.4522914777189726e-07 -0.49017903208732605
vn 0.12643736600875854 -0.991489052772522 0.031033551320433617
vn 0.12064935266971588 0.9511227607727051 0.2842699885368347
vn -0.24553057551383972 0.6396483182907104 0.7283987998962402
vn -0.5154176354408264 0.6839378476142883 0.5163077712059021
vn 0.05130840465426445 0.9888986349105835 0.1394522786140442
vn -0.7018453478813171 9.684674040499885e-08 0.7123294472694397
vn 0.8722572922706604 -1.3340471127776254e-07 -0.48904725909233093
vn 0.6204599142074585 0.7391083240509033 -0.2621992230415344
vn 0.6332855224609375 0.7155117988586426 -0.2949445843696594
vn -0.0972825363278389 0.48269152641296387 0.8703707456588745
vn 0.27821585536003113 0.9096248149871826 0.30851033329963684
vn 0.8207734823226929 -7.208662822222323e-08 -0.5712539553642273
vn 0.6635226607322693 0.6873154044151306 -0.29552534222602844
vn 0.12064922600984573 -0.9511227011680603 0.28426989912986755
vn -0.24553066492080688 -0.6396484971046448 0.7283986806869507
vn -0.5154179334640503 -0.6839374899864197 0.5163078904151917
vn 0.05130799859762192 -0.9888985753059387 0.13945285975933075
vn -0.33177927136421204 3.217254018750282e-08 0.9433570504188538
vn 0.8448992967605591 -5.3451763903922256e-08 -0.5349254012107849
vn 0.6204598546028137 -0.7391083836555481 -0.2621990740299225
vn 0.633285403251648 -0.7155119776725769 -0.2949444055557251
vn -0.09728245437145233 -0.48269137740135193 0.8703706860542297
vn 0.2782158851623535 -0.9096248745918274 0.3085101246833801
vn -0.17874081432819366 -1.241178750888139e-07 0.9838961958885193
vn 0.6635226011276245 -0.6873154044151306 -0.2955254912376404
vn 0.5093106031417847 0.49403879046440125 0.7046477198600769
vn 0.1264379620552063 0.9914889931678772 0.03103320673108101
vn -0.8524815440177917 4.774036810317739e-08 0.522757351398468
vn 0.715721070766449 0.5991821885108948 -0.3587813973426819
vn 0.7157208323478699 -0.5991827249526978 -0.35878098011016846
vn -0.46209916472435 -0.5312008261680603 -0.7101338505744934
vn -0.46209916472435 -0.5312008261680603 -0.7101338505744934
vn -0.31177401542663574 -0.19223561882972717 -0.9305066466331482
vn -0.31177401542663574 -0.19223561882972717 -0.9305066466331482
vn -0.31177401542663574 -0.19223561882972717 -0.9305066466331482
vn -0.9605147242546082 -0.2733597755432129 0.05182603746652603
vn -0.9605147242546082 -0.2733597755432129 0.05182603746652603
vn -0.9605147242546082 -0.2733597755432129 0.05182603746652603
vn -0.704929769039154 -0.6180164813995361 -0.3480370044708252
vn -0.704929769039154 -0.6180164813995361 -0.3480370044708252
vn -0.704929769039154 -0.6180164813995361 -0.3480370044708252
vn -0.4620983600616455 0.5312014818191528 -0.7101338505744934
vn -0.4620983600616455 0.5312014818191528 -0.7101338505744934
vn -0.4620983600616455 0.5312014818191528 -0.7101338505744934
vn -0.3117736876010895 0.19223590195178986 -0.930506706237793
vn -0.3117736876010895 0.19223590195178986 -0.930506706237793
vn -0.3117736876010895 0.19223590195178986 -0.930506706237793
vn -0.9605145454406738 0.2733602523803711 0.05182656645774841
vn -0.9605145454406738 0.2733602523803711 0.05182656645774841
vn -0.9605145454406738 0.2733602523803711 0.05182656645774841
vn -0.704929530620575 0.6180174946784973 -0.3480355739593506
vn -0.704929530620575 0.6180174946784973 -0.3480355739593506
vn -0.704929530620575 0.6180174946784973 -0.3480355739593506
vn 0.0 0.0 1.0
vn 0.0 0.0 1.0
vn -1.369059674516393e-07 -1.4613767973514769e-07 1.0
vn -1.369059674516393e-07 3.4874474863499927e-07 1.0
vn -1.369059674516393e-07 3.4874474863499927e-07 1.0
vn -1.369058679756563e-07 1.461377934219854e-07 1.0
vn -1.369058679756563e-07 1.461377934219854e-07 1.0
vn -1.3690576849967329e-07 -3.4874474863499927e-07 1.0
vn 0.5093106031417847 0.49403879046440125 0.7046477198600769
vn 0.5093106031417847 0.49403879046440125 0.7046477198600769
vn 0.3732697665691376 0.18537765741348267 0.9090132117271423
vn 0.3732697665691376 0.18537765741348267 0.9090132117271423
vn 0.3732697665691376 0.18537765741348267 0.9090132117271423
vn 0.9707638621330261 0.23998476564884186 0.004981210455298424
vn 0.9707638621330261 0.23998476564884186 0.004981210455298424
vn 0.9707638621330261 0.23998476564884186 0.004981210455298424
vn 0.7413356304168701 0.5675058960914612 0.3582717776298523
vn 0.7413356304168701 0.5675058960914612 0.3582717776298523
vn 0.7413356304168701 0.5675058960914612 0.3582717776298523
vn 0.5093098878860474 -0.4940395951271057 0.7046476602554321
vn 0.5093098878860474 -0.4940395951271057 0.7046476602554321
vn 0.5093098878860474 -0.4940395951271057 0.7046476602554321
vn 0.3732694983482361 -0.18537788093090057 0.9090132713317871
vn 0.3732694983482361 -0.18537788093090057 0.9090132713317871
vn 0.3732694983482361 -0.18537788093090057 0.9090132713317871
vn 0.9707638025283813 -0.2399851530790329 0.004980820696800947
vn 0.9707638025283813 -0.2399851530790329 0.004980820696800947
vn 0.9707638025283813 -0.2399851530790329 0.004980820696800947
vn 0.7413350939750671 -0.5675069689750671 0.3582710027694702
vn 0.7413350939750671 -0.5675069689750671 0.3582710027694702
vn 0.7413350939750671 -0.5675069689750671 0.3582710027694702
f 120/120/120 121/121/121 122/122/122
f 117/117/117 118/118/118 119/119/119
f 114/114/114 115/115/115 116/116/116
f 111/111/111 112/112/112 113/113/113
f 108/108/108 109/109/109 110/110/110
f 105/105/105 106/106/106 107/107/107
f 102/102/102 103/103/103 104/104/104
f 100/100/100 64/64/64 101/101/101
f 61/61/61 52/52/52 58/58/58
f 58/58/58 63/63/63 61/61/61
f 50/50/50 63/63/63 58/58/58
f 58/58/58 57/57/57 50/50/50
f 60/60/60 62/62/62 56/56/56
f 56/56/56 53/53/53 60/60/60
f 61/61/61 60/60/60 53/53/53
f 53/53/53 52/52/52 61/61/61
f 59/59/59 55/55/55 39/39/39
f 39/39/39 68/68/68 59/59/59
f 45/45/45 59/59/59 68/68/68
f 68/68/68 38/38/38 45/45/45
f 54/54/54 44/44/44 66/66/66
f 66/66/66 36/36/36 54/54/54
f 55/55/55 54/54/54 36/36/36
f 36/36/36 39/39/39 55/55/55
f 58/58/58 52/52/52 55/55/55
f 55/55/55 59/59/59 58/58/58
f 57/57/57 58/58/58 59/59/59
f 59/59/59 45/45/45 57/57/57
f 53/53/53 56/56/56 44/44/44
f 44/44/44 54/54/54 53/53/53
f 52/52/52 53/53/53 54/54/54
f 54/54/54 55/55/55 52/52/52
f 49/49/49 51/51/51 46/46/46
f 46/46/46 40/40/40 49/49/49
f 50/50/50 57/57/57 46/46/46
f 46/46/46 51/51/51 50/50/50
f 48/48/48 41/41/41 56/56/56
f 56/56/56 62/62/62 48/48/48
f 49/49/49 40/40/40 41/41/41
f 41/41/41 48/48/48 49/49/49
f 47/47/47 67/67/67 65/65/65
f 65/65/65 43/43/43 47/47/47
f 45/45/45 38/38/38 67/67/67
f 67/67/67 47/47/47 45/45/45
f 42/42/42 37/37/37 66/66/66
f 66/66/66 44/44/44 42/42/42
f 43/43/43 65/65/65 37/37/37
f 37/37/37 42/42/42 43/43/43
f 46/46/46 47/47/47 43/43/43
f 43/43/43 40/40/40 46/46/46
f 57/57/57 45/45/45 47/47/47
f 47/47/47 46/46/46 57/57/57
f 41/41/41 42/42/42 44/44/44
f 44/44/44 56/56/56 41/41/41
f 40/40/40 43/43/43 42/42/42
f 42/42/42 41/41/41 40/40/40
f 98/98/98 99/99/99 35/35/35
f 99/99/99 95/95/95 35/35/35
f 94/94/94 97/97/97 35/35/35
f 97/97/97 98/98/98 35/35/35
f 96/96/96 92/92/92 35/35/35
f 95/95/95 96/96/96 35/35/35
f 93/93/93 94/94/94 35/35/35
f 92/92/92 93/93/93 35/35/35
f 89/89/89 90/90/90 91/91/91
f 86/86/86 87/87/87 88/88/88
f 83/83/83 84/84/84 85/85/85
f 80/80/80 81/81/81 82/82/82
f 77/77/77 78/78/78 79/79/79
f 74/74/74 75/75/75 76/76/76
f 71/71/71 72/72/72 73/73/73
f 69/69/69 70/70/70 34/34/34
f 30/30/30 33/33/33 24/24/24
f 24/24/24 18/18/18 30/30/30
f 32/32/32 23/23/23 24/24/24
f 24/24/24 33/33/33 32/32/32
f 29/29/29 19/19/19 22/22/22
f 22/22/22 31/31/31 29/29/29
f 30/30/30 18/18/18 19/19/19
f 19/19/19 29/29/29 30/30/30
f 25/25/25 28/28/28 27/27/27
f 27/27/27 21/21/21 25/25/25
f 6/6/6 12/12/12 28/28/28
f 28/28/28 25/25/25 6/6/6
f 20/20/20 26/26/26 11/11/11
f 11/11/11 5/5/5 20/20/20
f 21/21/21 27/27/27 26/26/26
f 26/26/26 20/20/20 21/21/21
f 24/24/24 25/25/25 21/21/21
f 21/21/21 18/18/18 24/24/24
f 23/23/23 6/6/6 25/25/25
f 25/25/25 24/24/24 23/23/23
f 19/19/19 20/20/20 5/5/5
f 5/5/5 22/22/22 19/19/19
f 18/18/18 21/21/21 20/20/20
f 20/20/20 19/19/19 18/18/18
f 15/15/15 1/1/1 7/7/7
f 7/7/7 17/17/17 15/15/15
f 16/16/16 17/17/17 7/7/7
f 7/7/7 23/23/23 16/16/16
f 14/14/14 31/31/31 22/22/22
f 22/22/22 2/2/2 14/14/14
f 15/15/15 14/14/14 2/2/2
f 2/2/2 1/1/1 15/15/15
f 8/8/8 4/4/4 10/10/10
f 10/10/10 13/13/13 8/8/8
f 6/6/6 8/8/8 13/13/13
f 13/13/13 12/12/12 6/6/6
f 3/3/3 5/5/5 11/11/11
f 11/11/11 9/9/9 3/3/3
f 4/4/4 3/3/3 9/9/9
f 9/9/9 10/10/10 4/4/4
f 7/7/7 1/1/1 4/4/4
f 4/4/4 8/8/8 7/7/7
f 23/23/23 7/7/7 8/8/8
f 8/8/8 6/6/6 23/23/23
f 2/2/2 22/22/22 5/5/5
f 5/5/5 3/3/3 2/2/2
f 1/1/1 2/2/2 3/3/3
f 3/3/3 4/4/4 1/1/1
