# Recovered local-space geometry; original node transforms not applied
o mesh_0
v 4.4023542404174805 -23.648014068603516 0.5896186828613281
v 22.18874740600586 16.928287506103516 0.5821304321289062
v -20.44437026977539 9.592622518539429e-06 0.6000785827636719
v -13.384044647216797 -16.92828369140625 0.59710693359375
v -13.384029388427734 16.92829704284668 0.59710693359375
v -52.44574737548828 6.128102540969849e-06 -55.375518798828125
v 4.998488903045654 0.0409393310546875 0.5894584655761719
v 22.188743591308594 -16.92831039428711 0.5821304321289062
v 29.24907875061035 -5.837529897689819e-06 0.5791587829589844
v 4.402362823486328 23.648006439208984 0.5896186828613281
v -6.410585403442383 -14.141219139099121 -41.28834533691406
v -18.856069564819336 -19.754594802856445 -34.55360412597656
v -1.470327377319336 -4.559755325317383e-06 -43.961708068847656
v -36.77790832519531 4.842877388000488e-08 -25.13732147216797
v -31.301551818847656 -14.141199111938477 -27.818862915039062
v 14.27520751953125 -16.474000930786133 -15.541107177734375
v 20.94084930419922 -6.917864084243774e-06 -16.626708984375
v -25.974578857421875 5.9157609939575195e-06 -8.985790252685547
v -19.308944702148438 -16.473979949951172 -10.071392059326172
v -32.1015510559082 -8.96873950958252 -55.97138977050781
v -45.389808654785156 -9.256333351135254 -43.283203125
v -6.410579681396484 14.141209602355957 -41.28834533691406
v -31.30154800415039 14.14119815826416 -27.81885528564453
v 14.275215148925781 16.473983764648438 -15.541107177734375
v -2.516857147216797 23.01337242126465 -12.80624771118164
v -19.30893325805664 16.473987579345703 -10.071388244628906
v -32.10154724121094 8.968737602233887 -55.97138977050781
v -29.73131561279297 -1.5273690223693848e-07 -58.30292510986328
v -48.64069366455078 8.568167686462402e-08 -40.5311279296875
v -45.389793395996094 9.256327629089355 -43.283203125
v -47.76568603515625 -3.1000165939331055 -57.971771240234375
v -51.773773193359375 -3.413450002670288 -53.142539978027344
v -47.76568603515625 3.10002064704895 -57.971771240234375
v -47.21282958984375 2.9206275939941406e-06 -58.819549560546875
v -53.0347900390625 4.1835010051727295e-06 -52.54426574707031
v -51.773773193359375 3.4134528636932373 -53.142539978027344
v 15.680883407592773 -9.97939682006836 0.584747314453125
v 4.998490810394287 -13.973514556884766 0.5894584655761719
v 19.93890380859375 0.040935516357421875 0.5828704833984375
v -9.941925048828125 0.0409393310546875 0.5960464477539062
v -5.683906555175781 -9.979381561279297 0.5941696166992188
v 15.680883407592773 10.061267852783203 0.584747314453125
v 4.998493671417236 14.05539321899414 0.5894584655761719
v -5.683904647827148 10.061260223388672 0.5941696166992188
v -2.516866683959961 -23.01337432861328 -12.806243896484375
v -38.48856735229492 -12.774927139282227 -49.90385437011719
v -18.856063842773438 19.754592895507812 -34.55360412597656
v -38.48856735229492 12.774919509887695 -49.903846740722656
v -49.59185028076172 -4.601070880889893 -55.640098571777344
v -49.59185028076172 4.601075172424316 -55.640098571777344
v -38.48856735229492 -12.774927139282227 -49.90385437011719
v -18.856069564819336 -19.754594802856445 -34.55360412597656
v -2.516866683959961 -23.01337432861328 -12.806243896484375
v 4.4023542404174805 -23.648014068603516 0.5896186828613281
v -49.59185028076172 -4.601070880889893 -55.640098571777344
v -18.856063842773438 19.754592895507812 -34.55360412597656
v -38.48856735229492 12.774919509887695 -49.903846740722656
v -2.516857147216797 23.01337242126465 -12.80624771118164
v 4.402362823486328 23.648006439208984 0.5896186828613281
v -49.59185028076172 4.601075172424316 -55.640098571777344
v 4.4023542404174805 -23.648014068603516 0.5896186828613281
v 22.188743591308594 -16.92831039428711 0.5821304321289062
v 29.24907875061035 -5.837529897689819e-06 0.5791587829589844
v -20.44437026977539 9.592622518539429e-06 0.6000785827636719
v -13.384044647216797 -16.92828369140625 0.59710693359375
v 22.18874740600586 16.928287506103516 0.5821304321289062
v 4.402362823486328 23.648006439208984 0.5896186828613281
v -13.384029388427734 16.92829704284668 0.59710693359375
vt 0.17998741567134857 0.2758193016052246
vt 0.2332669049501419 0.2593550682067871
vt 0.21353580057621002 0.25376492738723755
vt 0.2332669049501419 0.2593550682067871
vt 0.1940835863351822 0.26065337657928467
vt 0.21761374175548553 0.3690924644470215
vt 0.31318923830986023 0.3787892460823059
vt 0.1940835863351822 0.26065337657928467
vt 0.21353580057621002 0.25376492738723755
vt 0.24881836771965027 0.2731741666793823
vt 0.2044285088777542 0.3145850896835327
vt 0.19293352961540222 0.3226848840713501
vt 0.2160489410161972 0.31126677989959717
vt 0.2160489410161972 0.31126677989959717
vt 0.22834792733192444 0.3136858344078064
vt 0.19765517115592957 0.27975112199783325
vt 0.21393811702728271 0.27417272329330444
vt 0.21393811702728271 0.27417272329330444
vt 0.23071898519992828 0.27840614318847656
vt 0.21036893129348755 0.34623366594314575
vt 0.22509320080280304 0.3456440567970276
vt 0.22834792733192444 0.3136858344078064
vt 0.2044285088777542 0.3145850896835327
vt 0.23071898519992828 0.27840614318847656
vt 0.24596990644931793 0.2897816300392151
vt 0.19765517115592957 0.27975112199783325
vt 0.22509320080280304 0.3456440567970276
vt 0.21780355274677277 0.34463977813720703
vt 0.21780355274677277 0.34463977813720703
vt 0.21036893129348755 0.34623366594314575
vt 0.21529337763786316 0.36311376094818115
vt 0.2206786721944809 0.36320483684539795
vt 0.2206786721944809 0.36320483684539795
vt 0.21806494891643524 0.362684428691864
vt 0.21806494891643524 0.362684428691864
vt 0.21529337763786316 0.36311376094818115
vt 0.3371129333972931 0.4419511556625366
vt 0.2900332510471344 0.44195348024368286
vt 0.2900330126285553 0.44195348024368286
vt 0.2900332510471344 0.44195348024368286
vt 0.3371129333972931 0.4419511556625366
vt 0.3371129333972931 0.4419511556625366
vt 0.2900330126285553 0.44195348024368286
vt 0.3371129333972931 0.4419511556625366
vt 0.18466278910636902 0.29202669858932495
vt 0.20293064415454865 0.3510098457336426
vt 0.2407604604959488 0.3215077519416809
vt 0.23180416226387024 0.35075438022613525
vt 0.2128501981496811 0.3652450442314148
vt 0.22240670025348663 0.3653234839439392
vt 0.23180416226387024 0.35075438022613525
vt 0.2407604604959488 0.3215077519416809
vt 0.24596990644931793 0.2897816300392151
vt 0.24881836771965027 0.2731741666793823
vt 0.22240670025348663 0.3653234839439392
vt 0.19293352961540222 0.3226848840713501
vt 0.20293064415454865 0.3510098457336426
vt 0.18466278910636902 0.29202669858932495
vt 0.17998741567134857 0.2758193016052246
vt 0.2128501981496811 0.3652450442314148
vt 0.268039733171463 0.4961588382720947
vt 0.357858270406723 0.49615901708602905
vt 0.268039733171463 0.4961588382720947
vt 0.268039733171463 0.4961588382720947
vt 0.357858270406723 0.49615901708602905
vt 0.357858270406723 0.49615901708602905
vt 0.268039733171463 0.4961588382720947
vt 0.357858270406723 0.49615901708602905
vn -0.12385464459657669 -0.9920239448547363 0.023424560204148293
vn 0.7239189147949219 0.5848925709724426 -0.36584439873695374
vn -0.8639803528785706 0.12801620364189148 0.4869803190231323
vn -0.7145788669586182 -0.585092306137085 0.3834632337093353
vn -0.6422353386878967 0.6931830048561096 0.32715609669685364
vn -0.7949531674385071 2.648244787906151e-07 -0.6066707968711853
vn 0.00044098528451286256 -2.991562900178657e-11 1.0
vn 0.5427653193473816 -0.7852423787117004 -0.29799360036849976
vn 0.8907458782196045 -0.1285296529531479 -0.4359494745731354
vn -0.005133279133588076 0.9994534254074097 -0.032656870782375336
vn 0.33613041043281555 -0.761179506778717 -0.5546368956565857
vn -0.20145174860954285 -0.9760441184043884 -0.08218948543071747
vn 0.5971633195877075 -0.0515156164765358 -0.8004636764526367
vn -0.8184792399406433 0.07586833089590073 0.5695047974586487
vn -0.67655348777771 -0.6119587421417236 0.40961188077926636
vn 0.6731725931167603 -0.5821037888526917 -0.45606347918510437
vn 0.8330391645431519 0.12645168602466583 -0.5385682582855225
vn -0.8476778864860535 -0.13133031129837036 0.5139985680580139
vn -0.5417870879173279 -0.7985589504241943 0.2622409760951996
vn 0.14400187134742737 -0.500400722026825 -0.8537344932556152
vn -0.6239123940467834 -0.7695947885513306 0.1358572542667389
vn 0.4902488887310028 0.6095057725906372 -0.6230238676071167
vn -0.6032036542892456 0.7218837738037109 0.3391595482826233
vn 0.4986441135406494 0.7821354866027832 -0.3736550807952881
vn -0.09138189256191254 0.9949232935905457 -0.042154308408498764
vn -0.6598109006881714 0.6598097681999207 0.3595840334892273
vn 0.1382971853017807 0.5622097253799438 -0.8153491020202637
vn 0.244425967335701 -1.599341636904228e-08 -0.9696679711341858
vn -0.8782857656478882 4.4271780552662676e-07 0.4781360924243927
vn -0.62391197681427 0.7695950865745544 0.13585740327835083
vn -0.3315221965312958 -0.47432488203048706 -0.8155421018600464
vn -0.862084150314331 -0.5060685276985168 -0.026562925428152084
vn -0.3315219581127167 0.4743252992630005 -0.8155419826507568
vn -0.176298126578331 5.8518448753375196e-08 -0.9843369126319885
vn -0.9976183772087097 3.219747668481432e-07 0.0689755380153656
vn -0.8620837330818176 0.5060692429542542 -0.026562370359897614
vn 0.0004314606194384396 2.68730400421191e-06 1.0
vn 0.00043364844168536365 -1.333909767708974e-05 1.0
vn 0.0004186768492218107 5.256075610304833e-07 0.9999999403953552
vn 0.00040950896800495684 1.920556996992673e-06 0.9999999403953552
vn 0.0004163612611591816 -1.6531088476767763e-05 0.9999999403953552
vn 0.0004238508699927479 -1.0103523891302757e-05 1.0
vn 0.00043493189150467515 -1.4152724361338187e-06 1.0
vn 0.00042521688737906516 1.1962680218857713e-05 1.0
vn 0.0944598913192749 -0.9852730631828308 -0.14252904057502747
vn -0.2053000032901764 -0.885769784450531 -0.41624996066093445
vn -0.061472855508327484 0.9757000803947449 -0.21031084656715393
vn -0.273105651140213 0.878487765789032 -0.392010897397995
vn -0.5838916301727295 -0.682598352432251 -0.43946561217308044
vn -0.5838913321495056 0.6825990080833435 -0.4394650459289551
vn -0.2053000032901764 -0.885769784450531 -0.41624996066093445
vn -0.20145174860954285 -0.9760441184043884 -0.08218948543071747
vn 0.0944598913192749 -0.9852730631828308 -0.14252904057502747
vn -0.12385464459657669 -0.9920239448547363 0.023424560204148293
vn -0.5838916301727295 -0.682598352432251 -0.43946561217308044
vn -0.061472855508327484 0.9757000803947449 -0.21031084656715393
vn -0.273105651140213 0.878487765789032 -0.392010897397995
vn -0.09138189256191254 0.9949232935905457 -0.042154308408498764
vn -0.005133279133588076 0.9994534254074097 -0.032656870782375336
vn -0.5838913321495056 0.6825990080833435 -0.4394650459289551
vn 0.0004262332513462752 -2.3197528662421973e-06 1.0
vn 0.0004096538759768009 1.1208999239897821e-05 0.9999999403953552
vn 0.00040171845466829836 -4.7045646169863176e-06 0.9999999403953552
vn 0.00038670876529067755 -6.874346581753343e-06 0.9999999403953552
vn 0.000411121582146734 -2.2593052563024685e-05 0.9999999403953552
vn 0.0004211205814499408 -7.659258699277416e-06 0.9999999403953552
vn 0.0004236737440805882 1.709978823782876e-05 1.0
vn 0.00039695625309832394 2.16234057006659e-05 0.9999999403953552
f 7/7/7 43/43/43 44/44/44
f 44/44/44 43/43/43 67/67/67
f 67/67/67 68/68/68 44/44/44
f 7/7/7 44/44/44 40/40/40
f 40/40/40 44/44/44 68/68/68
f 68/68/68 64/64/64 40/40/40
f 7/7/7 39/39/39 42/42/42
f 42/42/42 39/39/39 63/63/63
f 63/63/63 66/66/66 42/42/42
f 7/7/7 42/42/42 43/43/43
f 43/43/43 42/42/42 66/66/66
f 66/66/66 67/67/67 43/43/43
f 7/7/7 41/41/41 38/38/38
f 38/38/38 41/41/41 65/65/65
f 65/65/65 61/61/61 38/38/38
f 7/7/7 40/40/40 41/41/41
f 41/41/41 40/40/40 64/64/64
f 64/64/64 65/65/65 41/41/41
f 7/7/7 37/37/37 39/39/39
f 39/39/39 37/37/37 62/62/62
f 62/62/62 63/63/63 39/39/39
f 7/7/7 38/38/38 37/37/37
f 37/37/37 38/38/38 61/61/61
f 61/61/61 62/62/62 37/37/37
f 6/6/6 36/36/36 60/60/60
f 6/6/6 35/35/35 36/36/36
f 6/6/6 33/33/33 34/34/34
f 6/6/6 50/50/50 33/33/33
f 6/6/6 55/55/55 32/32/32
f 6/6/6 32/32/32 35/35/35
f 6/6/6 34/34/34 31/31/31
f 6/6/6 31/31/31 49/49/49
f 30/30/30 57/57/57 60/60/60
f 60/60/60 36/36/36 30/30/30
f 29/29/29 30/30/30 36/36/36
f 36/36/36 35/35/35 29/29/29
f 27/27/27 28/28/28 34/34/34
f 34/34/34 33/33/33 27/27/27
f 48/48/48 27/27/27 33/33/33
f 33/33/33 50/50/50 48/48/48
f 59/59/59 58/58/58 26/26/26
f 26/26/26 5/5/5 59/59/59
f 26/26/26 18/18/18 3/3/3
f 3/3/3 5/5/5 26/26/26
f 17/17/17 24/24/24 2/2/2
f 2/2/2 9/9/9 17/17/17
f 24/24/24 25/25/25 10/10/10
f 10/10/10 2/2/2 24/24/24
f 58/58/58 56/56/56 23/23/23
f 23/23/23 26/26/26 58/58/58
f 30/30/30 23/23/23 56/56/56
f 56/56/56 57/57/57 30/30/30
f 26/26/26 23/23/23 14/14/14
f 14/14/14 18/18/18 26/26/26
f 29/29/29 14/14/14 23/23/23
f 23/23/23 30/30/30 29/29/29
f 17/17/17 13/13/13 22/22/22
f 22/22/22 24/24/24 17/17/17
f 27/27/27 22/22/22 13/13/13
f 13/13/13 28/28/28 27/27/27
f 24/24/24 22/22/22 47/47/47
f 47/47/47 25/25/25 24/24/24
f 27/27/27 48/48/48 47/47/47
f 47/47/47 22/22/22 27/27/27
f 55/55/55 51/51/51 21/21/21
f 21/21/21 32/32/32 55/55/55
f 32/32/32 21/21/21 29/29/29
f 29/29/29 35/35/35 32/32/32
f 34/34/34 28/28/28 20/20/20
f 20/20/20 31/31/31 34/34/34
f 31/31/31 20/20/20 46/46/46
f 46/46/46 49/49/49 31/31/31
f 19/19/19 53/53/53 54/54/54
f 54/54/54 4/4/4 19/19/19
f 18/18/18 19/19/19 4/4/4
f 4/4/4 3/3/3 18/18/18
f 16/16/16 17/17/17 9/9/9
f 9/9/9 8/8/8 16/16/16
f 45/45/45 16/16/16 8/8/8
f 8/8/8 1/1/1 45/45/45
f 52/52/52 53/53/53 19/19/19
f 19/19/19 15/15/15 52/52/52
f 52/52/52 15/15/15 21/21/21
f 21/21/21 51/51/51 52/52/52
f 15/15/15 19/19/19 18/18/18
f 18/18/18 14/14/14 15/15/15
f 15/15/15 14/14/14 29/29/29
f 29/29/29 21/21/21 15/15/15
f 13/13/13 17/17/17 16/16/16
f 16/16/16 11/11/11 13/13/13
f 13/13/13 11/11/11 20/20/20
f 20/20/20 28/28/28 13/13/13
f 11/11/11 16/16/16 45/45/45
f 45/45/45 12/12/12 11/11/11
f 11/11/11 12/12/12 46/46/46
f 46/46/46 20/20/20 11/11/11
