# Recovered local-space geometry; original node transforms not applied
o mesh_0
v -28.443954467773438 -17.515464782714844 -44.12643814086914
v -18.7659969329834 -12.633679389953613 -52.24720764160156
v 6.246723175048828 -16.856901168823242 -31.49138641357422
v -10.029560089111328 -23.370553970336914 -25.56728744506836
v 12.536029815673828 -8.243760930781718e-06 -33.780494689941406
v -32.59513854980469 -3.152217686874792e-08 -17.35411262512207
v -38.121910095214844 -12.633666038513184 -36.00562286376953
v -26.305831909179688 -16.856863021850586 -19.643218994140625
v -44.268211364746094 -5.455256462097168 -59.12645721435547
v -47.489707946777344 -8.20743465423584 -54.97145080566406
v -53.16812515258789 -3.152240424242336e-08 -48.645729064941406
v -51.50843811035156 -6.172785758972168 -50.4447021484375
v -28.443946838378906 17.515457153320312 -44.12643051147461
v -18.7659912109375 12.633681297302246 -52.24720764160156
v 6.246726989746094 16.856876373291016 -31.49138641357422
v -10.029555320739746 23.37055778503418 -25.56729507446289
v -15.026336669921875 -3.152308636344969e-08 -55.3851318359375
v -41.86156463623047 -3.152217686874792e-08 -32.867706298828125
v -38.12190628051758 12.633662223815918 -36.005615234375
v -26.305828094482422 16.85686683654785 -19.643211364746094
v -44.268211364746094 5.455250263214111 -59.12645721435547
v -47.489707946777344 8.207430839538574 -54.97145080566406
v -43.49155807495117 -3.1522631616098806e-08 -60.513694763183594
v -53.16812515258789 -3.152240424242336e-08 -48.645729064941406
v -51.50843811035156 6.172776699066162 -50.4447021484375
v -53.625282287597656 8.180713848560117e-06 -57.118309020996094
v -29.615392684936523 -23.315237045288086 -45.69001770019531
v -17.240671157836914 -16.559030532836914 -56.68785858154297
v 9.461862564086914 -20.9573974609375 -34.70124435424805
v -10.28870677947998 -29.39151382446289 -26.63276481628418
v 17.178436279296875 -8.453566806565505e-06 -37.76828384399414
v -37.88880157470703 -4.402649267376546e-07 -14.283035278320312
v -42.110416412353516 -16.938390731811523 -34.26908493041992
v -30.154996871948242 -21.31914520263672 -17.9920597076416
v -45.144287109375 -8.52122974395752 -64.35002136230469
v -50.12959671020508 -13.094789505004883 -57.54011154174805
v -58.78812026977539 9.412448775947269e-07 -46.531715393066406
v -56.32650375366211 -9.889780044555664 -49.79424285888672
v -29.61538314819336 23.315229415893555 -45.69001007080078
v -17.240665435791016 16.55903434753418 -56.68785858154297
v 9.461870193481445 20.957368850708008 -34.70124816894531
v -10.288698196411133 29.391517639160156 -26.632776260375977
v -12.397823333740234 -6.874084874652908e-07 -60.91191482543945
v -46.994606018066406 -1.5757089499857102e-07 -29.535125732421875
v -42.11041259765625 16.938385009765625 -34.26907730102539
v -30.154993057250977 21.319149017333984 -17.99205207824707
v -45.144287109375 8.521223068237305 -64.35002136230469
v -50.12959289550781 13.094788551330566 -57.54011154174805
v -43.83909225463867 6.014195719217241e-07 -66.62373352050781
v -56.32650375366211 9.889772415161133 -49.79423904418945
v -58.71637725830078 1.227784468937898e-05 -60.514652252197266
v 4.995843887329102 -26.103450775146484 -0.045196533203125
v 25.093555450439453 18.828083038330078 -0.045196533203125
v 25.093551635742188 -18.82809829711914 -0.045196533203125
v 32.859493255615234 -3.218133315385785e-06 -0.04519462585449219
v -22.867816925048828 1.3206342373450752e-05 -0.045196533203125
v -15.101886749267578 -18.828079223632812 -0.045192718505859375
v 4.995857238769531 26.10344696044922 -0.04519844055175781
v -15.10186767578125 18.828096389770508 -0.045192718505859375
v 5.125979423522949 -32.2196044921875 -0.21870094537734985
v 29.170000076293945 23.085250854492188 -1.6924660205841064
v 29.16999626159668 -23.085269927978516 -1.6924614906311035
v 38.572837829589844 -3.262152404204244e-06 -2.2388393878936768
v -28.334430694580078 1.6863328710314818e-05 2.7062642574310303
v -18.969467163085938 -23.236846923828125 1.703796148300171
v 5.125997543334961 32.219600677490234 -0.21870625019073486
v -18.969446182250977 23.23686981201172 1.7037930488586426
v 4.995841026306152 8.344650268554688e-07 -0.045195579528808594
v -10.029560089111328 -23.370553970336914 -25.56728744506836
v -28.443954467773438 -17.515464782714844 -44.12643814086914
v 4.995843887329102 -26.103450775146484 -0.045196533203125
v -18.7659969329834 -12.633679389953613 -52.24720764160156
v -28.443954467773438 -17.515464782714844 -44.12643814086914
v -15.026336669921875 -3.152308636344969e-08 -55.3851318359375
v -38.121910095214844 -12.633666038513184 -36.00562286376953
v -41.86156463623047 -3.152217686874792e-08 -32.867706298828125
v -10.029555320739746 23.37055778503418 -25.56729507446289
v -28.443946838378906 17.515457153320312 -44.12643051147461
v 4.995857238769531 26.10344696044922 -0.04519844055175781
v -18.7659912109375 12.633681297302246 -52.24720764160156
v -28.443946838378906 17.515457153320312 -44.12643051147461
v -38.12190628051758 12.633662223815918 -36.005615234375
v -44.268211364746094 -5.455256462097168 -59.12645721435547
v -47.489707946777344 -8.20743465423584 -54.97145080566406
v -43.49155807495117 -3.1522631616098806e-08 -60.513694763183594
v -44.268211364746094 -5.455256462097168 -59.12645721435547
v -53.625282287597656 8.180713848560117e-06 -57.118309020996094
v -51.50843811035156 -6.172785758972168 -50.4447021484375
v -53.16812515258789 -3.152240424242336e-08 -48.645729064941406
v -53.625282287597656 8.180713848560117e-06 -57.118309020996094
v -47.489707946777344 -8.20743465423584 -54.97145080566406
v -51.50843811035156 -6.172785758972168 -50.4447021484375
v -53.625282287597656 8.180713848560117e-06 -57.118309020996094
v -47.489707946777344 8.207430839538574 -54.97145080566406
v -44.268211364746094 5.455250263214111 -59.12645721435547
v -53.625282287597656 8.180713848560117e-06 -57.118309020996094
v -44.268211364746094 5.455250263214111 -59.12645721435547
v -43.49155807495117 -3.1522631616098806e-08 -60.513694763183594
v -53.625282287597656 8.180713848560117e-06 -57.118309020996094
v -53.16812515258789 -3.152240424242336e-08 -48.645729064941406
v -51.50843811035156 6.172776699066162 -50.4447021484375
v -53.625282287597656 8.180713848560117e-06 -57.118309020996094
v -51.50843811035156 6.172776699066162 -50.4447021484375
v -47.489707946777344 8.207430839538574 -54.97145080566406
v -53.625282287597656 8.180713848560117e-06 -57.118309020996094
v -17.240671157836914 -16.559030532836914 -56.68785858154297
v -29.615392684936523 -23.315237045288086 -45.69001770019531
v -12.397823333740234 -6.874084874652908e-07 -60.91191482543945
v -42.110416412353516 -16.938390731811523 -34.26908493041992
v -46.994606018066406 -1.5757089499857102e-07 -29.535125732421875
v -10.288698196411133 29.391517639160156 -26.632776260375977
v -29.61538314819336 23.315229415893555 -45.69001007080078
v 5.125997543334961 32.219600677490234 -0.21870625019073486
v -17.240665435791016 16.55903434753418 -56.68785858154297
v -29.61538314819336 23.315229415893555 -45.69001007080078
v -42.11041259765625 16.938385009765625 -34.26907730102539
v -45.144287109375 -8.52122974395752 -64.35002136230469
v -50.12959671020508 -13.094789505004883 -57.54011154174805
v -43.83909225463867 6.014195719217241e-07 -66.62373352050781
v -58.71637725830078 1.227784468937898e-05 -60.514652252197266
v -45.144287109375 -8.52122974395752 -64.35002136230469
v -56.32650375366211 -9.889780044555664 -49.79424285888672
v -58.71637725830078 1.227784468937898e-05 -60.514652252197266
v -58.78812026977539 9.412448775947269e-07 -46.531715393066406
v -50.12959671020508 -13.094789505004883 -57.54011154174805
v -58.71637725830078 1.227784468937898e-05 -60.514652252197266
v -56.32650375366211 -9.889780044555664 -49.79424285888672
v -50.12959289550781 13.094788551330566 -57.54011154174805
v -58.71637725830078 1.227784468937898e-05 -60.514652252197266
v -45.144287109375 8.521223068237305 -64.35002136230469
v -45.144287109375 8.521223068237305 -64.35002136230469
v -58.71637725830078 1.227784468937898e-05 -60.514652252197266
v -43.83909225463867 6.014195719217241e-07 -66.62373352050781
v -58.78812026977539 9.412448775947269e-07 -46.531715393066406
v -58.71637725830078 1.227784468937898e-05 -60.514652252197266
v -56.32650375366211 9.889772415161133 -49.79423904418945
v -56.32650375366211 9.889772415161133 -49.79423904418945
v -58.71637725830078 1.227784468937898e-05 -60.514652252197266
v -50.12959289550781 13.094788551330566 -57.54011154174805
v -15.101886749267578 -18.828079223632812 -0.045192718505859375
v 4.995843887329102 -26.103450775146484 -0.045196533203125
v 32.859493255615234 -3.218133315385785e-06 -0.04519462585449219
v 25.093555450439453 18.828083038330078 -0.045196533203125
v 4.995857238769531 26.10344696044922 -0.04519844055175781
v 25.093551635742188 -18.82809829711914 -0.045196533203125
v -22.867816925048828 1.3206342373450752e-05 -0.045196533203125
v -15.10186767578125 18.828096389770508 -0.045192718505859375
v 4.995857238769531 26.10344696044922 -0.04519844055175781
vt 0.8800569772720337 0.2447391152381897
vt 0.9111379384994507 0.24814373254776
vt 0.9156904220581055 0.21755093336105347
vt 0.8896695375442505 0.21912282705307007
vt 0.9369447231292725 0.2169436812400818
vt 0.9365490674972534 0.22422760725021362
vt 0.9573171138763428 0.24464541673660278
vt 0.9631900787353516 0.22360855340957642
vt 0.891189455986023 0.14394766092300415
vt 0.8928738832473755 0.14396053552627563
vt 0.8894057273864746 0.14395958185195923
vt 0.891189455986023 0.14394766092300415
vt 0.9945989847183228 0.24690872430801392
vt 0.9625481367111206 0.24814373254776
vt 0.957085371017456 0.21755093336105347
vt 0.9879443645477295 0.21912282705307007
vt 0.9369447231292725 0.24945920705795288
vt 0.9365490674972534 0.2433045506477356
vt 0.9130991697311401 0.24464529752731323
vt 0.9088761806488037 0.22360855340957642
vt 0.891189455986023 0.14394766092300415
vt 0.8928738832473755 0.14396053552627563
vt 0.8894057273864746 0.14395958185195923
vt 0.8894057273864746 0.14395958185195923
vt 0.891189455986023 0.14394766092300415
vt 0.8911560773849487 0.141954243183136
vt 0.948400616645813 0.1835227608680725
vt 0.9486970901489258 0.18355971574783325
vt 0.9487407207489014 0.18322795629501343
vt 0.9484924077987671 0.1832450032234192
vt 0.9489433765411377 0.18322139978408813
vt 0.9479100704193115 0.18326860666275024
vt 0.9481308460235596 0.18348580598831177
vt 0.9481930732727051 0.18326205015182495
vt 0.9474273920059204 0.182414710521698
vt 0.9474453926086426 0.18241482973098755
vt 0.9474084377288818 0.18241482973098755
vt 0.9474273920059204 0.182414710521698
vt 0.949493408203125 0.1835463047027588
vt 0.9491877555847168 0.18355971574783325
vt 0.9491357803344727 0.18322795629501343
vt 0.9494298696517944 0.1832450032234192
vt 0.9489433765411377 0.1835739016532898
vt 0.9479100704193115 0.18347156047821045
vt 0.9476602077484131 0.18348580598831177
vt 0.9476155042648315 0.18326205015182495
vt 0.9474273920059204 0.182414710521698
vt 0.9474453926086426 0.18241482973098755
vt 0.9474084377288818 0.18241482973098755
vt 0.9474273920059204 0.182414710521698
vt 0.9474269151687622 0.18239349126815796
vt 0.8914752006530762 0.1884271502494812
vt 0.9567655324935913 0.17958348989486694
vt 0.9159564971923828 0.17958348989486694
vt 0.9369447231292725 0.1761661171913147
vt 0.9365490674972534 0.20321720838546753
vt 0.9663732051849365 0.19973421096801758
vt 0.9864364862442017 0.18842709064483643
vt 0.9065871238708496 0.19973421096801758
vt 0.948509693145752 0.18291229009628296
vt 0.9491325616836548 0.18281632661819458
vt 0.9487429857254028 0.18281632661819458
vt 0.9489433765411377 0.1827792525291443
vt 0.9479100704193115 0.18304520845413208
vt 0.9482272863388062 0.1830081343650818
vt 0.9494155645370483 0.18291229009628296
vt 0.9475909471511841 0.1830081343650818
vt 0.9396450519561768 0.1900222897529602
vt 0.9913113117218018 0.22200649976730347
vt 0.9826897382736206 0.24811547994613647
vt 0.9929307699203491 0.1907205581665039
vt 0.8911973237991333 0.14661246538162231
vt 0.8945378065109253 0.14661425352096558
vt 0.8878045082092285 0.14652597904205322
vt 0.8911973237991333 0.14661246538162231
vt 0.8878045082092285 0.14652597904205322
vt 0.8804980516433716 0.22200649976730347
vt 0.8920257091522217 0.24811547994613647
vt 0.8783328533172607 0.19072049856185913
vt 0.8911973237991333 0.14661246538162231
vt 0.8945378065109253 0.14661425352096558
vt 0.8911973237991333 0.14661246538162231
vt 0.8911206722259521 0.14406245946884155
vt 0.8928738832473755 0.1440754532814026
vt 0.8894057273864746 0.14407449960708618
vt 0.8911206722259521 0.14406245946884155
vt 0.8911560773849487 0.141954243183136
vt 0.8911206722259521 0.14406245946884155
vt 0.8894057273864746 0.14407449960708618
vt 0.8911560773849487 0.141954243183136
vt 0.8928738832473755 0.1440754532814026
vt 0.8911206722259521 0.14406245946884155
vt 0.8911560773849487 0.141954243183136
vt 0.8928738832473755 0.1440754532814026
vt 0.8911206722259521 0.14406245946884155
vt 0.8911560773849487 0.14195066690444946
vt 0.8911206722259521 0.14406245946884155
vt 0.8894057273864746 0.14407449960708618
vt 0.8911560773849487 0.14195066690444946
vt 0.8894057273864746 0.14407449960708618
vt 0.8911206722259521 0.14406245946884155
vt 0.8911560773849487 0.14195066690444946
vt 0.8911206722259521 0.14406245946884155
vt 0.8928738832473755 0.1440754532814026
vt 0.8911560773849487 0.14195066690444946
vt 0.9474273920059204 0.18244308233261108
vt 0.9474629163742065 0.18244308233261108
vt 0.9473913908004761 0.18244212865829468
vt 0.9474273920059204 0.18244308233261108
vt 0.9473913908004761 0.18244212865829468
vt 0.9473135471343994 0.1832450032234192
vt 0.9474362134933472 0.1835227608680725
vt 0.9472906589508057 0.18291229009628296
vt 0.9474273920059204 0.18244308233261108
vt 0.9474629163742065 0.18244308233261108
vt 0.9474273920059204 0.18244308233261108
vt 0.947426438331604 0.18241596221923828
vt 0.9474453926086426 0.18241602182388306
vt 0.9474084377288818 0.18241602182388306
vt 0.9474269151687622 0.18239349126815796
vt 0.947426438331604 0.18241596221923828
vt 0.947426438331604 0.18241596221923828
vt 0.9474269151687622 0.18239349126815796
vt 0.9474084377288818 0.18241602182388306
vt 0.9474453926086426 0.18241602182388306
vt 0.9474269151687622 0.18239349126815796
vt 0.947426438331604 0.18241596221923828
vt 0.9474453926086426 0.18241602182388306
vt 0.9474269151687622 0.18239349126815796
vt 0.947426438331604 0.18241596221923828
vt 0.947426438331604 0.18241596221923828
vt 0.9474269151687622 0.18239349126815796
vt 0.9474084377288818 0.18241602182388306
vt 0.9474084377288818 0.18241602182388306
vt 0.9474269151687622 0.18239349126815796
vt 0.947426438331604 0.18241596221923828
vt 0.947426438331604 0.18241596221923828
vt 0.9474269151687622 0.18239349126815796
vt 0.9474453926086426 0.18241602182388306
vt 0.9394822120666504 0.19010406732559204
vt 0.939723014831543 0.1900222897529602
vt 0.9400930404663086 0.1899089217185974
vt 0.9402543306350708 0.18994051218032837
vt 0.9404957294464111 0.1900222897529602
vt 0.9399224519729614 0.18994051218032837
vt 0.9392114877700806 0.190135657787323
vt 0.9389398097991943 0.19010406732559204
vt 0.938683271408081 0.1900222897529602
vn -0.12189566344022751 -0.9522854089736938 -0.27981093525886536
vn 0.24519459903240204 -0.640861451625824 -0.7274450063705444
vn 0.5145168304443359 -0.6861409544944763 -0.5142791867256165
vn -0.05257854983210564 -0.9891542196273804 -0.1371481567621231
vn 0.7027902603149414 -2.687052891303665e-08 -0.711397111415863
vn -0.871855616569519 1.5418994792071317e-07 0.4897629916667938
vn -0.618719756603241 -0.7388885617256165 0.26688891649246216
vn -0.6351422667503357 -0.7131521701812744 0.2966621220111847
vn 0.09728184342384338 -0.47811082005500793 -0.872895359992981
vn -0.27415159344673157 -0.9119796752929688 -0.3051786720752716
vn -0.7586443424224854 -0.36068660020828247 0.5425533652305603
vn -0.6584478616714478 -0.6893881559371948 0.3019774556159973
vn -0.12189549952745438 0.9522854089736938 -0.27981096506118774
vn 0.24519465863704681 0.6408616900444031 -0.7274447679519653
vn 0.514517068862915 0.6861405968666077 -0.5142793655395508
vn -0.05257809907197952 0.9891541600227356 -0.13714875280857086
vn 0.33106693625450134 -1.605463140208485e-08 -0.9436072707176208
vn -0.8426806926727295 -1.598263388302712e-08 0.5384136438369751
vn -0.618719756603241 0.7388885617256165 0.26688867807388306
vn -0.6351421475410461 0.7131522297859192 0.29666200280189514
vn 0.0972817912697792 0.47811073064804077 -0.8728954195976257
vn -0.2741517424583435 0.9119796752929688 -0.3051784336566925
vn 0.17731450498104095 1.3910718621445994e-07 -0.984154224395752
vn -0.7586442828178406 0.3606867790222168 0.5425531268119812
vn -0.6584480404853821 0.68938809633255 0.3019774258136749
vn -0.46209916472435 -0.5312008261680603 -0.7101338505744934
vn 0.12064938247203827 0.9511227607727051 0.2842699885368347
vn -0.2455306053161621 0.6396483182907104 0.728398859500885
vn -0.5154176354408264 0.6839378476142883 0.5163077116012573
vn 0.051308419555425644 0.9888986349105835 0.1394522488117218
vn -0.7018453478813171 1.0222711210872149e-07 0.7123294472694397
vn 0.8722572922706604 -1.227323309649364e-07 -0.4890472888946533
vn 0.6204599142074585 0.7391083240509033 -0.26219916343688965
vn 0.6332854628562927 0.7155118584632874 -0.29494455456733704
vn -0.09728249162435532 0.4826914370059967 0.8703706860542297
vn 0.27821585536003113 0.9096248149871826 0.30851033329963684
vn 0.8207734823226929 -4.805774977967303e-08 -0.5712538361549377
vn 0.6635226607322693 0.6873154044151306 -0.29552534222602844
vn 0.12064921110868454 -0.9511227011680603 0.28426992893218994
vn -0.2455306202173233 -0.6396483778953552 0.7283986806869507
vn -0.5154179334640503 -0.6839374899864197 0.5163078904151917
vn 0.05130798742175102 -0.9888985753059387 0.13945284485816956
vn -0.33177924156188965 4.8258819163038424e-08 0.9433571696281433
vn 0.8448993563652039 0.0 -0.5349253416061401
vn 0.6204599738121033 -0.7391083836555481 -0.2621990740299225
vn 0.633285403251648 -0.7155119776725769 -0.2949444353580475
vn -0.09728242456912994 -0.4826914370059967 0.8703708052635193
vn 0.2782158851623535 -0.9096248745918274 0.3085101842880249
vn -0.17874076962471008 -1.2411786087795917e-07 0.9838961958885193
vn 0.6635227799415588 -0.6873153448104858 -0.2955254316329956
vn 0.5093106031417847 0.4940389096736908 0.7046477198600769
vn -0.12563766539096832 -0.9915567636489868 -0.03209919482469559
vn 0.5095038414001465 0.7781388163566589 -0.36729535460472107
vn 0.5095033049583435 -0.7781392931938171 -0.3672950565814972
vn 0.8522486686706543 -1.588921527684306e-08 -0.5231369137763977
vn -0.8717679381370544 5.225616064308269e-07 0.4899190366268158
vn -0.7186755537986755 -0.5945938229560852 0.36050474643707275
vn -0.12563714385032654 0.9915568232536316 -0.0320994108915329
vn -0.7186753153800964 0.5945943593978882 0.36050447821617126
vn 0.1264379471540451 0.9914889931678772 0.031033173203468323
vn -0.5107694268226624 -0.7773094773292542 0.3672935664653778
vn -0.5107689499855042 0.7773099541664124 0.3672932982444763
vn -0.8524816632270813 3.978363949386221e-08 0.522757351398468
vn 0.8716219067573547 -4.770312784785347e-07 -0.49017903208732605
vn 0.715721070766449 0.5991821885108948 -0.3587813675403595
vn 0.12643733620643616 -0.991489052772522 0.03103351779282093
vn 0.7157208323478699 -0.5991827249526978 -0.35878095030784607
vn 1.765819206411834e-07 -3.653439506479117e-08 1.0
vn -0.05257854983210564 -0.9891542196273804 -0.1371481567621231
vn -0.12189566344022751 -0.9522854089736938 -0.27981093525886536
vn -0.12563766539096832 -0.9915567636489868 -0.03209919482469559
vn 0.24519459903240204 -0.640861451625824 -0.7274450063705444
vn -0.12189566344022751 -0.9522854089736938 -0.27981093525886536
vn 0.33106693625450134 -1.605463140208485e-08 -0.9436072707176208
vn -0.618719756603241 -0.7388885617256165 0.26688891649246216
vn -0.8426806926727295 -1.598263388302712e-08 0.5384136438369751
vn -0.05257809907197952 0.9891541600227356 -0.13714875280857086
vn -0.12189549952745438 0.9522854089736938 -0.27981096506118774
vn -0.12563714385032654 0.9915568232536316 -0.0320994108915329
vn 0.24519465863704681 0.6408616900444031 -0.7274447679519653
vn -0.12189549952745438 0.9522854089736938 -0.27981096506118774
vn -0.618719756603241 0.7388885617256165 0.26688867807388306
vn -0.46209916472435 -0.5312008261680603 -0.7101338505744934
vn -0.46209916472435 -0.5312008261680603 -0.7101338505744934
vn -0.3117738664150238 -0.19223542511463165 -0.9305066466331482
vn -0.3117738664150238 -0.19223542511463165 -0.9305066466331482
vn -0.3117738664150238 -0.19223542511463165 -0.9305066466331482
vn -0.9605149030685425 -0.27335935831069946 0.05182648450136185
vn -0.9605149030685425 -0.27335935831069946 0.05182648450136185
vn -0.9605149030685425 -0.27335935831069946 0.05182648450136185
vn -0.704929769039154 -0.6180164813995361 -0.3480370044708252
vn -0.704929769039154 -0.6180164813995361 -0.3480370044708252
vn -0.704929769039154 -0.6180164813995361 -0.3480370044708252
vn -0.4620983600616455 0.5312014818191528 -0.7101338505744934
vn -0.4620983600616455 0.5312014818191528 -0.7101338505744934
vn -0.4620983600616455 0.5312014818191528 -0.7101338505744934
vn -0.3117736279964447 0.19223573803901672 -0.9305067658424377
vn -0.3117736279964447 0.19223573803901672 -0.9305067658424377
vn -0.3117736279964447 0.19223573803901672 -0.9305067658424377
vn -0.9605146646499634 0.2733597755432129 0.05182698741555214
vn -0.9605146646499634 0.2733597755432129 0.05182698741555214
vn -0.9605146646499634 0.2733597755432129 0.05182698741555214
vn -0.704929530620575 0.6180174946784973 -0.3480355739593506
vn -0.704929530620575 0.6180174946784973 -0.3480355739593506
vn -0.704929530620575 0.6180174946784973 -0.3480355739593506
vn -0.2455306053161621 0.6396483182907104 0.728398859500885
vn 0.12064938247203827 0.9511227607727051 0.2842699885368347
vn -0.33177924156188965 4.8258819163038424e-08 0.9433571696281433
vn 0.6204599142074585 0.7391083240509033 -0.26219916343688965
vn 0.8448993563652039 0.0 -0.5349253416061401
vn 0.05130798742175102 -0.9888985753059387 0.13945284485816956
vn 0.12064921110868454 -0.9511227011680603 0.28426992893218994
vn 0.12643733620643616 -0.991489052772522 0.03103351779282093
vn -0.2455306202173233 -0.6396483778953552 0.7283986806869507
vn 0.12064921110868454 -0.9511227011680603 0.28426992893218994
vn 0.6204599738121033 -0.7391083836555481 -0.2621990740299225
vn 0.5093106031417847 0.4940389096736908 0.7046477198600769
vn 0.5093106031417847 0.4940389096736908 0.7046477198600769
vn 0.37326955795288086 0.1853775531053543 0.9090132117271423
vn 0.37326955795288086 0.1853775531053543 0.9090132117271423
vn 0.37326955795288086 0.1853775531053543 0.9090132117271423
vn 0.9707638621330261 0.23998486995697021 0.004980945494025946
vn 0.9707638621330261 0.23998486995697021 0.004980945494025946
vn 0.9707638621330261 0.23998486995697021 0.004980945494025946
vn 0.7413355112075806 0.5675060153007507 0.35827162861824036
vn 0.7413355112075806 0.5675060153007507 0.35827162861824036
vn 0.7413355112075806 0.5675060153007507 0.35827162861824036
vn 0.5093098878860474 -0.49403953552246094 0.7046477198600769
vn 0.5093098878860474 -0.49403953552246094 0.7046477198600769
vn 0.5093098878860474 -0.49403953552246094 0.7046477198600769
vn 0.37326931953430176 -0.1853777915239334 0.9090132713317871
vn 0.37326931953430176 -0.1853777915239334 0.9090132713317871
vn 0.37326931953430176 -0.1853777915239334 0.9090132713317871
vn 0.9707638621330261 -0.23998524248600006 0.004980556201189756
vn 0.9707638621330261 -0.23998524248600006 0.004980556201189756
vn 0.9707638621330261 -0.23998524248600006 0.004980556201189756
vn 0.7413352727890015 -0.5675070285797119 0.3582707345485687
vn 0.7413352727890015 -0.5675070285797119 0.3582707345485687
vn 0.7413352727890015 -0.5675070285797119 0.3582707345485687
vn 1.765819206411834e-07 -3.653439506479117e-08 1.0
vn 1.765819206411834e-07 -3.653439506479117e-08 1.0
vn -3.422645278305936e-08 8.718613742075831e-08 1.0
vn -3.422645278305936e-08 8.718613742075831e-08 1.0
vn -5.522745638586457e-08 1.0960329888121123e-07 1.0
vn 1.3225426975793653e-08 -3.653441638107324e-08 1.0
vn -3.4226371070644745e-08 1.8848949423500017e-07 1.0
vn -3.422654160090133e-08 -1.8848949423500017e-07 1.0
vn 2.450349256832851e-07 1.0960311414009993e-07 1.0
f 148/148/148 147/147/147 68/68/68
f 147/147/147 146/146/146 68/68/68
f 146/146/146 140/140/140 68/68/68
f 145/145/145 142/142/142 68/68/68
f 141/141/141 145/145/145 68/68/68
f 143/143/143 144/144/144 68/68/68
f 142/142/142 143/143/143 68/68/68
f 140/140/140 141/141/141 68/68/68
f 137/137/137 138/138/138 139/139/139
f 134/134/134 135/135/135 136/136/136
f 131/131/131 132/132/132 133/133/133
f 128/128/128 129/129/129 130/130/130
f 125/125/125 126/126/126 127/127/127
f 122/122/122 123/123/123 124/124/124
f 119/119/119 120/120/120 121/121/121
f 117/117/117 51/51/51 118/118/118
f 48/48/48 115/115/115 116/116/116
f 116/116/116 50/50/50 48/48/48
f 37/37/37 50/50/50 116/116/116
f 116/116/116 110/110/110 37/37/37
f 47/47/47 49/49/49 108/108/108
f 108/108/108 114/114/114 47/47/47
f 48/48/48 47/47/47 114/114/114
f 114/114/114 115/115/115 48/48/48
f 46/46/46 111/111/111 113/113/113
f 113/113/113 67/67/67 46/46/46
f 32/32/32 46/46/46 67/67/67
f 67/67/67 64/64/64 32/32/32
f 41/41/41 31/31/31 63/63/63
f 63/63/63 61/61/61 41/41/41
f 42/42/42 41/41/41 61/61/61
f 61/61/61 66/66/66 42/42/42
f 45/45/45 112/112/112 111/111/111
f 111/111/111 46/46/46 45/45/45
f 44/44/44 45/45/45 46/46/46
f 46/46/46 32/32/32 44/44/44
f 40/40/40 43/43/43 31/31/31
f 31/31/31 41/41/41 40/40/40
f 39/39/39 40/40/40 41/41/41
f 41/41/41 42/42/42 39/39/39
f 36/36/36 38/38/38 109/109/109
f 109/109/109 107/107/107 36/36/36
f 37/37/37 110/110/110 109/109/109
f 109/109/109 38/38/38 37/37/37
f 35/35/35 106/106/106 108/108/108
f 108/108/108 49/49/49 35/35/35
f 36/36/36 107/107/107 106/106/106
f 106/106/106 35/35/35 36/36/36
f 34/34/34 65/65/65 60/60/60
f 60/60/60 30/30/30 34/34/34
f 32/32/32 64/64/64 65/65/65
f 65/65/65 34/34/34 32/32/32
f 29/29/29 62/62/62 63/63/63
f 63/63/63 31/31/31 29/29/29
f 30/30/30 60/60/60 62/62/62
f 62/62/62 29/29/29 30/30/30
f 33/33/33 34/34/34 30/30/30
f 30/30/30 27/27/27 33/33/33
f 44/44/44 32/32/32 34/34/34
f 34/34/34 33/33/33 44/44/44
f 28/28/28 29/29/29 31/31/31
f 31/31/31 43/43/43 28/28/28
f 27/27/27 30/30/30 29/29/29
f 29/29/29 28/28/28 27/27/27
f 103/103/103 104/104/104 105/105/105
f 100/100/100 101/101/101 102/102/102
f 97/97/97 98/98/98 99/99/99
f 94/94/94 95/95/95 96/96/96
f 91/91/91 92/92/92 93/93/93
f 88/88/88 89/89/89 90/90/90
f 85/85/85 86/86/86 87/87/87
f 83/83/83 84/84/84 26/26/26
f 22/22/22 25/25/25 82/82/82
f 82/82/82 81/81/81 22/22/22
f 24/24/24 76/76/76 82/82/82
f 82/82/82 25/25/25 24/24/24
f 21/21/21 80/80/80 74/74/74
f 74/74/74 23/23/23 21/21/21
f 22/22/22 81/81/81 80/80/80
f 80/80/80 21/21/21 22/22/22
f 20/20/20 59/59/59 79/79/79
f 79/79/79 77/77/77 20/20/20
f 6/6/6 56/56/56 59/59/59
f 59/59/59 20/20/20 6/6/6
f 15/15/15 53/53/53 55/55/55
f 55/55/55 5/5/5 15/15/15
f 16/16/16 58/58/58 53/53/53
f 53/53/53 15/15/15 16/16/16
f 19/19/19 20/20/20 77/77/77
f 77/77/77 78/78/78 19/19/19
f 18/18/18 6/6/6 20/20/20
f 20/20/20 19/19/19 18/18/18
f 14/14/14 15/15/15 5/5/5
f 5/5/5 17/17/17 14/14/14
f 13/13/13 16/16/16 15/15/15
f 15/15/15 14/14/14 13/13/13
f 10/10/10 73/73/73 75/75/75
f 75/75/75 12/12/12 10/10/10
f 11/11/11 12/12/12 75/75/75
f 75/75/75 76/76/76 11/11/11
f 9/9/9 23/23/23 74/74/74
f 74/74/74 72/72/72 9/9/9
f 10/10/10 9/9/9 72/72/72
f 72/72/72 73/73/73 10/10/10
f 8/8/8 69/69/69 71/71/71
f 71/71/71 57/57/57 8/8/8
f 6/6/6 8/8/8 57/57/57
f 57/57/57 56/56/56 6/6/6
f 3/3/3 5/5/5 55/55/55
f 55/55/55 54/54/54 3/3/3
f 4/4/4 3/3/3 54/54/54
f 54/54/54 52/52/52 4/4/4
f 7/7/7 70/70/70 69/69/69
f 69/69/69 8/8/8 7/7/7
f 18/18/18 7/7/7 8/8/8
f 8/8/8 6/6/6 18/18/18
f 2/2/2 17/17/17 5/5/5
f 5/5/5 3/3/3 2/2/2
f 1/1/1 2/2/2 3/3/3
f 3/3/3 4/4/4 1/1/1
