# Recovered local-space geometry; original node transforms not applied
o mesh_0
v 16.97149658203125 -16.235992431640625 59.73368835449219
v 28.637752532958984 -11.710821151733398 58.713016510009766
v 33.14570617675781 -2.282921559526585e-05 58.31863784790039
v 28.63775634765625 11.710798263549805 58.71299743652344
v 16.971506118774414 16.23599624633789 59.73368835449219
v 5.305265426635742 11.7108154296875 60.754364013671875
v 0.7972850799560547 1.8074938452627975e-06 61.148738861083984
v 5.30523681640625 -11.71080493927002 60.75434494018555
v 15.273370742797852 -23.36212921142578 30.599773406982422
v 32.52208709716797 -16.850799560546875 29.0906925201416
v 39.18714904785156 1.8074939589496353e-06 28.507583618164062
v 32.5220947265625 16.8508243560791 29.0906982421875
v 15.273387908935547 23.36214828491211 30.599773406982422
v -1.9753189086914062 16.850839614868164 32.10884094238281
v -8.640406608581543 1.823196726036258e-05 32.69194793701172
v -1.975351333618164 -16.850793838500977 32.10884094238281
v 4.995843887329102 -26.103450775146484 -0.045196533203125
v 25.093555450439453 18.828083038330078 -0.045196533203125
v 13.84099006652832 -7.1672773361206055 73.24939727783203
v 18.42884063720703 -4.76389217376709 73.42664337158203
v 19.792800903320312 -6.404743089660769e-06 73.68578338623047
v 18.42884063720703 4.763887882232666 73.42662048339844
v 13.840993881225586 7.167264461517334 73.2493896484375
v 8.556968688964844 5.39048957824707 73.39679718017578
v 6.421881198883057 1.8074938452627975e-06 73.49723815917969
v 8.556952476501465 -5.390485763549805 73.39678955078125
v -0.8566513061523438 1.8074938452627975e-06 87.97911834716797
v 1.2736568450927734 -6.136682510375977 87.75825500488281
v 7.547645568847656 -8.159422874450684 88.51222229003906
v 11.444774627685547 -5.423342704772949 92.53863525390625
v 12.0847749710083 -6.404743089660769e-06 94.62190246582031
v 11.444781303405762 5.423346519470215 92.53861236572266
v 7.547651290893555 8.159417152404785 88.5122299194336
v 1.2736625671386719 6.136694431304932 87.7582778930664
v 32.859493255615234 -3.218133315385785e-06 -0.04519462585449219
v -22.867816925048828 1.3206342373450752e-05 -0.045196533203125
v -15.101886749267578 -18.828079223632812 -0.045192718505859375
v 17.28263282775879 -21.84772300720215 62.15568542480469
v 32.72359085083008 -15.502449035644531 61.23965072631836
v 38.711246490478516 -2.4706152544240467e-05 60.86405563354492
v 32.723602294921875 15.50241756439209 61.23963928222656
v 17.282651901245117 21.84772300720215 62.15568923950195
v 1.488814115524292 15.878825187683105 63.10309982299805
v -4.897261142730713 5.0351800382486545e-06 63.390647888183594
v 1.4887809753417969 -15.878811836242676 63.10308074951172
v 15.551380157470703 -29.40631103515625 31.51896858215332
v 36.93522262573242 -21.086044311523438 29.293901443481445
v 45.30666732788086 3.5867782344212173e-07 28.431005477905273
v 36.93523025512695 21.086069107055664 29.293907165527344
v 15.551400184631348 29.406330108642578 31.51896858215332
v -5.878293514251709 21.20449447631836 33.916290283203125
v -14.350746154785156 2.316154132131487e-05 34.893409729003906
v -5.878332138061523 -21.20444107055664 33.916290283203125
v 29.170000076293945 23.085250854492188 -1.6924660205841064
v 14.446121215820312 -12.920402526855469 75.246826171875
v 22.547061920166016 -8.172280311584473 76.4061508178711
v 24.997997283935547 3.0260753192123957e-07 76.90433502197266
v 22.547056198120117 8.172281265258789 76.4061279296875
v 14.446133613586426 12.920388221740723 75.24681854248047
v 4.510434150695801 9.941739082336426 73.99761962890625
v 0.30264997482299805 1.1014962183253374e-05 73.4608383178711
v 4.510405540466309 -9.94172477722168 73.99761199951172
v -6.708989143371582 4.998914278075972e-07 89.76898956298828
v -3.2434353828430176 -9.926069259643555 89.39818572998047
v 7.223043441772461 -13.997557640075684 90.31903076171875
v 13.57876205444336 -9.081766128540039 96.95629119873047
v 14.184016227722168 -2.2781841835239902e-06 100.37039947509766
v 13.57878589630127 9.08177375793457 96.95626068115234
v 7.223057270050049 13.997552871704102 90.31903839111328
v -3.2434229850769043 9.926081657409668 89.39823150634766
v 29.16999626159668 -23.085269927978516 -1.6924614906311035
v -28.334430694580078 1.6863328710314818e-05 2.7062642574310303
v 5.125997543334961 32.219600677490234 -0.21870625019073486
v -28.443954467773438 -17.515464782714844 -44.12643814086914
v -18.7659969329834 -12.633679389953613 -52.24720764160156
v 6.246723175048828 -16.856901168823242 -31.49138641357422
v -10.029560089111328 -23.370553970336914 -25.56728744506836
v 12.536029815673828 -8.243760930781718e-06 -33.780494689941406
v -32.59513854980469 -3.152217686874792e-08 -17.35411262512207
v -38.121910095214844 -12.633666038513184 -36.00562286376953
v -26.305831909179688 -16.856863021850586 -19.643218994140625
v -44.268211364746094 -5.455256462097168 -59.12645721435547
v -47.489707946777344 -8.20743465423584 -54.97145080566406
v -53.16812515258789 -3.152240424242336e-08 -48.645729064941406
v -51.50843811035156 -6.172785758972168 -50.4447021484375
v -28.443946838378906 17.515457153320312 -44.12643051147461
v -18.7659912109375 12.633681297302246 -52.24720764160156
v 6.246726989746094 16.856876373291016 -31.49138641357422
v -10.029555320739746 23.37055778503418 -25.56729507446289
v -15.026336669921875 -3.152308636344969e-08 -55.3851318359375
v -41.86156463623047 -3.152217686874792e-08 -32.867706298828125
v -38.12190628051758 12.633662223815918 -36.005615234375
v -26.305828094482422 16.85686683654785 -19.643211364746094
v -44.268211364746094 5.455250263214111 -59.12645721435547
v -47.489707946777344 8.207430839538574 -54.97145080566406
v -43.49155807495117 -3.1522631616098806e-08 -60.513694763183594
v -53.16812515258789 -3.152240424242336e-08 -48.645729064941406
v -51.50843811035156 6.172776699066162 -50.4447021484375
v -53.625282287597656 8.180713848560117e-06 -57.118309020996094
v -29.615392684936523 -23.315237045288086 -45.69001770019531
v -17.240671157836914 -16.559030532836914 -56.68785858154297
v 9.461862564086914 -20.9573974609375 -34.70124435424805
v -10.28870677947998 -29.39151382446289 -26.63276481628418
v 17.178436279296875 -8.453566806565505e-06 -37.76828384399414
v -37.88880157470703 -4.402649267376546e-07 -14.283035278320312
v -42.110416412353516 -16.938390731811523 -34.26908493041992
v -30.154996871948242 -21.31914520263672 -17.9920597076416
v -45.144287109375 -8.52122974395752 -64.35002136230469
v -50.12959671020508 -13.094789505004883 -57.54011154174805
v -58.78812026977539 9.412448775947269e-07 -46.531715393066406
v -56.32650375366211 -9.889780044555664 -49.79424285888672
v -29.61538314819336 23.315229415893555 -45.69001007080078
v -17.240665435791016 16.55903434753418 -56.68785858154297
v 9.461870193481445 20.957368850708008 -34.70124816894531
v -10.288698196411133 29.391517639160156 -26.632776260375977
v -12.397823333740234 -6.874084874652908e-07 -60.91191482543945
v -46.994606018066406 -1.5757089499857102e-07 -29.535125732421875
v -42.11041259765625 16.938385009765625 -34.26907730102539
v -30.154993057250977 21.319149017333984 -17.99205207824707
v -45.144287109375 8.521223068237305 -64.35002136230469
v -50.12959289550781 13.094788551330566 -57.54011154174805
v -43.83909225463867 6.014195719217241e-07 -66.62373352050781
v -56.32650375366211 9.889772415161133 -49.79423904418945
v -58.71637725830078 1.227784468937898e-05 -60.514652252197266
v 25.093551635742188 -18.82809829711914 -0.045196533203125
v 4.995857238769531 26.10344696044922 -0.04519844055175781
v -15.10186767578125 18.828096389770508 -0.045192718505859375
v 5.125979423522949 -32.2196044921875 -0.21870094537734985
v 38.572837829589844 -3.262152404204244e-06 -2.2388393878936768
v -18.969467163085938 -23.236846923828125 1.703796148300171
v -18.969446182250977 23.23686981201172 1.7037930488586426
v 28.637752532958984 -11.710821151733398 58.713016510009766
v 28.63775634765625 11.710798263549805 58.71299743652344
v 16.971506118774414 16.23599624633789 59.73368835449219
v 15.273387908935547 23.36214828491211 30.599773406982422
v 15.273370742797852 -23.36212921142578 30.599773406982422
v 16.97149658203125 -16.235992431640625 59.73368835449219
v 4.995857238769531 26.10344696044922 -0.04519844055175781
v 4.995843887329102 -26.103450775146484 -0.045196533203125
v 28.637752532958984 -11.710821151733398 58.713016510009766
v 16.97149658203125 -16.235992431640625 59.73368835449219
v 33.14570617675781 -2.282921559526585e-05 58.31863784790039
v 28.63775634765625 11.710798263549805 58.71299743652344
v 19.792800903320312 -6.404743089660769e-06 73.68578338623047
v 33.14570617675781 -2.282921559526585e-05 58.31863784790039
v 16.971506118774414 16.23599624633789 59.73368835449219
v 5.305265426635742 11.7108154296875 60.754364013671875
v 0.7972850799560547 1.8074938452627975e-06 61.148738861083984
v 5.30523681640625 -11.71080493927002 60.75434494018555
v 6.421881198883057 1.8074938452627975e-06 73.49723815917969
v 0.7972850799560547 1.8074938452627975e-06 61.148738861083984
v 1.2736568450927734 -6.136682510375977 87.75825500488281
v 1.2736568450927734 -6.136682510375977 87.75825500488281
v 11.444774627685547 -5.423342704772949 92.53863525390625
v 12.0847749710083 -6.404743089660769e-06 94.62190246582031
v -0.8566513061523438 1.8074938452627975e-06 87.97911834716797
v -0.8566513061523438 1.8074938452627975e-06 87.97911834716797
v 12.0847749710083 -6.404743089660769e-06 94.62190246582031
v 11.444781303405762 5.423346519470215 92.53861236572266
v 11.444781303405762 5.423346519470215 92.53861236572266
v 1.2736625671386719 6.136694431304932 87.7582778930664
v 18.42884063720703 -4.76389217376709 73.42664337158203
v 11.444774627685547 -5.423342704772949 92.53863525390625
v 7.547645568847656 -8.159422874450684 88.51222229003906
v 7.547645568847656 -8.159422874450684 88.51222229003906
v 13.84099006652832 -7.1672773361206055 73.24939727783203
v 18.42884063720703 -4.76389217376709 73.42664337158203
v 19.792800903320312 -6.404743089660769e-06 73.68578338623047
v 12.0847749710083 -6.404743089660769e-06 94.62190246582031
v 11.444774627685547 -5.423342704772949 92.53863525390625
v 11.444774627685547 -5.423342704772949 92.53863525390625
v 18.42884063720703 -4.76389217376709 73.42664337158203
v 19.792800903320312 -6.404743089660769e-06 73.68578338623047
v 18.42884063720703 4.763887882232666 73.42662048339844
v 11.444781303405762 5.423346519470215 92.53861236572266
v 12.0847749710083 -6.404743089660769e-06 94.62190246582031
v 12.0847749710083 -6.404743089660769e-06 94.62190246582031
v 19.792800903320312 -6.404743089660769e-06 73.68578338623047
v 18.42884063720703 4.763887882232666 73.42662048339844
v 13.840993881225586 7.167264461517334 73.2493896484375
v 7.547651290893555 8.159417152404785 88.5122299194336
v 11.444781303405762 5.423346519470215 92.53861236572266
v 11.444781303405762 5.423346519470215 92.53861236572266
v 18.42884063720703 4.763887882232666 73.42662048339844
v 13.840993881225586 7.167264461517334 73.2493896484375
v 8.556968688964844 5.39048957824707 73.39679718017578
v 1.2736625671386719 6.136694431304932 87.7582778930664
v 7.547651290893555 8.159417152404785 88.5122299194336
v 7.547651290893555 8.159417152404785 88.5122299194336
v 13.840993881225586 7.167264461517334 73.2493896484375
v 8.556968688964844 5.39048957824707 73.39679718017578
v 6.421881198883057 1.8074938452627975e-06 73.49723815917969
v -0.8566513061523438 1.8074938452627975e-06 87.97911834716797
v 1.2736625671386719 6.136694431304932 87.7582778930664
v 1.2736625671386719 6.136694431304932 87.7582778930664
v 8.556968688964844 5.39048957824707 73.39679718017578
v 6.421881198883057 1.8074938452627975e-06 73.49723815917969
v 8.556952476501465 -5.390485763549805 73.39678955078125
v 1.2736568450927734 -6.136682510375977 87.75825500488281
v -0.8566513061523438 1.8074938452627975e-06 87.97911834716797
v -0.8566513061523438 1.8074938452627975e-06 87.97911834716797
v 6.421881198883057 1.8074938452627975e-06 73.49723815917969
v 8.556952476501465 -5.390485763549805 73.39678955078125
v 13.84099006652832 -7.1672773361206055 73.24939727783203
v 7.547645568847656 -8.159422874450684 88.51222229003906
v 1.2736568450927734 -6.136682510375977 87.75825500488281
v 1.2736568450927734 -6.136682510375977 87.75825500488281
v 8.556952476501465 -5.390485763549805 73.39678955078125
v 13.84099006652832 -7.1672773361206055 73.24939727783203
v 15.551400184631348 29.406330108642578 31.51896858215332
v 17.282651901245117 21.84772300720215 62.15568923950195
v 5.125997543334961 32.219600677490234 -0.21870625019073486
v 32.72359085083008 -15.502449035644531 61.23965072631836
v 38.711246490478516 -2.4706152544240467e-05 60.86405563354492
v 32.723602294921875 15.50241756439209 61.23963928222656
v 13.57876205444336 -9.081766128540039 96.95629119873047
v -3.2434353828430176 -9.926069259643555 89.39818572998047
v -3.2434353828430176 -9.926069259643555 89.39818572998047
v 14.184016227722168 -2.2781841835239902e-06 100.37039947509766
v 14.184016227722168 -2.2781841835239902e-06 100.37039947509766
v -6.708989143371582 4.998914278075972e-07 89.76898956298828
v -6.708989143371582 4.998914278075972e-07 89.76898956298828
v 13.57878589630127 9.08177375793457 96.95626068115234
v 13.57878589630127 9.08177375793457 96.95626068115234
v -3.2434229850769043 9.926081657409668 89.39823150634766
v 22.547061920166016 -8.172280311584473 76.4061508178711
v 14.446121215820312 -12.920402526855469 75.246826171875
v 7.223043441772461 -13.997557640075684 90.31903076171875
v 7.223043441772461 -13.997557640075684 90.31903076171875
v 13.57876205444336 -9.081766128540039 96.95629119873047
v 22.547061920166016 -8.172280311584473 76.4061508178711
v 24.997997283935547 3.0260753192123957e-07 76.90433502197266
v 22.547061920166016 -8.172280311584473 76.4061508178711
v 13.57876205444336 -9.081766128540039 96.95629119873047
v 13.57876205444336 -9.081766128540039 96.95629119873047
v 14.184016227722168 -2.2781841835239902e-06 100.37039947509766
v 24.997997283935547 3.0260753192123957e-07 76.90433502197266
v 22.547056198120117 8.172281265258789 76.4061279296875
v 24.997997283935547 3.0260753192123957e-07 76.90433502197266
v 14.184016227722168 -2.2781841835239902e-06 100.37039947509766
v 14.184016227722168 -2.2781841835239902e-06 100.37039947509766
v 13.57878589630127 9.08177375793457 96.95626068115234
v 22.547056198120117 8.172281265258789 76.4061279296875
v 14.446133613586426 12.920388221740723 75.24681854248047
v 22.547056198120117 8.172281265258789 76.4061279296875
v 13.57878589630127 9.08177375793457 96.95626068115234
v 13.57878589630127 9.08177375793457 96.95626068115234
v 7.223057270050049 13.997552871704102 90.31903839111328
v 14.446133613586426 12.920388221740723 75.24681854248047
v 4.510434150695801 9.941739082336426 73.99761962890625
v 14.446133613586426 12.920388221740723 75.24681854248047
v 7.223057270050049 13.997552871704102 90.31903839111328
v 7.223057270050049 13.997552871704102 90.31903839111328
v -3.2434229850769043 9.926081657409668 89.39823150634766
v 4.510434150695801 9.941739082336426 73.99761962890625
v 0.30264997482299805 1.1014962183253374e-05 73.4608383178711
v 4.510434150695801 9.941739082336426 73.99761962890625
v -3.2434229850769043 9.926081657409668 89.39823150634766
v -3.2434229850769043 9.926081657409668 89.39823150634766
v -6.708989143371582 4.998914278075972e-07 89.76898956298828
v 0.30264997482299805 1.1014962183253374e-05 73.4608383178711
v 4.510405540466309 -9.94172477722168 73.99761199951172
v 0.30264997482299805 1.1014962183253374e-05 73.4608383178711
v -6.708989143371582 4.998914278075972e-07 89.76898956298828
v -6.708989143371582 4.998914278075972e-07 89.76898956298828
v -3.2434353828430176 -9.926069259643555 89.39818572998047
v 4.510405540466309 -9.94172477722168 73.99761199951172
v 14.446121215820312 -12.920402526855469 75.246826171875
v 4.510405540466309 -9.94172477722168 73.99761199951172
v -3.2434353828430176 -9.926069259643555 89.39818572998047
v -3.2434353828430176 -9.926069259643555 89.39818572998047
v 7.223043441772461 -13.997557640075684 90.31903076171875
v 14.446121215820312 -12.920402526855469 75.246826171875
v -10.029560089111328 -23.370553970336914 -25.56728744506836
v -28.443954467773438 -17.515464782714844 -44.12643814086914
v -18.7659969329834 -12.633679389953613 -52.24720764160156
v -28.443954467773438 -17.515464782714844 -44.12643814086914
v -15.026336669921875 -3.152308636344969e-08 -55.3851318359375
v -38.121910095214844 -12.633666038513184 -36.00562286376953
v -41.86156463623047 -3.152217686874792e-08 -32.867706298828125
v -10.029555320739746 23.37055778503418 -25.56729507446289
v -28.443946838378906 17.515457153320312 -44.12643051147461
v -18.7659912109375 12.633681297302246 -52.24720764160156
v -28.443946838378906 17.515457153320312 -44.12643051147461
v -38.12190628051758 12.633662223815918 -36.005615234375
v -44.268211364746094 -5.455256462097168 -59.12645721435547
v -47.489707946777344 -8.20743465423584 -54.97145080566406
v -43.49155807495117 -3.1522631616098806e-08 -60.513694763183594
v -44.268211364746094 -5.455256462097168 -59.12645721435547
v -53.625282287597656 8.180713848560117e-06 -57.118309020996094
v -51.50843811035156 -6.172785758972168 -50.4447021484375
v -53.16812515258789 -3.152240424242336e-08 -48.645729064941406
v -53.625282287597656 8.180713848560117e-06 -57.118309020996094
v -47.489707946777344 -8.20743465423584 -54.97145080566406
v -51.50843811035156 -6.172785758972168 -50.4447021484375
v -53.625282287597656 8.180713848560117e-06 -57.118309020996094
v -47.489707946777344 8.207430839538574 -54.97145080566406
v -44.268211364746094 5.455250263214111 -59.12645721435547
v -53.625282287597656 8.180713848560117e-06 -57.118309020996094
v -44.268211364746094 5.455250263214111 -59.12645721435547
v -43.49155807495117 -3.1522631616098806e-08 -60.513694763183594
v -53.625282287597656 8.180713848560117e-06 -57.118309020996094
v -53.16812515258789 -3.152240424242336e-08 -48.645729064941406
v -51.50843811035156 6.172776699066162 -50.4447021484375
v -53.625282287597656 8.180713848560117e-06 -57.118309020996094
v -51.50843811035156 6.172776699066162 -50.4447021484375
v -47.489707946777344 8.207430839538574 -54.97145080566406
v -53.625282287597656 8.180713848560117e-06 -57.118309020996094
v -17.240671157836914 -16.559030532836914 -56.68785858154297
v -29.615392684936523 -23.315237045288086 -45.69001770019531
v -12.397823333740234 -6.874084874652908e-07 -60.91191482543945
v -42.110416412353516 -16.938390731811523 -34.26908493041992
v -46.994606018066406 -1.5757089499857102e-07 -29.535125732421875
v -10.288698196411133 29.391517639160156 -26.632776260375977
v -29.61538314819336 23.315229415893555 -45.69001007080078
v -17.240665435791016 16.55903434753418 -56.68785858154297
v -29.61538314819336 23.315229415893555 -45.69001007080078
v -42.11041259765625 16.938385009765625 -34.26907730102539
v -45.144287109375 -8.52122974395752 -64.35002136230469
v -50.12959671020508 -13.094789505004883 -57.54011154174805
v -43.83909225463867 6.014195719217241e-07 -66.62373352050781
v -58.71637725830078 1.227784468937898e-05 -60.514652252197266
v -45.144287109375 -8.52122974395752 -64.35002136230469
v -56.32650375366211 -9.889780044555664 -49.79424285888672
v -58.71637725830078 1.227784468937898e-05 -60.514652252197266
v -58.78812026977539 9.412448775947269e-07 -46.531715393066406
v -50.12959671020508 -13.094789505004883 -57.54011154174805
v -58.71637725830078 1.227784468937898e-05 -60.514652252197266
v -56.32650375366211 -9.889780044555664 -49.79424285888672
v -50.12959289550781 13.094788551330566 -57.54011154174805
v -58.71637725830078 1.227784468937898e-05 -60.514652252197266
v -45.144287109375 8.521223068237305 -64.35002136230469
v -45.144287109375 8.521223068237305 -64.35002136230469
v -58.71637725830078 1.227784468937898e-05 -60.514652252197266
v -43.83909225463867 6.014195719217241e-07 -66.62373352050781
v -58.78812026977539 9.412448775947269e-07 -46.531715393066406
v -58.71637725830078 1.227784468937898e-05 -60.514652252197266
v -56.32650375366211 9.889772415161133 -49.79423904418945
v -56.32650375366211 9.889772415161133 -49.79423904418945
v -58.71637725830078 1.227784468937898e-05 -60.514652252197266
v -50.12959289550781 13.094788551330566 -57.54011154174805
vt 0.8768234252929688 0.12674695253372192
vt 0.9072725772857666 0.12587863206863403
vt 0.9369447231292725 0.12947708368301392
vt 0.967186450958252 0.13108855485916138
vt 0.9986718893051147 0.12674695253372192
vt 0.9141474962234497 0.13210469484329224
vt 0.9365490674972534 0.1337471604347229
vt 0.9558595418930054 0.13210469484329224
vt 0.8889411687850952 0.1549864411354065
vt 0.9152307510375977 0.14882045984268188
vt 0.9369447231292725 0.1464378833770752
vt 0.9576365947723389 0.14882045984268188
vt 0.9885525703430176 0.1549864411354065
vt 0.9087612628936768 0.1629212498664856
vt 0.9365490674972534 0.16534966230392456
vt 0.9633496999740601 0.1629212498664856
vt 0.8914752006530762 0.1884271502494812
vt 0.9567655324935913 0.17958348989486694
vt 0.8928738832473755 0.14396053552627563
vt 0.891189455986023 0.14394766092300415
vt 0.8894057273864746 0.14395958185195923
vt 0.891189455986023 0.14394766092300415
vt 0.8894057273864746 0.14395958185195923
vt 0.891189455986023 0.14394766092300415
vt 0.8928738832473755 0.14396053552627563
vt 0.891189455986023 0.14394766092300415
vt 0.8958804607391357 0.14198952913284302
vt 0.8951907157897949 0.14198952913284302
vt 0.8969148397445679 0.14198964834213257
vt 0.8951907157897949 0.14198952913284302
vt 0.8958804607391357 0.14198952913284302
vt 0.8958804607391357 0.14198952913284302
vt 0.8951907157897949 0.14198952913284302
vt 0.8958804607391357 0.14198952913284302
vt 0.9369447231292725 0.1761661171913147
vt 0.9365490674972534 0.20321720838546753
vt 0.9663732051849365 0.19973421096801758
vt 0.9483697414398193 0.18224352598190308
vt 0.9486604928970337 0.18219828605651855
vt 0.9489433765411377 0.18227308988571167
vt 0.9492318630218506 0.18229061365127563
vt 0.949532151222229 0.18224352598190308
vt 0.9476718902587891 0.18228870630264282
vt 0.9479100704193115 0.1823062300682068
vt 0.9481151103973389 0.18228870630264282
vt 0.948485255241394 0.18254965543746948
vt 0.9487360715866089 0.18248289823532104
vt 0.9489433765411377 0.18245702981948853
vt 0.9491407871246338 0.18248289823532104
vt 0.949435830116272 0.18254965543746948
vt 0.947614312171936 0.18261653184890747
vt 0.9479100704193115 0.18264234066009521
vt 0.9481947422027588 0.18261653184890747
vt 0.9491325616836548 0.18281632661819458
vt 0.9474453926086426 0.18241482973098755
vt 0.9474273920059204 0.182414710521698
vt 0.9474084377288818 0.18241482973098755
vt 0.9474273920059204 0.182414710521698
vt 0.9474084377288818 0.18241482973098755
vt 0.9474273920059204 0.182414710521698
vt 0.9474453926086426 0.18241482973098755
vt 0.9474273920059204 0.182414710521698
vt 0.9474772214889526 0.1823939085006714
vt 0.9474698305130005 0.1823939085006714
vt 0.9474881887435913 0.1823939085006714
vt 0.9474698305130005 0.1823939085006714
vt 0.9474772214889526 0.1823939085006714
vt 0.9474772214889526 0.1823939085006714
vt 0.9474698305130005 0.1823939085006714
vt 0.9474772214889526 0.1823939085006714
vt 0.9487429857254028 0.18281632661819458
vt 0.9479100704193115 0.18304520845413208
vt 0.9494155645370483 0.18291229009628296
vt 0.8800569772720337 0.2447391152381897
vt 0.9111379384994507 0.24814373254776
vt 0.9156904220581055 0.21755093336105347
vt 0.8896695375442505 0.21912282705307007
vt 0.9369447231292725 0.2169436812400818
vt 0.9365490674972534 0.22422760725021362
vt 0.9573171138763428 0.24464541673660278
vt 0.9631900787353516 0.22360855340957642
vt 0.891189455986023 0.14394766092300415
vt 0.8928738832473755 0.14396053552627563
vt 0.8894057273864746 0.14395958185195923
vt 0.891189455986023 0.14394766092300415
vt 0.9945989847183228 0.24690872430801392
vt 0.9625481367111206 0.24814373254776
vt 0.957085371017456 0.21755093336105347
vt 0.9879443645477295 0.21912282705307007
vt 0.9369447231292725 0.24945920705795288
vt 0.9365490674972534 0.2433045506477356
vt 0.9130991697311401 0.24464529752731323
vt 0.9088761806488037 0.22360855340957642
vt 0.891189455986023 0.14394766092300415
vt 0.8928738832473755 0.14396053552627563
vt 0.8894057273864746 0.14395958185195923
vt 0.8894057273864746 0.14395958185195923
vt 0.891189455986023 0.14394766092300415
vt 0.8911560773849487 0.141954243183136
vt 0.948400616645813 0.1835227608680725
vt 0.9486970901489258 0.18355971574783325
vt 0.9487407207489014 0.18322795629501343
vt 0.9484924077987671 0.1832450032234192
vt 0.9489433765411377 0.18322139978408813
vt 0.9479100704193115 0.18326860666275024
vt 0.9481308460235596 0.18348580598831177
vt 0.9481930732727051 0.18326205015182495
vt 0.9474273920059204 0.182414710521698
vt 0.9474453926086426 0.18241482973098755
vt 0.9474084377288818 0.18241482973098755
vt 0.9474273920059204 0.182414710521698
vt 0.949493408203125 0.1835463047027588
vt 0.9491877555847168 0.18355971574783325
vt 0.9491357803344727 0.18322795629501343
vt 0.9494298696517944 0.1832450032234192
vt 0.9489433765411377 0.1835739016532898
vt 0.9479100704193115 0.18347156047821045
vt 0.9476602077484131 0.18348580598831177
vt 0.9476155042648315 0.18326205015182495
vt 0.9474273920059204 0.182414710521698
vt 0.9474453926086426 0.18241482973098755
vt 0.9474084377288818 0.18241482973098755
vt 0.9474273920059204 0.182414710521698
vt 0.9474269151687622 0.18239349126815796
vt 0.9159564971923828 0.17958348989486694
vt 0.9864364862442017 0.18842709064483643
vt 0.9065871238708496 0.19973421096801758
vt 0.948509693145752 0.18291229009628296
vt 0.9489433765411377 0.1827792525291443
vt 0.9482272863388062 0.1830081343650818
vt 0.9475909471511841 0.1830081343650818
vt 0.9072725772857666 0.13108855485916138
vt 0.967186450958252 0.12587863206863403
vt 0.8959032297134399 0.12785416841506958
vt 0.8813717365264893 0.1566367745399475
vt 0.990658164024353 0.1566367745399475
vt 0.9797898530960083 0.12785416841506958
vt 0.8783328533172607 0.19072049856185913
vt 0.9929307699203491 0.1907205581665039
vt 0.8911973237991333 0.14661246538162231
vt 0.8945378065109253 0.14661425352096558
vt 0.8878045082092285 0.14652597904205322
vt 0.8911973237991333 0.14661246538162231
vt 0.8928738832473755 0.14396053552627563
vt 0.8945378065109253 0.14661425352096558
vt 0.8878045082092285 0.14652597904205322
vt 0.8911973237991333 0.14661246538162231
vt 0.8945378065109253 0.14661425352096558
vt 0.8911973237991333 0.14661246538162231
vt 0.8894057273864746 0.14395958185195923
vt 0.8878045082092285 0.14652597904205322
vt 0.8951907157897949 0.14198952913284302
vt 0.8951907157897949 0.14198952913284302
vt 0.8951907157897949 0.14198952913284302
vt 0.8958804607391357 0.14198952913284302
vt 0.8958804607391357 0.14198952913284302
vt 0.8958804607391357 0.14198952913284302
vt 0.8958804607391357 0.14198952913284302
vt 0.8958804607391357 0.14198952913284302
vt 0.8958804607391357 0.14198952913284302
vt 0.8958804607391357 0.14198952913284302
vt 0.8960195779800415 0.14447396993637085
vt 0.8960164785385132 0.14203518629074097
vt 0.8968497514724731 0.14203518629074097
vt 0.8968497514724731 0.14203518629074097
vt 0.8966045379638672 0.14447802305221558
vt 0.8960195779800415 0.14447396993637085
vt 0.8954529762268066 0.14446896314620972
vt 0.8952168226242065 0.14203518629074097
vt 0.896018385887146 0.14203518629074097
vt 0.896018385887146 0.14203518629074097
vt 0.896021842956543 0.144473135471344
vt 0.8954529762268066 0.14446896314620972
vt 0.8960195779800415 0.14447396993637085
vt 0.8960164785385132 0.14203518629074097
vt 0.8968497514724731 0.14203518629074097
vt 0.8968497514724731 0.14203518629074097
vt 0.8966045379638672 0.14447802305221558
vt 0.8960195779800415 0.14447396993637085
vt 0.8954529762268066 0.14446896314620972
vt 0.8952168226242065 0.14203518629074097
vt 0.896018385887146 0.14203518629074097
vt 0.896018385887146 0.14203518629074097
vt 0.896021842956543 0.144473135471344
vt 0.8954529762268066 0.14446896314620972
vt 0.8960195779800415 0.14447396993637085
vt 0.8960164785385132 0.14203518629074097
vt 0.8968497514724731 0.14203518629074097
vt 0.8968497514724731 0.14203518629074097
vt 0.8966045379638672 0.14447802305221558
vt 0.8960195779800415 0.14447396993637085
vt 0.8954529762268066 0.14446896314620972
vt 0.8952168226242065 0.14203518629074097
vt 0.896018385887146 0.14203518629074097
vt 0.896018385887146 0.14203518629074097
vt 0.896021842956543 0.144473135471344
vt 0.8954529762268066 0.14446896314620972
vt 0.8960195779800415 0.14447396993637085
vt 0.8960164785385132 0.14203518629074097
vt 0.8968497514724731 0.14203518629074097
vt 0.8968497514724731 0.14203518629074097
vt 0.8966045379638672 0.14447802305221558
vt 0.8960195779800415 0.14447396993637085
vt 0.8954529762268066 0.14446896314620972
vt 0.8952168226242065 0.14203518629074097
vt 0.896018385887146 0.14203518629074097
vt 0.896018385887146 0.14203518629074097
vt 0.896021842956543 0.144473135471344
vt 0.8954529762268066 0.14446896314620972
vt 0.9473228454589844 0.18254965543746948
vt 0.9474773406982422 0.18224352598190308
vt 0.9472906589508057 0.18291229009628296
vt 0.9474273920059204 0.18244308233261108
vt 0.9473913908004761 0.18244212865829468
vt 0.9474273920059204 0.18244308233261108
vt 0.9474698305130005 0.1823939085006714
vt 0.9474698305130005 0.1823939085006714
vt 0.9474698305130005 0.1823939085006714
vt 0.9474772214889526 0.1823939085006714
vt 0.9474772214889526 0.1823939085006714
vt 0.9474772214889526 0.1823939085006714
vt 0.9474772214889526 0.1823939085006714
vt 0.9474772214889526 0.1823939085006714
vt 0.9474772214889526 0.1823939085006714
vt 0.9474772214889526 0.1823939085006714
vt 0.9474787712097168 0.18242031335830688
vt 0.9474849700927734 0.18242031335830688
vt 0.9474875926971436 0.18239432573318481
vt 0.9474875926971436 0.18239432573318481
vt 0.9474787712097168 0.18239432573318481
vt 0.9474787712097168 0.18242031335830688
vt 0.9474726915359497 0.18242031335830688
vt 0.9474787712097168 0.18242031335830688
vt 0.9474787712097168 0.18239432573318481
vt 0.9474787712097168 0.18239432573318481
vt 0.9474703073501587 0.18239432573318481
vt 0.9474726915359497 0.18242031335830688
vt 0.9474787712097168 0.18242031335830688
vt 0.9474849700927734 0.18242031335830688
vt 0.9474875926971436 0.18239432573318481
vt 0.9474875926971436 0.18239432573318481
vt 0.9474787712097168 0.18239432573318481
vt 0.9474787712097168 0.18242031335830688
vt 0.9474726915359497 0.18242031335830688
vt 0.9474787712097168 0.18242031335830688
vt 0.9474787712097168 0.18239432573318481
vt 0.9474787712097168 0.18239432573318481
vt 0.9474703073501587 0.18239432573318481
vt 0.9474726915359497 0.18242031335830688
vt 0.9474787712097168 0.18242031335830688
vt 0.9474849700927734 0.18242031335830688
vt 0.9474875926971436 0.18239432573318481
vt 0.9474875926971436 0.18239432573318481
vt 0.9474787712097168 0.18239432573318481
vt 0.9474787712097168 0.18242031335830688
vt 0.9474726915359497 0.18242031335830688
vt 0.9474787712097168 0.18242031335830688
vt 0.9474787712097168 0.18239432573318481
vt 0.9474787712097168 0.18239432573318481
vt 0.9474703073501587 0.18239432573318481
vt 0.9474726915359497 0.18242031335830688
vt 0.9474787712097168 0.18242031335830688
vt 0.9474849700927734 0.18242031335830688
vt 0.9474875926971436 0.18239432573318481
vt 0.9474875926971436 0.18239432573318481
vt 0.9474787712097168 0.18239432573318481
vt 0.9474787712097168 0.18242031335830688
vt 0.9474726915359497 0.18242031335830688
vt 0.9474787712097168 0.18242031335830688
vt 0.9474787712097168 0.18239432573318481
vt 0.9474787712097168 0.18239432573318481
vt 0.9474703073501587 0.18239432573318481
vt 0.9474726915359497 0.18242031335830688
vt 0.9913113117218018 0.22200649976730347
vt 0.9826897382736206 0.24811547994613647
vt 0.8911973237991333 0.14661246538162231
vt 0.8945378065109253 0.14661425352096558
vt 0.8878045082092285 0.14652597904205322
vt 0.8911973237991333 0.14661246538162231
vt 0.8878045082092285 0.14652597904205322
vt 0.8804980516433716 0.22200649976730347
vt 0.8920257091522217 0.24811547994613647
vt 0.8911973237991333 0.14661246538162231
vt 0.8945378065109253 0.14661425352096558
vt 0.8911973237991333 0.14661246538162231
vt 0.8911206722259521 0.14406245946884155
vt 0.8928738832473755 0.1440754532814026
vt 0.8894057273864746 0.14407449960708618
vt 0.8911206722259521 0.14406245946884155
vt 0.8911560773849487 0.141954243183136
vt 0.8911206722259521 0.14406245946884155
vt 0.8894057273864746 0.14407449960708618
vt 0.8911560773849487 0.141954243183136
vt 0.8928738832473755 0.1440754532814026
vt 0.8911206722259521 0.14406245946884155
vt 0.8911560773849487 0.141954243183136
vt 0.8928738832473755 0.1440754532814026
vt 0.8911206722259521 0.14406245946884155
vt 0.8911560773849487 0.14195066690444946
vt 0.8911206722259521 0.14406245946884155
vt 0.8894057273864746 0.14407449960708618
vt 0.8911560773849487 0.14195066690444946
vt 0.8894057273864746 0.14407449960708618
vt 0.8911206722259521 0.14406245946884155
vt 0.8911560773849487 0.14195066690444946
vt 0.8911206722259521 0.14406245946884155
vt 0.8928738832473755 0.1440754532814026
vt 0.8911560773849487 0.14195066690444946
vt 0.9474273920059204 0.18244308233261108
vt 0.9474629163742065 0.18244308233261108
vt 0.9473913908004761 0.18244212865829468
vt 0.9474273920059204 0.18244308233261108
vt 0.9473913908004761 0.18244212865829468
vt 0.9473135471343994 0.1832450032234192
vt 0.9474362134933472 0.1835227608680725
vt 0.9474273920059204 0.18244308233261108
vt 0.9474629163742065 0.18244308233261108
vt 0.9474273920059204 0.18244308233261108
vt 0.947426438331604 0.18241596221923828
vt 0.9474453926086426 0.18241602182388306
vt 0.9474084377288818 0.18241602182388306
vt 0.9474269151687622 0.18239349126815796
vt 0.947426438331604 0.18241596221923828
vt 0.947426438331604 0.18241596221923828
vt 0.9474269151687622 0.18239349126815796
vt 0.9474084377288818 0.18241602182388306
vt 0.9474453926086426 0.18241602182388306
vt 0.9474269151687622 0.18239349126815796
vt 0.947426438331604 0.18241596221923828
vt 0.9474453926086426 0.18241602182388306
vt 0.9474269151687622 0.18239349126815796
vt 0.947426438331604 0.18241596221923828
vt 0.947426438331604 0.18241596221923828
vt 0.9474269151687622 0.18239349126815796
vt 0.9474084377288818 0.18241602182388306
vt 0.9474084377288818 0.18241602182388306
vt 0.9474269151687622 0.18239349126815796
vt 0.947426438331604 0.18241596221923828
vt 0.947426438331604 0.18241596221923828
vt 0.9474269151687622 0.18239349126815796
vt 0.9474453926086426 0.18241602182388306
vn 0.09881983697414398 -0.9240928292274475 0.36917078495025635
vn 0.6636013388633728 -0.6098811626434326 0.43321850895881653
vn 0.8957508206367493 0.02012973092496395 0.444100558757782
vn 0.6365296244621277 0.6278877854347229 0.44786933064460754
vn 0.024487584829330444 0.9064655303955078 0.42156919836997986
vn -0.6372552514076233 0.6589294075965881 0.3996470868587494
vn -0.9311497807502747 -0.0027505557518452406 0.36462679505348206
vn -0.5908647775650024 -0.7038578391075134 0.39428794384002686
vn 0.011662336997687817 -0.9889305233955383 0.14792095124721527
vn 0.7034195065498352 -0.7101869583129883 0.02890709601342678
vn 0.9999392628669739 0.0046506416983902454 -0.009991226717829704
vn 0.7003687024116516 0.711506187915802 0.056944988667964935
vn 0.016329428181052208 0.9837791919708252 0.17863892018795013
vn -0.6511788964271545 0.6920390725135803 0.31152522563934326
vn -0.9343672394752502 -0.0003015743277501315 0.3563114106655121
vn -0.658420205116272 -0.6951013207435608 0.2886470556259155
vn -0.12070485204458237 -0.9915437698364258 0.047658149152994156
vn 0.656051516532898 0.7060645222663879 -0.26658838987350464
vn 0.039903461933135986 -0.824361264705658 0.5646558403968811
vn 0.6329873204231262 -0.42742279171943665 0.6454741358757019
vn 0.7540812492370605 0.08937849849462509 0.6506713032722473
vn 0.5017484426498413 0.5994206666946411 0.6236533522605896
vn -0.06381833553314209 0.8374086022377014 0.5428388714790344
vn -0.7066207528114319 0.5440001487731934 0.45249417424201965
vn -0.902957558631897 -0.12049080431461334 0.41249221563339233
vn -0.6062175631523132 -0.6379702091217041 0.47486254572868347
vn -0.44858118891716003 -0.1871749460697174 0.87392258644104
vn -0.2910468876361847 -0.6365192532539368 0.7142373919487
vn -0.2910468876361847 -0.6365192532539368 0.7142373919487
vn -0.2910468876361847 -0.6365192532539368 0.7142373919487
vn -0.44858118891716003 -0.1871749460697174 0.87392258644104
vn -0.40882304310798645 0.17415887117385864 0.8958417177200317
vn -0.29104357957839966 0.6365195512771606 0.7142384052276611
vn -0.40882304310798645 0.17415887117385864 0.8958417177200317
vn 0.9157283902168274 -0.05664239078760147 -0.39778533577919006
vn -0.8975808024406433 0.07506870478391647 0.43441179394721985
vn -0.7280259728431702 -0.5901452898979187 0.34886491298675537
vn -0.1043873280286789 0.9219344854354858 -0.3730148673057556
vn -0.663434624671936 0.6111876368522644 -0.4316296875476837
vn -0.8975201845169067 -0.017547430470585823 -0.4406241178512573
vn -0.6391659379005432 -0.6277725100517273 -0.4442618191242218
vn -0.024829193949699402 -0.9051595330238342 -0.42434626817703247
vn 0.637301504611969 -0.651807963848114 -0.4110878109931946
vn 0.9225406050682068 0.006015128921717405 -0.3858531415462494
vn 0.5896944403648376 0.6954759359359741 -0.41057729721069336
vn -0.018277114257216454 0.9889427423477173 -0.14716744422912598
vn -0.7075394988059998 0.7060521841049194 -0.029635868966579437
vn -0.9999560117721558 -0.004237778019160032 0.008378630504012108
vn -0.7042097449302673 -0.7077162265777588 -0.056801438331604004
vn -0.0234199408441782 -0.9836065769195557 -0.17880098521709442
vn 0.6484084129333496 -0.6947221755981445 -0.3113320767879486
vn 0.9343539476394653 -0.00010177552758250386 -0.3563463091850281
vn 0.655104398727417 0.6986581683158875 -0.28760209679603577
vn -0.6580086946487427 -0.704295814037323 0.2664431929588318
vn -0.026389507576823235 0.8166553974151611 -0.5765219330787659
vn -0.631624698638916 0.4385662376880646 -0.6393042206764221
vn -0.7586161494255066 -0.09244292229413986 -0.6449463963508606
vn -0.4973684549331665 -0.6049430966377258 -0.621826708316803
vn 0.08244582265615463 -0.8249721527099609 -0.5591275691986084
vn 0.7012249231338501 -0.5217835903167725 -0.4858245551586151
vn 0.8846562504768372 0.1219494566321373 -0.4500131905078888
vn 0.6159576177597046 0.6072931885719299 -0.5017880201339722
vn 0.4444364607334137 0.18788905441761017 -0.8758846521377563
vn 0.3005179464817047 0.6059478521347046 -0.7365570068359375
vn 0.3005179464817047 0.6059478521347046 -0.7365570068359375
vn 0.3005179464817047 0.6059478521347046 -0.7365570068359375
vn 0.37775617837905884 0.30364981293678284 -0.874698281288147
vn 0.43280091881752014 -0.2918105721473694 -0.8529537916183472
vn 0.3005145788192749 -0.6059485673904419 -0.7365578413009644
vn 0.39650842547416687 -0.17211808264255524 -0.9017519950866699
vn -0.552232563495636 0.8001748323440552 0.23400737345218658
vn 0.8974921703338623 -0.07675759494304657 -0.4342995285987854
vn -0.005314582958817482 -0.99996018409729 -0.007166807074099779
vn -0.12189566344022751 -0.9522854089736938 -0.27981093525886536
vn 0.24519459903240204 -0.640861451625824 -0.7274450063705444
vn 0.5145168304443359 -0.6861409544944763 -0.5142791867256165
vn -0.05257854983210564 -0.9891542196273804 -0.1371481567621231
vn 0.7027902603149414 -2.687052891303665e-08 -0.711397111415863
vn -0.871855616569519 1.5418994792071317e-07 0.4897629916667938
vn -0.618719756603241 -0.7388885617256165 0.26688891649246216
vn -0.6351422667503357 -0.7131521701812744 0.2966621220111847
vn 0.09728184342384338 -0.47811082005500793 -0.872895359992981
vn -0.27415159344673157 -0.9119796752929688 -0.3051786720752716
vn -0.7586443424224854 -0.36068660020828247 0.5425533652305603
vn -0.6584478616714478 -0.6893881559371948 0.3019774556159973
vn -0.12189549952745438 0.9522854089736938 -0.27981096506118774
vn 0.24519465863704681 0.6408616900444031 -0.7274447679519653
vn 0.514517068862915 0.6861405968666077 -0.5142793655395508
vn -0.05257809907197952 0.9891541600227356 -0.13714875280857086
vn 0.33106693625450134 -1.605463140208485e-08 -0.9436072707176208
vn -0.8426806926727295 -1.598263388302712e-08 0.5384136438369751
vn -0.618719756603241 0.7388885617256165 0.26688867807388306
vn -0.6351421475410461 0.7131522297859192 0.29666200280189514
vn 0.0972817912697792 0.47811073064804077 -0.8728954195976257
vn -0.2741517424583435 0.9119796752929688 -0.3051784336566925
vn 0.17731450498104095 1.3910718621445994e-07 -0.984154224395752
vn -0.7586442828178406 0.3606867790222168 0.5425531268119812
vn -0.6584480404853821 0.68938809633255 0.3019774258136749
vn -0.46209916472435 -0.5312008261680603 -0.7101338505744934
vn 0.12064938247203827 0.9511227607727051 0.2842699885368347
vn -0.2455306053161621 0.6396483182907104 0.728398859500885
vn -0.5154176354408264 0.6839378476142883 0.5163077116012573
vn 0.051308419555425644 0.9888986349105835 0.1394522488117218
vn -0.7018453478813171 1.0222711210872149e-07 0.7123294472694397
vn 0.8722572922706604 -1.227323309649364e-07 -0.4890472888946533
vn 0.6204599142074585 0.7391083240509033 -0.26219916343688965
vn 0.6332854628562927 0.7155118584632874 -0.29494455456733704
vn -0.09728249162435532 0.4826914370059967 0.8703706860542297
vn 0.27821585536003113 0.9096248149871826 0.30851033329963684
vn 0.8207734823226929 -4.805774977967303e-08 -0.5712538361549377
vn 0.6635226607322693 0.6873154044151306 -0.29552534222602844
vn 0.12064921110868454 -0.9511227011680603 0.28426992893218994
vn -0.2455306202173233 -0.6396483778953552 0.7283986806869507
vn -0.5154179334640503 -0.6839374899864197 0.5163078904151917
vn 0.05130798742175102 -0.9888985753059387 0.13945284485816956
vn -0.33177924156188965 4.8258819163038424e-08 0.9433571696281433
vn 0.8448993563652039 0.0 -0.5349253416061401
vn 0.6204599738121033 -0.7391083836555481 -0.2621990740299225
vn 0.633285403251648 -0.7155119776725769 -0.2949444353580475
vn -0.09728242456912994 -0.4826914370059967 0.8703708052635193
vn 0.2782158851623535 -0.9096248745918274 0.3085101842880249
vn -0.17874076962471008 -1.2411786087795917e-07 0.9838961958885193
vn 0.6635227799415588 -0.6873153448104858 -0.2955254316329956
vn 0.5093106031417847 0.4940389096736908 0.7046477198600769
vn 0.5483111143112183 -0.8030707836151123 -0.23330719769001007
vn 0.001003819634206593 0.9999623894691467 0.008617936633527279
vn -0.638941764831543 0.6997690796852112 0.31949445605278015
vn 0.11816556006669998 0.9918809533119202 -0.047000735998153687
vn -0.9162229299545288 0.05709340423345566 0.3965802490711212
vn 0.7247134447097778 0.5951237678527832 -0.34730127453804016
vn 0.6360277533531189 -0.7032662630081177 -0.31762436032295227
vn 0.6636013388633728 -0.6098811626434326 0.43321850895881653
vn 0.6365296244621277 0.6278877854347229 0.44786933064460754
vn 0.024487584829330444 0.9064655303955078 0.42156919836997986
vn 0.016329428181052208 0.9837791919708252 0.17863892018795013
vn 0.011662336997687817 -0.9889305233955383 0.14792095124721527
vn 0.09881983697414398 -0.9240928292274475 0.36917078495025635
vn 0.001003819634206593 0.9999623894691467 0.008617936633527279
vn -0.12070485204458237 -0.9915437698364258 0.047658149152994156
vn 0.6636013388633728 -0.6098811626434326 0.43321850895881653
vn 0.09881983697414398 -0.9240928292274475 0.36917078495025635
vn 0.8957508206367493 0.02012973092496395 0.444100558757782
vn 0.6365296244621277 0.6278877854347229 0.44786933064460754
vn 0.7540812492370605 0.08937849849462509 0.6506713032722473
vn 0.8957508206367493 0.02012973092496395 0.444100558757782
vn 0.024487584829330444 0.9064655303955078 0.42156919836997986
vn -0.6372552514076233 0.6589294075965881 0.3996470868587494
vn -0.9311497807502747 -0.0027505557518452406 0.36462679505348206
vn -0.5908647775650024 -0.7038578391075134 0.39428794384002686
vn -0.902957558631897 -0.12049080431461334 0.41249221563339233
vn -0.9311497807502747 -0.0027505557518452406 0.36462679505348206
vn -0.44858118891716003 -0.1871749460697174 0.87392258644104
vn -0.3904159367084503 -0.28961795568466187 0.8738974928855896
vn -0.3904159367084503 -0.28961795568466187 0.8738974928855896
vn -0.3904159367084503 -0.28961795568466187 0.8738974928855896
vn -0.40882304310798645 0.17415887117385864 0.8958417177200317
vn -0.43883243203163147 0.2766219675540924 0.8549306392669678
vn -0.43883243203163147 0.2766219675540924 0.8549306392669678
vn -0.43883243203163147 0.2766219675540924 0.8549306392669678
vn -0.29104357957839966 0.6365195512771606 0.7142384052276611
vn -0.29104357957839966 0.6365195512771606 0.7142384052276611
vn 0.46740224957466125 -0.8727784752845764 0.1406872719526291
vn 0.46740224957466125 -0.8727784752845764 0.1406872719526291
vn 0.46740224957466125 -0.8727784752845764 0.1406872719526291
vn 0.4560813307762146 -0.8802680373191833 0.13083574175834656
vn 0.4560813307762146 -0.8802680373191833 0.13083574175834656
vn 0.4560813307762146 -0.8802680373191833 0.13083574175834656
vn 0.9117873311042786 -0.2365480363368988 0.3356916606426239
vn 0.9117873311042786 -0.2365480363368988 0.3356916606426239
vn 0.9117873311042786 -0.2365480363368988 0.3356916606426239
vn 0.9056010842323303 -0.27676713466644287 0.32138270139694214
vn 0.9056010842323303 -0.27676713466644287 0.32138270139694214
vn 0.9056010842323303 -0.27676713466644287 0.32138270139694214
vn 0.9158486127853394 0.2335416078567505 0.3266185224056244
vn 0.9158486127853394 0.2335416078567505 0.3266185224056244
vn 0.9158486127853394 0.2335416078567505 0.3266185224056244
vn 0.9018921852111816 0.2762865126132965 0.33204853534698486
vn 0.9018921852111816 0.2762865126132965 0.33204853534698486
vn 0.9018921852111816 0.2762865126132965 0.33204853534698486
vn 0.4702697992324829 0.871786892414093 0.1372368037700653
vn 0.4702697992324829 0.871786892414093 0.1372368037700653
vn 0.4702697992324829 0.871786892414093 0.1372368037700653
vn 0.45558884739875793 0.8797200322151184 0.13613027334213257
vn 0.45558884739875793 0.8797200322151184 0.13613027334213257
vn 0.45558884739875793 0.8797200322151184 0.13613027334213257
vn -0.2803232967853546 0.9407029747962952 -0.19104140996932983
vn -0.2803232967853546 0.9407029747962952 -0.19104140996932983
vn -0.2803232967853546 0.9407029747962952 -0.19104140996932983
vn -0.3176211416721344 0.9287128448486328 -0.1913355439901352
vn -0.3176211416721344 0.9287128448486328 -0.1913355439901352
vn -0.3176211416721344 0.9287128448486328 -0.1913355439901352
vn -0.8572153449058533 0.2820725440979004 -0.43083280324935913
vn -0.8572153449058533 0.2820725440979004 -0.43083280324935913
vn -0.8572153449058533 0.2820725440979004 -0.43083280324935913
vn -0.8370768427848816 0.3233299255371094 -0.4413163959980011
vn -0.8370768427848816 0.3233299255371094 -0.4413163959980011
vn -0.8370768427848816 0.3233299255371094 -0.4413163959980011
vn -0.8504713773727417 -0.2791901230812073 -0.4458155930042267
vn -0.8504713773727417 -0.2791901230812073 -0.4458155930042267
vn -0.8504713773727417 -0.2791901230812073 -0.4458155930042267
vn -0.8445056676864624 -0.3265835642814636 -0.4244450032711029
vn -0.8445056676864624 -0.3265835642814636 -0.4244450032711029
vn -0.8445056676864624 -0.3265835642814636 -0.4244450032711029
vn -0.2825431525707245 -0.9426372647285461 -0.17777669429779053
vn -0.2825431525707245 -0.9426372647285461 -0.17777669429779053
vn -0.2825431525707245 -0.9426372647285461 -0.17777669429779053
vn -0.31692296266555786 -0.9251833558082581 -0.2087957113981247
vn -0.31692296266555786 -0.9251833558082581 -0.2087957113981247
vn -0.31692296266555786 -0.9251833558082581 -0.2087957113981247
vn -0.0234199408441782 -0.9836065769195557 -0.17880098521709442
vn -0.024829193949699402 -0.9051595330238342 -0.42434626817703247
vn -0.005314582958817482 -0.99996018409729 -0.007166807074099779
vn -0.663434624671936 0.6111876368522644 -0.4316296875476837
vn -0.8975201845169067 -0.017547430470585823 -0.4406241178512573
vn -0.6391659379005432 -0.6277725100517273 -0.4442618191242218
vn 0.37775617837905884 0.30364981293678284 -0.874698281288147
vn 0.37775617837905884 0.30364981293678284 -0.874698281288147
vn 0.4444364607334137 0.18788905441761017 -0.8758846521377563
vn 0.4444364607334137 0.18788905441761017 -0.8758846521377563
vn 0.43280091881752014 -0.2918105721473694 -0.8529537916183472
vn 0.43280091881752014 -0.2918105721473694 -0.8529537916183472
vn 0.39650842547416687 -0.17211808264255524 -0.9017519950866699
vn 0.39650842547416687 -0.17211808264255524 -0.9017519950866699
vn 0.3005145788192749 -0.6059485673904419 -0.7365578413009644
vn 0.3005145788192749 -0.6059485673904419 -0.7365578413009644
vn -0.4803388714790344 0.8607096076011658 -0.16868187487125397
vn -0.4803388714790344 0.8607096076011658 -0.16868187487125397
vn -0.4803388714790344 0.8607096076011658 -0.16868187487125397
vn -0.4832379221916199 0.8582448959350586 -0.17290692031383514
vn -0.4832379221916199 0.8582448959350586 -0.17290692031383514
vn -0.4832379221916199 0.8582448959350586 -0.17290692031383514
vn -0.8824643492698669 0.28735998272895813 -0.37239915132522583
vn -0.8824643492698669 0.28735998272895813 -0.37239915132522583
vn -0.8824643492698669 0.28735998272895813 -0.37239915132522583
vn -0.8873864412307739 0.21287217736244202 -0.40893861651420593
vn -0.8873864412307739 0.21287217736244202 -0.40893861651420593
vn -0.8873864412307739 0.21287217736244202 -0.40893861651420593
vn -0.8704032301902771 -0.2854948043823242 -0.4011121690273285
vn -0.8704032301902771 -0.2854948043823242 -0.4011121690273285
vn -0.8704032301902771 -0.2854948043823242 -0.4011121690273285
vn -0.9004682898521423 -0.20434091985225677 -0.38392922282218933
vn -0.9004682898521423 -0.20434091985225677 -0.38392922282218933
vn -0.9004682898521423 -0.20434091985225677 -0.38392922282218933
vn -0.4798245131969452 -0.8604758977890015 -0.17131760716438293
vn -0.4798245131969452 -0.8604758977890015 -0.17131760716438293
vn -0.4798245131969452 -0.8604758977890015 -0.17131760716438293
vn -0.48480224609375 -0.8577381372451782 -0.17103242874145508
vn -0.48480224609375 -0.8577381372451782 -0.17103242874145508
vn -0.48480224609375 -0.8577381372451782 -0.17103242874145508
vn 0.259588360786438 -0.94643235206604 0.19204139709472656
vn 0.259588360786438 -0.94643235206604 0.19204139709472656
vn 0.259588360786438 -0.94643235206604 0.19204139709472656
vn 0.3439236283302307 -0.9230694770812988 0.17221926152706146
vn 0.3439236283302307 -0.9230694770812988 0.17221926152706146
vn 0.3439236283302307 -0.9230694770812988 0.17221926152706146
vn 0.8287726640701294 -0.37328264117240906 0.41688868403434753
vn 0.8287726640701294 -0.37328264117240906 0.41688868403434753
vn 0.8287726640701294 -0.37328264117240906 0.41688868403434753
vn 0.8784798979759216 -0.29260239005088806 0.37769952416419983
vn 0.8784798979759216 -0.29260239005088806 0.37769952416419983
vn 0.8784798979759216 -0.29260239005088806 0.37769952416419983
vn 0.8499712347984314 0.37947407364845276 0.3654427230358124
vn 0.8499712347984314 0.37947407364845276 0.3654427230358124
vn 0.8499712347984314 0.37947407364845276 0.3654427230358124
vn 0.8567761182785034 0.2830282151699066 0.4310797154903412
vn 0.8567761182785034 0.2830282151699066 0.4310797154903412
vn 0.8567761182785034 0.2830282151699066 0.4310797154903412
vn 0.26900890469551086 0.9537044167518616 0.13447041809558868
vn 0.26900890469551086 0.9537044167518616 0.13447041809558868
vn 0.26900890469551086 0.9537044167518616 0.13447041809558868
vn 0.3357820212841034 0.9143606424331665 0.2262633740901947
vn 0.3357820212841034 0.9143606424331665 0.2262633740901947
vn 0.3357820212841034 0.9143606424331665 0.2262633740901947
vn -0.05257854983210564 -0.9891542196273804 -0.1371481567621231
vn -0.12189566344022751 -0.9522854089736938 -0.27981093525886536
vn 0.24519459903240204 -0.640861451625824 -0.7274450063705444
vn -0.12189566344022751 -0.9522854089736938 -0.27981093525886536
vn 0.33106693625450134 -1.605463140208485e-08 -0.9436072707176208
vn -0.618719756603241 -0.7388885617256165 0.26688891649246216
vn -0.8426806926727295 -1.598263388302712e-08 0.5384136438369751
vn -0.05257809907197952 0.9891541600227356 -0.13714875280857086
vn -0.12189549952745438 0.9522854089736938 -0.27981096506118774
vn 0.24519465863704681 0.6408616900444031 -0.7274447679519653
vn -0.12189549952745438 0.9522854089736938 -0.27981096506118774
vn -0.618719756603241 0.7388885617256165 0.26688867807388306
vn -0.46209916472435 -0.5312008261680603 -0.7101338505744934
vn -0.46209916472435 -0.5312008261680603 -0.7101338505744934
vn -0.3117738664150238 -0.19223542511463165 -0.9305066466331482
vn -0.3117738664150238 -0.19223542511463165 -0.9305066466331482
vn -0.3117738664150238 -0.19223542511463165 -0.9305066466331482
vn -0.9605149030685425 -0.27335935831069946 0.05182648450136185
vn -0.9605149030685425 -0.27335935831069946 0.05182648450136185
vn -0.9605149030685425 -0.27335935831069946 0.05182648450136185
vn -0.704929769039154 -0.6180164813995361 -0.3480370044708252
vn -0.704929769039154 -0.6180164813995361 -0.3480370044708252
vn -0.704929769039154 -0.6180164813995361 -0.3480370044708252
vn -0.4620983600616455 0.5312014818191528 -0.7101338505744934
vn -0.4620983600616455 0.5312014818191528 -0.7101338505744934
vn -0.4620983600616455 0.5312014818191528 -0.7101338505744934
vn -0.3117736279964447 0.19223573803901672 -0.9305067658424377
vn -0.3117736279964447 0.19223573803901672 -0.9305067658424377
vn -0.3117736279964447 0.19223573803901672 -0.9305067658424377
vn -0.9605146646499634 0.2733597755432129 0.05182698741555214
vn -0.9605146646499634 0.2733597755432129 0.05182698741555214
vn -0.9605146646499634 0.2733597755432129 0.05182698741555214
vn -0.704929530620575 0.6180174946784973 -0.3480355739593506
vn -0.704929530620575 0.6180174946784973 -0.3480355739593506
vn -0.704929530620575 0.6180174946784973 -0.3480355739593506
vn -0.2455306053161621 0.6396483182907104 0.728398859500885
vn 0.12064938247203827 0.9511227607727051 0.2842699885368347
vn -0.33177924156188965 4.8258819163038424e-08 0.9433571696281433
vn 0.6204599142074585 0.7391083240509033 -0.26219916343688965
vn 0.8448993563652039 0.0 -0.5349253416061401
vn 0.05130798742175102 -0.9888985753059387 0.13945284485816956
vn 0.12064921110868454 -0.9511227011680603 0.28426992893218994
vn -0.2455306202173233 -0.6396483778953552 0.7283986806869507
vn 0.12064921110868454 -0.9511227011680603 0.28426992893218994
vn 0.6204599738121033 -0.7391083836555481 -0.2621990740299225
vn 0.5093106031417847 0.4940389096736908 0.7046477198600769
vn 0.5093106031417847 0.4940389096736908 0.7046477198600769
vn 0.37326955795288086 0.1853775531053543 0.9090132117271423
vn 0.37326955795288086 0.1853775531053543 0.9090132117271423
vn 0.37326955795288086 0.1853775531053543 0.9090132117271423
vn 0.9707638621330261 0.23998486995697021 0.004980945494025946
vn 0.9707638621330261 0.23998486995697021 0.004980945494025946
vn 0.9707638621330261 0.23998486995697021 0.004980945494025946
vn 0.7413355112075806 0.5675060153007507 0.35827162861824036
vn 0.7413355112075806 0.5675060153007507 0.35827162861824036
vn 0.7413355112075806 0.5675060153007507 0.35827162861824036
vn 0.5093098878860474 -0.49403953552246094 0.7046477198600769
vn 0.5093098878860474 -0.49403953552246094 0.7046477198600769
vn 0.5093098878860474 -0.49403953552246094 0.7046477198600769
vn 0.37326931953430176 -0.1853777915239334 0.9090132713317871
vn 0.37326931953430176 -0.1853777915239334 0.9090132713317871
vn 0.37326931953430176 -0.1853777915239334 0.9090132713317871
vn 0.9707638621330261 -0.23998524248600006 0.004980556201189756
vn 0.9707638621330261 -0.23998524248600006 0.004980556201189756
vn 0.9707638621330261 -0.23998524248600006 0.004980556201189756
vn 0.7413352727890015 -0.5675070285797119 0.3582707345485687
vn 0.7413352727890015 -0.5675070285797119 0.3582707345485687
vn 0.7413352727890015 -0.5675070285797119 0.3582707345485687
f 339/339/339 340/340/340 341/341/341
f 336/336/336 337/337/337 338/338/338
f 333/333/333 334/334/334 335/335/335
f 330/330/330 331/331/331 332/332/332
f 327/327/327 328/328/328 329/329/329
f 324/324/324 325/325/325 326/326/326
f 321/321/321 322/322/322 323/323/323
f 319/319/319 124/124/124 320/320/320
f 121/121/121 317/317/317 318/318/318
f 318/318/318 123/123/123 121/121/121
f 110/110/110 123/123/123 318/318/318
f 318/318/318 313/313/313 110/110/110
f 120/120/120 122/122/122 311/311/311
f 311/311/311 316/316/316 120/120/120
f 121/121/121 120/120/120 316/316/316
f 316/316/316 317/317/317 121/121/121
f 119/119/119 314/314/314 212/212/212
f 212/212/212 131/131/131 119/119/119
f 105/105/105 119/119/119 131/131/131
f 131/131/131 72/72/72 105/105/105
f 114/114/114 104/104/104 129/129/129
f 129/129/129 54/54/54 114/114/114
f 115/115/115 114/114/114 54/54/54
f 54/54/54 73/73/73 115/115/115
f 118/118/118 315/315/315 314/314/314
f 314/314/314 119/119/119 118/118/118
f 117/117/117 118/118/118 119/119/119
f 119/119/119 105/105/105 117/117/117
f 113/113/113 116/116/116 104/104/104
f 104/104/104 114/114/114 113/113/113
f 112/112/112 113/113/113 114/114/114
f 114/114/114 115/115/115 112/112/112
f 109/109/109 111/111/111 312/312/312
f 312/312/312 310/310/310 109/109/109
f 110/110/110 313/313/313 312/312/312
f 312/312/312 111/111/111 110/110/110
f 108/108/108 309/309/309 311/311/311
f 311/311/311 122/122/122 108/108/108
f 109/109/109 310/310/310 309/309/309
f 309/309/309 108/108/108 109/109/109
f 107/107/107 130/130/130 128/128/128
f 128/128/128 103/103/103 107/107/107
f 105/105/105 72/72/72 130/130/130
f 130/130/130 107/107/107 105/105/105
f 102/102/102 71/71/71 129/129/129
f 129/129/129 104/104/104 102/102/102
f 103/103/103 128/128/128 71/71/71
f 71/71/71 102/102/102 103/103/103
f 106/106/106 107/107/107 103/103/103
f 103/103/103 100/100/100 106/106/106
f 117/117/117 105/105/105 107/107/107
f 107/107/107 106/106/106 117/117/117
f 101/101/101 102/102/102 104/104/104
f 104/104/104 116/116/116 101/101/101
f 100/100/100 103/103/103 102/102/102
f 102/102/102 101/101/101 100/100/100
f 306/306/306 307/307/307 308/308/308
f 303/303/303 304/304/304 305/305/305
f 300/300/300 301/301/301 302/302/302
f 297/297/297 298/298/298 299/299/299
f 294/294/294 295/295/295 296/296/296
f 291/291/291 292/292/292 293/293/293
f 288/288/288 289/289/289 290/290/290
f 286/286/286 287/287/287 99/99/99
f 95/95/95 98/98/98 285/285/285
f 285/285/285 284/284/284 95/95/95
f 97/97/97 280/280/280 285/285/285
f 285/285/285 98/98/98 97/97/97
f 94/94/94 283/283/283 278/278/278
f 278/278/278 96/96/96 94/94/94
f 95/95/95 284/284/284 283/283/283
f 283/283/283 94/94/94 95/95/95
f 93/93/93 127/127/127 138/138/138
f 138/138/138 281/281/281 93/93/93
f 79/79/79 36/36/36 127/127/127
f 127/127/127 93/93/93 79/79/79
f 88/88/88 18/18/18 35/35/35
f 35/35/35 78/78/78 88/88/88
f 89/89/89 126/126/126 18/18/18
f 18/18/18 88/88/88 89/89/89
f 92/92/92 93/93/93 281/281/281
f 281/281/281 282/282/282 92/92/92
f 91/91/91 79/79/79 93/93/93
f 93/93/93 92/92/92 91/91/91
f 87/87/87 88/88/88 78/78/78
f 78/78/78 90/90/90 87/87/87
f 86/86/86 89/89/89 88/88/88
f 88/88/88 87/87/87 86/86/86
f 83/83/83 277/277/277 279/279/279
f 279/279/279 85/85/85 83/83/83
f 84/84/84 85/85/85 279/279/279
f 279/279/279 280/280/280 84/84/84
f 82/82/82 96/96/96 278/278/278
f 278/278/278 276/276/276 82/82/82
f 83/83/83 82/82/82 276/276/276
f 276/276/276 277/277/277 83/83/83
f 81/81/81 274/274/274 139/139/139
f 139/139/139 37/37/37 81/81/81
f 79/79/79 81/81/81 37/37/37
f 37/37/37 36/36/36 79/79/79
f 76/76/76 78/78/78 35/35/35
f 35/35/35 125/125/125 76/76/76
f 77/77/77 76/76/76 125/125/125
f 125/125/125 17/17/17 77/77/77
f 80/80/80 275/275/275 274/274/274
f 274/274/274 81/81/81 80/80/80
f 91/91/91 80/80/80 81/81/81
f 81/81/81 79/79/79 91/91/91
f 75/75/75 90/90/90 78/78/78
f 78/78/78 76/76/76 75/75/75
f 74/74/74 75/75/75 76/76/76
f 76/76/76 77/77/77 74/74/74
f 271/271/271 272/272/272 273/273/273
f 268/268/268 269/269/269 270/270/270
f 265/265/265 266/266/266 267/267/267
f 262/262/262 263/263/263 264/264/264
f 259/259/259 260/260/260 261/261/261
f 256/256/256 257/257/257 258/258/258
f 253/253/253 254/254/254 255/255/255
f 250/250/250 251/251/251 252/252/252
f 247/247/247 248/248/248 249/249/249
f 244/244/244 245/245/245 246/246/246
f 241/241/241 242/242/242 243/243/243
f 238/238/238 239/239/239 240/240/240
f 235/235/235 236/236/236 237/237/237
f 232/232/232 233/233/233 234/234/234
f 229/229/229 230/230/230 231/231/231
f 226/226/226 227/227/227 228/228/228
f 224/224/224 225/225/225 69/69/69
f 222/222/222 70/70/70 223/223/223
f 68/68/68 220/220/220 221/221/221
f 218/218/218 63/63/63 219/219/219
f 67/67/67 216/216/216 217/217/217
f 66/66/66 65/65/65 64/64/64
f 55/55/55 38/38/38 45/45/45
f 45/45/45 62/62/62 55/55/55
f 61/61/61 62/62/62 45/45/45
f 45/45/45 44/44/44 61/61/61
f 60/60/60 61/61/61 44/44/44
f 44/44/44 43/43/43 60/60/60
f 59/59/59 60/60/60 43/43/43
f 43/43/43 211/211/211 59/59/59
f 58/58/58 59/59/59 211/211/211
f 211/211/211 215/215/215 58/58/58
f 57/57/57 58/58/58 215/215/215
f 215/215/215 214/214/214 57/57/57
f 56/56/56 57/57/57 214/214/214
f 214/214/214 213/213/213 56/56/56
f 55/55/55 56/56/56 213/213/213
f 213/213/213 38/38/38 55/55/55
f 53/53/53 46/46/46 128/128/128
f 128/128/128 130/130/130 53/53/53
f 52/52/52 53/53/53 130/130/130
f 130/130/130 72/72/72 52/52/52
f 51/51/51 52/52/52 72/72/72
f 72/72/72 131/131/131 51/51/51
f 210/210/210 51/51/51 131/131/131
f 131/131/131 212/212/212 210/210/210
f 49/49/49 50/50/50 73/73/73
f 73/73/73 54/54/54 49/49/49
f 48/48/48 49/49/49 54/54/54
f 54/54/54 129/129/129 48/48/48
f 47/47/47 48/48/48 129/129/129
f 129/129/129 71/71/71 47/47/47
f 46/46/46 47/47/47 71/71/71
f 71/71/71 128/128/128 46/46/46
f 45/45/45 38/38/38 46/46/46
f 46/46/46 53/53/53 45/45/45
f 44/44/44 45/45/45 53/53/53
f 53/53/53 52/52/52 44/44/44
f 43/43/43 44/44/44 52/52/52
f 52/52/52 51/51/51 43/43/43
f 211/211/211 43/43/43 51/51/51
f 51/51/51 210/210/210 211/211/211
f 41/41/41 42/42/42 50/50/50
f 50/50/50 49/49/49 41/41/41
f 40/40/40 41/41/41 49/49/49
f 49/49/49 48/48/48 40/40/40
f 39/39/39 40/40/40 48/48/48
f 48/48/48 47/47/47 39/39/39
f 38/38/38 39/39/39 47/47/47
f 47/47/47 46/46/46 38/38/38
f 207/207/207 208/208/208 209/209/209
f 204/204/204 205/205/205 206/206/206
f 201/201/201 202/202/202 203/203/203
f 198/198/198 199/199/199 200/200/200
f 195/195/195 196/196/196 197/197/197
f 192/192/192 193/193/193 194/194/194
f 189/189/189 190/190/190 191/191/191
f 186/186/186 187/187/187 188/188/188
f 183/183/183 184/184/184 185/185/185
f 180/180/180 181/181/181 182/182/182
f 177/177/177 178/178/178 179/179/179
f 174/174/174 175/175/175 176/176/176
f 171/171/171 172/172/172 173/173/173
f 168/168/168 169/169/169 170/170/170
f 165/165/165 166/166/166 167/167/167
f 162/162/162 163/163/163 164/164/164
f 160/160/160 33/33/33 161/161/161
f 157/157/157 158/158/158 159/159/159
f 32/32/32 34/34/34 156/156/156
f 153/153/153 154/154/154 155/155/155
f 31/31/31 27/27/27 152/152/152
f 30/30/30 28/28/28 29/29/29
f 19/19/19 26/26/26 149/149/149
f 149/149/149 141/141/141 19/19/19
f 150/150/150 151/151/151 149/149/149
f 149/149/149 26/26/26 150/150/150
f 24/24/24 147/147/147 148/148/148
f 148/148/148 25/25/25 24/24/24
f 23/23/23 146/146/146 147/147/147
f 147/147/147 24/24/24 23/23/23
f 22/22/22 143/143/143 146/146/146
f 146/146/146 23/23/23 22/22/22
f 144/144/144 145/145/145 143/143/143
f 143/143/143 22/22/22 144/144/144
f 20/20/20 140/140/140 142/142/142
f 142/142/142 21/21/21 20/20/20
f 19/19/19 141/141/141 140/140/140
f 140/140/140 20/20/20 19/19/19
f 16/16/16 37/37/37 139/139/139
f 139/139/139 136/136/136 16/16/16
f 15/15/15 36/36/36 37/37/37
f 37/37/37 16/16/16 15/15/15
f 14/14/14 127/127/127 36/36/36
f 36/36/36 15/15/15 14/14/14
f 135/135/135 138/138/138 127/127/127
f 127/127/127 14/14/14 135/135/135
f 12/12/12 18/18/18 126/126/126
f 126/126/126 13/13/13 12/12/12
f 11/11/11 35/35/35 18/18/18
f 18/18/18 12/12/12 11/11/11
f 10/10/10 125/125/125 35/35/35
f 35/35/35 11/11/11 10/10/10
f 9/9/9 17/17/17 125/125/125
f 125/125/125 10/10/10 9/9/9
f 8/8/8 16/16/16 136/136/136
f 136/136/136 137/137/137 8/8/8
f 7/7/7 15/15/15 16/16/16
f 16/16/16 8/8/8 7/7/7
f 6/6/6 14/14/14 15/15/15
f 15/15/15 7/7/7 6/6/6
f 134/134/134 135/135/135 14/14/14
f 14/14/14 6/6/6 134/134/134
f 133/133/133 12/12/12 13/13/13
f 13/13/13 5/5/5 133/133/133
f 3/3/3 11/11/11 12/12/12
f 12/12/12 4/4/4 3/3/3
f 132/132/132 10/10/10 11/11/11
f 11/11/11 3/3/3 132/132/132
f 1/1/1 9/9/9 10/10/10
f 10/10/10 2/2/2 1/1/1
