# Recovered local-space geometry; original node transforms not applied
o mesh_0
v -1.3667735402123071e-05 -1.0804534156250156e-07 50.53801727294922
v -1.3667735402123071e-05 30.377357482910156 41.47371292114258
v -15.188699722290039 26.307559967041016 41.47371292114258
v -26.307580947875977 15.188678741455078 41.47371292114258
v -30.37736701965332 4.483881639316678e-06 41.47371292114258
v -26.307580947875977 -15.188668251037598 41.47371292114258
v -15.188699722290039 -26.307552337646484 41.47371292114258
v -2.8361902877804823e-05 -30.377349853515625 41.47371292114258
v 15.188640594482422 -26.30756950378418 41.47371292114258
v 26.307540893554688 -15.18869400024414 41.47371292114258
v 30.377344131469727 -2.3769975086906925e-05 41.47371292114258
v 26.30755615234375 15.188652992248535 41.47371292114258
v 15.188685417175293 26.30754280090332 41.47371292114258
v -1.4456086319114547e-05 40.128211975097656 23.170024871826172
v -20.064125061035156 34.75204849243164 23.170024871826172
v -34.75205612182617 20.064102172851562 23.170024871826172
v -40.12822341918945 4.754431756737176e-06 23.170024871826172
v -34.75206756591797 -20.06409454345703 23.170024871826172
v -20.064136505126953 -34.752037048339844 23.170024871826172
v -3.6802346585318446e-05 -40.128204345703125 23.170024871826172
v 20.064069747924805 -34.752052307128906 23.170024871826172
v 34.75201416015625 -20.064130783081055 23.170024871826172
v 40.12819290161133 -3.250810186727904e-05 23.170024871826172
v 34.75204849243164 20.064069747924805 23.170024871826172
v 20.064117431640625 34.75202560424805 23.170024871826172
v 0.0 42.24932098388672 -1.0995804961000388e-12
v -36.58898162841797 -21.124670028686523 2.762389385679853e-06
v -21.124656677246094 -36.5889892578125 1.5948648979247082e-06
v 0.0 -42.24932098388672 -2.7219639302938914e-12
v 21.124656677246094 -36.5889892578125 -1.5948695590850548e-06
v 36.58898162841797 -21.124670028686523 -2.7623932510323357e-06
v 42.24932098388672 -1.5130957763176411e-05 -3.189736162312329e-06
v 36.588993072509766 21.124645233154297 -2.7623925689113094e-06
v 21.124677658081055 36.58897399902344 -1.594868649590353e-06
v -14.894546508789062 -53.77312469482422 81.6097412109375
v 7.637948036193848 -13.665760040283203 47.377994537353516
v -13.279425621032715 -8.060962677001953 47.377994537353516
v 2.3625431060791016 -28.389860153198242 64.43106079101562
v -17.147998809814453 -23.162033081054688 64.43106079101562
v 52.12751770019531 -18.690185546875 81.6097412109375
v 28.34489631652832 0.7135335206985474 64.43106079101562
v 21.436498641967773 -18.26712989807129 64.43106079101562
v 14.279449462890625 6.417832851409912 47.377994537353516
v 6.8729095458984375 -13.9314546585083 47.377994537353516
v 23.019437789916992 51.13451385498047 81.6097412109375
v 1.6167608499526978 29.133543014526367 64.43106079101562
v 19.923091888427734 20.5971622467041 64.43106079101562
v -5.148873329162598 14.784462928771973 47.377994537353516
v 14.477455139160156 5.632548809051514 47.377994537353516
v -53.18085861206055 19.36863136291504 81.6097412109375
v -29.39824104309082 -0.03509372100234032 64.43106079101562
v -22.48984146118164 18.94556999206543 64.43106079101562
v -14.279448509216309 -6.417829513549805 47.377994537353516
v -6.872908115386963 13.931455612182617 47.377994537353516
v -21.278257369995117 44.82611083984375 97.28453826904297
v -16.06156349182129 15.541604995727539 76.10675048828125
v -1.9822824001312256 22.10687828063965 76.10675048828125
v -12.760231018066406 4.790064811706543 46.5236930847168
v 4.524837970733643 12.850218772888184 46.5236930847168
v 45.958194732666016 17.15438461303711 97.28453826904297
v 16.668180465698242 14.53749942779541 76.10675048828125
v 21.981380462646484 -0.060409825295209885 76.10675048828125
v 6.129703998565674 12.307782173156738 46.5236930847168
v 12.652693748474121 -5.613999843597412 46.5236930847168
v 23.358057022094727 -42.70154571533203 97.38822937011719
v 17.754438400268555 -14.1746187210083 75.92813873291016
v 3.679765462875366 -20.7397403717041 76.3277587890625
v 14.10469913482666 -4.308099746704102 46.16923522949219
v -3.1747055053710938 -12.368062973022461 46.88522720336914
v -40.99616241455078 -27.15912437438965 97.38822937011719
v -12.76009750366211 -19.038333892822266 75.92813873291016
v -20.52692222595215 -5.589412212371826 76.3277587890625
v -2.839162826538086 -14.394471168518066 46.16923522949219
v -12.374455451965332 2.1167075634002686 46.88522720336914
v 20.661396026611328 45.1137580871582 110.52976989746094
v 1.5813870429992676 22.2938232421875 89.35198211669922
v 15.660665512084961 15.728540420532227 89.35198211669922
v -4.0908660888671875 11.5241117477417 45.55693435668945
v 11.53157901763916 4.23923921585083 45.55693435668945
v 42.682376861572266 -24.17939567565918 110.52976989746094
v 21.8504695892334 -3.4240434169769287 89.35198211669922
v 14.083081245422363 -16.877546310424805 89.35198211669922
v 12.08837890625 2.8129608631134033 45.55693435668945
v 3.469642400741577 -12.115118980407715 45.55693435668945
v -17.69701385498047 -45.34133529663086 110.63346862792969
v 0.553941547870636 -22.711957931518555 89.17337036132812
v -13.522255897521973 -16.150110244750977 89.57299041748047
v 5.217350482940674 -12.361754417419434 45.236568450927734
v -10.401671409606934 -5.080691337585449 45.88369369506836
v -47.156925201416016 13.94733715057373 110.63346862792969
v -22.786243438720703 -2.4628028869628906 89.17337036132812
v -17.47618865966797 12.131730079650879 89.57299041748047
v -11.609740257263184 -6.490269184112549 45.236568450927734
v -5.717672824859619 9.70390510559082 45.88369369506836
v -3.0865261554718018 34.49516296386719 124.2863998413086
v -6.696753025054932 13.80815601348877 92.15235137939453
v 4.228705883026123 14.764006614685059 92.15235137939453
v -7.102693557739258 5.8784332275390625 47.264583587646484
v 6.310441017150879 7.051926136016846 47.264583587646484
v 34.836666107177734 -0.09711633622646332 124.2863998413086
v 14.773760795593262 5.239159107208252 92.15235137939453
v 14.773756980895996 -5.728034973144531 92.15235137939453
v 7.244134902954102 6.304564952850342 47.264583587646484
v 7.244131565093994 -7.159803867340088 47.264583587646484
v 5.390983581542969 -34.348636627197266 124.44375610351562
v 8.561600685119629 -14.070791244506836 91.88133239746094
v -2.3607614040374756 -15.027652740478516 92.48768615722656
v 8.522714614868164 -6.644067287445068 46.726749420166016
v -4.886616230010986 -7.8187994956970215 47.81315994262695
v -33.54885482788086 -8.498902320861816 124.44375610351562
v -12.856173515319824 -9.929397583007812 91.88133239746094
v -14.76133918762207 0.8680059909820557 92.48768615722656
v -5.1533098220825195 -9.24414348602295 46.726749420166016
v -7.492273807525635 4.011775493621826 47.81315994262695
v -42.24932098388672 -1.5130957763176411e-05 3.18973411594925e-06
v -36.588993072509766 21.124645233154297 2.762391886790283e-06
v -21.124677658081055 36.58897399902344 1.5948689906508662e-06
v -13.674745559692383 -49.62153625488281 81.6097412109375
v -15.751014709472656 -21.41732406616211 64.43106079101562
v 2.2254579067230225 -26.234100341796875 64.43106079101562
v -12.18661880493164 -7.503617763519287 47.377994537353516
v 7.086069583892822 -12.667722702026367 47.377994537353516
v 48.0775260925293 -17.297088623046875 81.6097412109375
v 19.799673080444336 -16.907297134399414 64.43106079101562
v 26.164878845214844 0.5809601545333862 64.43106079101562
v 6.3811845779418945 -12.912527084350586 47.377994537353516
v 13.205365180969238 5.836743354797363 47.377994537353516
v 21.258150100708008 47.03745651245117 81.6097412109375
v 18.405261993408203 18.901185989379883 64.43106079101562
v 1.5383148193359375 26.76637077331543 64.43106079101562
v 13.387802124023438 5.113204479217529 47.377994537353516
v -4.695353031158447 13.545524597167969 47.377994537353516
v -48.9506950378418 17.769250869750977 81.6097412109375
v -20.672840118408203 17.379453659057617 64.43106079101562
v -27.038047790527344 -0.10880422592163086 64.43106079101562
v -6.2838311195373535 12.759587287902832 47.377994537353516
v -13.108012199401855 -5.989680290222168 47.377994537353516
v -19.5565185546875 41.225067138671875 97.28453826904297
v -1.7777438163757324 20.29219627380371 76.10675048828125
v -14.75000286102295 14.243133544921875 76.10675048828125
v 4.21773624420166 11.763364791870117 46.5236930847168
v -11.708247184753418 4.336963176727295 46.5236930847168
v 42.39328384399414 15.729104042053223 97.28453826904297
v 20.301712036132812 -0.13212978839874268 76.10675048828125
v 15.406275749206543 13.317978858947754 76.10675048828125
v 11.706518173217773 -5.249053955078125 46.5236930847168
v 5.696415424346924 11.263579368591309 46.5236930847168
v 21.570144653320312 -39.42049026489258 97.38822937011719
v 3.439110279083252 -19.18549156188965 76.3277587890625
v 16.407123565673828 -13.136570930480957 75.92813873291016
v -2.8764095306396484 -11.472061157226562 46.88522720336914
v 13.044355392456055 -4.045833587646484 46.16923522949219
v -37.72405242919922 -25.100133895874023 97.38822937011719
v -18.864259719848633 -5.2263994216918945 76.3277587890625
v -11.708124160766602 -17.617862701416016 75.92813873291016
v -11.352804183959961 1.8738058805465698 46.88522720336914
v -2.5672497749328613 -13.339137077331543 46.16923522949219
v 19.08551597595215 41.49009704589844 110.52976989746094
v 14.47797966003418 14.41537094116211 89.35198211669922
v 1.5057222843170166 20.464441299438477 89.35198211669922
v 10.673553466796875 3.8294477462768555 45.55693435668945
v -3.720534324645996 10.541526794433594 45.55693435668945
v 39.37503433227539 -22.354694366455078 110.52976989746094
v 13.024436950683594 -15.626974105834961 89.35198211669922
v 20.181095123291016 -3.231288433074951 89.35198211669922
v 3.2455086708068848 -11.239005088806152 45.55693435668945
v 11.18657398223877 2.5153145790100098 45.55693435668945
v -16.256860733032227 -41.852718353271484 110.63346862792969
v -12.410355567932129 -14.956734657287598 89.57299041748047
v 0.5590626001358032 -21.00263786315918 89.17337036132812
v -9.535135269165039 -4.757678031921387 45.88369369506836
v 4.855798244476318 -11.466248512268066 45.236568450927734
v -43.40040969848633 12.774219512939453 110.63346862792969
v -16.05339813232422 11.101369857788086 89.57299041748047
v -20.94593620300293 -2.345628261566162 89.17337036132812
v -5.2194294929504395 8.864439010620117 45.88369369506836
v -10.648216247558594 -6.056424140930176 45.236568450927734
v -2.795163631439209 31.706418991088867 124.2863998413086
v 3.9448885917663574 13.526676177978516 92.15235137939453
v -6.121526718139648 12.645981788635254 92.15235137939453
v 5.862941741943359 6.4209794998168945 47.264583587646484
v -6.495549201965332 5.339755535125732 47.264583587646484
v 32.14621353149414 -0.16595011949539185 124.2863998413086
v 13.660806655883789 -5.354122638702393 92.15235137939453
v 13.660810470581055 4.750746250152588 92.15235137939453
v 6.723217964172363 -6.673315048217773 47.264583587646484
v 6.723221302032471 5.732381343841553 47.264583587646484
v 5.0157790184021 -31.72435188293457 124.44375610351562
v -2.1264638900756836 -13.92253303527832 92.48768615722656
v 7.937097549438477 -13.040907859802246 91.88133239746094
v -4.45371675491333 -7.2804951667785645 47.81315994262695
v 7.90126895904541 -6.198129653930664 46.726749420166016
v -30.862308502197266 -7.90712308883667 124.44375610351562
v -13.55201244354248 0.7232867479324341 92.48768615722656
v -11.796645164489746 -9.225142478942871 91.88133239746094
v -6.85449743270874 3.619868755340576 47.81315994262695
v -4.699440956115723 -8.593767166137695 46.726749420166016
v -1.3568575923272874e-05 -1.9108756532659754e-07 55.96351623535156
v -1.213805990118999e-05 34.003387451171875 45.50954818725586
v -17.0017147064209 29.447792053222656 45.50954818725586
v -29.44781494140625 17.001693725585938 45.50954818725586
v -34.003395080566406 4.484233159018913e-06 45.50954818725586
v -29.44781494140625 -17.00168228149414 45.50954818725586
v -17.0017147064209 -29.447784423828125 45.50954818725586
v -3.0144507036311552e-05 -34.003379821777344 45.50954818725586
v 17.001651763916016 -29.447805404663086 45.50954818725586
v 29.447772979736328 -17.001710891723633 45.50954818725586
v 34.00337219238281 -2.5709812689456157e-05 45.50954818725586
v 29.447790145874023 17.001665115356445 45.50954818725586
v 17.0017032623291 29.44777488708496 45.50954818725586
v -1.3034642506681848e-05 45.338226318359375 24.68388557434082
v -22.669132232666016 39.26405334472656 24.68388557434082
v -39.264060974121094 22.669109344482422 24.683883666992188
v -45.33823776245117 6.201002634043107e-06 24.68388557434082
v -39.26407241821289 -22.669099807739258 24.68388557434082
v -22.669147491455078 -39.2640380859375 24.68388557434082
v -4.025601447210647e-05 -45.338218688964844 24.68388557434082
v 22.66907501220703 -39.26405715942383 24.68388557434082
v 39.264015197753906 -22.66914176940918 24.683887481689453
v 45.33820724487305 -3.729065792867914e-05 24.683887481689453
v 39.26405334472656 22.669071197509766 24.683887481689453
v 22.66912841796875 39.2640266418457 24.68388557434082
v 2.2204633864930656e-07 47.672325134277344 -0.16450254619121552
v -41.285438537597656 -23.83617401123047 -0.1645030826330185
v -23.836158752441406 -41.28544998168945 -0.16450320184230804
v 2.8784580052843012e-08 -47.672325134277344 -0.16450250148773193
v 23.836158752441406 -41.28545379638672 -0.16450227797031403
v 41.285438537597656 -23.836172103881836 -0.1645027995109558
v 47.672325134277344 -1.6857253285706975e-05 -0.16450358927249908
v 41.285457611083984 23.836145401000977 -0.16450287401676178
v 23.836181640625 41.285430908203125 -0.16450172662734985
v -15.609764099121094 -56.442832946777344 80.20066833496094
v 6.601040840148926 -17.53554916381836 46.979034423828125
v -14.3163480758667 -11.930809020996094 46.97909927368164
v 1.45735764503479 -31.76805877685547 63.542911529541016
v -18.050827026367188 -26.53144645690918 63.53525924682617
v 54.72446060180664 -19.63544273376465 80.2005386352539
v 31.65522003173828 -0.4913257360458374 63.56446075439453
v 24.749706268310547 -19.473039627075195 63.56708526611328
v 18.090654373168945 5.030665874481201 47.03398513793945
v 10.68409538269043 -15.31861400604248 47.03396224975586
v 24.187673568725586 53.63948059082031 80.20075225830078
v 3.082066297531128 32.27590560913086 63.517669677734375
v 21.392805099487305 23.748977661132812 63.5263557434082
v -3.46935772895813 18.38619613647461 46.944053649902344
v 16.156944274902344 9.234219551086426 46.94397735595703
v -55.77840042114258 20.314041137695312 80.20089721679688
v -32.62617111206055 1.1397778987884521 63.491188049316406
v -25.716402053833008 20.11994171142578 63.489994049072266
v -17.95660400390625 -5.079452037811279 46.87957000732422
v -10.550071716308594 15.26983642578125 46.87957763671875
v -22.63477897644043 47.735809326171875 96.17048645019531
v -17.925235748291016 19.53826332092285 76.205810546875
v -3.848465919494629 26.10892105102539 76.21411895751953
v -14.90717601776123 9.394208908081055 47.87850570678711
v 2.377908229827881 17.454328536987305 47.87840270996094
v 48.99724197387695 18.26009750366211 96.18788146972656
v 20.84160041809082 16.056499481201172 76.25013732910156
v 26.162641525268555 1.4614450931549072 76.26206970214844
v 10.928301811218262 14.054327011108398 47.950599670410156
v 17.451242446899414 -3.867471218109131 47.95044708251953
v 24.633960723876953 -45.70121383666992 96.31085205078125
v 19.568517684936523 -18.251590728759766 76.10179901123047
v 5.495230674743652 -24.819414138793945 76.50581359863281
v 16.207365036010742 -8.97555923461914 47.63179397583008
v -1.0738861560821533 -17.032459259033203 48.33769989013672
v -43.854793548583984 -28.680686950683594 96.29485321044922
v -16.639955520629883 -21.18609619140625 76.0621337890625
v -24.406400680541992 -7.736937522888184 76.46112060546875
v -7.286431312561035 -16.882009506225586 47.56612014770508
v -16.818641662597656 -0.368607759475708 48.27182388305664
v 22.017446517944336 48.02104949951172 109.41397857666016
v 3.503080368041992 26.414899826049805 89.65194702148438
v 17.584854125976562 19.85497283935547 89.66104888916016
v -1.8807026147842407 16.26382064819336 47.3721809387207
v 13.741732597351074 8.978923797607422 47.37208938598633
v 45.48076248168945 -25.79559898376465 109.43135833740234
v 25.811262130737305 -5.710810661315918 89.69294738769531
v 18.05133628845215 -19.168617248535156 89.70648956298828
v 16.632680892944336 0.18930482864379883 47.437564849853516
v 8.013914108276367 -14.738757133483887 47.43742752075195
v -19.17374610900879 -48.24477005004883 109.55433654785156
v -1.4537826776504517 -26.842967987060547 89.545166015625
v -15.5304594039917 -20.282270431518555 89.94676971435547
v 2.951254367828369 -17.1029052734375 47.14630889892578
v -12.667365074157715 -9.820501327514648 47.788063049316406
v -50.15781784057617 15.1582670211792 109.53834533691406
v -27.05443572998047 -0.829796552658081 89.5086898803711
v -21.742050170898438 13.763993263244629 89.90449523925781
v -16.514923095703125 -4.6492600440979 47.0870246887207
v -10.62138557434082 11.544599533081055 47.728633880615234
v -3.4860634803771973 39.06296157836914 124.64579772949219
v -7.139705181121826 18.871135711669922 93.5130615234375
v 3.7856390476226807 19.82830238342285 93.51659393310547
v -7.568499565124512 11.202642440795898 49.59051513671875
v 5.844635963439941 12.376131057739258 49.59049606323242
v 39.43675231933594 -0.09724971652030945 124.66939544677734
v 19.86763572692871 5.23915958404541 93.54428100585938
v 19.8695011138916 -5.7280354499816895 93.54938507080078
v 12.595306396484375 6.304562568664551 49.629268646240234
v 12.595298767089844 -7.159804344177246 49.62923812866211
v 5.637800693511963 -38.95800018310547 124.85230255126953
v 8.907349586486816 -19.170530319213867 93.3218994140625
v -2.019256830215454 -20.109704971313477 93.87862396240234
v 8.919508934020996 -11.98363971710205 49.110313415527344
v -4.49030065536499 -13.157575607299805 50.191673278808594
v -38.10624313354492 -9.143073081970215 124.83091735839844
v -17.896663665771484 -10.715004920959473 93.29375457763672
v -19.783639907836914 0.08842754364013672 93.84872436523438
v -10.432666778564453 -10.100991249084473 49.07524108886719
v -12.7708158493042 3.155501365661621 50.15640640258789
v -47.672325134277344 -1.704612441244535e-05 -0.16450275480747223
v -41.285457611083984 23.83614730834961 -0.1645023077726364
v -23.836181640625 41.285430908203125 -0.1645033359527588
v -14.16821002960205 -51.36508560180664 88.2073745727539
v -16.411542892456055 -17.52265739440918 67.460205078125
v 4.697911262512207 -23.169391632080078 67.45185852050781
v -12.08758544921875 -0.6677980422973633 46.88130569458008
v 10.541457176208496 -6.731177806854248 46.8812370300293
v 49.76644515991211 -17.903141021728516 88.20925903320312
v 15.821897506713867 -17.175312042236328 67.42753601074219
v 23.29851531982422 3.3574655055999756 67.4303970336914
v -0.4481821060180664 -12.297492980957031 46.8239631652832
v 7.564446449279785 9.71695613861084 46.8239860534668
v 22.001428604125977 48.70274353027344 88.20616912841797
v 18.338239669799805 14.994651794433594 67.46864318847656
v -1.461620569229126 24.23912811279297 67.47814178466797
v 12.229394912719727 -1.6611404418945312 46.91792297363281
v -9.00291633605957 8.239723205566406 46.91799545288086
v -50.683231353759766 18.40463638305664 88.20391845703125
v -16.8258056640625 17.70858383178711 67.506103515625
v -24.298124313354492 -2.8257625102996826 67.50479125976562
v 0.5373799800872803 12.1137056350708 46.98564147949219
v -7.475225925445557 -9.900749206542969 46.98563003540039
v -20.06263542175293 42.248748779296875 104.82295227050781
v 1.3137445449829102 16.5944881439209 78.66221618652344
v -13.920093536376953 9.497260093688965 78.67091369628906
v 8.629101753234863 5.98897647857666 42.61752700805664
v -10.070404052734375 -2.7307024002075195 42.617618560791016
v 43.367496490478516 16.126497268676758 104.80558776855469
v 16.30603790283203 -2.9051852226257324 78.61557006835938
v 10.565764427185059 12.890059471130371 78.6280746459961
v 5.608597278594971 -9.133565902709961 42.5484619140625
v -1.4481239318847656 10.254758834838867 42.5485954284668
v 22.23296356201172 -40.20588684082031 104.90200805664062
v 0.4111086130142212 -15.391148567199707 78.85112762451172
v 15.636896133422852 -8.287649154663086 78.37989044189453
v -7.2875237464904785 -5.760821342468262 42.94397735595703
v 11.40408992767334 2.961475133895874 42.09332275390625
v -38.52784729003906 -25.85407066345215 104.91796875
v -15.384316444396973 -1.9002141952514648 78.89456176757812
v -6.97794771194458 -16.447113037109375 78.4181900024414
v -6.010249137878418 6.771542549133301 43.00710678100586
v 4.3081464767456055 -11.088610649108887 42.15610885620117
v 19.564315795898438 42.583370208740234 118.7886962890625
v 13.597588539123535 9.600265502929688 92.42301940917969
v -1.6313444375991821 16.70801544189453 92.43247985839844
v 8.851607322692871 -3.427549123764038 39.43593215942383
v -8.049201965332031 4.453456878662109 39.436012268066406
v 40.347225189208984 -22.865846633911133 118.77106475830078
v 8.26496696472168 -14.306228637695312 92.37894439697266
v 16.675251007080078 0.24394917488098145 92.39303588867188
v -3.7783331871032715 -8.82999038696289 39.37397003173828
v 5.545693397521973 7.319628715515137 39.374088287353516
v -16.44674301147461 -42.907386779785156 118.86740112304688
v -11.418103218078613 -10.12764835357666 92.61862182617188
v 3.8112058639526367 -17.223356246948242 92.14376831054688
v -7.794395923614502 2.443221092224121 39.73069381713867
v 9.103062629699707 -5.432393550872803 38.96553421020508
v -44.54182434082031 12.918932914733887 118.88357543945312
v -11.19548225402832 10.549583435058594 92.65959930419922
v -16.933399200439453 -5.241284370422363 92.17881774902344
v 2.1506237983703613 7.7231292724609375 39.78702163696289
v -4.2221879959106445 -9.796468734741211 39.02161407470703
v -2.6818857192993164 30.199302673339844 132.6951446533203
v 5.272286415100098 8.391542434692383 93.95339965820312
v -6.547299861907959 7.358677864074707 93.95687866210938
v 7.5456109046936035 -0.19440674781799316 40.28141403198242
v -6.96511173248291 -1.4639241695404053 40.28143310546875
v 30.57416343688965 -0.13740426301956177 132.67230224609375
v 8.408769607543945 -6.228981018066406 93.9223861694336
v 8.410480499267578 5.635650157928467 93.92739868164062
v 0.02454233169555664 -7.777911186218262 40.245208740234375
v 0.02454972267150879 6.788237571716309 40.24523162841797
v 5.145631313323975 -30.097810745239258 132.82420349121094
v -3.339205741882324 -8.759235382080078 94.3210678100586
v 8.471451759338379 -7.704113960266113 93.54867553710938
v -6.128844738006592 -0.7196140289306641 40.869754791259766
v 8.37720775604248 0.552044153213501 39.58864212036133
v -29.28632354736328 -7.892661094665527 132.84486389160156
v -8.53264045715332 2.3771920204162598 94.34930419921875
v -6.451257705688477 -9.296295166015625 93.57523345947266
v -0.4286835193634033 5.855724811553955 40.902706146240234
v 2.1024863719940186 -8.48426342010498 39.62138366699219
v -3.178914482759865e-07 -8.58306884765625e-06 -1.2221335055073723e-12
v -15.188699722290039 26.307559967041016 41.47371292114258
v -1.3667735402123071e-05 30.377357482910156 41.47371292114258
v -26.307580947875977 15.188678741455078 41.47371292114258
v -30.37736701965332 4.483881639316678e-06 41.47371292114258
v -26.307580947875977 -15.188668251037598 41.47371292114258
v -15.188699722290039 -26.307552337646484 41.47371292114258
v -26.307580947875977 -15.188668251037598 41.47371292114258
v -34.75206756591797 -20.06409454345703 23.170024871826172
v -2.8361902877804823e-05 -30.377349853515625 41.47371292114258
v 15.188640594482422 -26.30756950378418 41.47371292114258
v 26.307540893554688 -15.18869400024414 41.47371292114258
v 30.377344131469727 -2.3769975086906925e-05 41.47371292114258
v 26.307540893554688 -15.18869400024414 41.47371292114258
v 34.75201416015625 -20.064130783081055 23.170024871826172
v 26.30755615234375 15.188652992248535 41.47371292114258
v 15.188685417175293 26.30754280090332 41.47371292114258
v -1.4456086319114547e-05 40.128211975097656 23.170024871826172
v -1.3667735402123071e-05 30.377357482910156 41.47371292114258
v -36.58898162841797 -21.124670028686523 2.762389385679853e-06
v 36.58898162841797 -21.124670028686523 -2.7623932510323357e-06
v 0.0 42.24932098388672 -1.0995804961000388e-12
v -21.124677658081055 36.58897399902344 1.5948689906508662e-06
v 0.0 42.24932098388672 -1.0995804961000388e-12
v -21.124656677246094 -36.5889892578125 1.5948648979247082e-06
v -36.58898162841797 -21.124670028686523 2.762389385679853e-06
v 0.0 -42.24932098388672 -2.7219639302938914e-12
v 21.124656677246094 -36.5889892578125 -1.5948695590850548e-06
v 36.58898162841797 -21.124670028686523 -2.7623932510323357e-06
v 42.24932098388672 -1.5130957763176411e-05 -3.189736162312329e-06
v 36.588993072509766 21.124645233154297 -2.7623925689113094e-06
v 21.124677658081055 36.58897399902344 -1.594868649590353e-06
v 0.0 42.24932098388672 -1.0995804961000388e-12
v -42.24932098388672 -1.5130957763176411e-05 3.18973411594925e-06
v -36.588993072509766 21.124645233154297 2.762391886790283e-06
vt 0.9156230688095093 0.003101050853729248
vt 0.9187548756599426 0.006241977214813232
vt 0.915637195110321 0.006240546703338623
vt 0.9125195145606995 0.006241977214813232
vt 0.915637195110321 0.006240546703338623
vt 0.9187548756599426 0.006241977214813232
vt 0.915637195110321 0.006240546703338623
vt 0.9125195145606995 0.006241977214813232
vt 0.915637195110321 0.006240546703338623
vt 0.9187548756599426 0.006241977214813232
vt 0.915637195110321 0.006240546703338623
vt 0.9125195145606995 0.006241977214813232
vt 0.915637195110321 0.006240546703338623
vt 0.8786179423332214 0.029133856296539307
vt 0.9083211421966553 0.029133856296539307
vt 0.9380241632461548 0.029133856296539307
vt 0.9677273035049438 0.029133856296539307
vt 0.9974304437637329 0.029133856296539307
vt 0.907006561756134 0.029133856296539307
vt 0.9367096424102783 0.029133856296539307
vt 0.9664127826690674 0.029133856296539307
vt 0.9961159229278564 0.029133856296539307
vt 0.9082754254341125 0.029133856296539307
vt 0.9379785060882568 0.029133856296539307
vt 0.9676816463470459 0.029133856296539307
vt 0.8786179423332214 0.06286829710006714
vt 0.9974304437637329 0.06286823749542236
vt 0.907006561756134 0.06286829710006714
vt 0.9367096424102783 0.06286829710006714
vt 0.9664127826690674 0.06286829710006714
vt 0.9961159229278564 0.06286829710006714
vt 0.9082754254341125 0.06286829710006714
vt 0.9379785060882568 0.06286829710006714
vt 0.9676816463470459 0.06286829710006714
vt 0.9216949939727783 0.007444918155670166
vt 0.9205188751220703 0.0025258660316467285
vt 0.922788143157959 0.0025275349617004395
vt 0.9209023714065552 0.004985153675079346
vt 0.922479510307312 0.004986464977264404
vt 0.9216949939727783 0.007444918155670166
vt 0.9209023714065552 0.004985153675079346
vt 0.922479510307312 0.004986464977264404
vt 0.9205188751220703 0.0025258660316467285
vt 0.922788143157959 0.0025275349617004395
vt 0.9216949939727783 0.007444918155670166
vt 0.9209023714065552 0.004985153675079346
vt 0.922479510307312 0.004986464977264404
vt 0.9205188751220703 0.0025258660316467285
vt 0.922788143157959 0.0025275349617004395
vt 0.9216949939727783 0.007444918155670166
vt 0.9209023714065552 0.004985153675079346
vt 0.922479510307312 0.004986464977264404
vt 0.9205188751220703 0.0025258660316467285
vt 0.922788143157959 0.0025275349617004395
vt 0.9216949939727783 0.007444918155670166
vt 0.9209023714065552 0.004985153675079346
vt 0.922479510307312 0.004986464977264404
vt 0.9205188751220703 0.0025258660316467285
vt 0.922788143157959 0.0025275349617004395
vt 0.9216949939727783 0.007444918155670166
vt 0.9209023714065552 0.004985153675079346
vt 0.922479510307312 0.004986464977264404
vt 0.9205188751220703 0.0025258660316467285
vt 0.922788143157959 0.0025275349617004395
vt 0.9216949939727783 0.007444918155670166
vt 0.9209023714065552 0.004985153675079346
vt 0.922479510307312 0.004986464977264404
vt 0.9205188751220703 0.0025258660316467285
vt 0.922788143157959 0.0025275349617004395
vt 0.9216949939727783 0.007444918155670166
vt 0.9209023714065552 0.004985153675079346
vt 0.922479510307312 0.004986464977264404
vt 0.9205188751220703 0.0025258660316467285
vt 0.922788143157959 0.0025275349617004395
vt 0.9216949939727783 0.007444918155670166
vt 0.9209023714065552 0.004985153675079346
vt 0.922479510307312 0.004986464977264404
vt 0.9205188751220703 0.0025258660316467285
vt 0.922788143157959 0.0025275349617004395
vt 0.9216949939727783 0.007444918155670166
vt 0.9209023714065552 0.004985153675079346
vt 0.922479510307312 0.004986464977264404
vt 0.9205188751220703 0.0025258660316467285
vt 0.922788143157959 0.0025275349617004395
vt 0.9216949939727783 0.007444918155670166
vt 0.9209023714065552 0.004985153675079346
vt 0.922479510307312 0.004986464977264404
vt 0.9205188751220703 0.0025258660316467285
vt 0.922788143157959 0.0025275349617004395
vt 0.9216949939727783 0.007444918155670166
vt 0.9209023714065552 0.004985153675079346
vt 0.922479510307312 0.004986464977264404
vt 0.9205188751220703 0.0025258660316467285
vt 0.922788143157959 0.0025275349617004395
vt 0.9216949939727783 0.007444918155670166
vt 0.9209023714065552 0.004985153675079346
vt 0.922479510307312 0.004986464977264404
vt 0.9205188751220703 0.0025258660316467285
vt 0.922788143157959 0.0025275349617004395
vt 0.9216949939727783 0.007444918155670166
vt 0.9209023714065552 0.004985153675079346
vt 0.922479510307312 0.004986464977264404
vt 0.9205188751220703 0.0025258660316467285
vt 0.922788143157959 0.0025275349617004395
vt 0.9216949939727783 0.007444918155670166
vt 0.9209023714065552 0.004985153675079346
vt 0.922479510307312 0.004986464977264404
vt 0.9205188751220703 0.0025258660316467285
vt 0.922788143157959 0.0025275349617004395
vt 0.9216949939727783 0.007444918155670166
vt 0.9209023714065552 0.004985153675079346
vt 0.922479510307312 0.004986464977264404
vt 0.9205188751220703 0.0025258660316467285
vt 0.922788143157959 0.0025275349617004395
vt 0.9677273631095886 0.06286823749542236
vt 0.9380241632461548 0.06286823749542236
vt 0.9083211421966553 0.06286829710006714
vt 0.9216949939727783 0.007444918155670166
vt 0.922479510307312 0.004986464977264404
vt 0.9209023714065552 0.004985153675079346
vt 0.922788143157959 0.0025275349617004395
vt 0.9205188751220703 0.0025258660316467285
vt 0.9216949939727783 0.007444918155670166
vt 0.922479510307312 0.004986464977264404
vt 0.9209023714065552 0.004985153675079346
vt 0.922788143157959 0.0025275349617004395
vt 0.9205188751220703 0.0025258660316467285
vt 0.9216949939727783 0.007444918155670166
vt 0.922479510307312 0.004986464977264404
vt 0.9209023714065552 0.004985153675079346
vt 0.922788143157959 0.0025275349617004395
vt 0.9205188751220703 0.0025258660316467285
vt 0.9216949939727783 0.007444918155670166
vt 0.922479510307312 0.004986464977264404
vt 0.9209023714065552 0.004985153675079346
vt 0.922788143157959 0.0025275349617004395
vt 0.9205188751220703 0.0025258660316467285
vt 0.9216949939727783 0.007444918155670166
vt 0.922479510307312 0.004986464977264404
vt 0.9209023714065552 0.004985153675079346
vt 0.922788143157959 0.0025275349617004395
vt 0.9205188751220703 0.0025258660316467285
vt 0.9216949939727783 0.007444918155670166
vt 0.922479510307312 0.004986464977264404
vt 0.9209023714065552 0.004985153675079346
vt 0.922788143157959 0.0025275349617004395
vt 0.9205188751220703 0.0025258660316467285
vt 0.9216949939727783 0.007444918155670166
vt 0.922479510307312 0.004986464977264404
vt 0.9209023714065552 0.004985153675079346
vt 0.922788143157959 0.0025275349617004395
vt 0.9205188751220703 0.0025258660316467285
vt 0.9216949939727783 0.007444918155670166
vt 0.922479510307312 0.004986464977264404
vt 0.9209023714065552 0.004985153675079346
vt 0.922788143157959 0.0025275349617004395
vt 0.9205188751220703 0.0025258660316467285
vt 0.9216949939727783 0.007444918155670166
vt 0.922479510307312 0.004986464977264404
vt 0.9209023714065552 0.004985153675079346
vt 0.922788143157959 0.0025275349617004395
vt 0.9205188751220703 0.0025258660316467285
vt 0.9216949939727783 0.007444918155670166
vt 0.922479510307312 0.004986464977264404
vt 0.9209023714065552 0.004985153675079346
vt 0.922788143157959 0.0025275349617004395
vt 0.9205188751220703 0.0025258660316467285
vt 0.9216949939727783 0.007444918155670166
vt 0.922479510307312 0.004986464977264404
vt 0.9209023714065552 0.004985153675079346
vt 0.922788143157959 0.0025275349617004395
vt 0.9205188751220703 0.0025258660316467285
vt 0.9216949939727783 0.007444918155670166
vt 0.922479510307312 0.004986464977264404
vt 0.9209023714065552 0.004985153675079346
vt 0.922788143157959 0.0025275349617004395
vt 0.9205188751220703 0.0025258660316467285
vt 0.9216949939727783 0.007444918155670166
vt 0.922479510307312 0.004986464977264404
vt 0.9209023714065552 0.004985153675079346
vt 0.922788143157959 0.0025275349617004395
vt 0.9205188751220703 0.0025258660316467285
vt 0.9216949939727783 0.007444918155670166
vt 0.922479510307312 0.004986464977264404
vt 0.9209023714065552 0.004985153675079346
vt 0.922788143157959 0.0025275349617004395
vt 0.9205188751220703 0.0025258660316467285
vt 0.9216949939727783 0.007444918155670166
vt 0.922479510307312 0.004986464977264404
vt 0.9209023714065552 0.004985153675079346
vt 0.922788143157959 0.0025275349617004395
vt 0.9205188751220703 0.0025258660316467285
vt 0.9216949939727783 0.007444918155670166
vt 0.922479510307312 0.004986464977264404
vt 0.9209023714065552 0.004985153675079346
vt 0.922788143157959 0.0025275349617004395
vt 0.9205188751220703 0.0025258660316467285
vt 0.9503831267356873 0.07313907146453857
vt 0.9503892660140991 0.07314521074295044
vt 0.950383186340332 0.07314521074295044
vt 0.9503771066665649 0.07314521074295044
vt 0.950383186340332 0.07314521074295044
vt 0.9503892660140991 0.07314521074295044
vt 0.950383186340332 0.07314521074295044
vt 0.9503771066665649 0.07314521074295044
vt 0.950383186340332 0.07314521074295044
vt 0.9503892660140991 0.07314521074295044
vt 0.950383186340332 0.07314521074295044
vt 0.9503771066665649 0.07314521074295044
vt 0.950383186340332 0.07314521074295044
vt 0.950078010559082 0.0731896162033081
vt 0.9501357078552246 0.0731896162033081
vt 0.9501934051513672 0.0731896162033081
vt 0.950251042842865 0.0731896162033081
vt 0.9503087401390076 0.0731896162033081
vt 0.9503663778305054 0.0731896162033081
vt 0.950424075126648 0.0731896162033081
vt 0.9504817724227905 0.0731896162033081
vt 0.9505394697189331 0.0731896162033081
vt 0.9505971074104309 0.0731896162033081
vt 0.9506548047065735 0.0731896162033081
vt 0.9507124423980713 0.0731896162033081
vt 0.950078010559082 0.07325512170791626
vt 0.9503087401390076 0.07325512170791626
vt 0.9503663778305054 0.07325512170791626
vt 0.950424075126648 0.07325512170791626
vt 0.9504817724227905 0.07325512170791626
vt 0.9505394697189331 0.07325512170791626
vt 0.9505971074104309 0.07325512170791626
vt 0.9506548047065735 0.07325512170791626
vt 0.9507124423980713 0.07325512170791626
vt 0.9503949284553528 0.07314753532409668
vt 0.9503926038742065 0.07313793897628784
vt 0.9503970742225647 0.07313793897628784
vt 0.9503933787345886 0.07314270734786987
vt 0.9503964185714722 0.07314270734786987
vt 0.9503949284553528 0.07314753532409668
vt 0.9503933787345886 0.07314270734786987
vt 0.9503964185714722 0.07314270734786987
vt 0.9503926038742065 0.07313793897628784
vt 0.9503970742225647 0.07313793897628784
vt 0.9503949284553528 0.07314753532409668
vt 0.9503933787345886 0.07314270734786987
vt 0.9503964185714722 0.07314270734786987
vt 0.9503926038742065 0.07313793897628784
vt 0.9503970742225647 0.07313793897628784
vt 0.9503949284553528 0.07314753532409668
vt 0.9503933787345886 0.07314270734786987
vt 0.9503964185714722 0.07314270734786987
vt 0.9503926038742065 0.07313793897628784
vt 0.9503970742225647 0.07313793897628784
vt 0.9503949284553528 0.07314753532409668
vt 0.9503933787345886 0.07314270734786987
vt 0.9503964185714722 0.07314270734786987
vt 0.9503926038742065 0.07313793897628784
vt 0.9503970742225647 0.07313793897628784
vt 0.9503949284553528 0.07314753532409668
vt 0.9503933787345886 0.07314270734786987
vt 0.9503964185714722 0.07314270734786987
vt 0.9503926038742065 0.07313793897628784
vt 0.9503970742225647 0.07313793897628784
vt 0.9503949284553528 0.07314753532409668
vt 0.9503933787345886 0.07314270734786987
vt 0.9503964185714722 0.07314270734786987
vt 0.9503926038742065 0.07313793897628784
vt 0.9503970742225647 0.07313793897628784
vt 0.9503949284553528 0.07314753532409668
vt 0.9503933787345886 0.07314270734786987
vt 0.9503964185714722 0.07314270734786987
vt 0.9503926038742065 0.07313793897628784
vt 0.9503970742225647 0.07313793897628784
vt 0.9503949284553528 0.07314753532409668
vt 0.9503933787345886 0.07314270734786987
vt 0.9503964185714722 0.07314270734786987
vt 0.9503926038742065 0.07313793897628784
vt 0.9503970742225647 0.07313793897628784
vt 0.9503949284553528 0.07314753532409668
vt 0.9503933787345886 0.07314270734786987
vt 0.9503964185714722 0.07314270734786987
vt 0.9503926038742065 0.07313793897628784
vt 0.9503970742225647 0.07313793897628784
vt 0.9503949284553528 0.07314753532409668
vt 0.9503933787345886 0.07314270734786987
vt 0.9503964185714722 0.07314270734786987
vt 0.9503926038742065 0.07313793897628784
vt 0.9503970742225647 0.07313793897628784
vt 0.9503949284553528 0.07314753532409668
vt 0.9503933787345886 0.07314270734786987
vt 0.9503964185714722 0.07314270734786987
vt 0.9503926038742065 0.07313793897628784
vt 0.9503970742225647 0.07313793897628784
vt 0.9503949284553528 0.07314753532409668
vt 0.9503933787345886 0.07314270734786987
vt 0.9503964185714722 0.07314270734786987
vt 0.9503926038742065 0.07313793897628784
vt 0.9503970742225647 0.07313793897628784
vt 0.9503949284553528 0.07314753532409668
vt 0.9503933787345886 0.07314270734786987
vt 0.9503964185714722 0.07314270734786987
vt 0.9503926038742065 0.07313793897628784
vt 0.9503970742225647 0.07313793897628784
vt 0.9503949284553528 0.07314753532409668
vt 0.9503933787345886 0.07314270734786987
vt 0.9503964185714722 0.07314270734786987
vt 0.9503926038742065 0.07313793897628784
vt 0.9503970742225647 0.07313793897628784
vt 0.9503949284553528 0.07314753532409668
vt 0.9503933787345886 0.07314270734786987
vt 0.9503964185714722 0.07314270734786987
vt 0.9503926038742065 0.07313793897628784
vt 0.9503970742225647 0.07313793897628784
vt 0.950251042842865 0.07325512170791626
vt 0.9501934051513672 0.07325512170791626
vt 0.9501357078552246 0.07325512170791626
vt 0.9503949284553528 0.07314753532409668
vt 0.9503964185714722 0.07314270734786987
vt 0.9503933787345886 0.07314270734786987
vt 0.9503970742225647 0.07313793897628784
vt 0.9503926038742065 0.07313793897628784
vt 0.9503949284553528 0.07314753532409668
vt 0.9503964185714722 0.07314270734786987
vt 0.9503933787345886 0.07314270734786987
vt 0.9503970742225647 0.07313793897628784
vt 0.9503926038742065 0.07313793897628784
vt 0.9503949284553528 0.07314753532409668
vt 0.9503964185714722 0.07314270734786987
vt 0.9503933787345886 0.07314270734786987
vt 0.9503970742225647 0.07313793897628784
vt 0.9503926038742065 0.07313793897628784
vt 0.9503949284553528 0.07314753532409668
vt 0.9503964185714722 0.07314270734786987
vt 0.9503933787345886 0.07314270734786987
vt 0.9503970742225647 0.07313793897628784
vt 0.9503926038742065 0.07313793897628784
vt 0.9503949284553528 0.07314753532409668
vt 0.9503964185714722 0.07314270734786987
vt 0.9503933787345886 0.07314270734786987
vt 0.9503970742225647 0.07313793897628784
vt 0.9503926038742065 0.07313793897628784
vt 0.9503949284553528 0.07314753532409668
vt 0.9503964185714722 0.07314270734786987
vt 0.9503933787345886 0.07314270734786987
vt 0.9503970742225647 0.07313793897628784
vt 0.9503926038742065 0.07313793897628784
vt 0.9503949284553528 0.07314753532409668
vt 0.9503964185714722 0.07314270734786987
vt 0.9503933787345886 0.07314270734786987
vt 0.9503970742225647 0.07313793897628784
vt 0.9503926038742065 0.07313793897628784
vt 0.9503949284553528 0.07314753532409668
vt 0.9503964185714722 0.07314270734786987
vt 0.9503933787345886 0.07314270734786987
vt 0.9503970742225647 0.07313793897628784
vt 0.9503926038742065 0.07313793897628784
vt 0.9503949284553528 0.07314753532409668
vt 0.9503964185714722 0.07314270734786987
vt 0.9503933787345886 0.07314270734786987
vt 0.9503970742225647 0.07313793897628784
vt 0.9503926038742065 0.07313793897628784
vt 0.9503949284553528 0.07314753532409668
vt 0.9503964185714722 0.07314270734786987
vt 0.9503933787345886 0.07314270734786987
vt 0.9503970742225647 0.07313793897628784
vt 0.9503926038742065 0.07313793897628784
vt 0.9503949284553528 0.07314753532409668
vt 0.9503964185714722 0.07314270734786987
vt 0.9503933787345886 0.07314270734786987
vt 0.9503970742225647 0.07313793897628784
vt 0.9503926038742065 0.07313793897628784
vt 0.9503949284553528 0.07314753532409668
vt 0.9503964185714722 0.07314270734786987
vt 0.9503933787345886 0.07314270734786987
vt 0.9503970742225647 0.07313793897628784
vt 0.9503926038742065 0.07313793897628784
vt 0.9503949284553528 0.07314753532409668
vt 0.9503964185714722 0.07314270734786987
vt 0.9503933787345886 0.07314270734786987
vt 0.9503970742225647 0.07313793897628784
vt 0.9503926038742065 0.07313793897628784
vt 0.9503949284553528 0.07314753532409668
vt 0.9503964185714722 0.07314270734786987
vt 0.9503933787345886 0.07314270734786987
vt 0.9503970742225647 0.07313793897628784
vt 0.9503926038742065 0.07313793897628784
vt 0.9503949284553528 0.07314753532409668
vt 0.9503964185714722 0.07314270734786987
vt 0.9503933787345886 0.07314270734786987
vt 0.9503970742225647 0.07313793897628784
vt 0.9503926038742065 0.07313793897628784
vt 0.9503949284553528 0.07314753532409668
vt 0.9503964185714722 0.07314270734786987
vt 0.9503933787345886 0.07314270734786987
vt 0.9503970742225647 0.07313793897628784
vt 0.9503926038742065 0.07313793897628784
vt 0.9401216506958008 0.0732419490814209
vt 0.9083211421966553 0.002484619617462158
vt 0.8786179423332214 0.002484619617462158
vt 0.9380241632461548 0.002484619617462158
vt 0.9677273035049438 0.002484619617462158
vt 0.9974304437637329 0.002484619617462158
vt 0.907006561756134 0.002484619617462158
vt 0.877303421497345 0.002484619617462158
vt 0.877303421497345 0.029133856296539307
vt 0.9367096424102783 0.002484619617462158
vt 0.9664127230644226 0.002484619617462158
vt 0.9961159229278564 0.002484619617462158
vt 0.9082754254341125 0.002484619617462158
vt 0.8785722851753235 0.002484619617462158
vt 0.8785722851753235 0.029133856296539307
vt 0.9379785060882568 0.002484619617462158
vt 0.9676816463470459 0.002484619617462158
vt 0.9973849058151245 0.029133856296539307
vt 0.9973849058151245 0.002484619617462158
vt 0.877303421497345 0.06286823749542236
vt 0.8785722851753235 0.06286829710006714
vt 0.997384786605835 0.06286829710006714
vt 0.9394098520278931 0.0732419490814209
vt 0.9392675161361694 0.0732419490814209
vt 0.9399792551994324 0.0732419490814209
vt 0.9398369193077087 0.0732419490814209
vt 0.9401216506958008 0.0732419490814209
vt 0.9402639865875244 0.0732419490814209
vt 0.940406322479248 0.0732419490814209
vt 0.9405486583709717 0.0732419490814209
vt 0.9406909942626953 0.0732419490814209
vt 0.9408333897590637 0.0732419490814209
vt 0.9409757852554321 0.0732419490814209
vt 0.9396945238113403 0.0732419490814209
vt 0.9395521879196167 0.0732419490814209
vn -1.8195292383893502e-08 -7.278116953557401e-08 1.0
vn -0.05053700879216194 0.6910341382026672 0.7210533618927002
vn -0.389283686876297 0.5731844902038574 0.7210532426834106
vn -0.6237217783927917 0.3017506003379822 0.7210531830787659
vn -0.691034197807312 -0.05053718388080597 0.7210533022880554
vn -0.5731846690177917 -0.3892833888530731 0.7210532426834106
vn -0.30175071954727173 -0.6237216591835022 0.7210532426834106
vn 0.05053688585758209 -0.691034197807312 0.7210532426834106
vn 0.389283150434494 -0.5731849074363708 0.7210531830787659
vn 0.6237215995788574 -0.3017512559890747 0.7210531830787659
vn 0.691034197807312 0.05053679272532463 0.7210532426834106
vn 0.5731848478317261 0.3892832100391388 0.7210532426834106
vn 0.30175113677978516 0.6237214803695679 0.7210532426834106
vn -0.004852277226746082 0.9579139947891235 0.28701433539390564
vn -0.48315972089767456 0.8271514177322388 0.28701427578926086
vn -0.8320043087005615 0.4747544825077057 0.28701403737068176
vn -0.9579140543937683 -0.004852538462728262 0.2870141267776489
vn -0.8271516561508179 -0.4831593632698059 0.2870142459869385
vn -0.4747546911239624 -0.8320040106773376 0.2870144248008728
vn 0.004852308426052332 -0.9579139351844788 0.2870146334171295
vn 0.48315900564193726 -0.8271517157554626 0.2870147228240967
vn 0.8320037126541138 -0.47475510835647583 0.2870146930217743
vn 0.9579139947891235 0.004851908423006535 0.2870146930217743
vn 0.8271517753601074 0.4831588864326477 0.2870147228240967
vn 0.47475501894950867 0.8320037722587585 0.28701457381248474
vn 0.08859501779079437 0.9919200539588928 0.09080593287944794
vn -0.9033252596855164 -0.4192348122596741 0.09080543369054794
vn -0.5726853013038635 -0.8147305846214294 0.09080567210912704
vn -0.08859483897686005 -0.991919994354248 0.0908060371875763
vn 0.4192344546318054 -0.9033253192901611 0.09080646932125092
vn 0.8147302865982056 -0.5726855397224426 0.09080664813518524
vn 0.9919198751449585 -0.0885952040553093 0.09080664813518524
vn 0.9033254384994507 0.4192342460155487 0.09080658853054047
vn 0.5726856589317322 0.8147302269935608 0.09080645442008972
vn -0.13196058571338654 -0.49248427152633667 -0.8602590560913086
vn -0.191036194562912 -0.7129562497138977 -0.6746840476989746
vn -0.19103597104549408 -0.7129561901092529 -0.6746841669082642
vn -0.17301581799983978 -0.6457042098045349 -0.7437282204627991
vn -0.16327396035194397 -0.6093475222587585 -0.7759105563163757
vn 0.4791090488433838 -0.17438144981861115 -0.8602591753005981
vn 0.6344966292381287 -0.23093797266483307 -0.7376189231872559
vn 0.59773188829422 -0.2175566405057907 -0.7716124057769775
vn 0.7021325826644897 -0.25555554032325745 -0.6646061539649963
vn 0.702132523059845 -0.25555548071861267 -0.6646062135696411
vn 0.215474933385849 0.46208757162094116 -0.8602590560913086
vn 0.2806651294231415 0.6018881797790527 -0.747634768486023
vn 0.26516807079315186 0.5686547756195068 -0.7786639928817749
vn 0.3094298541545868 0.6635739207267761 -0.6811188459396362
vn 0.30942970514297485 0.6635739207267761 -0.681118905544281
vn -0.4791089594364166 0.17438147962093353 -0.8602591156959534
vn -0.6163616180419922 0.22433742880821228 -0.7548319697380066
vn -0.5836241841316223 0.2124219536781311 -0.7837473750114441
vn -0.6775031089782715 0.24659116566181183 -0.6929519176483154
vn -0.6775031089782715 0.24659115076065063 -0.6929519772529602
vn -0.2506730854511261 0.5375704765319824 -0.8050968647003174
vn -0.36037886142730713 0.7728354334831238 -0.5223528146743774
vn -0.3369547426700592 0.722602128982544 -0.603579044342041
vn -0.3955081105232239 0.8481705188751221 -0.352392315864563
vn -0.3955081105232239 0.8481703996658325 -0.352392315864563
vn 0.5615019798278809 0.20436982810497284 -0.8018407225608826
vn 0.8068171739578247 0.29365721344947815 -0.5126514434814453
vn 0.754734456539154 0.2747006416320801 -0.5957478284835815
vn 0.8839961290359497 0.3217480182647705 -0.33915963768959045
vn 0.8839960098266602 0.3217479884624481 -0.33915963768959045
vn 0.23583942651748657 -0.5541968941688538 -0.7982766628265381
vn 0.35108619928359985 -0.7867987751960754 -0.5076280236244202
vn 0.32698875665664673 -0.7370216250419617 -0.5915045142173767
vn 0.3873051404953003 -0.8598715662956238 -0.33258959650993347
vn 0.3889092803001404 -0.8587263822555542 -0.3336743712425232
vn -0.5281152129173279 -0.28118056058883667 -0.8012688755989075
vn -0.748760461807251 -0.4154384136199951 -0.5164967179298401
vn -0.7012051343917847 -0.38716065883636475 -0.5986801981925964
vn -0.8193081617355347 -0.45820969343185425 -0.34464192390441895
vn -0.8179723620414734 -0.45975756645202637 -0.3457516133785248
vn 0.25067341327667236 0.5375702977180481 -0.8050969243049622
vn 0.37314802408218384 0.8002176880836487 -0.4694807529449463
vn 0.34800946712493896 0.7463078498840332 -0.5673746466636658
vn 0.40721839666366577 0.8732817769050598 -0.26749229431152344
vn 0.40721839666366577 0.8732817769050598 -0.26749229431152344
vn 0.5174828767776489 -0.29876908659935 -0.8018407225608826
vn 0.7687757015228271 -0.44385313987731934 -0.46041107177734375
vn 0.7175100445747375 -0.41425493359565735 -0.5599751472473145
vn 0.8372860550880432 -0.4834076464176178 -0.2554781436920166
vn 0.8372860550880432 -0.4834076762199402 -0.2554781436920166
vn -0.27294492721557617 -0.5368944406509399 -0.7982765436172485
vn -0.3876150846481323 -0.8012871742248535 -0.45573392510414124
vn -0.3641747534275055 -0.7473690509796143 -0.5557124018669128
vn -0.4175785183906555 -0.873542845249176 -0.25010210275650024
vn -0.41619664430618286 -0.8740435242652893 -0.25065574049949646
vn -0.5548627376556396 0.22382043302059174 -0.8012688755989075
vn -0.8279117941856384 0.31508123874664307 -0.46398934721946716
vn -0.7719224095344543 0.2962563633918762 -0.5624659657478333
vn -0.9037637710571289 0.339253693819046 -0.26099422574043274
vn -0.904154360294342 0.33776992559432983 -0.26156526803970337
vn -0.07369057834148407 0.8422899842262268 -0.5339637398719788
vn -0.08319438993930817 0.9509196281433105 -0.298044890165329
vn -0.08130902051925659 0.9293695092201233 -0.3600848913192749
vn -0.0858478844165802 0.9812494516372681 -0.17256787419319153
vn -0.0858478993177414 0.9812494516372681 -0.17256788909435272
vn 0.8482458591461182 -2.950436908122356e-07 -0.5296026468276978
vn 0.9564850926399231 -2.9927505806881527e-07 -0.29178115725517273
vn 0.9351322650909424 -3.252652049923199e-07 -0.35429877042770386
vn 0.986221194267273 -2.444874098728178e-07 -0.16543209552764893
vn 0.986221194267273 -2.937614169695735e-07 -0.16543208062648773
vn 0.04532233625650406 -0.8499622941017151 -0.5248904824256897
vn 0.06629243493080139 -0.9552897214889526 -0.2881437838077545
vn 0.06239823251962662 -0.9344403743743896 -0.3506104052066803
vn 0.0730934590101242 -0.9840931296348572 -0.1619199961423874
vn 0.07510458678007126 -0.9838463664054871 -0.16249871253967285
vn -0.8403946757316589 -0.11858644336462021 -0.5288421511650085
vn -0.9442319273948669 -0.14863352477550507 -0.29382672905921936
vn -0.9235354661941528 -0.14297015964984894 -0.3558676242828369
vn -0.9729964733123779 -0.15788237750530243 -0.16837823390960693
vn -0.9725559949874878 -0.15994301438331604 -0.16897651553153992
vn -0.9919200539588928 0.08859467506408691 0.09080538898706436
vn -0.8147308230400085 0.5726849436759949 0.09080549329519272
vn -0.419234961271286 0.9033252000808716 0.09080540388822556
vn 0.1400197148323059 0.522561252117157 0.841025710105896
vn 0.17090097069740295 0.6378117799758911 0.7509920001029968
vn 0.18043994903564453 0.6734112501144409 0.7169092297554016
vn 0.19796407222747803 0.7388120889663696 0.6441793441772461
vn 0.19796423614025116 0.7388120889663696 0.6441792249679565
vn -0.5083692073822021 0.18503126502037048 0.841025710105896
vn -0.6252079606056213 0.22755712270736694 0.7465472221374512
vn -0.6611508727073669 0.24063926935195923 0.710614025592804
vn -0.7268005013465881 0.2645338475704193 0.6338634490966797
vn -0.7268005609512329 0.2645339071750641 0.6338634490966797
vn -0.22863444685935974 -0.4903082549571991 0.8410257697105408
vn -0.2776816487312317 -0.5954903364181519 0.753846287727356
vn -0.29287129640579224 -0.6280645132064819 0.7209447622299194
vn -0.3208785057067871 -0.6881259679794312 0.650783896446228
vn -0.32087865471839905 -0.6881259679794312 0.6507837772369385
vn 0.5083690285682678 -0.18503129482269287 0.8410257697105408
vn 0.6116828918457031 -0.2226344496011734 0.7591297626495361
vn 0.6438318490982056 -0.2343357652425766 0.7284005880355835
vn 0.7035003304481506 -0.2560533285140991 0.6629660725593567
vn 0.7035003304481506 -0.2560533881187439 0.6629660129547119
vn 0.2639283239841461 -0.5659962296485901 0.7810186743736267
vn 0.34515389800071716 -0.740185022354126 0.5770571231842041
vn 0.3669363260269165 -0.7868978977203369 0.496134489774704
vn 0.3992711305618286 -0.8562401533126831 0.32777369022369385
vn 0.3992709815502167 -0.8562401533126831 0.3277736008167267
vn -0.5909342765808105 -0.21508236229419708 0.7775192856788635
vn -0.7725183367729187 -0.2811735272407532 0.5693477392196655
vn -0.8208616375923157 -0.2987689673900604 0.4867476522922516
vn -0.8917785286903381 -0.32458066940307617 0.3152434229850769
vn -0.8917785882949829 -0.3245806097984314 0.3152433931827545
vn -0.24808305501937866 0.5829682350158691 0.7736942768096924
vn -0.33439794182777405 0.7542325854301453 0.5650762915611267
vn -0.3569304049015045 0.8002808690071106 0.4818207621574402
vn -0.39222192764282227 0.8660407662391663 0.31005704402923584
vn -0.3905823528766632 0.8671475052833557 0.30903181433677673
vn 0.5557548999786377 0.2958965003490448 0.7769052386283875
vn 0.7180883884429932 0.39624878764152527 0.5721328258514404
vn 0.7621375322341919 0.4226838946342468 0.49039244651794434
vn 0.8254601359367371 0.4639663100242615 0.32148224115371704
vn 0.8267594575881958 0.4623769521713257 0.3204314708709717
vn -0.26392862200737 -0.5659960508346558 0.7810186743736267
vn -0.3550362288951874 -0.7613768577575684 0.542452335357666
vn -0.378263384103775 -0.8111876845359802 0.44597241282463074
vn -0.40943729877471924 -0.8780403137207031 0.2478029429912567
vn -0.40943729877471924 -0.8780404329299927 0.2478029876947403
vn -0.5446078181266785 0.31442978978157043 0.7775192856788635
vn -0.7315428853034973 0.42235681414604187 0.5352193117141724
vn -0.7788377404212952 0.44966253638267517 0.43728208541870117
vn -0.8414448499679565 0.48580873012542725 0.2365596890449524
vn -0.8414448499679565 0.48580870032310486 0.2365597039461136
vn 0.2871149480342865 0.5647675395011902 0.7736941576004028
vn 0.3714226186275482 0.761665403842926 0.5309529900550842
vn 0.3927608132362366 0.8114740252494812 0.4327225983142853
vn 0.4181859493255615 0.8782213926315308 0.23205114901065826
vn 0.4195656478404999 0.8776997327804565 0.23153366148471832
vn 0.5839022397994995 -0.2355344146490097 0.7769052386283875
vn 0.7871543765068054 -0.30237212777137756 0.5375491976737976
vn 0.8389171957969666 -0.3194778263568878 0.44062671065330505
vn 0.9088635444641113 -0.33952903747558594 0.24225418269634247
vn 0.9084503054618835 -0.3410128355026245 0.24171984195709229
vn 0.07533082365989685 -0.8610380291938782 0.502930223941803
vn 0.08206360787153244 -0.9379943609237671 0.33679693937301636
vn 0.08371921628713608 -0.9569182991981506 0.27802610397338867
vn 0.08604166656732559 -0.9834641814231873 0.15935811400413513
vn 0.086041659116745 -0.9834641814231873 0.15935811400413513
vn -0.8668092489242554 3.272298556566966e-07 0.49863988161087036
vn -0.943524181842804 3.561905543847388e-07 0.3313036262989044
vn -0.9622591733932495 3.269909427672246e-07 0.27213504910469055
vn -0.9882664084434509 3.1949144840837107e-07 0.15274062752723694
vn -0.9882664084434509 2.659016615780274e-07 0.15274064242839813
vn -0.046296000480651855 0.8682229518890381 0.49400967359542847
vn -0.06283433735370636 0.9426672458648682 0.32776570320129395
vn -0.06659331172704697 0.9609234929084778 0.2686844766139984
vn -0.07525483518838882 0.98581463098526 0.15002138912677765
vn -0.07323861867189407 0.9860478639602661 0.14948494732379913
vn 0.858731746673584 0.12117397785186768 0.49789226055145264
vn 0.9319306015968323 0.1441548466682434 0.33275333046913147
vn 0.9500380754470825 0.14945639669895172 0.27402645349502563
vn 0.9746605157852173 0.16028915345668793 0.1560271680355072
vn 0.9750868082046509 0.1582215577363968 0.15547232329845428
vn 1.5637734662732328e-08 7.036980775865231e-08 -1.0
vn 0.05013200640678406 -0.6895051598548889 -0.7225437164306641
vn 0.38816848397254944 -0.5720629096031189 -0.7225435972213745
vn 0.6221952438354492 -0.3013368546962738 -0.7225435376167297
vn 0.6895052194595337 0.05013218894600868 -0.7225436568260193
vn 0.5720630884170532 0.38816821575164795 -0.7225437164306641
vn 0.3013370633125305 0.6221950650215149 -0.7225437164306641
vn -0.05013184994459152 0.6895052790641785 -0.7225435972213745
vn -0.38816797733306885 0.5720633864402771 -0.7225435972213745
vn -0.6221949458122253 0.30133745074272156 -0.7225435972213745
vn -0.6895052194595337 -0.05013183876872063 -0.7225436568260193
vn -0.5720632672309875 -0.38816797733306885 -0.7225435972213745
vn -0.30133745074272156 -0.6221949458122253 -0.7225436568260193
vn 0.005029506515711546 -0.9562627077102661 -0.2924659252166748
vn 0.4824875295162201 -0.8256328105926514 -0.29246586561203003
vn 0.8306628465652466 -0.47377535700798035 -0.2924657166004181
vn 0.9562627673149109 0.005029825493693352 -0.2924657166004181
vn 0.8256329894065857 0.48248720169067383 -0.29246580600738525
vn 0.47377559542655945 0.8306626081466675 -0.2924659848213196
vn -0.005029456224292517 0.9562626481056213 -0.2924661636352539
vn -0.48248693346977234 0.8256331086158752 -0.29246634244918823
vn -0.8306623101234436 0.4737759828567505 -0.2924662232398987
vn -0.9562627077102661 -0.005029153078794479 -0.29246631264686584
vn -0.82563316822052 -0.4824868142604828 -0.2924663722515106
vn -0.4737760126590729 -0.8306623101234436 -0.2924661636352539
vn -0.08857574313879013 -0.9917038679122925 -0.09315455704927444
vn 0.9031285643577576 0.41914358735084534 -0.09315407276153564
vn 0.5725606083869934 0.8145531415939331 -0.09315437823534012
vn 0.08857563883066177 0.9917038679122925 -0.09315469861030579
vn -0.4191431999206543 0.9031286239624023 -0.09315520524978638
vn -0.8145528435707092 0.572560727596283 -0.09315525740385056
vn -0.9917038083076477 0.08857601135969162 -0.09315520524978638
vn -0.9031286239624023 -0.4191429018974304 -0.09315532445907593
vn -0.5725609064102173 -0.8145527243614197 -0.09315511584281921
vn 0.13136935234069824 0.490654855966568 0.8613941669464111
vn 0.191391259431839 0.7142813801765442 0.6731801629066467
vn 0.19143491983413696 0.7142943143844604 0.6731540560722351
vn 0.17313483357429504 0.6461738348007202 0.7432925701141357
vn 0.16325195133686066 0.6093036532402039 0.7759496569633484
vn -0.477120041847229 0.17369452118873596 0.8615025877952576
vn -0.6350033283233643 0.23112496733665466 0.7371241450309753
vn -0.5976718068122864 0.21753861010074615 0.771664023399353
vn -0.7035720944404602 0.2560794949531555 0.6628798246383667
vn -0.7035685777664185 0.25606343150138855 0.6628897190093994
vn -0.21480964124202728 -0.4604052007198334 0.8613269329071045
vn -0.2808612287044525 -0.6022915840148926 0.7472361326217651
vn -0.26514360308647156 -0.5685765147209167 0.7787296175956726
vn -0.30999669432640076 -0.6647897362709045 0.6796740293502808
vn -0.3099455237388611 -0.6647825241088867 0.6797043085098267
vn 0.477606862783432 -0.1738196164369583 0.8612075448036194
vn 0.6167277097702026 -0.22446955740451813 0.7544934749603271
vn 0.583562970161438 -0.21239803731441498 0.7837992906570435
vn 0.6785995960235596 -0.24699026346206665 0.6917358636856079
vn 0.6786009669303894 -0.24699667096138 0.6917321681976318
vn 0.24780768156051636 -0.5319193005561829 0.8097241520881653
vn 0.36072367429733276 -0.7736039161682129 0.5209754705429077
vn 0.3367049992084503 -0.722110390663147 0.6043065190315247
vn 0.3964119255542755 -0.8501086235046387 0.34665998816490173
vn 0.39648306369781494 -0.8500561118125916 0.34670713543891907
vn -0.5554400086402893 -0.20184189081192017 0.8066884279251099
vn -0.8076223134994507 -0.29393115639686584 0.5112246870994568
vn -0.7541961073875427 -0.2744758427143097 0.5965328812599182
vn -0.8860015273094177 -0.3224780261516571 0.3331805169582367
vn -0.8859357833862305 -0.3225872814655304 0.333249568939209
vn -0.23284992575645447 0.5483489632606506 0.8031777739524841
vn -0.3514871597290039 0.7875386476516724 0.5062012076377869
vn -0.32671448588371277 0.7365063428878784 0.5922972559928894
vn -0.38839080929756165 0.8616750240325928 0.32660216093063354
vn -0.3899987041950226 0.8605133295059204 0.3277466595172882
vn 0.5226624608039856 0.27791011333465576 0.8059715628623962
vn 0.7494539022445679 0.415903776884079 0.515114426612854
vn 0.7007361650466919 0.38686949014663696 0.5994170904159546
vn 0.8210172653198242 0.4594423770904541 0.33888545632362366
vn 0.8196974992752075 0.4609536826610565 0.34002602100372314
vn -0.24739030003547668 -0.529931366443634 0.8111540079116821
vn -0.37329378724098206 -0.8004975914955139 0.4688873291015625
vn -0.34747546911239624 -0.7451133728027344 0.5692688226699829
vn -0.40786290168762207 -0.8746638894081116 0.26193684339523315
vn -0.40776172280311584 -0.8746994733810425 0.261976033449173
vn -0.5099049210548401 0.2948302626609802 0.8081288933753967
vn -0.7690322995185852 0.4440251290798187 0.4598163366317749
vn -0.7163267135620117 0.41360771656036377 0.5619650483131409
vn -0.8385799527168274 0.48415467143058777 0.24975615739822388
vn -0.838646411895752 0.4840087890625 0.24981531500816345
vn 0.2695463299751282 0.5290868282318115 0.8046191334724426
vn 0.38771262764930725 0.8015727996826172 0.45514827966690063
vn 0.3636620044708252 0.7461367845535278 0.557700514793396
vn 0.417999804019928 0.874947190284729 0.24442511796951294
vn 0.4166263937950134 0.8754424452781677 0.2449958175420761
vn 0.5470312833786011 -0.22102662920951843 0.8074057102203369
vn 0.8282135128974915 -0.3151478171348572 0.463405042886734
vn 0.7706906795501709 -0.2958507835865021 0.5643655061721802
vn 0.9052231311798096 -0.3395657539367676 0.2554725110530853
vn 0.9055920839309692 -0.338155061006546 0.2560354471206665
vn 0.07347454130649567 -0.8406374454498291 0.5365912914276123
vn 0.08320117741823196 -0.9510263204574585 0.29770204424858093
vn 0.08128843456506729 -0.9291777014732361 0.3605842590332031
vn 0.08587857335805893 -0.9816011190414429 0.17054060101509094
vn 0.08591025322675705 -0.981596827507019 0.17054933309555054
vn -0.8465703129768372 0.00010372715041739866 0.5322771072387695
vn -0.9565902352333069 4.125154191569891e-06 0.2914363145828247
vn -0.9349379539489746 6.105375177867245e-06 0.35481128096580505
vn -0.986564040184021 1.8872586338147812e-07 0.16337507963180542
vn -0.9865619540214539 -4.578381413011812e-05 0.1633877158164978
vn -0.046030450612306595 0.8482637405395508 0.5275699496269226
vn -0.06637461483478546 0.9553885459899902 0.28779706358909607
vn -0.06241681054234505 0.9342722296714783 0.3510549068450928
vn -0.07327456027269363 0.9843937158584595 0.15999963879585266
vn -0.07482735067605972 0.9842026829719543 0.1604553759098053
vn 0.8386456370353699 0.11917968839406967 0.531478762626648
vn 0.944324791431427 0.1487250030040741 0.2934817969799042
vn 0.9233676195144653 0.14297647774219513 0.35630035400390625
vn 0.9732887744903564 0.1580883413553238 0.16648440062999725
vn 0.972947359085083 0.15968364477157593 0.16695678234100342
vn 0.9917040467262268 -0.08857528120279312 -0.09315408766269684
vn 0.8145533204078674 -0.57256019115448 -0.09315425157546997
vn 0.41914355754852295 -0.903128445148468 -0.09315402060747147
vn -0.1405600756406784 -0.5242209434509277 -0.8399019241333008
vn -0.17092332243919373 -0.6378608345985413 -0.7509452700614929
vn -0.18033622205257416 -0.673001229763031 -0.7173201441764832
vn -0.19761055707931519 -0.7376371622085571 -0.6456326246261597
vn -0.19765201210975647 -0.7376466393470764 -0.6456091403961182
vn 0.5101664662361145 -0.1856503039598465 -0.8398000597953796
vn 0.6252719163894653 -0.22757677733898163 -0.7464876770973206
vn 0.6607122421264648 -0.24047724902629852 -0.7110766768455505
vn 0.7255473136901855 -0.2640916705131531 -0.6354814767837524
vn 0.7255451083183289 -0.26407694816589355 -0.6354901790618896
vn 0.22923633456230164 0.4918424189090729 -0.8399654626846313
vn 0.27770641446113586 0.5955672860145569 -0.7537763118743896
vn 0.29269886016845703 0.6277105808258057 -0.7213229537010193
vn 0.3204260468482971 0.687057614326477 -0.6521341800689697
vn 0.32037875056266785 0.6870540976524353 -0.6521611213684082
vn -0.5097448229789734 0.1855466365814209 -0.8400789499282837
vn -0.6117440462112427 0.22265829145908356 -0.7590734958648682
vn -0.6435072422027588 0.23421871662139893 -0.728725016117096
vn -0.702522873878479 0.2556919455528259 -0.664141058921814
vn -0.7025238275527954 0.2556980848312378 -0.6641376614570618
vn -0.2662215828895569 0.5704788565635681 -0.7769684195518494
vn -0.34535902738571167 0.7405891418457031 -0.5764156579971313
vn -0.36667925119400024 0.7863227725028992 -0.4972352087497711
vn -0.3985135555267334 0.8547986745834351 -0.33242470026016235
vn -0.3985782861709595 0.8547545671463013 -0.33246085047721863
vn 0.5957127213478088 0.21710483729839325 -0.7732994556427002
vn 0.7729564905166626 0.2813563644886017 -0.5686623454093933
vn 0.8202620148658752 0.2985663115978241 -0.48788154125213623
vn 0.8903029561042786 0.3239244520664215 -0.32005253434181213
vn 0.8902479410171509 0.32402360439300537 -0.32010549306869507
vn 0.25033724308013916 -0.5876214504241943 -0.7694363594055176
vn 0.33460748195648193 -0.7546460628509521 -0.5643998384475708
vn 0.3566172420978546 -0.7997372150421143 -0.4829539656639099
vn 0.39141687750816345 -0.8646657466888428 -0.3148745000362396
vn 0.3897317945957184 -0.8657934069633484 -0.3138648271560669
vn -0.5601329803466797 -0.29838278889656067 -0.7727994322776794
vn -0.7184690833091736 -0.3964742124080658 -0.5714983344078064
vn -0.7616274952888489 -0.42232176661491394 -0.4914955794811249
vn -0.8241223096847534 -0.46308034658432007 -0.32615792751312256
vn -0.8254738450050354 -0.4614129662513733 -0.3251015543937683
vn 0.2664622962474823 0.57194983959198 -0.7758036255836487
vn 0.355447381734848 0.7622949481010437 -0.5408914685249329
vn 0.37815576791763306 0.810981035232544 -0.446439266204834
vn 0.40903493762016296 0.8769519329071045 -0.252281129360199
vn 0.408945232629776 0.8769851326942444 -0.2523115277290344
vn 0.5504906177520752 -0.31744641065597534 -0.7721320390701294
vn 0.7324463129043579 -0.4228513836860657 -0.5335909128189087
vn 0.7786486744880676 -0.44953539967536926 -0.4377492666244507
vn 0.8403983116149902 -0.4853686988353729 -0.241138756275177
vn 0.8404596447944641 -0.48523983359336853 -0.24118444323539734
vn -0.2898731529712677 -0.5707326531410217 -0.7682694792747498
vn -0.3718165457248688 -0.7625948190689087 -0.5293407440185547
vn -0.3927014172077179 -0.8112571835517883 -0.43318286538124084
vn -0.4178113043308258 -0.8771790862083435 -0.2366233766078949
vn -0.41927096247673035 -0.8766255974769592 -0.2360924780368805
vn -0.5899218916893005 0.2378533035516739 -0.7716334462165833
vn -0.7880896925926208 0.3026870787143707 -0.5359992384910583
vn -0.8386893272399902 0.31944164633750916 -0.44108647108078003
vn -0.9077877998352051 0.3391786813735962 -0.24673691391944885
vn -0.9073340892791748 0.3408006429672241 -0.2461702972650528
vn -0.07549449056386948 0.8622341752052307 -0.5008522868156433
vn -0.08207835257053375 0.9381304383277893 -0.336414098739624
vn -0.08371426910161972 0.9568396210670471 -0.27829810976982117
vn -0.08599293231964111 0.9832119345664978 -0.16093337535858154
vn -0.08601938933134079 0.9832085371017456 -0.16093985736370087
vn 0.8680194020271301 8.460246317554265e-05 -0.4965302646160126
vn 0.9436615705490112 3.725213900906965e-06 -0.33091211318969727
vn 0.9621816873550415 2.3912400592962513e-06 -0.2724085748195648
vn 0.9880188703536987 -3.876716800732538e-05 -0.1543332189321518
vn 0.9880173802375793 -2.588049028418027e-07 -0.15434260666370392
vn 0.045506492257118225 -0.8694673776626587 -0.4918900728225708
vn 0.06281132996082306 -0.9427837133407593 -0.32743486762046814
vn 0.06652160733938217 -0.9608515501022339 -0.2689594030380249
vn 0.07557547837495804 -0.9855459928512573 -0.15161605179309845
vn 0.07308948040008545 -0.9858334064483643 -0.1509651392698288
vn -0.860039472579956 -0.12046832591295242 -0.4958020746707916
vn -0.9320480227470398 -0.14414066076278687 -0.332430362701416
vn -0.9499713778495789 -0.14937816560268402 -0.27430006861686707
vn -0.9743557572364807 -0.16059675812721252 -0.15760578215122223
vn -0.9748796224594116 -0.1580546796321869 -0.15693442523479462
vn -7.549796521288954e-08 3.4687695373540476e-15 -1.0
vn -0.389283686876297 0.5731844902038574 0.7210532426834106
vn -0.05053700879216194 0.6910341382026672 0.7210533618927002
vn -0.6237217783927917 0.3017506003379822 0.7210531830787659
vn -0.691034197807312 -0.05053718388080597 0.7210533022880554
vn -0.5731846690177917 -0.3892833888530731 0.7210532426834106
vn -0.30175071954727173 -0.6237216591835022 0.7210532426834106
vn -0.5731846690177917 -0.3892833888530731 0.7210532426834106
vn -0.8271516561508179 -0.4831593632698059 0.2870142459869385
vn 0.05053688585758209 -0.691034197807312 0.7210532426834106
vn 0.389283150434494 -0.5731849074363708 0.7210531830787659
vn 0.6237215995788574 -0.3017512559890747 0.7210531830787659
vn 0.691034197807312 0.05053679272532463 0.7210532426834106
vn 0.6237215995788574 -0.3017512559890747 0.7210531830787659
vn 0.8320037126541138 -0.47475510835647583 0.2870146930217743
vn 0.5731848478317261 0.3892832100391388 0.7210532426834106
vn 0.30175113677978516 0.6237214803695679 0.7210532426834106
vn -0.004852277226746082 0.9579139947891235 0.28701433539390564
vn -0.05053700879216194 0.6910341382026672 0.7210533618927002
vn -0.9033252596855164 -0.4192348122596741 0.09080543369054794
vn 0.8147302865982056 -0.5726855397224426 0.09080664813518524
vn 0.08859501779079437 0.9919200539588928 0.09080593287944794
vn -7.549796521288954e-08 3.4687695373540476e-15 -1.0
vn -7.549796521288954e-08 3.4687695373540476e-15 -1.0
vn -7.549790126404332e-08 3.2609250586249083e-14 -1.0
vn -7.549790126404332e-08 3.2609250586249083e-14 -1.0
vn -7.549790836947068e-08 3.2609250586249083e-14 -1.0
vn -7.549787994776125e-08 3.493146256191432e-14 -1.0
vn -7.549790836947068e-08 2.649501610132738e-14 -1.0
vn -7.549790126404332e-08 3.87234799889731e-14 -1.0
vn -7.549790836947068e-08 3.2609243809985505e-14 -1.0
vn -7.549790836947068e-08 3.668540013326664e-14 -1.0
vn -7.54978373151971e-08 4.076151241083452e-15 -1.0
vn -7.549790126404332e-08 4.6875792635535374e-14 -1.0
vn -7.549790836947068e-08 3.2609243809985505e-14 -1.0
f 429/429/429 417/417/417 395/395/395
f 428/428/428 429/429/429 395/395/395
f 420/420/420 428/428/428 395/395/395
f 427/427/427 426/426/426 395/395/395
f 426/426/426 425/425/425 395/395/395
f 425/425/425 424/424/424 395/395/395
f 424/424/424 423/423/423 395/395/395
f 423/423/423 422/422/422 395/395/395
f 422/422/422 421/421/421 395/395/395
f 421/421/421 419/419/419 395/395/395
f 419/419/419 420/420/420 395/395/395
f 417/417/417 418/418/418 395/395/395
f 392/392/392 391/391/391 393/393/393
f 393/393/393 394/394/394 392/392/392
f 390/390/390 391/391/391 392/392/392
f 387/387/387 386/386/386 388/388/388
f 388/388/388 389/389/389 387/387/387
f 385/385/385 386/386/386 387/387/387
f 382/382/382 381/381/381 383/383/383
f 383/383/383 384/384/384 382/382/382
f 380/380/380 381/381/381 382/382/382
f 377/377/377 376/376/376 378/378/378
f 378/378/378 379/379/379 377/377/377
f 375/375/375 376/376/376 377/377/377
f 372/372/372 371/371/371 373/373/373
f 373/373/373 374/374/374 372/372/372
f 370/370/370 371/371/371 372/372/372
f 367/367/367 366/366/366 368/368/368
f 368/368/368 369/369/369 367/367/367
f 365/365/365 366/366/366 367/367/367
f 362/362/362 361/361/361 363/363/363
f 363/363/363 364/364/364 362/362/362
f 360/360/360 361/361/361 362/362/362
f 357/357/357 356/356/356 358/358/358
f 358/358/358 359/359/359 357/357/357
f 355/355/355 356/356/356 357/357/357
f 352/352/352 351/351/351 353/353/353
f 353/353/353 354/354/354 352/352/352
f 350/350/350 351/351/351 352/352/352
f 347/347/347 346/346/346 348/348/348
f 348/348/348 349/349/349 347/347/347
f 345/345/345 346/346/346 347/347/347
f 342/342/342 341/341/341 343/343/343
f 343/343/343 344/344/344 342/342/342
f 340/340/340 341/341/341 342/342/342
f 337/337/337 336/336/336 338/338/338
f 338/338/338 339/339/339 337/337/337
f 335/335/335 336/336/336 337/337/337
f 332/332/332 331/331/331 333/333/333
f 333/333/333 334/334/334 332/332/332
f 330/330/330 331/331/331 332/332/332
f 327/327/327 326/326/326 328/328/328
f 328/328/328 329/329/329 327/327/327
f 325/325/325 326/326/326 327/327/327
f 322/322/322 321/321/321 323/323/323
f 323/323/323 324/324/324 322/322/322
f 320/320/320 321/321/321 322/322/322
f 317/317/317 316/316/316 318/318/318
f 318/318/318 319/319/319 317/317/317
f 315/315/315 316/316/316 317/317/317
f 308/308/308 310/310/310 311/311/311
f 311/311/311 309/309/309 308/308/308
f 307/307/307 308/308/308 309/309/309
f 303/303/303 305/305/305 306/306/306
f 306/306/306 304/304/304 303/303/303
f 302/302/302 303/303/303 304/304/304
f 298/298/298 300/300/300 301/301/301
f 301/301/301 299/299/299 298/298/298
f 297/297/297 298/298/298 299/299/299
f 293/293/293 295/295/295 296/296/296
f 296/296/296 294/294/294 293/293/293
f 292/292/292 293/293/293 294/294/294
f 288/288/288 290/290/290 291/291/291
f 291/291/291 289/289/289 288/288/288
f 287/287/287 288/288/288 289/289/289
f 283/283/283 285/285/285 286/286/286
f 286/286/286 284/284/284 283/283/283
f 282/282/282 283/283/283 284/284/284
f 278/278/278 280/280/280 281/281/281
f 281/281/281 279/279/279 278/278/278
f 277/277/277 278/278/278 279/279/279
f 273/273/273 275/275/275 276/276/276
f 276/276/276 274/274/274 273/273/273
f 272/272/272 273/273/273 274/274/274
f 268/268/268 270/270/270 271/271/271
f 271/271/271 269/269/269 268/268/268
f 267/267/267 268/268/268 269/269/269
f 263/263/263 265/265/265 266/266/266
f 266/266/266 264/264/264 263/263/263
f 262/262/262 263/263/263 264/264/264
f 258/258/258 260/260/260 261/261/261
f 261/261/261 259/259/259 258/258/258
f 257/257/257 258/258/258 259/259/259
f 253/253/253 255/255/255 256/256/256
f 256/256/256 254/254/254 253/253/253
f 252/252/252 253/253/253 254/254/254
f 248/248/248 250/250/250 251/251/251
f 251/251/251 249/249/249 248/248/248
f 247/247/247 248/248/248 249/249/249
f 243/243/243 245/245/245 246/246/246
f 246/246/246 244/244/244 243/243/243
f 242/242/242 243/243/243 244/244/244
f 238/238/238 240/240/240 241/241/241
f 241/241/241 239/239/239 238/238/238
f 237/237/237 238/238/238 239/239/239
f 235/235/235 233/233/233 234/234/234
f 234/234/234 236/236/236 235/235/235
f 232/232/232 235/235/235 236/236/236
f 222/222/222 211/211/211 223/223/223
f 223/223/223 231/231/231 222/222/222
f 221/221/221 222/222/222 231/231/231
f 231/231/231 230/230/230 221/221/221
f 220/220/220 221/221/221 230/230/230
f 230/230/230 229/229/229 220/220/220
f 219/219/219 220/220/220 229/229/229
f 229/229/229 228/228/228 219/219/219
f 218/218/218 219/219/219 228/228/228
f 228/228/228 227/227/227 218/218/218
f 217/217/217 218/218/218 227/227/227
f 227/227/227 226/226/226 217/217/217
f 216/216/216 217/217/217 226/226/226
f 226/226/226 225/225/225 216/216/216
f 215/215/215 216/216/216 225/225/225
f 225/225/225 224/224/224 215/215/215
f 214/214/214 215/215/215 224/224/224
f 224/224/224 312/312/312 214/214/214
f 213/213/213 214/214/214 312/312/312
f 312/312/312 313/313/313 213/213/213
f 212/212/212 213/213/213 313/313/313
f 313/313/313 314/314/314 212/212/212
f 211/211/211 212/212/212 314/314/314
f 314/314/314 223/223/223 211/211/211
f 210/210/210 199/199/199 211/211/211
f 211/211/211 222/222/222 210/210/210
f 209/209/209 210/210/210 222/222/222
f 222/222/222 221/221/221 209/209/209
f 208/208/208 209/209/209 221/221/221
f 221/221/221 220/220/220 208/208/208
f 207/207/207 208/208/208 220/220/220
f 220/220/220 219/219/219 207/207/207
f 206/206/206 207/207/207 219/219/219
f 219/219/219 218/218/218 206/206/206
f 205/205/205 206/206/206 218/218/218
f 218/218/218 217/217/217 205/205/205
f 204/204/204 205/205/205 217/217/217
f 217/217/217 216/216/216 204/204/204
f 203/203/203 204/204/204 216/216/216
f 216/216/216 215/215/215 203/203/203
f 202/202/202 203/203/203 215/215/215
f 215/215/215 214/214/214 202/202/202
f 201/201/201 202/202/202 214/214/214
f 214/214/214 213/213/213 201/201/201
f 200/200/200 201/201/201 213/213/213
f 213/213/213 212/212/212 200/200/200
f 199/199/199 200/200/200 212/212/212
f 212/212/212 211/211/211 199/199/199
f 198/198/198 199/199/199 210/210/210
f 198/198/198 210/210/210 209/209/209
f 198/198/198 209/209/209 208/208/208
f 198/198/198 208/208/208 207/207/207
f 198/198/198 207/207/207 206/206/206
f 198/198/198 206/206/206 205/205/205
f 198/198/198 205/205/205 204/204/204
f 198/198/198 204/204/204 203/203/203
f 198/198/198 203/203/203 202/202/202
f 198/198/198 202/202/202 201/201/201
f 198/198/198 201/201/201 200/200/200
f 198/198/198 200/200/200 199/199/199
f 195/195/195 197/197/197 196/196/196
f 196/196/196 194/194/194 195/195/195
f 193/193/193 195/195/195 194/194/194
f 190/190/190 192/192/192 191/191/191
f 191/191/191 189/189/189 190/190/190
f 188/188/188 190/190/190 189/189/189
f 185/185/185 187/187/187 186/186/186
f 186/186/186 184/184/184 185/185/185
f 183/183/183 185/185/185 184/184/184
f 180/180/180 182/182/182 181/181/181
f 181/181/181 179/179/179 180/180/180
f 178/178/178 180/180/180 179/179/179
f 175/175/175 177/177/177 176/176/176
f 176/176/176 174/174/174 175/175/175
f 173/173/173 175/175/175 174/174/174
f 170/170/170 172/172/172 171/171/171
f 171/171/171 169/169/169 170/170/170
f 168/168/168 170/170/170 169/169/169
f 165/165/165 167/167/167 166/166/166
f 166/166/166 164/164/164 165/165/165
f 163/163/163 165/165/165 164/164/164
f 160/160/160 162/162/162 161/161/161
f 161/161/161 159/159/159 160/160/160
f 158/158/158 160/160/160 159/159/159
f 155/155/155 157/157/157 156/156/156
f 156/156/156 154/154/154 155/155/155
f 153/153/153 155/155/155 154/154/154
f 150/150/150 152/152/152 151/151/151
f 151/151/151 149/149/149 150/150/150
f 148/148/148 150/150/150 149/149/149
f 145/145/145 147/147/147 146/146/146
f 146/146/146 144/144/144 145/145/145
f 143/143/143 145/145/145 144/144/144
f 140/140/140 142/142/142 141/141/141
f 141/141/141 139/139/139 140/140/140
f 138/138/138 140/140/140 139/139/139
f 135/135/135 137/137/137 136/136/136
f 136/136/136 134/134/134 135/135/135
f 133/133/133 135/135/135 134/134/134
f 130/130/130 132/132/132 131/131/131
f 131/131/131 129/129/129 130/130/130
f 128/128/128 130/130/130 129/129/129
f 125/125/125 127/127/127 126/126/126
f 126/126/126 124/124/124 125/125/125
f 123/123/123 125/125/125 124/124/124
f 120/120/120 122/122/122 121/121/121
f 121/121/121 119/119/119 120/120/120
f 118/118/118 120/120/120 119/119/119
f 111/111/111 112/112/112 114/114/114
f 114/114/114 113/113/113 111/111/111
f 110/110/110 112/112/112 111/111/111
f 106/106/106 107/107/107 109/109/109
f 109/109/109 108/108/108 106/106/106
f 105/105/105 107/107/107 106/106/106
f 101/101/101 102/102/102 104/104/104
f 104/104/104 103/103/103 101/101/101
f 100/100/100 102/102/102 101/101/101
f 96/96/96 97/97/97 99/99/99
f 99/99/99 98/98/98 96/96/96
f 95/95/95 97/97/97 96/96/96
f 91/91/91 92/92/92 94/94/94
f 94/94/94 93/93/93 91/91/91
f 90/90/90 92/92/92 91/91/91
f 86/86/86 87/87/87 89/89/89
f 89/89/89 88/88/88 86/86/86
f 85/85/85 87/87/87 86/86/86
f 81/81/81 82/82/82 84/84/84
f 84/84/84 83/83/83 81/81/81
f 80/80/80 82/82/82 81/81/81
f 76/76/76 77/77/77 79/79/79
f 79/79/79 78/78/78 76/76/76
f 75/75/75 77/77/77 76/76/76
f 71/71/71 72/72/72 74/74/74
f 74/74/74 73/73/73 71/71/71
f 70/70/70 72/72/72 71/71/71
f 66/66/66 67/67/67 69/69/69
f 69/69/69 68/68/68 66/66/66
f 65/65/65 67/67/67 66/66/66
f 61/61/61 62/62/62 64/64/64
f 64/64/64 63/63/63 61/61/61
f 60/60/60 62/62/62 61/61/61
f 56/56/56 57/57/57 59/59/59
f 59/59/59 58/58/58 56/56/56
f 55/55/55 57/57/57 56/56/56
f 51/51/51 52/52/52 54/54/54
f 54/54/54 53/53/53 51/51/51
f 50/50/50 52/52/52 51/51/51
f 46/46/46 47/47/47 49/49/49
f 49/49/49 48/48/48 46/46/46
f 45/45/45 47/47/47 46/46/46
f 41/41/41 42/42/42 44/44/44
f 44/44/44 43/43/43 41/41/41
f 40/40/40 42/42/42 41/41/41
f 38/38/38 39/39/39 37/37/37
f 37/37/37 36/36/36 38/38/38
f 35/35/35 39/39/39 38/38/38
f 25/25/25 34/34/34 416/416/416
f 416/416/416 412/412/412 25/25/25
f 24/24/24 33/33/33 34/34/34
f 34/34/34 25/25/25 24/24/24
f 23/23/23 32/32/32 33/33/33
f 33/33/33 24/24/24 23/23/23
f 409/409/409 415/415/415 32/32/32
f 32/32/32 23/23/23 409/409/409
f 21/21/21 30/30/30 31/31/31
f 31/31/31 22/22/22 21/21/21
f 20/20/20 29/29/29 30/30/30
f 30/30/30 21/21/21 20/20/20
f 19/19/19 28/28/28 29/29/29
f 29/29/29 20/20/20 19/19/19
f 403/403/403 414/414/414 28/28/28
f 28/28/28 19/19/19 403/403/403
f 17/17/17 115/115/115 27/27/27
f 27/27/27 18/18/18 17/17/17
f 16/16/16 116/116/116 115/115/115
f 115/115/115 17/17/17 16/16/16
f 15/15/15 117/117/117 116/116/116
f 116/116/116 16/16/16 15/15/15
f 14/14/14 26/26/26 117/117/117
f 117/117/117 15/15/15 14/14/14
f 411/411/411 25/25/25 412/412/412
f 412/412/412 413/413/413 411/411/411
f 410/410/410 24/24/24 25/25/25
f 25/25/25 411/411/411 410/410/410
f 407/407/407 23/23/23 24/24/24
f 24/24/24 410/410/410 407/407/407
f 408/408/408 409/409/409 23/23/23
f 23/23/23 407/407/407 408/408/408
f 405/405/405 21/21/21 22/22/22
f 22/22/22 406/406/406 405/405/405
f 404/404/404 20/20/20 21/21/21
f 21/21/21 405/405/405 404/404/404
f 401/401/401 19/19/19 20/20/20
f 20/20/20 404/404/404 401/401/401
f 402/402/402 403/403/403 19/19/19
f 19/19/19 401/401/401 402/402/402
f 399/399/399 17/17/17 18/18/18
f 18/18/18 400/400/400 399/399/399
f 398/398/398 16/16/16 17/17/17
f 17/17/17 399/399/399 398/398/398
f 396/396/396 15/15/15 16/16/16
f 16/16/16 398/398/398 396/396/396
f 397/397/397 14/14/14 15/15/15
f 15/15/15 396/396/396 397/397/397
f 1/1/1 13/13/13 2/2/2
f 1/1/1 12/12/12 13/13/13
f 1/1/1 11/11/11 12/12/12
f 1/1/1 10/10/10 11/11/11
f 1/1/1 9/9/9 10/10/10
f 1/1/1 8/8/8 9/9/9
f 1/1/1 7/7/7 8/8/8
f 1/1/1 6/6/6 7/7/7
f 1/1/1 5/5/5 6/6/6
f 1/1/1 4/4/4 5/5/5
f 1/1/1 3/3/3 4/4/4
f 1/1/1 2/2/2 3/3/3
