# Recovered local-space geometry; original node transforms not applied
o mesh_0
v 6.036706963641336e-06 -1.0804534156250156e-07 -48.69133377075195
v 7.4053791649930645e-06 30.377357482910156 -41.47371292114258
v 15.188693046569824 26.307559967041016 -41.47371292114258
v 26.307575225830078 15.188678741455078 -41.47371292114258
v 30.377361297607422 4.483881639316678e-06 -41.47371292114258
v 26.307575225830078 -15.188668251037598 -41.47371292114258
v 15.188693046569824 -26.307552337646484 -41.47371292114258
v 2.2099546185927466e-05 -30.377349853515625 -41.47371292114258
v -15.188647270202637 -26.30756950378418 -41.47371292114258
v -26.307546615600586 -15.18869400024414 -41.47371292114258
v -30.377349853515625 -2.3769975086906925e-05 -41.47371292114258
v -26.30756187438965 15.188652992248535 -41.47371292114258
v -15.188693046569824 26.30754280090332 -41.47371292114258
v 1.108439846575493e-05 38.66045379638672 -23.170024871826172
v 19.33024024963379 33.480934143066406 -23.170028686523438
v 33.48093795776367 19.330223083496094 -23.17003059387207
v 38.66045379638672 4.317067123338347e-06 -23.17003059387207
v 33.48094177246094 -19.330215454101562 -23.17003059387207
v 19.33024787902832 -33.48092269897461 -23.170028686523438
v 3.261330857640132e-05 -38.66044616699219 -23.170024871826172
v -19.330196380615234 -33.480934143066406 -23.17002296447754
v -33.480899810791016 -19.33024787902832 -23.170019149780273
v -38.66043472290039 -3.158252366119996e-05 -23.170019149780273
v -33.480934143066406 19.330190658569336 -23.170019149780273
v -19.330242156982422 33.48091125488281 -23.17002296447754
v 5.851872629136778e-06 -1.5382127571683668e-07 -54.1168327331543
v 5.9228814279777e-06 34.079498291015625 -45.439334869384766
v 17.039762496948242 29.51370620727539 -45.439334869384766
v 29.513723373413086 17.039749145507812 -45.439334869384766
v 34.07950210571289 4.489219463721383e-06 -45.439334869384766
v 29.513721466064453 -17.039737701416016 -45.439334869384766
v 17.039762496948242 -29.51369857788086 -45.439334869384766
v 2.39009805227397e-05 -34.079490661621094 -45.439334869384766
v -17.039714813232422 -29.51371955871582 -45.439334869384766
v -29.51369285583496 -17.03976821899414 -45.439334869384766
v -34.079490661621094 -2.5559244022588246e-05 -45.439334869384766
v -29.513710021972656 17.039722442626953 -45.439334869384766
v -17.039766311645508 29.513689041137695 -45.439334869384766
v 9.282945939048659e-06 43.867279052734375 -24.694801330566406
v 21.933652877807617 37.990177154541016 -24.694805145263672
v 37.99018478393555 21.933635711669922 -24.694807052612305
v 43.867279052734375 5.077168225398054e-06 -24.694808959960938
v 37.99018859863281 -21.93362808227539 -24.694807052612305
v 21.933664321899414 -37.99016571044922 -24.694808959960938
v 3.514457057463005e-05 -43.867271423339844 -24.694805145263672
v -21.93360710144043 -37.99018096923828 -24.69480323791504
v -37.990142822265625 -21.933664321899414 -24.694799423217773
v -43.86725997924805 -3.6503719456959516e-05 -24.694799423217773
v -37.99018096923828 21.9335994720459 -24.694799423217773
v -21.93366050720215 37.99015426635742 -24.69480323791504
v 0.0 42.24932098388672 -1.0995804961000388e-12
v -36.58898162841797 -21.124670028686523 2.762389385679853e-06
v -21.124656677246094 -36.5889892578125 1.5948648979247082e-06
v 0.0 -42.24932098388672 -2.7219639302938914e-12
v 21.124656677246094 -36.5889892578125 -1.5948695590850548e-06
v 36.58898162841797 -21.124670028686523 -2.7623932510323357e-06
v 42.24932098388672 -1.5130957763176411e-05 -3.189736162312329e-06
v 36.588993072509766 21.124645233154297 -2.7623925689113094e-06
v 21.124677658081055 36.58897399902344 -1.594868649590353e-06
v -42.24932098388672 -1.5130957763176411e-05 3.18973411594925e-06
v -36.588993072509766 21.124645233154297 2.762391886790283e-06
v -21.124677658081055 36.58897399902344 1.5948689906508662e-06
v 2.2204633864930656e-07 47.672325134277344 -0.16450254619121552
v -41.285438537597656 -23.83617401123047 -0.1645030826330185
v -23.836158752441406 -41.28544998168945 -0.16450320184230804
v 2.8784580052843012e-08 -47.672325134277344 -0.16450250148773193
v 23.836158752441406 -41.28545379638672 -0.16450227797031403
v 41.285438537597656 -23.836172103881836 -0.1645027995109558
v 47.672325134277344 -1.6857253285706975e-05 -0.16450358927249908
v 41.285457611083984 23.836145401000977 -0.16450287401676178
v 23.836181640625 41.285430908203125 -0.16450172662734985
v -47.672325134277344 -1.704612441244535e-05 -0.16450275480747223
v -41.285457611083984 23.83614730834961 -0.1645023077726364
v -23.836181640625 41.285430908203125 -0.1645033359527588
v -9.5367431640625e-07 -8.662542313686572e-06 -1.1937117960769683e-12
v 15.188693046569824 26.307559967041016 -41.47371292114258
v 7.4053791649930645e-06 30.377357482910156 -41.47371292114258
v 26.307575225830078 15.188678741455078 -41.47371292114258
v 30.377361297607422 4.483881639316678e-06 -41.47371292114258
v 26.307575225830078 -15.188668251037598 -41.47371292114258
v 15.188693046569824 -26.307552337646484 -41.47371292114258
v 26.307575225830078 -15.188668251037598 -41.47371292114258
v 33.48094177246094 -19.330215454101562 -23.17003059387207
v 2.2099546185927466e-05 -30.377349853515625 -41.47371292114258
v -15.188647270202637 -26.30756950378418 -41.47371292114258
v -26.307546615600586 -15.18869400024414 -41.47371292114258
v -30.377349853515625 -2.3769975086906925e-05 -41.47371292114258
v -26.307546615600586 -15.18869400024414 -41.47371292114258
v -33.480899810791016 -19.33024787902832 -23.170019149780273
v -26.30756187438965 15.188652992248535 -41.47371292114258
v -15.188693046569824 26.30754280090332 -41.47371292114258
v 1.108439846575493e-05 38.66045379638672 -23.170024871826172
v 7.4053791649930645e-06 30.377357482910156 -41.47371292114258
v 36.58898162841797 -21.124670028686523 -2.7623932510323357e-06
v -36.58898162841797 -21.124670028686523 2.762389385679853e-06
v 0.0 42.24932098388672 -1.0995804961000388e-12
v 0.0 42.24932098388672 -1.0995804961000388e-12
v -21.124677658081055 36.58897399902344 1.5948689906508662e-06
v -36.58898162841797 -21.124670028686523 2.762389385679853e-06
v -21.124656677246094 -36.5889892578125 1.5948648979247082e-06
v 0.0 -42.24932098388672 -2.7219639302938914e-12
v 21.124656677246094 -36.5889892578125 -1.5948695590850548e-06
v 36.58898162841797 -21.124670028686523 -2.7623932510323357e-06
v 42.24932098388672 -1.5130957763176411e-05 -3.189736162312329e-06
v 36.588993072509766 21.124645233154297 -2.7623925689113094e-06
v 21.124677658081055 36.58897399902344 -1.594868649590353e-06
v -42.24932098388672 -1.5130957763176411e-05 3.18973411594925e-06
v -36.588993072509766 21.124645233154297 2.762391886790283e-06
vt 0.9155380129814148 0.002882540225982666
vt 0.9186971187591553 0.0061019062995910645
vt 0.9155522584915161 0.006100475788116455
vt 0.9124074578285217 0.0061019062995910645
vt 0.9155522584915161 0.006100475788116455
vt 0.9186971187591553 0.0061019062995910645
vt 0.9155522584915161 0.006100475788116455
vt 0.9124074578285217 0.0061019062995910645
vt 0.9155522584915161 0.006100475788116455
vt 0.9186971187591553 0.0061019062995910645
vt 0.9155522584915161 0.006100475788116455
vt 0.9124074578285217 0.0061019062995910645
vt 0.9155522584915161 0.006100475788116455
vt 0.997384786605835 0.0966026782989502
vt 0.9676816463470459 0.0966026782989502
vt 0.9379785060882568 0.0966026782989502
vt 0.9082754850387573 0.0966026782989502
vt 0.8785722851753235 0.0966026782989502
vt 0.9664129018783569 0.0966026782989502
vt 0.9367097616195679 0.0966026782989502
vt 0.9070066213607788 0.0966026782989502
vt 0.8773035407066345 0.09660261869430542
vt 0.9677273631095886 0.09660261869430542
vt 0.9380242228507996 0.09660261869430542
vt 0.9083211421966553 0.0966026782989502
vt 0.9503829479217529 0.07313865423202515
vt 0.9503891468048096 0.07314491271972656
vt 0.9503830075263977 0.07314485311508179
vt 0.9503768682479858 0.07314491271972656
vt 0.9503830075263977 0.07314485311508179
vt 0.9503891468048096 0.07314491271972656
vt 0.9503830075263977 0.07314485311508179
vt 0.9503768682479858 0.07314491271972656
vt 0.9503830075263977 0.07314485311508179
vt 0.9503891468048096 0.07314491271972656
vt 0.9503830075263977 0.07314485311508179
vt 0.9503768682479858 0.07314491271972656
vt 0.9503830075263977 0.07314485311508179
vt 0.9507701992988586 0.07332062721252441
vt 0.9507124423980713 0.07332062721252441
vt 0.9506548047065735 0.07332062721252441
vt 0.9505971074104309 0.07332062721252441
vt 0.9505394697189331 0.07332062721252441
vt 0.9504817724227905 0.07332062721252441
vt 0.950424075126648 0.07332062721252441
vt 0.9503663778305054 0.07332062721252441
vt 0.9503087401390076 0.07332062721252441
vt 0.950251042842865 0.07332062721252441
vt 0.9501934051513672 0.07332062721252441
vt 0.9501357078552246 0.07332062721252441
vt 0.997384786605835 0.06286829710006714
vt 0.877303421497345 0.06286823749542236
vt 0.907006561756134 0.06286829710006714
vt 0.9367096424102783 0.06286829710006714
vt 0.9664127826690674 0.06286829710006714
vt 0.8785722851753235 0.06286829710006714
vt 0.9082754254341125 0.06286829710006714
vt 0.9379785060882568 0.06286829710006714
vt 0.9676816463470459 0.06286829710006714
vt 0.9677273631095886 0.06286823749542236
vt 0.9380241632461548 0.06286823749542236
vt 0.9083211421966553 0.06286829710006714
vt 0.9507701992988586 0.07325512170791626
vt 0.9503087401390076 0.07325512170791626
vt 0.9503663778305054 0.07325512170791626
vt 0.950424075126648 0.07325512170791626
vt 0.9504817724227905 0.07325512170791626
vt 0.9505394697189331 0.07325512170791626
vt 0.9505971074104309 0.07325512170791626
vt 0.9506548047065735 0.07325512170791626
vt 0.9507124423980713 0.07325512170791626
vt 0.950251042842865 0.07325512170791626
vt 0.9501934051513672 0.07325512170791626
vt 0.9501357078552246 0.07325512170791626
vt 0.9443066716194153 0.07843798398971558
vt 0.9676816463470459 0.12325191497802734
vt 0.997384786605835 0.12325191497802734
vt 0.9379785060882568 0.12325191497802734
vt 0.9082754850387573 0.12325191497802734
vt 0.8785722851753235 0.12325191497802734
vt 0.9664128422737122 0.12325191497802734
vt 0.9961159229278564 0.12325191497802734
vt 0.9961159229278564 0.0966026782989502
vt 0.9367097020149231 0.12325191497802734
vt 0.9070066809654236 0.12325191497802734
vt 0.8773035407066345 0.12325191497802734
vt 0.9677273631095886 0.12325191497802734
vt 0.9974305629730225 0.12325191497802734
vt 0.9974305629730225 0.09660261869430542
vt 0.9380242228507996 0.12325191497802734
vt 0.9083211421966553 0.12325191497802734
vt 0.8786179423332214 0.0966026782989502
vt 0.8786179423332214 0.12325191497802734
vt 0.9961159229278564 0.06286829710006714
vt 0.9974304437637329 0.06286823749542236
vt 0.8786179423332214 0.06286829710006714
vt 0.9438644051551819 0.07843798398971558
vt 0.943938136100769 0.07843798398971558
vt 0.9441592693328857 0.07843798398971558
vt 0.9442329406738281 0.07843798398971558
vt 0.9443066716194153 0.07843798398971558
vt 0.9443804025650024 0.07843798398971558
vt 0.9444541335105896 0.07843798398971558
vt 0.9445278644561768 0.07843798398971558
vt 0.9446015357971191 0.07843798398971558
vt 0.9446752667427063 0.07843798398971558
vt 0.9440855383872986 0.07843798398971558
vt 0.9440118074417114 0.07843798398971558
vn 1.2787789716028897e-09 -6.266017038569771e-08 -1.0
vn 0.05349557101726532 0.7030372619628906 -0.7091380953788757
vn 0.397847443819046 0.5821001529693604 -0.7091380953788757
vn 0.6355961561203003 0.305189847946167 -0.709138035774231
vn 0.7030373215675354 -0.05349575728178024 -0.709138035774231
vn 0.5821003317832947 -0.39784714579582214 -0.7091380953788757
vn 0.3051900267601013 -0.635595977306366 -0.7091381549835205
vn -0.053495489060878754 -0.7030373811721802 -0.7091379761695862
vn -0.3978469967842102 -0.5821006894111633 -0.7091379165649414
vn -0.6355960369110107 -0.3051905930042267 -0.7091377973556519
vn -0.7030375599861145 0.0534953735768795 -0.7091377973556519
vn -0.5821006894111633 0.3978470265865326 -0.7091379761695862
vn -0.3051905333995819 0.6355958580970764 -0.709138035774231
vn 0.003265969455242157 0.9583378434181213 -0.2856188416481018
vn 0.4819977879524231 0.828311562538147 -0.2856188118457794
vn 0.8315781354904175 0.47633999586105347 -0.28561872243881226
vn 0.9583378434181213 -0.0032663620077073574 -0.2856188118457794
vn 0.8283118009567261 -0.48199737071990967 -0.2856188118457794
vn 0.4763403534889221 -0.8315778374671936 -0.28561896085739136
vn -0.0032660590950399637 -0.958337664604187 -0.2856190800666809
vn -0.48199722170829773 -0.8283118009567261 -0.2856191098690033
vn -0.8315776586532593 -0.476340651512146 -0.28561902046203613
vn -0.9583377242088318 0.003265595529228449 -0.2856189012527466
vn -0.8283119797706604 0.48199692368507385 -0.28561902046203613
vn -0.4763408303260803 0.8315775394439697 -0.28561896085739136
vn -5.13673281687943e-09 6.035661215264554e-08 1.0
vn -0.05273092910647392 -0.7006397843360901 0.7115640044212341
vn -0.39598649740219116 -0.5804063081741333 0.7115639448165894
vn -0.633137583732605 -0.3046533763408661 0.7115639448165894
vn -0.7006398439407349 0.05273110792040825 0.7115639448165894
vn -0.5804063677787781 0.3959862291812897 0.7115640044212341
vn -0.304653525352478 0.6331372857093811 0.7115640640258789
vn 0.05273076891899109 0.7006399631500244 0.7115638852119446
vn 0.39598608016967773 0.5804067850112915 0.711563766002655
vn 0.6331374645233154 0.304654061794281 0.711563766002655
vn 0.700640082359314 -0.05273072421550751 0.7115638256072998
vn 0.5804067254066467 -0.39598602056503296 0.7115638256072998
vn 0.30465397238731384 -0.6331372261047363 0.7115639448165894
vn -0.0035522894468158484 -0.9559906125068665 0.293376088142395
vn -0.4810720682144165 -0.8261358141899109 0.29337605834007263
vn -0.8296884894371033 -0.4749184250831604 0.29337599873542786
vn -0.9559905529022217 0.0035526275169104338 0.29337596893310547
vn -0.8261359333992004 0.4810716211795807 0.29337605834007263
vn -0.47491881251335144 0.829688310623169 0.2933763265609741
vn 0.0035522703547030687 0.9559904336929321 0.29337629675865173
vn 0.48107144236564636 0.8261359333992004 0.2933763563632965
vn 0.8296879529953003 0.4749191999435425 0.29337626695632935
vn 0.9559904932975769 -0.0035518300719559193 0.29337620735168457
vn 0.8261361718177795 -0.4810712933540344 0.2933763265609741
vn 0.47491928935050964 -0.8296879529953003 0.29337620735168457
vn -0.08792233467102051 0.9843887090682983 -0.1524747908115387
vn -0.8085442781448364 -0.5683373808860779 -0.15247555077075958
vn -0.41605132818222046 -0.8964667320251465 -0.15247532725334167
vn 0.08792217820882797 -0.9843887090682983 -0.15247495472431183
vn 0.5683371424674988 -0.8085445761680603 -0.15247474610805511
vn 0.8964666724205017 -0.4160516858100891 -0.15247470140457153
vn 0.9843887686729431 0.0879218801856041 -0.15247462689876556
vn 0.8085448741912842 0.5683367848396301 -0.15247447788715363
vn 0.41605186462402344 0.8964666128158569 -0.15247437357902527
vn -0.9843886494636536 -0.08792254328727722 -0.15247556567192078
vn -0.8964667916297913 0.41605108976364136 -0.15247546136379242
vn -0.5683375597000122 0.8085443377494812 -0.1524752527475357
vn 0.08791932463645935 -0.9843556880950928 0.1526896059513092
vn 0.8085172176361084 0.568318247795105 0.15269027650356293
vn 0.4160374104976654 0.8964366316795349 0.152690127491951
vn -0.08791916072368622 0.9843557476997375 0.1526898443698883
vn -0.5683181285858154 0.8085175156593323 0.1526896208524704
vn -0.8964366316795349 0.4160376191139221 0.15268941223621368
vn -0.9843557476997375 -0.08791878074407578 0.15268947184085846
vn -0.8085176944732666 -0.5683177709579468 0.1526893526315689
vn -0.4160378575325012 -0.8964365720748901 0.15268921852111816
vn 0.9843555092811584 0.08791964501142502 0.1526903510093689
vn 0.8964366912841797 -0.4160371422767639 0.15269039571285248
vn 0.5683183670043945 -0.8085171580314636 0.15269003808498383
vn 7.549796521288954e-08 -4.076151241083452e-15 1.0
vn 0.397847443819046 0.5821001529693604 -0.7091380953788757
vn 0.05349557101726532 0.7030372619628906 -0.7091380953788757
vn 0.6355961561203003 0.305189847946167 -0.709138035774231
vn 0.7030373215675354 -0.05349575728178024 -0.709138035774231
vn 0.5821003317832947 -0.39784714579582214 -0.7091380953788757
vn 0.3051900267601013 -0.635595977306366 -0.7091381549835205
vn 0.5821003317832947 -0.39784714579582214 -0.7091380953788757
vn 0.8283118009567261 -0.48199737071990967 -0.2856188118457794
vn -0.053495489060878754 -0.7030373811721802 -0.7091379761695862
vn -0.3978469967842102 -0.5821006894111633 -0.7091379165649414
vn -0.6355960369110107 -0.3051905930042267 -0.7091377973556519
vn -0.7030375599861145 0.0534953735768795 -0.7091377973556519
vn -0.6355960369110107 -0.3051905930042267 -0.7091377973556519
vn -0.8315776586532593 -0.476340651512146 -0.28561902046203613
vn -0.5821006894111633 0.3978470265865326 -0.7091379761695862
vn -0.3051905333995819 0.6355958580970764 -0.709138035774231
vn 0.003265969455242157 0.9583378434181213 -0.2856188416481018
vn 0.05349557101726532 0.7030372619628906 -0.7091380953788757
vn 0.8964666724205017 -0.4160516858100891 -0.15247470140457153
vn -0.8085442781448364 -0.5683373808860779 -0.15247555077075958
vn -0.08792233467102051 0.9843887090682983 -0.1524747908115387
vn 7.549796521288954e-08 -4.076151241083452e-15 1.0
vn 7.549796521288954e-08 -4.076151241083452e-15 1.0
vn 7.549790126404332e-08 -3.057117411867441e-14 1.0
vn 7.549790126404332e-08 -3.057117411867441e-14 1.0
vn 7.549790836947068e-08 -3.446805422460328e-14 1.0
vn 7.549787994776125e-08 -3.668540690953022e-14 1.0
vn 7.549790836947068e-08 -2.853309426296795e-14 1.0
vn 7.549790126404332e-08 -3.87234799889731e-14 1.0
vn 7.549790836947068e-08 -3.2609243809985505e-14 1.0
vn 7.549789415861596e-08 -4.07615496802842e-14 1.0
vn 7.549790836947068e-08 -4.6875792635535374e-14 1.0
vn 7.549791547489804e-08 -3.057116734241083e-14 1.0
f 98/98/98 108/108/108 75/75/75
f 108/108/108 107/107/107 75/75/75
f 107/107/107 99/99/99 75/75/75
f 106/106/106 97/97/97 75/75/75
f 105/105/105 106/106/106 75/75/75
f 104/104/104 105/105/105 75/75/75
f 103/103/103 104/104/104 75/75/75
f 102/102/102 103/103/103 75/75/75
f 101/101/101 102/102/102 75/75/75
f 100/100/100 101/101/101 75/75/75
f 99/99/99 100/100/100 75/75/75
f 97/97/97 98/98/98 75/75/75
f 50/50/50 39/39/39 63/63/63
f 63/63/63 74/74/74 50/50/50
f 49/49/49 50/50/50 74/74/74
f 74/74/74 73/73/73 49/49/49
f 48/48/48 49/49/49 73/73/73
f 73/73/73 72/72/72 48/48/48
f 47/47/47 48/48/48 72/72/72
f 72/72/72 64/64/64 47/47/47
f 46/46/46 47/47/47 64/64/64
f 64/64/64 65/65/65 46/46/46
f 45/45/45 46/46/46 65/65/65
f 65/65/65 66/66/66 45/45/45
f 44/44/44 45/45/45 66/66/66
f 66/66/66 67/67/67 44/44/44
f 43/43/43 44/44/44 67/67/67
f 67/67/67 68/68/68 43/43/43
f 42/42/42 43/43/43 68/68/68
f 68/68/68 69/69/69 42/42/42
f 41/41/41 42/42/42 69/69/69
f 69/69/69 70/70/70 41/41/41
f 40/40/40 41/41/41 70/70/70
f 70/70/70 71/71/71 40/40/40
f 39/39/39 40/40/40 71/71/71
f 71/71/71 63/63/63 39/39/39
f 38/38/38 27/27/27 39/39/39
f 39/39/39 50/50/50 38/38/38
f 37/37/37 38/38/38 50/50/50
f 50/50/50 49/49/49 37/37/37
f 36/36/36 37/37/37 49/49/49
f 49/49/49 48/48/48 36/36/36
f 35/35/35 36/36/36 48/48/48
f 48/48/48 47/47/47 35/35/35
f 34/34/34 35/35/35 47/47/47
f 47/47/47 46/46/46 34/34/34
f 33/33/33 34/34/34 46/46/46
f 46/46/46 45/45/45 33/33/33
f 32/32/32 33/33/33 45/45/45
f 45/45/45 44/44/44 32/32/32
f 31/31/31 32/32/32 44/44/44
f 44/44/44 43/43/43 31/31/31
f 30/30/30 31/31/31 43/43/43
f 43/43/43 42/42/42 30/30/30
f 29/29/29 30/30/30 42/42/42
f 42/42/42 41/41/41 29/29/29
f 28/28/28 29/29/29 41/41/41
f 41/41/41 40/40/40 28/28/28
f 27/27/27 28/28/28 40/40/40
f 40/40/40 39/39/39 27/27/27
f 26/26/26 27/27/27 38/38/38
f 26/26/26 38/38/38 37/37/37
f 26/26/26 37/37/37 36/36/36
f 26/26/26 36/36/36 35/35/35
f 26/26/26 35/35/35 34/34/34
f 26/26/26 34/34/34 33/33/33
f 26/26/26 33/33/33 32/32/32
f 26/26/26 32/32/32 31/31/31
f 26/26/26 31/31/31 30/30/30
f 26/26/26 30/30/30 29/29/29
f 26/26/26 29/29/29 28/28/28
f 26/26/26 28/28/28 27/27/27
f 25/25/25 62/62/62 96/96/96
f 96/96/96 92/92/92 25/25/25
f 24/24/24 61/61/61 62/62/62
f 62/62/62 25/25/25 24/24/24
f 23/23/23 60/60/60 61/61/61
f 61/61/61 24/24/24 23/23/23
f 89/89/89 95/95/95 60/60/60
f 60/60/60 23/23/23 89/89/89
f 21/21/21 53/53/53 52/52/52
f 52/52/52 22/22/22 21/21/21
f 20/20/20 54/54/54 53/53/53
f 53/53/53 21/21/21 20/20/20
f 19/19/19 55/55/55 54/54/54
f 54/54/54 20/20/20 19/19/19
f 83/83/83 94/94/94 55/55/55
f 55/55/55 19/19/19 83/83/83
f 17/17/17 57/57/57 56/56/56
f 56/56/56 18/18/18 17/17/17
f 16/16/16 58/58/58 57/57/57
f 57/57/57 17/17/17 16/16/16
f 15/15/15 59/59/59 58/58/58
f 58/58/58 16/16/16 15/15/15
f 14/14/14 51/51/51 59/59/59
f 59/59/59 15/15/15 14/14/14
f 91/91/91 25/25/25 92/92/92
f 92/92/92 93/93/93 91/91/91
f 90/90/90 24/24/24 25/25/25
f 25/25/25 91/91/91 90/90/90
f 87/87/87 23/23/23 24/24/24
f 24/24/24 90/90/90 87/87/87
f 88/88/88 89/89/89 23/23/23
f 23/23/23 87/87/87 88/88/88
f 85/85/85 21/21/21 22/22/22
f 22/22/22 86/86/86 85/85/85
f 84/84/84 20/20/20 21/21/21
f 21/21/21 85/85/85 84/84/84
f 81/81/81 19/19/19 20/20/20
f 20/20/20 84/84/84 81/81/81
f 82/82/82 83/83/83 19/19/19
f 19/19/19 81/81/81 82/82/82
f 79/79/79 17/17/17 18/18/18
f 18/18/18 80/80/80 79/79/79
f 78/78/78 16/16/16 17/17/17
f 17/17/17 79/79/79 78/78/78
f 76/76/76 15/15/15 16/16/16
f 16/16/16 78/78/78 76/76/76
f 77/77/77 14/14/14 15/15/15
f 15/15/15 76/76/76 77/77/77
f 1/1/1 13/13/13 2/2/2
f 1/1/1 12/12/12 13/13/13
f 1/1/1 11/11/11 12/12/12
f 1/1/1 10/10/10 11/11/11
f 1/1/1 9/9/9 10/10/10
f 1/1/1 8/8/8 9/9/9
f 1/1/1 7/7/7 8/8/8
f 1/1/1 6/6/6 7/7/7
f 1/1/1 5/5/5 6/6/6
f 1/1/1 4/4/4 5/5/5
f 1/1/1 3/3/3 4/4/4
f 1/1/1 2/2/2 3/3/3
