# Recovered local-space geometry; original node transforms not applied
o mesh_0
v -1.0465960258443374e-06 17.87574577331543 38.09512710571289
v -9.629667282104492 16.67906951904297 38.09512710571289
v -15.480850219726562 8.937872886657715 38.09512710571289
v -19.259328842163086 2.5036690658453153e-06 38.09512710571289
v -15.480853080749512 -8.937872886657715 38.09512710571289
v -9.629671096801758 -16.679061889648438 38.09512710571289
v -8.575877473049331e-06 -17.87574577331543 38.09512710571289
v 9.629653930664062 -16.679073333740234 38.09512710571289
v 15.480846405029297 -8.937886238098145 38.09512710571289
v 19.259328842163086 -1.5404128134832717e-05 38.09512710571289
v 15.480859756469727 8.937858581542969 38.09512710571289
v 9.629680633544922 16.679059982299805 38.09512710571289
v -1.5992046655810555e-06 36.58553695678711 21.12266731262207
v -18.292770385742188 31.684003829956055 21.12266731262207
v -31.684003829956055 18.292768478393555 21.12266731262207
v -36.58553695678711 5.524262178369099e-06 21.12266731262207
v -31.684009552001953 -18.292760848999023 21.12266731262207
v -18.29277992248535 -31.683996200561523 21.12266731262207
v -1.7009066141326912e-05 -36.58553695678711 21.12266731262207
v 18.292749404907227 -31.68401527404785 21.12266731262207
v 31.683992385864258 -18.292789459228516 21.12266731262207
v 36.58553695678711 -2.849386874004267e-05 21.12266731262207
v 31.684019088745117 18.292739868164062 21.12266731262207
v 18.29279899597168 31.68398666381836 21.12266731262207
v -1.8466024584995466e-06 42.245338439941406 -1.8466024584995466e-06
v -21.122671127319336 36.58553695678711 -1.8466024584995466e-06
v -36.58553695678711 21.122671127319336 -1.8466024584995466e-06
v -42.245338439941406 6.378868874890031e-06 -1.8466024584995466e-06
v -36.585540771484375 -21.12265968322754 -1.8466024584995466e-06
v -21.122682571411133 -36.58552932739258 -1.8466024584995466e-06
v -1.9640378013718873e-05 -42.245338439941406 -1.8466024584995466e-06
v 21.122648239135742 -36.585548400878906 -1.8466024584995466e-06
v 36.58552169799805 -21.12269401550293 -1.8466024584995466e-06
v 42.245338439941406 -3.290188396931626e-05 -1.8466024584995466e-06
v 36.58555603027344 21.122636795043945 -1.8466024584995466e-06
v 21.122705459594727 36.585514068603516 -1.8466024584995466e-06
v -1.5992045518942177e-06 36.58553695678711 -21.122671127319336
v -18.292768478393555 31.684003829956055 -21.122671127319336
v -31.684003829956055 18.292768478393555 -21.122671127319336
v -36.58553695678711 5.524262178369099e-06 -21.122671127319336
v -31.684005737304688 -18.29275894165039 -21.122671127319336
v -18.29277801513672 -31.683996200561523 -21.122671127319336
v -1.7009064322337508e-05 -36.58553695678711 -21.122671127319336
v 18.292749404907227 -31.68401336669922 -21.122671127319336
v 31.683990478515625 -18.292789459228516 -21.122671127319336
v 36.58553695678711 -2.8493865102063864e-05 -21.122671127319336
v 31.684019088745117 18.292739868164062 -21.122671127319336
v 18.29279899597168 31.683982849121094 -21.122671127319336
v -9.233012860931922e-07 21.122671127319336 -36.58553695678711
v -10.561336517333984 18.292768478393555 -36.58553695678711
v -18.292768478393555 10.561336517333984 -36.58553695678711
v -21.122671127319336 3.1894344374450156e-06 -36.58553695678711
v -18.29277229309082 -10.561330795288086 -36.58553695678711
v -10.561342239379883 -18.292766571044922 -36.58553695678711
v -9.820189006859437e-06 -21.122671127319336 -36.58553695678711
v 10.561325073242188 -18.292776107788086 -36.58553695678711
v 18.292762756347656 -10.561347961425781 -36.58553695678711
v 21.122671127319336 -1.6450943803647533e-05 -36.58553695678711
v 18.29277801513672 10.561319351196289 -36.58553695678711
v 10.561352729797363 18.29275894165039 -36.58553695678711
v 0.0 0.0 -42.245338439941406
v -11.906071662902832 20.62191390991211 50.44981002807617
v -23.8121395111084 3.3974647521972656e-06 50.44981002807617
v -11.90607738494873 -20.62191390991211 50.44981002807617
v 11.906057357788086 -20.621925354003906 50.44981002807617
v 23.8121395111084 -1.8656253814697266e-05 50.44981002807617
v 11.906088829040527 20.621906280517578 50.44981002807617
v -3.3913702964782715 5.874019622802734 50.44980239868164
v -6.782739639282227 -2.86102294921875e-06 50.44980239868164
v -3.3913724422454834 -5.874027729034424 50.318275451660156
v 3.3913660049438477 -5.874031066894531 50.44980239868164
v 6.782739639282227 -9.119510650634766e-06 50.44980239868164
v 3.3913753032684326 5.874017238616943 50.44980239868164
v -3.540954351425171 6.546685218811035 60.485321044921875
v -7.081910610198975 0.43691086769104004 61.01985168457031
v -3.540957450866699 -5.672865390777588 61.42287063598633
v 3.5409514904022217 -5.672867298126221 61.55439758300781
v 7.081911563873291 0.4369041919708252 61.01985168457031
v 3.5409600734710693 6.546681880950928 60.485321044921875
v -4.431286811828613 -5.159735679626465 74.7275390625
v 4.4312825202941895 -5.1597394943237305 74.7275390625
v 8.86257553100586 2.3988685607910156 73.3947525024414
v -10.561336517333984 18.292768478393555 37.488590240478516
v -21.122669219970703 3.1894344374450156e-06 37.488590240478516
v -10.561341285705566 -18.29276466369629 37.488590240478516
v 10.561324119567871 -18.292774200439453 37.488590240478516
v 21.122669219970703 -1.645094198465813e-05 37.488590240478516
v 10.561352729797363 18.292757034301758 37.488590240478516
v -8.862579345703125 2.3988771438598633 73.3947525024414
v -4.431286811828613 9.957488059997559 72.06195831298828
v 4.4312944412231445 9.957484245300293 72.06195831298828
v -26.0870304107666 -0.022966528311371803 37.96720504760742
v -13.047526359558105 -22.59895896911621 37.946048736572266
v 26.09871482849121 0.013392954133450985 37.93589782714844
v -2.5041401386260986 40.972476959228516 23.77311897277832
v -20.520273208618164 35.47993469238281 23.712614059448242
v -37.9630241394043 18.23712158203125 23.727985382080078
v -40.9818115234375 -0.11399178951978683 23.716243743896484
v -35.460594177246094 -20.47317123413086 23.780378341674805
v -20.49452018737793 -35.49751281738281 23.709041595458984
v -1.9215622160118073e-05 -40.94635772705078 23.780378341674805
v 20.49448585510254 -35.497535705566406 23.70903968811035
v 35.460575103759766 -20.473203659057617 23.780378341674805
v 40.990440368652344 0.04034476354718208 23.706039428710938
v 34.81156539916992 20.083465576171875 23.80731201171875
v 20.505155563354492 35.494789123535156 23.704042434692383
v 0.020398182794451714 48.695411682128906 0.02365991845726967
v -24.347749710083008 42.171539306640625 0.022518107667565346
v -42.158138275146484 24.37061882019043 -0.026298590004444122
v -48.69549560546875 7.894367627159227e-06 0.022518208250403404
v -42.17154312133789 -24.347736358642578 0.02299611084163189
v -24.347766876220703 -42.17152786254883 0.022518591955304146
v -2.23285624088021e-05 -48.69548797607422 0.02299576811492443
v 24.347726821899414 -42.17155075073242 0.02251814305782318
v 42.1715202331543 -24.347776412963867 0.02299603447318077
v 48.69549560546875 -3.735082646016963e-05 0.022518161684274673
v 42.170997619628906 24.347509384155273 0.059884488582611084
v 24.347787857055664 42.17151641845703 0.02251807227730751
v -3.46955118857295e-07 41.44975280761719 -23.672536849975586
v -20.724876403808594 35.896541595458984 -23.672536849975586
v -35.89653778076172 20.724876403808594 -23.672536849975586
v -41.44975280761719 6.133126589702442e-06 -23.672536849975586
v -35.896541595458984 -20.724868774414062 -23.672536849975586
v -20.72488784790039 -35.89653015136719 -23.672536849975586
v -1.8907649064203724e-05 -41.44974899291992 -23.672536849975586
v 20.724853515625 -35.89654541015625 -23.672536849975586
v 35.89652633666992 -20.72490119934082 -23.672536849975586
v 41.44975280761719 -3.219730933778919e-05 -23.672536849975586
v 35.89655685424805 20.724842071533203 -23.672536849975586
v 20.724910736083984 35.896522521972656 -23.672536849975586
v -3.954193061872502e-07 23.85944938659668 -40.977516174316406
v -11.92972469329834 20.66288948059082 -40.977516174316406
v -20.66288948059082 11.929725646972656 -40.977516174316406
v -23.859447479248047 3.744345804079785e-06 -40.977516174316406
v -20.662893295288086 -11.929718971252441 -40.977516174316406
v -11.929732322692871 -20.662885665893555 -40.977516174316406
v -1.1026229003618937e-05 -23.85944938659668 -40.977516174316406
v 11.929713249206543 -20.66289520263672 -40.977516174316406
v 20.662883758544922 -11.92973804473877 -40.977516174316406
v 23.85944938659668 -1.8490763977752067e-05 -40.977516174316406
v 20.662899017333984 11.929705619812012 -40.977516174316406
v 11.929743766784668 20.662879943847656 -40.977516174316406
v 4.2512926512472404e-08 6.599977098176169e-08 -47.42023849487305
v -15.515361785888672 26.873388290405273 53.07119369506836
v -31.03072166442871 5.362903721106704e-06 53.07119369506836
v -15.515369415283203 -26.873384475708008 53.07119369506836
v 15.515345573425293 -26.873403549194336 53.07119369506836
v 31.03072166442871 -2.3409136701957323e-05 53.07119369506836
v 15.515384674072266 26.873380661010742 53.07119369506836
v -4.155517101287842 7.197561264038086 55.17934036254883
v -8.311033248901367 -2.546620635257568e-06 55.17934036254883
v -4.155520439147949 -7.197568893432617 55.17934036254883
v 4.15551233291626 -7.197573661804199 55.17934036254883
v 8.311033248901367 -1.0331554221920669e-05 55.17934036254883
v 4.15552282333374 7.197558403015137 55.17934036254883
v -6.011445045471191 10.714574813842773 59.485843658447266
v -11.985715866088867 0.34882286190986633 60.4488525390625
v -5.975137710571289 -9.954962730407715 61.399559020996094
v 5.975125312805176 -9.954972267150879 61.39955520629883
v 11.985713005065918 0.3488105535507202 60.4488525390625
v 6.011458396911621 10.714567184448242 59.4858283996582
v -7.448399543762207 -9.839555740356445 78.34059143066406
v 7.4483962059021 -9.839563369750977 78.3405990600586
v 14.904050827026367 2.867002487182617 76.10469055175781
v -13.037985801696777 22.599336624145508 37.95798110961914
v 13.047504425048828 -22.59897232055664 37.946048736572266
v 13.059048652648926 22.598615646362305 37.9310188293457
v -14.904050827026367 2.8670172691345215 76.10469818115234
v -7.455934047698975 15.585977554321289 73.86335754394531
v 7.4559454917907715 15.585968017578125 73.86335754394531
v -5.426259994506836 9.367358207702637 48.365108489990234
v -10.836328506469727 -0.03129682317376137 48.460819244384766
v -5.4083943367004395 -9.39889907836914 48.556121826171875
v 5.408383846282959 -9.398905754089355 48.556121826171875
v 10.836328506469727 -0.031307462602853775 48.460819244384766
v 5.426267147064209 9.367354393005371 48.365108489990234
v -11.906071662902832 20.62191390991211 50.44981002807617
v -23.8121395111084 3.3974647521972656e-06 50.44981002807617
v -23.8121395111084 3.3974647521972656e-06 50.44981002807617
v -11.90607738494873 -20.62191390991211 50.44981002807617
v -3.3913724422454834 -5.874027729034424 50.318275451660156
v -6.782739639282227 -2.86102294921875e-06 50.44980239868164
v -23.8121395111084 3.3974647521972656e-06 50.44981002807617
v -11.90607738494873 -20.62191390991211 50.44981002807617
v 11.906057357788086 -20.621925354003906 50.44981002807617
v 3.3913660049438477 -5.874031066894531 50.44980239868164
v -3.3913724422454834 -5.874027729034424 50.318275451660156
v -11.90607738494873 -20.62191390991211 50.44981002807617
v 23.8121395111084 -1.8656253814697266e-05 50.44981002807617
v 11.906088829040527 20.621906280517578 50.44981002807617
v -3.3913702964782715 5.874019622802734 50.44980239868164
v -6.782739639282227 -2.86102294921875e-06 50.44980239868164
v -3.3913724422454834 -5.874027729034424 50.318275451660156
v 3.3913660049438477 -5.874031066894531 50.44980239868164
v 3.3913660049438477 -5.874031066894531 50.44980239868164
v 6.782739639282227 -9.119510650634766e-06 50.44980239868164
v 3.5409514904022217 -5.672867298126221 61.55439758300781
v 3.3913753032684326 5.874017238616943 50.44980239868164
v -3.3913702964782715 5.874019622802734 50.44980239868164
v -3.540954351425171 6.546685218811035 60.485321044921875
v 4.4312825202941895 -5.1597394943237305 74.7275390625
v -4.431286811828613 9.957488059997559 72.06195831298828
v -4.431286811828613 -5.159735679626465 74.7275390625
v -4.431286811828613 9.957488059997559 72.06195831298828
v -8.862579345703125 2.3988771438598633 73.3947525024414
v 4.4312825202941895 -5.1597394943237305 74.7275390625
v 4.4312944412231445 9.957484245300293 72.06195831298828
v 8.86257553100586 2.3988685607910156 73.3947525024414
v -13.037985801696777 22.599336624145508 37.95798110961914
v -26.0870304107666 -0.022966528311371803 37.96720504760742
v -13.047526359558105 -22.59895896911621 37.946048736572266
v 13.047504425048828 -22.59897232055664 37.946048736572266
v 26.09871482849121 0.013392954133450985 37.93589782714844
v 13.059048652648926 22.598615646362305 37.9310188293457
v -15.515361785888672 26.873388290405273 53.07119369506836
v -31.03072166442871 5.362903721106704e-06 53.07119369506836
v -31.03072166442871 5.362903721106704e-06 53.07119369506836
v -8.311033248901367 -2.546620635257568e-06 55.17934036254883
v -15.515369415283203 -26.873384475708008 53.07119369506836
v -15.515369415283203 -26.873384475708008 53.07119369506836
v -4.155520439147949 -7.197568893432617 55.17934036254883
v 15.515345573425293 -26.873403549194336 53.07119369506836
v 15.515345573425293 -26.873403549194336 53.07119369506836
v 4.15551233291626 -7.197573661804199 55.17934036254883
v 31.03072166442871 -2.3409136701957323e-05 53.07119369506836
v 31.03072166442871 -2.3409136701957323e-05 53.07119369506836
v 8.311033248901367 -1.0331554221920669e-05 55.17934036254883
v 15.515384674072266 26.873380661010742 53.07119369506836
v 15.515384674072266 26.873380661010742 53.07119369506836
v 4.15552282333374 7.197558403015137 55.17934036254883
v -4.155517101287842 7.197561264038086 55.17934036254883
v -15.515361785888672 26.873388290405273 53.07119369506836
v -7.448399543762207 -9.839555740356445 78.34059143066406
v -14.904050827026367 2.8670172691345215 76.10469818115234
v -7.455934047698975 15.585977554321289 73.86335754394531
v 7.4559454917907715 15.585968017578125 73.86335754394531
v 7.4483962059021 -9.839563369750977 78.3405990600586
v 14.904050827026367 2.867002487182617 76.10469055175781
vt 0.29019278287887573 0.5303897261619568
vt 0.29670095443725586 0.5303897261619568
vt 0.30547159910202026 0.5303897261619568
vt 0.3155980408191681 0.5303897261619568
vt 0.32572445273399353 0.5303897261619568
vt 0.33449509739875793 0.5303897261619568
vt 0.34100326895713806 0.5303897261619568
vt 0.33449509739875793 0.5303897261619568
vt 0.32572445273399353 0.5303897261619568
vt 0.3155980408191681 0.5303897261619568
vt 0.30547159910202026 0.5303897261619568
vt 0.29670095443725586 0.5303897261619568
vt 0.26917317509651184 0.5497205257415771
vt 0.2797006368637085 0.5497205257415771
vt 0.2948727011680603 0.5497205257415771
vt 0.3155980706214905 0.5497205257415771
vt 0.33632344007492065 0.5497205257415771
vt 0.3514954447746277 0.5497205257415771
vt 0.36202284693717957 0.5497205257415771
vt 0.3514954447746277 0.5497205257415771
vt 0.33632344007492065 0.5497205257415771
vt 0.3155980706214905 0.5497205257415771
vt 0.2948727011680603 0.5497205257415771
vt 0.2797006368637085 0.5497205257415771
vt 0.2619912624359131 0.5737783312797546
vt 0.2741473317146301 0.5737783312797546
vt 0.2916664183139801 0.5737783312797546
vt 0.3155980706214905 0.5737783312797546
vt 0.3395296633243561 0.5737783312797546
vt 0.35704874992370605 0.5737783312797546
vt 0.3692047595977783 0.5737783312797546
vt 0.35704874992370605 0.5737783312797546
vt 0.3395296633243561 0.5737783312797546
vt 0.3155980706214905 0.5737783312797546
vt 0.2916664183139801 0.5737783312797546
vt 0.2741473317146301 0.5737783312797546
vt 0.26917317509651184 0.5978361368179321
vt 0.2797006368637085 0.5978361368179321
vt 0.2948727011680603 0.5978361368179321
vt 0.3155980706214905 0.5978361368179321
vt 0.33632344007492065 0.5978361368179321
vt 0.3514953851699829 0.5978361368179321
vt 0.36202284693717957 0.5978361368179321
vt 0.3514953851699829 0.5978361368179321
vt 0.33632344007492065 0.5978361368179321
vt 0.3155980706214905 0.5978361368179321
vt 0.2948727011680603 0.5978361368179321
vt 0.2797006368637085 0.5978361368179321
vt 0.2855782210826874 0.6154476404190063
vt 0.29479512572288513 0.6154804229736328
vt 0.3035860061645508 0.6154804229736328
vt 0.3155944049358368 0.6154804229736328
vt 0.32760289311408997 0.6154804229736328
vt 0.3363937437534332 0.6154804229736328
vt 0.34561780095100403 0.6154476404190063
vt 0.3363937437534332 0.6154804229736328
vt 0.32760289311408997 0.6154804229736328
vt 0.3155944049358368 0.6154804229736328
vt 0.3035860061645508 0.6154804229736328
vt 0.29479512572288513 0.6154804229736328
vt 0.3155944049358368 0.6219851970672607
vt 0.3094688951969147 0.5117090940475464
vt 0.28328263759613037 0.5117090940475464
vt 0.2586526572704315 0.5117090940475464
vt 0.28328263759613037 0.5117090940475464
vt 0.3094688951969147 0.5117090940475464
vt 0.3342956006526947 0.5117090940475464
vt 0.3094678223133087 0.5046241283416748
vt 0.28328293561935425 0.5046241283416748
vt 0.2586529552936554 0.5046241283416748
vt 0.28328293561935425 0.5046241283416748
vt 0.3094678223133087 0.5046241283416748
vt 0.3342927098274231 0.5046241283416748
vt 0.3443332314491272 0.5141692757606506
vt 0.3541235625743866 0.5141692757606506
vt 0.3640197515487671 0.5141692757606506
vt 0.3739158809185028 0.5141692757606506
vt 0.35423028469085693 0.5141692757606506
vt 0.36412638425827026 0.5141692757606506
vt 0.36402034759521484 0.5030002593994141
vt 0.3739170432090759 0.5030001401901245
vt 0.3542296886444092 0.5030002593994141
vt 0.3094630837440491 0.5252746343612671
vt 0.2832843065261841 0.5252746343612671
vt 0.25865450501441956 0.5252746343612671
vt 0.2832843065261841 0.5252746343612671
vt 0.3094630837440491 0.5252746343612671
vt 0.3342793881893158 0.5252746343612671
vt 0.3541235625743866 0.5030002593994141
vt 0.3443329632282257 0.5030002593994141
vt 0.36412638425827026 0.5030002593994141
vt 0.3126356601715088 0.5669935345649719
vt 0.31322988867759705 0.5669935345649719
vt 0.3126356601715088 0.5669935345649719
vt 0.3111759126186371 0.5676013827323914
vt 0.311506986618042 0.5676013827323914
vt 0.31198400259017944 0.5676013827323914
vt 0.3126356601715088 0.5676013827323914
vt 0.3132873773574829 0.5676013827323914
vt 0.31376445293426514 0.5676013827323914
vt 0.31409546732902527 0.5676013827323914
vt 0.31376445293426514 0.5676013827323914
vt 0.3132873773574829 0.5676013827323914
vt 0.3126356601715088 0.5676013827323914
vt 0.31198400259017944 0.5676013827323914
vt 0.311506986618042 0.5676013827323914
vt 0.3109501302242279 0.5683578848838806
vt 0.3113323748111725 0.5683578848838806
vt 0.31188318133354187 0.5683578848838806
vt 0.3126356601715088 0.5683578848838806
vt 0.3133881688117981 0.5683578848838806
vt 0.31393903493881226 0.5683578848838806
vt 0.31432127952575684 0.5683578848838806
vt 0.31393903493881226 0.5683578848838806
vt 0.3133881688117981 0.5683578848838806
vt 0.3126356601715088 0.5683578848838806
vt 0.31188318133354187 0.5683578848838806
vt 0.3113323748111725 0.5683578848838806
vt 0.3111759126186371 0.5691142678260803
vt 0.311506986618042 0.5691142678260803
vt 0.31198400259017944 0.5691142678260803
vt 0.3126356601715088 0.5691142678260803
vt 0.3132873773574829 0.5691142678260803
vt 0.31376442313194275 0.5691142678260803
vt 0.31409546732902527 0.5691142678260803
vt 0.31376442313194275 0.5691142678260803
vt 0.3132873773574829 0.5691142678260803
vt 0.3126356601715088 0.5691142678260803
vt 0.31198400259017944 0.5691142678260803
vt 0.311506986618042 0.5691142678260803
vt 0.3116917610168457 0.5696680545806885
vt 0.31198152899742126 0.5696690678596497
vt 0.3122580051422119 0.5696690678596497
vt 0.3126355707645416 0.5696690678596497
vt 0.31301313638687134 0.5696690678596497
vt 0.3132895827293396 0.5696690678596497
vt 0.31357961893081665 0.5696680545806885
vt 0.3132895827293396 0.5696690678596497
vt 0.31301313638687134 0.5696690678596497
vt 0.3126355707645416 0.5696690678596497
vt 0.3122580051422119 0.5696690678596497
vt 0.31198152899742126 0.5696690678596497
vt 0.3126355707645416 0.5698736310005188
vt 0.31244298815727234 0.5664061307907104
vt 0.3116196095943451 0.5664061307907104
vt 0.31084510684013367 0.5664061307907104
vt 0.3116196095943451 0.5664061307907104
vt 0.31244298815727234 0.5664061307907104
vt 0.313223659992218 0.5664061307907104
vt 0.31244292855262756 0.5661834478378296
vt 0.3116196095943451 0.5661834478378296
vt 0.31084510684013367 0.5661834478378296
vt 0.3116196095943451 0.5661834478378296
vt 0.31244292855262756 0.5661834478378296
vt 0.3132235109806061 0.5661834478378296
vt 0.31446945667266846 0.5664834976196289
vt 0.31416159868240356 0.5664834976196289
vt 0.31385040283203125 0.5664834976196289
vt 0.31353920698165894 0.5664834976196289
vt 0.31385040283203125 0.5664834976196289
vt 0.31416159868240356 0.5664834976196289
vt 0.31385040283203125 0.5661323070526123
vt 0.31353917717933655 0.5661323070526123
vt 0.31385040283203125 0.5661323070526123
vt 0.3120414912700653 0.5669935345649719
vt 0.31322988867759705 0.5669935345649719
vt 0.3120414912700653 0.5669935345649719
vt 0.31416159868240356 0.5661323070526123
vt 0.31446945667266846 0.5661323070526123
vt 0.31416159868240356 0.5661323070526123
vt 0.31446945667266846 0.5669195652008057
vt 0.31416159868240356 0.5669195652008057
vt 0.31385040283203125 0.5669195652008057
vt 0.31353920698165894 0.5669195652008057
vt 0.31385040283203125 0.5669195652008057
vt 0.31416159868240356 0.5669195652008057
vt 0.3094688951969147 0.5117090940475464
vt 0.28328263759613037 0.5117090940475464
vt 0.28328263759613037 0.5117090940475464
vt 0.2586526572704315 0.5117090940475464
vt 0.2586529552936554 0.5046241283416748
vt 0.28328293561935425 0.5046241283416748
vt 0.28328263759613037 0.5117090940475464
vt 0.2586526572704315 0.5117090940475464
vt 0.28328263759613037 0.5117090940475464
vt 0.28328293561935425 0.5046241283416748
vt 0.2586529552936554 0.5046241283416748
vt 0.2586526572704315 0.5117090940475464
vt 0.3094688951969147 0.5117090940475464
vt 0.3342956006526947 0.5117090940475464
vt 0.3443334102630615 0.5280351042747498
vt 0.3541235625743866 0.5280351042747498
vt 0.3640197515487671 0.5280351042747498
vt 0.3739158809185028 0.5280351042747498
vt 0.34433409571647644 0.5280351042747498
vt 0.35423028469085693 0.5280351042747498
vt 0.34433409571647644 0.5141692757606506
vt 0.36412638425827026 0.5280351042747498
vt 0.3739165663719177 0.5280351042747498
vt 0.37391677498817444 0.5141692757606506
vt 0.3443329632282257 0.5030001401901245
vt 0.3739170432090759 0.5030002593994141
vt 0.36207354068756104 0.5452779531478882
vt 0.36207354068756104 0.5300778150558472
vt 0.3579694926738739 0.5376778841018677
vt 0.3702816069126129 0.5452779531478882
vt 0.3702816665172577 0.5300778150558472
vt 0.3743857145309448 0.5376778841018677
vt 0.312442809343338 0.5668326616287231
vt 0.3116196393966675 0.5668326616287231
vt 0.31084516644477844 0.5668326616287231
vt 0.3116196393966675 0.5668326616287231
vt 0.312442809343338 0.5668326616287231
vt 0.31322309374809265 0.5668326616287231
vt 0.31244298815727234 0.5664061307907104
vt 0.3116196095943451 0.5664061307907104
vt 0.3116196095943451 0.5664061307907104
vt 0.3116196095943451 0.5661834478378296
vt 0.31084510684013367 0.5664061307907104
vt 0.31084510684013367 0.5664061307907104
vt 0.31084510684013367 0.5661834478378296
vt 0.3116196095943451 0.5664061307907104
vt 0.3116196095943451 0.5664061307907104
vt 0.3116196095943451 0.5661834478378296
vt 0.31244298815727234 0.5664061307907104
vt 0.31244298815727234 0.5664061307907104
vt 0.31244292855262756 0.5661834478378296
vt 0.313223659992218 0.5664061307907104
vt 0.313223659992218 0.5664061307907104
vt 0.3132235109806061 0.5661834478378296
vt 0.31244292855262756 0.5661834478378296
vt 0.31244298815727234 0.5664061307907104
vt 0.31409701704978943 0.5674616694450378
vt 0.3139680325984955 0.5672227144241333
vt 0.31409701704978943 0.566983699798584
vt 0.31435513496398926 0.566983699798584
vt 0.31435513496398926 0.5674616694450378
vt 0.314484179019928 0.5672227144241333
vn -0.06167507916688919 0.6890819668769836 0.7220541834831238
vn -0.3889384865760803 0.5613818764686584 0.7304638028144836
vn -0.6276001334190369 0.29112860560417175 0.7220541834831238
vn -0.6806402206420898 -0.05613948404788971 0.7304637432098389
vn -0.5659249424934387 -0.39795324206352234 0.722054123878479
vn -0.29170194268226624 -0.6175214052200317 0.7304637432098389
vn 0.06167485937476158 -0.6890819668769836 0.7220541834831238
vn 0.3889380395412445 -0.5613821148872375 0.7304638028144836
vn 0.6275999546051025 -0.2911291718482971 0.7220541834831238
vn 0.6806402206420898 0.05613914504647255 0.7304637432098389
vn 0.5659253001213074 0.3979528248310089 0.7220541834831238
vn 0.29170212149620056 0.6175212860107422 0.7304638028144836
vn -0.028404392302036285 0.855069100856781 0.5177355408668518
vn -0.42580607533454895 0.7467827200889587 0.5108862519264221
vn -0.7547139525413513 0.4029354751110077 0.5177355408668518
vn -0.8596358299255371 0.004632602445781231 0.5108863115310669
vn -0.7263094186782837 -0.4521334767341614 0.5177354216575623
vn -0.4338299632072449 -0.7421501278877258 0.5108862519264221
vn 0.028404144570231438 -0.855069100856781 0.517735481262207
vn 0.4258056879043579 -0.7467828989028931 0.5108863115310669
vn 0.7547135353088379 -0.40293601155281067 0.517735481262207
vn 0.8596358299255371 -0.004633096046745777 0.5108863115310669
vn 0.7263097167015076 0.45213302969932556 0.5177355408668518
vn 0.43383026123046875 0.7421498894691467 0.5108863115310669
vn 2.6027402100226027e-07 1.0 -2.1246858494805565e-08
vn -0.5 0.8660253882408142 -3.187028596585151e-08
vn -0.866025447845459 0.4999999701976776 -5.311714179612181e-09
vn -1.0 8.49874268737949e-08 -5.311714179612181e-09
vn -0.8660256266593933 -0.4999998211860657 -8.498743397922226e-08
vn -0.5000003576278687 -0.8660253286361694 -2.6558572230328537e-08
vn -4.5149567995395046e-07 -1.0 1.5935141206568915e-08
vn 0.4999994933605194 -0.8660256862640381 -4.249371343689745e-08
vn 0.8660251498222351 -0.5000006556510925 -2.1246858494805565e-08
vn 1.0 -7.861337394388102e-07 -2.1246856718448726e-08
vn 0.8660258054733276 0.4999992847442627 -2.6558572230328537e-08
vn 0.5000006556510925 0.8660250306129456 -2.1246856718448726e-08
vn 0.011393817141652107 0.864977240562439 -0.501681923866272
vn -0.42262154817581177 0.7547890543937683 -0.501681923866272
vn -0.7433953881263733 0.4423557221889496 -0.5016818642616272
vn -0.8649771809577942 0.011393626220524311 -0.5016818046569824
vn -0.7547891139984131 -0.4226212799549103 -0.5016818046569824
vn -0.44235602021217346 -0.7433952689170837 -0.501681923866272
vn -0.01139396708458662 -0.864977240562439 -0.501681923866272
vn 0.42262107133865356 -0.7547893524169922 -0.5016818642616272
vn 0.7433950901031494 -0.44235625863075256 -0.5016818642616272
vn 0.8649771809577942 -0.011394226923584938 -0.5016818642616272
vn 0.7547893524169922 0.42262083292007446 -0.5016818642616272
vn 0.4423562288284302 0.7433950901031494 -0.5016818642616272
vn 0.03890989348292351 0.5435742139816284 -0.8384588956832886
vn -0.23809033632278442 0.4902038872241974 -0.838458776473999
vn -0.4512941837310791 0.30548393726348877 -0.838458776473999
vn -0.5435742139816284 0.038909777998924255 -0.838458776473999
vn -0.49020397663116455 -0.23809023201465607 -0.838458776473999
vn -0.3054840564727783 -0.4512941241264343 -0.838458776473999
vn -0.03890996426343918 -0.5435742139816284 -0.8384588956832886
vn 0.23809003829956055 -0.49020397663116455 -0.8384588360786438
vn 0.4512940049171448 -0.30548417568206787 -0.838458776473999
vn 0.5435741543769836 -0.03891009837388992 -0.838458776473999
vn 0.4902040362358093 0.238089919090271 -0.8384588360786438
vn 0.30548423528671265 0.4512939751148224 -0.838458776473999
vn -1.2886556710611785e-08 -4.3814292638444385e-08 -1.0
vn -0.489571213722229 0.8479626774787903 -0.20317316055297852
vn -0.96220862865448 0.1851772516965866 -0.19965951144695282
vn -0.6414726972579956 -0.7407083511352539 -0.1996595710515976
vn 0.32073575258255005 -0.9258858561515808 -0.19965960085391998
vn 0.9622085094451904 -0.18517783284187317 -0.1996595859527588
vn 0.4895719289779663 0.8479622006416321 -0.20317335426807404
vn 4.4801299736718647e-07 -2.5866052055789623e-07 1.0
vn 4.4801305421060533e-07 -2.5866052055789623e-07 1.0
vn 0.007723665796220303 0.004459257237613201 0.9999602437019348
vn 2.4862409223405657e-13 5.173210979592113e-07 1.0
vn -4.4801296894547704e-07 2.5866083319669997e-07 1.0
vn -4.480132815842808e-07 -2.5866006581054535e-07 1.0
vn -0.396244615316391 0.905125617980957 -0.15407150983810425
vn -0.9786980748176575 0.17764614522457123 -0.1029171347618103
vn -0.6522705554962158 -0.757962167263031 -0.006041102577000856
vn 0.3262088894844055 -0.9451988935470581 0.013668964616954327
vn 0.9784702062606812 -0.19662566483020782 -0.06272482872009277
vn 0.5683642625808716 0.8015263676643372 -0.18578892946243286
vn -0.324180006980896 -0.9458775520324707 0.01493164524435997
vn 0.6497622132301331 -0.7599696516990662 -0.01598137989640236
vn 0.9719285368919373 0.16447407007217407 -0.1682356894016266
vn -0.4895711839199066 0.8479626774787903 -0.20317332446575165
vn -0.9622086882591248 -0.18517696857452393 -0.1996595859527588
vn -0.3207365870475769 -0.9258855581283569 -0.1996595859527588
vn 0.6414719820022583 -0.7407089471817017 -0.1996595859527588
vn 0.9622088074684143 0.18517637252807617 -0.1996595412492752
vn 0.4895719587802887 0.8479622006416321 -0.20317342877388
vn -0.9730484485626221 -0.20496360957622528 -0.10567233711481094
vn -0.49317342042922974 0.8240090012550354 -0.27890700101852417
vn 0.4953083395957947 0.8222377896308899 -0.28034743666648865
vn 0.6224666237831116 0.020679915323853493 -0.7823730707168579
vn 0.31339019536972046 0.5430571436882019 -0.7790221571922302
vn -0.6302552819252014 -0.00840033870190382 -0.776342511177063
vn 0.06128251925110817 -0.8334429264068604 -0.5491970181465149
vn 0.4892423748970032 -0.7226184010505676 -0.4883284866809845
vn 0.7573538422584534 -0.35604366660118103 -0.5474013686180115
vn 0.8682276606559753 0.08597280085086823 -0.4886610507965088
vn 0.7008184194564819 0.45545968413352966 -0.5490081906318665
vn 0.3899546265602112 0.7796093225479126 -0.49004557728767395
vn -0.04353678598999977 0.8346309661865234 -0.5490864515304565
vn -0.4801838994026184 0.727515459060669 -0.49004557728767395
vn -0.7446151375770569 0.37939128279685974 -0.5491908192634583
vn -0.8661212921142578 -0.06337092071771622 -0.4958003759384155
vn -0.7002350091934204 -0.4542984664440155 -0.5507121086120605
vn -0.39131614565849304 -0.7758680582046509 -0.49487414956092834
vn 0.005269923713058233 -0.9999480843544006 -0.008719956502318382
vn 0.504854142665863 -0.8631909489631653 -0.00486471364274621
vn 0.8659601807594299 -0.5000910758972168 0.004675442818552256
vn 0.9998709559440613 0.01588709093630314 0.002378239994868636
vn 0.8657062649726868 0.5004703402519226 -0.009062918834388256
vn 0.4998953640460968 0.8660383820533752 -0.009063749574124813
vn -0.0003825381281785667 0.9999575018882751 -0.009212381206452847
vn -0.5000631213188171 0.8659415245056152 -0.009063621051609516
vn -0.866179883480072 0.4996476471424103 -0.009212474338710308
vn -0.9999582171440125 -0.00019582312961574644 -0.009141113609075546
vn -0.862766444683075 -0.5052333474159241 -0.019322868436574936
vn -0.5046014189720154 -0.8632491230964661 -0.013356544077396393
vn -0.01122225634753704 -0.8540368676185608 0.5200914740562439
vn 0.4172961115837097 -0.7452495694160461 0.5200644731521606
vn 0.7338634133338928 -0.43677473068237305 0.5202619433403015
vn 0.8540120124816895 -0.011143564246594906 0.5201339721679688
vn 0.7452145218849182 0.41732314229011536 0.5200930237770081
vn 0.4367145895957947 0.7340182065963745 0.5200939178466797
vn 0.011194928549230099 0.8540363311767578 0.5200929045677185
vn -0.41732078790664673 0.7452152371406555 0.5200938582420349
vn -0.7340195178985596 0.4367135763168335 0.5200930237770081
vn -0.8540357351303101 0.011197186075150967 0.5200938582420349
vn -0.7452481985092163 -0.41742780804634094 0.519960880279541
vn -0.43680262565612793 -0.7340087294578552 0.5200333595275879
vn -0.038546111434698105 -0.5401235222816467 0.8407025337219238
vn 0.23667991161346436 -0.4870336651802063 0.8407025933265686
vn 0.4484877288341522 -0.3034435510635376 0.8407025337219238
vn 0.5401235818862915 -0.03854607418179512 0.8407026529312134
vn 0.48703378438949585 0.2366798222064972 0.8407025337219238
vn 0.3034437298774719 0.44848766922950745 0.8407025337219238
vn 0.038546204566955566 0.5401235818862915 0.8407025337219238
vn -0.23667971789836884 0.487033873796463 0.8407025337219238
vn -0.4484874904155731 0.30344390869140625 0.8407025337219238
vn -0.5401235222816467 0.038546331226825714 0.8407025337219238
vn -0.4870339035987854 -0.23667952418327332 0.8407025337219238
vn -0.303443968296051 -0.4484874904155731 0.8407026529312134
vn 1.2893727863172444e-08 4.6417419241606694e-08 1.0
vn 0.4752195179462433 -0.8231850862503052 0.31069716811180115
vn 0.9349289536476135 -0.1796841025352478 0.3059763014316559
vn 0.6234338283538818 0.719854474067688 0.30518820881843567
vn -0.3117133378982544 0.8998406529426575 0.3051583766937256
vn -0.9352342486381531 0.17992357909679413 0.3049006462097168
vn -0.47541409730911255 -0.823422372341156 0.3097693622112274
vn 0.09226136654615402 -0.053267139941453934 -0.99430912733078
vn 0.09226136654615402 -0.053267139941453934 -0.99430912733078
vn 0.09226138144731522 0.05326708033680916 -0.99430912733078
vn 6.11229680202996e-08 0.10653427988290787 -0.99430912733078
vn -0.09226133674383163 0.053267184644937515 -0.99430912733078
vn -0.092261403799057 -0.05326704680919647 -0.99430912733078
vn 0.39468827843666077 -0.8946524858474731 0.20932775735855103
vn 0.973125159740448 -0.16951169073581696 0.1558627486228943
vn 0.6477074027061462 0.7596204280853271 0.058753497898578644
vn -0.3240661323070526 0.9452520608901978 0.038469210267066956
vn -0.9726352691650391 0.2021082043647766 0.11459898948669434
vn -0.5654082298278809 -0.7899560928344727 0.23724064230918884
vn 0.3218538165092468 0.9465442895889282 0.021541539579629898
vn -0.645427405834198 0.7619754672050476 0.05307374522089958
vn -0.9656428694725037 -0.15567508339881897 0.20808488130569458
vn 0.3136609196662903 -0.537489652633667 -0.7827655673027039
vn -0.31345000863075256 0.5427820086479187 -0.7791898250579834
vn -0.3181154727935791 -0.5440372228622437 -0.7764187455177307
vn 0.9667608737945557 0.21124930679798126 0.14403872191905975
vn 0.49000120162963867 -0.8103135228157043 0.32138895988464355
vn -0.4919619858264923 -0.8083570599555969 0.3233145475387573
vn 0.6531823873519897 -0.7472667694091797 0.12225078046321869
vn 0.9773731827735901 0.19374646246433258 0.08487630635499954
vn 0.3260645568370819 0.9437317252159119 0.055247724056243896
vn -0.6500222682952881 0.7572028636932373 0.0641474723815918
vn -0.977817177772522 -0.1828422099351883 0.10218852013349533
vn -0.3255174458026886 -0.9364762306213379 0.1305781751871109
vn 4.4801305421060533e-07 -2.5866052055789623e-07 1.0
vn 4.4801305421060533e-07 -2.5866052055789623e-07 1.0
vn 0.007723665796220303 0.004459257237613201 0.9999602437019348
vn 0.007723665796220303 0.004459257237613201 0.9999602437019348
vn 4.3967398255517764e-07 -0.02238541655242443 0.9997494220733643
vn 4.3967398255517764e-07 -0.02238541655242443 0.9997494220733643
vn 4.3967398255517764e-07 -0.02238541655242443 0.9997494220733643
vn 2.4862409223405657e-13 5.173210979592113e-07 1.0
vn 2.4862409223405657e-13 5.173210979592113e-07 1.0
vn -0.01938384771347046 0.02010667882859707 0.9996099472045898
vn -0.01938384771347046 0.02010667882859707 0.9996099472045898
vn -0.01938384771347046 0.02010667882859707 0.9996099472045898
vn -4.4801296894547704e-07 2.5866083319669997e-07 1.0
vn -4.480132815842808e-07 -2.5866006581054535e-07 1.0
vn -0.6542040705680847 0.753948986530304 -0.05981781706213951
vn -0.9816240668296814 -0.18982933461666107 -0.019469115883111954
vn -0.32758399844169617 -0.944736659526825 0.012705019675195217
vn 0.6541017293930054 -0.7563936710357666 0.004424083512276411
vn 0.6541017293930054 -0.7563936710357666 0.004424083512276411
vn 0.981510579586029 0.18798811733722687 -0.036020342260599136
vn 0.3262088894844055 -0.9451988935470581 0.013668964616954327
vn 0.32684028148651123 0.9426261186599731 -0.06805446743965149
vn -0.6542040705680847 0.753948986530304 -0.05981781706213951
vn -0.396244615316391 0.905125617980957 -0.15407150983810425
vn 0.6497622132301331 -0.7599696516990662 -0.01598137989640236
vn -0.49317342042922974 0.8240090012550354 -0.27890700101852417
vn 8.692421147316054e-07 0.17364858090877533 0.9848076701164246
vn 8.692421147316054e-07 0.17364858090877533 0.9848076701164246
vn 8.692421147316054e-07 0.17364858090877533 0.9848076701164246
vn 7.474319829725573e-08 0.17364858090877533 0.9848076701164246
vn 7.474319829725573e-08 0.17364858090877533 0.9848076701164246
vn -7.010025910858531e-07 0.17364859580993652 0.9848076701164246
vn 0.4753119945526123 -0.8230871558189392 0.3108155131340027
vn 0.9349303841590881 0.18014994263648987 0.30569785833358765
vn 0.311728835105896 0.8998351097106934 0.30515918135643005
vn -0.6234291791915894 0.7198641896247864 0.3051747679710388
vn -0.9353125691413879 -0.18004891276359558 0.3045862913131714
vn -0.47537896037101746 -0.8234931230545044 0.30963513255119324
vn 0.09226136654615402 -0.053267139941453934 -0.99430912733078
vn 0.09226134419441223 -0.05326713249087334 -0.99430912733078
vn 0.09226138144731522 0.05326708033680916 -0.99430912733078
vn 0.09226138144731522 0.05326708033680916 -0.99430912733078
vn 0.09226139634847641 0.05326711758971214 -0.99430912733078
vn 6.11229680202996e-08 0.10653427988290787 -0.99430912733078
vn 6.11229680202996e-08 0.10653427988290787 -0.99430912733078
vn 6.548285824692357e-08 0.10653427243232727 -0.99430912733078
vn -0.09226133674383163 0.053267184644937515 -0.99430912733078
vn -0.09226133674383163 0.053267184644937515 -0.99430912733078
vn -0.09226133674383163 0.053267188370227814 -0.99430912733078
vn -0.092261403799057 -0.05326704680919647 -0.99430912733078
vn -0.092261403799057 -0.05326704680919647 -0.99430912733078
vn -0.09226138889789581 -0.053267043083906174 -0.99430912733078
vn -3.667374315341476e-08 -0.10653425753116608 -0.99430912733078
vn -3.667374315341476e-08 -0.10653425753116608 -0.99430912733078
vn -3.667374315341476e-08 -0.10653425753116608 -0.99430912733078
vn -2.6193115232331365e-08 -0.10653426498174667 -0.99430912733078
vn -0.00021583466150332242 -0.17342382669448853 -0.984847366809845
vn -0.00021583466150332242 -0.17342382669448853 -0.984847366809845
vn -0.00021583466150332242 -0.17342382669448853 -0.984847366809845
vn -1.1091142937402765e-07 -0.17342375218868256 -0.9848473072052002
vn 4.1557041186024435e-07 -0.17342405021190643 -0.9848472476005554
vn 0.00021416915114969015 -0.1734241396188736 -0.9848473072052002
f 167/167/167 95/95/95 106/106/106
f 95/95/95 165/165/165 96/96/96
f 94/94/94 105/105/105 104/104/104
f 105/105/105 167/167/167 106/106/106
f 166/166/166 103/103/103 102/102/102
f 103/103/103 94/94/94 104/104/104
f 93/93/93 101/101/101 100/100/100
f 101/101/101 166/166/166 102/102/102
f 92/92/92 99/99/99 98/98/98
f 99/99/99 93/93/93 100/100/100
f 165/165/165 97/97/97 96/96/96
f 97/97/97 92/92/92 98/98/98
f 237/237/237 236/236/236 238/238/238
f 236/236/236 237/237/237 233/233/233
f 233/233/233 235/235/235 236/236/236
f 233/233/233 234/234/234 235/235/235
f 169/169/169 156/156/156 161/161/161
f 161/161/161 170/170/170 169/169/169
f 164/164/164 170/170/170 161/161/161
f 161/161/161 160/160/160 164/164/164
f 163/163/163 164/164/164 160/160/160
f 160/160/160 159/159/159 163/163/163
f 162/162/162 163/163/163 159/159/159
f 159/159/159 158/158/158 162/162/162
f 168/168/168 162/162/162 158/158/158
f 158/158/158 157/157/157 168/168/168
f 169/169/169 168/168/168 157/157/157
f 157/157/157 156/156/156 169/169/169
f 156/156/156 171/171/171 176/176/176
f 176/176/176 161/161/161 156/156/156
f 161/161/161 176/176/176 175/175/175
f 175/175/175 160/160/160 161/161/161
f 160/160/160 175/175/175 174/174/174
f 174/174/174 159/159/159 160/160/160
f 159/159/159 174/174/174 173/173/173
f 173/173/173 158/158/158 159/159/159
f 158/158/158 173/173/173 172/172/172
f 172/172/172 157/157/157 158/158/158
f 157/157/157 172/172/172 171/171/171
f 171/171/171 156/156/156 157/157/157
f 231/231/231 232/232/232 229/229/229
f 229/229/229 230/230/230 231/231/231
f 155/155/155 228/228/228 226/226/226
f 226/226/226 227/227/227 155/155/155
f 154/154/154 225/225/225 223/223/223
f 223/223/223 224/224/224 154/154/154
f 153/153/153 222/222/222 220/220/220
f 220/220/220 221/221/221 153/153/153
f 152/152/152 219/219/219 217/217/217
f 217/217/217 218/218/218 152/152/152
f 151/151/151 216/216/216 215/215/215
f 215/215/215 150/150/150 151/151/151
f 149/149/149 144/144/144 209/209/209
f 209/209/209 214/214/214 149/149/149
f 149/149/149 214/214/214 213/213/213
f 213/213/213 148/148/148 149/149/149
f 148/148/148 213/213/213 212/212/212
f 212/212/212 147/147/147 148/148/148
f 147/147/147 212/212/212 211/211/211
f 211/211/211 146/146/146 147/147/147
f 146/146/146 211/211/211 210/210/210
f 210/210/210 145/145/145 146/146/146
f 145/145/145 210/210/210 209/209/209
f 209/209/209 144/144/144 145/145/145
f 143/143/143 142/142/142 131/131/131
f 143/143/143 141/141/141 142/142/142
f 143/143/143 140/140/140 141/141/141
f 143/143/143 139/139/139 140/140/140
f 143/143/143 138/138/138 139/139/139
f 143/143/143 137/137/137 138/138/138
f 143/143/143 136/136/136 137/137/137
f 143/143/143 135/135/135 136/136/136
f 143/143/143 134/134/134 135/135/135
f 143/143/143 133/133/133 134/134/134
f 143/143/143 132/132/132 133/133/133
f 143/143/143 131/131/131 132/132/132
f 130/130/130 119/119/119 131/131/131
f 131/131/131 142/142/142 130/130/130
f 129/129/129 130/130/130 142/142/142
f 142/142/142 141/141/141 129/129/129
f 128/128/128 129/129/129 141/141/141
f 141/141/141 140/140/140 128/128/128
f 127/127/127 128/128/128 140/140/140
f 140/140/140 139/139/139 127/127/127
f 126/126/126 127/127/127 139/139/139
f 139/139/139 138/138/138 126/126/126
f 125/125/125 126/126/126 138/138/138
f 138/138/138 137/137/137 125/125/125
f 124/124/124 125/125/125 137/137/137
f 137/137/137 136/136/136 124/124/124
f 123/123/123 124/124/124 136/136/136
f 136/136/136 135/135/135 123/123/123
f 122/122/122 123/123/123 135/135/135
f 135/135/135 134/134/134 122/122/122
f 121/121/121 122/122/122 134/134/134
f 134/134/134 133/133/133 121/121/121
f 120/120/120 121/121/121 133/133/133
f 133/133/133 132/132/132 120/120/120
f 119/119/119 120/120/120 132/132/132
f 132/132/132 131/131/131 119/119/119
f 118/118/118 107/107/107 119/119/119
f 119/119/119 130/130/130 118/118/118
f 117/117/117 118/118/118 130/130/130
f 130/130/130 129/129/129 117/117/117
f 116/116/116 117/117/117 129/129/129
f 129/129/129 128/128/128 116/116/116
f 115/115/115 116/116/116 128/128/128
f 128/128/128 127/127/127 115/115/115
f 114/114/114 115/115/115 127/127/127
f 127/127/127 126/126/126 114/114/114
f 113/113/113 114/114/114 126/126/126
f 126/126/126 125/125/125 113/113/113
f 112/112/112 113/113/113 125/125/125
f 125/125/125 124/124/124 112/112/112
f 111/111/111 112/112/112 124/124/124
f 124/124/124 123/123/123 111/111/111
f 110/110/110 111/111/111 123/123/123
f 123/123/123 122/122/122 110/110/110
f 109/109/109 110/110/110 122/122/122
f 122/122/122 121/121/121 109/109/109
f 108/108/108 109/109/109 121/121/121
f 121/121/121 120/120/120 108/108/108
f 107/107/107 108/108/108 120/120/120
f 120/120/120 119/119/119 107/107/107
f 106/106/106 95/95/95 107/107/107
f 107/107/107 118/118/118 106/106/106
f 105/105/105 106/106/106 118/118/118
f 118/118/118 117/117/117 105/105/105
f 104/104/104 105/105/105 117/117/117
f 117/117/117 116/116/116 104/104/104
f 103/103/103 104/104/104 116/116/116
f 116/116/116 115/115/115 103/103/103
f 102/102/102 103/103/103 115/115/115
f 115/115/115 114/114/114 102/102/102
f 101/101/101 102/102/102 114/114/114
f 114/114/114 113/113/113 101/101/101
f 100/100/100 101/101/101 113/113/113
f 113/113/113 112/112/112 100/100/100
f 99/99/99 100/100/100 112/112/112
f 112/112/112 111/111/111 99/99/99
f 98/98/98 99/99/99 111/111/111
f 111/111/111 110/110/110 98/98/98
f 97/97/97 98/98/98 110/110/110
f 110/110/110 109/109/109 97/97/97
f 96/96/96 97/97/97 109/109/109
f 109/109/109 108/108/108 96/96/96
f 95/95/95 96/96/96 108/108/108
f 108/108/108 107/107/107 95/95/95
f 167/167/167 165/165/165 95/95/95
f 94/94/94 167/167/167 105/105/105
f 166/166/166 94/94/94 103/103/103
f 93/93/93 166/166/166 101/101/101
f 92/92/92 93/93/93 99/99/99
f 165/165/165 92/92/92 97/97/97
f 206/206/206 208/208/208 207/207/207
f 207/207/207 204/204/204 203/203/203
f 203/203/203 206/206/206 207/207/207
f 203/203/203 204/204/204 205/205/205
f 202/202/202 91/91/91 79/79/79
f 79/79/79 200/200/200 202/202/202
f 82/82/82 78/78/78 79/79/79
f 79/79/79 91/91/91 82/82/82
f 201/201/201 197/197/197 78/78/78
f 78/78/78 82/82/82 201/201/201
f 80/80/80 76/76/76 77/77/77
f 77/77/77 81/81/81 80/80/80
f 89/89/89 75/75/75 76/76/76
f 76/76/76 80/80/80 89/89/89
f 90/90/90 74/74/74 75/75/75
f 75/75/75 89/89/89 90/90/90
f 200/200/200 79/79/79 198/198/198
f 198/198/198 199/199/199 200/200/200
f 79/79/79 78/78/78 196/196/196
f 196/196/196 198/198/198 79/79/79
f 78/78/78 197/197/197 195/195/195
f 195/195/195 196/196/196 78/78/78
f 77/77/77 76/76/76 193/193/193
f 193/193/193 194/194/194 77/77/77
f 76/76/76 75/75/75 192/192/192
f 192/192/192 193/193/193 76/76/76
f 75/75/75 74/74/74 191/191/191
f 191/191/191 192/192/192 75/75/75
f 68/68/68 73/73/73 190/190/190
f 190/190/190 177/177/177 68/68/68
f 73/73/73 72/72/72 189/189/189
f 189/189/189 190/190/190 73/73/73
f 72/72/72 71/71/71 185/185/185
f 185/185/185 189/189/189 72/72/72
f 186/186/186 187/187/187 188/188/188
f 184/184/184 185/185/185 71/71/71
f 181/181/181 182/182/182 183/183/183
f 179/179/179 180/180/180 70/70/70
f 69/69/69 68/68/68 177/177/177
f 177/177/177 178/178/178 69/69/69
f 67/67/67 88/88/88 83/83/83
f 83/83/83 62/62/62 67/67/67
f 67/67/67 66/66/66 87/87/87
f 87/87/87 88/88/88 67/67/67
f 66/66/66 65/65/65 86/86/86
f 86/86/86 87/87/87 66/66/66
f 65/65/65 64/64/64 85/85/85
f 85/85/85 86/86/86 65/65/65
f 64/64/64 63/63/63 84/84/84
f 84/84/84 85/85/85 64/64/64
f 63/63/63 62/62/62 83/83/83
f 83/83/83 84/84/84 63/63/63
f 61/61/61 49/49/49 60/60/60
f 61/61/61 60/60/60 59/59/59
f 61/61/61 59/59/59 58/58/58
f 61/61/61 58/58/58 57/57/57
f 61/61/61 57/57/57 56/56/56
f 61/61/61 56/56/56 55/55/55
f 61/61/61 55/55/55 54/54/54
f 61/61/61 54/54/54 53/53/53
f 61/61/61 53/53/53 52/52/52
f 61/61/61 52/52/52 51/51/51
f 61/61/61 51/51/51 50/50/50
f 61/61/61 50/50/50 49/49/49
f 48/48/48 60/60/60 49/49/49
f 49/49/49 37/37/37 48/48/48
f 47/47/47 59/59/59 60/60/60
f 60/60/60 48/48/48 47/47/47
f 46/46/46 58/58/58 59/59/59
f 59/59/59 47/47/47 46/46/46
f 45/45/45 57/57/57 58/58/58
f 58/58/58 46/46/46 45/45/45
f 44/44/44 56/56/56 57/57/57
f 57/57/57 45/45/45 44/44/44
f 43/43/43 55/55/55 56/56/56
f 56/56/56 44/44/44 43/43/43
f 42/42/42 54/54/54 55/55/55
f 55/55/55 43/43/43 42/42/42
f 41/41/41 53/53/53 54/54/54
f 54/54/54 42/42/42 41/41/41
f 40/40/40 52/52/52 53/53/53
f 53/53/53 41/41/41 40/40/40
f 39/39/39 51/51/51 52/52/52
f 52/52/52 40/40/40 39/39/39
f 38/38/38 50/50/50 51/51/51
f 51/51/51 39/39/39 38/38/38
f 37/37/37 49/49/49 50/50/50
f 50/50/50 38/38/38 37/37/37
f 36/36/36 48/48/48 37/37/37
f 37/37/37 25/25/25 36/36/36
f 35/35/35 47/47/47 48/48/48
f 48/48/48 36/36/36 35/35/35
f 34/34/34 46/46/46 47/47/47
f 47/47/47 35/35/35 34/34/34
f 33/33/33 45/45/45 46/46/46
f 46/46/46 34/34/34 33/33/33
f 32/32/32 44/44/44 45/45/45
f 45/45/45 33/33/33 32/32/32
f 31/31/31 43/43/43 44/44/44
f 44/44/44 32/32/32 31/31/31
f 30/30/30 42/42/42 43/43/43
f 43/43/43 31/31/31 30/30/30
f 29/29/29 41/41/41 42/42/42
f 42/42/42 30/30/30 29/29/29
f 28/28/28 40/40/40 41/41/41
f 41/41/41 29/29/29 28/28/28
f 27/27/27 39/39/39 40/40/40
f 40/40/40 28/28/28 27/27/27
f 26/26/26 38/38/38 39/39/39
f 39/39/39 27/27/27 26/26/26
f 25/25/25 37/37/37 38/38/38
f 38/38/38 26/26/26 25/25/25
f 24/24/24 36/36/36 25/25/25
f 25/25/25 13/13/13 24/24/24
f 23/23/23 35/35/35 36/36/36
f 36/36/36 24/24/24 23/23/23
f 22/22/22 34/34/34 35/35/35
f 35/35/35 23/23/23 22/22/22
f 21/21/21 33/33/33 34/34/34
f 34/34/34 22/22/22 21/21/21
f 20/20/20 32/32/32 33/33/33
f 33/33/33 21/21/21 20/20/20
f 19/19/19 31/31/31 32/32/32
f 32/32/32 20/20/20 19/19/19
f 18/18/18 30/30/30 31/31/31
f 31/31/31 19/19/19 18/18/18
f 17/17/17 29/29/29 30/30/30
f 30/30/30 18/18/18 17/17/17
f 16/16/16 28/28/28 29/29/29
f 29/29/29 17/17/17 16/16/16
f 15/15/15 27/27/27 28/28/28
f 28/28/28 16/16/16 15/15/15
f 14/14/14 26/26/26 27/27/27
f 27/27/27 15/15/15 14/14/14
f 13/13/13 25/25/25 26/26/26
f 26/26/26 14/14/14 13/13/13
f 12/12/12 24/24/24 13/13/13
f 13/13/13 1/1/1 12/12/12
f 11/11/11 23/23/23 24/24/24
f 24/24/24 12/12/12 11/11/11
f 10/10/10 22/22/22 23/23/23
f 23/23/23 11/11/11 10/10/10
f 9/9/9 21/21/21 22/22/22
f 22/22/22 10/10/10 9/9/9
f 8/8/8 20/20/20 21/21/21
f 21/21/21 9/9/9 8/8/8
f 7/7/7 19/19/19 20/20/20
f 20/20/20 8/8/8 7/7/7
f 6/6/6 18/18/18 19/19/19
f 19/19/19 7/7/7 6/6/6
f 5/5/5 17/17/17 18/18/18
f 18/18/18 6/6/6 5/5/5
f 4/4/4 16/16/16 17/17/17
f 17/17/17 5/5/5 4/4/4
f 3/3/3 15/15/15 16/16/16
f 16/16/16 4/4/4 3/3/3
f 2/2/2 14/14/14 15/15/15
f 15/15/15 3/3/3 2/2/2
f 1/1/1 13/13/13 14/14/14
f 14/14/14 2/2/2 1/1/1
