# Recovered local-space geometry; original node transforms not applied
o mesh_0
v -240.07247924804688 -13.898178100585938 -4.496665000915527
v -164.33709716796875 -10.209953308105469 -4.496515274047852
v -164.33067321777344 10.299118041992188 -4.506694793701172
v -240.07191467285156 14.614547729492188 -4.511562347412109
v -88.5975570678711 -6.521625518798828 -4.496363162994385
v -12.858838081359863 -2.8333163261413574 -4.496211528778076
v -12.855452537536621 1.6682395935058594 -4.496957778930664
v -88.59346008300781 5.983676910400391 -4.501826286315918
v -315.79803466796875 18.930023193359375 -4.5164337158203125
v -391.5390930175781 23.245513916015625 -4.521300315856934
v -391.5589599609375 -21.2747802734375 -4.496973037719727
v -315.8231201171875 -17.586456298828125 -4.496822357177734
v -240.07191467285156 14.614547729492188 -4.511562347412109
v -164.33067321777344 10.299118041992188 -4.506694793701172
v -164.33709716796875 -10.209953308105469 -4.496515274047852
v -240.07247924804688 -13.898178100585938 -4.496665000915527
v -88.59346008300781 5.983676910400391 -4.501826286315918
v -12.855452537536621 1.6682395935058594 -4.496957778930664
v -12.858838081359863 -2.8333163261413574 -4.496211528778076
v -88.5975570678711 -6.521625518798828 -4.496363162994385
v -315.8231201171875 -17.586456298828125 -4.496822357177734
v -391.5589599609375 -21.2747802734375 -4.496973037719727
v -391.5390930175781 23.245513916015625 -4.521300315856934
v -315.79803466796875 18.930023193359375 -4.5164337158203125
vt 0.823511004447937 0.4051175117492676
vt 0.7560458183288574 0.5944454669952393
vt 0.2536327838897705 0.5944416522979736
vt 0.18617147207260132 0.40511494874954224
vt 0.6885806322097778 0.7837734818458557
vt 0.6211154460906982 0.9731014966964722
vt 0.3885554373264313 0.973095178604126
vt 0.3210940957069397 0.7837684154510498
vt 0.11871013045310974 0.21578818559646606
vt 0.05124880373477936 0.026461482048034668
vt 0.9584413170814514 0.026461482048034668
vt 0.8909761309623718 0.21578949689865112
vt 0.18617147207260132 0.40511494874954224
vt 0.2536327838897705 0.5944416522979736
vt 0.7560458183288574 0.5944454669952393
vt 0.823511004447937 0.4051175117492676
vt 0.3210940957069397 0.7837684154510498
vt 0.3885554373264313 0.973095178604126
vt 0.6211154460906982 0.9731014966964722
vt 0.6885806322097778 0.7837734818458557
vt 0.8909761309623718 0.21578949689865112
vt 0.9584413170814514 0.026461482048034668
vt 0.05124880373477936 0.026461482048034668
vt 0.11871013045310974 0.21578818559646606
vn -3.0067376428632997e-05 0.0005273455753922462 0.9999998807907104
vn -2.9861968869226985e-05 0.0005050617037340999 0.9999998807907104
vn -3.385113086551428e-05 0.0004765271150972694 0.9999998807907104
vn -3.2653384550940245e-05 0.000513771956320852 0.9999998807907104
vn -2.961494647024665e-05 0.00045670001418329775 0.9999998807907104
vn -3.9054833905538544e-05 0.0003013447276316583 0.9999999403953552
vn -5.4832882597111166e-05 0.00016581726958975196 1.0
vn -3.916611603926867e-05 0.0003465223126113415 0.9999999403953552
vn -3.214433672837913e-05 0.000532211153768003 0.9999998807907104
vn -3.112667764071375e-05 0.0005417609354481101 0.9999998807907104
vn -2.860128734027967e-05 0.0005464438581839204 0.9999999403953552
vn -3.0160217647789977e-05 0.0005401987000368536 0.9999998807907104
vn 3.2653384550940245e-05 -0.000513771956320852 -0.9999998807907104
vn 3.385113086551428e-05 -0.0004765271150972694 -0.9999998807907104
vn 2.9861968869226985e-05 -0.0005050617037340999 -0.9999998807907104
vn 3.0067376428632997e-05 -0.0005273455753922462 -0.9999998807907104
vn 3.916611603926867e-05 -0.0003465223126113415 -0.9999999403953552
vn 5.4832882597111166e-05 -0.00016581726958975196 -1.0
vn 3.9054833905538544e-05 -0.0003013447276316583 -0.9999999403953552
vn 2.961494647024665e-05 -0.00045670001418329775 -0.9999998807907104
vn 3.0160217647789977e-05 -0.0005401987000368536 -0.9999998807907104
vn 2.860128734027967e-05 -0.0005464438581839204 -0.9999999403953552
vn 3.112667764071375e-05 -0.0005417609354481101 -0.9999998807907104
vn 3.214433672837913e-05 -0.000532211153768003 -0.9999998807907104
f 24/24/24 13/13/13 16/16/16
f 1/1/1 4/4/4 9/9/9
f 16/16/16 21/21/21 24/24/24
f 9/9/9 12/12/12 1/1/1
f 23/23/23 24/24/24 21/21/21
f 12/12/12 9/9/9 10/10/10
f 21/21/21 22/22/22 23/23/23
f 10/10/10 11/11/11 12/12/12
f 20/20/20 15/15/15 14/14/14
f 3/3/3 2/2/2 5/5/5
f 14/14/14 17/17/17 20/20/20
f 5/5/5 8/8/8 3/3/3
f 19/19/19 20/20/20 17/17/17
f 8/8/8 5/5/5 6/6/6
f 17/17/17 18/18/18 19/19/19
f 6/6/6 7/7/7 8/8/8
f 15/15/15 16/16/16 13/13/13
f 4/4/4 1/1/1 2/2/2
f 13/13/13 14/14/14 15/15/15
f 2/2/2 3/3/3 4/4/4
