# Recovered local-space geometry; original node transforms not applied
o mesh_0
v -9.319066975876922e-07 29.093931198120117 39.175106048583984
v -9.242068017556448e-07 -29.093929290771484 39.175106048583984
v 14.546934127807617 -25.196090698242188 39.175106048583984
v 25.196062088012695 -14.546978950500488 39.175106048583984
v 29.093914031982422 -2.101948848576285e-05 39.175106048583984
v 25.196083068847656 14.54693603515625 39.175106048583984
v 14.546980857849121 25.196063995361328 39.175106048583984
v -9.319066975876922e-07 43.316986083984375 22.160486221313477
v -9.633469062464428e-07 -43.316986083984375 22.160484313964844
v 21.658456802368164 -37.513633728027344 22.160484313964844
v 37.513587951660156 -21.65852165222168 22.160486221313477
v 43.316978454589844 -3.410176213947125e-05 22.160486221313477
v 37.51361846923828 21.65846061706543 22.160486221313477
v 21.658527374267578 37.51359176635742 22.160486221313477
v 23.76038360595703 41.15408706665039 3.086985316258506e-07
v -9.358447528029501e-07 1.4177069829202082e-07 48.491485595703125
v -14.54693603515625 -25.196090698242188 39.175106048583984
v -25.196062088012695 -14.546978950500488 39.175106048583984
v -29.093914031982422 -2.101948848576285e-05 39.175106048583984
v -25.196083068847656 14.54693603515625 39.175106048583984
v -14.546982765197754 25.196063995361328 39.175106048583984
v -21.658456802368164 -37.513633728027344 22.160484313964844
v -37.513587951660156 -21.65852165222168 22.160486221313477
v -43.316978454589844 -3.410176213947125e-05 22.160486221313477
v -37.51361846923828 21.65846061706543 22.160486221313477
v -21.658527374267578 37.51359176635742 22.160486221313477
v -23.760292053222656 -41.15412521362305 -5.247873673397407e-07
v 23.760292053222656 -41.15412521362305 -5.247873673397407e-07
v 41.154083251953125 -23.760377883911133 2.7782863298853044e-07
v 47.520668029785156 -4.5685053919442e-05 3.0869845346614966e-08
v 41.15412521362305 23.760290145874023 1.234793103321863e-07
v -9.319066975876922e-07 -47.520668029785156 0.0
v -41.154083251953125 -23.760377883911133 2.7782863298853044e-07
v -47.520668029785156 -4.5685053919442e-05 3.0869845346614966e-08
v -41.15412521362305 23.760290145874023 1.234793103321863e-07
v -23.76038360595703 41.15408706665039 3.086985316258506e-07
v -9.515970873508195e-07 2.520376085612952e-07 -48.491485595703125
v -9.319066975876922e-07 29.093931198120117 -39.175106048583984
v -9.165069059235975e-07 -29.093929290771484 -39.175106048583984
v 14.546931266784668 -25.19609260559082 -39.175106048583984
v 25.196060180664062 -14.546980857849121 -39.175106048583984
v 29.093914031982422 -2.3732260160613805e-05 -39.175106048583984
v 25.196086883544922 14.546934127807617 -39.175106048583984
v 14.546982765197754 25.196062088012695 -39.175106048583984
v -9.004664889289415e-07 -43.316986083984375 -22.160484313964844
v 21.6584529876709 -37.513633728027344 -22.160484313964844
v 37.513587951660156 -21.658527374267578 -22.160486221313477
v 43.316978454589844 -3.77250398742035e-05 -22.160486221313477
v 37.51361846923828 21.658456802368164 -22.160486221313477
v 21.658531188964844 37.51359176635742 -22.160486221313477
v -14.5469331741333 -25.19609260559082 -39.175106048583984
v -25.196060180664062 -14.546980857849121 -39.175106048583984
v -29.093914031982422 -2.3732260160613805e-05 -39.175106048583984
v -25.196086883544922 14.546934127807617 -39.175106048583984
v -14.546984672546387 25.196062088012695 -39.175106048583984
v -9.633469062464428e-07 43.316986083984375 -22.160486221313477
v -21.6584529876709 -37.513633728027344 -22.160484313964844
v -37.513587951660156 -21.658527374267578 -22.160486221313477
v -43.316978454589844 -3.77250398742035e-05 -22.160486221313477
v -37.51361846923828 21.658456802368164 -22.160486221313477
v -21.658531188964844 37.51359176635742 -22.160486221313477
v -9.319066975876922e-07 47.52067947387695 0.0
v -9.242068017556448e-07 -29.093929290771484 39.175106048583984
v 14.546934127807617 -25.196090698242188 39.175106048583984
v 25.196062088012695 -14.546978950500488 39.175106048583984
v 29.093914031982422 -2.101948848576285e-05 39.175106048583984
v 25.196083068847656 14.54693603515625 39.175106048583984
v 14.546980857849121 25.196063995361328 39.175106048583984
v -9.319066975876922e-07 29.093931198120117 39.175106048583984
v -14.54693603515625 -25.196090698242188 39.175106048583984
v -25.196062088012695 -14.546978950500488 39.175106048583984
v -29.093914031982422 -2.101948848576285e-05 39.175106048583984
v -25.196083068847656 14.54693603515625 39.175106048583984
v -14.546982765197754 25.196063995361328 39.175106048583984
vt 0.4236697554588318 0.5706160068511963
vt 0.4236697554588318 0.5750784873962402
vt 0.4225541353225708 0.5747796297073364
vt 0.4217374324798584 0.573962926864624
vt 0.4214385151863098 0.5728472471237183
vt 0.4217374324798584 0.571731686592102
vt 0.4225541353225708 0.5709149837493896
vt 0.42716360092163086 0.5713565349578857
vt 0.42716503143310547 0.5713565349578857
vt 0.42635709047317505 0.5713565349578857
vt 0.42522209882736206 0.5713565349578857
vt 0.42394375801086426 0.5713565349578857
vt 0.4252206087112427 0.5713565349578857
vt 0.42635560035705566 0.5713565349578857
vt 0.4265897274017334 0.5727038383483887
vt 0.4236697554588318 0.5728472471237183
vt 0.4225541353225708 0.5747796297073364
vt 0.4217374324798584 0.573962926864624
vt 0.4214385151863098 0.5728472471237183
vt 0.4217374324798584 0.571731686592102
vt 0.4225541353225708 0.5709149837493896
vt 0.42635709047317505 0.5713565349578857
vt 0.42522209882736206 0.5713565349578857
vt 0.42394375801086426 0.5713565349578857
vt 0.4252206087112427 0.5713565349578857
vt 0.42635560035705566 0.5713565349578857
vt 0.426591157913208 0.5727038383483887
vt 0.426591157913208 0.5727038383483887
vt 0.4253460168838501 0.5727038383483887
vt 0.42394375801086426 0.5727038383483887
vt 0.4253445863723755 0.5727038383483887
vt 0.42747753858566284 0.5727038383483887
vt 0.4253460168838501 0.5727038383483887
vt 0.42394375801086426 0.5727038383483887
vt 0.4253445863723755 0.5727038383483887
vt 0.4265897274017334 0.5727038383483887
vt 0.42394375801086426 0.5756606459617615
vt 0.42624908685684204 0.5751606225967407
vt 0.4262505769729614 0.5751606225967407
vt 0.42563939094543457 0.5750739574432373
vt 0.4248073697090149 0.5750566720962524
vt 0.42394375801086426 0.5750566720962524
vt 0.4248058795928955 0.5750566720962524
vt 0.4256379008293152 0.5750739574432373
vt 0.42716503143310547 0.5740338563919067
vt 0.42635709047317505 0.5740338563919067
vt 0.42522209882736206 0.5740338563919067
vt 0.42394375801086426 0.5740338563919067
vt 0.4252206087112427 0.5740338563919067
vt 0.42635560035705566 0.5740338563919067
vt 0.42563939094543457 0.5750739574432373
vt 0.4248073697090149 0.5750566720962524
vt 0.42394375801086426 0.5750566720962524
vt 0.4248058795928955 0.5750566720962524
vt 0.4256379008293152 0.5750739574432373
vt 0.42716360092163086 0.5740338563919067
vt 0.42635709047317505 0.5740338563919067
vt 0.42522209882736206 0.5740338563919067
vt 0.42394375801086426 0.5740338563919067
vt 0.4252206087112427 0.5740338563919067
vt 0.42635560035705566 0.5740338563919067
vt 0.42747610807418823 0.5727038383483887
vt 0.4263593554496765 0.5702817440032959
vt 0.4256882667541504 0.5702817440032959
vt 0.4248073697090149 0.5702817440032959
vt 0.42394375801086426 0.5702817440032959
vt 0.4248058795928955 0.5702817440032959
vt 0.4256868362426758 0.5702817440032959
vt 0.4263579249382019 0.5702817440032959
vt 0.4256882667541504 0.5702817440032959
vt 0.4248073697090149 0.5702817440032959
vt 0.42394375801086426 0.5702817440032959
vt 0.4248058795928955 0.5702817440032959
vt 0.4256868362426758 0.5702817440032959
vn 0.0 -0.5561069846153259 -0.8311108350753784
vn -2.613015803731855e-09 0.6337374448776245 -0.7735483646392822
vn -0.3381510376930237 0.5008766651153564 -0.7967287302017212
vn -0.5432856678962708 0.26469647884368896 -0.7967287302017212
vn -0.6028473973274231 -0.04240890592336655 -0.7967286109924316
vn -0.5008769631385803 -0.33815068006515503 -0.7967285513877869
vn -0.2646966874599457 -0.5432856678962708 -0.7967286705970764
vn 2.6207811476552934e-09 -0.8629101514816284 -0.5053573846817017
vn 0.0 0.9369924068450928 -0.3493497371673584
vn -0.4597533643245697 0.7774883508682251 -0.42911389470100403
vn -0.7869021892547607 0.4434479773044586 -0.42911404371261597
vn -0.9032013416290283 -0.009413901716470718 -0.42911413311958313
vn -0.7774885296821594 -0.45975297689437866 -0.4291139543056488
vn -0.44344809651374817 -0.7869020700454712 -0.42911410331726074
vn -0.5750620365142822 -0.8181098103523254 -5.2071524869745645e-09
vn -2.6164412858520336e-09 1.5044537349240272e-07 -1.0
vn 0.3381510078907013 0.5008766055107117 -0.7967286705970764
vn 0.5432856678962708 0.26469647884368896 -0.7967287302017212
vn 0.6028474569320679 -0.042408909648656845 -0.7967286109924316
vn 0.5008769631385803 -0.33815068006515503 -0.7967285513877869
vn 0.2646966874599457 -0.5432856678962708 -0.7967286705970764
vn 0.4597533345222473 0.7774883508682251 -0.42911389470100403
vn 0.7869021892547607 0.4434479773044586 -0.42911404371261597
vn 0.9032013416290283 -0.009413909167051315 -0.42911413311958313
vn 0.7774885296821594 -0.45975297689437866 -0.4291139543056488
vn 0.44344809651374817 -0.7869020700454712 -0.42911410331726074
vn 0.4209733307361603 0.9070731401443481 2.6035760214426773e-08
vn -0.4209732413291931 0.9070730805397034 2.8639330906798932e-08
vn -0.818109929561615 0.5750618577003479 -2.082860817154142e-08
vn -0.9960349202156067 0.08896305412054062 -1.0414304973949129e-08
vn -0.9070731997489929 -0.4209729731082916 2.863933268315577e-08
vn 0.0 1.0 0.0
vn 0.818109929561615 0.5750618577003479 -2.082860817154142e-08
vn 0.9960349202156067 0.08896305412054062 -1.0414304973949129e-08
vn 0.9070732593536377 -0.4209730625152588 3.124291225731213e-08
vn 0.5750620365142822 -0.8181098103523254 -1.0414304973949129e-08
vn -2.6164412858520336e-09 1.6876046515790222e-07 1.0
vn 0.0 -0.5561069846153259 0.8311108350753784
vn -2.613015803731855e-09 0.633737325668335 0.7735483050346375
vn -0.3381509482860565 0.5008767247200012 0.7967287302017212
vn -0.5432856678962708 0.26469647884368896 0.7967286109924316
vn -0.6028475165367126 -0.04240883141756058 0.7967285513877869
vn -0.5008770227432251 -0.33815059065818787 0.7967285513877869
vn -0.2646966874599457 -0.5432856678962708 0.7967286705970764
vn 5.265324620751244e-09 0.9369924068450928 0.3493497371673584
vn -0.4597533047199249 0.7774884104728699 0.42911386489868164
vn -0.786902129650116 0.4434480369091034 0.42911404371261597
vn -0.9032013416290283 -0.009413893334567547 0.42911413311958313
vn -0.7774885892868042 -0.4597528874874115 0.4291139245033264
vn -0.44344812631607056 -0.7869020700454712 0.42911413311958313
vn 0.3381509482860565 0.5008767247200012 0.7967287302017212
vn 0.5432856678962708 0.26469647884368896 0.7967286109924316
vn 0.6028475165367126 -0.04240882769227028 0.7967285513877869
vn 0.5008769631385803 -0.33815059065818787 0.7967286109924316
vn 0.2646966874599457 -0.5432856678962708 0.7967286705970764
vn -2.6207811476552934e-09 -0.8629101514816284 0.5053573846817017
vn 0.45975327491760254 0.7774884104728699 0.42911383509635925
vn 0.786902129650116 0.4434480369091034 0.42911404371261597
vn 0.9032013416290283 -0.00941389612853527 0.42911413311958313
vn 0.7774885892868042 -0.4597529172897339 0.4291139245033264
vn 0.44344812631607056 -0.7869020700454712 0.42911407351493835
vn 0.0 -1.0 -1.1762732121667341e-08
vn -2.613015803731855e-09 0.6337374448776245 -0.7735483646392822
vn -0.3381510376930237 0.5008766651153564 -0.7967287302017212
vn -0.5432856678962708 0.26469647884368896 -0.7967287302017212
vn -0.6028473973274231 -0.04240890592336655 -0.7967286109924316
vn -0.5008769631385803 -0.33815068006515503 -0.7967285513877869
vn -0.2646966874599457 -0.5432856678962708 -0.7967286705970764
vn 0.0 -0.5561069846153259 -0.8311108350753784
vn 0.3381510078907013 0.5008766055107117 -0.7967286705970764
vn 0.5432856678962708 0.26469647884368896 -0.7967287302017212
vn 0.6028474569320679 -0.042408909648656845 -0.7967286109924316
vn 0.5008769631385803 -0.33815068006515503 -0.7967285513877869
vn 0.2646966874599457 -0.5432856678962708 -0.7967286705970764
f 61/61/61 56/56/56 62/62/62
f 62/62/62 36/36/36 61/61/61
f 60/60/60 61/61/61 36/36/36
f 36/36/36 35/35/35 60/60/60
f 59/59/59 60/60/60 35/35/35
f 35/35/35 34/34/34 59/59/59
f 58/58/58 59/59/59 34/34/34
f 34/34/34 33/33/33 58/58/58
f 57/57/57 58/58/58 33/33/33
f 33/33/33 27/27/27 57/57/57
f 45/45/45 57/57/57 27/27/27
f 27/27/27 32/32/32 45/45/45
f 55/55/55 38/38/38 56/56/56
f 56/56/56 61/61/61 55/55/55
f 54/54/54 55/55/55 61/61/61
f 61/61/61 60/60/60 54/54/54
f 53/53/53 54/54/54 60/60/60
f 60/60/60 59/59/59 53/53/53
f 52/52/52 53/53/53 59/59/59
f 59/59/59 58/58/58 52/52/52
f 51/51/51 52/52/52 58/58/58
f 58/58/58 57/57/57 51/51/51
f 39/39/39 51/51/51 57/57/57
f 57/57/57 45/45/45 39/39/39
f 37/37/37 38/38/38 55/55/55
f 37/37/37 55/55/55 54/54/54
f 37/37/37 54/54/54 53/53/53
f 37/37/37 53/53/53 52/52/52
f 37/37/37 52/52/52 51/51/51
f 37/37/37 51/51/51 39/39/39
f 50/50/50 15/15/15 62/62/62
f 62/62/62 56/56/56 50/50/50
f 49/49/49 31/31/31 15/15/15
f 15/15/15 50/50/50 49/49/49
f 48/48/48 30/30/30 31/31/31
f 31/31/31 49/49/49 48/48/48
f 47/47/47 29/29/29 30/30/30
f 30/30/30 48/48/48 47/47/47
f 46/46/46 28/28/28 29/29/29
f 29/29/29 47/47/47 46/46/46
f 45/45/45 32/32/32 28/28/28
f 28/28/28 46/46/46 45/45/45
f 44/44/44 50/50/50 56/56/56
f 56/56/56 38/38/38 44/44/44
f 43/43/43 49/49/49 50/50/50
f 50/50/50 44/44/44 43/43/43
f 42/42/42 48/48/48 49/49/49
f 49/49/49 43/43/43 42/42/42
f 41/41/41 47/47/47 48/48/48
f 48/48/48 42/42/42 41/41/41
f 40/40/40 46/46/46 47/47/47
f 47/47/47 41/41/41 40/40/40
f 39/39/39 45/45/45 46/46/46
f 46/46/46 40/40/40 39/39/39
f 37/37/37 44/44/44 38/38/38
f 37/37/37 43/43/43 44/44/44
f 37/37/37 42/42/42 43/43/43
f 37/37/37 41/41/41 42/42/42
f 37/37/37 40/40/40 41/41/41
f 37/37/37 39/39/39 40/40/40
f 26/26/26 36/36/36 62/62/62
f 62/62/62 8/8/8 26/26/26
f 25/25/25 35/35/35 36/36/36
f 36/36/36 26/26/26 25/25/25
f 24/24/24 34/34/34 35/35/35
f 35/35/35 25/25/25 24/24/24
f 23/23/23 33/33/33 34/34/34
f 34/34/34 24/24/24 23/23/23
f 22/22/22 27/27/27 33/33/33
f 33/33/33 23/23/23 22/22/22
f 9/9/9 32/32/32 27/27/27
f 27/27/27 22/22/22 9/9/9
f 74/74/74 26/26/26 8/8/8
f 8/8/8 69/69/69 74/74/74
f 73/73/73 25/25/25 26/26/26
f 26/26/26 74/74/74 73/73/73
f 72/72/72 24/24/24 25/25/25
f 25/25/25 73/73/73 72/72/72
f 71/71/71 23/23/23 24/24/24
f 24/24/24 72/72/72 71/71/71
f 70/70/70 22/22/22 23/23/23
f 23/23/23 71/71/71 70/70/70
f 63/63/63 9/9/9 22/22/22
f 22/22/22 70/70/70 63/63/63
f 16/16/16 21/21/21 1/1/1
f 16/16/16 20/20/20 21/21/21
f 16/16/16 19/19/19 20/20/20
f 16/16/16 18/18/18 19/19/19
f 16/16/16 17/17/17 18/18/18
f 16/16/16 2/2/2 17/17/17
f 14/14/14 8/8/8 62/62/62
f 62/62/62 15/15/15 14/14/14
f 13/13/13 14/14/14 15/15/15
f 15/15/15 31/31/31 13/13/13
f 12/12/12 13/13/13 31/31/31
f 31/31/31 30/30/30 12/12/12
f 11/11/11 12/12/12 30/30/30
f 30/30/30 29/29/29 11/11/11
f 10/10/10 11/11/11 29/29/29
f 29/29/29 28/28/28 10/10/10
f 9/9/9 10/10/10 28/28/28
f 28/28/28 32/32/32 9/9/9
f 68/68/68 69/69/69 8/8/8
f 8/8/8 14/14/14 68/68/68
f 67/67/67 68/68/68 14/14/14
f 14/14/14 13/13/13 67/67/67
f 66/66/66 67/67/67 13/13/13
f 13/13/13 12/12/12 66/66/66
f 65/65/65 66/66/66 12/12/12
f 12/12/12 11/11/11 65/65/65
f 64/64/64 65/65/65 11/11/11
f 11/11/11 10/10/10 64/64/64
f 63/63/63 64/64/64 10/10/10
f 10/10/10 9/9/9 63/63/63
f 16/16/16 1/1/1 7/7/7
f 16/16/16 7/7/7 6/6/6
f 16/16/16 6/6/6 5/5/5
f 16/16/16 5/5/5 4/4/4
f 16/16/16 4/4/4 3/3/3
f 16/16/16 3/3/3 2/2/2
