# Recovered local-space geometry; original node transforms not applied
o mesh_0
v -9.319066975876922e-07 8.337285939755135e-13 -42.491485595703125
v -9.319066975876922e-07 25.569734573364258 -34.319175720214844
v -9.319066975876922e-07 -25.569734573364258 -34.319175720214844
v 12.784835815429688 -22.14405059814453 -34.319175720214844
v 22.144018173217773 -12.784881591796875 -34.319175720214844
v 25.569719314575195 -2.0860194126726128e-05 -34.319175720214844
v 22.144041061401367 12.78484058380127 -34.319175720214844
v 12.784881591796875 22.14402198791504 -34.319175720214844
v -9.319066975876922e-07 -37.849143981933594 -19.69011878967285
v 18.924535751342773 -32.778343200683594 -19.69011878967285
v 32.77830123901367 -18.924602508544922 -19.69011878967285
v 37.84913635253906 -3.3826454455265775e-05 -19.69011878967285
v 32.77832794189453 18.924541473388672 -19.69011878967285
v 18.924606323242188 32.77830505371094 -19.69011878967285
v 41.520668029785156 -4.177682421868667e-05 4.1173771023750305e-06
v 35.957969665527344 20.760295867919922 4.1173771023750305e-06
v 20.7603759765625 35.95793914794922 4.1173771023750305e-06
v -12.78483772277832 -22.14405059814453 -34.319175720214844
v -22.144018173217773 -12.784881591796875 -34.319175720214844
v -25.569719314575195 -2.0860194126726128e-05 -34.319175720214844
v -22.144041061401367 12.78484058380127 -34.319175720214844
v -12.784883499145508 22.14402198791504 -34.319175720214844
v -9.319066975876922e-07 37.849143981933594 -19.69011878967285
v -18.924535751342773 -32.778343200683594 -19.69011878967285
v -32.77830123901367 -18.924602508544922 -19.69011878967285
v -37.84913635253906 -3.3826454455265775e-05 -19.69011878967285
v -32.77832794189453 18.924541473388672 -19.69011878967285
v -18.924606323242188 32.77830505371094 -19.69011878967285
v -20.7603759765625 35.95793914794922 4.1173771023750305e-06
v -9.319066975876922e-07 -41.520668029785156 0.0
v 20.760295867919922 -35.957969665527344 4.1173771023750305e-06
v 35.95793533325195 -20.760372161865234 4.1173771023750305e-06
v -9.319066975876922e-07 41.52067947387695 0.0
v 12.233688354492188 -21.18941879272461 -15.843622207641602
v 15.570220947265625 -26.96847915649414 3.0880325994075974e-06
v 21.18939971923828 -12.233736991882324 -15.843622207641602
v 26.96845054626465 -15.570280075073242 3.0880330541549483e-06
v 24.467422485351562 -2.670596950338222e-05 -15.843622207641602
v 31.140501022338867 -3.32399649778381e-05 3.088032826781273e-06
v 21.18941879272461 12.233686447143555 -15.843622207641602
v 26.968477249145508 15.570220947265625 3.0880330541549483e-06
v 12.233734130859375 21.18939971923828 -15.843622207641602
v 15.570281028747559 26.96845245361328 3.088032826781273e-06
v -9.319066975876922e-07 24.46742820739746 -15.84362506866455
v -9.319066975876922e-07 -24.467422485351562 -15.84362506866455
v -9.319066975876922e-07 -31.1405029296875 0.0
v -20.760295867919922 -35.957969665527344 4.1173771023750305e-06
v -35.95793533325195 -20.760372161865234 4.1173771023750305e-06
v -41.520668029785156 -4.177682421868667e-05 4.1173771023750305e-06
v -35.957969665527344 20.760295867919922 4.1173771023750305e-06
v -9.319066975876922e-07 -6.583469712495571e-06 -29.345775604248047
v -12.23369026184082 -21.18941879272461 -15.843622207641602
v -15.570222854614258 -26.96847915649414 3.0880325994075974e-06
v -21.18939971923828 -12.233736991882324 -15.843622207641602
v -26.96845054626465 -15.570280075073242 3.0880330541549483e-06
v -24.467422485351562 -2.670596950338222e-05 -15.843622207641602
v -31.140501022338867 -3.32399649778381e-05 3.088032826781273e-06
v -21.18941879272461 12.233686447143555 -15.843622207641602
v -26.968477249145508 15.570220947265625 3.0880330541549483e-06
v -12.233736038208008 21.18939971923828 -15.843622207641602
v -15.570282936096191 26.96845245361328 3.088032826781273e-06
v -9.319066975876922e-07 31.140506744384766 0.0
v 12.233688354492188 -21.18941879272461 -15.843622207641602
v 15.570220947265625 -26.96847915649414 3.0880325994075974e-06
v 21.18939971923828 -12.233736991882324 -15.843622207641602
v 26.96845054626465 -15.570280075073242 3.0880330541549483e-06
v 24.467422485351562 -2.670596950338222e-05 -15.843622207641602
v 31.140501022338867 -3.32399649778381e-05 3.088032826781273e-06
v 21.18941879272461 12.233686447143555 -15.843622207641602
v 26.968477249145508 15.570220947265625 3.0880330541549483e-06
v 12.233734130859375 21.18939971923828 -15.843622207641602
v 15.570281028747559 26.96845245361328 3.088032826781273e-06
v 12.233688354492188 -21.18941879272461 -15.843622207641602
v -9.319066975876922e-07 -24.467422485351562 -15.84362506866455
v -9.319066975876922e-07 -41.520668029785156 0.0
v 20.760295867919922 -35.957969665527344 4.1173771023750305e-06
v 15.570220947265625 -26.96847915649414 3.0880325994075974e-06
v -9.319066975876922e-07 -31.1405029296875 0.0
v 21.18939971923828 -12.233736991882324 -15.843622207641602
v -9.319066975876922e-07 -6.583469712495571e-06 -29.345775604248047
v 12.233688354492188 -21.18941879272461 -15.843622207641602
v 20.760295867919922 -35.957969665527344 4.1173771023750305e-06
v 35.95793533325195 -20.760372161865234 4.1173771023750305e-06
v 26.96845054626465 -15.570280075073242 3.0880330541549483e-06
v 15.570220947265625 -26.96847915649414 3.0880325994075974e-06
v 24.467422485351562 -2.670596950338222e-05 -15.843622207641602
v -9.319066975876922e-07 -6.583469712495571e-06 -29.345775604248047
v 21.18939971923828 -12.233736991882324 -15.843622207641602
v 35.95793533325195 -20.760372161865234 4.1173771023750305e-06
v 41.520668029785156 -4.177682421868667e-05 4.1173771023750305e-06
v 31.140501022338867 -3.32399649778381e-05 3.088032826781273e-06
v 26.96845054626465 -15.570280075073242 3.0880330541549483e-06
v 21.18941879272461 12.233686447143555 -15.843622207641602
v -9.319066975876922e-07 -6.583469712495571e-06 -29.345775604248047
v 24.467422485351562 -2.670596950338222e-05 -15.843622207641602
v 41.520668029785156 -4.177682421868667e-05 4.1173771023750305e-06
v 35.957969665527344 20.760295867919922 4.1173771023750305e-06
v 26.968477249145508 15.570220947265625 3.0880330541549483e-06
v 31.140501022338867 -3.32399649778381e-05 3.088032826781273e-06
v 12.233734130859375 21.18939971923828 -15.843622207641602
v -9.319066975876922e-07 -6.583469712495571e-06 -29.345775604248047
v 21.18941879272461 12.233686447143555 -15.843622207641602
v 35.957969665527344 20.760295867919922 4.1173771023750305e-06
v 20.7603759765625 35.95793914794922 4.1173771023750305e-06
v 15.570281028747559 26.96845245361328 3.088032826781273e-06
v 26.968477249145508 15.570220947265625 3.0880330541549483e-06
v -9.319066975876922e-07 24.46742820739746 -15.84362506866455
v -9.319066975876922e-07 -6.583469712495571e-06 -29.345775604248047
v 12.233734130859375 21.18939971923828 -15.843622207641602
v 20.7603759765625 35.95793914794922 4.1173771023750305e-06
v -9.319066975876922e-07 41.52067947387695 0.0
v -9.319066975876922e-07 31.140506744384766 0.0
v 15.570281028747559 26.96845245361328 3.088032826781273e-06
v -9.319066975876922e-07 -31.1405029296875 0.0
v -9.319066975876922e-07 -24.467422485351562 -15.84362506866455
v -15.570222854614258 -26.96847915649414 3.0880325994075974e-06
v -12.23369026184082 -21.18941879272461 -15.843622207641602
v -26.96845054626465 -15.570280075073242 3.0880330541549483e-06
v -21.18939971923828 -12.233736991882324 -15.843622207641602
v -31.140501022338867 -3.32399649778381e-05 3.088032826781273e-06
v -24.467422485351562 -2.670596950338222e-05 -15.843622207641602
v -26.968477249145508 15.570220947265625 3.0880330541549483e-06
v -21.18941879272461 12.233686447143555 -15.843622207641602
v -9.319066975876922e-07 24.46742820739746 -15.84362506866455
v -9.319066975876922e-07 31.140506744384766 0.0
v -15.570282936096191 26.96845245361328 3.088032826781273e-06
v -12.233736038208008 21.18939971923828 -15.843622207641602
v -12.23369026184082 -21.18941879272461 -15.843622207641602
v -9.319066975876922e-07 -24.467422485351562 -15.84362506866455
v -9.319066975876922e-07 -6.583469712495571e-06 -29.345775604248047
v -15.570222854614258 -26.96847915649414 3.0880325994075974e-06
v -20.760295867919922 -35.957969665527344 4.1173771023750305e-06
v -21.18939971923828 -12.233736991882324 -15.843622207641602
v -12.23369026184082 -21.18941879272461 -15.843622207641602
v -9.319066975876922e-07 -6.583469712495571e-06 -29.345775604248047
v -20.760295867919922 -35.957969665527344 4.1173771023750305e-06
v -15.570222854614258 -26.96847915649414 3.0880325994075974e-06
v -26.96845054626465 -15.570280075073242 3.0880330541549483e-06
v -35.95793533325195 -20.760372161865234 4.1173771023750305e-06
v -24.467422485351562 -2.670596950338222e-05 -15.843622207641602
v -21.18939971923828 -12.233736991882324 -15.843622207641602
v -9.319066975876922e-07 -6.583469712495571e-06 -29.345775604248047
v -35.95793533325195 -20.760372161865234 4.1173771023750305e-06
v -26.96845054626465 -15.570280075073242 3.0880330541549483e-06
v -31.140501022338867 -3.32399649778381e-05 3.088032826781273e-06
v -41.520668029785156 -4.177682421868667e-05 4.1173771023750305e-06
v -21.18941879272461 12.233686447143555 -15.843622207641602
v -24.467422485351562 -2.670596950338222e-05 -15.843622207641602
v -9.319066975876922e-07 -6.583469712495571e-06 -29.345775604248047
v -41.520668029785156 -4.177682421868667e-05 4.1173771023750305e-06
v -31.140501022338867 -3.32399649778381e-05 3.088032826781273e-06
v -26.968477249145508 15.570220947265625 3.0880330541549483e-06
v -35.957969665527344 20.760295867919922 4.1173771023750305e-06
v -12.233736038208008 21.18939971923828 -15.843622207641602
v -21.18941879272461 12.233686447143555 -15.843622207641602
v -9.319066975876922e-07 -6.583469712495571e-06 -29.345775604248047
v -35.957969665527344 20.760295867919922 4.1173771023750305e-06
v -26.968477249145508 15.570220947265625 3.0880330541549483e-06
v -15.570282936096191 26.96845245361328 3.088032826781273e-06
v -20.7603759765625 35.95793914794922 4.1173771023750305e-06
v -9.319066975876922e-07 24.46742820739746 -15.84362506866455
v -12.233736038208008 21.18939971923828 -15.843622207641602
v -9.319066975876922e-07 -6.583469712495571e-06 -29.345775604248047
v -20.7603759765625 35.95793914794922 4.1173771023750305e-06
v -15.570282936096191 26.96845245361328 3.088032826781273e-06
vt 0.8035992980003357 0.3676522374153137
vt 0.8492005467414856 0.3577612042427063
vt 0.849229097366333 0.3577612042427063
vt 0.8371392488479614 0.35604751110076904
vt 0.8206814527511597 0.35570478439331055
vt 0.8035992980003357 0.35570478439331055
vt 0.8206528425216675 0.35570478439331055
vt 0.8371106386184692 0.35604751110076904
vt 0.8673188090324402 0.33547312021255493
vt 0.8513367176055908 0.33547312021255493
vt 0.8288848996162415 0.33547312021255493
vt 0.8035993576049805 0.33547312021255493
vt 0.8288562297821045 0.33547312021255493
vt 0.8513082265853882 0.33547312021255493
vt 0.8035993576049805 0.3091646432876587
vt 0.8313090205192566 0.3091646432876587
vt 0.8559389114379883 0.3091646432876587
vt 0.8371392488479614 0.35604751110076904
vt 0.8206814527511597 0.35570478439331055
vt 0.8035992980003357 0.35570478439331055
vt 0.8206528425216675 0.35570478439331055
vt 0.8371106386184692 0.35604751110076904
vt 0.8672903180122375 0.33547312021255493
vt 0.8513367176055908 0.33547312021255493
vt 0.8288848996162415 0.33547312021255493
vt 0.8035993576049805 0.33547312021255493
vt 0.8288562297821045 0.33547312021255493
vt 0.8513082265853882 0.33547312021255493
vt 0.8559389114379883 0.3091646432876587
vt 0.873499870300293 0.3091646432876587
vt 0.8559675812721252 0.3091646432876587
vt 0.8313376903533936 0.3091646432876587
vt 0.8734713792800903 0.3091646432876587
vt 0.7806163430213928 0.4729275703430176
vt 0.8170815706253052 0.4823267459869385
vt 0.7806163430213928 0.4565531015396118
vt 0.8170815706253052 0.4614863991737366
vt 0.7806163430213928 0.4384649395942688
vt 0.8170815706253052 0.4384649395942688
vt 0.7806163430213928 0.420376718044281
vt 0.8170815706253052 0.41544342041015625
vt 0.7806163430213928 0.4040021300315857
vt 0.8170815706253052 0.39460301399230957
vt 0.7806163430213928 0.39150774478912354
vt 0.7806163430213928 0.48542195558547974
vt 0.8170815706253052 0.49822866916656494
vt 0.8559675812721252 0.3091646432876587
vt 0.8313376903533936 0.3091646432876587
vt 0.8035993576049805 0.3091646432876587
vt 0.8313090205192566 0.3091646432876587
vt 0.7508969902992249 0.438464879989624
vt 0.7806163430213928 0.4729275703430176
vt 0.8170815706253052 0.4823267459869385
vt 0.7806163430213928 0.4565531015396118
vt 0.8170815706253052 0.4614863991737366
vt 0.7806163430213928 0.4384649395942688
vt 0.8170815706253052 0.4384649395942688
vt 0.7806163430213928 0.420376718044281
vt 0.8170815706253052 0.41544342041015625
vt 0.7806163430213928 0.4040021300315857
vt 0.8170815706253052 0.39460301399230957
vt 0.8170815706253052 0.37870103120803833
vt 0.7806163430213928 0.4729275703430176
vt 0.8170815706253052 0.4823267459869385
vt 0.7806163430213928 0.4565531015396118
vt 0.8170815706253052 0.4614863991737366
vt 0.7806163430213928 0.4384649395942688
vt 0.8170815706253052 0.4384649395942688
vt 0.7806163430213928 0.420376718044281
vt 0.8170815706253052 0.41544342041015625
vt 0.7806163430213928 0.4040021300315857
vt 0.8170815706253052 0.39460301399230957
vt 0.7806163430213928 0.4729275703430176
vt 0.7806163430213928 0.48542195558547974
vt 0.8716613054275513 0.4880823493003845
vt 0.8716613054275513 0.3877488970756531
vt 0.82814621925354 0.3877488970756531
vt 0.82814621925354 0.4880823493003845
vt 0.7806163430213928 0.4565531015396118
vt 0.7508969902992249 0.438464879989624
vt 0.7806163430213928 0.4729275703430176
vt 0.8716613054275513 0.4880823493003845
vt 0.8716613054275513 0.3877488970756531
vt 0.82814621925354 0.3877488970756531
vt 0.82814621925354 0.4880823493003845
vt 0.7806163430213928 0.4384649395942688
vt 0.7508969902992249 0.438464879989624
vt 0.7806163430213928 0.4565531015396118
vt 0.8716613054275513 0.4880823493003845
vt 0.8716613054275513 0.3877488970756531
vt 0.82814621925354 0.3877488970756531
vt 0.82814621925354 0.4880823493003845
vt 0.7806163430213928 0.420376718044281
vt 0.7508969902992249 0.438464879989624
vt 0.7806163430213928 0.4384649395942688
vt 0.8716613054275513 0.4880823493003845
vt 0.8716613054275513 0.3877488970756531
vt 0.82814621925354 0.3877488970756531
vt 0.82814621925354 0.4880823493003845
vt 0.7806163430213928 0.4040021300315857
vt 0.7508969902992249 0.438464879989624
vt 0.7806163430213928 0.420376718044281
vt 0.8716613054275513 0.4880823493003845
vt 0.8716613054275513 0.3877488970756531
vt 0.82814621925354 0.3877488970756531
vt 0.82814621925354 0.4880823493003845
vt 0.7806163430213928 0.39150774478912354
vt 0.7508969902992249 0.438464879989624
vt 0.7806163430213928 0.4040021300315857
vt 0.8716613054275513 0.4880823493003845
vt 0.8716613054275513 0.3877488970756531
vt 0.82814621925354 0.3877488970756531
vt 0.82814621925354 0.4880823493003845
vt 0.8170815706253052 0.49822866916656494
vt 0.7806163430213928 0.48542195558547974
vt 0.8170815706253052 0.4823267459869385
vt 0.7806163430213928 0.4729275703430176
vt 0.8170815706253052 0.4614863991737366
vt 0.7806163430213928 0.4565531015396118
vt 0.8170815706253052 0.4384649395942688
vt 0.7806163430213928 0.4384649395942688
vt 0.8170815706253052 0.41544342041015625
vt 0.7806163430213928 0.420376718044281
vt 0.7806163430213928 0.39150774478912354
vt 0.8170815706253052 0.37870103120803833
vt 0.8170815706253052 0.39460301399230957
vt 0.7806163430213928 0.4040021300315857
vt 0.7806163430213928 0.4729275703430176
vt 0.7806163430213928 0.48542195558547974
vt 0.7508969902992249 0.438464879989624
vt 0.82814621925354 0.3877488970756531
vt 0.8716613054275513 0.3877488970756531
vt 0.7806163430213928 0.4565531015396118
vt 0.7806163430213928 0.4729275703430176
vt 0.7508969902992249 0.438464879989624
vt 0.8716613054275513 0.4880823493003845
vt 0.82814621925354 0.4880823493003845
vt 0.82814621925354 0.3877488970756531
vt 0.8716613054275513 0.3877488970756531
vt 0.7806163430213928 0.4384649395942688
vt 0.7806163430213928 0.4565531015396118
vt 0.7508969902992249 0.438464879989624
vt 0.8716613054275513 0.4880823493003845
vt 0.82814621925354 0.4880823493003845
vt 0.82814621925354 0.3877488970756531
vt 0.8716613054275513 0.3877488970756531
vt 0.7806163430213928 0.420376718044281
vt 0.7806163430213928 0.4384649395942688
vt 0.7508969902992249 0.438464879989624
vt 0.8716613054275513 0.4880823493003845
vt 0.82814621925354 0.4880823493003845
vt 0.82814621925354 0.3877488970756531
vt 0.8716613054275513 0.3877488970756531
vt 0.7806163430213928 0.4040021300315857
vt 0.7806163430213928 0.420376718044281
vt 0.7508969902992249 0.438464879989624
vt 0.8716613054275513 0.4880823493003845
vt 0.82814621925354 0.4880823493003845
vt 0.82814621925354 0.3877488970756531
vt 0.8716613054275513 0.3877488970756531
vt 0.7806163430213928 0.39150774478912354
vt 0.7806163430213928 0.4040021300315857
vt 0.7508969902992249 0.438464879989624
vt 0.8716613054275513 0.4880823493003845
vt 0.82814621925354 0.4880823493003845
vn -2.615949012962915e-09 -1.6742073682962655e-07 -1.0
vn 0.0 0.5550463795661926 -0.8318194150924683
vn 0.0 -0.6325439810752869 -0.7745245695114136
vn 0.33751073479652405 -0.4999271035194397 -0.7975961565971375
vn 0.5422562956809998 -0.26419416069984436 -0.7975960969924927
vn 0.601705014705658 0.04232918843626976 -0.7975960969924927
vn 0.499927282333374 0.3375103771686554 -0.7975960373878479
vn 0.2641943395137787 0.5422563552856445 -0.7975961565971375
vn 0.0 -0.9374895095825195 -0.34801357984542847
vn 0.4599398374557495 -0.7776334881782532 -0.42865079641342163
vn 0.7871361970901489 -0.44348040223121643 -0.4286510646343231
vn 0.9034201502799988 0.009502865374088287 -0.42865103483200073
vn 0.7776336669921875 0.4599393904209137 -0.4286509156227112
vn 0.4434804916381836 0.7871361374855042 -0.4286511242389679
vn 0.9792882204055786 -0.0874672532081604 -0.18260356783866882
vn 0.8918222188949585 0.41389501094818115 -0.18260347843170166
vn 0.5653934478759766 0.8043546676635742 -0.18260347843170166
vn -0.33751073479652405 -0.4999271035194397 -0.7975961565971375
vn -0.5422563552856445 -0.26419416069984436 -0.7975960969924927
vn -0.601705014705658 0.04232918471097946 -0.7975959777832031
vn -0.499927282333374 0.3375103771686554 -0.7975960373878479
vn -0.2641943395137787 0.5422563552856445 -0.7975961565971375
vn 0.0 0.8627113103866577 -0.505696713924408
vn -0.4599398374557495 -0.7776334881782532 -0.42865079641342163
vn -0.7871361970901489 -0.44348040223121643 -0.4286510646343231
vn -0.9034202694892883 0.009502862580120564 -0.4286510646343231
vn -0.7776336669921875 0.4599393904209137 -0.4286509156227112
vn -0.443480521440506 0.7871361374855042 -0.4286510944366455
vn -0.5653934478759766 0.8043546676635742 -0.18260347843170166
vn 0.0 -0.9830559492111206 -0.18330581486225128
vn 0.4138953685760498 -0.8918222784996033 -0.18260306119918823
vn 0.804354727268219 -0.5653932094573975 -0.18260332942008972
vn 0.0 0.9830558896064758 -0.18330617249011993
vn -0.239738330245018 0.894716203212738 0.37684008479118347
vn -0.23973830044269562 0.894716203212738 0.37684017419815063
vn -0.6549766659736633 0.6549788117408752 0.37684014439582825
vn -0.6549769043922424 0.6549786329269409 0.37683987617492676
vn -0.8947160840034485 0.23973917961120605 0.37683987617492676
vn -0.8947159647941589 0.2397393137216568 0.3768399953842163
vn -0.8947165012359619 -0.2397378385066986 0.3768399953842163
vn -0.8947163820266724 -0.23973777890205383 0.3768399953842163
vn -0.6549788117408752 -0.6549766063690186 0.37684008479118347
vn -0.6549788117408752 -0.6549766659736633 0.3768399953842163
vn -0.23973922431468964 -0.8947160840034485 0.37684008479118347
vn -0.239738330245018 0.894716203212738 0.37684008479118347
vn -0.239738330245018 0.894716203212738 0.37684008479118347
vn -0.4138953685760498 -0.8918222784996033 -0.18260306119918823
vn -0.804354727268219 -0.5653932094573975 -0.18260332942008972
vn -0.9792882204055786 -0.0874672457575798 -0.18260355293750763
vn -0.8918222188949585 0.41389501094818115 -0.18260347843170166
vn -0.12839007377624512 0.47915780544281006 0.8682878613471985
vn 0.23973830044269562 0.894716203212738 0.37684017419815063
vn 0.23973830044269562 0.894716203212738 0.37684017419815063
vn 0.6549769043922424 0.6549786329269409 0.37683987617492676
vn 0.6549769043922424 0.6549786329269409 0.37683987617492676
vn 0.8947159647941589 0.2397393137216568 0.3768399953842163
vn 0.8947159647941589 0.2397393137216568 0.3768399953842163
vn 0.8947163820266724 -0.23973777890205383 0.3768399953842163
vn 0.8947163820266724 -0.23973777890205383 0.3768399953842163
vn 0.6549788117408752 -0.6549766659736633 0.3768399953842163
vn 0.6549788117408752 -0.6549766659736633 0.3768399953842163
vn -0.23973910510540009 -0.8947160840034485 0.37683993577957153
vn -0.6549766659736633 0.6549788117408752 0.37684014439582825
vn -0.6549766659736633 0.6549788117408752 0.37684014439582825
vn -0.8947160840034485 0.23973917961120605 0.37683987617492676
vn -0.8947160840034485 0.23973917961120605 0.37683987617492676
vn -0.8947165012359619 -0.2397378385066986 0.3768399953842163
vn -0.8947165012359619 -0.2397378385066986 0.3768399953842163
vn -0.6549788117408752 -0.6549766063690186 0.37684008479118347
vn -0.6549788117408752 -0.6549766063690186 0.37684008479118347
vn -0.23973922431468964 -0.8947160840034485 0.37684008479118347
vn -0.23973922431468964 -0.8947160840034485 0.37684008479118347
vn -0.12839007377624512 0.47915780544281006 0.8682878613471985
vn -0.12839007377624512 0.47915780544281006 0.8682878613471985
vn -1.9832941688946448e-07 2.532291054364172e-14 1.0
vn -1.9832941688946448e-07 2.532291054364172e-14 1.0
vn -1.9832941688946448e-07 2.532291054364172e-14 1.0
vn -1.9832938846775505e-07 0.0 1.0
vn -0.3507673144340515 0.35076847672462463 0.8682878613471985
vn -0.3507673144340515 0.35076847672462463 0.8682878613471985
vn -0.3507673144340515 0.35076847672462463 0.8682878613471985
vn -7.259335177423054e-08 7.259355072619655e-08 1.0
vn -7.259335177423054e-08 7.259355072619655e-08 1.0
vn -7.259335177423054e-08 7.259355072619655e-08 1.0
vn -7.259342282850412e-08 7.259356493705127e-08 1.0
vn -0.4791577458381653 0.12839026749134064 0.868287980556488
vn -0.4791577458381653 0.12839026749134064 0.868287980556488
vn -0.4791577458381653 0.12839026749134064 0.868287980556488
vn -9.916449528191151e-08 2.6571138178610454e-08 1.0
vn -9.916449528191151e-08 2.6571138178610454e-08 1.0
vn -9.916449528191151e-08 2.6571138178610454e-08 1.0
vn -9.916445975477473e-08 2.657114883675149e-08 1.0
vn -0.4791578948497772 -0.12838956713676453 0.8682878613471985
vn -0.4791578948497772 -0.12838956713676453 0.8682878613471985
vn -0.4791578948497772 -0.12838956713676453 0.8682878613471985
vn -9.916452370362094e-08 -2.657097297742439e-08 1.0
vn -9.916452370362094e-08 -2.657097297742439e-08 1.0
vn -9.916452370362094e-08 -2.657097297742439e-08 1.0
vn -9.916453791447566e-08 -2.6570988964635944e-08 1.0
vn -0.35076838731765747 -0.3507672846317291 0.8682879209518433
vn -0.35076838731765747 -0.3507672846317291 0.8682879209518433
vn -0.35076838731765747 -0.3507672846317291 0.8682879209518433
vn -7.259357914790598e-08 -7.259333756337583e-08 1.0
vn -7.259357914790598e-08 -7.259333756337583e-08 1.0
vn -7.259357914790598e-08 -7.259333756337583e-08 1.0
vn -7.259356493705127e-08 -7.259332335252111e-08 1.0
vn -0.12839040160179138 -0.47915753722190857 0.868287980556488
vn -0.12839040160179138 -0.47915753722190857 0.868287980556488
vn -0.12839040160179138 -0.47915753722190857 0.868287980556488
vn -1.9832863529245515e-07 0.0 1.0
vn -1.9832863529245515e-07 0.0 1.0
vn -1.9832863529245515e-07 0.0 1.0
vn -1.9832864950330986e-07 0.0 1.0
vn 0.23973830044269562 0.894716203212738 0.37684017419815063
vn 0.239738330245018 0.894716203212738 0.37684008479118347
vn 0.6549769043922424 0.6549786329269409 0.37683987617492676
vn 0.6549766659736633 0.6549788117408752 0.37684014439582825
vn 0.8947159647941589 0.2397393137216568 0.3768399953842163
vn 0.8947160840034485 0.23973917961120605 0.37683987617492676
vn 0.8947163820266724 -0.23973777890205383 0.3768399953842163
vn 0.8947165012359619 -0.2397378385066986 0.3768399953842163
vn 0.6549788117408752 -0.6549766659736633 0.3768399953842163
vn 0.6549788117408752 -0.6549766063690186 0.37684008479118347
vn 0.23973910510540009 -0.8947160840034485 0.37683993577957153
vn 0.23973910510540009 -0.8947160840034485 0.37683993577957153
vn 0.23973910510540009 -0.8947160840034485 0.37683993577957153
vn 0.23973922431468964 -0.8947160840034485 0.37684008479118347
vn 0.12838999927043915 0.47915780544281006 0.8682878613471985
vn 0.12838999927043915 0.47915780544281006 0.8682878613471985
vn 0.12838999927043915 0.47915780544281006 0.8682878613471985
vn 1.9832938846775505e-07 0.0 1.0
vn 1.9832941688946448e-07 2.532291054364172e-14 1.0
vn 0.3507673144340515 0.35076844692230225 0.8682878613471985
vn 0.3507673144340515 0.35076844692230225 0.8682878613471985
vn 0.3507673144340515 0.35076844692230225 0.8682878613471985
vn 7.259342282850412e-08 7.259356493705127e-08 1.0
vn 7.259342282850412e-08 7.259356493705127e-08 1.0
vn 7.259342282850412e-08 7.259356493705127e-08 1.0
vn 7.259335177423054e-08 7.259355072619655e-08 1.0
vn 0.4791577160358429 0.12839031219482422 0.868287980556488
vn 0.4791577160358429 0.12839031219482422 0.868287980556488
vn 0.4791577160358429 0.12839031219482422 0.868287980556488
vn 9.916445975477473e-08 2.657114883675149e-08 1.0
vn 9.916445975477473e-08 2.657114883675149e-08 1.0
vn 9.916445975477473e-08 2.657114883675149e-08 1.0
vn 9.916449528191151e-08 2.6571138178610454e-08 1.0
vn 0.4791578948497772 -0.12838958203792572 0.8682878613471985
vn 0.4791578948497772 -0.12838958203792572 0.8682878613471985
vn 0.4791578948497772 -0.12838958203792572 0.8682878613471985
vn 9.916453791447566e-08 -2.6570988964635944e-08 1.0
vn 9.916453791447566e-08 -2.6570988964635944e-08 1.0
vn 9.916453791447566e-08 -2.6570988964635944e-08 1.0
vn 9.916452370362094e-08 -2.657097297742439e-08 1.0
vn 0.3507683575153351 -0.35076719522476196 0.8682879209518433
vn 0.3507683575153351 -0.35076719522476196 0.8682879209518433
vn 0.3507683575153351 -0.35076719522476196 0.8682879209518433
vn 7.259356493705127e-08 -7.259332335252111e-08 1.0
vn 7.259356493705127e-08 -7.259332335252111e-08 1.0
vn 7.259356493705127e-08 -7.259332335252111e-08 1.0
vn 7.259357914790598e-08 -7.259333756337583e-08 1.0
vn 0.12839041650295258 -0.4791575074195862 0.868287980556488
vn 0.12839041650295258 -0.4791575074195862 0.868287980556488
vn 0.12839041650295258 -0.4791575074195862 0.868287980556488
vn 1.9832864950330986e-07 0.0 1.0
vn 1.9832864950330986e-07 0.0 1.0
f 112/112/112 111/111/111 164/164/164
f 164/164/164 165/165/165 112/112/112
f 161/161/161 162/162/162 163/163/163
f 159/159/159 160/160/160 157/157/157
f 157/157/157 158/158/158 159/159/159
f 154/154/154 155/155/155 156/156/156
f 152/152/152 153/153/153 150/150/150
f 150/150/150 151/151/151 152/152/152
f 147/147/147 148/148/148 149/149/149
f 145/145/145 146/146/146 143/143/143
f 143/143/143 144/144/144 145/145/145
f 140/140/140 141/141/141 142/142/142
f 138/138/138 139/139/139 136/136/136
f 136/136/136 137/137/137 138/138/138
f 133/133/133 134/134/134 135/135/135
f 131/131/131 132/132/132 75/75/75
f 75/75/75 78/78/78 131/131/131
f 128/128/128 129/129/129 130/130/130
f 126/126/126 127/127/127 124/124/124
f 124/124/124 125/125/125 126/126/126
f 122/122/122 123/123/123 60/60/60
f 60/60/60 61/61/61 122/122/122
f 120/120/120 121/121/121 58/58/58
f 58/58/58 59/59/59 120/120/120
f 118/118/118 119/119/119 56/56/56
f 56/56/56 57/57/57 118/118/118
f 116/116/116 117/117/117 54/54/54
f 54/54/54 55/55/55 116/116/116
f 114/114/114 115/115/115 52/52/52
f 52/52/52 53/53/53 114/114/114
f 112/112/112 113/113/113 110/110/110
f 110/110/110 111/111/111 112/112/112
f 107/107/107 108/108/108 109/109/109
f 105/105/105 106/106/106 103/103/103
f 103/103/103 104/104/104 105/105/105
f 100/100/100 101/101/101 102/102/102
f 98/98/98 99/99/99 96/96/96
f 96/96/96 97/97/97 98/98/98
f 93/93/93 94/94/94 95/95/95
f 91/91/91 92/92/92 89/89/89
f 89/89/89 90/90/90 91/91/91
f 86/86/86 87/87/87 88/88/88
f 84/84/84 85/85/85 82/82/82
f 82/82/82 83/83/83 84/84/84
f 79/79/79 80/80/80 81/81/81
f 77/77/77 78/78/78 75/75/75
f 75/75/75 76/76/76 77/77/77
f 73/73/73 51/51/51 74/74/74
f 72/72/72 62/62/62 44/44/44
f 44/44/44 71/71/71 72/72/72
f 70/70/70 43/43/43 42/42/42
f 42/42/42 69/69/69 70/70/70
f 68/68/68 41/41/41 40/40/40
f 40/40/40 67/67/67 68/68/68
f 66/66/66 39/39/39 38/38/38
f 38/38/38 65/65/65 66/66/66
f 64/64/64 37/37/37 36/36/36
f 36/36/36 63/63/63 64/64/64
f 46/46/46 35/35/35 34/34/34
f 34/34/34 45/45/45 46/46/46
f 28/28/28 29/29/29 33/33/33
f 33/33/33 23/23/23 28/28/28
f 27/27/27 50/50/50 29/29/29
f 29/29/29 28/28/28 27/27/27
f 26/26/26 49/49/49 50/50/50
f 50/50/50 27/27/27 26/26/26
f 25/25/25 48/48/48 49/49/49
f 49/49/49 26/26/26 25/25/25
f 24/24/24 47/47/47 48/48/48
f 48/48/48 25/25/25 24/24/24
f 9/9/9 30/30/30 47/47/47
f 47/47/47 24/24/24 9/9/9
f 22/22/22 28/28/28 23/23/23
f 23/23/23 2/2/2 22/22/22
f 21/21/21 27/27/27 28/28/28
f 28/28/28 22/22/22 21/21/21
f 20/20/20 26/26/26 27/27/27
f 27/27/27 21/21/21 20/20/20
f 19/19/19 25/25/25 26/26/26
f 26/26/26 20/20/20 19/19/19
f 18/18/18 24/24/24 25/25/25
f 25/25/25 19/19/19 18/18/18
f 3/3/3 9/9/9 24/24/24
f 24/24/24 18/18/18 3/3/3
f 1/1/1 22/22/22 2/2/2
f 1/1/1 21/21/21 22/22/22
f 1/1/1 20/20/20 21/21/21
f 1/1/1 19/19/19 20/20/20
f 1/1/1 18/18/18 19/19/19
f 1/1/1 3/3/3 18/18/18
f 14/14/14 23/23/23 33/33/33
f 33/33/33 17/17/17 14/14/14
f 13/13/13 14/14/14 17/17/17
f 17/17/17 16/16/16 13/13/13
f 12/12/12 13/13/13 16/16/16
f 16/16/16 15/15/15 12/12/12
f 11/11/11 12/12/12 15/15/15
f 15/15/15 32/32/32 11/11/11
f 10/10/10 11/11/11 32/32/32
f 32/32/32 31/31/31 10/10/10
f 9/9/9 10/10/10 31/31/31
f 31/31/31 30/30/30 9/9/9
f 8/8/8 2/2/2 23/23/23
f 23/23/23 14/14/14 8/8/8
f 7/7/7 8/8/8 14/14/14
f 14/14/14 13/13/13 7/7/7
f 6/6/6 7/7/7 13/13/13
f 13/13/13 12/12/12 6/6/6
f 5/5/5 6/6/6 12/12/12
f 12/12/12 11/11/11 5/5/5
f 4/4/4 5/5/5 11/11/11
f 11/11/11 10/10/10 4/4/4
f 3/3/3 4/4/4 10/10/10
f 10/10/10 9/9/9 3/3/3
f 1/1/1 2/2/2 8/8/8
f 1/1/1 8/8/8 7/7/7
f 1/1/1 7/7/7 6/6/6
f 1/1/1 6/6/6 5/5/5
f 1/1/1 5/5/5 4/4/4
f 1/1/1 4/4/4 3/3/3
