# Recovered local-space geometry; original node transforms not applied
o mesh_0
v -9.319066975876922e-07 25.569734573364258 34.319175720214844
v -9.319066975876922e-07 -25.569734573364258 34.319175720214844
v 12.78483772277832 -22.1440486907959 34.319175720214844
v 22.144020080566406 -12.784879684448242 34.319175720214844
v 25.569719314575195 -1.8624818039825186e-05 34.319175720214844
v 22.144039154052734 12.784842491149902 34.319175720214844
v 12.784879684448242 22.144023895263672 34.319175720214844
v -9.319066975876922e-07 37.849143981933594 19.69011878967285
v -9.319066975876922e-07 -37.849143981933594 19.69011878967285
v 18.92453956604004 -32.778343200683594 19.69011878967285
v 32.77830123901367 -18.924598693847656 19.69011878967285
v 37.84913635253906 -3.0517578125e-05 19.69011878967285
v 32.77832794189453 18.924545288085938 19.69011878967285
v 18.924602508544922 32.77830505371094 19.69011878967285
v 20.760374069213867 35.95793914794922 -4.1173771023750305e-06
v -9.319066975876922e-07 0.0 42.491485595703125
v -12.784839630126953 -22.1440486907959 34.319175720214844
v -22.144020080566406 -12.784879684448242 34.319175720214844
v -25.569719314575195 -1.8624818039825186e-05 34.319175720214844
v -22.144039154052734 12.784842491149902 34.319175720214844
v -12.784881591796875 22.144023895263672 34.319175720214844
v -18.92453956604004 -32.778343200683594 19.69011878967285
v -32.77830123901367 -18.924598693847656 19.69011878967285
v -37.84913635253906 -3.0517578125e-05 19.69011878967285
v -32.77832794189453 18.924545288085938 19.69011878967285
v -18.924602508544922 32.77830505371094 19.69011878967285
v -20.760297775268555 -35.957969665527344 -4.1173771023750305e-06
v 20.760297775268555 -35.957969665527344 -4.1173771023750305e-06
v 35.95793533325195 -20.7603702545166 -4.1173771023750305e-06
v 41.520668029785156 -3.9961898437468335e-05 -4.1173771023750305e-06
v 35.957969665527344 20.760297775268555 -4.1173771023750305e-06
v -9.319066975876922e-07 41.52067947387695 0.0
v -9.319066975876922e-07 -41.520668029785156 0.0
v 12.233688354492188 -21.18941879272461 15.843622207641602
v 15.570220947265625 -26.96847915649414 -3.0880325994075974e-06
v 21.18939971923828 -12.233736991882324 15.843622207641602
v 26.96845054626465 -15.570280075073242 -3.0880330541549483e-06
v 24.467422485351562 -2.670596950338222e-05 15.843622207641602
v 31.140501022338867 -3.32399649778381e-05 -3.088032826781273e-06
v 21.18941879272461 12.233686447143555 15.843622207641602
v 26.968477249145508 15.570220947265625 -3.0880330541549483e-06
v 12.233734130859375 21.18939971923828 15.843622207641602
v 15.570281028747559 26.96845245361328 -3.088032826781273e-06
v -9.319066975876922e-07 24.46742820739746 15.84362506866455
v -9.319066975876922e-07 -24.467422485351562 15.84362506866455
v -9.319066975876922e-07 -31.1405029296875 0.0
v -35.95793533325195 -20.7603702545166 -4.1173771023750305e-06
v -41.520668029785156 -3.9961898437468335e-05 -4.1173771023750305e-06
v -35.957969665527344 20.760297775268555 -4.1173771023750305e-06
v -20.760374069213867 35.95793914794922 -4.1173771023750305e-06
v -9.319066975876922e-07 -6.583469712495571e-06 29.345775604248047
v -12.23369026184082 -21.18941879272461 15.843622207641602
v -15.570222854614258 -26.96847915649414 -3.0880325994075974e-06
v -21.18939971923828 -12.233736991882324 15.843622207641602
v -26.96845054626465 -15.570280075073242 -3.0880330541549483e-06
v -24.467422485351562 -2.670596950338222e-05 15.843622207641602
v -31.140501022338867 -3.32399649778381e-05 -3.088032826781273e-06
v -21.18941879272461 12.233686447143555 15.843622207641602
v -26.968477249145508 15.570220947265625 -3.0880330541549483e-06
v -12.233736038208008 21.18939971923828 15.843622207641602
v -15.570282936096191 26.96845245361328 -3.088032826781273e-06
v -9.319066975876922e-07 31.140506744384766 0.0
v 12.78483772277832 -22.1440486907959 34.319175720214844
v -9.319066975876922e-07 -25.569734573364258 34.319175720214844
v 22.144020080566406 -12.784879684448242 34.319175720214844
v 25.569719314575195 -1.8624818039825186e-05 34.319175720214844
v 22.144039154052734 12.784842491149902 34.319175720214844
v 12.784879684448242 22.144023895263672 34.319175720214844
v -9.319066975876922e-07 25.569734573364258 34.319175720214844
v -12.784839630126953 -22.1440486907959 34.319175720214844
v -22.144020080566406 -12.784879684448242 34.319175720214844
v -25.569719314575195 -1.8624818039825186e-05 34.319175720214844
v -22.144039154052734 12.784842491149902 34.319175720214844
v -12.784881591796875 22.144023895263672 34.319175720214844
v 15.570220947265625 -26.96847915649414 -3.0880325994075974e-06
v 12.233688354492188 -21.18941879272461 15.843622207641602
v 26.96845054626465 -15.570280075073242 -3.0880330541549483e-06
v 21.18939971923828 -12.233736991882324 15.843622207641602
v 31.140501022338867 -3.32399649778381e-05 -3.088032826781273e-06
v 24.467422485351562 -2.670596950338222e-05 15.843622207641602
v 26.968477249145508 15.570220947265625 -3.0880330541549483e-06
v 21.18941879272461 12.233686447143555 15.843622207641602
v 15.570281028747559 26.96845245361328 -3.088032826781273e-06
v 12.233734130859375 21.18939971923828 15.843622207641602
v 12.233688354492188 -21.18941879272461 15.843622207641602
v -9.319066975876922e-07 -24.467422485351562 15.84362506866455
v -9.319066975876922e-07 -41.520668029785156 0.0
v -9.319066975876922e-07 -31.1405029296875 0.0
v 15.570220947265625 -26.96847915649414 -3.0880325994075974e-06
v 20.760297775268555 -35.957969665527344 -4.1173771023750305e-06
v 21.18939971923828 -12.233736991882324 15.843622207641602
v 12.233688354492188 -21.18941879272461 15.843622207641602
v -9.319066975876922e-07 -6.583469712495571e-06 29.345775604248047
v 20.760297775268555 -35.957969665527344 -4.1173771023750305e-06
v 15.570220947265625 -26.96847915649414 -3.0880325994075974e-06
v 26.96845054626465 -15.570280075073242 -3.0880330541549483e-06
v 35.95793533325195 -20.7603702545166 -4.1173771023750305e-06
v 24.467422485351562 -2.670596950338222e-05 15.843622207641602
v 21.18939971923828 -12.233736991882324 15.843622207641602
v -9.319066975876922e-07 -6.583469712495571e-06 29.345775604248047
v 35.95793533325195 -20.7603702545166 -4.1173771023750305e-06
v 26.96845054626465 -15.570280075073242 -3.0880330541549483e-06
v 31.140501022338867 -3.32399649778381e-05 -3.088032826781273e-06
v 41.520668029785156 -3.9961898437468335e-05 -4.1173771023750305e-06
v 21.18941879272461 12.233686447143555 15.843622207641602
v 24.467422485351562 -2.670596950338222e-05 15.843622207641602
v -9.319066975876922e-07 -6.583469712495571e-06 29.345775604248047
v 41.520668029785156 -3.9961898437468335e-05 -4.1173771023750305e-06
v 31.140501022338867 -3.32399649778381e-05 -3.088032826781273e-06
v 26.968477249145508 15.570220947265625 -3.0880330541549483e-06
v 35.957969665527344 20.760297775268555 -4.1173771023750305e-06
v 12.233734130859375 21.18939971923828 15.843622207641602
v 21.18941879272461 12.233686447143555 15.843622207641602
v -9.319066975876922e-07 -6.583469712495571e-06 29.345775604248047
v 35.957969665527344 20.760297775268555 -4.1173771023750305e-06
v 26.968477249145508 15.570220947265625 -3.0880330541549483e-06
v 15.570281028747559 26.96845245361328 -3.088032826781273e-06
v 20.760374069213867 35.95793914794922 -4.1173771023750305e-06
v -9.319066975876922e-07 24.46742820739746 15.84362506866455
v 12.233734130859375 21.18939971923828 15.843622207641602
v -9.319066975876922e-07 -6.583469712495571e-06 29.345775604248047
v 20.760374069213867 35.95793914794922 -4.1173771023750305e-06
v 15.570281028747559 26.96845245361328 -3.088032826781273e-06
v -9.319066975876922e-07 31.140506744384766 0.0
v -9.319066975876922e-07 41.52067947387695 0.0
v -9.319066975876922e-07 -24.467422485351562 15.84362506866455
v -9.319066975876922e-07 -31.1405029296875 0.0
v -12.23369026184082 -21.18941879272461 15.843622207641602
v -15.570222854614258 -26.96847915649414 -3.0880325994075974e-06
v -21.18939971923828 -12.233736991882324 15.843622207641602
v -26.96845054626465 -15.570280075073242 -3.0880330541549483e-06
v -24.467422485351562 -2.670596950338222e-05 15.843622207641602
v -31.140501022338867 -3.32399649778381e-05 -3.088032826781273e-06
v -21.18941879272461 12.233686447143555 15.843622207641602
v -26.968477249145508 15.570220947265625 -3.0880330541549483e-06
v -9.319066975876922e-07 24.46742820739746 15.84362506866455
v -12.233736038208008 21.18939971923828 15.843622207641602
v -15.570282936096191 26.96845245361328 -3.088032826781273e-06
v -9.319066975876922e-07 31.140506744384766 0.0
v -12.23369026184082 -21.18941879272461 15.843622207641602
v -9.319066975876922e-07 -6.583469712495571e-06 29.345775604248047
v -9.319066975876922e-07 -24.467422485351562 15.84362506866455
v -20.760297775268555 -35.957969665527344 -4.1173771023750305e-06
v -15.570222854614258 -26.96847915649414 -3.0880325994075974e-06
v -21.18939971923828 -12.233736991882324 15.843622207641602
v -9.319066975876922e-07 -6.583469712495571e-06 29.345775604248047
v -12.23369026184082 -21.18941879272461 15.843622207641602
v -20.760297775268555 -35.957969665527344 -4.1173771023750305e-06
v -35.95793533325195 -20.7603702545166 -4.1173771023750305e-06
v -26.96845054626465 -15.570280075073242 -3.0880330541549483e-06
v -15.570222854614258 -26.96847915649414 -3.0880325994075974e-06
v -24.467422485351562 -2.670596950338222e-05 15.843622207641602
v -9.319066975876922e-07 -6.583469712495571e-06 29.345775604248047
v -21.18939971923828 -12.233736991882324 15.843622207641602
v -35.95793533325195 -20.7603702545166 -4.1173771023750305e-06
v -41.520668029785156 -3.9961898437468335e-05 -4.1173771023750305e-06
v -31.140501022338867 -3.32399649778381e-05 -3.088032826781273e-06
v -26.96845054626465 -15.570280075073242 -3.0880330541549483e-06
v -21.18941879272461 12.233686447143555 15.843622207641602
v -9.319066975876922e-07 -6.583469712495571e-06 29.345775604248047
v -24.467422485351562 -2.670596950338222e-05 15.843622207641602
v -41.520668029785156 -3.9961898437468335e-05 -4.1173771023750305e-06
v -35.957969665527344 20.760297775268555 -4.1173771023750305e-06
v -26.968477249145508 15.570220947265625 -3.0880330541549483e-06
v -31.140501022338867 -3.32399649778381e-05 -3.088032826781273e-06
v -12.233736038208008 21.18939971923828 15.843622207641602
v -9.319066975876922e-07 -6.583469712495571e-06 29.345775604248047
v -21.18941879272461 12.233686447143555 15.843622207641602
v -35.957969665527344 20.760297775268555 -4.1173771023750305e-06
v -20.760374069213867 35.95793914794922 -4.1173771023750305e-06
v -15.570282936096191 26.96845245361328 -3.088032826781273e-06
v -26.968477249145508 15.570220947265625 -3.0880330541549483e-06
v -9.319066975876922e-07 24.46742820739746 15.84362506866455
v -9.319066975876922e-07 -6.583469712495571e-06 29.345775604248047
v -12.233736038208008 21.18939971923828 15.843622207641602
v -20.760374069213867 35.95793914794922 -4.1173771023750305e-06
v -15.570282936096191 26.96845245361328 -3.088032826781273e-06
vt 0.7981788516044617 0.2678653597831726
vt 0.7981788516044617 0.35613757371902466
vt 0.776110827922821 0.35022449493408203
vt 0.759955883026123 0.33406955003738403
vt 0.7540426254272461 0.3120015263557434
vt 0.7599557638168335 0.2899335026741028
vt 0.7761107087135315 0.27377849817276
vt 0.8672903180122375 0.28251343965530396
vt 0.8673188090324402 0.28251343965530396
vt 0.8513367176055908 0.28251343965530396
vt 0.8288848996162415 0.28251343965530396
vt 0.8035992980003357 0.28251343965530396
vt 0.8288562297821045 0.28251343965530396
vt 0.8513082265853882 0.28251343965530396
vt 0.8559389114379883 0.30916470289230347
vt 0.7981788516044617 0.31200146675109863
vt 0.776110827922821 0.35022449493408203
vt 0.759955883026123 0.33406955003738403
vt 0.7540426254272461 0.3120015263557434
vt 0.7599557638168335 0.2899335026741028
vt 0.7761107087135315 0.27377849817276
vt 0.8513367176055908 0.28251343965530396
vt 0.8288848996162415 0.28251343965530396
vt 0.8035992980003357 0.28251343965530396
vt 0.8288562297821045 0.28251343965530396
vt 0.8513082265853882 0.28251343965530396
vt 0.8559675812721252 0.30916470289230347
vt 0.8559675812721252 0.30916470289230347
vt 0.8313376903533936 0.30916470289230347
vt 0.8035993576049805 0.30916470289230347
vt 0.8313090205192566 0.30916470289230347
vt 0.8734713792800903 0.30916470289230347
vt 0.873499870300293 0.30916470289230347
vt 0.7806163430213928 0.4729275703430176
vt 0.8170815706253052 0.4823267459869385
vt 0.7806163430213928 0.4565531015396118
vt 0.8170815706253052 0.4614863991737366
vt 0.7806163430213928 0.4384649395942688
vt 0.8170815706253052 0.4384649395942688
vt 0.7806163430213928 0.420376718044281
vt 0.8170815706253052 0.41544342041015625
vt 0.7806163430213928 0.4040021300315857
vt 0.8170815706253052 0.39460301399230957
vt 0.7806163430213928 0.39150774478912354
vt 0.7806163430213928 0.48542195558547974
vt 0.8170815706253052 0.49822866916656494
vt 0.8313376903533936 0.30916470289230347
vt 0.8035993576049805 0.30916470289230347
vt 0.8313090205192566 0.30916470289230347
vt 0.8559389114379883 0.30916470289230347
vt 0.7508969902992249 0.438464879989624
vt 0.7806163430213928 0.4729275703430176
vt 0.8170815706253052 0.4823267459869385
vt 0.7806163430213928 0.4565531015396118
vt 0.8170815706253052 0.4614863991737366
vt 0.7806163430213928 0.4384649395942688
vt 0.8170815706253052 0.4384649395942688
vt 0.7806163430213928 0.420376718044281
vt 0.8170815706253052 0.41544342041015625
vt 0.7806163430213928 0.4040021300315857
vt 0.8170815706253052 0.39460301399230957
vt 0.8170815706253052 0.37870103120803833
vt 0.8381068110466003 0.26125359535217285
vt 0.8513814210891724 0.26125359535217285
vt 0.8206814527511597 0.26125359535217285
vt 0.8035992980003357 0.26125359535217285
vt 0.8206528425216675 0.26125359535217285
vt 0.8380781412124634 0.26125359535217285
vt 0.8513529300689697 0.26125359535217285
vt 0.8381068110466003 0.26125359535217285
vt 0.8206814527511597 0.26125359535217285
vt 0.8035992980003357 0.26125359535217285
vt 0.8206528425216675 0.26125359535217285
vt 0.8380781412124634 0.26125359535217285
vt 0.8170815706253052 0.4823267459869385
vt 0.7806163430213928 0.4729275703430176
vt 0.8170815706253052 0.4614863991737366
vt 0.7806163430213928 0.4565531015396118
vt 0.8170815706253052 0.4384649395942688
vt 0.7806163430213928 0.4384649395942688
vt 0.8170815706253052 0.41544342041015625
vt 0.7806163430213928 0.420376718044281
vt 0.8170815706253052 0.39460301399230957
vt 0.7806163430213928 0.4040021300315857
vt 0.7806163430213928 0.4729275703430176
vt 0.7806163430213928 0.48542195558547974
vt 0.8716613054275513 0.4880823493003845
vt 0.82814621925354 0.4880823493003845
vt 0.82814621925354 0.3877488970756531
vt 0.8716613054275513 0.3877488970756531
vt 0.7806163430213928 0.4565531015396118
vt 0.7806163430213928 0.4729275703430176
vt 0.7508969902992249 0.438464879989624
vt 0.8716613054275513 0.4880823493003845
vt 0.82814621925354 0.4880823493003845
vt 0.82814621925354 0.3877488970756531
vt 0.8716613054275513 0.3877488970756531
vt 0.7806163430213928 0.4384649395942688
vt 0.7806163430213928 0.4565531015396118
vt 0.7508969902992249 0.438464879989624
vt 0.8716613054275513 0.4880823493003845
vt 0.82814621925354 0.4880823493003845
vt 0.82814621925354 0.3877488970756531
vt 0.8716613054275513 0.3877488970756531
vt 0.7806163430213928 0.420376718044281
vt 0.7806163430213928 0.4384649395942688
vt 0.7508969902992249 0.438464879989624
vt 0.8716613054275513 0.4880823493003845
vt 0.82814621925354 0.4880823493003845
vt 0.82814621925354 0.3877488970756531
vt 0.8716613054275513 0.3877488970756531
vt 0.7806163430213928 0.4040021300315857
vt 0.7806163430213928 0.420376718044281
vt 0.7508969902992249 0.438464879989624
vt 0.8716613054275513 0.4880823493003845
vt 0.82814621925354 0.4880823493003845
vt 0.82814621925354 0.3877488970756531
vt 0.8716613054275513 0.3877488970756531
vt 0.7806163430213928 0.39150774478912354
vt 0.7806163430213928 0.4040021300315857
vt 0.7508969902992249 0.438464879989624
vt 0.8716613054275513 0.4880823493003845
vt 0.82814621925354 0.4880823493003845
vt 0.82814621925354 0.3877488970756531
vt 0.8716613054275513 0.3877488970756531
vt 0.7806163430213928 0.48542195558547974
vt 0.8170815706253052 0.49822866916656494
vt 0.7806163430213928 0.4729275703430176
vt 0.8170815706253052 0.4823267459869385
vt 0.7806163430213928 0.4565531015396118
vt 0.8170815706253052 0.4614863991737366
vt 0.7806163430213928 0.4384649395942688
vt 0.8170815706253052 0.4384649395942688
vt 0.7806163430213928 0.420376718044281
vt 0.8170815706253052 0.41544342041015625
vt 0.7806163430213928 0.39150774478912354
vt 0.7806163430213928 0.4040021300315857
vt 0.8170815706253052 0.39460301399230957
vt 0.8170815706253052 0.37870103120803833
vt 0.7806163430213928 0.4729275703430176
vt 0.7508969902992249 0.438464879989624
vt 0.7806163430213928 0.48542195558547974
vt 0.8716613054275513 0.3877488970756531
vt 0.82814621925354 0.3877488970756531
vt 0.7806163430213928 0.4565531015396118
vt 0.7508969902992249 0.438464879989624
vt 0.7806163430213928 0.4729275703430176
vt 0.8716613054275513 0.4880823493003845
vt 0.8716613054275513 0.3877488970756531
vt 0.82814621925354 0.3877488970756531
vt 0.82814621925354 0.4880823493003845
vt 0.7806163430213928 0.4384649395942688
vt 0.7508969902992249 0.438464879989624
vt 0.7806163430213928 0.4565531015396118
vt 0.8716613054275513 0.4880823493003845
vt 0.8716613054275513 0.3877488970756531
vt 0.82814621925354 0.3877488970756531
vt 0.82814621925354 0.4880823493003845
vt 0.7806163430213928 0.420376718044281
vt 0.7508969902992249 0.438464879989624
vt 0.7806163430213928 0.4384649395942688
vt 0.8716613054275513 0.4880823493003845
vt 0.8716613054275513 0.3877488970756531
vt 0.82814621925354 0.3877488970756531
vt 0.82814621925354 0.4880823493003845
vt 0.7806163430213928 0.4040021300315857
vt 0.7508969902992249 0.438464879989624
vt 0.7806163430213928 0.420376718044281
vt 0.8716613054275513 0.4880823493003845
vt 0.8716613054275513 0.3877488970756531
vt 0.82814621925354 0.3877488970756531
vt 0.82814621925354 0.4880823493003845
vt 0.7806163430213928 0.39150774478912354
vt 0.7508969902992249 0.438464879989624
vt 0.7806163430213928 0.4040021300315857
vt 0.8716613054275513 0.4880823493003845
vt 0.82814621925354 0.4880823493003845
vn 0.0 0.5550464391708374 0.8318193554878235
vn 0.0 -0.6325439214706421 0.7745245099067688
vn 0.3375107944011688 -0.49992692470550537 0.7975960969924927
vn 0.5422564148902893 -0.26419416069984436 0.7975960373878479
vn 0.6017049551010132 0.04232924431562424 0.7975960373878479
vn 0.49992725253105164 0.33751046657562256 0.7975960373878479
vn 0.2641943693161011 0.5422564148902893 0.7975960969924927
vn 0.0 0.8627113103866577 0.505696713924408
vn 0.0 -0.9374895095825195 0.3480135500431061
vn 0.4599398374557495 -0.7776334881782532 0.428650826215744
vn 0.7871362566947937 -0.44348034262657166 0.4286510646343231
vn 0.9034202694892883 0.009502881206572056 0.4286510646343231
vn 0.7776336073875427 0.45993953943252563 0.4286509156227112
vn 0.4434804618358612 0.7871361970901489 0.4286510646343231
vn 0.5653932690620422 0.8043546676635742 0.18260346353054047
vn 2.615949012962915e-09 -1.5172504674865195e-07 1.0
vn -0.3375107944011688 -0.49992692470550537 0.7975960969924927
vn -0.5422564148902893 -0.26419416069984436 0.7975960373878479
vn -0.6017049551010132 0.04232924431562424 0.7975960373878479
vn -0.49992725253105164 0.33751046657562256 0.7975960373878479
vn -0.2641943693161011 0.5422564148902893 0.7975960969924927
vn -0.4599398970603943 -0.7776334285736084 0.4286508560180664
vn -0.7871362566947937 -0.44348034262657166 0.4286510646343231
vn -0.9034202694892883 0.00950288400053978 0.4286510646343231
vn -0.7776336073875427 0.45993953943252563 0.4286509156227112
vn -0.4434804618358612 0.7871361970901489 0.4286510646343231
vn -0.4138953387737274 -0.8918221592903137 0.18260303139686584
vn 0.4138953387737274 -0.8918221592903137 0.18260303139686584
vn 0.8043547868728638 -0.5653931498527527 0.18260334432125092
vn 0.9792882204055786 -0.0874672457575798 0.18260358273983002
vn 0.8918222188949585 0.4138950705528259 0.18260343372821808
vn 0.0 0.9830558896064758 0.18330618739128113
vn 0.0 -0.9830559492111206 0.18330581486225128
vn -0.23973830044269562 0.894716203212738 -0.37684017419815063
vn -0.23973830044269562 0.894716203212738 -0.37684017419815063
vn -0.6549769043922424 0.6549786329269409 -0.37683987617492676
vn -0.6549769043922424 0.6549786329269409 -0.37683987617492676
vn -0.8947159647941589 0.2397393137216568 -0.3768399953842163
vn -0.8947159647941589 0.2397393137216568 -0.3768399953842163
vn -0.8947163820266724 -0.23973777890205383 -0.3768399953842163
vn -0.8947163820266724 -0.23973777890205383 -0.3768399953842163
vn -0.6549788117408752 -0.6549766659736633 -0.3768399953842163
vn -0.6549788117408752 -0.6549766659736633 -0.3768399953842163
vn -0.23973910510540009 -0.8947160840034485 -0.37683993577957153
vn -0.239738330245018 0.894716203212738 -0.37684008479118347
vn -0.23973830044269562 0.894716203212738 -0.37684017419815063
vn -0.8043547868728638 -0.5653931498527527 0.18260334432125092
vn -0.9792882204055786 -0.0874672457575798 0.1826035976409912
vn -0.8918222188949585 0.41389504075050354 0.18260343372821808
vn -0.5653932690620422 0.8043546676635742 0.18260344862937927
vn -0.12838999927043915 0.47915780544281006 -0.8682878613471985
vn 0.239738330245018 0.894716203212738 -0.37684008479118347
vn 0.23973830044269562 0.894716203212738 -0.37684017419815063
vn 0.6549766659736633 0.6549788117408752 -0.37684014439582825
vn 0.6549769043922424 0.6549786329269409 -0.37683987617492676
vn 0.8947160840034485 0.23973917961120605 -0.37683987617492676
vn 0.8947159647941589 0.2397393137216568 -0.3768399953842163
vn 0.8947165012359619 -0.2397378385066986 -0.3768399953842163
vn 0.8947163820266724 -0.23973777890205383 -0.3768399953842163
vn 0.6549788117408752 -0.6549766063690186 -0.37684008479118347
vn 0.6549788117408752 -0.6549766659736633 -0.3768399953842163
vn -0.23973910510540009 -0.8947160840034485 -0.37683993577957153
vn 0.3375107944011688 -0.49992692470550537 0.7975960969924927
vn 0.0 -0.6325439214706421 0.7745245099067688
vn 0.5422564148902893 -0.26419416069984436 0.7975960373878479
vn 0.6017049551010132 0.04232924431562424 0.7975960373878479
vn 0.49992725253105164 0.33751046657562256 0.7975960373878479
vn 0.2641943693161011 0.5422564148902893 0.7975960969924927
vn 0.0 0.5550464391708374 0.8318193554878235
vn -0.3375107944011688 -0.49992692470550537 0.7975960969924927
vn -0.5422564148902893 -0.26419416069984436 0.7975960373878479
vn -0.6017049551010132 0.04232924431562424 0.7975960373878479
vn -0.49992725253105164 0.33751046657562256 0.7975960373878479
vn -0.2641943693161011 0.5422564148902893 0.7975960969924927
vn -0.6549769043922424 0.6549786329269409 -0.37683987617492676
vn -0.6549766659736633 0.6549788117408752 -0.37684014439582825
vn -0.8947159647941589 0.2397393137216568 -0.3768399953842163
vn -0.8947160840034485 0.23973917961120605 -0.37683987617492676
vn -0.8947163820266724 -0.23973777890205383 -0.3768399953842163
vn -0.8947165012359619 -0.2397378385066986 -0.3768399953842163
vn -0.6549788117408752 -0.6549766659736633 -0.3768399953842163
vn -0.6549788117408752 -0.6549766063690186 -0.37684008479118347
vn -0.23973910510540009 -0.8947160840034485 -0.37683993577957153
vn -0.23973922431468964 -0.8947160840034485 -0.37684008479118347
vn -0.12838999927043915 0.47915780544281006 -0.8682878613471985
vn -0.12838999927043915 0.47915780544281006 -0.8682878613471985
vn -1.9832938846775505e-07 0.0 -1.0
vn -1.9832938846775505e-07 0.0 -1.0
vn -1.9832938846775505e-07 0.0 -1.0
vn -1.9832937425690034e-07 -8.440968769492328e-15 -1.0
vn -0.3507673144340515 0.35076844692230225 -0.8682878613471985
vn -0.3507673144340515 0.35076844692230225 -0.8682878613471985
vn -0.3507673144340515 0.35076844692230225 -0.8682878613471985
vn -7.25934086176494e-08 7.259355783162391e-08 -1.0
vn -7.25934086176494e-08 7.259355783162391e-08 -1.0
vn -7.25934086176494e-08 7.259355783162391e-08 -1.0
vn -7.259337309051261e-08 7.259355783162391e-08 -1.0
vn -0.4791577160358429 0.12839031219482422 -0.868287980556488
vn -0.4791577160358429 0.12839031219482422 -0.868287980556488
vn -0.4791577160358429 0.12839031219482422 -0.868287980556488
vn -9.916445975477473e-08 2.657114883675149e-08 -1.0
vn -9.916445975477473e-08 2.657114883675149e-08 -1.0
vn -9.916445975477473e-08 2.657114883675149e-08 -1.0
vn -9.916450949276623e-08 2.6571139954967293e-08 -1.0
vn -0.4791578948497772 -0.12838958203792572 -0.8682878613471985
vn -0.4791578948497772 -0.12838958203792572 -0.8682878613471985
vn -0.4791578948497772 -0.12838958203792572 -0.8682878613471985
vn -9.916453791447566e-08 -2.6570988964635944e-08 -1.0
vn -9.916453791447566e-08 -2.6570988964635944e-08 -1.0
vn -9.916453791447566e-08 -2.6570988964635944e-08 -1.0
vn -9.916451659819359e-08 -2.657096942471071e-08 -1.0
vn -0.3507683575153351 -0.35076719522476196 -0.8682879209518433
vn -0.3507683575153351 -0.35076719522476196 -0.8682879209518433
vn -0.3507683575153351 -0.35076719522476196 -0.8682879209518433
vn -7.259355072619655e-08 -7.259330203623904e-08 -1.0
vn -7.259355072619655e-08 -7.259330203623904e-08 -1.0
vn -7.259355072619655e-08 -7.259330203623904e-08 -1.0
vn -7.259357914790598e-08 -7.25933588796579e-08 -1.0
vn -0.12839041650295258 -0.4791575074195862 -0.868287980556488
vn -0.12839041650295258 -0.4791575074195862 -0.868287980556488
vn -0.12839041650295258 -0.4791575074195862 -0.868287980556488
vn -1.9832864950330986e-07 -4.5018306980447106e-14 -1.0
vn -1.9832864950330986e-07 -4.5018306980447106e-14 -1.0
vn -1.9832864950330986e-07 -4.5018306980447106e-14 -1.0
vn -1.9832864950330986e-07 0.0 -1.0
vn 0.239738330245018 0.894716203212738 -0.37684008479118347
vn 0.239738330245018 0.894716203212738 -0.37684008479118347
vn 0.6549766659736633 0.6549788117408752 -0.37684014439582825
vn 0.6549766659736633 0.6549788117408752 -0.37684014439582825
vn 0.8947160840034485 0.23973917961120605 -0.37683987617492676
vn 0.8947160840034485 0.23973917961120605 -0.37683987617492676
vn 0.8947165012359619 -0.2397378385066986 -0.3768399953842163
vn 0.8947165012359619 -0.2397378385066986 -0.3768399953842163
vn 0.6549788117408752 -0.6549766063690186 -0.37684008479118347
vn 0.6549788117408752 -0.6549766063690186 -0.37684008479118347
vn 0.23973922431468964 -0.8947160840034485 -0.37684008479118347
vn 0.23973922431468964 -0.8947160840034485 -0.37684008479118347
vn 0.23973922431468964 -0.8947160840034485 -0.37684008479118347
vn 0.23973910510540009 -0.8947160840034485 -0.37683993577957153
vn 0.12839007377624512 0.47915780544281006 -0.8682878613471985
vn 0.12839007377624512 0.47915780544281006 -0.8682878613471985
vn 0.12839007377624512 0.47915780544281006 -0.8682878613471985
vn 1.9832937425690034e-07 -8.440968769492328e-15 -1.0
vn 1.9832937425690034e-07 -8.440968769492328e-15 -1.0
vn 0.3507673144340515 0.35076847672462463 -0.8682878613471985
vn 0.3507673144340515 0.35076847672462463 -0.8682878613471985
vn 0.3507673144340515 0.35076847672462463 -0.8682878613471985
vn 7.259337309051261e-08 7.259355783162391e-08 -1.0
vn 7.259337309051261e-08 7.259355783162391e-08 -1.0
vn 7.259337309051261e-08 7.259355783162391e-08 -1.0
vn 7.25934086176494e-08 7.259355783162391e-08 -1.0
vn 0.4791577458381653 0.12839026749134064 -0.868287980556488
vn 0.4791577458381653 0.12839026749134064 -0.868287980556488
vn 0.4791577458381653 0.12839026749134064 -0.868287980556488
vn 9.916450949276623e-08 2.6571139954967293e-08 -1.0
vn 9.916450949276623e-08 2.6571139954967293e-08 -1.0
vn 9.916450949276623e-08 2.6571139954967293e-08 -1.0
vn 9.916445975477473e-08 2.657114883675149e-08 -1.0
vn 0.4791578948497772 -0.12838956713676453 -0.8682878613471985
vn 0.4791578948497772 -0.12838956713676453 -0.8682878613471985
vn 0.4791578948497772 -0.12838956713676453 -0.8682878613471985
vn 9.916451659819359e-08 -2.657096942471071e-08 -1.0
vn 9.916451659819359e-08 -2.657096942471071e-08 -1.0
vn 9.916451659819359e-08 -2.657096942471071e-08 -1.0
vn 9.916453791447566e-08 -2.6570988964635944e-08 -1.0
vn 0.35076838731765747 -0.3507672846317291 -0.8682879209518433
vn 0.35076838731765747 -0.3507672846317291 -0.8682879209518433
vn 0.35076838731765747 -0.3507672846317291 -0.8682879209518433
vn 7.259357914790598e-08 -7.25933588796579e-08 -1.0
vn 7.259357914790598e-08 -7.25933588796579e-08 -1.0
vn 7.259357914790598e-08 -7.25933588796579e-08 -1.0
vn 7.259355072619655e-08 -7.259330203623904e-08 -1.0
vn 0.12839040160179138 -0.47915753722190857 -0.868287980556488
vn 0.12839040160179138 -0.47915753722190857 -0.868287980556488
vn 0.12839040160179138 -0.47915753722190857 -0.868287980556488
vn 1.9832864950330986e-07 0.0 -1.0
vn 1.9832864950330986e-07 -4.5018306980447106e-14 -1.0
f 124/124/124 177/177/177 176/176/176
f 176/176/176 125/125/125 124/124/124
f 173/173/173 174/174/174 175/175/175
f 171/171/171 172/172/172 169/169/169
f 169/169/169 170/170/170 171/171/171
f 166/166/166 167/167/167 168/168/168
f 164/164/164 165/165/165 162/162/162
f 162/162/162 163/163/163 164/164/164
f 159/159/159 160/160/160 161/161/161
f 157/157/157 158/158/158 155/155/155
f 155/155/155 156/156/156 157/157/157
f 152/152/152 153/153/153 154/154/154
f 150/150/150 151/151/151 148/148/148
f 148/148/148 149/149/149 150/150/150
f 145/145/145 146/146/146 147/147/147
f 144/144/144 88/88/88 87/87/87
f 87/87/87 143/143/143 144/144/144
f 140/140/140 141/141/141 142/142/142
f 138/138/138 139/139/139 136/136/136
f 136/136/136 137/137/137 138/138/138
f 135/135/135 61/61/61 60/60/60
f 60/60/60 134/134/134 135/135/135
f 133/133/133 59/59/59 58/58/58
f 58/58/58 132/132/132 133/133/133
f 131/131/131 57/57/57 56/56/56
f 56/56/56 130/130/130 131/131/131
f 129/129/129 55/55/55 54/54/54
f 54/54/54 128/128/128 129/129/129
f 127/127/127 53/53/53 52/52/52
f 52/52/52 126/126/126 127/127/127
f 124/124/124 125/125/125 122/122/122
f 122/122/122 123/123/123 124/124/124
f 119/119/119 120/120/120 121/121/121
f 117/117/117 118/118/118 115/115/115
f 115/115/115 116/116/116 117/117/117
f 112/112/112 113/113/113 114/114/114
f 110/110/110 111/111/111 108/108/108
f 108/108/108 109/109/109 110/110/110
f 105/105/105 106/106/106 107/107/107
f 103/103/103 104/104/104 101/101/101
f 101/101/101 102/102/102 103/103/103
f 98/98/98 99/99/99 100/100/100
f 96/96/96 97/97/97 94/94/94
f 94/94/94 95/95/95 96/96/96
f 91/91/91 92/92/92 93/93/93
f 89/89/89 90/90/90 87/87/87
f 87/87/87 88/88/88 89/89/89
f 85/85/85 86/86/86 51/51/51
f 83/83/83 84/84/84 44/44/44
f 44/44/44 62/62/62 83/83/83
f 81/81/81 82/82/82 42/42/42
f 42/42/42 43/43/43 81/81/81
f 79/79/79 80/80/80 40/40/40
f 40/40/40 41/41/41 79/79/79
f 77/77/77 78/78/78 38/38/38
f 38/38/38 39/39/39 77/77/77
f 75/75/75 76/76/76 36/36/36
f 36/36/36 37/37/37 75/75/75
f 46/46/46 45/45/45 34/34/34
f 34/34/34 35/35/35 46/46/46
f 26/26/26 8/8/8 32/32/32
f 32/32/32 50/50/50 26/26/26
f 25/25/25 26/26/26 50/50/50
f 50/50/50 49/49/49 25/25/25
f 24/24/24 25/25/25 49/49/49
f 49/49/49 48/48/48 24/24/24
f 23/23/23 24/24/24 48/48/48
f 48/48/48 47/47/47 23/23/23
f 22/22/22 23/23/23 47/47/47
f 47/47/47 27/27/27 22/22/22
f 9/9/9 22/22/22 27/27/27
f 27/27/27 33/33/33 9/9/9
f 74/74/74 69/69/69 8/8/8
f 8/8/8 26/26/26 74/74/74
f 73/73/73 74/74/74 26/26/26
f 26/26/26 25/25/25 73/73/73
f 72/72/72 73/73/73 25/25/25
f 25/25/25 24/24/24 72/72/72
f 71/71/71 72/72/72 24/24/24
f 24/24/24 23/23/23 71/71/71
f 70/70/70 71/71/71 23/23/23
f 23/23/23 22/22/22 70/70/70
f 64/64/64 70/70/70 22/22/22
f 22/22/22 9/9/9 64/64/64
f 16/16/16 1/1/1 21/21/21
f 16/16/16 21/21/21 20/20/20
f 16/16/16 20/20/20 19/19/19
f 16/16/16 19/19/19 18/18/18
f 16/16/16 18/18/18 17/17/17
f 16/16/16 17/17/17 2/2/2
f 14/14/14 15/15/15 32/32/32
f 32/32/32 8/8/8 14/14/14
f 13/13/13 31/31/31 15/15/15
f 15/15/15 14/14/14 13/13/13
f 12/12/12 30/30/30 31/31/31
f 31/31/31 13/13/13 12/12/12
f 11/11/11 29/29/29 30/30/30
f 30/30/30 12/12/12 11/11/11
f 10/10/10 28/28/28 29/29/29
f 29/29/29 11/11/11 10/10/10
f 9/9/9 33/33/33 28/28/28
f 28/28/28 10/10/10 9/9/9
f 68/68/68 14/14/14 8/8/8
f 8/8/8 69/69/69 68/68/68
f 67/67/67 13/13/13 14/14/14
f 14/14/14 68/68/68 67/67/67
f 66/66/66 12/12/12 13/13/13
f 13/13/13 67/67/67 66/66/66
f 65/65/65 11/11/11 12/12/12
f 12/12/12 66/66/66 65/65/65
f 63/63/63 10/10/10 11/11/11
f 11/11/11 65/65/65 63/63/63
f 64/64/64 9/9/9 10/10/10
f 10/10/10 63/63/63 64/64/64
f 16/16/16 7/7/7 1/1/1
f 16/16/16 6/6/6 7/7/7
f 16/16/16 5/5/5 6/6/6
f 16/16/16 4/4/4 5/5/5
f 16/16/16 3/3/3 4/4/4
f 16/16/16 2/2/2 3/3/3
