# Recovered local-space geometry; original node transforms not applied
o mesh_0
v -9.319066975876922e-07 25.569734573364258 34.319175720214844
v -9.319066975876922e-07 -25.569734573364258 34.319175720214844
v 12.78483772277832 -22.1440486907959 34.319175720214844
v 22.144020080566406 -12.784879684448242 34.319175720214844
v 25.569719314575195 -1.8624818039825186e-05 34.319175720214844
v 22.144039154052734 12.784842491149902 34.319175720214844
v 12.784879684448242 22.144023895263672 34.319175720214844
v -9.319066975876922e-07 37.849143981933594 19.69011878967285
v -9.319066975876922e-07 -37.849143981933594 19.69011878967285
v 18.92453956604004 -32.778343200683594 19.69011878967285
v 32.77830123901367 -18.924598693847656 19.69011878967285
v 37.84913635253906 -3.0517578125e-05 19.69011878967285
v 32.77832794189453 18.924545288085938 19.69011878967285
v 18.924602508544922 32.77830505371094 19.69011878967285
v 20.7603759765625 35.95793914794922 0.0
v -9.319066975876922e-07 0.0 42.491485595703125
v -12.784839630126953 -22.1440486907959 34.319175720214844
v -22.144020080566406 -12.784879684448242 34.319175720214844
v -25.569719314575195 -1.8624818039825186e-05 34.319175720214844
v -22.144039154052734 12.784842491149902 34.319175720214844
v -12.784881591796875 22.144023895263672 34.319175720214844
v -18.92453956604004 -32.778343200683594 19.69011878967285
v -32.77830123901367 -18.924598693847656 19.69011878967285
v -37.84913635253906 -3.0517578125e-05 19.69011878967285
v -32.77832794189453 18.924545288085938 19.69011878967285
v -18.924602508544922 32.77830505371094 19.69011878967285
v -20.760295867919922 -35.957969665527344 0.0
v 20.760295867919922 -35.957969665527344 0.0
v 35.95793533325195 -20.760372161865234 0.0
v 41.520668029785156 -4.08693595090881e-05 0.0
v 35.957969665527344 20.760295867919922 0.0
v -9.319066975876922e-07 -41.520668029785156 0.0
v -35.95793533325195 -20.760372161865234 0.0
v -41.520668029785156 -4.08693595090881e-05 0.0
v -35.957969665527344 20.760295867919922 0.0
v -20.7603759765625 35.95793914794922 0.0
v -9.319066975876922e-07 8.337285939755135e-13 -42.491485595703125
v -9.319066975876922e-07 25.569734573364258 -34.319175720214844
v -9.319066975876922e-07 -25.569734573364258 -34.319175720214844
v 12.784835815429688 -22.14405059814453 -34.319175720214844
v 22.144018173217773 -12.784881591796875 -34.319175720214844
v 25.569719314575195 -2.0860194126726128e-05 -34.319175720214844
v 22.144041061401367 12.78484058380127 -34.319175720214844
v 12.784881591796875 22.14402198791504 -34.319175720214844
v -9.319066975876922e-07 -37.849143981933594 -19.69011878967285
v 18.924535751342773 -32.778343200683594 -19.69011878967285
v 32.77830123901367 -18.924602508544922 -19.69011878967285
v 37.84913635253906 -3.3826454455265775e-05 -19.69011878967285
v 32.77832794189453 18.924541473388672 -19.69011878967285
v 18.924606323242188 32.77830505371094 -19.69011878967285
v -12.78483772277832 -22.14405059814453 -34.319175720214844
v -22.144018173217773 -12.784881591796875 -34.319175720214844
v -25.569719314575195 -2.0860194126726128e-05 -34.319175720214844
v -22.144041061401367 12.78484058380127 -34.319175720214844
v -12.784883499145508 22.14402198791504 -34.319175720214844
v -9.319066975876922e-07 37.849143981933594 -19.69011878967285
v -18.924535751342773 -32.778343200683594 -19.69011878967285
v -32.77830123901367 -18.924602508544922 -19.69011878967285
v -37.84913635253906 -3.3826454455265775e-05 -19.69011878967285
v -32.77832794189453 18.924541473388672 -19.69011878967285
v -18.924606323242188 32.77830505371094 -19.69011878967285
v -9.319066975876922e-07 41.52067947387695 0.0
v 12.78483772277832 -22.1440486907959 34.319175720214844
v -9.319066975876922e-07 -25.569734573364258 34.319175720214844
v 22.144020080566406 -12.784879684448242 34.319175720214844
v 25.569719314575195 -1.8624818039825186e-05 34.319175720214844
v 22.144039154052734 12.784842491149902 34.319175720214844
v 12.784879684448242 22.144023895263672 34.319175720214844
v -9.319066975876922e-07 25.569734573364258 34.319175720214844
v -12.784839630126953 -22.1440486907959 34.319175720214844
v -22.144020080566406 -12.784879684448242 34.319175720214844
v -25.569719314575195 -1.8624818039825186e-05 34.319175720214844
v -22.144039154052734 12.784842491149902 34.319175720214844
v -12.784881591796875 22.144023895263672 34.319175720214844
vt 0.7970325350761414 0.2674275040626526
vt 0.7970325946807861 0.35662955045700073
vt 0.7747320532798767 0.3506542444229126
vt 0.7584068775177002 0.3343290686607361
vt 0.7524315118789673 0.31202858686447144
vt 0.7584068775177002 0.2897281050682068
vt 0.7747319936752319 0.2734028697013855
vt 0.8668721318244934 0.2822299599647522
vt 0.8669009208679199 0.2822299599647522
vt 0.8507505655288696 0.2822299599647522
vt 0.8280620574951172 0.2822299599647522
vt 0.8025100827217102 0.2822299599647522
vt 0.8280331492424011 0.2822299599647522
vt 0.8507216572761536 0.2822299599647522
vt 0.8554011583328247 0.3091617822647095
vt 0.7970325350761414 0.31202858686447144
vt 0.7747320532798767 0.3506542444229126
vt 0.7584068775177002 0.3343290686607361
vt 0.7524315118789673 0.31202858686447144
vt 0.7584068775177002 0.2897281050682068
vt 0.7747319936752319 0.2734028697013855
vt 0.8507505655288696 0.2822299599647522
vt 0.8280620574951172 0.2822299599647522
vt 0.8025100827217102 0.2822299599647522
vt 0.8280331492424011 0.2822299599647522
vt 0.8507216572761536 0.2822299599647522
vt 0.8554300665855408 0.3091617822647095
vt 0.8554300665855408 0.3091617822647095
vt 0.8305407166481018 0.3091617822647095
vt 0.8025102019309998 0.3091617822647095
vt 0.830511748790741 0.3091617822647095
vt 0.8731471300125122 0.3091617822647095
vt 0.8305407166481018 0.3091617822647095
vt 0.8025102019309998 0.3091617822647095
vt 0.830511748790741 0.3091617822647095
vt 0.8554011583328247 0.3091617822647095
vt 0.8025100827217102 0.36826545000076294
vt 0.8485918045043945 0.3582702875137329
vt 0.848620593547821 0.3582702875137329
vt 0.8364034295082092 0.3565385341644287
vt 0.8197721838951111 0.3561922311782837
vt 0.8025100827217102 0.3561922311782837
vt 0.819743275642395 0.3561922311782837
vt 0.8363745808601379 0.3565385937690735
vt 0.8669009208679199 0.3357473611831665
vt 0.8507505655288696 0.3357474207878113
vt 0.8280620574951172 0.3357474207878113
vt 0.8025102019309998 0.3357474207878113
vt 0.8280331492424011 0.3357474207878113
vt 0.8507216572761536 0.3357474207878113
vt 0.8364034295082092 0.3565385341644287
vt 0.8197721838951111 0.3561922311782837
vt 0.8025100827217102 0.3561922311782837
vt 0.819743275642395 0.3561922311782837
vt 0.8363745808601379 0.3565385937690735
vt 0.8668721318244934 0.3357474207878113
vt 0.8507505655288696 0.3357474207878113
vt 0.8280620574951172 0.3357474207878113
vt 0.8025102019309998 0.3357474207878113
vt 0.8280331492424011 0.3357474207878113
vt 0.8507216572761536 0.3357474207878113
vt 0.8731182813644409 0.3091617822647095
vt 0.83738112449646 0.2607460618019104
vt 0.8507956862449646 0.2607460618019104
vt 0.8197721838951111 0.2607460618019104
vt 0.8025100827217102 0.2607460618019104
vt 0.819743275642395 0.2607460618019104
vt 0.8373522162437439 0.2607460618019104
vt 0.8507668375968933 0.2607460618019104
vt 0.83738112449646 0.2607460618019104
vt 0.8197721838951111 0.2607460618019104
vt 0.8025100827217102 0.2607460618019104
vt 0.819743275642395 0.2607460618019104
vt 0.8373522162437439 0.2607460618019104
vn 0.0 0.5550464391708374 0.8318193554878235
vn 0.0 -0.6325439214706421 0.7745245099067688
vn 0.3375107944011688 -0.49992692470550537 0.7975960969924927
vn 0.5422564148902893 -0.26419416069984436 0.7975960373878479
vn 0.6017049551010132 0.04232924431562424 0.7975960373878479
vn 0.49992725253105164 0.33751046657562256 0.7975960373878479
vn 0.2641943693161011 0.5422564148902893 0.7975960969924927
vn 0.0 0.8627113103866577 0.505696713924408
vn 5.268480762765648e-09 -0.9374895095825195 0.3480135500431061
vn 0.4599398076534271 -0.7776334881782532 0.428650826215744
vn 0.7871361970901489 -0.44348034262657166 0.4286511242389679
vn 0.9034201502799988 0.009502891451120377 0.4286510646343231
vn 0.7776336073875427 0.45993947982788086 0.42865097522735596
vn 0.4434804916381836 0.7871362566947937 0.4286511540412903
vn 0.575062096118927 0.8181097507476807 1.8215043695590794e-08
vn 2.615949012962915e-09 -1.5172504674865195e-07 1.0
vn -0.3375107944011688 -0.49992692470550537 0.7975960969924927
vn -0.5422564148902893 -0.26419416069984436 0.7975960373878479
vn -0.6017049551010132 0.04232924431562424 0.7975960373878479
vn -0.49992725253105164 0.33751046657562256 0.7975960373878479
vn -0.2641943693161011 0.5422564148902893 0.7975960969924927
vn -0.4599398076534271 -0.7776334881782532 0.428650826215744
vn -0.7871361970901489 -0.44348034262657166 0.4286511242389679
vn -0.9034201502799988 0.0095028942450881 0.42865103483200073
vn -0.7776336073875427 0.45993953943252563 0.4286509156227112
vn -0.4434804320335388 0.7871361374855042 0.4286511242389679
vn -0.4209732413291931 -0.9070730805397034 -3.122578107195295e-08
vn 0.4209732413291931 -0.9070730805397034 -2.8623633241409152e-08
vn 0.818109929561615 -0.5750619173049927 1.3010745369967935e-08
vn 0.9960349202156067 -0.08896299451589584 2.602148940766824e-09
vn 0.9070731997489929 0.4209729731082916 -3.903223344536855e-08
vn 0.0 -1.0 0.0
vn -0.818109929561615 -0.5750619173049927 1.3010745369967935e-08
vn -0.9960349202156067 -0.08896299451589584 2.602148940766824e-09
vn -0.9070731997489929 0.4209729731082916 -4.4236529106456146e-08
vn -0.575062096118927 0.8181097507476807 2.0817195078848272e-08
vn -2.615949012962915e-09 -1.6742073682962655e-07 -1.0
vn 0.0 0.5550463795661926 -0.8318194150924683
vn 0.0 -0.6325439810752869 -0.7745245695114136
vn 0.33751073479652405 -0.4999271035194397 -0.7975961565971375
vn 0.5422562956809998 -0.26419416069984436 -0.7975960969924927
vn 0.601705014705658 0.04232918843626976 -0.7975960969924927
vn 0.499927282333374 0.3375103771686554 -0.7975960373878479
vn 0.2641943395137787 0.5422563552856445 -0.7975961565971375
vn 0.0 -0.9374895095825195 -0.34801357984542847
vn 0.4599398374557495 -0.7776334881782532 -0.42865079641342163
vn 0.7871363162994385 -0.4434804320335388 -0.4286511242389679
vn 0.9034201502799988 0.009502875618636608 -0.4286510646343231
vn 0.7776336669921875 0.4599393904209137 -0.4286509156227112
vn 0.4434804618358612 0.7871361374855042 -0.4286511242389679
vn -0.33751073479652405 -0.4999271035194397 -0.7975961565971375
vn -0.5422563552856445 -0.26419416069984436 -0.7975960969924927
vn -0.601705014705658 0.04232918471097946 -0.7975959777832031
vn -0.499927282333374 0.3375103771686554 -0.7975960373878479
vn -0.2641943395137787 0.5422563552856445 -0.7975961565971375
vn 0.0 0.8627113103866577 -0.505696713924408
vn -0.4599398374557495 -0.7776334881782532 -0.42865079641342163
vn -0.7871363162994385 -0.4434804320335388 -0.4286511242389679
vn -0.9034201502799988 0.009502872824668884 -0.4286510944366455
vn -0.7776336669921875 0.4599393904209137 -0.4286509156227112
vn -0.4434804618358612 0.7871361374855042 -0.4286511242389679
vn 0.0 1.0 1.9593811018125962e-08
vn 0.3375107944011688 -0.49992692470550537 0.7975960969924927
vn 0.0 -0.6325439214706421 0.7745245099067688
vn 0.5422564148902893 -0.26419416069984436 0.7975960373878479
vn 0.6017049551010132 0.04232924431562424 0.7975960373878479
vn 0.49992725253105164 0.33751046657562256 0.7975960373878479
vn 0.2641943693161011 0.5422564148902893 0.7975960969924927
vn 0.0 0.5550464391708374 0.8318193554878235
vn -0.3375107944011688 -0.49992692470550537 0.7975960969924927
vn -0.5422564148902893 -0.26419416069984436 0.7975960373878479
vn -0.6017049551010132 0.04232924431562424 0.7975960373878479
vn -0.49992725253105164 0.33751046657562256 0.7975960373878479
vn -0.2641943693161011 0.5422564148902893 0.7975960969924927
f 61/61/61 36/36/36 62/62/62
f 62/62/62 56/56/56 61/61/61
f 60/60/60 35/35/35 36/36/36
f 36/36/36 61/61/61 60/60/60
f 59/59/59 34/34/34 35/35/35
f 35/35/35 60/60/60 59/59/59
f 58/58/58 33/33/33 34/34/34
f 34/34/34 59/59/59 58/58/58
f 57/57/57 27/27/27 33/33/33
f 33/33/33 58/58/58 57/57/57
f 45/45/45 32/32/32 27/27/27
f 27/27/27 57/57/57 45/45/45
f 55/55/55 61/61/61 56/56/56
f 56/56/56 38/38/38 55/55/55
f 54/54/54 60/60/60 61/61/61
f 61/61/61 55/55/55 54/54/54
f 53/53/53 59/59/59 60/60/60
f 60/60/60 54/54/54 53/53/53
f 52/52/52 58/58/58 59/59/59
f 59/59/59 53/53/53 52/52/52
f 51/51/51 57/57/57 58/58/58
f 58/58/58 52/52/52 51/51/51
f 39/39/39 45/45/45 57/57/57
f 57/57/57 51/51/51 39/39/39
f 37/37/37 55/55/55 38/38/38
f 37/37/37 54/54/54 55/55/55
f 37/37/37 53/53/53 54/54/54
f 37/37/37 52/52/52 53/53/53
f 37/37/37 51/51/51 52/52/52
f 37/37/37 39/39/39 51/51/51
f 50/50/50 56/56/56 62/62/62
f 62/62/62 15/15/15 50/50/50
f 49/49/49 50/50/50 15/15/15
f 15/15/15 31/31/31 49/49/49
f 48/48/48 49/49/49 31/31/31
f 31/31/31 30/30/30 48/48/48
f 47/47/47 48/48/48 30/30/30
f 30/30/30 29/29/29 47/47/47
f 46/46/46 47/47/47 29/29/29
f 29/29/29 28/28/28 46/46/46
f 45/45/45 46/46/46 28/28/28
f 28/28/28 32/32/32 45/45/45
f 44/44/44 38/38/38 56/56/56
f 56/56/56 50/50/50 44/44/44
f 43/43/43 44/44/44 50/50/50
f 50/50/50 49/49/49 43/43/43
f 42/42/42 43/43/43 49/49/49
f 49/49/49 48/48/48 42/42/42
f 41/41/41 42/42/42 48/48/48
f 48/48/48 47/47/47 41/41/41
f 40/40/40 41/41/41 47/47/47
f 47/47/47 46/46/46 40/40/40
f 39/39/39 40/40/40 46/46/46
f 46/46/46 45/45/45 39/39/39
f 37/37/37 38/38/38 44/44/44
f 37/37/37 44/44/44 43/43/43
f 37/37/37 43/43/43 42/42/42
f 37/37/37 42/42/42 41/41/41
f 37/37/37 41/41/41 40/40/40
f 37/37/37 40/40/40 39/39/39
f 26/26/26 8/8/8 62/62/62
f 62/62/62 36/36/36 26/26/26
f 25/25/25 26/26/26 36/36/36
f 36/36/36 35/35/35 25/25/25
f 24/24/24 25/25/25 35/35/35
f 35/35/35 34/34/34 24/24/24
f 23/23/23 24/24/24 34/34/34
f 34/34/34 33/33/33 23/23/23
f 22/22/22 23/23/23 33/33/33
f 33/33/33 27/27/27 22/22/22
f 9/9/9 22/22/22 27/27/27
f 27/27/27 32/32/32 9/9/9
f 74/74/74 69/69/69 8/8/8
f 8/8/8 26/26/26 74/74/74
f 73/73/73 74/74/74 26/26/26
f 26/26/26 25/25/25 73/73/73
f 72/72/72 73/73/73 25/25/25
f 25/25/25 24/24/24 72/72/72
f 71/71/71 72/72/72 24/24/24
f 24/24/24 23/23/23 71/71/71
f 70/70/70 71/71/71 23/23/23
f 23/23/23 22/22/22 70/70/70
f 64/64/64 70/70/70 22/22/22
f 22/22/22 9/9/9 64/64/64
f 16/16/16 1/1/1 21/21/21
f 16/16/16 21/21/21 20/20/20
f 16/16/16 20/20/20 19/19/19
f 16/16/16 19/19/19 18/18/18
f 16/16/16 18/18/18 17/17/17
f 16/16/16 17/17/17 2/2/2
f 14/14/14 15/15/15 62/62/62
f 62/62/62 8/8/8 14/14/14
f 13/13/13 31/31/31 15/15/15
f 15/15/15 14/14/14 13/13/13
f 12/12/12 30/30/30 31/31/31
f 31/31/31 13/13/13 12/12/12
f 11/11/11 29/29/29 30/30/30
f 30/30/30 12/12/12 11/11/11
f 10/10/10 28/28/28 29/29/29
f 29/29/29 11/11/11 10/10/10
f 9/9/9 32/32/32 28/28/28
f 28/28/28 10/10/10 9/9/9
f 68/68/68 14/14/14 8/8/8
f 8/8/8 69/69/69 68/68/68
f 67/67/67 13/13/13 14/14/14
f 14/14/14 68/68/68 67/67/67
f 66/66/66 12/12/12 13/13/13
f 13/13/13 67/67/67 66/66/66
f 65/65/65 11/11/11 12/12/12
f 12/12/12 66/66/66 65/65/65
f 63/63/63 10/10/10 11/11/11
f 11/11/11 65/65/65 63/63/63
f 64/64/64 9/9/9 10/10/10
f 10/10/10 63/63/63 64/64/64
f 16/16/16 7/7/7 1/1/1
f 16/16/16 6/6/6 7/7/7
f 16/16/16 5/5/5 6/6/6
f 16/16/16 4/4/4 5/5/5
f 16/16/16 3/3/3 4/4/4
f 16/16/16 2/2/2 3/3/3
