# Recovered local-space geometry; original node transforms not applied
o mesh_0
v 19.555625915527344 -1.0594703780952841e-08 -1.8331573009490967
v 14.142135620117188 14.142135620117188 -1.8331573009490967
v -8.541412057638809e-07 19.555625915527344 -1.8331573009490967
v -14.142135620117188 14.142135620117188 -1.8331573009490967
v -19.555625915527344 -1.7202019080286846e-06 -1.8331573009490967
v -14.142132759094238 -14.142138481140137 -1.8331573009490967
v 2.3386090219901234e-07 -19.555625915527344 -1.8331573009490967
v 14.142133712768555 -14.14213752746582 -1.8331573009490967
v 19.555625915527344 -1.0594703780952841e-08 1.8331573009490967
v 14.142135620117188 14.142135620117188 1.8331573009490967
v -8.541412057638809e-07 19.555625915527344 1.8331573009490967
v -14.142135620117188 14.142135620117188 1.8331573009490967
v -19.555625915527344 -1.7202019080286846e-06 1.8331573009490967
v -14.142132759094238 -14.142138481140137 1.8331573009490967
v 2.3386090219901234e-07 -19.555625915527344 1.8331573009490967
v 14.142133712768555 -14.14213752746582 1.8331573009490967
v 18.194597244262695 7.5364484786987305 -1.8331573009490967
v 18.194597244262695 7.5364484786987305 1.8331573009490967
v 7.536448001861572 18.194597244262695 -1.8331573009490967
v 7.536448001861572 18.194597244262695 1.8331573009490967
v -7.536448955535889 18.194597244262695 -1.8331573009490967
v -7.536448955535889 18.194597244262695 1.8331573009490967
v -18.194597244262695 7.536447525024414 -1.8331573009490967
v -18.194597244262695 7.536447525024414 1.8331573009490967
v -18.194595336914062 -7.536451816558838 -1.8331573009490967
v -18.194595336914062 -7.5364508628845215 1.8331573009490967
v -7.536447048187256 -18.194599151611328 -1.8331573009490967
v -7.536446571350098 -18.194599151611328 1.8331573009490967
v 7.536448001861572 -18.194597244262695 -1.8331573009490967
v 7.536447525024414 -18.194597244262695 1.8331573009490967
v 18.194597244262695 -7.536449432373047 -1.8331573009490967
v 18.194597244262695 -7.536449432373047 1.8331573009490967
v -14.142132759094238 -14.142138481140137 -1.8331573009490967
v -18.194595336914062 -7.536451816558838 -1.8331573009490967
v 18.194597244262695 -7.536449432373047 -1.8331573009490967
v 14.142133712768555 -14.14213752746582 -1.8331573009490967
v -19.555625915527344 -1.7202019080286846e-06 1.8331573009490967
v -18.194595336914062 -7.5364508628845215 1.8331573009490967
v 18.194597244262695 -7.536449432373047 1.8331573009490967
v 19.555625915527344 -1.0594703780952841e-08 1.8331573009490967
v 7.536448001861572 -18.194597244262695 -1.8331573009490967
v 2.3386090219901234e-07 -19.555625915527344 -1.8331573009490967
v -7.536447048187256 -18.194599151611328 -1.8331573009490967
v -7.536446571350098 -18.194599151611328 1.8331573009490967
v 2.3386090219901234e-07 -19.555625915527344 1.8331573009490967
v 7.536447525024414 -18.194597244262695 1.8331573009490967
v 14.142133712768555 -14.14213752746582 1.8331573009490967
v -14.142132759094238 -14.142138481140137 1.8331573009490967
v -19.555625915527344 -1.7202019080286846e-06 -1.8331573009490967
v 19.555625915527344 -1.0594703780952841e-08 -1.8331573009490967
v 18.194597244262695 7.5364484786987305 1.8331573009490967
v -18.194597244262695 7.536447525024414 1.8331573009490967
v -18.194597244262695 7.536447525024414 -1.8331573009490967
v 18.194597244262695 7.5364484786987305 -1.8331573009490967
v 14.142135620117188 14.142135620117188 1.8331573009490967
v -14.142135620117188 14.142135620117188 1.8331573009490967
v -14.142135620117188 14.142135620117188 -1.8331573009490967
v 14.142135620117188 14.142135620117188 -1.8331573009490967
v 7.536448001861572 18.194597244262695 1.8331573009490967
v -7.536448955535889 18.194597244262695 1.8331573009490967
v -7.536448955535889 18.194597244262695 -1.8331573009490967
v 7.536448001861572 18.194597244262695 -1.8331573009490967
v -8.541412057638809e-07 19.555625915527344 1.8331573009490967
v -8.541412057638809e-07 19.555625915527344 -1.8331573009490967
vt 0.8743778467178345 0.5496955513954163
vt 0.8743778467178345 0.5776665210723877
vt 0.8743778467178345 0.6056374311447144
vt 0.8743778467178345 0.6058118343353271
vt 0.8743778467178345 0.5778409242630005
vt 0.8743778467178345 0.549869954586029
vt 0.8743778467178345 0.5218988656997681
vt 0.8743778467178345 0.5217245817184448
vt 0.8717189431190491 0.5496955513954163
vt 0.8717189431190491 0.5776665210723877
vt 0.8717189431190491 0.6056374907493591
vt 0.8717189431190491 0.6058118343353271
vt 0.8717189431190491 0.5778409242630005
vt 0.8717189431190491 0.5498698949813843
vt 0.8717189431190491 0.5218988656997681
vt 0.8717189431190491 0.5217245817184448
vt 0.8743778467178345 0.5636809468269348
vt 0.8717189431190491 0.5636810064315796
vt 0.8743778467178345 0.591651976108551
vt 0.8717189431190491 0.591651976108551
vt 0.8743778467178345 0.6196229457855225
vt 0.8717189431190491 0.6196229457855225
vt 0.8743778467178345 0.591826319694519
vt 0.8717189431190491 0.591826319694519
vt 0.8743778467178345 0.5638554096221924
vt 0.8717189431190491 0.5638554096221924
vt 0.8743778467178345 0.5358843803405762
vt 0.8717189431190491 0.5358843803405762
vt 0.8743778467178345 0.5077390074729919
vt 0.8717189431190491 0.5077390670776367
vt 0.8743778467178345 0.5357099771499634
vt 0.8717189431190491 0.5357099771499634
vt 0.7709046602249146 0.6043400764465332
vt 0.7589119672775269 0.5847915410995483
vt 0.8666003942489624 0.5847915410995483
vt 0.8546077609062195 0.6043400764465332
vt 0.7548842430114746 0.5624884366989136
vt 0.7589119672775269 0.5847915410995483
vt 0.8666003942489624 0.5847915410995483
vt 0.8706282377243042 0.5624884366989136
vt 0.8350591659545898 0.6163326501846313
vt 0.8127561211585999 0.6203604936599731
vt 0.7904531955718994 0.6163326501846313
vt 0.7904531955718994 0.6163326501846313
vt 0.8127561211585999 0.6203604936599731
vt 0.8350591659545898 0.6163326501846313
vt 0.8546077609062195 0.6043400764465332
vt 0.7709046602249146 0.6043400764465332
vt 0.7548842430114746 0.5624884366989136
vt 0.8706282377243042 0.5624884366989136
vt 0.8666003942489624 0.5401855707168579
vt 0.7589119672775269 0.5401854515075684
vt 0.7589119672775269 0.5401854515075684
vt 0.8666003942489624 0.5401855707168579
vt 0.8546077609062195 0.520637035369873
vt 0.7709047198295593 0.5206369161605835
vt 0.7709047198295593 0.5206369161605835
vt 0.8546077609062195 0.520637035369873
vt 0.8350592255592346 0.5086443424224854
vt 0.7904532551765442 0.5086443424224854
vt 0.7904532551765442 0.5086443424224854
vt 0.8350592255592346 0.5086443424224854
vt 0.8127562403678894 0.5046164989471436
vt 0.8127562403678894 0.5046164989471436
vn 0.9981930255889893 -0.06008881330490112 0.0
vn 0.7611479163169861 0.6485783457756042 0.0
vn 0.060088831931352615 0.9981930255889893 0.0
vn -0.648578405380249 0.7611478567123413 0.0
vn -0.9981930255889893 0.06008874624967575 0.0
vn -0.7611478567123413 -0.648578405380249 4.647518281331031e-08
vn -0.060088708996772766 -0.9981931447982788 7.81508546765508e-09
vn 0.6485782861709595 -0.7611479759216309 2.3237584301227798e-08
vn 0.9981930255889893 0.060088858008384705 0.0
vn 0.6485783457756042 0.7611479163169861 0.0
vn -0.06008884683251381 0.9981930255889893 0.0
vn -0.7611479759216309 0.6485782861709595 0.0
vn -0.9981930255889893 -0.060088999569416046 1.563020646244695e-08
vn -0.6485783457756042 -0.7611480355262756 2.3237586077584638e-08
vn 0.06008891388773918 -0.9981930255889893 7.815094349439278e-09
vn 0.7611478567123413 -0.648578405380249 0.0
vn 0.9547748565673828 0.2973298132419586 0.0
vn 0.910193681716919 0.4141831696033478 0.0
vn 0.4141831696033478 0.910193681716919 0.0
vn 0.2973298132419586 0.9547748565673828 0.0
vn -0.2973299026489258 0.9547749161720276 0.0
vn -0.4141831398010254 0.9101935625076294 0.0
vn -0.910193681716919 0.4141831696033478 0.0
vn -0.9547748565673828 0.2973298132419586 0.0
vn -0.9547747373580933 -0.2973300814628601 6.169247512843867e-08
vn -0.9101935029029846 -0.4141833186149597 6.169246802301132e-08
vn -0.4141830801963806 -0.9101936221122742 3.0846209142509906e-08
vn -0.29732972383499146 -0.9547748565673828 3.0846209142509906e-08
vn 0.2973299026489258 -0.9547749161720276 3.084622335336462e-08
vn 0.4141831398010254 -0.910193681716919 3.084621980065094e-08
vn 0.9101935029029846 -0.41418325901031494 0.0
vn 0.9547749161720276 -0.2973299026489258 0.0
vn 0.0 0.0 -1.0
vn 0.0 0.0 -1.0
vn 0.0 0.0 -1.0
vn 0.0 0.0 -1.0
vn 0.0 0.0 1.0
vn 0.0 0.0 1.0
vn 0.0 0.0 1.0
vn 0.0 0.0 1.0
vn 0.0 0.0 -1.0
vn 0.0 0.0 -1.0
vn 0.0 0.0 -1.0
vn 0.0 0.0 1.0
vn 0.0 0.0 1.0
vn 0.0 0.0 1.0
vn 0.0 0.0 1.0
vn 0.0 0.0 1.0
vn 0.0 0.0 -1.0
vn 0.0 0.0 -1.0
vn 0.0 0.0 1.0
vn 0.0 0.0 1.0
vn 0.0 0.0 -1.0
vn 0.0 0.0 -1.0
vn 0.0 0.0 1.0
vn 0.0 0.0 1.0
vn 0.0 0.0 -1.0
vn 0.0 0.0 -1.0
vn 0.0 0.0 1.0
vn 0.0 0.0 1.0
vn 0.0 0.0 -1.0
vn 0.0 0.0 -1.0
vn 0.0 0.0 1.0
vn 0.0 0.0 -1.0
f 61/61/61 64/64/64 62/62/62
f 59/59/59 63/63/63 60/60/60
f 62/62/62 58/58/58 57/57/57
f 57/57/57 61/61/61 62/62/62
f 56/56/56 55/55/55 59/59/59
f 59/59/59 60/60/60 56/56/56
f 54/54/54 53/53/53 57/57/57
f 57/57/57 58/58/58 54/54/54
f 52/52/52 51/51/51 55/55/55
f 55/55/55 56/56/56 52/52/52
f 50/50/50 49/49/49 53/53/53
f 53/53/53 54/54/54 50/50/50
f 37/37/37 40/40/40 51/51/51
f 51/51/51 52/52/52 37/37/37
f 39/39/39 38/38/38 48/48/48
f 48/48/48 47/47/47 39/39/39
f 35/35/35 34/34/34 49/49/49
f 49/49/49 50/50/50 35/35/35
f 47/47/47 48/48/48 44/44/44
f 44/44/44 46/46/46 47/47/47
f 43/43/43 33/33/33 36/36/36
f 36/36/36 41/41/41 43/43/43
f 44/44/44 45/45/45 46/46/46
f 41/41/41 42/42/42 43/43/43
f 32/32/32 31/31/31 1/1/1
f 1/1/1 9/9/9 32/32/32
f 30/30/30 29/29/29 8/8/8
f 8/8/8 16/16/16 30/30/30
f 28/28/28 27/27/27 7/7/7
f 7/7/7 15/15/15 28/28/28
f 26/26/26 25/25/25 6/6/6
f 6/6/6 14/14/14 26/26/26
f 24/24/24 23/23/23 5/5/5
f 5/5/5 13/13/13 24/24/24
f 22/22/22 21/21/21 4/4/4
f 4/4/4 12/12/12 22/22/22
f 20/20/20 19/19/19 3/3/3
f 3/3/3 11/11/11 20/20/20
f 18/18/18 17/17/17 2/2/2
f 2/2/2 10/10/10 18/18/18
f 39/39/39 40/40/40 37/37/37
f 37/37/37 38/38/38 39/39/39
f 35/35/35 36/36/36 33/33/33
f 33/33/33 34/34/34 35/35/35
f 16/16/16 8/8/8 31/31/31
f 31/31/31 32/32/32 16/16/16
f 15/15/15 7/7/7 29/29/29
f 29/29/29 30/30/30 15/15/15
f 14/14/14 6/6/6 27/27/27
f 27/27/27 28/28/28 14/14/14
f 13/13/13 5/5/5 25/25/25
f 25/25/25 26/26/26 13/13/13
f 12/12/12 4/4/4 23/23/23
f 23/23/23 24/24/24 12/12/12
f 11/11/11 3/3/3 21/21/21
f 21/21/21 22/22/22 11/11/11
f 10/10/10 2/2/2 19/19/19
f 19/19/19 20/20/20 10/10/10
f 9/9/9 1/1/1 17/17/17
f 17/17/17 18/18/18 9/9/9
