# Recovered local-space geometry; original node transforms not applied
o mesh_0
v -1.2912440070067532e-05 3.814697265625e-06 67.759765625
v -9.146171578322537e-06 22.219600677490234 34.35671615600586
v -11.109808921813965 19.242740631103516 34.35671615600586
v -19.24274253845215 11.109811782836914 34.35671615600586
v -22.219606399536133 1.7466023564338684e-05 34.35671615600586
v -19.242755889892578 -11.10977554321289 34.35671615600586
v -11.109822273254395 -19.24273109436035 34.35671615600586
v -2.6411029466544278e-05 -22.2195987701416 34.35671615600586
v 11.109770774841309 -19.242740631103516 34.35671615600586
v 19.242717742919922 -11.109807014465332 34.35671615600586
v 22.219581604003906 -1.2371689081192017e-05 34.35671615600586
v 19.242734909057617 11.109782218933105 34.35671615600586
v 11.109807014465332 19.242727279663086 34.35671615600586
v -7.913100489531644e-06 32.890167236328125 20.51114273071289
v -16.445093154907227 28.483728408813477 20.51114273071289
v -28.483728408813477 16.445100784301758 20.51114273071289
v -32.89017868041992 1.7073005437850952e-05 20.51114273071289
v -28.483741760253906 -16.4450626373291 20.51114273071289
v -16.445110321044922 -28.483720779418945 20.51114273071289
v -3.277382711530663e-05 -32.890159606933594 20.51114273071289
v 16.445053100585938 -28.48373794555664 20.51114273071289
v 28.483699798583984 -16.44510269165039 20.51114273071289
v 32.89015579223633 -2.2705644369125366e-05 20.51114273071289
v 28.483720779418945 16.4450626373291 20.51114273071289
v 16.445106506347656 28.48370933532715 20.51114273071289
v -31.549087524414062 18.214893341064453 -1.9073486328125e-06
v -36.42974090576172 2.3293941922020167e-05 -1.9073486328125e-06
v -31.549091339111328 -18.214839935302734 0.0
v 18.21483039855957 -31.5490779876709 -1.9073486328125e-06
v 31.549055099487305 -18.214885711669922 0.0
v -0.07461389899253845 11.911029815673828 43.95705032348633
v -6.0674285888671875 10.305258750915527 43.95705032348633
v -10.454472541809082 5.918219089508057 43.95705032348633
v -12.060242652893066 -0.07459152489900589 43.95705032348633
v -10.45447826385498 -6.067403316497803 43.95705032348633
v -6.067435264587402 -10.454455375671387 43.95705032348633
v -0.0746232196688652 -12.060229301452637 43.95705032348633
v 5.918189525604248 -10.454461097717285 43.95705032348633
v 10.305237770080566 -6.067419528961182 43.95705032348633
v 11.911009788513184 -0.07460760325193405 43.95705032348633
v 10.30524730682373 5.918203830718994 43.95705032348633
v 5.918208599090576 10.305252075195312 43.95705032348633
v -7.881521923991386e-08 41.70622253417969 18.530590057373047
v -4.681411155615933e-06 36.42974090576172 7.62939453125e-06
v -7.884137153625488 39.363868713378906 20.224903106689453
v -30.065019607543945 15.913863182067871 37.71760940551758
v -28.483728408813477 16.445100784301758 20.51114273071289
v -24.6083927154541 21.083587646484375 39.66469192504883
v -16.445093154907227 28.483728408813477 20.51114273071289
v -36.51823806762695 18.245519638061523 52.104366302490234
v 7.884148597717285 39.363861083984375 20.224910736083984
v 4.376632205094211e-06 52.932106018066406 30.287548065185547
v -31.813823699951172 8.60344123840332 39.6646842956543
v -32.89017868041992 1.6920268535614014e-05 20.51114273071289
v -39.87699508666992 -21.998170852661133 20.04566192626953
v -16.244731903076172 -31.549057006835938 3.7723045349121094
v -33.8558235168457 -26.629549026489258 20.264816284179688
v -43.19774627685547 -13.558647155761719 22.273685455322266
v -34.45960235595703 6.4849853515625e-05 3.7723045349121094
v -47.94574737548828 -30.7448787689209 37.89683151245117
v 23.13069725036621 -39.3792610168457 10.684661865234375
v 18.214828491210938 -31.549081802368164 7.62939453125e-06
v 30.37025260925293 -31.737972259521484 12.853078842163086
v 12.893351554870605 -41.82823944091797 12.853084564208984
v -4.480278948904015e-05 -36.429725646972656 0.0
v 37.228477478027344 -49.16937255859375 21.522274017333984
v 34.85391616821289 0.11701410263776779 32.189151763916016
v 32.89015579223633 -2.2700056433677673e-05 20.51114273071289
v 26.729909896850586 12.093106269836426 21.601818084716797
v 31.589155197143555 6.751269340515137 33.4410514831543
v 31.589134216308594 -6.517249584197998 33.4410514831543
v 26.729890823364258 -11.859099388122559 21.601818084716797
v 45.814300537109375 0.11701107770204544 48.895774841308594
v 22.776805877685547 8.63709831237793 49.047637939453125
v 19.242734909057617 11.109782218933105 34.35671615600586
v 10.339015007019043 18.321369171142578 32.95249557495117
v 17.314720153808594 12.235342025756836 50.14113998413086
v 22.09771156311035 2.1154394149780273 48.05539321899414
v 20.459775924682617 0.433441162109375 33.17888259887695
v 33.3032341003418 9.628158569335938 62.108821868896484
v -20.606956481933594 0.02080218680202961 51.126888275146484
v -22.219606399536133 1.7466023564338684e-05 34.35671615600586
v -14.753243446350098 -10.25609016418457 35.98430252075195
v -17.206684112548828 -5.672166347503662 51.20280075073242
v -17.2066650390625 5.713780403137207 51.20280075073242
v -14.753220558166504 10.297712326049805 35.98428726196289
v -16.078102111816406 0.02080460824072361 67.67018127441406
v -3.5602903366088867 -21.320171356201172 49.358062744140625
v -2.6422205337439664e-05 -22.2195987701416 34.35671615600586
v 9.871659278869629 -19.54094886779785 31.392566680908203
v 2.2928171157836914 -18.206398010253906 49.509918212890625
v -8.705159187316895 -18.206378936767578 46.5629997253418
v -10.682141304016113 -19.54092788696289 31.39255142211914
v -9.072325706481934 -23.601139068603516 63.270687103271484
v 1.628948450088501 -37.10185241699219 36.419376373291016
v -3.27719644701574e-05 -32.890159606933594 20.51114273071289
v 10.9899320602417 -26.919822692871094 19.546070098876953
v 7.782350540161133 -33.23025131225586 34.57938003540039
v -5.091373443603516 -34.0264892578125 37.69175338745117
v -12.962275505065918 -26.919803619384766 19.546070098876953
v 9.898241996765137 -32.69869613647461 49.009788513183594
v 16.61014175415039 30.44432830810547 37.3356819152832
v 16.445106506347656 28.48370933532715 20.51114273071289
v 3.01747727394104 30.699146270751953 19.546070098876953
v 9.232327461242676 30.934080123901367 38.58757400512695
v 20.723196029663086 24.299808502197266 38.58757400512695
v 23.76069450378418 18.7230281829834 19.546070098876953
v 23.09878158569336 37.95610046386719 50.59870529174805
v -4.399220415507443e-06 36.429744720458984 -1.9073486328125e-06
v -18.21487045288086 31.549087524414062 0.0
v -18.214889526367188 -31.54906463623047 -1.9073486328125e-06
v 31.549087524414062 18.214839935302734 -1.9073486328125e-06
v 18.214900970458984 31.549068450927734 1.271565793103946e-06
v -8.561301001464017e-06 1.2714453987427987e-05 -46.17715835571289
v -9.319066975876922e-07 23.079509735107422 -33.70279312133789
v -11.539750099182129 19.987443923950195 -33.70279312133789
v -19.9874267578125 11.539772033691406 -33.70279312133789
v -23.079498291015625 2.901243351516314e-05 -33.70279312133789
v -19.987449645996094 -11.539712905883789 -33.70279312133789
v -11.539772987365723 -19.987409591674805 -33.70279312133789
v -2.3820090063964017e-05 -23.079486846923828 -33.70279312133789
v 11.539717674255371 -19.987428665161133 -33.70279312133789
v 19.987411499023438 -11.539749145507812 -33.70279312133789
v 23.079483032226562 -6.01530700805597e-06 -33.70279312133789
v 19.98743438720703 11.5397367477417 -33.70279312133789
v 11.539763450622559 19.987428665161133 -33.70279312133789
v -9.319066975876922e-07 32.890174865722656 -20.511146545410156
v -16.445083618164062 28.48373794555664 -20.511146545410156
v -28.483726501464844 16.44511604309082 -20.511146545410156
v -32.89018249511719 2.8854687116108835e-05 -20.511146545410156
v -28.483734130859375 -16.445049285888672 -20.511146545410156
v -16.445106506347656 -28.483713150024414 -20.511146545410156
v -3.144948641420342e-05 -32.89015197753906 -20.511146545410156
v 16.445053100585938 -28.483728408813477 -20.511146545410156
v 28.48370361328125 -16.445096969604492 -20.511146545410156
v 32.89015197753906 -1.6674777725711465e-05 -20.511146545410156
v 28.483726501464844 16.445068359375 -20.511146545410156
v 16.445114135742188 28.483718872070312 -20.511146545410156
v 36.429725646972656 -2.6747979063657112e-05 -1.9073486328125e-06
v -8.561301001464017e-06 9.584413528442383 -40.316341400146484
v -4.792206764221191 8.300347328186035 -40.316341400146484
v -8.300339698791504 4.792216777801514 -40.316341400146484
v -9.584412574768066 1.9577948478399776e-05 -40.316341400146484
v -8.300347328186035 -4.792179107666016 -40.316341400146484
v -4.792214393615723 -8.300318717956543 -40.316341400146484
v -1.6190695532714017e-05 -9.584388732910156 -40.316341400146484
v 4.792181968688965 -8.300326347351074 -40.316341400146484
v 8.300322532653809 -4.792193412780762 -40.316341400146484
v 9.58438777923584 5.0317071327299345e-06 -40.316341400146484
v 8.30033016204834 4.792202949523926 -40.316341400146484
v 4.792197227478027 8.30034065246582 -40.316341400146484
v -0.13913820683956146 -45.86415100097656 -7.485078811645508
v -3.144948641420342e-05 -32.89015197753906 -20.511146545410156
v 16.445053100585938 -28.483728408813477 -20.511146545410156
v 9.890746116638184 -43.55669021606445 -4.390008926391602
v -10.284607887268066 -43.49696731567383 -4.845220565795898
v -16.445106506347656 -28.483713150024414 -20.511146545410156
v -0.4620217978954315 -58.20547866821289 -0.6164455413818359
v 37.70501708984375 20.304302215576172 -1.550832748413086
v 28.483726501464844 16.445068359375 -20.511146545410156
v 16.445114135742188 28.483718872070312 -20.511146545410156
v 30.908416748046875 26.745758056640625 4.377872467041016
v 41.870452880859375 11.374879837036133 1.3328075408935547
v 32.89015197753906 -1.6715934179956093e-05 -20.511146545410156
v 54.56126403808594 18.9669246673584 15.730936050415039
v -39.815914154052734 22.673025131225586 -8.702981948852539
v -28.483726501464844 16.44511604309082 -20.511146545410156
v -32.89018249511719 2.8851645765826106e-05 -20.511146545410156
v -42.832550048828125 12.833151817321777 -5.607912063598633
v -32.693145751953125 30.275651931762695 -6.06312370300293
v -16.445083618164062 28.48373794555664 -20.511146545410156
v -51.1470832824707 28.765043258666992 -0.8391628265380859
v -18.21487045288086 31.549087524414062 0.0
v 18.214900970458984 31.549068450927734 1.271565793103946e-06
v -7.884137153625488 39.363868713378906 20.224903106689453
v -18.21487045288086 31.549087524414062 0.0
v 18.214900970458984 31.549068450927734 1.271565793103946e-06
v 7.884148597717285 39.363861083984375 20.224910736083984
v 4.376632205094211e-06 52.932106018066406 30.287548065185547
v -16.445093154907227 28.483728408813477 20.51114273071289
v -24.6083927154541 21.083587646484375 39.66469192504883
v -31.813823699951172 8.60344123840332 39.6646842956543
v -32.89017868041992 1.6920268535614014e-05 20.51114273071289
v -36.51823806762695 18.245519638061523 52.104366302490234
v -31.549091339111328 -18.214839935302734 0.0
v -33.8558235168457 -26.629549026489258 20.264816284179688
v -16.244731903076172 -31.549057006835938 3.7723045349121094
v -34.45960235595703 6.4849853515625e-05 3.7723045349121094
v -43.19774627685547 -13.558647155761719 22.273685455322266
v -47.94574737548828 -30.7448787689209 37.89683151245117
v 31.549055099487305 -18.214885711669922 0.0
v -4.480278948904015e-05 -36.429725646972656 0.0
v 30.37025260925293 -31.737972259521484 12.853078842163086
v 31.549055099487305 -18.214885711669922 0.0
v -4.480278948904015e-05 -36.429725646972656 0.0
v 12.893351554870605 -41.82823944091797 12.853084564208984
v 37.228477478027344 -49.16937255859375 21.522274017333984
v 31.589155197143555 6.751269340515137 33.4410514831543
v 26.729909896850586 12.093106269836426 21.601818084716797
v 26.729890823364258 -11.859099388122559 21.601818084716797
v 31.589134216308594 -6.517249584197998 33.4410514831543
v 45.814300537109375 0.11701107770204544 48.895774841308594
v 17.314720153808594 12.235342025756836 50.14113998413086
v 10.339015007019043 18.321369171142578 32.95249557495117
v 20.459775924682617 0.433441162109375 33.17888259887695
v 22.09771156311035 2.1154394149780273 48.05539321899414
v 33.3032341003418 9.628158569335938 62.108821868896484
v -17.206684112548828 -5.672166347503662 51.20280075073242
v -14.753243446350098 -10.25609016418457 35.98430252075195
v -14.753220558166504 10.297712326049805 35.98428726196289
v -17.2066650390625 5.713780403137207 51.20280075073242
v -16.078102111816406 0.02080460824072361 67.67018127441406
v 2.2928171157836914 -18.206398010253906 49.509918212890625
v 9.871659278869629 -19.54094886779785 31.392566680908203
v -10.682141304016113 -19.54092788696289 31.39255142211914
v -8.705159187316895 -18.206378936767578 46.5629997253418
v -9.072325706481934 -23.601139068603516 63.270687103271484
v 7.782350540161133 -33.23025131225586 34.57938003540039
v 10.9899320602417 -26.919822692871094 19.546070098876953
v -12.962275505065918 -26.919803619384766 19.546070098876953
v -5.091373443603516 -34.0264892578125 37.69175338745117
v 9.898241996765137 -32.69869613647461 49.009788513183594
v 9.232327461242676 30.934080123901367 38.58757400512695
v 3.01747727394104 30.699146270751953 19.546070098876953
v 23.76069450378418 18.7230281829834 19.546070098876953
v 20.723196029663086 24.299808502197266 38.58757400512695
v 23.09878158569336 37.95610046386719 50.59870529174805
v 9.890746116638184 -43.55669021606445 -4.390008926391602
v 16.445053100585938 -28.483728408813477 -20.511146545410156
v -16.445106506347656 -28.483713150024414 -20.511146545410156
v -10.284607887268066 -43.49696731567383 -4.845220565795898
v -0.4620217978954315 -58.20547866821289 -0.6164455413818359
v 30.908416748046875 26.745758056640625 4.377872467041016
v 16.445114135742188 28.483718872070312 -20.511146545410156
v 32.89015197753906 -1.6715934179956093e-05 -20.511146545410156
v 41.870452880859375 11.374879837036133 1.3328075408935547
v 54.56126403808594 18.9669246673584 15.730936050415039
v -42.832550048828125 12.833151817321777 -5.607912063598633
v -32.89018249511719 2.8851645765826106e-05 -20.511146545410156
v -16.445083618164062 28.48373794555664 -20.511146545410156
v -32.693145751953125 30.275651931762695 -6.06312370300293
v -51.1470832824707 28.765043258666992 -0.8391628265380859
vt 0.746853768825531 0.3771061301231384
vt 0.7468802332878113 0.4027314782142639
vt 0.7247785925865173 0.4027314782142639
vt 0.7059440612792969 0.4027314782142639
vt 0.6888312697410583 0.4027314782142639
vt 0.7059440612792969 0.4027314782142639
vt 0.7247785925865173 0.4027314782142639
vt 0.7468802332878113 0.4027314782142639
vt 0.725060224533081 0.4030526280403137
vt 0.7062256336212158 0.4030526876449585
vt 0.6887025237083435 0.4030526876449585
vt 0.706225574016571 0.4030526876449585
vt 0.7250601649284363 0.4030526876449585
vt 0.7468802332878113 0.420060396194458
vt 0.713417112827301 0.420060396194458
vt 0.6862651705741882 0.420060396194458
vt 0.6661080718040466 0.420060396194458
vt 0.6862651109695435 0.420060396194458
vt 0.7134170532226562 0.420060396194458
vt 0.7468802332878113 0.420060396194458
vt 0.7136986255645752 0.4203816056251526
vt 0.686546802520752 0.4203816056251526
vt 0.6659793257713318 0.4203816056251526
vt 0.6865466833114624 0.4203816056251526
vt 0.7136985659599304 0.4203816056251526
vt 0.6773407459259033 0.44225597381591797
vt 0.657637894153595 0.44225597381591797
vt 0.6773407459259033 0.44225597381591797
vt 0.709929883480072 0.4422987103462219
vt 0.6776223182678223 0.4422987103462219
vt 0.7468712329864502 0.391487717628479
vt 0.7346072196960449 0.391487717628479
vt 0.7228904366493225 0.391487717628479
vt 0.7104657888412476 0.391487717628479
vt 0.7228904366493225 0.391487717628479
vt 0.7346072196960449 0.391487717628479
vt 0.7468712329864502 0.391487717628479
vt 0.7352066040039062 0.39180898666381836
vt 0.7234898209571838 0.39180898666381836
vt 0.7106549143791199 0.39180898666381836
vt 0.7234898209571838 0.39180898666381836
vt 0.7352066040039062 0.39180898666381836
vt 0.628189742565155 0.4595133662223816
vt 0.6282013058662415 0.4973081946372986
vt 0.648070752620697 0.4509558081626892
vt 0.628189742565155 0.4595133662223816
vt 0.6282013058662415 0.4973081946372986
vt 0.6480594277381897 0.45094549655914307
vt 0.6635537147521973 0.49730807542800903
vt 0.6281929612159729 0.42723768949508667
vt 0.6480594277381897 0.45094549655914307
vt 0.6281929612159729 0.42723768949508667
vt 0.648070752620697 0.4509558081626892
vt 0.6634975671768188 0.49730807542800903
vt 0.628189742565155 0.4595133662223816
vt 0.6634975671768188 0.49730807542800903
vt 0.648070752620697 0.4509558081626892
vt 0.6480594277381897 0.45094549655914307
vt 0.6635537147521973 0.49730807542800903
vt 0.6281929612159729 0.42723768949508667
vt 0.628189742565155 0.4595133662223816
vt 0.6282013058662415 0.4973081946372986
vt 0.648070752620697 0.4509558081626892
vt 0.6480594277381897 0.45094549655914307
vt 0.7468802332878113 0.44225597381591797
vt 0.6281929612159729 0.42723768949508667
vt 0.628189742565155 0.4595133662223816
vt 0.6282013058662415 0.4973081946372986
vt 0.6634975671768188 0.49730807542800903
vt 0.648070752620697 0.4509558081626892
vt 0.6480594277381897 0.45094549655914307
vt 0.6635537147521973 0.49730807542800903
vt 0.6281929612159729 0.42723768949508667
vt 0.628189742565155 0.4595133662223816
vt 0.6282013058662415 0.4973081946372986
vt 0.6634975671768188 0.49730807542800903
vt 0.648070752620697 0.4509558081626892
vt 0.6480594277381897 0.45094549655914307
vt 0.6635537147521973 0.49730807542800903
vt 0.6281929612159729 0.42723768949508667
vt 0.628189742565155 0.4595133662223816
vt 0.6282013058662415 0.4973081946372986
vt 0.6634975671768188 0.49730807542800903
vt 0.648070752620697 0.4509558081626892
vt 0.6480594277381897 0.45094549655914307
vt 0.6635537147521973 0.49730807542800903
vt 0.6281929612159729 0.42723768949508667
vt 0.628189742565155 0.4595133662223816
vt 0.6282013058662415 0.4973081946372986
vt 0.6634975671768188 0.49730807542800903
vt 0.648070752620697 0.4509558081626892
vt 0.6480594277381897 0.45094549655914307
vt 0.6635537147521973 0.49730807542800903
vt 0.6281929612159729 0.42723768949508667
vt 0.628189742565155 0.4595133662223816
vt 0.6282013058662415 0.4973081946372986
vt 0.6634975671768188 0.49730807542800903
vt 0.648070752620697 0.4509558081626892
vt 0.6480594277381897 0.45094549655914307
vt 0.6635537147521973 0.49730807542800903
vt 0.6281929612159729 0.42723768949508667
vt 0.628189742565155 0.4595133662223816
vt 0.6282013058662415 0.4973081946372986
vt 0.6634975671768188 0.49730807542800903
vt 0.648070752620697 0.4509558081626892
vt 0.6480594277381897 0.45094549655914307
vt 0.6635537147521973 0.49730807542800903
vt 0.6281929612159729 0.42723768949508667
vt 0.7468802332878113 0.44225597381591797
vt 0.7096483111381531 0.44225597381591797
vt 0.7096482515335083 0.44225597381591797
vt 0.6776221990585327 0.4422987103462219
vt 0.7099297642707825 0.4422987103462219
vt 0.7468757033348083 0.4970567226409912
vt 0.7468811273574829 0.4784197211265564
vt 0.7219120860099792 0.4784197211265564
vt 0.7009680867195129 0.4784197211265564
vt 0.6820095181465149 0.4784197211265564
vt 0.7009679675102234 0.4784197211265564
vt 0.7219119668006897 0.4784197211265564
vt 0.746880829334259 0.4784197211265564
vt 0.7221639156341553 0.4787410497665405
vt 0.7012197971343994 0.4787410497665405
vt 0.6820299029350281 0.4787410497665405
vt 0.7012197375297546 0.4787410497665405
vt 0.722163736820221 0.4787410497665405
vt 0.7468802332878113 0.46421945095062256
vt 0.713417112827301 0.46421945095062256
vt 0.6862651705741882 0.46421945095062256
vt 0.6661080718040466 0.46421945095062256
vt 0.6862651109695435 0.46421945095062256
vt 0.7134169340133667 0.46421945095062256
vt 0.7468802332878113 0.46421945095062256
vt 0.7136986255645752 0.4645407199859619
vt 0.686546802520752 0.4645407199859619
vt 0.6659793853759766 0.4645407199859619
vt 0.6865466833114624 0.4645407199859619
vt 0.7136985659599304 0.4645407199859619
vt 0.6575092077255249 0.4422987103462219
vt 0.746881365776062 0.48810917139053345
vt 0.7362207770347595 0.48810917139053345
vt 0.7230058908462524 0.48810917139053345
vt 0.7091324925422668 0.48810917139053345
vt 0.7230057120323181 0.48810917139053345
vt 0.7362207770347595 0.48810917139053345
vt 0.746881365776062 0.48810917139053345
vt 0.7364614009857178 0.4884304404258728
vt 0.7232464551925659 0.4884304404258728
vt 0.7092087268829346 0.4884304404258728
vt 0.7232463955879211 0.4884304404258728
vt 0.7364614009857178 0.4884304404258728
vt 0.628189742565155 0.4595133662223816
vt 0.6282013058662415 0.4973081946372986
vt 0.6634975671768188 0.49730807542800903
vt 0.648070752620697 0.4509558081626892
vt 0.6480594277381897 0.45094549655914307
vt 0.6635537147521973 0.49730807542800903
vt 0.6281929612159729 0.42723768949508667
vt 0.628189742565155 0.4595133662223816
vt 0.6282013058662415 0.4973081946372986
vt 0.6634975671768188 0.49730807542800903
vt 0.648070752620697 0.4509558081626892
vt 0.6480594277381897 0.45094549655914307
vt 0.6635537147521973 0.49730807542800903
vt 0.6281929612159729 0.42723768949508667
vt 0.628189742565155 0.4595133662223816
vt 0.6282013058662415 0.4973081946372986
vt 0.6634975671768188 0.49730807542800903
vt 0.648070752620697 0.4509558081626892
vt 0.6480594277381897 0.45094549655914307
vt 0.6635537147521973 0.49730807542800903
vt 0.6281929612159729 0.42723768949508667
vt 0.6634975671768188 0.49730807542800903
vt 0.6635537147521973 0.49730807542800903
vt 0.6374971270561218 0.4108462333679199
vt 0.6329231262207031 0.3822426199913025
vt 0.6565569043159485 0.3822426199913025
vt 0.6519826650619507 0.4108462333679199
vt 0.6447399258613586 0.4231734275817871
vt 0.6565569043159485 0.3822426199913025
vt 0.6519826650619507 0.4108462333679199
vt 0.6374971270561218 0.4108462333679199
vt 0.6329231262207031 0.3822426199913025
vt 0.6447399258613586 0.4231734275817871
vt 0.6282013058662415 0.4973081946372986
vt 0.6374971270561218 0.4108462333679199
vt 0.6329231262207031 0.3822426199913025
vt 0.6565569043159485 0.3822426199913025
vt 0.6519826650619507 0.4108462333679199
vt 0.6447399258613586 0.4231734275817871
vt 0.6634975671768188 0.49730807542800903
vt 0.6635537147521973 0.49730807542800903
vt 0.6374971270561218 0.4108462333679199
vt 0.6329231262207031 0.3822426199913025
vt 0.6565569043159485 0.3822426199913025
vt 0.6519826650619507 0.4108462333679199
vt 0.6447399258613586 0.4231734275817871
vt 0.6374971270561218 0.4108462333679199
vt 0.6329231262207031 0.3822426199913025
vt 0.6565569043159485 0.3822426199913025
vt 0.6519826650619507 0.4108462333679199
vt 0.6447399258613586 0.4231734275817871
vt 0.6374971270561218 0.4108462333679199
vt 0.6329231262207031 0.3822426199913025
vt 0.6565569043159485 0.3822426199913025
vt 0.6519826650619507 0.4108462333679199
vt 0.6447399258613586 0.4231734275817871
vt 0.6374971270561218 0.4108462333679199
vt 0.6329231262207031 0.3822426199913025
vt 0.6565569043159485 0.3822426199913025
vt 0.6519826650619507 0.4108462333679199
vt 0.6447399258613586 0.4231734275817871
vt 0.6374971270561218 0.4108462333679199
vt 0.6329231262207031 0.3822426199913025
vt 0.6565569043159485 0.3822426199913025
vt 0.6519826650619507 0.4108462333679199
vt 0.6447399258613586 0.4231734275817871
vt 0.6374971270561218 0.4108462333679199
vt 0.6329231262207031 0.3822426199913025
vt 0.6565569043159485 0.3822426199913025
vt 0.6519826650619507 0.4108462333679199
vt 0.6447399258613586 0.4231734275817871
vt 0.6374971270561218 0.4108462333679199
vt 0.6329231262207031 0.3822426199913025
vt 0.6565569043159485 0.3822426199913025
vt 0.6519826650619507 0.4108462333679199
vt 0.6447399258613586 0.4231734275817871
vt 0.6374971270561218 0.4108462333679199
vt 0.6329231262207031 0.3822426199913025
vt 0.6565569043159485 0.3822426199913025
vt 0.6519826650619507 0.4108462333679199
vt 0.6447399258613586 0.4231734275817871
vt 0.6374971270561218 0.4108462333679199
vt 0.6329231262207031 0.3822426199913025
vt 0.6565569043159485 0.3822426199913025
vt 0.6519826650619507 0.4108462333679199
vt 0.6447399258613586 0.4231734275817871
vt 0.6374971270561218 0.4108462333679199
vt 0.6329231262207031 0.3822426199913025
vt 0.6565569043159485 0.3822426199913025
vt 0.6519826650619507 0.4108462333679199
vt 0.6447399258613586 0.4231734275817871
vn 0.0012672391021624207 0.0012671937001869082 0.9999983906745911
vn -0.04252403974533081 0.7494536638259888 0.6606897115707397
vn -0.37405067682266235 0.6382331252098083 0.6728629469871521
vn -0.6437908411026001 0.3662237226963043 0.671873152256012
vn -0.7414734363555908 -0.004628974478691816 0.6709662675857544
vn -0.6403241753578186 -0.37491878867149353 0.6703885793685913
vn -0.3671770691871643 -0.6448875665664673 0.670299232006073
vn 0.004442688077688217 -0.7416948676109314 0.6707227230072021
vn 0.37435829639434814 -0.6394423842430115 0.6715425848960876
vn 0.6431873440742493 -0.3660702109336853 0.6725345253944397
vn 0.739234209060669 0.004674794618040323 0.6734322905540466
vn 0.6373603343963623 0.37349408864974976 0.6739985942840576
vn 0.33887240290641785 0.6476374864578247 0.6824451088905334
vn -0.008418751880526543 0.9150063395500183 0.40335166454315186
vn -0.4647939205169678 0.7882094383239746 0.40335163474082947
vn -0.7966281771659851 0.45021215081214905 0.40335169434547424
vn -0.9150065183639526 -0.008418729528784752 0.40335148572921753
vn -0.7882096767425537 -0.46479368209838867 0.403351366519928
vn -0.4502124786376953 -0.7966280579566956 0.4033515155315399
vn 0.008418536745011806 -0.9150065779685974 0.4033513367176056
vn 0.4647936224937439 -0.7882096767425537 0.40335142612457275
vn 0.7966280579566956 -0.45021259784698486 0.40335172414779663
vn 0.9150062799453735 0.008418446406722069 0.40335172414779663
vn 0.7882097959518433 0.4647934138774872 0.4033517837524414
vn 0.4502125680446625 0.7966278195381165 0.40335187315940857
vn -0.8181102871894836 0.5750613808631897 9.865848937806732e-08
vn -0.9960349798202515 0.08896239101886749 7.009943203684088e-08
vn -0.8993921279907227 -0.4114288091659546 -0.14771640300750732
vn 0.42097291350364685 -0.9070731997489929 -1.843355477149089e-07
vn 0.7962401509284973 -0.5856128334999084 -0.15185342729091644
vn -9.873144881566986e-05 0.7626169919967651 0.6468504667282104
vn -0.4213968515396118 0.6550424695014954 0.6271714568138123
vn -0.692995548248291 0.35678958892822266 0.6264649629592896
vn -0.7789950370788574 -0.0375572107732296 0.6259043216705322
vn -0.6560349464416504 -0.42212143540382385 0.6256449818611145
vn -0.3570888042449951 -0.6934778094291687 0.6257604360580444
vn 0.03739463910460472 -0.7787503004074097 0.6262186765670776
vn 0.421398401260376 -0.6553090810775757 0.6268918514251709
vn 0.6920638680458069 -0.3566107749938965 0.6275957822799683
vn 0.7772108912467957 0.03715027868747711 0.6281427145004272
vn 0.6543316841125488 0.42068347334861755 0.6283911466598511
vn 0.3999183773994446 0.6927178502082825 0.6001726984977722
vn -0.05248893052339554 0.8971173167228699 -0.4386632740497589
vn 0.113057941198349 0.958548903465271 -0.26153767108917236
vn -0.3411944806575775 0.8319897055625916 -0.43746939301490784
vn -0.8744988441467285 0.4394197463989258 -0.20533405244350433
vn -0.8095344305038452 0.5848373174667358 -0.051181286573410034
vn -0.6602049469947815 0.7361379265785217 -0.1490984708070755
vn -0.7068260908126831 0.7068265676498413 -0.028162794187664986
vn -0.7853412628173828 0.4499475657939911 -0.4251897633075714
vn 0.31441617012023926 0.8650761842727661 -0.3908783793449402
vn 3.8049574868637137e-07 0.7232531905174255 -0.6905829906463623
vn -0.9571256041526794 0.16567681729793549 -0.23761683702468872
vn -0.9688381552696228 0.23965929448604584 -0.06257990002632141
vn -0.7005113363265991 -0.5454854369163513 -0.46014073491096497
vn -0.5565940141677856 -0.7426247000694275 -0.3724401295185089
vn -0.5289512872695923 -0.7096995115280151 -0.4653356969356537
vn -0.8766288757324219 -0.16469505429267883 -0.45210325717926025
vn -0.889191746711731 -0.04784572124481201 -0.45502614974975586
vn -0.7036847472190857 -0.45854029059410095 -0.5427417755126953
vn 0.3885955214500427 -0.5998852849006653 -0.6993791460990906
vn 0.2801644504070282 -0.732971727848053 -0.6198873519897461
vn 0.6147599816322327 -0.38749584555625916 -0.686962366104126
vn 0.10164474695920944 -0.7775670289993286 -0.6205304861068726
vn -0.04504838585853577 -0.9953998923301697 -0.08455700427293777
vn 0.27608823776245117 -0.5066035389900208 -0.8167791366577148
vn 0.9398999810218811 0.10514553636312485 -0.3248578906059265
vn 0.9713471531867981 -0.1723664402961731 -0.16362935304641724
vn 0.8751461505889893 0.459412157535553 -0.15185406804084778
vn 0.8227460980415344 0.4662332832813263 -0.32513901591300964
vn 0.843562662601471 -0.4680550992488861 -0.2632991373538971
vn 0.872106671333313 -0.4665793180465698 -0.14742359519004822
vn 0.8361245393753052 -7.710051477261004e-07 -0.5485396981239319
vn 0.7858189940452576 0.5466883182525635 -0.28917187452316284
vn 0.9417513608932495 0.30520471930503845 -0.14126093685626984
vn 0.595888078212738 0.8027515411376953 0.02252442203462124
vn 0.5156784057617188 0.8375920653343201 -0.1803201586008072
vn 0.9393075704574585 0.026346443220973015 -0.3420630693435669
vn 0.9844564199447632 0.12574870884418488 -0.12260841578245163
vn 0.6780483722686768 0.45065414905548096 -0.5806558728218079
vn -0.9796612858772278 -0.13545864820480347 0.148036926984787
vn -0.9760404229164124 0.20211023092269897 0.08060099929571152
vn -0.836276113986969 -0.5462519526481628 0.04744574427604675
vn -0.852697491645813 -0.5076518654823303 0.12327426671981812
vn -0.8384827375411987 0.5318055152893066 0.11886794120073318
vn -0.8121101260185242 0.5818182826042175 0.044324155896902084
vn -0.9645110964775085 8.41369001136627e-07 0.26404237747192383
vn 0.07827077805995941 -0.9968345761299133 0.013947766274213791
vn -0.16633974015712738 -0.9839500188827515 0.06460250169038773
vn 0.37450823187828064 -0.9075219035148621 0.19012512266635895
vn 0.4615960121154785 -0.874846875667572 0.1468750685453415
vn -0.386462926864624 -0.9187724590301514 -0.08064496517181396
vn -0.2725606858730316 -0.9546881914138794 0.11950377374887466
vn 0.05305147171020508 -0.9885787963867188 -0.141058549284935
vn 0.16030484437942505 -0.9848750829696655 -0.06575269252061844
vn -0.14522454142570496 -0.9616024494171143 -0.23287463188171387
vn 0.4492485821247101 -0.8530377149581909 -0.2655227780342102
vn 0.4930129945278168 -0.8564168214797974 -0.15325942635536194
vn -0.3965623676776886 -0.917142391204834 0.03985179215669632
vn -0.40068259835243225 -0.8987240791320801 -0.178180992603302
vn 0.13347333669662476 -0.9595443606376648 0.24791033565998077
vn 0.40721026062965393 0.8653231263160706 -0.29222536087036133
vn 0.6444027423858643 0.7599916458129883 -0.08460373431444168
vn 0.11555688828229904 0.990532636642456 -0.07410619407892227
vn 0.018923267722129822 0.9639064073562622 -0.2655680775642395
vn 0.8167678713798523 0.5253205895423889 -0.2385970652103424
vn 0.796881377696991 0.6021266579627991 -0.04922940582036972
vn 0.39755940437316895 0.701312243938446 -0.5916990041732788
vn 0.08896245807409286 0.9960349798202515 2.2327972715174838e-07
vn -0.3883165121078491 0.9195677638053894 -0.06004508212208748
vn -0.5750617980957031 -0.8181099891662598 -2.5183874186041066e-07
vn 0.9070731997489929 0.42097291350364685 1.038510220041644e-07
vn 0.5329654216766357 0.8454063534736633 -0.035156525671482086
vn 2.939359644571482e-09 2.939359644571482e-09 -1.0
vn -0.04387844353914261 0.6737319231033325 -0.7376720905303955
vn -0.3328744173049927 0.5441545844078064 -0.7701237797737122
vn -0.5603548884391785 0.30481448769569397 -0.7701238393783569
vn -0.637688934803009 -0.01620013453066349 -0.7701236009597778
vn -0.5441550016403198 -0.33287402987480164 -0.7701236605644226
vn -0.3048146963119507 -0.5603548884391785 -0.7701237797737122
vn 0.016200058162212372 -0.637688934803009 -0.7701236009597778
vn 0.3328741788864136 -0.5441546440124512 -0.7701238393783569
vn 0.5603548884391785 -0.3048146367073059 -0.7701236605644226
vn 0.6376890540122986 0.01620006002485752 -0.7701236605644226
vn 0.544154942035675 0.33287379145622253 -0.7701236605644226
vn 0.27813997864723206 0.544323205947876 -0.7914230227470398
vn -0.007946460507810116 0.9184826016426086 -0.3953815698623657
vn -0.46612289547920227 0.7914561629295349 -0.3953816294670105
vn -0.7994023561477661 0.4523594379425049 -0.395381897687912
vn -0.9184824228286743 -0.007946559228003025 -0.3953819274902344
vn -0.7914561629295349 -0.46612274646759033 -0.39538171887397766
vn -0.4523596465587616 -0.7994022369384766 -0.3953818678855896
vn 0.007946260273456573 -0.9184825420379639 -0.3953816890716553
vn 0.466122567653656 -0.7914563417434692 -0.3953815996646881
vn 0.7994022965431213 -0.45235952734947205 -0.3953819274902344
vn 0.9184824824333191 0.007946102879941463 -0.3953818082809448
vn 0.7914565205574036 0.46612226963043213 -0.3953816294670105
vn 0.45235979557037354 0.7994021773338318 -0.3953818082809448
vn 0.9960349202156067 -0.08896296471357346 -4.673296061241672e-08
vn 2.1546915718317905e-07 0.4676739275455475 -0.883901059627533
vn -0.25697237253189087 0.3978348672389984 -0.8807341456413269
vn -0.42146196961402893 0.21604925394058228 -0.8807340860366821
vn -0.4730212688446045 -0.023626795038580894 -0.8807341456413269
vn -0.39783498644828796 -0.25697213411331177 -0.8807341456413269
vn -0.2160492092370987 -0.4214617609977722 -0.8807342052459717
vn 0.023626886308193207 -0.4730212092399597 -0.8807342052459717
vn 0.256972074508667 -0.3978350758552551 -0.8807341456413269
vn 0.42146191000938416 -0.21604906022548676 -0.8807341456413269
vn 0.47302138805389404 0.02362682670354843 -0.8807340860366821
vn 0.3978351354598999 0.25697192549705505 -0.8807342648506165
vn 0.24067185819149017 0.4168550670146942 -0.8765323162078857
vn 0.050839412957429886 -0.6468871235847473 -0.7608892321586609
vn -0.11710412800312042 -0.721384584903717 -0.682561993598938
vn 0.2680175006389618 -0.7283571362495422 -0.6306048631668091
vn 0.35814911127090454 -0.6178467869758606 -0.6999961137771606
vn -0.2875410318374634 -0.630458652973175 -0.7210007309913635
vn -0.19975318014621735 -0.7454899549484253 -0.6358801126480103
vn 0.018457306548953056 -0.4865962266921997 -0.8734319806098938
vn 0.6808376908302307 0.5579015016555786 -0.47455868124961853
vn 0.7981632351875305 0.37912142276763916 -0.46819058060646057
vn 0.5918564200401306 0.7258417010307312 -0.35051363706588745
vn 0.4933556020259857 0.8106962442398071 -0.3152329623699188
vn 0.8140744566917419 0.1974293738603592 -0.5461724996566772
vn 0.8528023362159729 0.22850655019283295 -0.4695880711078644
vn 0.6364791393280029 0.5065873265266418 -0.5816043019294739
vn -0.5777119398117065 0.27740469574928284 -0.7676560282707214
vn -0.5402596592903137 0.4486502707004547 -0.7119216322898865
vn -0.7383441925048828 0.12009283155202866 -0.6636456847190857
vn -0.7090314626693726 -0.0044348714873194695 -0.7051628828048706
vn -0.40003806352615356 0.5605698823928833 -0.7250731587409973
vn -0.5300707221031189 0.5300716757774353 -0.6618528366088867
vn -0.4599612355232239 0.24584871530532837 -0.8532257080078125
vn -0.3883165121078491 0.9195677638053894 -0.06004508212208748
vn 0.5329654216766357 0.8454063534736633 -0.035156525671482086
vn -6.229948894542758e-07 -0.8501999974250793 0.5264598727226257
vn -5.009592882743163e-07 -0.9327885508537292 0.3604241609573364
vn -5.633363571178052e-07 -0.9327885508537292 0.36042410135269165
vn -6.780607577638875e-07 -0.7956615686416626 0.6057414412498474
vn -6.768518119315559e-07 -0.5956897139549255 0.8032146692276001
vn 0.8529270887374878 -0.49243834614753723 0.17326249182224274
vn 0.7985180020332336 -0.46102580428123474 0.3870713710784912
vn 0.8215431571006775 -0.47431907057762146 0.31636732816696167
vn 0.8529272079467773 -0.4924379587173462 0.17326299846172333
vn 0.7044534087181091 -0.4067176580429077 0.5816582441329956
vn -0.8993921279907227 -0.4114288091659546 -0.14771640300750732
vn 0.6812306046485901 0.39191773533821106 0.6183247566223145
vn 0.6843146085739136 0.39508870244026184 0.6128771901130676
vn 0.6843883991241455 0.3950533866882324 0.6128175258636475
vn 0.6796759366989136 0.3903248906135559 0.6210372447967529
vn 0.6748124957084656 0.38558727502822876 0.6292460560798645
vn 0.7962401509284973 -0.5856128334999084 -0.15185342729091644
vn -0.04504838585853577 -0.9953998923301697 -0.08455700427293777
vn -0.3291192054748535 0.5700528621673584 0.7528082728385925
vn -0.3780969977378845 0.6548846960067749 0.6543459892272949
vn -0.37809693813323975 0.654884934425354 0.6543458104133606
vn -0.301631361246109 0.522442638874054 0.7975414991378784
vn -0.21192628145217896 0.3670685291290283 0.9057307243347168
vn -0.874161958694458 1.13680152935558e-06 0.4856344759464264
vn -0.9251102209091187 7.366786007878545e-07 0.3796986937522888
vn -0.925110399723053 1.0997546269209124e-06 0.3796982169151306
vn -0.8436601758003235 1.3340369378056494e-06 0.5368777513504028
vn -0.7357694506645203 1.1634348311417853e-06 0.6772321462631226
vn -0.80897057056427 -0.46955254673957825 0.3536764979362488
vn -0.8575630187988281 -0.48295775055885315 0.17702454328536987
vn -0.8701200485229492 -0.4653085470199585 0.16241644322872162
vn -0.772483229637146 -0.45615753531455994 0.44180306792259216
vn -0.5867257714271545 -0.42000165581703186 0.6923522353172302
vn 0.9964827299118042 -1.443781457055593e-06 0.08379955589771271
vn 0.9872528314590454 -9.812218877414125e-07 0.15915973484516144
vn 0.9872528910636902 -1.3175230151318829e-06 0.1591593623161316
vn 0.9989556670188904 -1.6734284145059064e-06 0.04569004848599434
vn 0.9976598024368286 -1.6712576780264499e-06 -0.06837344169616699
vn -0.01945248618721962 0.9986739754676819 0.047664519399404526
vn 1.0725552783696912e-06 0.9972981214523315 -0.07346200197935104
vn 0.01216107327491045 0.9965486526489258 -0.08211531490087509
vn -0.029279500246047974 0.9935798645019531 0.10927827656269073
vn -0.08162162452936172 0.9489703178405762 0.3046201467514038
vn -0.013718816451728344 0.9699856042861938 0.2427750676870346
vn 7.342496246565133e-07 0.9220600128173828 0.3870469033718109
vn 0.013894508592784405 0.9286690950393677 0.37064898014068604
vn -0.020595379173755646 0.9857429265975952 0.16699370741844177
vn -0.06814964860677719 0.9973165988922119 -0.02674432098865509
vn -0.4631444811820984 -0.8021881580352783 0.3768174350261688
vn -0.4926093816757202 -0.8532232642173767 0.17130707204341888
vn -0.49260953068733215 -0.8532232046127319 0.17130687832832336
vn -0.43907633423805237 -0.7605007886886597 0.47838327288627625
vn -0.3391065299510956 -0.5873484015464783 0.7348664402961731
vn -0.011897577904164791 0.5903078317642212 0.8070905208587646
vn 3.38881022798887e-07 0.7304545044898987 0.6829614043235779
vn -0.006771853659301996 0.7248947620391846 0.688826322555542
vn -0.017902547493577003 0.5094769597053528 0.8602980375289917
vn -0.02098218910396099 0.26328378915786743 0.9644902348518372
vn -0.647182047367096 -0.5094621181488037 0.5671011805534363
vn -0.7842734456062317 -0.452798992395401 0.4241323173046112
vn -0.7099632024765015 -0.5072289705276489 0.4885396957397461
vn -0.5679072141647339 -0.5298033952713013 0.6299124956130981
vn -0.5028755068778992 -0.4985203444957733 0.7061116695404053
vn 0.5103027820587158 -0.28092774748802185 0.8128165006637573
vn 0.6098366379737854 -0.3520898222923279 0.7100225687026978
vn 0.6078209280967712 -0.3426947295665741 0.7163197994232178
vn 0.45422595739364624 -0.24166512489318848 0.8574827909469604
vn 0.2802177667617798 -0.13810017704963684 0.9499506950378418
f 238/238/238 241/241/241 242/242/242
f 240/240/240 241/241/241 238/238/238
f 238/238/238 239/239/239 240/240/240
f 170/170/170 166/166/166 172/172/172
f 166/166/166 169/169/169 172/172/172
f 170/170/170 171/171/171 167/167/167
f 167/167/167 166/166/166 170/170/170
f 166/166/166 167/167/167 168/168/168
f 168/168/168 169/169/169 166/166/166
f 233/233/233 236/236/236 237/237/237
f 235/235/235 236/236/236 233/233/233
f 233/233/233 234/234/234 235/235/235
f 163/163/163 159/159/159 165/165/165
f 159/159/159 162/162/162 165/165/165
f 163/163/163 164/164/164 160/160/160
f 160/160/160 159/159/159 163/163/163
f 159/159/159 160/160/160 161/161/161
f 161/161/161 162/162/162 159/159/159
f 228/228/228 231/231/231 232/232/232
f 230/230/230 231/231/231 228/228/228
f 228/228/228 229/229/229 230/230/230
f 156/156/156 152/152/152 158/158/158
f 152/152/152 155/155/155 158/158/158
f 156/156/156 157/157/157 153/153/153
f 153/153/153 152/152/152 156/156/156
f 152/152/152 153/153/153 154/154/154
f 154/154/154 155/155/155 152/152/152
f 140/140/140 115/115/115 126/126/126
f 126/126/126 151/151/151 140/140/140
f 150/150/150 151/151/151 126/126/126
f 126/126/126 125/125/125 150/150/150
f 149/149/149 150/150/150 125/125/125
f 125/125/125 124/124/124 149/149/149
f 148/148/148 149/149/149 124/124/124
f 124/124/124 123/123/123 148/148/148
f 147/147/147 148/148/148 123/123/123
f 123/123/123 122/122/122 147/147/147
f 146/146/146 147/147/147 122/122/122
f 122/122/122 121/121/121 146/146/146
f 145/145/145 146/146/146 121/121/121
f 121/121/121 120/120/120 145/145/145
f 144/144/144 145/145/145 120/120/120
f 120/120/120 119/119/119 144/144/144
f 143/143/143 144/144/144 119/119/119
f 119/119/119 118/118/118 143/143/143
f 142/142/142 143/143/143 118/118/118
f 118/118/118 117/117/117 142/142/142
f 141/141/141 142/142/142 117/117/117
f 117/117/117 116/116/116 141/141/141
f 140/140/140 141/141/141 116/116/116
f 116/116/116 115/115/115 140/140/140
f 138/138/138 127/127/127 109/109/109
f 109/109/109 113/113/113 138/138/138
f 137/137/137 138/138/138 113/113/113
f 113/113/113 112/112/112 137/137/137
f 136/136/136 137/137/137 112/112/112
f 112/112/112 139/139/139 136/136/136
f 135/135/135 136/136/136 139/139/139
f 139/139/139 30/30/30 135/135/135
f 134/134/134 135/135/135 30/30/30
f 30/30/30 29/29/29 134/134/134
f 133/133/133 134/134/134 29/29/29
f 29/29/29 65/65/65 133/133/133
f 132/132/132 133/133/133 65/65/65
f 65/65/65 111/111/111 132/132/132
f 131/131/131 132/132/132 111/111/111
f 111/111/111 28/28/28 131/131/131
f 130/130/130 131/131/131 28/28/28
f 28/28/28 27/27/27 130/130/130
f 129/129/129 130/130/130 27/27/27
f 27/27/27 26/26/26 129/129/129
f 128/128/128 129/129/129 26/26/26
f 26/26/26 110/110/110 128/128/128
f 127/127/127 128/128/128 110/110/110
f 110/110/110 109/109/109 127/127/127
f 126/126/126 115/115/115 127/127/127
f 127/127/127 138/138/138 126/126/126
f 125/125/125 126/126/126 138/138/138
f 138/138/138 137/137/137 125/125/125
f 124/124/124 125/125/125 137/137/137
f 137/137/137 136/136/136 124/124/124
f 123/123/123 124/124/124 136/136/136
f 136/136/136 135/135/135 123/123/123
f 122/122/122 123/123/123 135/135/135
f 135/135/135 134/134/134 122/122/122
f 121/121/121 122/122/122 134/134/134
f 134/134/134 133/133/133 121/121/121
f 120/120/120 121/121/121 133/133/133
f 133/133/133 132/132/132 120/120/120
f 119/119/119 120/120/120 132/132/132
f 132/132/132 131/131/131 119/119/119
f 118/118/118 119/119/119 131/131/131
f 131/131/131 130/130/130 118/118/118
f 117/117/117 118/118/118 130/130/130
f 130/130/130 129/129/129 117/117/117
f 116/116/116 117/117/117 129/129/129
f 129/129/129 128/128/128 116/116/116
f 115/115/115 116/116/116 128/128/128
f 128/128/128 127/127/127 115/115/115
f 114/114/114 140/140/140 151/151/151
f 114/114/114 151/151/151 150/150/150
f 114/114/114 150/150/150 149/149/149
f 114/114/114 149/149/149 148/148/148
f 114/114/114 148/148/148 147/147/147
f 114/114/114 147/147/147 146/146/146
f 114/114/114 146/146/146 145/145/145
f 114/114/114 145/145/145 144/144/144
f 114/114/114 144/144/144 143/143/143
f 114/114/114 143/143/143 142/142/142
f 114/114/114 142/142/142 141/141/141
f 114/114/114 141/141/141 140/140/140
f 223/223/223 226/226/226 227/227/227
f 225/225/225 226/226/226 223/223/223
f 223/223/223 224/224/224 225/225/225
f 106/106/106 102/102/102 108/108/108
f 102/102/102 105/105/105 108/108/108
f 106/106/106 107/107/107 103/103/103
f 103/103/103 102/102/102 106/106/106
f 102/102/102 103/103/103 104/104/104
f 104/104/104 105/105/105 102/102/102
f 218/218/218 221/221/221 222/222/222
f 220/220/220 221/221/221 218/218/218
f 218/218/218 219/219/219 220/220/220
f 99/99/99 95/95/95 101/101/101
f 95/95/95 98/98/98 101/101/101
f 99/99/99 100/100/100 96/96/96
f 96/96/96 95/95/95 99/99/99
f 95/95/95 96/96/96 97/97/97
f 97/97/97 98/98/98 95/95/95
f 213/213/213 216/216/216 217/217/217
f 215/215/215 216/216/216 213/213/213
f 213/213/213 214/214/214 215/215/215
f 92/92/92 88/88/88 94/94/94
f 88/88/88 91/91/91 94/94/94
f 92/92/92 93/93/93 89/89/89
f 89/89/89 88/88/88 92/92/92
f 88/88/88 89/89/89 90/90/90
f 90/90/90 91/91/91 88/88/88
f 208/208/208 211/211/211 212/212/212
f 210/210/210 211/211/211 208/208/208
f 208/208/208 209/209/209 210/210/210
f 85/85/85 81/81/81 87/87/87
f 81/81/81 84/84/84 87/87/87
f 85/85/85 86/86/86 82/82/82
f 82/82/82 81/81/81 85/85/85
f 81/81/81 82/82/82 83/83/83
f 83/83/83 84/84/84 81/81/81
f 203/203/203 206/206/206 207/207/207
f 205/205/205 206/206/206 203/203/203
f 203/203/203 204/204/204 205/205/205
f 78/78/78 74/74/74 80/80/80
f 74/74/74 77/77/77 80/80/80
f 78/78/78 79/79/79 75/75/75
f 75/75/75 74/74/74 78/78/78
f 74/74/74 75/75/75 76/76/76
f 76/76/76 77/77/77 74/74/74
f 198/198/198 201/201/201 202/202/202
f 200/200/200 201/201/201 198/198/198
f 198/198/198 199/199/199 200/200/200
f 71/71/71 67/67/67 73/73/73
f 67/67/67 70/70/70 73/73/73
f 71/71/71 72/72/72 68/68/68
f 68/68/68 67/67/67 71/71/71
f 67/67/67 68/68/68 69/69/69
f 69/69/69 70/70/70 67/67/67
f 193/193/193 196/196/196 197/197/197
f 195/195/195 196/196/196 193/193/193
f 193/193/193 194/194/194 195/195/195
f 64/64/64 61/61/61 66/66/66
f 61/61/61 63/63/63 66/66/66
f 64/64/64 192/192/192 62/62/62
f 62/62/62 61/61/61 64/64/64
f 61/61/61 62/62/62 191/191/191
f 191/191/191 63/63/63 61/61/61
f 186/186/186 189/189/189 190/190/190
f 188/188/188 189/189/189 186/186/186
f 186/186/186 187/187/187 188/188/188
f 58/58/58 55/55/55 60/60/60
f 55/55/55 57/57/57 60/60/60
f 58/58/58 59/59/59 185/185/185
f 185/185/185 55/55/55 58/58/58
f 55/55/55 185/185/185 56/56/56
f 56/56/56 57/57/57 55/55/55
f 181/181/181 184/184/184 182/182/182
f 182/182/182 183/183/183 180/180/180
f 180/180/180 181/181/181 182/182/182
f 175/175/175 178/178/178 179/179/179
f 177/177/177 178/178/178 175/175/175
f 175/175/175 176/176/176 177/177/177
f 48/48/48 46/46/46 50/50/50
f 46/46/46 53/53/53 50/50/50
f 48/48/48 49/49/49 47/47/47
f 47/47/47 46/46/46 48/48/48
f 46/46/46 47/47/47 54/54/54
f 54/54/54 53/53/53 46/46/46
f 51/51/51 43/43/43 52/52/52
f 43/43/43 45/45/45 52/52/52
f 51/51/51 174/174/174 44/44/44
f 44/44/44 43/43/43 51/51/51
f 43/43/43 44/44/44 173/173/173
f 173/173/173 45/45/45 43/43/43
f 31/31/31 42/42/42 13/13/13
f 13/13/13 2/2/2 31/31/31
f 41/41/41 12/12/12 13/13/13
f 13/13/13 42/42/42 41/41/41
f 40/40/40 11/11/11 12/12/12
f 12/12/12 41/41/41 40/40/40
f 39/39/39 10/10/10 11/11/11
f 11/11/11 40/40/40 39/39/39
f 38/38/38 9/9/9 10/10/10
f 10/10/10 39/39/39 38/38/38
f 37/37/37 8/8/8 9/9/9
f 9/9/9 38/38/38 37/37/37
f 36/36/36 7/7/7 8/8/8
f 8/8/8 37/37/37 36/36/36
f 35/35/35 6/6/6 7/7/7
f 7/7/7 36/36/36 35/35/35
f 34/34/34 5/5/5 6/6/6
f 6/6/6 35/35/35 34/34/34
f 33/33/33 4/4/4 5/5/5
f 5/5/5 34/34/34 33/33/33
f 32/32/32 3/3/3 4/4/4
f 4/4/4 33/33/33 32/32/32
f 31/31/31 2/2/2 3/3/3
f 3/3/3 32/32/32 31/31/31
f 25/25/25 113/113/113 109/109/109
f 109/109/109 14/14/14 25/25/25
f 24/24/24 112/112/112 113/113/113
f 113/113/113 25/25/25 24/24/24
f 23/23/23 139/139/139 112/112/112
f 112/112/112 24/24/24 23/23/23
f 22/22/22 30/30/30 139/139/139
f 139/139/139 23/23/23 22/22/22
f 21/21/21 29/29/29 30/30/30
f 30/30/30 22/22/22 21/21/21
f 20/20/20 65/65/65 29/29/29
f 29/29/29 21/21/21 20/20/20
f 19/19/19 111/111/111 65/65/65
f 65/65/65 20/20/20 19/19/19
f 18/18/18 28/28/28 111/111/111
f 111/111/111 19/19/19 18/18/18
f 17/17/17 27/27/27 28/28/28
f 28/28/28 18/18/18 17/17/17
f 16/16/16 26/26/26 27/27/27
f 27/27/27 17/17/17 16/16/16
f 15/15/15 110/110/110 26/26/26
f 26/26/26 16/16/16 15/15/15
f 14/14/14 109/109/109 110/110/110
f 110/110/110 15/15/15 14/14/14
f 13/13/13 25/25/25 14/14/14
f 14/14/14 2/2/2 13/13/13
f 12/12/12 24/24/24 25/25/25
f 25/25/25 13/13/13 12/12/12
f 11/11/11 23/23/23 24/24/24
f 24/24/24 12/12/12 11/11/11
f 10/10/10 22/22/22 23/23/23
f 23/23/23 11/11/11 10/10/10
f 9/9/9 21/21/21 22/22/22
f 22/22/22 10/10/10 9/9/9
f 8/8/8 20/20/20 21/21/21
f 21/21/21 9/9/9 8/8/8
f 7/7/7 19/19/19 20/20/20
f 20/20/20 8/8/8 7/7/7
f 6/6/6 18/18/18 19/19/19
f 19/19/19 7/7/7 6/6/6
f 5/5/5 17/17/17 18/18/18
f 18/18/18 6/6/6 5/5/5
f 4/4/4 16/16/16 17/17/17
f 17/17/17 5/5/5 4/4/4
f 3/3/3 15/15/15 16/16/16
f 16/16/16 4/4/4 3/3/3
f 2/2/2 14/14/14 15/15/15
f 15/15/15 3/3/3 2/2/2
f 1/1/1 42/42/42 31/31/31
f 1/1/1 41/41/41 42/42/42
f 1/1/1 40/40/40 41/41/41
f 1/1/1 39/39/39 40/40/40
f 1/1/1 38/38/38 39/39/39
f 1/1/1 37/37/37 38/38/38
f 1/1/1 36/36/36 37/37/37
f 1/1/1 35/35/35 36/36/36
f 1/1/1 34/34/34 35/35/35
f 1/1/1 33/33/33 34/34/34
f 1/1/1 32/32/32 33/33/33
f 1/1/1 31/31/31 32/32/32
