# Recovered local-space geometry; original node transforms not applied
o mesh_0
v -1.2912440070067532e-05 3.814697265625e-06 67.759765625
v -9.146171578322537e-06 22.219600677490234 34.35671615600586
v -11.109808921813965 19.242740631103516 34.35671615600586
v -19.24274253845215 11.109811782836914 34.35671615600586
v -22.219606399536133 1.7466023564338684e-05 34.35671615600586
v -19.242755889892578 -11.10977554321289 34.35671615600586
v -11.109822273254395 -19.24273109436035 34.35671615600586
v -2.6411029466544278e-05 -22.2195987701416 34.35671615600586
v 11.109770774841309 -19.242740631103516 34.35671615600586
v 19.242717742919922 -11.109807014465332 34.35671615600586
v 22.219581604003906 -1.2371689081192017e-05 34.35671615600586
v 19.242734909057617 11.109782218933105 34.35671615600586
v 11.109807014465332 19.242727279663086 34.35671615600586
v -7.913100489531644e-06 32.890167236328125 20.51114273071289
v -16.445093154907227 28.483728408813477 20.51114273071289
v -28.483728408813477 16.445100784301758 20.51114273071289
v -32.89017868041992 1.7073005437850952e-05 20.51114273071289
v -28.483741760253906 -16.4450626373291 20.51114273071289
v -16.445110321044922 -28.483720779418945 20.51114273071289
v -3.277382711530663e-05 -32.890159606933594 20.51114273071289
v 16.445053100585938 -28.48373794555664 20.51114273071289
v 28.483699798583984 -16.44510269165039 20.51114273071289
v 32.89015579223633 -2.2705644369125366e-05 20.51114273071289
v 28.483720779418945 16.4450626373291 20.51114273071289
v 16.445106506347656 28.48370933532715 20.51114273071289
v -31.549087524414062 18.214885711669922 -3.814697265625e-06
v -36.42974090576172 1.7248094081878662e-05 -3.814697265625e-06
v -31.549095153808594 -18.214845657348633 0.0
v 18.214832305908203 -31.549081802368164 -3.814697265625e-06
v 31.549053192138672 -18.214885711669922 0.0
v 36.42972946166992 -2.9608607292175293e-05 -3.814697265625e-06
v -1.456088102713693e-05 -2.8330832719802856e-06 -3.814697265625e-06
v -0.07461389899253845 11.911029815673828 43.95705032348633
v -6.0674285888671875 10.305258750915527 43.95705032348633
v -10.454472541809082 5.918219089508057 43.95705032348633
v -12.060242652893066 -0.07459152489900589 43.95705032348633
v -10.45447826385498 -6.067403316497803 43.95705032348633
v -6.067435264587402 -10.454455375671387 43.95705032348633
v -0.0746232196688652 -12.060229301452637 43.95705032348633
v 5.918189525604248 -10.454461097717285 43.95705032348633
v 10.305237770080566 -6.067419528961182 43.95705032348633
v 11.911009788513184 -0.07460760325193405 43.95705032348633
v 10.30524730682373 5.918203830718994 43.95705032348633
v 5.918208599090576 10.305252075195312 43.95705032348633
v -7.881521923991386e-08 41.70622253417969 18.530590057373047
v -4.681411155615933e-06 36.42974090576172 7.62939453125e-06
v -7.884137153625488 39.363868713378906 20.224903106689453
v 18.214900970458984 31.54906463623047 7.62939453125e-06
v -30.065019607543945 15.913863182067871 37.71760940551758
v -28.483728408813477 16.445100784301758 20.51114273071289
v -24.6083927154541 21.083587646484375 39.66469192504883
v -16.445093154907227 28.483728408813477 20.51114273071289
v -36.51823806762695 18.245519638061523 52.104366302490234
v 7.884148597717285 39.363861083984375 20.224910736083984
v 4.376632205094211e-06 52.932106018066406 30.287548065185547
v -31.813823699951172 8.60344123840332 39.6646842956543
v -32.89017868041992 1.6920268535614014e-05 20.51114273071289
v -39.87699508666992 -21.998170852661133 20.04566192626953
v -16.244731903076172 -31.549057006835938 3.7723045349121094
v -33.8558235168457 -26.629549026489258 20.264816284179688
v -43.19774627685547 -13.558647155761719 22.273685455322266
v -34.45960235595703 6.4849853515625e-05 3.7723045349121094
v -47.94574737548828 -30.7448787689209 37.89683151245117
v 23.13069725036621 -39.3792610168457 10.684661865234375
v 18.214828491210938 -31.549081802368164 7.62939453125e-06
v 30.37025260925293 -31.737972259521484 12.853078842163086
v 12.893351554870605 -41.82823944091797 12.853084564208984
v -5.052669803262688e-05 -36.42973709106445 0.0
v 37.228477478027344 -49.16937255859375 21.522274017333984
v 34.85391616821289 0.11701410263776779 32.189151763916016
v 32.89015579223633 -2.2700056433677673e-05 20.51114273071289
v 26.729909896850586 12.093106269836426 21.601818084716797
v 31.589155197143555 6.751269340515137 33.4410514831543
v 31.589134216308594 -6.517249584197998 33.4410514831543
v 26.729890823364258 -11.859099388122559 21.601818084716797
v 45.814300537109375 0.11701107770204544 48.895774841308594
v 22.776805877685547 8.63709831237793 49.047637939453125
v 19.242734909057617 11.109782218933105 34.35671615600586
v 10.339015007019043 18.321369171142578 32.95249557495117
v 17.314720153808594 12.235342025756836 50.14113998413086
v 22.09771156311035 2.1154394149780273 48.05539321899414
v 20.459775924682617 0.433441162109375 33.17888259887695
v 33.3032341003418 9.628158569335938 62.108821868896484
v -20.606956481933594 0.02080218680202961 51.126888275146484
v -22.219606399536133 1.7466023564338684e-05 34.35671615600586
v -14.753243446350098 -10.25609016418457 35.98430252075195
v -17.206684112548828 -5.672166347503662 51.20280075073242
v -17.2066650390625 5.713780403137207 51.20280075073242
v -14.753220558166504 10.297712326049805 35.98428726196289
v -16.078102111816406 0.02080460824072361 67.67018127441406
v -3.5602903366088867 -21.320171356201172 49.358062744140625
v -2.6422205337439664e-05 -22.2195987701416 34.35671615600586
v 9.871659278869629 -19.54094886779785 31.392566680908203
v 2.2928171157836914 -18.206398010253906 49.509918212890625
v -8.705159187316895 -18.206378936767578 46.5629997253418
v -10.682141304016113 -19.54092788696289 31.39255142211914
v -9.072325706481934 -23.601139068603516 63.270687103271484
v 1.628948450088501 -37.10185241699219 36.419376373291016
v -3.27719644701574e-05 -32.890159606933594 20.51114273071289
v 10.9899320602417 -26.919822692871094 19.546070098876953
v 7.782350540161133 -33.23025131225586 34.57938003540039
v -5.091373443603516 -34.0264892578125 37.69175338745117
v -12.962275505065918 -26.919803619384766 19.546070098876953
v 9.898241996765137 -32.69869613647461 49.009788513183594
v 16.61014175415039 30.44432830810547 37.3356819152832
v 16.445106506347656 28.48370933532715 20.51114273071289
v 3.01747727394104 30.699146270751953 19.546070098876953
v 9.232327461242676 30.934080123901367 38.58757400512695
v 20.723196029663086 24.299808502197266 38.58757400512695
v 23.76069450378418 18.7230281829834 19.546070098876953
v 23.09878158569336 37.95610046386719 50.59870529174805
v -7.86653436080087e-06 36.42974090576172 -3.814697265625e-06
v -18.214874267578125 31.549083709716797 0.0
v -18.21489143371582 -31.549070358276367 -3.814697265625e-06
v 31.54908561706543 18.2148380279541 -3.814697265625e-06
v 18.214895248413086 31.54906463623047 -3.814697265625e-06
v -18.214874267578125 31.549083709716797 0.0
v -7.86653436080087e-06 36.42974090576172 -3.814697265625e-06
v -31.549087524414062 18.214885711669922 -3.814697265625e-06
v -36.42974090576172 1.7248094081878662e-05 -3.814697265625e-06
v -31.549095153808594 -18.214845657348633 0.0
v -18.21489143371582 -31.549070358276367 -3.814697265625e-06
v -5.052669803262688e-05 -36.42973709106445 0.0
v 18.214832305908203 -31.549081802368164 -3.814697265625e-06
v 31.549053192138672 -18.214885711669922 0.0
v 36.42972946166992 -2.9608607292175293e-05 -3.814697265625e-06
v 31.54908561706543 18.2148380279541 -3.814697265625e-06
v 18.214895248413086 31.54906463623047 -3.814697265625e-06
v -18.214874267578125 31.549083709716797 0.0
v -7.884137153625488 39.363868713378906 20.224903106689453
v -18.214874267578125 31.549083709716797 0.0
v 18.214900970458984 31.54906463623047 7.62939453125e-06
v 7.884148597717285 39.363861083984375 20.224910736083984
v 4.376632205094211e-06 52.932106018066406 30.287548065185547
v -16.445093154907227 28.483728408813477 20.51114273071289
v -24.6083927154541 21.083587646484375 39.66469192504883
v -31.813823699951172 8.60344123840332 39.6646842956543
v -32.89017868041992 1.6920268535614014e-05 20.51114273071289
v -36.51823806762695 18.245519638061523 52.104366302490234
v -31.549095153808594 -18.214845657348633 0.0
v -33.8558235168457 -26.629549026489258 20.264816284179688
v -16.244731903076172 -31.549057006835938 3.7723045349121094
v -34.45960235595703 6.4849853515625e-05 3.7723045349121094
v -43.19774627685547 -13.558647155761719 22.273685455322266
v -47.94574737548828 -30.7448787689209 37.89683151245117
v 31.549053192138672 -18.214885711669922 0.0
v -5.052669803262688e-05 -36.42973709106445 0.0
v 30.37025260925293 -31.737972259521484 12.853078842163086
v 31.549053192138672 -18.214885711669922 0.0
v -5.052669803262688e-05 -36.42973709106445 0.0
v 12.893351554870605 -41.82823944091797 12.853084564208984
v 37.228477478027344 -49.16937255859375 21.522274017333984
v 31.589155197143555 6.751269340515137 33.4410514831543
v 26.729909896850586 12.093106269836426 21.601818084716797
v 26.729890823364258 -11.859099388122559 21.601818084716797
v 31.589134216308594 -6.517249584197998 33.4410514831543
v 45.814300537109375 0.11701107770204544 48.895774841308594
v 17.314720153808594 12.235342025756836 50.14113998413086
v 10.339015007019043 18.321369171142578 32.95249557495117
v 20.459775924682617 0.433441162109375 33.17888259887695
v 22.09771156311035 2.1154394149780273 48.05539321899414
v 33.3032341003418 9.628158569335938 62.108821868896484
v -17.206684112548828 -5.672166347503662 51.20280075073242
v -14.753243446350098 -10.25609016418457 35.98430252075195
v -14.753220558166504 10.297712326049805 35.98428726196289
v -17.2066650390625 5.713780403137207 51.20280075073242
v -16.078102111816406 0.02080460824072361 67.67018127441406
v 2.2928171157836914 -18.206398010253906 49.509918212890625
v 9.871659278869629 -19.54094886779785 31.392566680908203
v -10.682141304016113 -19.54092788696289 31.39255142211914
v -8.705159187316895 -18.206378936767578 46.5629997253418
v -9.072325706481934 -23.601139068603516 63.270687103271484
v 7.782350540161133 -33.23025131225586 34.57938003540039
v 10.9899320602417 -26.919822692871094 19.546070098876953
v -12.962275505065918 -26.919803619384766 19.546070098876953
v -5.091373443603516 -34.0264892578125 37.69175338745117
v 9.898241996765137 -32.69869613647461 49.009788513183594
v 9.232327461242676 30.934080123901367 38.58757400512695
v 3.01747727394104 30.699146270751953 19.546070098876953
v 23.76069450378418 18.7230281829834 19.546070098876953
v 20.723196029663086 24.299808502197266 38.58757400512695
v 23.09878158569336 37.95610046386719 50.59870529174805
vt 0.746047854423523 0.3791259527206421
vt 0.7460736632347107 0.4043114185333252
vt 0.7243516445159912 0.4043114185333252
vt 0.7058402895927429 0.4043114185333252
vt 0.6890213489532471 0.4043114185333252
vt 0.7058402895927429 0.4043114185333252
vt 0.7243516445159912 0.4043114185333252
vt 0.7460736632347107 0.4043114185333252
vt 0.7246284484863281 0.40462708473205566
vt 0.7061170339584351 0.40462708473205566
vt 0.6888948082923889 0.40462708473205566
vt 0.7061170339584351 0.40462708473205566
vt 0.7246283292770386 0.40462708473205566
vt 0.7460736632347107 0.42134279012680054
vt 0.71318519115448 0.42134279012680054
vt 0.686499297618866 0.42134279012680054
vt 0.6666882038116455 0.42134279012680054
vt 0.686499297618866 0.42134279012680054
vt 0.71318519115448 0.42134279012680054
vt 0.7460736632347107 0.42134279012680054
vt 0.7134619355201721 0.42165857553482056
vt 0.6867760419845581 0.42165857553482056
vt 0.6665617227554321 0.42165857553482056
vt 0.6867759227752686 0.42165857553482056
vt 0.713461697101593 0.42165857553482056
vt 0.677727997303009 0.4431573748588562
vt 0.6583635210990906 0.4431573748588562
vt 0.677727997303009 0.4431573748588562
vt 0.7097578644752502 0.4431994557380676
vt 0.6780048608779907 0.4431994557380676
vt 0.6582368612289429 0.4431994557380676
vt 0.6900511384010315 0.2510453462600708
vt 0.7460649609565735 0.39326077699661255
vt 0.7340115308761597 0.39326077699661255
vt 0.7224958539009094 0.39326077699661255
vt 0.7102842926979065 0.39326077699661255
vt 0.7224958539009094 0.39326077699661255
vt 0.7340115308761597 0.39326077699661255
vt 0.7460649609565735 0.39326077699661255
vt 0.7346007227897644 0.393576443195343
vt 0.7230849266052246 0.393576443195343
vt 0.71047043800354 0.393576443195343
vt 0.7230849266052246 0.393576443195343
vt 0.7346006035804749 0.393576443195343
vt 0.6294208765029907 0.46011847257614136
vt 0.6294323205947876 0.4972645044326782
vt 0.648960530757904 0.45170795917510986
vt 0.6641775965690613 0.4972645044326782
vt 0.6294208765029907 0.46011847257614136
vt 0.6294323205947876 0.4972645044326782
vt 0.6489494442939758 0.45169776678085327
vt 0.6641775965690613 0.4972645044326782
vt 0.629423975944519 0.42839688062667847
vt 0.6489494442939758 0.45169776678085327
vt 0.629423975944519 0.42839688062667847
vt 0.648960530757904 0.45170795917510986
vt 0.6641225218772888 0.4972645044326782
vt 0.6294208765029907 0.46011847257614136
vt 0.6641225218772888 0.4972645044326782
vt 0.648960530757904 0.45170795917510986
vt 0.6489494442939758 0.45169776678085327
vt 0.6641775965690613 0.4972645044326782
vt 0.629423975944519 0.42839688062667847
vt 0.6294208765029907 0.46011847257614136
vt 0.6294323205947876 0.4972645044326782
vt 0.648960530757904 0.45170795917510986
vt 0.6489494442939758 0.45169776678085327
vt 0.7460736632347107 0.4431573748588562
vt 0.629423975944519 0.42839688062667847
vt 0.6294208765029907 0.46011847257614136
vt 0.6294323205947876 0.4972645044326782
vt 0.6641225218772888 0.4972645044326782
vt 0.648960530757904 0.45170795917510986
vt 0.6489494442939758 0.45169776678085327
vt 0.6641775965690613 0.4972645044326782
vt 0.629423975944519 0.42839688062667847
vt 0.6294208765029907 0.46011847257614136
vt 0.6294323205947876 0.4972645044326782
vt 0.6641225218772888 0.4972645044326782
vt 0.648960530757904 0.45170795917510986
vt 0.6489494442939758 0.45169776678085327
vt 0.6641775965690613 0.4972645044326782
vt 0.629423975944519 0.42839688062667847
vt 0.6294208765029907 0.46011847257614136
vt 0.6294323205947876 0.4972645044326782
vt 0.6641225218772888 0.4972645044326782
vt 0.648960530757904 0.45170795917510986
vt 0.6489494442939758 0.45169776678085327
vt 0.6641775965690613 0.4972645044326782
vt 0.629423975944519 0.42839688062667847
vt 0.6294208765029907 0.46011847257614136
vt 0.6294323205947876 0.4972645044326782
vt 0.6641225218772888 0.4972645044326782
vt 0.648960530757904 0.45170795917510986
vt 0.6489494442939758 0.45169776678085327
vt 0.6641775965690613 0.4972645044326782
vt 0.629423975944519 0.42839688062667847
vt 0.6294208765029907 0.46011847257614136
vt 0.6294323205947876 0.4972645044326782
vt 0.6641225218772888 0.4972645044326782
vt 0.648960530757904 0.45170795917510986
vt 0.6489494442939758 0.45169776678085327
vt 0.6641775965690613 0.4972645044326782
vt 0.629423975944519 0.42839688062667847
vt 0.6294208765029907 0.46011847257614136
vt 0.6294323205947876 0.4972645044326782
vt 0.6641225218772888 0.4972645044326782
vt 0.648960530757904 0.45170795917510986
vt 0.6489494442939758 0.45169776678085327
vt 0.6641775965690613 0.4972645044326782
vt 0.629423975944519 0.42839688062667847
vt 0.7460736632347107 0.4431573748588562
vt 0.7094810009002686 0.4431573748588562
vt 0.7094810009002686 0.4431573748588562
vt 0.6780047416687012 0.4431994557380676
vt 0.7097577452659607 0.4431994557380676
vt 0.6900510787963867 0.3706223964691162
vt 0.7473685145378113 0.3604399561882019
vt 0.633604109287262 0.3607388138771057
vt 0.6900510787963867 0.3706223964691162
vt 0.7473685145378113 0.3604399561882019
vt 0.6900510787963867 0.3706223964691162
vt 0.633604109287262 0.3607388138771057
vt 0.6900510787963867 0.3706223964691162
vt 0.7473685145378113 0.3604399561882019
vt 0.6900510787963867 0.3706223964691162
vt 0.633604109287262 0.3607388138771057
vt 0.6900510787963867 0.3706223964691162
vt 0.6641225218772888 0.4972645044326782
vt 0.6385685205459595 0.4122868776321411
vt 0.6340727806091309 0.38417428731918335
vt 0.657301127910614 0.38417428731918335
vt 0.6528053283691406 0.4122868776321411
vt 0.64568692445755 0.4244025945663452
vt 0.657301127910614 0.38417428731918335
vt 0.6528053283691406 0.4122868776321411
vt 0.6385685205459595 0.4122868776321411
vt 0.6340727806091309 0.38417428731918335
vt 0.64568692445755 0.4244025945663452
vt 0.6294323205947876 0.4972645044326782
vt 0.6385685205459595 0.4122868776321411
vt 0.6340727806091309 0.38417428731918335
vt 0.657301127910614 0.38417428731918335
vt 0.6528053283691406 0.4122868776321411
vt 0.64568692445755 0.4244025945663452
vt 0.6641225218772888 0.4972645044326782
vt 0.6641775965690613 0.4972645044326782
vt 0.6385685205459595 0.4122868776321411
vt 0.6340727806091309 0.38417428731918335
vt 0.657301127910614 0.38417428731918335
vt 0.6528053283691406 0.4122868776321411
vt 0.64568692445755 0.4244025945663452
vt 0.6385685205459595 0.4122868776321411
vt 0.6340727806091309 0.38417428731918335
vt 0.657301127910614 0.38417428731918335
vt 0.6528053283691406 0.4122868776321411
vt 0.64568692445755 0.4244025945663452
vt 0.6385685205459595 0.4122868776321411
vt 0.6340727806091309 0.38417428731918335
vt 0.657301127910614 0.38417428731918335
vt 0.6528053283691406 0.4122868776321411
vt 0.64568692445755 0.4244025945663452
vt 0.6385685205459595 0.4122868776321411
vt 0.6340727806091309 0.38417428731918335
vt 0.657301127910614 0.38417428731918335
vt 0.6528053283691406 0.4122868776321411
vt 0.64568692445755 0.4244025945663452
vt 0.6385685205459595 0.4122868776321411
vt 0.6340727806091309 0.38417428731918335
vt 0.657301127910614 0.38417428731918335
vt 0.6528053283691406 0.4122868776321411
vt 0.64568692445755 0.4244025945663452
vt 0.6385685205459595 0.4122868776321411
vt 0.6340727806091309 0.38417428731918335
vt 0.657301127910614 0.38417428731918335
vt 0.6528053283691406 0.4122868776321411
vt 0.64568692445755 0.4244025945663452
vt 0.6385685205459595 0.4122868776321411
vt 0.6340727806091309 0.38417428731918335
vt 0.657301127910614 0.38417428731918335
vt 0.6528053283691406 0.4122868776321411
vt 0.64568692445755 0.4244025945663452
vn 0.0012672391021624207 0.0012671937001869082 0.9999983906745911
vn -0.04252403974533081 0.7494536638259888 0.6606897115707397
vn -0.37405067682266235 0.6382331252098083 0.6728629469871521
vn -0.6437908411026001 0.3662237226963043 0.671873152256012
vn -0.7414734363555908 -0.004628974478691816 0.6709662675857544
vn -0.6403241753578186 -0.37491878867149353 0.6703885793685913
vn -0.3671770691871643 -0.6448875665664673 0.670299232006073
vn 0.004442688077688217 -0.7416948676109314 0.6707227230072021
vn 0.37435829639434814 -0.6394423842430115 0.6715425848960876
vn 0.6431873440742493 -0.3660702109336853 0.6725345253944397
vn 0.739234209060669 0.004674794618040323 0.6734322905540466
vn 0.6373603343963623 0.37349408864974976 0.6739985942840576
vn 0.33887240290641785 0.6476374864578247 0.6824451088905334
vn -0.008418753743171692 0.9150064587593079 0.40335163474082947
vn -0.46479400992393494 0.7882093787193298 0.4033516049385071
vn -0.7966282367706299 0.45021215081214905 0.4033515751361847
vn -0.9150063991546631 -0.008418691344559193 0.40335148572921753
vn -0.7882097363471985 -0.46479371190071106 0.4033515453338623
vn -0.4502125084400177 -0.7966279983520508 0.40335166454315186
vn 0.00841858796775341 -0.9150063991546631 0.40335148572921753
vn 0.4647936224937439 -0.7882096767425537 0.40335148572921753
vn 0.796627938747406 -0.4502125680446625 0.40335166454315186
vn 0.9150062799453735 0.008418499492108822 0.40335172414779663
vn 0.7882097363471985 0.46479344367980957 0.4033516049385071
vn 0.45021262764930725 0.7966278791427612 0.40335172414779663
vn -0.8062865734100342 0.5667501091957092 0.1693997085094452
vn -0.9816397428512573 0.08767668902873993 0.16939948499202728
vn -0.9020974636077881 -0.4094984829425812 -0.1361292153596878
vn 0.41488903760910034 -0.8939637541770935 0.16939932107925415
vn 0.7894819378852844 -0.5974653363227844 -0.1405477374792099
vn 0.9816397428512573 -0.08767731487751007 0.16939982771873474
vn -8.726142475268261e-09 -1.9790491023741197e-08 -1.0
vn -9.873144881566986e-05 0.7626169919967651 0.6468504667282104
vn -0.4213968515396118 0.6550424695014954 0.6271714568138123
vn -0.692995548248291 0.35678958892822266 0.6264649629592896
vn -0.7789950370788574 -0.0375572107732296 0.6259043216705322
vn -0.6560349464416504 -0.42212143540382385 0.6256449818611145
vn -0.3570888042449951 -0.6934778094291687 0.6257604360580444
vn 0.03739463910460472 -0.7787503004074097 0.6262186765670776
vn 0.421398401260376 -0.6553090810775757 0.6268918514251709
vn 0.6920638680458069 -0.3566107749938965 0.6275957822799683
vn 0.7772108912467957 0.03715027868747711 0.6281427145004272
vn 0.6543316841125488 0.42068347334861755 0.6283911466598511
vn 0.3999183773994446 0.6927178502082825 0.6001726984977722
vn -0.05248895287513733 0.8971173167228699 -0.4386632740497589
vn 0.11305797845125198 0.9585488438606262 -0.26153773069381714
vn -0.3411944806575775 0.8319896459579468 -0.437469482421875
vn 0.2516140341758728 0.9390349984169006 -0.23431536555290222
vn -0.8744988441467285 0.4394197463989258 -0.20533405244350433
vn -0.8095344305038452 0.5848373174667358 -0.051181286573410034
vn -0.6602049469947815 0.7361379265785217 -0.1490984708070755
vn -0.7068260908126831 0.7068265676498413 -0.028162794187664986
vn -0.7853412628173828 0.4499475657939911 -0.4251897633075714
vn 0.3144162595272064 0.8650761246681213 -0.39087843894958496
vn 3.8049574868637137e-07 0.7232531905174255 -0.6905829906463623
vn -0.9571256041526794 0.16567681729793549 -0.23761683702468872
vn -0.9688381552696228 0.23965929448604584 -0.06257990002632141
vn -0.7005113959312439 -0.5454854965209961 -0.46014073491096497
vn -0.5565939545631409 -0.742624819278717 -0.37244001030921936
vn -0.5289512872695923 -0.7096995115280151 -0.4653356969356537
vn -0.8766289353370667 -0.16469500958919525 -0.4521031677722931
vn -0.8891918659210205 -0.04784555360674858 -0.4550260305404663
vn -0.7036847472190857 -0.45854029059410095 -0.5427417755126953
vn 0.3885956108570099 -0.5998853445053101 -0.6993791460990906
vn 0.2801646590232849 -0.7329717874526978 -0.6198872923851013
vn 0.6147599220275879 -0.3874957859516144 -0.686962366104126
vn 0.10164487361907959 -0.7775669693946838 -0.620530366897583
vn -0.01086865458637476 -0.9998037815093994 -0.01656281016767025
vn 0.27608823776245117 -0.5066035389900208 -0.8167791366577148
vn 0.9398999810218811 0.10514553636312485 -0.3248578906059265
vn 0.9713471531867981 -0.1723664402961731 -0.16362935304641724
vn 0.8751461505889893 0.459412157535553 -0.15185406804084778
vn 0.8227460980415344 0.4662332832813263 -0.32513901591300964
vn 0.843562662601471 -0.4680550992488861 -0.2632991373538971
vn 0.872106671333313 -0.4665793180465698 -0.14742359519004822
vn 0.8361245393753052 -7.710051477261004e-07 -0.5485396981239319
vn 0.7858189940452576 0.5466883182525635 -0.28917187452316284
vn 0.9417513608932495 0.30520471930503845 -0.14126093685626984
vn 0.595888078212738 0.8027515411376953 0.02252442203462124
vn 0.5156784057617188 0.8375920653343201 -0.1803201586008072
vn 0.9393075704574585 0.026346443220973015 -0.3420630693435669
vn 0.9844564199447632 0.12574870884418488 -0.12260841578245163
vn 0.6780483722686768 0.45065414905548096 -0.5806558728218079
vn -0.9796612858772278 -0.13545864820480347 0.148036926984787
vn -0.9760404229164124 0.20211023092269897 0.08060099929571152
vn -0.836276113986969 -0.5462519526481628 0.04744574427604675
vn -0.852697491645813 -0.5076518654823303 0.12327426671981812
vn -0.8384827375411987 0.5318055152893066 0.11886794120073318
vn -0.8121101260185242 0.5818182826042175 0.044324155896902084
vn -0.9645110964775085 8.41369001136627e-07 0.26404237747192383
vn 0.07827077805995941 -0.9968345761299133 0.013947766274213791
vn -0.16633974015712738 -0.9839500188827515 0.06460250169038773
vn 0.37450823187828064 -0.9075219035148621 0.19012512266635895
vn 0.4615960121154785 -0.874846875667572 0.1468750685453415
vn -0.386462926864624 -0.9187724590301514 -0.08064496517181396
vn -0.2725606858730316 -0.9546881914138794 0.11950377374887466
vn 0.05305147171020508 -0.9885787963867188 -0.141058549284935
vn 0.16030484437942505 -0.9848750829696655 -0.06575269252061844
vn -0.14522454142570496 -0.9616024494171143 -0.23287463188171387
vn 0.4492485821247101 -0.8530377149581909 -0.2655227780342102
vn 0.4930129945278168 -0.8564168214797974 -0.15325942635536194
vn -0.3965623676776886 -0.917142391204834 0.03985179215669632
vn -0.40068259835243225 -0.8987240791320801 -0.178180992603302
vn 0.13347333669662476 -0.9595443606376648 0.24791033565998077
vn 0.40721026062965393 0.8653231263160706 -0.29222536087036133
vn 0.6444027423858643 0.7599916458129883 -0.08460373431444168
vn 0.11555688828229904 0.990532636642456 -0.07410619407892227
vn 0.018923267722129822 0.9639064073562622 -0.2655680775642395
vn 0.8167678713798523 0.5253205895423889 -0.2385970652103424
vn 0.796881377696991 0.6021266579627991 -0.04922940582036972
vn 0.39755940437316895 0.701312243938446 -0.5916990041732788
vn 0.0876767486333847 0.9816396832466125 0.16939984261989594
vn -0.3696880340576172 0.9291321635246277 0.00664830906316638
vn -0.566750705242157 -0.8062862157821655 0.16939939558506012
vn 0.8939636945724487 0.4148889482021332 0.16939982771873474
vn 0.5667508244514465 0.806286096572876 0.16939972341060638
vn -5.235688149696216e-08 9.06848569570684e-08 -1.0
vn -1.0471385536447997e-07 1.9242265997276332e-14 -1.0
vn 5.235697386751781e-08 9.068483564078633e-08 -1.0
vn -5.772148709524971e-14 -1.047138837861894e-07 -1.0
vn -9.068484985164105e-08 -5.2356952551235736e-08 -1.0
vn 1.2079226507921703e-13 -7.460698725481052e-14 -1.0
vn 1.0658141036401503e-13 -1.047138340481979e-07 -1.0
vn 4.973799150320701e-14 2.842170943040401e-14 -1.0
vn 9.068477169194011e-08 -5.2357016500081954e-08 -1.0
vn -8.223742596191047e-14 -1.0471387668076204e-07 -1.0
vn 0.0 0.0 -1.0
vn 0.0 0.0 -1.0
vn -0.3696880340576172 0.9291321635246277 0.00664830906316638
vn -6.447233431572386e-07 -0.8501999974250793 0.5264600515365601
vn -5.638614197778224e-07 -0.9327884912490845 0.360424280166626
vn -5.947874797129771e-07 -0.9327884912490845 0.360424280166626
vn -6.780607577638875e-07 -0.7956615090370178 0.605741560459137
vn -6.768518119315559e-07 -0.5956897139549255 0.8032146692276001
vn 0.8529270887374878 -0.49243834614753723 0.17326249182224274
vn 0.7985180020332336 -0.46102580428123474 0.3870713710784912
vn 0.8215431571006775 -0.47431907057762146 0.31636732816696167
vn 0.8529272079467773 -0.4924379587173462 0.17326299846172333
vn 0.7044534087181091 -0.4067176580429077 0.5816582441329956
vn -0.9020974636077881 -0.4094984829425812 -0.1361292153596878
vn 0.6812306046485901 0.39191773533821106 0.6183247566223145
vn 0.6843146085739136 0.39508870244026184 0.6128771901130676
vn 0.6843883991241455 0.3950533866882324 0.6128175258636475
vn 0.6796759366989136 0.3903248906135559 0.6210372447967529
vn 0.6748124957084656 0.38558727502822876 0.6292460560798645
vn 0.7894819378852844 -0.5974653363227844 -0.1405477374792099
vn -0.01086865458637476 -0.9998037815093994 -0.01656281016767025
vn -0.32911932468414307 0.570052981376648 0.7528082728385925
vn -0.3780972361564636 0.6548846960067749 0.6543459892272949
vn -0.3780971169471741 0.6548849940299988 0.654345691204071
vn -0.30163145065307617 0.5224427580833435 0.7975413799285889
vn -0.21192628145217896 0.3670685291290283 0.9057307243347168
vn -0.874161958694458 1.13680152935558e-06 0.4856344759464264
vn -0.9251102209091187 7.366786007878545e-07 0.3796986937522888
vn -0.925110399723053 1.0997546269209124e-06 0.3796982169151306
vn -0.8436601758003235 1.3340369378056494e-06 0.5368777513504028
vn -0.7357694506645203 1.1634348311417853e-06 0.6772321462631226
vn -0.80897057056427 -0.46955254673957825 0.3536764979362488
vn -0.8575630187988281 -0.48295775055885315 0.17702454328536987
vn -0.8701200485229492 -0.4653085470199585 0.16241644322872162
vn -0.772483229637146 -0.45615753531455994 0.44180306792259216
vn -0.5867257714271545 -0.42000165581703186 0.6923522353172302
vn 0.9964827299118042 -1.443781457055593e-06 0.08379955589771271
vn 0.9872528314590454 -9.812218877414125e-07 0.15915973484516144
vn 0.9872528910636902 -1.3175230151318829e-06 0.1591593623161316
vn 0.9989556670188904 -1.6734284145059064e-06 0.04569004848599434
vn 0.9976598024368286 -1.6712576780264499e-06 -0.06837344169616699
vn -0.01945248618721962 0.9986739754676819 0.047664519399404526
vn 1.0725552783696912e-06 0.9972981214523315 -0.07346200197935104
vn 0.01216107327491045 0.9965486526489258 -0.08211531490087509
vn -0.029279500246047974 0.9935798645019531 0.10927827656269073
vn -0.08162162452936172 0.9489703178405762 0.3046201467514038
vn -0.013718816451728344 0.9699856042861938 0.2427750676870346
vn 7.342496246565133e-07 0.9220600128173828 0.3870469033718109
vn 0.013894508592784405 0.9286690950393677 0.37064898014068604
vn -0.020595379173755646 0.9857429265975952 0.16699370741844177
vn -0.06814964860677719 0.9973165988922119 -0.02674432098865509
vn -0.4631444811820984 -0.8021881580352783 0.3768174350261688
vn -0.4926093816757202 -0.8532232642173767 0.17130707204341888
vn -0.49260953068733215 -0.8532232046127319 0.17130687832832336
vn -0.43907633423805237 -0.7605007886886597 0.47838327288627625
vn -0.3391065299510956 -0.5873484015464783 0.7348664402961731
f 178/178/178 181/181/181 182/182/182
f 180/180/180 181/181/181 178/178/178
f 178/178/178 179/179/179 180/180/180
f 109/109/109 105/105/105 111/111/111
f 105/105/105 108/108/108 111/111/111
f 109/109/109 110/110/110 106/106/106
f 106/106/106 105/105/105 109/109/109
f 105/105/105 106/106/106 107/107/107
f 107/107/107 108/108/108 105/105/105
f 173/173/173 176/176/176 177/177/177
f 175/175/175 176/176/176 173/173/173
f 173/173/173 174/174/174 175/175/175
f 102/102/102 98/98/98 104/104/104
f 98/98/98 101/101/101 104/104/104
f 102/102/102 103/103/103 99/99/99
f 99/99/99 98/98/98 102/102/102
f 98/98/98 99/99/99 100/100/100
f 100/100/100 101/101/101 98/98/98
f 168/168/168 171/171/171 172/172/172
f 170/170/170 171/171/171 168/168/168
f 168/168/168 169/169/169 170/170/170
f 95/95/95 91/91/91 97/97/97
f 91/91/91 94/94/94 97/97/97
f 95/95/95 96/96/96 92/92/92
f 92/92/92 91/91/91 95/95/95
f 91/91/91 92/92/92 93/93/93
f 93/93/93 94/94/94 91/91/91
f 163/163/163 166/166/166 167/167/167
f 165/165/165 166/166/166 163/163/163
f 163/163/163 164/164/164 165/165/165
f 88/88/88 84/84/84 90/90/90
f 84/84/84 87/87/87 90/90/90
f 88/88/88 89/89/89 85/85/85
f 85/85/85 84/84/84 88/88/88
f 84/84/84 85/85/85 86/86/86
f 86/86/86 87/87/87 84/84/84
f 158/158/158 161/161/161 162/162/162
f 160/160/160 161/161/161 158/158/158
f 158/158/158 159/159/159 160/160/160
f 81/81/81 77/77/77 83/83/83
f 77/77/77 80/80/80 83/83/83
f 81/81/81 82/82/82 78/78/78
f 78/78/78 77/77/77 81/81/81
f 77/77/77 78/78/78 79/79/79
f 79/79/79 80/80/80 77/77/77
f 153/153/153 156/156/156 157/157/157
f 155/155/155 156/156/156 153/153/153
f 153/153/153 154/154/154 155/155/155
f 74/74/74 70/70/70 76/76/76
f 70/70/70 73/73/73 76/76/76
f 74/74/74 75/75/75 71/71/71
f 71/71/71 70/70/70 74/74/74
f 70/70/70 71/71/71 72/72/72
f 72/72/72 73/73/73 70/70/70
f 148/148/148 151/151/151 152/152/152
f 150/150/150 151/151/151 148/148/148
f 148/148/148 149/149/149 150/150/150
f 67/67/67 64/64/64 69/69/69
f 64/64/64 66/66/66 69/69/69
f 67/67/67 147/147/147 65/65/65
f 65/65/65 64/64/64 67/67/67
f 64/64/64 65/65/65 146/146/146
f 146/146/146 66/66/66 64/64/64
f 141/141/141 144/144/144 145/145/145
f 143/143/143 144/144/144 141/141/141
f 141/141/141 142/142/142 143/143/143
f 61/61/61 58/58/58 63/63/63
f 58/58/58 60/60/60 63/63/63
f 61/61/61 62/62/62 140/140/140
f 140/140/140 58/58/58 61/61/61
f 58/58/58 140/140/140 59/59/59
f 59/59/59 60/60/60 58/58/58
f 136/136/136 139/139/139 137/137/137
f 137/137/137 138/138/138 135/135/135
f 135/135/135 136/136/136 137/137/137
f 130/130/130 133/133/133 134/134/134
f 132/132/132 133/133/133 130/130/130
f 130/130/130 131/131/131 132/132/132
f 51/51/51 49/49/49 53/53/53
f 49/49/49 56/56/56 53/53/53
f 51/51/51 52/52/52 50/50/50
f 50/50/50 49/49/49 51/51/51
f 49/49/49 50/50/50 57/57/57
f 57/57/57 56/56/56 49/49/49
f 54/54/54 45/45/45 55/55/55
f 45/45/45 47/47/47 55/55/55
f 54/54/54 48/48/48 46/46/46
f 46/46/46 45/45/45 54/54/54
f 45/45/45 46/46/46 129/129/129
f 129/129/129 47/47/47 45/45/45
f 33/33/33 44/44/44 13/13/13
f 13/13/13 2/2/2 33/33/33
f 43/43/43 12/12/12 13/13/13
f 13/13/13 44/44/44 43/43/43
f 42/42/42 11/11/11 12/12/12
f 12/12/12 43/43/43 42/42/42
f 41/41/41 10/10/10 11/11/11
f 11/11/11 42/42/42 41/41/41
f 40/40/40 9/9/9 10/10/10
f 10/10/10 41/41/41 40/40/40
f 39/39/39 8/8/8 9/9/9
f 9/9/9 40/40/40 39/39/39
f 38/38/38 7/7/7 8/8/8
f 8/8/8 39/39/39 38/38/38
f 37/37/37 6/6/6 7/7/7
f 7/7/7 38/38/38 37/37/37
f 36/36/36 5/5/5 6/6/6
f 6/6/6 37/37/37 36/36/36
f 35/35/35 4/4/4 5/5/5
f 5/5/5 36/36/36 35/35/35
f 34/34/34 3/3/3 4/4/4
f 4/4/4 35/35/35 34/34/34
f 33/33/33 2/2/2 3/3/3
f 3/3/3 34/34/34 33/33/33
f 118/118/118 128/128/128 32/32/32
f 128/128/128 127/127/127 32/32/32
f 127/127/127 126/126/126 32/32/32
f 126/126/126 125/125/125 32/32/32
f 125/125/125 124/124/124 32/32/32
f 124/124/124 123/123/123 32/32/32
f 123/123/123 122/122/122 32/32/32
f 122/122/122 121/121/121 32/32/32
f 121/121/121 120/120/120 32/32/32
f 120/120/120 119/119/119 32/32/32
f 119/119/119 117/117/117 32/32/32
f 117/117/117 118/118/118 32/32/32
f 25/25/25 116/116/116 112/112/112
f 112/112/112 14/14/14 25/25/25
f 24/24/24 115/115/115 116/116/116
f 116/116/116 25/25/25 24/24/24
f 23/23/23 31/31/31 115/115/115
f 115/115/115 24/24/24 23/23/23
f 22/22/22 30/30/30 31/31/31
f 31/31/31 23/23/23 22/22/22
f 21/21/21 29/29/29 30/30/30
f 30/30/30 22/22/22 21/21/21
f 20/20/20 68/68/68 29/29/29
f 29/29/29 21/21/21 20/20/20
f 19/19/19 114/114/114 68/68/68
f 68/68/68 20/20/20 19/19/19
f 18/18/18 28/28/28 114/114/114
f 114/114/114 19/19/19 18/18/18
f 17/17/17 27/27/27 28/28/28
f 28/28/28 18/18/18 17/17/17
f 16/16/16 26/26/26 27/27/27
f 27/27/27 17/17/17 16/16/16
f 15/15/15 113/113/113 26/26/26
f 26/26/26 16/16/16 15/15/15
f 14/14/14 112/112/112 113/113/113
f 113/113/113 15/15/15 14/14/14
f 13/13/13 25/25/25 14/14/14
f 14/14/14 2/2/2 13/13/13
f 12/12/12 24/24/24 25/25/25
f 25/25/25 13/13/13 12/12/12
f 11/11/11 23/23/23 24/24/24
f 24/24/24 12/12/12 11/11/11
f 10/10/10 22/22/22 23/23/23
f 23/23/23 11/11/11 10/10/10
f 9/9/9 21/21/21 22/22/22
f 22/22/22 10/10/10 9/9/9
f 8/8/8 20/20/20 21/21/21
f 21/21/21 9/9/9 8/8/8
f 7/7/7 19/19/19 20/20/20
f 20/20/20 8/8/8 7/7/7
f 6/6/6 18/18/18 19/19/19
f 19/19/19 7/7/7 6/6/6
f 5/5/5 17/17/17 18/18/18
f 18/18/18 6/6/6 5/5/5
f 4/4/4 16/16/16 17/17/17
f 17/17/17 5/5/5 4/4/4
f 3/3/3 15/15/15 16/16/16
f 16/16/16 4/4/4 3/3/3
f 2/2/2 14/14/14 15/15/15
f 15/15/15 3/3/3 2/2/2
f 1/1/1 44/44/44 33/33/33
f 1/1/1 43/43/43 44/44/44
f 1/1/1 42/42/42 43/43/43
f 1/1/1 41/41/41 42/42/42
f 1/1/1 40/40/40 41/41/41
f 1/1/1 39/39/39 40/40/40
f 1/1/1 38/38/38 39/39/39
f 1/1/1 37/37/37 38/38/38
f 1/1/1 36/36/36 37/37/37
f 1/1/1 35/35/35 36/36/36
f 1/1/1 34/34/34 35/35/35
f 1/1/1 33/33/33 34/34/34
