# Recovered local-space geometry; original node transforms not applied
o mesh_0
v -8.561301001464017e-06 1.2714453987427987e-05 -46.17715835571289
v -9.319066975876922e-07 23.079509735107422 -33.70279312133789
v -11.539750099182129 19.987443923950195 -33.70279312133789
v -19.9874267578125 11.539772033691406 -33.70279312133789
v -23.079498291015625 2.901243351516314e-05 -33.70279312133789
v -19.987449645996094 -11.539712905883789 -33.70279312133789
v -11.539772987365723 -19.987409591674805 -33.70279312133789
v -2.3820090063964017e-05 -23.079486846923828 -33.70279312133789
v 11.539717674255371 -19.987428665161133 -33.70279312133789
v 19.987411499023438 -11.539749145507812 -33.70279312133789
v 23.079483032226562 -6.01530700805597e-06 -33.70279312133789
v 19.98743438720703 11.5397367477417 -33.70279312133789
v 11.539763450622559 19.987428665161133 -33.70279312133789
v -9.319066975876922e-07 32.890174865722656 -20.511146545410156
v -16.445083618164062 28.48373794555664 -20.511146545410156
v -28.483726501464844 16.44511604309082 -20.511146545410156
v -32.89018249511719 2.8854687116108835e-05 -20.511146545410156
v -28.483734130859375 -16.445049285888672 -20.511146545410156
v -16.445106506347656 -28.483713150024414 -20.511146545410156
v -3.144948641420342e-05 -32.89015197753906 -20.511146545410156
v 16.445053100585938 -28.483728408813477 -20.511146545410156
v 28.48370361328125 -16.445096969604492 -20.511146545410156
v 32.89015197753906 -1.6674777725711465e-05 -20.511146545410156
v 28.483726501464844 16.445068359375 -20.511146545410156
v 16.445114135742188 28.483718872070312 -20.511146545410156
v -9.319066975876922e-07 36.42974853515625 0.0
v -18.214866638183594 31.54909324645996 0.0
v -31.549087524414062 18.21489906311035 0.0
v -3.907888094545342e-05 -36.429718017578125 0.0
v 31.549057006835938 -18.214885711669922 0.0
v 36.429718017578125 -2.3887350835138932e-05 0.0
v 31.549087524414062 18.21484375 0.0
v -8.561301001464017e-06 6.0731863413820975e-06 0.0
v -8.561301001464017e-06 9.584413528442383 -40.316341400146484
v -4.792206764221191 8.300347328186035 -40.316341400146484
v -8.300339698791504 4.792216777801514 -40.316341400146484
v -9.584412574768066 1.9577948478399776e-05 -40.316341400146484
v -8.300347328186035 -4.792179107666016 -40.316341400146484
v -4.792214393615723 -8.300318717956543 -40.316341400146484
v -1.6190695532714017e-05 -9.584388732910156 -40.316341400146484
v 4.792181968688965 -8.300326347351074 -40.316341400146484
v 8.300322532653809 -4.792193412780762 -40.316341400146484
v 9.58438777923584 5.0317071327299345e-06 -40.316341400146484
v 8.30033016204834 4.792202949523926 -40.316341400146484
v 4.792197227478027 8.30034065246582 -40.316341400146484
v -0.13913820683956146 -45.86415100097656 -7.485078811645508
v -3.144948641420342e-05 -32.89015197753906 -20.511146545410156
v 16.445053100585938 -28.483728408813477 -20.511146545410156
v 9.890746116638184 -43.55669021606445 -4.390008926391602
v -10.284607887268066 -43.49696731567383 -4.845220565795898
v -16.445106506347656 -28.483713150024414 -20.511146545410156
v -0.4620217978954315 -58.20547866821289 -0.6164455413818359
v 37.70501708984375 20.304302215576172 -1.550832748413086
v 28.483726501464844 16.445068359375 -20.511146545410156
v 16.445114135742188 28.483718872070312 -20.511146545410156
v 30.908416748046875 26.745758056640625 4.377872467041016
v 41.870452880859375 11.374879837036133 1.3328075408935547
v 32.89015197753906 -1.6715934179956093e-05 -20.511146545410156
v 54.56126403808594 18.9669246673584 15.730936050415039
v -39.815914154052734 22.673025131225586 -8.702981948852539
v -28.483726501464844 16.44511604309082 -20.511146545410156
v -32.89018249511719 2.8851645765826106e-05 -20.511146545410156
v -42.832550048828125 12.833151817321777 -5.607912063598633
v -32.693145751953125 30.275651931762695 -6.06312370300293
v -16.445083618164062 28.48373794555664 -20.511146545410156
v -51.1470832824707 28.765043258666992 -0.8391628265380859
v -36.42973709106445 2.9339789762161672e-05 0.0
v -31.549087524414062 -18.214832305908203 0.0
v -18.214889526367188 -31.549060821533203 0.0
v 18.214828491210938 -31.549074172973633 0.0
v 18.21490478515625 31.549074172973633 0.0
v -18.214866638183594 31.54909324645996 0.0
v -9.319066975876922e-07 36.42974853515625 0.0
v -31.549087524414062 18.21489906311035 0.0
v -36.42973709106445 2.9339789762161672e-05 0.0
v -31.549087524414062 -18.214832305908203 0.0
v -18.214889526367188 -31.549060821533203 0.0
v -3.907888094545342e-05 -36.429718017578125 0.0
v 18.214828491210938 -31.549074172973633 0.0
v 31.549057006835938 -18.214885711669922 0.0
v 36.429718017578125 -2.3887350835138932e-05 0.0
v 31.549087524414062 18.21484375 0.0
v 18.21490478515625 31.549074172973633 0.0
v 9.890746116638184 -43.55669021606445 -4.390008926391602
v 16.445053100585938 -28.483728408813477 -20.511146545410156
v -16.445106506347656 -28.483713150024414 -20.511146545410156
v -10.284607887268066 -43.49696731567383 -4.845220565795898
v -0.4620217978954315 -58.20547866821289 -0.6164455413818359
v 30.908416748046875 26.745758056640625 4.377872467041016
v 16.445114135742188 28.483718872070312 -20.511146545410156
v 32.89015197753906 -1.6715934179956093e-05 -20.511146545410156
v 41.870452880859375 11.374879837036133 1.3328075408935547
v 54.56126403808594 18.9669246673584 15.730936050415039
v -42.832550048828125 12.833151817321777 -5.607912063598633
v -32.89018249511719 2.8851645765826106e-05 -20.511146545410156
v -16.445083618164062 28.48373794555664 -20.511146545410156
v -32.693145751953125 30.275651931762695 -6.06312370300293
v -51.1470832824707 28.765043258666992 -0.8391628265380859
vt 0.24674683809280396 0.8719676733016968
vt 0.2467523217201233 0.853650689125061
vt 0.2222117781639099 0.853650689125061
vt 0.20162737369537354 0.853650689125061
vt 0.18299418687820435 0.853650689125061
vt 0.20162725448608398 0.853650689125061
vt 0.2222117781639099 0.853650689125061
vt 0.2467520833015442 0.853650689125061
vt 0.22245937585830688 0.8539663553237915
vt 0.20187467336654663 0.8539663553237915
vt 0.18301445245742798 0.8539663553237915
vt 0.20187467336654663 0.8539663553237915
vt 0.22245925664901733 0.8539663553237915
vt 0.24675124883651733 0.8396940231323242
vt 0.21386277675628662 0.8396940231323242
vt 0.1871768832206726 0.8396940231323242
vt 0.16736578941345215 0.8396940231323242
vt 0.1871768832206726 0.8396940231323242
vt 0.21386253833770752 0.8396940231323242
vt 0.24675124883651733 0.8396940231323242
vt 0.21413952112197876 0.8400098085403442
vt 0.18745362758636475 0.8400098085403442
vt 0.16723930835723877 0.8400098085403442
vt 0.18745362758636475 0.8400098085403442
vt 0.21413928270339966 0.8400098085403442
vt 0.24675124883651733 0.8181074857711792
vt 0.2101585865020752 0.8181074857711792
vt 0.17840558290481567 0.8181074857711792
vt 0.24675124883651733 0.8181074857711792
vt 0.17868244647979736 0.8181495666503906
vt 0.1589144468307495 0.8181495666503906
vt 0.1786823272705078 0.8181495666503906
vt 0.31296205520629883 0.7517428398132324
vt 0.24675250053405762 0.8631737232208252
vt 0.23627489805221558 0.8631737232208252
vt 0.2232869267463684 0.8631737232208252
vt 0.2096516489982605 0.8631737232208252
vt 0.22328686714172363 0.8631737232208252
vt 0.23627489805221558 0.8631737232208252
vt 0.24675250053405762 0.8631737232208252
vt 0.23651140928268433 0.8634893894195557
vt 0.2235233187675476 0.8634893894195557
vt 0.20972669124603271 0.8634893894195557
vt 0.2235233187675476 0.8634893894195557
vt 0.23651140928268433 0.8634893894195557
vt 0.13009846210479736 0.8350685834884644
vt 0.13010990619659424 0.872214674949646
vt 0.16480010747909546 0.872214674949646
vt 0.1496381163597107 0.8266581296920776
vt 0.14962702989578247 0.8266478776931763
vt 0.16485518217086792 0.872214674949646
vt 0.13010156154632568 0.8033469915390015
vt 0.13009846210479736 0.8350685834884644
vt 0.13010990619659424 0.872214674949646
vt 0.16480010747909546 0.872214674949646
vt 0.1496381163597107 0.8266581296920776
vt 0.14962702989578247 0.8266478776931763
vt 0.16485518217086792 0.872214674949646
vt 0.13010156154632568 0.8033469915390015
vt 0.13009846210479736 0.8350685834884644
vt 0.13010990619659424 0.872214674949646
vt 0.16480010747909546 0.872214674949646
vt 0.1496381163597107 0.8266581296920776
vt 0.14962702989578247 0.8266478776931763
vt 0.16485518217086792 0.872214674949646
vt 0.13010156154632568 0.8033469915390015
vt 0.15904110670089722 0.8181074857711792
vt 0.17840558290481567 0.8181074857711792
vt 0.2101585865020752 0.8181074857711792
vt 0.21043545007705688 0.8181495666503906
vt 0.21043533086776733 0.8181495666503906
vt 0.31296199560165405 0.8713198900222778
vt 0.3702794313430786 0.8611374497413635
vt 0.2565150260925293 0.8614363074302673
vt 0.31296199560165405 0.8713198900222778
vt 0.3702794313430786 0.8611374497413635
vt 0.31296199560165405 0.8713198900222778
vt 0.2565150260925293 0.8614363074302673
vt 0.31296199560165405 0.8713198900222778
vt 0.3702794313430786 0.8611374497413635
vt 0.31296199560165405 0.8713198900222778
vt 0.2565150260925293 0.8614363074302673
vt 0.31296199560165405 0.8713198900222778
vt 0.1392461061477661 0.7872370481491089
vt 0.1347503662109375 0.7591243982315063
vt 0.15797871351242065 0.7591243982315063
vt 0.15348291397094727 0.7872370481491089
vt 0.1463645100593567 0.799352765083313
vt 0.1392461061477661 0.7872370481491089
vt 0.1347503662109375 0.7591243982315063
vt 0.15797871351242065 0.7591243982315063
vt 0.15348291397094727 0.7872370481491089
vt 0.1463645100593567 0.799352765083313
vt 0.1392461061477661 0.7872370481491089
vt 0.1347503662109375 0.7591243982315063
vt 0.15797871351242065 0.7591243982315063
vt 0.15348291397094727 0.7872370481491089
vt 0.1463645100593567 0.799352765083313
vn 2.939359644571482e-09 2.939359644571482e-09 -1.0
vn -0.04387844353914261 0.6737319231033325 -0.7376720905303955
vn -0.3328744173049927 0.5441545844078064 -0.7701237797737122
vn -0.5603548884391785 0.30481448769569397 -0.7701238393783569
vn -0.637688934803009 -0.01620013453066349 -0.7701236009597778
vn -0.5441550016403198 -0.33287402987480164 -0.7701236605644226
vn -0.3048146963119507 -0.5603548884391785 -0.7701237797737122
vn 0.016200058162212372 -0.637688934803009 -0.7701236009597778
vn 0.3328741788864136 -0.5441546440124512 -0.7701238393783569
vn 0.5603548884391785 -0.3048146367073059 -0.7701236605644226
vn 0.6376890540122986 0.01620006002485752 -0.7701236605644226
vn 0.544154942035675 0.33287379145622253 -0.7701236605644226
vn 0.27813997864723206 0.544323205947876 -0.7914230227470398
vn -0.0079464390873909 0.9184825420379639 -0.3953816592693329
vn -0.46612289547920227 0.7914562225341797 -0.39538177847862244
vn -0.7994023561477661 0.4523593783378601 -0.395381897687912
vn -0.9184824824333191 -0.007946559228003025 -0.3953818380832672
vn -0.7914562225341797 -0.4661227762699127 -0.3953815996646881
vn -0.4523595869541168 -0.7994022965431213 -0.39538177847862244
vn 0.007946250028908253 -0.9184826016426086 -0.39538154006004333
vn 0.4661225378513336 -0.7914563417434692 -0.3953815996646881
vn 0.7994024157524109 -0.45235952734947205 -0.39538195729255676
vn 0.9184825420379639 0.00794603955000639 -0.3953816592693329
vn 0.7914565205574036 0.46612218022346497 -0.3953816890716553
vn 0.45235976576805115 0.7994022369384766 -0.39538201689720154
vn 0.08767668902873993 0.9816396832466125 -0.16939984261989594
vn -0.41488924622535706 0.8939634561538696 -0.1693996787071228
vn -0.8062863945960999 0.5667503476142883 -0.16939976811408997
vn -0.08767669647932053 -0.9816398620605469 -0.1693994551897049
vn 0.8062862157821655 -0.566750705242157 -0.1693994402885437
vn 0.9816398024559021 -0.08767711371183395 -0.16939955949783325
vn 0.8939639329910278 0.41488850116729736 -0.16939961910247803
vn 0.0 0.0 1.0
vn 2.1546915718317905e-07 0.4676739275455475 -0.883901059627533
vn -0.25697237253189087 0.3978348672389984 -0.8807341456413269
vn -0.42146196961402893 0.21604925394058228 -0.8807340860366821
vn -0.4730212688446045 -0.023626795038580894 -0.8807341456413269
vn -0.39783498644828796 -0.25697213411331177 -0.8807341456413269
vn -0.2160492092370987 -0.4214617609977722 -0.8807342052459717
vn 0.023626886308193207 -0.4730212092399597 -0.8807342052459717
vn 0.256972074508667 -0.3978350758552551 -0.8807341456413269
vn 0.42146191000938416 -0.21604906022548676 -0.8807341456413269
vn 0.47302138805389404 0.02362682670354843 -0.8807340860366821
vn 0.3978351354598999 0.25697192549705505 -0.8807342648506165
vn 0.24067185819149017 0.4168550670146942 -0.8765323162078857
vn 0.050839412957429886 -0.6468871235847473 -0.7608892321586609
vn -0.11710412800312042 -0.721384584903717 -0.682561993598938
vn 0.2680175006389618 -0.7283571362495422 -0.6306048631668091
vn 0.35814911127090454 -0.6178467869758606 -0.6999961137771606
vn -0.2875410318374634 -0.630458652973175 -0.7210007309913635
vn -0.19975318014621735 -0.7454899549484253 -0.6358801126480103
vn 0.018457306548953056 -0.4865962266921997 -0.8734319806098938
vn 0.6808376908302307 0.5579015016555786 -0.47455868124961853
vn 0.7981632351875305 0.37912142276763916 -0.46819058060646057
vn 0.5918564200401306 0.7258417010307312 -0.35051363706588745
vn 0.4933556020259857 0.8106962442398071 -0.3152329623699188
vn 0.8140744566917419 0.1974293738603592 -0.5461724996566772
vn 0.8528023362159729 0.22850655019283295 -0.4695880711078644
vn 0.6364791393280029 0.5065873265266418 -0.5816043019294739
vn -0.5777119398117065 0.27740469574928284 -0.7676560282707214
vn -0.5402596592903137 0.4486502707004547 -0.7119216322898865
vn -0.7383441925048828 0.12009283155202866 -0.6636456847190857
vn -0.7090314626693726 -0.0044348714873194695 -0.7051628828048706
vn -0.40003806352615356 0.5605698823928833 -0.7250731587409973
vn -0.5300707221031189 0.5300716757774353 -0.6618528366088867
vn -0.4599612355232239 0.24584871530532837 -0.8532257080078125
vn -0.9816398024559021 0.08767662942409515 -0.16939927637577057
vn -0.8939634561538696 -0.414889395236969 -0.16939935088157654
vn -0.5667508244514465 -0.8062862753868103 -0.16939939558506012
vn 0.41488882899284363 -0.8939638733863831 -0.1693991869688034
vn 0.5667509436607361 0.8062859773635864 -0.16939972341060638
vn 0.0 0.0 1.0
vn 0.0 0.0 1.0
vn 0.0 0.0 1.0
vn 0.0 0.0 1.0
vn 0.0 0.0 1.0
vn 0.0 0.0 1.0
vn 0.0 0.0 1.0
vn 0.0 0.0 1.0
vn 0.0 0.0 1.0
vn 0.0 0.0 1.0
vn 0.0 0.0 1.0
vn 0.0 0.0 1.0
vn -0.011897577904164791 0.5903078317642212 0.8070905208587646
vn 3.38881022798887e-07 0.7304545044898987 0.6829614043235779
vn -0.006771853659301996 0.7248947620391846 0.688826322555542
vn -0.017902547493577003 0.5094769597053528 0.8602980375289917
vn -0.02098218910396099 0.26328378915786743 0.9644902348518372
vn -0.647182047367096 -0.5094621181488037 0.5671011805534363
vn -0.7842734456062317 -0.452798992395401 0.4241323173046112
vn -0.7099632024765015 -0.5072289705276489 0.4885396957397461
vn -0.5679072141647339 -0.5298033952713013 0.6299124956130981
vn -0.5028755068778992 -0.4985203444957733 0.7061116695404053
vn 0.5103027820587158 -0.28092774748802185 0.8128165006637573
vn 0.6098366379737854 -0.3520898222923279 0.7100225687026978
vn 0.6078209280967712 -0.3426947295665741 0.7163197994232178
vn 0.45422595739364624 -0.24166512489318848 0.8574827909469604
vn 0.2802177667617798 -0.13810017704963684 0.9499506950378418
f 94/94/94 97/97/97 98/98/98
f 96/96/96 97/97/97 94/94/94
f 94/94/94 95/95/95 96/96/96
f 64/64/64 60/60/60 66/66/66
f 60/60/60 63/63/63 66/66/66
f 64/64/64 65/65/65 61/61/61
f 61/61/61 60/60/60 64/64/64
f 60/60/60 61/61/61 62/62/62
f 62/62/62 63/63/63 60/60/60
f 89/89/89 92/92/92 93/93/93
f 91/91/91 92/92/92 89/89/89
f 89/89/89 90/90/90 91/91/91
f 57/57/57 53/53/53 59/59/59
f 53/53/53 56/56/56 59/59/59
f 57/57/57 58/58/58 54/54/54
f 54/54/54 53/53/53 57/57/57
f 53/53/53 54/54/54 55/55/55
f 55/55/55 56/56/56 53/53/53
f 84/84/84 87/87/87 88/88/88
f 86/86/86 87/87/87 84/84/84
f 84/84/84 85/85/85 86/86/86
f 50/50/50 46/46/46 52/52/52
f 46/46/46 49/49/49 52/52/52
f 50/50/50 51/51/51 47/47/47
f 47/47/47 46/46/46 50/50/50
f 46/46/46 47/47/47 48/48/48
f 48/48/48 49/49/49 46/46/46
f 34/34/34 2/2/2 13/13/13
f 13/13/13 45/45/45 34/34/34
f 44/44/44 45/45/45 13/13/13
f 13/13/13 12/12/12 44/44/44
f 43/43/43 44/44/44 12/12/12
f 12/12/12 11/11/11 43/43/43
f 42/42/42 43/43/43 11/11/11
f 11/11/11 10/10/10 42/42/42
f 41/41/41 42/42/42 10/10/10
f 10/10/10 9/9/9 41/41/41
f 40/40/40 41/41/41 9/9/9
f 9/9/9 8/8/8 40/40/40
f 39/39/39 40/40/40 8/8/8
f 8/8/8 7/7/7 39/39/39
f 38/38/38 39/39/39 7/7/7
f 7/7/7 6/6/6 38/38/38
f 37/37/37 38/38/38 6/6/6
f 6/6/6 5/5/5 37/37/37
f 36/36/36 37/37/37 5/5/5
f 5/5/5 4/4/4 36/36/36
f 35/35/35 36/36/36 4/4/4
f 4/4/4 3/3/3 35/35/35
f 34/34/34 35/35/35 3/3/3
f 3/3/3 2/2/2 34/34/34
f 73/73/73 33/33/33 83/83/83
f 83/83/83 33/33/33 82/82/82
f 82/82/82 33/33/33 81/81/81
f 81/81/81 33/33/33 80/80/80
f 80/80/80 33/33/33 79/79/79
f 79/79/79 33/33/33 78/78/78
f 78/78/78 33/33/33 77/77/77
f 77/77/77 33/33/33 76/76/76
f 76/76/76 33/33/33 75/75/75
f 75/75/75 33/33/33 74/74/74
f 74/74/74 33/33/33 72/72/72
f 72/72/72 33/33/33 73/73/73
f 25/25/25 14/14/14 26/26/26
f 26/26/26 71/71/71 25/25/25
f 24/24/24 25/25/25 71/71/71
f 71/71/71 32/32/32 24/24/24
f 23/23/23 24/24/24 32/32/32
f 32/32/32 31/31/31 23/23/23
f 22/22/22 23/23/23 31/31/31
f 31/31/31 30/30/30 22/22/22
f 21/21/21 22/22/22 30/30/30
f 30/30/30 70/70/70 21/21/21
f 20/20/20 21/21/21 70/70/70
f 70/70/70 29/29/29 20/20/20
f 19/19/19 20/20/20 29/29/29
f 29/29/29 69/69/69 19/19/19
f 18/18/18 19/19/19 69/69/69
f 69/69/69 68/68/68 18/18/18
f 17/17/17 18/18/18 68/68/68
f 68/68/68 67/67/67 17/17/17
f 16/16/16 17/17/17 67/67/67
f 67/67/67 28/28/28 16/16/16
f 15/15/15 16/16/16 28/28/28
f 28/28/28 27/27/27 15/15/15
f 14/14/14 15/15/15 27/27/27
f 27/27/27 26/26/26 14/14/14
f 13/13/13 2/2/2 14/14/14
f 14/14/14 25/25/25 13/13/13
f 12/12/12 13/13/13 25/25/25
f 25/25/25 24/24/24 12/12/12
f 11/11/11 12/12/12 24/24/24
f 24/24/24 23/23/23 11/11/11
f 10/10/10 11/11/11 23/23/23
f 23/23/23 22/22/22 10/10/10
f 9/9/9 10/10/10 22/22/22
f 22/22/22 21/21/21 9/9/9
f 8/8/8 9/9/9 21/21/21
f 21/21/21 20/20/20 8/8/8
f 7/7/7 8/8/8 20/20/20
f 20/20/20 19/19/19 7/7/7
f 6/6/6 7/7/7 19/19/19
f 19/19/19 18/18/18 6/6/6
f 5/5/5 6/6/6 18/18/18
f 18/18/18 17/17/17 5/5/5
f 4/4/4 5/5/5 17/17/17
f 17/17/17 16/16/16 4/4/4
f 3/3/3 4/4/4 16/16/16
f 16/16/16 15/15/15 3/3/3
f 2/2/2 3/3/3 15/15/15
f 15/15/15 14/14/14 2/2/2
f 1/1/1 34/34/34 45/45/45
f 1/1/1 45/45/45 44/44/44
f 1/1/1 44/44/44 43/43/43
f 1/1/1 43/43/43 42/42/42
f 1/1/1 42/42/42 41/41/41
f 1/1/1 41/41/41 40/40/40
f 1/1/1 40/40/40 39/39/39
f 1/1/1 39/39/39 38/38/38
f 1/1/1 38/38/38 37/37/37
f 1/1/1 37/37/37 36/36/36
f 1/1/1 36/36/36 35/35/35
f 1/1/1 35/35/35 34/34/34
