# Recovered local-space geometry; original node transforms not applied
o mesh_0
v -7.331984306802042e-06 -1.695754150432549e-07 52.10944747924805
v -6.025959919497836e-06 32.87252426147461 41.748741149902344
v -16.436277389526367 28.46843719482422 41.748741149902344
v -28.468454360961914 16.436260223388672 41.748741149902344
v -32.87252426147461 4.062102561874781e-06 41.748741149902344
v -28.468454360961914 -16.436250686645508 41.748741149902344
v -16.436277389526367 -28.468425750732422 41.748741149902344
v -2.3480173695134e-05 -32.87251281738281 41.748741149902344
v 16.43622589111328 -28.468446731567383 41.748741149902344
v 28.468420028686523 -16.436279296875 41.748741149902344
v 32.87251663208008 -2.4672150175319985e-05 41.748741149902344
v 28.468435287475586 16.436233520507812 41.74874496459961
v 16.436275482177734 28.468420028686523 41.748741149902344
v -6.261389899009373e-06 45.532615661621094 22.141443252563477
v -22.766324996948242 39.432395935058594 22.141443252563477
v -39.43239212036133 22.766305923461914 22.141443252563477
v -45.532615661621094 6.961428425711347e-06 22.14144515991211
v -39.432403564453125 -22.766292572021484 22.14144515991211
v -22.766334533691406 -39.43238830566406 22.141443252563477
v -3.285970524302684e-05 -45.53260803222656 22.14144515991211
v 22.766273498535156 -39.432403564453125 22.14144515991211
v 39.432369232177734 -22.766338348388672 22.141443252563477
v 45.53260803222656 -3.763807762879878e-05 22.141443252563477
v 39.432411193847656 22.766267776489258 22.14144515991211
v 22.766326904296875 39.432376861572266 22.14144515991211
v -23.912866592407227 -41.41826629638672 -4.1192338358087e-06
v -1.9655173673527315e-05 -47.82570266723633 -3.309061867184937e-06
v 23.91284942626953 -41.418270111083984 -3.7131685530766845e-06
v 41.41826629638672 -23.91284942626953 -3.0686892387166154e-06
v 47.82569885253906 0.0 -9.483944722887827e-07
v 41.41826629638672 23.91284942626953 1.0967024763886002e-06
v -7.222411113616545e-06 7.601509423693642e-06 -52.10944747924805
v -5.818863428430632e-06 -32.87251281738281 -41.748748779296875
v -16.436277389526367 -28.468429565429688 -41.748748779296875
v -28.468454360961914 -16.436254501342773 -41.74874496459961
v -32.87252426147461 2.1904702407482546e-06 -41.748741149902344
v -28.468454360961914 16.436254501342773 -41.748741149902344
v -16.436279296875 28.468433380126953 -41.748741149902344
v -2.3527965822722763e-05 32.87252426147461 -41.748741149902344
v 16.43622589111328 28.46845245361328 -41.748741149902344
v 28.468420028686523 16.4362850189209 -41.748741149902344
v 32.87251663208008 3.10203067783732e-05 -41.748741149902344
v 28.468435287475586 -16.43622589111328 -41.748748779296875
v 16.436275482177734 -28.468414306640625 -41.748748779296875
v -5.541609425563365e-06 -45.532615661621094 -22.141448974609375
v -22.766324996948242 -39.43239212036133 -22.141447067260742
v -39.43239212036133 -22.766300201416016 -22.14144515991211
v -45.532615661621094 -3.7166419133427553e-06 -22.14144515991211
v -39.432403564453125 22.76629638671875 -22.14143943786621
v -22.766334533691406 39.43238830566406 -22.141437530517578
v -3.2797113817650825e-05 45.532615661621094 -22.141435623168945
v 22.766273498535156 39.43240737915039 -22.141437530517578
v 39.432369232177734 22.766342163085938 -22.14143943786621
v 45.53260803222656 4.144617560086772e-05 -22.14144515991211
v 39.432411193847656 -22.766263961791992 -22.141447067260742
v 22.766326904296875 -39.432373046875 -22.141448974609375
v -41.41828155517578 -23.91284942626953 -3.670269506983459e-06
v -47.82571029663086 0.0 -9.483974281465635e-07
v -41.41828155517578 23.91284942626953 1.7885139413920115e-06
v -23.912866592407227 41.41826629638672 1.500547682553588e-06
v -2.0256749849068e-05 47.82570266723633 2.2093558982305694e-06
v 23.91284942626953 41.418270111083984 1.8013373619396589e-06
v -1.9655173673527315e-05 -47.82570266723633 -3.309061867184937e-06
v -41.41828155517578 -23.91284942626953 -3.670269506983459e-06
v -41.41828155517578 23.91284942626953 1.7885139413920115e-06
v -2.0256749849068e-05 47.82570266723633 2.2093558982305694e-06
v 41.41826629638672 23.91284942626953 1.0967024763886002e-06
v 41.41826629638672 -23.91284942626953 -3.0686892387166154e-06
vt 0.42345917224884033 0.5771799087524414
vt 0.42415744066238403 0.5779606103897095
vt 0.42346227169036865 0.5779602527618408
vt 0.4227672219276428 0.5779606103897095
vt 0.42346227169036865 0.5779602527618408
vt 0.42415744066238403 0.5779606103897095
vt 0.42346227169036865 0.5779602527618408
vt 0.4227672219276428 0.5779606103897095
vt 0.42346227169036865 0.5779602527618408
vt 0.42415744066238403 0.5779606103897095
vt 0.42346227169036865 0.5779602527618408
vt 0.4227672219276428 0.5779606103897095
vt 0.42346227169036865 0.5779602527618408
vt 0.42475056648254395 0.579115629196167
vt 0.42346227169036865 0.5791137218475342
vt 0.42217403650283813 0.579115629196167
vt 0.42346227169036865 0.5791137218475342
vt 0.42475056648254395 0.579115629196167
vt 0.42346227169036865 0.5791137218475342
vt 0.42217403650283813 0.579115629196167
vt 0.42346227169036865 0.5791137218475342
vt 0.42475056648254395 0.579115629196167
vt 0.42346227169036865 0.5791137218475342
vt 0.42217403650283813 0.579115629196167
vt 0.42346227169036865 0.5791137218475342
vt 0.42346227169036865 0.5803395509719849
vt 0.42184585332870483 0.5803407430648804
vt 0.42346227169036865 0.5803395509719849
vt 0.42507874965667725 0.5803407430648804
vt 0.42346227169036865 0.5803395509719849
vt 0.42184585332870483 0.5803407430648804
vt 0.42345917224884033 0.5771799087524414
vt 0.42415744066238403 0.5779606103897095
vt 0.42346227169036865 0.5779602527618408
vt 0.4227672219276428 0.5779606103897095
vt 0.42346227169036865 0.5779602527618408
vt 0.42415744066238403 0.5779606103897095
vt 0.42346227169036865 0.5779602527618408
vt 0.4227672219276428 0.5779606103897095
vt 0.42346227169036865 0.5779602527618408
vt 0.42415744066238403 0.5779606103897095
vt 0.42346227169036865 0.5779602527618408
vt 0.4227672219276428 0.5779606103897095
vt 0.42346227169036865 0.5779602527618408
vt 0.42475056648254395 0.579115629196167
vt 0.42346227169036865 0.5791137218475342
vt 0.42217403650283813 0.579115629196167
vt 0.42346227169036865 0.5791137218475342
vt 0.42475056648254395 0.579115629196167
vt 0.42346227169036865 0.5791137218475342
vt 0.42217403650283813 0.579115629196167
vt 0.42346227169036865 0.5791137218475342
vt 0.42475056648254395 0.579115629196167
vt 0.42346227169036865 0.5791137218475342
vt 0.42217403650283813 0.579115629196167
vt 0.42346227169036865 0.5791137218475342
vt 0.42507874965667725 0.5803407430648804
vt 0.42346227169036865 0.5803395509719849
vt 0.42184585332870483 0.5803407430648804
vt 0.42346227169036865 0.5803395509719849
vt 0.42507874965667725 0.5803407430648804
vt 0.42346227169036865 0.5803395509719849
vt 0.42507874965667725 0.5803407430648804
vt 0.42184585332870483 0.5803407430648804
vt 0.42507874965667725 0.5803407430648804
vt 0.42184585332870483 0.5803407430648804
vt 0.42507874965667725 0.5803407430648804
vt 0.42184585332870483 0.5803407430648804
vn 2.0899147301634002e-08 1.0188333732230603e-07 -1.0
vn 0.047282226383686066 -0.6584042310714722 -0.7511779069900513
vn 0.370150089263916 -0.5465537309646606 -0.7511778473854065
vn 0.5938361883163452 -0.28825441002845764 -0.7511777281761169
vn 0.6584043502807617 0.04728243127465248 -0.7511777877807617
vn 0.5465537905693054 0.370149701833725 -0.7511778473854065
vn 0.2882544696331024 0.5938358902931213 -0.751177966594696
vn -0.047282084822654724 0.6584042906761169 -0.7511779069900513
vn -0.3701494634151459 0.5465540289878845 -0.7511777877807617
vn -0.5938358306884766 0.2882550358772278 -0.7511779069900513
vn -0.6584042906761169 -0.04728199914097786 -0.7511779069900513
vn -0.5465538501739502 -0.37014952301979065 -0.7511780261993408
vn -0.28825485706329346 -0.5938357710838318 -0.7511779069900513
vn 0.006693853531032801 -0.9429284334182739 -0.33292821049690247
vn 0.4772617518901825 -0.813252866268158 -0.33292827010154724
vn 0.8199470639228821 -0.46566689014434814 -0.33292821049690247
vn 0.9429283738136292 0.00669404212385416 -0.33292829990386963
vn 0.8132530450820923 0.4772612452507019 -0.33292821049690247
vn 0.4656672477722168 0.819946825504303 -0.332928329706192
vn -0.006693863309919834 0.9429283738136292 -0.3329283893108368
vn -0.4772610664367676 0.8132531046867371 -0.33292829990386963
vn -0.8199466466903687 0.46566760540008545 -0.33292821049690247
vn -0.9429284334182739 -0.006693463772535324 -0.3329281806945801
vn -0.8132531642913818 -0.4772610068321228 -0.33292829990386963
vn -0.4656675159931183 -0.8199467658996582 -0.3329283595085144
vn 0.5000002980232239 0.8660252690315247 -4.78034287709761e-08
vn 3.1007633793933564e-08 1.0 3.8759542242416956e-09
vn -0.5000001192092896 0.866025447845459 5.16793967619833e-08
vn -0.8660253882408142 0.5000000596046448 -1.8087787267973e-08
vn -1.0 -5.167939409744804e-09 -3.875954668330905e-09
vn -0.8660253882408142 -0.5000000596046448 1.9379770677119268e-08
vn 9.143376722420271e-09 -2.0899146591091267e-07 1.0
vn 0.04728228598833084 0.6584041118621826 0.7511780261993408
vn 0.370150089263916 0.5465535521507263 0.7511778473854065
vn 0.5938361883163452 0.2882542610168457 0.7511777877807617
vn 0.6584043502807617 -0.04728255048394203 0.7511777877807617
vn 0.546553909778595 -0.37014979124069214 0.7511777281761169
vn 0.28825464844703674 -0.5938360095024109 0.7511777877807617
vn -0.0472821407020092 -0.6584044694900513 0.7511777281761169
vn -0.37014955282211304 -0.5465540885925293 0.7511777281761169
vn -0.5938358306884766 -0.2882550358772278 0.7511779069900513
vn -0.6584042310714722 0.04728191718459129 0.751177966594696
vn -0.5465539693832397 0.3701493740081787 0.7511780261993408
vn -0.28825485706329346 0.593835711479187 0.751177966594696
vn 0.00669390382245183 0.9429283738136292 0.3329283595085144
vn 0.4772617220878601 0.8132526874542236 0.3329283595085144
vn 0.8199470639228821 0.46566689014434814 0.33292824029922485
vn 0.9429283738136292 -0.006694084033370018 0.332928329706192
vn 0.8132530450820923 -0.4772613048553467 0.3329281508922577
vn 0.46566736698150635 -0.819946825504303 0.3329280912876129
vn -0.0066937715746462345 -0.9429284334182739 0.3329281210899353
vn -0.47726115584373474 -0.8132531642913818 0.3329281210899353
vn -0.8199466466903687 -0.4656676650047302 0.3329280912876129
vn -0.9429284334182739 0.006693433038890362 0.33292821049690247
vn -0.8132531642913818 0.477260947227478 0.3329283893108368
vn -0.4656674861907959 0.8199466466903687 0.332928329706192
vn 0.866025447845459 0.49999991059303284 2.9715643279359938e-08
vn 1.0 5.167938965655594e-09 7.751908448483391e-09
vn 0.866025447845459 -0.49999991059303284 2.583969260783192e-09
vn 0.5000002384185791 -0.8660252690315247 8.527098316335469e-08
vn 1.0335877931311188e-07 -1.0 -8.656297723064199e-08
vn -0.5000001192092896 -0.866025447845459 -7.881107677576438e-08
vn 3.1007633793933564e-08 1.0 3.8759542242416956e-09
vn 0.866025447845459 0.49999991059303284 2.9715643279359938e-08
vn 0.866025447845459 -0.49999991059303284 2.583969260783192e-09
vn 1.0335877931311188e-07 -1.0 -8.656297723064199e-08
vn -0.8660253882408142 -0.5000000596046448 1.9379770677119268e-08
vn -0.8660253882408142 0.5000000596046448 -1.8087787267973e-08
f 56/56/56 45/45/45 63/63/63
f 63/63/63 28/28/28 56/56/56
f 55/55/55 56/56/56 28/28/28
f 28/28/28 68/68/68 55/55/55
f 54/54/54 55/55/55 68/68/68
f 68/68/68 30/30/30 54/54/54
f 53/53/53 54/54/54 30/30/30
f 30/30/30 67/67/67 53/53/53
f 52/52/52 53/53/53 67/67/67
f 67/67/67 62/62/62 52/52/52
f 51/51/51 52/52/52 62/62/62
f 62/62/62 66/66/66 51/51/51
f 50/50/50 51/51/51 66/66/66
f 66/66/66 60/60/60 50/50/50
f 49/49/49 50/50/50 60/60/60
f 60/60/60 65/65/65 49/49/49
f 48/48/48 49/49/49 65/65/65
f 65/65/65 58/58/58 48/48/48
f 47/47/47 48/48/48 58/58/58
f 58/58/58 64/64/64 47/47/47
f 46/46/46 47/47/47 64/64/64
f 64/64/64 26/26/26 46/46/46
f 45/45/45 46/46/46 26/26/26
f 26/26/26 63/63/63 45/45/45
f 44/44/44 33/33/33 45/45/45
f 45/45/45 56/56/56 44/44/44
f 43/43/43 44/44/44 56/56/56
f 56/56/56 55/55/55 43/43/43
f 42/42/42 43/43/43 55/55/55
f 55/55/55 54/54/54 42/42/42
f 41/41/41 42/42/42 54/54/54
f 54/54/54 53/53/53 41/41/41
f 40/40/40 41/41/41 53/53/53
f 53/53/53 52/52/52 40/40/40
f 39/39/39 40/40/40 52/52/52
f 52/52/52 51/51/51 39/39/39
f 38/38/38 39/39/39 51/51/51
f 51/51/51 50/50/50 38/38/38
f 37/37/37 38/38/38 50/50/50
f 50/50/50 49/49/49 37/37/37
f 36/36/36 37/37/37 49/49/49
f 49/49/49 48/48/48 36/36/36
f 35/35/35 36/36/36 48/48/48
f 48/48/48 47/47/47 35/35/35
f 34/34/34 35/35/35 47/47/47
f 47/47/47 46/46/46 34/34/34
f 33/33/33 34/34/34 46/46/46
f 46/46/46 45/45/45 33/33/33
f 32/32/32 33/33/33 44/44/44
f 32/32/32 44/44/44 43/43/43
f 32/32/32 43/43/43 42/42/42
f 32/32/32 42/42/42 41/41/41
f 32/32/32 41/41/41 40/40/40
f 32/32/32 40/40/40 39/39/39
f 32/32/32 39/39/39 38/38/38
f 32/32/32 38/38/38 37/37/37
f 32/32/32 37/37/37 36/36/36
f 32/32/32 36/36/36 35/35/35
f 32/32/32 35/35/35 34/34/34
f 32/32/32 34/34/34 33/33/33
f 25/25/25 14/14/14 61/61/61
f 61/61/61 62/62/62 25/25/25
f 24/24/24 25/25/25 62/62/62
f 62/62/62 31/31/31 24/24/24
f 23/23/23 24/24/24 31/31/31
f 31/31/31 30/30/30 23/23/23
f 22/22/22 23/23/23 30/30/30
f 30/30/30 29/29/29 22/22/22
f 21/21/21 22/22/22 29/29/29
f 29/29/29 28/28/28 21/21/21
f 20/20/20 21/21/21 28/28/28
f 28/28/28 27/27/27 20/20/20
f 19/19/19 20/20/20 27/27/27
f 27/27/27 26/26/26 19/19/19
f 18/18/18 19/19/19 26/26/26
f 26/26/26 57/57/57 18/18/18
f 17/17/17 18/18/18 57/57/57
f 57/57/57 58/58/58 17/17/17
f 16/16/16 17/17/17 58/58/58
f 58/58/58 59/59/59 16/16/16
f 15/15/15 16/16/16 59/59/59
f 59/59/59 60/60/60 15/15/15
f 14/14/14 15/15/15 60/60/60
f 60/60/60 61/61/61 14/14/14
f 13/13/13 2/2/2 14/14/14
f 14/14/14 25/25/25 13/13/13
f 12/12/12 13/13/13 25/25/25
f 25/25/25 24/24/24 12/12/12
f 11/11/11 12/12/12 24/24/24
f 24/24/24 23/23/23 11/11/11
f 10/10/10 11/11/11 23/23/23
f 23/23/23 22/22/22 10/10/10
f 9/9/9 10/10/10 22/22/22
f 22/22/22 21/21/21 9/9/9
f 8/8/8 9/9/9 21/21/21
f 21/21/21 20/20/20 8/8/8
f 7/7/7 8/8/8 20/20/20
f 20/20/20 19/19/19 7/7/7
f 6/6/6 7/7/7 19/19/19
f 19/19/19 18/18/18 6/6/6
f 5/5/5 6/6/6 18/18/18
f 18/18/18 17/17/17 5/5/5
f 4/4/4 5/5/5 17/17/17
f 17/17/17 16/16/16 4/4/4
f 3/3/3 4/4/4 16/16/16
f 16/16/16 15/15/15 3/3/3
f 2/2/2 3/3/3 15/15/15
f 15/15/15 14/14/14 2/2/2
f 1/1/1 2/2/2 13/13/13
f 1/1/1 13/13/13 12/12/12
f 1/1/1 12/12/12 11/11/11
f 1/1/1 11/11/11 10/10/10
f 1/1/1 10/10/10 9/9/9
f 1/1/1 9/9/9 8/8/8
f 1/1/1 8/8/8 7/7/7
f 1/1/1 7/7/7 6/6/6
f 1/1/1 6/6/6 5/5/5
f 1/1/1 5/5/5 4/4/4
f 1/1/1 4/4/4 3/3/3
f 1/1/1 3/3/3 2/2/2
