# Recovered local-space geometry; original node transforms not applied
o mesh_0
v -7.4689514804049395e-06 -1.0696201258042493e-07 46.10944747924805
v -7.626982551300898e-06 29.035484313964844 37.13602828979492
v -14.5177583694458 25.145463943481445 37.13602828979492
v -25.145479202270508 14.517742156982422 37.13602828979492
v -29.03548812866211 4.093963525519939e-06 37.13602828979492
v -25.145479202270508 -14.517731666564941 37.13602828979492
v -14.5177583694458 -25.14545440673828 37.13602828979492
v -2.1672054572263733e-05 -29.035476684570312 37.13602828979492
v 14.517709732055664 -25.145471572875977 37.13602828979492
v 25.145448684692383 -14.517757415771484 37.13602828979492
v 29.03547477722168 -2.2911823180038482e-05 37.13602828979492
v 25.145462036132812 14.517716407775879 37.13602828979492
v 14.517752647399902 25.145448684692383 37.13602828979492
v -8.232960681198165e-06 39.839969635009766 20.245712280273438
v -19.920000076293945 34.50242233276367 20.245712280273438
v -34.502418518066406 19.91998291015625 20.245712280273438
v -39.839969635009766 4.989858098269906e-06 20.245712280273438
v -34.5024299621582 -19.919971466064453 20.245712280273438
v -19.92000961303711 -34.50241470336914 20.245712280273438
v -3.0418712412938476e-05 -39.8399658203125 20.245712280273438
v 19.919954299926758 -34.50242614746094 20.245712280273438
v 34.50239944458008 -19.92000961303711 20.245712280273438
v 39.839962005615234 -3.200502032996155e-05 20.245712280273438
v 34.50243377685547 19.919950485229492 20.245712280273438
v 19.920000076293945 34.502403259277344 20.245712280273438
v -20.912866592407227 -36.22211456298828 -3.683091108541703e-06
v -1.899343988043256e-05 -41.82570266723633 -4.106149845028995e-06
v 20.91284942626953 -36.22211837768555 -3.68308974429965e-06
v 36.22211456298828 -20.91284942626953 -2.527271135477349e-06
v 41.82569885253906 0.0 -9.483944722887827e-07
v 36.22211456298828 20.91284942626953 6.30481281405082e-07
v -7.4689514804049395e-06 7.069295406836318e-06 -46.10944747924805
v -7.626982551300898e-06 -29.035476684570312 -37.13603210449219
v -14.5177583694458 -25.145458221435547 -37.13603210449219
v -25.145479202270508 -14.517736434936523 -37.13603210449219
v -29.03548812866211 1.5134212389966706e-06 -37.13602828979492
v -25.145479202270508 14.517736434936523 -37.13602828979492
v -14.5177583694458 25.14546012878418 -37.13602828979492
v -2.1672054572263733e-05 29.035484313964844 -37.13602828979492
v 14.517709732055664 25.145477294921875 -37.13602828979492
v 25.145448684692383 14.517762184143066 -37.13602828979492
v 29.03547477722168 2.8519207262434065e-05 -37.13602828979492
v 25.145462036132812 -14.51771068572998 -37.13603210449219
v 14.517752647399902 -25.145442962646484 -37.13603210449219
v -8.232960681198165e-06 -39.839969635009766 -20.245718002319336
v -19.920000076293945 -34.502418518066406 -20.245716094970703
v -34.502418518066406 -19.919979095458984 -20.24571418762207
v -39.839969635009766 -1.9328404050611425e-06 -20.245712280273438
v -34.5024299621582 19.91997528076172 -20.245708465576172
v -19.92000961303711 34.50241470336914 -20.24570655822754
v -3.0418712412938476e-05 39.839969635009766 -20.245704650878906
v 19.919954299926758 34.5024299621582 -20.24570655822754
v 34.50239944458008 19.920013427734375 -20.245708465576172
v 39.839962005615234 3.506203938741237e-05 -20.245712280273438
v 34.50243377685547 -19.919946670532227 -20.24571418762207
v 19.920000076293945 -34.50239944458008 -20.245716094970703
v -36.222129821777344 -20.91284942626953 -2.5272734092141036e-06
v -41.82571029663086 0.0 -9.483974281465635e-07
v -36.222129821777344 20.91284942626953 6.304787802946521e-07
v -20.912866592407227 36.22211456298828 1.786296593309089e-06
v -1.899343988043256e-05 41.82570266723633 2.2093558982305694e-06
v 20.91284942626953 36.22211837768555 1.7862979575511417e-06
v -1.899343988043256e-05 -41.82570266723633 -4.106149845028995e-06
v -36.222129821777344 -20.91284942626953 -2.5272734092141036e-06
v -36.222129821777344 20.91284942626953 6.304787802946521e-07
v -1.899343988043256e-05 41.82570266723633 2.2093558982305694e-06
v 36.22211456298828 20.91284942626953 6.30481281405082e-07
v 36.22211456298828 -20.91284942626953 -2.527271135477349e-06
vt 0.3126199543476105 0.2522590160369873
vt 0.3388839364051819 0.2816212773323059
vt 0.3127385377883911 0.28160935640335083
vt 0.28659310936927795 0.2816212773323059
vt 0.3127385377883911 0.28160935640335083
vt 0.3388839364051819 0.2816212773323059
vt 0.3127385377883911 0.28160935640335083
vt 0.28659310936927795 0.2816212773323059
vt 0.3127385377883911 0.28160935640335083
vt 0.3388839364051819 0.2816212773323059
vt 0.3127385377883911 0.28160935640335083
vt 0.28659310936927795 0.2816212773323059
vt 0.3127385377883911 0.28160935640335083
vt 0.36119356751441956 0.32506608963012695
vt 0.3127385377883911 0.3249936103820801
vt 0.2642834186553955 0.32506608963012695
vt 0.3127385377883911 0.3249936103820801
vt 0.36119356751441956 0.32506608963012695
vt 0.3127385377883911 0.3249936103820801
vt 0.2642834186553955 0.32506608963012695
vt 0.3127385377883911 0.3249936103820801
vt 0.36119356751441956 0.32506608963012695
vt 0.3127385377883911 0.3249936103820801
vt 0.2642834186553955 0.32506608963012695
vt 0.3127385377883911 0.3249936103820801
vt 0.31273847818374634 0.3711031675338745
vt 0.25193893909454346 0.3711448311805725
vt 0.31273847818374634 0.3711031675338745
vt 0.3735380470752716 0.3711448311805725
vt 0.31273847818374634 0.3711031675338745
vt 0.25193893909454346 0.3711448311805725
vt 0.3126199543476105 0.2522590160369873
vt 0.3388839364051819 0.2816212773323059
vt 0.3127385377883911 0.28160935640335083
vt 0.28659310936927795 0.2816212773323059
vt 0.3127385377883911 0.28160935640335083
vt 0.3388839364051819 0.2816212773323059
vt 0.3127385377883911 0.28160935640335083
vt 0.28659310936927795 0.2816212773323059
vt 0.3127385377883911 0.28160935640335083
vt 0.3388839364051819 0.2816212773323059
vt 0.3127385377883911 0.28160935640335083
vt 0.28659310936927795 0.2816212773323059
vt 0.3127385377883911 0.28160935640335083
vt 0.36119356751441956 0.32506608963012695
vt 0.3127385377883911 0.3249936103820801
vt 0.2642834186553955 0.32506608963012695
vt 0.3127385377883911 0.3249936103820801
vt 0.36119356751441956 0.32506608963012695
vt 0.3127385377883911 0.3249936103820801
vt 0.2642834186553955 0.32506608963012695
vt 0.3127385377883911 0.3249936103820801
vt 0.36119356751441956 0.32506608963012695
vt 0.3127385377883911 0.3249936103820801
vt 0.2642834186553955 0.32506608963012695
vt 0.3127385377883911 0.3249936103820801
vt 0.3735380470752716 0.3711448311805725
vt 0.31273847818374634 0.3711031675338745
vt 0.25193893909454346 0.3711448311805725
vt 0.31273847818374634 0.3711031675338745
vt 0.3735380470752716 0.3711448311805725
vt 0.31273847818374634 0.3711031675338745
vt 0.3735380470752716 0.3711448311805725
vt 0.25193893909454346 0.3711448311805725
vt 0.3735380470752716 0.3711448311805725
vt 0.25193893909454346 0.3711448311805725
vt 0.3735380470752716 0.3711448311805725
vt 0.25193893909454346 0.3711448311805725
vn -1.0430195374055984e-08 -9.126421218752512e-08 1.0
vn -0.047487638890743256 0.6586510539054871 0.7509485483169556
vn -0.3704513609409332 0.5466646552085876 0.750948429107666
vn -0.5941526293754578 0.28819993138313293 0.7509483695030212
vn -0.6586511731147766 -0.04748782888054848 0.750948429107666
vn -0.546664834022522 -0.3704510033130646 0.7509484887123108
vn -0.2882000207901001 -0.5941522717475891 0.7509486079216003
vn 0.04748754948377609 -0.6586511135101318 0.7509484887123108
vn 0.3704507350921631 -0.5466650724411011 0.750948429107666
vn 0.5941522121429443 -0.2882004380226135 0.7509484887123108
vn 0.6586510539054871 0.047487467527389526 0.7509485483169556
vn 0.546664834022522 0.37045082449913025 0.7509485483169556
vn 0.2882004380226135 0.5941522717475891 0.7509486079216003
vn -0.006617819890379906 0.9445308446884155 0.3283560574054718
vn -0.4779970645904541 0.8146784901618958 0.3283561170101166
vn -0.8212968111038208 0.4665338695049286 0.3283561170101166
vn -0.9445309042930603 -0.006617985665798187 0.32835617661476135
vn -0.8146787881851196 -0.4779965877532959 0.3283560872077942
vn -0.4665343165397644 -0.8212965130805969 0.32835614681243896
vn 0.006617848761379719 -0.9445307850837708 0.3283562660217285
vn 0.4779965281486511 -0.8146787881851196 0.32835617661476135
vn 0.8212963938713074 -0.4665346145629883 0.3283560276031494
vn 0.9445308446884155 0.006617488339543343 0.3283560872077942
vn 0.8146788477897644 0.4779964089393616 0.32835623621940613
vn 0.46653446555137634 0.8212963938713074 0.32835620641708374
vn -0.5000002384185791 -0.8660252690315247 4.777900741714802e-08
vn -5.681829051695786e-08 -1.0 -7.360551279589345e-08
vn 0.5000001192092896 -0.8660253286361694 -7.877081031892885e-08
vn 0.8660253882408142 -0.5 9.0392724416688e-09
vn 1.0 -5.1652988553030355e-09 2.5826494276515177e-09
vn 0.8660253882408142 0.5000000596046448 0.0
vn -1.303774332939156e-08 1.6557933690819482e-07 -1.0
vn -0.04748768359422684 -0.6586509346961975 -0.7509487867355347
vn -0.3704513609409332 -0.5466646552085876 -0.750948429107666
vn -0.5941526889801025 -0.28819984197616577 -0.7509483695030212
vn -0.6586512327194214 0.04748794063925743 -0.7509484887123108
vn -0.546664834022522 0.37045109272003174 -0.750948429107666
vn -0.28820016980171204 0.5941524505615234 -0.750948429107666
vn 0.047487545758485794 0.6586512923240662 -0.7509484887123108
vn 0.37045085430145264 0.5466651320457458 -0.7509484887123108
vn 0.5941522717475891 0.2882004678249359 -0.750948429107666
vn 0.6586510539054871 -0.04748737812042236 -0.7509485483169556
vn 0.5466649532318115 -0.3704507350921631 -0.7509486675262451
vn 0.28820037841796875 -0.5941520929336548 -0.7509486079216003
vn -0.006617849692702293 -0.9445307850837708 -0.32835623621940613
vn -0.4779970645904541 -0.814678430557251 -0.3283562660217285
vn -0.8212968707084656 -0.46653392910957336 -0.32835617661476135
vn -0.9445309042930603 0.006618028040975332 -0.32835617661476135
vn -0.8146787881851196 0.4779966473579407 -0.328355997800827
vn -0.4665343761444092 0.8212965726852417 -0.32835593819618225
vn 0.006617764011025429 0.9445308446884155 -0.328355997800827
vn 0.4779965877532959 0.814678966999054 -0.3283560276031494
vn 0.8212963938713074 0.46653467416763306 -0.32835596799850464
vn 0.9445308446884155 -0.006617469247430563 -0.3283560574054718
vn 0.8146788477897644 -0.4779963493347168 -0.3283562660217285
vn 0.4665345549583435 -0.8212963342666626 -0.3283562660217285
vn -0.8660255074501038 -0.49999985098838806 -3.486576360955951e-08
vn -1.0 -5.1652988553030355e-09 -6.456623236061887e-09
vn -0.8660255670547485 0.4999999403953552 1.80785448833376e-08
vn -0.5000001788139343 0.8660253286361694 -8.264477457942121e-08
vn -1.1880187145152377e-07 1.0 1.020146456198745e-07
vn 0.5000000596046448 0.8660253882408142 8.006212937061719e-08
vn -5.681829051695786e-08 -1.0 -7.360551279589345e-08
vn -0.8660255074501038 -0.49999985098838806 -3.486576360955951e-08
vn -0.8660255670547485 0.4999999403953552 1.80785448833376e-08
vn -1.1880187145152377e-07 1.0 1.020146456198745e-07
vn 0.8660253882408142 0.5000000596046448 0.0
vn 0.8660253882408142 -0.5 9.0392724416688e-09
f 56/56/56 28/28/28 63/63/63
f 63/63/63 45/45/45 56/56/56
f 55/55/55 68/68/68 28/28/28
f 28/28/28 56/56/56 55/55/55
f 54/54/54 30/30/30 68/68/68
f 68/68/68 55/55/55 54/54/54
f 53/53/53 67/67/67 30/30/30
f 30/30/30 54/54/54 53/53/53
f 52/52/52 62/62/62 67/67/67
f 67/67/67 53/53/53 52/52/52
f 51/51/51 66/66/66 62/62/62
f 62/62/62 52/52/52 51/51/51
f 50/50/50 60/60/60 66/66/66
f 66/66/66 51/51/51 50/50/50
f 49/49/49 65/65/65 60/60/60
f 60/60/60 50/50/50 49/49/49
f 48/48/48 58/58/58 65/65/65
f 65/65/65 49/49/49 48/48/48
f 47/47/47 64/64/64 58/58/58
f 58/58/58 48/48/48 47/47/47
f 46/46/46 26/26/26 64/64/64
f 64/64/64 47/47/47 46/46/46
f 45/45/45 63/63/63 26/26/26
f 26/26/26 46/46/46 45/45/45
f 44/44/44 56/56/56 45/45/45
f 45/45/45 33/33/33 44/44/44
f 43/43/43 55/55/55 56/56/56
f 56/56/56 44/44/44 43/43/43
f 42/42/42 54/54/54 55/55/55
f 55/55/55 43/43/43 42/42/42
f 41/41/41 53/53/53 54/54/54
f 54/54/54 42/42/42 41/41/41
f 40/40/40 52/52/52 53/53/53
f 53/53/53 41/41/41 40/40/40
f 39/39/39 51/51/51 52/52/52
f 52/52/52 40/40/40 39/39/39
f 38/38/38 50/50/50 51/51/51
f 51/51/51 39/39/39 38/38/38
f 37/37/37 49/49/49 50/50/50
f 50/50/50 38/38/38 37/37/37
f 36/36/36 48/48/48 49/49/49
f 49/49/49 37/37/37 36/36/36
f 35/35/35 47/47/47 48/48/48
f 48/48/48 36/36/36 35/35/35
f 34/34/34 46/46/46 47/47/47
f 47/47/47 35/35/35 34/34/34
f 33/33/33 45/45/45 46/46/46
f 46/46/46 34/34/34 33/33/33
f 32/32/32 44/44/44 33/33/33
f 32/32/32 43/43/43 44/44/44
f 32/32/32 42/42/42 43/43/43
f 32/32/32 41/41/41 42/42/42
f 32/32/32 40/40/40 41/41/41
f 32/32/32 39/39/39 40/40/40
f 32/32/32 38/38/38 39/39/39
f 32/32/32 37/37/37 38/38/38
f 32/32/32 36/36/36 37/37/37
f 32/32/32 35/35/35 36/36/36
f 32/32/32 34/34/34 35/35/35
f 32/32/32 33/33/33 34/34/34
f 25/25/25 62/62/62 61/61/61
f 61/61/61 14/14/14 25/25/25
f 24/24/24 31/31/31 62/62/62
f 62/62/62 25/25/25 24/24/24
f 23/23/23 30/30/30 31/31/31
f 31/31/31 24/24/24 23/23/23
f 22/22/22 29/29/29 30/30/30
f 30/30/30 23/23/23 22/22/22
f 21/21/21 28/28/28 29/29/29
f 29/29/29 22/22/22 21/21/21
f 20/20/20 27/27/27 28/28/28
f 28/28/28 21/21/21 20/20/20
f 19/19/19 26/26/26 27/27/27
f 27/27/27 20/20/20 19/19/19
f 18/18/18 57/57/57 26/26/26
f 26/26/26 19/19/19 18/18/18
f 17/17/17 58/58/58 57/57/57
f 57/57/57 18/18/18 17/17/17
f 16/16/16 59/59/59 58/58/58
f 58/58/58 17/17/17 16/16/16
f 15/15/15 60/60/60 59/59/59
f 59/59/59 16/16/16 15/15/15
f 14/14/14 61/61/61 60/60/60
f 60/60/60 15/15/15 14/14/14
f 13/13/13 25/25/25 14/14/14
f 14/14/14 2/2/2 13/13/13
f 12/12/12 24/24/24 25/25/25
f 25/25/25 13/13/13 12/12/12
f 11/11/11 23/23/23 24/24/24
f 24/24/24 12/12/12 11/11/11
f 10/10/10 22/22/22 23/23/23
f 23/23/23 11/11/11 10/10/10
f 9/9/9 21/21/21 22/22/22
f 22/22/22 10/10/10 9/9/9
f 8/8/8 20/20/20 21/21/21
f 21/21/21 9/9/9 8/8/8
f 7/7/7 19/19/19 20/20/20
f 20/20/20 8/8/8 7/7/7
f 6/6/6 18/18/18 19/19/19
f 19/19/19 7/7/7 6/6/6
f 5/5/5 17/17/17 18/18/18
f 18/18/18 6/6/6 5/5/5
f 4/4/4 16/16/16 17/17/17
f 17/17/17 5/5/5 4/4/4
f 3/3/3 15/15/15 16/16/16
f 16/16/16 4/4/4 3/3/3
f 2/2/2 14/14/14 15/15/15
f 15/15/15 3/3/3 2/2/2
f 1/1/1 13/13/13 2/2/2
f 1/1/1 12/12/12 13/13/13
f 1/1/1 11/11/11 12/12/12
f 1/1/1 10/10/10 11/11/11
f 1/1/1 9/9/9 10/10/10
f 1/1/1 8/8/8 9/9/9
f 1/1/1 7/7/7 8/8/8
f 1/1/1 6/6/6 7/7/7
f 1/1/1 5/5/5 6/6/6
f 1/1/1 4/4/4 5/5/5
f 1/1/1 3/3/3 4/4/4
f 1/1/1 2/2/2 3/3/3
