# Recovered local-space geometry; original node transforms not applied
o mesh_0
v -7.4689514804049395e-06 7.069295406836318e-06 -46.10944747924805
v -7.626982551300898e-06 -29.035476684570312 -37.13603210449219
v -14.5177583694458 -25.145458221435547 -37.13603210449219
v -25.145479202270508 -14.517736434936523 -37.13603210449219
v -29.03548812866211 1.5134212389966706e-06 -37.13602828979492
v -25.145479202270508 14.517736434936523 -37.13602828979492
v -14.5177583694458 25.14546012878418 -37.13602828979492
v -2.1672054572263733e-05 29.035484313964844 -37.13602828979492
v 14.517709732055664 25.145477294921875 -37.13602828979492
v 25.145448684692383 14.517762184143066 -37.13602828979492
v 29.03547477722168 2.8519207262434065e-05 -37.13602828979492
v 25.145462036132812 -14.51771068572998 -37.13603210449219
v 14.517752647399902 -25.145442962646484 -37.13603210449219
v -8.232960681198165e-06 -39.839969635009766 -20.245718002319336
v -19.920000076293945 -34.502418518066406 -20.245716094970703
v -34.502418518066406 -19.919979095458984 -20.24571418762207
v -39.839969635009766 -1.9328404050611425e-06 -20.245712280273438
v -34.5024299621582 19.91997528076172 -20.245708465576172
v -19.92000961303711 34.50241470336914 -20.24570655822754
v -3.0418712412938476e-05 39.839969635009766 -20.245704650878906
v 19.919954299926758 34.5024299621582 -20.24570655822754
v 34.50239944458008 19.920013427734375 -20.245708465576172
v 39.839962005615234 3.506203938741237e-05 -20.245712280273438
v 34.50243377685547 -19.919946670532227 -20.24571418762207
v 19.920000076293945 -34.50239944458008 -20.245716094970703
v -8.356611033377703e-06 -41.82570266723633 -7.263902716658777e-06
v -20.912860870361328 -36.22211837768555 -6.417785243684193e-06
v -36.22212600708008 -20.912851333618164 -4.106149845028995e-06
v -41.82571029663086 -4.466038717509946e-06 -9.483977692070766e-07
v -36.22213363647461 20.912845611572266 2.2093545339885168e-06
v -20.912872314453125 36.22211456298828 4.520990387391066e-06
v -2.9630267817992717e-05 41.82570266723633 5.3671087698603515e-06
v 20.912822723388672 36.22213363647461 4.5209931158751715e-06
v 36.22209930419922 20.912878036499023 2.2093595362093765e-06
v 41.82569885253906 3.442453089519404e-05 -9.48391914334934e-07
v 36.22213363647461 -20.912818908691406 -4.106144842808135e-06
v 20.91287612915039 -36.222103118896484 -6.417782060452737e-06
v -8.356611033377703e-06 9.598569704394322e-06 -9.483956660005788e-07
v -20.912860870361328 -36.22211837768555 -6.417785243684193e-06
v -8.356611033377703e-06 -41.82570266723633 -7.263902716658777e-06
v -36.22212600708008 -20.912851333618164 -4.106149845028995e-06
v -41.82571029663086 -4.466038717509946e-06 -9.483977692070766e-07
v -36.22213363647461 20.912845611572266 2.2093545339885168e-06
v -20.912872314453125 36.22211456298828 4.520990387391066e-06
v -2.9630267817992717e-05 41.82570266723633 5.3671087698603515e-06
v 20.912822723388672 36.22213363647461 4.5209931158751715e-06
v 36.22209930419922 20.912878036499023 2.2093595362093765e-06
v 41.82569885253906 3.442453089519404e-05 -9.48391914334934e-07
v 36.22213363647461 -20.912818908691406 -4.106144842808135e-06
v 20.91287612915039 -36.222103118896484 -6.417782060452737e-06
vt 0.3126199543476105 0.2522590160369873
vt 0.3388839364051819 0.2816212773323059
vt 0.3127385377883911 0.28160935640335083
vt 0.28659310936927795 0.2816212773323059
vt 0.3127385377883911 0.28160935640335083
vt 0.3388839364051819 0.2816212773323059
vt 0.3127385377883911 0.28160935640335083
vt 0.28659310936927795 0.2816212773323059
vt 0.3127385377883911 0.28160935640335083
vt 0.3388839364051819 0.2816212773323059
vt 0.3127385377883911 0.28160935640335083
vt 0.28659310936927795 0.2816212773323059
vt 0.3127385377883911 0.28160935640335083
vt 0.36119356751441956 0.32506608963012695
vt 0.3127385377883911 0.3249936103820801
vt 0.2642834186553955 0.32506608963012695
vt 0.3127385377883911 0.3249936103820801
vt 0.36119356751441956 0.32506608963012695
vt 0.3127385377883911 0.3249936103820801
vt 0.2642834186553955 0.32506608963012695
vt 0.3127385377883911 0.3249936103820801
vt 0.36119356751441956 0.32506608963012695
vt 0.3127385377883911 0.3249936103820801
vt 0.2642834186553955 0.32506608963012695
vt 0.3127385377883911 0.3249936103820801
vt 0.3735380470752716 0.3711448311805725
vt 0.31273847818374634 0.3711031675338745
vt 0.25193893909454346 0.3711448311805725
vt 0.31273847818374634 0.3711031675338745
vt 0.3735380470752716 0.3711448311805725
vt 0.31273847818374634 0.3711031675338745
vt 0.25193893909454346 0.3711448311805725
vt 0.31273847818374634 0.3711031675338745
vt 0.3735380470752716 0.3711448311805725
vt 0.31273847818374634 0.3711031675338745
vt 0.25193893909454346 0.3711448311805725
vt 0.31273847818374634 0.3711031675338745
vt 0.4372597932815552 0.3789462447166443
vt 0.4372597336769104 0.4969978332519531
vt 0.495543509721756 0.4869452118873596
vt 0.37986117601394653 0.4872402548789978
vt 0.4372597336769104 0.4969978332519531
vt 0.495543509721756 0.4869452118873596
vt 0.4372597336769104 0.4969978332519531
vt 0.37986117601394653 0.4872402548789978
vt 0.4372597336769104 0.4969978332519531
vt 0.495543509721756 0.4869452118873596
vt 0.4372597336769104 0.4969978332519531
vt 0.37986117601394653 0.4872402548789978
vt 0.4372597336769104 0.4969978332519531
vn -1.303774332939156e-08 1.6557933690819482e-07 -1.0
vn -0.04748768359422684 -0.6586509346961975 -0.7509487867355347
vn -0.3704513609409332 -0.5466646552085876 -0.750948429107666
vn -0.5941526889801025 -0.28819984197616577 -0.7509483695030212
vn -0.6586512327194214 0.04748794063925743 -0.7509484887123108
vn -0.546664834022522 0.37045109272003174 -0.750948429107666
vn -0.28820016980171204 0.5941524505615234 -0.750948429107666
vn 0.047487545758485794 0.6586512923240662 -0.7509484887123108
vn 0.37045085430145264 0.5466651320457458 -0.7509484887123108
vn 0.5941522717475891 0.2882004678249359 -0.750948429107666
vn 0.6586510539054871 -0.04748737812042236 -0.7509485483169556
vn 0.5466649532318115 -0.3704507350921631 -0.7509486675262451
vn 0.28820037841796875 -0.5941520929336548 -0.7509486079216003
vn -0.006617807317525148 -0.9445307850837708 -0.32835623621940613
vn -0.4779970645904541 -0.814678430557251 -0.3283562660217285
vn -0.821296751499176 -0.46653392910957336 -0.3283560872077942
vn -0.9445309042930603 0.006618006620556116 -0.32835617661476135
vn -0.8146787881851196 0.4779966473579407 -0.3283560574054718
vn -0.4665343165397644 0.8212965726852417 -0.328355997800827
vn 0.006617669481784105 0.9445308446884155 -0.3283560872077942
vn 0.47799643874168396 0.8146790266036987 -0.3283560872077942
vn 0.8212962746620178 0.4665347933769226 -0.3283560574054718
vn 0.9445309042930603 -0.006617323029786348 -0.32835617661476135
vn 0.8146790266036987 -0.47799625992774963 -0.3283563554286957
vn 0.46653467416763306 -0.8212963938713074 -0.3283562958240509
vn 0.08854116499423981 -0.9913157820701599 -0.09723009169101715
vn -0.4189794063568115 -0.9027749300003052 -0.09722992777824402
vn -0.8142343163490295 -0.5723361968994141 -0.09723033010959625
vn -0.9913156628608704 -0.08854100108146667 -0.09723035991191864
vn -0.90277498960495 0.4189791977405548 -0.09723030775785446
vn -0.5723366737365723 0.8142340183258057 -0.09723010659217834
vn -0.08854126930236816 0.9913157820701599 -0.0972299724817276
vn 0.41897889971733093 0.9027751684188843 -0.09723018109798431
vn 0.8142337799072266 0.5723370313644409 -0.09723010659217834
vn 0.9913156628608704 0.08854161947965622 -0.09723008424043655
vn 0.9027752876281738 -0.41897857189178467 -0.09723018854856491
vn 0.5723369717597961 -0.8142338991165161 -0.09723043441772461
vn -8.318280282247278e-15 -1.5099580252808664e-07 1.0
vn -8.318280282247278e-15 -1.5099580252808664e-07 1.0
vn -8.318280282247278e-15 -1.5099580252808664e-07 1.0
vn 1.663656564669224e-14 -1.5099581673894136e-07 1.0
vn 0.0 -1.5099581673894136e-07 1.0
vn -3.966466746511015e-21 -1.5099580252808664e-07 1.0
vn -8.31828621147791e-15 -1.5099583094979607e-07 1.0
vn -4.159143529255428e-15 -1.5099580252808664e-07 1.0
vn 8.318285364444962e-15 -1.5099583094979607e-07 1.0
vn -8.31828621147791e-15 -1.5099581673894136e-07 1.0
vn -8.318283670379067e-15 -1.5099580252808664e-07 1.0
vn 0.0 -1.5099580252808664e-07 1.0
vn 8.318281129280226e-15 -1.5099578831723193e-07 1.0
f 40/40/40 50/50/50 38/38/38
f 50/50/50 49/49/49 38/38/38
f 49/49/49 48/48/48 38/38/38
f 48/48/48 47/47/47 38/38/38
f 47/47/47 46/46/46 38/38/38
f 46/46/46 45/45/45 38/38/38
f 45/45/45 44/44/44 38/38/38
f 44/44/44 43/43/43 38/38/38
f 43/43/43 42/42/42 38/38/38
f 42/42/42 41/41/41 38/38/38
f 41/41/41 39/39/39 38/38/38
f 39/39/39 40/40/40 38/38/38
f 25/25/25 37/37/37 26/26/26
f 26/26/26 14/14/14 25/25/25
f 24/24/24 36/36/36 37/37/37
f 37/37/37 25/25/25 24/24/24
f 23/23/23 35/35/35 36/36/36
f 36/36/36 24/24/24 23/23/23
f 22/22/22 34/34/34 35/35/35
f 35/35/35 23/23/23 22/22/22
f 21/21/21 33/33/33 34/34/34
f 34/34/34 22/22/22 21/21/21
f 20/20/20 32/32/32 33/33/33
f 33/33/33 21/21/21 20/20/20
f 19/19/19 31/31/31 32/32/32
f 32/32/32 20/20/20 19/19/19
f 18/18/18 30/30/30 31/31/31
f 31/31/31 19/19/19 18/18/18
f 17/17/17 29/29/29 30/30/30
f 30/30/30 18/18/18 17/17/17
f 16/16/16 28/28/28 29/29/29
f 29/29/29 17/17/17 16/16/16
f 15/15/15 27/27/27 28/28/28
f 28/28/28 16/16/16 15/15/15
f 14/14/14 26/26/26 27/27/27
f 27/27/27 15/15/15 14/14/14
f 13/13/13 25/25/25 14/14/14
f 14/14/14 2/2/2 13/13/13
f 12/12/12 24/24/24 25/25/25
f 25/25/25 13/13/13 12/12/12
f 11/11/11 23/23/23 24/24/24
f 24/24/24 12/12/12 11/11/11
f 10/10/10 22/22/22 23/23/23
f 23/23/23 11/11/11 10/10/10
f 9/9/9 21/21/21 22/22/22
f 22/22/22 10/10/10 9/9/9
f 8/8/8 20/20/20 21/21/21
f 21/21/21 9/9/9 8/8/8
f 7/7/7 19/19/19 20/20/20
f 20/20/20 8/8/8 7/7/7
f 6/6/6 18/18/18 19/19/19
f 19/19/19 7/7/7 6/6/6
f 5/5/5 17/17/17 18/18/18
f 18/18/18 6/6/6 5/5/5
f 4/4/4 16/16/16 17/17/17
f 17/17/17 5/5/5 4/4/4
f 3/3/3 15/15/15 16/16/16
f 16/16/16 4/4/4 3/3/3
f 2/2/2 14/14/14 15/15/15
f 15/15/15 3/3/3 2/2/2
f 1/1/1 13/13/13 2/2/2
f 1/1/1 12/12/12 13/13/13
f 1/1/1 11/11/11 12/12/12
f 1/1/1 10/10/10 11/11/11
f 1/1/1 9/9/9 10/10/10
f 1/1/1 8/8/8 9/9/9
f 1/1/1 7/7/7 8/8/8
f 1/1/1 6/6/6 7/7/7
f 1/1/1 5/5/5 6/6/6
f 1/1/1 4/4/4 5/5/5
f 1/1/1 3/3/3 4/4/4
f 1/1/1 2/2/2 3/3/3
