# Recovered local-space geometry; original node transforms not applied
o mesh_0
v -1.0502742952667177e-05 -2.594436523395416e-07 64.04698944091797
v -4.782017640536651e-06 27.770620346069336 44.88169860839844
v -13.8853178024292 24.050064086914062 44.88169860839844
v -24.050065994262695 13.885320663452148 44.88169860839844
v -27.770626068115234 1.633012834645342e-05 44.88169860839844
v -24.05008316040039 -13.885284423828125 44.88169860839844
v -13.885334014892578 -24.05005645751953 44.88169860839844
v -2.6712428734754212e-05 -27.7706241607666 44.88169860839844
v 13.885279655456543 -24.050071716308594 44.88169860839844
v 24.0500431060791 -13.885324478149414 44.88169860839844
v 27.770605087280273 -2.084505649690982e-05 44.88169860839844
v 24.050065994262695 13.885284423828125 44.88169860839844
v 13.885324478149414 24.050045013427734 44.88169860839844
v -3.0829608022031607e-06 40.4491081237793 26.400556564331055
v -20.22456169128418 35.02996826171875 26.400554656982422
v -35.029964447021484 20.224571228027344 26.400554656982422
v -40.449119567871094 1.5350808098446578e-05 26.400554656982422
v -35.02998352050781 -20.224533081054688 26.400554656982422
v -20.22458267211914 -35.029964447021484 26.400554656982422
v -3.4217100619571283e-05 -40.44911193847656 26.400554656982422
v 20.22452163696289 -35.02998352050781 26.400554656982422
v 35.029937744140625 -20.22458267211914 26.400556564331055
v 40.44910430908203 -3.233462120988406e-05 26.400556564331055
v 35.02996826171875 20.224525451660156 26.400554656982422
v 20.224586486816406 35.02994155883789 26.400556564331055
v -2.09151471608493e-06 44.59633255004883 -5.478585762830335e-07
v -22.298166275024414 38.621559143066406 -8.076135600276757e-07
v -38.621559143066406 22.29818344116211 -7.77054253831011e-07
v -44.59633255004883 1.6307065379805863e-05 -1.0062499313789885e-06
v -38.6215705871582 -22.298139572143555 -7.923338216642151e-07
v -22.298192977905273 -38.621551513671875 -3.339424949899694e-07
v -3.9243492210516706e-05 -44.5963249206543 -9.756904546520673e-07
v 22.29812240600586 -38.62156677246094 -7.159352435337496e-07
v 38.62153244018555 -22.29820442199707 -2.5754391685950395e-07
v 44.59632873535156 -4.172321132500656e-05 -3.033831603715953e-07
v 38.6215705871582 22.29812240600586 -7.923340490378905e-07
v 22.29820442199707 38.62153244018555 -3.033829045762104e-07
v -7.90574722486781e-06 10.284063339233398 59.39661407470703
v -5.142040252685547 8.906261444091797 59.39661407470703
v -8.906270980834961 5.142035484313965 59.39661407470703
v -10.284073829650879 5.164741196495015e-06 59.39661407470703
v -8.90627670288086 -5.142023086547852 59.39661407470703
v -5.1420488357543945 -8.906259536743164 59.39661407470703
v -1.6499099729117006e-05 -10.284067153930664 59.39661407470703
v 5.142016410827637 -8.906265258789062 59.39661407470703
v 8.90624713897705 -5.142037391662598 59.39661407470703
v 10.284052848815918 -8.244198397733271e-06 59.39661407470703
v 8.906255722045898 5.142023086547852 59.39661407470703
v 5.142029762268066 8.906255722045898 59.39661407470703
v -7.470741365978029e-06 14.230989456176758 53.23815155029297
v -7.115503311157227 12.324398040771484 53.23815155029297
v -12.324406623840332 7.115499496459961 53.2381477355957
v -14.230998992919922 7.763368557789363e-06 53.2381477355957
v -12.324414253234863 -7.115482807159424 53.2381477355957
v -7.115512371063232 -12.324394226074219 53.23815155029297
v -1.903238626255188e-05 -14.230989456176758 53.2381477355957
v 7.115473747253418 -12.324402809143066 53.2381477355957
v 12.324381828308105 -7.115501880645752 53.23815155029297
v 14.230975151062012 -1.061328384821536e-05 53.23815155029297
v 12.324393272399902 7.115480899810791 53.2381477355957
v 7.115496635437012 12.324390411376953 53.23815155029297
v -1.0627220945025329e-05 -1.527474751128466e-07 -64.04698944091797
v -2.1631472009175923e-06 27.770620346069336 -44.88169860839844
v -13.88531494140625 24.050064086914062 -44.88169860839844
v -24.050064086914062 13.885322570800781 -44.88169860839844
v -27.770626068115234 1.9252154743298888e-05 -44.88169860839844
v -24.050085067749023 -13.885282516479492 -44.88169860839844
v -13.885335922241211 -24.050052642822266 -44.88169860839844
v -3.031656342500355e-05 -27.7706241607666 -44.88169860839844
v 13.88527774810791 -24.05007553100586 -44.88169860839844
v 24.0500431060791 -13.88532543182373 -44.88169860839844
v 27.770605087280273 -2.316076643182896e-05 -44.88169860839844
v 24.050067901611328 13.885281562805176 -44.88169860839844
v 13.88532543182373 24.05004119873047 -44.88169860839844
v 3.3693800105538685e-07 40.4491081237793 -26.40056037902832
v -20.224557876586914 35.02996826171875 -26.400558471679688
v -35.029964447021484 20.224576950073242 -26.40056037902832
v -40.44911575317383 1.8303779143025167e-05 -26.400558471679688
v -35.02998352050781 -20.224529266357422 -26.400558471679688
v -20.22458839416504 -35.029964447021484 -26.400558471679688
v -3.7263456761138514e-05 -40.44911193847656 -26.400558471679688
v 20.224517822265625 -35.02998352050781 -26.400558471679688
v 35.029937744140625 -20.224586486816406 -26.40056037902832
v 40.44910430908203 -3.594128793338314e-05 -26.40056037902832
v 35.02996826171875 20.22452163696289 -26.40056037902832
v 20.224590301513672 35.02994155883789 -26.40056037902832
v -6.34565731161274e-06 10.284063339233398 -59.39661407470703
v -5.142040252685547 8.906261444091797 -59.39661407470703
v -8.906270027160645 5.142036437988281 -59.39661407470703
v -10.284073829650879 6.384252174029825e-06 -59.39661407470703
v -8.906277656555176 -5.142022132873535 -59.39661407470703
v -5.142049789428711 -8.906258583068848 -59.39661407470703
v -1.7470913007855415e-05 -10.284066200256348 -59.39661407470703
v 5.142014980316162 -8.906265258789062 -59.39661407470703
v 8.90624713897705 -5.142038822174072 -59.39661407470703
v 10.284052848815918 -8.72062173584709e-06 -59.39661407470703
v 8.906255722045898 5.142022132873535 -59.39661407470703
v 5.142031192779541 8.906253814697266 -59.39661407470703
v -5.744708687416278e-06 14.230989456176758 -53.23815155029297
v -7.115502834320068 12.324398040771484 -53.23815155029297
v -12.3244047164917 7.115500450134277 -53.23815155029297
v -14.230998992919922 9.778471394383814e-06 -53.2381477355957
v -12.324414253234863 -7.115482330322266 -53.2381477355957
v -7.115513324737549 -12.324392318725586 -53.23815155029297
v -2.0613884771591984e-05 -14.230989456176758 -53.2381477355957
v 7.115473747253418 -12.324403762817383 -53.2381477355957
v 12.324380874633789 -7.115502834320068 -53.2381477355957
v 14.230976104736328 -1.216587406815961e-05 -53.2381477355957
v 12.324394226074219 7.115480422973633 -53.2381477355957
v 7.115497589111328 12.324389457702637 -53.2381477355957
vt 0.4582085609436035 0.5919464826583862
vt 0.4588797688484192 0.5926656723022461
vt 0.45821088552474976 0.5926659107208252
vt 0.4575420022010803 0.5926656723022461
vt 0.45821088552474976 0.5926659107208252
vt 0.4588797688484192 0.5926656723022461
vt 0.45821088552474976 0.5926659107208252
vt 0.4575420022010803 0.5926656723022461
vt 0.45821088552474976 0.5926659107208252
vt 0.4588797688484192 0.5926656723022461
vt 0.45821088552474976 0.5926659107208252
vt 0.4575420022010803 0.5926656723022461
vt 0.45821088552474976 0.5926659107208252
vt 0.4592133164405823 0.5933794975280762
vt 0.458210825920105 0.5933781862258911
vt 0.4572082757949829 0.5933794975280762
vt 0.458210825920105 0.5933781862258911
vt 0.4592133164405823 0.5933794975280762
vt 0.458210825920105 0.5933781862258911
vt 0.4572082757949829 0.5933794975280762
vt 0.458210825920105 0.5933781862258911
vt 0.4592133164405823 0.5933794975280762
vt 0.458210825920105 0.5933781862258911
vt 0.4572082757949829 0.5933794975280762
vt 0.458210825920105 0.5933781862258911
vt 0.45936113595962524 0.5941915512084961
vt 0.458210825920105 0.5941907167434692
vt 0.45706045627593994 0.5941915512084961
vt 0.458210825920105 0.5941907167434692
vt 0.45936113595962524 0.5941915512084961
vt 0.458210825920105 0.5941907167434692
vt 0.45706045627593994 0.5941915512084961
vt 0.458210825920105 0.5941907167434692
vt 0.45936113595962524 0.5941915512084961
vt 0.458210825920105 0.5941907167434692
vt 0.45706045627593994 0.5941915512084961
vt 0.458210825920105 0.5941907167434692
vt 0.45851898193359375 0.5922606587409973
vt 0.4582096338272095 0.5922607779502869
vt 0.4579002857208252 0.5922606587409973
vt 0.4582096338272095 0.5922607779502869
vt 0.45851898193359375 0.5922606587409973
vt 0.4582096338272095 0.5922607779502869
vt 0.4579002857208252 0.5922606587409973
vt 0.4582096338272095 0.5922607779502869
vt 0.45851898193359375 0.5922606587409973
vt 0.4582096338272095 0.5922607779502869
vt 0.4579002857208252 0.5922606587409973
vt 0.4582096338272095 0.5922607779502869
vt 0.4585692882537842 0.5923171043395996
vt 0.4582098126411438 0.5923172831535339
vt 0.45785027742385864 0.5923171043395996
vt 0.4582098126411438 0.5923172831535339
vt 0.4585692882537842 0.5923171043395996
vt 0.4582098126411438 0.5923172831535339
vt 0.45785027742385864 0.5923171043395996
vt 0.4582098126411438 0.5923172831535339
vt 0.4585692882537842 0.5923171043395996
vt 0.4582098126411438 0.5923172831535339
vt 0.45785027742385864 0.5923171043395996
vt 0.4582098126411438 0.5923172831535339
vt 0.4582085609436035 0.5919464826583862
vt 0.4588797688484192 0.5926656723022461
vt 0.45821088552474976 0.5926659107208252
vt 0.4575420022010803 0.5926656723022461
vt 0.45821088552474976 0.5926659107208252
vt 0.4588797688484192 0.5926656723022461
vt 0.45821088552474976 0.5926659107208252
vt 0.4575420022010803 0.5926656723022461
vt 0.45821088552474976 0.5926659107208252
vt 0.4588797688484192 0.5926656723022461
vt 0.45821088552474976 0.5926659107208252
vt 0.4575420022010803 0.5926656723022461
vt 0.45821088552474976 0.5926659107208252
vt 0.4592133164405823 0.5933794975280762
vt 0.458210825920105 0.5933781862258911
vt 0.4572082757949829 0.5933794975280762
vt 0.458210825920105 0.5933781862258911
vt 0.4592133164405823 0.5933794975280762
vt 0.458210825920105 0.5933781862258911
vt 0.4572082757949829 0.5933794975280762
vt 0.458210825920105 0.5933781862258911
vt 0.4592133164405823 0.5933794975280762
vt 0.458210825920105 0.5933781862258911
vt 0.4572082757949829 0.5933794975280762
vt 0.458210825920105 0.5933781862258911
vt 0.45851898193359375 0.5922606587409973
vt 0.4582096338272095 0.5922607779502869
vt 0.4579002857208252 0.5922606587409973
vt 0.4582096338272095 0.5922607779502869
vt 0.45851898193359375 0.5922606587409973
vt 0.4582096338272095 0.5922607779502869
vt 0.4579002857208252 0.5922606587409973
vt 0.4582096338272095 0.5922607779502869
vt 0.45851898193359375 0.5922606587409973
vt 0.4582096338272095 0.5922607779502869
vt 0.4579002857208252 0.5922606587409973
vt 0.4582096338272095 0.5922607779502869
vt 0.4585692882537842 0.5923171043395996
vt 0.4582098126411438 0.5923172831535339
vt 0.45785027742385864 0.5923171043395996
vt 0.4582098126411438 0.5923172831535339
vt 0.4585692882537842 0.5923171043395996
vt 0.4582098126411438 0.5923172831535339
vt 0.45785027742385864 0.5923171043395996
vt 0.4582098126411438 0.5923172831535339
vt 0.4585692882537842 0.5923171043395996
vt 0.4582098126411438 0.5923172831535339
vt 0.45785027742385864 0.5923171043395996
vt 0.4582098126411438 0.5923172831535339
vn 5.484397824773168e-09 2.742198912386584e-09 -1.0
vn 0.04483012855052948 -0.7180648446083069 -0.6945309638977051
vn 0.35580113530158997 -0.5898002982139587 -0.7249422073364258
vn 0.6030328869819641 -0.3328814208507538 -0.7249422669410706
vn 0.6886826753616333 0.013232419267296791 -0.7249422073364258
vn 0.5898005366325378 0.35580068826675415 -0.7249422073364258
vn 0.3328818082809448 0.6030327081680298 -0.7249422669410706
vn -0.013232427649199963 0.6886825561523438 -0.7249423265457153
vn -0.3558008670806885 0.5898002982139587 -0.7249423265457153
vn -0.6030327677726746 0.33288174867630005 -0.7249422073364258
vn -0.6886826157569885 -0.013232294470071793 -0.7249422073364258
vn -0.5898005366325378 -0.3558006286621094 -0.7249423265457153
vn -0.3054295480251312 -0.5929609537124634 -0.7450571060180664
vn 0.007059583440423012 -0.9287583827972412 -0.37061870098114014
vn 0.4704929292201996 -0.8007984757423401 -0.37061870098114014
vn 0.8078581690788269 -0.45826512575149536 -0.3706187307834625
vn 0.9287583231925964 0.007059610914438963 -0.3706185817718506
vn 0.8007987141609192 0.4704926013946533 -0.370618611574173
vn 0.4582653343677521 0.8078580498695374 -0.3706187605857849
vn -0.007059479597955942 0.9287583827972412 -0.3706185221672058
vn -0.47049254179000854 0.8007987141609192 -0.37061864137649536
vn -0.807857871055603 0.4582655131816864 -0.37061890959739685
vn -0.9287583231925964 -0.007059344556182623 -0.37061887979507446
vn -0.8007988929748535 -0.470492422580719 -0.3706187307834625
vn -0.4582655727863312 -0.807857871055603 -0.3706188201904297
vn -0.08896254003047943 -0.9960349798202515 -1.8131785850528104e-08
vn 0.42097359895706177 -0.9070730209350586 1.8131787626884943e-08
vn 0.8181103467941284 -0.5750613212585449 -3.108306145804818e-08
vn 0.9960349798202515 -0.0889623686671257 2.8492804560187324e-08
vn 0.9070730805397034 0.4209732413291931 4.144407839135056e-08
vn 0.5750617384910583 0.8181100487709045 -2.072204097203212e-08
vn 0.08896242827177048 0.9960349798202515 -1.036101959783764e-08
vn -0.42097291350364685 0.9070731997489929 2.590254766232647e-08
vn -0.8181099891662598 0.5750619769096375 -1.5541532505380928e-08
vn -0.9960349202156067 0.08896301686763763 -2.3312296093536133e-08
vn -0.9070731401443481 -0.4209730923175812 7.770764476333625e-09
vn -0.5750619769096375 -0.8181098699569702 -2.3312297869892973e-08
vn 0.04657891020178795 -0.6948733925819397 -0.7176220417022705
vn 0.387775182723999 -0.5784886479377747 -0.7176219820976257
vn 0.6250675320625305 -0.30709823966026306 -0.717621922492981
vn 0.694873571395874 0.04657876491546631 -0.717621922492981
vn 0.5784890055656433 0.38777485489845276 -0.7176218628883362
vn 0.30709850788116455 0.625067412853241 -0.717621922492981
vn -0.04657875373959541 0.694873571395874 -0.7176218628883362
vn -0.3877752125263214 0.578488826751709 -0.717621922492981
vn -0.6250674724578857 0.30709829926490784 -0.7176219820976257
vn -0.694873571395874 -0.046578556299209595 -0.7176218628883362
vn -0.5784889459609985 -0.387774795293808 -0.717621922492981
vn -0.3070984482765198 -0.6250673532485962 -0.7176221013069153
vn -0.03273342177271843 -0.6759216785430908 -0.7362461686134338
vn 0.3377382755279541 -0.6130499839782715 -0.7142147421836853
vn 0.599014937877655 -0.3620477616786957 -0.7142146229743958
vn 0.6997860074043274 -0.01403526496142149 -0.7142146229743958
vn 0.6130504012107849 0.3377377986907959 -0.7142146229743958
vn 0.36204811930656433 0.5990146398544312 -0.7142146825790405
vn 0.014035249128937721 0.6997860074043274 -0.7142146229743958
vn -0.3377379775047302 0.6130503416061401 -0.7142145037651062
vn -0.5990148186683655 0.36204808950424194 -0.714214563369751
vn -0.6997860074043274 0.01403538603335619 -0.7142146229743958
vn -0.6130504608154297 -0.3377377688884735 -0.714214563369751
vn -0.40520915389060974 -0.6100344657897949 -0.6809284090995789
vn 5.484397824773168e-09 -1.6453192586141085e-08 1.0
vn 0.044830042868852615 -0.7180647253990173 0.6945310235023499
vn 0.3558010160923004 -0.5898002982139587 0.7249422669410706
vn 0.6030329465866089 -0.33288154006004333 0.7249422669410706
vn 0.6886826753616333 0.013232368975877762 0.724942147731781
vn 0.5898005366325378 0.3558005392551422 0.7249422669410706
vn 0.3328818082809448 0.6030325889587402 0.7249423265457153
vn -0.013232258148491383 0.6886826157569885 0.7249422669410706
vn -0.3558007776737213 0.5898003578186035 0.7249423861503601
vn -0.603032648563385 0.3328816294670105 0.7249423861503601
vn -0.6886825561523438 -0.013232233934104443 0.7249423265457153
vn -0.5898005366325378 -0.35580047965049744 0.7249423265457153
vn -0.30542951822280884 -0.5929608345031738 0.745057225227356
vn 0.0070595405995845795 -0.9287582635879517 0.3706187605857849
vn 0.4704928398132324 -0.8007985353469849 0.3706187307834625
vn 0.8078582286834717 -0.4582652151584625 0.3706188201904297
vn 0.9287583231925964 0.007059610914438963 0.370618611574173
vn 0.8007988333702087 0.4704923927783966 0.3706185817718506
vn 0.4582654535770416 0.8078579306602478 0.3706188201904297
vn -0.007059456780552864 0.928758442401886 0.3706185817718506
vn -0.47049248218536377 0.800798773765564 0.37061867117881775
vn -0.807857871055603 0.4582655727863312 0.37061890959739685
vn -0.9287582039833069 -0.007059338036924601 0.37061890959739685
vn -0.8007988333702087 -0.47049227356910706 0.3706187605857849
vn -0.45826563239097595 -0.8078578114509583 0.37061890959739685
vn -0.046579644083976746 -0.6948733329772949 0.7176220417022705
vn 0.30709776282310486 -0.6250676512718201 0.7176220417022705
vn 0.578488290309906 -0.38777559995651245 0.7176220417022705
vn 0.6948734521865845 -0.04657949507236481 0.717621922492981
vn 0.625067949295044 0.3070974051952362 0.717621922492981
vn 0.38777604699134827 0.5784881711006165 0.717621922492981
vn 0.04657953232526779 0.6948735117912292 0.717621922492981
vn -0.3070976734161377 0.6250678896903992 0.7176218628883362
vn -0.5784883499145508 0.38777583837509155 0.7176218628883362
vn -0.694873571395874 0.04657965898513794 0.7176218032836914
vn -0.6250680685043335 -0.3070974051952362 0.7176218628883362
vn -0.38777604699134827 -0.5784881711006165 0.717621922492981
vn 0.03273271769285202 -0.6759217381477356 0.7362462282180786
vn 0.40327417850494385 -0.5737183094024658 0.7128936648368835
vn 0.6361048221588135 -0.29521745443344116 0.7128936052322388
vn 0.6984916925430298 0.06238633021712303 0.7128936052322388
vn 0.5737186670303345 0.40327388048171997 0.712893545627594
vn 0.2952178716659546 0.6361046433448792 0.7128936052322388
vn -0.0623864009976387 0.698491632938385 0.7128936648368835
vn -0.40327396988868713 0.5737184286117554 0.7128936052322388
vn -0.6361048221588135 0.29521772265434265 0.712893545627594
vn -0.6984918117523193 -0.06238606572151184 0.7128936052322388
vn -0.5737186074256897 -0.40327373147010803 0.7128936052322388
vn -0.3257022798061371 -0.6559378504753113 0.6809284687042236
f 110/110/110 99/99/99 87/87/87
f 87/87/87 98/98/98 110/110/110
f 109/109/109 110/110/110 98/98/98
f 98/98/98 97/97/97 109/109/109
f 108/108/108 109/109/109 97/97/97
f 97/97/97 96/96/96 108/108/108
f 107/107/107 108/108/108 96/96/96
f 96/96/96 95/95/95 107/107/107
f 106/106/106 107/107/107 95/95/95
f 95/95/95 94/94/94 106/106/106
f 105/105/105 106/106/106 94/94/94
f 94/94/94 93/93/93 105/105/105
f 104/104/104 105/105/105 93/93/93
f 93/93/93 92/92/92 104/104/104
f 103/103/103 104/104/104 92/92/92
f 92/92/92 91/91/91 103/103/103
f 102/102/102 103/103/103 91/91/91
f 91/91/91 90/90/90 102/102/102
f 101/101/101 102/102/102 90/90/90
f 90/90/90 89/89/89 101/101/101
f 100/100/100 101/101/101 89/89/89
f 89/89/89 88/88/88 100/100/100
f 99/99/99 100/100/100 88/88/88
f 88/88/88 87/87/87 99/99/99
f 99/99/99 110/110/110 74/74/74
f 74/74/74 63/63/63 99/99/99
f 109/109/109 73/73/73 74/74/74
f 74/74/74 110/110/110 109/109/109
f 108/108/108 72/72/72 73/73/73
f 73/73/73 109/109/109 108/108/108
f 107/107/107 71/71/71 72/72/72
f 72/72/72 108/108/108 107/107/107
f 106/106/106 70/70/70 71/71/71
f 71/71/71 107/107/107 106/106/106
f 105/105/105 69/69/69 70/70/70
f 70/70/70 106/106/106 105/105/105
f 104/104/104 68/68/68 69/69/69
f 69/69/69 105/105/105 104/104/104
f 103/103/103 67/67/67 68/68/68
f 68/68/68 104/104/104 103/103/103
f 102/102/102 66/66/66 67/67/67
f 67/67/67 103/103/103 102/102/102
f 101/101/101 65/65/65 66/66/66
f 66/66/66 102/102/102 101/101/101
f 100/100/100 64/64/64 65/65/65
f 65/65/65 101/101/101 100/100/100
f 99/99/99 63/63/63 64/64/64
f 64/64/64 100/100/100 99/99/99
f 86/86/86 37/37/37 26/26/26
f 26/26/26 75/75/75 86/86/86
f 85/85/85 36/36/36 37/37/37
f 37/37/37 86/86/86 85/85/85
f 84/84/84 35/35/35 36/36/36
f 36/36/36 85/85/85 84/84/84
f 83/83/83 34/34/34 35/35/35
f 35/35/35 84/84/84 83/83/83
f 82/82/82 33/33/33 34/34/34
f 34/34/34 83/83/83 82/82/82
f 81/81/81 32/32/32 33/33/33
f 33/33/33 82/82/82 81/81/81
f 80/80/80 31/31/31 32/32/32
f 32/32/32 81/81/81 80/80/80
f 79/79/79 30/30/30 31/31/31
f 31/31/31 80/80/80 79/79/79
f 78/78/78 29/29/29 30/30/30
f 30/30/30 79/79/79 78/78/78
f 77/77/77 28/28/28 29/29/29
f 29/29/29 78/78/78 77/77/77
f 76/76/76 27/27/27 28/28/28
f 28/28/28 77/77/77 76/76/76
f 75/75/75 26/26/26 27/27/27
f 27/27/27 76/76/76 75/75/75
f 74/74/74 86/86/86 75/75/75
f 75/75/75 63/63/63 74/74/74
f 73/73/73 85/85/85 86/86/86
f 86/86/86 74/74/74 73/73/73
f 72/72/72 84/84/84 85/85/85
f 85/85/85 73/73/73 72/72/72
f 71/71/71 83/83/83 84/84/84
f 84/84/84 72/72/72 71/71/71
f 70/70/70 82/82/82 83/83/83
f 83/83/83 71/71/71 70/70/70
f 69/69/69 81/81/81 82/82/82
f 82/82/82 70/70/70 69/69/69
f 68/68/68 80/80/80 81/81/81
f 81/81/81 69/69/69 68/68/68
f 67/67/67 79/79/79 80/80/80
f 80/80/80 68/68/68 67/67/67
f 66/66/66 78/78/78 79/79/79
f 79/79/79 67/67/67 66/66/66
f 65/65/65 77/77/77 78/78/78
f 78/78/78 66/66/66 65/65/65
f 64/64/64 76/76/76 77/77/77
f 77/77/77 65/65/65 64/64/64
f 63/63/63 75/75/75 76/76/76
f 76/76/76 64/64/64 63/63/63
f 62/62/62 98/98/98 87/87/87
f 62/62/62 97/97/97 98/98/98
f 62/62/62 96/96/96 97/97/97
f 62/62/62 95/95/95 96/96/96
f 62/62/62 94/94/94 95/95/95
f 62/62/62 93/93/93 94/94/94
f 62/62/62 92/92/92 93/93/93
f 62/62/62 91/91/91 92/92/92
f 62/62/62 90/90/90 91/91/91
f 62/62/62 89/89/89 90/90/90
f 62/62/62 88/88/88 89/89/89
f 62/62/62 87/87/87 88/88/88
f 50/50/50 61/61/61 49/49/49
f 49/49/49 38/38/38 50/50/50
f 61/61/61 60/60/60 48/48/48
f 48/48/48 49/49/49 61/61/61
f 60/60/60 59/59/59 47/47/47
f 47/47/47 48/48/48 60/60/60
f 59/59/59 58/58/58 46/46/46
f 46/46/46 47/47/47 59/59/59
f 58/58/58 57/57/57 45/45/45
f 45/45/45 46/46/46 58/58/58
f 57/57/57 56/56/56 44/44/44
f 44/44/44 45/45/45 57/57/57
f 56/56/56 55/55/55 43/43/43
f 43/43/43 44/44/44 56/56/56
f 55/55/55 54/54/54 42/42/42
f 42/42/42 43/43/43 55/55/55
f 54/54/54 53/53/53 41/41/41
f 41/41/41 42/42/42 54/54/54
f 53/53/53 52/52/52 40/40/40
f 40/40/40 41/41/41 53/53/53
f 52/52/52 51/51/51 39/39/39
f 39/39/39 40/40/40 52/52/52
f 51/51/51 50/50/50 38/38/38
f 38/38/38 39/39/39 51/51/51
f 50/50/50 2/2/2 13/13/13
f 13/13/13 61/61/61 50/50/50
f 60/60/60 61/61/61 13/13/13
f 13/13/13 12/12/12 60/60/60
f 59/59/59 60/60/60 12/12/12
f 12/12/12 11/11/11 59/59/59
f 58/58/58 59/59/59 11/11/11
f 11/11/11 10/10/10 58/58/58
f 57/57/57 58/58/58 10/10/10
f 10/10/10 9/9/9 57/57/57
f 56/56/56 57/57/57 9/9/9
f 9/9/9 8/8/8 56/56/56
f 55/55/55 56/56/56 8/8/8
f 8/8/8 7/7/7 55/55/55
f 54/54/54 55/55/55 7/7/7
f 7/7/7 6/6/6 54/54/54
f 53/53/53 54/54/54 6/6/6
f 6/6/6 5/5/5 53/53/53
f 52/52/52 53/53/53 5/5/5
f 5/5/5 4/4/4 52/52/52
f 51/51/51 52/52/52 4/4/4
f 4/4/4 3/3/3 51/51/51
f 50/50/50 51/51/51 3/3/3
f 3/3/3 2/2/2 50/50/50
f 25/25/25 14/14/14 26/26/26
f 26/26/26 37/37/37 25/25/25
f 24/24/24 25/25/25 37/37/37
f 37/37/37 36/36/36 24/24/24
f 23/23/23 24/24/24 36/36/36
f 36/36/36 35/35/35 23/23/23
f 22/22/22 23/23/23 35/35/35
f 35/35/35 34/34/34 22/22/22
f 21/21/21 22/22/22 34/34/34
f 34/34/34 33/33/33 21/21/21
f 20/20/20 21/21/21 33/33/33
f 33/33/33 32/32/32 20/20/20
f 19/19/19 20/20/20 32/32/32
f 32/32/32 31/31/31 19/19/19
f 18/18/18 19/19/19 31/31/31
f 31/31/31 30/30/30 18/18/18
f 17/17/17 18/18/18 30/30/30
f 30/30/30 29/29/29 17/17/17
f 16/16/16 17/17/17 29/29/29
f 29/29/29 28/28/28 16/16/16
f 15/15/15 16/16/16 28/28/28
f 28/28/28 27/27/27 15/15/15
f 14/14/14 15/15/15 27/27/27
f 27/27/27 26/26/26 14/14/14
f 13/13/13 2/2/2 14/14/14
f 14/14/14 25/25/25 13/13/13
f 12/12/12 13/13/13 25/25/25
f 25/25/25 24/24/24 12/12/12
f 11/11/11 12/12/12 24/24/24
f 24/24/24 23/23/23 11/11/11
f 10/10/10 11/11/11 23/23/23
f 23/23/23 22/22/22 10/10/10
f 9/9/9 10/10/10 22/22/22
f 22/22/22 21/21/21 9/9/9
f 8/8/8 9/9/9 21/21/21
f 21/21/21 20/20/20 8/8/8
f 7/7/7 8/8/8 20/20/20
f 20/20/20 19/19/19 7/7/7
f 6/6/6 7/7/7 19/19/19
f 19/19/19 18/18/18 6/6/6
f 5/5/5 6/6/6 18/18/18
f 18/18/18 17/17/17 5/5/5
f 4/4/4 5/5/5 17/17/17
f 17/17/17 16/16/16 4/4/4
f 3/3/3 4/4/4 16/16/16
f 16/16/16 15/15/15 3/3/3
f 2/2/2 3/3/3 15/15/15
f 15/15/15 14/14/14 2/2/2
f 1/1/1 38/38/38 49/49/49
f 1/1/1 49/49/49 48/48/48
f 1/1/1 48/48/48 47/47/47
f 1/1/1 47/47/47 46/46/46
f 1/1/1 46/46/46 45/45/45
f 1/1/1 45/45/45 44/44/44
f 1/1/1 44/44/44 43/43/43
f 1/1/1 43/43/43 42/42/42
f 1/1/1 42/42/42 41/41/41
f 1/1/1 41/41/41 40/40/40
f 1/1/1 40/40/40 39/39/39
f 1/1/1 39/39/39 38/38/38
