# Recovered local-space geometry; original node transforms not applied
o mesh_0
v -1.0645003385434393e-05 -3.8392181522795e-07 58.04698944091797
v -6.661602128588129e-06 23.54106903076172 40.626007080078125
v -11.770543098449707 20.387165069580078 40.626007080078125
v -20.387168884277344 11.770544052124023 40.626007080078125
v -23.541074752807617 1.4086752344155684e-05 40.626007080078125
v -20.387182235717773 -11.770513534545898 40.626007080078125
v -11.77055549621582 -20.387161254882812 40.626007080078125
v -2.4954106265795417e-05 -23.541072845458984 40.626007080078125
v 11.770506858825684 -20.38717269897461 40.626007080078125
v 20.38714599609375 -11.770546913146973 40.626007080078125
v 23.54105567932129 -1.7525468138046563e-05 40.626007080078125
v 20.387165069580078 11.770512580871582 40.626007080078125
v 11.770545959472656 20.387149810791016 40.626007080078125
v -5.355347639124375e-06 34.846248626708984 24.253942489624023
v -17.423133850097656 30.177745819091797 24.253942489624023
v -30.177745819091797 17.423141479492188 24.253942489624023
v -34.846256256103516 1.3669865438714623e-05 24.253942489624023
v -30.177759170532227 -17.423107147216797 24.253942489624023
v -17.42315101623535 -30.177745819091797 24.253942489624023
v -3.169568662997335e-05 -34.846248626708984 24.253942489624023
v 17.423095703125 -30.17776107788086 24.253942489624023
v 30.17772102355957 -17.42314910888672 24.253942489624023
v 34.84624481201172 -2.8474674763856456e-05 24.253942489624023
v 30.177745819091797 17.423099517822266 24.253942489624023
v 17.423152923583984 30.177722930908203 24.253942489624023
v -5.306585080688819e-06 38.59633255004883 -5.7144793572661e-06
v -19.29817008972168 33.4254035949707 -5.7144793572661e-06
v -33.42540740966797 19.298179626464844 -5.7144793572661e-06
v -38.59633255004883 1.3855978977517225e-05 -5.7144793572661e-06
v -33.4254150390625 -19.298145294189453 -5.7144793572661e-06
v -19.298187255859375 -33.42539978027344 -5.7144793572661e-06
v -3.544779247022234e-05 -38.5963249206543 -5.7144793572661e-06
v 19.29813003540039 -33.425411224365234 -5.7144793572661e-06
v 33.425384521484375 -19.298194885253906 -5.7144793572661e-06
v 38.59632873535156 -3.578835821826942e-05 -5.7144793572661e-06
v 33.4254150390625 19.29813003540039 -5.7144793572661e-06
v 19.29819679260254 33.425384521484375 -5.7144793572661e-06
v -1.2398633771226741e-05 -7.4201666393491905e-06 -5.7144793572661e-06
v -9.608656000636984e-06 6.157968044281006 55.04054641723633
v -3.0789942741394043 5.3329572677612305 55.04054641723633
v -5.332967758178711 3.078986644744873 55.04054641723633
v -6.157978534698486 3.3999090192082804e-06 55.04054641723633
v -5.332971096038818 -3.078979253768921 55.04054641723633
v -3.078997850418091 -5.3329572677612305 55.04054641723633
v -1.4393684978131205e-05 -6.157970905303955 55.04054641723633
v 3.0789694786071777 -5.332960605621338 55.04054641723633
v 5.332944393157959 -3.0789878368377686 55.04054641723633
v 6.157957077026367 -4.869344138569431e-06 55.04054641723633
v 5.332949638366699 3.078979015350342 55.04054641723633
v 3.078979253768921 5.332953453063965 55.04054641723633
v -8.945000445237383e-06 10.15441608428955 48.83570098876953
v -5.077217102050781 8.793981552124023 48.83570098876953
v -8.793991088867188 5.077211380004883 48.83570098876953
v -10.154425621032715 6.000038865749957e-06 48.83570098876953
v -8.79399585723877 -5.0771989822387695 48.83570098876953
v -5.07722282409668 -8.79397964477539 48.83570098876953
v -1.6835450878716074e-05 -10.15441608428955 48.83570098876953
v 5.0771894454956055 -8.793985366821289 48.83570098876953
v 8.793967247009277 -5.077213287353516 48.83570098876953
v 10.154402732849121 -7.635857400600798e-06 48.83570098876953
v 8.793974876403809 5.077198028564453 48.83570098876953
v 5.077206134796143 8.793975830078125 48.83570098876953
v -19.29817008972168 33.4254035949707 -5.7144793572661e-06
v -5.306585080688819e-06 38.59633255004883 -5.7144793572661e-06
v -33.42540740966797 19.298179626464844 -5.7144793572661e-06
v -38.59633255004883 1.3855978977517225e-05 -5.7144793572661e-06
v -33.4254150390625 -19.298145294189453 -5.7144793572661e-06
v -19.298187255859375 -33.42539978027344 -5.7144793572661e-06
v -3.544779247022234e-05 -38.5963249206543 -5.7144793572661e-06
v 19.29813003540039 -33.425411224365234 -5.7144793572661e-06
v 33.425384521484375 -19.298194885253906 -5.7144793572661e-06
v 38.59632873535156 -3.578835821826942e-05 -5.7144793572661e-06
v 33.4254150390625 19.29813003540039 -5.7144793572661e-06
v 19.29819679260254 33.425384521484375 -5.7144793572661e-06
vt 0.8130893111228943 0.0050629377365112305
vt 0.8480032086372375 0.04246938228607178
vt 0.8132110238075256 0.042484283447265625
vt 0.7784190773963928 0.04246938228607178
vt 0.8132110238075256 0.042484283447265625
vt 0.8480032086372375 0.04246938228607178
vt 0.8132110238075256 0.042484283447265625
vt 0.7784190773963928 0.04246938228607178
vt 0.8132110238075256 0.042484283447265625
vt 0.8480032086372375 0.04246938228607178
vt 0.8132110238075256 0.042484283447265625
vt 0.7784190773963928 0.04246938228607178
vt 0.8132110238075256 0.042484283447265625
vt 0.8653532862663269 0.07960319519042969
vt 0.8132060170173645 0.07953190803527832
vt 0.7610587477684021 0.07960319519042969
vt 0.8132060170173645 0.07953190803527832
vt 0.8653532862663269 0.07960319519042969
vt 0.8132060170173645 0.07953190803527832
vt 0.7610587477684021 0.07960319519042969
vt 0.8132060170173645 0.07953190803527832
vt 0.8653532862663269 0.07960319519042969
vt 0.8132060170173645 0.07953190803527832
vt 0.7610587477684021 0.07960319519042969
vt 0.8132060170173645 0.07953190803527832
vt 0.8730428814888 0.12184023857116699
vt 0.8132060170173645 0.12179923057556152
vt 0.753369152545929 0.12184023857116699
vt 0.8132060170173645 0.12179923057556152
vt 0.8730428814888 0.12184023857116699
vt 0.8132060170173645 0.12179923057556152
vt 0.753369152545929 0.12184023857116699
vt 0.8132060170173645 0.12179923057556152
vt 0.8730428814888 0.12184023857116699
vt 0.8132060170173645 0.12179923057556152
vt 0.753369152545929 0.12184023857116699
vt 0.8132060170173645 0.12179923057556152
vt 0.8129798769950867 0.12903058528900146
vt 0.8292372822761536 0.02140223979949951
vt 0.8131455779075623 0.021409153938293457
vt 0.79705411195755 0.02140223979949951
vt 0.8131455779075623 0.021409153938293457
vt 0.8292372822761536 0.02140223979949951
vt 0.8131455779075623 0.021409153938293457
vt 0.79705411195755 0.02140223979949951
vt 0.8131455779075623 0.021409153938293457
vt 0.8292372822761536 0.02140223979949951
vt 0.8131455779075623 0.021409153938293457
vt 0.79705411195755 0.02140223979949951
vt 0.8131455779075623 0.021409153938293457
vt 0.8318553566932678 0.024341344833374023
vt 0.8131547570228577 0.024349331855773926
vt 0.7944542765617371 0.024341344833374023
vt 0.8131547570228577 0.024349331855773926
vt 0.8318553566932678 0.024341344833374023
vt 0.8131547570228577 0.024349331855773926
vt 0.7944542765617371 0.024341344833374023
vt 0.8131547570228577 0.024349331855773926
vt 0.8318553566932678 0.024341344833374023
vt 0.8131547570228577 0.024349331855773926
vt 0.7944542765617371 0.024341344833374023
vt 0.8131547570228577 0.024349331855773926
vt 0.8129797577857971 0.24770307540893555
vt 0.8715701699256897 0.23759770393371582
vt 0.7552793622016907 0.23789429664611816
vt 0.8129797577857971 0.24770307540893555
vt 0.8715701699256897 0.23759770393371582
vt 0.8129797577857971 0.24770307540893555
vt 0.7552793622016907 0.23789429664611816
vt 0.8129797577857971 0.24770307540893555
vt 0.8715701699256897 0.23759770393371582
vt 0.8129797577857971 0.24770307540893555
vt 0.7552793622016907 0.23789429664611816
vt 0.8129797577857971 0.24770307540893555
vn 2.782738262041562e-09 -5.565476524083124e-09 1.0
vn -0.04473555460572243 0.7160065174102783 0.696658730506897
vn -0.35476163029670715 0.5879346132278442 0.7269642949104309
vn -0.6012000441551208 0.33178552985191345 0.7269642353057861
vn -0.6865472793579102 -0.013265085406601429 0.7269641757011414
vn -0.5879350304603577 -0.3547612130641937 0.7269642353057861
vn -0.3317857086658478 -0.601199746131897 0.7269642949104309
vn 0.01326497457921505 -0.6865472197532654 0.7269642353057861
vn 0.3547614812850952 -0.5879347324371338 0.7269642949104309
vn 0.6011998057365417 -0.33178579807281494 0.7269642949104309
vn 0.6865472197532654 0.013264946639537811 0.7269642949104309
vn 0.5879349708557129 0.35476112365722656 0.7269642353057861
vn 0.3043975234031677 0.5910385251045227 0.7470044493675232
vn -0.0071554784663021564 0.9286291003227234 0.3709403872489929
vn -0.4705113172531128 0.8006386756896973 0.3709404170513153
vn -0.8077943325042725 0.4581175446510315 0.37094050645828247
vn -0.9286291599273682 -0.007155559491366148 0.37094032764434814
vn -0.8006390333175659 -0.4705110192298889 0.37094035744667053
vn -0.4581177532672882 -0.8077940940856934 0.37094050645828247
vn 0.007155365310609341 -0.9286291599273682 0.370940238237381
vn 0.47051098942756653 -0.8006389141082764 0.3709403872489929
vn 0.8077940344810486 -0.4581179618835449 0.370940625667572
vn 0.9286291003227234 0.0071552046574652195 0.3709406852722168
vn 0.8006390333175659 0.47051092982292175 0.3709404766559601
vn 0.4581179916858673 0.807793915271759 0.37094056606292725
vn 0.08792592585086823 0.9844293594360352 0.15220990777015686
vn -0.41606855392456055 0.8965038657188416 0.15220966935157776
vn -0.8085778951644897 0.5683608055114746 0.15220962464809418
vn -0.9844294190406799 0.08792571723461151 0.15220965445041656
vn -0.8965040445327759 -0.4160682260990143 0.1522095501422882
vn -0.568361222743988 -0.8085776567459106 0.15220944583415985
vn -0.08792576938867569 -0.9844294190406799 0.1522095650434494
vn 0.41606786847114563 -0.8965042233467102 0.1522093415260315
vn 0.8085775375366211 -0.5683613419532776 0.15220968425273895
vn 0.9844294190406799 -0.08792643994092941 0.15220995247364044
vn 0.8965041041374207 0.41606801748275757 0.1522098332643509
vn 0.5683614015579224 0.8085775971412659 0.1522097885608673
vn 0.0 0.0 -1.0
vn -0.046324312686920166 0.7023540735244751 0.7103188037872314
vn -0.39129501581192017 0.5850943326950073 0.7103188037872314
vn -0.6314186453819275 0.3110589385032654 0.7103188633918762
vn -0.7023541331291199 -0.04632417857646942 0.7103187441825867
vn -0.5850947499275208 -0.3912947475910187 0.7103187441825867
vn -0.3110593557357788 -0.6314184665679932 0.7103188037872314
vn 0.04632417857646942 -0.7023541331291199 0.7103187441825867
vn 0.39129501581192017 -0.5850944519042969 0.7103187441825867
vn 0.6314186453819275 -0.3110591769218445 0.7103188037872314
vn 0.7023542523384094 0.04632393270730972 0.7103187441825867
vn 0.585094690322876 0.3912946283817291 0.7103187441825867
vn 0.3110593259334564 0.6314185261726379 0.7103188633918762
vn 0.03268777206540108 0.6740097999572754 0.7379988431930542
vn -0.3367767930030823 0.6114973425865173 0.7159975171089172
vn -0.5974058508872986 0.3611839711666107 0.7159974575042725
vn -0.6979606747627258 0.01409154012799263 0.7159974575042725
vn -0.611497700214386 -0.33677640557289124 0.7159974575042725
vn -0.3611842095851898 -0.597405731678009 0.7159974575042725
vn -0.014091654680669308 -0.697960615158081 0.7159975171089172
vn 0.33677661418914795 -0.6114975810050964 0.7159973978996277
vn 0.5974057912826538 -0.36118409037590027 0.7159974575042725
vn 0.6979607343673706 -0.014091771095991135 0.7159974575042725
vn 0.611497700214386 0.3367762565612793 0.7159975171089172
vn 0.40430566668510437 0.6085975170135498 0.6827489733695984
vn 0.0 0.0 -1.0
vn 0.0 0.0 -1.0
vn 0.0 0.0 -1.0
vn 0.0 0.0 -1.0
vn 0.0 0.0 -1.0
vn 0.0 0.0 -1.0
vn 0.0 0.0 -1.0
vn 0.0 0.0 -1.0
vn 0.0 0.0 -1.0
vn 0.0 0.0 -1.0
vn 0.0 0.0 -1.0
vn 0.0 0.0 -1.0
f 51/51/51 39/39/39 50/50/50
f 50/50/50 62/62/62 51/51/51
f 62/62/62 50/50/50 49/49/49
f 49/49/49 61/61/61 62/62/62
f 61/61/61 49/49/49 48/48/48
f 48/48/48 60/60/60 61/61/61
f 60/60/60 48/48/48 47/47/47
f 47/47/47 59/59/59 60/60/60
f 59/59/59 47/47/47 46/46/46
f 46/46/46 58/58/58 59/59/59
f 58/58/58 46/46/46 45/45/45
f 45/45/45 57/57/57 58/58/58
f 57/57/57 45/45/45 44/44/44
f 44/44/44 56/56/56 57/57/57
f 56/56/56 44/44/44 43/43/43
f 43/43/43 55/55/55 56/56/56
f 55/55/55 43/43/43 42/42/42
f 42/42/42 54/54/54 55/55/55
f 54/54/54 42/42/42 41/41/41
f 41/41/41 53/53/53 54/54/54
f 53/53/53 41/41/41 40/40/40
f 40/40/40 52/52/52 53/53/53
f 52/52/52 40/40/40 39/39/39
f 39/39/39 51/51/51 52/52/52
f 51/51/51 62/62/62 13/13/13
f 13/13/13 2/2/2 51/51/51
f 61/61/61 12/12/12 13/13/13
f 13/13/13 62/62/62 61/61/61
f 60/60/60 11/11/11 12/12/12
f 12/12/12 61/61/61 60/60/60
f 59/59/59 10/10/10 11/11/11
f 11/11/11 60/60/60 59/59/59
f 58/58/58 9/9/9 10/10/10
f 10/10/10 59/59/59 58/58/58
f 57/57/57 8/8/8 9/9/9
f 9/9/9 58/58/58 57/57/57
f 56/56/56 7/7/7 8/8/8
f 8/8/8 57/57/57 56/56/56
f 55/55/55 6/6/6 7/7/7
f 7/7/7 56/56/56 55/55/55
f 54/54/54 5/5/5 6/6/6
f 6/6/6 55/55/55 54/54/54
f 53/53/53 4/4/4 5/5/5
f 5/5/5 54/54/54 53/53/53
f 52/52/52 3/3/3 4/4/4
f 4/4/4 53/53/53 52/52/52
f 51/51/51 2/2/2 3/3/3
f 3/3/3 52/52/52 51/51/51
f 64/64/64 74/74/74 38/38/38
f 74/74/74 73/73/73 38/38/38
f 73/73/73 72/72/72 38/38/38
f 72/72/72 71/71/71 38/38/38
f 71/71/71 70/70/70 38/38/38
f 70/70/70 69/69/69 38/38/38
f 69/69/69 68/68/68 38/38/38
f 68/68/68 67/67/67 38/38/38
f 67/67/67 66/66/66 38/38/38
f 66/66/66 65/65/65 38/38/38
f 65/65/65 63/63/63 38/38/38
f 63/63/63 64/64/64 38/38/38
f 25/25/25 37/37/37 26/26/26
f 26/26/26 14/14/14 25/25/25
f 24/24/24 36/36/36 37/37/37
f 37/37/37 25/25/25 24/24/24
f 23/23/23 35/35/35 36/36/36
f 36/36/36 24/24/24 23/23/23
f 22/22/22 34/34/34 35/35/35
f 35/35/35 23/23/23 22/22/22
f 21/21/21 33/33/33 34/34/34
f 34/34/34 22/22/22 21/21/21
f 20/20/20 32/32/32 33/33/33
f 33/33/33 21/21/21 20/20/20
f 19/19/19 31/31/31 32/32/32
f 32/32/32 20/20/20 19/19/19
f 18/18/18 30/30/30 31/31/31
f 31/31/31 19/19/19 18/18/18
f 17/17/17 29/29/29 30/30/30
f 30/30/30 18/18/18 17/17/17
f 16/16/16 28/28/28 29/29/29
f 29/29/29 17/17/17 16/16/16
f 15/15/15 27/27/27 28/28/28
f 28/28/28 16/16/16 15/15/15
f 14/14/14 26/26/26 27/27/27
f 27/27/27 15/15/15 14/14/14
f 13/13/13 25/25/25 14/14/14
f 14/14/14 2/2/2 13/13/13
f 12/12/12 24/24/24 25/25/25
f 25/25/25 13/13/13 12/12/12
f 11/11/11 23/23/23 24/24/24
f 24/24/24 12/12/12 11/11/11
f 10/10/10 22/22/22 23/23/23
f 23/23/23 11/11/11 10/10/10
f 9/9/9 21/21/21 22/22/22
f 22/22/22 10/10/10 9/9/9
f 8/8/8 20/20/20 21/21/21
f 21/21/21 9/9/9 8/8/8
f 7/7/7 19/19/19 20/20/20
f 20/20/20 8/8/8 7/7/7
f 6/6/6 18/18/18 19/19/19
f 19/19/19 7/7/7 6/6/6
f 5/5/5 17/17/17 18/18/18
f 18/18/18 6/6/6 5/5/5
f 4/4/4 16/16/16 17/17/17
f 17/17/17 5/5/5 4/4/4
f 3/3/3 15/15/15 16/16/16
f 16/16/16 4/4/4 3/3/3
f 2/2/2 14/14/14 15/15/15
f 15/15/15 3/3/3 2/2/2
f 1/1/1 50/50/50 39/39/39
f 1/1/1 49/49/49 50/50/50
f 1/1/1 48/48/48 49/49/49
f 1/1/1 47/47/47 48/48/48
f 1/1/1 46/46/46 47/47/47
f 1/1/1 45/45/45 46/46/46
f 1/1/1 44/44/44 45/45/45
f 1/1/1 43/43/43 44/44/44
f 1/1/1 42/42/42 43/43/43
f 1/1/1 41/41/41 42/42/42
f 1/1/1 40/40/40 41/41/41
f 1/1/1 39/39/39 40/40/40
