# Recovered local-space geometry; original node transforms not applied
o mesh_0
v -1.0645003385434393e-05 -3.839212467937614e-07 -58.04698944091797
v -4.603575689543504e-06 23.54106903076172 -40.626007080078125
v -11.770541191101074 20.387165069580078 -40.626007080078125
v -20.38716697692871 11.770545959472656 -40.626007080078125
v -23.541074752807617 1.6144776964210905e-05 -40.626007080078125
v -20.387184143066406 -11.770511627197266 -40.626007080078125
v -11.770557403564453 -20.387157440185547 -40.626007080078125
v -2.7012132704840042e-05 -23.541072845458984 -40.626007080078125
v 11.77050495147705 -20.387176513671875 -40.626007080078125
v 20.38714599609375 -11.770548820495605 -40.626007080078125
v 23.54105567932129 -1.9583492758101784e-05 -40.626007080078125
v 20.38716697692871 11.77051067352295 -40.626007080078125
v 11.770546913146973 20.38714599609375 -40.626007080078125
v -2.30899172493082e-06 34.846248626708984 -24.25394630432129
v -17.42313003540039 30.177745819091797 -24.25394630432129
v -30.177745819091797 17.423145294189453 -24.25394630432129
v -34.846256256103516 1.6716221580281854e-05 -24.25394630432129
v -30.177759170532227 -17.42310333251953 -24.25394630432129
v -17.423154830932617 -30.177745819091797 -24.25394630432129
v -3.474204277154058e-05 -34.846248626708984 -24.25394630432129
v 17.423091888427734 -30.17776107788086 -24.25394630432129
v 30.17772102355957 -17.423152923583984 -24.25394630432129
v 34.84624481201172 -3.152102726744488e-05 -24.25394630432129
v 30.177745819091797 17.423095703125 -24.25394630432129
v 17.42315673828125 30.177722930908203 -24.25394630432129
v -1.9323863398312824e-06 38.59633255004883 4.527084001892945e-06
v -19.298166275024414 33.4254035949707 4.527084001892945e-06
v -33.42540740966797 19.29818344116211 4.527084001892945e-06
v -38.59633255004883 1.7230177036253735e-05 4.527084001892945e-06
v -33.4254150390625 -19.298141479492188 4.527084001892945e-06
v -19.29819107055664 -33.42539978027344 4.527084001892945e-06
v -3.8821988709969446e-05 -38.5963249206543 4.527084001892945e-06
v 19.298126220703125 -33.425411224365234 4.527084001892945e-06
v 33.425384521484375 -19.298198699951172 4.527084001892945e-06
v 38.59632873535156 -3.916255082003772e-05 4.527084001892945e-06
v 33.4254150390625 19.298126220703125 4.527084001892945e-06
v 19.298200607299805 33.425384521484375 4.527084001892945e-06
v -1.2398634680721443e-05 -7.420165729854489e-06 4.527084001892945e-06
v -9.070310625247657e-06 6.157968044281006 -55.04054641723633
v -3.0789942741394043 5.332957744598389 -55.04054641723633
v -5.3329668045043945 3.0789873600006104 -55.04054641723633
v -6.157978534698486 3.938256668334361e-06 -55.04054641723633
v -5.332971096038818 -3.0789785385131836 -55.04054641723633
v -3.078998327255249 -5.332956790924072 -55.04054641723633
v -1.4932031263015233e-05 -6.157970905303955 -55.04054641723633
v 3.0789690017700195 -5.332960605621338 -55.04054641723633
v 5.332944393157959 -3.078988552093506 -55.04054641723633
v 6.157957077026367 -5.407691332948161e-06 -55.04054641723633
v 5.332949638366699 3.0789780616760254 -55.04054641723633
v 3.078979969024658 5.332952499389648 -55.04054641723633
v -8.057272680161987e-06 10.15441608428955 -48.83570098876953
v -5.077217102050781 8.79398250579834 -48.83570098876953
v -8.793989181518555 5.077212333679199 -48.83570098876953
v -10.154425621032715 6.887766630825354e-06 -48.83570098876953
v -8.793996810913086 -5.077198505401611 -48.83570098876953
v -5.077223777770996 -8.793978691101074 -48.83570098876953
v -1.7723179553286172e-05 -10.15441608428955 -48.83570098876953
v 5.077188968658447 -8.793986320495605 -48.83570098876953
v 8.793966293334961 -5.077213764190674 -48.83570098876953
v 10.154402732849121 -8.523585165676195e-06 -48.83570098876953
v 8.793975830078125 5.077197551727295 -48.83570098876953
v 5.077207088470459 8.793974876403809 -48.83570098876953
v -19.298166275024414 33.4254035949707 4.527084001892945e-06
v -1.9323863398312824e-06 38.59633255004883 4.527084001892945e-06
v -33.42540740966797 19.29818344116211 4.527084001892945e-06
v -38.59633255004883 1.7230177036253735e-05 4.527084001892945e-06
v -33.4254150390625 -19.298141479492188 4.527084001892945e-06
v -19.29819107055664 -33.42539978027344 4.527084001892945e-06
v -3.8821988709969446e-05 -38.5963249206543 4.527084001892945e-06
v 19.298126220703125 -33.425411224365234 4.527084001892945e-06
v 33.425384521484375 -19.298198699951172 4.527084001892945e-06
v 38.59632873535156 -3.916255082003772e-05 4.527084001892945e-06
v 33.4254150390625 19.298126220703125 4.527084001892945e-06
v 19.298200607299805 33.425384521484375 4.527084001892945e-06
vt 0.8130893111228943 0.0050629377365112305
vt 0.8480032086372375 0.04246938228607178
vt 0.8132110238075256 0.042484283447265625
vt 0.7784190773963928 0.04246938228607178
vt 0.8132110238075256 0.042484283447265625
vt 0.8480032086372375 0.04246938228607178
vt 0.8132110238075256 0.042484283447265625
vt 0.7784190773963928 0.04246938228607178
vt 0.8132110238075256 0.042484283447265625
vt 0.8480032086372375 0.04246938228607178
vt 0.8132110238075256 0.042484283447265625
vt 0.7784190773963928 0.04246938228607178
vt 0.8132110238075256 0.042484283447265625
vt 0.8653532862663269 0.07960319519042969
vt 0.8132060170173645 0.07953190803527832
vt 0.7610587477684021 0.07960319519042969
vt 0.8132060170173645 0.07953190803527832
vt 0.8653532862663269 0.07960319519042969
vt 0.8132060170173645 0.07953190803527832
vt 0.7610587477684021 0.07960319519042969
vt 0.8132060170173645 0.07953190803527832
vt 0.8653532862663269 0.07960319519042969
vt 0.8132060170173645 0.07953190803527832
vt 0.7610587477684021 0.07960319519042969
vt 0.8132060170173645 0.07953190803527832
vt 0.8730428814888 0.12184023857116699
vt 0.8132060170173645 0.12179923057556152
vt 0.753369152545929 0.12184023857116699
vt 0.8132060170173645 0.12179923057556152
vt 0.8730428814888 0.12184023857116699
vt 0.8132060170173645 0.12179923057556152
vt 0.753369152545929 0.12184023857116699
vt 0.8132060170173645 0.12179923057556152
vt 0.8730428814888 0.12184023857116699
vt 0.8132060170173645 0.12179923057556152
vt 0.753369152545929 0.12184023857116699
vt 0.8132060170173645 0.12179923057556152
vt 0.8129798769950867 0.12903058528900146
vt 0.8292372822761536 0.02140223979949951
vt 0.8131455779075623 0.021409153938293457
vt 0.79705411195755 0.02140223979949951
vt 0.8131455779075623 0.021409153938293457
vt 0.8292372822761536 0.02140223979949951
vt 0.8131455779075623 0.021409153938293457
vt 0.79705411195755 0.02140223979949951
vt 0.8131455779075623 0.021409153938293457
vt 0.8292372822761536 0.02140223979949951
vt 0.8131455779075623 0.021409153938293457
vt 0.79705411195755 0.02140223979949951
vt 0.8131455779075623 0.021409153938293457
vt 0.8318553566932678 0.024341344833374023
vt 0.8131547570228577 0.024349331855773926
vt 0.7944542765617371 0.024341344833374023
vt 0.8131547570228577 0.024349331855773926
vt 0.8318553566932678 0.024341344833374023
vt 0.8131547570228577 0.024349331855773926
vt 0.7944542765617371 0.024341344833374023
vt 0.8131547570228577 0.024349331855773926
vt 0.8318553566932678 0.024341344833374023
vt 0.8131547570228577 0.024349331855773926
vt 0.7944542765617371 0.024341344833374023
vt 0.8131547570228577 0.024349331855773926
vt 0.8129797577857971 0.24770307540893555
vt 0.8715701699256897 0.23759770393371582
vt 0.7552793622016907 0.23789429664611816
vt 0.8129797577857971 0.24770307540893555
vt 0.8715701699256897 0.23759770393371582
vt 0.8129797577857971 0.24770307540893555
vt 0.7552793622016907 0.23789429664611816
vt 0.8129797577857971 0.24770307540893555
vt 0.8715701699256897 0.23759770393371582
vt 0.8129797577857971 0.24770307540893555
vt 0.7552793622016907 0.23789429664611816
vt 0.8129797577857971 0.24770307540893555
vn 0.0 -5.565476524083124e-09 -1.0
vn -0.04473548009991646 0.7160065174102783 -0.696658730506897
vn -0.35476160049438477 0.587934672832489 -0.7269642949104309
vn -0.6011999249458313 0.33178550004959106 -0.7269643545150757
vn -0.6865472793579102 -0.013264977373182774 -0.7269641757011414
vn -0.5879350304603577 -0.35476112365722656 -0.7269642949104309
vn -0.33178576827049255 -0.6011996865272522 -0.7269643545150757
vn 0.013264834880828857 -0.6865472197532654 -0.7269642353057861
vn 0.3547612726688385 -0.5879347324371338 -0.7269643545150757
vn 0.6011996865272522 -0.3317856788635254 -0.7269643545150757
vn 0.6865471601486206 0.013264891691505909 -0.7269642949104309
vn 0.5879350304603577 0.35476112365722656 -0.7269642949104309
vn 0.30439749360084534 0.5910384654998779 -0.747004508972168
vn -0.007155459374189377 0.9286291599273682 -0.37094053626060486
vn -0.4705112874507904 0.8006388545036316 -0.3709403872489929
vn -0.8077942728996277 0.45811760425567627 -0.37094056606292725
vn -0.9286291003227234 -0.007155528292059898 -0.3709403872489929
vn -0.8006390333175659 -0.4705108106136322 -0.37094035744667053
vn -0.45811790227890015 -0.8077940940856934 -0.37094059586524963
vn 0.0071553392335772514 -0.9286291599273682 -0.37094032764434814
vn 0.4705107808113098 -0.8006390333175659 -0.3709403872489929
vn 0.8077939748764038 -0.4581180214881897 -0.3709406852722168
vn 0.9286289811134338 0.007155206054449081 -0.3709406852722168
vn 0.8006390333175659 0.47051069140434265 -0.37094050645828247
vn 0.4581180214881897 0.8077938556671143 -0.3709406554698944
vn 0.08792592585086823 0.9844293594360352 -0.15220990777015686
vn -0.41606855392456055 0.8965039849281311 -0.15220966935157776
vn -0.808577835559845 0.5683609247207642 -0.15220960974693298
vn -0.9844294190406799 0.08792572468519211 -0.15220965445041656
vn -0.8965041637420654 -0.4160681962966919 -0.1522095650434494
vn -0.5683613419532776 -0.8085775971412659 -0.15220943093299866
vn -0.08792577683925629 -0.9844294190406799 -0.1522095501422882
vn 0.4160677492618561 -0.896504282951355 -0.1522093415260315
vn 0.8085774183273315 -0.5683614611625671 -0.15220968425273895
vn 0.9844294190406799 -0.08792643249034882 -0.15220993757247925
vn 0.8965041041374207 0.4160679578781128 -0.1522098332643509
vn 0.5683615207672119 0.8085773587226868 -0.15220975875854492
vn 0.0 0.0 1.0
vn 0.04632503539323807 0.7023540139198303 -0.7103188037872314
vn -0.31105858087539673 0.6314188241958618 -0.7103188037872314
vn -0.5850940942764282 0.3912954330444336 -0.7103188037872314
vn -0.7023541331291199 0.046324945986270905 -0.7103188037872314
vn -0.6314190626144409 -0.3110581636428833 -0.7103188037872314
vn -0.3912958800792694 -0.5850938558578491 -0.7103187441825867
vn -0.04632497578859329 -0.7023541331291199 -0.7103188037872314
vn 0.31105852127075195 -0.6314189434051514 -0.7103187441825867
vn 0.5850940346717834 -0.3912956714630127 -0.7103187441825867
vn 0.7023541331291199 -0.04632505774497986 -0.7103186845779419
vn 0.6314190626144409 0.3110581338405609 -0.7103188037872314
vn 0.39129582047462463 0.5850938558578491 -0.7103188037872314
vn -0.03268711268901825 0.6740097999572754 -0.737998902797699
vn -0.40222665667533875 0.572227954864502 -0.7146809697151184
vn -0.6344525218009949 0.2944507598876953 -0.7146809697151184
vn -0.6966773271560669 -0.062224145978689194 -0.7146809697151184
vn -0.5722282528877258 -0.4022263288497925 -0.7146809101104736
vn -0.2944510281085968 -0.6344522833824158 -0.7146809697151184
vn 0.06222427636384964 -0.6966773271560669 -0.7146810293197632
vn 0.40222644805908203 -0.5722280740737915 -0.7146809697151184
vn 0.6344524025917053 -0.29445087909698486 -0.7146810293197632
vn 0.6966774463653564 0.062224019318819046 -0.7146809101104736
vn 0.5722283124923706 0.40222617983818054 -0.7146809697151184
vn 0.32490938901901245 0.6544370651245117 -0.6827489733695984
vn 0.0 0.0 1.0
vn 0.0 0.0 1.0
vn 0.0 0.0 1.0
vn 0.0 0.0 1.0
vn 0.0 0.0 1.0
vn 0.0 0.0 1.0
vn 0.0 0.0 1.0
vn 0.0 0.0 1.0
vn 0.0 0.0 1.0
vn 0.0 0.0 1.0
vn 0.0 0.0 1.0
vn 0.0 0.0 1.0
f 62/62/62 50/50/50 39/39/39
f 39/39/39 51/51/51 62/62/62
f 61/61/61 49/49/49 50/50/50
f 50/50/50 62/62/62 61/61/61
f 60/60/60 48/48/48 49/49/49
f 49/49/49 61/61/61 60/60/60
f 59/59/59 47/47/47 48/48/48
f 48/48/48 60/60/60 59/59/59
f 58/58/58 46/46/46 47/47/47
f 47/47/47 59/59/59 58/58/58
f 57/57/57 45/45/45 46/46/46
f 46/46/46 58/58/58 57/57/57
f 56/56/56 44/44/44 45/45/45
f 45/45/45 57/57/57 56/56/56
f 55/55/55 43/43/43 44/44/44
f 44/44/44 56/56/56 55/55/55
f 54/54/54 42/42/42 43/43/43
f 43/43/43 55/55/55 54/54/54
f 53/53/53 41/41/41 42/42/42
f 42/42/42 54/54/54 53/53/53
f 52/52/52 40/40/40 41/41/41
f 41/41/41 53/53/53 52/52/52
f 51/51/51 39/39/39 40/40/40
f 40/40/40 52/52/52 51/51/51
f 51/51/51 2/2/2 13/13/13
f 13/13/13 62/62/62 51/51/51
f 61/61/61 62/62/62 13/13/13
f 13/13/13 12/12/12 61/61/61
f 60/60/60 61/61/61 12/12/12
f 12/12/12 11/11/11 60/60/60
f 59/59/59 60/60/60 11/11/11
f 11/11/11 10/10/10 59/59/59
f 58/58/58 59/59/59 10/10/10
f 10/10/10 9/9/9 58/58/58
f 57/57/57 58/58/58 9/9/9
f 9/9/9 8/8/8 57/57/57
f 56/56/56 57/57/57 8/8/8
f 8/8/8 7/7/7 56/56/56
f 55/55/55 56/56/56 7/7/7
f 7/7/7 6/6/6 55/55/55
f 54/54/54 55/55/55 6/6/6
f 6/6/6 5/5/5 54/54/54
f 53/53/53 54/54/54 5/5/5
f 5/5/5 4/4/4 53/53/53
f 52/52/52 53/53/53 4/4/4
f 4/4/4 3/3/3 52/52/52
f 51/51/51 52/52/52 3/3/3
f 3/3/3 2/2/2 51/51/51
f 64/64/64 38/38/38 74/74/74
f 74/74/74 38/38/38 73/73/73
f 73/73/73 38/38/38 72/72/72
f 72/72/72 38/38/38 71/71/71
f 71/71/71 38/38/38 70/70/70
f 70/70/70 38/38/38 69/69/69
f 69/69/69 38/38/38 68/68/68
f 68/68/68 38/38/38 67/67/67
f 67/67/67 38/38/38 66/66/66
f 66/66/66 38/38/38 65/65/65
f 65/65/65 38/38/38 63/63/63
f 63/63/63 38/38/38 64/64/64
f 25/25/25 14/14/14 26/26/26
f 26/26/26 37/37/37 25/25/25
f 24/24/24 25/25/25 37/37/37
f 37/37/37 36/36/36 24/24/24
f 23/23/23 24/24/24 36/36/36
f 36/36/36 35/35/35 23/23/23
f 22/22/22 23/23/23 35/35/35
f 35/35/35 34/34/34 22/22/22
f 21/21/21 22/22/22 34/34/34
f 34/34/34 33/33/33 21/21/21
f 20/20/20 21/21/21 33/33/33
f 33/33/33 32/32/32 20/20/20
f 19/19/19 20/20/20 32/32/32
f 32/32/32 31/31/31 19/19/19
f 18/18/18 19/19/19 31/31/31
f 31/31/31 30/30/30 18/18/18
f 17/17/17 18/18/18 30/30/30
f 30/30/30 29/29/29 17/17/17
f 16/16/16 17/17/17 29/29/29
f 29/29/29 28/28/28 16/16/16
f 15/15/15 16/16/16 28/28/28
f 28/28/28 27/27/27 15/15/15
f 14/14/14 15/15/15 27/27/27
f 27/27/27 26/26/26 14/14/14
f 13/13/13 2/2/2 14/14/14
f 14/14/14 25/25/25 13/13/13
f 12/12/12 13/13/13 25/25/25
f 25/25/25 24/24/24 12/12/12
f 11/11/11 12/12/12 24/24/24
f 24/24/24 23/23/23 11/11/11
f 10/10/10 11/11/11 23/23/23
f 23/23/23 22/22/22 10/10/10
f 9/9/9 10/10/10 22/22/22
f 22/22/22 21/21/21 9/9/9
f 8/8/8 9/9/9 21/21/21
f 21/21/21 20/20/20 8/8/8
f 7/7/7 8/8/8 20/20/20
f 20/20/20 19/19/19 7/7/7
f 6/6/6 7/7/7 19/19/19
f 19/19/19 18/18/18 6/6/6
f 5/5/5 6/6/6 18/18/18
f 18/18/18 17/17/17 5/5/5
f 4/4/4 5/5/5 17/17/17
f 17/17/17 16/16/16 4/4/4
f 3/3/3 4/4/4 16/16/16
f 16/16/16 15/15/15 3/3/3
f 2/2/2 3/3/3 15/15/15
f 15/15/15 14/14/14 2/2/2
f 1/1/1 39/39/39 50/50/50
f 1/1/1 50/50/50 49/49/49
f 1/1/1 49/49/49 48/48/48
f 1/1/1 48/48/48 47/47/47
f 1/1/1 47/47/47 46/46/46
f 1/1/1 46/46/46 45/45/45
f 1/1/1 45/45/45 44/44/44
f 1/1/1 44/44/44 43/43/43
f 1/1/1 43/43/43 42/42/42
f 1/1/1 42/42/42 41/41/41
f 1/1/1 41/41/41 40/40/40
f 1/1/1 40/40/40 39/39/39
