# Recovered local-space geometry; original node transforms not applied
o mesh_0
v -1.0645003385434393e-05 -3.8392181522795e-07 58.04698944091797
v -6.661602128588129e-06 23.54106903076172 40.626007080078125
v -11.770543098449707 20.387165069580078 40.626007080078125
v -20.387168884277344 11.770544052124023 40.626007080078125
v -23.541074752807617 1.4086752344155684e-05 40.626007080078125
v -20.387182235717773 -11.770513534545898 40.626007080078125
v -11.77055549621582 -20.387161254882812 40.626007080078125
v -2.4954106265795417e-05 -23.541072845458984 40.626007080078125
v 11.770506858825684 -20.38717269897461 40.626007080078125
v 20.38714599609375 -11.770546913146973 40.626007080078125
v 23.54105567932129 -1.7525468138046563e-05 40.626007080078125
v 20.387165069580078 11.770512580871582 40.626007080078125
v 11.770545959472656 20.387149810791016 40.626007080078125
v -5.355347639124375e-06 34.846248626708984 24.253942489624023
v -17.423133850097656 30.177745819091797 24.253942489624023
v -30.177745819091797 17.423141479492188 24.253942489624023
v -34.846256256103516 1.3669865438714623e-05 24.253942489624023
v -30.177759170532227 -17.423107147216797 24.253942489624023
v -17.42315101623535 -30.177745819091797 24.253942489624023
v -3.169568662997335e-05 -34.846248626708984 24.253942489624023
v 17.423095703125 -30.17776107788086 24.253942489624023
v 30.17772102355957 -17.42314910888672 24.253942489624023
v 34.84624481201172 -2.8474674763856456e-05 24.253942489624023
v 30.177745819091797 17.423099517822266 24.253942489624023
v 17.423152923583984 30.177722930908203 24.253942489624023
v -3.619485596573213e-06 38.59633255004883 -5.936976776865777e-07
v -19.298168182373047 33.4254035949707 -5.936976776865777e-07
v -33.42540740966797 19.298181533813477 -5.936976776865777e-07
v -38.59633255004883 1.5543078916380182e-05 -5.936976776865777e-07
v -33.4254150390625 -19.29814338684082 -5.936976776865777e-07
v -19.298189163208008 -33.42539978027344 -5.936976776865777e-07
v -3.713489059009589e-05 -38.5963249206543 -5.936976776865777e-07
v 19.298128128051758 -33.425411224365234 -5.936976776865777e-07
v 33.425384521484375 -19.29819679260254 -5.936976776865777e-07
v 38.59632873535156 -3.747545270016417e-05 -5.936976776865777e-07
v 33.4254150390625 19.298128128051758 -5.936976776865777e-07
v 19.298198699951172 33.425384521484375 -5.936976776865777e-07
v -9.608656000636984e-06 6.157968044281006 55.04054641723633
v -3.0789942741394043 5.3329572677612305 55.04054641723633
v -5.332967758178711 3.078986644744873 55.04054641723633
v -6.157978534698486 3.3999090192082804e-06 55.04054641723633
v -5.332971096038818 -3.078979253768921 55.04054641723633
v -3.078997850418091 -5.3329572677612305 55.04054641723633
v -1.4393684978131205e-05 -6.157970905303955 55.04054641723633
v 3.0789694786071777 -5.332960605621338 55.04054641723633
v 5.332944393157959 -3.0789878368377686 55.04054641723633
v 6.157957077026367 -4.869344138569431e-06 55.04054641723633
v 5.332949638366699 3.078979015350342 55.04054641723633
v 3.078979253768921 5.332953453063965 55.04054641723633
v -8.945000445237383e-06 10.15441608428955 48.83570098876953
v -5.077217102050781 8.793981552124023 48.83570098876953
v -8.793991088867188 5.077211380004883 48.83570098876953
v -10.154425621032715 6.000038865749957e-06 48.83570098876953
v -8.79399585723877 -5.0771989822387695 48.83570098876953
v -5.07722282409668 -8.79397964477539 48.83570098876953
v -1.6835450878716074e-05 -10.15441608428955 48.83570098876953
v 5.0771894454956055 -8.793985366821289 48.83570098876953
v 8.793967247009277 -5.077213287353516 48.83570098876953
v 10.154402732849121 -7.635857400600798e-06 48.83570098876953
v 8.793974876403809 5.077198028564453 48.83570098876953
v 5.077206134796143 8.793975830078125 48.83570098876953
v -1.0645003385434393e-05 -3.839212467937614e-07 -58.04698944091797
v -4.603575689543504e-06 23.54106903076172 -40.626007080078125
v -11.770541191101074 20.387165069580078 -40.626007080078125
v -20.38716697692871 11.770545959472656 -40.626007080078125
v -23.541074752807617 1.6144776964210905e-05 -40.626007080078125
v -20.387184143066406 -11.770511627197266 -40.626007080078125
v -11.770557403564453 -20.387157440185547 -40.626007080078125
v -2.7012132704840042e-05 -23.541072845458984 -40.626007080078125
v 11.77050495147705 -20.387176513671875 -40.626007080078125
v 20.38714599609375 -11.770548820495605 -40.626007080078125
v 23.54105567932129 -1.9583492758101784e-05 -40.626007080078125
v 20.38716697692871 11.77051067352295 -40.626007080078125
v 11.770546913146973 20.38714599609375 -40.626007080078125
v -2.30899172493082e-06 34.846248626708984 -24.25394630432129
v -17.42313003540039 30.177745819091797 -24.25394630432129
v -30.177745819091797 17.423145294189453 -24.25394630432129
v -34.846256256103516 1.6716221580281854e-05 -24.25394630432129
v -30.177759170532227 -17.42310333251953 -24.25394630432129
v -17.423154830932617 -30.177745819091797 -24.25394630432129
v -3.474204277154058e-05 -34.846248626708984 -24.25394630432129
v 17.423091888427734 -30.17776107788086 -24.25394630432129
v 30.17772102355957 -17.423152923583984 -24.25394630432129
v 34.84624481201172 -3.152102726744488e-05 -24.25394630432129
v 30.177745819091797 17.423095703125 -24.25394630432129
v 17.42315673828125 30.177722930908203 -24.25394630432129
v -9.070310625247657e-06 6.157968044281006 -55.04054641723633
v -3.0789942741394043 5.332957744598389 -55.04054641723633
v -5.3329668045043945 3.0789873600006104 -55.04054641723633
v -6.157978534698486 3.938256668334361e-06 -55.04054641723633
v -5.332971096038818 -3.0789785385131836 -55.04054641723633
v -3.078998327255249 -5.332956790924072 -55.04054641723633
v -1.4932031263015233e-05 -6.157970905303955 -55.04054641723633
v 3.0789690017700195 -5.332960605621338 -55.04054641723633
v 5.332944393157959 -3.078988552093506 -55.04054641723633
v 6.157957077026367 -5.407691332948161e-06 -55.04054641723633
v 5.332949638366699 3.0789780616760254 -55.04054641723633
v 3.078979969024658 5.332952499389648 -55.04054641723633
v -8.057272680161987e-06 10.15441608428955 -48.83570098876953
v -5.077217102050781 8.79398250579834 -48.83570098876953
v -8.793989181518555 5.077212333679199 -48.83570098876953
v -10.154425621032715 6.887766630825354e-06 -48.83570098876953
v -8.793996810913086 -5.077198505401611 -48.83570098876953
v -5.077223777770996 -8.793978691101074 -48.83570098876953
v -1.7723179553286172e-05 -10.15441608428955 -48.83570098876953
v 5.077188968658447 -8.793986320495605 -48.83570098876953
v 8.793966293334961 -5.077213764190674 -48.83570098876953
v 10.154402732849121 -8.523585165676195e-06 -48.83570098876953
v 8.793975830078125 5.077197551727295 -48.83570098876953
v 5.077207088470459 8.793974876403809 -48.83570098876953
vt 0.8131440877914429 0.005111217498779297
vt 0.8480579853057861 0.042517662048339844
vt 0.8132658004760742 0.04253256320953369
vt 0.7784738540649414 0.042517662048339844
vt 0.8132658004760742 0.04253256320953369
vt 0.8480579853057861 0.042517662048339844
vt 0.8132658004760742 0.04253256320953369
vt 0.7784738540649414 0.042517662048339844
vt 0.8132658004760742 0.04253256320953369
vt 0.8480579853057861 0.042517662048339844
vt 0.8132658004760742 0.04253256320953369
vt 0.7784738540649414 0.042517662048339844
vt 0.8132658004760742 0.04253256320953369
vt 0.8654080629348755 0.07965147495269775
vt 0.8132607936859131 0.07958024740219116
vt 0.7611135244369507 0.07965147495269775
vt 0.8132607936859131 0.07958024740219116
vt 0.8654080629348755 0.07965147495269775
vt 0.8132607936859131 0.07958024740219116
vt 0.7611135244369507 0.07965147495269775
vt 0.8132607936859131 0.07958024740219116
vt 0.8654080629348755 0.07965147495269775
vt 0.8132607936859131 0.07958024740219116
vt 0.7611135244369507 0.07965147495269775
vt 0.8132607936859131 0.07958024740219116
vt 0.8730976581573486 0.12188851833343506
vt 0.8132607936859131 0.12184751033782959
vt 0.7534239292144775 0.12188851833343506
vt 0.8132607936859131 0.12184751033782959
vt 0.8730976581573486 0.12188851833343506
vt 0.8132607936859131 0.12184751033782959
vt 0.7534239292144775 0.12188851833343506
vt 0.8132607936859131 0.12184751033782959
vt 0.8730976581573486 0.12188851833343506
vt 0.8132607936859131 0.12184751033782959
vt 0.7534239292144775 0.12188851833343506
vt 0.8132607936859131 0.12184751033782959
vt 0.8292920589447021 0.021450519561767578
vt 0.8132003545761108 0.021457433700561523
vt 0.7971088886260986 0.021450519561767578
vt 0.8132003545761108 0.021457433700561523
vt 0.8292920589447021 0.021450519561767578
vt 0.8132003545761108 0.021457433700561523
vt 0.7971088886260986 0.021450519561767578
vt 0.8132003545761108 0.021457433700561523
vt 0.8292920589447021 0.021450519561767578
vt 0.8132003545761108 0.021457433700561523
vt 0.7971088886260986 0.021450519561767578
vt 0.8132003545761108 0.021457433700561523
vt 0.8319101333618164 0.02438974380493164
vt 0.8132095336914062 0.024397730827331543
vt 0.7945090532302856 0.02438974380493164
vt 0.8132095336914062 0.024397730827331543
vt 0.8319101333618164 0.02438974380493164
vt 0.8132095336914062 0.024397730827331543
vt 0.7945090532302856 0.02438974380493164
vt 0.8132095336914062 0.024397730827331543
vt 0.8319101333618164 0.02438974380493164
vt 0.8132095336914062 0.024397730827331543
vt 0.7945090532302856 0.02438974380493164
vt 0.8132095336914062 0.024397730827331543
vt 0.8131440877914429 0.005111217498779297
vt 0.8480579853057861 0.042517662048339844
vt 0.8132658004760742 0.04253256320953369
vt 0.7784738540649414 0.042517662048339844
vt 0.8132658004760742 0.04253256320953369
vt 0.8480579853057861 0.042517662048339844
vt 0.8132658004760742 0.04253256320953369
vt 0.7784738540649414 0.042517662048339844
vt 0.8132658004760742 0.04253256320953369
vt 0.8480579853057861 0.042517662048339844
vt 0.8132658004760742 0.04253256320953369
vt 0.7784738540649414 0.042517662048339844
vt 0.8132658004760742 0.04253256320953369
vt 0.8654080629348755 0.07965147495269775
vt 0.8132607936859131 0.07958024740219116
vt 0.7611135244369507 0.07965147495269775
vt 0.8132607936859131 0.07958024740219116
vt 0.8654080629348755 0.07965147495269775
vt 0.8132607936859131 0.07958024740219116
vt 0.7611135244369507 0.07965147495269775
vt 0.8132607936859131 0.07958024740219116
vt 0.8654080629348755 0.07965147495269775
vt 0.8132607936859131 0.07958024740219116
vt 0.7611135244369507 0.07965147495269775
vt 0.8132607936859131 0.07958024740219116
vt 0.8292920589447021 0.021450519561767578
vt 0.8132003545761108 0.021457433700561523
vt 0.7971088886260986 0.021450519561767578
vt 0.8132003545761108 0.021457433700561523
vt 0.8292920589447021 0.021450519561767578
vt 0.8132003545761108 0.021457433700561523
vt 0.7971088886260986 0.021450519561767578
vt 0.8132003545761108 0.021457433700561523
vt 0.8292920589447021 0.021450519561767578
vt 0.8132003545761108 0.021457433700561523
vt 0.7971088886260986 0.021450519561767578
vt 0.8132003545761108 0.021457433700561523
vt 0.8319101333618164 0.02438974380493164
vt 0.8132095336914062 0.024397730827331543
vt 0.7945090532302856 0.02438974380493164
vt 0.8132095336914062 0.024397730827331543
vt 0.8319101333618164 0.02438974380493164
vt 0.8132095336914062 0.024397730827331543
vt 0.7945090532302856 0.02438974380493164
vt 0.8132095336914062 0.024397730827331543
vt 0.8319101333618164 0.02438974380493164
vt 0.8132095336914062 0.024397730827331543
vt 0.7945090532302856 0.02438974380493164
vt 0.8132095336914062 0.024397730827331543
vn 2.782738262041562e-09 -5.565476524083124e-09 1.0
vn -0.04473555460572243 0.7160065174102783 0.696658730506897
vn -0.35476163029670715 0.5879346132278442 0.7269642949104309
vn -0.6012000441551208 0.33178552985191345 0.7269642353057861
vn -0.6865472793579102 -0.013265085406601429 0.7269641757011414
vn -0.5879350304603577 -0.3547612130641937 0.7269642353057861
vn -0.3317857086658478 -0.601199746131897 0.7269642949104309
vn 0.01326497457921505 -0.6865472197532654 0.7269642353057861
vn 0.3547614812850952 -0.5879347324371338 0.7269642949104309
vn 0.6011998057365417 -0.33178579807281494 0.7269642949104309
vn 0.6865472197532654 0.013264946639537811 0.7269642949104309
vn 0.5879349708557129 0.35476112365722656 0.7269642353057861
vn 0.3043975234031677 0.5910385251045227 0.7470044493675232
vn -0.007155467756092548 0.9286291003227234 0.3709404170513153
vn -0.4705112874507904 0.800638735294342 0.3709403872489929
vn -0.8077942132949829 0.4581175148487091 0.37094050645828247
vn -0.9286291599273682 -0.007155564613640308 0.37094032764434814
vn -0.8006389737129211 -0.47051090002059937 0.37094035744667053
vn -0.4581177532672882 -0.8077940940856934 0.37094050645828247
vn 0.0071553695015609264 -0.9286292195320129 0.3709401786327362
vn 0.47051095962524414 -0.8006389141082764 0.37094035744667053
vn 0.8077940344810486 -0.4581179618835449 0.3709406554698944
vn 0.9286290407180786 0.007155213505029678 0.370940625667572
vn 0.8006390333175659 0.470510870218277 0.37094053626060486
vn 0.4581180214881897 0.8077938556671143 0.3709406554698944
vn 0.08896251767873764 0.9960349798202515 2.3304110641220177e-08
vn -0.42097362875938416 0.907072901725769 -1.8125414058545175e-08
vn -0.8181104063987732 0.5750613808631897 1.294672813401121e-08
vn -0.996035099029541 0.08896229416131973 2.589345271530874e-08
vn -0.9070730805397034 -0.4209732115268707 -1.8125414058545175e-08
vn -0.5750617980957031 -0.8181101083755493 1.553607376081345e-08
vn -0.08896232396364212 -0.9960349798202515 1.5536068431742933e-08
vn 0.42097294330596924 -0.9070733189582825 -2.0714761461704256e-08
vn 0.818109929561615 -0.5750618577003479 2.0714761461704256e-08
vn 0.9960349202156067 -0.08896300196647644 2.0714761461704256e-08
vn 0.9070731401443481 0.4209730923175812 -1.8125414058545175e-08
vn 0.5750620365142822 0.818109929561615 2.3304112417577016e-08
vn -0.046324312686920166 0.7023540735244751 0.7103188037872314
vn -0.39129501581192017 0.5850943326950073 0.7103188037872314
vn -0.6314186453819275 0.3110589385032654 0.7103188633918762
vn -0.7023541331291199 -0.04632417857646942 0.7103187441825867
vn -0.5850947499275208 -0.3912947475910187 0.7103187441825867
vn -0.3110593557357788 -0.6314184665679932 0.7103188037872314
vn 0.04632417857646942 -0.7023541331291199 0.7103187441825867
vn 0.39129501581192017 -0.5850944519042969 0.7103187441825867
vn 0.6314186453819275 -0.3110591769218445 0.7103188037872314
vn 0.7023542523384094 0.04632393270730972 0.7103187441825867
vn 0.585094690322876 0.3912946283817291 0.7103187441825867
vn 0.3110593259334564 0.6314185261726379 0.7103188633918762
vn 0.03268777206540108 0.6740097999572754 0.7379988431930542
vn -0.3367767930030823 0.6114973425865173 0.7159975171089172
vn -0.5974058508872986 0.3611839711666107 0.7159974575042725
vn -0.6979606747627258 0.01409154012799263 0.7159974575042725
vn -0.611497700214386 -0.33677640557289124 0.7159974575042725
vn -0.3611842095851898 -0.597405731678009 0.7159974575042725
vn -0.014091654680669308 -0.697960615158081 0.7159975171089172
vn 0.33677661418914795 -0.6114975810050964 0.7159973978996277
vn 0.5974057912826538 -0.36118409037590027 0.7159974575042725
vn 0.6979607343673706 -0.014091771095991135 0.7159974575042725
vn 0.611497700214386 0.3367762565612793 0.7159975171089172
vn 0.40430566668510437 0.6085975170135498 0.6827489733695984
vn 0.0 -5.565476524083124e-09 -1.0
vn -0.04473548009991646 0.7160065174102783 -0.696658730506897
vn -0.35476160049438477 0.587934672832489 -0.7269642949104309
vn -0.6011999249458313 0.33178550004959106 -0.7269643545150757
vn -0.6865472793579102 -0.013264977373182774 -0.7269641757011414
vn -0.5879350304603577 -0.35476112365722656 -0.7269642949104309
vn -0.33178576827049255 -0.6011996865272522 -0.7269643545150757
vn 0.013264834880828857 -0.6865472197532654 -0.7269642353057861
vn 0.3547612726688385 -0.5879347324371338 -0.7269643545150757
vn 0.6011996865272522 -0.3317856788635254 -0.7269643545150757
vn 0.6865471601486206 0.013264891691505909 -0.7269642949104309
vn 0.5879350304603577 0.35476112365722656 -0.7269642949104309
vn 0.30439749360084534 0.5910384654998779 -0.747004508972168
vn -0.007155459374189377 0.9286291599273682 -0.37094053626060486
vn -0.4705113470554352 0.8006387948989868 -0.3709404468536377
vn -0.8077942728996277 0.45811760425567627 -0.37094056606292725
vn -0.9286291003227234 -0.007155538536608219 -0.3709403872489929
vn -0.8006390333175659 -0.4705108106136322 -0.37094032764434814
vn -0.45811784267425537 -0.8077940940856934 -0.3709406554698944
vn 0.007155344355851412 -0.9286291599273682 -0.37094032764434814
vn 0.4705107808113098 -0.8006390333175659 -0.3709403872489929
vn 0.8077939748764038 -0.4581180214881897 -0.3709406852722168
vn 0.9286289811134338 0.0071552167646586895 -0.3709406852722168
vn 0.8006390929222107 0.4705107808113098 -0.37094053626060486
vn 0.4581180214881897 0.8077938556671143 -0.3709406554698944
vn 0.04632503539323807 0.7023540139198303 -0.7103188037872314
vn -0.31105858087539673 0.6314188241958618 -0.7103188037872314
vn -0.5850940942764282 0.3912954330444336 -0.7103188037872314
vn -0.7023541331291199 0.046324945986270905 -0.7103188037872314
vn -0.6314190626144409 -0.3110581636428833 -0.7103188037872314
vn -0.3912958800792694 -0.5850938558578491 -0.7103187441825867
vn -0.04632497578859329 -0.7023541331291199 -0.7103188037872314
vn 0.31105852127075195 -0.6314189434051514 -0.7103187441825867
vn 0.5850940346717834 -0.3912956714630127 -0.7103187441825867
vn 0.7023541331291199 -0.04632505774497986 -0.7103186845779419
vn 0.6314190626144409 0.3110581338405609 -0.7103188037872314
vn 0.39129582047462463 0.5850938558578491 -0.7103188037872314
vn -0.03268711268901825 0.6740097999572754 -0.737998902797699
vn -0.40222665667533875 0.572227954864502 -0.7146809697151184
vn -0.6344525218009949 0.2944507598876953 -0.7146809697151184
vn -0.6966773271560669 -0.062224145978689194 -0.7146809697151184
vn -0.5722282528877258 -0.4022263288497925 -0.7146809101104736
vn -0.2944510281085968 -0.6344522833824158 -0.7146809697151184
vn 0.06222427636384964 -0.6966773271560669 -0.7146810293197632
vn 0.40222644805908203 -0.5722280740737915 -0.7146809697151184
vn 0.6344524025917053 -0.29445087909698486 -0.7146810293197632
vn 0.6966774463653564 0.062224019318819046 -0.7146809101104736
vn 0.5722283124923706 0.40222617983818054 -0.7146809697151184
vn 0.32490938901901245 0.6544370651245117 -0.6827489733695984
f 110/110/110 98/98/98 87/87/87
f 87/87/87 99/99/99 110/110/110
f 109/109/109 97/97/97 98/98/98
f 98/98/98 110/110/110 109/109/109
f 108/108/108 96/96/96 97/97/97
f 97/97/97 109/109/109 108/108/108
f 107/107/107 95/95/95 96/96/96
f 96/96/96 108/108/108 107/107/107
f 106/106/106 94/94/94 95/95/95
f 95/95/95 107/107/107 106/106/106
f 105/105/105 93/93/93 94/94/94
f 94/94/94 106/106/106 105/105/105
f 104/104/104 92/92/92 93/93/93
f 93/93/93 105/105/105 104/104/104
f 103/103/103 91/91/91 92/92/92
f 92/92/92 104/104/104 103/103/103
f 102/102/102 90/90/90 91/91/91
f 91/91/91 103/103/103 102/102/102
f 101/101/101 89/89/89 90/90/90
f 90/90/90 102/102/102 101/101/101
f 100/100/100 88/88/88 89/89/89
f 89/89/89 101/101/101 100/100/100
f 99/99/99 87/87/87 88/88/88
f 88/88/88 100/100/100 99/99/99
f 99/99/99 63/63/63 74/74/74
f 74/74/74 110/110/110 99/99/99
f 109/109/109 110/110/110 74/74/74
f 74/74/74 73/73/73 109/109/109
f 108/108/108 109/109/109 73/73/73
f 73/73/73 72/72/72 108/108/108
f 107/107/107 108/108/108 72/72/72
f 72/72/72 71/71/71 107/107/107
f 106/106/106 107/107/107 71/71/71
f 71/71/71 70/70/70 106/106/106
f 105/105/105 106/106/106 70/70/70
f 70/70/70 69/69/69 105/105/105
f 104/104/104 105/105/105 69/69/69
f 69/69/69 68/68/68 104/104/104
f 103/103/103 104/104/104 68/68/68
f 68/68/68 67/67/67 103/103/103
f 102/102/102 103/103/103 67/67/67
f 67/67/67 66/66/66 102/102/102
f 101/101/101 102/102/102 66/66/66
f 66/66/66 65/65/65 101/101/101
f 100/100/100 101/101/101 65/65/65
f 65/65/65 64/64/64 100/100/100
f 99/99/99 100/100/100 64/64/64
f 64/64/64 63/63/63 99/99/99
f 86/86/86 75/75/75 26/26/26
f 26/26/26 37/37/37 86/86/86
f 85/85/85 86/86/86 37/37/37
f 37/37/37 36/36/36 85/85/85
f 84/84/84 85/85/85 36/36/36
f 36/36/36 35/35/35 84/84/84
f 83/83/83 84/84/84 35/35/35
f 35/35/35 34/34/34 83/83/83
f 82/82/82 83/83/83 34/34/34
f 34/34/34 33/33/33 82/82/82
f 81/81/81 82/82/82 33/33/33
f 33/33/33 32/32/32 81/81/81
f 80/80/80 81/81/81 32/32/32
f 32/32/32 31/31/31 80/80/80
f 79/79/79 80/80/80 31/31/31
f 31/31/31 30/30/30 79/79/79
f 78/78/78 79/79/79 30/30/30
f 30/30/30 29/29/29 78/78/78
f 77/77/77 78/78/78 29/29/29
f 29/29/29 28/28/28 77/77/77
f 76/76/76 77/77/77 28/28/28
f 28/28/28 27/27/27 76/76/76
f 75/75/75 76/76/76 27/27/27
f 27/27/27 26/26/26 75/75/75
f 74/74/74 63/63/63 75/75/75
f 75/75/75 86/86/86 74/74/74
f 73/73/73 74/74/74 86/86/86
f 86/86/86 85/85/85 73/73/73
f 72/72/72 73/73/73 85/85/85
f 85/85/85 84/84/84 72/72/72
f 71/71/71 72/72/72 84/84/84
f 84/84/84 83/83/83 71/71/71
f 70/70/70 71/71/71 83/83/83
f 83/83/83 82/82/82 70/70/70
f 69/69/69 70/70/70 82/82/82
f 82/82/82 81/81/81 69/69/69
f 68/68/68 69/69/69 81/81/81
f 81/81/81 80/80/80 68/68/68
f 67/67/67 68/68/68 80/80/80
f 80/80/80 79/79/79 67/67/67
f 66/66/66 67/67/67 79/79/79
f 79/79/79 78/78/78 66/66/66
f 65/65/65 66/66/66 78/78/78
f 78/78/78 77/77/77 65/65/65
f 64/64/64 65/65/65 77/77/77
f 77/77/77 76/76/76 64/64/64
f 63/63/63 64/64/64 76/76/76
f 76/76/76 75/75/75 63/63/63
f 62/62/62 87/87/87 98/98/98
f 62/62/62 98/98/98 97/97/97
f 62/62/62 97/97/97 96/96/96
f 62/62/62 96/96/96 95/95/95
f 62/62/62 95/95/95 94/94/94
f 62/62/62 94/94/94 93/93/93
f 62/62/62 93/93/93 92/92/92
f 62/62/62 92/92/92 91/91/91
f 62/62/62 91/91/91 90/90/90
f 62/62/62 90/90/90 89/89/89
f 62/62/62 89/89/89 88/88/88
f 62/62/62 88/88/88 87/87/87
f 50/50/50 38/38/38 49/49/49
f 49/49/49 61/61/61 50/50/50
f 61/61/61 49/49/49 48/48/48
f 48/48/48 60/60/60 61/61/61
f 60/60/60 48/48/48 47/47/47
f 47/47/47 59/59/59 60/60/60
f 59/59/59 47/47/47 46/46/46
f 46/46/46 58/58/58 59/59/59
f 58/58/58 46/46/46 45/45/45
f 45/45/45 57/57/57 58/58/58
f 57/57/57 45/45/45 44/44/44
f 44/44/44 56/56/56 57/57/57
f 56/56/56 44/44/44 43/43/43
f 43/43/43 55/55/55 56/56/56
f 55/55/55 43/43/43 42/42/42
f 42/42/42 54/54/54 55/55/55
f 54/54/54 42/42/42 41/41/41
f 41/41/41 53/53/53 54/54/54
f 53/53/53 41/41/41 40/40/40
f 40/40/40 52/52/52 53/53/53
f 52/52/52 40/40/40 39/39/39
f 39/39/39 51/51/51 52/52/52
f 51/51/51 39/39/39 38/38/38
f 38/38/38 50/50/50 51/51/51
f 50/50/50 61/61/61 13/13/13
f 13/13/13 2/2/2 50/50/50
f 60/60/60 12/12/12 13/13/13
f 13/13/13 61/61/61 60/60/60
f 59/59/59 11/11/11 12/12/12
f 12/12/12 60/60/60 59/59/59
f 58/58/58 10/10/10 11/11/11
f 11/11/11 59/59/59 58/58/58
f 57/57/57 9/9/9 10/10/10
f 10/10/10 58/58/58 57/57/57
f 56/56/56 8/8/8 9/9/9
f 9/9/9 57/57/57 56/56/56
f 55/55/55 7/7/7 8/8/8
f 8/8/8 56/56/56 55/55/55
f 54/54/54 6/6/6 7/7/7
f 7/7/7 55/55/55 54/54/54
f 53/53/53 5/5/5 6/6/6
f 6/6/6 54/54/54 53/53/53
f 52/52/52 4/4/4 5/5/5
f 5/5/5 53/53/53 52/52/52
f 51/51/51 3/3/3 4/4/4
f 4/4/4 52/52/52 51/51/51
f 50/50/50 2/2/2 3/3/3
f 3/3/3 51/51/51 50/50/50
f 25/25/25 37/37/37 26/26/26
f 26/26/26 14/14/14 25/25/25
f 24/24/24 36/36/36 37/37/37
f 37/37/37 25/25/25 24/24/24
f 23/23/23 35/35/35 36/36/36
f 36/36/36 24/24/24 23/23/23
f 22/22/22 34/34/34 35/35/35
f 35/35/35 23/23/23 22/22/22
f 21/21/21 33/33/33 34/34/34
f 34/34/34 22/22/22 21/21/21
f 20/20/20 32/32/32 33/33/33
f 33/33/33 21/21/21 20/20/20
f 19/19/19 31/31/31 32/32/32
f 32/32/32 20/20/20 19/19/19
f 18/18/18 30/30/30 31/31/31
f 31/31/31 19/19/19 18/18/18
f 17/17/17 29/29/29 30/30/30
f 30/30/30 18/18/18 17/17/17
f 16/16/16 28/28/28 29/29/29
f 29/29/29 17/17/17 16/16/16
f 15/15/15 27/27/27 28/28/28
f 28/28/28 16/16/16 15/15/15
f 14/14/14 26/26/26 27/27/27
f 27/27/27 15/15/15 14/14/14
f 13/13/13 25/25/25 14/14/14
f 14/14/14 2/2/2 13/13/13
f 12/12/12 24/24/24 25/25/25
f 25/25/25 13/13/13 12/12/12
f 11/11/11 23/23/23 24/24/24
f 24/24/24 12/12/12 11/11/11
f 10/10/10 22/22/22 23/23/23
f 23/23/23 11/11/11 10/10/10
f 9/9/9 21/21/21 22/22/22
f 22/22/22 10/10/10 9/9/9
f 8/8/8 20/20/20 21/21/21
f 21/21/21 9/9/9 8/8/8
f 7/7/7 19/19/19 20/20/20
f 20/20/20 8/8/8 7/7/7
f 6/6/6 18/18/18 19/19/19
f 19/19/19 7/7/7 6/6/6
f 5/5/5 17/17/17 18/18/18
f 18/18/18 6/6/6 5/5/5
f 4/4/4 16/16/16 17/17/17
f 17/17/17 5/5/5 4/4/4
f 3/3/3 15/15/15 16/16/16
f 16/16/16 4/4/4 3/3/3
f 2/2/2 14/14/14 15/15/15
f 15/15/15 3/3/3 2/2/2
f 1/1/1 49/49/49 38/38/38
f 1/1/1 48/48/48 49/49/49
f 1/1/1 47/47/47 48/48/48
f 1/1/1 46/46/46 47/47/47
f 1/1/1 45/45/45 46/46/46
f 1/1/1 44/44/44 45/45/45
f 1/1/1 43/43/43 44/44/44
f 1/1/1 42/42/42 43/43/43
f 1/1/1 41/41/41 42/42/42
f 1/1/1 40/40/40 41/41/41
f 1/1/1 39/39/39 40/40/40
f 1/1/1 38/38/38 39/39/39
