# Recovered local-space geometry; original node transforms not applied
o mesh_0
v -1.0468649634276517e-05 0.0 42.491485595703125
v -6.165425475046504e-06 25.569734573364258 34.319175720214844
v -12.78487491607666 22.144039154052734 34.319175720214844
v -22.14404296875 12.784876823425293 34.319175720214844
v -25.569740295410156 1.571160100866109e-05 34.319175720214844
v -22.144058227539062 -12.784843444824219 34.319175720214844
v -12.78488826751709 -22.144033432006836 34.319175720214844
v -2.603429493319709e-05 -25.569734573364258 34.319175720214844
v 12.78483772277832 -22.1440486907959 34.319175720214844
v 22.144020080566406 -12.784879684448242 34.319175720214844
v 25.569719314575195 -1.8624818039825186e-05 34.319175720214844
v 22.144039154052734 12.784842491149902 34.319175720214844
v 12.784879684448242 22.144023895263672 34.319175720214844
v -4.746603735839017e-06 37.849143981933594 19.69011878967285
v -18.92458152770996 32.77832794189453 19.69011878967285
v -32.77832794189453 18.924591064453125 19.69011878967285
v -37.849151611328125 1.52587890625e-05 19.69011878967285
v -32.778343200683594 -18.92455291748047 19.69011878967285
v -18.92460060119629 -32.77832794189453 19.69011878967285
v -3.335683504701592e-05 -37.849143981933594 19.69011878967285
v 18.92453956604004 -32.778343200683594 19.69011878967285
v 32.77830123901367 -18.924598693847656 19.69011878967285
v 37.84913635253906 -3.0517578125e-05 19.69011878967285
v 32.77832794189453 18.924545288085938 19.69011878967285
v 18.924602508544922 32.77830505371094 19.69011878967285
v -2.9316772724996554e-06 41.52067947387695 0.0
v -20.76034164428711 35.95796203613281 0.0
v -35.957969665527344 20.76035499572754 0.0
v -41.52068328857422 1.7073714843718335e-05 0.0
v -35.957977294921875 -20.760313034057617 0.0
v -20.760364532470703 -35.95795440673828 0.0
v -3.8986458093859255e-05 -41.520668029785156 0.0
v 20.760297775268555 -35.957969665527344 0.0
v 35.95793533325195 -20.7603702545166 0.0
v 41.520668029785156 -3.9961898437468335e-05 0.0
v 35.957969665527344 20.760297775268555 0.0
v 20.760374069213867 35.95793914794922 0.0
v -1.0468649634276517e-05 8.337285939755135e-13 -42.491485595703125
v -3.93004802390351e-06 25.569734573364258 -34.319175720214844
v -12.784873008728027 22.144041061401367 -34.319175720214844
v -22.144041061401367 12.784878730773926 -34.319175720214844
v -25.569740295410156 1.7946978914551437e-05 -34.319175720214844
v -22.144060134887695 -12.784841537475586 -34.319175720214844
v -12.784890174865723 -22.144031524658203 -34.319175720214844
v -2.8269672839087434e-05 -25.569734573364258 -34.319175720214844
v 12.784835815429688 -22.14405059814453 -34.319175720214844
v 22.144018173217773 -12.784881591796875 -34.319175720214844
v 25.569719314575195 -2.0860194126726128e-05 -34.319175720214844
v 22.144041061401367 12.78484058380127 -34.319175720214844
v 12.784881591796875 22.14402198791504 -34.319175720214844
v -1.437726723452215e-06 37.849143981933594 -19.69011878967285
v -18.924577713012695 32.77832794189453 -19.69011878967285
v -32.77832794189453 18.92459487915039 -19.69011878967285
v -37.849151611328125 1.856766721175518e-05 -19.69011878967285
v -32.778343200683594 -18.924549102783203 -19.69011878967285
v -18.924604415893555 -32.77832794189453 -19.69011878967285
v -3.6665711377281696e-05 -37.849143981933594 -19.69011878967285
v 18.924535751342773 -32.778343200683594 -19.69011878967285
v 32.77830123901367 -18.924602508544922 -19.69011878967285
v 37.84913635253906 -3.3826454455265775e-05 -19.69011878967285
v 32.77832794189453 18.924541473388672 -19.69011878967285
v 18.924606323242188 32.77830505371094 -19.69011878967285
vt 0.06311868131160736 0.37870895862579346
vt 0.06311868131160736 0.3956717252731323
vt 0.047963306307792664 0.3956717252731323
vt 0.034506335854530334 0.3956717252731323
vt 0.02189604565501213 0.3956717252731323
vt 0.03450630605220795 0.3956717252731323
vt 0.047963276505470276 0.3956717252731323
vt 0.06311865150928497 0.3956717252731323
vt 0.07827402651309967 0.3956717252731323
vt 0.09173102676868439 0.3956717252731323
vt 0.10434131324291229 0.3956717252731323
vt 0.09173105657100677 0.3956717252731323
vt 0.07827408611774445 0.3956717252731323
vt 0.06311868131160736 0.41487443447113037
vt 0.04308880865573883 0.41487443447113037
vt 0.02356893941760063 0.41487443447113037
vt 0.008637381717562675 0.4148743748664856
vt 0.023568879812955856 0.4148743748664856
vt 0.043088749051094055 0.4148743748664856
vt 0.06311865150928497 0.4148743748664856
vt 0.0831485241651535 0.4148743748664856
vt 0.10266847908496857 0.4148743748664856
vt 0.11759994924068451 0.4148743748664856
vt 0.10266847908496857 0.41487443447113037
vt 0.08314861357212067 0.41487443447113037
vt 0.06311868131160736 0.4380069971084595
vt 0.04114581644535065 0.4380069971084595
vt 0.01973239704966545 0.4380069971084595
vt 0.0033524457830935717 0.4380069971084595
vt 0.01973239704966545 0.4380069971084595
vt 0.04114575684070587 0.4380069971084595
vt 0.06311862170696259 0.4380069971084595
vt 0.0850914865732193 0.4380069971084595
vt 0.1065049022436142 0.4380069971084595
vt 0.12288491427898407 0.4380069971084595
vt 0.10650499165058136 0.4380069971084595
vt 0.08509160578250885 0.4380069971084595
vt 0.06311868131160736 0.4985398054122925
vt 0.06311868131160736 0.4803420901298523
vt 0.04688079655170441 0.4803420901298523
vt 0.032462578266859055 0.4803420901298523
vt 0.018951576203107834 0.4803420901298523
vt 0.03246251866221428 0.4803420901298523
vt 0.04688076674938202 0.4803420901298523
vt 0.06311865150928497 0.4803420901298523
vt 0.07935650646686554 0.4803420901298523
vt 0.09377481043338776 0.4803420901298523
vt 0.10728578269481659 0.4803420901298523
vt 0.09377481043338776 0.4803420901298523
vt 0.07935662567615509 0.4803420901298523
vt 0.06311868131160736 0.4611395597457886
vt 0.04308880865573883 0.4611395597457886
vt 0.02356893941760063 0.4611395597457886
vt 0.008637381717562675 0.4611395597457886
vt 0.023568879812955856 0.4611395597457886
vt 0.043088749051094055 0.4611395597457886
vt 0.06311862170696259 0.4611395597457886
vt 0.0831485241651535 0.4611395597457886
vt 0.10266847908496857 0.4611395597457886
vt 0.11759994924068451 0.4611395597457886
vt 0.10266847908496857 0.4611395597457886
vt 0.08314861357212067 0.4611395597457886
vn -1.046379605185166e-08 -1.700366958345967e-08 1.0
vn -0.04232942685484886 0.6017049551010132 0.7975959777832031
vn -0.337510883808136 0.499926894903183 0.7975960969924927
vn -0.5422565340995789 0.26419395208358765 0.7975960373878479
vn -0.601705014705658 -0.042329341173172 0.7975959777832031
vn -0.4999271631240845 -0.33751046657562256 0.7975960969924927
vn -0.2641940712928772 -0.5422562956809998 0.7975961565971375
vn 0.04232924431562424 -0.6017049551010132 0.7975960373878479
vn 0.3375106751918793 -0.4999270439147949 0.7975960969924927
vn 0.5422563552856445 -0.264194130897522 0.7975960969924927
vn 0.6017048954963684 0.042329251766204834 0.7975960373878479
vn 0.49992725253105164 0.33751046657562256 0.7975960373878479
vn 0.2641943395137787 0.5422564148902893 0.7975960969924927
vn -0.009503180161118507 0.9034202098846436 0.42865094542503357
vn -0.45994001626968384 0.7776333093643188 0.4286509156227112
vn -0.7871365547180176 0.4434799253940582 0.42865118384361267
vn -0.9034202098846436 -0.009503206238150597 0.42865094542503357
vn -0.777633547782898 -0.4599396884441376 0.428650826215744
vn -0.44348016381263733 -0.7871363759040833 0.42865103483200073
vn 0.0095030777156353 -0.9034203290939331 0.42865073680877686
vn 0.4599396884441376 -0.777633547782898 0.4286508560180664
vn 0.7871361970901489 -0.44348037242889404 0.4286511242389679
vn 0.9034201502799988 0.009502891451120377 0.4286510646343231
vn 0.7776336073875427 0.45993950963020325 0.42865094542503357
vn 0.4434804916381836 0.7871362566947937 0.4286511540412903
vn 0.08896256238222122 0.9960349798202515 7.806447932523497e-09
vn -0.4209735691547394 0.907072901725769 -3.903222989265487e-08
vn -0.8181103467941284 0.5750614404678345 7.806447932523497e-09
vn -0.9960349798202515 0.08896233141422272 1.0408595763067297e-08
vn -0.9070731401443481 -0.4209733307361603 -4.4236529106456146e-08
vn -0.5750616788864136 -0.8181100487709045 1.0408595763067297e-08
vn -0.08896242082118988 -0.9960349798202515 1.0408593986710457e-08
vn 0.4209729731082916 -0.9070731997489929 -2.862363501776599e-08
vn 0.818109929561615 -0.5750618577003479 1.0408595763067297e-08
vn 0.9960349202156067 -0.08896299451589584 7.806447044345077e-09
vn 0.9070732593536377 0.4209730625152588 -4.1634383052269186e-08
vn 0.5750620365142822 0.8181098103523254 1.3010746258146355e-08
vn -7.84784770502256e-09 -1.961961793028877e-08 -1.0
vn -0.04232937842607498 0.6017049551010132 -0.7975959777832031
vn -0.3375108242034912 0.49992692470550537 -0.7975960969924927
vn -0.5422564744949341 0.26419398188591003 -0.7975960969924927
vn -0.601705014705658 -0.04232928529381752 -0.7975959777832031
vn -0.49992722272872925 -0.3375104069709778 -0.7975960969924927
vn -0.2641941010951996 -0.5422562956809998 -0.797596275806427
vn 0.04232918843626976 -0.601705014705658 -0.7975960969924927
vn 0.3375105857849121 -0.4999270737171173 -0.7975960969924927
vn 0.5422562956809998 -0.26419416069984436 -0.7975961565971375
vn 0.601705014705658 0.04232918843626976 -0.7975959777832031
vn 0.4999273121356964 0.3375104069709778 -0.7975961565971375
vn 0.2641943395137787 0.5422563552856445 -0.7975961565971375
vn -0.009503169916570187 0.9034202694892883 -0.4286510646343231
vn -0.45993995666503906 0.7776333689689636 -0.4286508858203888
vn -0.787136435508728 0.4434799551963806 -0.4286510944366455
vn -0.9034202098846436 -0.009503190405666828 -0.42865094542503357
vn -0.7776336073875427 -0.4599396288394928 -0.42865079641342163
vn -0.4434801936149597 -0.7871363162994385 -0.42865103483200073
vn 0.00950305163860321 -0.9034202694892883 -0.42865079641342163
vn 0.4599395990371704 -0.7776336669921875 -0.42865076661109924
vn 0.7871363162994385 -0.4434804320335388 -0.4286511242389679
vn 0.9034201502799988 0.009502875618636608 -0.4286510646343231
vn 0.7776336669921875 0.45993945002555847 -0.4286509156227112
vn 0.4434804618358612 0.7871361374855042 -0.4286511242389679
f 62/62/62 51/51/51 26/26/26
f 26/26/26 37/37/37 62/62/62
f 61/61/61 62/62/62 37/37/37
f 37/37/37 36/36/36 61/61/61
f 60/60/60 61/61/61 36/36/36
f 36/36/36 35/35/35 60/60/60
f 59/59/59 60/60/60 35/35/35
f 35/35/35 34/34/34 59/59/59
f 58/58/58 59/59/59 34/34/34
f 34/34/34 33/33/33 58/58/58
f 57/57/57 58/58/58 33/33/33
f 33/33/33 32/32/32 57/57/57
f 56/56/56 57/57/57 32/32/32
f 32/32/32 31/31/31 56/56/56
f 55/55/55 56/56/56 31/31/31
f 31/31/31 30/30/30 55/55/55
f 54/54/54 55/55/55 30/30/30
f 30/30/30 29/29/29 54/54/54
f 53/53/53 54/54/54 29/29/29
f 29/29/29 28/28/28 53/53/53
f 52/52/52 53/53/53 28/28/28
f 28/28/28 27/27/27 52/52/52
f 51/51/51 52/52/52 27/27/27
f 27/27/27 26/26/26 51/51/51
f 50/50/50 39/39/39 51/51/51
f 51/51/51 62/62/62 50/50/50
f 49/49/49 50/50/50 62/62/62
f 62/62/62 61/61/61 49/49/49
f 48/48/48 49/49/49 61/61/61
f 61/61/61 60/60/60 48/48/48
f 47/47/47 48/48/48 60/60/60
f 60/60/60 59/59/59 47/47/47
f 46/46/46 47/47/47 59/59/59
f 59/59/59 58/58/58 46/46/46
f 45/45/45 46/46/46 58/58/58
f 58/58/58 57/57/57 45/45/45
f 44/44/44 45/45/45 57/57/57
f 57/57/57 56/56/56 44/44/44
f 43/43/43 44/44/44 56/56/56
f 56/56/56 55/55/55 43/43/43
f 42/42/42 43/43/43 55/55/55
f 55/55/55 54/54/54 42/42/42
f 41/41/41 42/42/42 54/54/54
f 54/54/54 53/53/53 41/41/41
f 40/40/40 41/41/41 53/53/53
f 53/53/53 52/52/52 40/40/40
f 39/39/39 40/40/40 52/52/52
f 52/52/52 51/51/51 39/39/39
f 38/38/38 39/39/39 50/50/50
f 38/38/38 50/50/50 49/49/49
f 38/38/38 49/49/49 48/48/48
f 38/38/38 48/48/48 47/47/47
f 38/38/38 47/47/47 46/46/46
f 38/38/38 46/46/46 45/45/45
f 38/38/38 45/45/45 44/44/44
f 38/38/38 44/44/44 43/43/43
f 38/38/38 43/43/43 42/42/42
f 38/38/38 42/42/42 41/41/41
f 38/38/38 41/41/41 40/40/40
f 38/38/38 40/40/40 39/39/39
f 25/25/25 37/37/37 26/26/26
f 26/26/26 14/14/14 25/25/25
f 24/24/24 36/36/36 37/37/37
f 37/37/37 25/25/25 24/24/24
f 23/23/23 35/35/35 36/36/36
f 36/36/36 24/24/24 23/23/23
f 22/22/22 34/34/34 35/35/35
f 35/35/35 23/23/23 22/22/22
f 21/21/21 33/33/33 34/34/34
f 34/34/34 22/22/22 21/21/21
f 20/20/20 32/32/32 33/33/33
f 33/33/33 21/21/21 20/20/20
f 19/19/19 31/31/31 32/32/32
f 32/32/32 20/20/20 19/19/19
f 18/18/18 30/30/30 31/31/31
f 31/31/31 19/19/19 18/18/18
f 17/17/17 29/29/29 30/30/30
f 30/30/30 18/18/18 17/17/17
f 16/16/16 28/28/28 29/29/29
f 29/29/29 17/17/17 16/16/16
f 15/15/15 27/27/27 28/28/28
f 28/28/28 16/16/16 15/15/15
f 14/14/14 26/26/26 27/27/27
f 27/27/27 15/15/15 14/14/14
f 13/13/13 25/25/25 14/14/14
f 14/14/14 2/2/2 13/13/13
f 12/12/12 24/24/24 25/25/25
f 25/25/25 13/13/13 12/12/12
f 11/11/11 23/23/23 24/24/24
f 24/24/24 12/12/12 11/11/11
f 10/10/10 22/22/22 23/23/23
f 23/23/23 11/11/11 10/10/10
f 9/9/9 21/21/21 22/22/22
f 22/22/22 10/10/10 9/9/9
f 8/8/8 20/20/20 21/21/21
f 21/21/21 9/9/9 8/8/8
f 7/7/7 19/19/19 20/20/20
f 20/20/20 8/8/8 7/7/7
f 6/6/6 18/18/18 19/19/19
f 19/19/19 7/7/7 6/6/6
f 5/5/5 17/17/17 18/18/18
f 18/18/18 6/6/6 5/5/5
f 4/4/4 16/16/16 17/17/17
f 17/17/17 5/5/5 4/4/4
f 3/3/3 15/15/15 16/16/16
f 16/16/16 4/4/4 3/3/3
f 2/2/2 14/14/14 15/15/15
f 15/15/15 3/3/3 2/2/2
f 1/1/1 13/13/13 2/2/2
f 1/1/1 12/12/12 13/13/13
f 1/1/1 11/11/11 12/12/12
f 1/1/1 10/10/10 11/11/11
f 1/1/1 9/9/9 10/10/10
f 1/1/1 8/8/8 9/9/9
f 1/1/1 7/7/7 8/8/8
f 1/1/1 6/6/6 7/7/7
f 1/1/1 5/5/5 6/6/6
f 1/1/1 4/4/4 5/5/5
f 1/1/1 3/3/3 4/4/4
f 1/1/1 2/2/2 3/3/3
