# Recovered local-space geometry; original node transforms not applied
o mesh_0
v -22.430349349975586 30.874324798583984 5.888999112357851e-06
v -2.960268259048462 35.650604248046875 6.8085905695625115e-06
v 16.509838104248047 30.874332427978516 5.889000476599904e-06
v 30.762929916381836 17.82530403137207 3.465879444775055e-06
v 7.150641441345215 20.119060516357422 -40.418357849121094
v -3.550490140914917 17.42361831665039 -42.30525588989258
v -11.384262084960938 10.059531211853027 -43.686561584472656
v 25.685537338256836 10.059515953063965 -37.15015411376953
v 17.85178565979004 17.42360496520996 -38.53145980834961
v 0.937376856803894 31.468843460083008 -29.257965087890625
v -15.994128227233887 27.252811431884766 -30.739280700683594
v -28.388824462890625 15.734419822692871 -31.823678970336914
v -32.92561340332031 5.5719929150654934e-06 -32.22059631347656
v 30.263612747192383 15.734395027160645 -26.692258834838867
v 17.868898391723633 27.252798080444336 -27.776647567749023
v -1.6062191724777222 35.543495178222656 -15.131400108337402
v -20.772890090942383 30.781564712524414 -15.131397247314453
v -34.803855895996094 17.771745681762695 -15.131401062011719
v 31.591442108154297 17.771738052368164 -15.131401062011719
v 17.560470581054688 30.781557083129883 -15.131397247314453
v -22.430341720581055 -30.874324798583984 -1.0900494999077637e-05
v -2.960261821746826 -35.650604248046875 -1.2533818335214164e-05
v 16.509843826293945 -30.874324798583984 -1.0900494089582935e-05
v 30.762929916381836 -17.825298309326172 -6.3361753745994065e-06
v 35.97992706298828 3.1454649160878034e-06 1.231687747349497e-07
v 10.172454833984375 1.3077608855383005e-05 -46.472652435302734
v 7.150645732879639 -20.119037628173828 -40.41836929321289
v -3.5504870414733887 -17.42359733581543 -42.305267333984375
v -11.384260177612305 -10.059511184692383 -43.68656921386719
v -14.25161361694336 1.0344286238250788e-05 -44.1921501159668
v 28.55289649963379 1.210688060382381e-05 -36.644561767578125
v 25.685543060302734 -10.059492111206055 -37.15016174316406
v 17.851789474487305 -17.423583984375 -38.531471252441406
v 0.9373824000358582 -31.46882438659668 -29.257984161376953
v -15.994125366210938 -27.252798080444336 -30.73929786682129
v -28.388818740844727 -15.734404563903809 -31.823684692382812
v 34.800376892089844 9.938779840013012e-06 -26.295339584350586
v 30.263620376586914 -15.734376907348633 -26.692264556884766
v 17.8689022064209 -27.25278091430664 -27.77666664123535
v -36.683433532714844 -17.82530403137207 -6.336176284094108e-06
v -1.6062127351760864 -35.543487548828125 -15.131418228149414
v -20.772884368896484 -30.781557083129883 -15.131415367126465
v -34.803855895996094 -17.771743774414062 -15.131410598754883
v -39.939552307128906 4.768606345351145e-07 -15.131402969360352
v 36.72713088989258 7.1792746894061565e-06 -15.131402969360352
v 31.591442108154297 -17.7717227935791 -15.131410598754883
v 17.56047821044922 -30.781551361083984 -15.131415367126465
v -2.960254430770874 -6.503797749246587e-07 9.144662271864945e-08
v -36.683433532714844 17.825298309326172 3.4658785352803534e-06
v -41.900428771972656 -3.66305221177754e-06 1.2316763786657248e-07
v -2.960261821746826 -35.650604248046875 -1.2533818335214164e-05
v -22.430341720581055 -30.874324798583984 -1.0900494999077637e-05
v 16.509843826293945 -30.874324798583984 -1.0900494089582935e-05
v 30.762929916381836 -17.825298309326172 -6.3361753745994065e-06
v 35.97992706298828 3.1454649160878034e-06 1.231687747349497e-07
v -36.683433532714844 -17.82530403137207 -6.336176284094108e-06
v -41.900428771972656 -3.66305221177754e-06 1.2316763786657248e-07
v -2.960268259048462 35.650604248046875 6.8085905695625115e-06
v -22.430349349975586 30.874324798583984 5.888999112357851e-06
v 16.509838104248047 30.874332427978516 5.889000476599904e-06
v 30.762929916381836 17.82530403137207 3.465879444775055e-06
v -36.683433532714844 17.825298309326172 3.4658785352803534e-06
vt 0.5368661880493164 0.06069326400756836
vt 0.5616876482963562 0.06069326400756836
vt 0.5876145362854004 0.06069326400756836
vt 0.6073691248893738 0.06069326400756836
vt 0.5749975442886353 0.11060506105422974
vt 0.5623084902763367 0.11293524503707886
vt 0.5513814091682434 0.11464089155197144
vt 0.5998607873916626 0.1067926287651062
vt 0.5881016850471497 0.10758805274963379
vt 0.5667120218276978 0.09682345390319824
vt 0.5451627969741821 0.09865260124206543
vt 0.5294618010520935 0.09999167919158936
vt 0.5164293050765991 0.10032612085342407
vt 0.6067255139350891 0.09365499019622803
vt 0.5893664956092834 0.0949941873550415
vt 0.5634331703186035 0.07937878370285034
vt 0.5390027761459351 0.07937878370285034
vt 0.5211924314498901 0.07937878370285034
vt 0.6084370613098145 0.07937878370285034
vt 0.5889689326286316 0.07937878370285034
vt 0.5368661880493164 0.06069326400756836
vt 0.5616876482963562 0.06069326400756836
vt 0.5876145362854004 0.06069326400756836
vt 0.6073691248893738 0.06069326400756836
vt 0.619344174861908 0.06069326400756836
vt 0.582694411277771 0.1219402551651001
vt 0.5749975442886353 0.11060506105422974
vt 0.5623084902763367 0.11293524503707886
vt 0.5513814091682434 0.11464089155197144
vt 0.5405009984970093 0.1154051423072815
vt 0.6099061965942383 0.10850405693054199
vt 0.5998607873916626 0.1067926287651062
vt 0.5881016850471497 0.10758805274963379
vt 0.5667120218276978 0.09682345390319824
vt 0.5451627969741821 0.09865260124206543
vt 0.5294618010520935 0.09999167919158936
vt 0.6182358264923096 0.0950884222984314
vt 0.6067255139350891 0.09365499019622803
vt 0.5893664956092834 0.0949941873550415
vt 0.5187696814537048 0.06069326400756836
vt 0.5634331703186035 0.07937878370285034
vt 0.5390027761459351 0.07937878370285034
vt 0.5211924314498901 0.07937878370285034
vt 0.5073879957199097 0.07880085706710815
vt 0.6203073859214783 0.07937878370285034
vt 0.6084370613098145 0.07937878370285034
vt 0.5889689326286316 0.07937878370285034
vt 0.5621789693832397 0.2983860373497009
vt 0.5187696814537048 0.06069326400756836
vt 0.5048603415489197 0.05974167585372925
vt 0.5621789693832397 0.2586802840232849
vt 0.5325627326965332 0.263999879360199
vt 0.5917952656745911 0.263999879360199
vt 0.6134757399559021 0.2785332202911377
vt 0.6214114427566528 0.2983860373497009
vt 0.5108821392059326 0.27853310108184814
vt 0.5029464960098267 0.2983860373497009
vt 0.5621789693832397 0.2586802840232849
vt 0.5325627326965332 0.263999879360199
vt 0.5917952656745911 0.263999879360199
vt 0.6134757399559021 0.2785332202911377
vt 0.5108821392059326 0.27853310108184814
vn -0.5449331998825073 0.8357541561126709 -0.06754845380783081
vn -0.0824454203248024 0.996471107006073 -0.015750303864479065
vn 0.3955737352371216 0.9181423187255859 0.02315893955528736
vn 0.7965970635414124 0.602889895439148 0.04423659294843674
vn 0.09650009870529175 0.5755627155303955 -0.8120439052581787
vn -0.1516852229833603 0.46673548221588135 -0.8712919354438782
vn -0.31924301385879517 0.24571675062179565 -0.9152634739875793
vn 0.6128868460655212 0.3563806116580963 -0.7052393555641174
vn 0.3736990690231323 0.5425983667373657 -0.7522872090339661
vn 0.12457416951656342 0.864824652671814 -0.486374169588089
vn -0.2808062434196472 0.7817184925079346 -0.5568339824676514
vn -0.6061901450157166 0.504050612449646 -0.6151962876319885
vn -0.7632680535316467 6.817154485361243e-08 -0.6460819244384766
vn 0.8433094024658203 0.3961436152458191 -0.36317968368530273
vn 0.5318959355354309 0.7371396422386169 -0.41678759455680847
vn 0.006353405304253101 0.9898535013198853 -0.14194953441619873
vn -0.4601007103919983 0.8670852184295654 -0.19097276031970978
vn -0.8238189816474915 0.5152626037597656 -0.23627731204032898
vn 0.8506914973258972 0.5207788944244385 -0.07150907069444656
vn 0.477017879486084 0.8730995655059814 -0.10075275599956512
vn -0.5449329614639282 -0.8357542753219604 -0.06754881143569946
vn -0.08244527876377106 -0.996471107006073 -0.015750782564282417
vn 0.39557376503944397 -0.9181421995162964 0.02315889298915863
vn 0.7965972423553467 -0.6028897166252136 0.0442364476621151
vn 0.9986740350723267 -1.5516992135644614e-08 0.0514800064265728
vn 0.18640807271003723 3.432101038924884e-07 -0.9824724197387695
vn 0.09650018066167831 -0.5755622982978821 -0.8120442032814026
vn -0.1516851782798767 -0.46673500537872314 -0.8712921738624573
vn -0.31924304366111755 -0.24571633338928223 -0.9152635335922241
vn -0.3237130045890808 3.371843604327296e-07 -0.9461554288864136
vn 0.7545027732849121 4.0023377323450404e-07 -0.6562968492507935
vn 0.6128869652748108 -0.35638001561164856 -0.7052395939826965
vn 0.37369900941848755 -0.5425978899002075 -0.7522875666618347
vn 0.12457418441772461 -0.8648243546485901 -0.4863746762275696
vn -0.28080615401268005 -0.7817182540893555 -0.55683434009552
vn -0.6061900854110718 -0.5040503144264221 -0.6151965856552124
vn 0.936581552028656 2.9750640351267066e-07 -0.35044968128204346
vn 0.8433096408843994 -0.39614319801330566 -0.36317962408065796
vn 0.5318961143493652 -0.7371392846107483 -0.4167880117893219
vn -0.8886971473693848 -0.44425326585769653 -0.11338718235492706
vn 0.00635350588709116 -0.9898534417152405 -0.14194995164871216
vn -0.4601007401943207 -0.8670852184295654 -0.1909731775522232
vn -0.8238187432289124 -0.5152627825737 -0.23627766966819763
vn -0.9771033525466919 3.640073131805366e-08 -0.21276527643203735
vn 0.9954444169998169 9.344391571630695e-08 -0.09534470736980438
vn 0.8506914973258972 -0.5207786560058594 -0.07150918245315552
vn 0.4770180583000183 -0.8730993866920471 -0.10075318068265915
vn -2.9862741168784623e-09 -3.5413890486779565e-07 1.0
vn -0.8886972069740295 0.44425317645072937 -0.11338695138692856
vn -0.9917076230049133 1.5516134155291184e-08 -0.12851527333259583
vn -2.9862741168784623e-09 -3.5413890486779565e-07 1.0
vn -2.9862741168784623e-09 -3.5413890486779565e-07 1.0
vn 2.9862285977344527e-09 -3.541388480243768e-07 1.0
vn 3.621688060562178e-09 -3.537381303431175e-07 1.0
vn -8.146027741240403e-10 -3.621310327162064e-07 1.0
vn -3.6216256660281942e-09 -3.537381871865364e-07 1.0
vn 8.146370245043499e-10 -3.621310327162064e-07 1.0
vn -1.0099643343863818e-09 -1.8841598148355843e-07 1.0
vn -1.0099643343863818e-09 -1.8841598148355843e-07 1.0
vn 1.0099658886986163e-09 -1.8841598148355843e-07 1.0
vn -1.2104505175969393e-09 -1.870157291250507e-07 1.0
vn 1.2104669488977038e-09 -1.870157291250507e-07 1.0
f 62/62/62 57/57/57 48/48/48
f 59/59/59 62/62/62 48/48/48
f 55/55/55 61/61/61 48/48/48
f 61/61/61 60/60/60 48/48/48
f 60/60/60 58/58/58 48/48/48
f 58/58/58 59/59/59 48/48/48
f 56/56/56 48/48/48 57/57/57
f 52/52/52 48/48/48 56/56/56
f 55/55/55 48/48/48 54/54/54
f 54/54/54 48/48/48 53/53/53
f 53/53/53 48/48/48 51/51/51
f 51/51/51 48/48/48 52/52/52
f 41/41/41 47/47/47 23/23/23
f 23/23/23 22/22/22 41/41/41
f 47/47/47 46/46/46 24/24/24
f 24/24/24 23/23/23 47/47/47
f 46/46/46 45/45/45 25/25/25
f 25/25/25 24/24/24 46/46/46
f 44/44/44 43/43/43 40/40/40
f 40/40/40 50/50/50 44/44/44
f 43/43/43 42/42/42 21/21/21
f 21/21/21 40/40/40 43/43/43
f 42/42/42 41/41/41 22/22/22
f 22/22/22 21/21/21 42/42/42
f 34/34/34 39/39/39 47/47/47
f 47/47/47 41/41/41 34/34/34
f 39/39/39 38/38/38 46/46/46
f 46/46/46 47/47/47 39/39/39
f 38/38/38 37/37/37 45/45/45
f 45/45/45 46/46/46 38/38/38
f 13/13/13 36/36/36 43/43/43
f 43/43/43 44/44/44 13/13/13
f 36/36/36 35/35/35 42/42/42
f 42/42/42 43/43/43 36/36/36
f 35/35/35 34/34/34 41/41/41
f 41/41/41 42/42/42 35/35/35
f 33/33/33 39/39/39 34/34/34
f 34/34/34 27/27/27 33/33/33
f 32/32/32 38/38/38 39/39/39
f 39/39/39 33/33/33 32/32/32
f 31/31/31 37/37/37 38/38/38
f 38/38/38 32/32/32 31/31/31
f 29/29/29 36/36/36 13/13/13
f 13/13/13 30/30/30 29/29/29
f 28/28/28 35/35/35 36/36/36
f 36/36/36 29/29/29 28/28/28
f 27/27/27 34/34/34 35/35/35
f 35/35/35 28/28/28 27/27/27
f 26/26/26 33/33/33 27/27/27
f 26/26/26 32/32/32 33/33/33
f 26/26/26 31/31/31 32/32/32
f 26/26/26 29/29/29 30/30/30
f 26/26/26 28/28/28 29/29/29
f 26/26/26 27/27/27 28/28/28
f 16/16/16 2/2/2 3/3/3
f 3/3/3 20/20/20 16/16/16
f 20/20/20 3/3/3 4/4/4
f 4/4/4 19/19/19 20/20/20
f 19/19/19 4/4/4 25/25/25
f 25/25/25 45/45/45 19/19/19
f 44/44/44 50/50/50 49/49/49
f 49/49/49 18/18/18 44/44/44
f 18/18/18 49/49/49 1/1/1
f 1/1/1 17/17/17 18/18/18
f 17/17/17 1/1/1 2/2/2
f 2/2/2 16/16/16 17/17/17
f 10/10/10 16/16/16 20/20/20
f 20/20/20 15/15/15 10/10/10
f 15/15/15 20/20/20 19/19/19
f 19/19/19 14/14/14 15/15/15
f 14/14/14 19/19/19 45/45/45
f 45/45/45 37/37/37 14/14/14
f 13/13/13 44/44/44 18/18/18
f 18/18/18 12/12/12 13/13/13
f 12/12/12 18/18/18 17/17/17
f 17/17/17 11/11/11 12/12/12
f 11/11/11 17/17/17 16/16/16
f 16/16/16 10/10/10 11/11/11
f 9/9/9 5/5/5 10/10/10
f 10/10/10 15/15/15 9/9/9
f 8/8/8 9/9/9 15/15/15
f 15/15/15 14/14/14 8/8/8
f 31/31/31 8/8/8 14/14/14
f 14/14/14 37/37/37 31/31/31
f 7/7/7 30/30/30 13/13/13
f 13/13/13 12/12/12 7/7/7
f 6/6/6 7/7/7 12/12/12
f 12/12/12 11/11/11 6/6/6
f 5/5/5 6/6/6 11/11/11
f 11/11/11 10/10/10 5/5/5
f 26/26/26 5/5/5 9/9/9
f 26/26/26 9/9/9 8/8/8
f 26/26/26 8/8/8 31/31/31
f 26/26/26 30/30/30 7/7/7
f 26/26/26 7/7/7 6/6/6
f 26/26/26 6/6/6 5/5/5
