# Recovered local-space geometry; original node transforms not applied
o mesh_0
v -4.528049945831299 -5.464316927827895e-07 42.91028594970703
v -3.020453691482544 8.046659469604492 42.21588897705078
v 1.0983879566192627 13.937225341796875 40.318756103515625
v 6.724827289581299 16.093318939208984 37.727230072021484
v 13.197737693786621 13.937230110168457 35.417938232421875
v 18.50191879272461 8.046667098999023 33.52080154418945
v 20.44338035583496 -8.923655514081474e-06 32.8264045715332
v -21.03293228149414 13.18262004852295 32.310821533203125
v -11.709641456604004 22.83296775817871 29.9191951751709
v -0.37784773111343384 26.365243911743164 27.21661376953125
v 12.59428596496582 22.832969665527344 25.07200813293457
v 22.090545654296875 13.18263053894043 23.50204849243164
v 25.56642723083496 -1.0829044185811654e-05 22.92740249633789
v -32.403236389160156 16.31873893737793 17.016822814941406
v -19.90679359436035 28.264875411987305 16.13017463684082
v -2.8363418579101562 32.63746643066406 14.918988227844238
v 14.234122276306152 28.264869689941406 13.707803726196289
v 26.730562210083008 16.31873321533203 12.821158409118652
v 31.30457878112793 -1.2947543837071862e-05 12.49661922454834
v 17.651641845703125 -7.785007255733944e-06 42.42752456665039
v -3.020458936691284 -8.046659469604492 42.21588897705078
v 1.0983790159225464 -13.937230110168457 40.31875991821289
v 6.724816799163818 -16.093334197998047 37.727230072021484
v 13.197729110717773 -13.937243461608887 35.417938232421875
v 18.501911163330078 -8.046684265136719 33.52080154418945
v -24.445493698120117 5.7115780691674445e-06 33.18622589111328
v -21.03293800354004 -13.182610511779785 32.310821533203125
v -11.709656715393066 -22.832965850830078 29.9191951751709
v -0.37786489725112915 -26.36524772644043 27.216615676879883
v 12.594270706176758 -22.83298110961914 25.072010040283203
v 22.090538024902344 -13.182648658752441 23.502050399780273
v -36.97725296020508 9.417046385351568e-06 17.341360092163086
v -32.40325164794922 -16.318721771240234 17.016820907592773
v -19.906814575195312 -28.264869689941406 16.130176544189453
v -2.8363630771636963 -32.637474060058594 14.918991088867188
v 14.23410415649414 -28.264888763427734 13.707804679870605
v 26.730552673339844 -16.318756103515625 12.821158409118652
v -22.430355072021484 -30.87432098388672 6.069762548577273e-06
v -2.9602537155151367 35.650604248046875 -1.607360218258691e-06
v -22.430335998535156 30.87432861328125 -1.4934478258510353e-06
v -2.960254669189453 3.193189286321285e-07 -6.847621989436448e-06
v 16.509851455688477 30.87432098388672 -1.4934464616089826e-06
v 30.762935638427734 17.825288772583008 -1.1822303349617869e-06
v 35.97992706298828 -1.376479758619098e-05 -7.571011906293279e-07
v -36.68342971801758 17.8253116607666 -1.1822323813248659e-06
v -41.900428771972656 1.1611842637648806e-05 -7.571032938358258e-07
v -2.9602768421173096 -35.650604248046875 6.183675850479631e-06
v 16.509830474853516 -30.87433624267578 6.069763458071975e-06
v 30.762922286987305 -17.825313568115234 5.758547558798455e-06
v -36.683441162109375 -17.82529067993164 5.7585452850617e-06
v -2.9602537155151367 35.650604248046875 -1.607360218258691e-06
v -22.430335998535156 30.87432861328125 -1.4934478258510353e-06
v 16.509851455688477 30.87432098388672 -1.4934464616089826e-06
v 30.762935638427734 17.825288772583008 -1.1822303349617869e-06
v 35.97992706298828 -1.376479758619098e-05 -7.571011906293279e-07
v -36.68342971801758 17.8253116607666 -1.1822323813248659e-06
v -41.900428771972656 1.1611842637648806e-05 -7.571032938358258e-07
v -2.9602768421173096 -35.650604248046875 6.183675850479631e-06
v -22.430355072021484 -30.87432098388672 6.069762548577273e-06
v 16.509830474853516 -30.87433624267578 6.069763458071975e-06
v 30.762922286987305 -17.825313568115234 5.758547558798455e-06
v -36.683441162109375 -17.82529067993164 5.7585452850617e-06
vt 0.5478646755218506 0.0053372979164123535
vt 0.5575515627861023 0.00821298360824585
vt 0.5652178525924683 0.010555803775787354
vt 0.5745578408241272 0.013756215572357178
vt 0.5838977694511414 0.01695626974105835
vt 0.5915640592575073 0.019299089908599854
vt 0.59853196144104 0.020156562328338623
vt 0.5366064310073853 0.022496938705444336
vt 0.5485711693763733 0.024435579776763916
vt 0.5650165677070618 0.027084052562713623
vt 0.5833961367607117 0.02973228693008423
vt 0.5961899757385254 0.031670987606048584
vt 0.6059206128120422 0.03238070011138916
vt 0.5242869853973389 0.03967958688735962
vt 0.5401191711425781 0.04077434539794922
vt 0.561847448348999 0.04227006435394287
vt 0.5846810340881348 0.04376578330993652
vt 0.6021712422370911 0.0448606014251709
vt 0.6133173108100891 0.045261383056640625
vt 0.589538037776947 0.0030909180641174316
vt 0.5575515627861023 0.00821298360824585
vt 0.5652178525924683 0.010555803775787354
vt 0.5745578408241272 0.013756215572357178
vt 0.5838977694511414 0.01695626974105835
vt 0.5915640592575073 0.019299089908599854
vt 0.524941623210907 0.020057737827301025
vt 0.5366064310073853 0.022496938705444336
vt 0.5485711693763733 0.024435579776763916
vt 0.5650165677070618 0.027084052562713623
vt 0.5833961367607117 0.02973228693008423
vt 0.5961899757385254 0.031670987606048584
vt 0.5112066864967346 0.03789883852005005
vt 0.5242869853973389 0.03967958688735962
vt 0.5401191711425781 0.04077434539794922
vt 0.561847448348999 0.04227006435394287
vt 0.5846810340881348 0.04376578330993652
vt 0.6021712422370911 0.0448606014251709
vt 0.5368661880493164 0.06069326400756836
vt 0.5616876482963562 0.06069326400756836
vt 0.5368661880493164 0.06069326400756836
vt 0.5621789693832397 0.2983860373497009
vt 0.5876145362854004 0.06069326400756836
vt 0.6073691248893738 0.06069326400756836
vt 0.619344174861908 0.06069326400756836
vt 0.5187696814537048 0.06069326400756836
vt 0.5048603415489197 0.05974167585372925
vt 0.5616876482963562 0.06069326400756836
vt 0.5876145362854004 0.06069326400756836
vt 0.6073691248893738 0.06069326400756836
vt 0.5187696814537048 0.06069326400756836
vt 0.5621789693832397 0.2586802840232849
vt 0.5325627326965332 0.263999879360199
vt 0.5917952656745911 0.263999879360199
vt 0.6134757399559021 0.2785332202911377
vt 0.6214114427566528 0.2983860373497009
vt 0.5108821392059326 0.27853310108184814
vt 0.5029464960098267 0.2983860373497009
vt 0.5621789693832397 0.2586802840232849
vt 0.5325627326965332 0.263999879360199
vt 0.5917952656745911 0.263999879360199
vt 0.6134757399559021 0.2785332202911377
vt 0.5108821392059326 0.27853310108184814
vn -0.29417943954467773 1.4901945633027935e-07 0.9557502269744873
vn -0.199606254696846 0.3067556321620941 0.9306225776672363
vn -0.00317783304490149 0.5429292917251587 0.8397724032402039
vn 0.29866111278533936 0.6435289978981018 0.704749584197998
vn 0.6044760346412659 0.5603383779525757 0.5662418007850647
vn 0.8405537009239197 0.3164544701576233 0.4396885931491852
vn 0.9284536242485046 -3.031933033526002e-07 0.3714483976364136
vn -0.5637254118919373 0.337846577167511 0.7537063956260681
vn -0.3351879417896271 0.6650780439376831 0.6673232316970825
vn 0.038977138698101044 0.8304047584533691 0.5557955503463745
vn 0.4523147940635681 0.75141441822052 0.48040372133255005
vn 0.758715808391571 0.46458694338798523 0.4566281735897064
vn 0.8895250558853149 -2.622851695832651e-07 0.4568866193294525
vn -0.7539404034614563 0.5192583203315735 0.4024234712123871
vn -0.35237762331962585 0.8625103235244751 0.36318862438201904
vn 0.08143573999404907 0.932776927947998 0.3511347770690918
vn 0.4747951626777649 0.8125633597373962 0.3380981385707855
vn 0.7952189445495605 0.4697519838809967 0.3833535611629486
vn 0.9216852188110352 -2.887295806885959e-07 0.38793861865997314
vn 0.4891809821128845 -1.5540052800133708e-07 0.872182309627533
vn -0.1996065229177475 -0.3067553639411926 0.9306225776672363
vn -0.0031780973076820374 -0.5429292917251587 0.8397724032402039
vn 0.29866084456443787 -0.6435292959213257 0.7047495245933533
vn 0.6044756174087524 -0.5603386759757996 0.5662418007850647
vn 0.8405535221099854 -0.31645509600639343 0.43968871235847473
vn -0.6259029507637024 5.836301042450032e-08 0.7799009680747986
vn -0.5637255907058716 -0.3378461003303528 0.7537065148353577
vn -0.3351883590221405 -0.6650777459144592 0.6673232913017273
vn 0.03897661715745926 -0.8304046988487244 0.5557957291603088
vn 0.4523143172264099 -0.7514145970344543 0.480403870344162
vn 0.7587155103683472 -0.46458742022514343 0.4566282033920288
vn -0.8563627004623413 2.8431148280105845e-07 0.5163747668266296
vn -0.7539408802986145 -0.5192577838897705 0.40242359042167664
vn -0.3523782789707184 -0.8625100255012512 0.36318862438201904
vn 0.08143506199121475 -0.932776927947998 0.35113492608070374
vn 0.4747947156429291 -0.8125636577606201 0.33809807896614075
vn 0.7952186465263367 -0.4697524309158325 0.3833535611629486
vn -0.5335347652435303 -0.8169263601303101 0.21902501583099365
vn 0.0062819840386509895 0.9788867235183716 0.204306960105896
vn -0.5335343480110168 0.8169266581535339 0.21902504563331604
vn -4.190910729562347e-08 1.4698946415592218e-07 -1.0
vn 0.5346386432647705 0.8049623370170593 0.25728821754455566
vn 0.8477944731712341 0.4199773371219635 0.32382646203041077
vn 0.9365970492362976 -2.41550253576861e-07 0.35040828585624695
vn -0.8209076523780823 0.5125222206115723 0.25185638666152954
vn -0.9627967476844788 3.3160290513478685e-07 0.27022668719291687
vn 0.006281307898461819 -0.9788867831230164 0.20430658757686615
vn 0.5346382260322571 -0.8049627542495728 0.25728803873062134
vn 0.8477941751480103 -0.41997793316841125 0.32382652163505554
vn -0.8209080100059509 -0.5125217437744141 0.2518562078475952
vn -4.190910729562347e-08 1.4698946415592218e-07 -1.0
vn -4.190910729562347e-08 1.4698946415592218e-07 -1.0
vn 4.190914992818762e-08 1.4698943573421275e-07 -1.0
vn 1.1449800751961448e-07 1.0121308946509089e-07 -1.0
vn 1.5640711126252427e-07 2.1926453541709634e-08 -1.0
vn -1.1449787251649468e-07 1.0121328131162954e-07 -1.0
vn -1.564070544191054e-07 2.192649617427378e-08 -1.0
vn -8.38184561757771e-08 -3.6552805227074714e-07 -1.0
vn -8.38184561757771e-08 -3.6552805227074714e-07 -1.0
vn 8.381815064240072e-08 -3.6552813753587543e-07 -1.0
vn 2.2899584450897237e-07 -2.7397567237130716e-07 -1.0
vn -2.289959724066648e-07 -2.7397555868446943e-07 -1.0
f 62/62/62 57/57/57 41/41/41
f 59/59/59 62/62/62 41/41/41
f 55/55/55 61/61/61 41/41/41
f 61/61/61 60/60/60 41/41/41
f 60/60/60 58/58/58 41/41/41
f 58/58/58 59/59/59 41/41/41
f 56/56/56 41/41/41 57/57/57
f 52/52/52 41/41/41 56/56/56
f 55/55/55 41/41/41 54/54/54
f 54/54/54 41/41/41 53/53/53
f 53/53/53 41/41/41 51/51/51
f 51/51/51 41/41/41 52/52/52
f 19/19/19 37/37/37 49/49/49
f 49/49/49 44/44/44 19/19/19
f 37/37/37 36/36/36 48/48/48
f 48/48/48 49/49/49 37/37/37
f 36/36/36 35/35/35 47/47/47
f 47/47/47 48/48/48 36/36/36
f 47/47/47 35/35/35 34/34/34
f 34/34/34 38/38/38 47/47/47
f 38/38/38 34/34/34 33/33/33
f 33/33/33 50/50/50 38/38/38
f 33/33/33 32/32/32 46/46/46
f 46/46/46 50/50/50 33/33/33
f 13/13/13 31/31/31 37/37/37
f 37/37/37 19/19/19 13/13/13
f 31/31/31 30/30/30 36/36/36
f 36/36/36 37/37/37 31/31/31
f 30/30/30 29/29/29 35/35/35
f 35/35/35 36/36/36 30/30/30
f 29/29/29 28/28/28 34/34/34
f 34/34/34 35/35/35 29/29/29
f 28/28/28 27/27/27 33/33/33
f 33/33/33 34/34/34 28/28/28
f 27/27/27 26/26/26 32/32/32
f 32/32/32 33/33/33 27/27/27
f 25/25/25 31/31/31 13/13/13
f 13/13/13 7/7/7 25/25/25
f 24/24/24 30/30/30 31/31/31
f 31/31/31 25/25/25 24/24/24
f 23/23/23 29/29/29 30/30/30
f 30/30/30 24/24/24 23/23/23
f 22/22/22 28/28/28 29/29/29
f 29/29/29 23/23/23 22/22/22
f 21/21/21 27/27/27 28/28/28
f 28/28/28 22/22/22 21/21/21
f 1/1/1 26/26/26 27/27/27
f 27/27/27 21/21/21 1/1/1
f 20/20/20 25/25/25 7/7/7
f 20/20/20 24/24/24 25/25/25
f 20/20/20 23/23/23 24/24/24
f 20/20/20 22/22/22 23/23/23
f 20/20/20 21/21/21 22/22/22
f 20/20/20 1/1/1 21/21/21
f 19/19/19 44/44/44 43/43/43
f 43/43/43 18/18/18 19/19/19
f 18/18/18 43/43/43 42/42/42
f 42/42/42 17/17/17 18/18/18
f 17/17/17 42/42/42 39/39/39
f 39/39/39 16/16/16 17/17/17
f 39/39/39 40/40/40 15/15/15
f 15/15/15 16/16/16 39/39/39
f 40/40/40 45/45/45 14/14/14
f 14/14/14 15/15/15 40/40/40
f 14/14/14 45/45/45 46/46/46
f 46/46/46 32/32/32 14/14/14
f 13/13/13 19/19/19 18/18/18
f 18/18/18 12/12/12 13/13/13
f 12/12/12 18/18/18 17/17/17
f 17/17/17 11/11/11 12/12/12
f 11/11/11 17/17/17 16/16/16
f 16/16/16 10/10/10 11/11/11
f 10/10/10 16/16/16 15/15/15
f 15/15/15 9/9/9 10/10/10
f 9/9/9 15/15/15 14/14/14
f 14/14/14 8/8/8 9/9/9
f 8/8/8 14/14/14 32/32/32
f 32/32/32 26/26/26 8/8/8
f 6/6/6 7/7/7 13/13/13
f 13/13/13 12/12/12 6/6/6
f 5/5/5 6/6/6 12/12/12
f 12/12/12 11/11/11 5/5/5
f 4/4/4 5/5/5 11/11/11
f 11/11/11 10/10/10 4/4/4
f 3/3/3 4/4/4 10/10/10
f 10/10/10 9/9/9 3/3/3
f 2/2/2 3/3/3 9/9/9
f 9/9/9 8/8/8 2/2/2
f 1/1/1 2/2/2 8/8/8
f 8/8/8 26/26/26 1/1/1
f 20/20/20 7/7/7 6/6/6
f 20/20/20 6/6/6 5/5/5
f 20/20/20 5/5/5 4/4/4
f 20/20/20 4/4/4 3/3/3
f 20/20/20 3/3/3 2/2/2
f 20/20/20 2/2/2 1/1/1
