# Recovered local-space geometry; original node transforms not applied
o mesh_0
v -4.528049945831299 -5.464316927827895e-07 42.91028594970703
v -3.020453691482544 8.046659469604492 42.21588897705078
v 1.0983879566192627 13.937225341796875 40.318756103515625
v 6.724827289581299 16.093318939208984 37.727230072021484
v 13.197737693786621 13.937230110168457 35.417938232421875
v 18.50191879272461 8.046667098999023 33.52080154418945
v 20.44338035583496 -8.923655514081474e-06 32.8264045715332
v -21.03293228149414 13.18262004852295 32.310821533203125
v -11.709641456604004 22.83296775817871 29.9191951751709
v -0.37784773111343384 26.365243911743164 27.21661376953125
v 12.59428596496582 22.832969665527344 25.07200813293457
v 22.090545654296875 13.18263053894043 23.50204849243164
v 25.56642723083496 -1.0829044185811654e-05 22.92740249633789
v -32.403236389160156 16.31873893737793 17.016822814941406
v -19.90679359436035 28.264875411987305 16.13017463684082
v -2.8363418579101562 32.63746643066406 14.918988227844238
v 14.234122276306152 28.264869689941406 13.707803726196289
v 26.730562210083008 16.31873321533203 12.821158409118652
v 31.30457878112793 -1.2947543837071862e-05 12.49661922454834
v 17.651641845703125 -7.785007255733944e-06 42.42752456665039
v -3.020458936691284 -8.046659469604492 42.21588897705078
v 1.0983790159225464 -13.937230110168457 40.31875991821289
v 6.724816799163818 -16.093334197998047 37.727230072021484
v 13.197729110717773 -13.937243461608887 35.417938232421875
v 18.501911163330078 -8.046684265136719 33.52080154418945
v -24.445493698120117 5.7115780691674445e-06 33.18622589111328
v -21.03293800354004 -13.182610511779785 32.310821533203125
v -11.709656715393066 -22.832965850830078 29.9191951751709
v -0.37786489725112915 -26.36524772644043 27.216615676879883
v 12.594270706176758 -22.83298110961914 25.072010040283203
v 22.090538024902344 -13.182648658752441 23.502050399780273
v -36.97725296020508 9.417046385351568e-06 17.341360092163086
v -32.40325164794922 -16.318721771240234 17.016820907592773
v -19.906814575195312 -28.264869689941406 16.130176544189453
v -2.8363630771636963 -32.637474060058594 14.918991088867188
v 14.23410415649414 -28.264888763427734 13.707804679870605
v 26.730552673339844 -16.318756103515625 12.821158409118652
v 16.509845733642578 30.87432861328125 2.197776439061272e-06
v 30.7629337310791 17.82529640197754 1.1418246685934719e-06
v 35.97992706298828 -5.309665993991075e-06 -3.169662079471891e-07
v 16.509838104248047 -30.87432861328125 -2.4153662252501817e-06
v 30.76292610168457 -17.825305938720703 -2.888140784307325e-07
v -22.430341720581055 30.87432861328125 2.1977750748192193e-06
v -2.960261106491089 35.650604248046875 2.6006161988334497e-06
v 7.150640964508057 20.119060516357422 -40.418357849121094
v -3.550490140914917 17.42361831665039 -42.30525588989258
v -11.384261131286621 10.059531211853027 -43.68655776977539
v 25.685535430908203 10.059515953063965 -37.15015411376953
v 17.85178565979004 17.423603057861328 -38.53145980834961
v 0.937376856803894 31.468843460083008 -29.257965087890625
v -15.994128227233887 27.252809524536133 -30.73927879333496
v -28.388826370239258 15.734420776367188 -31.823678970336914
v -32.92561340332031 5.5719924603181425e-06 -32.22059631347656
v 30.263612747192383 15.734394073486328 -26.692256927490234
v 17.868898391723633 27.252798080444336 -27.77664566040039
v -1.6062192916870117 35.543495178222656 -15.131400108337402
v -20.772890090942383 30.781566619873047 -15.131396293640137
v -34.803855895996094 17.771747589111328 -15.131401062011719
v 31.591442108154297 17.771739959716797 -15.131401062011719
v 17.560470581054688 30.781558990478516 -15.131396293640137
v -22.430349349975586 -30.87432098388672 -2.4153666799975326e-06
v -2.9602694511413574 -35.650604248046875 -3.1750716971146176e-06
v 10.172454833984375 1.3077609764877707e-05 -46.472652435302734
v 7.150646209716797 -20.119037628173828 -40.41836929321289
v -3.5504870414733887 -17.42359733581543 -42.30526351928711
v -11.384261131286621 -10.0595121383667 -43.68657302856445
v -14.25161361694336 1.0344286238250788e-05 -44.1921501159668
v 28.55289649963379 1.210688060382381e-05 -36.644561767578125
v 25.685544967651367 -10.059492111206055 -37.15016555786133
v 17.851787567138672 -17.423585891723633 -38.531471252441406
v 0.9373824000358582 -31.46882438659668 -29.257984161376953
v -15.994125366210938 -27.25279998779297 -30.739301681518555
v -28.388816833496094 -15.734403610229492 -31.823686599731445
v 34.800376892089844 9.938779840013012e-06 -26.295339584350586
v 30.263620376586914 -15.734378814697266 -26.692264556884766
v 17.8689022064209 -27.25278091430664 -27.776668548583984
v -36.68343734741211 -17.825298309326172 -2.8881544267278514e-07
v -1.6062126159667969 -35.54349136352539 -15.131417274475098
v -20.77288246154785 -30.78155517578125 -15.131415367126465
v -34.803855895996094 -17.77174186706543 -15.131410598754883
v -39.939552307128906 4.768608050653711e-07 -15.131402969360352
v 36.72713088989258 7.17927650839556e-06 -15.131402969360352
v 31.591440200805664 -17.77172088623047 -15.131410598754883
v 17.56047821044922 -30.781551361083984 -15.131415367126465
v -36.68342971801758 17.82530403137207 1.1418230769777438e-06
v -41.900428771972656 3.9743954403093085e-06 -3.169677995629172e-07
vt 0.5478646755218506 0.0053372979164123535
vt 0.5575515627861023 0.00821298360824585
vt 0.5652178525924683 0.010555803775787354
vt 0.5745578408241272 0.013756215572357178
vt 0.5838977694511414 0.01695626974105835
vt 0.5915640592575073 0.019299089908599854
vt 0.59853196144104 0.020156562328338623
vt 0.5366064310073853 0.022496938705444336
vt 0.5485711693763733 0.024435579776763916
vt 0.5650165677070618 0.027084052562713623
vt 0.5833961367607117 0.02973228693008423
vt 0.5961899757385254 0.031670987606048584
vt 0.6059206128120422 0.03238070011138916
vt 0.5242869853973389 0.03967958688735962
vt 0.5401191711425781 0.04077434539794922
vt 0.561847448348999 0.04227006435394287
vt 0.5846810340881348 0.04376578330993652
vt 0.6021712422370911 0.0448606014251709
vt 0.6133173108100891 0.045261383056640625
vt 0.589538037776947 0.0030909180641174316
vt 0.5575515627861023 0.00821298360824585
vt 0.5652178525924683 0.010555803775787354
vt 0.5745578408241272 0.013756215572357178
vt 0.5838977694511414 0.01695626974105835
vt 0.5915640592575073 0.019299089908599854
vt 0.524941623210907 0.020057737827301025
vt 0.5366064310073853 0.022496938705444336
vt 0.5485711693763733 0.024435579776763916
vt 0.5650165677070618 0.027084052562713623
vt 0.5833961367607117 0.02973228693008423
vt 0.5961899757385254 0.031670987606048584
vt 0.5112066864967346 0.03789883852005005
vt 0.5242869853973389 0.03967958688735962
vt 0.5401191711425781 0.04077434539794922
vt 0.561847448348999 0.04227006435394287
vt 0.5846810340881348 0.04376578330993652
vt 0.6021712422370911 0.0448606014251709
vt 0.5876145362854004 0.06069326400756836
vt 0.6073691248893738 0.06069326400756836
vt 0.619344174861908 0.06069326400756836
vt 0.5876145362854004 0.06069326400756836
vt 0.6073691248893738 0.06069326400756836
vt 0.5368661880493164 0.06069326400756836
vt 0.5616876482963562 0.06069326400756836
vt 0.5749975442886353 0.11060506105422974
vt 0.5623084902763367 0.11293524503707886
vt 0.5513814091682434 0.11464089155197144
vt 0.5998607873916626 0.1067926287651062
vt 0.5881016850471497 0.10758805274963379
vt 0.5667120218276978 0.09682345390319824
vt 0.5451627969741821 0.09865260124206543
vt 0.5294618010520935 0.09999167919158936
vt 0.5164293050765991 0.10032612085342407
vt 0.6067255139350891 0.09365499019622803
vt 0.5893664956092834 0.0949941873550415
vt 0.5634331703186035 0.07937878370285034
vt 0.5390027761459351 0.07937878370285034
vt 0.5211924314498901 0.07937878370285034
vt 0.6084370613098145 0.07937878370285034
vt 0.5889689326286316 0.07937878370285034
vt 0.5368661880493164 0.06069326400756836
vt 0.5616876482963562 0.06069326400756836
vt 0.582694411277771 0.1219402551651001
vt 0.5749975442886353 0.11060506105422974
vt 0.5623084902763367 0.11293524503707886
vt 0.5513814091682434 0.11464089155197144
vt 0.5405009984970093 0.1154051423072815
vt 0.6099061965942383 0.10850405693054199
vt 0.5998607873916626 0.1067926287651062
vt 0.5881016850471497 0.10758805274963379
vt 0.5667120218276978 0.09682345390319824
vt 0.5451627969741821 0.09865260124206543
vt 0.5294618010520935 0.09999167919158936
vt 0.6182358264923096 0.0950884222984314
vt 0.6067255139350891 0.09365499019622803
vt 0.5893664956092834 0.0949941873550415
vt 0.5187696814537048 0.06069326400756836
vt 0.5634331703186035 0.07937878370285034
vt 0.5390027761459351 0.07937878370285034
vt 0.5211924314498901 0.07937878370285034
vt 0.5073879957199097 0.07880085706710815
vt 0.6203073859214783 0.07937878370285034
vt 0.6084370613098145 0.07937878370285034
vt 0.5889689326286316 0.07937878370285034
vt 0.5187696814537048 0.06069326400756836
vt 0.5048603415489197 0.05974167585372925
vn -0.29417943954467773 1.4901945633027935e-07 0.9557502269744873
vn -0.199606254696846 0.3067556321620941 0.9306225776672363
vn -0.00317783304490149 0.5429292917251587 0.8397724032402039
vn 0.29866111278533936 0.6435289978981018 0.704749584197998
vn 0.6044760346412659 0.5603383779525757 0.5662418007850647
vn 0.8405537009239197 0.3164544701576233 0.4396885931491852
vn 0.9284536242485046 -3.031933033526002e-07 0.3714483976364136
vn -0.5637254118919373 0.337846577167511 0.7537063956260681
vn -0.3351879417896271 0.6650780439376831 0.6673232316970825
vn 0.038977138698101044 0.8304047584533691 0.5557955503463745
vn 0.4523147940635681 0.75141441822052 0.48040372133255005
vn 0.758715808391571 0.46458694338798523 0.4566281735897064
vn 0.8895250558853149 -2.622851695832651e-07 0.4568866193294525
vn -0.7539404630661011 0.5192582607269287 0.4024234712123871
vn -0.35237765312194824 0.8625102639198303 0.3631886839866638
vn 0.08143573999404907 0.9327768087387085 0.3511348068714142
vn 0.47479507327079773 0.8125633597373962 0.3380982279777527
vn 0.7952188849449158 0.4697519838809967 0.3833536207675934
vn 0.9216852188110352 -2.6301822231289407e-07 0.38793861865997314
vn 0.4891809821128845 -1.5540052800133708e-07 0.872182309627533
vn -0.1996065229177475 -0.3067553639411926 0.9306225776672363
vn -0.0031780973076820374 -0.5429292917251587 0.8397724032402039
vn 0.29866084456443787 -0.6435292959213257 0.7047495245933533
vn 0.6044756174087524 -0.5603386759757996 0.5662418007850647
vn 0.8405535221099854 -0.31645509600639343 0.43968871235847473
vn -0.6259029507637024 5.836301042450032e-08 0.7799009680747986
vn -0.5637255907058716 -0.3378461003303528 0.7537065148353577
vn -0.3351883590221405 -0.6650777459144592 0.6673232913017273
vn 0.03897661715745926 -0.8304046988487244 0.5557957291603088
vn 0.4523143172264099 -0.7514145970344543 0.480403870344162
vn 0.7587155103683472 -0.46458742022514343 0.4566282033920288
vn -0.8563627004623413 2.8431148280105845e-07 0.5163747668266296
vn -0.753940761089325 -0.5192577838897705 0.4024235010147095
vn -0.3523782789707184 -0.8625102043151855 0.3631885349750519
vn 0.08143503963947296 -0.9327768683433533 0.3511348366737366
vn 0.47479480504989624 -0.8125636577606201 0.3380979895591736
vn 0.7952187061309814 -0.4697524309158325 0.38335347175598145
vn 0.47021904587745667 0.871095597743988 0.14172764122486115
vn 0.8342151641845703 0.5188266038894653 0.1868262141942978
vn 0.9882259964942932 -1.1993832060852583e-07 0.15300185978412628
vn 0.4702187180519104 -0.8710957169532776 0.14172717928886414
vn 0.8342151045799255 -0.5188267827033997 0.18682587146759033
vn -0.5448864698410034 0.8350025415420532 0.07661283761262894
vn -0.03203370422124863 0.9933485388755798 0.11060092598199844
vn 0.09650010615587234 0.5755627155303955 -0.8120439052581787
vn -0.1516852229833603 0.46673548221588135 -0.8712919354438782
vn -0.31924304366111755 0.24571678042411804 -0.9152635335922241
vn 0.6128867864608765 0.3563806414604187 -0.7052394151687622
vn 0.3736990690231323 0.542598307132721 -0.7522872686386108
vn 0.12457412481307983 0.864824652671814 -0.486374169588089
vn -0.28080621361732483 0.7817184925079346 -0.5568339824676514
vn -0.6061901450157166 0.5040505528450012 -0.6151963472366333
vn -0.7632680535316467 8.264589013151635e-08 -0.6460819244384766
vn 0.8433094620704651 0.3961435556411743 -0.36317968368530273
vn 0.5318959951400757 0.7371395826339722 -0.4167875647544861
vn 0.0063534206710755825 0.9898535013198853 -0.14194950461387634
vn -0.4601007103919983 0.8670852184295654 -0.1909727156162262
vn -0.8238188624382019 0.5152626037597656 -0.236277237534523
vn 0.8506914377212524 0.5207787752151489 -0.0715089961886406
vn 0.47701790928840637 0.8730995655059814 -0.10075268149375916
vn -0.5448866486549377 -0.8350024223327637 0.07661247998476028
vn -0.03203403949737549 -0.9933485984802246 0.11060032993555069
vn 0.18640802800655365 3.685133265207696e-07 -0.9824724197387695
vn 0.09650012105703354 -0.5755621790885925 -0.8120443224906921
vn -0.15168513357639313 -0.4667350649833679 -0.8712921738624573
vn -0.3192429840564728 -0.24571643769741058 -0.9152635335922241
vn -0.3237130045890808 5.539104677154683e-07 -0.9461554288864136
vn 0.7545027732849121 4.7531835889458307e-07 -0.6562968492507935
vn 0.6128869652748108 -0.35638001561164856 -0.7052395939826965
vn 0.3736989200115204 -0.5425978899002075 -0.7522876262664795
vn 0.12457423657178879 -0.8648242354393005 -0.4863746762275696
vn -0.28080621361732483 -0.7817181348800659 -0.5568345189094543
vn -0.6061900854110718 -0.5040504336357117 -0.6151965260505676
vn 0.936581552028656 2.682025694866752e-07 -0.35044971108436584
vn 0.8433096408843994 -0.3961432874202728 -0.363179475069046
vn 0.5318960547447205 -0.7371393442153931 -0.4167879521846771
vn -0.876749575138092 -0.4798072874546051 0.033093515783548355
vn 0.006353485863655806 -0.9898534417152405 -0.14194995164871216
vn -0.46010079979896545 -0.8670850992202759 -0.19097313284873962
vn -0.8238187432289124 -0.5152627825737 -0.2362777143716812
vn -0.9771033525466919 5.5639553409037035e-08 -0.21276527643203735
vn 0.9954444169998169 7.403811252970627e-08 -0.09534468501806259
vn 0.8506916165351868 -0.5207786560058594 -0.07150925695896149
vn 0.4770180881023407 -0.8730993866920471 -0.1007532998919487
vn -0.8767494559288025 0.47980743646621704 0.033093661069869995
vn -0.9901385307312012 2.3966023832144856e-07 0.1400924026966095
f 78/78/78 84/84/84 41/41/41
f 41/41/41 62/62/62 78/78/78
f 84/84/84 83/83/83 42/42/42
f 42/42/42 41/41/41 84/84/84
f 83/83/83 82/82/82 40/40/40
f 40/40/40 42/42/42 83/83/83
f 81/81/81 80/80/80 77/77/77
f 77/77/77 86/86/86 81/81/81
f 80/80/80 79/79/79 61/61/61
f 61/61/61 77/77/77 80/80/80
f 79/79/79 78/78/78 62/62/62
f 62/62/62 61/61/61 79/79/79
f 71/71/71 76/76/76 84/84/84
f 84/84/84 78/78/78 71/71/71
f 76/76/76 75/75/75 83/83/83
f 83/83/83 84/84/84 76/76/76
f 75/75/75 74/74/74 82/82/82
f 82/82/82 83/83/83 75/75/75
f 53/53/53 73/73/73 80/80/80
f 80/80/80 81/81/81 53/53/53
f 73/73/73 72/72/72 79/79/79
f 79/79/79 80/80/80 73/73/73
f 72/72/72 71/71/71 78/78/78
f 78/78/78 79/79/79 72/72/72
f 70/70/70 76/76/76 71/71/71
f 71/71/71 64/64/64 70/70/70
f 69/69/69 75/75/75 76/76/76
f 76/76/76 70/70/70 69/69/69
f 68/68/68 74/74/74 75/75/75
f 75/75/75 69/69/69 68/68/68
f 66/66/66 73/73/73 53/53/53
f 53/53/53 67/67/67 66/66/66
f 65/65/65 72/72/72 73/73/73
f 73/73/73 66/66/66 65/65/65
f 64/64/64 71/71/71 72/72/72
f 72/72/72 65/65/65 64/64/64
f 63/63/63 70/70/70 64/64/64
f 63/63/63 69/69/69 70/70/70
f 63/63/63 68/68/68 69/69/69
f 63/63/63 66/66/66 67/67/67
f 63/63/63 65/65/65 66/66/66
f 63/63/63 64/64/64 65/65/65
f 56/56/56 44/44/44 38/38/38
f 38/38/38 60/60/60 56/56/56
f 60/60/60 38/38/38 39/39/39
f 39/39/39 59/59/59 60/60/60
f 59/59/59 39/39/39 40/40/40
f 40/40/40 82/82/82 59/59/59
f 81/81/81 86/86/86 85/85/85
f 85/85/85 58/58/58 81/81/81
f 58/58/58 85/85/85 43/43/43
f 43/43/43 57/57/57 58/58/58
f 57/57/57 43/43/43 44/44/44
f 44/44/44 56/56/56 57/57/57
f 50/50/50 56/56/56 60/60/60
f 60/60/60 55/55/55 50/50/50
f 55/55/55 60/60/60 59/59/59
f 59/59/59 54/54/54 55/55/55
f 54/54/54 59/59/59 82/82/82
f 82/82/82 74/74/74 54/54/54
f 53/53/53 81/81/81 58/58/58
f 58/58/58 52/52/52 53/53/53
f 52/52/52 58/58/58 57/57/57
f 57/57/57 51/51/51 52/52/52
f 51/51/51 57/57/57 56/56/56
f 56/56/56 50/50/50 51/51/51
f 49/49/49 45/45/45 50/50/50
f 50/50/50 55/55/55 49/49/49
f 48/48/48 49/49/49 55/55/55
f 55/55/55 54/54/54 48/48/48
f 68/68/68 48/48/48 54/54/54
f 54/54/54 74/74/74 68/68/68
f 47/47/47 67/67/67 53/53/53
f 53/53/53 52/52/52 47/47/47
f 46/46/46 47/47/47 52/52/52
f 52/52/52 51/51/51 46/46/46
f 45/45/45 46/46/46 51/51/51
f 51/51/51 50/50/50 45/45/45
f 63/63/63 45/45/45 49/49/49
f 63/63/63 49/49/49 48/48/48
f 63/63/63 48/48/48 68/68/68
f 63/63/63 67/67/67 47/47/47
f 63/63/63 47/47/47 46/46/46
f 63/63/63 46/46/46 45/45/45
f 19/19/19 37/37/37 42/42/42
f 42/42/42 40/40/40 19/19/19
f 37/37/37 36/36/36 41/41/41
f 41/41/41 42/42/42 37/37/37
f 36/36/36 35/35/35 62/62/62
f 62/62/62 41/41/41 36/36/36
f 62/62/62 35/35/35 34/34/34
f 34/34/34 61/61/61 62/62/62
f 61/61/61 34/34/34 33/33/33
f 33/33/33 77/77/77 61/61/61
f 33/33/33 32/32/32 86/86/86
f 86/86/86 77/77/77 33/33/33
f 13/13/13 31/31/31 37/37/37
f 37/37/37 19/19/19 13/13/13
f 31/31/31 30/30/30 36/36/36
f 36/36/36 37/37/37 31/31/31
f 30/30/30 29/29/29 35/35/35
f 35/35/35 36/36/36 30/30/30
f 29/29/29 28/28/28 34/34/34
f 34/34/34 35/35/35 29/29/29
f 28/28/28 27/27/27 33/33/33
f 33/33/33 34/34/34 28/28/28
f 27/27/27 26/26/26 32/32/32
f 32/32/32 33/33/33 27/27/27
f 25/25/25 31/31/31 13/13/13
f 13/13/13 7/7/7 25/25/25
f 24/24/24 30/30/30 31/31/31
f 31/31/31 25/25/25 24/24/24
f 23/23/23 29/29/29 30/30/30
f 30/30/30 24/24/24 23/23/23
f 22/22/22 28/28/28 29/29/29
f 29/29/29 23/23/23 22/22/22
f 21/21/21 27/27/27 28/28/28
f 28/28/28 22/22/22 21/21/21
f 1/1/1 26/26/26 27/27/27
f 27/27/27 21/21/21 1/1/1
f 20/20/20 25/25/25 7/7/7
f 20/20/20 24/24/24 25/25/25
f 20/20/20 23/23/23 24/24/24
f 20/20/20 22/22/22 23/23/23
f 20/20/20 21/21/21 22/22/22
f 20/20/20 1/1/1 21/21/21
f 19/19/19 40/40/40 39/39/39
f 39/39/39 18/18/18 19/19/19
f 18/18/18 39/39/39 38/38/38
f 38/38/38 17/17/17 18/18/18
f 17/17/17 38/38/38 44/44/44
f 44/44/44 16/16/16 17/17/17
f 44/44/44 43/43/43 15/15/15
f 15/15/15 16/16/16 44/44/44
f 43/43/43 85/85/85 14/14/14
f 14/14/14 15/15/15 43/43/43
f 14/14/14 85/85/85 86/86/86
f 86/86/86 32/32/32 14/14/14
f 13/13/13 19/19/19 18/18/18
f 18/18/18 12/12/12 13/13/13
f 12/12/12 18/18/18 17/17/17
f 17/17/17 11/11/11 12/12/12
f 11/11/11 17/17/17 16/16/16
f 16/16/16 10/10/10 11/11/11
f 10/10/10 16/16/16 15/15/15
f 15/15/15 9/9/9 10/10/10
f 9/9/9 15/15/15 14/14/14
f 14/14/14 8/8/8 9/9/9
f 8/8/8 14/14/14 32/32/32
f 32/32/32 26/26/26 8/8/8
f 6/6/6 7/7/7 13/13/13
f 13/13/13 12/12/12 6/6/6
f 5/5/5 6/6/6 12/12/12
f 12/12/12 11/11/11 5/5/5
f 4/4/4 5/5/5 11/11/11
f 11/11/11 10/10/10 4/4/4
f 3/3/3 4/4/4 10/10/10
f 10/10/10 9/9/9 3/3/3
f 2/2/2 3/3/3 9/9/9
f 9/9/9 8/8/8 2/2/2
f 1/1/1 2/2/2 8/8/8
f 8/8/8 26/26/26 1/1/1
f 20/20/20 7/7/7 6/6/6
f 20/20/20 6/6/6 5/5/5
f 20/20/20 5/5/5 4/4/4
f 20/20/20 4/4/4 3/3/3
f 20/20/20 3/3/3 2/2/2
f 20/20/20 2/2/2 1/1/1
