# Recovered local-space geometry; original node transforms not applied
o mesh_0
v -5.953322887420654 7.518974598497152e-07 48.73854446411133
v -4.177504539489746 9.622489929199219 47.88845443725586
v 0.9603978395462036 17.07341766357422 45.43199920654297
v 8.419503211975098 20.009822845458984 41.944942474365234
v 16.660049438476562 17.37940788269043 38.90560531616211
v 23.41010284423828 10.193089485168457 36.22313690185547
v 25.99132537841797 -1.0788809049699921e-05 35.111202239990234
v -24.322364807128906 15.63124942779541 36.69076156616211
v -13.427641868591309 27.107410430908203 33.763362884521484
v 0.1160067692399025 31.3723087310791 30.4854679107666
v 15.515762329101562 27.16368865966797 28.023258209228516
v 26.764204025268555 15.650026321411133 26.34262466430664
v 30.856096267700195 -1.247865475306753e-05 25.759254455566406
v -37.04149627685547 19.163848876953125 19.545042037963867
v -22.563488006591797 33.16604995727539 18.348392486572266
v -2.7727010250091553 38.31895446777344 16.84684944152832
v 17.024330139160156 33.183624267578125 15.712947845458984
v 31.49883270263672 19.138774871826172 15.125713348388672
v 36.77190399169922 -1.5165222066571005e-05 14.968119621276855
v 21.37588882446289 -9.033449714479502e-06 47.13177490234375
v -4.177511692047119 -9.622489929199219 47.88845443725586
v 0.9603872299194336 -17.073421478271484 45.432003021240234
v 8.419489860534668 -20.009836196899414 41.94493865966797
v 16.6600399017334 -17.379423141479492 38.905601501464844
v 23.410093307495117 -10.193110466003418 36.22313690185547
v -28.30577850341797 6.1593568716489244e-06 37.779502868652344
v -24.322370529174805 -15.631237983703613 36.69076156616211
v -13.427660942077637 -27.107410430908203 33.76335906982422
v 0.11598704010248184 -31.3723087310791 30.4854736328125
v 15.515743255615234 -27.1636962890625 28.02326011657715
v 26.764196395874023 -15.650047302246094 26.34262466430664
v -42.35276412963867 1.1781135071942117e-05 20.006669998168945
v -37.04151153564453 -19.16383171081543 19.545042037963867
v -22.563512802124023 -33.166038513183594 18.348390579223633
v -2.772735357284546 -38.3189582824707 16.846860885620117
v 17.024309158325195 -33.18364715576172 15.712946891784668
v 31.49881935119629 -19.138803482055664 15.125713348388672
v 19.307191848754883 36.12323760986328 0.789814293384552
v 35.78147888183594 20.9387264251709 1.0586596727371216
v 41.8623161315918 -5.977646196697606e-06 1.1821489334106445
v 19.30718231201172 -36.12324142456055 0.7898055911064148
v 35.781471252441406 -20.938735961914062 1.0586562156677246
v -25.313243865966797 36.1165657043457 0.4558766186237335
v -3.0050406455993652 41.623924255371094 0.5634016394615173
v 8.113536834716797 23.50615119934082 -45.27638626098633
v -4.126708030700684 20.344335556030273 -47.514610290527344
v -13.105907440185547 11.762452125549316 -49.17618942260742
v 29.49399185180664 11.837384223937988 -41.43207931518555
v 20.408416748046875 20.422090530395508 -43.05613708496094
v 1.1545013189315796 36.70397186279297 -32.181373596191406
v -18.177106857299805 31.7563533782959 -34.04876708984375
v -32.397735595703125 18.376129150390625 -35.422298431396484
v -37.6418571472168 5.2991222219134215e-06 -35.929649353027344
v 35.068607330322266 18.602638244628906 -28.856788635253906
v 20.598915100097656 31.968379974365234 -30.288681030273438
v -1.6341911554336548 41.48271560668945 -15.982799530029297
v -23.58780860900879 35.955936431884766 -16.27248764038086
v -39.7739143371582 20.82878875732422 -16.528911590576172
v 36.67327880859375 20.93321418762207 -15.555643081665039
v 20.36931800842285 36.04930877685547 -15.73235034942627
v -25.313249588012695 -36.11655807495117 0.4558691680431366
v -3.0050504207611084 -41.62392807006836 0.563392698764801
v 11.364648818969727 1.5197411812550854e-05 -52.3530158996582
v 8.113541603088379 -23.506122589111328 -45.27640151977539
v -4.126702308654785 -20.344310760498047 -47.51462173461914
v -13.105907440185547 -11.762431144714355 -49.17619705200195
v -16.406795501708984 1.3493930055119563e-05 -49.79172134399414
v 32.84584045410156 1.581372634973377e-05 -40.8362922668457
v 29.494003295898438 -11.837355613708496 -41.43208312988281
v 20.408418655395508 -20.422067642211914 -43.05615234375
v 1.1545096635818481 -36.70394515991211 -32.181396484375
v -18.177104949951172 -31.756336212158203 -34.04879379272461
v -32.397727966308594 -18.376108169555664 -35.422306060791016
v 40.44989013671875 1.1496043953229673e-05 -28.315982818603516
v 35.06861114501953 -18.602622985839844 -28.856792449951172
v 20.59891700744629 -31.96835708618164 -30.288705825805664
v -41.79363250732422 -20.940031051635742 0.42934495210647583
v -1.6341843605041504 -41.48271179199219 -15.982819557189941
v -23.587799072265625 -35.9559326171875 -16.272510528564453
v -39.77391052246094 -20.82878875732422 -16.528921127319336
v -45.74784851074219 -5.017454896005802e-08 -16.63595962524414
v 42.71646499633789 8.590695870225318e-06 -15.488995552062988
v 36.673282623291016 -20.933189392089844 -15.555652618408203
v 20.36933135986328 -36.0493049621582 -15.732372283935547
v -41.79362487792969 20.940038681030273 0.4293466806411743
v -47.885162353515625 4.688096851168666e-06 0.42773130536079407
vt 0.46710318326950073 0.5743280649185181
vt 0.46735674142837524 0.5744032859802246
vt 0.4675573706626892 0.5744646191596985
vt 0.4678017497062683 0.5745483636856079
vt 0.4680461883544922 0.5746321678161621
vt 0.46824681758880615 0.5746934413909912
vt 0.4684291481971741 0.5747158527374268
vt 0.46680861711502075 0.5747771263122559
vt 0.4671216607093811 0.5748278498649597
vt 0.467552125453949 0.5748971700668335
vt 0.4680330753326416 0.5749664902687073
vt 0.46836787462234497 0.5750172138214111
vt 0.46862250566482544 0.5750357508659363
vt 0.4664861559867859 0.5752267837524414
vt 0.4669005274772644 0.5752554535865784
vt 0.46746915578842163 0.575294554233551
vt 0.46806663274765015 0.5753337144851685
vt 0.46852439641952515 0.5753623843193054
vt 0.4688161015510559 0.5753728747367859
vt 0.46819382905960083 0.5742692947387695
vt 0.46735674142837524 0.5744032859802246
vt 0.4675573706626892 0.5744646191596985
vt 0.4678017497062683 0.5745483636856079
vt 0.4680461883544922 0.5746321678161621
vt 0.46824681758880615 0.5746934413909912
vt 0.4665033221244812 0.5747132897377014
vt 0.46680861711502075 0.5747771263122559
vt 0.4671216607093811 0.5748278498649597
vt 0.467552125453949 0.5748971700668335
vt 0.4680330753326416 0.5749664902687073
vt 0.46836787462234497 0.5750172138214111
vt 0.4661439061164856 0.575180172920227
vt 0.4664861559867859 0.5752267837524414
vt 0.4669005274772644 0.5752554535865784
vt 0.46746915578842163 0.575294554233551
vt 0.46806663274765015 0.5753337144851685
vt 0.46852439641952515 0.5753623843193054
vt 0.46814340353012085 0.5757766962051392
vt 0.4686604142189026 0.5757766962051392
vt 0.4689738154411316 0.5757766962051392
vt 0.46814340353012085 0.5757766962051392
vt 0.4686604142189026 0.5757766962051392
vt 0.46681541204452515 0.5757766962051392
vt 0.46746498346328735 0.5757766962051392
vt 0.46781325340270996 0.5770828723907471
vt 0.46748119592666626 0.5771438479423523
vt 0.4671952724456787 0.5771884918212891
vt 0.4684639573097229 0.5769831538200378
vt 0.46815621852874756 0.5770039558410645
vt 0.46759647130966187 0.576722264289856
vt 0.4670324921607971 0.5767700672149658
vt 0.4666215777397156 0.5768051147460938
vt 0.4662805199623108 0.5768138766288757
vt 0.4686436057090759 0.5766392946243286
vt 0.4681892991065979 0.5766743421554565
vt 0.4675106406211853 0.5762656927108765
vt 0.46687132120132446 0.5762656927108765
vt 0.4664052128791809 0.5762656927108765
vt 0.468688428401947 0.5762656927108765
vt 0.468178927898407 0.5762656927108765
vt 0.46681541204452515 0.5757766962051392
vt 0.46746498346328735 0.5757766962051392
vt 0.468014657497406 0.5773795247077942
vt 0.46781325340270996 0.5770828723907471
vt 0.46748119592666626 0.5771438479423523
vt 0.4671952724456787 0.5771884918212891
vt 0.4669104814529419 0.5772085189819336
vt 0.4687268137931824 0.5770279169082642
vt 0.4684639573097229 0.5769831538200378
vt 0.46815621852874756 0.5770039558410645
vt 0.46759647130966187 0.576722264289856
vt 0.4670324921607971 0.5767700672149658
vt 0.4666215777397156 0.5768051147460938
vt 0.46894484758377075 0.5766768455505371
vt 0.4686436057090759 0.5766392946243286
vt 0.4681892991065979 0.5766743421554565
vt 0.4663417935371399 0.5757766962051392
vt 0.4675106406211853 0.5762656927108765
vt 0.46687132120132446 0.5762656927108765
vt 0.4664052128791809 0.5762656927108765
vt 0.46604400873184204 0.5762506127357483
vt 0.4689990282058716 0.5762656927108765
vt 0.468688428401947 0.5762656927108765
vt 0.468178927898407 0.5762656927108765
vt 0.4663417935371399 0.5757766962051392
vt 0.4659777879714966 0.575751781463623
vn 0.2839425802230835 -1.6298024263505795e-07 -0.9588413834571838
vn 0.1859714388847351 -0.3047184944152832 -0.9341098666191101
vn -0.007163748145103455 -0.5355281233787537 -0.8444870114326477
vn -0.3015771210193634 -0.6319668292999268 -0.7139111757278442
vn -0.6009944677352905 -0.5478929877281189 -0.581909716129303
vn -0.8305073380470276 -0.30750343203544617 -0.46443429589271545
vn -0.9117578864097595 3.2670882887941843e-07 -0.4107280969619751
vn 0.5645245909690857 -0.3375076949596405 -0.7532599568367004
vn 0.33512550592422485 -0.6647111773490906 -0.6677199602127075
vn -0.03829772770404816 -0.8300670385360718 -0.5563470125198364
vn -0.45115259289741516 -0.7528319358825684 -0.4792759418487549
vn -0.7590972781181335 -0.46658217906951904 -0.45395198464393616
vn -0.8909361958503723 2.8402891416590137e-07 -0.4541285037994385
vn 0.7552297115325928 -0.5176085829734802 -0.4021311104297638
vn 0.35413858294487 -0.8614453673362732 -0.3640024662017822
vn -0.0798528864979744 -0.9326590895652771 -0.35181039571762085
vn -0.47401002049446106 -0.8132041692733765 -0.3376588821411133
vn -0.7958754897117615 -0.4705643653869629 -0.3809874355792999
vn -0.9232696890830994 2.691515703645564e-07 -0.3841524124145508
vn -0.4824804961681366 1.7870620183657593e-07 -0.8759067058563232
vn 0.1859717220067978 0.3047182261943817 -0.9341099262237549
vn -0.007163560949265957 0.5355281829833984 -0.8444870114326477
vn -0.3015769422054291 0.6319670677185059 -0.7139110565185547
vn -0.6009940505027771 0.5478934049606323 -0.5819097757339478
vn -0.8305070400238037 0.3075040578842163 -0.464434415102005
vn 0.6267308592796326 -7.794168510599775e-08 -0.77923583984375
vn 0.56452476978302 0.3375072479248047 -0.7532600164413452
vn 0.33512601256370544 0.6647109389305115 -0.6677199602127075
vn -0.03829722851514816 0.830066978931427 -0.556347131729126
vn -0.4511520266532898 0.7528321743011475 -0.4792760908603668
vn -0.7590969800949097 0.46658259630203247 -0.4539520740509033
vn 0.8567808866500854 -2.6080999759869883e-07 -0.5156806111335754
vn 0.7552300095558167 0.5176081657409668 -0.4021311402320862
vn 0.3541392982006073 0.8614451885223389 -0.36400240659713745
vn -0.07985206693410873 0.9326590895652771 -0.35181060433387756
vn -0.47400963306427 0.8132044076919556 -0.3376588225364685
vn -0.7958753108978271 0.4705648124217987 -0.3809872269630432
vn -0.4707394242286682 -0.8709489107131958 -0.14089840650558472
vn -0.8350080847740173 -0.5181719064712524 -0.18509282171726227
vn -0.9883588552474976 1.2012542072170618e-07 -0.15214063227176666
vn -0.47073933482170105 0.8709490299224854 -0.14089800417423248
vn -0.8350080847740173 0.5181720852851868 -0.18509256839752197
vn 0.5471997261047363 -0.8334074020385742 -0.07748903334140778
vn 0.03329700604081154 -0.9932660460472107 -0.11096803843975067
vn -0.09834455698728561 -0.5765399932861328 0.8111288547515869
vn 0.15199130773544312 -0.46923309564590454 0.8698959350585938
vn 0.3223567008972168 -0.2477542906999588 0.9136213660240173
vn -0.6137169003486633 -0.3543643653392792 0.7055334448814392
vn -0.3759656250476837 -0.5415129661560059 0.7519400119781494
vn -0.1245388612151146 -0.8642991781234741 0.4873161315917969
vn 0.28151944279670715 -0.7811514735221863 0.5572695732116699
vn 0.6069080829620361 -0.5032665133476257 0.6151304244995117
vn 0.7636575698852539 -8.263612016889965e-08 0.6456214785575867
vn -0.8426356911659241 -0.3949686884880066 0.3660120368003845
vn -0.5321568846702576 -0.7359570860862732 0.4185406565666199
vn -0.00569956423714757 -0.9892783164978027 0.14593130350112915
vn 0.4610272943973541 -0.865709125995636 0.19493980705738068
vn 0.8239272236824036 -0.5137816667556763 0.23910783231258392
vn -0.8508446216583252 -0.5202585458755493 0.07344719022512436
vn -0.4771503508090973 -0.8726728558540344 0.10377679020166397
vn 0.5471999049186707 0.8334073424339294 -0.07748880237340927
vn 0.033297426998615265 0.9932661652565002 -0.11096759885549545
vn -0.18885678052902222 -3.6018604987475555e-07 0.9820046424865723
vn -0.0983445793390274 0.5765393972396851 0.8111292719841003
vn 0.15199121832847595 0.4692327082157135 0.8698961734771729
vn 0.3223567306995392 0.24775394797325134 0.9136215448379517
vn 0.3270307183265686 -4.779411142408208e-07 0.9450138211250305
vn -0.7536419034004211 -4.329357068399986e-07 0.6572853922843933
vn -0.6137171983718872 0.3543637692928314 0.705533504486084
vn -0.3759654760360718 0.5415125489234924 0.7519402503967285
vn -0.12453898042440414 0.8642988204956055 0.48731669783592224
vn 0.28151941299438477 0.7811509370803833 0.5572701692581177
vn 0.6069080829620361 0.5032663345336914 0.6151305437088013
vn -0.935395359992981 -2.0509146736458206e-07 0.3536036014556885
vn -0.8426358699798584 0.3949684202671051 0.36601194739341736
vn -0.5321570634841919 0.7359566688537598 0.4185410737991333
vn 0.8777503371238708 0.4778401255607605 -0.034973710775375366
vn -0.0056996215134859085 0.989278256893158 0.14593183994293213
vn 0.46102747321128845 0.8657090663909912 0.19494026899337769
vn 0.8239269256591797 0.5137817859649658 0.23910821974277496
vn 0.9771221280097961 -3.4816899585621286e-08 0.21267905831336975
vn -0.9952060580253601 -1.1005089106674859e-07 0.09780016541481018
vn -0.8508447408676147 0.5202583074569702 0.07344752550125122
vn -0.477150559425354 0.8726726770401001 0.1037774384021759
vn 0.8777503371238708 -0.4778401553630829 -0.03497381508350372
vn 0.9900805354118347 -2.3443129748557112e-07 -0.14050166308879852
f 78/78/78 62/62/62 41/41/41
f 41/41/41 84/84/84 78/78/78
f 84/84/84 41/41/41 42/42/42
f 42/42/42 83/83/83 84/84/84
f 83/83/83 42/42/42 40/40/40
f 40/40/40 82/82/82 83/83/83
f 81/81/81 86/86/86 77/77/77
f 77/77/77 80/80/80 81/81/81
f 80/80/80 77/77/77 61/61/61
f 61/61/61 79/79/79 80/80/80
f 79/79/79 61/61/61 62/62/62
f 62/62/62 78/78/78 79/79/79
f 71/71/71 78/78/78 84/84/84
f 84/84/84 76/76/76 71/71/71
f 76/76/76 84/84/84 83/83/83
f 83/83/83 75/75/75 76/76/76
f 75/75/75 83/83/83 82/82/82
f 82/82/82 74/74/74 75/75/75
f 53/53/53 81/81/81 80/80/80
f 80/80/80 73/73/73 53/53/53
f 73/73/73 80/80/80 79/79/79
f 79/79/79 72/72/72 73/73/73
f 72/72/72 79/79/79 78/78/78
f 78/78/78 71/71/71 72/72/72
f 70/70/70 64/64/64 71/71/71
f 71/71/71 76/76/76 70/70/70
f 69/69/69 70/70/70 76/76/76
f 76/76/76 75/75/75 69/69/69
f 68/68/68 69/69/69 75/75/75
f 75/75/75 74/74/74 68/68/68
f 66/66/66 67/67/67 53/53/53
f 53/53/53 73/73/73 66/66/66
f 65/65/65 66/66/66 73/73/73
f 73/73/73 72/72/72 65/65/65
f 64/64/64 65/65/65 72/72/72
f 72/72/72 71/71/71 64/64/64
f 63/63/63 64/64/64 70/70/70
f 63/63/63 70/70/70 69/69/69
f 63/63/63 69/69/69 68/68/68
f 63/63/63 67/67/67 66/66/66
f 63/63/63 66/66/66 65/65/65
f 63/63/63 65/65/65 64/64/64
f 56/56/56 60/60/60 38/38/38
f 38/38/38 44/44/44 56/56/56
f 60/60/60 59/59/59 39/39/39
f 39/39/39 38/38/38 60/60/60
f 59/59/59 82/82/82 40/40/40
f 40/40/40 39/39/39 59/59/59
f 81/81/81 58/58/58 85/85/85
f 85/85/85 86/86/86 81/81/81
f 58/58/58 57/57/57 43/43/43
f 43/43/43 85/85/85 58/58/58
f 57/57/57 56/56/56 44/44/44
f 44/44/44 43/43/43 57/57/57
f 50/50/50 55/55/55 60/60/60
f 60/60/60 56/56/56 50/50/50
f 55/55/55 54/54/54 59/59/59
f 59/59/59 60/60/60 55/55/55
f 54/54/54 74/74/74 82/82/82
f 82/82/82 59/59/59 54/54/54
f 53/53/53 52/52/52 58/58/58
f 58/58/58 81/81/81 53/53/53
f 52/52/52 51/51/51 57/57/57
f 57/57/57 58/58/58 52/52/52
f 51/51/51 50/50/50 56/56/56
f 56/56/56 57/57/57 51/51/51
f 49/49/49 55/55/55 50/50/50
f 50/50/50 45/45/45 49/49/49
f 48/48/48 54/54/54 55/55/55
f 55/55/55 49/49/49 48/48/48
f 68/68/68 74/74/74 54/54/54
f 54/54/54 48/48/48 68/68/68
f 47/47/47 52/52/52 53/53/53
f 53/53/53 67/67/67 47/47/47
f 46/46/46 51/51/51 52/52/52
f 52/52/52 47/47/47 46/46/46
f 45/45/45 50/50/50 51/51/51
f 51/51/51 46/46/46 45/45/45
f 63/63/63 49/49/49 45/45/45
f 63/63/63 48/48/48 49/49/49
f 63/63/63 68/68/68 48/48/48
f 63/63/63 47/47/47 67/67/67
f 63/63/63 46/46/46 47/47/47
f 63/63/63 45/45/45 46/46/46
f 19/19/19 40/40/40 42/42/42
f 42/42/42 37/37/37 19/19/19
f 37/37/37 42/42/42 41/41/41
f 41/41/41 36/36/36 37/37/37
f 36/36/36 41/41/41 62/62/62
f 62/62/62 35/35/35 36/36/36
f 62/62/62 61/61/61 34/34/34
f 34/34/34 35/35/35 62/62/62
f 61/61/61 77/77/77 33/33/33
f 33/33/33 34/34/34 61/61/61
f 33/33/33 77/77/77 86/86/86
f 86/86/86 32/32/32 33/33/33
f 13/13/13 19/19/19 37/37/37
f 37/37/37 31/31/31 13/13/13
f 31/31/31 37/37/37 36/36/36
f 36/36/36 30/30/30 31/31/31
f 30/30/30 36/36/36 35/35/35
f 35/35/35 29/29/29 30/30/30
f 29/29/29 35/35/35 34/34/34
f 34/34/34 28/28/28 29/29/29
f 28/28/28 34/34/34 33/33/33
f 33/33/33 27/27/27 28/28/28
f 27/27/27 33/33/33 32/32/32
f 32/32/32 26/26/26 27/27/27
f 25/25/25 7/7/7 13/13/13
f 13/13/13 31/31/31 25/25/25
f 24/24/24 25/25/25 31/31/31
f 31/31/31 30/30/30 24/24/24
f 23/23/23 24/24/24 30/30/30
f 30/30/30 29/29/29 23/23/23
f 22/22/22 23/23/23 29/29/29
f 29/29/29 28/28/28 22/22/22
f 21/21/21 22/22/22 28/28/28
f 28/28/28 27/27/27 21/21/21
f 1/1/1 21/21/21 27/27/27
f 27/27/27 26/26/26 1/1/1
f 20/20/20 7/7/7 25/25/25
f 20/20/20 25/25/25 24/24/24
f 20/20/20 24/24/24 23/23/23
f 20/20/20 23/23/23 22/22/22
f 20/20/20 22/22/22 21/21/21
f 20/20/20 21/21/21 1/1/1
f 19/19/19 18/18/18 39/39/39
f 39/39/39 40/40/40 19/19/19
f 18/18/18 17/17/17 38/38/38
f 38/38/38 39/39/39 18/18/18
f 17/17/17 16/16/16 44/44/44
f 44/44/44 38/38/38 17/17/17
f 44/44/44 16/16/16 15/15/15
f 15/15/15 43/43/43 44/44/44
f 43/43/43 15/15/15 14/14/14
f 14/14/14 85/85/85 43/43/43
f 14/14/14 32/32/32 86/86/86
f 86/86/86 85/85/85 14/14/14
f 13/13/13 12/12/12 18/18/18
f 18/18/18 19/19/19 13/13/13
f 12/12/12 11/11/11 17/17/17
f 17/17/17 18/18/18 12/12/12
f 11/11/11 10/10/10 16/16/16
f 16/16/16 17/17/17 11/11/11
f 10/10/10 9/9/9 15/15/15
f 15/15/15 16/16/16 10/10/10
f 9/9/9 8/8/8 14/14/14
f 14/14/14 15/15/15 9/9/9
f 8/8/8 26/26/26 32/32/32
f 32/32/32 14/14/14 8/8/8
f 6/6/6 12/12/12 13/13/13
f 13/13/13 7/7/7 6/6/6
f 5/5/5 11/11/11 12/12/12
f 12/12/12 6/6/6 5/5/5
f 4/4/4 10/10/10 11/11/11
f 11/11/11 5/5/5 4/4/4
f 3/3/3 9/9/9 10/10/10
f 10/10/10 4/4/4 3/3/3
f 2/2/2 8/8/8 9/9/9
f 9/9/9 3/3/3 2/2/2
f 1/1/1 26/26/26 8/8/8
f 8/8/8 2/2/2 1/1/1
f 20/20/20 6/6/6 7/7/7
f 20/20/20 5/5/5 6/6/6
f 20/20/20 4/4/4 5/5/5
f 20/20/20 3/3/3 4/4/4
f 20/20/20 2/2/2 3/3/3
f 20/20/20 1/1/1 2/2/2
