# Recovered local-space geometry; original node transforms not applied
o mesh_0
v 0.25026735663414 -0.03097844123840332 22.129667282104492
v -0.6560689806938171 5.345205307006836 46.43812942504883
v 0.5164077281951904 3.144416332244873 34.86507797241211
v -1.3890912532806396 1.1952928304672241 36.41618728637695
v 0.6519112586975098 -1.1271741390228271 36.41389846801758
v 2.013798952102661 7.595727920532227 43.34800338745117
v 5.7670793533325195 5.19520378112793 44.72359848022461
v 2.687244415283203 2.2560207843780518 46.33810806274414
v 2.662304162979126 1.1952928304672241 36.06173324584961
v -7.784682750701904 13.567660331726074 31.46751594543457
v -13.519052505493164 7.83328914642334 31.46751594543457
v -15.617975234985352 2.765655517578125e-05 31.46751594543457
v -13.519049644470215 -7.833305358886719 31.46751594543457
v -7.784678936004639 -13.56767749786377 31.46751594543457
v -14.388936996459961 25.006561279296875 28.904268264770508
v -24.957950592041016 14.437535285949707 28.90427017211914
v -28.82647705078125 2.4080276489257812e-05 28.904266357421875
v -24.95794677734375 -14.4375581741333 28.904268264770508
v -14.388930320739746 -25.006576538085938 28.90427017211914
v -19.827878952026367 34.42708206176758 16.24090576171875
v -34.37847137451172 19.876468658447266 16.240907669067383
v -41.93940353393555 2.193450927734375e-05 -0.079631008207798
v -39.70435333251953 2.3126602172851562e-05 16.240903854370117
v -34.378456115722656 -19.876501083374023 16.24090576171875
v -19.827871322631836 -34.42710494995117 16.24090576171875
v -20.945404052734375 36.3626823425293 -0.07963140308856964
v -36.3140754699707 20.993999481201172 -0.07963009178638458
v -36.31407165527344 -20.99402618408203 -0.07963009178638458
v -20.945392608642578 -36.36271286010742 -0.07962758839130402
v 0.04861375316977501 -5.7183751778211445e-06 25.81159210205078
v 0.04861414432525635 -28.875102996826172 28.90427017211914
v 0.04861164093017578 28.875091552734375 28.90427017211914
v 0.048612870275974274 -39.75298309326172 16.24091339111328
v 0.048616230487823486 -15.666603088378906 31.467517852783203
v 0.048613619059324265 -41.988040924072266 -0.07962416857481003
v 7.881906986236572 -13.567673683166504 31.467519760131836
v 13.616278648376465 -7.8333024978637695 31.467519760131836
v 15.715201377868652 -4.145889397477731e-05 31.467519760131836
v 13.616278648376465 7.833292007446289 31.467519760131836
v 7.881906986236572 13.56766414642334 31.467519760131836
v 0.048609793186187744 15.66659164428711 31.467517852783203
v 14.486159324645996 -25.006572723388672 28.904272079467773
v 25.05517578125 -14.43755054473877 28.90427589416504
v 28.9237060546875 -3.987704258179292e-05 28.904272079467773
v 25.055179595947266 14.437542915344238 28.904273986816406
v 14.486160278320312 25.00656509399414 28.904273986816406
v 19.92510223388672 -34.427101135253906 16.24091339111328
v 34.47568893432617 -19.876487731933594 16.240915298461914
v 42.03663635253906 -3.971127443946898e-05 -0.07962114363908768
v 39.801578521728516 -4.0565882954979315e-05 16.24091148376465
v 36.41130447387695 20.994007110595703 -0.07962015271186829
v 34.47568893432617 19.87648582458496 16.240915298461914
v 19.92510986328125 34.427085876464844 16.24091339111328
v 0.04861874505877495 41.98802947998047 -0.07962416857481003
v 0.04861650615930557 39.75297546386719 16.24091339111328
v 21.04262924194336 -36.362701416015625 -0.07962456345558167
v 36.41130065917969 -20.9940185546875 -0.07962015271186829
v 21.042633056640625 36.362693786621094 -0.07962074875831604
v 0.16261184215545654 -0.30799195170402527 18.882640838623047
v -2.829259157180786 6.342514991760254 48.274635314941406
v 0.3277618885040283 5.08090877532959 34.1073112487793
v -3.603253126144409 1.0015989542007446 36.21549606323242
v 0.5434359312057495 -3.0697669982910156 36.49531936645508
v 1.9614149332046509 10.87382984161377 43.070167541503906
v 8.759923934936523 6.164448261260986 45.39153289794922
v 3.235464334487915 0.6154356002807617 48.39964294433594
v 4.73419713973999 0.8944001197814941 35.33992004394531
v -7.732917308807373 13.05530834197998 33.45355987548828
v -13.429394721984863 7.542694091796875 33.453556060791016
v -15.514447212219238 0.012358635663986206 33.453556060791016
v -13.429391860961914 -7.5180463790893555 33.453556060791016
v -7.732913970947266 -13.030660629272461 33.45355987548828
v -15.272503852844238 25.692750930786133 30.470930099487305
v -26.488332748413086 14.838919639587402 30.470932006835938
v -30.593612670898438 0.012356102466583252 30.47092628479004
v -26.488332748413086 -14.814277648925781 30.470928192138672
v -15.272496223449707 -25.668102264404297 30.47093391418457
v -21.3259334564209 37.021785736083984 17.52579116821289
v -36.973175048828125 21.374521255493164 17.525793075561523
v -46.06708526611328 2.3291448087547906e-05 -5.71714190300554e-06
v -42.700462341308594 2.3517757654190063e-05 17.525787353515625
v -36.97315979003906 -21.374553680419922 17.52579116821289
v -21.325925827026367 -37.02180862426758 17.52579116821289
v -23.009246826171875 39.93735885620117 -6.848124030511826e-06
v -39.88875198364258 23.057838439941406 -4.710563644039212e-06
v -39.88874816894531 -23.057865142822266 -4.71056273454451e-06
v -23.009231567382812 -39.9373893737793 -3.033424036402721e-06
v 0.04861266911029816 0.012326449155807495 34.10747528076172
v 0.048614319413900375 -29.6408748626709 30.470932006835938
v 0.048610951751470566 29.66552734375 30.470932006835938
v 0.048612598329782486 -42.74909210205078 17.525800704956055
v 0.04861586168408394 -15.048418998718262 33.45355987548828
v 0.04861418902873993 -46.11572265625 1.6768502746344893e-06
v 7.830142021179199 -13.030656814575195 33.45355987548828
v 13.526617050170898 -7.518043518066406 33.45356369018555
v 15.611669540405273 0.012291938066482544 33.45356369018555
v 13.526617050170898 7.542697906494141 33.45356369018555
v 7.830141544342041 13.055312156677246 33.45355987548828
v 0.048609424382448196 15.073071479797363 33.45355987548828
v 15.369726181030273 -25.66809844970703 30.47093391418457
v 26.585556030273438 -14.814270973205566 30.470943450927734
v 30.690837860107422 0.012292087078094482 30.470937728881836
v 26.585561752319336 14.838927268981934 30.47093963623047
v 15.369726181030273 25.692752838134766 30.470937728881836
v 21.42315673828125 -37.02180480957031 17.525798797607422
v 37.07039260864258 -21.374542236328125 17.525800704956055
v 46.16431427001953 -4.212278872728348e-05 5.2561454140231945e-06
v 42.79768753051758 -4.1993334889411926e-05 17.525798797607422
v 39.98598098754883 23.057846069335938 5.203241016715765e-06
v 37.07039260864258 21.37453842163086 17.525800704956055
v 21.42316436767578 37.02178955078125 17.525798797607422
v 0.04861808940768242 46.11570739746094 7.231766403492657e-07
v 0.04861624166369438 42.74908447265625 17.525800704956055
v 23.106473922729492 -39.9373779296875 6.65080960970954e-07
v 39.9859733581543 -23.057861328125 7.110588740033563e-06
v 23.106475830078125 39.93737030029297 4.47977890871698e-06
v 0.04861634224653244 -8.742014870222192e-06 -0.0796254426240921
v -0.6560689806938171 5.345205307006836 46.43812942504883
v 5.7670793533325195 5.19520378112793 44.72359848022461
v 2.013798952102661 7.595727920532227 43.34800338745117
v -0.6560689806938171 5.345205307006836 46.43812942504883
v 2.687244415283203 2.2560207843780518 46.33810806274414
v 5.7670793533325195 5.19520378112793 44.72359848022461
v 0.048616230487823486 -15.666603088378906 31.467517852783203
v 0.048609793186187744 15.66659164428711 31.467517852783203
v 0.04861414432525635 -28.875102996826172 28.90427017211914
v 0.04861164093017578 28.875091552734375 28.90427017211914
v 0.048612870275974274 -39.75298309326172 16.24091339111328
v 0.048613619059324265 -41.988040924072266 -0.07962416857481003
v 0.04861874505877495 41.98802947998047 -0.07962416857481003
v 0.04861650615930557 39.75297546386719 16.24091339111328
v 1.9614149332046509 10.87382984161377 43.070167541503906
v -2.829259157180786 6.342514991760254 48.274635314941406
v 1.9614149332046509 10.87382984161377 43.070167541503906
v 8.759923934936523 6.164448261260986 45.39153289794922
v -2.829259157180786 6.342514991760254 48.274635314941406
v 8.759923934936523 6.164448261260986 45.39153289794922
v 3.235464334487915 0.6154356002807617 48.39964294433594
v 0.048614319413900375 -29.6408748626709 30.470932006835938
v 0.048610951751470566 29.66552734375 30.470932006835938
v 0.04861418902873993 -46.11572265625 1.6768502746344893e-06
v 0.048612598329782486 -42.74909210205078 17.525800704956055
v 0.04861808940768242 46.11570739746094 7.231766403492657e-07
v 0.04861624166369438 42.74908447265625 17.525800704956055
v -20.945404052734375 36.3626823425293 -0.07963140308856964
v 0.04861874505877495 41.98802947998047 -0.07962416857481003
v -36.3140754699707 20.993999481201172 -0.07963009178638458
v -20.945404052734375 36.3626823425293 -0.07963140308856964
v -41.93940353393555 2.193450927734375e-05 -0.079631008207798
v -36.3140754699707 20.993999481201172 -0.07963009178638458
v -20.945392608642578 -36.36271286010742 -0.07962758839130402
v -36.31407165527344 -20.99402618408203 -0.07963009178638458
v 0.048613619059324265 -41.988040924072266 -0.07962416857481003
v -20.945392608642578 -36.36271286010742 -0.07962758839130402
v -36.31407165527344 -20.99402618408203 -0.07963009178638458
v -41.93940353393555 2.193450927734375e-05 -0.079631008207798
v 42.03663635253906 -3.971127443946898e-05 -0.07962114363908768
v 36.41130065917969 -20.9940185546875 -0.07962015271186829
v 36.41130447387695 20.994007110595703 -0.07962015271186829
v 42.03663635253906 -3.971127443946898e-05 -0.07962114363908768
v 0.04861874505877495 41.98802947998047 -0.07962416857481003
v 21.042633056640625 36.362693786621094 -0.07962074875831604
v 21.04262924194336 -36.362701416015625 -0.07962456345558167
v 0.048613619059324265 -41.988040924072266 -0.07962416857481003
v 36.41130065917969 -20.9940185546875 -0.07962015271186829
v 21.04262924194336 -36.362701416015625 -0.07962456345558167
v 21.042633056640625 36.362693786621094 -0.07962074875831604
v 36.41130447387695 20.994007110595703 -0.07962015271186829
vt 0.7196661233901978 0.006815016269683838
vt 0.748485267162323 0.006790578365325928
vt 0.7340803146362305 0.003969371318817139
vt 0.7340757846832275 0.006802856922149658
vt 0.7340803146362305 0.009636521339416504
vt 0.7484946250915527 0.0011233091354370117
vt 0.748485267162323 0.006790578365325928
vt 0.7484946250915527 0.012457966804504395
vt 0.7340757846832275 0.006802856922149658
vt 0.6714939475059509 0.007063686847686768
vt 0.6791800260543823 0.007063686847686768
vt 0.6881874203681946 0.007063686847686768
vt 0.6971949338912964 0.007063686847686768
vt 0.704880952835083 0.007063686847686768
vt 0.6574196219444275 0.01771599054336548
vt 0.6715857982635498 0.01771599054336548
vt 0.6881874203681946 0.01771599054336548
vt 0.7047891020774841 0.01771599054336548
vt 0.7189553380012512 0.01771599054336548
vt 0.6458286643028259 0.03457909822463989
vt 0.6653314232826233 0.03457909822463989
vt 0.6881874203681946 0.05734908580780029
vt 0.6881874203681946 0.03457909822463989
vt 0.7110433578491211 0.03457909822463989
vt 0.7305461764335632 0.03457909822463989
vt 0.6434471011161804 0.05734908580780029
vt 0.6640464663505554 0.05734908580780029
vt 0.712328314781189 0.05734908580780029
vt 0.732927680015564 0.05734908580780029
vt 0.6881874203681946 -0.00016558170318603516
vt 0.7293596863746643 0.01771599054336548
vt 0.6470152139663696 0.01771599054336548
vt 0.744870126247406 0.03457909822463989
vt 0.7105260491371155 0.007063686847686768
vt 0.7480570077896118 0.05734908580780029
vt 0.6714939475059509 0.007063686847686768
vt 0.6791800260543823 0.007063686847686768
vt 0.6881874203681946 0.007063686847686768
vt 0.6971949338912964 0.007063686847686768
vt 0.704880952835083 0.007063686847686768
vt 0.6658487915992737 0.007063686847686768
vt 0.6574196219444275 0.01771599054336548
vt 0.6715857982635498 0.01771599054336548
vt 0.6881874203681946 0.01771599054336548
vt 0.7047891020774841 0.01771599054336548
vt 0.7189553380012512 0.01771599054336548
vt 0.6458286643028259 0.03457909822463989
vt 0.6653314232826233 0.03457909822463989
vt 0.6881874203681946 0.05734908580780029
vt 0.6881874203681946 0.03457909822463989
vt 0.712328314781189 0.05734908580780029
vt 0.7110433578491211 0.03457909822463989
vt 0.7305461764335632 0.03457909822463989
vt 0.6283177137374878 0.05734908580780029
vt 0.6315045952796936 0.03457909822463989
vt 0.6434471011161804 0.05734908580780029
vt 0.6640464663505554 0.05734908580780029
vt 0.732927680015564 0.05734908580780029
vt 0.7239459753036499 0.04164046049118042
vt 0.7243555188179016 0.041915297508239746
vt 0.7247957587242126 0.04085683822631836
vt 0.7241507172584534 0.04177778959274292
vt 0.7235057950019836 0.04269903898239136
vt 0.7242317199707031 0.041486918926239014
vt 0.7243555188179016 0.041915297508239746
vt 0.7230656743049622 0.04375767707824707
vt 0.7241507172584534 0.04177778959274292
vt 0.7232142686843872 0.04124855995178223
vt 0.7233220338821411 0.04132390022277832
vt 0.7234481573104858 0.041412413120269775
vt 0.7235745191574097 0.04150080680847168
vt 0.723682165145874 0.041576266288757324
vt 0.7225716710090637 0.05079364776611328
vt 0.7227703928947449 0.05093270540237427
vt 0.7230030298233032 0.051095664501190186
vt 0.7232356667518616 0.05125856399536133
vt 0.7234342694282532 0.051397502422332764
vt 0.7225298285484314 0.05729258060455322
vt 0.7228030562400818 0.05748391151428223
vt 0.718223512172699 0.06397885084152222
vt 0.7231231927871704 0.05770820379257202
vt 0.7234436273574829 0.05793243646621704
vt 0.7237170934677124 0.05812394618988037
vt 0.7175964713096619 0.06353974342346191
vt 0.7178851366043091 0.06374192237854004
vt 0.7185617089271545 0.06421560049057007
vt 0.7188504934310913 0.0644177794456482
vt 0.7250937819480896 0.039062321186065674
vt 0.7235800623893738 0.05149960517883301
vt 0.7224259972572327 0.05069160461425781
vt 0.7239176034927368 0.05826449394226074
vt 0.723761260509491 0.04163157939910889
vt 0.7190625071525574 0.06456631422042847
vt 0.7232142686843872 0.04124855995178223
vt 0.7233220338821411 0.04132390022277832
vt 0.7234481573104858 0.041412413120269775
vt 0.7235745191574097 0.04150080680847168
vt 0.723682165145874 0.041576266288757324
vt 0.7231351137161255 0.04119318723678589
vt 0.7225716710090637 0.05079364776611328
vt 0.7227703928947449 0.05093270540237427
vt 0.7230030298233032 0.051095664501190186
vt 0.7232356667518616 0.05125856399536133
vt 0.7234342694282532 0.051397502422332764
vt 0.7225298285484314 0.05729258060455322
vt 0.7228030562400818 0.05748391151428223
vt 0.718223512172699 0.06397885084152222
vt 0.7231231927871704 0.05770820379257202
vt 0.7185617089271545 0.06421560049057007
vt 0.7234436273574829 0.05793243646621704
vt 0.7237170934677124 0.05812394618988037
vt 0.7173845171928406 0.06339126825332642
vt 0.7223290801048279 0.05715203285217285
vt 0.7175964713096619 0.06353974342346191
vt 0.7178851366043091 0.06374192237854004
vt 0.7188504934310913 0.0644177794456482
vt 0.7209367752075195 0.027863025665283203
vt 0.748485267162323 0.006790578365325928
vt 0.748485267162323 0.006790578365325928
vt 0.7484946250915527 0.0011233091354370117
vt 0.748485267162323 0.006790578365325928
vt 0.7484946250915527 0.012457966804504395
vt 0.748485267162323 0.006790578365325928
vt 0.6658487915992737 0.007063686847686768
vt 0.7105260491371155 0.007063686847686768
vt 0.6470152139663696 0.01771599054336548
vt 0.7293596863746643 0.01771599054336548
vt 0.6315045952796936 0.03457909822463989
vt 0.6283177137374878 0.05734908580780029
vt 0.7480570077896118 0.05734908580780029
vt 0.744870126247406 0.03457909822463989
vt 0.7242317199707031 0.03781116008758545
vt 0.7243555188179016 0.041915297508239746
vt 0.7242317199707031 0.03781116008758545
vt 0.7243555188179016 0.041915297508239746
vt 0.7243555188179016 0.041915297508239746
vt 0.7243555188179016 0.041915297508239746
vt 0.7230656743049622 0.04375767707824707
vt 0.7224259972572327 0.05069160461425781
vt 0.7235800623893738 0.05149960517883301
vt 0.7173845171928406 0.06339126825332642
vt 0.7223290801048279 0.05715203285217285
vt 0.7190625071525574 0.06456631422042847
vt 0.7239176034927368 0.05826449394226074
vt 0.6873580813407898 0.07980936765670776
vt 0.6904848217964172 0.08149105310440063
vt 0.6873580813407898 0.07980936765670776
vt 0.6904848217964172 0.08149105310440063
vt 0.6873580813407898 0.07980936765670776
vt 0.6904848217964172 0.08149105310440063
vt 0.6873580813407898 0.07980936765670776
vt 0.6904848217964172 0.08149105310440063
vt 0.6873580813407898 0.07980936765670776
vt 0.6904848217964172 0.08149105310440063
vt 0.6873580813407898 0.07980936765670776
vt 0.6904848217964172 0.08149105310440063
vt 0.6873580813407898 0.07980936765670776
vt 0.6904848217964172 0.08149105310440063
vt 0.6873580813407898 0.07980936765670776
vt 0.6904848217964172 0.08149105310440063
vt 0.6873580813407898 0.07980936765670776
vt 0.6904848217964172 0.08149105310440063
vt 0.6873580813407898 0.07980936765670776
vt 0.6904848217964172 0.08149105310440063
vt 0.6873580813407898 0.07980936765670776
vt 0.6904848217964172 0.08149105310440063
vt 0.6873580813407898 0.07980936765670776
vt 0.6904848217964172 0.08149105310440063
vn -0.1141725480556488 -0.028048133477568626 -0.9930649399757385
vn -0.9707095623016357 0.23904478549957275 -0.024094099178910255
vn -0.0647609606385231 0.910881757736206 -0.4075542390346527
vn -0.9760456085205078 -0.1991451531648636 0.0876137837767601
vn 0.02113264426589012 -0.992273211479187 0.12225928157567978
vn -0.11150424927473068 0.8879345059394836 -0.446250319480896
vn 0.8992986679077148 0.20358259975910187 -0.3870607316493988
vn 0.046898484230041504 -0.9541827440261841 0.2955264151096344
vn 0.9620523452758789 -0.22136692702770233 -0.15953674912452698
vn 0.020126627758145332 -0.013689891435205936 0.9997037053108215
vn 0.024275222793221474 -0.0017924767453223467 0.9997037053108215
vn 0.02191913314163685 0.010585215874016285 0.9997037053108215
vn 0.01368987001478672 0.020126711577177048 0.9997037053108215
vn 0.0017923483392223716 0.024275273084640503 0.9997037053108215
vn -0.22681035101413727 0.4456954598426819 0.8659750819206238
vn -0.4192712903022766 0.27257853746414185 0.8659749031066895
vn -0.4993889629840851 0.026424558833241463 0.8659749627113342
vn -0.44569578766822815 -0.22681008279323578 0.8659748435020447
vn -0.27257871627807617 -0.4192710816860199 0.8659750819206238
vn -0.5242712497711182 0.7458536028862 0.4109039902687073
vn -0.8269588351249695 0.383792906999588 0.41090402007102966
vn -0.9868961572647095 0.08814630657434464 0.13515248894691467
vn -0.9080638885498047 -0.08110479265451431 0.4109041392803192
vn -0.7458540201187134 -0.5242706537246704 0.4109041392803192
vn -0.3837929368019104 -0.8269586563110352 0.41090428829193115
vn -0.4171118140220642 0.8987500071525574 0.13515228033065796
vn -0.8106042742729187 0.5697846412658691 0.13515232503414154
vn -0.8987502455711365 -0.41711121797561646 0.13515277206897736
vn -0.5697850584983826 -0.8106040954589844 0.13515251874923706
vn -1.5510238426941214e-07 1.9884922153323714e-08 1.0
vn -0.026424357667565346 -0.49938875436782837 0.8659749627113342
vn 0.026424149051308632 0.4993886649608612 0.865975022315979
vn 0.08110503107309341 -0.9080636501312256 0.41090431809425354
vn -0.010585490614175797 0.021919170394539833 0.9997037053108215
vn -0.08814575523138046 -0.9868961572647095 0.13515281677246094
vn -0.020126882940530777 0.013689893297851086 0.9997037053108215
vn -0.024275364354252815 0.0017925139982253313 0.9997037053108215
vn -0.021919334307312965 -0.010585206560790539 0.9997037053108215
vn -0.013690047897398472 -0.02012680284678936 0.9997037053108215
vn -0.001792614464648068 -0.024275274947285652 0.9997037053108215
vn 0.0105850575491786 -0.0219191312789917 0.9997037053108215
vn 0.22681006789207458 -0.4456954598426819 0.865975022315979
vn 0.41927120089530945 -0.27257850766181946 0.8659749627113342
vn 0.4993889033794403 -0.026424717158079147 0.8659748435020447
vn 0.4456957280635834 0.22680996358394623 0.8659749031066895
vn 0.27257850766181946 0.4192710518836975 0.865975022315979
vn 0.5242710709571838 -0.7458536624908447 0.41090425848960876
vn 0.8269588351249695 -0.38379305601119995 0.4109041690826416
vn 0.9868960976600647 -0.08814650774002075 0.13515299558639526
vn 0.9080637693405151 0.08110451698303223 0.410904198884964
vn 0.8987503051757812 0.41711103916168213 0.13515286147594452
vn 0.7458540201187134 0.5242704749107361 0.4109041690826416
vn 0.38379302620887756 0.8269585967063904 0.4109043478965759
vn 0.08814585953950882 0.986896276473999 0.1351526975631714
vn -0.08110523223876953 0.9080636501312256 0.41090428829193115
vn 0.4171115458011627 -0.8987501263618469 0.1351524144411087
vn 0.8106043338775635 -0.5697847008705139 0.1351526379585266
vn 0.5697852373123169 0.8106039762496948 0.13515251874923706
vn 0.12012019753456116 0.2319289594888687 0.9652875661849976
vn 0.9731866121292114 -0.22503434121608734 0.04761885851621628
vn 0.08303286880254745 -0.8770888447761536 0.47309696674346924
vn 0.9732708930969238 0.22508777678012848 -0.04559953883290291
vn 0.0014161448925733566 0.9977091550827026 -0.06763481348752975
vn 0.1325102001428604 -0.8432813882827759 0.5208815336227417
vn -0.8774299025535583 -0.20454293489456177 0.43391120433807373
vn -0.03647869452834129 0.9563468098640442 -0.2899484634399414
vn -0.9422292709350586 0.2578050494194031 0.21387054026126862
vn 0.057706788182258606 -0.12478680163621902 -0.9905040264129639
vn 0.11040478199720383 -0.07828909903764725 -0.9907984733581543
vn 0.13353382050991058 -0.010769184678792953 -0.9909857511520386
vn 0.12083934247493744 0.0596504770219326 -0.9908782243728638
vn 0.07575218379497528 0.11404213309288025 -0.9905836582183838
vn 0.21147505939006805 -0.4214215874671936 -0.8818628787994385
vn 0.3986446261405945 -0.2624053955078125 -0.8787638545036316
vn 0.48180916905403137 -0.024239452555775642 -0.8759408593177795
vn 0.426775187253952 0.223057359457016 -0.8764179348945618
vn 0.2548215389251709 0.4014863073825836 -0.8797014951705933
vn 0.507763147354126 -0.7250504493713379 -0.4652724266052246
vn 0.8064827919006348 -0.37496837973594666 -0.4571479260921478
vn 0.9782890677452087 -0.08737755566835403 -0.18792469799518585
vn 0.8869421482086182 0.08020295947790146 -0.45486387610435486
vn 0.7251300811767578 0.5115765333175659 -0.46095097064971924
vn 0.3712892234325409 0.8013203144073486 -0.46907365322113037
vn 0.41347411274909973 -0.8909117579460144 -0.18792450428009033
vn 0.803534746170044 -0.5648152828216553 -0.1879245787858963
vn 0.8909119367599487 0.413473516702652 -0.18792499601840973
vn 0.5648157000541687 0.8035343885421753 -0.18792474269866943
vn 2.203177444926041e-07 1.553721706848421e-09 -1.0
vn 0.02358361706137657 0.46984270215034485 -0.8824350833892822
vn -0.02361723594367504 -0.4702520966529846 -0.8822160959243774
vn -0.07753502577543259 0.8785455226898193 -0.47132372856140137
vn 0.010410550981760025 0.13786228001117706 -0.9903967976570129
vn 0.08737710118293762 0.9782890677452087 -0.18792496621608734
vn -0.057706382125616074 0.12478695064783096 -0.9905040264129639
vn -0.11040419340133667 0.07828928530216217 -0.9907985329627991
vn -0.13353346288204193 0.010769193060696125 -0.9909858107566833
vn -0.12083885818719864 -0.05965062230825424 -0.9908782839775085
vn -0.07575177401304245 -0.11404233425855637 -0.9905837774276733
vn -0.010410487651824951 -0.1378622204065323 -0.9903967976570129
vn -0.2113245129585266 0.42107439041137695 -0.8820648193359375
vn -0.3984517455101013 0.26224708557128906 -0.878898561000824
vn -0.48177093267440796 0.024213243275880814 -0.8759626150131226
vn -0.42693161964416504 -0.22315500676631927 -0.8763168454170227
vn -0.2550071179866791 -0.4017776846885681 -0.8795146942138672
vn -0.5076640248298645 0.7248898148536682 -0.4656309187412262
vn -0.8064017295837402 0.3749099373817444 -0.457338809967041
vn -0.978289008140564 0.08737780153751373 -0.18792492151260376
vn -0.8869619369506836 -0.08022717386484146 -0.45482122898101807
vn -0.8909119367599487 -0.4134732186794281 -0.18792498111724854
vn -0.7252282500267029 -0.5116704106330872 -0.46069246530532837
vn -0.37136614322662354 -0.8015130758285522 -0.46868327260017395
vn -0.0873771607875824 -0.9782891869544983 -0.18792472779750824
vn 0.07755466550588608 -0.8787711262702942 -0.470899760723114
vn -0.41347384452819824 0.8909116983413696 -0.18792471289634705
vn -0.8035346865653992 0.5648152828216553 -0.1879248321056366
vn -0.564815878868103 -0.8035342693328857 -0.18792478740215302
vn 3.3646830388534e-07 3.034313067473704e-08 -1.0
vn 0.19882024824619293 0.7024659514427185 0.6833828687667847
vn 0.19882024824619293 0.7024659514427185 0.6833828687667847
vn 0.19882024824619293 0.7024659514427185 0.6833828687667847
vn 0.2553308606147766 0.24606145918369293 0.9350186586380005
vn 0.2553308606147766 0.24606145918369293 0.9350186586380005
vn 0.2553308606147766 0.24606145918369293 0.9350186586380005
vn -0.010585490614175797 0.021919170394539833 0.9997037053108215
vn 0.0105850575491786 -0.0219191312789917 0.9997037053108215
vn -0.026424357667565346 -0.49938875436782837 0.8659749627113342
vn 0.026424149051308632 0.4993886649608612 0.865975022315979
vn 0.08110503107309341 -0.9080636501312256 0.41090431809425354
vn -0.08814575523138046 -0.9868961572647095 0.13515281677246094
vn 0.08814585953950882 0.986896276473999 0.1351526975631714
vn -0.08110523223876953 0.9080636501312256 0.41090428829193115
vn 0.1325102001428604 -0.8432813882827759 0.5208815336227417
vn -0.1939009130001068 -0.6444917321205139 -0.7396166920661926
vn -0.1939009130001068 -0.6444917321205139 -0.7396166920661926
vn -0.1939009130001068 -0.6444917321205139 -0.7396166920661926
vn -0.23632216453552246 -0.27062469720840454 -0.9332278966903687
vn -0.23632216453552246 -0.27062469720840454 -0.9332278966903687
vn -0.23632216453552246 -0.27062469720840454 -0.9332278966903687
vn 0.02358361706137657 0.46984270215034485 -0.8824350833892822
vn -0.02361723594367504 -0.4702520966529846 -0.8822160959243774
vn 0.08737710118293762 0.9782890677452087 -0.18792496621608734
vn -0.07753502577543259 0.8785455226898193 -0.47132372856140137
vn -0.0873771607875824 -0.9782891869544983 -0.18792472779750824
vn 0.07755466550588608 -0.8787711262702942 -0.470899760723114
vn 3.3646830388534e-07 3.034313067473704e-08 -1.0
vn 3.3646830388534e-07 3.034313067473704e-08 -1.0
vn 4.9826635262206764e-08 -1.3514960528482334e-07 -1.0
vn 4.9826635262206764e-08 -1.3514960528482334e-07 -1.0
vn 1.3255171893433726e-07 8.134453111097173e-09 -1.0
vn 1.3255171893433726e-07 8.134453111097173e-09 -1.0
vn 1.4067867937228584e-07 -2.2210722150362017e-08 -1.0
vn 1.4067867937228584e-07 -2.2210722150362017e-08 -1.0
vn 1.5476447856599407e-07 -3.034316264916015e-08 -1.0
vn 1.5476447856599407e-07 -3.034316264916015e-08 -1.0
vn 1.3255170472348254e-07 -8.13440337310567e-09 -1.0
vn 1.3255170472348254e-07 -8.13440337310567e-09 -1.0
vn 1.0238593972644594e-07 -7.463485474090703e-08 -1.0
vn 1.0238593972644594e-07 -7.463485474090703e-08 -1.0
vn 1.0238603920242895e-07 7.463460605094951e-08 -1.0
vn 1.0238603920242895e-07 7.463460605094951e-08 -1.0
vn 1.7102526328471868e-07 3.0343141332878076e-08 -1.0
vn 1.7102526328471868e-07 3.0343141332878076e-08 -1.0
vn -1.0678768980199038e-08 -3.034315199101911e-08 -1.0
vn -1.0678768980199038e-08 -3.034315199101911e-08 -1.0
vn 1.9727605149455485e-07 8.971964149395717e-08 -1.0
vn 1.9727605149455485e-07 8.971964149395717e-08 -1.0
vn 1.0642398251548002e-07 6.764070548115342e-08 -1.0
vn 1.0642398251548002e-07 6.764070548115342e-08 -1.0
f 167/167/167 168/168/168 117/117/117
f 165/165/165 166/166/166 117/117/117
f 163/163/163 164/164/164 117/117/117
f 161/161/161 162/162/162 117/117/117
f 159/159/159 160/160/160 117/117/117
f 157/157/157 158/158/158 117/117/117
f 155/155/155 156/156/156 117/117/117
f 153/153/153 154/154/154 117/117/117
f 151/151/151 152/152/152 117/117/117
f 149/149/149 150/150/150 117/117/117
f 147/147/147 148/148/148 117/117/117
f 145/145/145 146/146/146 117/117/117
f 140/140/140 144/144/144 111/111/111
f 111/111/111 104/104/104 140/140/140
f 104/104/104 111/111/111 110/110/110
f 110/110/110 103/103/103 104/104/104
f 103/103/103 110/110/110 108/108/108
f 108/108/108 102/102/102 103/103/103
f 102/102/102 108/108/108 106/106/106
f 106/106/106 101/101/101 102/102/102
f 101/101/101 106/106/106 105/105/105
f 105/105/105 100/100/100 101/101/101
f 100/100/100 105/105/105 142/142/142
f 142/142/142 139/139/139 100/100/100
f 111/111/111 144/144/144 143/143/143
f 143/143/143 116/116/116 111/111/111
f 110/110/110 111/111/111 116/116/116
f 116/116/116 109/109/109 110/110/110
f 108/108/108 110/110/110 109/109/109
f 109/109/109 107/107/107 108/108/108
f 106/106/106 108/108/108 107/107/107
f 107/107/107 115/115/115 106/106/106
f 105/105/105 106/106/106 115/115/115
f 115/115/115 114/114/114 105/105/105
f 142/142/142 105/105/105 114/114/114
f 114/114/114 141/141/141 142/142/142
f 99/99/99 140/140/140 104/104/104
f 104/104/104 98/98/98 99/99/99
f 98/98/98 104/104/104 103/103/103
f 103/103/103 97/97/97 98/98/98
f 97/97/97 103/103/103 102/102/102
f 102/102/102 96/96/96 97/97/97
f 96/96/96 102/102/102 101/101/101
f 101/101/101 95/95/95 96/96/96
f 95/95/95 101/101/101 100/100/100
f 100/100/100 94/94/94 95/95/95
f 94/94/94 100/100/100 139/139/139
f 139/139/139 92/92/92 94/94/94
f 88/88/88 99/99/99 98/98/98
f 88/88/88 98/98/98 97/97/97
f 88/88/88 97/97/97 96/96/96
f 88/88/88 96/96/96 95/95/95
f 88/88/88 95/95/95 94/94/94
f 88/88/88 94/94/94 92/92/92
f 89/89/89 91/91/91 83/83/83
f 83/83/83 77/77/77 89/89/89
f 77/77/77 83/83/83 82/82/82
f 82/82/82 76/76/76 77/77/77
f 76/76/76 82/82/82 81/81/81
f 81/81/81 75/75/75 76/76/76
f 75/75/75 81/81/81 79/79/79
f 79/79/79 74/74/74 75/75/75
f 74/74/74 79/79/79 78/78/78
f 78/78/78 73/73/73 74/74/74
f 73/73/73 78/78/78 113/113/113
f 113/113/113 90/90/90 73/73/73
f 83/83/83 91/91/91 93/93/93
f 93/93/93 87/87/87 83/83/83
f 82/82/82 83/83/83 87/87/87
f 87/87/87 86/86/86 82/82/82
f 81/81/81 82/82/82 86/86/86
f 86/86/86 80/80/80 81/81/81
f 79/79/79 81/81/81 80/80/80
f 80/80/80 85/85/85 79/79/79
f 78/78/78 79/79/79 85/85/85
f 85/85/85 84/84/84 78/78/78
f 113/113/113 78/78/78 84/84/84
f 84/84/84 112/112/112 113/113/113
f 92/92/92 89/89/89 77/77/77
f 77/77/77 72/72/72 92/92/92
f 72/72/72 77/77/77 76/76/76
f 76/76/76 71/71/71 72/72/72
f 71/71/71 76/76/76 75/75/75
f 75/75/75 70/70/70 71/71/71
f 70/70/70 75/75/75 74/74/74
f 74/74/74 69/69/69 70/70/70
f 69/69/69 74/74/74 73/73/73
f 73/73/73 68/68/68 69/69/69
f 68/68/68 73/73/73 90/90/90
f 90/90/90 99/99/99 68/68/68
f 88/88/88 92/92/92 72/72/72
f 88/88/88 72/72/72 71/71/71
f 88/88/88 71/71/71 70/70/70
f 88/88/88 70/70/70 69/69/69
f 88/88/88 69/69/69 68/68/68
f 88/88/88 68/68/68 99/99/99
f 136/136/136 137/137/137 138/138/138
f 133/133/133 134/134/134 135/135/135
f 67/67/67 59/59/59 63/63/63
f 61/61/61 59/59/59 67/67/67
f 67/67/67 63/63/63 66/66/66
f 66/66/66 65/65/65 67/67/67
f 61/61/61 67/67/67 65/65/65
f 65/65/65 132/132/132 61/61/61
f 62/62/62 63/63/63 59/59/59
f 61/61/61 62/62/62 59/59/59
f 62/62/62 60/60/60 66/66/66
f 66/66/66 63/63/63 62/62/62
f 61/61/61 64/64/64 60/60/60
f 60/60/60 62/62/62 61/61/61
f 127/127/127 46/46/46 53/53/53
f 53/53/53 131/131/131 127/127/127
f 46/46/46 45/45/45 52/52/52
f 52/52/52 53/53/53 46/46/46
f 45/45/45 44/44/44 50/50/50
f 50/50/50 52/52/52 45/45/45
f 44/44/44 43/43/43 48/48/48
f 48/48/48 50/50/50 44/44/44
f 43/43/43 42/42/42 47/47/47
f 47/47/47 48/48/48 43/43/43
f 42/42/42 126/126/126 128/128/128
f 128/128/128 47/47/47 42/42/42
f 53/53/53 58/58/58 130/130/130
f 130/130/130 131/131/131 53/53/53
f 52/52/52 51/51/51 58/58/58
f 58/58/58 53/53/53 52/52/52
f 50/50/50 49/49/49 51/51/51
f 51/51/51 52/52/52 50/50/50
f 48/48/48 57/57/57 49/49/49
f 49/49/49 50/50/50 48/48/48
f 47/47/47 56/56/56 57/57/57
f 57/57/57 48/48/48 47/47/47
f 128/128/128 129/129/129 56/56/56
f 56/56/56 47/47/47 128/128/128
f 125/125/125 40/40/40 46/46/46
f 46/46/46 127/127/127 125/125/125
f 40/40/40 39/39/39 45/45/45
f 45/45/45 46/46/46 40/40/40
f 39/39/39 38/38/38 44/44/44
f 44/44/44 45/45/45 39/39/39
f 38/38/38 37/37/37 43/43/43
f 43/43/43 44/44/44 38/38/38
f 37/37/37 36/36/36 42/42/42
f 42/42/42 43/43/43 37/37/37
f 36/36/36 124/124/124 126/126/126
f 126/126/126 42/42/42 36/36/36
f 30/30/30 40/40/40 125/125/125
f 30/30/30 39/39/39 40/40/40
f 30/30/30 38/38/38 39/39/39
f 30/30/30 37/37/37 38/38/38
f 30/30/30 36/36/36 37/37/37
f 30/30/30 124/124/124 36/36/36
f 31/31/31 19/19/19 25/25/25
f 25/25/25 33/33/33 31/31/31
f 19/19/19 18/18/18 24/24/24
f 24/24/24 25/25/25 19/19/19
f 18/18/18 17/17/17 23/23/23
f 23/23/23 24/24/24 18/18/18
f 17/17/17 16/16/16 21/21/21
f 21/21/21 23/23/23 17/17/17
f 16/16/16 15/15/15 20/20/20
f 20/20/20 21/21/21 16/16/16
f 15/15/15 32/32/32 55/55/55
f 55/55/55 20/20/20 15/15/15
f 25/25/25 29/29/29 35/35/35
f 35/35/35 33/33/33 25/25/25
f 24/24/24 28/28/28 29/29/29
f 29/29/29 25/25/25 24/24/24
f 23/23/23 22/22/22 28/28/28
f 28/28/28 24/24/24 23/23/23
f 21/21/21 27/27/27 22/22/22
f 22/22/22 23/23/23 21/21/21
f 20/20/20 26/26/26 27/27/27
f 27/27/27 21/21/21 20/20/20
f 55/55/55 54/54/54 26/26/26
f 26/26/26 20/20/20 55/55/55
f 34/34/34 14/14/14 19/19/19
f 19/19/19 31/31/31 34/34/34
f 14/14/14 13/13/13 18/18/18
f 18/18/18 19/19/19 14/14/14
f 13/13/13 12/12/12 17/17/17
f 17/17/17 18/18/18 13/13/13
f 12/12/12 11/11/11 16/16/16
f 16/16/16 17/17/17 12/12/12
f 11/11/11 10/10/10 15/15/15
f 15/15/15 16/16/16 11/11/11
f 10/10/10 41/41/41 32/32/32
f 32/32/32 15/15/15 10/10/10
f 30/30/30 14/14/14 34/34/34
f 30/30/30 13/13/13 14/14/14
f 30/30/30 12/12/12 13/13/13
f 30/30/30 11/11/11 12/12/12
f 30/30/30 10/10/10 11/11/11
f 30/30/30 41/41/41 10/10/10
f 121/121/121 122/122/122 123/123/123
f 118/118/118 119/119/119 120/120/120
f 9/9/9 5/5/5 1/1/1
f 3/3/3 9/9/9 1/1/1
f 9/9/9 7/7/7 8/8/8
f 8/8/8 5/5/5 9/9/9
f 3/3/3 6/6/6 7/7/7
f 7/7/7 9/9/9 3/3/3
f 4/4/4 1/1/1 5/5/5
f 3/3/3 1/1/1 4/4/4
f 4/4/4 5/5/5 8/8/8
f 8/8/8 2/2/2 4/4/4
f 3/3/3 4/4/4 2/2/2
f 2/2/2 6/6/6 3/3/3
