# Recovered local-space geometry; original node transforms not applied
o mesh_0
v -18.555192947387695 32.22273635864258 -16.725643157958984
v -32.174129486083984 18.60379409790039 -16.725648880004883
v -37.15899658203125 2.3126602172851562e-05 -16.725648880004883
v -32.17411422729492 -18.603822708129883 -16.725648880004883
v -18.55518913269043 -32.222755432128906 -16.725643157958984
v -13.065874099731445 22.7149600982666 -33.754608154296875
v -22.666353225708008 13.114480018615723 -33.754608154296875
v -26.18036460876465 2.7894973754882812e-05 -33.754608154296875
v -22.666345596313477 -13.114505767822266 -33.754608154296875
v -13.065864562988281 -22.714982986450195 -33.754608154296875
v -8.611199378967285 14.999241828918457 -39.12868118286133
v -14.950630187988281 8.659810066223145 -39.128684997558594
v -17.271020889282227 3.0279159545898438e-05 -39.128692626953125
v -14.950630187988281 -8.659835815429688 -39.128684997558594
v -8.611194610595703 -14.999266624450684 -39.12868118286133
v -5.027644157409668 8.792344093322754 -39.12868118286133
v -8.743731498718262 5.076254844665527 -39.12868118286133
v -10.103909492492676 3.218650817871094e-05 -39.12868881225586
v -8.74372673034668 -5.0762834548950195 -39.12868118286133
v -5.027639865875244 -8.792367935180664 -39.12868118286133
v 0.048626359552145004 -10.152547836303711 -39.128684997558594
v 0.048621222376823425 -5.7183751778211445e-06 -35.39006042480469
v 0.0486227422952652 -26.2289981842041 -33.754608154296875
v 0.0486171655356884 -37.20763397216797 -16.725635528564453
v 18.652421951293945 -32.222755432128906 -16.72563362121582
v 32.27136993408203 -18.60381317138672 -16.72563934326172
v 37.2562370300293 -4.018154868390411e-05 -16.72563934326172
v 32.27135467529297 18.60380744934082 -16.72563934326172
v 18.652433395385742 32.22274398803711 -16.72563362121582
v 0.048620861023664474 37.207618713378906 -16.72563934326172
v 13.16311264038086 -22.714975357055664 -33.75460433959961
v 22.763591766357422 -13.114495277404785 -33.75460433959961
v 26.277605056762695 -4.329219154897146e-05 -33.75460433959961
v 22.763591766357422 13.114490509033203 -33.75460433959961
v 13.163110733032227 22.714967727661133 -33.75460433959961
v 0.048619285225868225 26.228986740112305 -33.754608154296875
v 0.048624392598867416 -17.319656372070312 -39.128684997558594
v 8.708440780639648 -14.999255180358887 -39.128684997558594
v 15.047871589660645 -8.659823417663574 -39.12868118286133
v 17.368263244628906 -4.433110007084906e-05 -39.12868881225586
v 15.04787540435791 8.659822463989258 -39.12868118286133
v 8.708439826965332 14.999253273010254 -39.128684997558594
v 0.04861992225050926 17.319644927978516 -39.128684997558594
v 5.124885082244873 -8.792357444763184 -39.128684997558594
v 8.840974807739258 -5.076268196105957 -39.128684997558594
v 10.201152801513672 -4.5156251871958375e-05 -39.128692626953125
v 8.840971946716309 5.07627010345459 -39.128684997558594
v 5.124884128570557 8.792356491088867 -39.128684997558594
v 0.048617180436849594 10.152536392211914 -39.128684997558594
v -20.04594612121582 34.80480194091797 -18.044052124023438
v -34.756195068359375 20.09454917907715 -18.044055938720703
v -40.140506744384766 2.3471819076803513e-05 -18.044057846069336
v -34.75617980957031 -20.09457778930664 -18.044057846069336
v -20.045942306518555 -34.8048210144043 -18.044052124023438
v -14.230966567993164 23.946992874145508 -35.022891998291016
v -24.684350967407227 13.831007957458496 -35.02288818359375
v -28.510549545288086 0.012360215187072754 -35.02288818359375
v -24.684345245361328 -13.806368827819824 -35.02288818359375
v -14.23095703125 -23.922351837158203 -35.022891998291016
v -9.116909980773926 15.375089645385742 -41.01631164550781
v -15.826542854309082 8.8820219039917 -41.01631546020508
v -18.282438278198242 0.012362778186798096 -41.01632308959961
v -15.826544761657715 -8.857380867004395 -41.01631546020508
v -9.116905212402344 -15.350451469421387 -41.01631164550781
v -4.789771556854248 8.12217903137207 -41.138214111328125
v -8.331724166870117 4.694549560546875 -41.138214111328125
v -9.628165245056152 0.012362152338027954 -41.138221740722656
v -8.331719398498535 -4.669914245605469 -41.138214111328125
v -4.789768218994141 -8.097538948059082 -41.138214111328125
v 0.048625003546476364 -9.35213565826416 -41.138221740722656
v 0.04862126708030701 0.012326419353485107 -40.60948181152344
v 0.048623353242874146 -27.625057220458984 -35.022891998291016
v 0.048617396503686905 -40.189144134521484 -18.044044494628906
v 20.143178939819336 -34.8048210144043 -18.044042587280273
v 34.85343551635742 -20.094568252563477 -18.04404640197754
v 40.23774719238281 -4.0501989133190364e-05 -18.044048309326172
v 34.85342025756836 20.094562530517578 -18.044048309326172
v 20.143190383911133 34.8048095703125 -18.044042587280273
v 0.048620570451021194 40.18912887573242 -18.044048309326172
v 14.328205108642578 -23.922344207763672 -35.02288818359375
v 24.78158950805664 -13.806358337402344 -35.02288818359375
v 28.607789993286133 0.012288123369216919 -35.02288818359375
v 24.781591415405273 13.831016540527344 -35.02288818359375
v 14.328203201293945 23.94700050354004 -35.02288818359375
v 0.048618629574775696 27.649709701538086 -35.022891998291016
v 0.048624925315380096 -17.727079391479492 -41.016319274902344
v 9.214149475097656 -15.350439071655273 -41.016319274902344
v 15.923783302307129 -8.857369422912598 -41.01631546020508
v 18.379684448242188 0.012287706136703491 -41.01631546020508
v 15.923789024353027 8.882031440734863 -41.01630783081055
v 9.21414852142334 15.375102996826172 -41.016319274902344
v 0.0486188605427742 17.75172996520996 -41.016319274902344
v 4.887012481689453 -8.097528457641602 -41.138221740722656
v 8.428964614868164 -4.669898509979248 -41.138221740722656
v 9.7254056930542 0.012289315462112427 -41.13822937011719
v 8.428963661193848 4.694565296173096 -41.138221740722656
v 4.887012481689453 8.122191429138184 -41.138221740722656
v 0.04861686751246452 9.376789093017578 -41.138221740722656
v -41.93940353393555 2.193450927734375e-05 -0.079631008207798
v -20.945404052734375 36.3626823425293 -0.07963140308856964
v -36.3140754699707 20.993999481201172 -0.07963009178638458
v -36.31407165527344 -20.99402618408203 -0.07963009178638458
v -20.945392608642578 -36.36271286010742 -0.07962758839130402
v 0.048613619059324265 -41.988040924072266 -0.07962416857481003
v 42.03663635253906 -3.971127443946898e-05 -0.07962114363908768
v 36.41130447387695 20.994007110595703 -0.07962015271186829
v 0.04861874505877495 41.98802947998047 -0.07962416857481003
v 21.04262924194336 -36.362701416015625 -0.07962456345558167
v 36.41130065917969 -20.9940185546875 -0.07962015271186829
v 21.042633056640625 36.362693786621094 -0.07962074875831604
v -46.06708526611328 2.3291446268558502e-05 -5.955560482107103e-06
v -23.009246826171875 39.93735885620117 -6.9673333200626075e-06
v -39.88875198364258 23.057838439941406 -4.829772933589993e-06
v -39.88874816894531 -23.057865142822266 -4.829772024095291e-06
v -23.009231567382812 -39.9373893737793 -3.152633325953502e-06
v 0.048614226281642914 -46.11572265625 1.557640985083708e-06
v 46.16431427001953 -4.212278872728348e-05 5.2561454140231945e-06
v 39.98598098754883 23.057846069335938 5.203241016715765e-06
v 0.0486181266605854 46.11570739746094 6.039673507984844e-07
v 23.106473922729492 -39.9373779296875 5.458716714201728e-07
v 39.9859733581543 -23.057861328125 7.110588740033563e-06
v 23.106475830078125 39.93737030029297 4.360569619166199e-06
v 0.048615388572216034 -8.742014870222192e-06 -0.0796254351735115
v -20.945404052734375 36.3626823425293 -0.07963140308856964
v -18.555192947387695 32.22273635864258 -16.725643157958984
v -36.3140754699707 20.993999481201172 -0.07963009178638458
v -32.174129486083984 18.60379409790039 -16.725648880004883
v -41.93940353393555 2.193450927734375e-05 -0.079631008207798
v -37.15899658203125 2.3126602172851562e-05 -16.725648880004883
v -36.31407165527344 -20.99402618408203 -0.07963009178638458
v -32.17411422729492 -18.603822708129883 -16.725648880004883
v -20.945392608642578 -36.36271286010742 -0.07962758839130402
v -18.55518913269043 -32.222755432128906 -16.725643157958984
v -18.555192947387695 32.22273635864258 -16.725643157958984
v 0.048620861023664474 37.207618713378906 -16.72563934326172
v -32.174129486083984 18.60379409790039 -16.725648880004883
v -18.555192947387695 32.22273635864258 -16.725643157958984
v -13.065874099731445 22.7149600982666 -33.754608154296875
v -37.15899658203125 2.3126602172851562e-05 -16.725648880004883
v -32.174129486083984 18.60379409790039 -16.725648880004883
v -22.666353225708008 13.114480018615723 -33.754608154296875
v -32.17411422729492 -18.603822708129883 -16.725648880004883
v -37.15899658203125 2.3126602172851562e-05 -16.725648880004883
v -26.18036460876465 2.7894973754882812e-05 -33.754608154296875
v -18.55518913269043 -32.222755432128906 -16.725643157958984
v -32.17411422729492 -18.603822708129883 -16.725648880004883
v -22.666345596313477 -13.114505767822266 -33.754608154296875
v 0.0486171655356884 -37.20763397216797 -16.725635528564453
v -18.55518913269043 -32.222755432128906 -16.725643157958984
v -13.065864562988281 -22.714982986450195 -33.754608154296875
v -13.065874099731445 22.7149600982666 -33.754608154296875
v 0.048619285225868225 26.228986740112305 -33.754608154296875
v -22.666353225708008 13.114480018615723 -33.754608154296875
v -13.065874099731445 22.7149600982666 -33.754608154296875
v -8.611199378967285 14.999241828918457 -39.12868118286133
v -26.18036460876465 2.7894973754882812e-05 -33.754608154296875
v -22.666353225708008 13.114480018615723 -33.754608154296875
v -14.950630187988281 8.659810066223145 -39.128684997558594
v -22.666345596313477 -13.114505767822266 -33.754608154296875
v -26.18036460876465 2.7894973754882812e-05 -33.754608154296875
v -17.271020889282227 3.0279159545898438e-05 -39.128692626953125
v -13.065864562988281 -22.714982986450195 -33.754608154296875
v -22.666345596313477 -13.114505767822266 -33.754608154296875
v -14.950630187988281 -8.659835815429688 -39.128684997558594
v 0.0486227422952652 -26.2289981842041 -33.754608154296875
v -13.065864562988281 -22.714982986450195 -33.754608154296875
v -8.611194610595703 -14.999266624450684 -39.12868118286133
v -8.611199378967285 14.999241828918457 -39.12868118286133
v 0.04861992225050926 17.319644927978516 -39.128684997558594
v -14.950630187988281 8.659810066223145 -39.128684997558594
v -17.271020889282227 3.0279159545898438e-05 -39.128692626953125
v -14.950630187988281 -8.659835815429688 -39.128684997558594
v -8.611194610595703 -14.999266624450684 -39.12868118286133
v 0.048624392598867416 -17.319656372070312 -39.128684997558594
v -5.027644157409668 8.792344093322754 -39.12868118286133
v 0.048617180436849594 10.152536392211914 -39.128684997558594
v -8.743731498718262 5.076254844665527 -39.12868118286133
v -5.027644157409668 8.792344093322754 -39.12868118286133
v 0.048621222376823425 -5.7183751778211445e-06 -35.39006042480469
v -10.103909492492676 3.218650817871094e-05 -39.12868881225586
v -8.743731498718262 5.076254844665527 -39.12868118286133
v 0.048621222376823425 -5.7183751778211445e-06 -35.39006042480469
v -8.74372673034668 -5.0762834548950195 -39.12868118286133
v -10.103909492492676 3.218650817871094e-05 -39.12868881225586
v 0.048621222376823425 -5.7183751778211445e-06 -35.39006042480469
v -5.027639865875244 -8.792367935180664 -39.12868118286133
v -8.74372673034668 -5.0762834548950195 -39.12868118286133
v 0.048621222376823425 -5.7183751778211445e-06 -35.39006042480469
v 0.048626359552145004 -10.152547836303711 -39.128684997558594
v -5.027639865875244 -8.792367935180664 -39.12868118286133
v 0.048621222376823425 -5.7183751778211445e-06 -35.39006042480469
v 0.048613619059324265 -41.988040924072266 -0.07962416857481003
v 0.0486171655356884 -37.20763397216797 -16.725635528564453
v 21.04262924194336 -36.362701416015625 -0.07962456345558167
v 18.652421951293945 -32.222755432128906 -16.72563362121582
v 36.41130065917969 -20.9940185546875 -0.07962015271186829
v 32.27136993408203 -18.60381317138672 -16.72563934326172
v 42.03663635253906 -3.971127443946898e-05 -0.07962114363908768
v 37.2562370300293 -4.018154868390411e-05 -16.72563934326172
v 36.41130447387695 20.994007110595703 -0.07962015271186829
v 32.27135467529297 18.60380744934082 -16.72563934326172
v 0.04861874505877495 41.98802947998047 -0.07962416857481003
v 21.042633056640625 36.362693786621094 -0.07962074875831604
v 18.652433395385742 32.22274398803711 -16.72563362121582
v 0.048620861023664474 37.207618713378906 -16.72563934326172
v 18.652421951293945 -32.222755432128906 -16.72563362121582
v 0.0486171655356884 -37.20763397216797 -16.725635528564453
v 0.0486227422952652 -26.2289981842041 -33.754608154296875
v 32.27136993408203 -18.60381317138672 -16.72563934326172
v 18.652421951293945 -32.222755432128906 -16.72563362121582
v 13.16311264038086 -22.714975357055664 -33.75460433959961
v 37.2562370300293 -4.018154868390411e-05 -16.72563934326172
v 32.27136993408203 -18.60381317138672 -16.72563934326172
v 22.763591766357422 -13.114495277404785 -33.75460433959961
v 32.27135467529297 18.60380744934082 -16.72563934326172
v 37.2562370300293 -4.018154868390411e-05 -16.72563934326172
v 26.277605056762695 -4.329219154897146e-05 -33.75460433959961
v 18.652433395385742 32.22274398803711 -16.72563362121582
v 32.27135467529297 18.60380744934082 -16.72563934326172
v 22.763591766357422 13.114490509033203 -33.75460433959961
v 0.048620861023664474 37.207618713378906 -16.72563934326172
v 18.652433395385742 32.22274398803711 -16.72563362121582
v 13.163110733032227 22.714967727661133 -33.75460433959961
v 0.048619285225868225 26.228986740112305 -33.754608154296875
v 13.16311264038086 -22.714975357055664 -33.75460433959961
v 0.0486227422952652 -26.2289981842041 -33.754608154296875
v 0.048624392598867416 -17.319656372070312 -39.128684997558594
v 22.763591766357422 -13.114495277404785 -33.75460433959961
v 13.16311264038086 -22.714975357055664 -33.75460433959961
v 8.708440780639648 -14.999255180358887 -39.128684997558594
v 26.277605056762695 -4.329219154897146e-05 -33.75460433959961
v 22.763591766357422 -13.114495277404785 -33.75460433959961
v 15.047871589660645 -8.659823417663574 -39.12868118286133
v 22.763591766357422 13.114490509033203 -33.75460433959961
v 26.277605056762695 -4.329219154897146e-05 -33.75460433959961
v 17.368263244628906 -4.433110007084906e-05 -39.12868881225586
v 13.163110733032227 22.714967727661133 -33.75460433959961
v 22.763591766357422 13.114490509033203 -33.75460433959961
v 15.04787540435791 8.659822463989258 -39.12868118286133
v 0.048619285225868225 26.228986740112305 -33.754608154296875
v 13.163110733032227 22.714967727661133 -33.75460433959961
v 8.708439826965332 14.999253273010254 -39.128684997558594
v 0.04861992225050926 17.319644927978516 -39.128684997558594
v 8.708440780639648 -14.999255180358887 -39.128684997558594
v 0.048624392598867416 -17.319656372070312 -39.128684997558594
v 0.048626359552145004 -10.152547836303711 -39.128684997558594
v 15.047871589660645 -8.659823417663574 -39.12868118286133
v 17.368263244628906 -4.433110007084906e-05 -39.12868881225586
v 15.04787540435791 8.659822463989258 -39.12868118286133
v 8.708439826965332 14.999253273010254 -39.128684997558594
v 0.04861992225050926 17.319644927978516 -39.128684997558594
v 0.048617180436849594 10.152536392211914 -39.128684997558594
v 5.124885082244873 -8.792357444763184 -39.128684997558594
v 0.048626359552145004 -10.152547836303711 -39.128684997558594
v 0.048621222376823425 -5.7183751778211445e-06 -35.39006042480469
v 8.840974807739258 -5.076268196105957 -39.128684997558594
v 5.124885082244873 -8.792357444763184 -39.128684997558594
v 0.048621222376823425 -5.7183751778211445e-06 -35.39006042480469
v 10.201152801513672 -4.5156251871958375e-05 -39.128692626953125
v 8.840974807739258 -5.076268196105957 -39.128684997558594
v 0.048621222376823425 -5.7183751778211445e-06 -35.39006042480469
v 8.840971946716309 5.07627010345459 -39.128684997558594
v 10.201152801513672 -4.5156251871958375e-05 -39.128692626953125
v 0.048621222376823425 -5.7183751778211445e-06 -35.39006042480469
v 5.124884128570557 8.792356491088867 -39.128684997558594
v 8.840971946716309 5.07627010345459 -39.128684997558594
v 0.048621222376823425 -5.7183751778211445e-06 -35.39006042480469
v 0.048617180436849594 10.152536392211914 -39.128684997558594
v 5.124884128570557 8.792356491088867 -39.128684997558594
v 0.048621222376823425 -5.7183751778211445e-06 -35.39006042480469
v -20.04594612121582 34.80480194091797 -18.044052124023438
v -23.009246826171875 39.93735885620117 -6.9673333200626075e-06
v -34.756195068359375 20.09454917907715 -18.044055938720703
v -39.88875198364258 23.057838439941406 -4.829772933589993e-06
v -40.140506744384766 2.3471819076803513e-05 -18.044057846069336
v -46.06708526611328 2.3291446268558502e-05 -5.955560482107103e-06
v -34.75617980957031 -20.09457778930664 -18.044057846069336
v -39.88874816894531 -23.057865142822266 -4.829772024095291e-06
v -20.045942306518555 -34.8048210144043 -18.044052124023438
v -23.009231567382812 -39.9373893737793 -3.152633325953502e-06
v -20.04594612121582 34.80480194091797 -18.044052124023438
v 0.048618629574775696 27.649709701538086 -35.022891998291016
v 0.048620570451021194 40.18912887573242 -18.044048309326172
v -20.04594612121582 34.80480194091797 -18.044052124023438
v -34.756195068359375 20.09454917907715 -18.044055938720703
v -14.230966567993164 23.946992874145508 -35.022891998291016
v -14.230966567993164 23.946992874145508 -35.022891998291016
v -20.04594612121582 34.80480194091797 -18.044052124023438
v -34.756195068359375 20.09454917907715 -18.044055938720703
v -40.140506744384766 2.3471819076803513e-05 -18.044057846069336
v -24.684350967407227 13.831007957458496 -35.02288818359375
v -24.684350967407227 13.831007957458496 -35.02288818359375
v -34.756195068359375 20.09454917907715 -18.044055938720703
v -40.140506744384766 2.3471819076803513e-05 -18.044057846069336
v -34.75617980957031 -20.09457778930664 -18.044057846069336
v -28.510549545288086 0.012360215187072754 -35.02288818359375
v -28.510549545288086 0.012360215187072754 -35.02288818359375
v -40.140506744384766 2.3471819076803513e-05 -18.044057846069336
v -34.75617980957031 -20.09457778930664 -18.044057846069336
v -20.045942306518555 -34.8048210144043 -18.044052124023438
v -24.684345245361328 -13.806368827819824 -35.02288818359375
v -24.684345245361328 -13.806368827819824 -35.02288818359375
v -34.75617980957031 -20.09457778930664 -18.044057846069336
v -20.045942306518555 -34.8048210144043 -18.044052124023438
v 0.048617396503686905 -40.189144134521484 -18.044044494628906
v -14.23095703125 -23.922351837158203 -35.022891998291016
v -14.23095703125 -23.922351837158203 -35.022891998291016
v -20.045942306518555 -34.8048210144043 -18.044052124023438
v 0.048617396503686905 -40.189144134521484 -18.044044494628906
v -14.230966567993164 23.946992874145508 -35.022891998291016
v 0.048618629574775696 27.649709701538086 -35.022891998291016
v -24.684350967407227 13.831007957458496 -35.02288818359375
v -9.116909980773926 15.375089645385742 -41.01631164550781
v -14.230966567993164 23.946992874145508 -35.022891998291016
v -28.510549545288086 0.012360215187072754 -35.02288818359375
v -15.826542854309082 8.8820219039917 -41.01631546020508
v -24.684350967407227 13.831007957458496 -35.02288818359375
v -24.684345245361328 -13.806368827819824 -35.02288818359375
v -18.282438278198242 0.012362778186798096 -41.01632308959961
v -28.510549545288086 0.012360215187072754 -35.02288818359375
v -14.23095703125 -23.922351837158203 -35.022891998291016
v -15.826544761657715 -8.857380867004395 -41.01631546020508
v -24.684345245361328 -13.806368827819824 -35.02288818359375
v 0.048623353242874146 -27.625057220458984 -35.022891998291016
v -9.116905212402344 -15.350451469421387 -41.01631164550781
v -14.23095703125 -23.922351837158203 -35.022891998291016
v -9.116909980773926 15.375089645385742 -41.01631164550781
v 0.0486188605427742 17.75172996520996 -41.016319274902344
v -15.826542854309082 8.8820219039917 -41.01631546020508
v -4.789771556854248 8.12217903137207 -41.138214111328125
v -9.116909980773926 15.375089645385742 -41.01631164550781
v -18.282438278198242 0.012362778186798096 -41.01632308959961
v -8.331724166870117 4.694549560546875 -41.138214111328125
v -15.826542854309082 8.8820219039917 -41.01631546020508
v -15.826544761657715 -8.857380867004395 -41.01631546020508
v -9.628165245056152 0.012362152338027954 -41.138221740722656
v -18.282438278198242 0.012362778186798096 -41.01632308959961
v -9.116905212402344 -15.350451469421387 -41.01631164550781
v -8.331719398498535 -4.669914245605469 -41.138214111328125
v -15.826544761657715 -8.857380867004395 -41.01631546020508
v 0.048624925315380096 -17.727079391479492 -41.016319274902344
v -4.789768218994141 -8.097538948059082 -41.138214111328125
v -9.116905212402344 -15.350451469421387 -41.01631164550781
v -4.789771556854248 8.12217903137207 -41.138214111328125
v 0.04861686751246452 9.376789093017578 -41.138221740722656
v -8.331724166870117 4.694549560546875 -41.138214111328125
v 0.04862126708030701 0.012326419353485107 -40.60948181152344
v -4.789771556854248 8.12217903137207 -41.138214111328125
v -9.628165245056152 0.012362152338027954 -41.138221740722656
v 0.04862126708030701 0.012326419353485107 -40.60948181152344
v -8.331724166870117 4.694549560546875 -41.138214111328125
v -8.331719398498535 -4.669914245605469 -41.138214111328125
v 0.04862126708030701 0.012326419353485107 -40.60948181152344
v -9.628165245056152 0.012362152338027954 -41.138221740722656
v -4.789768218994141 -8.097538948059082 -41.138214111328125
v 0.04862126708030701 0.012326419353485107 -40.60948181152344
v -8.331719398498535 -4.669914245605469 -41.138214111328125
v 0.048625003546476364 -9.35213565826416 -41.138221740722656
v 0.04862126708030701 0.012326419353485107 -40.60948181152344
v -4.789768218994141 -8.097538948059082 -41.138214111328125
v 0.048617396503686905 -40.189144134521484 -18.044044494628906
v 0.048614226281642914 -46.11572265625 1.557640985083708e-06
v 20.143178939819336 -34.8048210144043 -18.044042587280273
v 23.106473922729492 -39.9373779296875 5.458716714201728e-07
v 34.85343551635742 -20.094568252563477 -18.04404640197754
v 39.9859733581543 -23.057861328125 7.110588740033563e-06
v 40.23774719238281 -4.0501989133190364e-05 -18.044048309326172
v 46.16431427001953 -4.212278872728348e-05 5.2561454140231945e-06
v 34.85342025756836 20.094562530517578 -18.044048309326172
v 39.98598098754883 23.057846069335938 5.203241016715765e-06
v 0.0486181266605854 46.11570739746094 6.039673507984844e-07
v 0.048620570451021194 40.18912887573242 -18.044048309326172
v 20.143190383911133 34.8048095703125 -18.044042587280273
v 23.106475830078125 39.93737030029297 4.360569619166199e-06
v 20.143178939819336 -34.8048210144043 -18.044042587280273
v 0.048623353242874146 -27.625057220458984 -35.022891998291016
v 0.048623353242874146 -27.625057220458984 -35.022891998291016
v 0.048617396503686905 -40.189144134521484 -18.044044494628906
v 20.143178939819336 -34.8048210144043 -18.044042587280273
v 34.85343551635742 -20.094568252563477 -18.04404640197754
v 14.328205108642578 -23.922344207763672 -35.02288818359375
v 14.328205108642578 -23.922344207763672 -35.02288818359375
v 20.143178939819336 -34.8048210144043 -18.044042587280273
v 34.85343551635742 -20.094568252563477 -18.04404640197754
v 40.23774719238281 -4.0501989133190364e-05 -18.044048309326172
v 24.78158950805664 -13.806358337402344 -35.02288818359375
v 24.78158950805664 -13.806358337402344 -35.02288818359375
v 34.85343551635742 -20.094568252563477 -18.04404640197754
v 40.23774719238281 -4.0501989133190364e-05 -18.044048309326172
v 34.85342025756836 20.094562530517578 -18.044048309326172
v 28.607789993286133 0.012288123369216919 -35.02288818359375
v 28.607789993286133 0.012288123369216919 -35.02288818359375
v 40.23774719238281 -4.0501989133190364e-05 -18.044048309326172
v 34.85342025756836 20.094562530517578 -18.044048309326172
v 20.143190383911133 34.8048095703125 -18.044042587280273
v 24.781591415405273 13.831016540527344 -35.02288818359375
v 24.781591415405273 13.831016540527344 -35.02288818359375
v 34.85342025756836 20.094562530517578 -18.044048309326172
v 20.143190383911133 34.8048095703125 -18.044042587280273
v 0.048620570451021194 40.18912887573242 -18.044048309326172
v 0.048618629574775696 27.649709701538086 -35.022891998291016
v 14.328203201293945 23.94700050354004 -35.02288818359375
v 14.328203201293945 23.94700050354004 -35.02288818359375
v 20.143190383911133 34.8048095703125 -18.044042587280273
v 0.048620570451021194 40.18912887573242 -18.044048309326172
v 14.328205108642578 -23.922344207763672 -35.02288818359375
v 0.048624925315380096 -17.727079391479492 -41.016319274902344
v 0.048623353242874146 -27.625057220458984 -35.022891998291016
v 24.78158950805664 -13.806358337402344 -35.02288818359375
v 9.214149475097656 -15.350439071655273 -41.016319274902344
v 14.328205108642578 -23.922344207763672 -35.02288818359375
v 28.607789993286133 0.012288123369216919 -35.02288818359375
v 15.923783302307129 -8.857369422912598 -41.01631546020508
v 24.78158950805664 -13.806358337402344 -35.02288818359375
v 24.781591415405273 13.831016540527344 -35.02288818359375
v 18.379684448242188 0.012287706136703491 -41.01631546020508
v 28.607789993286133 0.012288123369216919 -35.02288818359375
v 14.328203201293945 23.94700050354004 -35.02288818359375
v 15.923789024353027 8.882031440734863 -41.01630783081055
v 24.781591415405273 13.831016540527344 -35.02288818359375
v 0.048618629574775696 27.649709701538086 -35.022891998291016
v 0.0486188605427742 17.75172996520996 -41.016319274902344
v 9.21414852142334 15.375102996826172 -41.016319274902344
v 14.328203201293945 23.94700050354004 -35.02288818359375
v 9.214149475097656 -15.350439071655273 -41.016319274902344
v 0.048625003546476364 -9.35213565826416 -41.138221740722656
v 0.048624925315380096 -17.727079391479492 -41.016319274902344
v 15.923783302307129 -8.857369422912598 -41.01631546020508
v 4.887012481689453 -8.097528457641602 -41.138221740722656
v 9.214149475097656 -15.350439071655273 -41.016319274902344
v 18.379684448242188 0.012287706136703491 -41.01631546020508
v 8.428964614868164 -4.669898509979248 -41.138221740722656
v 15.923783302307129 -8.857369422912598 -41.01631546020508
v 15.923789024353027 8.882031440734863 -41.01630783081055
v 9.7254056930542 0.012289315462112427 -41.13822937011719
v 18.379684448242188 0.012287706136703491 -41.01631546020508
v 9.21414852142334 15.375102996826172 -41.016319274902344
v 8.428963661193848 4.694565296173096 -41.138221740722656
v 15.923789024353027 8.882031440734863 -41.01630783081055
v 0.0486188605427742 17.75172996520996 -41.016319274902344
v 0.04861686751246452 9.376789093017578 -41.138221740722656
v 4.887012481689453 8.122191429138184 -41.138221740722656
v 9.21414852142334 15.375102996826172 -41.016319274902344
v 4.887012481689453 -8.097528457641602 -41.138221740722656
v 0.04862126708030701 0.012326419353485107 -40.60948181152344
v 0.048625003546476364 -9.35213565826416 -41.138221740722656
v 8.428964614868164 -4.669898509979248 -41.138221740722656
v 0.04862126708030701 0.012326419353485107 -40.60948181152344
v 4.887012481689453 -8.097528457641602 -41.138221740722656
v 9.7254056930542 0.012289315462112427 -41.13822937011719
v 0.04862126708030701 0.012326419353485107 -40.60948181152344
v 8.428964614868164 -4.669898509979248 -41.138221740722656
v 8.428963661193848 4.694565296173096 -41.138221740722656
v 0.04862126708030701 0.012326419353485107 -40.60948181152344
v 9.7254056930542 0.012289315462112427 -41.13822937011719
v 4.887012481689453 8.122191429138184 -41.138221740722656
v 0.04862126708030701 0.012326419353485107 -40.60948181152344
v 8.428963661193848 4.694565296173096 -41.138221740722656
v 0.04861686751246452 9.376789093017578 -41.138221740722656
v 0.04862126708030701 0.012326419353485107 -40.60948181152344
v 4.887012481689453 8.122191429138184 -41.138221740722656
v 0.04861874505877495 41.98802947998047 -0.07962416857481003
v -20.945404052734375 36.3626823425293 -0.07963140308856964
v -36.3140754699707 20.993999481201172 -0.07963009178638458
v -41.93940353393555 2.193450927734375e-05 -0.079631008207798
v -36.31407165527344 -20.99402618408203 -0.07963009178638458
v -20.945392608642578 -36.36271286010742 -0.07962758839130402
v 0.048613619059324265 -41.988040924072266 -0.07962416857481003
v 36.41130065917969 -20.9940185546875 -0.07962015271186829
v 42.03663635253906 -3.971127443946898e-05 -0.07962114363908768
v 36.41130447387695 20.994007110595703 -0.07962015271186829
v 21.042633056640625 36.362693786621094 -0.07962074875831604
v 21.04262924194336 -36.362701416015625 -0.07962456345558167
vt 0.6485408544540405 0.07967692613601685
vt 0.666795015335083 0.07967692613601685
vt 0.6881874203681946 0.07967692613601685
vt 0.7095799446105957 0.07967692613601685
vt 0.7278340458869934 0.07967692613601685
vt 0.6602391004562378 0.10313636064529419
vt 0.6731070876121521 0.10313636064529419
vt 0.688187301158905 0.10313636064529419
vt 0.7032676935195923 0.10313636064529419
vt 0.7161357402801514 0.10313636064529419
vt 0.6697325110435486 0.11063408851623535
vt 0.6782295107841492 0.11063408851623535
vt 0.688187301158905 0.11063408851623535
vt 0.6981452107429504 0.11063408851623535
vt 0.7066423892974854 0.11063408851623535
vt 0.6773692965507507 0.11630862951278687
vt 0.6823501586914062 0.11630862951278687
vt 0.688187301158905 0.11630862951278687
vt 0.6940246224403381 0.11630862951278687
vt 0.6990054845809937 0.11630862951278687
vt 0.7026636600494385 0.11630862951278687
vt 0.6881874203681946 0.12063461542129517
vt 0.7255866527557373 0.10313636064529419
vt 0.7412407398223877 0.07967692613601685
vt 0.6485408544540405 0.07967692613601685
vt 0.666795015335083 0.07967692613601685
vt 0.6881874203681946 0.07967692613601685
vt 0.7095799446105957 0.07967692613601685
vt 0.7278340458869934 0.07967692613601685
vt 0.6351341009140015 0.07967692613601685
vt 0.6602391004562378 0.10313636064529419
vt 0.6731070876121521 0.10313636064529419
vt 0.688187301158905 0.10313636064529419
vt 0.7032676935195923 0.10313636064529419
vt 0.7161357402801514 0.10313636064529419
vt 0.6507881879806519 0.10313636064529419
vt 0.7128830552101135 0.11063408851623535
vt 0.6697325110435486 0.11063408851623535
vt 0.6782295107841492 0.11063408851623535
vt 0.688187301158905 0.11063408851623535
vt 0.6981452107429504 0.11063408851623535
vt 0.7066423892974854 0.11063408851623535
vt 0.6634917855262756 0.11063408851623535
vt 0.6773692965507507 0.11630862951278687
vt 0.6823501586914062 0.11630862951278687
vt 0.688187301158905 0.11630862951278687
vt 0.6940246224403381 0.11630862951278687
vt 0.6990054845809937 0.11630862951278687
vt 0.6737111210823059 0.11630862951278687
vt 0.7131513357162476 0.07028216123580933
vt 0.7134070992469788 0.0704612135887146
vt 0.7137068510055542 0.07067108154296875
vt 0.7140066027641296 0.07088124752044678
vt 0.7142626643180847 0.07106029987335205
vt 0.7076928019523621 0.07406413555145264
vt 0.7078733444213867 0.07419031858444214
vt 0.7080845832824707 0.07433837652206421
vt 0.7082958817481995 0.07448625564575195
vt 0.7084762454032898 0.07461261749267578
vt 0.7061192989349365 0.07659447193145752
vt 0.7062383890151978 0.07667785882949829
vt 0.7063780426979065 0.07677555084228516
vt 0.7065176367759705 0.07687324285507202
vt 0.7066366076469421 0.07695668935775757
vt 0.7049347758293152 0.07766568660736084
vt 0.7050046324729919 0.07771456241607666
vt 0.7050865292549133 0.07777178287506104
vt 0.7051682472229004 0.07782912254333496
vt 0.7052379250526428 0.077877938747406
vt 0.7052893042564392 0.07791393995285034
vt 0.7041018605232239 0.07917803525924683
vt 0.7086086869239807 0.07470530271530151
vt 0.7144503593444824 0.07119166851043701
vt 0.7131513357162476 0.07028216123580933
vt 0.7134070992469788 0.0704612135887146
vt 0.7137068510055542 0.07067108154296875
vt 0.7140066027641296 0.07088124752044678
vt 0.7142626643180847 0.07106029987335205
vt 0.7129634618759155 0.07015061378479004
vt 0.7076928019523621 0.07406413555145264
vt 0.7078733444213867 0.07419031858444214
vt 0.7080845832824707 0.07433837652206421
vt 0.7082958817481995 0.07448625564575195
vt 0.7084762454032898 0.07461261749267578
vt 0.7075605392456055 0.07397127151489258
vt 0.7067241072654724 0.0770179033279419
vt 0.7061192989349365 0.07659447193145752
vt 0.7062383890151978 0.07667785882949829
vt 0.7063780426979065 0.07677555084228516
vt 0.7065176367759705 0.07687324285507202
vt 0.7066366076469421 0.07695668935775757
vt 0.7060319781303406 0.07653319835662842
vt 0.7049347758293152 0.07766568660736084
vt 0.7050046324729919 0.07771456241607666
vt 0.7050865292549133 0.07777178287506104
vt 0.7051682472229004 0.07782912254333496
vt 0.7052379250526428 0.077877938747406
vt 0.7048835754394531 0.0776296854019165
vt 0.6881874203681946 0.05734908580780029
vt 0.6434471011161804 0.05734908580780029
vt 0.6640464663505554 0.05734908580780029
vt 0.712328314781189 0.05734908580780029
vt 0.732927680015564 0.05734908580780029
vt 0.7480570077896118 0.05734908580780029
vt 0.6881874203681946 0.05734908580780029
vt 0.712328314781189 0.05734908580780029
vt 0.6283177137374878 0.05734908580780029
vt 0.6434471011161804 0.05734908580780029
vt 0.6640464663505554 0.05734908580780029
vt 0.732927680015564 0.05734908580780029
vt 0.718223512172699 0.06397885084152222
vt 0.7175964713096619 0.06353974342346191
vt 0.7178851366043091 0.06374192237854004
vt 0.7185617089271545 0.06421560049057007
vt 0.7188504934310913 0.0644177794456482
vt 0.7190625071525574 0.06456631422042847
vt 0.718223512172699 0.06397885084152222
vt 0.7185617089271545 0.06421560049057007
vt 0.7173845171928406 0.06339126825332642
vt 0.7175964713096619 0.06353974342346191
vt 0.7178851366043091 0.06374192237854004
vt 0.7188504934310913 0.0644177794456482
vt 0.7199603319168091 0.027219653129577637
vt 0.6434471011161804 0.05734908580780029
vt 0.6485408544540405 0.07967692613601685
vt 0.6640464663505554 0.05734908580780029
vt 0.666795015335083 0.07967692613601685
vt 0.6881874203681946 0.05734908580780029
vt 0.6881874203681946 0.07967692613601685
vt 0.712328314781189 0.05734908580780029
vt 0.7095799446105957 0.07967692613601685
vt 0.732927680015564 0.05734908580780029
vt 0.7278340458869934 0.07967692613601685
vt 0.6485408544540405 0.07967692613601685
vt 0.6351341009140015 0.07967692613601685
vt 0.666795015335083 0.07967692613601685
vt 0.6485408544540405 0.07967692613601685
vt 0.6602391004562378 0.10313636064529419
vt 0.6881874203681946 0.07967692613601685
vt 0.666795015335083 0.07967692613601685
vt 0.6731070876121521 0.10313636064529419
vt 0.7095799446105957 0.07967692613601685
vt 0.6881874203681946 0.07967692613601685
vt 0.688187301158905 0.10313636064529419
vt 0.7278340458869934 0.07967692613601685
vt 0.7095799446105957 0.07967692613601685
vt 0.7032676935195923 0.10313636064529419
vt 0.7412407398223877 0.07967692613601685
vt 0.7278340458869934 0.07967692613601685
vt 0.7161357402801514 0.10313636064529419
vt 0.6602391004562378 0.10313636064529419
vt 0.6507881879806519 0.10313636064529419
vt 0.6731070876121521 0.10313636064529419
vt 0.6602391004562378 0.10313636064529419
vt 0.6697325110435486 0.11063408851623535
vt 0.688187301158905 0.10313636064529419
vt 0.6731070876121521 0.10313636064529419
vt 0.6782295107841492 0.11063408851623535
vt 0.7032676935195923 0.10313636064529419
vt 0.688187301158905 0.10313636064529419
vt 0.688187301158905 0.11063408851623535
vt 0.7161357402801514 0.10313636064529419
vt 0.7032676935195923 0.10313636064529419
vt 0.6981452107429504 0.11063408851623535
vt 0.7255866527557373 0.10313636064529419
vt 0.7161357402801514 0.10313636064529419
vt 0.7066423892974854 0.11063408851623535
vt 0.6697325110435486 0.11063408851623535
vt 0.6634917855262756 0.11063408851623535
vt 0.6782295107841492 0.11063408851623535
vt 0.688187301158905 0.11063408851623535
vt 0.6981452107429504 0.11063408851623535
vt 0.7066423892974854 0.11063408851623535
vt 0.7128830552101135 0.11063408851623535
vt 0.6773692965507507 0.11630862951278687
vt 0.6737111210823059 0.11630862951278687
vt 0.6823501586914062 0.11630862951278687
vt 0.6773692965507507 0.11630862951278687
vt 0.6881874203681946 0.12063461542129517
vt 0.688187301158905 0.11630862951278687
vt 0.6823501586914062 0.11630862951278687
vt 0.6881874203681946 0.12063461542129517
vt 0.6940246224403381 0.11630862951278687
vt 0.688187301158905 0.11630862951278687
vt 0.6881874203681946 0.12063461542129517
vt 0.6990054845809937 0.11630862951278687
vt 0.6940246224403381 0.11630862951278687
vt 0.6881874203681946 0.12063461542129517
vt 0.7026636600494385 0.11630862951278687
vt 0.6990054845809937 0.11630862951278687
vt 0.6881874203681946 0.12063461542129517
vt 0.6283177137374878 0.05734908580780029
vt 0.6351341009140015 0.07967692613601685
vt 0.6434471011161804 0.05734908580780029
vt 0.6485408544540405 0.07967692613601685
vt 0.6640464663505554 0.05734908580780029
vt 0.666795015335083 0.07967692613601685
vt 0.6881874203681946 0.05734908580780029
vt 0.6881874203681946 0.07967692613601685
vt 0.712328314781189 0.05734908580780029
vt 0.7095799446105957 0.07967692613601685
vt 0.7480570077896118 0.05734908580780029
vt 0.732927680015564 0.05734908580780029
vt 0.7278340458869934 0.07967692613601685
vt 0.7412407398223877 0.07967692613601685
vt 0.6485408544540405 0.07967692613601685
vt 0.6351341009140015 0.07967692613601685
vt 0.6507881879806519 0.10313636064529419
vt 0.666795015335083 0.07967692613601685
vt 0.6485408544540405 0.07967692613601685
vt 0.6602391004562378 0.10313636064529419
vt 0.6881874203681946 0.07967692613601685
vt 0.666795015335083 0.07967692613601685
vt 0.6731070876121521 0.10313636064529419
vt 0.7095799446105957 0.07967692613601685
vt 0.6881874203681946 0.07967692613601685
vt 0.688187301158905 0.10313636064529419
vt 0.7278340458869934 0.07967692613601685
vt 0.7095799446105957 0.07967692613601685
vt 0.7032676935195923 0.10313636064529419
vt 0.7412407398223877 0.07967692613601685
vt 0.7278340458869934 0.07967692613601685
vt 0.7161357402801514 0.10313636064529419
vt 0.7255866527557373 0.10313636064529419
vt 0.6602391004562378 0.10313636064529419
vt 0.6507881879806519 0.10313636064529419
vt 0.6634917855262756 0.11063408851623535
vt 0.6731070876121521 0.10313636064529419
vt 0.6602391004562378 0.10313636064529419
vt 0.6697325110435486 0.11063408851623535
vt 0.688187301158905 0.10313636064529419
vt 0.6731070876121521 0.10313636064529419
vt 0.6782295107841492 0.11063408851623535
vt 0.7032676935195923 0.10313636064529419
vt 0.688187301158905 0.10313636064529419
vt 0.688187301158905 0.11063408851623535
vt 0.7161357402801514 0.10313636064529419
vt 0.7032676935195923 0.10313636064529419
vt 0.6981452107429504 0.11063408851623535
vt 0.7255866527557373 0.10313636064529419
vt 0.7161357402801514 0.10313636064529419
vt 0.7066423892974854 0.11063408851623535
vt 0.7128830552101135 0.11063408851623535
vt 0.6697325110435486 0.11063408851623535
vt 0.6634917855262756 0.11063408851623535
vt 0.6737111210823059 0.11630862951278687
vt 0.6782295107841492 0.11063408851623535
vt 0.688187301158905 0.11063408851623535
vt 0.6981452107429504 0.11063408851623535
vt 0.7066423892974854 0.11063408851623535
vt 0.7128830552101135 0.11063408851623535
vt 0.7026636600494385 0.11630862951278687
vt 0.6773692965507507 0.11630862951278687
vt 0.6737111210823059 0.11630862951278687
vt 0.6881874203681946 0.12063461542129517
vt 0.6823501586914062 0.11630862951278687
vt 0.6773692965507507 0.11630862951278687
vt 0.6881874203681946 0.12063461542129517
vt 0.688187301158905 0.11630862951278687
vt 0.6823501586914062 0.11630862951278687
vt 0.6881874203681946 0.12063461542129517
vt 0.6940246224403381 0.11630862951278687
vt 0.688187301158905 0.11630862951278687
vt 0.6881874203681946 0.12063461542129517
vt 0.6990054845809937 0.11630862951278687
vt 0.6940246224403381 0.11630862951278687
vt 0.6881874203681946 0.12063461542129517
vt 0.7026636600494385 0.11630862951278687
vt 0.6990054845809937 0.11630862951278687
vt 0.6881874203681946 0.12063461542129517
vt 0.7131513357162476 0.07028216123580933
vt 0.7175964713096619 0.06353974342346191
vt 0.7134070992469788 0.0704612135887146
vt 0.7178851366043091 0.06374192237854004
vt 0.7137068510055542 0.07067108154296875
vt 0.718223512172699 0.06397885084152222
vt 0.7140066027641296 0.07088124752044678
vt 0.7185617089271545 0.06421560049057007
vt 0.7142626643180847 0.07106029987335205
vt 0.7188504934310913 0.0644177794456482
vt 0.7131513357162476 0.07028216123580933
vt 0.7075605392456055 0.07397127151489258
vt 0.7129634618759155 0.07015061378479004
vt 0.7131513357162476 0.07028216123580933
vt 0.7134070992469788 0.0704612135887146
vt 0.7076928019523621 0.07406413555145264
vt 0.7076928019523621 0.07406413555145264
vt 0.7131513357162476 0.07028216123580933
vt 0.7134070992469788 0.0704612135887146
vt 0.7137068510055542 0.07067108154296875
vt 0.7078733444213867 0.07419031858444214
vt 0.7078733444213867 0.07419031858444214
vt 0.7134070992469788 0.0704612135887146
vt 0.7137068510055542 0.07067108154296875
vt 0.7140066027641296 0.07088124752044678
vt 0.7080845832824707 0.07433837652206421
vt 0.7080845832824707 0.07433837652206421
vt 0.7137068510055542 0.07067108154296875
vt 0.7140066027641296 0.07088124752044678
vt 0.7142626643180847 0.07106029987335205
vt 0.7082958817481995 0.07448625564575195
vt 0.7082958817481995 0.07448625564575195
vt 0.7140066027641296 0.07088124752044678
vt 0.7142626643180847 0.07106029987335205
vt 0.7144503593444824 0.07119166851043701
vt 0.7084762454032898 0.07461261749267578
vt 0.7084762454032898 0.07461261749267578
vt 0.7142626643180847 0.07106029987335205
vt 0.7144503593444824 0.07119166851043701
vt 0.7076928019523621 0.07406413555145264
vt 0.7075605392456055 0.07397127151489258
vt 0.7078733444213867 0.07419031858444214
vt 0.7061192989349365 0.07659447193145752
vt 0.7076928019523621 0.07406413555145264
vt 0.7080845832824707 0.07433837652206421
vt 0.7062383890151978 0.07667785882949829
vt 0.7078733444213867 0.07419031858444214
vt 0.7082958817481995 0.07448625564575195
vt 0.7063780426979065 0.07677555084228516
vt 0.7080845832824707 0.07433837652206421
vt 0.7084762454032898 0.07461261749267578
vt 0.7065176367759705 0.07687324285507202
vt 0.7082958817481995 0.07448625564575195
vt 0.7086086869239807 0.07470530271530151
vt 0.7066366076469421 0.07695668935775757
vt 0.7084762454032898 0.07461261749267578
vt 0.7061192989349365 0.07659447193145752
vt 0.7060319781303406 0.07653319835662842
vt 0.7062383890151978 0.07667785882949829
vt 0.7049347758293152 0.07766568660736084
vt 0.7061192989349365 0.07659447193145752
vt 0.7063780426979065 0.07677555084228516
vt 0.7050046324729919 0.07771456241607666
vt 0.7062383890151978 0.07667785882949829
vt 0.7065176367759705 0.07687324285507202
vt 0.7050865292549133 0.07777178287506104
vt 0.7063780426979065 0.07677555084228516
vt 0.7066366076469421 0.07695668935775757
vt 0.7051682472229004 0.07782912254333496
vt 0.7065176367759705 0.07687324285507202
vt 0.7067241072654724 0.0770179033279419
vt 0.7052379250526428 0.077877938747406
vt 0.7066366076469421 0.07695668935775757
vt 0.7049347758293152 0.07766568660736084
vt 0.7048835754394531 0.0776296854019165
vt 0.7050046324729919 0.07771456241607666
vt 0.7041018605232239 0.07917803525924683
vt 0.7049347758293152 0.07766568660736084
vt 0.7050865292549133 0.07777178287506104
vt 0.7041018605232239 0.07917803525924683
vt 0.7050046324729919 0.07771456241607666
vt 0.7051682472229004 0.07782912254333496
vt 0.7041018605232239 0.07917803525924683
vt 0.7050865292549133 0.07777178287506104
vt 0.7052379250526428 0.077877938747406
vt 0.7041018605232239 0.07917803525924683
vt 0.7051682472229004 0.07782912254333496
vt 0.7052893042564392 0.07791393995285034
vt 0.7041018605232239 0.07917803525924683
vt 0.7052379250526428 0.077877938747406
vt 0.7129634618759155 0.07015061378479004
vt 0.7173845171928406 0.06339126825332642
vt 0.7131513357162476 0.07028216123580933
vt 0.7175964713096619 0.06353974342346191
vt 0.7134070992469788 0.0704612135887146
vt 0.7178851366043091 0.06374192237854004
vt 0.7137068510055542 0.07067108154296875
vt 0.718223512172699 0.06397885084152222
vt 0.7140066027641296 0.07088124752044678
vt 0.7185617089271545 0.06421560049057007
vt 0.7190625071525574 0.06456631422042847
vt 0.7144503593444824 0.07119166851043701
vt 0.7142626643180847 0.07106029987335205
vt 0.7188504934310913 0.0644177794456482
vt 0.7131513357162476 0.07028216123580933
vt 0.7075605392456055 0.07397127151489258
vt 0.7075605392456055 0.07397127151489258
vt 0.7129634618759155 0.07015061378479004
vt 0.7131513357162476 0.07028216123580933
vt 0.7134070992469788 0.0704612135887146
vt 0.7076928019523621 0.07406413555145264
vt 0.7076928019523621 0.07406413555145264
vt 0.7131513357162476 0.07028216123580933
vt 0.7134070992469788 0.0704612135887146
vt 0.7137068510055542 0.07067108154296875
vt 0.7078733444213867 0.07419031858444214
vt 0.7078733444213867 0.07419031858444214
vt 0.7134070992469788 0.0704612135887146
vt 0.7137068510055542 0.07067108154296875
vt 0.7140066027641296 0.07088124752044678
vt 0.7080845832824707 0.07433837652206421
vt 0.7080845832824707 0.07433837652206421
vt 0.7137068510055542 0.07067108154296875
vt 0.7140066027641296 0.07088124752044678
vt 0.7142626643180847 0.07106029987335205
vt 0.7082958817481995 0.07448625564575195
vt 0.7082958817481995 0.07448625564575195
vt 0.7140066027641296 0.07088124752044678
vt 0.7142626643180847 0.07106029987335205
vt 0.7144503593444824 0.07119166851043701
vt 0.7086086869239807 0.07470530271530151
vt 0.7084762454032898 0.07461261749267578
vt 0.7084762454032898 0.07461261749267578
vt 0.7142626643180847 0.07106029987335205
vt 0.7144503593444824 0.07119166851043701
vt 0.7076928019523621 0.07406413555145264
vt 0.7060319781303406 0.07653319835662842
vt 0.7075605392456055 0.07397127151489258
vt 0.7078733444213867 0.07419031858444214
vt 0.7061192989349365 0.07659447193145752
vt 0.7076928019523621 0.07406413555145264
vt 0.7080845832824707 0.07433837652206421
vt 0.7062383890151978 0.07667785882949829
vt 0.7078733444213867 0.07419031858444214
vt 0.7082958817481995 0.07448625564575195
vt 0.7063780426979065 0.07677555084228516
vt 0.7080845832824707 0.07433837652206421
vt 0.7084762454032898 0.07461261749267578
vt 0.7065176367759705 0.07687324285507202
vt 0.7082958817481995 0.07448625564575195
vt 0.7086086869239807 0.07470530271530151
vt 0.7067241072654724 0.0770179033279419
vt 0.7066366076469421 0.07695668935775757
vt 0.7084762454032898 0.07461261749267578
vt 0.7061192989349365 0.07659447193145752
vt 0.7048835754394531 0.0776296854019165
vt 0.7060319781303406 0.07653319835662842
vt 0.7062383890151978 0.07667785882949829
vt 0.7049347758293152 0.07766568660736084
vt 0.7061192989349365 0.07659447193145752
vt 0.7063780426979065 0.07677555084228516
vt 0.7050046324729919 0.07771456241607666
vt 0.7062383890151978 0.07667785882949829
vt 0.7065176367759705 0.07687324285507202
vt 0.7050865292549133 0.07777178287506104
vt 0.7063780426979065 0.07677555084228516
vt 0.7066366076469421 0.07695668935775757
vt 0.7051682472229004 0.07782912254333496
vt 0.7065176367759705 0.07687324285507202
vt 0.7067241072654724 0.0770179033279419
vt 0.7052893042564392 0.07791393995285034
vt 0.7052379250526428 0.077877938747406
vt 0.7066366076469421 0.07695668935775757
vt 0.7049347758293152 0.07766568660736084
vt 0.7041018605232239 0.07917803525924683
vt 0.7048835754394531 0.0776296854019165
vt 0.7050046324729919 0.07771456241607666
vt 0.7041018605232239 0.07917803525924683
vt 0.7049347758293152 0.07766568660736084
vt 0.7050865292549133 0.07777178287506104
vt 0.7041018605232239 0.07917803525924683
vt 0.7050046324729919 0.07771456241607666
vt 0.7051682472229004 0.07782912254333496
vt 0.7041018605232239 0.07917803525924683
vt 0.7050865292549133 0.07777178287506104
vt 0.7052379250526428 0.077877938747406
vt 0.7041018605232239 0.07917803525924683
vt 0.7051682472229004 0.07782912254333496
vt 0.7052893042564392 0.07791393995285034
vt 0.7041018605232239 0.07917803525924683
vt 0.7052379250526428 0.077877938747406
vt 0.6867665648460388 0.08510243892669678
vt 0.6868512630462646 0.08517152070999146
vt 0.6868512630462646 0.08517152070999146
vt 0.6868512630462646 0.08517152070999146
vt 0.6867665648460388 0.08510243892669678
vt 0.6868512630462646 0.08517152070999146
vt 0.6868512630462646 0.08517152070999146
vt 0.6867665648460388 0.08510243892669678
vt 0.6868512630462646 0.08517152070999146
vt 0.6868512630462646 0.08517152070999146
vt 0.6867665648460388 0.08510243892669678
vt 0.6868512630462646 0.08517152070999146
vn -0.24940162897109985 0.9307786822319031 -0.2673010528087616
vn -0.6813774704933167 0.6813772916793823 -0.2673010230064392
vn -0.9307786822319031 0.24940147995948792 -0.26730120182037354
vn -0.9307788014411926 -0.2494012713432312 -0.26730138063430786
vn -0.6813774108886719 -0.6813771724700928 -0.26730141043663025
vn -0.219701886177063 0.8199365735054016 -0.528616189956665
vn -0.6002354025840759 0.6002353429794312 -0.5286162495613098
vn -0.8199366927146912 0.21970166265964508 -0.5286161303520203
vn -0.8199370503425598 -0.2197008728981018 -0.5286158919334412
vn -0.6002352237701416 -0.6002354621887207 -0.5286163091659546
vn -0.13709162175655365 0.5116289854049683 -0.8481990694999695
vn -0.37453871965408325 0.37453916668891907 -0.8481987714767456
vn -0.5116302371025085 0.1370922178030014 -0.8481982350349426
vn -0.5116298794746399 -0.1370907723903656 -0.8481987118721008
vn -0.3745384216308594 -0.37453916668891907 -0.8481990098953247
vn -6.507979719572177e-07 -3.757384945402009e-07 -1.0
vn 3.896344082932046e-07 -3.896342093412386e-07 -1.0
vn 5.322499987414631e-07 1.3603502111436683e-06 -1.0
vn 1.283720393985277e-06 -1.1589704627112951e-06 -1.0
vn 0.0 0.0 -1.0
vn -7.514768753935641e-07 2.062365848844866e-13 -1.0
vn 0.09219826757907867 -0.3440881371498108 -0.9343997240066528
vn -0.21970133483409882 -0.8199368119239807 -0.5286160707473755
vn -0.24940146505832672 -0.9307786822319031 -0.2673013508319855
vn 0.24940164387226105 -0.9307788014411926 -0.2673010528087616
vn 0.6813772916793823 -0.6813777089118958 -0.26730042695999146
vn 0.9307788014411926 -0.24940147995948792 -0.2673008143901825
vn 0.9307789206504822 0.2494012862443924 -0.26730096340179443
vn 0.6813777089118958 0.6813770532608032 -0.26730096340179443
vn -0.24940192699432373 0.9307785034179688 -0.267301470041275
vn 0.2197018712759018 -0.8199366331100464 -0.5286161303520203
vn 0.6002354025840759 -0.6002353429794312 -0.5286162495613098
vn 0.8199367523193359 -0.21970178186893463 -0.5286159515380859
vn 0.8199373483657837 0.21970057487487793 -0.5286155343055725
vn 0.6002352833747864 0.6002355217933655 -0.528616189956665
vn -0.21970155835151672 0.8199368119239807 -0.5286159515380859
vn -0.13709105551242828 -0.5116297602653503 -0.8481987118721008
vn 0.13709138333797455 -0.5116297602653503 -0.8481987714767456
vn 0.3745391368865967 -0.3745386004447937 -0.8481989502906799
vn 0.5116302371025085 -0.13709229230880737 -0.8481982350349426
vn 0.5116299986839294 0.13709062337875366 -0.848198652267456
vn 0.37453940510749817 0.37453919649124146 -0.8481984734535217
vn -0.13709113001823425 0.5116298198699951 -0.848198652267456
vn 0.0 0.0 -1.0
vn 3.896344082932046e-07 -3.896344651366235e-07 -1.0
vn 5.322505103322328e-07 -1.6455836657769396e-06 -1.0
vn -2.1921891857346054e-07 1.444200393052597e-06 -1.0
vn 0.0 0.0 -1.0
vn -4.405054596645641e-07 1.6851759787953058e-13 -1.0
vn 0.2467012107372284 -0.9207009673118591 0.3024044632911682
vn 0.6739999055862427 -0.6739998459815979 0.30240437388420105
vn 0.9207008481025696 -0.24670103192329407 0.3024047017097473
vn 0.9207009077072144 0.24670083820819855 0.3024046719074249
vn 0.6739998459815979 0.6739997267723083 0.3024047315120697
vn 0.20514622330665588 -0.7911496162414551 0.5761920809745789
vn 0.5756940841674805 -0.5948950052261353 0.5609602332115173
vn 0.8043690919876099 -0.22271905839443207 0.550805389881134
vn 0.8004541397094727 0.22163404524326324 0.5569125413894653
vn 0.5700387954711914 0.5890514254570007 0.5727776885032654
vn 0.13311418890953064 -0.5133530497550964 0.8477908372879028
vn 0.3650922477245331 -0.3772697448730469 0.851102352142334
vn 0.500689685344696 -0.1386353075504303 0.8544530868530273
vn 0.5006895065307617 0.1386338323354721 0.854453444480896
vn 0.36509180068969727 0.37726953625679016 0.8511026501655579
vn 0.0037752543576061726 -0.014553142711520195 0.9998869895935059
vn 0.010310073383152485 -0.010653949342668056 0.9998900890350342
vn 0.014083867892622948 -0.0039012818597257137 0.999893307685852
vn 0.014083090238273144 0.003901006653904915 0.9998932480812073
vn 0.01031038910150528 0.010654286481440067 0.9998900890350342
vn 0.003775425488129258 0.014553972519934177 0.9998870491981506
vn -0.014614463783800602 0.05636657029390335 0.9983031749725342
vn 0.20405273139476776 0.7869347333908081 0.5823197364807129
vn 0.24670100212097168 0.9207007884979248 0.3024047911167145
vn -0.246701180934906 0.9207009673118591 0.3024044632911682
vn -0.6739998459815979 0.6740001440048218 0.3024037480354309
vn -0.9207010865211487 0.24670109152793884 0.30240416526794434
vn -0.9207010269165039 -0.24670082330703735 0.3024042248725891
vn -0.6740001440048218 -0.673999547958374 0.30240434408187866
vn 0.2467012107372284 -0.9207009673118591 0.3024044632911682
vn -0.20501038432121277 0.790625810623169 0.5769588947296143
vn -0.5754148960113525 0.5946067571640015 0.5615519881248474
vn -0.8042259216308594 0.2226795107126236 0.5510304570198059
vn -0.8005980253219604 -0.22167359292507172 0.5566899180412292
vn -0.5703180432319641 -0.5893401503562927 0.5722023248672485
vn 0.20514622330665588 -0.7911496162414551 0.5761920809745789
vn 0.1331137865781784 0.5133542418479919 0.8477901816368103
vn -0.1331137865781784 0.5133538842201233 0.8477903604507446
vn -0.3650926947593689 0.3772691786289215 0.8511025309562683
vn -0.5006894469261169 0.13863486051559448 0.854453444480896
vn -0.500688910484314 -0.13863378763198853 0.8544538021087646
vn -0.365093469619751 -0.37726926803588867 0.8511020541191101
vn 0.13311418890953064 -0.5133530497550964 0.8477908372879028
vn -0.003773882519453764 0.014553963206708431 0.9998869895935059
vn -0.010310721583664417 0.010654616169631481 0.9998900890350342
vn -0.014085618779063225 0.0039017663802951574 0.9998931884765625
vn -0.014084857888519764 -0.003901485586538911 0.9998931884765625
vn -0.010310393758118153 -0.010654286481440067 0.9998900890350342
vn 0.0037752543576061726 -0.014553142711520195 0.9998869895935059
vn -0.9307788014411926 0.24940183758735657 -0.26730087399482727
vn -0.24940192699432373 0.9307785034179688 -0.267301470041275
vn -0.6813775897026062 0.6813770532608032 -0.2673013210296631
vn -0.9307787418365479 -0.24940115213394165 -0.2673012912273407
vn -0.6813774704933167 -0.681377112865448 -0.2673013508319855
vn -0.24940139055252075 -0.9307786226272583 -0.267301470041275
vn 0.9307789206504822 -0.24940219521522522 -0.2673001289367676
vn 0.9307788610458374 0.24940118193626404 -0.2673008441925049
vn -0.24940192699432373 0.9307785034179688 -0.267301470041275
vn 0.24940183758735657 -0.9307786822319031 -0.2673012614250183
vn 0.681377649307251 -0.6813770532608032 -0.26730117201805115
vn 0.6813777089118958 0.6813769936561584 -0.26730093359947205
vn 0.9207008481025696 -0.24670103192329407 0.3024047017097473
vn 0.2467012107372284 -0.9207009673118591 0.3024044632911682
vn 0.6739999055862427 -0.6739998459815979 0.30240437388420105
vn 0.9207009077072144 0.24670083820819855 0.3024046719074249
vn 0.6739998459815979 0.6739997267723083 0.3024047315120697
vn 0.24670100212097168 0.9207007884979248 0.3024047911167145
vn -0.9207010865211487 0.24670109152793884 0.30240416526794434
vn -0.9207010269165039 -0.24670082330703735 0.3024042248725891
vn 0.2467014193534851 -0.92070072889328 0.3024047315120697
vn -0.246701180934906 0.9207009673118591 0.3024044632911682
vn -0.6739998459815979 0.6740001440048218 0.3024037480354309
vn -0.6740001440048218 -0.673999547958374 0.30240434408187866
vn -3.3651585340521706e-07 -3.016566196833992e-08 1.0
vn -0.6813775897026062 0.6813770532608032 -0.2673013210296631
vn -0.6813775897026062 0.6813770532608032 -0.2673013210296631
vn -0.9307788014411926 0.24940183758735657 -0.26730087399482727
vn -0.9307788014411926 0.24940183758735657 -0.26730087399482727
vn -0.9307787418365479 -0.24940115213394165 -0.2673012912273407
vn -0.9307787418365479 -0.24940115213394165 -0.2673012912273407
vn -0.6813774704933167 -0.681377112865448 -0.2673013508319855
vn -0.6813774704933167 -0.681377112865448 -0.2673013508319855
vn -0.24940139055252075 -0.9307786226272583 -0.267301470041275
vn -0.24940139055252075 -0.9307786226272583 -0.267301470041275
vn -0.21970155835151672 0.8199368119239807 -0.5286159515380859
vn -0.21970155835151672 0.8199368119239807 -0.5286159515380859
vn -0.6002354025840759 0.6002354025840759 -0.528616189956665
vn -0.6002354025840759 0.6002354025840759 -0.528616189956665
vn -0.6002354025840759 0.6002354025840759 -0.528616189956665
vn -0.8199367523193359 0.21970146894454956 -0.5286163091659546
vn -0.8199367523193359 0.21970146894454956 -0.5286163091659546
vn -0.8199367523193359 0.21970146894454956 -0.5286163091659546
vn -0.8199366927146912 -0.21970124542713165 -0.5286163091659546
vn -0.8199366927146912 -0.21970124542713165 -0.5286163091659546
vn -0.8199366927146912 -0.21970124542713165 -0.5286163091659546
vn -0.6002354621887207 -0.6002354025840759 -0.5286161303520203
vn -0.6002354621887207 -0.6002354025840759 -0.5286161303520203
vn -0.6002354621887207 -0.6002354025840759 -0.5286161303520203
vn -0.21970134973526 -0.8199368119239807 -0.5286160707473755
vn -0.21970134973526 -0.8199368119239807 -0.5286160707473755
vn -0.21970134973526 -0.8199368119239807 -0.5286160707473755
vn -0.13709113001823425 0.5116298198699951 -0.848198652267456
vn -0.13709113001823425 0.5116298198699951 -0.848198652267456
vn -0.37453871965408325 0.37453868985176086 -0.8481990098953247
vn -0.37453871965408325 0.37453868985176086 -0.8481990098953247
vn -0.37453871965408325 0.37453868985176086 -0.8481990098953247
vn -0.5116294622421265 0.13709087669849396 -0.8481988906860352
vn -0.5116294622421265 0.13709087669849396 -0.8481988906860352
vn -0.5116294622421265 0.13709087669849396 -0.8481988906860352
vn -0.5116302967071533 -0.1370905488729477 -0.8481985926628113
vn -0.5116302967071533 -0.1370905488729477 -0.8481985926628113
vn -0.5116302967071533 -0.1370905488729477 -0.8481985926628113
vn -0.37453898787498474 -0.37453916668891907 -0.848198652267456
vn -0.37453898787498474 -0.37453916668891907 -0.848198652267456
vn -0.37453898787498474 -0.37453916668891907 -0.848198652267456
vn -0.13709069788455963 -0.5116296410560608 -0.8481989502906799
vn -0.13709069788455963 -0.5116296410560608 -0.8481989502906799
vn -0.13709069788455963 -0.5116296410560608 -0.8481989502906799
vn -4.405054596645641e-07 1.6851759787953058e-13 -1.0
vn -4.405054596645641e-07 1.6851759787953058e-13 -1.0
vn 3.814886326836131e-07 2.2025263035629905e-07 -1.0
vn 9.727574479256873e-07 6.203642328728165e-07 -1.0
vn 5.322505103322328e-07 -7.383907814073609e-07 -1.0
vn 6.098865696912981e-07 8.145691232641639e-09 -1.0
vn -3.8148894532241684e-07 2.202527582539915e-07 -1.0
vn 0.09219826757907867 -0.3440881371498108 -0.9343997240066528
vn 0.09219826757907867 -0.3440881371498108 -0.9343997240066528
vn 0.2518901228904724 -0.2518899738788605 -0.9343997240066528
vn 0.2518901228904724 -0.2518899738788605 -0.9343997240066528
vn 0.2518901228904724 -0.2518899738788605 -0.9343997240066528
vn 0.3440885543823242 -0.09219740331172943 -0.9343996644020081
vn 0.3440885543823242 -0.09219740331172943 -0.9343996644020081
vn 0.3440885543823242 -0.09219740331172943 -0.9343996644020081
vn 0.34408921003341675 0.09219621866941452 -0.9343995451927185
vn 0.34408921003341675 0.09219621866941452 -0.9343995451927185
vn 0.34408921003341675 0.09219621866941452 -0.9343995451927185
vn 0.25188979506492615 0.2518899738788605 -0.9343997836112976
vn 0.25188979506492615 0.2518899738788605 -0.9343997836112976
vn 0.25188979506492615 0.2518899738788605 -0.9343997836112976
vn 0.09219736605882645 0.34408825635910034 -0.9343997836112976
vn 0.09219736605882645 0.34408825635910034 -0.9343997836112976
vn 0.09219736605882645 0.34408825635910034 -0.9343997836112976
vn 0.24940183758735657 -0.9307786822319031 -0.2673012614250183
vn 0.24940183758735657 -0.9307786822319031 -0.2673012614250183
vn 0.681377649307251 -0.6813770532608032 -0.26730117201805115
vn 0.681377649307251 -0.6813770532608032 -0.26730117201805115
vn 0.9307789206504822 -0.24940219521522522 -0.2673001289367676
vn 0.9307789206504822 -0.24940219521522522 -0.2673001289367676
vn 0.9307788610458374 0.24940118193626404 -0.2673008441925049
vn 0.9307788610458374 0.24940118193626404 -0.2673008441925049
vn 0.6813777089118958 0.6813769936561584 -0.26730093359947205
vn 0.6813777089118958 0.6813769936561584 -0.26730093359947205
vn 0.24940171837806702 0.9307786822319031 -0.2673010528087616
vn 0.24940171837806702 0.9307786822319031 -0.2673010528087616
vn 0.24940171837806702 0.9307786822319031 -0.2673010528087616
vn 0.24940140545368195 0.9307787418365479 -0.267301470041275
vn 0.2197016477584839 -0.8199368119239807 -0.5286159515380859
vn 0.2197016477584839 -0.8199368119239807 -0.5286159515380859
vn 0.2197016477584839 -0.8199368119239807 -0.5286159515380859
vn 0.6002352237701416 -0.6002357006072998 -0.5286159515380859
vn 0.6002352237701416 -0.6002357006072998 -0.5286159515380859
vn 0.6002352237701416 -0.6002357006072998 -0.5286159515380859
vn 0.8199366927146912 -0.21970142424106598 -0.5286162495613098
vn 0.8199366927146912 -0.21970142424106598 -0.5286162495613098
vn 0.8199366927146912 -0.21970142424106598 -0.5286162495613098
vn 0.8199368119239807 0.21970126032829285 -0.5286161303520203
vn 0.8199368119239807 0.21970126032829285 -0.5286161303520203
vn 0.8199368119239807 0.21970126032829285 -0.5286161303520203
vn 0.6002357006072998 0.6002352833747864 -0.5286158323287964
vn 0.6002357006072998 0.6002352833747864 -0.5286158323287964
vn 0.6002357006072998 0.6002352833747864 -0.5286158323287964
vn 0.21970145404338837 0.8199368119239807 -0.5286160111427307
vn 0.21970145404338837 0.8199368119239807 -0.5286160111427307
vn 0.21970145404338837 0.8199368119239807 -0.5286160111427307
vn 0.21970167756080627 0.8199369311332703 -0.5286159515380859
vn 0.1370912790298462 -0.5116298198699951 -0.848198652267456
vn 0.1370912790298462 -0.5116298198699951 -0.848198652267456
vn 0.1370912790298462 -0.5116298198699951 -0.848198652267456
vn 0.37453916668891907 -0.3745391368865967 -0.8481987118721008
vn 0.37453916668891907 -0.3745391368865967 -0.8481987118721008
vn 0.37453916668891907 -0.3745391368865967 -0.8481987118721008
vn 0.511629581451416 -0.13709098100662231 -0.8481989502906799
vn 0.511629581451416 -0.13709098100662231 -0.8481989502906799
vn 0.511629581451416 -0.13709098100662231 -0.8481989502906799
vn 0.5116304159164429 0.13709035515785217 -0.8481985330581665
vn 0.5116304159164429 0.13709035515785217 -0.8481985330581665
vn 0.5116304159164429 0.13709035515785217 -0.8481985330581665
vn 0.37453898787498474 0.37453916668891907 -0.848198652267456
vn 0.37453898787498474 0.37453916668891907 -0.848198652267456
vn 0.37453898787498474 0.37453916668891907 -0.848198652267456
vn 0.13709115982055664 0.5116300582885742 -0.8481985330581665
vn 0.13709115982055664 0.5116300582885742 -0.8481985330581665
vn 0.13709115982055664 0.5116300582885742 -0.8481985330581665
vn 0.137090802192688 0.5116298198699951 -0.8481987118721008
vn 0.0 0.0 -1.0
vn 0.0 0.0 -1.0
vn 0.0 0.0 -1.0
vn 3.814886326836131e-07 2.2025265877800848e-07 -1.0
vn 9.174293325031613e-08 -9.055974601324124e-07 -1.0
vn 5.322502261151385e-07 1.023621052809176e-06 -1.0
vn 6.098865696912981e-07 8.145691232641639e-09 -1.0
vn 0.0 0.0 -1.0
vn 0.0 0.0 -1.0
vn -0.09219887852668762 0.3440881073474884 -0.9343996644020081
vn -0.09219887852668762 0.3440881073474884 -0.9343996644020081
vn -0.09219887852668762 0.3440881073474884 -0.9343996644020081
vn -0.25189024209976196 0.25189027190208435 -0.9343996047973633
vn -0.25189024209976196 0.25189027190208435 -0.9343996047973633
vn -0.25189024209976196 0.25189027190208435 -0.9343996047973633
vn -0.3440888226032257 0.0921974703669548 -0.9343995451927185
vn -0.3440888226032257 0.0921974703669548 -0.9343995451927185
vn -0.3440888226032257 0.0921974703669548 -0.9343995451927185
vn -0.34408947825431824 -0.09219616651535034 -0.934399425983429
vn -0.34408947825431824 -0.09219616651535034 -0.934399425983429
vn -0.34408947825431824 -0.09219616651535034 -0.934399425983429
vn -0.25189006328582764 -0.2518901526927948 -0.9343996644020081
vn -0.25189006328582764 -0.2518901526927948 -0.9343996644020081
vn -0.25189006328582764 -0.2518901526927948 -0.9343996644020081
vn -0.09219804406166077 -0.34408819675445557 -0.9343997240066528
vn -0.09219804406166077 -0.34408819675445557 -0.9343997240066528
vn -0.09219804406166077 -0.34408819675445557 -0.9343997240066528
vn 0.6739999055862427 -0.6739998459815979 0.30240437388420105
vn 0.674000084400177 -0.6739994883537292 0.3024047911167145
vn 0.9207008481025696 -0.24670103192329407 0.3024047017097473
vn 0.9207008481025696 -0.2467014640569687 0.3024042546749115
vn 0.9207009077072144 0.24670083820819855 0.3024046719074249
vn 0.9207009673118591 0.24670088291168213 0.3024047315120697
vn 0.6739998459815979 0.6739997267723083 0.3024047315120697
vn 0.6739999055862427 0.6739996671676636 0.3024046719074249
vn 0.24670100212097168 0.9207007884979248 0.3024047911167145
vn 0.24670107662677765 0.9207007884979248 0.3024047911167145
vn 0.20514622330665588 -0.7911496162414551 0.5761920809745789
vn 0.21070128679275513 -0.7863476872444153 0.5807428956031799
vn 0.21070128679275513 -0.7863476872444153 0.5807428956031799
vn 0.21070128679275513 -0.7863476872444153 0.5807428956031799
vn 0.5756940841674805 -0.5948950052261353 0.5609602332115173
vn 0.5756940841674805 -0.5948950052261353 0.5609602332115173
vn 0.5808190107345581 -0.5808190107345581 0.5703495144844055
vn 0.5808190107345581 -0.5808190107345581 0.5703495144844055
vn 0.5808190107345581 -0.5808190107345581 0.5703495144844055
vn 0.8043690919876099 -0.22271905839443207 0.550805389881134
vn 0.8043690919876099 -0.22271905839443207 0.550805389881134
vn 0.8030312061309814 -0.21517160534858704 0.5557355880737305
vn 0.8030312061309814 -0.21517160534858704 0.5557355880737305
vn 0.8030312061309814 -0.21517160534858704 0.5557355880737305
vn 0.8004541397094727 0.22163404524326324 0.5569125413894653
vn 0.8004541397094727 0.22163404524326324 0.5569125413894653
vn 0.8054976463317871 0.21583221852779388 0.5518969297409058
vn 0.8054976463317871 0.21583221852779388 0.5518969297409058
vn 0.8054976463317871 0.21583221852779388 0.5518969297409058
vn 0.5700387954711914 0.5890514254570007 0.5727776885032654
vn 0.5700387954711914 0.5890514254570007 0.5727776885032654
vn 0.5843619704246521 0.5843619704246521 0.5630651116371155
vn 0.5843619704246521 0.5843619704246521 0.5630651116371155
vn 0.5843619704246521 0.5843619704246521 0.5630651116371155
vn 0.20405273139476776 0.7869347333908081 0.5823197364807129
vn 0.20405273139476776 0.7869347333908081 0.5823197364807129
vn 0.21126119792461395 0.7884379625320435 0.5776974558830261
vn 0.21126119792461395 0.7884379625320435 0.5776974558830261
vn 0.21126119792461395 0.7884379625320435 0.5776974558830261
vn 0.13311418890953064 -0.5133530497550964 0.8477908372879028
vn 0.13311347365379333 -0.5133541822433472 0.8477902412414551
vn 0.3650922477245331 -0.3772697448730469 0.851102352142334
vn 0.3650922477245331 -0.3772697448730469 0.851102352142334
vn 0.36509233713150024 -0.3772689998149872 0.8511027693748474
vn 0.500689685344696 -0.1386353075504303 0.8544530868530273
vn 0.500689685344696 -0.1386353075504303 0.8544530868530273
vn 0.5006890892982483 -0.1386341005563736 0.8544536232948303
vn 0.5006895065307617 0.1386338323354721 0.854453444480896
vn 0.5006895065307617 0.1386338323354721 0.854453444480896
vn 0.5006897449493408 0.13863366842269897 0.854453444480896
vn 0.36509180068969727 0.37726953625679016 0.8511026501655579
vn 0.36509180068969727 0.37726953625679016 0.8511026501655579
vn 0.36509260535240173 0.3772694766521454 0.8511022925376892
vn 0.1331137865781784 0.5133542418479919 0.8477901816368103
vn 0.1331137865781784 0.5133542418479919 0.8477901816368103
vn 0.13311301171779633 0.5133538246154785 0.847790539264679
vn 0.0037752543576061726 -0.014553142711520195 0.9998869895935059
vn 0.0037747083697468042 -0.014553978107869625 0.9998869895935059
vn 0.010310073383152485 -0.010653949342668056 0.9998900890350342
vn 0.010310073383152485 -0.010653949342668056 0.9998900890350342
vn 0.0103100361302495 -0.01065449696034193 0.9998900890350342
vn 0.014083867892622948 -0.0039012818597257137 0.999893307685852
vn 0.014083867892622948 -0.0039012818597257137 0.999893307685852
vn 0.01408344879746437 -0.003900387091562152 0.999893307685852
vn 0.014083090238273144 0.003901006653904915 0.9998932480812073
vn 0.014083090238273144 0.003901006653904915 0.9998932480812073
vn 0.014083869755268097 0.0039004634600132704 0.999893307685852
vn 0.01031038910150528 0.010654286481440067 0.9998900890350342
vn 0.01031038910150528 0.010654286481440067 0.9998900890350342
vn 0.010309863835573196 0.010654324665665627 0.9998900890350342
vn 0.003775425488129258 0.014553972519934177 0.9998870491981506
vn 0.003775425488129258 0.014553972519934177 0.9998870491981506
vn 0.0037745756562799215 0.01455354318022728 0.9998869895935059
vn -0.014614463783800602 0.05636657029390335 0.9983031749725342
vn -0.014614463783800602 0.05636657029390335 0.9983031749725342
vn -0.039932698011398315 0.04126459360122681 0.9983499646186829
vn -0.039932698011398315 0.04126459360122681 0.9983499646186829
vn -0.039932698011398315 0.04126459360122681 0.9983499646186829
vn -0.05455237254500389 0.015103261917829514 0.9983966946601868
vn -0.05455237254500389 0.015103261917829514 0.9983966946601868
vn -0.05455237254500389 0.015103261917829514 0.9983966946601868
vn -0.054552480578422546 -0.015103058889508247 0.9983966946601868
vn -0.054552480578422546 -0.015103058889508247 0.9983966946601868
vn -0.054552480578422546 -0.015103058889508247 0.9983966946601868
vn -0.03993264585733414 -0.04126457870006561 0.9983499646186829
vn -0.03993264585733414 -0.04126457870006561 0.9983499646186829
vn -0.03993264585733414 -0.04126457870006561 0.9983499646186829
vn -0.014614296145737171 -0.05636658892035484 0.9983031749725342
vn -0.014614296145737171 -0.05636658892035484 0.9983031749725342
vn -0.014614296145737171 -0.05636658892035484 0.9983031749725342
vn -0.246701180934906 0.9207009673118591 0.3024044632911682
vn -0.24670138955116272 0.92070072889328 0.3024047017097473
vn -0.6739998459815979 0.6740001440048218 0.3024037480354309
vn -0.6740002036094666 0.6739994287490845 0.30240464210510254
vn -0.9207010865211487 0.24670109152793884 0.30240416526794434
vn -0.9207011461257935 0.24670180678367615 0.30240342020988464
vn -0.9207010269165039 -0.24670082330703735 0.3024042248725891
vn -0.9207010865211487 -0.24670074880123138 0.30240410566329956
vn -0.6740001440048218 -0.673999547958374 0.30240434408187866
vn -0.6740002632141113 -0.673999547958374 0.3024042844772339
vn -0.24670091271400452 -0.9207008481025696 0.3024047017097473
vn -0.24670091271400452 -0.9207008481025696 0.3024047017097473
vn -0.24670091271400452 -0.9207008481025696 0.3024047017097473
vn -0.2467012107372284 -0.9207008481025696 0.3024044334888458
vn -0.20501038432121277 0.790625810623169 0.5769588947296143
vn -0.20501038432121277 0.790625810623169 0.5769588947296143
vn -0.21056155860424042 0.7858260273933411 0.5814991593360901
vn -0.21056155860424042 0.7858260273933411 0.5814991593360901
vn -0.21056155860424042 0.7858260273933411 0.5814991593360901
vn -0.5754148960113525 0.5946067571640015 0.5615519881248474
vn -0.5754148960113525 0.5946067571640015 0.5615519881248474
vn -0.5805394649505615 0.5805397629737854 0.5709182620048523
vn -0.5805394649505615 0.5805397629737854 0.5709182620048523
vn -0.5805394649505615 0.5805397629737854 0.5709182620048523
vn -0.8042259216308594 0.2226795107126236 0.5510304570198059
vn -0.8042259216308594 0.2226795107126236 0.5510304570198059
vn -0.8028919100761414 0.21513423323631287 0.5559514760971069
vn -0.8028919100761414 0.21513423323631287 0.5559514760971069
vn -0.8028919100761414 0.21513423323631287 0.5559514760971069
vn -0.8005980253219604 -0.22167359292507172 0.5566899180412292
vn -0.8005980253219604 -0.22167359292507172 0.5566899180412292
vn -0.8056370615959167 -0.21586957573890686 0.5516785979270935
vn -0.8056370615959167 -0.21586957573890686 0.5516785979270935
vn -0.8056370615959167 -0.21586957573890686 0.5516785979270935
vn -0.5703180432319641 -0.5893401503562927 0.5722023248672485
vn -0.5703180432319641 -0.5893401503562927 0.5722023248672485
vn -0.5846416354179382 -0.58464115858078 0.5624846816062927
vn -0.5846416354179382 -0.58464115858078 0.5624846816062927
vn -0.5846416354179382 -0.58464115858078 0.5624846816062927
vn -0.20418888330459595 -0.787458598613739 0.5815632939338684
vn -0.20418888330459595 -0.787458598613739 0.5815632939338684
vn -0.20418888330459595 -0.787458598613739 0.5815632939338684
vn -0.2114010900259018 -0.7889596819877625 0.5769336223602295
vn -0.2114010900259018 -0.7889596819877625 0.5769336223602295
vn -0.2114010900259018 -0.7889596819877625 0.5769336223602295
vn -0.1331137865781784 0.5133538842201233 0.8477903604507446
vn -0.1331137865781784 0.5133538842201233 0.8477903604507446
vn -0.13311360776424408 0.5133542418479919 0.8477903008460999
vn -0.3650926947593689 0.3772691786289215 0.8511025309562683
vn -0.3650926947593689 0.3772691786289215 0.8511025309562683
vn -0.36509260535240173 0.37726953625679016 0.8511022925376892
vn -0.5006894469261169 0.13863486051559448 0.854453444480896
vn -0.5006894469261169 0.13863486051559448 0.854453444480896
vn -0.5006890892982483 0.13863418996334076 0.8544536232948303
vn -0.500688910484314 -0.13863378763198853 0.8544538021087646
vn -0.500688910484314 -0.13863378763198853 0.8544538021087646
vn -0.5006895065307617 -0.13863343000411987 0.8544536232948303
vn -0.365093469619751 -0.37726926803588867 0.8511020541191101
vn -0.365093469619751 -0.37726926803588867 0.8511020541191101
vn -0.3650922179222107 -0.37726935744285583 0.8511026501655579
vn -0.1331130415201187 -0.5133541822433472 0.8477903008460999
vn -0.1331130415201187 -0.5133541822433472 0.8477903008460999
vn -0.1331130415201187 -0.5133541822433472 0.8477903008460999
vn -0.13311350345611572 -0.513354480266571 0.8477900624275208
vn -0.003773882519453764 0.014553963206708431 0.9998869895935059
vn -0.003773882519453764 0.014553963206708431 0.9998869895935059
vn -0.003773876465857029 0.014553971588611603 0.9998869895935059
vn -0.010310721583664417 0.010654616169631481 0.9998900890350342
vn -0.010310721583664417 0.010654616169631481 0.9998900890350342
vn -0.010310759767889977 0.010654068551957607 0.9998900890350342
vn -0.014085618779063225 0.0039017663802951574 0.9998931884765625
vn -0.014085618779063225 0.0039017663802951574 0.9998931884765625
vn -0.014084739610552788 0.0038998944219201803 0.9998931884765625
vn -0.014084857888519764 -0.003901485586538911 0.9998931884765625
vn -0.014084857888519764 -0.003901485586538911 0.9998931884765625
vn -0.014085622504353523 -0.003900951938703656 0.9998931884765625
vn -0.010310393758118153 -0.010654286481440067 0.9998900890350342
vn -0.010310393758118153 -0.010654286481440067 0.9998900890350342
vn -0.01031198725104332 -0.01065417006611824 0.9998900890350342
vn -0.0037738503888249397 -0.014553973451256752 0.9998869895935059
vn -0.0037738503888249397 -0.014553973451256752 0.9998869895935059
vn -0.0037738503888249397 -0.014553973451256752 0.9998869895935059
vn -0.0037738545797765255 -0.01455397717654705 0.9998869895935059
vn 0.014616013504564762 -0.056366585195064545 0.9983031749725342
vn 0.014616013504564762 -0.056366585195064545 0.9983031749725342
vn 0.014616013504564762 -0.056366585195064545 0.9983031749725342
vn 0.03993327543139458 -0.04126517474651337 0.9983499050140381
vn 0.03993327543139458 -0.04126517474651337 0.9983499050140381
vn 0.03993327543139458 -0.04126517474651337 0.9983499050140381
vn 0.05455316603183746 -0.015103484503924847 0.998396635055542
vn 0.05455316603183746 -0.015103484503924847 0.998396635055542
vn 0.05455316603183746 -0.015103484503924847 0.998396635055542
vn 0.05455327779054642 0.015103240497410297 0.998396635055542
vn 0.05455327779054642 0.015103240497410297 0.998396635055542
vn 0.05455327779054642 0.015103240497410297 0.998396635055542
vn 0.0399332270026207 0.041265156120061874 0.9983499050140381
vn 0.0399332270026207 0.041265156120061874 0.9983499050140381
vn 0.0399332270026207 0.041265156120061874 0.9983499050140381
vn 0.014615874737501144 0.05636658892035484 0.9983031749725342
vn 0.014615874737501144 0.05636658892035484 0.9983031749725342
vn 0.014615874737501144 0.05636658892035484 0.9983031749725342
vn -3.3651585340521706e-07 -3.016566196833992e-08 1.0
vn -3.3651585340521706e-07 -3.016566196833992e-08 1.0
vn -4.995653313244475e-08 1.35279506707775e-07 1.0
vn -1.3272915566631127e-07 -8.086905367576946e-09 1.0
vn -1.408085807952375e-07 2.2080822503767195e-08 1.0
vn -1.408085807952375e-07 2.2080822503767195e-08 1.0
vn -1.5481201387501642e-07 3.01657152590451e-08 1.0
vn -1.0220848878361721e-07 7.458730522102996e-08 1.0
vn -1.0220848878361721e-07 7.458730522102996e-08 1.0
vn -1.0220858825960022e-07 -7.45870636364998e-08 1.0
vn -1.709777137648416e-07 -3.016569039004935e-08 1.0
vn 1.0726315835540845e-08 3.0165704600904064e-08 1.0
f 471/471/471 472/472/472 123/123/123
f 473/473/473 469/469/469 123/123/123
f 468/468/468 473/473/473 123/123/123
f 472/472/472 462/462/462 123/123/123
f 470/470/470 471/471/471 123/123/123
f 469/469/469 470/470/470 123/123/123
f 465/465/465 466/466/466 123/123/123
f 467/467/467 468/468/468 123/123/123
f 466/466/466 467/467/467 123/123/123
f 464/464/464 465/465/465 123/123/123
f 463/463/463 464/464/464 123/123/123
f 462/462/462 463/463/463 123/123/123
f 459/459/459 460/460/460 461/461/461
f 456/456/456 457/457/457 458/458/458
f 453/453/453 454/454/454 455/455/455
f 450/450/450 451/451/451 452/452/452
f 447/447/447 448/448/448 449/449/449
f 444/444/444 445/445/445 446/446/446
f 442/442/442 443/443/443 440/440/440
f 440/440/440 441/441/441 442/442/442
f 438/438/438 439/439/439 437/437/437
f 437/437/437 97/97/97 438/438/438
f 435/435/435 436/436/436 434/434/434
f 434/434/434 96/96/96 435/435/435
f 432/432/432 433/433/433 431/431/431
f 431/431/431 95/95/95 432/432/432
f 429/429/429 430/430/430 428/428/428
f 428/428/428 94/94/94 429/429/429
f 426/426/426 427/427/427 425/425/425
f 425/425/425 93/93/93 426/426/426
f 423/423/423 424/424/424 421/421/421
f 421/421/421 422/422/422 423/423/423
f 419/419/419 420/420/420 418/418/418
f 418/418/418 91/91/91 419/419/419
f 416/416/416 417/417/417 415/415/415
f 415/415/415 90/90/90 416/416/416
f 413/413/413 414/414/414 412/412/412
f 412/412/412 89/89/89 413/413/413
f 410/410/410 411/411/411 409/409/409
f 409/409/409 88/88/88 410/410/410
f 407/407/407 408/408/408 406/406/406
f 406/406/406 87/87/87 407/407/407
f 403/403/403 404/404/404 405/405/405
f 400/400/400 401/401/401 402/402/402
f 397/397/397 398/398/398 399/399/399
f 395/395/395 84/84/84 396/396/396
f 392/392/392 393/393/393 394/394/394
f 390/390/390 83/83/83 391/391/391
f 387/387/387 388/388/388 389/389/389
f 385/385/385 82/82/82 386/386/386
f 382/382/382 383/383/383 384/384/384
f 380/380/380 81/81/81 381/381/381
f 377/377/377 378/378/378 379/379/379
f 375/375/375 80/80/80 376/376/376
f 373/373/373 374/374/374 371/371/371
f 371/371/371 372/372/372 373/373/373
f 369/369/369 370/370/370 122/122/122
f 122/122/122 78/78/78 369/369/369
f 367/367/367 368/368/368 118/118/118
f 118/118/118 77/77/77 367/367/367
f 365/365/365 366/366/366 117/117/117
f 117/117/117 76/76/76 365/365/365
f 363/363/363 364/364/364 121/121/121
f 121/121/121 75/75/75 363/363/363
f 361/361/361 362/362/362 120/120/120
f 120/120/120 74/74/74 361/361/361
f 358/358/358 359/359/359 360/360/360
f 355/355/355 356/356/356 357/357/357
f 352/352/352 353/353/353 354/354/354
f 349/349/349 350/350/350 351/351/351
f 346/346/346 347/347/347 348/348/348
f 344/344/344 71/71/71 345/345/345
f 342/342/342 343/343/343 341/341/341
f 341/341/341 70/70/70 342/342/342
f 339/339/339 340/340/340 338/338/338
f 338/338/338 69/69/69 339/339/339
f 336/336/336 337/337/337 335/335/335
f 335/335/335 68/68/68 336/336/336
f 333/333/333 334/334/334 332/332/332
f 332/332/332 67/67/67 333/333/333
f 330/330/330 331/331/331 329/329/329
f 329/329/329 66/66/66 330/330/330
f 98/98/98 328/328/328 327/327/327
f 327/327/327 65/65/65 98/98/98
f 325/325/325 326/326/326 324/324/324
f 324/324/324 86/86/86 325/325/325
f 322/322/322 323/323/323 321/321/321
f 321/321/321 64/64/64 322/322/322
f 319/319/319 320/320/320 318/318/318
f 318/318/318 63/63/63 319/319/319
f 316/316/316 317/317/317 315/315/315
f 315/315/315 62/62/62 316/316/316
f 313/313/313 314/314/314 312/312/312
f 312/312/312 61/61/61 313/313/313
f 92/92/92 311/311/311 310/310/310
f 310/310/310 60/60/60 92/92/92
f 307/307/307 308/308/308 309/309/309
f 305/305/305 72/72/72 306/306/306
f 302/302/302 303/303/303 304/304/304
f 300/300/300 59/59/59 301/301/301
f 297/297/297 298/298/298 299/299/299
f 295/295/295 58/58/58 296/296/296
f 292/292/292 293/293/293 294/294/294
f 290/290/290 57/57/57 291/291/291
f 287/287/287 288/288/288 289/289/289
f 285/285/285 56/56/56 286/286/286
f 282/282/282 283/283/283 284/284/284
f 281/281/281 55/55/55 85/85/85
f 279/279/279 280/280/280 116/116/116
f 116/116/116 73/73/73 279/279/279
f 277/277/277 278/278/278 115/115/115
f 115/115/115 54/54/54 277/277/277
f 275/275/275 276/276/276 114/114/114
f 114/114/114 53/53/53 275/275/275
f 273/273/273 274/274/274 111/111/111
f 111/111/111 52/52/52 273/273/273
f 271/271/271 272/272/272 113/113/113
f 113/113/113 51/51/51 271/271/271
f 79/79/79 119/119/119 112/112/112
f 112/112/112 50/50/50 79/79/79
f 268/268/268 269/269/269 270/270/270
f 265/265/265 266/266/266 267/267/267
f 262/262/262 263/263/263 264/264/264
f 259/259/259 260/260/260 261/261/261
f 256/256/256 257/257/257 258/258/258
f 253/253/253 254/254/254 255/255/255
f 48/48/48 252/252/252 251/251/251
f 251/251/251 250/250/250 48/48/48
f 47/47/47 48/48/48 250/250/250
f 250/250/250 249/249/249 47/47/47
f 46/46/46 47/47/47 249/249/249
f 249/249/249 248/248/248 46/46/46
f 45/45/45 46/46/46 248/248/248
f 248/248/248 247/247/247 45/45/45
f 44/44/44 45/45/45 247/247/247
f 247/247/247 244/244/244 44/44/44
f 246/246/246 44/44/44 244/244/244
f 244/244/244 245/245/245 246/246/246
f 242/242/242 243/243/243 240/240/240
f 240/240/240 241/241/241 242/242/242
f 239/239/239 42/42/42 237/237/237
f 237/237/237 238/238/238 239/239/239
f 236/236/236 41/41/41 234/234/234
f 234/234/234 235/235/235 236/236/236
f 233/233/233 40/40/40 231/231/231
f 231/231/231 232/232/232 233/233/233
f 230/230/230 39/39/39 228/228/228
f 228/228/228 229/229/229 230/230/230
f 227/227/227 38/38/38 225/225/225
f 225/225/225 226/226/226 227/227/227
f 223/223/223 224/224/224 221/221/221
f 221/221/221 222/222/222 223/223/223
f 220/220/220 35/35/35 218/218/218
f 218/218/218 219/219/219 220/220/220
f 217/217/217 34/34/34 215/215/215
f 215/215/215 216/216/216 217/217/217
f 214/214/214 33/33/33 212/212/212
f 212/212/212 213/213/213 214/214/214
f 211/211/211 32/32/32 209/209/209
f 209/209/209 210/210/210 211/211/211
f 208/208/208 31/31/31 206/206/206
f 206/206/206 207/207/207 208/208/208
f 204/204/204 205/205/205 202/202/202
f 202/202/202 203/203/203 204/204/204
f 201/201/201 29/29/29 110/110/110
f 110/110/110 200/200/200 201/201/201
f 199/199/199 28/28/28 106/106/106
f 106/106/106 198/198/198 199/199/199
f 197/197/197 27/27/27 105/105/105
f 105/105/105 196/196/196 197/197/197
f 195/195/195 26/26/26 109/109/109
f 109/109/109 194/194/194 195/195/195
f 193/193/193 25/25/25 108/108/108
f 108/108/108 192/192/192 193/193/193
f 189/189/189 190/190/190 191/191/191
f 186/186/186 187/187/187 188/188/188
f 183/183/183 184/184/184 185/185/185
f 180/180/180 181/181/181 182/182/182
f 177/177/177 178/178/178 179/179/179
f 175/175/175 176/176/176 22/22/22
f 20/20/20 21/21/21 174/174/174
f 174/174/174 173/173/173 20/20/20
f 19/19/19 20/20/20 173/173/173
f 173/173/173 172/172/172 19/19/19
f 18/18/18 19/19/19 172/172/172
f 172/172/172 171/171/171 18/18/18
f 17/17/17 18/18/18 171/171/171
f 171/171/171 170/170/170 17/17/17
f 16/16/16 17/17/17 170/170/170
f 170/170/170 168/168/168 16/16/16
f 49/49/49 16/16/16 168/168/168
f 168/168/168 169/169/169 49/49/49
f 167/167/167 37/37/37 165/165/165
f 165/165/165 166/166/166 167/167/167
f 164/164/164 15/15/15 162/162/162
f 162/162/162 163/163/163 164/164/164
f 161/161/161 14/14/14 159/159/159
f 159/159/159 160/160/160 161/161/161
f 158/158/158 13/13/13 156/156/156
f 156/156/156 157/157/157 158/158/158
f 155/155/155 12/12/12 153/153/153
f 153/153/153 154/154/154 155/155/155
f 43/43/43 11/11/11 151/151/151
f 151/151/151 152/152/152 43/43/43
f 150/150/150 23/23/23 148/148/148
f 148/148/148 149/149/149 150/150/150
f 147/147/147 10/10/10 145/145/145
f 145/145/145 146/146/146 147/147/147
f 144/144/144 9/9/9 142/142/142
f 142/142/142 143/143/143 144/144/144
f 141/141/141 8/8/8 139/139/139
f 139/139/139 140/140/140 141/141/141
f 138/138/138 7/7/7 136/136/136
f 136/136/136 137/137/137 138/138/138
f 36/36/36 6/6/6 134/134/134
f 134/134/134 135/135/135 36/36/36
f 133/133/133 24/24/24 104/104/104
f 104/104/104 132/132/132 133/133/133
f 131/131/131 5/5/5 103/103/103
f 103/103/103 130/130/130 131/131/131
f 129/129/129 4/4/4 102/102/102
f 102/102/102 128/128/128 129/129/129
f 127/127/127 3/3/3 99/99/99
f 99/99/99 126/126/126 127/127/127
f 125/125/125 2/2/2 101/101/101
f 101/101/101 124/124/124 125/125/125
f 30/30/30 1/1/1 100/100/100
f 100/100/100 107/107/107 30/30/30
