# Recovered local-space geometry; original node transforms not applied
o mesh_0
v -1.0468649634276517e-05 0.0 42.491485595703125
v -6.165425475046504e-06 25.569734573364258 34.319175720214844
v -12.78487491607666 22.144039154052734 34.319175720214844
v -22.14404296875 12.784876823425293 34.319175720214844
v -25.569740295410156 1.571160100866109e-05 34.319175720214844
v -22.144058227539062 -12.784843444824219 34.319175720214844
v -12.78488826751709 -22.144033432006836 34.319175720214844
v -2.603429493319709e-05 -25.569734573364258 34.319175720214844
v 12.78483772277832 -22.1440486907959 34.319175720214844
v 22.144020080566406 -12.784879684448242 34.319175720214844
v 25.569719314575195 -1.8624818039825186e-05 34.319175720214844
v 22.144039154052734 12.784842491149902 34.319175720214844
v 12.784879684448242 22.144023895263672 34.319175720214844
v -4.746603735839017e-06 37.849143981933594 19.69011878967285
v -18.92458152770996 32.77832794189453 19.69011878967285
v -32.77832794189453 18.924591064453125 19.69011878967285
v -37.849151611328125 1.52587890625e-05 19.69011878967285
v -32.778343200683594 -18.92455291748047 19.69011878967285
v -18.92460060119629 -32.77832794189453 19.69011878967285
v -3.335683504701592e-05 -37.849143981933594 19.69011878967285
v 18.92453956604004 -32.778343200683594 19.69011878967285
v 32.77830123901367 -18.924598693847656 19.69011878967285
v 37.84913635253906 -3.0517578125e-05 19.69011878967285
v 32.77832794189453 18.924545288085938 19.69011878967285
v 18.924602508544922 32.77830505371094 19.69011878967285
v -4.746603735839017e-06 41.52067947387695 -4.1173771023750305e-06
v -20.760343551635742 35.95796203613281 -4.1173771023750305e-06
v -35.957969665527344 20.760353088378906 -4.1173771023750305e-06
v -41.52068328857422 1.52587890625e-05 -4.1173771023750305e-06
v -35.957977294921875 -20.76031494140625 -4.1173771023750305e-06
v -20.76036262512207 -35.95795440673828 -4.1173771023750305e-06
v -3.717153231264092e-05 -41.520668029785156 -4.1173771023750305e-06
v 20.760299682617188 -35.957969665527344 -4.1173771023750305e-06
v 35.95793533325195 -20.76036834716797 -4.1173771023750305e-06
v 41.520668029785156 -3.814697265625e-05 -4.1173771023750305e-06
v 35.957969665527344 20.760299682617188 -4.1173771023750305e-06
v 20.760372161865234 35.95793914794922 -4.1173771023750305e-06
v -1.2375998267089017e-05 -7.62939453125e-06 -4.1173771023750305e-06
v -20.760343551635742 35.95796203613281 -4.1173771023750305e-06
v -4.746603735839017e-06 41.52067947387695 -4.1173771023750305e-06
v -35.957969665527344 20.760353088378906 -4.1173771023750305e-06
v -41.52068328857422 1.52587890625e-05 -4.1173771023750305e-06
v -35.957977294921875 -20.76031494140625 -4.1173771023750305e-06
v -20.76036262512207 -35.95795440673828 -4.1173771023750305e-06
v -3.717153231264092e-05 -41.520668029785156 -4.1173771023750305e-06
v 20.760299682617188 -35.957969665527344 -4.1173771023750305e-06
v 35.95793533325195 -20.76036834716797 -4.1173771023750305e-06
v 41.520668029785156 -3.814697265625e-05 -4.1173771023750305e-06
v 35.957969665527344 20.760299682617188 -4.1173771023750305e-06
v 20.760372161865234 35.95793914794922 -4.1173771023750305e-06
vt 0.4378036856651306 0.0024585723876953125
vt 0.4378036856651306 0.01942133903503418
vt 0.4226483106613159 0.01942133903503418
vt 0.4091913402080536 0.01942133903503418
vt 0.3965810537338257 0.01942133903503418
vt 0.4091913104057312 0.01942133903503418
vt 0.42264828085899353 0.01942133903503418
vt 0.4378036558628082 0.01942133903503418
vt 0.4529590308666229 0.01942133903503418
vt 0.46641603112220764 0.01942133903503418
vt 0.47902631759643555 0.01942133903503418
vt 0.46641606092453003 0.01942133903503418
vt 0.4529590904712677 0.01942133903503418
vt 0.4378036856651306 0.03862404823303223
vt 0.4177738130092621 0.03862404823303223
vt 0.3982539474964142 0.03862404823303223
vt 0.3833223879337311 0.03862398862838745
vt 0.3982538878917694 0.03862398862838745
vt 0.4177737534046173 0.03862398862838745
vt 0.4378036558628082 0.03862398862838745
vt 0.45783352851867676 0.03862398862838745
vt 0.4773534834384918 0.03862398862838745
vt 0.49228495359420776 0.03862398862838745
vt 0.4773534834384918 0.03862404823303223
vt 0.4578336179256439 0.03862404823303223
vt 0.4378036856651306 0.06175661087036133
vt 0.4158308207988739 0.06175661087036133
vt 0.394417405128479 0.06175661087036133
vt 0.3780374526977539 0.06175661087036133
vt 0.394417405128479 0.06175661087036133
vt 0.4158307611942291 0.06175661087036133
vt 0.43780362606048584 0.06175661087036133
vt 0.45977649092674255 0.06175661087036133
vt 0.48118990659713745 0.06175661087036133
vt 0.4975699186325073 0.06175661087036133
vt 0.4811899960041046 0.06175661087036133
vt 0.4597766101360321 0.06175661087036133
vt 0.43757984042167664 0.12977272272109985
vt 0.43757978081703186 0.24844521284103394
vt 0.4961701035499573 0.23833978176116943
vt 0.37987929582595825 0.23863637447357178
vt 0.43757978081703186 0.24844521284103394
vt 0.4961701035499573 0.23833978176116943
vt 0.43757978081703186 0.24844521284103394
vt 0.37987929582595825 0.23863637447357178
vt 0.43757978081703186 0.24844521284103394
vt 0.4961701035499573 0.23833978176116943
vt 0.43757978081703186 0.24844521284103394
vt 0.37987929582595825 0.23863637447357178
vt 0.43757978081703186 0.24844521284103394
vn -1.046379605185166e-08 -1.700366958345967e-08 1.0
vn -0.04232942685484886 0.6017049551010132 0.7975959777832031
vn -0.337510883808136 0.499926894903183 0.7975960969924927
vn -0.5422565340995789 0.26419395208358765 0.7975960373878479
vn -0.601705014705658 -0.042329341173172 0.7975959777832031
vn -0.4999271631240845 -0.33751046657562256 0.7975960969924927
vn -0.2641940712928772 -0.5422562956809998 0.7975961565971375
vn 0.04232924431562424 -0.6017049551010132 0.7975960373878479
vn 0.3375106751918793 -0.4999270439147949 0.7975960969924927
vn 0.5422563552856445 -0.264194130897522 0.7975960969924927
vn 0.6017048954963684 0.042329251766204834 0.7975960373878479
vn 0.49992725253105164 0.33751046657562256 0.7975960373878479
vn 0.2641943395137787 0.5422564148902893 0.7975960969924927
vn -0.009503169916570187 0.9034202098846436 0.4286509156227112
vn -0.4599400758743286 0.7776332497596741 0.42865097522735596
vn -0.7871364951133728 0.44347989559173584 0.4286510646343231
vn -0.9034202098846436 -0.009503211826086044 0.4286509156227112
vn -0.777633547782898 -0.4599396884441376 0.428650826215744
vn -0.4434801936149597 -0.7871364951133728 0.42865103483200073
vn 0.0095030777156353 -0.9034203290939331 0.42865073680877686
vn 0.45993971824645996 -0.777633547782898 0.4286508560180664
vn 0.7871362566947937 -0.44348034262657166 0.4286510646343231
vn 0.9034202694892883 0.009502881206572056 0.4286510646343231
vn 0.7776336073875427 0.45993953943252563 0.4286509156227112
vn 0.44348040223121643 0.7871361970901489 0.4286510646343231
vn 0.08746679872274399 0.9792882204055786 0.18260370194911957
vn -0.4138956665992737 0.8918219208717346 0.18260346353054047
vn -0.8043551445007324 0.5653925538063049 0.18260353803634644
vn -0.9792882800102234 0.08746655285358429 0.1826036423444748
vn -0.8918221592903137 -0.41389545798301697 0.18260344862937927
vn -0.5653929710388184 -0.8043549656867981 0.182603120803833
vn -0.08746664226055145 -0.9792883396148682 0.1826031655073166
vn 0.41389504075050354 -0.891822338104248 0.18260303139686584
vn 0.8043549060821533 -0.5653931498527527 0.1826033741235733
vn 0.9792882204055786 -0.0874672457575798 0.18260355293750763
vn 0.8918222188949585 0.4138950705528259 0.18260347843170166
vn 0.5653932690620422 0.8043546676635742 0.18260344862937927
vn 0.0 0.0 -1.0
vn 0.0 0.0 -1.0
vn 0.0 0.0 -1.0
vn 0.0 0.0 -1.0
vn 0.0 0.0 -1.0
vn 0.0 0.0 -1.0
vn 0.0 0.0 -1.0
vn 0.0 0.0 -1.0
vn 0.0 0.0 -1.0
vn 0.0 0.0 -1.0
vn 0.0 0.0 -1.0
vn 0.0 0.0 -1.0
vn 0.0 0.0 -1.0
f 40/40/40 50/50/50 38/38/38
f 50/50/50 49/49/49 38/38/38
f 49/49/49 48/48/48 38/38/38
f 48/48/48 47/47/47 38/38/38
f 47/47/47 46/46/46 38/38/38
f 46/46/46 45/45/45 38/38/38
f 45/45/45 44/44/44 38/38/38
f 44/44/44 43/43/43 38/38/38
f 43/43/43 42/42/42 38/38/38
f 42/42/42 41/41/41 38/38/38
f 41/41/41 39/39/39 38/38/38
f 39/39/39 40/40/40 38/38/38
f 25/25/25 37/37/37 26/26/26
f 26/26/26 14/14/14 25/25/25
f 24/24/24 36/36/36 37/37/37
f 37/37/37 25/25/25 24/24/24
f 23/23/23 35/35/35 36/36/36
f 36/36/36 24/24/24 23/23/23
f 22/22/22 34/34/34 35/35/35
f 35/35/35 23/23/23 22/22/22
f 21/21/21 33/33/33 34/34/34
f 34/34/34 22/22/22 21/21/21
f 20/20/20 32/32/32 33/33/33
f 33/33/33 21/21/21 20/20/20
f 19/19/19 31/31/31 32/32/32
f 32/32/32 20/20/20 19/19/19
f 18/18/18 30/30/30 31/31/31
f 31/31/31 19/19/19 18/18/18
f 17/17/17 29/29/29 30/30/30
f 30/30/30 18/18/18 17/17/17
f 16/16/16 28/28/28 29/29/29
f 29/29/29 17/17/17 16/16/16
f 15/15/15 27/27/27 28/28/28
f 28/28/28 16/16/16 15/15/15
f 14/14/14 26/26/26 27/27/27
f 27/27/27 15/15/15 14/14/14
f 13/13/13 25/25/25 14/14/14
f 14/14/14 2/2/2 13/13/13
f 12/12/12 24/24/24 25/25/25
f 25/25/25 13/13/13 12/12/12
f 11/11/11 23/23/23 24/24/24
f 24/24/24 12/12/12 11/11/11
f 10/10/10 22/22/22 23/23/23
f 23/23/23 11/11/11 10/10/10
f 9/9/9 21/21/21 22/22/22
f 22/22/22 10/10/10 9/9/9
f 8/8/8 20/20/20 21/21/21
f 21/21/21 9/9/9 8/8/8
f 7/7/7 19/19/19 20/20/20
f 20/20/20 8/8/8 7/7/7
f 6/6/6 18/18/18 19/19/19
f 19/19/19 7/7/7 6/6/6
f 5/5/5 17/17/17 18/18/18
f 18/18/18 6/6/6 5/5/5
f 4/4/4 16/16/16 17/17/17
f 17/17/17 5/5/5 4/4/4
f 3/3/3 15/15/15 16/16/16
f 16/16/16 4/4/4 3/3/3
f 2/2/2 14/14/14 15/15/15
f 15/15/15 3/3/3 2/2/2
f 1/1/1 13/13/13 2/2/2
f 1/1/1 12/12/12 13/13/13
f 1/1/1 11/11/11 12/12/12
f 1/1/1 10/10/10 11/11/11
f 1/1/1 9/9/9 10/10/10
f 1/1/1 8/8/8 9/9/9
f 1/1/1 7/7/7 8/8/8
f 1/1/1 6/6/6 7/7/7
f 1/1/1 5/5/5 6/6/6
f 1/1/1 4/4/4 5/5/5
f 1/1/1 3/3/3 4/4/4
f 1/1/1 2/2/2 3/3/3
