# Recovered local-space geometry; original node transforms not applied
o mesh_0
v -1.0468649634276517e-05 8.337285939755135e-13 -42.491485595703125
v -3.93004802390351e-06 25.569734573364258 -34.319175720214844
v -12.784873008728027 22.144041061401367 -34.319175720214844
v -22.144041061401367 12.784878730773926 -34.319175720214844
v -25.569740295410156 1.7946978914551437e-05 -34.319175720214844
v -22.144060134887695 -12.784841537475586 -34.319175720214844
v -12.784890174865723 -22.144031524658203 -34.319175720214844
v -2.8269672839087434e-05 -25.569734573364258 -34.319175720214844
v 12.784835815429688 -22.14405059814453 -34.319175720214844
v 22.144018173217773 -12.784881591796875 -34.319175720214844
v 25.569719314575195 -2.0860194126726128e-05 -34.319175720214844
v 22.144041061401367 12.78484058380127 -34.319175720214844
v 12.784881591796875 22.14402198791504 -34.319175720214844
v -1.437726723452215e-06 37.849143981933594 -19.69011878967285
v -18.924577713012695 32.77832794189453 -19.69011878967285
v -32.77832794189453 18.92459487915039 -19.69011878967285
v -37.849151611328125 1.856766721175518e-05 -19.69011878967285
v -32.778343200683594 -18.924549102783203 -19.69011878967285
v -18.924604415893555 -32.77832794189453 -19.69011878967285
v -3.6665711377281696e-05 -37.849143981933594 -19.69011878967285
v 18.924535751342773 -32.778343200683594 -19.69011878967285
v 32.77830123901367 -18.924602508544922 -19.69011878967285
v 37.84913635253906 -3.3826454455265775e-05 -19.69011878967285
v 32.77832794189453 18.924541473388672 -19.69011878967285
v 18.924606323242188 32.77830505371094 -19.69011878967285
v -1.116750809160294e-06 41.52067947387695 4.1173771023750305e-06
v -20.760339736938477 35.95796203613281 4.1173771023750305e-06
v -35.957969665527344 20.760356903076172 4.1173771023750305e-06
v -41.52068328857422 1.8888642443926074e-05 4.1173771023750305e-06
v -35.957977294921875 -20.760311126708984 4.1173771023750305e-06
v -20.760366439819336 -35.95795440673828 4.1173771023750305e-06
v -4.080138387507759e-05 -41.520668029785156 4.1173771023750305e-06
v 20.760295867919922 -35.957969665527344 4.1173771023750305e-06
v 35.95793533325195 -20.760372161865234 4.1173771023750305e-06
v 41.520668029785156 -4.177682421868667e-05 4.1173771023750305e-06
v 35.957969665527344 20.760295867919922 4.1173771023750305e-06
v 20.7603759765625 35.95793914794922 4.1173771023750305e-06
v -1.2375999176583719e-05 -7.629393621755298e-06 4.1173771023750305e-06
v -20.760339736938477 35.95796203613281 4.1173771023750305e-06
v -1.116750809160294e-06 41.52067947387695 4.1173771023750305e-06
v -35.957969665527344 20.760356903076172 4.1173771023750305e-06
v -41.52068328857422 1.8888642443926074e-05 4.1173771023750305e-06
v -35.957977294921875 -20.760311126708984 4.1173771023750305e-06
v -20.760366439819336 -35.95795440673828 4.1173771023750305e-06
v -4.080138387507759e-05 -41.520668029785156 4.1173771023750305e-06
v 20.760295867919922 -35.957969665527344 4.1173771023750305e-06
v 35.95793533325195 -20.760372161865234 4.1173771023750305e-06
v 41.520668029785156 -4.177682421868667e-05 4.1173771023750305e-06
v 35.957969665527344 20.760295867919922 4.1173771023750305e-06
v 20.7603759765625 35.95793914794922 4.1173771023750305e-06
vt 0.4378036856651306 0.12228941917419434
vt 0.4378036856651306 0.10409170389175415
vt 0.42156580090522766 0.10409170389175415
vt 0.4071475863456726 0.10409170389175415
vt 0.3936365842819214 0.10409170389175415
vt 0.40714752674102783 0.10409170389175415
vt 0.4215657711029053 0.10409170389175415
vt 0.4378036558628082 0.10409170389175415
vt 0.4540415108203888 0.10409170389175415
vt 0.468459814786911 0.10409170389175415
vt 0.48197078704833984 0.10409170389175415
vt 0.468459814786911 0.10409170389175415
vt 0.45404163002967834 0.10409170389175415
vt 0.4378036856651306 0.08488917350769043
vt 0.4177738130092621 0.08488917350769043
vt 0.3982539474964142 0.08488917350769043
vt 0.3833223879337311 0.08488917350769043
vt 0.3982538878917694 0.08488917350769043
vt 0.4177737534046173 0.08488917350769043
vt 0.43780362606048584 0.08488917350769043
vt 0.45783352851867676 0.08488917350769043
vt 0.4773534834384918 0.08488917350769043
vt 0.49228495359420776 0.08488917350769043
vt 0.4773534834384918 0.08488917350769043
vt 0.4578336179256439 0.08488917350769043
vt 0.4378036856651306 0.06175661087036133
vt 0.4158308207988739 0.06175661087036133
vt 0.394417405128479 0.06175661087036133
vt 0.3780374526977539 0.06175661087036133
vt 0.394417405128479 0.06175661087036133
vt 0.4158307611942291 0.06175661087036133
vt 0.43780362606048584 0.06175661087036133
vt 0.45977649092674255 0.06175661087036133
vt 0.48118990659713745 0.06175661087036133
vt 0.4975699186325073 0.06175661087036133
vt 0.4811899960041046 0.06175661087036133
vt 0.4597766101360321 0.06175661087036133
vt 0.43757984042167664 0.12977272272109985
vt 0.43757978081703186 0.24844521284103394
vt 0.4961701035499573 0.23833978176116943
vt 0.37987929582595825 0.23863637447357178
vt 0.43757978081703186 0.24844521284103394
vt 0.4961701035499573 0.23833978176116943
vt 0.43757978081703186 0.24844521284103394
vt 0.37987929582595825 0.23863637447357178
vt 0.43757978081703186 0.24844521284103394
vt 0.4961701035499573 0.23833978176116943
vt 0.43757978081703186 0.24844521284103394
vt 0.37987929582595825 0.23863637447357178
vt 0.43757978081703186 0.24844521284103394
vn -7.84784770502256e-09 -1.961961793028877e-08 -1.0
vn -0.04232937842607498 0.6017049551010132 -0.7975959777832031
vn -0.3375108242034912 0.49992692470550537 -0.7975960969924927
vn -0.5422564744949341 0.26419398188591003 -0.7975960969924927
vn -0.601705014705658 -0.04232928529381752 -0.7975959777832031
vn -0.49992722272872925 -0.3375104069709778 -0.7975960969924927
vn -0.2641941010951996 -0.5422562956809998 -0.797596275806427
vn 0.04232918843626976 -0.601705014705658 -0.7975960969924927
vn 0.3375105857849121 -0.4999270737171173 -0.7975960969924927
vn 0.5422562956809998 -0.26419416069984436 -0.7975961565971375
vn 0.601705014705658 0.04232918843626976 -0.7975959777832031
vn 0.4999273121356964 0.3375104069709778 -0.7975961565971375
vn 0.2641943395137787 0.5422563552856445 -0.7975961565971375
vn -0.009503158740699291 0.9034202694892883 -0.4286510646343231
vn -0.45993995666503906 0.7776333689689636 -0.4286508858203888
vn -0.787136435508728 0.4434799551963806 -0.4286510944366455
vn -0.9034202098846436 -0.009503195993602276 -0.4286509156227112
vn -0.7776336669921875 -0.4599395990371704 -0.42865076661109924
vn -0.44348016381263733 -0.7871363759040833 -0.42865103483200073
vn 0.009503061883151531 -0.9034202694892883 -0.42865079641342163
vn 0.459939569234848 -0.7776336669921875 -0.42865079641342163
vn 0.7871361970901489 -0.44348040223121643 -0.4286510646343231
vn 0.9034201502799988 0.009502865374088287 -0.42865103483200073
vn 0.7776336669921875 0.4599393904209137 -0.4286509156227112
vn 0.4434804916381836 0.7871361374855042 -0.4286511242389679
vn 0.08746679872274399 0.9792882204055786 -0.18260370194911957
vn -0.4138955771923065 0.8918219804763794 -0.18260346353054047
vn -0.8043550252914429 0.5653927326202393 -0.18260355293750763
vn -0.9792882800102234 0.08746655285358429 -0.1826036423444748
vn -0.891822099685669 -0.4138953387737274 -0.18260341882705688
vn -0.5653930306434631 -0.8043549060821533 -0.18260310590267181
vn -0.08746664226055145 -0.9792883396148682 -0.1826031655073166
vn 0.41389501094818115 -0.891822338104248 -0.18260303139686584
vn 0.804354727268219 -0.5653932094573975 -0.18260332942008972
vn 0.9792882204055786 -0.0874672532081604 -0.18260356783866882
vn 0.8918222188949585 0.41389501094818115 -0.18260347843170166
vn 0.5653934478759766 0.8043546676635742 -0.18260347843170166
vn 0.0 0.0 1.0
vn 0.0 0.0 1.0
vn 0.0 0.0 1.0
vn 0.0 0.0 1.0
vn 0.0 0.0 1.0
vn 0.0 0.0 1.0
vn 0.0 0.0 1.0
vn 0.0 0.0 1.0
vn 0.0 0.0 1.0
vn 0.0 0.0 1.0
vn 0.0 0.0 1.0
vn 0.0 0.0 1.0
vn 0.0 0.0 1.0
f 40/40/40 38/38/38 50/50/50
f 50/50/50 38/38/38 49/49/49
f 49/49/49 38/38/38 48/48/48
f 48/48/48 38/38/38 47/47/47
f 47/47/47 38/38/38 46/46/46
f 46/46/46 38/38/38 45/45/45
f 45/45/45 38/38/38 44/44/44
f 44/44/44 38/38/38 43/43/43
f 43/43/43 38/38/38 42/42/42
f 42/42/42 38/38/38 41/41/41
f 41/41/41 38/38/38 39/39/39
f 39/39/39 38/38/38 40/40/40
f 25/25/25 14/14/14 26/26/26
f 26/26/26 37/37/37 25/25/25
f 24/24/24 25/25/25 37/37/37
f 37/37/37 36/36/36 24/24/24
f 23/23/23 24/24/24 36/36/36
f 36/36/36 35/35/35 23/23/23
f 22/22/22 23/23/23 35/35/35
f 35/35/35 34/34/34 22/22/22
f 21/21/21 22/22/22 34/34/34
f 34/34/34 33/33/33 21/21/21
f 20/20/20 21/21/21 33/33/33
f 33/33/33 32/32/32 20/20/20
f 19/19/19 20/20/20 32/32/32
f 32/32/32 31/31/31 19/19/19
f 18/18/18 19/19/19 31/31/31
f 31/31/31 30/30/30 18/18/18
f 17/17/17 18/18/18 30/30/30
f 30/30/30 29/29/29 17/17/17
f 16/16/16 17/17/17 29/29/29
f 29/29/29 28/28/28 16/16/16
f 15/15/15 16/16/16 28/28/28
f 28/28/28 27/27/27 15/15/15
f 14/14/14 15/15/15 27/27/27
f 27/27/27 26/26/26 14/14/14
f 13/13/13 2/2/2 14/14/14
f 14/14/14 25/25/25 13/13/13
f 12/12/12 13/13/13 25/25/25
f 25/25/25 24/24/24 12/12/12
f 11/11/11 12/12/12 24/24/24
f 24/24/24 23/23/23 11/11/11
f 10/10/10 11/11/11 23/23/23
f 23/23/23 22/22/22 10/10/10
f 9/9/9 10/10/10 22/22/22
f 22/22/22 21/21/21 9/9/9
f 8/8/8 9/9/9 21/21/21
f 21/21/21 20/20/20 8/8/8
f 7/7/7 8/8/8 20/20/20
f 20/20/20 19/19/19 7/7/7
f 6/6/6 7/7/7 19/19/19
f 19/19/19 18/18/18 6/6/6
f 5/5/5 6/6/6 18/18/18
f 18/18/18 17/17/17 5/5/5
f 4/4/4 5/5/5 17/17/17
f 17/17/17 16/16/16 4/4/4
f 3/3/3 4/4/4 16/16/16
f 16/16/16 15/15/15 3/3/3
f 2/2/2 3/3/3 15/15/15
f 15/15/15 14/14/14 2/2/2
f 1/1/1 2/2/2 13/13/13
f 1/1/1 13/13/13 12/12/12
f 1/1/1 12/12/12 11/11/11
f 1/1/1 11/11/11 10/10/10
f 1/1/1 10/10/10 9/9/9
f 1/1/1 9/9/9 8/8/8
f 1/1/1 8/8/8 7/7/7
f 1/1/1 7/7/7 6/6/6
f 1/1/1 6/6/6 5/5/5
f 1/1/1 5/5/5 4/4/4
f 1/1/1 4/4/4 3/3/3
f 1/1/1 3/3/3 2/2/2
