# Recovered local-space geometry; original node transforms not applied
o mesh_0
v -1.040564075083239e-05 7.876149510366304e-08 48.491485595703125
v -4.633143362298142e-06 29.093929290771484 39.175106048583984
v -14.546971321105957 25.196081161499023 39.175106048583984
v -25.19608497619629 14.546975135803223 39.175106048583984
v -29.093935012817383 1.7767477402230725e-05 39.175106048583984
v -25.196102142333984 -14.546937942504883 39.175106048583984
v -14.546988487243652 -25.196073532104492 39.175106048583984
v -2.804397081490606e-05 -29.093929290771484 39.175106048583984
v 14.5469331741333 -25.196090698242188 39.175106048583984
v 25.196062088012695 -14.546978950500488 39.175106048583984
v 29.093914031982422 -2.1042589651187882e-05 39.175106048583984
v 25.196083068847656 14.54693603515625 39.175106048583984
v 14.546979904174805 25.196063995361328 39.175106048583984
v -2.64011146100529e-06 43.316986083984375 22.160486221313477
v -21.65850067138672 37.51361846923828 22.160486221313477
v -37.51361846923828 21.658512115478516 22.160486221313477
v -43.316993713378906 1.7333841242361814e-05 22.160486221313477
v -37.513633728027344 -21.65846824645996 22.160484313964844
v -21.658523559570312 -37.51361846923828 22.160486221313477
v -3.562052734196186e-05 -43.316986083984375 22.160484313964844
v 21.65845489501953 -37.513633728027344 22.160484313964844
v 37.513587951660156 -21.65852165222168 22.160486221313477
v 43.316978454589844 -3.441616354393773e-05 22.160486221313477
v 37.51361846923828 21.658462524414062 22.160486221313477
v 21.658527374267578 37.51359176635742 22.160486221313477
v -4.620878826244734e-07 47.52067947387695 -3.086986666289704e-08
v -23.760339736938477 41.15411376953125 -3.0869841793901287e-07
v -41.15412139892578 23.760356903076172 5.556574365073175e-07
v -47.52068328857422 1.7691112589091063e-05 0.0
v -41.15413284301758 -23.76030921936035 -3.0869841793901287e-07
v -23.760366439819336 -41.15410614013672 2.4695879119462916e-07
v -4.145604543737136e-05 -47.520668029785156 0.0
v 23.760292053222656 -41.15412521362305 -3.0869838951730344e-07
v 41.154083251953125 -23.7603759765625 2.778287750970776e-07
v 47.520668029785156 -4.517890192801133e-05 2.16088892557309e-07
v 41.15412521362305 23.760292053222656 -4.939175823892583e-07
v 23.760379791259766 41.15408706665039 2.469589048814669e-07
v -1.0468649634276517e-05 4.725772484448498e-08 -48.491485595703125
v -2.0127704374317545e-06 29.093931198120117 -39.175106048583984
v -14.546969413757324 25.196083068847656 -39.175106048583984
v -25.196083068847656 14.546977043151855 -39.175106048583984
v -29.093935012817383 2.0680447050835937e-05 -39.175106048583984
v -25.196104049682617 -14.54693603515625 -39.175106048583984
v -14.546989440917969 -25.19607162475586 -39.175106048583984
v -3.080294482060708e-05 -29.093929290771484 -39.175106048583984
v 14.546931266784668 -25.196094512939453 -39.175106048583984
v 25.196060180664062 -14.546979904174805 -39.175106048583984
v 29.093914031982422 -2.3732260160613805e-05 -39.175106048583984
v 25.196086883544922 14.546934127807617 -39.175106048583984
v 14.546981811523438 25.196062088012695 -39.175106048583984
v 7.002056463534245e-07 43.316986083984375 -22.160486221313477
v -21.65849494934082 37.51361846923828 -22.160486221313477
v -37.51361846923828 21.65851593017578 -22.160486221313477
v -43.316993713378906 2.0642719391616993e-05 -22.160486221313477
v -37.513633728027344 -21.658464431762695 -22.160484313964844
v -21.658527374267578 -37.513614654541016 -22.160484313964844
v -3.8929403672227636e-05 -43.316986083984375 -22.160484313964844
v 21.658451080322266 -37.513633728027344 -22.160484313964844
v 37.513587951660156 -21.658527374267578 -22.160486221313477
v 43.316978454589844 -3.77250398742035e-05 -22.160486221313477
v 37.51361846923828 21.658456802368164 -22.160486221313477
v 21.658531188964844 37.51359176635742 -22.160486221313477
vt 0.4428388774394989 0.5821366310119629
vt 0.44337382912635803 0.5827370882034302
vt 0.4428407549858093 0.5827373266220093
vt 0.4423077404499054 0.5827370882034302
vt 0.4428407549858093 0.5827373266220093
vt 0.44337382912635803 0.5827370882034302
vt 0.4428407549858093 0.5827373266220093
vt 0.4423077404499054 0.5827370882034302
vt 0.4428407549858093 0.5827373266220093
vt 0.44337382912635803 0.5827370882034302
vt 0.4428407549858093 0.5827373266220093
vt 0.4423077404499054 0.5827370882034302
vt 0.4428407549858093 0.5827373266220093
vt 0.4436396062374115 0.5833060145378113
vt 0.44284066557884216 0.5833049416542053
vt 0.4420417249202728 0.5833060145378113
vt 0.44284066557884216 0.5833049416542053
vt 0.4436396062374115 0.5833060145378113
vt 0.44284066557884216 0.5833049416542053
vt 0.4420417249202728 0.5833060145378113
vt 0.44284066557884216 0.5833049416542053
vt 0.4436396062374115 0.5833060145378113
vt 0.44284066557884216 0.5833049416542053
vt 0.4420417249202728 0.5833060145378113
vt 0.44284066557884216 0.5833049416542053
vt 0.44375744462013245 0.5839531421661377
vt 0.44284066557884216 0.5839524865150452
vt 0.44192394614219666 0.5839531421661377
vt 0.44284066557884216 0.5839524865150452
vt 0.44375744462013245 0.5839531421661377
vt 0.44284066557884216 0.5839524865150452
vt 0.44192394614219666 0.5839531421661377
vt 0.44284066557884216 0.5839524865150452
vt 0.44375744462013245 0.5839531421661377
vt 0.44284066557884216 0.5839524865150452
vt 0.44192394614219666 0.5839531421661377
vt 0.44284066557884216 0.5839524865150452
vt 0.4428388774394989 0.5821366310119629
vt 0.44337382912635803 0.5827370882034302
vt 0.4428407549858093 0.5827373266220093
vt 0.4423077404499054 0.5827370882034302
vt 0.4428407549858093 0.5827373266220093
vt 0.44337382912635803 0.5827370882034302
vt 0.4428407549858093 0.5827373266220093
vt 0.4423077404499054 0.5827370882034302
vt 0.4428407549858093 0.5827373266220093
vt 0.44337382912635803 0.5827370882034302
vt 0.4428407549858093 0.5827373266220093
vt 0.4423077404499054 0.5827370882034302
vt 0.4428407549858093 0.5827373266220093
vt 0.4436396062374115 0.5833060145378113
vt 0.44284066557884216 0.5833049416542053
vt 0.4420417249202728 0.5833060145378113
vt 0.44284066557884216 0.5833049416542053
vt 0.4436396062374115 0.5833060145378113
vt 0.44284066557884216 0.5833049416542053
vt 0.4420417249202728 0.5833060145378113
vt 0.44284066557884216 0.5833049416542053
vt 0.4436396062374115 0.5833060145378113
vt 0.44284066557884216 0.5833049416542053
vt 0.4420417249202728 0.5833060145378113
vt 0.44284066557884216 0.5833049416542053
vn 2.6164412858520336e-09 2.093153028681627e-08 -1.0
vn 0.04240906611084938 -0.6028473973274231 -0.7967286109924316
vn 0.33815109729766846 -0.5008765459060669 -0.7967286705970764
vn 0.5432857275009155 -0.26469627022743225 -0.7967286109924316
vn 0.6028475165367126 0.04240899160504341 -0.7967285513877869
vn 0.5008768439292908 0.3381507396697998 -0.7967286109924316
vn 0.264696329832077 0.543285608291626 -0.7967287302017212
vn -0.042408909648656845 0.6028475165367126 -0.7967286705970764
vn -0.33815091848373413 0.5008767247200012 -0.7967287302017212
vn -0.5432856678962708 0.26469650864601135 -0.7967287302017212
vn -0.6028473973274231 -0.04240890592336655 -0.7967286109924316
vn -0.5008769035339355 -0.33815068006515503 -0.7967286109924316
vn -0.2646965980529785 -0.543285608291626 -0.7967286109924316
vn 0.009414177387952805 -0.9032012820243835 -0.4291140139102936
vn 0.4597536027431488 -0.7774882912635803 -0.4291140139102936
vn 0.7869024872779846 -0.4434475898742676 -0.42911413311958313
vn 0.9032014012336731 0.009414233267307281 -0.4291140139102936
vn 0.7774884700775146 0.45975321531295776 -0.42911386489868164
vn 0.4434477686882019 0.7869023084640503 -0.4291139841079712
vn -0.009414127096533775 0.9032013416290283 -0.42911383509635925
vn -0.45975321531295776 0.7774884104728699 -0.42911389470100403
vn -0.7869022488594055 0.4434480667114258 -0.42911410331726074
vn -0.9032012820243835 -0.009413889609277248 -0.42911404371261597
vn -0.7774884700775146 -0.45975303649902344 -0.4291139841079712
vn -0.44344812631607056 -0.7869021892547607 -0.4291141629219055
vn -0.0889625996351242 -0.9960349798202515 -1.3017880995391806e-08
vn 0.42097362875938416 -0.907072901725769 4.946793907834035e-08
vn 0.8181102871894836 -0.5750613808631897 0.0
vn 0.9960349798202515 -0.08896234631538391 -5.207151598796145e-09
vn 0.9070730209350586 0.42097336053848267 3.905363854528332e-08
vn 0.5750616192817688 0.8181101083755493 5.467509822665306e-08
vn 0.08896242082118988 0.9960349798202515 2.3432178863913578e-08
vn -0.4209730625152588 0.9070732593536377 3.6450060747483803e-08
vn -0.818109929561615 0.5750618577003479 -2.863933623586945e-08
vn -0.9960349202156067 0.08896305412054062 -1.041430319759229e-08
vn -0.9070731401443481 -0.4209730327129364 4.686436483325451e-08
vn -0.5750620365142822 -0.8181098103523254 -5.2071524869745645e-09
vn 0.0 2.3547970684489883e-08 1.0
vn 0.042409006506204605 -0.6028474569320679 0.7967286109924316
vn 0.3381510376930237 -0.5008766055107117 0.7967286109924316
vn 0.5432856678962708 -0.26469630002975464 0.7967286705970764
vn 0.6028475761413574 0.04240894317626953 0.7967286109924316
vn 0.5008769631385803 0.3381507396697998 0.7967286705970764
vn 0.2646964192390442 0.543285608291626 0.7967286705970764
vn -0.04240882769227028 0.6028475165367126 0.7967286705970764
vn -0.33815085887908936 0.5008767247200012 0.7967286109924316
vn -0.543285608291626 0.2646964490413666 0.7967286705970764
vn -0.6028475165367126 -0.04240882769227028 0.7967285513877869
vn -0.5008769631385803 -0.33815059065818787 0.7967286109924316
vn -0.2646966278553009 -0.543285608291626 0.7967287302017212
vn 0.009414144791662693 -0.9032012820243835 0.4291139841079712
vn 0.45975345373153687 -0.7774882912635803 0.42911389470100403
vn 0.7869023680686951 -0.44344761967658997 0.42911410331726074
vn 0.9032014012336731 0.00941422302275896 0.4291140139102936
vn 0.7774884700775146 0.4597531855106354 0.42911383509635925
vn 0.44344788789749146 0.7869022488594055 0.4291140139102936
vn -0.009414040483534336 0.9032013416290283 0.42911383509635925
vn -0.4597531259059906 0.7774885296821594 0.42911380529403687
vn -0.786902129650116 0.4434480667114258 0.4291140139102936
vn -0.9032013416290283 -0.009413893334567547 0.42911413311958313
vn -0.7774885296821594 -0.4597529470920563 0.4291139543056488
vn -0.44344812631607056 -0.7869020700454712 0.42911407351493835
f 62/62/62 37/37/37 26/26/26
f 26/26/26 51/51/51 62/62/62
f 61/61/61 36/36/36 37/37/37
f 37/37/37 62/62/62 61/61/61
f 60/60/60 35/35/35 36/36/36
f 36/36/36 61/61/61 60/60/60
f 59/59/59 34/34/34 35/35/35
f 35/35/35 60/60/60 59/59/59
f 58/58/58 33/33/33 34/34/34
f 34/34/34 59/59/59 58/58/58
f 57/57/57 32/32/32 33/33/33
f 33/33/33 58/58/58 57/57/57
f 56/56/56 31/31/31 32/32/32
f 32/32/32 57/57/57 56/56/56
f 55/55/55 30/30/30 31/31/31
f 31/31/31 56/56/56 55/55/55
f 54/54/54 29/29/29 30/30/30
f 30/30/30 55/55/55 54/54/54
f 53/53/53 28/28/28 29/29/29
f 29/29/29 54/54/54 53/53/53
f 52/52/52 27/27/27 28/28/28
f 28/28/28 53/53/53 52/52/52
f 51/51/51 26/26/26 27/27/27
f 27/27/27 52/52/52 51/51/51
f 50/50/50 62/62/62 51/51/51
f 51/51/51 39/39/39 50/50/50
f 49/49/49 61/61/61 62/62/62
f 62/62/62 50/50/50 49/49/49
f 48/48/48 60/60/60 61/61/61
f 61/61/61 49/49/49 48/48/48
f 47/47/47 59/59/59 60/60/60
f 60/60/60 48/48/48 47/47/47
f 46/46/46 58/58/58 59/59/59
f 59/59/59 47/47/47 46/46/46
f 45/45/45 57/57/57 58/58/58
f 58/58/58 46/46/46 45/45/45
f 44/44/44 56/56/56 57/57/57
f 57/57/57 45/45/45 44/44/44
f 43/43/43 55/55/55 56/56/56
f 56/56/56 44/44/44 43/43/43
f 42/42/42 54/54/54 55/55/55
f 55/55/55 43/43/43 42/42/42
f 41/41/41 53/53/53 54/54/54
f 54/54/54 42/42/42 41/41/41
f 40/40/40 52/52/52 53/53/53
f 53/53/53 41/41/41 40/40/40
f 39/39/39 51/51/51 52/52/52
f 52/52/52 40/40/40 39/39/39
f 38/38/38 50/50/50 39/39/39
f 38/38/38 49/49/49 50/50/50
f 38/38/38 48/48/48 49/49/49
f 38/38/38 47/47/47 48/48/48
f 38/38/38 46/46/46 47/47/47
f 38/38/38 45/45/45 46/46/46
f 38/38/38 44/44/44 45/45/45
f 38/38/38 43/43/43 44/44/44
f 38/38/38 42/42/42 43/43/43
f 38/38/38 41/41/41 42/42/42
f 38/38/38 40/40/40 41/41/41
f 38/38/38 39/39/39 40/40/40
f 25/25/25 14/14/14 26/26/26
f 26/26/26 37/37/37 25/25/25
f 24/24/24 25/25/25 37/37/37
f 37/37/37 36/36/36 24/24/24
f 23/23/23 24/24/24 36/36/36
f 36/36/36 35/35/35 23/23/23
f 22/22/22 23/23/23 35/35/35
f 35/35/35 34/34/34 22/22/22
f 21/21/21 22/22/22 34/34/34
f 34/34/34 33/33/33 21/21/21
f 20/20/20 21/21/21 33/33/33
f 33/33/33 32/32/32 20/20/20
f 19/19/19 20/20/20 32/32/32
f 32/32/32 31/31/31 19/19/19
f 18/18/18 19/19/19 31/31/31
f 31/31/31 30/30/30 18/18/18
f 17/17/17 18/18/18 30/30/30
f 30/30/30 29/29/29 17/17/17
f 16/16/16 17/17/17 29/29/29
f 29/29/29 28/28/28 16/16/16
f 15/15/15 16/16/16 28/28/28
f 28/28/28 27/27/27 15/15/15
f 14/14/14 15/15/15 27/27/27
f 27/27/27 26/26/26 14/14/14
f 13/13/13 2/2/2 14/14/14
f 14/14/14 25/25/25 13/13/13
f 12/12/12 13/13/13 25/25/25
f 25/25/25 24/24/24 12/12/12
f 11/11/11 12/12/12 24/24/24
f 24/24/24 23/23/23 11/11/11
f 10/10/10 11/11/11 23/23/23
f 23/23/23 22/22/22 10/10/10
f 9/9/9 10/10/10 22/22/22
f 22/22/22 21/21/21 9/9/9
f 8/8/8 9/9/9 21/21/21
f 21/21/21 20/20/20 8/8/8
f 7/7/7 8/8/8 20/20/20
f 20/20/20 19/19/19 7/7/7
f 6/6/6 7/7/7 19/19/19
f 19/19/19 18/18/18 6/6/6
f 5/5/5 6/6/6 18/18/18
f 18/18/18 17/17/17 5/5/5
f 4/4/4 5/5/5 17/17/17
f 17/17/17 16/16/16 4/4/4
f 3/3/3 4/4/4 16/16/16
f 16/16/16 15/15/15 3/3/3
f 2/2/2 3/3/3 15/15/15
f 15/15/15 14/14/14 2/2/2
f 1/1/1 2/2/2 13/13/13
f 1/1/1 13/13/13 12/12/12
f 1/1/1 12/12/12 11/11/11
f 1/1/1 11/11/11 10/10/10
f 1/1/1 10/10/10 9/9/9
f 1/1/1 9/9/9 8/8/8
f 1/1/1 8/8/8 7/7/7
f 1/1/1 7/7/7 6/6/6
f 1/1/1 6/6/6 5/5/5
f 1/1/1 5/5/5 4/4/4
f 1/1/1 4/4/4 3/3/3
f 1/1/1 3/3/3 2/2/2
