# Recovered local-space geometry; original node transforms not applied
o mesh_0
v 2.8082997798919678 0.030772408470511436 64.8489990234375
v -0.002504353178665042 29.09696388244629 39.172916412353516
v -14.546123504638672 25.20248031616211 39.17140197753906
v -25.2032527923584 14.547597885131836 39.17038345336914
v -29.100645065307617 0.003208937356248498 39.17024230957031
v -25.199085235595703 -14.553088188171387 39.17100524902344
v -14.551070213317871 -25.198055267333984 39.17238235473633
v 0.004035410936921835 -29.095264434814453 39.17414093017578
v 14.544281005859375 -25.196786880493164 39.175636291503906
v 25.196006774902344 -14.542887687683105 39.17662811279297
v 29.091636657714844 -0.003394197905436158 39.17676544189453
v 25.193626403808594 14.548686027526855 39.176025390625
v 14.550765991210938 25.194589614868164 39.1746711730957
v -5.3162893891567364e-06 43.31698989868164 22.160499572753906
v -21.658504486083984 37.51362609863281 22.160497665405273
v -37.51362228393555 21.658519744873047 22.160497665405273
v -43.31699752807617 2.4963235773611814e-05 22.160497665405273
v -37.51363754272461 -21.658462524414062 22.16049575805664
v -21.658527374267578 -37.51361083984375 22.160493850708008
v -3.867398845613934e-05 -43.316978454589844 22.16049575805664
v 21.658451080322266 -37.51362991333008 22.16049575805664
v 37.51358413696289 -21.65851593017578 22.160497665405273
v 43.31697463989258 -2.7604211936704814e-05 22.160497665405273
v 37.513614654541016 21.65846824645996 22.160499572753906
v 21.658523559570312 37.51359939575195 22.160497665405273
v -23.76036262512207 -41.154090881347656 7.408765441141441e-07
v -2.6544032152742147e-05 -47.520652770996094 8.026162277019466e-07
v 23.760324478149414 -41.15409469604492 5.247875378699973e-07
v 41.15410232543945 -23.760326385498047 4.524704309005756e-06
v 47.52066421508789 8.256295586761553e-06 4.493834239838179e-06
v 41.154109954833984 23.76034164428711 7.5676548476621974e-06
v -5.0953569412231445 5.028905391693115 45.88131332397461
v -6.984648704528809 -1.8140476942062378 45.8377685546875
v -1.9019660949707031 -6.690197944641113 45.957061767578125
v 4.659628868103027 -4.734601974487305 46.10343551635742
v 6.349520683288574 1.7618868350982666 46.13896942138672
v 1.6663177013397217 6.638480186462402 46.03588104248047
v -4.203193664550781 6.1975507736206055 62.622528076171875
v -6.335790634155273 -2.2101891040802 63.09346008300781
v -0.4267396032810211 -8.45687484741211 61.80144500732422
v 7.802082061767578 -6.177150726318359 60.06428146362305
v 9.977331161499023 2.2945969104766846 59.61437225341797
v 3.989946126937866 8.536964416503906 60.861045837402344
v 1.0491368770599365 8.341238021850586 49.79795837402344
v -7.042324066162109 5.916100978851318 50.29756164550781
v -9.120706558227539 -2.104736566543579 50.4134635925293
v -3.3549559116363525 -8.13289737701416 50.07763671875
v 4.991642951965332 -6.1448493003845215 49.541255950927734
v 7.3202056884765625 2.310173273086548 49.39089584350586
v -41.15412902832031 -23.760311126708984 3.1973004297469743e-06
v -1.0468649634276517e-05 4.725734470412135e-08 -48.491485595703125
v -2.0127699826844037e-06 29.093929290771484 -39.175106048583984
v -14.546969413757324 25.196083068847656 -39.175106048583984
v -25.19608497619629 14.546977043151855 -39.175106048583984
v -29.093936920166016 2.0711246179416776e-05 -39.175106048583984
v -25.19610595703125 -14.54693603515625 -39.175106048583984
v -14.546989440917969 -25.19607162475586 -39.175106048583984
v -3.0802941182628274e-05 -29.093929290771484 -39.175106048583984
v 14.546931266784668 -25.196094512939453 -39.175106048583984
v 25.196056365966797 -14.546980857849121 -39.175106048583984
v 29.09391212463379 -2.3732256522634998e-05 -39.175106048583984
v 25.196083068847656 14.546934127807617 -39.175106048583984
v 14.546981811523438 25.196062088012695 -39.175106048583984
v 6.687660061288625e-07 43.31698226928711 -22.160486221313477
v -21.658496856689453 37.51361846923828 -22.160486221313477
v -37.513614654541016 21.65851593017578 -22.160484313964844
v -43.316993713378906 2.0296876755310223e-05 -22.160484313964844
v -37.51363754272461 -21.658464431762695 -22.16048240661621
v -21.658531188964844 -37.513614654541016 -22.160480499267578
v -3.867788109346293e-05 -43.316986083984375 -22.160480499267578
v 21.658449172973633 -37.51363754272461 -22.160480499267578
v 37.513587951660156 -21.658527374267578 -22.160484313964844
v 43.316978454589844 -3.8888327253516763e-05 -22.160484313964844
v 37.51362228393555 21.65845489501953 -22.160484313964844
v 21.65852928161621 37.51359176635742 -22.160484313964844
v -23.760353088378906 41.15412902832031 8.271079423138872e-06
v -47.520687103271484 2.2444142814492807e-05 3.2590398859611014e-06
v 23.760343551635742 41.154117584228516 9.382393727719318e-06
v -41.15412521362305 23.760356903076172 6.734168891853187e-06
v -1.6551817680010572e-05 47.52069091796875 8.610648364992812e-06
v -5.0953569412231445 5.028905391693115 45.88131332397461
v 1.6663177013397217 6.638480186462402 46.03588104248047
v 1.0491368770599365 8.341238021850586 49.79795837402344
v -5.0953569412231445 5.028905391693115 45.88131332397461
v -6.984648704528809 -1.8140476942062378 45.8377685546875
v -5.0953569412231445 5.028905391693115 45.88131332397461
v -7.042324066162109 5.916100978851318 50.29756164550781
v -7.042324066162109 5.916100978851318 50.29756164550781
v -6.984648704528809 -1.8140476942062378 45.8377685546875
v -1.9019660949707031 -6.690197944641113 45.957061767578125
v -6.984648704528809 -1.8140476942062378 45.8377685546875
v -9.120706558227539 -2.104736566543579 50.4134635925293
v -9.120706558227539 -2.104736566543579 50.4134635925293
v -1.9019660949707031 -6.690197944641113 45.957061767578125
v 4.659628868103027 -4.734601974487305 46.10343551635742
v -1.9019660949707031 -6.690197944641113 45.957061767578125
v -3.3549559116363525 -8.13289737701416 50.07763671875
v -3.3549559116363525 -8.13289737701416 50.07763671875
v 4.659628868103027 -4.734601974487305 46.10343551635742
v 6.349520683288574 1.7618868350982666 46.13896942138672
v 4.659628868103027 -4.734601974487305 46.10343551635742
v 4.991642951965332 -6.1448493003845215 49.541255950927734
v 4.991642951965332 -6.1448493003845215 49.541255950927734
v 6.349520683288574 1.7618868350982666 46.13896942138672
v 1.6663177013397217 6.638480186462402 46.03588104248047
v 6.349520683288574 1.7618868350982666 46.13896942138672
v 7.3202056884765625 2.310173273086548 49.39089584350586
v 7.3202056884765625 2.310173273086548 49.39089584350586
v 1.0491368770599365 8.341238021850586 49.79795837402344
v 1.6663177013397217 6.638480186462402 46.03588104248047
v -4.203193664550781 6.1975507736206055 62.622528076171875
v -7.042324066162109 5.916100978851318 50.29756164550781
v 1.0491368770599365 8.341238021850586 49.79795837402344
v 1.0491368770599365 8.341238021850586 49.79795837402344
v 3.989946126937866 8.536964416503906 60.861045837402344
v -4.203193664550781 6.1975507736206055 62.622528076171875
v -6.335790634155273 -2.2101891040802 63.09346008300781
v -9.120706558227539 -2.104736566543579 50.4134635925293
v -7.042324066162109 5.916100978851318 50.29756164550781
v -7.042324066162109 5.916100978851318 50.29756164550781
v -4.203193664550781 6.1975507736206055 62.622528076171875
v -6.335790634155273 -2.2101891040802 63.09346008300781
v -0.4267396032810211 -8.45687484741211 61.80144500732422
v -3.3549559116363525 -8.13289737701416 50.07763671875
v -9.120706558227539 -2.104736566543579 50.4134635925293
v -9.120706558227539 -2.104736566543579 50.4134635925293
v -6.335790634155273 -2.2101891040802 63.09346008300781
v -0.4267396032810211 -8.45687484741211 61.80144500732422
v 7.802082061767578 -6.177150726318359 60.06428146362305
v 4.991642951965332 -6.1448493003845215 49.541255950927734
v -3.3549559116363525 -8.13289737701416 50.07763671875
v -3.3549559116363525 -8.13289737701416 50.07763671875
v -0.4267396032810211 -8.45687484741211 61.80144500732422
v 7.802082061767578 -6.177150726318359 60.06428146362305
v 9.977331161499023 2.2945969104766846 59.61437225341797
v 7.3202056884765625 2.310173273086548 49.39089584350586
v 4.991642951965332 -6.1448493003845215 49.541255950927734
v 4.991642951965332 -6.1448493003845215 49.541255950927734
v 7.802082061767578 -6.177150726318359 60.06428146362305
v 9.977331161499023 2.2945969104766846 59.61437225341797
v 3.989946126937866 8.536964416503906 60.861045837402344
v 1.0491368770599365 8.341238021850586 49.79795837402344
v 7.3202056884765625 2.310173273086548 49.39089584350586
v 7.3202056884765625 2.310173273086548 49.39089584350586
v 9.977331161499023 2.2945969104766846 59.61437225341797
v 3.989946126937866 8.536964416503906 60.861045837402344
vt 0.4641384482383728 0.576170027256012
vt 0.4650447368621826 0.5773733854293823
vt 0.4641554355621338 0.577373743057251
vt 0.4632661044597626 0.5773733854293823
vt 0.4641554355621338 0.577373743057251
vt 0.4650447368621826 0.5773733854293823
vt 0.4641554355621338 0.577373743057251
vt 0.4632661044597626 0.5773733854293823
vt 0.4641554355621338 0.577373743057251
vt 0.4650447368621826 0.5773733854293823
vt 0.4641554355621338 0.577373743057251
vt 0.4632661044597626 0.5773733854293823
vt 0.4641554355621338 0.577373743057251
vt 0.4654881954193115 0.5784338712692261
vt 0.46415528655052185 0.5784320831298828
vt 0.4628223776817322 0.5784338712692261
vt 0.46415528655052185 0.5784320831298828
vt 0.4654881954193115 0.5784338712692261
vt 0.46415528655052185 0.5784320831298828
vt 0.4628223776817322 0.5784338712692261
vt 0.46415528655052185 0.5784320831298828
vt 0.4654881954193115 0.5784338712692261
vt 0.46415528655052185 0.5784320831298828
vt 0.4628223776817322 0.5784338712692261
vt 0.46415528655052185 0.5784320831298828
vt 0.46415528655052185 0.5791449546813965
vt 0.4626258313655853 0.5791459679603577
vt 0.46415528655052185 0.5791449546813965
vt 0.4656847417354584 0.5791459679603577
vt 0.46415528655052185 0.5791449546813965
vt 0.4626258313655853 0.5791459679603577
vt 0.464077889919281 0.5762782692909241
vt 0.4642091393470764 0.5762782692909241
vt 0.464077889919281 0.5762782692909241
vt 0.4642091393470764 0.5762782692909241
vt 0.464077889919281 0.5762782692909241
vt 0.46420717239379883 0.5762782692909241
vt 0.464079886674881 0.5762739777565002
vt 0.46420571208000183 0.576274037361145
vt 0.464079886674881 0.5762739777565002
vt 0.46420571208000183 0.576274037361145
vt 0.464079886674881 0.5762739777565002
vt 0.46420571208000183 0.576274037361145
vt 0.4642064571380615 0.5762761235237122
vt 0.4640789031982422 0.5762761235237122
vt 0.4642074406147003 0.5762761235237122
vt 0.4640789031982422 0.5762761235237122
vt 0.4642074406147003 0.5762761235237122
vt 0.4640789031982422 0.5762761235237122
vt 0.4656847417354584 0.5791459679603577
vt 0.4641384482383728 0.5763927698135376
vt 0.4650447368621826 0.5773733854293823
vt 0.4641554355621338 0.577373743057251
vt 0.4632661044597626 0.5773733854293823
vt 0.4641554355621338 0.577373743057251
vt 0.4650447368621826 0.5773733854293823
vt 0.4641554355621338 0.577373743057251
vt 0.4632661044597626 0.5773733854293823
vt 0.4641554355621338 0.577373743057251
vt 0.4650447368621826 0.5773733854293823
vt 0.4641554355621338 0.577373743057251
vt 0.4632661044597626 0.5773733854293823
vt 0.4641554355621338 0.577373743057251
vt 0.4654881954193115 0.5784338712692261
vt 0.46415528655052185 0.5784320831298828
vt 0.4628223776817322 0.5784338712692261
vt 0.46415528655052185 0.5784320831298828
vt 0.4654881954193115 0.5784338712692261
vt 0.46415528655052185 0.5784320831298828
vt 0.4628223776817322 0.5784338712692261
vt 0.46415528655052185 0.5784320831298828
vt 0.4654881954193115 0.5784338712692261
vt 0.46415528655052185 0.5784320831298828
vt 0.4628223776817322 0.5784338712692261
vt 0.46415528655052185 0.5784320831298828
vt 0.46415528655052185 0.5791449546813965
vt 0.46415528655052185 0.5791449546813965
vt 0.46415528655052185 0.5791449546813965
vt 0.4626258313655853 0.5791459679603577
vt 0.4656847417354584 0.5791459679603577
vt 0.464077889919281 0.5762782692909241
vt 0.46420717239379883 0.5762782692909241
vt 0.4642064571380615 0.5762761235237122
vt 0.464077889919281 0.5762782692909241
vt 0.4642091393470764 0.5762782692909241
vt 0.464077889919281 0.5762782692909241
vt 0.4640789031982422 0.5762761235237122
vt 0.4640789031982422 0.5762761235237122
vt 0.4642091393470764 0.5762782692909241
vt 0.464077889919281 0.5762782692909241
vt 0.4642091393470764 0.5762782692909241
vt 0.4642074406147003 0.5762761235237122
vt 0.4642074406147003 0.5762761235237122
vt 0.464077889919281 0.5762782692909241
vt 0.4642091393470764 0.5762782692909241
vt 0.464077889919281 0.5762782692909241
vt 0.4640789031982422 0.5762761235237122
vt 0.4640789031982422 0.5762761235237122
vt 0.4642091393470764 0.5762782692909241
vt 0.464077889919281 0.5762782692909241
vt 0.4642091393470764 0.5762782692909241
vt 0.4642074406147003 0.5762761235237122
vt 0.4642074406147003 0.5762761235237122
vt 0.464077889919281 0.5762782692909241
vt 0.46420717239379883 0.5762782692909241
vt 0.464077889919281 0.5762782692909241
vt 0.4640789031982422 0.5762761235237122
vt 0.4640789031982422 0.5762761235237122
vt 0.4642064571380615 0.5762761235237122
vt 0.46420717239379883 0.5762782692909241
vt 0.464079886674881 0.5762739777565002
vt 0.4640789031982422 0.5762761235237122
vt 0.4642064571380615 0.5762761235237122
vt 0.4642064571380615 0.5762761235237122
vt 0.46420571208000183 0.576274037361145
vt 0.464079886674881 0.5762739777565002
vt 0.46420571208000183 0.576274037361145
vt 0.4642074406147003 0.5762761235237122
vt 0.4640789031982422 0.5762761235237122
vt 0.4640789031982422 0.5762761235237122
vt 0.464079886674881 0.5762739777565002
vt 0.46420571208000183 0.576274037361145
vt 0.464079886674881 0.5762739777565002
vt 0.4640789031982422 0.5762761235237122
vt 0.4642074406147003 0.5762761235237122
vt 0.4642074406147003 0.5762761235237122
vt 0.46420571208000183 0.576274037361145
vt 0.464079886674881 0.5762739777565002
vt 0.46420571208000183 0.576274037361145
vt 0.4642074406147003 0.5762761235237122
vt 0.4640789031982422 0.5762761235237122
vt 0.4640789031982422 0.5762761235237122
vt 0.464079886674881 0.5762739777565002
vt 0.46420571208000183 0.576274037361145
vt 0.464079886674881 0.5762739777565002
vt 0.4640789031982422 0.5762761235237122
vt 0.4642074406147003 0.5762761235237122
vt 0.4642074406147003 0.5762761235237122
vt 0.46420571208000183 0.576274037361145
vt 0.464079886674881 0.5762739777565002
vt 0.46420571208000183 0.576274037361145
vt 0.4642064571380615 0.5762761235237122
vt 0.4640789031982422 0.5762761235237122
vt 0.4640789031982422 0.5762761235237122
vt 0.464079886674881 0.5762739777565002
vt 0.46420571208000183 0.576274037361145
vn -0.21385927498340607 1.2877227391072665e-06 -0.9768645763397217
vn 0.041890814900398254 -0.5986797213554382 -0.7998923659324646
vn 0.29593873023986816 -0.4629131555557251 -0.8355427384376526
vn 0.5386783480644226 -0.2626761794090271 -0.8005166053771973
vn 0.5481332540512085 0.023283833637833595 -0.8360669016838074
vn 0.4964296221733093 0.3349091410636902 -0.8008704781532288
vn 0.25605666637420654 0.48529887199401855 -0.8360143303871155
vn -0.041827522218227386 0.5978350639343262 -0.8005271553993225
vn -0.292237788438797 0.4652917981147766 -0.8355241417884827
vn -0.5392976403236389 0.2630248963832855 -0.7999849915504456
vn -0.5496306419372559 -0.02196860872209072 -0.8351190090179443
vn -0.49774616956710815 -0.3357507288455963 -0.7997000813484192
vn -0.25403115153312683 -0.48794957995414734 -0.835088849067688
vn 0.00940440222620964 -0.9032054543495178 -0.4291054606437683
vn 0.45974859595298767 -0.7775084376335144 -0.42908257246017456
vn 0.7869127988815308 -0.44346073269844055 -0.42908167839050293
vn 0.9032230973243713 0.009408165700733662 -0.4290682077407837
vn 0.7774991989135742 0.45976564288139343 -0.4290810525417328
vn 0.4434512257575989 0.7869181632995605 -0.42908135056495667
vn -0.009427353739738464 0.9032057523727417 -0.4291042983531952
vn -0.45976099371910095 0.7774868607521057 -0.4291086792945862
vn -0.7869011759757996 0.4434361159801483 -0.42912817001342773
vn -0.9031970500946045 -0.009413017891347408 -0.4291229248046875
vn -0.7774832844734192 -0.45974820852279663 -0.42912858724594116
vn -0.44345924258232117 -0.7868980169296265 -0.42910999059677124
vn 0.5750615000724792 0.8181101679801941 -3.905363854528332e-08
vn 0.08896228671073914 0.996035099029541 -8.331442558073832e-08
vn -0.42097344994544983 0.9070730805397034 -7.02965579080228e-08
vn -0.8181102871894836 0.5750613808631897 -1.2236806412602164e-07
vn -0.9960349798202515 0.08896259218454361 -8.331442558073832e-08
vn -0.9070729613304138 -0.4209734797477722 2.6035762434872822e-09
vn 0.21886932849884033 -0.1612938642501831 -0.9623308777809143
vn 0.2514781653881073 0.1045006662607193 -0.9622049331665039
vn 0.038851335644721985 0.2700532078742981 -0.96206134557724
vn -0.21543389558792114 0.16761629283428192 -0.9620254635810852
vn -0.2508353292942047 -0.10685007274150848 -0.962114691734314
vn -0.029296305030584335 -0.2704797089099884 -0.9622799158096313
vn 0.06979557871818542 -0.267605185508728 -0.9609975218772888
vn 0.16455847024917603 0.09745639562606812 -0.9815410375595093
vn -0.09669851511716843 0.3687935173511505 -0.9244678020477295
vn -0.46490469574928284 0.27472442388534546 -0.8416591286659241
vn -0.565672755241394 -0.1010541096329689 -0.818414568901062
vn -0.2925330698490143 -0.3723081052303314 -0.8808014988899231
vn 0.19961996376514435 -0.879977285861969 0.43103575706481934
vn 0.29046955704689026 -0.9053025245666504 0.3099270761013031
vn 0.8884018659591675 -0.22441835701465607 0.40047287940979004
vn 0.6595064401626587 0.6060215830802917 0.4447348415851593
vn -0.18984192609786987 0.9017838835716248 0.3882601261138916
vn -0.9359762072563171 0.2619563341140747 0.23521779477596283
vn 0.9070730209350586 0.42097359895706177 2.863933978858313e-08
vn 0.0 1.5698647715112202e-08 1.0
vn 0.042408984154462814 -0.6028475165367126 0.7967286705970764
vn 0.3381510376930237 -0.5008766055107117 0.7967286109924316
vn 0.5432857275009155 -0.2646963894367218 0.7967286109924316
vn 0.6028475761413574 0.042408913373947144 0.7967286109924316
vn 0.5008768439292908 0.3381507098674774 0.7967286109924316
vn 0.2646964192390442 0.5432856678962708 0.7967286109924316
vn -0.04240879416465759 0.6028475165367126 0.7967285513877869
vn -0.33815082907676697 0.5008767247200012 0.7967286705970764
vn -0.543285608291626 0.2646964490413666 0.7967286705970764
vn -0.6028474569320679 -0.04240880161523819 0.7967286109924316
vn -0.5008770227432251 -0.33815065026283264 0.7967286705970764
vn -0.2646965980529785 -0.543285608291626 0.7967286109924316
vn 0.009414108470082283 -0.903201162815094 0.4291142523288727
vn 0.4597535729408264 -0.7774880528450012 0.4291141629219055
vn 0.7869023084640503 -0.44344761967658997 0.42911413311958313
vn 0.9032013416290283 0.009414161555469036 0.42911389470100403
vn 0.777488648891449 0.45975327491760254 0.4291137158870697
vn 0.44344791769981384 0.7869024276733398 0.4291136562824249
vn -0.009414080530405045 0.9032015800476074 0.4291134178638458
vn -0.45975324511528015 0.7774885892868042 0.4291135370731354
vn -0.7869023084640503 0.44344794750213623 0.42911380529403687
vn -0.9032014012336731 -0.00941391009837389 0.4291140139102936
vn -0.7774884700775146 -0.45975303649902344 0.42911404371261597
vn -0.443448007106781 -0.7869020700454712 0.4291142225265503
vn 0.4209737479686737 -0.9070728421211243 2.0307895454152458e-07
vn 0.9960349798202515 -0.08896231651306152 1.3538594600959186e-07
vn -0.5750616192817688 -0.8181102275848389 7.290014281124968e-08
vn 0.8181104063987732 -0.5750612020492554 1.9006105844709964e-07
vn -0.08896241337060928 -0.9960349798202515 1.405931158160456e-07
vn 0.19961996376514435 -0.879977285861969 0.43103575706481934
vn 0.19961996376514435 -0.879977285861969 0.43103575706481934
vn 0.29046955704689026 -0.9053025245666504 0.3099270761013031
vn 0.29046955704689026 -0.9053025245666504 0.3099270761013031
vn 0.8687583804130554 -0.242605522274971 0.4317426085472107
vn 0.8687583804130554 -0.242605522274971 0.4317426085472107
vn 0.8687583804130554 -0.242605522274971 0.4317426085472107
vn 0.8884018659591675 -0.22441835701465607 0.40047287940979004
vn 0.8884018659591675 -0.22441835701465607 0.40047287940979004
vn 0.6456413269042969 0.6814207434654236 0.3446927070617676
vn 0.6456413269042969 0.6814207434654236 0.3446927070617676
vn 0.6456413269042969 0.6814207434654236 0.3446927070617676
vn 0.6595064401626587 0.6060215830802917 0.4447348415851593
vn 0.6595064401626587 0.6060215830802917 0.4447348415851593
vn -0.28283125162124634 0.9320214986801147 0.22658877074718475
vn -0.28283125162124634 0.9320214986801147 0.22658877074718475
vn -0.28283125162124634 0.9320214986801147 0.22658877074718475
vn -0.18984192609786987 0.9017838835716248 0.3882601261138916
vn -0.18984192609786987 0.9017838835716248 0.3882601261138916
vn -0.9499165415763855 0.24604211747646332 0.1926703006029129
vn -0.9499165415763855 0.24604211747646332 0.1926703006029129
vn -0.9499165415763855 0.24604211747646332 0.1926703006029129
vn -0.9359762072563171 0.2619563341140747 0.23521779477596283
vn -0.9359762072563171 0.2619563341140747 0.23521779477596283
vn -0.6877439022064209 -0.6538001894950867 0.3155214488506317
vn -0.6877439022064209 -0.6538001894950867 0.3155214488506317
vn -0.6877439022064209 -0.6538001894950867 0.3155214488506317
vn -0.6702485680580139 -0.7112264633178711 0.2119525671005249
vn -0.6702485680580139 -0.7112264633178711 0.2119525671005249
vn -0.6702485680580139 -0.7112264633178711 0.2119525671005249
vn 0.2843515872955322 -0.9577267169952393 -0.043631695210933685
vn 0.2843515872955322 -0.9577267169952393 -0.043631695210933685
vn 0.2843515872955322 -0.9577267169952393 -0.043631695210933685
vn 0.2636146545410156 -0.9631690979003906 -0.053034279495477676
vn 0.2636146545410156 -0.9631690979003906 -0.053034279495477676
vn 0.2636146545410156 -0.9631690979003906 -0.053034279495477676
vn 0.9457489252090454 -0.2480964958667755 -0.20977875590324402
vn 0.9457489252090454 -0.2480964958667755 -0.20977875590324402
vn 0.9457489252090454 -0.2480964958667755 -0.20977875590324402
vn 0.9444191455841064 -0.25141289830207825 -0.21181143820285797
vn 0.9444191455841064 -0.25141289830207825 -0.21181143820285797
vn 0.9444191455841064 -0.25141289830207825 -0.21181143820285797
vn 0.7091526389122009 0.6870923042297363 -0.15813545882701874
vn 0.7091526389122009 0.6870923042297363 -0.15813545882701874
vn 0.7091526389122009 0.6870923042297363 -0.15813545882701874
vn 0.7028768658638 0.6956189870834351 -0.14858822524547577
vn 0.7028768658638 0.6956189870834351 -0.14858822524547577
vn 0.7028768658638 0.6956189870834351 -0.14858822524547577
vn -0.22735804319381714 0.9717252850532532 0.06370449811220169
vn -0.22735804319381714 0.9717252850532532 0.06370449811220169
vn -0.22735804319381714 0.9717252850532532 0.06370449811220169
vn -0.24849404394626617 0.9645618796348572 0.08872036635875702
vn -0.24849404394626617 0.9645618796348572 0.08872036635875702
vn -0.24849404394626617 0.9645618796348572 0.08872036635875702
vn -0.9340525269508362 0.2615678310394287 0.24316278100013733
vn -0.9340525269508362 0.2615678310394287 0.24316278100013733
vn -0.9340525269508362 0.2615678310394287 0.24316278100013733
vn -0.9344524145126343 0.25322991609573364 0.2503463625907898
vn -0.9344524145126343 0.25322991609573364 0.2503463625907898
vn -0.9344524145126343 0.25322991609573364 0.2503463625907898
vn -0.6738239526748657 -0.7135800123214722 0.19174160063266754
vn -0.6738239526748657 -0.7135800123214722 0.19174160063266754
vn -0.6738239526748657 -0.7135800123214722 0.19174160063266754
vn -0.6919842958450317 -0.6994240283966064 0.1787840574979782
vn -0.6919842958450317 -0.6994240283966064 0.1787840574979782
vn -0.6919842958450317 -0.6994240283966064 0.1787840574979782
f 75/75/75 78/78/78 80/80/80
f 80/80/80 64/64/64 75/75/75
f 74/74/74 31/31/31 78/78/78
f 78/78/78 75/75/75 74/74/74
f 73/73/73 30/30/30 31/31/31
f 31/31/31 74/74/74 73/73/73
f 72/72/72 29/29/29 30/30/30
f 30/30/30 73/73/73 72/72/72
f 71/71/71 28/28/28 29/29/29
f 29/29/29 72/72/72 71/71/71
f 70/70/70 27/27/27 28/28/28
f 28/28/28 71/71/71 70/70/70
f 69/69/69 26/26/26 27/27/27
f 27/27/27 70/70/70 69/69/69
f 68/68/68 50/50/50 26/26/26
f 26/26/26 69/69/69 68/68/68
f 67/67/67 77/77/77 50/50/50
f 50/50/50 68/68/68 67/67/67
f 66/66/66 79/79/79 77/77/77
f 77/77/77 67/67/67 66/66/66
f 65/65/65 76/76/76 79/79/79
f 79/79/79 66/66/66 65/65/65
f 64/64/64 80/80/80 76/76/76
f 76/76/76 65/65/65 64/64/64
f 63/63/63 75/75/75 64/64/64
f 64/64/64 52/52/52 63/63/63
f 62/62/62 74/74/74 75/75/75
f 75/75/75 63/63/63 62/62/62
f 61/61/61 73/73/73 74/74/74
f 74/74/74 62/62/62 61/61/61
f 60/60/60 72/72/72 73/73/73
f 73/73/73 61/61/61 60/60/60
f 59/59/59 71/71/71 72/72/72
f 72/72/72 60/60/60 59/59/59
f 58/58/58 70/70/70 71/71/71
f 71/71/71 59/59/59 58/58/58
f 57/57/57 69/69/69 70/70/70
f 70/70/70 58/58/58 57/57/57
f 56/56/56 68/68/68 69/69/69
f 69/69/69 57/57/57 56/56/56
f 55/55/55 67/67/67 68/68/68
f 68/68/68 56/56/56 55/55/55
f 54/54/54 66/66/66 67/67/67
f 67/67/67 55/55/55 54/54/54
f 53/53/53 65/65/65 66/66/66
f 66/66/66 54/54/54 53/53/53
f 52/52/52 64/64/64 65/65/65
f 65/65/65 53/53/53 52/52/52
f 51/51/51 63/63/63 52/52/52
f 51/51/51 62/62/62 63/63/63
f 51/51/51 61/61/61 62/62/62
f 51/51/51 60/60/60 61/61/61
f 51/51/51 59/59/59 60/60/60
f 51/51/51 58/58/58 59/59/59
f 51/51/51 57/57/57 58/58/58
f 51/51/51 56/56/56 57/57/57
f 51/51/51 55/55/55 56/56/56
f 51/51/51 54/54/54 55/55/55
f 51/51/51 53/53/53 54/54/54
f 51/51/51 52/52/52 53/53/53
f 144/144/144 145/145/145 146/146/146
f 141/141/141 142/142/142 143/143/143
f 138/138/138 139/139/139 140/140/140
f 135/135/135 136/136/136 137/137/137
f 132/132/132 133/133/133 134/134/134
f 129/129/129 130/130/130 131/131/131
f 126/126/126 127/127/127 128/128/128
f 123/123/123 124/124/124 125/125/125
f 120/120/120 121/121/121 122/122/122
f 117/117/117 118/118/118 119/119/119
f 114/114/114 115/115/115 116/116/116
f 111/111/111 112/112/112 113/113/113
f 108/108/108 109/109/109 110/110/110
f 105/105/105 106/106/106 107/107/107
f 103/103/103 49/49/49 104/104/104
f 100/100/100 101/101/101 102/102/102
f 98/98/98 48/48/48 99/99/99
f 95/95/95 96/96/96 97/97/97
f 93/93/93 47/47/47 94/94/94
f 90/90/90 91/91/91 92/92/92
f 88/88/88 46/46/46 89/89/89
f 85/85/85 86/86/86 87/87/87
f 83/83/83 45/45/45 84/84/84
f 81/81/81 82/82/82 44/44/44
f 37/37/37 2/2/2 13/13/13
f 36/36/36 37/37/37 13/13/13
f 13/13/13 12/12/12 36/36/36
f 36/36/36 12/12/12 11/11/11
f 35/35/35 36/36/36 11/11/11
f 11/11/11 10/10/10 35/35/35
f 35/35/35 10/10/10 9/9/9
f 34/34/34 35/35/35 9/9/9
f 9/9/9 8/8/8 34/34/34
f 34/34/34 8/8/8 7/7/7
f 33/33/33 34/34/34 7/7/7
f 7/7/7 6/6/6 33/33/33
f 33/33/33 6/6/6 5/5/5
f 32/32/32 33/33/33 5/5/5
f 5/5/5 4/4/4 32/32/32
f 32/32/32 4/4/4 3/3/3
f 37/37/37 32/32/32 3/3/3
f 3/3/3 2/2/2 37/37/37
f 25/25/25 14/14/14 80/80/80
f 80/80/80 78/78/78 25/25/25
f 24/24/24 25/25/25 78/78/78
f 78/78/78 31/31/31 24/24/24
f 23/23/23 24/24/24 31/31/31
f 31/31/31 30/30/30 23/23/23
f 22/22/22 23/23/23 30/30/30
f 30/30/30 29/29/29 22/22/22
f 21/21/21 22/22/22 29/29/29
f 29/29/29 28/28/28 21/21/21
f 20/20/20 21/21/21 28/28/28
f 28/28/28 27/27/27 20/20/20
f 19/19/19 20/20/20 27/27/27
f 27/27/27 26/26/26 19/19/19
f 18/18/18 19/19/19 26/26/26
f 26/26/26 50/50/50 18/18/18
f 17/17/17 18/18/18 50/50/50
f 50/50/50 77/77/77 17/17/17
f 16/16/16 17/17/17 77/77/77
f 77/77/77 79/79/79 16/16/16
f 15/15/15 16/16/16 79/79/79
f 79/79/79 76/76/76 15/15/15
f 14/14/14 15/15/15 76/76/76
f 76/76/76 80/80/80 14/14/14
f 13/13/13 2/2/2 14/14/14
f 14/14/14 25/25/25 13/13/13
f 12/12/12 13/13/13 25/25/25
f 25/25/25 24/24/24 12/12/12
f 11/11/11 12/12/12 24/24/24
f 24/24/24 23/23/23 11/11/11
f 10/10/10 11/11/11 23/23/23
f 23/23/23 22/22/22 10/10/10
f 9/9/9 10/10/10 22/22/22
f 22/22/22 21/21/21 9/9/9
f 8/8/8 9/9/9 21/21/21
f 21/21/21 20/20/20 8/8/8
f 7/7/7 8/8/8 20/20/20
f 20/20/20 19/19/19 7/7/7
f 6/6/6 7/7/7 19/19/19
f 19/19/19 18/18/18 6/6/6
f 5/5/5 6/6/6 18/18/18
f 18/18/18 17/17/17 5/5/5
f 4/4/4 5/5/5 17/17/17
f 17/17/17 16/16/16 4/4/4
f 3/3/3 4/4/4 16/16/16
f 16/16/16 15/15/15 3/3/3
f 2/2/2 3/3/3 15/15/15
f 15/15/15 14/14/14 2/2/2
f 1/1/1 43/43/43 42/42/42
f 1/1/1 42/42/42 41/41/41
f 1/1/1 41/41/41 40/40/40
f 1/1/1 40/40/40 39/39/39
f 1/1/1 39/39/39 38/38/38
f 1/1/1 38/38/38 43/43/43
