# Recovered local-space geometry; original node transforms not applied
o mesh_0
v -1.0468649634276517e-05 0.0 -42.491485595703125
v -3.930047569156159e-06 25.569734573364258 -34.319175720214844
v -12.784873008728027 22.144041061401367 -34.319175720214844
v -22.144041061401367 12.784878730773926 -34.319175720214844
v -25.569740295410156 1.7946978914551437e-05 -34.319175720214844
v -22.144060134887695 -12.784841537475586 -34.319175720214844
v -12.784890174865723 -22.144031524658203 -34.319175720214844
v -2.8269672839087434e-05 -25.569734573364258 -34.319175720214844
v 12.784835815429688 -22.14405059814453 -34.319175720214844
v 22.144018173217773 -12.784881591796875 -34.319175720214844
v 25.569719314575195 -2.0860192307736725e-05 -34.319175720214844
v 22.144041061401367 12.78484058380127 -34.319175720214844
v 12.784881591796875 22.14402198791504 -34.319175720214844
v -1.4377264960785396e-06 37.849143981933594 -19.69011878967285
v -18.924577713012695 32.77832794189453 -19.69011878967285
v -32.77832794189453 18.92459487915039 -19.69011878967285
v -37.849151611328125 1.856766721175518e-05 -19.69011878967285
v -32.778343200683594 -18.924549102783203 -19.69011878967285
v -18.924604415893555 -32.77832794189453 -19.69011878967285
v -3.6665711377281696e-05 -37.849143981933594 -19.69011878967285
v 18.924535751342773 -32.778343200683594 -19.69011878967285
v 32.77830123901367 -18.924602508544922 -19.69011878967285
v 37.84913635253906 -3.3826454455265775e-05 -19.69011878967285
v 32.77832794189453 18.924541473388672 -19.69011878967285
v 18.924606323242188 32.77830505371094 -19.69011878967285
v -20.760353088378906 35.957977294921875 9.5367431640625e-06
v -41.52068328857422 1.8888644262915477e-05 5.7220458984375e-06
v -35.95797348022461 -20.76031494140625 3.814697265625e-06
v -20.760353088378906 -35.95793914794922 1.9073486328125e-06
v -2.0866644263151102e-05 -41.520652770996094 1.9073486328125e-06
v 20.76033592224121 -35.95793914794922 1.9073486328125e-06
v 35.95795440673828 -20.760316848754883 3.814697265625e-06
v 41.520668029785156 1.7073718481697142e-05 5.7220458984375e-06
v 35.95795440673828 20.760351181030273 7.62939453125e-06
v 20.760337829589844 35.957969665527344 9.5367431640625e-06
v -2.2418025764636695e-06 -33.75160598754883 0.0
v -16.875823974609375 -29.229740142822266 3.814697265625e-06
v -29.229785919189453 -16.875795364379883 7.62939453125e-06
v -33.751644134521484 2.3720815079286695e-05 7.62939453125e-06
v -35.95797348022461 20.760353088378906 7.62939453125e-06
v -29.22979164123535 16.875835418701172 7.62939453125e-06
v -16.875843048095703 29.229808807373047 1.1444091796875e-05
v -1.9051718481932767e-05 41.52069091796875 9.5367431640625e-06
v -3.1550276617053896e-05 33.75166702270508 1.52587890625e-05
v 16.87578582763672 29.229822158813477 1.1444091796875e-05
v 29.22975730895996 16.875883102416992 7.62939453125e-06
v 33.75162887573242 7.00843520462513e-05 7.62939453125e-06
v 29.229782104492188 -16.875749588012695 7.62939453125e-06
v 16.8758487701416 -29.229721069335938 3.814697265625e-06
v -3.5516986827133223e-06 -25.982563018798828 -11.406490325927734
v -8.56130282045342e-06 4.479046037886292e-05 -7.9386749267578125
v -12.99130630493164 -22.501550674438477 -11.406490325927734
v -22.50160026550293 -12.991271018981934 -11.406488418579102
v -25.982606887817383 3.0275321478256956e-05 -11.406486511230469
v -22.501605987548828 12.991324424743652 -11.406484603881836
v -12.991320610046387 22.501625061035156 -11.406482696533203
v -2.611387571960222e-05 25.982637405395508 -11.406482696533203
v 12.99127197265625 22.501636505126953 -11.406482696533203
v 22.501575469970703 12.991360664367676 -11.406484603881836
v 25.98259162902832 6.596677849302068e-05 -11.406486511230469
v 22.50159454345703 -12.99123477935791 -11.406488418579102
v 12.99131965637207 -22.501535415649414 -11.406490325927734
v -2.0866644263151102e-05 -41.520652770996094 1.9073486328125e-06
v -20.760353088378906 -35.95793914794922 1.9073486328125e-06
v -35.95797348022461 -20.76031494140625 3.814697265625e-06
v -41.52068328857422 1.8888644262915477e-05 5.7220458984375e-06
v -35.95797348022461 20.760353088378906 7.62939453125e-06
v -20.760353088378906 35.957977294921875 9.5367431640625e-06
v -1.9051718481932767e-05 41.52069091796875 9.5367431640625e-06
v 20.760337829589844 35.957969665527344 9.5367431640625e-06
v 20.760337829589844 35.957969665527344 9.5367431640625e-06
v 16.87578582763672 29.229822158813477 1.1444091796875e-05
v 35.95795440673828 20.760351181030273 7.62939453125e-06
v 41.520668029785156 1.7073718481697142e-05 5.7220458984375e-06
v 35.95795440673828 -20.760316848754883 3.814697265625e-06
v 35.95795440673828 -20.760316848754883 3.814697265625e-06
v 29.229782104492188 -16.875749588012695 7.62939453125e-06
v 20.76033592224121 -35.95793914794922 1.9073486328125e-06
v -12.99130630493164 -22.501550674438477 -11.406490325927734
v -8.56130282045342e-06 4.479046037886292e-05 -7.9386749267578125
v -22.50160026550293 -12.991271018981934 -11.406488418579102
v -8.56130282045342e-06 4.479046037886292e-05 -7.9386749267578125
v -25.982606887817383 3.0275321478256956e-05 -11.406486511230469
v -8.56130282045342e-06 4.479046037886292e-05 -7.9386749267578125
v -22.501605987548828 12.991324424743652 -11.406484603881836
v -8.56130282045342e-06 4.479046037886292e-05 -7.9386749267578125
v -12.991320610046387 22.501625061035156 -11.406482696533203
v -8.56130282045342e-06 4.479046037886292e-05 -7.9386749267578125
v -2.611387571960222e-05 25.982637405395508 -11.406482696533203
v -8.56130282045342e-06 4.479046037886292e-05 -7.9386749267578125
v 12.99127197265625 22.501636505126953 -11.406482696533203
v -8.56130282045342e-06 4.479046037886292e-05 -7.9386749267578125
v 22.501575469970703 12.991360664367676 -11.406484603881836
v -8.56130282045342e-06 4.479046037886292e-05 -7.9386749267578125
v 25.98259162902832 6.596677849302068e-05 -11.406486511230469
v -8.56130282045342e-06 4.479046037886292e-05 -7.9386749267578125
v 22.50159454345703 -12.99123477935791 -11.406488418579102
v -8.56130282045342e-06 4.479046037886292e-05 -7.9386749267578125
v 12.99131965637207 -22.501535415649414 -11.406490325927734
v -8.56130282045342e-06 4.479046037886292e-05 -7.9386749267578125
v -3.5516986827133223e-06 -25.982563018798828 -11.406490325927734
v -3.5516986827133223e-06 -25.982563018798828 -11.406490325927734
v -12.99130630493164 -22.501550674438477 -11.406490325927734
v -16.875823974609375 -29.229740142822266 3.814697265625e-06
v -2.2418025764636695e-06 -33.75160598754883 0.0
v -12.99130630493164 -22.501550674438477 -11.406490325927734
v -22.50160026550293 -12.991271018981934 -11.406488418579102
v -29.229785919189453 -16.875795364379883 7.62939453125e-06
v -16.875823974609375 -29.229740142822266 3.814697265625e-06
v -22.50160026550293 -12.991271018981934 -11.406488418579102
v -25.982606887817383 3.0275321478256956e-05 -11.406486511230469
v -33.751644134521484 2.3720815079286695e-05 7.62939453125e-06
v -29.229785919189453 -16.875795364379883 7.62939453125e-06
v -25.982606887817383 3.0275321478256956e-05 -11.406486511230469
v -22.501605987548828 12.991324424743652 -11.406484603881836
v -29.22979164123535 16.875835418701172 7.62939453125e-06
v -33.751644134521484 2.3720815079286695e-05 7.62939453125e-06
v -22.501605987548828 12.991324424743652 -11.406484603881836
v -12.991320610046387 22.501625061035156 -11.406482696533203
v -16.875843048095703 29.229808807373047 1.1444091796875e-05
v -29.22979164123535 16.875835418701172 7.62939453125e-06
v -12.991320610046387 22.501625061035156 -11.406482696533203
v -2.611387571960222e-05 25.982637405395508 -11.406482696533203
v -3.1550276617053896e-05 33.75166702270508 1.52587890625e-05
v -16.875843048095703 29.229808807373047 1.1444091796875e-05
v -2.611387571960222e-05 25.982637405395508 -11.406482696533203
v 12.99127197265625 22.501636505126953 -11.406482696533203
v 16.87578582763672 29.229822158813477 1.1444091796875e-05
v -3.1550276617053896e-05 33.75166702270508 1.52587890625e-05
v 12.99127197265625 22.501636505126953 -11.406482696533203
v 22.501575469970703 12.991360664367676 -11.406484603881836
v 29.22975730895996 16.875883102416992 7.62939453125e-06
v 16.87578582763672 29.229822158813477 1.1444091796875e-05
v 22.501575469970703 12.991360664367676 -11.406484603881836
v 25.98259162902832 6.596677849302068e-05 -11.406486511230469
v 33.75162887573242 7.00843520462513e-05 7.62939453125e-06
v 29.22975730895996 16.875883102416992 7.62939453125e-06
v 25.98259162902832 6.596677849302068e-05 -11.406486511230469
v 22.50159454345703 -12.99123477935791 -11.406488418579102
v 29.229782104492188 -16.875749588012695 7.62939453125e-06
v 33.75162887573242 7.00843520462513e-05 7.62939453125e-06
v 22.50159454345703 -12.99123477935791 -11.406488418579102
v 12.99131965637207 -22.501535415649414 -11.406490325927734
v 16.8758487701416 -29.229721069335938 3.814697265625e-06
v 29.229782104492188 -16.875749588012695 7.62939453125e-06
v 12.99131965637207 -22.501535415649414 -11.406490325927734
v -3.5516986827133223e-06 -25.982563018798828 -11.406490325927734
v -2.2418025764636695e-06 -33.75160598754883 0.0
v 16.8758487701416 -29.229721069335938 3.814697265625e-06
vt 0.5629555583000183 0.5156188607215881
vt 0.5984122157096863 0.553981602191925
vt 0.5636200308799744 0.5539965033531189
vt 0.5288280248641968 0.553981602191925
vt 0.5636200308799744 0.5539965033531189
vt 0.5984122157096863 0.553981602191925
vt 0.5636200308799744 0.5539965033531189
vt 0.5288280248641968 0.553981602191925
vt 0.5636200308799744 0.5539965033531189
vt 0.5984122157096863 0.553981602191925
vt 0.5636200308799744 0.5539965033531189
vt 0.5288280248641968 0.553981602191925
vt 0.5636200308799744 0.5539965033531189
vt 0.6157622933387756 0.5954723358154297
vt 0.5636149644851685 0.5954011678695679
vt 0.511467695236206 0.5954723358154297
vt 0.5636149644851685 0.5954011678695679
vt 0.6157622933387756 0.5954723358154297
vt 0.5636149644851685 0.5954011678695679
vt 0.511467695236206 0.5954723358154297
vt 0.5636149644851685 0.5954011678695679
vt 0.6157622933387756 0.5954723358154297
vt 0.5636149644851685 0.5954011678695679
vt 0.511467695236206 0.5954723358154297
vt 0.5636149644851685 0.5954011678695679
vt 0.5636149644851685 0.6232905387878418
vt 0.5636149644851685 0.6232905387878418
vt 0.623451828956604 0.6233315467834473
vt 0.5636149644851685 0.6232905387878418
vt 0.5037781000137329 0.6233315467834473
vt 0.5636149644851685 0.6232905387878418
vt 0.623451828956604 0.6233315467834473
vt 0.5636149644851685 0.6232905387878418
vt 0.5037781000137329 0.6233315467834473
vt 0.5636149644851685 0.6232905387878418
vt 0.5785597562789917 0.7161095142364502
vt 0.6091156601905823 0.7091280221939087
vt 0.5785597562789917 0.7161095142364502
vt 0.5485318899154663 0.7159654498100281
vt 0.5037781000137329 0.6233315467834473
vt 0.5196249485015869 0.7091863751411438
vt 0.5485318899154663 0.7159654498100281
vt 0.623451828956604 0.6233315467834473
vt 0.5785597562789917 0.7161095142364502
vt 0.6091156601905823 0.7091280221939087
vt 0.5485318899154663 0.7159654498100281
vt 0.5785597562789917 0.7161095142364502
vt 0.6091156601905823 0.7091280221939087
vt 0.5485318899154663 0.7159654498100281
vt 0.573035717010498 0.6858289837837219
vt 0.5619876980781555 0.6252679228782654
vt 0.5934063196182251 0.681174635887146
vt 0.573035717010498 0.6858289837837219
vt 0.5530171990394592 0.6857329607009888
vt 0.5337458848953247 0.6812135577201843
vt 0.5530171990394592 0.6857329607009888
vt 0.573035717010498 0.6858289837837219
vt 0.5934063196182251 0.681174635887146
vt 0.5530171990394592 0.6857329607009888
vt 0.573035717010498 0.6858289837837219
vt 0.5934063196182251 0.681174635887146
vt 0.5530171990394592 0.6857329607009888
vt 0.5840837955474854 0.7463900446891785
vt 0.6248250007629395 0.7370813488960266
vt 0.5840837955474854 0.7463900446891785
vt 0.5440466403961182 0.7461979389190674
vt 0.5055040121078491 0.737159252166748
vt 0.5440466403961182 0.7461979389190674
vt 0.5840837955474854 0.7463900446891785
vt 0.6248250007629395 0.7370813488960266
vt 0.5055040121078491 0.737159252166748
vt 0.5196249485015869 0.7091863751411438
vt 0.5440466403961182 0.7461979389190674
vt 0.5840837955474854 0.7463900446891785
vt 0.6248250007629395 0.7370813488960266
vt 0.5055040121078491 0.737159252166748
vt 0.5196249485015869 0.7091863751411438
vt 0.5440466403961182 0.7461979389190674
vt 0.5934063196182251 0.681174635887146
vt 0.5619876980781555 0.6252679228782654
vt 0.573035717010498 0.6858289837837219
vt 0.5619876980781555 0.6252679228782654
vt 0.5530171990394592 0.6857329607009888
vt 0.5619876980781555 0.6252679228782654
vt 0.5337458848953247 0.6812135577201843
vt 0.5619876980781555 0.6252679228782654
vt 0.5530171990394592 0.6857329607009888
vt 0.5619876980781555 0.6252679228782654
vt 0.573035717010498 0.6858289837837219
vt 0.5619876980781555 0.6252679228782654
vt 0.5337458848953247 0.6812135577201843
vt 0.5619876980781555 0.6252679228782654
vt 0.5530171990394592 0.6857329607009888
vt 0.5619876980781555 0.6252679228782654
vt 0.573035717010498 0.6858289837837219
vt 0.5619876980781555 0.6252679228782654
vt 0.5337458848953247 0.6812135577201843
vt 0.5619876980781555 0.6252679228782654
vt 0.5530171990394592 0.6857329607009888
vt 0.5619876980781555 0.6252679228782654
vt 0.573035717010498 0.6858289837837219
vt 0.573035717010498 0.6858289837837219
vt 0.5934063196182251 0.681174635887146
vt 0.6091156601905823 0.7091280221939087
vt 0.5785597562789917 0.7161095142364502
vt 0.5934063196182251 0.681174635887146
vt 0.573035717010498 0.6858289837837219
vt 0.5785597562789917 0.7161095142364502
vt 0.6091156601905823 0.7091280221939087
vt 0.573035717010498 0.6858289837837219
vt 0.5530171990394592 0.6857329607009888
vt 0.5485318899154663 0.7159654498100281
vt 0.5785597562789917 0.7161095142364502
vt 0.5530171990394592 0.6857329607009888
vt 0.5337458848953247 0.6812135577201843
vt 0.5196249485015869 0.7091863751411438
vt 0.5485318899154663 0.7159654498100281
vt 0.5337458848953247 0.6812135577201843
vt 0.5530171990394592 0.6857329607009888
vt 0.5485318899154663 0.7159654498100281
vt 0.5196249485015869 0.7091863751411438
vt 0.5530171990394592 0.6857329607009888
vt 0.573035717010498 0.6858289837837219
vt 0.5785597562789917 0.7161095142364502
vt 0.5485318899154663 0.7159654498100281
vt 0.573035717010498 0.6858289837837219
vt 0.5934063196182251 0.681174635887146
vt 0.6091156601905823 0.7091280221939087
vt 0.5785597562789917 0.7161095142364502
vt 0.5337458848953247 0.6812135577201843
vt 0.5530171990394592 0.6857329607009888
vt 0.5485318899154663 0.7159654498100281
vt 0.5196249485015869 0.7091863751411438
vt 0.5530171990394592 0.6857329607009888
vt 0.573035717010498 0.6858289837837219
vt 0.5785597562789917 0.7161095142364502
vt 0.5485318899154663 0.7159654498100281
vt 0.573035717010498 0.6858289837837219
vt 0.5934063196182251 0.681174635887146
vt 0.6091156601905823 0.7091280221939087
vt 0.5785597562789917 0.7161095142364502
vt 0.5337458848953247 0.6812135577201843
vt 0.5530171990394592 0.6857329607009888
vt 0.5485318899154663 0.7159654498100281
vt 0.5196249485015869 0.7091863751411438
vt 0.5530171990394592 0.6857329607009888
vt 0.573035717010498 0.6858289837837219
vt 0.5785597562789917 0.7161095142364502
vt 0.5485318899154663 0.7159654498100281
vn -7.84784770502256e-09 -1.961961793028877e-08 -1.0
vn -0.04232937842607498 0.6017049551010132 -0.7975959777832031
vn -0.3375108242034912 0.49992692470550537 -0.7975960969924927
vn -0.5422564744949341 0.26419398188591003 -0.7975960969924927
vn -0.601705014705658 -0.04232928529381752 -0.7975959777832031
vn -0.49992722272872925 -0.3375104069709778 -0.7975960969924927
vn -0.2641941010951996 -0.5422562956809998 -0.797596275806427
vn 0.04232918843626976 -0.601705014705658 -0.7975960969924927
vn 0.3375105857849121 -0.4999270737171173 -0.7975960969924927
vn 0.5422562956809998 -0.26419416069984436 -0.7975961565971375
vn 0.601705014705658 0.04232918843626976 -0.7975959777832031
vn 0.4999273121356964 0.3375104069709778 -0.7975961565971375
vn 0.2641943395137787 0.5422563552856445 -0.7975961565971375
vn -0.0095031363889575 0.9034201502799988 -0.4286513030529022
vn -0.45994001626968384 0.7776331901550293 -0.4286511540412903
vn -0.787136435508728 0.44347989559173584 -0.4286511540412903
vn -0.9034202098846436 -0.009503217414021492 -0.4286509156227112
vn -0.7776336073875427 -0.4599398076534271 -0.4286506474018097
vn -0.4434802830219269 -0.7871364951133728 -0.4286506175994873
vn 0.00950313825160265 -0.9034204483032227 -0.42865046858787537
vn 0.4599398672580719 -0.7776336073875427 -0.42865052819252014
vn 0.7871363759040833 -0.44348034262657166 -0.428650826215744
vn 0.9034201502799988 0.009502992033958435 -0.42865103483200073
vn 0.7776334285736084 0.4599395990371704 -0.4286511242389679
vn 0.44348034262657166 0.7871361374855042 -0.42865121364593506
vn -0.4138958156108856 0.8918218016624451 -0.1826043277978897
vn -0.9792882800102234 0.08746647834777832 -0.18260367214679718
vn -0.8918219804763794 -0.4138956069946289 -0.1826033741235733
vn -0.5653928518295288 -0.8043552041053772 -0.18260246515274048
vn -0.0874665156006813 -0.9792885184288025 -0.1826024204492569
vn 0.4138956367969513 -0.8918222188949585 -0.18260270357131958
vn 0.8043552041053772 -0.5653926134109497 -0.18260307610034943
vn 0.9792882800102234 -0.08746670186519623 -0.1826035976409912
vn 0.8918219208717346 0.4138956367969513 -0.18260416388511658
vn 0.5653927326202393 0.8043549060821533 -0.1826040893793106
vn 2.9182811545069853e-07 2.455053902394866e-07 1.0
vn 2.9182811545069853e-07 2.455053902394866e-07 1.0
vn 1.60382587210961e-08 -2.927454829659837e-07 1.0
vn -4.910126563117956e-07 -1.3156633826838515e-07 1.0
vn -0.804355263710022 0.5653924942016602 -0.1826038658618927
vn -2.455064134210261e-07 6.578313360705579e-08 1.0
vn -1.1302251579081712e-07 -1.9576073384541814e-07 1.0
vn 0.08746661245822906 0.9792881608009338 -0.18260431289672852
vn -2.6154430088354275e-07 1.324843594829872e-07 1.0
vn 4.2339434003224596e-07 7.365197802755574e-07 1.0
vn 3.7548275599874614e-07 6.669984742302404e-08 1.0
vn 0.0 0.0 1.0
vn 2.4550593025196576e-07 -6.578288491709827e-08 1.0
vn 2.464219051034888e-07 -5.552041670853214e-07 1.0
vn -0.035425759851932526 -0.13221068680286407 0.9905884861946106
vn -0.035425759851932526 -0.13221068680286407 0.9905884861946106
vn -0.035425759851932526 -0.13221068680286407 0.9905884861946106
vn -0.09678472578525543 -0.09678509086370468 0.9905884861946106
vn -0.13221053779125214 -0.035425830632448196 0.9905884265899658
vn -0.13221058249473572 0.03542550653219223 0.9905884265899658
vn -0.09678496420383453 0.09678460657596588 0.9905884265899658
vn -0.03542572632431984 0.13221041858196259 0.9905884265899658
vn 0.035425618290901184 0.13221046328544617 0.9905884265899658
vn 0.09678475558757782 0.09678482264280319 0.9905884265899658
vn 0.13221055269241333 0.03542565181851387 0.9905884265899658
vn 0.13221058249473572 -0.035425733774900436 0.9905884265899658
vn 0.09678494930267334 -0.09678489714860916 0.9905884861946106
vn 2.9182811545069853e-07 2.455053902394866e-07 1.0
vn -6.578309097449164e-08 -2.455058734085469e-07 1.0
vn -3.135089343686559e-07 -4.390119272557058e-07 1.0
vn -2.4550627131247893e-07 -1.576578085860092e-07 1.0
vn -4.5937333936763025e-08 -7.956579395340668e-08 1.0
vn -2.592894077224628e-07 1.337862443051563e-07 1.0
vn -1.973501468910399e-07 7.365209171439346e-07 1.0
vn 6.578348887842367e-08 2.4550732291572785e-07 1.0
vn 3.7548275599874614e-07 6.669984742302404e-08 1.0
vn 3.7548275599874614e-07 6.669984742302404e-08 1.0
vn 4.593689695298053e-08 -7.956623448990285e-08 1.0
vn 2.4550618604735064e-07 -2.6091486304835598e-08 1.0
vn 4.4507487473310903e-07 -2.111320895892277e-07 1.0
vn 2.464219051034888e-07 -5.552041670853214e-07 1.0
vn 2.464219051034888e-07 -5.552041670853214e-07 1.0
vn 1.0015698848064858e-07 -2.2566005952739943e-07 1.0
vn -0.09678472578525543 -0.09678509086370468 0.9905884861946106
vn -0.09678472578525543 -0.09678509086370468 0.9905884861946106
vn -0.13221053779125214 -0.035425830632448196 0.9905884265899658
vn -0.13221053779125214 -0.035425830632448196 0.9905884265899658
vn -0.13221058249473572 0.03542550653219223 0.9905884265899658
vn -0.13221058249473572 0.03542550653219223 0.9905884265899658
vn -0.09678496420383453 0.09678460657596588 0.9905884265899658
vn -0.09678496420383453 0.09678460657596588 0.9905884265899658
vn -0.03542572632431984 0.13221041858196259 0.9905884265899658
vn -0.03542572632431984 0.13221041858196259 0.9905884265899658
vn 0.035425618290901184 0.13221046328544617 0.9905884265899658
vn 0.035425618290901184 0.13221046328544617 0.9905884265899658
vn 0.09678475558757782 0.09678482264280319 0.9905884265899658
vn 0.09678475558757782 0.09678482264280319 0.9905884265899658
vn 0.13221055269241333 0.03542565181851387 0.9905884265899658
vn 0.13221055269241333 0.03542565181851387 0.9905884265899658
vn 0.13221058249473572 -0.035425733774900436 0.9905884265899658
vn 0.13221058249473572 -0.035425733774900436 0.9905884265899658
vn 0.09678494930267334 -0.09678489714860916 0.9905884861946106
vn 0.09678494930267334 -0.09678489714860916 0.9905884861946106
vn 0.035425856709480286 -0.1322106570005417 0.9905884861946106
vn 0.035425856709480286 -0.1322106570005417 0.9905884861946106
vn 0.035425856709480286 -0.1322106570005417 0.9905884861946106
vn 0.2162216305732727 0.8069493174552917 0.5496189594268799
vn 0.2162216305732727 0.8069493174552917 0.5496189594268799
vn 0.2162216305732727 0.8069493174552917 0.5496189594268799
vn 0.21622169017791748 0.806949257850647 0.5496190190315247
vn 0.5907276272773743 0.5907284617424011 0.5496187806129456
vn 0.5907276272773743 0.5907284617424011 0.5496187806129456
vn 0.5907276272773743 0.5907284617424011 0.5496187806129456
vn 0.590727686882019 0.5907282829284668 0.5496188998222351
vn 0.8069496750831604 0.21622130274772644 0.5496187806129456
vn 0.8069496750831604 0.21622130274772644 0.5496187806129456
vn 0.8069496750831604 0.21622130274772644 0.5496187806129456
vn 0.8069496154785156 0.21622130274772644 0.549618661403656
vn 0.8069496750831604 -0.21622121334075928 0.5496186017990112
vn 0.8069496750831604 -0.21622121334075928 0.5496186017990112
vn 0.8069496750831604 -0.21622121334075928 0.5496186017990112
vn 0.8069497346878052 -0.2162211686372757 0.5496185421943665
vn 0.5907284021377563 -0.590727686882019 0.5496187210083008
vn 0.5907284021377563 -0.590727686882019 0.5496187210083008
vn 0.5907284021377563 -0.590727686882019 0.5496187210083008
vn 0.5907286405563354 -0.590727686882019 0.5496185421943665
vn 0.2162218987941742 -0.8069498538970947 0.549618124961853
vn 0.2162218987941742 -0.8069498538970947 0.549618124961853
vn 0.2162218987941742 -0.8069498538970947 0.549618124961853
vn 0.21622127294540405 -0.8069496154785156 0.549618661403656
vn -0.21622110903263092 -0.8069497346878052 0.5496186017990112
vn -0.21622110903263092 -0.8069497346878052 0.5496186017990112
vn -0.21622110903263092 -0.8069497346878052 0.5496186017990112
vn -0.21622072160243988 -0.8069500923156738 0.5496181845664978
vn -0.5907272696495056 -0.5907290577888489 0.5496186017990112
vn -0.5907272696495056 -0.5907290577888489 0.5496186017990112
vn -0.5907272696495056 -0.5907290577888489 0.5496186017990112
vn -0.5907272100448608 -0.5907289385795593 0.549618661403656
vn -0.8069494366645813 -0.2162221074104309 0.5496186017990112
vn -0.8069494366645813 -0.2162221074104309 0.5496186017990112
vn -0.8069494366645813 -0.2162221074104309 0.5496186017990112
vn -0.8069494366645813 -0.21622198820114136 0.549618661403656
vn -0.80694979429245 0.21622078120708466 0.5496186017990112
vn -0.80694979429245 0.21622078120708466 0.5496186017990112
vn -0.80694979429245 0.21622078120708466 0.5496186017990112
vn -0.8069497346878052 0.21622078120708466 0.549618661403656
vn -0.5907288789749146 0.5907270908355713 0.5496188998222351
vn -0.5907288789749146 0.5907270908355713 0.5496188998222351
vn -0.5907288789749146 0.5907270908355713 0.5496188998222351
vn -0.5907290577888489 0.5907270312309265 0.5496187210083008
vn -0.21622219681739807 0.806949257850647 0.5496190190315247
vn -0.21622219681739807 0.806949257850647 0.5496190190315247
vn -0.21622219681739807 0.806949257850647 0.5496190190315247
vn -0.21622219681739807 0.8069491982460022 0.5496188998222351
f 148/148/148 149/149/149 146/146/146
f 146/146/146 147/147/147 148/148/148
f 144/144/144 145/145/145 142/142/142
f 142/142/142 143/143/143 144/144/144
f 140/140/140 141/141/141 138/138/138
f 138/138/138 139/139/139 140/140/140
f 136/136/136 137/137/137 134/134/134
f 134/134/134 135/135/135 136/136/136
f 132/132/132 133/133/133 130/130/130
f 130/130/130 131/131/131 132/132/132
f 128/128/128 129/129/129 126/126/126
f 126/126/126 127/127/127 128/128/128
f 124/124/124 125/125/125 122/122/122
f 122/122/122 123/123/123 124/124/124
f 120/120/120 121/121/121 118/118/118
f 118/118/118 119/119/119 120/120/120
f 116/116/116 117/117/117 114/114/114
f 114/114/114 115/115/115 116/116/116
f 112/112/112 113/113/113 110/110/110
f 110/110/110 111/111/111 112/112/112
f 108/108/108 109/109/109 106/106/106
f 106/106/106 107/107/107 108/108/108
f 104/104/104 105/105/105 102/102/102
f 102/102/102 103/103/103 104/104/104
f 99/99/99 100/100/100 101/101/101
f 97/97/97 98/98/98 62/62/62
f 95/95/95 96/96/96 61/61/61
f 93/93/93 94/94/94 60/60/60
f 91/91/91 92/92/92 59/59/59
f 89/89/89 90/90/90 58/58/58
f 87/87/87 88/88/88 57/57/57
f 85/85/85 86/86/86 56/56/56
f 83/83/83 84/84/84 55/55/55
f 81/81/81 82/82/82 54/54/54
f 79/79/79 80/80/80 53/53/53
f 50/50/50 51/51/51 52/52/52
f 36/36/36 63/63/63 78/78/78
f 78/78/78 49/49/49 36/36/36
f 49/49/49 78/78/78 76/76/76
f 76/76/76 77/77/77 49/49/49
f 48/48/48 75/75/75 74/74/74
f 74/74/74 47/47/47 48/48/48
f 47/47/47 74/74/74 73/73/73
f 73/73/73 46/46/46 47/47/47
f 46/46/46 73/73/73 71/71/71
f 71/71/71 72/72/72 46/46/46
f 45/45/45 70/70/70 69/69/69
f 69/69/69 44/44/44 45/45/45
f 44/44/44 69/69/69 68/68/68
f 68/68/68 42/42/42 44/44/44
f 42/42/42 68/68/68 67/67/67
f 67/67/67 41/41/41 42/42/42
f 41/41/41 67/67/67 66/66/66
f 66/66/66 39/39/39 41/41/41
f 39/39/39 66/66/66 65/65/65
f 65/65/65 38/38/38 39/39/39
f 38/38/38 65/65/65 64/64/64
f 64/64/64 37/37/37 38/38/38
f 37/37/37 64/64/64 63/63/63
f 63/63/63 36/36/36 37/37/37
f 25/25/25 14/14/14 43/43/43
f 43/43/43 35/35/35 25/25/25
f 24/24/24 25/25/25 35/35/35
f 35/35/35 34/34/34 24/24/24
f 23/23/23 24/24/24 34/34/34
f 34/34/34 33/33/33 23/23/23
f 22/22/22 23/23/23 33/33/33
f 33/33/33 32/32/32 22/22/22
f 21/21/21 22/22/22 32/32/32
f 32/32/32 31/31/31 21/21/21
f 20/20/20 21/21/21 31/31/31
f 31/31/31 30/30/30 20/20/20
f 19/19/19 20/20/20 30/30/30
f 30/30/30 29/29/29 19/19/19
f 18/18/18 19/19/19 29/29/29
f 29/29/29 28/28/28 18/18/18
f 17/17/17 18/18/18 28/28/28
f 28/28/28 27/27/27 17/17/17
f 16/16/16 17/17/17 27/27/27
f 27/27/27 40/40/40 16/16/16
f 15/15/15 16/16/16 40/40/40
f 40/40/40 26/26/26 15/15/15
f 14/14/14 15/15/15 26/26/26
f 26/26/26 43/43/43 14/14/14
f 13/13/13 2/2/2 14/14/14
f 14/14/14 25/25/25 13/13/13
f 12/12/12 13/13/13 25/25/25
f 25/25/25 24/24/24 12/12/12
f 11/11/11 12/12/12 24/24/24
f 24/24/24 23/23/23 11/11/11
f 10/10/10 11/11/11 23/23/23
f 23/23/23 22/22/22 10/10/10
f 9/9/9 10/10/10 22/22/22
f 22/22/22 21/21/21 9/9/9
f 8/8/8 9/9/9 21/21/21
f 21/21/21 20/20/20 8/8/8
f 7/7/7 8/8/8 20/20/20
f 20/20/20 19/19/19 7/7/7
f 6/6/6 7/7/7 19/19/19
f 19/19/19 18/18/18 6/6/6
f 5/5/5 6/6/6 18/18/18
f 18/18/18 17/17/17 5/5/5
f 4/4/4 5/5/5 17/17/17
f 17/17/17 16/16/16 4/4/4
f 3/3/3 4/4/4 16/16/16
f 16/16/16 15/15/15 3/3/3
f 2/2/2 3/3/3 15/15/15
f 15/15/15 14/14/14 2/2/2
f 1/1/1 2/2/2 13/13/13
f 1/1/1 13/13/13 12/12/12
f 1/1/1 12/12/12 11/11/11
f 1/1/1 11/11/11 10/10/10
f 1/1/1 10/10/10 9/9/9
f 1/1/1 9/9/9 8/8/8
f 1/1/1 8/8/8 7/7/7
f 1/1/1 7/7/7 6/6/6
f 1/1/1 6/6/6 5/5/5
f 1/1/1 5/5/5 4/4/4
f 1/1/1 4/4/4 3/3/3
f 1/1/1 3/3/3 2/2/2
