# Recovered local-space geometry; original node transforms not applied
o mesh_0
v 1.5589299201965332 0.030826475471258163 58.98051452636719
v -8.841603630571626e-06 25.56974220275879 34.31918716430664
v -12.78487777709961 22.144046783447266 34.31918716430664
v -22.144046783447266 12.784884452819824 34.31918716430664
v -25.569744110107422 2.334099553991109e-05 34.31918716430664
v -22.144062042236328 -12.784835815429688 34.31918716430664
v -12.784891128540039 -22.144025802612305 34.31918716430664
v -2.8710473998216912e-05 -25.569726943969727 34.31918716430664
v 12.784834861755371 -22.144041061401367 34.31918716430664
v 22.14401626586914 -12.784872055053711 34.31918716430664
v 25.56971549987793 -1.0995423508575186e-05 34.31918716430664
v 22.14403533935547 12.784850120544434 34.31918716430664
v 12.784876823425293 22.144031524658203 34.31918716430664
v -7.42278280085884e-06 37.849151611328125 19.69013023376465
v -18.924585342407227 32.77833557128906 19.69013023376465
v -32.7783317565918 18.924598693847656 19.69013023376465
v -37.84915542602539 2.288818359375e-05 19.69013023376465
v -32.77834701538086 -18.924545288085938 19.69013023376465
v -18.924604415893555 -32.7783203125 19.69013023376465
v -3.603301229304634e-05 -37.84913635253906 19.69013023376465
v 18.924535751342773 -32.77833557128906 19.69013023376465
v 32.778297424316406 -18.924591064453125 19.69013023376465
v 37.8491325378418 -2.288818359375e-05 19.69013023376465
v 32.778324127197266 18.92455291748047 19.69013023376465
v 18.924598693847656 32.77831268310547 19.69013023376465
v -20.760353088378906 35.957977294921875 9.5367431640625e-06
v -20.760364532470703 -35.95793914794922 -1.9073486328125e-06
v -3.1357063562609255e-05 -41.520652770996094 -1.9073486328125e-06
v 20.76031494140625 -35.95794677734375 -1.9073486328125e-06
v 35.957942962646484 -20.760334014892578 1.9073486328125e-06
v 41.52066421508789 -2.907236194005236e-06 3.814697265625e-06
v 35.95795822143555 20.760334014892578 7.62939453125e-06
v 20.760351181030273 35.95796203613281 9.5367431640625e-06
v -2.108096122741699 1.967682957649231 41.673561096191406
v -2.8170361518859863 -0.678107500076294 41.67355728149414
v -0.8801822066307068 -2.614964246749878 41.67355728149414
v 1.7656099796295166 -1.90602707862854 41.67355728149414
v 2.4745490550994873 0.7397635579109192 41.673561096191406
v 0.5376965999603271 2.676619291305542 41.67355728149414
v -1.250076413154602 2.5860698223114014 58.84942626953125
v -2.128962993621826 -0.9044548273086548 59.01943588256836
v 0.27217838168144226 -3.4597012996673584 58.5549430847168
v 3.5522027015686035 -2.524419069290161 57.92043685913086
v 4.431088924407959 0.9661069512367249 57.75041961669922
v 2.0299439430236816 3.521352529525757 58.21491241455078
v -0.19512107968330383 2.4865455627441406 50.215576171875
v -2.65084171295166 1.8285388946533203 50.21558380126953
v -3.308851480484009 -0.627178966999054 50.215576171875
v -1.5111398696899414 -2.4248926639556885 50.215576171875
v 0.9445793032646179 -1.7668852806091309 50.215576171875
v 1.6025886535644531 0.6888329982757568 50.21558380126953
v -1.4237135474104434e-05 41.52069091796875 9.5367431640625e-06
v -6.0564998420886695e-06 33.75164794921875 1.52587890625e-05
v -16.875829696655273 29.229780197143555 1.1444091796875e-05
v -35.95797348022461 20.760358810424805 7.62939453125e-06
v -29.22979164123535 16.875839233398438 7.62939453125e-06
v -41.520687103271484 2.4703109374968335e-05 3.814697265625e-06
v -33.75164794921875 1.9870938558597118e-05 3.814697265625e-06
v -35.95798110961914 -20.76030921936035 1.9073486328125e-06
v -29.22979736328125 -16.875795364379883 0.0
v -16.8758487701416 -29.229768753051758 -3.814697265625e-06
v -3.53649775206577e-05 -33.751625061035156 -7.62939453125e-06
v 16.87578010559082 -29.229778289794922 -3.814697265625e-06
v 29.229751586914062 -16.875839233398438 0.0
v 33.751625061035156 -2.6492594770388678e-05 3.814697265625e-06
v 29.22977638244629 16.87579345703125 7.62939453125e-06
v 16.875843048095703 29.229761123657227 1.1444091796875e-05
v -7.366395948338322e-06 25.982603073120117 11.406505584716797
v -1.2375998267089017e-05 -2.3974134819582105e-06 7.938686370849609
v -12.991310119628906 22.501590728759766 11.406505584716797
v -22.501605987548828 12.991313934326172 11.406501770019531
v -25.98261260986328 1.159410021500662e-05 11.406497955322266
v -22.501611709594727 -12.991281509399414 11.406494140625
v -12.991324424743652 -22.501585006713867 11.406490325927734
v -2.992857298522722e-05 -25.98259735107422 11.406490325927734
v 12.991268157958984 -22.501596450805664 11.406490325927734
v 22.501569747924805 -12.991317749023438 11.406494140625
v 25.982585906982422 -2.4097356799757108e-05 11.406497955322266
v 22.501588821411133 12.991277694702148 11.406501770019531
v 12.991315841674805 22.501575469970703 11.406505584716797
v -2.108096122741699 1.967682957649231 41.673561096191406
v 0.5376965999603271 2.676619291305542 41.67355728149414
v -2.8170361518859863 -0.678107500076294 41.67355728149414
v -2.65084171295166 1.8285388946533203 50.21558380126953
v -2.108096122741699 1.967682957649231 41.673561096191406
v -0.8801822066307068 -2.614964246749878 41.67355728149414
v -3.308851480484009 -0.627178966999054 50.215576171875
v -2.8170361518859863 -0.678107500076294 41.67355728149414
v 1.7656099796295166 -1.90602707862854 41.67355728149414
v -1.5111398696899414 -2.4248926639556885 50.215576171875
v -0.8801822066307068 -2.614964246749878 41.67355728149414
v 2.4745490550994873 0.7397635579109192 41.673561096191406
v 0.9445793032646179 -1.7668852806091309 50.215576171875
v 1.7656099796295166 -1.90602707862854 41.67355728149414
v 0.5376965999603271 2.676619291305542 41.67355728149414
v -0.19512107968330383 2.4865455627441406 50.215576171875
v 1.6025886535644531 0.6888329982757568 50.21558380126953
v 2.4745490550994873 0.7397635579109192 41.673561096191406
v -1.250076413154602 2.5860698223114014 58.84942626953125
v 2.0299439430236816 3.521352529525757 58.21491241455078
v -0.19512107968330383 2.4865455627441406 50.215576171875
v -0.19512107968330383 2.4865455627441406 50.215576171875
v -2.65084171295166 1.8285388946533203 50.21558380126953
v -1.250076413154602 2.5860698223114014 58.84942626953125
v -2.128962993621826 -0.9044548273086548 59.01943588256836
v -1.250076413154602 2.5860698223114014 58.84942626953125
v -2.65084171295166 1.8285388946533203 50.21558380126953
v -2.65084171295166 1.8285388946533203 50.21558380126953
v -3.308851480484009 -0.627178966999054 50.215576171875
v -2.128962993621826 -0.9044548273086548 59.01943588256836
v 0.27217838168144226 -3.4597012996673584 58.5549430847168
v -2.128962993621826 -0.9044548273086548 59.01943588256836
v -3.308851480484009 -0.627178966999054 50.215576171875
v -3.308851480484009 -0.627178966999054 50.215576171875
v -1.5111398696899414 -2.4248926639556885 50.215576171875
v 0.27217838168144226 -3.4597012996673584 58.5549430847168
v 3.5522027015686035 -2.524419069290161 57.92043685913086
v 0.27217838168144226 -3.4597012996673584 58.5549430847168
v -1.5111398696899414 -2.4248926639556885 50.215576171875
v -1.5111398696899414 -2.4248926639556885 50.215576171875
v 0.9445793032646179 -1.7668852806091309 50.215576171875
v 3.5522027015686035 -2.524419069290161 57.92043685913086
v 4.431088924407959 0.9661069512367249 57.75041961669922
v 3.5522027015686035 -2.524419069290161 57.92043685913086
v 0.9445793032646179 -1.7668852806091309 50.215576171875
v 0.9445793032646179 -1.7668852806091309 50.215576171875
v 1.6025886535644531 0.6888329982757568 50.21558380126953
v 4.431088924407959 0.9661069512367249 57.75041961669922
v 2.0299439430236816 3.521352529525757 58.21491241455078
v 4.431088924407959 0.9661069512367249 57.75041961669922
v 1.6025886535644531 0.6888329982757568 50.21558380126953
v 1.6025886535644531 0.6888329982757568 50.21558380126953
v -0.19512107968330383 2.4865455627441406 50.215576171875
v 2.0299439430236816 3.521352529525757 58.21491241455078
v -1.4237135474104434e-05 41.52069091796875 9.5367431640625e-06
v -20.760353088378906 35.957977294921875 9.5367431640625e-06
v -35.95797348022461 20.760358810424805 7.62939453125e-06
v -41.520687103271484 2.4703109374968335e-05 3.814697265625e-06
v -35.95798110961914 -20.76030921936035 1.9073486328125e-06
v -20.760364532470703 -35.95793914794922 -1.9073486328125e-06
v -3.1357063562609255e-05 -41.520652770996094 -1.9073486328125e-06
v 20.76031494140625 -35.95794677734375 -1.9073486328125e-06
v 20.76031494140625 -35.95794677734375 -1.9073486328125e-06
v 16.87578010559082 -29.229778289794922 -3.814697265625e-06
v 35.957942962646484 -20.760334014892578 1.9073486328125e-06
v 41.52066421508789 -2.907236194005236e-06 3.814697265625e-06
v 35.95795822143555 20.760334014892578 7.62939453125e-06
v 35.95795822143555 20.760334014892578 7.62939453125e-06
v 29.22977638244629 16.87579345703125 7.62939453125e-06
v 20.760351181030273 35.95796203613281 9.5367431640625e-06
v -12.991310119628906 22.501590728759766 11.406505584716797
v -1.2375998267089017e-05 -2.3974134819582105e-06 7.938686370849609
v -22.501605987548828 12.991313934326172 11.406501770019531
v -1.2375998267089017e-05 -2.3974134819582105e-06 7.938686370849609
v -25.98261260986328 1.159410021500662e-05 11.406497955322266
v -1.2375998267089017e-05 -2.3974134819582105e-06 7.938686370849609
v -22.501611709594727 -12.991281509399414 11.406494140625
v -1.2375998267089017e-05 -2.3974134819582105e-06 7.938686370849609
v -12.991324424743652 -22.501585006713867 11.406490325927734
v -1.2375998267089017e-05 -2.3974134819582105e-06 7.938686370849609
v -2.992857298522722e-05 -25.98259735107422 11.406490325927734
v -1.2375998267089017e-05 -2.3974134819582105e-06 7.938686370849609
v 12.991268157958984 -22.501596450805664 11.406490325927734
v -1.2375998267089017e-05 -2.3974134819582105e-06 7.938686370849609
v 22.501569747924805 -12.991317749023438 11.406494140625
v -1.2375998267089017e-05 -2.3974134819582105e-06 7.938686370849609
v 25.982585906982422 -2.4097356799757108e-05 11.406497955322266
v -1.2375998267089017e-05 -2.3974134819582105e-06 7.938686370849609
v 22.501588821411133 12.991277694702148 11.406501770019531
v -1.2375998267089017e-05 -2.3974134819582105e-06 7.938686370849609
v 12.991315841674805 22.501575469970703 11.406505584716797
v -1.2375998267089017e-05 -2.3974134819582105e-06 7.938686370849609
v -7.366395948338322e-06 25.982603073120117 11.406505584716797
v -7.366395948338322e-06 25.982603073120117 11.406505584716797
v -12.991310119628906 22.501590728759766 11.406505584716797
v -16.875829696655273 29.229780197143555 1.1444091796875e-05
v -6.0564998420886695e-06 33.75164794921875 1.52587890625e-05
v -12.991310119628906 22.501590728759766 11.406505584716797
v -22.501605987548828 12.991313934326172 11.406501770019531
v -29.22979164123535 16.875839233398438 7.62939453125e-06
v -16.875829696655273 29.229780197143555 1.1444091796875e-05
v -22.501605987548828 12.991313934326172 11.406501770019531
v -25.98261260986328 1.159410021500662e-05 11.406497955322266
v -33.75164794921875 1.9870938558597118e-05 3.814697265625e-06
v -29.22979164123535 16.875839233398438 7.62939453125e-06
v -25.98261260986328 1.159410021500662e-05 11.406497955322266
v -22.501611709594727 -12.991281509399414 11.406494140625
v -29.22979736328125 -16.875795364379883 0.0
v -33.75164794921875 1.9870938558597118e-05 3.814697265625e-06
v -22.501611709594727 -12.991281509399414 11.406494140625
v -12.991324424743652 -22.501585006713867 11.406490325927734
v -16.8758487701416 -29.229768753051758 -3.814697265625e-06
v -29.22979736328125 -16.875795364379883 0.0
v -12.991324424743652 -22.501585006713867 11.406490325927734
v -2.992857298522722e-05 -25.98259735107422 11.406490325927734
v -3.53649775206577e-05 -33.751625061035156 -7.62939453125e-06
v -16.8758487701416 -29.229768753051758 -3.814697265625e-06
v -2.992857298522722e-05 -25.98259735107422 11.406490325927734
v 12.991268157958984 -22.501596450805664 11.406490325927734
v 16.87578010559082 -29.229778289794922 -3.814697265625e-06
v -3.53649775206577e-05 -33.751625061035156 -7.62939453125e-06
v 12.991268157958984 -22.501596450805664 11.406490325927734
v 22.501569747924805 -12.991317749023438 11.406494140625
v 29.229751586914062 -16.875839233398438 0.0
v 16.87578010559082 -29.229778289794922 -3.814697265625e-06
v 22.501569747924805 -12.991317749023438 11.406494140625
v 25.982585906982422 -2.4097356799757108e-05 11.406497955322266
v 33.751625061035156 -2.6492594770388678e-05 3.814697265625e-06
v 29.229751586914062 -16.875839233398438 0.0
v 25.982585906982422 -2.4097356799757108e-05 11.406497955322266
v 22.501588821411133 12.991277694702148 11.406501770019531
v 29.22977638244629 16.87579345703125 7.62939453125e-06
v 33.751625061035156 -2.6492594770388678e-05 3.814697265625e-06
v 22.501588821411133 12.991277694702148 11.406501770019531
v 12.991315841674805 22.501575469970703 11.406505584716797
v 16.875843048095703 29.229761123657227 1.1444091796875e-05
v 29.22977638244629 16.87579345703125 7.62939453125e-06
v 12.991315841674805 22.501575469970703 11.406505584716797
v -7.366395948338322e-06 25.982603073120117 11.406505584716797
v -6.0564998420886695e-06 33.75164794921875 1.52587890625e-05
v 16.875843048095703 29.229761123657227 1.1444091796875e-05
vt 0.5629555583000183 0.5069050788879395
vt 0.5984122157096863 0.553981602191925
vt 0.5636200308799744 0.5539965033531189
vt 0.5288280248641968 0.553981602191925
vt 0.5636200308799744 0.5539965033531189
vt 0.5984122157096863 0.553981602191925
vt 0.5636200308799744 0.5539965033531189
vt 0.5288280248641968 0.553981602191925
vt 0.5636200308799744 0.5539965033531189
vt 0.5984122157096863 0.553981602191925
vt 0.5636200308799744 0.5539965033531189
vt 0.5288280248641968 0.553981602191925
vt 0.5636200308799744 0.5539965033531189
vt 0.6157622933387756 0.5954723358154297
vt 0.5636149644851685 0.5954011678695679
vt 0.511467695236206 0.5954723358154297
vt 0.5636149644851685 0.5954011678695679
vt 0.6157622933387756 0.5954723358154297
vt 0.5636149644851685 0.5954011678695679
vt 0.511467695236206 0.5954723358154297
vt 0.5636149644851685 0.5954011678695679
vt 0.6157622933387756 0.5954723358154297
vt 0.5636149644851685 0.5954011678695679
vt 0.511467695236206 0.5954723358154297
vt 0.5636149644851685 0.5954011678695679
vt 0.5636149644851685 0.6232905387878418
vt 0.5636149644851685 0.6232905387878418
vt 0.5037781000137329 0.6233315467834473
vt 0.5636149644851685 0.6232905387878418
vt 0.623451828956604 0.6233315467834473
vt 0.5636149644851685 0.6232905387878418
vt 0.5037781000137329 0.6233315467834473
vt 0.5636149644851685 0.6232905387878418
vt 0.5605871081352234 0.5111392140388489
vt 0.5657216906547546 0.5111392140388489
vt 0.5605871677398682 0.5111392140388489
vt 0.5657216906547546 0.5111392140388489
vt 0.5605871677398682 0.5111392140388489
vt 0.5656454563140869 0.5111391544342041
vt 0.5606643557548523 0.5109714865684509
vt 0.5655879378318787 0.5109719634056091
vt 0.5606644153594971 0.5109714865684509
vt 0.5655879378318787 0.5109719634056091
vt 0.5606644153594971 0.5109714865684509
vt 0.5655879378318787 0.5109719634056091
vt 0.5656166672706604 0.511055588722229
vt 0.5606257319450378 0.5110553503036499
vt 0.5656548142433167 0.511055588722229
vt 0.5606257915496826 0.5110553503036499
vt 0.5656548142433167 0.511055588722229
vt 0.5606257915496826 0.5110553503036499
vt 0.623451828956604 0.6233315467834473
vt 0.5785597562789917 0.7161095142364502
vt 0.6091156601905823 0.7091280221939087
vt 0.5037781000137329 0.6233315467834473
vt 0.5785597562789917 0.7161095142364502
vt 0.5636149644851685 0.6232905387878418
vt 0.5485318899154663 0.7159654498100281
vt 0.623451828956604 0.6233315467834473
vt 0.5196249485015869 0.7091863751411438
vt 0.5485318899154663 0.7159654498100281
vt 0.5785597562789917 0.7161095142364502
vt 0.6091156601905823 0.7091280221939087
vt 0.5485318899154663 0.7159654498100281
vt 0.5785597562789917 0.7161095142364502
vt 0.6091156601905823 0.7091280221939087
vt 0.5485318899154663 0.7159654498100281
vt 0.573035717010498 0.6858289837837219
vt 0.5619876980781555 0.6252679228782654
vt 0.5934063196182251 0.681174635887146
vt 0.573035717010498 0.6858289837837219
vt 0.5530171990394592 0.6857329607009888
vt 0.5337458848953247 0.6812135577201843
vt 0.5530171990394592 0.6857329607009888
vt 0.573035717010498 0.6858289837837219
vt 0.5934063196182251 0.681174635887146
vt 0.5530171990394592 0.6857329607009888
vt 0.573035717010498 0.6858289837837219
vt 0.5934063196182251 0.681174635887146
vt 0.5530171990394592 0.6857329607009888
vt 0.5605871081352234 0.5111392140388489
vt 0.5656454563140869 0.5111391544342041
vt 0.5657216906547546 0.5111392140388489
vt 0.5606257319450378 0.5110553503036499
vt 0.5605871081352234 0.5111392140388489
vt 0.5605871677398682 0.5111392140388489
vt 0.5656548142433167 0.511055588722229
vt 0.5657216906547546 0.5111392140388489
vt 0.5657216906547546 0.5111392140388489
vt 0.5606257915496826 0.5110553503036499
vt 0.5605871677398682 0.5111392140388489
vt 0.5605871677398682 0.5111392140388489
vt 0.5656548142433167 0.511055588722229
vt 0.5657216906547546 0.5111392140388489
vt 0.5656454563140869 0.5111391544342041
vt 0.5656166672706604 0.511055588722229
vt 0.5606257915496826 0.5110553503036499
vt 0.5605871677398682 0.5111392140388489
vt 0.5606643557548523 0.5109714865684509
vt 0.5655879378318787 0.5109719634056091
vt 0.5656166672706604 0.511055588722229
vt 0.5656166672706604 0.511055588722229
vt 0.5606257319450378 0.5110553503036499
vt 0.5606643557548523 0.5109714865684509
vt 0.5655879378318787 0.5109719634056091
vt 0.5606643557548523 0.5109714865684509
vt 0.5606257319450378 0.5110553503036499
vt 0.5606257319450378 0.5110553503036499
vt 0.5656548142433167 0.511055588722229
vt 0.5655879378318787 0.5109719634056091
vt 0.5606644153594971 0.5109714865684509
vt 0.5655879378318787 0.5109719634056091
vt 0.5656548142433167 0.511055588722229
vt 0.5656548142433167 0.511055588722229
vt 0.5606257915496826 0.5110553503036499
vt 0.5606644153594971 0.5109714865684509
vt 0.5655879378318787 0.5109719634056091
vt 0.5606644153594971 0.5109714865684509
vt 0.5606257915496826 0.5110553503036499
vt 0.5606257915496826 0.5110553503036499
vt 0.5656548142433167 0.511055588722229
vt 0.5655879378318787 0.5109719634056091
vt 0.5606644153594971 0.5109714865684509
vt 0.5655879378318787 0.5109719634056091
vt 0.5656548142433167 0.511055588722229
vt 0.5656548142433167 0.511055588722229
vt 0.5606257915496826 0.5110553503036499
vt 0.5606644153594971 0.5109714865684509
vt 0.5655879378318787 0.5109719634056091
vt 0.5606644153594971 0.5109714865684509
vt 0.5606257915496826 0.5110553503036499
vt 0.5606257915496826 0.5110553503036499
vt 0.5656166672706604 0.511055588722229
vt 0.5655879378318787 0.5109719634056091
vt 0.5840837955474854 0.7463900446891785
vt 0.6248250007629395 0.7370813488960266
vt 0.5840837955474854 0.7463900446891785
vt 0.5440466403961182 0.7461979389190674
vt 0.5055040121078491 0.737159252166748
vt 0.5440466403961182 0.7461979389190674
vt 0.5840837955474854 0.7463900446891785
vt 0.6248250007629395 0.7370813488960266
vt 0.5055040121078491 0.737159252166748
vt 0.5196249485015869 0.7091863751411438
vt 0.5440466403961182 0.7461979389190674
vt 0.5840837955474854 0.7463900446891785
vt 0.6248250007629395 0.7370813488960266
vt 0.5055040121078491 0.737159252166748
vt 0.5196249485015869 0.7091863751411438
vt 0.5440466403961182 0.7461979389190674
vt 0.5934063196182251 0.681174635887146
vt 0.5619876980781555 0.6252679228782654
vt 0.573035717010498 0.6858289837837219
vt 0.5619876980781555 0.6252679228782654
vt 0.5530171990394592 0.6857329607009888
vt 0.5619876980781555 0.6252679228782654
vt 0.5337458848953247 0.6812135577201843
vt 0.5619876980781555 0.6252679228782654
vt 0.5530171990394592 0.6857329607009888
vt 0.5619876980781555 0.6252679228782654
vt 0.573035717010498 0.6858289837837219
vt 0.5619876980781555 0.6252679228782654
vt 0.5337458848953247 0.6812135577201843
vt 0.5619876980781555 0.6252679228782654
vt 0.5530171990394592 0.6857329607009888
vt 0.5619876980781555 0.6252679228782654
vt 0.573035717010498 0.6858289837837219
vt 0.5619876980781555 0.6252679228782654
vt 0.5337458848953247 0.6812135577201843
vt 0.5619876980781555 0.6252679228782654
vt 0.5530171990394592 0.6857329607009888
vt 0.5619876980781555 0.6252679228782654
vt 0.573035717010498 0.6858289837837219
vt 0.573035717010498 0.6858289837837219
vt 0.5934063196182251 0.681174635887146
vt 0.6091156601905823 0.7091280221939087
vt 0.5785597562789917 0.7161095142364502
vt 0.5934063196182251 0.681174635887146
vt 0.573035717010498 0.6858289837837219
vt 0.5785597562789917 0.7161095142364502
vt 0.6091156601905823 0.7091280221939087
vt 0.573035717010498 0.6858289837837219
vt 0.5530171990394592 0.6857329607009888
vt 0.5485318899154663 0.7159654498100281
vt 0.5785597562789917 0.7161095142364502
vt 0.5530171990394592 0.6857329607009888
vt 0.5337458848953247 0.6812135577201843
vt 0.5196249485015869 0.7091863751411438
vt 0.5485318899154663 0.7159654498100281
vt 0.5337458848953247 0.6812135577201843
vt 0.5530171990394592 0.6857329607009888
vt 0.5485318899154663 0.7159654498100281
vt 0.5196249485015869 0.7091863751411438
vt 0.5530171990394592 0.6857329607009888
vt 0.573035717010498 0.6858289837837219
vt 0.5785597562789917 0.7161095142364502
vt 0.5485318899154663 0.7159654498100281
vt 0.573035717010498 0.6858289837837219
vt 0.5934063196182251 0.681174635887146
vt 0.6091156601905823 0.7091280221939087
vt 0.5785597562789917 0.7161095142364502
vt 0.5337458848953247 0.6812135577201843
vt 0.5530171990394592 0.6857329607009888
vt 0.5485318899154663 0.7159654498100281
vt 0.5196249485015869 0.7091863751411438
vt 0.5530171990394592 0.6857329607009888
vt 0.573035717010498 0.6858289837837219
vt 0.5785597562789917 0.7161095142364502
vt 0.5485318899154663 0.7159654498100281
vt 0.573035717010498 0.6858289837837219
vt 0.5934063196182251 0.681174635887146
vt 0.6091156601905823 0.7091280221939087
vt 0.5785597562789917 0.7161095142364502
vt 0.5337458848953247 0.6812135577201843
vt 0.5530171990394592 0.6857329607009888
vt 0.5485318899154663 0.7159654498100281
vt 0.5196249485015869 0.7091863751411438
vt 0.5530171990394592 0.6857329607009888
vt 0.573035717010498 0.6858289837837219
vt 0.5785597562789917 0.7161095142364502
vt 0.5485318899154663 0.7159654498100281
vn 0.19990673661231995 -5.356521342037013e-07 0.9798149466514587
vn -0.042126670479774475 0.6021870374679565 0.7972428202629089
vn -0.29622936248779297 0.4705142676830292 0.831182599067688
vn -0.543017566204071 0.26492783427238464 0.7968344688415527
vn -0.5559858679771423 -0.021176297217607498 0.8309219479560852
vn -0.500868022441864 -0.3376902639865875 0.7969294190406799
vn -0.2593784034252167 -0.4916180670261383 0.8312848806381226
vn 0.04200826957821846 -0.6019467711448669 0.7974305152893066
vn 0.29569876194000244 -0.469577819108963 0.8319007754325867
vn 0.5418667793273926 -0.26427939534187317 0.7978325486183167
vn 0.5541294813156128 0.02140052430331707 0.8321553468704224
vn 0.4998800754547119 0.337240606546402 0.7977398633956909
vn 0.2588011622428894 0.49105069041252136 0.8317999839782715
vn -0.009503149427473545 0.9034201502799988 0.4286510944366455
vn -0.459940105676651 0.7776331901550293 0.4286510646343231
vn -0.7871364951133728 0.44347989559173584 0.4286510646343231
vn -0.9034202098846436 -0.009503211826086044 0.4286509156227112
vn -0.777633547782898 -0.45993977785110474 0.42865073680877686
vn -0.44348016381263733 -0.7871364951133728 0.42865073680877686
vn 0.009503110311925411 -0.9034203886985779 0.42865052819252014
vn 0.4599398374557495 -0.777633547782898 0.4286506772041321
vn 0.7871363759040833 -0.4434802532196045 0.4286508858203888
vn 0.9034201502799988 0.00950294453650713 0.42865103483200073
vn 0.777633547782898 0.4599396884441376 0.4286511242389679
vn 0.44348034262657166 0.7871361970901489 0.4286511540412903
vn -0.41389572620391846 0.8918218016624451 0.1826038807630539
vn -0.5653929114341736 -0.8043552041053772 0.18260280787944794
vn -0.08746658265590668 -0.9792884588241577 0.1826026886701584
vn 0.4138953685760498 -0.8918222188949585 0.18260273337364197
vn 0.8043551445007324 -0.5653928518295288 0.18260321021080017
vn 0.9792883396148682 -0.08746697008609772 0.1826036125421524
vn 0.8918220400810242 0.41389530897140503 0.18260379135608673
vn 0.5653929114341736 0.8043548464775085 0.1826038360595703
vn -0.2309623658657074 0.17454774677753448 0.9571778774261475
vn -0.26666367053985596 -0.11233872175216675 0.957220196723938
vn -0.03603608161211014 -0.28538715839385986 0.9577347040176392
vn 0.22800010442733765 -0.17282526195049286 0.9582000970840454
vn 0.26365116238594055 0.11143993586301804 0.9581593871116638
vn 0.0353187657892704 0.28575655817985535 0.9576511979103088
vn 0.0655207633972168 0.12282980978488922 0.9902626276016235
vn 0.021777139976620674 -0.04430525377392769 0.9987806677818298
vn 0.1443832814693451 -0.17203262448310852 0.974452793598175
vn 0.32756805419921875 -0.13257035613059998 0.9354807734489441
vn 0.3796483874320984 0.049161966890096664 0.9238237142562866
vn 0.24032622575759888 0.17691317200660706 0.9544345140457153
vn -0.2588183581829071 0.9659257531166077 -0.0007105690892785788
vn -0.2588183581829071 0.9659257531166077 -0.0007105690892785788
vn -0.9643516540527344 0.258398175239563 -0.05706410109996796
vn -0.7066367864608765 -0.7066358923912048 -0.03647222742438316
vn 0.2586056888103485 -0.9651304483413696 0.040577419102191925
vn 0.9614079594612122 -0.2576092481613159 0.09660353511571884
vn 0.08746671676635742 0.9792882800102234 0.18260402977466583
vn 4.233947663578874e-07 -7.36518302346667e-07 -1.0
vn 4.233947663578874e-07 -7.36518302346667e-07 -1.0
vn -0.8043552041053772 0.5653924345970154 0.1826036423444748
vn 3.754836370717385e-07 -6.670043717349472e-08 -1.0
vn -0.9792882800102234 0.08746656030416489 0.1826036274433136
vn 1.1302264368850956e-07 1.9576086174311058e-07 -1.0
vn -0.8918220400810242 -0.41389551758766174 0.1826033890247345
vn 1.4059516354955615e-13 2.260452589553097e-07 -1.0
vn -2.9274582402649685e-07 1.6037793315604176e-08 -1.0
vn -2.615442440401239e-07 -1.324841605310212e-07 -1.0
vn 4.233944821407931e-07 -7.36519950805814e-07 -1.0
vn 3.7548323916780646e-07 -6.6700323486657e-08 -1.0
vn 3.5852815472026123e-07 1.2997763576549914e-07 -1.0
vn -6.862305320341766e-13 2.260449747382154e-07 -1.0
vn -1.1302302027615951e-07 1.9576044962832384e-07 -1.0
vn -0.03542580455541611 0.13221082091331482 -0.990588366985321
vn -0.03542580455541611 0.13221082091331482 -0.990588366985321
vn -0.03542580455541611 0.13221082091331482 -0.990588366985321
vn -0.09678468853235245 0.09678526967763901 -0.990588366985321
vn -0.13221052289009094 0.03542598336935043 -0.9905884265899658
vn -0.13221058249473572 -0.035425376147031784 -0.9905884265899658
vn -0.09678498655557632 -0.09678441286087036 -0.9905884265899658
vn -0.03542568162083626 -0.13221028447151184 -0.9905885457992554
vn 0.0354255735874176 -0.13221032917499542 -0.9905885457992554
vn 0.09678478538990021 -0.09678463637828827 -0.9905884265899658
vn 0.13221053779125214 -0.035425517708063126 -0.9905884265899658
vn 0.1322105973958969 0.03542589396238327 -0.9905884861946106
vn 0.09678492695093155 0.09678506851196289 -0.990588366985321
vn -0.2588183581829071 0.9659257531166077 -0.0007105690892785788
vn -0.2588183879852295 0.9659257531166077 -0.0007105580298230052
vn -0.9643516540527344 0.258398175239563 -0.05706410109996796
vn -0.9643516540527344 0.258398175239563 -0.05706410109996796
vn -0.9643515944480896 0.25839826464653015 -0.057064127177000046
vn -0.7066367864608765 -0.7066358923912048 -0.03647222742438316
vn -0.7066367864608765 -0.7066358923912048 -0.03647222742438316
vn -0.7066368460655212 -0.7066358327865601 -0.036472272127866745
vn 0.2586056888103485 -0.9651304483413696 0.040577419102191925
vn 0.2586056888103485 -0.9651304483413696 0.040577419102191925
vn 0.2586056888103485 -0.9651304483413696 0.04057741165161133
vn 0.9614079594612122 -0.2576092481613159 0.09660353511571884
vn 0.9614079594612122 -0.2576092481613159 0.09660353511571884
vn 0.9614079594612122 -0.25760918855667114 0.09660355001688004
vn 0.7050527334213257 0.7050517797470093 0.07617482542991638
vn 0.7050527334213257 0.7050517797470093 0.07617482542991638
vn 0.7050527334213257 0.7050517797470093 0.07617482542991638
vn 0.7050528526306152 0.7050517797470093 0.07617481052875519
vn -0.28206345438957214 0.9583156704902649 -0.04551156982779503
vn -0.28206345438957214 0.9583156704902649 -0.04551156982779503
vn -0.28206345438957214 0.9583156704902649 -0.04551156982779503
vn -0.2585822343826294 0.9650442600250244 -0.0427200011909008
vn -0.2585822343826294 0.9650442600250244 -0.0427200011909008
vn -0.2585822343826294 0.9650442600250244 -0.0427200011909008
vn -0.9594370126724243 0.24809999763965607 0.1338919848203659
vn -0.9594370126724243 0.24809999763965607 0.1338919848203659
vn -0.9594370126724243 0.24809999763965607 0.1338919848203659
vn -0.956908643245697 0.25640353560447693 0.13631978631019592
vn -0.956908643245697 0.25640353560447693 0.13631978631019592
vn -0.956908643245697 0.25640353560447693 0.13631978631019592
vn -0.7198852300643921 -0.6900568008422852 0.07474543899297714
vn -0.7198852300643921 -0.6900568008422852 0.07474543899297714
vn -0.7198852300643921 -0.6900568008422852 0.07474543899297714
vn -0.7056873440742493 -0.7056865096092224 0.06333991885185242
vn -0.7056873440742493 -0.7056865096092224 0.06333991885185242
vn -0.7056873440742493 -0.7056865096092224 0.06333991885185242
vn 0.23970095813274384 -0.9558701515197754 -0.16986973583698273
vn 0.23970095813274384 -0.9558701515197754 -0.16986973583698273
vn 0.23970095813274384 -0.9558701515197754 -0.16986973583698273
vn 0.2546106278896332 -0.9502205848693848 -0.17959482967853546
vn 0.2546106278896332 -0.9502205848693848 -0.17959482967853546
vn 0.2546106278896332 -0.9502205848693848 -0.17959482967853546
vn 0.9106541275978088 -0.2454828917980194 -0.33233630657196045
vn 0.9106541275978088 -0.2454828917980194 -0.33233630657196045
vn 0.9106541275978088 -0.2454828917980194 -0.33233630657196045
vn 0.910820722579956 -0.24405373632907867 -0.3329318165779114
vn 0.910820722579956 -0.24405373632907867 -0.3329318165779114
vn 0.910820722579956 -0.24405373632907867 -0.3329318165779114
vn 0.6741998195648193 0.684123158454895 -0.2782626748085022
vn 0.6741998195648193 0.684123158454895 -0.2782626748085022
vn 0.6741998195648193 0.684123158454895 -0.2782626748085022
vn 0.6794604659080505 0.6794587969779968 -0.2768920958042145
vn 0.6794604659080505 0.6794587969779968 -0.2768920958042145
vn 0.6794604659080505 0.6794587969779968 -0.2768920958042145
vn 4.233947663578874e-07 -7.36518302346667e-07 -1.0
vn 6.578311229077372e-08 -2.4550601551709406e-07 -1.0
vn 4.593734459490406e-08 7.956577263712461e-08 -1.0
vn 1.1428800072120493e-13 1.8374929311448795e-07 -1.0
vn -2.9144382551749004e-07 1.3782648800031438e-08 -1.0
vn -3.388550453564676e-07 -8.784868299471782e-08 -1.0
vn -1.9734999057163805e-07 -7.365202918663272e-07 -1.0
vn 6.578321887218408e-08 -2.4550686816837697e-07 -1.0
vn 3.7548323916780646e-07 -6.6700323486657e-08 -1.0
vn 3.7548323916780646e-07 -6.6700323486657e-08 -1.0
vn 2.7159762794326525e-07 -2.0591556904037134e-08 -1.0
vn -2.7891469515928247e-13 9.18747602440817e-08 -1.0
vn -9.187514393715901e-08 1.5913147421997564e-07 -1.0
vn -1.1302302027615951e-07 1.9576044962832384e-07 -1.0
vn -1.1302302027615951e-07 1.9576044962832384e-07 -1.0
vn -2.5928918034878734e-07 -1.3378577534695069e-07 -1.0
vn -0.09678468853235245 0.09678526967763901 -0.990588366985321
vn -0.09678468853235245 0.09678526967763901 -0.990588366985321
vn -0.13221052289009094 0.03542598336935043 -0.9905884265899658
vn -0.13221052289009094 0.03542598336935043 -0.9905884265899658
vn -0.13221058249473572 -0.035425376147031784 -0.9905884265899658
vn -0.13221058249473572 -0.035425376147031784 -0.9905884265899658
vn -0.09678498655557632 -0.09678441286087036 -0.9905884265899658
vn -0.09678498655557632 -0.09678441286087036 -0.9905884265899658
vn -0.03542568162083626 -0.13221028447151184 -0.9905885457992554
vn -0.03542568162083626 -0.13221028447151184 -0.9905885457992554
vn 0.0354255735874176 -0.13221032917499542 -0.9905885457992554
vn 0.0354255735874176 -0.13221032917499542 -0.9905885457992554
vn 0.09678478538990021 -0.09678463637828827 -0.9905884265899658
vn 0.09678478538990021 -0.09678463637828827 -0.9905884265899658
vn 0.13221053779125214 -0.035425517708063126 -0.9905884265899658
vn 0.13221053779125214 -0.035425517708063126 -0.9905884265899658
vn 0.1322105973958969 0.03542589396238327 -0.9905884861946106
vn 0.1322105973958969 0.03542589396238327 -0.9905884861946106
vn 0.09678492695093155 0.09678506851196289 -0.990588366985321
vn 0.09678492695093155 0.09678506851196289 -0.990588366985321
vn 0.03542590141296387 0.13221079111099243 -0.990588366985321
vn 0.03542590141296387 0.13221079111099243 -0.990588366985321
vn 0.03542590141296387 0.13221079111099243 -0.990588366985321
vn 0.2162216305732727 -0.8069493174552917 -0.5496189594268799
vn 0.2162216305732727 -0.8069493174552917 -0.5496189594268799
vn 0.2162216305732727 -0.8069493174552917 -0.5496189594268799
vn 0.21622171998023987 -0.8069491982460022 -0.5496190786361694
vn 0.5907275676727295 -0.5907285213470459 -0.5496188402175903
vn 0.5907275676727295 -0.5907285213470459 -0.5496188402175903
vn 0.5907275676727295 -0.5907285213470459 -0.5496188402175903
vn 0.5907276272773743 -0.5907284021377563 -0.5496189594268799
vn 0.8069497346878052 -0.21622121334075928 -0.5496187210083008
vn 0.8069497346878052 -0.21622121334075928 -0.5496187210083008
vn 0.8069497346878052 -0.21622121334075928 -0.5496187210083008
vn 0.8069496154785156 -0.21622107923030853 -0.5496187210083008
vn 0.8069497346878052 0.21622136235237122 -0.549618661403656
vn 0.8069497346878052 0.21622136235237122 -0.549618661403656
vn 0.8069497346878052 0.21622136235237122 -0.549618661403656
vn 0.80694979429245 0.2162211835384369 -0.5496184825897217
vn 0.5907284617424011 0.5907276272773743 -0.5496187806129456
vn 0.5907284617424011 0.5907276272773743 -0.5496187806129456
vn 0.5907284617424011 0.5907276272773743 -0.5496187806129456
vn 0.5907286405563354 0.5907276272773743 -0.5496186017990112
vn 0.21622194349765778 0.8069499731063843 -0.5496180653572083
vn 0.21622194349765778 0.8069499731063843 -0.5496180653572083
vn 0.21622194349765778 0.8069499731063843 -0.5496180653572083
vn 0.21622119843959808 0.8069496750831604 -0.549618661403656
vn -0.21622112393379211 0.8069498538970947 -0.5496183633804321
vn -0.21622112393379211 0.8069498538970947 -0.5496183633804321
vn -0.21622112393379211 0.8069498538970947 -0.5496183633804321
vn -0.21622085571289062 0.8069502711296082 -0.5496180653572083
vn -0.5907273888587952 0.5907289981842041 -0.5496185421943665
vn -0.5907273888587952 0.5907289981842041 -0.5496185421943665
vn -0.5907273888587952 0.5907289981842041 -0.5496185421943665
vn -0.5907273292541504 0.5907290577888489 -0.5496185421943665
vn -0.8069494962692261 0.21622222661972046 -0.549618661403656
vn -0.8069494962692261 0.21622222661972046 -0.549618661403656
vn -0.8069494962692261 0.21622222661972046 -0.549618661403656
vn -0.8069493770599365 0.21622219681739807 -0.549618661403656
vn -0.80694979429245 -0.2162206619977951 -0.549618661403656
vn -0.80694979429245 -0.2162206619977951 -0.549618661403656
vn -0.80694979429245 -0.2162206619977951 -0.549618661403656
vn -0.8069497346878052 -0.21622075140476227 -0.5496187210083008
vn -0.5907288789749146 -0.5907271504402161 -0.5496188402175903
vn -0.5907288789749146 -0.5907271504402161 -0.5496188402175903
vn -0.5907288789749146 -0.5907271504402161 -0.5496188402175903
vn -0.5907289385795593 -0.5907270908355713 -0.5496187806129456
vn -0.21622216701507568 -0.8069491386413574 -0.5496190190315247
vn -0.21622216701507568 -0.8069491386413574 -0.5496190190315247
vn -0.21622216701507568 -0.8069491386413574 -0.5496190190315247
vn -0.21622230112552643 -0.8069491386413574 -0.5496189594268799
f 220/220/220 221/221/221 218/218/218
f 218/218/218 219/219/219 220/220/220
f 216/216/216 217/217/217 214/214/214
f 214/214/214 215/215/215 216/216/216
f 212/212/212 213/213/213 210/210/210
f 210/210/210 211/211/211 212/212/212
f 208/208/208 209/209/209 206/206/206
f 206/206/206 207/207/207 208/208/208
f 204/204/204 205/205/205 202/202/202
f 202/202/202 203/203/203 204/204/204
f 200/200/200 201/201/201 198/198/198
f 198/198/198 199/199/199 200/200/200
f 196/196/196 197/197/197 194/194/194
f 194/194/194 195/195/195 196/196/196
f 192/192/192 193/193/193 190/190/190
f 190/190/190 191/191/191 192/192/192
f 188/188/188 189/189/189 186/186/186
f 186/186/186 187/187/187 188/188/188
f 184/184/184 185/185/185 182/182/182
f 182/182/182 183/183/183 184/184/184
f 180/180/180 181/181/181 178/178/178
f 178/178/178 179/179/179 180/180/180
f 176/176/176 177/177/177 174/174/174
f 174/174/174 175/175/175 176/176/176
f 171/171/171 172/172/172 173/173/173
f 169/169/169 170/170/170 80/80/80
f 167/167/167 168/168/168 79/79/79
f 165/165/165 166/166/166 78/78/78
f 163/163/163 164/164/164 77/77/77
f 161/161/161 162/162/162 76/76/76
f 159/159/159 160/160/160 75/75/75
f 157/157/157 158/158/158 74/74/74
f 155/155/155 156/156/156 73/73/73
f 153/153/153 154/154/154 72/72/72
f 151/151/151 152/152/152 71/71/71
f 68/68/68 69/69/69 70/70/70
f 53/53/53 135/135/135 150/150/150
f 150/150/150 67/67/67 53/53/53
f 67/67/67 150/150/150 148/148/148
f 148/148/148 149/149/149 67/67/67
f 66/66/66 147/147/147 146/146/146
f 146/146/146 65/65/65 66/66/66
f 65/65/65 146/146/146 145/145/145
f 145/145/145 64/64/64 65/65/65
f 64/64/64 145/145/145 143/143/143
f 143/143/143 144/144/144 64/64/64
f 63/63/63 142/142/142 141/141/141
f 141/141/141 62/62/62 63/63/63
f 62/62/62 141/141/141 140/140/140
f 140/140/140 61/61/61 62/62/62
f 61/61/61 140/140/140 139/139/139
f 139/139/139 60/60/60 61/61/61
f 60/60/60 139/139/139 138/138/138
f 138/138/138 58/58/58 60/60/60
f 58/58/58 138/138/138 137/137/137
f 137/137/137 56/56/56 58/58/58
f 56/56/56 137/137/137 136/136/136
f 136/136/136 54/54/54 56/56/56
f 54/54/54 136/136/136 135/135/135
f 135/135/135 53/53/53 54/54/54
f 132/132/132 133/133/133 134/134/134
f 129/129/129 130/130/130 131/131/131
f 126/126/126 127/127/127 128/128/128
f 123/123/123 124/124/124 125/125/125
f 120/120/120 121/121/121 122/122/122
f 117/117/117 118/118/118 119/119/119
f 114/114/114 115/115/115 116/116/116
f 111/111/111 112/112/112 113/113/113
f 108/108/108 109/109/109 110/110/110
f 105/105/105 106/106/106 107/107/107
f 102/102/102 103/103/103 104/104/104
f 99/99/99 100/100/100 101/101/101
f 97/97/97 98/98/98 95/95/95
f 95/95/95 96/96/96 97/97/97
f 93/93/93 94/94/94 92/92/92
f 92/92/92 51/51/51 93/93/93
f 90/90/90 91/91/91 89/89/89
f 89/89/89 50/50/50 90/90/90
f 87/87/87 88/88/88 86/86/86
f 86/86/86 49/49/49 87/87/87
f 84/84/84 85/85/85 83/83/83
f 83/83/83 48/48/48 84/84/84
f 46/46/46 82/82/82 81/81/81
f 81/81/81 47/47/47 46/46/46
f 39/39/39 13/13/13 2/2/2
f 38/38/38 12/12/12 13/13/13
f 13/13/13 39/39/39 38/38/38
f 38/38/38 11/11/11 12/12/12
f 37/37/37 10/10/10 11/11/11
f 11/11/11 38/38/38 37/37/37
f 37/37/37 9/9/9 10/10/10
f 36/36/36 8/8/8 9/9/9
f 9/9/9 37/37/37 36/36/36
f 36/36/36 7/7/7 8/8/8
f 35/35/35 6/6/6 7/7/7
f 7/7/7 36/36/36 35/35/35
f 35/35/35 5/5/5 6/6/6
f 34/34/34 4/4/4 5/5/5
f 5/5/5 35/35/35 34/34/34
f 34/34/34 3/3/3 4/4/4
f 39/39/39 2/2/2 3/3/3
f 3/3/3 34/34/34 39/39/39
f 25/25/25 33/33/33 52/52/52
f 52/52/52 14/14/14 25/25/25
f 24/24/24 32/32/32 33/33/33
f 33/33/33 25/25/25 24/24/24
f 23/23/23 31/31/31 32/32/32
f 32/32/32 24/24/24 23/23/23
f 22/22/22 30/30/30 31/31/31
f 31/31/31 23/23/23 22/22/22
f 21/21/21 29/29/29 30/30/30
f 30/30/30 22/22/22 21/21/21
f 20/20/20 28/28/28 29/29/29
f 29/29/29 21/21/21 20/20/20
f 19/19/19 27/27/27 28/28/28
f 28/28/28 20/20/20 19/19/19
f 18/18/18 59/59/59 27/27/27
f 27/27/27 19/19/19 18/18/18
f 17/17/17 57/57/57 59/59/59
f 59/59/59 18/18/18 17/17/17
f 16/16/16 55/55/55 57/57/57
f 57/57/57 17/17/17 16/16/16
f 15/15/15 26/26/26 55/55/55
f 55/55/55 16/16/16 15/15/15
f 14/14/14 52/52/52 26/26/26
f 26/26/26 15/15/15 14/14/14
f 13/13/13 25/25/25 14/14/14
f 14/14/14 2/2/2 13/13/13
f 12/12/12 24/24/24 25/25/25
f 25/25/25 13/13/13 12/12/12
f 11/11/11 23/23/23 24/24/24
f 24/24/24 12/12/12 11/11/11
f 10/10/10 22/22/22 23/23/23
f 23/23/23 11/11/11 10/10/10
f 9/9/9 21/21/21 22/22/22
f 22/22/22 10/10/10 9/9/9
f 8/8/8 20/20/20 21/21/21
f 21/21/21 9/9/9 8/8/8
f 7/7/7 19/19/19 20/20/20
f 20/20/20 8/8/8 7/7/7
f 6/6/6 18/18/18 19/19/19
f 19/19/19 7/7/7 6/6/6
f 5/5/5 17/17/17 18/18/18
f 18/18/18 6/6/6 5/5/5
f 4/4/4 16/16/16 17/17/17
f 17/17/17 5/5/5 4/4/4
f 3/3/3 15/15/15 16/16/16
f 16/16/16 4/4/4 3/3/3
f 2/2/2 14/14/14 15/15/15
f 15/15/15 3/3/3 2/2/2
f 1/1/1 44/44/44 45/45/45
f 1/1/1 43/43/43 44/44/44
f 1/1/1 42/42/42 43/43/43
f 1/1/1 41/41/41 42/42/42
f 1/1/1 40/40/40 41/41/41
f 1/1/1 45/45/45 40/40/40
