# Recovered local-space geometry; original node transforms not applied
o mesh_0
v 1.5589299201965332 0.030826475471258163 58.98051452636719
v -8.841603630571626e-06 25.56974220275879 34.31918716430664
v -12.78487777709961 22.144046783447266 34.31918716430664
v -22.144046783447266 12.784884452819824 34.31918716430664
v -25.569744110107422 2.334099553991109e-05 34.31918716430664
v -22.144062042236328 -12.784835815429688 34.31918716430664
v -12.784891128540039 -22.144025802612305 34.31918716430664
v -2.8710473998216912e-05 -25.569726943969727 34.31918716430664
v 12.784834861755371 -22.144041061401367 34.31918716430664
v 22.14401626586914 -12.784872055053711 34.31918716430664
v 25.56971549987793 -1.0995423508575186e-05 34.31918716430664
v 22.14403533935547 12.784850120544434 34.31918716430664
v 12.784876823425293 22.144031524658203 34.31918716430664
v -7.42278280085884e-06 37.849151611328125 19.69013023376465
v -18.924585342407227 32.77833557128906 19.69013023376465
v -32.7783317565918 18.924598693847656 19.69013023376465
v -37.84915542602539 2.288818359375e-05 19.69013023376465
v -32.77834701538086 -18.924545288085938 19.69013023376465
v -18.924604415893555 -32.7783203125 19.69013023376465
v -3.603301229304634e-05 -37.84913635253906 19.69013023376465
v 18.924535751342773 -32.77833557128906 19.69013023376465
v 32.778297424316406 -18.924591064453125 19.69013023376465
v 37.8491325378418 -2.288818359375e-05 19.69013023376465
v 32.778324127197266 18.92455291748047 19.69013023376465
v 18.924598693847656 32.77831268310547 19.69013023376465
v -20.760360717773438 -35.95793914794922 0.0
v -2.611185482237488e-05 -41.520652770996094 0.0
v 20.760324478149414 -35.957942962646484 0.0
v 35.957950592041016 -20.760326385498047 3.814697265625e-06
v 41.52066421508789 7.083241143845953e-06 3.814697265625e-06
v 35.95795822143555 20.76034164428711 7.62939453125e-06
v -2.108096122741699 1.967682957649231 41.673561096191406
v -2.8170361518859863 -0.678107500076294 41.67355728149414
v -0.8801822066307068 -2.614964246749878 41.67355728149414
v 1.7656099796295166 -1.90602707862854 41.67355728149414
v 2.4745490550994873 0.7397635579109192 41.673561096191406
v 0.5376965999603271 2.676619291305542 41.67355728149414
v -1.250076413154602 2.5860698223114014 58.84942626953125
v -2.128962993621826 -0.9044548273086548 59.01943588256836
v 0.27217838168144226 -3.4597012996673584 58.5549430847168
v 3.5522027015686035 -2.524419069290161 57.92043685913086
v 4.431088924407959 0.9661069512367249 57.75041961669922
v 2.0299439430236816 3.521352529525757 58.21491241455078
v -0.19512107968330383 2.4865455627441406 50.215576171875
v -2.65084171295166 1.8285388946533203 50.21558380126953
v -3.308851480484009 -0.627178966999054 50.215576171875
v -1.5111398696899414 -2.4248926639556885 50.215576171875
v 0.9445793032646179 -1.7668852806091309 50.215576171875
v 1.6025886535644531 0.6888329982757568 50.21558380126953
v -35.957977294921875 -20.760311126708984 3.814697265625e-06
v -1.0468649634276517e-05 0.0 -42.491485595703125
v -3.930047569156159e-06 25.569734573364258 -34.319175720214844
v -12.784873008728027 22.144041061401367 -34.319175720214844
v -22.14404296875 12.784878730773926 -34.319175720214844
v -25.56974220275879 1.7946978914551437e-05 -34.319175720214844
v -22.144062042236328 -12.784841537475586 -34.319175720214844
v -12.784890174865723 -22.144031524658203 -34.319175720214844
v -2.8269672839087434e-05 -25.569734573364258 -34.319175720214844
v 12.784835815429688 -22.14405059814453 -34.319175720214844
v 22.14401626586914 -12.784881591796875 -34.319175720214844
v 25.569717407226562 -2.0860192307736725e-05 -34.319175720214844
v 22.144039154052734 12.78484058380127 -34.319175720214844
v 12.784881591796875 22.14402198791504 -34.319175720214844
v -1.4377264960785396e-06 37.849143981933594 -19.69011688232422
v -18.924579620361328 32.77832794189453 -19.69011688232422
v -32.77832794189453 18.92459487915039 -19.69011688232422
v -37.849151611328125 1.856766721175518e-05 -19.69011688232422
v -32.778343200683594 -18.924549102783203 -19.69011688232422
v -18.924606323242188 -32.77832794189453 -19.69011688232422
v -3.6665711377281696e-05 -37.849143981933594 -19.69011688232422
v 18.92453384399414 -32.778343200683594 -19.69011688232422
v 32.77830123901367 -18.924602508544922 -19.69011688232422
v 37.84913635253906 -3.3826454455265775e-05 -19.69011688232422
v 32.77832794189453 18.924541473388672 -19.69011688232422
v 18.924604415893555 32.77830505371094 -19.69011688232422
v -20.760353088378906 35.957977294921875 9.5367431640625e-06
v -41.520687103271484 2.1795876818941906e-05 3.814697265625e-06
v 20.760343551635742 35.95796585083008 9.5367431640625e-06
v -35.95797348022461 20.760356903076172 7.62939453125e-06
v -1.66444260685239e-05 41.52069091796875 9.5367431640625e-06
v -2.108096122741699 1.967682957649231 41.673561096191406
v 0.5376965999603271 2.676619291305542 41.67355728149414
v -2.8170361518859863 -0.678107500076294 41.67355728149414
v -2.65084171295166 1.8285388946533203 50.21558380126953
v -2.108096122741699 1.967682957649231 41.673561096191406
v -0.8801822066307068 -2.614964246749878 41.67355728149414
v -3.308851480484009 -0.627178966999054 50.215576171875
v -2.8170361518859863 -0.678107500076294 41.67355728149414
v 1.7656099796295166 -1.90602707862854 41.67355728149414
v -1.5111398696899414 -2.4248926639556885 50.215576171875
v -0.8801822066307068 -2.614964246749878 41.67355728149414
v 2.4745490550994873 0.7397635579109192 41.673561096191406
v 0.9445793032646179 -1.7668852806091309 50.215576171875
v 1.7656099796295166 -1.90602707862854 41.67355728149414
v 0.5376965999603271 2.676619291305542 41.67355728149414
v -0.19512107968330383 2.4865455627441406 50.215576171875
v 1.6025886535644531 0.6888329982757568 50.21558380126953
v 2.4745490550994873 0.7397635579109192 41.673561096191406
v -1.250076413154602 2.5860698223114014 58.84942626953125
v 2.0299439430236816 3.521352529525757 58.21491241455078
v -0.19512107968330383 2.4865455627441406 50.215576171875
v -0.19512107968330383 2.4865455627441406 50.215576171875
v -2.65084171295166 1.8285388946533203 50.21558380126953
v -1.250076413154602 2.5860698223114014 58.84942626953125
v -2.128962993621826 -0.9044548273086548 59.01943588256836
v -1.250076413154602 2.5860698223114014 58.84942626953125
v -2.65084171295166 1.8285388946533203 50.21558380126953
v -2.65084171295166 1.8285388946533203 50.21558380126953
v -3.308851480484009 -0.627178966999054 50.215576171875
v -2.128962993621826 -0.9044548273086548 59.01943588256836
v 0.27217838168144226 -3.4597012996673584 58.5549430847168
v -2.128962993621826 -0.9044548273086548 59.01943588256836
v -3.308851480484009 -0.627178966999054 50.215576171875
v -3.308851480484009 -0.627178966999054 50.215576171875
v -1.5111398696899414 -2.4248926639556885 50.215576171875
v 0.27217838168144226 -3.4597012996673584 58.5549430847168
v 3.5522027015686035 -2.524419069290161 57.92043685913086
v 0.27217838168144226 -3.4597012996673584 58.5549430847168
v -1.5111398696899414 -2.4248926639556885 50.215576171875
v -1.5111398696899414 -2.4248926639556885 50.215576171875
v 0.9445793032646179 -1.7668852806091309 50.215576171875
v 3.5522027015686035 -2.524419069290161 57.92043685913086
v 4.431088924407959 0.9661069512367249 57.75041961669922
v 3.5522027015686035 -2.524419069290161 57.92043685913086
v 0.9445793032646179 -1.7668852806091309 50.215576171875
v 0.9445793032646179 -1.7668852806091309 50.215576171875
v 1.6025886535644531 0.6888329982757568 50.21558380126953
v 4.431088924407959 0.9661069512367249 57.75041961669922
v 2.0299439430236816 3.521352529525757 58.21491241455078
v 4.431088924407959 0.9661069512367249 57.75041961669922
v 1.6025886535644531 0.6888329982757568 50.21558380126953
v 1.6025886535644531 0.6888329982757568 50.21558380126953
v -0.19512107968330383 2.4865455627441406 50.215576171875
v 2.0299439430236816 3.521352529525757 58.21491241455078
vt 0.5629555583000183 0.5069050788879395
vt 0.5984122157096863 0.553981602191925
vt 0.5636200308799744 0.5539965033531189
vt 0.5288280248641968 0.553981602191925
vt 0.5636200308799744 0.5539965033531189
vt 0.5984122157096863 0.553981602191925
vt 0.5636200308799744 0.5539965033531189
vt 0.5288280248641968 0.553981602191925
vt 0.5636200308799744 0.5539965033531189
vt 0.5984122157096863 0.553981602191925
vt 0.5636200308799744 0.5539965033531189
vt 0.5288280248641968 0.553981602191925
vt 0.5636200308799744 0.5539965033531189
vt 0.6157622933387756 0.5954723358154297
vt 0.5636149644851685 0.5954011678695679
vt 0.511467695236206 0.5954723358154297
vt 0.5636149644851685 0.5954011678695679
vt 0.6157622933387756 0.5954723358154297
vt 0.5636149644851685 0.5954011678695679
vt 0.511467695236206 0.5954723358154297
vt 0.5636149644851685 0.5954011678695679
vt 0.6157622933387756 0.5954723358154297
vt 0.5636149644851685 0.5954011678695679
vt 0.511467695236206 0.5954723358154297
vt 0.5636149644851685 0.5954011678695679
vt 0.5636149644851685 0.6232905387878418
vt 0.5037781000137329 0.6233315467834473
vt 0.5636149644851685 0.6232905387878418
vt 0.623451828956604 0.6233315467834473
vt 0.5636149644851685 0.6232905387878418
vt 0.5037781000137329 0.6233315467834473
vt 0.5605871081352234 0.5111392140388489
vt 0.5657216906547546 0.5111392140388489
vt 0.5605871677398682 0.5111392140388489
vt 0.5657216906547546 0.5111392140388489
vt 0.5605871677398682 0.5111392140388489
vt 0.5656454563140869 0.5111391544342041
vt 0.5606643557548523 0.5109714865684509
vt 0.5655879378318787 0.5109719634056091
vt 0.5606644153594971 0.5109714865684509
vt 0.5655879378318787 0.5109719634056091
vt 0.5606644153594971 0.5109714865684509
vt 0.5655879378318787 0.5109719634056091
vt 0.5656166672706604 0.511055588722229
vt 0.5606257319450378 0.5110553503036499
vt 0.5656548142433167 0.511055588722229
vt 0.5606257915496826 0.5110553503036499
vt 0.5656548142433167 0.511055588722229
vt 0.5606257915496826 0.5110553503036499
vt 0.623451828956604 0.6233315467834473
vt 0.5629555583000183 0.5156188607215881
vt 0.5984122157096863 0.553981602191925
vt 0.5636200308799744 0.5539965033531189
vt 0.5288280248641968 0.553981602191925
vt 0.5636200308799744 0.5539965033531189
vt 0.5984122157096863 0.553981602191925
vt 0.5636200308799744 0.5539965033531189
vt 0.5288280248641968 0.553981602191925
vt 0.5636200308799744 0.5539965033531189
vt 0.5984122157096863 0.553981602191925
vt 0.5636200308799744 0.5539965033531189
vt 0.5288280248641968 0.553981602191925
vt 0.5636200308799744 0.5539965033531189
vt 0.6157622933387756 0.5954723358154297
vt 0.5636149644851685 0.5954011678695679
vt 0.511467695236206 0.5954723358154297
vt 0.5636149644851685 0.5954011678695679
vt 0.6157622933387756 0.5954723358154297
vt 0.5636149644851685 0.5954011678695679
vt 0.511467695236206 0.5954723358154297
vt 0.5636149644851685 0.5954011678695679
vt 0.6157622933387756 0.5954723358154297
vt 0.5636149644851685 0.5954011678695679
vt 0.511467695236206 0.5954723358154297
vt 0.5636149644851685 0.5954011678695679
vt 0.5636149644851685 0.6232905387878418
vt 0.5636149644851685 0.6232905387878418
vt 0.5636149644851685 0.6232905387878418
vt 0.5037781000137329 0.6233315467834473
vt 0.623451828956604 0.6233315467834473
vt 0.5605871081352234 0.5111392140388489
vt 0.5656454563140869 0.5111391544342041
vt 0.5657216906547546 0.5111392140388489
vt 0.5606257319450378 0.5110553503036499
vt 0.5605871081352234 0.5111392140388489
vt 0.5605871677398682 0.5111392140388489
vt 0.5656548142433167 0.511055588722229
vt 0.5657216906547546 0.5111392140388489
vt 0.5657216906547546 0.5111392140388489
vt 0.5606257915496826 0.5110553503036499
vt 0.5605871677398682 0.5111392140388489
vt 0.5605871677398682 0.5111392140388489
vt 0.5656548142433167 0.511055588722229
vt 0.5657216906547546 0.5111392140388489
vt 0.5656454563140869 0.5111391544342041
vt 0.5656166672706604 0.511055588722229
vt 0.5606257915496826 0.5110553503036499
vt 0.5605871677398682 0.5111392140388489
vt 0.5606643557548523 0.5109714865684509
vt 0.5655879378318787 0.5109719634056091
vt 0.5656166672706604 0.511055588722229
vt 0.5656166672706604 0.511055588722229
vt 0.5606257319450378 0.5110553503036499
vt 0.5606643557548523 0.5109714865684509
vt 0.5655879378318787 0.5109719634056091
vt 0.5606643557548523 0.5109714865684509
vt 0.5606257319450378 0.5110553503036499
vt 0.5606257319450378 0.5110553503036499
vt 0.5656548142433167 0.511055588722229
vt 0.5655879378318787 0.5109719634056091
vt 0.5606644153594971 0.5109714865684509
vt 0.5655879378318787 0.5109719634056091
vt 0.5656548142433167 0.511055588722229
vt 0.5656548142433167 0.511055588722229
vt 0.5606257915496826 0.5110553503036499
vt 0.5606644153594971 0.5109714865684509
vt 0.5655879378318787 0.5109719634056091
vt 0.5606644153594971 0.5109714865684509
vt 0.5606257915496826 0.5110553503036499
vt 0.5606257915496826 0.5110553503036499
vt 0.5656548142433167 0.511055588722229
vt 0.5655879378318787 0.5109719634056091
vt 0.5606644153594971 0.5109714865684509
vt 0.5655879378318787 0.5109719634056091
vt 0.5656548142433167 0.511055588722229
vt 0.5656548142433167 0.511055588722229
vt 0.5606257915496826 0.5110553503036499
vt 0.5606644153594971 0.5109714865684509
vt 0.5655879378318787 0.5109719634056091
vt 0.5606644153594971 0.5109714865684509
vt 0.5606257915496826 0.5110553503036499
vt 0.5606257915496826 0.5110553503036499
vt 0.5656166672706604 0.511055588722229
vt 0.5655879378318787 0.5109719634056091
vn 0.19990673661231995 -5.356521342037013e-07 0.9798149466514587
vn -0.042126670479774475 0.6021870374679565 0.7972428202629089
vn -0.29622936248779297 0.4705142676830292 0.831182599067688
vn -0.543017566204071 0.26492783427238464 0.7968344688415527
vn -0.5559858679771423 -0.021176297217607498 0.8309219479560852
vn -0.500868022441864 -0.3376902639865875 0.7969294190406799
vn -0.2593784034252167 -0.4916180670261383 0.8312848806381226
vn 0.04200826957821846 -0.6019467711448669 0.7974305152893066
vn 0.29569876194000244 -0.469577819108963 0.8319007754325867
vn 0.5418667793273926 -0.26427939534187317 0.7978325486183167
vn 0.5541294813156128 0.02140052430331707 0.8321553468704224
vn 0.4998800754547119 0.337240606546402 0.7977398633956909
vn 0.2588011622428894 0.49105069041252136 0.8317999839782715
vn -0.00950314849615097 0.9034201502799988 0.42865103483200073
vn -0.4599401354789734 0.7776331901550293 0.4286510646343231
vn -0.7871364951133728 0.44347989559173584 0.4286510646343231
vn -0.9034203290939331 -0.009503234177827835 0.4286509156227112
vn -0.7776336669921875 -0.4599398374557495 0.42865076661109924
vn -0.4434801936149597 -0.7871364951133728 0.42865073680877686
vn 0.009503121487796307 -0.9034203886985779 0.42865055799484253
vn 0.4599398076534271 -0.777633547782898 0.42865070700645447
vn 0.7871363759040833 -0.4434801936149597 0.42865094542503357
vn 0.9034201502799988 0.009502943605184555 0.4286510646343231
vn 0.7776334285736084 0.4599396586418152 0.4286510944366455
vn 0.44348037242889404 0.7871361970901489 0.4286511540412903
vn -0.5750615000724792 -0.8181101679801941 8.587090860601165e-08
vn -0.08896227180957794 -0.996035099029541 1.3531172271541436e-07
vn 0.4209733307361603 -0.9070730209350586 8.847305821291229e-08
vn 0.8181104063987732 -0.5750613808631897 1.431181999578257e-07
vn 0.9960349798202515 -0.08896257728338242 9.107520781981293e-08
vn 0.9070729613304138 0.42097344994544983 -3.643008739118159e-08
vn -0.2309623658657074 0.17454774677753448 0.9571778774261475
vn -0.26666367053985596 -0.11233872175216675 0.957220196723938
vn -0.03603608161211014 -0.28538715839385986 0.9577347040176392
vn 0.22800010442733765 -0.17282526195049286 0.9582000970840454
vn 0.26365116238594055 0.11143993586301804 0.9581593871116638
vn 0.0353187657892704 0.28575655817985535 0.9576511979103088
vn 0.0655207633972168 0.12282980978488922 0.9902626276016235
vn 0.021777139976620674 -0.04430525377392769 0.9987806677818298
vn 0.1443832814693451 -0.17203262448310852 0.974452793598175
vn 0.32756805419921875 -0.13257035613059998 0.9354807734489441
vn 0.3796483874320984 0.049161966890096664 0.9238237142562866
vn 0.24032622575759888 0.17691317200660706 0.9544345140457153
vn -0.2588183581829071 0.9659257531166077 -0.0007105689728632569
vn -0.2588183581829071 0.9659257531166077 -0.0007105689728632569
vn -0.9643515944480896 0.25839826464653015 -0.05706411600112915
vn -0.7066367268562317 -0.7066358923912048 -0.03647223114967346
vn 0.2586056590080261 -0.9651304483413696 0.04057742655277252
vn 0.9614078998565674 -0.25760939717292786 0.09660351276397705
vn -0.9070730209350586 -0.42097359895706177 -7.286018188779053e-08
vn -6.5398726434295895e-09 -2.7467466523489747e-08 -1.0
vn -0.04232937470078468 0.6017049551010132 -0.7975959777832031
vn -0.3375108242034912 0.4999270439147949 -0.7975961565971375
vn -0.5422564744949341 0.2641940116882324 -0.7975960373878479
vn -0.6017050743103027 -0.04232928156852722 -0.7975959181785583
vn -0.49992725253105164 -0.33751046657562256 -0.7975960373878479
vn -0.2641940712928772 -0.5422562956809998 -0.7975961565971375
vn 0.04232918471097946 -0.601705014705658 -0.7975959777832031
vn 0.3375105857849121 -0.4999270737171173 -0.7975960969924927
vn 0.5422562956809998 -0.26419416069984436 -0.7975960969924927
vn 0.6017048954963684 0.04232918471097946 -0.7975960373878479
vn 0.499927282333374 0.3375103771686554 -0.7975960373878479
vn 0.2641943693161011 0.5422562956809998 -0.7975960373878479
vn -0.00950312614440918 0.9034201502799988 -0.4286513030529022
vn -0.45994001626968384 0.7776331901550293 -0.4286511540412903
vn -0.7871364951133728 0.4434800446033478 -0.42865118384361267
vn -0.9034202098846436 -0.009503206238150597 -0.42865094542503357
vn -0.7776336669921875 -0.45993971824645996 -0.4286505877971649
vn -0.44348031282424927 -0.7871364951133728 -0.4286505877971649
vn 0.009503131732344627 -0.9034205079078674 -0.4286503493785858
vn 0.4599398076534271 -0.7776336669921875 -0.42865049839019775
vn 0.7871363759040833 -0.44348034262657166 -0.42865079641342163
vn 0.9034201502799988 0.009502938948571682 -0.42865103483200073
vn 0.7776334881782532 0.459939569234848 -0.4286510944366455
vn 0.4434804618358612 0.7871361970901489 -0.4286513030529022
vn -0.4209737479686737 0.9070728421211243 -2.0556980473429576e-07
vn -0.996035099029541 0.08896229416131973 -1.1709671809967404e-07
vn 0.575061559677124 0.8181101679801941 -7.806448110159181e-08
vn -0.818110466003418 0.5750611424446106 -1.431181999578257e-07
vn 0.08896244317293167 0.9960349798202515 -1.405160787726345e-07
vn -0.2588183581829071 0.9659257531166077 -0.0007105689728632569
vn -0.2588183879852295 0.9659257531166077 -0.0007105582044459879
vn -0.9643515944480896 0.25839826464653015 -0.05706411600112915
vn -0.9643515944480896 0.25839826464653015 -0.05706411600112915
vn -0.9643515944480896 0.25839826464653015 -0.05706411972641945
vn -0.7066367268562317 -0.7066358923912048 -0.03647223114967346
vn -0.7066367268562317 -0.7066358923912048 -0.03647223114967346
vn -0.7066367864608765 -0.7066358327865601 -0.03647227957844734
vn 0.2586056590080261 -0.9651304483413696 0.04057742655277252
vn 0.2586056590080261 -0.9651304483413696 0.04057742655277252
vn 0.2586056888103485 -0.9651304483413696 0.040577422827482224
vn 0.9614078998565674 -0.25760939717292786 0.09660351276397705
vn 0.9614078998565674 -0.25760939717292786 0.09660351276397705
vn 0.9614079594612122 -0.25760918855667114 0.09660357236862183
vn 0.7050526142120361 0.7050518989562988 0.07617483288049698
vn 0.7050526142120361 0.7050518989562988 0.07617483288049698
vn 0.7050526142120361 0.7050518989562988 0.07617483288049698
vn 0.7050528526306152 0.7050517797470093 0.07617480307817459
vn -0.28206342458724976 0.9583156704902649 -0.045511554926633835
vn -0.28206342458724976 0.9583156704902649 -0.045511554926633835
vn -0.28206342458724976 0.9583156704902649 -0.045511554926633835
vn -0.25858229398727417 0.9650441408157349 -0.042719993740320206
vn -0.25858229398727417 0.9650441408157349 -0.042719993740320206
vn -0.25858229398727417 0.9650441408157349 -0.042719993740320206
vn -0.9594370722770691 0.24810002744197845 0.13389204442501068
vn -0.9594370722770691 0.24810002744197845 0.13389204442501068
vn -0.9594370722770691 0.24810002744197845 0.13389204442501068
vn -0.9569087028503418 0.2564033269882202 0.13631975650787354
vn -0.9569087028503418 0.2564033269882202 0.13631975650787354
vn -0.9569087028503418 0.2564033269882202 0.13631975650787354
vn -0.7198852300643921 -0.6900568008422852 0.07474542409181595
vn -0.7198852300643921 -0.6900568008422852 0.07474542409181595
vn -0.7198852300643921 -0.6900568008422852 0.07474542409181595
vn -0.7056873440742493 -0.7056865096092224 0.06333990395069122
vn -0.7056873440742493 -0.7056865096092224 0.06333990395069122
vn -0.7056873440742493 -0.7056865096092224 0.06333990395069122
vn 0.23970095813274384 -0.9558701515197754 -0.16986969113349915
vn 0.23970095813274384 -0.9558701515197754 -0.16986969113349915
vn 0.23970095813274384 -0.9558701515197754 -0.16986969113349915
vn 0.2546105980873108 -0.9502205848693848 -0.17959478497505188
vn 0.2546105980873108 -0.9502205848693848 -0.17959478497505188
vn 0.2546105980873108 -0.9502205848693848 -0.17959478497505188
vn 0.9106540679931641 -0.24548287689685822 -0.3323362171649933
vn 0.9106540679931641 -0.24548287689685822 -0.3323362171649933
vn 0.9106540679931641 -0.24548287689685822 -0.3323362171649933
vn 0.910820722579956 -0.24405322968959808 -0.33293190598487854
vn 0.910820722579956 -0.24405322968959808 -0.33293190598487854
vn 0.910820722579956 -0.24405322968959808 -0.33293190598487854
vn 0.6741998791694641 0.684123158454895 -0.278262734413147
vn 0.6741998791694641 0.684123158454895 -0.278262734413147
vn 0.6741998791694641 0.684123158454895 -0.278262734413147
vn 0.6794607639312744 0.6794585585594177 -0.2768920361995697
vn 0.6794607639312744 0.6794585585594177 -0.2768920361995697
vn 0.6794607639312744 0.6794585585594177 -0.2768920361995697
f 75/75/75 64/64/64 80/80/80
f 80/80/80 78/78/78 75/75/75
f 74/74/74 75/75/75 78/78/78
f 78/78/78 31/31/31 74/74/74
f 73/73/73 74/74/74 31/31/31
f 31/31/31 30/30/30 73/73/73
f 72/72/72 73/73/73 30/30/30
f 30/30/30 29/29/29 72/72/72
f 71/71/71 72/72/72 29/29/29
f 29/29/29 28/28/28 71/71/71
f 70/70/70 71/71/71 28/28/28
f 28/28/28 27/27/27 70/70/70
f 69/69/69 70/70/70 27/27/27
f 27/27/27 26/26/26 69/69/69
f 68/68/68 69/69/69 26/26/26
f 26/26/26 50/50/50 68/68/68
f 67/67/67 68/68/68 50/50/50
f 50/50/50 77/77/77 67/67/67
f 66/66/66 67/67/67 77/77/77
f 77/77/77 79/79/79 66/66/66
f 65/65/65 66/66/66 79/79/79
f 79/79/79 76/76/76 65/65/65
f 64/64/64 65/65/65 76/76/76
f 76/76/76 80/80/80 64/64/64
f 63/63/63 52/52/52 64/64/64
f 64/64/64 75/75/75 63/63/63
f 62/62/62 63/63/63 75/75/75
f 75/75/75 74/74/74 62/62/62
f 61/61/61 62/62/62 74/74/74
f 74/74/74 73/73/73 61/61/61
f 60/60/60 61/61/61 73/73/73
f 73/73/73 72/72/72 60/60/60
f 59/59/59 60/60/60 72/72/72
f 72/72/72 71/71/71 59/59/59
f 58/58/58 59/59/59 71/71/71
f 71/71/71 70/70/70 58/58/58
f 57/57/57 58/58/58 70/70/70
f 70/70/70 69/69/69 57/57/57
f 56/56/56 57/57/57 69/69/69
f 69/69/69 68/68/68 56/56/56
f 55/55/55 56/56/56 68/68/68
f 68/68/68 67/67/67 55/55/55
f 54/54/54 55/55/55 67/67/67
f 67/67/67 66/66/66 54/54/54
f 53/53/53 54/54/54 66/66/66
f 66/66/66 65/65/65 53/53/53
f 52/52/52 53/53/53 65/65/65
f 65/65/65 64/64/64 52/52/52
f 51/51/51 52/52/52 63/63/63
f 51/51/51 63/63/63 62/62/62
f 51/51/51 62/62/62 61/61/61
f 51/51/51 61/61/61 60/60/60
f 51/51/51 60/60/60 59/59/59
f 51/51/51 59/59/59 58/58/58
f 51/51/51 58/58/58 57/57/57
f 51/51/51 57/57/57 56/56/56
f 51/51/51 56/56/56 55/55/55
f 51/51/51 55/55/55 54/54/54
f 51/51/51 54/54/54 53/53/53
f 51/51/51 53/53/53 52/52/52
f 132/132/132 133/133/133 134/134/134
f 129/129/129 130/130/130 131/131/131
f 126/126/126 127/127/127 128/128/128
f 123/123/123 124/124/124 125/125/125
f 120/120/120 121/121/121 122/122/122
f 117/117/117 118/118/118 119/119/119
f 114/114/114 115/115/115 116/116/116
f 111/111/111 112/112/112 113/113/113
f 108/108/108 109/109/109 110/110/110
f 105/105/105 106/106/106 107/107/107
f 102/102/102 103/103/103 104/104/104
f 99/99/99 100/100/100 101/101/101
f 97/97/97 98/98/98 95/95/95
f 95/95/95 96/96/96 97/97/97
f 93/93/93 94/94/94 92/92/92
f 92/92/92 49/49/49 93/93/93
f 90/90/90 91/91/91 89/89/89
f 89/89/89 48/48/48 90/90/90
f 87/87/87 88/88/88 86/86/86
f 86/86/86 47/47/47 87/87/87
f 84/84/84 85/85/85 83/83/83
f 83/83/83 46/46/46 84/84/84
f 44/44/44 82/82/82 81/81/81
f 81/81/81 45/45/45 44/44/44
f 37/37/37 13/13/13 2/2/2
f 36/36/36 12/12/12 13/13/13
f 13/13/13 37/37/37 36/36/36
f 36/36/36 11/11/11 12/12/12
f 35/35/35 10/10/10 11/11/11
f 11/11/11 36/36/36 35/35/35
f 35/35/35 9/9/9 10/10/10
f 34/34/34 8/8/8 9/9/9
f 9/9/9 35/35/35 34/34/34
f 34/34/34 7/7/7 8/8/8
f 33/33/33 6/6/6 7/7/7
f 7/7/7 34/34/34 33/33/33
f 33/33/33 5/5/5 6/6/6
f 32/32/32 4/4/4 5/5/5
f 5/5/5 33/33/33 32/32/32
f 32/32/32 3/3/3 4/4/4
f 37/37/37 2/2/2 3/3/3
f 3/3/3 32/32/32 37/37/37
f 25/25/25 78/78/78 80/80/80
f 80/80/80 14/14/14 25/25/25
f 24/24/24 31/31/31 78/78/78
f 78/78/78 25/25/25 24/24/24
f 23/23/23 30/30/30 31/31/31
f 31/31/31 24/24/24 23/23/23
f 22/22/22 29/29/29 30/30/30
f 30/30/30 23/23/23 22/22/22
f 21/21/21 28/28/28 29/29/29
f 29/29/29 22/22/22 21/21/21
f 20/20/20 27/27/27 28/28/28
f 28/28/28 21/21/21 20/20/20
f 19/19/19 26/26/26 27/27/27
f 27/27/27 20/20/20 19/19/19
f 18/18/18 50/50/50 26/26/26
f 26/26/26 19/19/19 18/18/18
f 17/17/17 77/77/77 50/50/50
f 50/50/50 18/18/18 17/17/17
f 16/16/16 79/79/79 77/77/77
f 77/77/77 17/17/17 16/16/16
f 15/15/15 76/76/76 79/79/79
f 79/79/79 16/16/16 15/15/15
f 14/14/14 80/80/80 76/76/76
f 76/76/76 15/15/15 14/14/14
f 13/13/13 25/25/25 14/14/14
f 14/14/14 2/2/2 13/13/13
f 12/12/12 24/24/24 25/25/25
f 25/25/25 13/13/13 12/12/12
f 11/11/11 23/23/23 24/24/24
f 24/24/24 12/12/12 11/11/11
f 10/10/10 22/22/22 23/23/23
f 23/23/23 11/11/11 10/10/10
f 9/9/9 21/21/21 22/22/22
f 22/22/22 10/10/10 9/9/9
f 8/8/8 20/20/20 21/21/21
f 21/21/21 9/9/9 8/8/8
f 7/7/7 19/19/19 20/20/20
f 20/20/20 8/8/8 7/7/7
f 6/6/6 18/18/18 19/19/19
f 19/19/19 7/7/7 6/6/6
f 5/5/5 17/17/17 18/18/18
f 18/18/18 6/6/6 5/5/5
f 4/4/4 16/16/16 17/17/17
f 17/17/17 5/5/5 4/4/4
f 3/3/3 15/15/15 16/16/16
f 16/16/16 4/4/4 3/3/3
f 2/2/2 14/14/14 15/15/15
f 15/15/15 3/3/3 2/2/2
f 1/1/1 42/42/42 43/43/43
f 1/1/1 41/41/41 42/42/42
f 1/1/1 40/40/40 41/41/41
f 1/1/1 39/39/39 40/40/40
f 1/1/1 38/38/38 39/39/39
f 1/1/1 43/43/43 38/38/38
