# Recovered local-space geometry; original node transforms not applied
o mesh_0
v 1.3323889547223189e-08 1.3487369869835675e-06 -0.02599334716796875
v 20.075424194335938 -35.46689224243164 0.16688209772109985
v 4.4779244490200654e-07 -41.63886642456055 0.21474498510360718
v 13.655129432678223 -24.487070083618164 -43.371891021728516
v 23.854564666748047 -14.195037841796875 -43.32622528076172
v 27.58110237121582 6.780463081668131e-06 -43.31611633300781
v 21.5202693939209 -38.35087585449219 -15.393065452575684
v 19.721235275268555 -35.39808654785156 -30.920347213745117
v 37.45596694946289 -22.134937286376953 -15.393522262573242
v 34.3224983215332 -20.429752349853516 -30.91206169128418
v 43.251094818115234 7.197311333584366e-06 -15.39377212524414
v 39.62831497192383 6.133699571364559e-06 -30.911672592163086
v 13.655126571655273 24.48709487915039 -43.371883392333984
v 23.854564666748047 14.195046424865723 -43.32621765136719
v 21.520259857177734 38.35087203979492 -15.393062591552734
v 19.72123908996582 35.39808654785156 -30.920331954956055
v 37.45595932006836 22.134963989257812 -15.39352035522461
v 34.3224983215332 20.429759979248047 -30.91205406188965
v 2.2449770767707378e-05 29.83090591430664 -43.02332305908203
v 2.2387175704352558e-05 -29.83090591430664 -43.02332305908203
v 8.946090929384809e-06 -44.60896301269531 -15.39802074432373
v 1.656165113672614e-05 -41.35380172729492 -30.74199676513672
v -13.655083656311035 -24.487070083618164 -43.37189865112305
v -23.854516983032227 -14.195038795471191 -43.326255798339844
v -27.5810546875 6.749907697667368e-06 -43.31614685058594
v -21.520263671875 -38.35087203979492 -15.39306640625
v -19.72119903564453 -35.39808654785156 -30.92037010192871
v -37.455936431884766 -22.134937286376953 -15.393522262573242
v -34.32248306274414 -20.429752349853516 -30.912099838256836
v -43.25106430053711 6.915273843333125e-06 -15.39377212524414
v -39.628299713134766 6.070704330340959e-06 -30.911710739135742
v -13.655080795288086 24.48709487915039 -43.371891021728516
v -23.854516983032227 14.195047378540039 -43.32624816894531
v -21.520254135131836 38.35087203979492 -15.393062591552734
v -19.721202850341797 35.39808654785156 -30.920358657836914
v -37.455928802490234 22.134963989257812 -15.39352035522461
v -34.32248306274414 20.429759979248047 -30.912092208862305
v 2.6816254830919206e-05 6.65893003315432e-06 -50.25019073486328
v 1.6497766409884207e-05 41.353824615478516 -30.74199676513672
v 8.851320671965368e-06 44.60894012451172 -15.398016929626465
v -20.075424194335938 -35.46689224243164 0.16686105728149414
v -34.94186782836914 -20.460315704345703 0.028032124042510986
v -40.40701675415039 4.671470378525555e-06 -0.08446310460567474
v -20.075414657592773 35.46687698364258 0.16686543822288513
v -34.941856384277344 20.460323333740234 0.028029203414916992
v 34.941864013671875 -20.460315704345703 0.02805766835808754
v 40.407020568847656 4.628225724445656e-06 -0.08442960679531097
v 20.075414657592773 35.46687698364258 0.16688624024391174
v 34.94186019897461 20.460323333740234 0.028055723756551743
v 2.386143478361191e-07 41.63884353637695 0.21474498510360718
v 16.583921432495117 -29.5948486328125 -0.014356637373566628
v 29.01681137084961 -17.006202697753906 -0.014351747930049896
v 33.52802276611328 2.7833477815875085e-06 -0.014350739307701588
v 16.583913803100586 29.5948543548584 -0.014354391023516655
v 29.016803741455078 17.00621223449707 -0.014352912083268166
v -16.583925247192383 -29.5948486328125 -0.014367038384079933
v -29.016815185546875 -17.006202697753906 -0.014365657232701778
v -33.52802276611328 2.7833473268401576e-06 -0.014367830008268356
v -16.58391761779785 29.5948543548584 -0.01436479203402996
v -29.016807556152344 17.00621223449707 -0.014366821385920048
v 4.289975947813218e-07 -34.87531280517578 -0.01644202321767807
v 4.289974810944841e-07 34.87529754638672 -0.016440499573946
v 11.991703987121582 -21.90213394165039 -38.219112396240234
v 21.1131649017334 -12.645203590393066 -38.21910095214844
v 24.415605545043945 5.2221639634808525e-06 -38.219093322753906
v 18.44550323486328 -33.2005729675293 -15.473457336425781
v 16.97501564025879 -30.849184036254883 -28.13363265991211
v 32.24116134643555 -19.168350219726562 -15.473456382751465
v 29.694196701049805 -17.810779571533203 -28.13361930847168
v 37.25118637084961 5.914498615311459e-06 -15.473456382751465
v 34.31019592285156 5.472249540616758e-06 -28.133615493774414
v 11.991700172424316 21.902151107788086 -38.219112396240234
v 21.1131649017334 12.645212173461914 -38.219093322753906
v 18.44549560546875 33.20056915283203 -15.473454475402832
v 16.97501564025879 30.849185943603516 -28.133625030517578
v 32.241153717041016 19.168371200561523 -15.473454475402832
v 29.694196701049805 17.8107852935791 -28.13361167907715
v 2.0308096281951293e-05 26.55133056640625 -37.998939514160156
v 2.0308098100940697e-05 -26.551326751708984 -37.99894714355469
v 8.858757610141765e-06 -38.60899353027344 -15.478313446044922
v 1.51322346937377e-05 -35.988670349121094 -28.05584716796875
v -11.99166202545166 -21.90213394165039 -38.219120025634766
v -21.113122940063477 -12.645203590393066 -38.21913146972656
v -24.415563583374023 5.2221639634808525e-06 -38.21912384033203
v -18.44549560546875 -33.2005729675293 -15.473457336425781
v -16.974985122680664 -30.849184036254883 -28.133647918701172
v -32.24113845825195 -19.168350219726562 -15.473457336425781
v -29.69416618347168 -17.810779571533203 -28.1336612701416
v -37.251163482666016 5.914496341574704e-06 -15.473455429077148
v -34.3101806640625 5.472249540616758e-06 -28.133657455444336
v -11.991658210754395 21.902151107788086 -38.219120025634766
v -21.113122940063477 12.645212173461914 -38.21912384033203
v -18.44548797607422 33.20056915283203 -15.473454475402832
v -16.974985122680664 30.849185943603516 -28.13364028930664
v -32.24113082885742 19.168371200561523 -15.473455429077148
v -29.69416618347168 17.8107852935791 -28.13365364074707
v 2.3562173737445846e-05 6.062164175091311e-06 -44.25019073486328
v 1.5132238331716508e-05 35.98869323730469 -28.055858612060547
v 8.85876033862587e-06 38.608970642089844 -15.478309631347656
v 38.54413986206055 -15.456783294677734 -15.543120384216309
v 25.921916961669922 -15.456787109375 -19.24056625366211
v 26.366100311279297 -13.282035827636719 -20.75689697265625
v 38.98832321166992 -13.282035827636719 -17.0594482421875
v 24.704069137573242 0.06992340087890625 -15.083128929138184
v 37.3262825012207 0.06992340087890625 -11.385683059692383
v 38.988304138183594 13.421882629394531 -17.0594482421875
v 26.36609649658203 13.421882629394531 -20.75689697265625
v 25.921913146972656 15.596626281738281 -19.24056625366211
v 38.54413986206055 15.596633911132812 -15.543120384216309
v 21.838539123535156 14.099800109863281 -5.300902366638184
v 34.46076202392578 14.099800109863281 -1.603449821472168
v 21.838546752929688 -13.959949493408203 -5.300902366638184
v 34.46076202392578 -13.959945678710938 -1.603450059890747
v 38.94195556640625 -12.971012115478516 -12.242913246154785
v 39.31501770019531 -11.144432067871094 -13.516489028930664
v 39.31500244140625 11.284278869628906 -13.516485214233398
v 38.94194412231445 13.110862731933594 -12.242913246154785
v 38.94195556640625 -12.971012115478516 -12.242913246154785
v 39.31501770019531 -11.144432067871094 -13.516489028930664
v 37.8133659362793 0.06992340087890625 -8.390222549438477
v -38.54413604736328 15.456790924072266 -15.543120384216309
v -25.92191505432129 15.456790924072266 -19.24056625366211
v -26.366098403930664 13.282039642333984 -20.75689697265625
v -38.988319396972656 13.28204345703125 -17.0594482421875
v -24.704069137573242 -0.06992340087890625 -15.083128929138184
v -37.3262825012207 -0.069915771484375 -11.385683059692383
v -38.988304138183594 -13.421875 -17.0594482421875
v -26.366098403930664 -13.421875 -20.75689697265625
v -25.92191505432129 -15.59661865234375 -19.24056625366211
v -38.54413986206055 -15.596626281738281 -15.543120384216309
v -21.83854103088379 -14.099800109863281 -5.300902366638184
v -34.46076202392578 -14.09979248046875 -1.603449821472168
v -21.838544845581055 13.959953308105469 -5.300902366638184
v -34.460758209228516 13.959949493408203 -1.603450059890747
v -38.941951751708984 12.971019744873047 -12.242913246154785
v -39.31501388549805 11.144439697265625 -13.516489028930664
v -37.8133659362793 -0.069915771484375 -8.390222549438477
v -39.31500244140625 -11.284271240234375 -13.516485214233398
v -38.94194412231445 -13.110855102539062 -12.242913246154785
v -38.941951751708984 12.971019744873047 -12.242913246154785
v -39.31501388549805 11.144439697265625 -13.516489028930664
v -39.31500244140625 -11.284271240234375 -13.516485214233398
v -38.94194412231445 -13.110855102539062 -12.242913246154785
v 35.31370544433594 -11.176521301269531 -0.0035707447677850723
v 35.83177185058594 0.06992340087890625 -0.0035816291347146034
v 35.31370544433594 11.316368103027344 -0.0035697724670171738
v 20.331405639648438 -18.755008697509766 -0.003559095785021782
v 33.13848114013672 -15.579048156738281 -0.003558957017958164
v 20.331401824951172 18.89484405517578 -0.003557472489774227
v 33.13848114013672 15.718887329101562 -0.003557611256837845
v -35.31370162963867 11.176525115966797 -0.0035697761923074722
v -35.83177185058594 -0.069915771484375 -0.003581632860004902
v -35.31370544433594 -11.316360473632812 -0.0035707494243979454
v -20.331403732299805 18.75501251220703 -0.0035574771463871002
v -33.13847732543945 15.579051971435547 -0.003557617776095867
v -20.331405639648438 -18.89484405517578 -0.0035591041669249535
v -33.13848114013672 -15.718879699707031 -0.0035589653998613358
v 16.583921432495117 -29.5948486328125 -0.014356637373566628
v 29.01681137084961 -17.006202697753906 -0.014351747930049896
v 16.583913803100586 29.5948543548584 -0.014354391023516655
v 33.52802276611328 2.7833477815875085e-06 -0.014350739307701588
v 29.016803741455078 17.00621223449707 -0.014352912083268166
v 4.289975947813218e-07 -34.87531280517578 -0.01644202321767807
v -16.583925247192383 -29.5948486328125 -0.014367038384079933
v -29.016815185546875 -17.006202697753906 -0.014365657232701778
v 4.289974810944841e-07 34.87529754638672 -0.016440499573946
v -16.58391761779785 29.5948543548584 -0.01436479203402996
v -29.016807556152344 17.00621223449707 -0.014366821385920048
v -33.52802276611328 2.7833473268401576e-06 -0.014367830008268356
v 16.583921432495117 -29.5948486328125 -0.014356637373566628
v 4.289975947813218e-07 -34.87531280517578 -0.01644202321767807
v 29.01681137084961 -17.006202697753906 -0.014351747930049896
v 33.52802276611328 2.7833477815875085e-06 -0.014350739307701588
v 16.583913803100586 29.5948543548584 -0.014354391023516655
v 4.289974810944841e-07 34.87529754638672 -0.016440499573946
v 29.016803741455078 17.00621223449707 -0.014352912083268166
v -16.583925247192383 -29.5948486328125 -0.014367038384079933
v -29.016815185546875 -17.006202697753906 -0.014365657232701778
v -33.52802276611328 2.7833473268401576e-06 -0.014367830008268356
v -16.58391761779785 29.5948543548584 -0.01436479203402996
v -29.016807556152344 17.00621223449707 -0.014366821385920048
v 26.366100311279297 -13.282035827636719 -20.75689697265625
v 38.98832321166992 -13.282035827636719 -17.0594482421875
v 25.921913146972656 15.596626281738281 -19.24056625366211
v 38.54413986206055 15.596633911132812 -15.543120384216309
v 25.921916961669922 -15.456787109375 -19.24056625366211
v 38.54413986206055 -15.456783294677734 -15.543120384216309
v 26.36609649658203 13.421882629394531 -20.75689697265625
v 38.988304138183594 13.421882629394531 -17.0594482421875
v 37.3262825012207 0.06992340087890625 -11.385683059692383
v 24.704069137573242 0.06992340087890625 -15.083128929138184
v 38.54413986206055 -15.456783294677734 -15.543120384216309
v 38.98832321166992 -13.282035827636719 -17.0594482421875
v 39.31501770019531 -11.144432067871094 -13.516489028930664
v 38.98832321166992 -13.282035827636719 -17.0594482421875
v 37.3262825012207 0.06992340087890625 -11.385683059692383
v 37.3262825012207 0.06992340087890625 -11.385683059692383
v 39.31501770019531 -11.144432067871094 -13.516489028930664
v 38.988304138183594 13.421882629394531 -17.0594482421875
v 38.54413986206055 15.596633911132812 -15.543120384216309
v 38.94194412231445 13.110862731933594 -12.242913246154785
v 38.54413986206055 15.596633911132812 -15.543120384216309
v 34.46076202392578 14.099800109863281 -1.603449821472168
v 34.46076202392578 14.099800109863281 -1.603449821472168
v 38.94194412231445 13.110862731933594 -12.242913246154785
v 34.46076202392578 -13.959945678710938 -1.603450059890747
v 38.54413986206055 -15.456783294677734 -15.543120384216309
v 38.54413986206055 -15.456783294677734 -15.543120384216309
v 38.94195556640625 -12.971012115478516 -12.242913246154785
v 35.31370544433594 -11.176521301269531 -0.0035707447677850723
v 37.8133659362793 0.06992340087890625 -8.390222549438477
v 37.3262825012207 0.06992340087890625 -11.385683059692383
v 38.988304138183594 13.421882629394531 -17.0594482421875
v 38.988304138183594 13.421882629394531 -17.0594482421875
v 39.31500244140625 11.284278869628906 -13.516485214233398
v 37.8133659362793 0.06992340087890625 -8.390222549438477
v 35.31370544433594 11.316368103027344 -0.0035697724670171738
v 34.46076202392578 14.099800109863281 -1.603449821472168
v 37.8133659362793 0.06992340087890625 -8.390222549438477
v 37.8133659362793 0.06992340087890625 -8.390222549438477
v 35.31370544433594 -11.176521301269531 -0.0035707447677850723
v 38.94195556640625 -12.971012115478516 -12.242913246154785
v 39.31500244140625 11.284278869628906 -13.516485214233398
v 38.94194412231445 13.110862731933594 -12.242913246154785
v 35.31370544433594 11.316368103027344 -0.0035697724670171738
v 35.31370544433594 11.316368103027344 -0.0035697724670171738
v 37.8133659362793 0.06992340087890625 -8.390222549438477
v 39.31500244140625 11.284278869628906 -13.516485214233398
v 35.31370544433594 -11.176521301269531 -0.0035707447677850723
v 37.8133659362793 0.06992340087890625 -8.390222549438477
v 35.83177185058594 0.06992340087890625 -0.0035816291347146034
v 37.8133659362793 0.06992340087890625 -8.390222549438477
v 35.31370544433594 11.316368103027344 -0.0035697724670171738
v 21.838546752929688 -13.959949493408203 -5.300902366638184
v 34.46076202392578 -13.959945678710938 -1.603450059890747
v 33.13848114013672 -15.579048156738281 -0.003558957017958164
v 21.838546752929688 -13.959949493408203 -5.300902366638184
v 33.13848114013672 15.718887329101562 -0.003557611256837845
v 34.46076202392578 14.099800109863281 -1.603449821472168
v 21.838539123535156 14.099800109863281 -5.300902366638184
v 21.838539123535156 14.099800109863281 -5.300902366638184
v 33.13848114013672 15.718887329101562 -0.003557611256837845
v 33.13848114013672 -15.579048156738281 -0.003558957017958164
v 34.46076202392578 -13.959945678710938 -1.603450059890747
v 35.31370544433594 -11.176521301269531 -0.0035707447677850723
v -26.366098403930664 13.282039642333984 -20.75689697265625
v -38.988319396972656 13.28204345703125 -17.0594482421875
v -25.92191505432129 -15.59661865234375 -19.24056625366211
v -38.54413986206055 -15.596626281738281 -15.543120384216309
v -25.92191505432129 15.456790924072266 -19.24056625366211
v -38.54413604736328 15.456790924072266 -15.543120384216309
v -26.366098403930664 -13.421875 -20.75689697265625
v -38.988304138183594 -13.421875 -17.0594482421875
v -37.3262825012207 -0.069915771484375 -11.385683059692383
v -24.704069137573242 -0.06992340087890625 -15.083128929138184
v -38.54413604736328 15.456790924072266 -15.543120384216309
v -38.988319396972656 13.28204345703125 -17.0594482421875
v -39.31501388549805 11.144439697265625 -13.516489028930664
v -38.988319396972656 13.28204345703125 -17.0594482421875
v -37.3262825012207 -0.069915771484375 -11.385683059692383
v -37.3262825012207 -0.069915771484375 -11.385683059692383
v -39.31501388549805 11.144439697265625 -13.516489028930664
v -38.988304138183594 -13.421875 -17.0594482421875
v -38.54413986206055 -15.596626281738281 -15.543120384216309
v -38.94194412231445 -13.110855102539062 -12.242913246154785
v -38.54413986206055 -15.596626281738281 -15.543120384216309
v -34.46076202392578 -14.09979248046875 -1.603449821472168
v -34.46076202392578 -14.09979248046875 -1.603449821472168
v -38.94194412231445 -13.110855102539062 -12.242913246154785
v -34.460758209228516 13.959949493408203 -1.603450059890747
v -38.54413604736328 15.456790924072266 -15.543120384216309
v -38.54413604736328 15.456790924072266 -15.543120384216309
v -38.941951751708984 12.971019744873047 -12.242913246154785
v -35.31370162963867 11.176525115966797 -0.0035697761923074722
v -37.8133659362793 -0.069915771484375 -8.390222549438477
v -37.3262825012207 -0.069915771484375 -11.385683059692383
v -38.988304138183594 -13.421875 -17.0594482421875
v -38.988304138183594 -13.421875 -17.0594482421875
v -39.31500244140625 -11.284271240234375 -13.516485214233398
v -37.8133659362793 -0.069915771484375 -8.390222549438477
v -35.31370544433594 -11.316360473632812 -0.0035707494243979454
v -34.46076202392578 -14.09979248046875 -1.603449821472168
v -37.8133659362793 -0.069915771484375 -8.390222549438477
v -37.8133659362793 -0.069915771484375 -8.390222549438477
v -35.31370162963867 11.176525115966797 -0.0035697761923074722
v -38.941951751708984 12.971019744873047 -12.242913246154785
v -35.31370544433594 -11.316360473632812 -0.0035707494243979454
v -35.31370544433594 -11.316360473632812 -0.0035707494243979454
v -37.8133659362793 -0.069915771484375 -8.390222549438477
v -39.31500244140625 -11.284271240234375 -13.516485214233398
v -35.31370162963867 11.176525115966797 -0.0035697761923074722
v -37.8133659362793 -0.069915771484375 -8.390222549438477
v -35.83177185058594 -0.069915771484375 -0.003581632860004902
v -37.8133659362793 -0.069915771484375 -8.390222549438477
v -35.31370544433594 -11.316360473632812 -0.0035707494243979454
v -21.838544845581055 13.959953308105469 -5.300902366638184
v -34.460758209228516 13.959949493408203 -1.603450059890747
v -33.13847732543945 15.579051971435547 -0.003557617776095867
v -21.838544845581055 13.959953308105469 -5.300902366638184
v -33.13848114013672 -15.718879699707031 -0.0035589653998613358
v -34.46076202392578 -14.09979248046875 -1.603449821472168
v -21.83854103088379 -14.099800109863281 -5.300902366638184
v -21.83854103088379 -14.099800109863281 -5.300902366638184
v -33.13848114013672 -15.718879699707031 -0.0035589653998613358
v -33.13847732543945 15.579051971435547 -0.003557617776095867
v -34.460758209228516 13.959949493408203 -1.603450059890747
v -35.31370162963867 11.176525115966797 -0.0035697761923074722
vt 0.6575449705123901 0.17961591482162476
vt 0.670937716960907 0.22320640087127686
vt 0.6712818145751953 0.2231426239013672
vt 0.6707554459571838 0.22403383255004883
vt 0.6705688834190369 0.22391796112060547
vt 0.6703557372093201 0.22386515140533447
vt 0.670977771282196 0.22348666191101074
vt 0.6709272265434265 0.2237619161605835
vt 0.6706497073173523 0.2234485149383545
vt 0.6706411242485046 0.2236689329147339
vt 0.6703189015388489 0.22343552112579346
vt 0.6703408360481262 0.22363018989562988
vt 0.6699149012565613 0.22396314144134521
vt 0.6701311469078064 0.2238774299621582
vt 0.6696529984474182 0.22350597381591797
vt 0.6697371602058411 0.22374248504638672
vt 0.6699870228767395 0.22345805168151855
vt 0.6700366139411926 0.22365546226501465
vt 0.6697306036949158 0.2241356372833252
vt 0.6708992123603821 0.22423267364501953
vt 0.6713324189186096 0.22354769706726074
vt 0.671212375164032 0.22392737865447998
vt 0.6707554459571838 0.22403383255004883
vt 0.6705688834190369 0.22391796112060547
vt 0.6703557372093201 0.22386515140533447
vt 0.670977771282196 0.22348666191101074
vt 0.6709272265434265 0.2237619161605835
vt 0.6706497073173523 0.2234485149383545
vt 0.6706411242485046 0.2236689329147339
vt 0.6703189015388489 0.22343552112579346
vt 0.6703408360481262 0.22363018989562988
vt 0.6699149012565613 0.22396314144134521
vt 0.6701311469078064 0.2238774299621582
vt 0.6696529984474182 0.22350597381591797
vt 0.6697371602058411 0.22374248504638672
vt 0.6699870228767395 0.22345805168151855
vt 0.6700366139411926 0.22365546226501465
vt 0.6702868342399597 0.22433733940124512
vt 0.6694319844245911 0.2238917350769043
vt 0.6692902445793152 0.22355186939239502
vt 0.6709391474723816 0.22320616245269775
vt 0.6706156730651855 0.22321581840515137
vt 0.6702972054481506 0.2232215404510498
vt 0.6696599721908569 0.22323691844940186
vt 0.6699804663658142 0.22323107719421387
vt 0.6706178784370422 0.22321605682373047
vt 0.6702998280525208 0.22322165966033936
vt 0.6696572303771973 0.22323644161224365
vt 0.6699826717376709 0.22323119640350342
vt 0.6693266034126282 0.2231684923171997
vt 0.6360213756561279 0.1267656683921814
vt 0.6360213756561279 0.1267656683921814
vt 0.6360213756561279 0.1267656683921814
vt 0.6793412566184998 0.1267656683921814
vt 0.6793412566184998 0.1267656683921814
vt 0.6793412566184998 0.1267656683921814
vt 0.6793412566184998 0.1267656683921814
vt 0.6793412566184998 0.1267656683921814
vt 0.6360213756561279 0.1267656683921814
vt 0.6360213756561279 0.1267656683921814
vt 0.6793412566184998 0.1267656683921814
vt 0.6360213756561279 0.1267656683921814
vt 0.4646018445491791 0.8574916124343872
vt 0.45446914434432983 0.8511961698532104
vt 0.44289419054985046 0.8483275771141052
vt 0.47667843103408813 0.8277736306190491
vt 0.4739277958869934 0.8427212834358215
vt 0.4588562548160553 0.8257002234458923
vt 0.4583919644355774 0.8376696705818176
vt 0.4408908486366272 0.8249965310096741
vt 0.4420861601829529 0.8355663418769836
vt 0.41895171999931335 0.8536465167999268
vt 0.4306977689266205 0.8489947319030762
vt 0.40472403168678284 0.828819751739502
vt 0.4092961251735687 0.8416640758514404
vt 0.42286816239356995 0.8262195587158203
vt 0.4255618453025818 0.8369358777999878
vt 0.4089387059211731 0.8630205392837524
vt 0.4724079966545105 0.8682876825332642
vt 0.49593785405158997 0.8310897946357727
vt 0.4894145429134369 0.8517096042633057
vt 0.4646018445491791 0.8574916124343872
vt 0.45446914434432983 0.8511961698532104
vt 0.44289419054985046 0.8483275771141052
vt 0.47667843103408813 0.8277736306190491
vt 0.4739277958869934 0.8427212834358215
vt 0.4588562548160553 0.8257002234458923
vt 0.4583919644355774 0.8376696705818176
vt 0.4408908486366272 0.8249965310096741
vt 0.4420861601829529 0.8355663418769836
vt 0.41895171999931335 0.8536465167999268
vt 0.4306977689266205 0.8489947319030762
vt 0.40472403168678284 0.828819751739502
vt 0.4092961251735687 0.8416640758514404
vt 0.42286816239356995 0.8262195587158203
vt 0.4255618453025818 0.8369358777999878
vt 0.4391484558582306 0.8739718794822693
vt 0.39272329211235046 0.8497700691223145
vt 0.3850271999835968 0.8313153982162476
vt 0.6677958369255066 0.21724814176559448
vt 0.6678486466407776 0.21728432178497314
vt 0.6678486466407776 0.21728575229644775
vt 0.6677958369255066 0.2172495722770691
vt 0.6678486466407776 0.21728044748306274
vt 0.6677958369255066 0.21724432706832886
vt 0.6677958369255066 0.2172495722770691
vt 0.6678486466407776 0.21728575229644775
vt 0.6678486466407776 0.21728438138961792
vt 0.6677958369255066 0.21724814176559448
vt 0.6678486466407776 0.21727138757705688
vt 0.6677958369255066 0.217235267162323
vt 0.6678486466407776 0.21727138757705688
vt 0.6677958369255066 0.217235267162323
vt 0.4556431770324707 0.8241734504699707
vt 0.45333731174468994 0.8259477615356445
vt 0.6677915453910828 0.21724659204483032
vt 0.6677915453910828 0.21724539995193481
vt 0.6677915453910828 0.21724539995193481
vt 0.6677915453910828 0.21724659204483032
vt 0.6677915453910828 0.2172418236732483
vt 0.6677958369255066 0.21724814176559448
vt 0.6678486466407776 0.21728432178497314
vt 0.6678486466407776 0.21728575229644775
vt 0.6677958369255066 0.2172495722770691
vt 0.6678486466407776 0.21728044748306274
vt 0.6677958369255066 0.21724432706832886
vt 0.6677958369255066 0.2172495722770691
vt 0.6678486466407776 0.21728575229644775
vt 0.6678486466407776 0.21728438138961792
vt 0.6677958369255066 0.21724814176559448
vt 0.6678486466407776 0.21727138757705688
vt 0.6677958369255066 0.217235267162323
vt 0.6678486466407776 0.21727138757705688
vt 0.6677958369255066 0.217235267162323
vt 0.4556431770324707 0.8241734504699707
vt 0.45333731174468994 0.8259477615356445
vt 0.6677915453910828 0.2172418236732483
vt 0.4250231683254242 0.8259477615356445
vt 0.42271727323532104 0.8241734504699707
vt 0.6677915453910828 0.21724539995193481
vt 0.6677915453910828 0.21724659204483032
vt 0.6677915453910828 0.21724659204483032
vt 0.6677915453910828 0.21724539995193481
vt 0.667791485786438 0.21723419427871704
vt 0.43919628858566284 0.8071609735488892
vt 0.6677915453910828 0.21723413467407227
vt 0.6678434610366821 0.21726304292678833
vt 0.6677960157394409 0.21723371744155884
vt 0.6678436994552612 0.2172631025314331
vt 0.6677958965301514 0.21723371744155884
vt 0.667791485786438 0.21723419427871704
vt 0.43919628858566284 0.8071609735488892
vt 0.6677915453910828 0.21723413467407227
vt 0.6678434610366821 0.21726304292678833
vt 0.6677960157394409 0.21723371744155884
vt 0.6678436994552612 0.2172631025314331
vt 0.6677958965301514 0.21723371744155884
vt 0.6793412566184998 0.1267656683921814
vt 0.6793412566184998 0.1267656683921814
vt 0.6360213756561279 0.1267656683921814
vt 0.6793412566184998 0.1267656683921814
vt 0.6360213756561279 0.1267656683921814
vt 0.6360213756561279 0.1267656683921814
vt 0.6360213756561279 0.1267656683921814
vt 0.6360213756561279 0.1267656683921814
vt 0.6793412566184998 0.1267656683921814
vt 0.6793412566184998 0.1267656683921814
vt 0.6793412566184998 0.1267656683921814
vt 0.6360213756561279 0.1267656683921814
vt 0.47417691349983215 0.8100858926773071
vt 0.4920908510684967 0.8058739900588989
vt 0.4568827450275421 0.8110157251358032
vt 0.4396807551383972 0.8114833235740662
vt 0.405238538980484 0.8118558526039124
vt 0.3875162899494171 0.8073128461837769
vt 0.4225544333457947 0.8118941783905029
vt 0.4741663336753845 0.8100908994674683
vt 0.4568732976913452 0.811016857624054
vt 0.43967095017433167 0.8114837408065796
vt 0.4052269160747528 0.8118503093719482
vt 0.4225444793701172 0.8118939399719238
vt 0.6678486466407776 0.21728575229644775
vt 0.6677958369255066 0.2172495722770691
vt 0.6678486466407776 0.21728438138961792
vt 0.6677958369255066 0.21724814176559448
vt 0.6678486466407776 0.21728432178497314
vt 0.6677958369255066 0.21724814176559448
vt 0.6678486466407776 0.21728575229644775
vt 0.6677958369255066 0.2172495722770691
vt 0.6677958369255066 0.21724432706832886
vt 0.6678486466407776 0.21728044748306274
vt 0.6677958369255066 0.21724814176559448
vt 0.6677958369255066 0.2172495722770691
vt 0.6677915453910828 0.21724659204483032
vt 0.6677958369255066 0.2172495722770691
vt 0.6677958369255066 0.21724432706832886
vt 0.6677958369255066 0.21724432706832886
vt 0.6677915453910828 0.21724659204483032
vt 0.6677958369255066 0.2172495722770691
vt 0.6677958369255066 0.21724814176559448
vt 0.6677915453910828 0.21724539995193481
vt 0.6677958369255066 0.21724814176559448
vt 0.6677958369255066 0.217235267162323
vt 0.6677958369255066 0.217235267162323
vt 0.6677915453910828 0.21724539995193481
vt 0.6677958369255066 0.217235267162323
vt 0.6677958369255066 0.21724814176559448
vt 0.6677958369255066 0.21724814176559448
vt 0.6677915453910828 0.21724539995193481
vt 0.667791485786438 0.21723419427871704
vt 0.6677915453910828 0.2172418236732483
vt 0.6677958369255066 0.21724432706832886
vt 0.6677958369255066 0.2172495722770691
vt 0.6677958369255066 0.2172495722770691
vt 0.6677915453910828 0.21724659204483032
vt 0.6677915453910828 0.2172418236732483
vt 0.6677915453910828 0.21723413467407227
vt 0.6677958369255066 0.217235267162323
vt 0.43918025493621826 0.8188059329986572
vt 0.43918025493621826 0.8188059329986572
vt 0.45308953523635864 0.8072426915168762
vt 0.4556431770324707 0.8241734504699707
vt 0.4250231683254242 0.8259477615356445
vt 0.42271727323532104 0.8241734504699707
vt 0.42504358291625977 0.8071973919868469
vt 0.42504358291625977 0.8071973919868469
vt 0.43918025493621826 0.8188059329986572
vt 0.4250231683254242 0.8259477615356445
vt 0.45308953523635864 0.8072426915168762
vt 0.43918025493621826 0.8188059329986572
vt 0.43919628858566284 0.8071609735488892
vt 0.43918025493621826 0.8188059329986572
vt 0.42504358291625977 0.8071973919868469
vt 0.6678486466407776 0.21727138757705688
vt 0.6677958369255066 0.217235267162323
vt 0.6677960157394409 0.21723371744155884
vt 0.6678486466407776 0.21727138757705688
vt 0.6677958965301514 0.21723371744155884
vt 0.6677958369255066 0.217235267162323
vt 0.6678486466407776 0.21727138757705688
vt 0.6678486466407776 0.21727138757705688
vt 0.6677958965301514 0.21723371744155884
vt 0.6677960157394409 0.21723371744155884
vt 0.6677958369255066 0.217235267162323
vt 0.667791485786438 0.21723419427871704
vt 0.6678486466407776 0.21728575229644775
vt 0.6677958369255066 0.2172495722770691
vt 0.6678486466407776 0.21728438138961792
vt 0.6677958369255066 0.21724814176559448
vt 0.6678486466407776 0.21728432178497314
vt 0.6677958369255066 0.21724814176559448
vt 0.6678486466407776 0.21728575229644775
vt 0.6677958369255066 0.2172495722770691
vt 0.6677958369255066 0.21724432706832886
vt 0.6678486466407776 0.21728044748306274
vt 0.6677958369255066 0.21724814176559448
vt 0.6677958369255066 0.2172495722770691
vt 0.6677915453910828 0.21724659204483032
vt 0.6677958369255066 0.2172495722770691
vt 0.6677958369255066 0.21724432706832886
vt 0.6677958369255066 0.21724432706832886
vt 0.6677915453910828 0.21724659204483032
vt 0.6677958369255066 0.2172495722770691
vt 0.6677958369255066 0.21724814176559448
vt 0.6677915453910828 0.21724539995193481
vt 0.6677958369255066 0.21724814176559448
vt 0.6677958369255066 0.217235267162323
vt 0.6677958369255066 0.217235267162323
vt 0.6677915453910828 0.21724539995193481
vt 0.6677958369255066 0.217235267162323
vt 0.6677958369255066 0.21724814176559448
vt 0.6677958369255066 0.21724814176559448
vt 0.6677915453910828 0.21724539995193481
vt 0.667791485786438 0.21723419427871704
vt 0.6677915453910828 0.2172418236732483
vt 0.6677958369255066 0.21724432706832886
vt 0.6677958369255066 0.2172495722770691
vt 0.6677958369255066 0.2172495722770691
vt 0.6677915453910828 0.21724659204483032
vt 0.6677915453910828 0.2172418236732483
vt 0.6677915453910828 0.21723413467407227
vt 0.6677958369255066 0.217235267162323
vt 0.43918025493621826 0.8188059329986572
vt 0.43918025493621826 0.8188059329986572
vt 0.45308953523635864 0.8072426915168762
vt 0.4556431770324707 0.8241734504699707
vt 0.42504358291625977 0.8071973919868469
vt 0.42504358291625977 0.8071973919868469
vt 0.43918025493621826 0.8188059329986572
vt 0.4250231683254242 0.8259477615356445
vt 0.45308953523635864 0.8072426915168762
vt 0.43918025493621826 0.8188059329986572
vt 0.43919628858566284 0.8071609735488892
vt 0.43918025493621826 0.8188059329986572
vt 0.42504358291625977 0.8071973919868469
vt 0.6678486466407776 0.21727138757705688
vt 0.6677958369255066 0.217235267162323
vt 0.6677960157394409 0.21723371744155884
vt 0.6678486466407776 0.21727138757705688
vt 0.6677958965301514 0.21723371744155884
vt 0.6677958369255066 0.217235267162323
vt 0.6678486466407776 0.21727138757705688
vt 0.6678486466407776 0.21727138757705688
vt 0.6677958965301514 0.21723371744155884
vt 0.6677960157394409 0.21723371744155884
vt 0.6677958369255066 0.217235267162323
vt 0.667791485786438 0.21723419427871704
vn -0.00021295019541867077 0.00027387062436901033 0.9999999403953552
vn -0.5772039890289307 0.7919740676879883 -0.19902926683425903
vn 5.435697758571223e-08 0.9801950454711914 -0.19803504645824432
vn -0.30326294898986816 0.4903675615787506 0.8170503377914429
vn -0.49237576127052307 0.2331407219171524 0.8385770916938782
vn -0.545518159866333 -0.038348741829395294 0.8372213244438171
vn -0.4698646664619446 0.882164478302002 -0.03182808309793472
vn -0.47358033061027527 0.7869592308998108 0.3954956829547882
vn -0.8225812315940857 0.568467915058136 0.014294675551354885
vn -0.7677342891693115 0.4205380082130432 0.4834582209587097
vn -0.9992778897285461 0.03693869337439537 -0.00890234112739563
vn -0.8766841292381287 -0.011132949031889439 0.4809376001358032
vn -0.31810712814331055 -0.4363516867160797 0.8416680097579956
vn -0.43061256408691406 -0.24347460269927979 0.8690758943557739
vn -0.4683910012245178 -0.8822053670883179 0.04820569232106209
vn -0.4689231812953949 -0.7420558333396912 0.4790242314338684
vn -0.849482536315918 -0.5256524085998535 0.045488327741622925
vn -0.7202802896499634 -0.40659287571907043 0.5620307326316833
vn -3.613314163430914e-07 -0.5677962899208069 0.8231691122055054
vn -2.3755448808060464e-07 0.4991651475429535 0.8665068745613098
vn -4.210379955793542e-08 0.9967069029808044 0.0810883566737175
vn -2.551827265051543e-07 0.8309977054595947 0.5562758445739746
vn 0.3032618761062622 0.4903676211833954 0.8170506954193115
vn 0.4923745393753052 0.2331407368183136 0.838577926158905
vn 0.5455169677734375 -0.038348689675331116 0.8372220993041992
vn 0.46986493468284607 0.8821643590927124 -0.03182780742645264
vn 0.4735800325870514 0.7869594097137451 0.3954959809780121
vn 0.8225812911987305 0.5684678554534912 0.014294898137450218
vn 0.7677340507507324 0.42053839564323425 0.4834582805633545
vn 0.9992778897285461 0.03693864494562149 -0.008902137167751789
vn 0.8766841888427734 -0.011133027262985706 0.4809377193450928
vn 0.3181059956550598 -0.4363517165184021 0.841668426990509
vn 0.4306112825870514 -0.24347464740276337 0.8690765500068665
vn 0.46839115023612976 -0.8822051286697388 0.04820594564080238
vn 0.46892276406288147 -0.7420558333396912 0.47902458906173706
vn 0.849482536315918 -0.5256522297859192 0.04548817127943039
vn 0.7202797532081604 -0.40659311413764954 0.5620312690734863
vn -5.447708417705144e-07 -1.1279960432375447e-07 1.0
vn -2.389533904079144e-07 -0.9230806827545166 0.38460642099380493
vn -2.107846519550094e-08 -0.9979929327964783 -0.06332530826330185
vn 0.5772042870521545 0.7919739484786987 -0.19902877509593964
vn 0.8928189873695374 0.409309059381485 -0.18799035251140594
vn 0.9831784963607788 -2.6184503099102585e-07 -0.1826474368572235
vn 0.5056530833244324 -0.8401981592178345 -0.19591334462165833
vn 0.8928186893463135 -0.40930941700935364 -0.1879909336566925
vn -0.8928186893463135 0.409309059381485 -0.18799178302288055
vn -0.9831782579421997 -9.241589538078188e-08 -0.18264871835708618
vn -0.5056528449058533 -0.8401982188224792 -0.19591359794139862
vn -0.8928184509277344 -0.40930941700935364 -0.18799209594726562
vn 9.340726592199644e-08 -0.98238205909729 -0.18688364326953888
vn -0.00021295019541867077 0.00027387062436901033 0.9999999403953552
vn -0.0002542576112318784 0.0002507233584765345 0.9999999403953552
vn -0.0003472500538919121 9.205520473187789e-05 0.9999999403953552
vn -0.00021300748630892485 -0.0002739144256338477 0.9999999403953552
vn -0.00025413159164600074 -0.0002508699253667146 0.9999999403953552
vn 0.00021232299332041293 0.00027387062436901033 0.9999999403953552
vn 0.00025385053595528007 0.00025060001644305885 0.9999999403953552
vn 0.0003467403003014624 9.210698772221804e-05 0.9999999403953552
vn 0.00021238028421066701 -0.00027391445473767817 0.9999999403953552
vn 0.00025372454547323287 -0.00025074658333323896 0.9999999403953552
vn -0.00021295019541867077 0.00027387062436901033 0.9999999403953552
vn -0.00021300748630892485 -0.0002739144256338477 0.9999999403953552
vn 0.30220022797584534 -0.4860486090183258 -0.8200193643569946
vn 0.48844003677368164 -0.23156169056892395 -0.8413118124008179
vn 0.5416180491447449 0.03808167576789856 -0.8397616744041443
vn 0.4716933071613312 -0.8794274926185608 0.06413067877292633
vn 0.47456419467926025 -0.7864206433296204 -0.3953876495361328
vn 0.8226687908172607 -0.5683731436729431 0.01297068502753973
vn 0.7669450044631958 -0.4196396768093109 -0.4854872524738312
vn 0.9985393285751343 -0.03706386312842369 0.03931495174765587
vn 0.8757318258285522 0.011321540921926498 -0.48266512155532837
vn 0.31644588708877563 0.4321880042552948 -0.8444380164146423
vn 0.42659059166908264 0.24182367324829102 -0.8715169429779053
vn 0.46958786249160767 0.8825230598449707 -0.0253085196018219
vn 0.4696566164493561 0.74079829454422 -0.48025065660476685
vn 0.8503787517547607 0.5257078409194946 -0.022074779495596886
vn 0.7187005281448364 0.4054478108882904 -0.5648730993270874
vn 2.9858358630008297e-07 0.5624663233757019 -0.8268201947212219
vn 2.6931175511890615e-07 -0.4938710927963257 -0.8695351481437683
vn 8.988876487592279e-08 -0.9980430006980896 -0.06253162771463394
vn 2.2366388918726443e-07 -0.8290982842445374 -0.5591029524803162
vn -0.3021991550922394 -0.48604875802993774 -0.8200196623802185
vn -0.48843878507614136 -0.23156189918518066 -0.8413125872612
vn -0.5416168570518494 0.03808175399899483 -0.8397624492645264
vn -0.4716934561729431 -0.879427433013916 0.0641302689909935
vn -0.474563866853714 -0.7864206433296204 -0.39538806676864624
vn -0.8226688504219055 -0.5683730840682983 0.012970110401511192
vn -0.7669447064399719 -0.4196402132511139 -0.48548755049705505
vn -0.9985392689704895 -0.03706398233771324 0.03931460902094841
vn -0.8757315874099731 0.011321582831442356 -0.4826655089855194
vn -0.3164447247982025 0.4321882128715515 -0.8444383144378662
vn -0.42658936977386475 0.24182386696338654 -0.8715174794197083
vn -0.4695878326892853 0.8825229406356812 -0.025308921933174133
vn -0.46965619921684265 0.74079829454422 -0.4802510738372803
vn -0.8503788709640503 0.5257077813148499 -0.02207508124411106
vn -0.7186997532844543 0.40544816851615906 -0.5648738145828247
vn 6.056229153728054e-07 1.0243093839790163e-07 -1.0
vn 1.6490133702973253e-07 0.9233367443084717 -0.38399118185043335
vn 2.649017005751375e-08 0.9951120018959045 0.09875264018774033
vn 0.22742974758148193 -0.5877854824066162 -0.7763917446136475
vn 0.22742973268032074 -0.5877854228019714 -0.7763918042182922
vn 0.22742974758148193 -0.5877854824066162 -0.7763917446136475
vn 0.22742974758148193 -0.5877854824066162 -0.7763917446136475
vn 0.2570464611053467 0.4048791825771332 -0.8774964213371277
vn 0.2570464611053467 0.4048791825771332 -0.8774964213371277
vn 0.2274295687675476 0.5877834558486938 -0.7763932347297668
vn 0.22742968797683716 0.5877867341041565 -0.7763906717300415
vn 0.2274295687675476 0.5877834558486938 -0.7763932347297668
vn 0.2274295687675476 0.5877834558486938 -0.7763932347297668
vn -0.028816329315304756 0.9947324991226196 0.09837210178375244
vn -0.028816329315304756 0.9947324991226196 0.09837210178375244
vn -0.028816282749176025 -0.9947323203086853 0.09837290644645691
vn -0.02881620265543461 -0.9947323203086853 0.09837285429239273
vn 0.9596739411354065 2.090077259708778e-06 0.28111547231674194
vn 0.9596739411354065 2.090077259708778e-06 0.28111547231674194
vn 0.98237544298172 0.1856846660375595 0.021445289254188538
vn 0.9823752045631409 0.1856851875782013 0.021446499973535538
vn 0.9823740124702454 -0.1856914758682251 0.02144794724881649
vn 0.982374906539917 -0.18568672239780426 0.02144765295088291
vn 0.9668256640434265 0.20132678747177124 -0.15721282362937927
vn -0.2274295836687088 0.5877854228019714 -0.7763917446136475
vn -0.2274295836687088 0.5877854228019714 -0.7763917446136475
vn -0.2274295836687088 0.5877854228019714 -0.7763917446136475
vn -0.2274295836687088 0.5877854228019714 -0.7763917446136475
vn -0.2570466995239258 -0.40487906336784363 -0.8774964213371277
vn -0.2570466995239258 -0.40487906336784363 -0.8774964213371277
vn -0.22742959856987 -0.5877833962440491 -0.7763932347297668
vn -0.22742971777915955 -0.5877867341041565 -0.7763906717300415
vn -0.22742959856987 -0.5877833962440491 -0.7763932347297668
vn -0.22742959856987 -0.5877833962440491 -0.7763932347297668
vn 0.028815634548664093 -0.9947325587272644 0.09837175160646439
vn 0.028815634548664093 -0.9947325587272644 0.09837175160646439
vn 0.028816284611821175 0.9947323203086853 0.09837289154529572
vn 0.02881655842065811 0.9947323203086853 0.09837303310632706
vn -0.9596741199493408 -1.891713736767997e-06 0.28111523389816284
vn -0.9596741199493408 -1.891713736767997e-06 0.28111523389816284
vn -0.9668257236480713 -0.20132647454738617 -0.15721282362937927
vn -0.9588435292243958 0.002133691217750311 0.2839273512363434
vn -0.9588435292243958 0.002133691217750311 0.2839273512363434
vn -0.9823740124702454 0.1856914758682251 0.02144794724881649
vn -0.982374906539917 0.18568672239780426 0.02144765295088291
vn -0.98237544298172 -0.1856846660375595 0.021445289254188538
vn -0.9823752045631409 -0.1856851875782013 0.021446499973535538
vn 0.8522830605506897 -0.43129271268844604 0.2959732413291931
vn 0.9722263813018799 -0.044785283505916595 0.22971749305725098
vn 0.8421204090118408 0.43849873542785645 0.31393006443977356
vn 0.18702657520771027 -0.7541854977607727 -0.629464328289032
vn 0.1819409281015396 -0.7623188495635986 -0.6211018562316895
vn 0.18702653050422668 0.7541865110397339 -0.6294630765914917
vn 0.8604393601417542 0.4251305162906647 0.28090590238571167
vn -0.8522830605506897 0.43129292130470276 0.29597336053848267
vn -0.9722263813018799 0.04478559270501137 0.22971749305725098
vn -0.8421204686164856 -0.4384986162185669 0.31393006443977356
vn -0.18702660501003265 0.7541855573654175 -0.6294642090797424
vn -0.18194085359573364 0.7623190879821777 -0.6211015582084656
vn -0.18702703714370728 -0.7541864514350891 -0.6294630169868469
vn -0.8604393601417542 -0.4251304864883423 0.280906081199646
vn -0.0002542576112318784 0.0002507233584765345 0.9999999403953552
vn -0.0003472500538919121 9.205520473187789e-05 0.9999999403953552
vn -0.00025413159164600074 -0.0002508699253667146 0.9999999403953552
vn -0.0003472500538919121 -9.19868762139231e-05 0.9999999403953552
vn -0.0003472500538919121 -9.19868762139231e-05 0.9999999403953552
vn 0.00021232299332041293 0.00027387062436901033 0.9999999403953552
vn 0.00025385053595528007 0.00025060001644305885 0.9999999403953552
vn 0.0003467403003014624 9.210698772221804e-05 0.9999999403953552
vn 0.00021238028421066701 -0.00027391445473767817 0.9999999403953552
vn 0.00025372454547323287 -0.00025074658333323896 0.9999999403953552
vn 0.00034674027119763196 -9.203865192830563e-05 0.9999999403953552
vn 0.00034674027119763196 -9.203865192830563e-05 0.9999999403953552
vn 0.5727371573448181 -0.7806578874588013 0.25009074807167053
vn 2.331434778568564e-08 -0.9686596393585205 0.248392254114151
vn 0.882895290851593 -0.4041318893432617 0.23910953104496002
vn 0.9722017645835876 1.7697028908969514e-07 0.23414462804794312
vn 0.5021986365318298 0.8290467858314514 0.24592261016368866
vn -6.239382344119804e-08 0.9720607399940491 0.23472949862480164
vn 0.8828951120376587 0.40413206815719604 0.23910976946353912
vn -0.5727373957633972 -0.7806578874588013 0.25009024143218994
vn -0.8828955888748169 -0.4041319191455841 0.2391083836555481
vn -0.9722020626068115 1.7697027487884043e-07 0.23414352536201477
vn -0.5021987557411194 0.8290468454360962 0.24592217803001404
vn -0.8828954100608826 0.40413209795951843 0.23910866677761078
vn 0.2570464611053467 0.4048791825771332 -0.8774964213371277
vn 0.2570464611053467 0.40487921237945557 -0.8774964213371277
vn -0.028816329315304756 0.9947324991226196 0.09837210178375244
vn -0.028816955164074898 0.9947323799133301 0.09837238490581512
vn -0.02881620265543461 -0.9947323203086853 0.09837285429239273
vn -0.02881620265543461 -0.9947323203086853 0.09837285429239273
vn 0.25704678893089294 -0.4048788845539093 -0.8774964809417725
vn 0.25704678893089294 -0.4048788845539093 -0.8774964809417725
vn 0.25704678893089294 -0.4048788845539093 -0.8774964809417725
vn 0.25704649090766907 -0.4048791527748108 -0.8774965405464172
vn 0.9823740124702454 -0.1856914758682251 0.02144794724881649
vn 0.9823740124702454 -0.1856914758682251 0.02144794724881649
vn 0.9538687467575073 0.20993652939796448 -0.21461854875087738
vn 0.9538687467575073 0.20993652939796448 -0.21461854875087738
vn 0.9538687467575073 0.20993652939796448 -0.21461854875087738
vn 0.9668256640434265 0.20132678747177124 -0.15721282362937927
vn 0.9668256640434265 0.20132678747177124 -0.15721282362937927
vn 0.98237544298172 0.1856846660375595 0.021445289254188538
vn 0.98237544298172 0.1856846660375595 0.021445289254188538
vn 0.8056453466415405 0.5157819986343384 0.2913837730884552
vn 0.8056453466415405 0.5157819986343384 0.2913837730884552
vn 0.8056453466415405 0.5157819986343384 0.2913837730884552
vn 0.8421204090118408 0.43849873542785645 0.31393006443977356
vn 0.8421204090118408 0.43849873542785645 0.31393006443977356
vn 0.8522830605506897 -0.43129271268844604 0.2959732413291931
vn 0.8522830605506897 -0.43129271268844604 0.2959732413291931
vn 0.7831823229789734 -0.5383689999580383 0.31110167503356934
vn 0.7831823229789734 -0.5383689999580383 0.31110167503356934
vn 0.7831823229789734 -0.5383689999580383 0.31110167503356934
vn 0.9694982171058655 -0.18767143785953522 -0.15764738619327545
vn 0.9694982171058655 -0.18767143785953522 -0.15764738619327545
vn 0.9694982171058655 -0.18767143785953522 -0.15764738619327545
vn 0.9465343952178955 -0.2301022708415985 -0.2261098027229309
vn 0.9465343952178955 -0.2301022708415985 -0.2261098027229309
vn 0.9465343952178955 -0.2301022708415985 -0.2261098027229309
vn 0.8604393601417542 0.4251305162906647 0.28090590238571167
vn 0.8604393601417542 0.4251305162906647 0.28090590238571167
vn 0.9596739411354065 2.090077259708778e-06 0.28111547231674194
vn 0.9587181806564331 -0.001038028160110116 0.28435611724853516
vn 0.9587181806564331 -0.001038028160110116 0.28435611724853516
vn 0.9587181806564331 -0.001038028160110116 0.28435611724853516
vn 0.9588435292243958 -0.0021336728241294622 0.2839273512363434
vn 0.9588435292243958 -0.0021336728241294622 0.2839273512363434
vn 0.9588435292243958 -0.0021336728241294622 0.2839273512363434
vn 0.9588469862937927 0.0013918603071942925 0.28391996026039124
vn 0.9588469862937927 0.0013918603071942925 0.28391996026039124
vn 0.9588469862937927 0.0013918603071942925 0.28391996026039124
vn 0.9722263813018799 -0.044785283505916595 0.22971749305725098
vn 0.9722263813018799 -0.044785283505916595 0.22971749305725098
vn 0.9722263813018799 0.0447852648794651 0.22971749305725098
vn 0.9722263813018799 0.0447852648794651 0.22971749305725098
vn 0.9722263813018799 0.0447852648794651 0.22971749305725098
vn 0.1819409281015396 -0.7623188495635986 -0.6211018562316895
vn 0.1819409281015396 -0.7623188495635986 -0.6211018562316895
vn 0.18702657520771027 -0.7541854977607727 -0.629464328289032
vn 0.18702657520771027 -0.7541854977607727 -0.629464328289032
vn 0.18193958699703217 0.762321949005127 -0.6210983991622925
vn 0.18193958699703217 0.762321949005127 -0.6210983991622925
vn 0.18193958699703217 0.762321949005127 -0.6210983991622925
vn 0.18702653050422668 0.7541865110397339 -0.6294630765914917
vn 0.18702653050422668 0.7541865110397339 -0.6294630765914917
vn 0.8604404926300049 -0.42513036727905273 0.2809031307697296
vn 0.8604404926300049 -0.42513036727905273 0.2809031307697296
vn 0.8604404926300049 -0.42513036727905273 0.2809031307697296
vn -0.2570466995239258 -0.40487906336784363 -0.8774964213371277
vn -0.257046639919281 -0.404879093170166 -0.8774964213371277
vn 0.028815634548664093 -0.9947325587272644 0.09837175160646439
vn 0.028816957026720047 -0.9947323799133301 0.09837238490581512
vn 0.02881655842065811 0.9947323203086853 0.09837303310632706
vn 0.02881655842065811 0.9947323203086853 0.09837303310632706
vn -0.2570468783378601 0.4048789441585541 -0.8774965405464172
vn -0.2570468783378601 0.4048789441585541 -0.8774965405464172
vn -0.2570468783378601 0.4048789441585541 -0.8774965405464172
vn -0.25704625248908997 0.4048793315887451 -0.8774964213371277
vn -0.9823740124702454 0.1856914758682251 0.02144794724881649
vn -0.9823740124702454 0.1856914758682251 0.02144794724881649
vn -0.9538689255714417 -0.2099362164735794 -0.21461838483810425
vn -0.9538689255714417 -0.2099362164735794 -0.21461838483810425
vn -0.9538689255714417 -0.2099362164735794 -0.21461838483810425
vn -0.9668257236480713 -0.20132647454738617 -0.15721282362937927
vn -0.9668257236480713 -0.20132647454738617 -0.15721282362937927
vn -0.98237544298172 -0.1856846660375595 0.021445289254188538
vn -0.98237544298172 -0.1856846660375595 0.021445289254188538
vn -0.8056453466415405 -0.5157819986343384 0.2913837730884552
vn -0.8056453466415405 -0.5157819986343384 0.2913837730884552
vn -0.8056453466415405 -0.5157819986343384 0.2913837730884552
vn -0.8421204686164856 -0.4384986162185669 0.31393006443977356
vn -0.8421204686164856 -0.4384986162185669 0.31393006443977356
vn -0.8522830605506897 0.43129292130470276 0.29597336053848267
vn -0.8522830605506897 0.43129292130470276 0.29597336053848267
vn -0.7831822037696838 0.5383691191673279 0.3111017942428589
vn -0.7831822037696838 0.5383691191673279 0.3111017942428589
vn -0.7831822037696838 0.5383691191673279 0.3111017942428589
vn -0.9694982171058655 0.18767143785953522 -0.15764738619327545
vn -0.9694982171058655 0.18767143785953522 -0.15764738619327545
vn -0.9694982171058655 0.18767143785953522 -0.15764738619327545
vn -0.9465343952178955 0.2301022708415985 -0.2261098027229309
vn -0.9465343952178955 0.2301022708415985 -0.2261098027229309
vn -0.9465343952178955 0.2301022708415985 -0.2261098027229309
vn -0.8604393601417542 -0.4251304864883423 0.280906081199646
vn -0.8604393601417542 -0.4251304864883423 0.280906081199646
vn -0.9596741199493408 -1.891713736767997e-06 0.28111523389816284
vn -0.9587181806564331 0.0010383037151768804 0.28435614705085754
vn -0.9587181806564331 0.0010383037151768804 0.28435614705085754
vn -0.9587181806564331 0.0010383037151768804 0.28435614705085754
vn -0.9588435292243958 0.002133691217750311 0.2839273512363434
vn -0.9588469862937927 -0.0013918726472184062 0.2839199900627136
vn -0.9588469862937927 -0.0013918726472184062 0.2839199900627136
vn -0.9588469862937927 -0.0013918726472184062 0.2839199900627136
vn -0.9722263813018799 0.04478559270501137 0.22971749305725098
vn -0.9722263813018799 0.04478559270501137 0.22971749305725098
vn -0.9722263813018799 -0.044785283505916595 0.22971749305725098
vn -0.9722263813018799 -0.044785283505916595 0.22971749305725098
vn -0.9722263813018799 -0.044785283505916595 0.22971749305725098
vn -0.18194085359573364 0.7623190879821777 -0.6211015582084656
vn -0.18194085359573364 0.7623190879821777 -0.6211015582084656
vn -0.18702660501003265 0.7541855573654175 -0.6294642090797424
vn -0.18702660501003265 0.7541855573654175 -0.6294642090797424
vn -0.18194007873535156 -0.7623218297958374 -0.6210984587669373
vn -0.18194007873535156 -0.7623218297958374 -0.6210984587669373
vn -0.18194007873535156 -0.7623218297958374 -0.6210984587669373
vn -0.18702703714370728 -0.7541864514350891 -0.6294630169868469
vn -0.18702703714370728 -0.7541864514350891 -0.6294630169868469
vn -0.8604405522346497 0.42513036727905273 0.2809029519557953
vn -0.8604405522346497 0.42513036727905273 0.2809029519557953
vn -0.8604405522346497 0.42513036727905273 0.2809029519557953
f 305/305/305 306/306/306 307/307/307
f 303/303/303 156/156/156 304/304/304
f 300/300/300 301/301/301 302/302/302
f 298/298/298 154/154/154 299/299/299
f 296/296/296 297/297/297 155/155/155
f 293/293/293 294/294/294 295/295/295
f 291/291/291 292/292/292 152/152/152
f 288/288/288 289/289/289 290/290/290
f 138/138/138 139/139/139 287/287/287
f 284/284/284 285/285/285 286/286/286
f 135/135/135 136/136/136 283/283/283
f 281/281/281 282/282/282 157/157/157
f 278/278/278 279/279/279 280/280/280
f 275/275/275 276/276/276 277/277/277
f 272/272/272 273/273/273 274/274/274
f 151/151/151 270/270/270 271/271/271
f 268/268/268 153/153/153 269/269/269
f 265/265/265 266/266/266 267/267/267
f 264/264/264 143/143/143 142/142/142
f 142/142/142 263/263/263 264/264/264
f 261/261/261 137/137/137 262/262/262
f 258/258/258 259/259/259 260/260/260
f 257/257/257 141/141/141 140/140/140
f 140/140/140 256/256/256 257/257/257
f 254/254/254 255/255/255 252/252/252
f 252/252/252 253/253/253 254/254/254
f 134/134/134 133/133/133 250/250/250
f 250/250/250 251/251/251 134/134/134
f 132/132/132 249/249/249 248/248/248
f 248/248/248 131/131/131 132/132/132
f 127/127/127 128/128/128 129/129/129
f 129/129/129 130/130/130 127/127/127
f 126/126/126 247/247/247 246/246/246
f 246/246/246 125/125/125 126/126/126
f 121/121/121 122/122/122 123/123/123
f 123/123/123 124/124/124 121/121/121
f 243/243/243 244/244/244 245/245/245
f 241/241/241 149/149/149 242/242/242
f 238/238/238 239/239/239 240/240/240
f 236/236/236 147/147/147 237/237/237
f 234/234/234 235/235/235 148/148/148
f 231/231/231 232/232/232 233/233/233
f 229/229/229 230/230/230 145/145/145
f 226/226/226 227/227/227 228/228/228
f 223/223/223 224/224/224 225/225/225
f 220/220/220 221/221/221 222/222/222
f 114/114/114 115/115/115 219/219/219
f 217/217/217 218/218/218 150/150/150
f 214/214/214 215/215/215 216/216/216
f 211/211/211 212/212/212 213/213/213
f 208/208/208 209/209/209 210/210/210
f 144/144/144 206/206/206 207/207/207
f 204/204/204 146/146/146 205/205/205
f 201/201/201 202/202/202 203/203/203
f 200/200/200 117/117/117 116/116/116
f 116/116/116 199/199/199 200/200/200
f 197/197/197 120/120/120 198/198/198
f 194/194/194 195/195/195 196/196/196
f 193/193/193 119/119/119 118/118/118
f 118/118/118 192/192/192 193/193/193
f 190/190/190 191/191/191 188/188/188
f 188/188/188 189/189/189 190/190/190
f 113/113/113 112/112/112 186/186/186
f 186/186/186 187/187/187 113/113/113
f 111/111/111 185/185/185 184/184/184
f 184/184/184 110/110/110 111/111/111
f 106/106/106 107/107/107 108/108/108
f 108/108/108 109/109/109 106/106/106
f 105/105/105 183/183/183 182/182/182
f 182/182/182 104/104/104 105/105/105
f 100/100/100 101/101/101 102/102/102
f 102/102/102 103/103/103 100/100/100
f 181/181/181 95/95/95 89/89/89
f 89/89/89 179/179/179 181/181/181
f 180/180/180 93/93/93 95/95/95
f 95/95/95 181/181/181 180/180/180
f 99/99/99 93/93/93 180/180/180
f 180/180/180 175/175/175 99/99/99
f 96/96/96 92/92/92 84/84/84
f 84/84/84 90/90/90 96/96/96
f 96/96/96 94/94/94 91/91/91
f 91/91/91 92/92/92 96/96/96
f 94/94/94 98/98/98 78/78/78
f 78/78/78 91/91/91 94/94/94
f 95/95/95 96/96/96 90/90/90
f 90/90/90 89/89/89 95/95/95
f 95/95/95 93/93/93 94/94/94
f 94/94/94 96/96/96 95/95/95
f 93/93/93 99/99/99 98/98/98
f 98/98/98 94/94/94 93/93/93
f 97/97/97 84/84/84 92/92/92
f 97/97/97 92/92/92 91/91/91
f 97/97/97 91/91/91 78/78/78
f 178/178/178 179/179/179 89/89/89
f 89/89/89 87/87/87 178/178/178
f 177/177/177 178/178/178 87/87/87
f 87/87/87 85/85/85 177/177/177
f 171/171/171 177/177/177 85/85/85
f 85/85/85 80/80/80 171/171/171
f 90/90/90 84/84/84 83/83/83
f 83/83/83 88/88/88 90/90/90
f 88/88/88 83/83/83 82/82/82
f 82/82/82 86/86/86 88/88/88
f 82/82/82 79/79/79 81/81/81
f 81/81/81 86/86/86 82/82/82
f 89/89/89 90/90/90 88/88/88
f 88/88/88 87/87/87 89/89/89
f 87/87/87 88/88/88 86/86/86
f 86/86/86 85/85/85 87/87/87
f 86/86/86 81/81/81 80/80/80
f 80/80/80 85/85/85 86/86/86
f 97/97/97 83/83/83 84/84/84
f 97/97/97 82/82/82 83/83/83
f 97/97/97 79/79/79 82/82/82
f 176/176/176 173/173/173 70/70/70
f 70/70/70 76/76/76 176/176/176
f 174/174/174 176/176/176 76/76/76
f 76/76/76 74/74/74 174/174/174
f 99/99/99 175/175/175 174/174/174
f 174/174/174 74/74/74 99/99/99
f 77/77/77 71/71/71 65/65/65
f 65/65/65 73/73/73 77/77/77
f 77/77/77 73/73/73 72/72/72
f 72/72/72 75/75/75 77/77/77
f 75/75/75 72/72/72 78/78/78
f 78/78/78 98/98/98 75/75/75
f 76/76/76 70/70/70 71/71/71
f 71/71/71 77/77/77 76/76/76
f 76/76/76 77/77/77 75/75/75
f 75/75/75 74/74/74 76/76/76
f 74/74/74 75/75/75 98/98/98
f 98/98/98 99/99/99 74/74/74
f 97/97/97 73/73/73 65/65/65
f 97/97/97 72/72/72 73/73/73
f 97/97/97 78/78/78 72/72/72
f 172/172/172 68/68/68 70/70/70
f 70/70/70 173/173/173 172/172/172
f 170/170/170 66/66/66 68/68/68
f 68/68/68 172/172/172 170/170/170
f 171/171/171 80/80/80 66/66/66
f 66/66/66 170/170/170 171/171/171
f 71/71/71 69/69/69 64/64/64
f 64/64/64 65/65/65 71/71/71
f 69/69/69 67/67/67 63/63/63
f 63/63/63 64/64/64 69/69/69
f 63/63/63 67/67/67 81/81/81
f 81/81/81 79/79/79 63/63/63
f 70/70/70 68/68/68 69/69/69
f 69/69/69 71/71/71 70/70/70
f 68/68/68 66/66/66 67/67/67
f 67/67/67 69/69/69 68/68/68
f 67/67/67 66/66/66 80/80/80
f 80/80/80 81/81/81 67/67/67
f 97/97/97 65/65/65 64/64/64
f 97/97/97 64/64/64 63/63/63
f 97/97/97 63/63/63 79/79/79
f 45/45/45 43/43/43 30/30/30
f 30/30/30 36/36/36 45/45/45
f 44/44/44 45/45/45 36/36/36
f 36/36/36 34/34/34 44/44/44
f 40/40/40 50/50/50 44/44/44
f 44/44/44 34/34/34 40/40/40
f 37/37/37 31/31/31 25/25/25
f 25/25/25 33/33/33 37/37/37
f 37/37/37 33/33/33 32/32/32
f 32/32/32 35/35/35 37/37/37
f 35/35/35 32/32/32 19/19/19
f 19/19/19 39/39/39 35/35/35
f 36/36/36 30/30/30 31/31/31
f 31/31/31 37/37/37 36/36/36
f 36/36/36 37/37/37 35/35/35
f 35/35/35 34/34/34 36/36/36
f 34/34/34 35/35/35 39/39/39
f 39/39/39 40/40/40 34/34/34
f 38/38/38 33/33/33 25/25/25
f 38/38/38 32/32/32 33/33/33
f 38/38/38 19/19/19 32/32/32
f 42/42/42 28/28/28 30/30/30
f 30/30/30 43/43/43 42/42/42
f 41/41/41 26/26/26 28/28/28
f 28/28/28 42/42/42 41/41/41
f 3/3/3 21/21/21 26/26/26
f 26/26/26 41/41/41 3/3/3
f 31/31/31 29/29/29 24/24/24
f 24/24/24 25/25/25 31/31/31
f 29/29/29 27/27/27 23/23/23
f 23/23/23 24/24/24 29/29/29
f 23/23/23 27/27/27 22/22/22
f 22/22/22 20/20/20 23/23/23
f 30/30/30 28/28/28 29/29/29
f 29/29/29 31/31/31 30/30/30
f 28/28/28 26/26/26 27/27/27
f 27/27/27 29/29/29 28/28/28
f 27/27/27 26/26/26 21/21/21
f 21/21/21 22/22/22 27/27/27
f 38/38/38 25/25/25 24/24/24
f 38/38/38 24/24/24 23/23/23
f 38/38/38 23/23/23 20/20/20
f 49/49/49 17/17/17 11/11/11
f 11/11/11 47/47/47 49/49/49
f 48/48/48 15/15/15 17/17/17
f 17/17/17 49/49/49 48/48/48
f 40/40/40 15/15/15 48/48/48
f 48/48/48 50/50/50 40/40/40
f 18/18/18 14/14/14 6/6/6
f 6/6/6 12/12/12 18/18/18
f 18/18/18 16/16/16 13/13/13
f 13/13/13 14/14/14 18/18/18
f 16/16/16 39/39/39 19/19/19
f 19/19/19 13/13/13 16/16/16
f 17/17/17 18/18/18 12/12/12
f 12/12/12 11/11/11 17/17/17
f 17/17/17 15/15/15 16/16/16
f 16/16/16 18/18/18 17/17/17
f 15/15/15 40/40/40 39/39/39
f 39/39/39 16/16/16 15/15/15
f 38/38/38 6/6/6 14/14/14
f 38/38/38 14/14/14 13/13/13
f 38/38/38 13/13/13 19/19/19
f 46/46/46 47/47/47 11/11/11
f 11/11/11 9/9/9 46/46/46
f 2/2/2 46/46/46 9/9/9
f 9/9/9 7/7/7 2/2/2
f 3/3/3 2/2/2 7/7/7
f 7/7/7 21/21/21 3/3/3
f 12/12/12 6/6/6 5/5/5
f 5/5/5 10/10/10 12/12/12
f 10/10/10 5/5/5 4/4/4
f 4/4/4 8/8/8 10/10/10
f 4/4/4 20/20/20 22/22/22
f 22/22/22 8/8/8 4/4/4
f 11/11/11 12/12/12 10/10/10
f 10/10/10 9/9/9 11/11/11
f 9/9/9 10/10/10 8/8/8
f 8/8/8 7/7/7 9/9/9
f 8/8/8 22/22/22 21/21/21
f 21/21/21 7/7/7 8/8/8
f 38/38/38 5/5/5 6/6/6
f 38/38/38 4/4/4 5/5/5
f 38/38/38 20/20/20 4/4/4
f 168/168/168 169/169/169 1/1/1
f 167/167/167 60/60/60 1/1/1
f 166/166/166 59/59/59 1/1/1
f 58/58/58 165/165/165 1/1/1
f 57/57/57 164/164/164 1/1/1
f 56/56/56 163/163/163 1/1/1
f 161/161/161 162/162/162 1/1/1
f 55/55/55 160/160/160 1/1/1
f 54/54/54 62/62/62 1/1/1
f 159/159/159 53/53/53 1/1/1
f 158/158/158 52/52/52 1/1/1
f 61/61/61 51/51/51 1/1/1
