# Recovered local-space geometry; original node transforms not applied
o mesh_0
v -44.931549072265625 -25.775514602661133 15.436869621276855
v -44.90480422973633 -14.870402336120605 26.152835845947266
v -44.889244079589844 1.3588723049906548e-05 30.068132400512695
v -32.62903594970703 -41.34563446044922 0.017898598685860634
v -17.793224334716797 -44.608421325683594 0.017901767045259476
v -17.820070266723633 -38.61956024169922 22.723163604736328
v -32.624393463134766 -35.79503631591797 20.89649200439453
v -17.8729248046875 -22.256134033203125 38.7312126159668
v -32.628299713134766 -20.62299919128418 35.56440353393555
v -17.898681640625 1.0215843758487608e-05 44.560791015625
v -32.62835693359375 1.2328544471529312e-05 40.903053283691406
v -0.25134849548339844 -40.32124328613281 0.017900312319397926
v -0.3155546188354492 -34.94465255737305 20.614952087402344
v -0.39556193351745605 -20.17671775817871 35.1298942565918
v -0.5109589099884033 6.687496806989657e-06 40.47187042236328
v 17.13215446472168 -27.1785831451416 0.017903659492731094
v 17.147846221923828 -23.525524139404297 15.246464729309082
v 17.134902954101562 -12.681262016296387 25.791597366333008
v 17.13815689086914 4.0314271245733835e-06 29.64678192138672
v 33.21070098876953 -21.480457305908203 0.01789778470993042
v 33.36801528930664 -18.542877197265625 11.296417236328125
v 33.61085891723633 -10.613178253173828 18.870386123657227
v 33.814449310302734 -8.634626738057705e-07 21.52401351928711
v 43.676109313964844 -12.790639877319336 7.420723915100098
v 43.818111419677734 -7.134128570556641 11.942023277282715
v 43.866607666015625 -2.151438593500643e-06 13.464306831359863
v 47.69683837890625 -7.1313829721475486e-06 0.017896682024002075
v -52.12096405029297 7.114230356819462e-06 0.0178962554782629
v -44.9539909362793 29.737272262573242 0.01789178140461445
v -44.93153762817383 25.775550842285156 15.436863899230957
v -44.904788970947266 14.870416641235352 26.15283203125
v -32.6290283203125 41.34564208984375 0.017895495519042015
v -17.793210983276367 44.608428955078125 0.017892131581902504
v -17.820049285888672 38.61958312988281 22.723142623901367
v -32.6243782043457 35.79503631591797 20.89649200439453
v -17.872909545898438 22.25616455078125 38.731201171875
v -32.6282958984375 20.62300682067871 35.56439971923828
v -0.25133514404296875 40.32124328613281 0.017892684787511826
v -0.3155367374420166 34.94466018676758 20.61494255065918
v -0.3955495357513428 20.176729202270508 35.12989044189453
v 17.147863388061523 23.525543212890625 15.246456146240234
v 17.134912490844727 12.68126106262207 25.791593551635742
v 33.21071243286133 21.480445861816406 0.017895402386784554
v 33.36801528930664 18.542869567871094 11.296412467956543
v 33.61086654663086 10.61317253112793 18.87038230895996
v 43.676109313964844 12.790639877319336 7.420719146728516
v 43.818111419677734 7.134125709533691 11.942020416259766
v 22.248767852783203 -0.010567951947450638 0.573218047618866
v 73.59173583984375 1.7765308618545532 4.372206687927246
v 50.608741760253906 7.927435874938965 0.17083245515823364
v 52.72223663330078 -0.09031960368156433 7.437210559844971
v 51.604103088378906 -7.533949375152588 -0.24015238881111145
v 66.07105255126953 9.510747909545898 -1.0506235361099243
v 68.29249572753906 2.438765048980713 -9.931388854980469
v 70.77017211914062 -5.84845495223999 -2.9751687049865723
v 51.27472686767578 0.18772105872631073 -7.785396575927734
v -44.93153762817383 25.775527954101562 -15.401073455810547
v -44.90479278564453 14.870420455932617 -26.117040634155273
v -44.889244079589844 4.076061941304943e-06 -30.032337188720703
v -17.820056915283203 38.61956787109375 -22.68736457824707
v -32.6243896484375 35.7950439453125 -20.860694885253906
v -17.87291717529297 22.256145477294922 -38.69541549682617
v -32.628292083740234 20.62301254272461 -35.52861022949219
v -17.898683547973633 2.738353828135587e-07 -44.52499771118164
v -32.62835693359375 2.328351456526434e-06 -40.86725997924805
v -0.31554508209228516 34.94465255737305 -20.579153060913086
v -0.3955566883087158 20.176721572875977 -35.09410095214844
v -0.510960578918457 -2.1919554455962498e-06 -40.436073303222656
v 17.132165908813477 27.178577423095703 0.01789003424346447
v 17.14785385131836 23.52552032470703 -15.210668563842773
v 17.134906768798828 12.681260108947754 -25.755800247192383
v 17.138154983520508 -6.342474080156535e-06 -29.61098861694336
v 33.36801528930664 18.542869567871094 -11.2606201171875
v 33.61086654663086 10.613170623779297 -18.834590911865234
v 33.814449310302734 -9.949841114575975e-06 -21.48822021484375
v 43.63154220581055 14.924006462097168 0.01789253018796444
v 43.676109313964844 12.790627479553223 -7.3849287033081055
v 43.818111419677734 7.134115695953369 -11.906227111816406
v 43.866607666015625 -9.321324796474073e-06 -13.42851448059082
v -44.95399856567383 -29.737260818481445 0.01790032535791397
v -44.931541442871094 -25.77553367614746 -15.401074409484863
v -44.90479278564453 -14.870400428771973 -26.117040634155273
v -17.820064544677734 -38.61957550048828 -22.687355041503906
v -32.6243896484375 -35.79502487182617 -20.860702514648438
v -17.87291717529297 -22.256153106689453 -38.69541549682617
v -32.62830352783203 -20.62299346923828 -35.52861022949219
v -0.3155486583709717 -34.94465637207031 -20.579153060913086
v -0.3955574035644531 -20.176725387573242 -35.09410095214844
v 17.14785385131836 -23.525545120239258 -15.210665702819824
v 17.134906768798828 -12.68126392364502 -25.755802154541016
v 33.36801528930664 -18.542877197265625 -11.26062297821045
v 33.61085891723633 -10.613180160522461 -18.834590911865234
v 43.63154220581055 -14.924020767211914 0.017901258543133736
v 43.67610549926758 -12.79065227508545 -7.384927749633789
v 43.818111419677734 -7.134138584136963 -11.906229019165039
v -17.820070266723633 -38.61956024169922 22.723163604736328
v -0.25134849548339844 -40.32124328613281 0.017900312319397926
v -17.793224334716797 -44.608421325683594 0.017901767045259476
v -17.820070266723633 -38.61956024169922 22.723163604736328
v -17.8729248046875 -22.256134033203125 38.7312126159668
v -0.3155546188354492 -34.94465255737305 20.614952087402344
v -0.3155546188354492 -34.94465255737305 20.614952087402344
v -17.820070266723633 -38.61956024169922 22.723163604736328
v -17.8729248046875 -22.256134033203125 38.7312126159668
v -17.898681640625 1.0215843758487608e-05 44.560791015625
v -0.39556193351745605 -20.17671775817871 35.1298942565918
v -0.39556193351745605 -20.17671775817871 35.1298942565918
v -17.8729248046875 -22.256134033203125 38.7312126159668
v -17.898681640625 1.0215843758487608e-05 44.560791015625
v -0.3155546188354492 -34.94465255737305 20.614952087402344
v 17.13215446472168 -27.1785831451416 0.017903659492731094
v -0.25134849548339844 -40.32124328613281 0.017900312319397926
v -0.3155546188354492 -34.94465255737305 20.614952087402344
v -0.39556193351745605 -20.17671775817871 35.1298942565918
v 17.147846221923828 -23.525524139404297 15.246464729309082
v 17.147846221923828 -23.525524139404297 15.246464729309082
v -0.3155546188354492 -34.94465255737305 20.614952087402344
v -0.39556193351745605 -20.17671775817871 35.1298942565918
v -0.5109589099884033 6.687496806989657e-06 40.47187042236328
v 17.134902954101562 -12.681262016296387 25.791597366333008
v 17.134902954101562 -12.681262016296387 25.791597366333008
v -0.39556193351745605 -20.17671775817871 35.1298942565918
v -0.5109589099884033 6.687496806989657e-06 40.47187042236328
v 17.147846221923828 -23.525524139404297 15.246464729309082
v 33.21070098876953 -21.480457305908203 0.01789778470993042
v 17.13215446472168 -27.1785831451416 0.017903659492731094
v 17.147846221923828 -23.525524139404297 15.246464729309082
v 17.134902954101562 -12.681262016296387 25.791597366333008
v 33.36801528930664 -18.542877197265625 11.296417236328125
v 17.147846221923828 -23.525524139404297 15.246464729309082
v 17.13815689086914 4.0314271245733835e-06 29.64678192138672
v 33.61085891723633 -10.613178253173828 18.870386123657227
v 33.61085891723633 -10.613178253173828 18.870386123657227
v 17.134902954101562 -12.681262016296387 25.791597366333008
v 17.13815689086914 4.0314271245733835e-06 29.64678192138672
v 33.36801528930664 -18.542877197265625 11.296417236328125
v 43.63154220581055 -14.924020767211914 0.017901258543133736
v 33.21070098876953 -21.480457305908203 0.01789778470993042
v 33.36801528930664 -18.542877197265625 11.296417236328125
v 33.61085891723633 -10.613178253173828 18.870386123657227
v 43.676109313964844 -12.790639877319336 7.420723915100098
v 43.676109313964844 -12.790639877319336 7.420723915100098
v 33.36801528930664 -18.542877197265625 11.296417236328125
v 33.61085891723633 -10.613178253173828 18.870386123657227
v 33.814449310302734 -8.634626738057705e-07 21.52401351928711
v 43.818111419677734 -7.134128570556641 11.942023277282715
v 43.818111419677734 -7.134128570556641 11.942023277282715
v 33.61085891723633 -10.613178253173828 18.870386123657227
v 33.814449310302734 -8.634626738057705e-07 21.52401351928711
v 43.676109313964844 -12.790639877319336 7.420723915100098
v 43.63154220581055 -14.924020767211914 0.017901258543133736
v 43.818111419677734 -7.134128570556641 11.942023277282715
v 47.69683837890625 -7.1313829721475486e-06 0.017896682024002075
v 43.676109313964844 -12.790639877319336 7.420723915100098
v 43.866607666015625 -2.151438593500643e-06 13.464306831359863
v 47.69683837890625 -7.1313829721475486e-06 0.017896682024002075
v 43.818111419677734 -7.134128570556641 11.942023277282715
v -17.820049285888672 38.61958312988281 22.723142623901367
v -17.793210983276367 44.608428955078125 0.017892131581902504
v -0.25133514404296875 40.32124328613281 0.017892684787511826
v -17.820049285888672 38.61958312988281 22.723142623901367
v -17.872909545898438 22.25616455078125 38.731201171875
v -17.820049285888672 38.61958312988281 22.723142623901367
v -0.3155367374420166 34.94466018676758 20.61494255065918
v -0.3155367374420166 34.94466018676758 20.61494255065918
v -17.872909545898438 22.25616455078125 38.731201171875
v -17.898681640625 1.0215843758487608e-05 44.560791015625
v -17.872909545898438 22.25616455078125 38.731201171875
v -0.3955495357513428 20.176729202270508 35.12989044189453
v -0.3955495357513428 20.176729202270508 35.12989044189453
v -0.5109589099884033 6.687496806989657e-06 40.47187042236328
v -17.898681640625 1.0215843758487608e-05 44.560791015625
v -0.3155367374420166 34.94466018676758 20.61494255065918
v -0.25133514404296875 40.32124328613281 0.017892684787511826
v 17.132165908813477 27.178577423095703 0.01789003424346447
v -0.3155367374420166 34.94466018676758 20.61494255065918
v -0.3955495357513428 20.176729202270508 35.12989044189453
v -0.3155367374420166 34.94466018676758 20.61494255065918
v 17.147863388061523 23.525543212890625 15.246456146240234
v 17.147863388061523 23.525543212890625 15.246456146240234
v -0.3955495357513428 20.176729202270508 35.12989044189453
v -0.5109589099884033 6.687496806989657e-06 40.47187042236328
v -0.3955495357513428 20.176729202270508 35.12989044189453
v 17.134912490844727 12.68126106262207 25.791593551635742
v 17.134912490844727 12.68126106262207 25.791593551635742
v 17.13815689086914 4.0314271245733835e-06 29.64678192138672
v -0.5109589099884033 6.687496806989657e-06 40.47187042236328
v 17.147863388061523 23.525543212890625 15.246456146240234
v 17.132165908813477 27.178577423095703 0.01789003424346447
v 33.21071243286133 21.480445861816406 0.017895402386784554
v 17.147863388061523 23.525543212890625 15.246456146240234
v 17.134912490844727 12.68126106262207 25.791593551635742
v 17.147863388061523 23.525543212890625 15.246456146240234
v 33.36801528930664 18.542869567871094 11.296412467956543
v 17.13815689086914 4.0314271245733835e-06 29.64678192138672
v 17.134912490844727 12.68126106262207 25.791593551635742
v 33.61086654663086 10.61317253112793 18.87038230895996
v 33.61086654663086 10.61317253112793 18.87038230895996
v 33.814449310302734 -8.634626738057705e-07 21.52401351928711
v 17.13815689086914 4.0314271245733835e-06 29.64678192138672
v 33.36801528930664 18.542869567871094 11.296412467956543
v 33.21071243286133 21.480445861816406 0.017895402386784554
v 43.63154220581055 14.924006462097168 0.01789253018796444
v 33.36801528930664 18.542869567871094 11.296412467956543
v 33.61086654663086 10.61317253112793 18.87038230895996
v 33.36801528930664 18.542869567871094 11.296412467956543
v 43.676109313964844 12.790639877319336 7.420719146728516
v 43.676109313964844 12.790639877319336 7.420719146728516
v 33.61086654663086 10.61317253112793 18.87038230895996
v 33.814449310302734 -8.634626738057705e-07 21.52401351928711
v 33.61086654663086 10.61317253112793 18.87038230895996
v 43.818111419677734 7.134125709533691 11.942020416259766
v 43.818111419677734 7.134125709533691 11.942020416259766
v 43.866607666015625 -2.151438593500643e-06 13.464306831359863
v 33.814449310302734 -8.634626738057705e-07 21.52401351928711
v 43.676109313964844 12.790639877319336 7.420719146728516
v 43.63154220581055 14.924006462097168 0.01789253018796444
v 47.69683837890625 -7.1313829721475486e-06 0.017896682024002075
v 43.818111419677734 7.134125709533691 11.942020416259766
v 43.676109313964844 12.790639877319336 7.420719146728516
v 47.69683837890625 -7.1313829721475486e-06 0.017896682024002075
v 43.866607666015625 -2.151438593500643e-06 13.464306831359863
v 43.818111419677734 7.134125709533691 11.942020416259766
v 47.69683837890625 -7.1313829721475486e-06 0.017896682024002075
v 73.59173583984375 1.7765308618545532 4.372206687927246
v 66.07105255126953 9.510747909545898 -1.0506235361099243
v 68.29249572753906 2.438765048980713 -9.931388854980469
v 73.59173583984375 1.7765308618545532 4.372206687927246
v 68.29249572753906 2.438765048980713 -9.931388854980469
v 70.77017211914062 -5.84845495223999 -2.9751687049865723
v -17.820056915283203 38.61956787109375 -22.68736457824707
v -0.25133514404296875 40.32124328613281 0.017892684787511826
v -0.25133514404296875 40.32124328613281 0.017892684787511826
v -17.793210983276367 44.608428955078125 0.017892131581902504
v -17.820056915283203 38.61956787109375 -22.68736457824707
v -17.87291717529297 22.256145477294922 -38.69541549682617
v -0.31554508209228516 34.94465255737305 -20.579153060913086
v -0.31554508209228516 34.94465255737305 -20.579153060913086
v -17.820056915283203 38.61956787109375 -22.68736457824707
v -17.87291717529297 22.256145477294922 -38.69541549682617
v -17.898683547973633 2.738353828135587e-07 -44.52499771118164
v -0.3955566883087158 20.176721572875977 -35.09410095214844
v -0.3955566883087158 20.176721572875977 -35.09410095214844
v -17.87291717529297 22.256145477294922 -38.69541549682617
v -17.898683547973633 2.738353828135587e-07 -44.52499771118164
v -0.31554508209228516 34.94465255737305 -20.579153060913086
v 17.132165908813477 27.178577423095703 0.01789003424346447
v 17.132165908813477 27.178577423095703 0.01789003424346447
v -0.25133514404296875 40.32124328613281 0.017892684787511826
v -0.31554508209228516 34.94465255737305 -20.579153060913086
v -0.3955566883087158 20.176721572875977 -35.09410095214844
v 17.14785385131836 23.52552032470703 -15.210668563842773
v 17.14785385131836 23.52552032470703 -15.210668563842773
v -0.31554508209228516 34.94465255737305 -20.579153060913086
v -0.3955566883087158 20.176721572875977 -35.09410095214844
v -0.510960578918457 -2.1919554455962498e-06 -40.436073303222656
v 17.134906768798828 12.681260108947754 -25.755800247192383
v 17.134906768798828 12.681260108947754 -25.755800247192383
v -0.3955566883087158 20.176721572875977 -35.09410095214844
v -0.510960578918457 -2.1919554455962498e-06 -40.436073303222656
v 17.14785385131836 23.52552032470703 -15.210668563842773
v 33.21071243286133 21.480445861816406 0.017895402386784554
v 33.21071243286133 21.480445861816406 0.017895402386784554
v 17.132165908813477 27.178577423095703 0.01789003424346447
v 17.14785385131836 23.52552032470703 -15.210668563842773
v 17.134906768798828 12.681260108947754 -25.755800247192383
v 33.36801528930664 18.542869567871094 -11.2606201171875
v 17.14785385131836 23.52552032470703 -15.210668563842773
v 17.138154983520508 -6.342474080156535e-06 -29.61098861694336
v 33.61086654663086 10.613170623779297 -18.834590911865234
v 33.61086654663086 10.613170623779297 -18.834590911865234
v 17.134906768798828 12.681260108947754 -25.755800247192383
v 17.138154983520508 -6.342474080156535e-06 -29.61098861694336
v 33.36801528930664 18.542869567871094 -11.2606201171875
v 43.63154220581055 14.924006462097168 0.01789253018796444
v 43.63154220581055 14.924006462097168 0.01789253018796444
v 33.21071243286133 21.480445861816406 0.017895402386784554
v 33.36801528930664 18.542869567871094 -11.2606201171875
v 33.61086654663086 10.613170623779297 -18.834590911865234
v 43.676109313964844 12.790627479553223 -7.3849287033081055
v 43.676109313964844 12.790627479553223 -7.3849287033081055
v 33.36801528930664 18.542869567871094 -11.2606201171875
v 33.61086654663086 10.613170623779297 -18.834590911865234
v 33.814449310302734 -9.949841114575975e-06 -21.48822021484375
v 43.818111419677734 7.134115695953369 -11.906227111816406
v 43.818111419677734 7.134115695953369 -11.906227111816406
v 33.61086654663086 10.613170623779297 -18.834590911865234
v 33.814449310302734 -9.949841114575975e-06 -21.48822021484375
v 43.676109313964844 12.790627479553223 -7.3849287033081055
v 47.69683837890625 -7.1313829721475486e-06 0.017896682024002075
v 43.63154220581055 14.924006462097168 0.01789253018796444
v 43.818111419677734 7.134115695953369 -11.906227111816406
v 47.69683837890625 -7.1313829721475486e-06 0.017896682024002075
v 43.676109313964844 12.790627479553223 -7.3849287033081055
v 43.866607666015625 -9.321324796474073e-06 -13.42851448059082
v 47.69683837890625 -7.1313829721475486e-06 0.017896682024002075
v 43.818111419677734 7.134115695953369 -11.906227111816406
v -17.820064544677734 -38.61957550048828 -22.687355041503906
v -17.793224334716797 -44.608421325683594 0.017901767045259476
v -0.25134849548339844 -40.32124328613281 0.017900312319397926
v -0.25134849548339844 -40.32124328613281 0.017900312319397926
v -17.820064544677734 -38.61957550048828 -22.687355041503906
v -17.87291717529297 -22.256153106689453 -38.69541549682617
v -17.820064544677734 -38.61957550048828 -22.687355041503906
v -0.3155486583709717 -34.94465637207031 -20.579153060913086
v -0.3155486583709717 -34.94465637207031 -20.579153060913086
v -17.87291717529297 -22.256153106689453 -38.69541549682617
v -17.898683547973633 2.738353828135587e-07 -44.52499771118164
v -17.87291717529297 -22.256153106689453 -38.69541549682617
v -0.3955574035644531 -20.176725387573242 -35.09410095214844
v -0.3955574035644531 -20.176725387573242 -35.09410095214844
v -0.510960578918457 -2.1919554455962498e-06 -40.436073303222656
v -17.898683547973633 2.738353828135587e-07 -44.52499771118164
v -0.3155486583709717 -34.94465637207031 -20.579153060913086
v -0.25134849548339844 -40.32124328613281 0.017900312319397926
v 17.13215446472168 -27.1785831451416 0.017903659492731094
v 17.13215446472168 -27.1785831451416 0.017903659492731094
v -0.3155486583709717 -34.94465637207031 -20.579153060913086
v -0.3955574035644531 -20.176725387573242 -35.09410095214844
v -0.3155486583709717 -34.94465637207031 -20.579153060913086
v 17.14785385131836 -23.525545120239258 -15.210665702819824
v 17.14785385131836 -23.525545120239258 -15.210665702819824
v -0.3955574035644531 -20.176725387573242 -35.09410095214844
v -0.510960578918457 -2.1919554455962498e-06 -40.436073303222656
v -0.3955574035644531 -20.176725387573242 -35.09410095214844
v 17.134906768798828 -12.68126392364502 -25.755802154541016
v 17.134906768798828 -12.68126392364502 -25.755802154541016
v 17.138154983520508 -6.342474080156535e-06 -29.61098861694336
v -0.510960578918457 -2.1919554455962498e-06 -40.436073303222656
v 17.14785385131836 -23.525545120239258 -15.210665702819824
v 17.13215446472168 -27.1785831451416 0.017903659492731094
v 33.21070098876953 -21.480457305908203 0.01789778470993042
v 33.21070098876953 -21.480457305908203 0.01789778470993042
v 17.14785385131836 -23.525545120239258 -15.210665702819824
v 17.134906768798828 -12.68126392364502 -25.755802154541016
v 17.14785385131836 -23.525545120239258 -15.210665702819824
v 33.36801528930664 -18.542877197265625 -11.26062297821045
v 17.138154983520508 -6.342474080156535e-06 -29.61098861694336
v 17.134906768798828 -12.68126392364502 -25.755802154541016
v 33.61085891723633 -10.613180160522461 -18.834590911865234
v 33.61085891723633 -10.613180160522461 -18.834590911865234
v 33.814449310302734 -9.949841114575975e-06 -21.48822021484375
v 17.138154983520508 -6.342474080156535e-06 -29.61098861694336
v 33.36801528930664 -18.542877197265625 -11.26062297821045
v 33.21070098876953 -21.480457305908203 0.01789778470993042
v 43.63154220581055 -14.924020767211914 0.017901258543133736
v 43.63154220581055 -14.924020767211914 0.017901258543133736
v 33.36801528930664 -18.542877197265625 -11.26062297821045
v 33.61085891723633 -10.613180160522461 -18.834590911865234
v 33.36801528930664 -18.542877197265625 -11.26062297821045
v 43.67610549926758 -12.79065227508545 -7.384927749633789
v 43.67610549926758 -12.79065227508545 -7.384927749633789
v 33.61085891723633 -10.613180160522461 -18.834590911865234
v 33.814449310302734 -9.949841114575975e-06 -21.48822021484375
v 33.61085891723633 -10.613180160522461 -18.834590911865234
v 43.818111419677734 -7.134138584136963 -11.906229019165039
v 43.818111419677734 -7.134138584136963 -11.906229019165039
v 43.866607666015625 -9.321324796474073e-06 -13.42851448059082
v 33.814449310302734 -9.949841114575975e-06 -21.48822021484375
v 43.67610549926758 -12.79065227508545 -7.384927749633789
v 43.63154220581055 -14.924020767211914 0.017901258543133736
v 47.69683837890625 -7.1313829721475486e-06 0.017896682024002075
v 43.818111419677734 -7.134138584136963 -11.906229019165039
v 43.67610549926758 -12.79065227508545 -7.384927749633789
v 47.69683837890625 -7.1313829721475486e-06 0.017896682024002075
v 43.866607666015625 -9.321324796474073e-06 -13.42851448059082
v 43.818111419677734 -7.134138584136963 -11.906229019165039
v 47.69683837890625 -7.1313829721475486e-06 0.017896682024002075
vt 0.47504281997680664 0.565872311592102
vt 0.4745519161224365 0.5658735036849976
vt 0.47504281997680664 0.565872311592102
vt 0.4760614037513733 0.5663636922836304
vt 0.4763820171356201 0.5670304298400879
vt 0.4750439524650574 0.5670313835144043
vt 0.4750429391860962 0.5663620233535767
vt 0.4737483263015747 0.5670304298400879
vt 0.4740528166294098 0.5663634538650513
vt 0.4750439524650574 0.5670313835144043
vt 0.4750429391860962 0.5663620233535767
vt 0.4764145612716675 0.5678432583808899
vt 0.4750445485115051 0.5678423643112183
vt 0.4737042188644409 0.5678432583808899
vt 0.4750445485115051 0.5678423643112183
vt 0.47622811794281006 0.5670303106307983
vt 0.475044846534729 0.5670293569564819
vt 0.4738996624946594 0.5670303106307983
vt 0.475044846534729 0.5670293569564819
vt 0.475620299577713 0.5663632154464722
vt 0.4750441312789917 0.5663607120513916
vt 0.47449344396591187 0.5663633346557617
vt 0.4750441312789917 0.5663607120513916
vt 0.475044846534729 0.5658159255981445
vt 0.47465842962265015 0.5658160448074341
vt 0.475044846534729 0.5658159255981445
vt 0.475044846534729 0.5652366876602173
vt 0.4750446081161499 0.5653356313705444
vt 0.47556769847869873 0.5658736228942871
vt 0.47504281997680664 0.565872311592102
vt 0.4745519161224365 0.5658735036849976
vt 0.4760614037513733 0.5663636922836304
vt 0.4763820171356201 0.5670304298400879
vt 0.4750439524650574 0.5670313835144043
vt 0.4750429391860962 0.5663620233535767
vt 0.4737483263015747 0.5670304298400879
vt 0.4740528166294098 0.5663634538650513
vt 0.4764145612716675 0.5678432583808899
vt 0.4750445485115051 0.5678423643112183
vt 0.4737042188644409 0.5678432583808899
vt 0.475044846534729 0.5670293569564819
vt 0.4738996624946594 0.5670303106307983
vt 0.475620299577713 0.5663632154464722
vt 0.4750441312789917 0.5663607120513916
vt 0.47449344396591187 0.5663633346557617
vt 0.475044846534729 0.5658159255981445
vt 0.47465842962265015 0.5658160448074341
vt 0.47631388902664185 0.5658402442932129
vt 0.4763135015964508 0.5651315450668335
vt 0.47626805305480957 0.5654857754707336
vt 0.4763137102127075 0.5654858946800232
vt 0.4763593375682831 0.5654857754707336
vt 0.4762221872806549 0.5651313066482544
vt 0.4763135015964508 0.5651315450668335
vt 0.4764047861099243 0.5651313066482544
vt 0.4763137102127075 0.5654858946800232
vt 0.47504281997680664 0.565872311592102
vt 0.4745519161224365 0.5658735036849976
vt 0.47504281997680664 0.565872311592102
vt 0.4750439524650574 0.5670313835144043
vt 0.4750429391860962 0.5663620233535767
vt 0.4737483263015747 0.5670304298400879
vt 0.4740528166294098 0.5663634538650513
vt 0.4750439524650574 0.5670313835144043
vt 0.4750429391860962 0.5663620233535767
vt 0.4750445485115051 0.5678423643112183
vt 0.4737042188644409 0.5678432583808899
vt 0.4750445485115051 0.5678423643112183
vt 0.47622811794281006 0.5670303106307983
vt 0.475044846534729 0.5670293569564819
vt 0.4738996624946594 0.5670303106307983
vt 0.475044846534729 0.5670293569564819
vt 0.4750441312789917 0.5663607120513916
vt 0.47449344396591187 0.5663633346557617
vt 0.4750441312789917 0.5663607120513916
vt 0.4754592180252075 0.5658159255981445
vt 0.475044846534729 0.5658159255981445
vt 0.47465842962265015 0.5658160448074341
vt 0.475044846534729 0.5658159255981445
vt 0.47556769847869873 0.5658736228942871
vt 0.47504281997680664 0.565872311592102
vt 0.4745519161224365 0.5658735036849976
vt 0.4750439524650574 0.5670313835144043
vt 0.4750429391860962 0.5663620233535767
vt 0.4737483263015747 0.5670304298400879
vt 0.4740528166294098 0.5663634538650513
vt 0.4750445485115051 0.5678423643112183
vt 0.4737042188644409 0.5678432583808899
vt 0.475044846534729 0.5670293569564819
vt 0.4738996624946594 0.5670303106307983
vt 0.4750441312789917 0.5663607120513916
vt 0.47449344396591187 0.5663633346557617
vt 0.4754592180252075 0.5658159255981445
vt 0.475044846534729 0.5658159255981445
vt 0.47465842962265015 0.5658160448074341
vt 0.4750439524650574 0.5670313835144043
vt 0.4764145612716675 0.5678432583808899
vt 0.4763820171356201 0.5670304298400879
vt 0.4750439524650574 0.5670313835144043
vt 0.4737483263015747 0.5670304298400879
vt 0.4750445485115051 0.5678423643112183
vt 0.4750445485115051 0.5678423643112183
vt 0.4750439524650574 0.5670313835144043
vt 0.4737483263015747 0.5670304298400879
vt 0.4750439524650574 0.5670313835144043
vt 0.4737042188644409 0.5678432583808899
vt 0.4737042188644409 0.5678432583808899
vt 0.4737483263015747 0.5670304298400879
vt 0.4750439524650574 0.5670313835144043
vt 0.4750445485115051 0.5678423643112183
vt 0.47622811794281006 0.5670303106307983
vt 0.4764145612716675 0.5678432583808899
vt 0.4750445485115051 0.5678423643112183
vt 0.4737042188644409 0.5678432583808899
vt 0.475044846534729 0.5670293569564819
vt 0.475044846534729 0.5670293569564819
vt 0.4750445485115051 0.5678423643112183
vt 0.4737042188644409 0.5678432583808899
vt 0.4750445485115051 0.5678423643112183
vt 0.4738996624946594 0.5670303106307983
vt 0.4738996624946594 0.5670303106307983
vt 0.4737042188644409 0.5678432583808899
vt 0.4750445485115051 0.5678423643112183
vt 0.475044846534729 0.5670293569564819
vt 0.475620299577713 0.5663632154464722
vt 0.47622811794281006 0.5670303106307983
vt 0.475044846534729 0.5670293569564819
vt 0.4738996624946594 0.5670303106307983
vt 0.4750441312789917 0.5663607120513916
vt 0.475044846534729 0.5670293569564819
vt 0.475044846534729 0.5670293569564819
vt 0.47449344396591187 0.5663633346557617
vt 0.47449344396591187 0.5663633346557617
vt 0.4738996624946594 0.5670303106307983
vt 0.475044846534729 0.5670293569564819
vt 0.4750441312789917 0.5663607120513916
vt 0.4754592180252075 0.5658159255981445
vt 0.475620299577713 0.5663632154464722
vt 0.4750441312789917 0.5663607120513916
vt 0.47449344396591187 0.5663633346557617
vt 0.475044846534729 0.5658159255981445
vt 0.475044846534729 0.5658159255981445
vt 0.4750441312789917 0.5663607120513916
vt 0.47449344396591187 0.5663633346557617
vt 0.4750441312789917 0.5663607120513916
vt 0.47465842962265015 0.5658160448074341
vt 0.47465842962265015 0.5658160448074341
vt 0.47449344396591187 0.5663633346557617
vt 0.4750441312789917 0.5663607120513916
vt 0.475044846534729 0.5658159255981445
vt 0.4754592180252075 0.5658159255981445
vt 0.47465842962265015 0.5658160448074341
vt 0.475044846534729 0.5652366876602173
vt 0.475044846534729 0.5658159255981445
vt 0.475044846534729 0.5658159255981445
vt 0.475044846534729 0.5652366876602173
vt 0.47465842962265015 0.5658160448074341
vt 0.4750439524650574 0.5670313835144043
vt 0.4763820171356201 0.5670304298400879
vt 0.4764145612716675 0.5678432583808899
vt 0.4750439524650574 0.5670313835144043
vt 0.4737483263015747 0.5670304298400879
vt 0.4750439524650574 0.5670313835144043
vt 0.4750445485115051 0.5678423643112183
vt 0.4750445485115051 0.5678423643112183
vt 0.4737483263015747 0.5670304298400879
vt 0.4750439524650574 0.5670313835144043
vt 0.4737483263015747 0.5670304298400879
vt 0.4737042188644409 0.5678432583808899
vt 0.4737042188644409 0.5678432583808899
vt 0.4750445485115051 0.5678423643112183
vt 0.4750439524650574 0.5670313835144043
vt 0.4750445485115051 0.5678423643112183
vt 0.4764145612716675 0.5678432583808899
vt 0.47622811794281006 0.5670303106307983
vt 0.4750445485115051 0.5678423643112183
vt 0.4737042188644409 0.5678432583808899
vt 0.4750445485115051 0.5678423643112183
vt 0.475044846534729 0.5670293569564819
vt 0.475044846534729 0.5670293569564819
vt 0.4737042188644409 0.5678432583808899
vt 0.4750445485115051 0.5678423643112183
vt 0.4737042188644409 0.5678432583808899
vt 0.4738996624946594 0.5670303106307983
vt 0.4738996624946594 0.5670303106307983
vt 0.475044846534729 0.5670293569564819
vt 0.4750445485115051 0.5678423643112183
vt 0.475044846534729 0.5670293569564819
vt 0.47622811794281006 0.5670303106307983
vt 0.475620299577713 0.5663632154464722
vt 0.475044846534729 0.5670293569564819
vt 0.4738996624946594 0.5670303106307983
vt 0.475044846534729 0.5670293569564819
vt 0.4750441312789917 0.5663607120513916
vt 0.475044846534729 0.5670293569564819
vt 0.4738996624946594 0.5670303106307983
vt 0.47449344396591187 0.5663633346557617
vt 0.47449344396591187 0.5663633346557617
vt 0.4750441312789917 0.5663607120513916
vt 0.475044846534729 0.5670293569564819
vt 0.4750441312789917 0.5663607120513916
vt 0.475620299577713 0.5663632154464722
vt 0.4754592180252075 0.5658159255981445
vt 0.4750441312789917 0.5663607120513916
vt 0.47449344396591187 0.5663633346557617
vt 0.4750441312789917 0.5663607120513916
vt 0.475044846534729 0.5658159255981445
vt 0.475044846534729 0.5658159255981445
vt 0.47449344396591187 0.5663633346557617
vt 0.4750441312789917 0.5663607120513916
vt 0.47449344396591187 0.5663633346557617
vt 0.47465842962265015 0.5658160448074341
vt 0.47465842962265015 0.5658160448074341
vt 0.475044846534729 0.5658159255981445
vt 0.4750441312789917 0.5663607120513916
vt 0.475044846534729 0.5658159255981445
vt 0.4754592180252075 0.5658159255981445
vt 0.475044846534729 0.5652366876602173
vt 0.47465842962265015 0.5658160448074341
vt 0.475044846534729 0.5658159255981445
vt 0.475044846534729 0.5652366876602173
vt 0.475044846534729 0.5658159255981445
vt 0.47465842962265015 0.5658160448074341
vt 0.475044846534729 0.5652366876602173
vt 0.4763135015964508 0.5651315450668335
vt 0.4762221872806549 0.5651313066482544
vt 0.4763135015964508 0.5651315450668335
vt 0.4763135015964508 0.5651315450668335
vt 0.4763135015964508 0.5651315450668335
vt 0.4764047861099243 0.5651313066482544
vt 0.4750439524650574 0.5670313835144043
vt 0.4764145612716675 0.5678432583808899
vt 0.4764145612716675 0.5678432583808899
vt 0.4763820171356201 0.5670304298400879
vt 0.4750439524650574 0.5670313835144043
vt 0.4737483263015747 0.5670304298400879
vt 0.4750445485115051 0.5678423643112183
vt 0.4750445485115051 0.5678423643112183
vt 0.4750439524650574 0.5670313835144043
vt 0.4737483263015747 0.5670304298400879
vt 0.4750439524650574 0.5670313835144043
vt 0.4737042188644409 0.5678432583808899
vt 0.4737042188644409 0.5678432583808899
vt 0.4737483263015747 0.5670304298400879
vt 0.4750439524650574 0.5670313835144043
vt 0.4750445485115051 0.5678423643112183
vt 0.47622811794281006 0.5670303106307983
vt 0.47622811794281006 0.5670303106307983
vt 0.4764145612716675 0.5678432583808899
vt 0.4750445485115051 0.5678423643112183
vt 0.4737042188644409 0.5678432583808899
vt 0.475044846534729 0.5670293569564819
vt 0.475044846534729 0.5670293569564819
vt 0.4750445485115051 0.5678423643112183
vt 0.4737042188644409 0.5678432583808899
vt 0.4750445485115051 0.5678423643112183
vt 0.4738996624946594 0.5670303106307983
vt 0.4738996624946594 0.5670303106307983
vt 0.4737042188644409 0.5678432583808899
vt 0.4750445485115051 0.5678423643112183
vt 0.475044846534729 0.5670293569564819
vt 0.475620299577713 0.5663632154464722
vt 0.475620299577713 0.5663632154464722
vt 0.47622811794281006 0.5670303106307983
vt 0.475044846534729 0.5670293569564819
vt 0.4738996624946594 0.5670303106307983
vt 0.4750441312789917 0.5663607120513916
vt 0.475044846534729 0.5670293569564819
vt 0.475044846534729 0.5670293569564819
vt 0.47449344396591187 0.5663633346557617
vt 0.47449344396591187 0.5663633346557617
vt 0.4738996624946594 0.5670303106307983
vt 0.475044846534729 0.5670293569564819
vt 0.4750441312789917 0.5663607120513916
vt 0.4754592180252075 0.5658159255981445
vt 0.4754592180252075 0.5658159255981445
vt 0.475620299577713 0.5663632154464722
vt 0.4750441312789917 0.5663607120513916
vt 0.47449344396591187 0.5663633346557617
vt 0.475044846534729 0.5658159255981445
vt 0.475044846534729 0.5658159255981445
vt 0.4750441312789917 0.5663607120513916
vt 0.47449344396591187 0.5663633346557617
vt 0.4750441312789917 0.5663607120513916
vt 0.47465842962265015 0.5658160448074341
vt 0.47465842962265015 0.5658160448074341
vt 0.47449344396591187 0.5663633346557617
vt 0.4750441312789917 0.5663607120513916
vt 0.475044846534729 0.5658159255981445
vt 0.475044846534729 0.5652366876602173
vt 0.4754592180252075 0.5658159255981445
vt 0.47465842962265015 0.5658160448074341
vt 0.475044846534729 0.5652366876602173
vt 0.475044846534729 0.5658159255981445
vt 0.475044846534729 0.5658159255981445
vt 0.475044846534729 0.5652366876602173
vt 0.47465842962265015 0.5658160448074341
vt 0.4750439524650574 0.5670313835144043
vt 0.4763820171356201 0.5670304298400879
vt 0.4764145612716675 0.5678432583808899
vt 0.4764145612716675 0.5678432583808899
vt 0.4750439524650574 0.5670313835144043
vt 0.4737483263015747 0.5670304298400879
vt 0.4750439524650574 0.5670313835144043
vt 0.4750445485115051 0.5678423643112183
vt 0.4750445485115051 0.5678423643112183
vt 0.4737483263015747 0.5670304298400879
vt 0.4750439524650574 0.5670313835144043
vt 0.4737483263015747 0.5670304298400879
vt 0.4737042188644409 0.5678432583808899
vt 0.4737042188644409 0.5678432583808899
vt 0.4750445485115051 0.5678423643112183
vt 0.4750439524650574 0.5670313835144043
vt 0.4750445485115051 0.5678423643112183
vt 0.4764145612716675 0.5678432583808899
vt 0.47622811794281006 0.5670303106307983
vt 0.47622811794281006 0.5670303106307983
vt 0.4750445485115051 0.5678423643112183
vt 0.4737042188644409 0.5678432583808899
vt 0.4750445485115051 0.5678423643112183
vt 0.475044846534729 0.5670293569564819
vt 0.475044846534729 0.5670293569564819
vt 0.4737042188644409 0.5678432583808899
vt 0.4750445485115051 0.5678423643112183
vt 0.4737042188644409 0.5678432583808899
vt 0.4738996624946594 0.5670303106307983
vt 0.4738996624946594 0.5670303106307983
vt 0.475044846534729 0.5670293569564819
vt 0.4750445485115051 0.5678423643112183
vt 0.475044846534729 0.5670293569564819
vt 0.47622811794281006 0.5670303106307983
vt 0.475620299577713 0.5663632154464722
vt 0.475620299577713 0.5663632154464722
vt 0.475044846534729 0.5670293569564819
vt 0.4738996624946594 0.5670303106307983
vt 0.475044846534729 0.5670293569564819
vt 0.4750441312789917 0.5663607120513916
vt 0.475044846534729 0.5670293569564819
vt 0.4738996624946594 0.5670303106307983
vt 0.47449344396591187 0.5663633346557617
vt 0.47449344396591187 0.5663633346557617
vt 0.4750441312789917 0.5663607120513916
vt 0.475044846534729 0.5670293569564819
vt 0.4750441312789917 0.5663607120513916
vt 0.475620299577713 0.5663632154464722
vt 0.4754592180252075 0.5658159255981445
vt 0.4754592180252075 0.5658159255981445
vt 0.4750441312789917 0.5663607120513916
vt 0.47449344396591187 0.5663633346557617
vt 0.4750441312789917 0.5663607120513916
vt 0.475044846534729 0.5658159255981445
vt 0.475044846534729 0.5658159255981445
vt 0.47449344396591187 0.5663633346557617
vt 0.4750441312789917 0.5663607120513916
vt 0.47449344396591187 0.5663633346557617
vt 0.47465842962265015 0.5658160448074341
vt 0.47465842962265015 0.5658160448074341
vt 0.475044846534729 0.5658159255981445
vt 0.4750441312789917 0.5663607120513916
vt 0.475044846534729 0.5658159255981445
vt 0.4754592180252075 0.5658159255981445
vt 0.475044846534729 0.5652366876602173
vt 0.47465842962265015 0.5658160448074341
vt 0.475044846534729 0.5658159255981445
vt 0.475044846534729 0.5652366876602173
vt 0.475044846534729 0.5658159255981445
vt 0.47465842962265015 0.5658160448074341
vt 0.475044846534729 0.5652366876602173
vn 0.8330489993095398 0.49767717719078064 -0.2415512651205063
vn 0.8275945782661438 0.30993279814720154 -0.4680052399635315
vn 0.8003726601600647 -4.224281440201594e-07 -0.5995029807090759
vn 0.46843644976615906 0.8834971785545349 -1.9803833239961932e-08
vn 0.21479322016239166 0.9766595363616943 -2.6157411525673524e-07
vn 0.21850371360778809 0.884686291217804 -0.4118085503578186
vn 0.4671700596809387 0.7187595367431641 -0.5149145722389221
vn 0.23008614778518677 0.5510479211807251 -0.8021262884140015
vn 0.465470552444458 0.3641658127307892 -0.8066724538803101
vn 0.2388627678155899 -2.3440354368631233e-07 -0.9710533618927002
vn 0.46625611186027527 -2.2011177236436197e-07 -0.8846498131752014
vn -0.22747400403022766 0.9420384168624878 -0.24661588668823242
vn -0.22747400403022766 0.9420384168624878 -0.24661588668823242
vn -0.22452710568904877 0.6824551820755005 -0.6955878734588623
vn -0.22174297273159027 0.24838387966156006 -0.942939817905426
vn -0.5775399208068848 0.7939764857292175 -0.18986563384532928
vn -0.5775399208068848 0.7939764857292175 -0.18986563384532928
vn -0.5623184442520142 0.5761425495147705 -0.5931759476661682
vn -0.506104052066803 0.25097981095314026 -0.8251471519470215
vn -0.33695414662361145 0.9122593998908997 -0.2329053282737732
vn -0.33695414662361145 0.9122593998908997 -0.2329053282737732
vn -0.3623284697532654 0.6495464444160461 -0.6684366464614868
vn -0.4264596700668335 0.22709189355373383 -0.8755349516868591
vn -0.5387880802154541 0.8103547096252441 -0.23028822243213654
vn -0.5951808094978333 0.5107991695404053 -0.6203579902648926
vn -0.6166232824325562 0.1682940423488617 -0.7690597176551819
vn -0.9624933004379272 0.2621828019618988 -0.06976261734962463
vn 1.0 -1.6506102440416726e-07 5.757942744821776e-08
vn 0.866019606590271 -0.500010073184967 3.963689891861577e-07
vn 0.8330485820770264 -0.4976775050163269 -0.24155157804489136
vn 0.8275944590568542 -0.30993321537971497 -0.46800538897514343
vn 0.4684363007545471 -0.8834972977638245 6.733303337114194e-08
vn 0.2147931307554245 -0.9766595959663391 2.3849406716180965e-07
vn 0.21850402653217316 -0.8846864104270935 -0.41180843114852905
vn 0.46716979146003723 -0.7187595963478088 -0.5149145722389221
vn 0.23008620738983154 -0.5510482788085938 -0.8021259903907776
vn 0.46547067165374756 -0.3641662895679474 -0.8066721558570862
vn -0.22996509075164795 -0.9409480690956116 -0.2484608143568039
vn -0.22747468948364258 -0.942038357257843 -0.24661549925804138
vn -0.22452758252620697 -0.6824553608894348 -0.6955876350402832
vn -0.5775395035743713 -0.7939772605895996 -0.18986424803733826
vn -0.5623188614845276 -0.5761417746543884 -0.5931764245033264
vn -0.3258368670940399 -0.9194214344024658 -0.22021529078483582
vn -0.336955726146698 -0.9122587442398071 -0.23290522396564484
vn -0.3623286187648773 -0.6495466828346252 -0.6684362888336182
vn -0.5387874841690063 -0.810355544090271 -0.23028677701950073
vn -0.5951809883117676 -0.5107990503311157 -0.6203579306602478
vn 0.9933732151985168 0.0767209604382515 -0.08557779341936111
vn -0.09386257082223892 -0.2342996746301651 -0.967622697353363
vn 0.1528693288564682 -0.9858830571174622 -0.06830525398254395
vn -0.01199994795024395 0.22506026923656464 -0.9742709398269653
vn 0.08380860835313797 0.9963961839675903 0.01306688692420721
vn 0.0906330794095993 -0.9870738387107849 -0.13217748701572418
vn 0.1405341476202011 -0.3580552339553833 0.9230636954307556
vn -0.09729323536157608 0.9942737817764282 0.044200316071510315
vn 0.17184028029441833 0.1750609129667282 0.969445526599884
vn 0.8330488204956055 -0.4976772665977478 0.24155128002166748
vn 0.827594518661499 -0.3099330961704254 0.46800512075424194
vn 0.8003726005554199 -1.3118884645280104e-08 0.5995028614997864
vn 0.21850354969501495 -0.8846863508224487 0.4118085205554962
vn 0.4671699106693268 -0.7187595963478088 0.5149144530296326
vn 0.23008589446544647 -0.5510481595993042 0.8021261692047119
vn 0.4654705226421356 -0.36416611075401306 0.8066723346710205
vn 0.23886282742023468 -1.5370726913488397e-08 0.971053421497345
vn 0.46625614166259766 -5.1097373443553806e-08 0.8846497535705566
vn -0.22747443616390228 -0.9420381784439087 0.2466159462928772
vn -0.2245272696018219 -0.6824553608894348 0.6955876350402832
vn -0.22174327075481415 -0.24838364124298096 0.942939817905426
vn -0.5901944041252136 -0.7806364893913269 -0.20561432838439941
vn -0.5775400996208191 -0.7939764857292175 0.18986569344997406
vn -0.5623186826705933 -0.5761423707008362 0.5931759476661682
vn -0.506104052066803 -0.25097984075546265 0.825147271156311
vn -0.3369545042514801 -0.9122591614723206 0.23290537297725677
vn -0.362328439950943 -0.64954674243927 0.6684364080429077
vn -0.42645975947380066 -0.2270917147397995 0.8755349516868591
vn -0.5208457708358765 -0.8278341293334961 -0.20835144817829132
vn -0.538788378238678 -0.8103545904159546 0.2302880436182022
vn -0.5951813459396362 -0.5107988119125366 0.6203577518463135
vn -0.6166232824325562 -0.16829445958137512 0.7690596580505371
vn 0.8660197854042053 0.5000099539756775 -1.0596004784702018e-07
vn 0.8330487012863159 0.4976772665977478 0.24155163764953613
vn 0.827594518661499 0.3099328875541687 0.4680052399635315
vn 0.21850429475307465 0.8846863508224487 0.41180840134620667
vn 0.4671701490879059 0.7187593579292297 0.5149146318435669
vn 0.2300865203142166 0.5510480999946594 0.8021260499954224
vn 0.4654708802700043 0.3641659617424011 0.806672215461731
vn -0.2274744212627411 0.9420382976531982 0.24661560356616974
vn -0.22452741861343384 0.6824554204940796 0.6955876350402832
vn -0.5775392055511475 0.7939773201942444 0.1898643523454666
vn -0.5623186826705933 0.576141893863678 0.5931763648986816
vn -0.3369552493095398 0.9122589230537415 0.23290516436100006
vn -0.36232855916023254 0.6495465040206909 0.668436586856842
vn -0.5387880802154541 0.8103547096252441 -0.23028822243213654
vn -0.5387874245643616 0.8103554248809814 0.23028717935085297
vn -0.5951805114746094 0.5107995867729187 0.6203580498695374
vn -0.22747400403022766 0.9420384168624878 -0.24661588668823242
vn -0.22996468842029572 0.9409480094909668 -0.24846138060092926
vn -0.22996468842029572 0.9409480094909668 -0.24846138060092926
vn -0.22996468842029572 0.9409480094909668 -0.24846138060092926
vn -0.22452710568904877 0.6824551820755005 -0.6955878734588623
vn -0.22452710568904877 0.6824551820755005 -0.6955878734588623
vn -0.22680048644542694 0.6807045936584473 -0.6965650320053101
vn -0.22680048644542694 0.6807045936584473 -0.6965650320053101
vn -0.22680048644542694 0.6807045936584473 -0.6965650320053101
vn -0.22174297273159027 0.24838387966156006 -0.942939817905426
vn -0.22174297273159027 0.24838387966156006 -0.942939817905426
vn -0.22365011274814606 0.24672278761863708 -0.9429255127906799
vn -0.22365011274814606 0.24672278761863708 -0.9429255127906799
vn -0.22365011274814606 0.24672278761863708 -0.9429255127906799
vn -0.5775399208068848 0.7939764857292175 -0.18986563384532928
vn -0.5901941061019897 0.780636727809906 -0.20561479032039642
vn -0.5901941061019897 0.780636727809906 -0.20561479032039642
vn -0.5901941061019897 0.780636727809906 -0.20561479032039642
vn -0.5623184442520142 0.5761425495147705 -0.5931759476661682
vn -0.5623184442520142 0.5761425495147705 -0.5931759476661682
vn -0.560577929019928 0.5789290070533752 -0.5921095609664917
vn -0.560577929019928 0.5789290070533752 -0.5921095609664917
vn -0.560577929019928 0.5789290070533752 -0.5921095609664917
vn -0.506104052066803 0.25097981095314026 -0.8251471519470215
vn -0.506104052066803 0.25097981095314026 -0.8251471519470215
vn -0.5290347933769226 0.21436262130737305 -0.8210790753364563
vn -0.5290347933769226 0.21436262130737305 -0.8210790753364563
vn -0.5290347933769226 0.21436262130737305 -0.8210790753364563
vn -0.33695414662361145 0.9122593998908997 -0.2329053282737732
vn -0.3258365988731384 0.9194211363792419 -0.22021691501140594
vn -0.3258365988731384 0.9194211363792419 -0.22021691501140594
vn -0.3258365988731384 0.9194211363792419 -0.22021691501140594
vn -0.3623284697532654 0.6495464444160461 -0.6684366464614868
vn -0.3623284697532654 0.6495464444160461 -0.6684366464614868
vn -0.3623177409172058 0.6495593786239624 -0.6684299111366272
vn -0.4264596700668335 0.22709189355373383 -0.8755349516868591
vn -0.4264596700668335 0.22709189355373383 -0.8755349516868591
vn -0.40153101086616516 0.2664794623851776 -0.876220166683197
vn -0.40153101086616516 0.2664794623851776 -0.876220166683197
vn -0.40153101086616516 0.2664794623851776 -0.876220166683197
vn -0.5387880802154541 0.8103547096252441 -0.23028822243213654
vn -0.5208451151847839 0.8278346061706543 -0.2083512842655182
vn -0.5208451151847839 0.8278346061706543 -0.2083512842655182
vn -0.5208451151847839 0.8278346061706543 -0.2083512842655182
vn -0.5951808094978333 0.5107991695404053 -0.6203579902648926
vn -0.5951808094978333 0.5107991695404053 -0.6203579902648926
vn -0.5504660606384277 0.585390567779541 -0.5952353477478027
vn -0.5504660606384277 0.585390567779541 -0.5952353477478027
vn -0.5504660606384277 0.585390567779541 -0.5952353477478027
vn -0.6166232824325562 0.1682940423488617 -0.7690597176551819
vn -0.6166232824325562 0.1682940423488617 -0.7690597176551819
vn -0.5966042280197144 0.20541898906230927 -0.7758005261421204
vn -0.5966042280197144 0.20541898906230927 -0.7758005261421204
vn -0.5966042280197144 0.20541898906230927 -0.7758005261421204
vn -0.9624933004379272 0.2621828019618988 -0.06976261734962463
vn -0.9624933004379272 0.2621828019618988 -0.06976261734962463
vn -0.9616926908493042 0.18548299372196198 -0.2018500119447708
vn -0.9616926908493042 0.18548299372196198 -0.2018500119447708
vn -0.9616926908493042 0.18548299372196198 -0.2018500119447708
vn -0.9597179293632507 0.06485728919506073 -0.2733771502971649
vn -0.9597179293632507 0.06485728919506073 -0.2733771502971649
vn -0.9597179293632507 0.06485728919506073 -0.2733771502971649
vn -0.22996509075164795 -0.9409480690956116 -0.2484608143568039
vn -0.22996509075164795 -0.9409480690956116 -0.2484608143568039
vn -0.22747468948364258 -0.942038357257843 -0.24661549925804138
vn -0.22747468948364258 -0.942038357257843 -0.24661549925804138
vn -0.22680070996284485 -0.6807048916816711 -0.6965646147727966
vn -0.22680070996284485 -0.6807048916816711 -0.6965646147727966
vn -0.22680070996284485 -0.6807048916816711 -0.6965646147727966
vn -0.22452758252620697 -0.6824553608894348 -0.6955876350402832
vn -0.22452758252620697 -0.6824553608894348 -0.6955876350402832
vn -0.2236500233411789 -0.2467229962348938 -0.9429254531860352
vn -0.2236500233411789 -0.2467229962348938 -0.9429254531860352
vn -0.2236500233411789 -0.2467229962348938 -0.9429254531860352
vn -0.22174307703971863 -0.24838398396968842 -0.9429398775100708
vn -0.22174307703971863 -0.24838398396968842 -0.9429398775100708
vn -0.22174307703971863 -0.24838398396968842 -0.9429398775100708
vn -0.5901944041252136 -0.7806364893913269 -0.20561432838439941
vn -0.5901944041252136 -0.7806364893913269 -0.20561432838439941
vn -0.5775395035743713 -0.7939772605895996 -0.18986424803733826
vn -0.5775395035743713 -0.7939772605895996 -0.18986424803733826
vn -0.5605776906013489 -0.5789291858673096 -0.5921095609664917
vn -0.5605776906013489 -0.5789291858673096 -0.5921095609664917
vn -0.5605776906013489 -0.5789291858673096 -0.5921095609664917
vn -0.5623188614845276 -0.5761417746543884 -0.5931764245033264
vn -0.5623188614845276 -0.5761417746543884 -0.5931764245033264
vn -0.5290349721908569 -0.2143625169992447 -0.8210791349411011
vn -0.5290349721908569 -0.2143625169992447 -0.8210791349411011
vn -0.5290349721908569 -0.2143625169992447 -0.8210791349411011
vn -0.5061041712760925 -0.25097984075546265 -0.8251472115516663
vn -0.5061041712760925 -0.25097984075546265 -0.8251472115516663
vn -0.5061041712760925 -0.25097984075546265 -0.8251472115516663
vn -0.3258368670940399 -0.9194214344024658 -0.22021529078483582
vn -0.3258368670940399 -0.9194214344024658 -0.22021529078483582
vn -0.336955726146698 -0.9122587442398071 -0.23290522396564484
vn -0.336955726146698 -0.9122587442398071 -0.23290522396564484
vn -0.36231881380081177 -0.6495584845542908 -0.6684302091598511
vn -0.36231881380081177 -0.6495584845542908 -0.6684302091598511
vn -0.36231881380081177 -0.6495584845542908 -0.6684302091598511
vn -0.40153104066848755 -0.2664795517921448 -0.8762199878692627
vn -0.40153104066848755 -0.2664795517921448 -0.8762199878692627
vn -0.40153104066848755 -0.2664795517921448 -0.8762199878692627
vn -0.42645978927612305 -0.2270919680595398 -0.8755348920822144
vn -0.42645978927612305 -0.2270919680595398 -0.8755348920822144
vn -0.42645978927612305 -0.2270919680595398 -0.8755348920822144
vn -0.5208457708358765 -0.8278341293334961 -0.20835144817829132
vn -0.5208457708358765 -0.8278341293334961 -0.20835144817829132
vn -0.5387874841690063 -0.810355544090271 -0.23028677701950073
vn -0.5387874841690063 -0.810355544090271 -0.23028677701950073
vn -0.5504657626152039 -0.5853910446166992 -0.5952350497245789
vn -0.5504657626152039 -0.5853910446166992 -0.5952350497245789
vn -0.5504657626152039 -0.5853910446166992 -0.5952350497245789
vn -0.5951809883117676 -0.5107990503311157 -0.6203579306602478
vn -0.5951809883117676 -0.5107990503311157 -0.6203579306602478
vn -0.5966044664382935 -0.2054188996553421 -0.775800347328186
vn -0.5966044664382935 -0.2054188996553421 -0.775800347328186
vn -0.5966044664382935 -0.2054188996553421 -0.775800347328186
vn -0.6166233420372009 -0.1682942658662796 -0.7690595984458923
vn -0.6166233420372009 -0.1682942658662796 -0.7690595984458923
vn -0.6166233420372009 -0.1682942658662796 -0.7690595984458923
vn -0.9624933004379272 -0.26218289136886597 -0.06976208835840225
vn -0.9624933004379272 -0.26218289136886597 -0.06976208835840225
vn -0.9624933004379272 -0.26218289136886597 -0.06976208835840225
vn -0.9616926312446594 -0.1854829043149948 -0.20184990763664246
vn -0.9616926312446594 -0.1854829043149948 -0.20184990763664246
vn -0.9616926312446594 -0.1854829043149948 -0.20184990763664246
vn -0.9597179293632507 -0.06485739350318909 -0.27337712049484253
vn -0.9597179293632507 -0.06485739350318909 -0.27337712049484253
vn -0.9597179293632507 -0.06485739350318909 -0.27337712049484253
vn -0.7771718502044678 -0.572415828704834 0.26142704486846924
vn -0.7771718502044678 -0.572415828704834 0.26142704486846924
vn -0.7771718502044678 -0.572415828704834 0.26142704486846924
vn -0.9374734163284302 0.011709121987223625 0.3478601574897766
vn -0.9374734163284302 0.011709121987223625 0.3478601574897766
vn -0.9374734163284302 0.011709121987223625 0.3478601574897766
vn -0.22747443616390228 -0.9420381784439087 0.2466159462928772
vn -0.22747443616390228 -0.9420381784439087 0.2466159462928772
vn -0.22996504604816437 -0.940947949886322 0.24846139550209045
vn -0.22996504604816437 -0.940947949886322 0.24846139550209045
vn -0.22996504604816437 -0.940947949886322 0.24846139550209045
vn -0.2245272696018219 -0.6824553608894348 0.6955876350402832
vn -0.2245272696018219 -0.6824553608894348 0.6955876350402832
vn -0.2268008589744568 -0.680704653263092 0.6965649127960205
vn -0.2268008589744568 -0.680704653263092 0.6965649127960205
vn -0.2268008589744568 -0.680704653263092 0.6965649127960205
vn -0.22174327075481415 -0.24838364124298096 0.942939817905426
vn -0.22174327075481415 -0.24838364124298096 0.942939817905426
vn -0.22365006804466248 -0.24672281742095947 0.9429255127906799
vn -0.22365006804466248 -0.24672281742095947 0.9429255127906799
vn -0.22365006804466248 -0.24672281742095947 0.9429255127906799
vn -0.5775400996208191 -0.7939764857292175 0.18986569344997406
vn -0.5775400996208191 -0.7939764857292175 0.18986569344997406
vn -0.5901942849159241 -0.7806364297866821 0.2056148797273636
vn -0.5901942849159241 -0.7806364297866821 0.2056148797273636
vn -0.5901942849159241 -0.7806364297866821 0.2056148797273636
vn -0.5623186826705933 -0.5761423707008362 0.5931759476661682
vn -0.5623186826705933 -0.5761423707008362 0.5931759476661682
vn -0.5605779886245728 -0.5789290070533752 0.5921093821525574
vn -0.5605779886245728 -0.5789290070533752 0.5921093821525574
vn -0.5605779886245728 -0.5789290070533752 0.5921093821525574
vn -0.506104052066803 -0.25097984075546265 0.825147271156311
vn -0.506104052066803 -0.25097984075546265 0.825147271156311
vn -0.5290349125862122 -0.21436232328414917 0.8210790753364563
vn -0.5290349125862122 -0.21436232328414917 0.8210790753364563
vn -0.5290349125862122 -0.21436232328414917 0.8210790753364563
vn -0.3369545042514801 -0.9122591614723206 0.23290537297725677
vn -0.3369545042514801 -0.9122591614723206 0.23290537297725677
vn -0.32583683729171753 -0.9194209575653076 0.22021685540676117
vn -0.32583683729171753 -0.9194209575653076 0.22021685540676117
vn -0.32583683729171753 -0.9194209575653076 0.22021685540676117
vn -0.362328439950943 -0.64954674243927 0.6684364080429077
vn -0.362328439950943 -0.64954674243927 0.6684364080429077
vn -0.3623180687427521 -0.6495592594146729 0.6684298515319824
vn -0.42645975947380066 -0.2270917147397995 0.8755349516868591
vn -0.42645975947380066 -0.2270917147397995 0.8755349516868591
vn -0.4015308618545532 -0.2664794921875 0.8762201070785522
vn -0.4015308618545532 -0.2664794921875 0.8762201070785522
vn -0.4015308618545532 -0.2664794921875 0.8762201070785522
vn -0.538788378238678 -0.8103545904159546 0.2302880436182022
vn -0.538788378238678 -0.8103545904159546 0.2302880436182022
vn -0.5208456516265869 -0.8278341889381409 0.2083514779806137
vn -0.5208456516265869 -0.8278341889381409 0.2083514779806137
vn -0.5208456516265869 -0.8278341889381409 0.2083514779806137
vn -0.5951813459396362 -0.5107988119125366 0.6203577518463135
vn -0.5951813459396362 -0.5107988119125366 0.6203577518463135
vn -0.5504661798477173 -0.5853908658027649 0.5952348709106445
vn -0.5504661798477173 -0.5853908658027649 0.5952348709106445
vn -0.5504661798477173 -0.5853908658027649 0.5952348709106445
vn -0.6166232824325562 -0.16829445958137512 0.7690596580505371
vn -0.6166232824325562 -0.16829445958137512 0.7690596580505371
vn -0.5966046452522278 -0.20541861653327942 0.7758002877235413
vn -0.5966046452522278 -0.20541861653327942 0.7758002877235413
vn -0.5966046452522278 -0.20541861653327942 0.7758002877235413
vn -0.9624933004379272 -0.2621828317642212 0.06976257264614105
vn -0.9624933004379272 -0.2621828317642212 0.06976257264614105
vn -0.9624933004379272 -0.2621828317642212 0.06976257264614105
vn -0.9616926908493042 -0.18548299372196198 0.2018500417470932
vn -0.9616926908493042 -0.18548299372196198 0.2018500417470932
vn -0.9616926908493042 -0.18548299372196198 0.2018500417470932
vn -0.9597179293632507 -0.06485745310783386 0.27337712049484253
vn -0.9597179293632507 -0.06485745310783386 0.27337712049484253
vn -0.9597179293632507 -0.06485745310783386 0.27337712049484253
vn -0.2299647033214569 0.9409481883049011 0.2484607696533203
vn -0.2299647033214569 0.9409481883049011 0.2484607696533203
vn -0.2299647033214569 0.9409481883049011 0.2484607696533203
vn -0.2274744212627411 0.9420382976531982 0.24661560356616974
vn -0.2274744212627411 0.9420382976531982 0.24661560356616974
vn -0.2268005758523941 0.6807048916816711 0.6965647339820862
vn -0.2268005758523941 0.6807048916816711 0.6965647339820862
vn -0.2268005758523941 0.6807048916816711 0.6965647339820862
vn -0.22452741861343384 0.6824554204940796 0.6955876350402832
vn -0.22452741861343384 0.6824554204940796 0.6955876350402832
vn -0.22365009784698486 0.2467227280139923 0.9429255127906799
vn -0.22365009784698486 0.2467227280139923 0.9429255127906799
vn -0.22365009784698486 0.2467227280139923 0.9429255127906799
vn -0.22174318134784698 0.24838364124298096 0.942939817905426
vn -0.22174318134784698 0.24838364124298096 0.942939817905426
vn -0.22174318134784698 0.24838364124298096 0.942939817905426
vn -0.5901942253112793 0.780636727809906 0.20561443269252777
vn -0.5901942253112793 0.780636727809906 0.20561443269252777
vn -0.5901942253112793 0.780636727809906 0.20561443269252777
vn -0.5775392055511475 0.7939773201942444 0.1898643523454666
vn -0.5775392055511475 0.7939773201942444 0.1898643523454666
vn -0.5605775117874146 0.5789293050765991 0.5921095609664917
vn -0.5605775117874146 0.5789293050765991 0.5921095609664917
vn -0.5605775117874146 0.5789293050765991 0.5921095609664917
vn -0.5623186826705933 0.576141893863678 0.5931763648986816
vn -0.5623186826705933 0.576141893863678 0.5931763648986816
vn -0.5290348529815674 0.21436233818531036 0.8210791349411011
vn -0.5290348529815674 0.21436233818531036 0.8210791349411011
vn -0.5290348529815674 0.21436233818531036 0.8210791349411011
vn -0.5061039328575134 0.25097987055778503 0.8251472115516663
vn -0.5061039328575134 0.25097987055778503 0.8251472115516663
vn -0.5061039328575134 0.25097987055778503 0.8251472115516663
vn -0.32583650946617126 0.9194214344024658 0.22021543979644775
vn -0.32583650946617126 0.9194214344024658 0.22021543979644775
vn -0.32583650946617126 0.9194214344024658 0.22021543979644775
vn -0.3369552493095398 0.9122589230537415 0.23290516436100006
vn -0.3369552493095398 0.9122589230537415 0.23290516436100006
vn -0.36231836676597595 0.6495586633682251 0.6684302091598511
vn -0.36231836676597595 0.6495586633682251 0.6684302091598511
vn -0.36231836676597595 0.6495586633682251 0.6684302091598511
vn -0.40153101086616516 0.2664795517921448 0.8762199878692627
vn -0.40153101086616516 0.2664795517921448 0.8762199878692627
vn -0.40153101086616516 0.2664795517921448 0.8762199878692627
vn -0.4264596402645111 0.2270921915769577 0.8755348920822144
vn -0.4264596402645111 0.2270921915769577 0.8755348920822144
vn -0.4264596402645111 0.2270921915769577 0.8755348920822144
vn -0.5208452343940735 0.8278345465660095 0.2083512544631958
vn -0.5208452343940735 0.8278345465660095 0.2083512544631958
vn -0.5208452343940735 0.8278345465660095 0.2083512544631958
vn -0.5387874245643616 0.8103554248809814 0.23028717935085297
vn -0.5387874245643616 0.8103554248809814 0.23028717935085297
vn -0.5504657030105591 0.5853906869888306 0.5952354669570923
vn -0.5504657030105591 0.5853906869888306 0.5952354669570923
vn -0.5504657030105591 0.5853906869888306 0.5952354669570923
vn -0.5951805114746094 0.5107995867729187 0.6203580498695374
vn -0.5951805114746094 0.5107995867729187 0.6203580498695374
vn -0.59660404920578 0.20541927218437195 0.7758005857467651
vn -0.59660404920578 0.20541927218437195 0.7758005857467651
vn -0.59660404920578 0.20541927218437195 0.7758005857467651
vn -0.6166232824325562 0.16829416155815125 0.7690597176551819
vn -0.6166232824325562 0.16829416155815125 0.7690597176551819
vn -0.6166232824325562 0.16829416155815125 0.7690597176551819
vn -0.9624933004379272 0.2621828317642212 0.06976261734962463
vn -0.9624933004379272 0.2621828317642212 0.06976261734962463
vn -0.9624933004379272 0.2621828317642212 0.06976261734962463
vn -0.9616926908493042 0.18548336625099182 0.20184966921806335
vn -0.9616926908493042 0.18548336625099182 0.20184966921806335
vn -0.9616926908493042 0.18548336625099182 0.20184966921806335
vn -0.9597179293632507 0.0648573487997055 0.27337712049484253
vn -0.9597179293632507 0.0648573487997055 0.27337712049484253
vn -0.9597179293632507 0.0648573487997055 0.27337712049484253
f 366/366/366 367/367/367 368/368/368
f 363/363/363 364/364/364 365/365/365
f 360/360/360 361/361/361 362/362/362
f 357/357/357 358/358/358 359/359/359
f 354/354/354 355/355/355 356/356/356
f 352/352/352 95/95/95 353/353/353
f 349/349/349 350/350/350 351/351/351
f 347/347/347 94/94/94 348/348/348
f 344/344/344 345/345/345 346/346/346
f 341/341/341 342/342/342 343/343/343
f 338/338/338 339/339/339 340/340/340
f 337/337/337 92/92/92 335/335/335
f 335/335/335 336/336/336 337/337/337
f 333/333/333 91/91/91 334/334/334
f 330/330/330 331/331/331 332/332/332
f 327/327/327 328/328/328 329/329/329
f 324/324/324 325/325/325 326/326/326
f 322/322/322 90/90/90 323/323/323
f 319/319/319 320/320/320 321/321/321
f 317/317/317 89/89/89 318/318/318
f 314/314/314 315/315/315 316/316/316
f 311/311/311 312/312/312 313/313/313
f 308/308/308 309/309/309 310/310/310
f 306/306/306 88/88/88 307/307/307
f 303/303/303 304/304/304 305/305/305
f 301/301/301 87/87/87 302/302/302
f 298/298/298 299/299/299 300/300/300
f 59/59/59 82/82/82 86/86/86
f 86/86/86 65/65/65 59/59/59
f 82/82/82 81/81/81 84/84/84
f 84/84/84 86/86/86 82/82/82
f 81/81/81 80/80/80 4/4/4
f 4/4/4 84/84/84 81/81/81
f 86/86/86 85/85/85 64/64/64
f 64/64/64 65/65/65 86/86/86
f 84/84/84 83/83/83 85/85/85
f 85/85/85 86/86/86 84/84/84
f 4/4/4 5/5/5 83/83/83
f 83/83/83 84/84/84 4/4/4
f 28/28/28 82/82/82 59/59/59
f 28/28/28 81/81/81 82/82/82
f 28/28/28 80/80/80 81/81/81
f 295/295/295 296/296/296 297/297/297
f 292/292/292 293/293/293 294/294/294
f 289/289/289 290/290/290 291/291/291
f 286/286/286 287/287/287 288/288/288
f 284/284/284 79/79/79 285/285/285
f 281/281/281 282/282/282 283/283/283
f 279/279/279 78/78/78 280/280/280
f 276/276/276 277/277/277 278/278/278
f 274/274/274 77/77/77 275/275/275
f 271/271/271 272/272/272 273/273/273
f 269/269/269 75/75/75 270/270/270
f 267/267/267 268/268/268 266/266/266
f 266/266/266 74/74/74 267/267/267
f 263/263/263 264/264/264 265/265/265
f 261/261/261 73/73/73 262/262/262
f 258/258/258 259/259/259 260/260/260
f 256/256/256 72/72/72 257/257/257
f 253/253/253 254/254/254 255/255/255
f 251/251/251 71/71/71 252/252/252
f 248/248/248 249/249/249 250/250/250
f 246/246/246 70/70/70 247/247/247
f 243/243/243 244/244/244 245/245/245
f 241/241/241 68/68/68 242/242/242
f 238/238/238 239/239/239 240/240/240
f 236/236/236 67/67/67 237/237/237
f 233/233/233 234/234/234 235/235/235
f 231/231/231 66/66/66 232/232/232
f 59/59/59 65/65/65 63/63/63
f 63/63/63 58/58/58 59/59/59
f 58/58/58 63/63/63 61/61/61
f 61/61/61 57/57/57 58/58/58
f 57/57/57 61/61/61 32/32/32
f 32/32/32 29/29/29 57/57/57
f 63/63/63 65/65/65 64/64/64
f 64/64/64 62/62/62 63/63/63
f 61/61/61 63/63/63 62/62/62
f 62/62/62 60/60/60 61/61/61
f 32/32/32 61/61/61 60/60/60
f 60/60/60 33/33/33 32/32/32
f 28/28/28 59/59/59 58/58/58
f 28/28/28 58/58/58 57/57/57
f 28/28/28 57/57/57 29/29/29
f 228/228/228 229/229/229 230/230/230
f 225/225/225 226/226/226 227/227/227
f 56/56/56 48/48/48 52/52/52
f 50/50/50 48/48/48 56/56/56
f 56/56/56 52/52/52 55/55/55
f 55/55/55 54/54/54 56/56/56
f 50/50/50 56/56/56 54/54/54
f 54/54/54 53/53/53 50/50/50
f 51/51/51 52/52/52 48/48/48
f 50/50/50 51/51/51 48/48/48
f 51/51/51 49/49/49 55/55/55
f 55/55/55 52/52/52 51/51/51
f 50/50/50 53/53/53 49/49/49
f 49/49/49 51/51/51 50/50/50
f 222/222/222 223/223/223 224/224/224
f 219/219/219 220/220/220 221/221/221
f 216/216/216 217/217/217 218/218/218
f 213/213/213 214/214/214 215/215/215
f 210/210/210 211/211/211 212/212/212
f 208/208/208 47/47/47 209/209/209
f 205/205/205 206/206/206 207/207/207
f 203/203/203 46/46/46 204/204/204
f 201/201/201 202/202/202 76/76/76
f 198/198/198 199/199/199 200/200/200
f 195/195/195 196/196/196 197/197/197
f 194/194/194 45/45/45 192/192/192
f 192/192/192 193/193/193 194/194/194
f 190/190/190 44/44/44 191/191/191
f 188/188/188 189/189/189 43/43/43
f 185/185/185 186/186/186 187/187/187
f 182/182/182 183/183/183 184/184/184
f 180/180/180 42/42/42 181/181/181
f 177/177/177 178/178/178 179/179/179
f 175/175/175 41/41/41 176/176/176
f 173/173/173 174/174/174 69/69/69
f 170/170/170 171/171/171 172/172/172
f 167/167/167 168/168/168 169/169/169
f 165/165/165 40/40/40 166/166/166
f 162/162/162 163/163/163 164/164/164
f 160/160/160 39/39/39 161/161/161
f 158/158/158 159/159/159 38/38/38
f 3/3/3 31/31/31 37/37/37
f 37/37/37 11/11/11 3/3/3
f 31/31/31 30/30/30 35/35/35
f 35/35/35 37/37/37 31/31/31
f 30/30/30 29/29/29 32/32/32
f 32/32/32 35/35/35 30/30/30
f 37/37/37 36/36/36 10/10/10
f 10/10/10 11/11/11 37/37/37
f 35/35/35 34/34/34 36/36/36
f 36/36/36 37/37/37 35/35/35
f 32/32/32 33/33/33 34/34/34
f 34/34/34 35/35/35 32/32/32
f 28/28/28 31/31/31 3/3/3
f 28/28/28 30/30/30 31/31/31
f 28/28/28 29/29/29 30/30/30
f 155/155/155 156/156/156 157/157/157
f 152/152/152 153/153/153 154/154/154
f 150/150/150 27/27/27 151/151/151
f 147/147/147 148/148/148 149/149/149
f 145/145/145 26/26/26 146/146/146
f 142/142/142 143/143/143 144/144/144
f 140/140/140 25/25/25 141/141/141
f 137/137/137 138/138/138 139/139/139
f 136/136/136 24/24/24 93/93/93
f 133/133/133 134/134/134 135/135/135
f 131/131/131 23/23/23 132/132/132
f 129/129/129 130/130/130 128/128/128
f 128/128/128 22/22/22 129/129/129
f 125/125/125 126/126/126 127/127/127
f 124/124/124 21/21/21 20/20/20
f 121/121/121 122/122/122 123/123/123
f 119/119/119 19/19/19 120/120/120
f 116/116/116 117/117/117 118/118/118
f 114/114/114 18/18/18 115/115/115
f 111/111/111 112/112/112 113/113/113
f 110/110/110 17/17/17 16/16/16
f 107/107/107 108/108/108 109/109/109
f 105/105/105 15/15/15 106/106/106
f 102/102/102 103/103/103 104/104/104
f 100/100/100 14/14/14 101/101/101
f 97/97/97 98/98/98 99/99/99
f 96/96/96 13/13/13 12/12/12
f 3/3/3 11/11/11 9/9/9
f 9/9/9 2/2/2 3/3/3
f 2/2/2 9/9/9 7/7/7
f 7/7/7 1/1/1 2/2/2
f 1/1/1 7/7/7 4/4/4
f 4/4/4 80/80/80 1/1/1
f 9/9/9 11/11/11 10/10/10
f 10/10/10 8/8/8 9/9/9
f 7/7/7 9/9/9 8/8/8
f 8/8/8 6/6/6 7/7/7
f 4/4/4 7/7/7 6/6/6
f 6/6/6 5/5/5 4/4/4
f 28/28/28 3/3/3 2/2/2
f 28/28/28 2/2/2 1/1/1
f 28/28/28 1/1/1 80/80/80
