# Recovered local-space geometry; original node transforms not applied
o mesh_0
v -40.08988952636719 -21.90213394165039 -11.991683006286621
v -40.08988952636719 -12.645203590393066 -21.113143920898438
v -40.089881896972656 5.303937996359309e-06 -24.415584564208984
v -17.23906707763672 -33.200565338134766 -18.445499420166016
v -30.004419326782227 -30.849184036254883 -16.975000381469727
v -17.23906135559082 -19.168354034423828 -32.24114990234375
v -30.00441551208496 -17.810779571533203 -29.694181442260742
v -17.239055633544922 5.991674242977751e-06 -37.25117492675781
v -30.004411697387695 5.554024028242566e-06 -34.31018829345703
v -1.896077275276184 -29.594850540161133 -16.58392333984375
v -1.896074652671814 -17.00620460510254 -29.016813278198242
v -1.8960739374160767 2.8655999813054223e-06 -33.52802276611328
v 14.149675369262695 -19.0132999420166 -12.258861541748047
v 14.154118537902832 -10.5175199508667 -20.808162689208984
v 14.155309677124023 -1.132487795985071e-06 -23.899715423583984
v 30.473560333251953 -13.485983848571777 -8.756324768066406
v 30.47357749938965 -7.709640026092529 -15.040343284606934
v 30.473581314086914 -4.504598564381013e-06 -17.08032989501953
v 38.96699905395508 -9.300622940063477 -5.990561008453369
v 38.96699905395508 -5.369719505310059 -9.667518615722656
v 38.96699905395508 -6.406488409993472e-06 -10.828819274902344
v -40.08988952636719 21.902151107788086 -11.991679191589355
v -40.089881896972656 12.645212173461914 -21.113143920898438
v -17.239046096801758 33.20057678222656 -18.445491790771484
v -30.004404067993164 30.849185943603516 -16.975000381469727
v -17.23904800415039 19.168367385864258 -32.24114227294922
v -30.00440788269043 17.8107852935791 -29.694181442260742
v -1.896077275276184 29.594852447509766 -16.58391571044922
v -1.896074652671814 17.006210327148438 -29.01680564880371
v 14.149688720703125 19.01329803466797 -12.258853912353516
v 14.15412712097168 10.517516136169434 -20.808155059814453
v 30.473560333251953 13.485974311828613 -8.75632095336914
v 30.47357749938965 7.709629058837891 -15.040339469909668
v 38.96699905395508 9.300612449645996 -5.990561008453369
v 38.96699905395508 5.369707107543945 -9.66751480102539
v 14.14895248413086 -22.052587509155273 0.0
v -1.900238037109375 -34.875308990478516 0.0
v -39.86971664428711 26.55133056640625 0.0
v -29.92662811279297 35.98869323730469 0.0
v 41.696842193603516 -9.967350706574507e-06 0.0
v -39.86972427368164 -26.551326751708984 0.0
v -22.654170989990234 14.570625305175781 0.0
v 14.438883781433105 -7.271021786436904e-06 0.0
v -23.27273941040039 8.484312274958938e-08 0.0
v -22.65416717529297 -14.570625305175781 0.0
v 13.255619049072266 -9.976236343383789 0.0
v 10.20967960357666 -19.31852149963379 0.0
v -17.874961853027344 -38.608985900878906 0.0
v -29.92662811279297 -35.988670349121094 0.0
v -16.976974487304688 -26.59890365600586 0.0
v 38.982154846191406 -11.116121292114258 0.0
v 30.480167388916016 -16.034772872924805 0.0
v 30.480167388916016 16.03474998474121 0.0
v 38.982154846191406 11.116100311279297 0.0
v 13.255623817443848 9.976224899291992 0.0
v -46.12096405029297 6.143938662717119e-06 0.0
v 14.14896011352539 22.052574157714844 0.0
v 10.209678649902344 19.31850242614746 0.0
v -1.900238037109375 34.875301361083984 0.0
v -16.976966857910156 26.598899841308594 0.0
v -17.874961853027344 38.608978271484375 0.0
v -17.874961853027344 -38.608985900878906 0.0
v -16.976974487304688 -26.59890365600586 0.0
v -29.92662811279297 -35.988670349121094 0.0
v 38.982154846191406 -11.116121292114258 0.0
v 13.255619049072266 -9.976236343383789 0.0
v 30.480167388916016 -16.034772872924805 0.0
v 30.480167388916016 16.03474998474121 0.0
v 13.255623817443848 9.976224899291992 0.0
v 38.982154846191406 11.116100311279297 0.0
v 38.982154846191406 11.116100311279297 0.0
v 13.255623817443848 9.976224899291992 0.0
v 14.438883781433105 -7.271021786436904e-06 0.0
v 41.696842193603516 -9.967350706574507e-06 0.0
v -39.86972427368164 -26.551326751708984 0.0
v -22.65416717529297 -14.570625305175781 0.0
v -23.27273941040039 8.484312274958938e-08 0.0
v -46.12096405029297 6.143938662717119e-06 0.0
v 30.480167388916016 -16.034772872924805 0.0
v 13.255619049072266 -9.976236343383789 0.0
v 10.20967960357666 -19.31852149963379 0.0
v 14.14895248413086 -22.052587509155273 0.0
v -1.900238037109375 -34.875308990478516 0.0
v -17.874961853027344 -38.608985900878906 0.0
v 14.14895248413086 -22.052587509155273 0.0
v 10.20967960357666 -19.31852149963379 0.0
v -1.900238037109375 -34.875308990478516 0.0
v -46.12096405029297 6.143938662717119e-06 0.0
v -23.27273941040039 8.484312274958938e-08 0.0
v -22.654170989990234 14.570625305175781 0.0
v -39.86971664428711 26.55133056640625 0.0
v 14.14896011352539 22.052574157714844 0.0
v 10.209678649902344 19.31850242614746 0.0
v 30.480167388916016 16.03474998474121 0.0
v -1.900238037109375 34.875301361083984 0.0
v -16.976966857910156 26.598899841308594 0.0
v 10.209678649902344 19.31850242614746 0.0
v 14.14896011352539 22.052574157714844 0.0
v -29.92662811279297 35.98869323730469 0.0
v -16.976966857910156 26.598899841308594 0.0
v -17.874961853027344 38.608978271484375 0.0
v -39.86971664428711 26.55133056640625 0.0
v -22.654170989990234 14.570625305175781 0.0
v -29.92662811279297 35.98869323730469 0.0
v -17.874961853027344 38.608978271484375 0.0
v -1.900238037109375 34.875301361083984 0.0
v -29.92662811279297 -35.988670349121094 0.0
v -16.976974487304688 -26.59890365600586 0.0
v -22.65416717529297 -14.570625305175781 0.0
v -39.86972427368164 -26.551326751708984 0.0
v 41.696842193603516 -9.967350706574507e-06 0.0
v 14.438883781433105 -7.271021786436904e-06 0.0
v 38.982154846191406 -11.116121292114258 0.0
vt 0.08944682776927948 0.3576652407646179
vt 0.07931410521268845 0.35136979818344116
vt 0.06773916631937027 0.34850120544433594
vt 0.10152339190244675 0.3279472589492798
vt 0.09877276420593262 0.34289491176605225
vt 0.0837012231349945 0.32587385177612305
vt 0.0832369327545166 0.33784329891204834
vt 0.065735824406147 0.3251701593399048
vt 0.06693112105131149 0.33573997020721436
vt 0.09902188181877136 0.31025952100753784
vt 0.08172771334648132 0.31118935346603394
vt 0.06452572345733643 0.3116569519042969
vt 0.090093694627285 0.28854167461395264
vt 0.07622400671243668 0.29149729013442993
vt 0.06322842836380005 0.2925724983215332
vt 0.08010710030794144 0.27110135555267334
vt 0.07131236791610718 0.27398228645324707
vt 0.06193460896611214 0.2748815417289734
vt 0.07193227857351303 0.261655330657959
vt 0.06695760786533356 0.26349520683288574
vt 0.061214759945869446 0.2638893723487854
vt 0.04379670321941376 0.35382014513015747
vt 0.05554274097084999 0.3491683602333069
vt 0.029568985104560852 0.32899338006973267
vt 0.034141089767217636 0.34183770418167114
vt 0.04771313816308975 0.326393187046051
vt 0.050406817346811295 0.3371095061302185
vt 0.030083507299423218 0.31202948093414307
vt 0.04739939048886299 0.31206780672073364
vt 0.036444175988435745 0.28990399837493896
vt 0.050240401178598404 0.2920553684234619
vt 0.043967634439468384 0.271422803401947
vt 0.052596189081668854 0.2740556001663208
vt 0.0510169118642807 0.26083827018737793
vt 0.055593401193618774 0.26296764612197876
vt 0.10338553041219711 0.2828086018562317
vt 0.11693581193685532 0.30604761838912964
vt 0.033783670514822006 0.36319416761398315
vt 0.01756826788187027 0.34994369745254517
vt 0.06207980588078499 0.25347065925598145
vt 0.0972529724240303 0.3684613108634949
vt 0.6912294030189514 0.1639755368232727
vt 0.7477777004241943 0.18709486722946167
vt 0.689158022403717 0.18709486722946167
vt 0.6912294030189514 0.1639755368232727
vt 0.7471625804901123 0.16576576232910156
vt 0.7388408780097961 0.14342111349105835
vt 0.12078283727169037 0.3312634229660034
vt 0.11425952613353729 0.3518832325935364
vt 0.6998310089111328 0.14156603813171387
vt 0.07582798600196838 0.25760626792907715
vt 0.08793864399194717 0.26562178134918213
vt 0.03640137240290642 0.26611149311065674
vt 0.047710008919239044 0.2565886974334717
vt 0.7471625804901123 0.16576576232910156
vt 0.0639934092760086 0.3741455078125
vt 0.023388829082250595 0.28449100255966187
vt 0.7388408780097961 0.14342111349105835
vt 0.012361252680420876 0.30748647451400757
vt 0.6998310089111328 0.14156603813171387
vt 0.009872183203697205 0.33148902654647827
vt 0.6264663934707642 0.12575358152389526
vt 0.6854667067527771 0.18475401401519775
vt 0.6854667067527771 0.12575358152389526
vt 0.6264663934707642 0.12575358152389526
vt 0.6854667067527771 0.18475401401519775
vt 0.6854667067527771 0.12575358152389526
vt 0.6264663934707642 0.12575358152389526
vt 0.6854667067527771 0.18475401401519775
vt 0.6854667067527771 0.12575358152389526
vt 0.6264663934707642 0.12575358152389526
vt 0.6264663934707642 0.18475401401519775
vt 0.6854667067527771 0.18475401401519775
vt 0.6854667067527771 0.12575358152389526
vt 0.6264663934707642 0.12575358152389526
vt 0.6264663934707642 0.18475401401519775
vt 0.6854667067527771 0.18475401401519775
vt 0.6854667067527771 0.12575358152389526
vt 0.6264663934707642 0.12575358152389526
vt 0.6264663934707642 0.18475401401519775
vt 0.6854667067527771 0.18475401401519775
vt 0.6854667067527771 0.12575358152389526
vt 0.6264663934707642 0.12575358152389526
vt 0.6854667067527771 0.12575358152389526
vt 0.6264663934707642 0.12575358152389526
vt 0.6264663934707642 0.18475401401519775
vt 0.6854667067527771 0.12575358152389526
vt 0.6264663934707642 0.12575358152389526
vt 0.6264663934707642 0.18475401401519775
vt 0.6854667067527771 0.18475401401519775
vt 0.6854667067527771 0.12575358152389526
vt 0.6264663934707642 0.12575358152389526
vt 0.6264663934707642 0.18475401401519775
vt 0.6854667067527771 0.12575358152389526
vt 0.6264663934707642 0.12575358152389526
vt 0.6264663934707642 0.18475401401519775
vt 0.6854667067527771 0.18475401401519775
vt 0.6854667067527771 0.12575358152389526
vt 0.6264663934707642 0.12575358152389526
vt 0.6854667067527771 0.18475401401519775
vt 0.6854667067527771 0.12575358152389526
vt 0.6264663934707642 0.12575358152389526
vt 0.6264663934707642 0.18475401401519775
vt 0.6854667067527771 0.12575358152389526
vt 0.6264663934707642 0.12575358152389526
vt 0.6854667067527771 0.12575358152389526
vt 0.6264663934707642 0.12575358152389526
vt 0.6264663934707642 0.18475401401519775
vt 0.6854667067527771 0.18475401401519775
vt 0.6854667067527771 0.12575358152389526
vt 0.6264663934707642 0.12575358152389526
vt 0.6264663934707642 0.18475401401519775
vt 0.6854667067527771 0.12575358152389526
vn -0.8200196027755737 -0.48604851961135864 -0.30219972133636475
vn -0.8413122296333313 -0.23156172037124634 -0.48843929171562195
vn -0.8397620916366577 0.03808172419667244 -0.5416173934936523
vn 0.0641050785779953 -0.8795060515403748 -0.47155049443244934
vn -0.39586278796195984 -0.7856020331382751 -0.4755229651927948
vn 0.014752903021872044 -0.5683562159538269 -0.8226503133773804
vn -0.484711229801178 -0.4198329448699951 -0.7673299908638
vn 0.04108501970767975 -0.0370776541531086 -0.9984674453735352
vn -0.48188215494155884 0.011341449804604053 -0.8761626482009888
vn 0.429554283618927 -0.7701159119606018 -0.47159796953201294
vn 0.40128856897354126 -0.44902268052101135 -0.7983396053314209
vn 0.43029093742370605 1.7834062759902736e-07 -0.9026902914047241
vn 0.4706062376499176 -0.7671220898628235 -0.43595120310783386
vn 0.4518141448497772 -0.460469126701355 -0.7640891075134277
vn 0.4259941577911377 1.927814707869402e-07 -0.9047259092330933
vn 0.4359557032585144 -0.7789889574050903 -0.450687050819397
vn 0.4642517864704132 -0.4504046142101288 -0.7626309394836426
vn 0.5217769145965576 2.528660445477726e-07 -0.853082001209259
vn 0.7593558430671692 -0.5338408946990967 -0.37201187014579773
vn 0.7833878397941589 -0.25398433208465576 -0.5672702193260193
vn 0.8313937783241272 1.9353645086539473e-07 -0.5556837320327759
vn -0.8444382548332214 0.43218812346458435 -0.31644538044929504
vn -0.8715172410011292 0.24182374775409698 -0.4265899360179901
vn -0.025623416528105736 0.8826341032981873 -0.4693617820739746
vn -0.47949716448783875 0.7411389946937561 -0.46988895535469055
vn -0.020281754434108734 0.5257094502449036 -0.8504223823547363
vn -0.5644077658653259 0.40560421347618103 -0.7189778089523315
vn 0.3614020347595215 0.7970560789108276 -0.48382866382598877
vn 0.4012886583805084 0.4490227699279785 -0.7983394861221313
vn 0.516986608505249 0.7394059896469116 -0.4312813878059387
vn 0.4518142342567444 0.460469126701355 -0.764089047908783
vn 0.4101085662841797 0.7948514819145203 -0.44723832607269287
vn 0.46425187587738037 0.4504048228263855 -0.7626309394836426
vn 0.7197739481925964 0.5970646739006042 -0.35417404770851135
vn 0.7833878397941589 0.2539844214916229 -0.5672701597213745
vn 0.5111898183822632 -0.8298559188842773 -0.22366070747375488
vn 0.36608099937438965 -0.8897517323493958 -0.2726289927959442
vn -0.8130270838737488 0.5530833005905151 -0.18189570307731628
vn -0.3722326159477234 0.8888829946517944 -0.2670765817165375
vn 0.9856147170066833 2.5267987702193295e-09 -0.16900774836540222
vn -0.8564445376396179 -0.48643577098846436 -0.17286767065525055
vn 0.0 0.0 1.0
vn 0.0 0.0 1.0
vn 0.0 0.0 1.0
vn 0.0 0.0 1.0
vn 0.0 0.0 1.0
vn 0.0 0.0 1.0
vn -0.06450404226779938 -0.9569072723388672 -0.2831389605998993
vn -0.5425142645835876 -0.7997618317604065 -0.25702008605003357
vn 0.0 0.0 1.0
vn 0.6989495158195496 -0.6850245594978333 -0.20545294880867004
vn 0.39498451352119446 -0.8854804039001465 -0.2447691261768341
vn 0.4377867579460144 0.8621787428855896 -0.2549324929714203
vn 0.7912595868110657 0.5846386551856995 -0.1791812926530838
vn 0.0 0.0 1.0
vn -0.9864263534545898 1.03566598852467e-07 -0.1642044186592102
vn 0.43862223625183105 0.8690856695175171 -0.22869379818439484
vn 0.0 0.0 1.0
vn 0.4792899787425995 0.841457724571228 -0.2494593858718872
vn 0.0 0.0 1.0
vn 0.09011330455541611 0.9536706805229187 -0.2870398163795471
vn 0.0 0.0 1.0
vn 0.0 0.0 1.0
vn 0.0 0.0 1.0
vn 0.0 0.0 1.0
vn 0.0 0.0 1.0
vn 0.0 0.0 1.0
vn 0.0 0.0 1.0
vn 0.0 0.0 1.0
vn 0.0 0.0 1.0
vn 0.0 0.0 1.0
vn 0.0 0.0 1.0
vn 0.0 0.0 1.0
vn 0.0 0.0 1.0
vn 0.0 0.0 1.0
vn 0.0 0.0 1.0
vn 0.0 0.0 1.0
vn 0.0 0.0 1.0
vn 0.0 0.0 1.0
vn 0.0 0.0 1.0
vn 0.0 0.0 1.0
vn 0.0 0.0 1.0
vn 0.0 0.0 1.0
vn 0.0 0.0 1.0
vn 0.0 0.0 1.0
vn 0.0 0.0 1.0
vn 0.0 0.0 1.0
vn 0.0 0.0 1.0
vn 0.0 0.0 1.0
vn 0.0 0.0 1.0
vn 0.0 0.0 1.0
vn 0.0 0.0 1.0
vn 0.0 0.0 1.0
vn 0.0 0.0 1.0
vn 0.0 0.0 1.0
vn 0.0 0.0 1.0
vn 0.0 0.0 1.0
vn 0.0 0.0 1.0
vn 0.0 0.0 1.0
vn 0.0 0.0 1.0
vn 0.0 0.0 1.0
vn 0.0 0.0 1.0
vn 0.0 0.0 1.0
vn 0.0 0.0 1.0
vn 0.0 0.0 1.0
vn 0.0 0.0 1.0
vn 0.0 0.0 1.0
vn 0.0 0.0 1.0
vn 0.0 0.0 1.0
vn 0.0 0.0 1.0
vn 0.0 0.0 1.0
vn 0.0 0.0 1.0
vn 0.0 0.0 1.0
f 66/66/66 113/113/113 111/111/111
f 111/111/111 112/112/112 66/66/66
f 109/109/109 110/110/110 107/107/107
f 107/107/107 108/108/108 109/109/109
f 105/105/105 100/100/100 106/106/106
f 100/100/100 104/104/104 102/102/102
f 102/102/102 103/103/103 100/100/100
f 99/99/99 100/100/100 101/101/101
f 97/97/97 98/98/98 95/95/95
f 95/95/95 96/96/96 97/97/97
f 69/69/69 94/94/94 92/92/92
f 92/92/92 93/93/93 69/69/69
f 90/90/90 91/91/91 88/88/88
f 88/88/88 89/89/89 90/90/90
f 63/63/63 87/87/87 85/85/85
f 85/85/85 86/86/86 63/63/63
f 83/83/83 63/63/63 84/84/84
f 81/81/81 82/82/82 79/79/79
f 79/79/79 80/80/80 81/81/81
f 77/77/77 78/78/78 75/75/75
f 75/75/75 76/76/76 77/77/77
f 73/73/73 74/74/74 71/71/71
f 71/71/71 72/72/72 73/73/73
f 68/68/68 69/69/69 70/70/70
f 65/65/65 66/66/66 67/67/67
f 62/62/62 63/63/63 64/64/64
f 46/46/46 45/45/45 50/50/50
f 50/50/50 47/47/47 46/46/46
f 44/44/44 45/45/45 46/46/46
f 46/46/46 43/43/43 44/44/44
f 55/55/55 58/58/58 60/60/60
f 60/60/60 42/42/42 55/55/55
f 44/44/44 43/43/43 55/55/55
f 55/55/55 42/42/42 44/44/44
f 21/21/21 35/35/35 40/40/40
f 35/35/35 34/34/34 40/40/40
f 34/34/34 54/54/54 40/40/40
f 35/35/35 21/21/21 18/18/18
f 18/18/18 33/33/33 35/35/35
f 34/34/34 35/35/35 33/33/33
f 33/33/33 32/32/32 34/34/34
f 53/53/53 54/54/54 34/34/34
f 34/34/34 32/32/32 53/53/53
f 33/33/33 18/18/18 15/15/15
f 15/15/15 31/31/31 33/33/33
f 32/32/32 33/33/33 31/31/31
f 31/31/31 30/30/30 32/32/32
f 57/57/57 53/53/53 32/32/32
f 32/32/32 30/30/30 57/57/57
f 31/31/31 15/15/15 12/12/12
f 12/12/12 29/29/29 31/31/31
f 30/30/30 31/31/31 29/29/29
f 29/29/29 28/28/28 30/30/30
f 59/59/59 57/57/57 30/30/30
f 30/30/30 28/28/28 59/59/59
f 29/29/29 12/12/12 8/8/8
f 8/8/8 26/26/26 29/29/29
f 28/28/28 29/29/29 26/26/26
f 26/26/26 24/24/24 28/28/28
f 61/61/61 59/59/59 28/28/28
f 28/28/28 24/24/24 61/61/61
f 27/27/27 9/9/9 3/3/3
f 3/3/3 23/23/23 27/27/27
f 27/27/27 23/23/23 22/22/22
f 22/22/22 25/25/25 27/27/27
f 25/25/25 22/22/22 38/38/38
f 38/38/38 39/39/39 25/25/25
f 26/26/26 8/8/8 9/9/9
f 9/9/9 27/27/27 26/26/26
f 26/26/26 27/27/27 25/25/25
f 25/25/25 24/24/24 26/26/26
f 24/24/24 25/25/25 39/39/39
f 39/39/39 61/61/61 24/24/24
f 56/56/56 23/23/23 3/3/3
f 56/56/56 22/22/22 23/23/23
f 56/56/56 38/38/38 22/22/22
f 21/21/21 40/40/40 20/20/20
f 20/20/20 40/40/40 19/19/19
f 19/19/19 40/40/40 51/51/51
f 20/20/20 17/17/17 18/18/18
f 18/18/18 21/21/21 20/20/20
f 19/19/19 16/16/16 17/17/17
f 17/17/17 20/20/20 19/19/19
f 51/51/51 52/52/52 16/16/16
f 16/16/16 19/19/19 51/51/51
f 17/17/17 14/14/14 15/15/15
f 15/15/15 18/18/18 17/17/17
f 16/16/16 13/13/13 14/14/14
f 14/14/14 17/17/17 16/16/16
f 52/52/52 36/36/36 13/13/13
f 13/13/13 16/16/16 52/52/52
f 14/14/14 11/11/11 12/12/12
f 12/12/12 15/15/15 14/14/14
f 13/13/13 10/10/10 11/11/11
f 11/11/11 14/14/14 13/13/13
f 36/36/36 37/37/37 10/10/10
f 10/10/10 13/13/13 36/36/36
f 11/11/11 6/6/6 8/8/8
f 8/8/8 12/12/12 11/11/11
f 10/10/10 4/4/4 6/6/6
f 6/6/6 11/11/11 10/10/10
f 37/37/37 48/48/48 4/4/4
f 4/4/4 10/10/10 37/37/37
f 9/9/9 7/7/7 2/2/2
f 2/2/2 3/3/3 9/9/9
f 7/7/7 5/5/5 1/1/1
f 1/1/1 2/2/2 7/7/7
f 1/1/1 5/5/5 49/49/49
f 49/49/49 41/41/41 1/1/1
f 8/8/8 6/6/6 7/7/7
f 7/7/7 9/9/9 8/8/8
f 6/6/6 4/4/4 5/5/5
f 5/5/5 7/7/7 6/6/6
f 5/5/5 4/4/4 48/48/48
f 48/48/48 49/49/49 5/5/5
f 56/56/56 3/3/3 2/2/2
f 56/56/56 2/2/2 1/1/1
f 56/56/56 1/1/1 41/41/41
