# Recovered local-space geometry; original node transforms not applied
o mesh_0
v 16.583921432495117 -29.5948486328125 -0.02530018426477909
v 29.01681137084961 -17.006202697753906 -0.025294344872236252
v 33.52802276611328 2.783825038932264e-06 -0.025293609127402306
v 16.583913803100586 29.5948543548584 -0.025296369567513466
v 29.016803741455078 17.00621223449707 -0.025298159569501877
v -0.4182663559913635 0.03895032778382301 30.117338180541992
v -0.8482760787010193 1.28901207447052 70.63092803955078
v 0.10517217963933945 1.9606542587280273 53.04637908935547
v -1.444361686706543 0.19631293416023254 54.533851623535156
v 0.21536247432231903 -1.5360280275344849 53.630836486816406
v 1.3228355646133423 3.5859014987945557 67.0351333618164
v 4.3749680519104 1.5198606252670288 68.09398651123047
v 1.870475172996521 -0.9958410263061523 69.28955841064453
v 1.8501949310302734 0.26717478036880493 54.021385192871094
v -16.583925247192383 -29.5948486328125 -0.02530749700963497
v -29.016815185546875 -17.006202697753906 -0.025301892310380936
v -33.52802276611328 2.7838259484269656e-06 -0.025304535403847694
v -16.58391761779785 29.5948543548584 -0.02530558966100216
v -29.016807556152344 17.00621223449707 -0.025303799659013748
v 8.657429617642265e-08 -34.87531661987305 -0.029462814331054688
v 8.657419670043964e-08 34.87529373168945 -0.029462814331054688
v -1.0285402822773904e-06 8.719000561541179e-07 -0.02599334716796875
v 34.941864013671875 -20.460315704345703 0.02805766835808754
v 40.407020568847656 4.628225724445656e-06 -0.08442960679531097
v 14.870424270629883 -23.560922622680664 18.935731887817383
v 25.40273666381836 -13.200271606445312 18.798471450805664
v 29.238122940063477 -4.855257884628372e-07 18.764951705932617
v 11.409832000732422 -18.18657875061035 34.96410369873047
v 19.60611915588379 -10.45745849609375 35.101722717285156
v 22.328950881958008 -3.2399279916717205e-06 35.251564025878906
v 8.003396987915039 -12.53924560546875 45.470245361328125
v 12.882911682128906 -7.0834197998046875 45.60478591918945
v 14.354669570922852 -5.291355137160281e-06 45.6924934387207
v 20.075414657592773 35.46687698364258 0.16688624024391174
v 34.94186019897461 20.460323333740234 0.028055723756551743
v 14.870414733886719 23.56092071533203 18.93574333190918
v 25.402727127075195 13.200267791748047 18.79848289489746
v 11.40982437133789 18.18657875061035 34.964111328125
v 19.60611343383789 10.45744800567627 35.10172653198242
v 8.003396034240723 12.539237022399902 45.470237731933594
v 12.882906913757324 7.083407402038574 45.60478591918945
v -1.270860229851678e-05 -14.969417572021484 45.45207214355469
v -9.784782378119417e-06 21.482419967651367 34.8654899597168
v -1.270860229851678e-05 14.969396591186523 45.45207214355469
v -0.5732247829437256 -0.010568033903837204 24.119543075561523
v -4.372228145599365 1.7765308618545532 75.46250915527344
v -0.17084717750549316 7.927435874938965 52.479515075683594
v -7.437226295471191 -0.0903196856379509 54.59300994873047
v 0.24013738334178925 -7.533949375152588 53.474876403808594
v 1.0506045818328857 9.510747909545898 67.94182586669922
v 9.931368827819824 2.438765048980713 70.16326904296875
v 2.9751482009887695 -5.848455429077148 72.64094543457031
v 7.78538179397583 0.18772096931934357 53.14550018310547
v -14.870433807373047 -23.560922622680664 18.935728073120117
v -25.402748107910156 -13.200271606445312 18.798452377319336
v -29.238134384155273 -6.021232366038021e-07 18.764936447143555
v -11.40985107421875 -18.18657875061035 34.964111328125
v -19.60614585876465 -10.45745849609375 35.10171127319336
v -22.328977584838867 -3.2399279916717205e-06 35.25155258178711
v -8.003423690795898 -12.53924560546875 45.470245361328125
v -12.882938385009766 -7.0834197998046875 45.60477828979492
v -14.354696273803711 -5.291355137160281e-06 45.69248580932617
v -14.870424270629883 23.56092071533203 18.93573760986328
v -25.402740478515625 13.200267791748047 18.798463821411133
v -11.409843444824219 18.18657875061035 34.964115142822266
v -19.60614013671875 10.45744800567627 35.101715087890625
v -8.003422737121582 12.539237022399902 45.470237731933594
v -12.882933616638184 7.083407402038574 45.60477828979492
v -5.316678198141744e-06 -27.241422653198242 19.032365798950195
v -9.754824532137718e-06 -21.48243522644043 34.86548614501953
v -5.287829480948858e-06 27.241409301757812 19.03237533569336
v -1.3895167285227217e-05 -1.0297058906871825e-05 49.56761932373047
v 2.386143478361191e-07 41.63884353637695 0.21474498510360718
v 20.075424194335938 -35.46689224243164 0.16688209772109985
v 4.4779244490200654e-07 -41.63886642456055 0.21474498510360718
v -20.075424194335938 -35.46689224243164 0.16686105728149414
v -34.94186782836914 -20.460315704345703 0.028032124042510986
v -40.40701675415039 4.671470378525555e-06 -0.08446310460567474
v -20.075414657592773 35.46687698364258 0.16686543822288513
v -34.941856384277344 20.460323333740234 0.028029203414916992
v 16.583921432495117 -29.5948486328125 -0.0034207897260785103
v 29.01681137084961 -17.006202697753906 -0.0034202393144369125
v 33.52802276611328 2.7828696147480514e-06 -0.0034194961190223694
v 12.258858680725098 -19.0132999420166 16.02045249938965
v 20.80816078186035 -10.5175199508667 16.0248966217041
v 23.89971351623535 -1.2142618288635276e-06 16.02608871459961
v 8.756319999694824 -13.485984802246094 32.34433364868164
v 15.040338516235352 -7.709640026092529 32.34435272216797
v 17.080320358276367 -4.586372597259469e-06 32.344356536865234
v 5.990554332733154 -9.300622940063477 40.83777618408203
v 9.667511940002441 -5.369719505310059 40.83777618408203
v 10.828812599182129 -6.488262442871928e-06 40.83777618408203
v 16.583913803100586 29.5948543548584 -0.0034182043746113777
v 29.016803741455078 17.00621223449707 -0.0034187529236078262
v 12.258851051330566 19.01329803466797 16.020465850830078
v 20.80815315246582 10.517516136169434 16.024906158447266
v 8.756316184997559 13.485973358154297 32.344337463378906
v 15.040334701538086 7.709629058837891 32.34435272216797
v 5.990554332733154 9.300612449645996 40.83777618408203
v 9.667508125305176 5.369707107543945 40.83777618408203
v -6.574012786586536e-06 -11.116121292114258 40.852928161621094
v -5.1888641792174894e-06 16.034753799438477 32.35094451904297
v -6.574012786586536e-06 11.116100311279297 40.852928161621094
v -12.258864402770996 -19.0132999420166 16.020448684692383
v -20.808164596557617 -10.5175199508667 16.02488899230957
v -23.899717330932617 -1.214262056237203e-06 16.026081085205078
v -8.756329536437988 -13.485984802246094 32.34433364868164
v -15.040348052978516 -7.709640026092529 32.34435272216797
v -17.080339431762695 -4.586372597259469e-06 32.344356536865234
v -5.990567684173584 -9.300622940063477 40.83777618408203
v -9.667525291442871 -5.369719505310059 40.83777618408203
v -10.828825950622559 -6.488262442871928e-06 40.83777618408203
v -12.258856773376465 19.01329803466797 16.020462036132812
v -20.808156967163086 10.517516136169434 16.024898529052734
v -8.756325721740723 13.485973358154297 32.344337463378906
v -15.04034423828125 7.709629058837891 32.34435272216797
v -5.990567684173584 9.300612449645996 40.83777618408203
v -9.667521476745605 5.369707107543945 40.83777618408203
v -2.5281710804847535e-06 -22.052587509155273 16.01972770690918
v 3.1485649287787965e-07 -34.87531280517578 -0.0034212330356240273
v -5.188863269722788e-06 -16.03476905822754 32.3509407043457
v -2.5281722173531307e-06 22.052574157714844 16.01973533630371
v 3.148563791910419e-07 34.87529754638672 -0.003418183885514736
v -7.016292329353746e-06 -1.0049125194200315e-05 43.56761932373047
v -16.583925247192383 -29.5948486328125 -0.0034207897260785103
v -29.016815185546875 -17.006202697753906 -0.0034202411770820618
v -33.52802276611328 2.7828687052533496e-06 -0.0034194979816675186
v -16.58391761779785 29.5948543548584 -0.0034182043746113777
v -29.016807556152344 17.00621223449707 -0.0034187547862529755
v 34.82646179199219 0.06992340087890625 4.256590843200684
v 29.306018829345703 7.131660461425781 12.361337661743164
v 29.306018829345703 -6.991813659667969 12.36133861541748
v 35.31370544433594 -11.176521301269531 -0.003582422621548176
v 35.83177185058594 0.06992340087890625 -0.0035816291347146034
v 35.31370544433594 11.316368103027344 -0.003581439144909382
v 22.57371711730957 1.4139938354492188 26.21038246154785
v 13.640485763549805 1.4139938354492188 23.109973907470703
v 13.640483856201172 -1.2741470336914062 23.109973907470703
v 22.57371711730957 -1.2741470336914062 26.21038246154785
v 17.19576644897461 -8.601020812988281 10.797359466552734
v 27.426666259765625 -8.601016998291016 14.118765830993652
v 25.202960968017578 -22.878074645996094 10.15750789642334
v 18.057628631591797 -22.878074645996094 7.846086502075195
v 18.77439308166504 -23.708755493164062 5.476344108581543
v 26.49915313720703 -23.708763122558594 8.051168441772461
v 20.331405639648438 -18.755008697509766 -0.003559095785021782
v 33.13848114013672 -15.579048156738281 -0.003558957017958164
v 26.4991455078125 23.848602294921875 8.051166534423828
v 18.774385452270508 23.848594665527344 5.476341247558594
v 18.062152862548828 23.017906188964844 7.650393486022949
v 26.505050659179688 23.017921447753906 10.187665939331055
v 17.195762634277344 8.740867614746094 10.797359466552734
v 27.426666259765625 8.740859985351562 14.11876392364502
v 20.331401824951172 18.89484405517578 -0.003557472489774227
v 33.13848114013672 15.718887329101562 -0.003557611256837845
v 24.936033248901367 1.1988143920898438 22.804222106933594
v 24.936033248901367 -1.0589675903320312 22.804224014282227
v 26.858840942382812 -19.204181671142578 9.162922859191895
v 28.03997802734375 -19.901885986328125 7.449379920959473
v 28.03997039794922 20.041709899902344 7.449375152587891
v 26.858829498291016 19.344017028808594 9.162922859191895
v 29.306018829345703 7.131660461425781 12.361337661743164
v 29.306018829345703 -6.991813659667969 12.36133861541748
v 35.31370544433594 -11.176521301269531 -0.003559066914021969
v 35.31370544433594 11.316368103027344 -0.0035581057891249657
v 24.936033248901367 1.1988143920898438 22.804222106933594
v 24.936033248901367 -1.0589675903320312 22.804224014282227
v 26.858840942382812 -19.204181671142578 9.162922859191895
v 28.03997802734375 -19.901885986328125 7.449379920959473
v 28.03997039794922 20.041709899902344 7.449375152587891
v 26.858829498291016 19.344017028808594 9.162922859191895
v -34.82646179199219 -0.069915771484375 4.256590843200684
v -29.306020736694336 -7.13165283203125 12.361337661743164
v -29.306018829345703 6.991817474365234 12.36133861541748
v -35.31370162963867 11.176525115966797 -0.0035814428701996803
v -35.83177185058594 -0.069915771484375 -0.003581632860004902
v -35.31370544433594 -11.316360473632812 -0.0035824263468384743
v -22.57371711730957 -1.4139938354492188 26.21038246154785
v -13.640486717224121 -1.4139938354492188 23.109973907470703
v -13.640483856201172 1.2741470336914062 23.109973907470703
v -22.57371711730957 1.2741470336914062 26.21038246154785
v -17.19576644897461 8.601024627685547 10.797359466552734
v -27.426666259765625 8.601020812988281 14.118765830993652
v -25.202957153320312 22.87807846069336 10.15750789642334
v -18.05762481689453 22.87807846069336 7.846086502075195
v -18.774389266967773 23.708759307861328 5.476344108581543
v -26.499149322509766 23.70876693725586 8.051168441772461
v -20.331403732299805 18.75501251220703 -0.0035574771463871002
v -33.13847732543945 15.579051971435547 -0.003557617776095867
v -26.499149322509766 -23.848594665527344 8.051166534423828
v -18.774389266967773 -23.848594665527344 5.476341247558594
v -18.062156677246094 -23.017906188964844 7.650393486022949
v -26.505054473876953 -23.017913818359375 10.187665939331055
v -17.195764541625977 -8.740867614746094 10.797359466552734
v -27.426668167114258 -8.740852355957031 14.11876392364502
v -20.331405639648438 -18.89484405517578 -0.0035591041669249535
v -33.13848114013672 -15.718879699707031 -0.0035589653998613358
v -24.936033248901367 -1.1988143920898438 22.804222106933594
v -24.936033248901367 1.0589675903320312 22.804224014282227
v -26.85883903503418 19.204185485839844 9.162922859191895
v -28.039976119995117 19.90188980102539 7.449379920959473
v -28.039974212646484 -20.041702270507812 7.449375152587891
v -26.85883331298828 -19.344009399414062 9.162922859191895
v -29.306020736694336 -7.13165283203125 12.361337661743164
v -29.306018829345703 6.991817474365234 12.36133861541748
v -35.31370162963867 11.176525115966797 -0.003558109514415264
v -35.31370544433594 -11.316360473632812 -0.0035590725019574165
v -24.936033248901367 -1.1988143920898438 22.804222106933594
v -24.936033248901367 1.0589675903320312 22.804224014282227
v -26.85883903503418 19.204185485839844 9.162922859191895
v -28.039976119995117 19.90188980102539 7.449379920959473
v -28.039974212646484 -20.041702270507812 7.449375152587891
v -26.85883331298828 -19.344009399414062 9.162922859191895
v -0.8482760787010193 1.28901207447052 70.63092803955078
v 4.3749680519104 1.5198606252670288 68.09398651123047
v 1.3228355646133423 3.5859014987945557 67.0351333618164
v -0.8482760787010193 1.28901207447052 70.63092803955078
v 1.870475172996521 -0.9958410263061523 69.28955841064453
v 4.3749680519104 1.5198606252670288 68.09398651123047
v 16.583921432495117 -29.5948486328125 -0.02530018426477909
v 29.01681137084961 -17.006202697753906 -0.025294344872236252
v 16.583913803100586 29.5948543548584 -0.025296369567513466
v 29.016803741455078 17.00621223449707 -0.025298159569501877
v 33.52802276611328 2.783825038932264e-06 -0.025293609127402306
v 8.657429617642265e-08 -34.87531661987305 -0.029462814331054688
v -16.583925247192383 -29.5948486328125 -0.02530749700963497
v -29.016815185546875 -17.006202697753906 -0.025301892310380936
v 8.657419670043964e-08 34.87529373168945 -0.029462814331054688
v -16.58391761779785 29.5948543548584 -0.02530558966100216
v -33.52802276611328 2.7838259484269656e-06 -0.025304535403847694
v -29.016807556152344 17.00621223449707 -0.025303799659013748
v -4.372228145599365 1.7765308618545532 75.46250915527344
v 1.0506045818328857 9.510747909545898 67.94182586669922
v 9.931368827819824 2.438765048980713 70.16326904296875
v -4.372228145599365 1.7765308618545532 75.46250915527344
v 9.931368827819824 2.438765048980713 70.16326904296875
v 2.9751482009887695 -5.848455429077148 72.64094543457031
v 34.82646179199219 0.06992340087890625 4.256590843200684
v 29.306018829345703 -6.991813659667969 12.36133861541748
v 34.82646179199219 0.06992340087890625 4.256590843200684
v 35.31370544433594 -11.176521301269531 -0.003582422621548176
v 34.82646179199219 0.06992340087890625 4.256590843200684
v 35.83177185058594 0.06992340087890625 -0.0035816291347146034
v 34.82646179199219 0.06992340087890625 4.256590843200684
v 35.31370544433594 11.316368103027344 -0.003581439144909382
v 29.306018829345703 7.131660461425781 12.361337661743164
v 13.640483856201172 -1.2741470336914062 23.109973907470703
v 27.426666259765625 -8.601016998291016 14.118765830993652
v 22.57371711730957 -1.2741470336914062 26.21038246154785
v 13.640483856201172 -1.2741470336914062 23.109973907470703
v 25.202960968017578 -22.878074645996094 10.15750789642334
v 18.77439308166504 -23.708755493164062 5.476344108581543
v 26.49915313720703 -23.708763122558594 8.051168441772461
v 18.77439308166504 -23.708755493164062 5.476344108581543
v 20.331405639648438 -18.755008697509766 -0.003559095785021782
v 26.49915313720703 -23.708763122558594 8.051168441772461
v 26.4991455078125 23.848602294921875 8.051166534423828
v 18.062152862548828 23.017906188964844 7.650393486022949
v 18.062152862548828 23.017906188964844 7.650393486022949
v 27.426666259765625 8.740859985351562 14.11876392364502
v 26.505050659179688 23.017921447753906 10.187665939331055
v 18.062152862548828 23.017906188964844 7.650393486022949
v 18.057628631591797 -22.878074645996094 7.846086502075195
v 25.202960968017578 -22.878074645996094 10.15750789642334
v 27.426666259765625 -8.601016998291016 14.118765830993652
v 27.426666259765625 -8.601016998291016 14.118765830993652
v 17.19576644897461 -8.601020812988281 10.797359466552734
v 18.057628631591797 -22.878074645996094 7.846086502075195
v 18.774385452270508 23.848594665527344 5.476341247558594
v 26.4991455078125 23.848602294921875 8.051166534423828
v 26.4991455078125 23.848602294921875 8.051166534423828
v 20.331401824951172 18.89484405517578 -0.003557472489774227
v 13.640485763549805 1.4139938354492188 23.109973907470703
v 22.57371711730957 1.4139938354492188 26.21038246154785
v 27.426666259765625 8.740859985351562 14.11876392364502
v 27.426666259765625 8.740859985351562 14.11876392364502
v 17.195762634277344 8.740867614746094 10.797359466552734
v 13.640485763549805 1.4139938354492188 23.109973907470703
v 22.57371711730957 1.4139938354492188 26.21038246154785
v 22.57371711730957 -1.2741470336914062 26.21038246154785
v 24.936033248901367 -1.0589675903320312 22.804224014282227
v 22.57371711730957 -1.2741470336914062 26.21038246154785
v 27.426666259765625 -8.601016998291016 14.118765830993652
v 27.426666259765625 -8.601016998291016 14.118765830993652
v 24.936033248901367 -1.0589675903320312 22.804224014282227
v 25.202960968017578 -22.878074645996094 10.15750789642334
v 26.49915313720703 -23.708763122558594 8.051168441772461
v 26.49915313720703 -23.708763122558594 8.051168441772461
v 26.858840942382812 -19.204181671142578 9.162922859191895
v 28.03997802734375 -19.901885986328125 7.449379920959473
v 26.49915313720703 -23.708763122558594 8.051168441772461
v 33.13848114013672 -15.579048156738281 -0.003558957017958164
v 33.13848114013672 -15.579048156738281 -0.003558957017958164
v 28.03997802734375 -19.901885986328125 7.449379920959473
v 26.4991455078125 23.848602294921875 8.051166534423828
v 26.505050659179688 23.017921447753906 10.187665939331055
v 26.505050659179688 23.017921447753906 10.187665939331055
v 28.03997039794922 20.041709899902344 7.449375152587891
v 26.858829498291016 19.344017028808594 9.162922859191895
v 26.505050659179688 23.017921447753906 10.187665939331055
v 27.426666259765625 8.740859985351562 14.11876392364502
v 27.426666259765625 8.740859985351562 14.11876392364502
v 26.858829498291016 19.344017028808594 9.162922859191895
v 29.306018829345703 -6.991813659667969 12.36133861541748
v 27.426666259765625 -8.601016998291016 14.118765830993652
v 25.202960968017578 -22.878074645996094 10.15750789642334
v 25.202960968017578 -22.878074645996094 10.15750789642334
v 26.858840942382812 -19.204181671142578 9.162922859191895
v 29.306018829345703 -6.991813659667969 12.36133861541748
v 29.306018829345703 7.131660461425781 12.361337661743164
v 27.426666259765625 8.740859985351562 14.11876392364502
v 22.57371711730957 1.4139938354492188 26.21038246154785
v 22.57371711730957 1.4139938354492188 26.21038246154785
v 24.936033248901367 1.1988143920898438 22.804222106933594
v 29.306018829345703 7.131660461425781 12.361337661743164
v 29.306018829345703 -6.991813659667969 12.36133861541748
v 29.306018829345703 7.131660461425781 12.361337661743164
v 35.31370544433594 -11.176521301269531 -0.003582422621548176
v 29.306018829345703 -6.991813659667969 12.36133861541748
v 29.306018829345703 -6.991813659667969 12.36133861541748
v 28.03997802734375 -19.901885986328125 7.449379920959473
v 29.306018829345703 7.131660461425781 12.361337661743164
v 29.306018829345703 7.131660461425781 12.361337661743164
v 35.31370544433594 11.316368103027344 -0.003581439144909382
v 28.03997039794922 20.041709899902344 7.449375152587891
v 33.13848114013672 15.718887329101562 -0.003557611256837845
v 26.4991455078125 23.848602294921875 8.051166534423828
v 28.03997039794922 20.041709899902344 7.449375152587891
v 28.03997039794922 20.041709899902344 7.449375152587891
v 33.13848114013672 15.718887329101562 -0.003557611256837845
v -34.82646179199219 -0.069915771484375 4.256590843200684
v -29.306018829345703 6.991817474365234 12.36133861541748
v -34.82646179199219 -0.069915771484375 4.256590843200684
v -35.31370162963867 11.176525115966797 -0.0035814428701996803
v -34.82646179199219 -0.069915771484375 4.256590843200684
v -35.83177185058594 -0.069915771484375 -0.003581632860004902
v -34.82646179199219 -0.069915771484375 4.256590843200684
v -35.31370544433594 -11.316360473632812 -0.0035824263468384743
v -29.306020736694336 -7.13165283203125 12.361337661743164
v -13.640483856201172 1.2741470336914062 23.109973907470703
v -27.426666259765625 8.601020812988281 14.118765830993652
v -22.57371711730957 1.2741470336914062 26.21038246154785
v -13.640483856201172 1.2741470336914062 23.109973907470703
v -25.202957153320312 22.87807846069336 10.15750789642334
v -18.774389266967773 23.708759307861328 5.476344108581543
v -26.499149322509766 23.70876693725586 8.051168441772461
v -18.774389266967773 23.708759307861328 5.476344108581543
v -20.331403732299805 18.75501251220703 -0.0035574771463871002
v -26.499149322509766 23.70876693725586 8.051168441772461
v -26.499149322509766 -23.848594665527344 8.051166534423828
v -18.062156677246094 -23.017906188964844 7.650393486022949
v -18.062156677246094 -23.017906188964844 7.650393486022949
v -27.426668167114258 -8.740852355957031 14.11876392364502
v -26.505054473876953 -23.017913818359375 10.187665939331055
v -18.062156677246094 -23.017906188964844 7.650393486022949
v -18.05762481689453 22.87807846069336 7.846086502075195
v -25.202957153320312 22.87807846069336 10.15750789642334
v -27.426666259765625 8.601020812988281 14.118765830993652
v -27.426666259765625 8.601020812988281 14.118765830993652
v -17.19576644897461 8.601024627685547 10.797359466552734
v -18.05762481689453 22.87807846069336 7.846086502075195
v -18.774389266967773 -23.848594665527344 5.476341247558594
v -26.499149322509766 -23.848594665527344 8.051166534423828
v -26.499149322509766 -23.848594665527344 8.051166534423828
v -20.331405639648438 -18.89484405517578 -0.0035591041669249535
v -13.640486717224121 -1.4139938354492188 23.109973907470703
v -22.57371711730957 -1.4139938354492188 26.21038246154785
v -27.426668167114258 -8.740852355957031 14.11876392364502
v -27.426668167114258 -8.740852355957031 14.11876392364502
v -17.195764541625977 -8.740867614746094 10.797359466552734
v -13.640486717224121 -1.4139938354492188 23.109973907470703
v -22.57371711730957 -1.4139938354492188 26.21038246154785
v -22.57371711730957 1.2741470336914062 26.21038246154785
v -24.936033248901367 1.0589675903320312 22.804224014282227
v -22.57371711730957 1.2741470336914062 26.21038246154785
v -27.426666259765625 8.601020812988281 14.118765830993652
v -27.426666259765625 8.601020812988281 14.118765830993652
v -24.936033248901367 1.0589675903320312 22.804224014282227
v -25.202957153320312 22.87807846069336 10.15750789642334
v -26.499149322509766 23.70876693725586 8.051168441772461
v -26.499149322509766 23.70876693725586 8.051168441772461
v -26.85883903503418 19.204185485839844 9.162922859191895
v -28.039976119995117 19.90188980102539 7.449379920959473
v -26.499149322509766 23.70876693725586 8.051168441772461
v -33.13847732543945 15.579051971435547 -0.003557617776095867
v -33.13847732543945 15.579051971435547 -0.003557617776095867
v -28.039976119995117 19.90188980102539 7.449379920959473
v -26.499149322509766 -23.848594665527344 8.051166534423828
v -26.505054473876953 -23.017913818359375 10.187665939331055
v -26.505054473876953 -23.017913818359375 10.187665939331055
v -28.039974212646484 -20.041702270507812 7.449375152587891
v -26.85883331298828 -19.344009399414062 9.162922859191895
v -26.505054473876953 -23.017913818359375 10.187665939331055
v -27.426668167114258 -8.740852355957031 14.11876392364502
v -27.426668167114258 -8.740852355957031 14.11876392364502
v -26.85883331298828 -19.344009399414062 9.162922859191895
v -29.306018829345703 6.991817474365234 12.36133861541748
v -27.426666259765625 8.601020812988281 14.118765830993652
v -25.202957153320312 22.87807846069336 10.15750789642334
v -25.202957153320312 22.87807846069336 10.15750789642334
v -26.85883903503418 19.204185485839844 9.162922859191895
v -29.306018829345703 6.991817474365234 12.36133861541748
v -29.306020736694336 -7.13165283203125 12.361337661743164
v -27.426668167114258 -8.740852355957031 14.11876392364502
v -22.57371711730957 -1.4139938354492188 26.21038246154785
v -22.57371711730957 -1.4139938354492188 26.21038246154785
v -24.936033248901367 -1.1988143920898438 22.804222106933594
v -29.306020736694336 -7.13165283203125 12.361337661743164
v -29.306018829345703 6.991817474365234 12.36133861541748
v -29.306020736694336 -7.13165283203125 12.361337661743164
v -35.31370162963867 11.176525115966797 -0.0035814428701996803
v -29.306018829345703 6.991817474365234 12.36133861541748
v -29.306018829345703 6.991817474365234 12.36133861541748
v -28.039976119995117 19.90188980102539 7.449379920959473
v -29.306020736694336 -7.13165283203125 12.361337661743164
v -29.306020736694336 -7.13165283203125 12.361337661743164
v -35.31370544433594 -11.316360473632812 -0.0035824263468384743
v -28.039974212646484 -20.041702270507812 7.449375152587891
v -33.13848114013672 -15.718879699707031 -0.0035589653998613358
v -26.499149322509766 -23.848594665527344 8.051166534423828
v -28.039974212646484 -20.041702270507812 7.449375152587891
v -28.039974212646484 -20.041702270507812 7.449375152587891
v -33.13848114013672 -15.718879699707031 -0.0035589653998613358
vt 0.6793412566184998 0.1267656683921814
vt 0.6793412566184998 0.1267656683921814
vt 0.6793412566184998 0.1267656683921814
vt 0.6360213756561279 0.1267656683921814
vt 0.6360213756561279 0.1267656683921814
vt 0.4947625696659088 0.7827043533325195
vt 0.49474501609802246 0.7511192560195923
vt 0.4927191436290741 0.7669066786766052
vt 0.49475377798080444 0.7669118046760559
vt 0.4967884123325348 0.7669066786766052
vt 0.49067574739456177 0.7511090636253357
vt 0.49474501609802246 0.7511192560195923
vt 0.49881425499916077 0.7511090636253357
vt 0.49475377798080444 0.7669118046760559
vt 0.6360213756561279 0.1267656683921814
vt 0.6360213756561279 0.1267656683921814
vt 0.6360213756561279 0.1267656683921814
vt 0.6793412566184998 0.1267656683921814
vt 0.6793412566184998 0.1267656683921814
vt 0.6360213756561279 0.1267656683921814
vt 0.6793412566184998 0.1267656683921814
vt 0.6575449705123901 0.17961591482162476
vt 0.676133394241333 0.22383129596710205
vt 0.6758120059967041 0.22383856773376465
vt 0.6762833595275879 0.22336530685424805
vt 0.6760279536247253 0.2234196662902832
vt 0.6757886409759521 0.22343945503234863
vt 0.676099419593811 0.22304415702819824
vt 0.6759375333786011 0.22309720516204834
vt 0.6757648587226868 0.2231137752532959
vt 0.6759489178657532 0.22287023067474365
vt 0.6758573055267334 0.22290408611297607
vt 0.6757515668869019 0.22291135787963867
vt 0.6751687526702881 0.22385132312774658
vt 0.6754925847053528 0.22384798526763916
vt 0.6752954721450806 0.2233903408050537
vt 0.6755495071411133 0.22342991828918457
vt 0.6754339933395386 0.22305011749267578
vt 0.6755928993225098 0.2230985164642334
vt 0.6755638122558594 0.22285521030426025
vt 0.6756480932235718 0.22289443016052246
vt 0.676020622253418 0.22279572486877441
vt 0.6752946972846985 0.2229522466659546
vt 0.6755028963088989 0.2227768898010254
vt 0.6768267154693604 0.2232609987258911
vt 0.6768264770507812 0.22267937660217285
vt 0.6767891645431519 0.2229701280593872
vt 0.6768265962600708 0.22297024726867676
vt 0.6768640279769897 0.2229701280593872
vt 0.6767514944076538 0.2226792573928833
vt 0.6768264770507812 0.22267937660217285
vt 0.6769013404846191 0.2226792573928833
vt 0.6768265962600708 0.22297024726867676
vt 0.6762833595275879 0.22336530685424805
vt 0.6760279536247253 0.2234196662902832
vt 0.6757886409759521 0.22343945503234863
vt 0.676099419593811 0.22304415702819824
vt 0.6759375333786011 0.22309720516204834
vt 0.6757648587226868 0.2231137752532959
vt 0.6759489178657532 0.22287023067474365
vt 0.6758573055267334 0.22290408611297607
vt 0.6757515668869019 0.22291135787963867
vt 0.6752954721450806 0.2233903408050537
vt 0.6755495071411133 0.22342991828918457
vt 0.6754339933395386 0.22305011749267578
vt 0.6755928993225098 0.2230985164642334
vt 0.6755638122558594 0.22285521030426025
vt 0.6756480932235718 0.22289443016052246
vt 0.6765280961990356 0.22325968742370605
vt 0.6762436628341675 0.22294330596923828
vt 0.6750550866127014 0.22329068183898926
vt 0.6757675409317017 0.22271955013275146
vt 0.6748316884040833 0.22376763820648193
vt 0.6764612197875977 0.22381901741027832
vt 0.6768070459365845 0.223740816116333
vt 0.6764615774154663 0.22381830215454102
vt 0.6761382222175598 0.22383129596710205
vt 0.6758173108100891 0.2238384485244751
vt 0.6751672625541687 0.22385168075561523
vt 0.6754974722862244 0.2238476276397705
vt 0.47417691349983215 0.8100858926773071
vt 0.4568827450275421 0.8110157251358032
vt 0.4396807551383972 0.8114833235740662
vt 0.4652487337589264 0.7883680462837219
vt 0.45137903094291687 0.7913236618041992
vt 0.43838346004486084 0.7923988699913025
vt 0.45526212453842163 0.7709277272224426
vt 0.44646739959716797 0.7738086581230164
vt 0.4370896518230438 0.7747079133987427
vt 0.4470873177051544 0.7614817023277283
vt 0.44211265444755554 0.763321578502655
vt 0.43636980652809143 0.7637157440185547
vt 0.405238538980484 0.8118558526039124
vt 0.4225544333457947 0.8118941783905029
vt 0.41159921884536743 0.7897303700447083
vt 0.4253954291343689 0.7918817400932312
vt 0.4191226661205292 0.7712491750717163
vt 0.42775121331214905 0.7738819718360901
vt 0.4261719286441803 0.7606646418571472
vt 0.43074843287467957 0.762794017791748
vt 0.4509830176830292 0.7574326395988464
vt 0.4115563929080963 0.765937864780426
vt 0.42286503314971924 0.756415069103241
vt 0.4652487337589264 0.7883680462837219
vt 0.45137903094291687 0.7913236618041992
vt 0.43838346004486084 0.7923988699913025
vt 0.45526212453842163 0.7709277272224426
vt 0.44646739959716797 0.7738086581230164
vt 0.4370896518230438 0.7747079133987427
vt 0.4470873177051544 0.7614817023277283
vt 0.44211265444755554 0.763321578502655
vt 0.43636980652809143 0.7637157440185547
vt 0.41159921884536743 0.7897303700447083
vt 0.4253954291343689 0.7918817400932312
vt 0.4191226661205292 0.7712491750717163
vt 0.42775121331214905 0.7738819718360901
vt 0.4261719286441803 0.7606646418571472
vt 0.43074843287467957 0.762794017791748
vt 0.4785405695438385 0.782634973526001
vt 0.4920908510684967 0.8058739900588989
vt 0.46309366822242737 0.7654481530189514
vt 0.3985438644886017 0.7843173742294312
vt 0.3875162899494171 0.8073128461837769
vt 0.4372348487377167 0.7532970309257507
vt 0.4741663336753845 0.8100908994674683
vt 0.4568732976913452 0.811016857624054
vt 0.43967095017433167 0.8114837408065796
vt 0.4052269160747528 0.8118503093719482
vt 0.4225444793701172 0.8118939399719238
vt 0.43918025493621826 0.8011865615844727
vt 0.4302654564380646 0.7898951172828674
vt 0.44809502363204956 0.7898951172828674
vt 0.453304260969162 0.807057797908783
vt 0.4391610026359558 0.8071607947349548
vt 0.4250485897064209 0.8070552945137024
vt 0.6677958369255066 0.21720927953720093
vt 0.6678411364555359 0.2172403335571289
vt 0.6678411364555359 0.21724015474319458
vt 0.6677958369255066 0.21720927953720093
vt 0.6678441166877747 0.21725362539291382
vt 0.6677958369255066 0.21722054481506348
vt 0.6677958369255066 0.21722328662872314
vt 0.6678361296653748 0.2172507643699646
vt 0.667837917804718 0.21725428104400635
vt 0.6677958369255066 0.2172255516052246
vt 0.6678436994552612 0.21726316213607788
vt 0.6677958965301514 0.21723365783691406
vt 0.6677958369255066 0.2172255516052246
vt 0.667837917804718 0.21725422143936157
vt 0.6678398251533508 0.21725338697433472
vt 0.6677958369255066 0.21722328662872314
vt 0.6678441166877747 0.21725350618362427
vt 0.6677958369255066 0.21722054481506348
vt 0.6678434610366821 0.21726298332214355
vt 0.6677960157394409 0.2172337770462036
vt 0.43775513768196106 0.7753462195396423
vt 0.44060540199279785 0.7753462195396423
vt 0.46351203322410583 0.7943511605262756
vt 0.4643927812576294 0.7967383861541748
vt 0.41396772861480713 0.7967383861541748
vt 0.4148485064506531 0.7943511009216309
vt 0.6677915453910828 0.21722251176834106
vt 0.6677915453910828 0.21722251176834106
vt 0.667791485786438 0.21723395586013794
vt 0.6677915453910828 0.21723389625549316
vt 0.6677915453910828 0.21721279621124268
vt 0.6677915453910828 0.21721279621124268
vt 0.6677915453910828 0.21722453832626343
vt 0.6677915453910828 0.21722644567489624
vt 0.6677915453910828 0.21722644567489624
vt 0.6677915453910828 0.21722453832626343
vt 0.43918025493621826 0.8011865615844727
vt 0.4302654564380646 0.7898951172828674
vt 0.44809502363204956 0.7898951172828674
vt 0.453304260969162 0.807057797908783
vt 0.4391610026359558 0.8071607947349548
vt 0.4250485897064209 0.8070552945137024
vt 0.6677958369255066 0.21720927953720093
vt 0.6678411364555359 0.2172403335571289
vt 0.6678411364555359 0.21724015474319458
vt 0.6677958369255066 0.21720927953720093
vt 0.6678441166877747 0.21725362539291382
vt 0.6677958369255066 0.21722054481506348
vt 0.6677958369255066 0.21722328662872314
vt 0.6678361296653748 0.2172507643699646
vt 0.667837917804718 0.21725428104400635
vt 0.6677958369255066 0.2172255516052246
vt 0.6678436994552612 0.21726316213607788
vt 0.6677958965301514 0.21723365783691406
vt 0.6677958369255066 0.2172255516052246
vt 0.667837917804718 0.21725422143936157
vt 0.6678398251533508 0.21725338697433472
vt 0.6677958369255066 0.21722328662872314
vt 0.6678441166877747 0.21725350618362427
vt 0.6677958369255066 0.21722054481506348
vt 0.6678434610366821 0.21726298332214355
vt 0.6677960157394409 0.2172337770462036
vt 0.43775513768196106 0.7753462195396423
vt 0.44060540199279785 0.7753462195396423
vt 0.46351203322410583 0.7943511605262756
vt 0.4643927812576294 0.7967383861541748
vt 0.41396772861480713 0.7967383861541748
vt 0.4148485064506531 0.7943511009216309
vt 0.6677915453910828 0.21722251176834106
vt 0.6677915453910828 0.21722251176834106
vt 0.667791485786438 0.21723395586013794
vt 0.6677915453910828 0.21723389625549316
vt 0.6677915453910828 0.21721279621124268
vt 0.6677915453910828 0.21721279621124268
vt 0.6677915453910828 0.21722453832626343
vt 0.6677915453910828 0.21722644567489624
vt 0.6677915453910828 0.21722644567489624
vt 0.6677915453910828 0.21722453832626343
vt 0.49474501609802246 0.7511192560195923
vt 0.49474501609802246 0.7511192560195923
vt 0.49067574739456177 0.7511090636253357
vt 0.49474501609802246 0.7511192560195923
vt 0.49881425499916077 0.7511090636253357
vt 0.49474501609802246 0.7511192560195923
vt 0.6360213756561279 0.1267656683921814
vt 0.6360213756561279 0.1267656683921814
vt 0.6793412566184998 0.1267656683921814
vt 0.6793412566184998 0.1267656683921814
vt 0.6360213756561279 0.1267656683921814
vt 0.6793412566184998 0.1267656683921814
vt 0.6793412566184998 0.1267656683921814
vt 0.6793412566184998 0.1267656683921814
vt 0.6360213756561279 0.1267656683921814
vt 0.6360213756561279 0.1267656683921814
vt 0.6793412566184998 0.1267656683921814
vt 0.6360213756561279 0.1267656683921814
vt 0.6768264770507812 0.22267937660217285
vt 0.6767514944076538 0.2226792573928833
vt 0.6768264770507812 0.22267937660217285
vt 0.6768264770507812 0.22267937660217285
vt 0.6768264770507812 0.22267937660217285
vt 0.6769013404846191 0.2226792573928833
vt 0.43918025493621826 0.8011865615844727
vt 0.44809502363204956 0.7898951172828674
vt 0.43918025493621826 0.8011865615844727
vt 0.453304260969162 0.807057797908783
vt 0.43918025493621826 0.8011865615844727
vt 0.4391610026359558 0.8071607947349548
vt 0.43918025493621826 0.8011865615844727
vt 0.4250485897064209 0.8070552945137024
vt 0.4302654564380646 0.7898951172828674
vt 0.6678411364555359 0.21724015474319458
vt 0.6677958369255066 0.21722054481506348
vt 0.6677958369255066 0.21720927953720093
vt 0.6678411364555359 0.21724015474319458
vt 0.6677958369255066 0.21722328662872314
vt 0.667837917804718 0.21725428104400635
vt 0.6677958369255066 0.2172255516052246
vt 0.667837917804718 0.21725428104400635
vt 0.6678436994552612 0.21726316213607788
vt 0.6677958369255066 0.2172255516052246
vt 0.6677958369255066 0.2172255516052246
vt 0.6678398251533508 0.21725338697433472
vt 0.6678398251533508 0.21725338697433472
vt 0.6677958369255066 0.21722054481506348
vt 0.6677958369255066 0.21722328662872314
vt 0.6678398251533508 0.21725338697433472
vt 0.6678361296653748 0.2172507643699646
vt 0.6677958369255066 0.21722328662872314
vt 0.6677958369255066 0.21722054481506348
vt 0.6677958369255066 0.21722054481506348
vt 0.6678441166877747 0.21725362539291382
vt 0.6678361296653748 0.2172507643699646
vt 0.667837917804718 0.21725422143936157
vt 0.6677958369255066 0.2172255516052246
vt 0.6677958369255066 0.2172255516052246
vt 0.6678434610366821 0.21726298332214355
vt 0.6678411364555359 0.2172403335571289
vt 0.6677958369255066 0.21720927953720093
vt 0.6677958369255066 0.21722054481506348
vt 0.6677958369255066 0.21722054481506348
vt 0.6678441166877747 0.21725350618362427
vt 0.6678411364555359 0.2172403335571289
vt 0.6677958369255066 0.21720927953720093
vt 0.6677958369255066 0.21720927953720093
vt 0.6677915453910828 0.21721279621124268
vt 0.6677958369255066 0.21720927953720093
vt 0.6677958369255066 0.21722054481506348
vt 0.6677958369255066 0.21722054481506348
vt 0.6677915453910828 0.21721279621124268
vt 0.6677958369255066 0.21722328662872314
vt 0.6677958369255066 0.2172255516052246
vt 0.6677958369255066 0.2172255516052246
vt 0.6677915453910828 0.21722453832626343
vt 0.6677915453910828 0.21722644567489624
vt 0.6677958369255066 0.2172255516052246
vt 0.6677958965301514 0.21723365783691406
vt 0.6677958965301514 0.21723365783691406
vt 0.6677915453910828 0.21722644567489624
vt 0.6677958369255066 0.2172255516052246
vt 0.6677958369255066 0.21722328662872314
vt 0.6677958369255066 0.21722328662872314
vt 0.6677915453910828 0.21722644567489624
vt 0.6677915453910828 0.21722453832626343
vt 0.6677958369255066 0.21722328662872314
vt 0.6677958369255066 0.21722054481506348
vt 0.6677958369255066 0.21722054481506348
vt 0.6677915453910828 0.21722453832626343
vt 0.6677915453910828 0.21722251176834106
vt 0.6677958369255066 0.21722054481506348
vt 0.6677958369255066 0.21722328662872314
vt 0.6677958369255066 0.21722328662872314
vt 0.6677915453910828 0.21722453832626343
vt 0.6677915453910828 0.21722251176834106
vt 0.6677915453910828 0.21722251176834106
vt 0.6677958369255066 0.21722054481506348
vt 0.6677958369255066 0.21720927953720093
vt 0.6677958369255066 0.21720927953720093
vt 0.6677915453910828 0.21721279621124268
vt 0.6677915453910828 0.21722251176834106
vt 0.44809502363204956 0.7898951172828674
vt 0.4302654564380646 0.7898951172828674
vt 0.453304260969162 0.807057797908783
vt 0.44809502363204956 0.7898951172828674
vt 0.44809502363204956 0.7898951172828674
vt 0.4643927812576294 0.7967383861541748
vt 0.4302654564380646 0.7898951172828674
vt 0.4302654564380646 0.7898951172828674
vt 0.4250485897064209 0.8070552945137024
vt 0.41396772861480713 0.7967383861541748
vt 0.6677960157394409 0.2172337770462036
vt 0.6677958369255066 0.2172255516052246
vt 0.6677915453910828 0.21722644567489624
vt 0.6677915453910828 0.21722644567489624
vt 0.6677960157394409 0.2172337770462036
vt 0.43918025493621826 0.8011865615844727
vt 0.44809502363204956 0.7898951172828674
vt 0.43918025493621826 0.8011865615844727
vt 0.453304260969162 0.807057797908783
vt 0.43918025493621826 0.8011865615844727
vt 0.4391610026359558 0.8071607947349548
vt 0.43918025493621826 0.8011865615844727
vt 0.4250485897064209 0.8070552945137024
vt 0.4302654564380646 0.7898951172828674
vt 0.6678411364555359 0.21724015474319458
vt 0.6677958369255066 0.21722054481506348
vt 0.6677958369255066 0.21720927953720093
vt 0.6678411364555359 0.21724015474319458
vt 0.6677958369255066 0.21722328662872314
vt 0.667837917804718 0.21725428104400635
vt 0.6677958369255066 0.2172255516052246
vt 0.667837917804718 0.21725428104400635
vt 0.6678436994552612 0.21726316213607788
vt 0.6677958369255066 0.2172255516052246
vt 0.6677958369255066 0.2172255516052246
vt 0.6678398251533508 0.21725338697433472
vt 0.6678398251533508 0.21725338697433472
vt 0.6677958369255066 0.21722054481506348
vt 0.6677958369255066 0.21722328662872314
vt 0.6678398251533508 0.21725338697433472
vt 0.6678361296653748 0.2172507643699646
vt 0.6677958369255066 0.21722328662872314
vt 0.6677958369255066 0.21722054481506348
vt 0.6677958369255066 0.21722054481506348
vt 0.6678441166877747 0.21725362539291382
vt 0.6678361296653748 0.2172507643699646
vt 0.667837917804718 0.21725422143936157
vt 0.6677958369255066 0.2172255516052246
vt 0.6677958369255066 0.2172255516052246
vt 0.6678434610366821 0.21726298332214355
vt 0.6678411364555359 0.2172403335571289
vt 0.6677958369255066 0.21720927953720093
vt 0.6677958369255066 0.21722054481506348
vt 0.6677958369255066 0.21722054481506348
vt 0.6678441166877747 0.21725350618362427
vt 0.6678411364555359 0.2172403335571289
vt 0.6677958369255066 0.21720927953720093
vt 0.6677958369255066 0.21720927953720093
vt 0.6677915453910828 0.21721279621124268
vt 0.6677958369255066 0.21720927953720093
vt 0.6677958369255066 0.21722054481506348
vt 0.6677958369255066 0.21722054481506348
vt 0.6677915453910828 0.21721279621124268
vt 0.6677958369255066 0.21722328662872314
vt 0.6677958369255066 0.2172255516052246
vt 0.6677958369255066 0.2172255516052246
vt 0.6677915453910828 0.21722453832626343
vt 0.6677915453910828 0.21722644567489624
vt 0.6677958369255066 0.2172255516052246
vt 0.6677958965301514 0.21723365783691406
vt 0.6677958965301514 0.21723365783691406
vt 0.6677915453910828 0.21722644567489624
vt 0.6677958369255066 0.2172255516052246
vt 0.6677958369255066 0.21722328662872314
vt 0.6677958369255066 0.21722328662872314
vt 0.6677915453910828 0.21722644567489624
vt 0.6677915453910828 0.21722453832626343
vt 0.6677958369255066 0.21722328662872314
vt 0.6677958369255066 0.21722054481506348
vt 0.6677958369255066 0.21722054481506348
vt 0.6677915453910828 0.21722453832626343
vt 0.6677915453910828 0.21722251176834106
vt 0.6677958369255066 0.21722054481506348
vt 0.6677958369255066 0.21722328662872314
vt 0.6677958369255066 0.21722328662872314
vt 0.6677915453910828 0.21722453832626343
vt 0.6677915453910828 0.21722251176834106
vt 0.6677915453910828 0.21722251176834106
vt 0.6677958369255066 0.21722054481506348
vt 0.6677958369255066 0.21720927953720093
vt 0.6677958369255066 0.21720927953720093
vt 0.6677915453910828 0.21721279621124268
vt 0.6677915453910828 0.21722251176834106
vt 0.44809502363204956 0.7898951172828674
vt 0.4302654564380646 0.7898951172828674
vt 0.453304260969162 0.807057797908783
vt 0.44809502363204956 0.7898951172828674
vt 0.44809502363204956 0.7898951172828674
vt 0.4643927812576294 0.7967383861541748
vt 0.4302654564380646 0.7898951172828674
vt 0.4302654564380646 0.7898951172828674
vt 0.4250485897064209 0.8070552945137024
vt 0.41396772861480713 0.7967383861541748
vt 0.6677960157394409 0.2172337770462036
vt 0.6677958369255066 0.2172255516052246
vt 0.6677915453910828 0.21722644567489624
vt 0.6677915453910828 0.21722644567489624
vt 0.6677960157394409 0.2172337770462036
vn 0.0002193280088249594 9.948202932719141e-05 -1.0
vn 1.5430052371812053e-05 -1.4775277122680563e-05 -1.0
vn 2.087024404318072e-05 -5.492956461239373e-06 -1.0
vn 0.00021955826377961785 -9.948210936272517e-05 -1.0
vn 1.5121806427487172e-05 1.5076905583555344e-05 -1.0
vn -0.15958848595619202 -0.05139346420764923 -0.9858450293540955
vn -0.9680889844894409 0.24973700940608978 0.02086041122674942
vn -0.05338148772716522 0.9919710755348206 -0.11464642733335495
vn -0.9701127409934998 -0.24126964807510376 0.025888532400131226
vn 0.02590622752904892 -0.9995046257972717 -0.01787670888006687
vn -0.10037383437156677 0.9892659187316895 -0.10619816184043884
vn 0.9253724813461304 0.33323240280151367 -0.18067091703414917
vn 0.04395453631877899 -0.9988337755203247 0.01997796818614006
vn 0.974901020526886 -0.18794696033000946 -0.1193481981754303
vn -0.00021888701303396374 9.948201477527618e-05 -1.0
vn -1.5258385246852413e-05 -1.462437921873061e-05 -1.0
vn -2.0544361177599058e-05 -5.605187652690802e-06 -1.0
vn -0.00021900224965065718 -9.948208025889471e-05 -1.0
vn -1.5104262274689972e-05 1.4775194358662702e-05 -1.0
vn 0.0002193280088249594 9.948202932719141e-05 -1.0
vn 0.00021955826377961785 -9.948210936272517e-05 -1.0
vn 0.0002193280088249594 9.948202932719141e-05 -1.0
vn -0.6916418075561523 0.47999390959739685 -0.5396642088890076
vn -0.8569769263267517 -9.954614910157034e-08 -0.5153547525405884
vn -0.43786463141441345 0.7699106931686401 -0.46423277258872986
vn -0.76689612865448 0.4589942395687103 -0.44854751229286194
vn -0.9053117632865906 -1.6439233263554343e-07 -0.4247477650642395
vn -0.44797274470329285 0.7736247181892395 -0.44813552498817444
vn -0.7602842450141907 0.44468826055526733 -0.4735192358493805
vn -0.8472416400909424 -2.173298270236046e-07 -0.5312077403068542
vn -0.3676515519618988 0.5307403206825256 -0.7636406421661377
vn -0.5633192658424377 0.25708284974098206 -0.7852259874343872
vn -0.5555194020271301 -1.8845889826479834e-07 -0.8315035700798035
vn -0.4308697283267975 -0.7032005190849304 -0.5655619502067566
vn -0.6916417479515076 -0.4799942374229431 -0.5396641492843628
vn -0.4334767460823059 -0.7440494894981384 -0.5084174275398254
vn -0.7668960690498352 -0.4589942991733551 -0.4485475420951843
vn -0.4458600580692291 -0.7917096018791199 -0.41761788725852966
vn -0.7602840662002563 -0.4446881413459778 -0.47351935505867004
vn -0.34860193729400635 -0.591452956199646 -0.7270902395248413
vn -0.5633190274238586 -0.25708314776420593 -0.785226047039032
vn -6.482143533048657e-08 0.6923949718475342 -0.7215186953544617
vn -5.666424840455875e-08 -0.8834012150764465 -0.46861764788627625
vn -1.0186855803340222e-08 -0.5956403613090515 -0.8032512664794922
vn 0.08557745069265366 0.07672110944986343 0.9933732151985168
vn 0.9676226377487183 -0.23429962992668152 -0.09386229515075684
vn 0.06830523908138275 -0.9858830571174622 0.1528693437576294
vn 0.9742709398269653 0.22506026923656464 -0.011999664828181267
vn -0.013066948391497135 0.9963961839675903 0.08380862325429916
vn 0.13217748701572418 -0.9870738387107849 0.09063312411308289
vn -0.9230637550354004 -0.3580552637577057 0.14053389430046082
vn -0.044200316071510315 0.9942737817764282 -0.09729323536157608
vn -0.9694456458091736 0.17506097257137299 0.17184005677700043
vn 0.43786486983299255 0.7699108123779297 -0.4642323851585388
vn 0.7668964266777039 0.45899417996406555 -0.448546826839447
vn 0.9053121209144592 -1.1558837087477514e-07 -0.42474693059921265
vn 0.4479728043079376 0.7736247181892395 -0.44813522696495056
vn 0.760284423828125 0.44468820095062256 -0.4735187292098999
vn 0.8472418189048767 -2.1477301004324545e-07 -0.5312073826789856
vn 0.36765193939208984 0.5307400226593018 -0.7636407017707825
vn 0.5633196830749512 0.25708267092704773 -0.7852258682250977
vn 0.555519700050354 -1.9242646942529973e-07 -0.8315033912658691
vn 0.43347710371017456 -0.744049608707428 -0.5084169507026672
vn 0.7668963670730591 -0.45899420976638794 -0.448546826839447
vn 0.4458601474761963 -0.7917097210884094 -0.4176175594329834
vn 0.7602843046188354 -0.44468817114830017 -0.4735189378261566
vn 0.34860220551490784 -0.5914527773857117 -0.7270901799201965
vn 0.5633194446563721 -0.2570829689502716 -0.7852258086204529
vn 1.594263636661708e-07 0.858303964138031 -0.5131416320800781
vn -5.651238055293106e-08 0.9106035828590393 -0.4132809042930603
vn 6.697902676933154e-08 -0.8968651294708252 -0.44230416417121887
vn 2.4515210839126667e-07 -1.3676907428816776e-07 -1.0
vn 2.1394141924702126e-07 -0.8028920888900757 -0.5961245894432068
vn -0.3542860150337219 0.7359635829925537 -0.5769220590591431
vn 3.222253042167722e-07 0.7942051291465759 -0.6076498031616211
vn 0.3542863726615906 0.7359637022018433 -0.5769216418266296
vn 0.6916422247886658 0.4799938499927521 -0.5396637320518494
vn 0.8569774627685547 -1.5314793699872098e-07 -0.5153540968894958
vn 0.43087026476860046 -0.70320063829422 -0.5655615329742432
vn 0.691642165184021 -0.4799942970275879 -0.539663553237915
vn 0.3514000177383423 -0.7275617122650146 0.5892131328582764
vn 0.6868783831596375 -0.4780957102775574 0.5473780632019043
vn 0.8536730408668518 1.034199286209514e-07 0.5208092927932739
vn 0.43586406111717224 -0.7669975757598877 0.4708898365497589
vn 0.7639626264572144 -0.4604087471961975 0.45208948850631714
vn 0.904640257358551 1.5936808495098376e-07 0.4261762797832489
vn 0.45068687200546265 -0.7789890766143799 0.4359557330608368
vn 0.7626309394836426 -0.45040449500083923 0.46425193548202515
vn 0.8530820608139038 2.2987821068909398e-07 0.5217769742012024
vn 0.3720116913318634 -0.533841073513031 0.7593557834625244
vn 0.5672702789306641 -0.253984272480011 0.7833877801895142
vn 0.5556839108467102 1.8156515579903498e-07 0.8313937783241272
vn 0.42961829900741577 0.6958743929862976 0.5754884481430054
vn 0.6868783235549927 0.47809579968452454 0.5473780632019043
vn 0.43118950724601746 0.7391878962516785 0.5173749923706055
vn 0.7639625072479248 0.4604087769985199 0.4520896375179291
vn 0.4472384750843048 0.7948513627052307 0.4101085960865021
vn 0.7626308798789978 0.4504045248031616 0.4642519950866699
vn 0.3541739284992218 0.5970646142959595 0.719774067401886
vn 0.5672702193260193 0.25398433208465576 0.7833878397941589
vn -1.0931463734209501e-08 -0.6999569535255432 0.7141850590705872
vn -7.729981987836254e-09 0.8916395306587219 0.45274606347084045
vn 0.0 0.5942559838294983 0.8042759895324707
vn -0.43586423993110657 -0.7669974565505981 0.4708898365497589
vn -0.7639627456665039 -0.46040868759155273 0.4520893692970276
vn -0.9046403765678406 1.7479081293458876e-07 0.4261758327484131
vn -0.45068690180778503 -0.7789891362190247 0.4359555244445801
vn -0.7626309394836426 -0.45040491223335266 0.4642515182495117
vn -0.8530821800231934 2.3243245550474967e-07 0.5217767953872681
vn -0.3720117211341858 -0.533841073513031 0.7593556642532349
vn -0.5672701597213745 -0.2539845108985901 0.7833877801895142
vn -0.5556837320327759 1.805675395871731e-07 0.8313938975334167
vn -0.4311896562576294 0.7391878366470337 0.5173749327659607
vn -0.7639626264572144 0.46040865778923035 0.4520896077156067
vn -0.44723859429359436 0.7948514223098755 0.41010841727256775
vn -0.7626309394836426 0.4504050016403198 0.46425169706344604
vn -0.3541739583015442 0.5970646739006042 0.7197740077972412
vn -0.5672701597213745 0.2539845407009125 0.7833877801895142
vn -2.8304492971642503e-08 -0.8511714935302734 0.52488774061203
vn 3.0709465193012875e-08 -0.7807689309120178 0.6248200535774231
vn -2.568509316347445e-08 -0.9132605195045471 0.4073762893676758
vn -6.189252133026457e-08 0.8926253318786621 0.4507993757724762
vn -4.201911707468753e-08 0.7911390662193298 0.6116363406181335
vn -2.563678380695933e-09 -6.40919584071753e-09 1.0
vn -0.3514000475406647 -0.7275616526603699 0.5892131924629211
vn -0.6868783831596375 -0.47809553146362305 0.5473781228065491
vn -0.8536730408668518 9.958956326272528e-08 0.5208093523979187
vn -0.4296182692050934 0.6958743929862976 0.5754885077476501
vn -0.6868783235549927 0.47809556126594543 0.5473781228065491
vn 0.8264893293380737 3.8012831993228247e-08 0.5629523992538452
vn 0.8264893293380737 3.8012831993228247e-08 0.5629523992538452
vn 0.8264893293380737 3.8012831993228247e-08 0.5629523992538452
vn 0.8709861636161804 -0.14059095084667206 0.470762699842453
vn 0.9722918272018433 -0.04478854686021805 0.22944016754627228
vn 0.9722918272018433 0.04478852450847626 0.22944019734859467
vn -0.32787877321243286 0.0 0.9447199106216431
vn -0.32787880301475525 2.3264375670351e-07 0.9447197914123535
vn -0.32787877321243286 0.0 0.9447199106216431
vn -0.32787877321243286 0.0 0.9447199106216431
vn -0.1533174216747284 -0.8680214881896973 0.472263365983963
vn -0.1533174216747284 -0.8680214881896973 0.472263365983963
vn -0.10311761498451233 -0.945337176322937 0.3093615472316742
vn -0.09792111068964005 -0.9480406641960144 0.3027050197124481
vn -0.10311761498451233 -0.945337176322937 0.3093615472316742
vn -0.10311761498451233 -0.945337176322937 0.3093615472316742
vn 0.2076134830713272 -0.7542778253555298 -0.6228657960891724
vn 0.18967410922050476 -0.7648615837097168 -0.615638256072998
vn -0.10834121704101562 0.926443874835968 0.360505074262619
vn -0.10792731493711472 0.9399527907371521 0.3237910568714142
vn -0.10834121704101562 0.926443874835968 0.360505074262619
vn -0.10834121704101562 0.926443874835968 0.360505074262619
vn -0.30102869868278503 0.22265514731407166 0.9272574782371521
vn -0.30102869868278503 0.22265514731407166 0.9272574782371521
vn 0.20761366188526154 0.7542772889137268 -0.6228662133216858
vn 0.1896737813949585 0.7648615837097168 -0.6156385540962219
vn 0.9224868416786194 3.26112569837278e-07 0.38602858781814575
vn 0.9224868416786194 3.26112569837278e-07 0.38602858781814575
vn 0.7204872965812683 -0.3072011470794678 0.621711790561676
vn 0.8274933099746704 -0.26872116327285767 0.4929946959018707
vn 0.7204881310462952 0.3072018623352051 0.6217104196548462
vn 0.7204881310462952 0.3072018623352051 0.6217104196548462
vn 0.7759774327278137 0.30070987343788147 0.5544660687446594
vn 0.7812841534614563 -0.3427371382713318 0.5216572880744934
vn 0.8445096611976624 -0.41725993156433105 0.3357049226760864
vn 0.8445090055465698 0.41726022958755493 0.3357062041759491
vn 0.8217171430587769 0.0 0.5698955655097961
vn 0.8217169642448425 4.814415319742693e-07 0.5698958039283752
vn 0.7956972122192383 -0.20426705479621887 0.5702113509178162
vn 0.7622384428977966 -0.21182414889335632 0.6116560101509094
vn 0.9257173538208008 0.35336631536483765 0.13483183085918427
vn 0.8346637487411499 -0.07193081080913544 0.5460425019264221
vn -0.8264893293380737 7.360302589631829e-08 0.5629523992538452
vn -0.8264893293380737 7.360302589631829e-08 0.5629523992538452
vn -0.8264893293380737 7.360302589631829e-08 0.5629523992538452
vn -0.8709861040115356 0.14059115946292877 0.47076255083084106
vn -0.9722917079925537 0.04478886350989342 0.2294401228427887
vn -0.9722918272018433 -0.04478854686021805 0.22944019734859467
vn 0.32787877321243286 0.0 0.9447199106216431
vn 0.3278788626194 -3.4896569900411123e-07 0.9447197914123535
vn 0.32787877321243286 0.0 0.9447199106216431
vn 0.32787877321243286 0.0 0.9447199106216431
vn 0.15331746637821198 0.8680213093757629 0.47226348519325256
vn 0.15331746637821198 0.8680213093757629 0.47226348519325256
vn 0.10311761498451233 0.945337176322937 0.3093615472316742
vn 0.09792111068964005 0.9480406641960144 0.3027050197124481
vn 0.10311761498451233 0.945337176322937 0.3093615472316742
vn 0.10311761498451233 0.945337176322937 0.3093615472316742
vn -0.20761346817016602 0.7542776465415955 -0.6228658556938171
vn -0.18967410922050476 0.7648616433143616 -0.6156383752822876
vn 0.10834038257598877 -0.9264439940452576 0.3605051040649414
vn 0.10792647302150726 -0.9399527907371521 0.3237913250923157
vn 0.10834038257598877 -0.9264439940452576 0.3605051040649414
vn 0.10834038257598877 -0.9264439940452576 0.3605051040649414
vn 0.3010285198688507 -0.22265519201755524 0.9272575378417969
vn 0.3010285198688507 -0.22265519201755524 0.9272575378417969
vn -0.20761431753635406 -0.7542773485183716 -0.6228659152984619
vn -0.18967433273792267 -0.7648616433143616 -0.6156381368637085
vn -0.9224868416786194 -3.26112569837278e-07 0.38602858781814575
vn -0.9224868416786194 -3.26112569837278e-07 0.38602858781814575
vn -0.7204872369766235 0.30720123648643494 0.621711790561676
vn -0.82749342918396 0.26872122287750244 0.492994487285614
vn -0.7204882502555847 -0.3072017431259155 0.6217104196548462
vn -0.7204882502555847 -0.3072017431259155 0.6217104196548462
vn -0.7759774327278137 -0.3007097840309143 0.5544660687446594
vn -0.7812841534614563 0.3427370488643646 0.5216573476791382
vn -0.8445096015930176 0.4172598719596863 0.3357048034667969
vn -0.8445091247558594 -0.4172603487968445 0.33570578694343567
vn -0.8217171430587769 0.0 0.5698955655097961
vn -0.8217169642448425 -4.814415319742693e-07 0.5698958039283752
vn -0.795697033405304 0.20426738262176514 0.5702114105224609
vn -0.7622384428977966 0.21182449162006378 0.6116560697555542
vn -0.9257173538208008 -0.35336631536483765 0.13483183085918427
vn -0.8346637487411499 0.07193081080913544 0.5460425019264221
vn 0.2737017869949341 0.7270464897155762 0.6296751499176025
vn 0.2737017869949341 0.7270464897155762 0.6296751499176025
vn 0.2737017869949341 0.7270464897155762 0.6296751499176025
vn 0.4371609091758728 -0.007802787236869335 0.8993494510650635
vn 0.4371609091758728 -0.007802787236869335 0.8993494510650635
vn 0.4371609091758728 -0.007802787236869335 0.8993494510650635
vn 1.5430052371812053e-05 -1.4775277122680563e-05 -1.0
vn 2.087024404318072e-05 -5.492956461239373e-06 -1.0
vn 1.5121806427487172e-05 1.5076905583555344e-05 -1.0
vn 2.087024404318072e-05 5.268651420919923e-06 -1.0
vn 2.087024404318072e-05 5.268651420919923e-06 -1.0
vn -0.00021888701303396374 9.948201477527618e-05 -1.0
vn -1.5258385246852413e-05 -1.462437921873061e-05 -1.0
vn -2.0544361177599058e-05 -5.605187652690802e-06 -1.0
vn -0.00021900224965065718 -9.948208025889471e-05 -1.0
vn -1.5104262274689972e-05 1.4775194358662702e-05 -1.0
vn -2.0544361177599058e-05 5.4930396800045855e-06 -1.0
vn -2.0544361177599058e-05 5.4930396800045855e-06 -1.0
vn -0.26142704486846924 -0.572415828704834 -0.7771718502044678
vn -0.26142704486846924 -0.572415828704834 -0.7771718502044678
vn -0.26142704486846924 -0.572415828704834 -0.7771718502044678
vn -0.34786009788513184 0.011709120124578476 -0.9374733567237854
vn -0.34786009788513184 0.011709120124578476 -0.9374733567237854
vn -0.34786009788513184 0.011709120124578476 -0.9374733567237854
vn 0.8709861636161804 -0.14059095084667206 0.470762699842453
vn 0.8709861636161804 -0.14059095084667206 0.470762699842453
vn 0.9722918272018433 -0.04478854686021805 0.22944016754627228
vn 0.9722918272018433 -0.04478854686021805 0.22944016754627228
vn 0.9722918272018433 0.04478852450847626 0.22944019734859467
vn 0.9722918272018433 0.04478852450847626 0.22944019734859467
vn 0.8709861040115356 0.14059093594551086 0.47076281905174255
vn 0.8709861040115356 0.14059093594551086 0.47076281905174255
vn 0.8709861040115356 0.14059093594551086 0.47076281905174255
vn -0.1533174216747284 -0.8680214881896973 0.472263365983963
vn -0.16085107624530792 -0.8713955879211426 0.46346157789230347
vn -0.16085107624530792 -0.8713955879211426 0.46346157789230347
vn -0.16085107624530792 -0.8713955879211426 0.46346157789230347
vn -0.09792111068964005 -0.9480406641960144 0.3027050197124481
vn -0.09792111068964005 -0.9480406641960144 0.3027050197124481
vn 0.2076134830713272 -0.7542778253555298 -0.6228657960891724
vn 0.2076134830713272 -0.7542778253555298 -0.6228657960891724
vn 0.18967410922050476 -0.7648615837097168 -0.615638256072998
vn 0.18967410922050476 -0.7648615837097168 -0.615638256072998
vn -0.10792731493711472 0.9399527907371521 0.3237910568714142
vn -0.10792731493711472 0.9399527907371521 0.3237910568714142
vn -0.30102869868278503 0.22265514731407166 0.9272574782371521
vn -0.2795316278934479 0.23806750774383545 0.9301537275314331
vn -0.2795316278934479 0.23806750774383545 0.9301537275314331
vn -0.2795316278934479 0.23806750774383545 0.9301537275314331
vn -0.3008424937725067 -0.21117664873600006 0.929999053478241
vn -0.3008424937725067 -0.21117664873600006 0.929999053478241
vn -0.3008424937725067 -0.21117664873600006 0.929999053478241
vn -0.3018661439418793 -0.2104332149028778 0.929835855960846
vn -0.3018661439418793 -0.2104332149028778 0.929835855960846
vn -0.3018661439418793 -0.2104332149028778 0.929835855960846
vn 0.20761366188526154 0.7542772889137268 -0.6228662133216858
vn 0.20761366188526154 0.7542772889137268 -0.6228662133216858
vn 0.1896737813949585 0.7648615837097168 -0.6156385540962219
vn 0.1896737813949585 0.7648615837097168 -0.6156385540962219
vn -0.16085104644298553 0.8713958263397217 0.46346139907836914
vn -0.16085104644298553 0.8713958263397217 0.46346139907836914
vn -0.16085104644298553 0.8713958263397217 0.46346139907836914
vn -0.15331703424453735 0.8680214285850525 0.4722636044025421
vn -0.15331703424453735 0.8680214285850525 0.4722636044025421
vn -0.15331703424453735 0.8680214285850525 0.4722636044025421
vn 0.8217171430587769 0.0 0.5698955655097961
vn 0.8217171430587769 0.0 0.5698955655097961
vn 0.7822555899620056 -0.3415989875793457 0.5209475159645081
vn 0.7822555899620056 -0.3415989875793457 0.5209475159645081
vn 0.7822555899620056 -0.3415989875793457 0.5209475159645081
vn 0.7812841534614563 -0.3427371382713318 0.5216572880744934
vn 0.7812841534614563 -0.3427371382713318 0.5216572880744934
vn 0.7956972122192383 -0.20426705479621887 0.5702113509178162
vn 0.7956972122192383 -0.20426705479621887 0.5702113509178162
vn 0.7622384428977966 -0.21182414889335632 0.6116560101509094
vn 0.7622384428977966 -0.21182414889335632 0.6116560101509094
vn 0.8602327108383179 -0.28090688586235046 0.42554816603660583
vn 0.8602327108383179 -0.28090688586235046 0.42554816603660583
vn 0.8602327108383179 -0.28090688586235046 0.42554816603660583
vn 0.8445096611976624 -0.41725993156433105 0.3357049226760864
vn 0.8445096611976624 -0.41725993156433105 0.3357049226760864
vn 0.9257173538208008 0.35336631536483765 0.13483183085918427
vn 0.9257173538208008 0.35336631536483765 0.13483183085918427
vn 0.8346637487411499 -0.07193081080913544 0.5460425019264221
vn 0.8346637487411499 -0.07193081080913544 0.5460425019264221
vn 0.9951695799827576 0.07993309944868088 0.056993212550878525
vn 0.9951695799827576 0.07993309944868088 0.056993212550878525
vn 0.9951695799827576 0.07993309944868088 0.056993212550878525
vn 0.7759774327278137 0.30070987343788147 0.5544660687446594
vn 0.7759774327278137 0.30070987343788147 0.5544660687446594
vn 0.7723652720451355 -0.2786668837070465 0.5707859992980957
vn 0.7723652720451355 -0.2786668837070465 0.5707859992980957
vn 0.7723652720451355 -0.2786668837070465 0.5707859992980957
vn 0.868567943572998 -0.28096282482147217 0.40822747349739075
vn 0.868567943572998 -0.28096282482147217 0.40822747349739075
vn 0.868567943572998 -0.28096282482147217 0.40822747349739075
vn 0.7813121676445007 0.3430196940898895 0.5214295983314514
vn 0.7813121676445007 0.3430196940898895 0.5214295983314514
vn 0.7813121676445007 0.3430196940898895 0.5214295983314514
vn 0.7824352979660034 0.34093284606933594 0.5211139917373657
vn 0.7824352979660034 0.34093284606933594 0.5211139917373657
vn 0.7824352979660034 0.34093284606933594 0.5211139917373657
vn 0.9224868416786194 3.26112569837278e-07 0.38602858781814575
vn 0.9224868416786194 2.6066231839649845e-08 0.38602882623672485
vn 0.8274933099746704 -0.26872116327285767 0.4929946959018707
vn 0.8274933099746704 -0.26872116327285767 0.4929946959018707
vn 0.7204872965812683 -0.3072011470794678 0.621711790561676
vn 0.7204872965812683 -0.3072011470794678 0.621711790561676
vn 0.7204881310462952 0.3072018623352051 0.6217104196548462
vn 0.8274928331375122 0.2687222957611084 0.49299490451812744
vn 0.8274928331375122 0.2687222957611084 0.49299490451812744
vn 0.8274928331375122 0.2687222957611084 0.49299490451812744
vn 0.8602319955825806 0.28090476989746094 0.4255506992340088
vn 0.8602319955825806 0.28090476989746094 0.4255506992340088
vn 0.8602319955825806 0.28090476989746094 0.4255506992340088
vn 0.8445090055465698 0.41726022958755493 0.3357062041759491
vn 0.8445090055465698 0.41726022958755493 0.3357062041759491
vn -0.8709861040115356 0.14059115946292877 0.47076255083084106
vn -0.8709861040115356 0.14059115946292877 0.47076255083084106
vn -0.9722917079925537 0.04478886350989342 0.2294401228427887
vn -0.9722917079925537 0.04478886350989342 0.2294401228427887
vn -0.9722918272018433 -0.04478854686021805 0.22944019734859467
vn -0.9722918272018433 -0.04478854686021805 0.22944019734859467
vn -0.8709861040115356 -0.14059090614318848 0.47076261043548584
vn -0.8709861040115356 -0.14059090614318848 0.47076261043548584
vn -0.8709861040115356 -0.14059090614318848 0.47076261043548584
vn 0.15331746637821198 0.8680213093757629 0.47226348519325256
vn 0.1608511507511139 0.871395468711853 0.4634617865085602
vn 0.1608511507511139 0.871395468711853 0.4634617865085602
vn 0.1608511507511139 0.871395468711853 0.4634617865085602
vn 0.09792111068964005 0.9480406641960144 0.3027050197124481
vn 0.09792111068964005 0.9480406641960144 0.3027050197124481
vn -0.20761346817016602 0.7542776465415955 -0.6228658556938171
vn -0.20761346817016602 0.7542776465415955 -0.6228658556938171
vn -0.18967410922050476 0.7648616433143616 -0.6156383752822876
vn -0.18967410922050476 0.7648616433143616 -0.6156383752822876
vn 0.10792647302150726 -0.9399527907371521 0.3237913250923157
vn 0.10792647302150726 -0.9399527907371521 0.3237913250923157
vn 0.3010285198688507 -0.22265519201755524 0.9272575378417969
vn 0.27953144907951355 -0.2380675971508026 0.9301538467407227
vn 0.27953144907951355 -0.2380675971508026 0.9301538467407227
vn 0.27953144907951355 -0.2380675971508026 0.9301538467407227
vn 0.3008425235748291 0.2111765593290329 0.929999053478241
vn 0.3008425235748291 0.2111765593290329 0.929999053478241
vn 0.3008425235748291 0.2111765593290329 0.929999053478241
vn 0.3018661439418793 0.21043314039707184 0.929835855960846
vn 0.3018661439418793 0.21043314039707184 0.929835855960846
vn 0.3018661439418793 0.21043314039707184 0.929835855960846
vn -0.20761431753635406 -0.7542773485183716 -0.6228659152984619
vn -0.20761431753635406 -0.7542773485183716 -0.6228659152984619
vn -0.18967433273792267 -0.7648616433143616 -0.6156381368637085
vn -0.18967433273792267 -0.7648616433143616 -0.6156381368637085
vn 0.16085092723369598 -0.8713959455490112 0.4634609818458557
vn 0.16085092723369598 -0.8713959455490112 0.4634609818458557
vn 0.16085092723369598 -0.8713959455490112 0.4634609818458557
vn 0.1533164232969284 -0.8680213689804077 0.47226372361183167
vn 0.1533164232969284 -0.8680213689804077 0.47226372361183167
vn 0.1533164232969284 -0.8680213689804077 0.47226372361183167
vn -0.8217171430587769 0.0 0.5698955655097961
vn -0.8217171430587769 0.0 0.5698955655097961
vn -0.7822556495666504 0.34159886837005615 0.5209475755691528
vn -0.7822556495666504 0.34159886837005615 0.5209475755691528
vn -0.7822556495666504 0.34159886837005615 0.5209475755691528
vn -0.7812841534614563 0.3427370488643646 0.5216573476791382
vn -0.7812841534614563 0.3427370488643646 0.5216573476791382
vn -0.795697033405304 0.20426738262176514 0.5702114105224609
vn -0.795697033405304 0.20426738262176514 0.5702114105224609
vn -0.7622384428977966 0.21182449162006378 0.6116560697555542
vn -0.7622384428977966 0.21182449162006378 0.6116560697555542
vn -0.8602326512336731 0.28090736269950867 0.4255477488040924
vn -0.8602326512336731 0.28090736269950867 0.4255477488040924
vn -0.8602326512336731 0.28090736269950867 0.4255477488040924
vn -0.8445096015930176 0.4172598719596863 0.3357048034667969
vn -0.8445096015930176 0.4172598719596863 0.3357048034667969
vn -0.9257173538208008 -0.35336631536483765 0.13483183085918427
vn -0.9257173538208008 -0.35336631536483765 0.13483183085918427
vn -0.8346637487411499 0.07193081080913544 0.5460425019264221
vn -0.8346637487411499 0.07193081080913544 0.5460425019264221
vn -0.9951695799827576 -0.07993302494287491 0.056993454694747925
vn -0.9951695799827576 -0.07993302494287491 0.056993454694747925
vn -0.9951695799827576 -0.07993302494287491 0.056993454694747925
vn -0.7759774327278137 -0.3007097840309143 0.5544660687446594
vn -0.7759774327278137 -0.3007097840309143 0.5544660687446594
vn -0.772365391254425 0.2786670923233032 0.5707859396934509
vn -0.772365391254425 0.2786670923233032 0.5707859396934509
vn -0.772365391254425 0.2786670923233032 0.5707859396934509
vn -0.8685676455497742 0.2809630334377289 0.4082278907299042
vn -0.8685676455497742 0.2809630334377289 0.4082278907299042
vn -0.8685676455497742 0.2809630334377289 0.4082278907299042
vn -0.7813121676445007 -0.3430197238922119 0.5214295387268066
vn -0.7813121676445007 -0.3430197238922119 0.5214295387268066
vn -0.7813121676445007 -0.3430197238922119 0.5214295387268066
vn -0.7824352383613586 -0.3409329652786255 0.5211139917373657
vn -0.7824352383613586 -0.3409329652786255 0.5211139917373657
vn -0.7824352383613586 -0.3409329652786255 0.5211139917373657
vn -0.9224868416786194 -3.26112569837278e-07 0.38602858781814575
vn -0.9224867224693298 9.851388682591278e-08 0.38602885603904724
vn -0.82749342918396 0.26872122287750244 0.492994487285614
vn -0.82749342918396 0.26872122287750244 0.492994487285614
vn -0.7204872369766235 0.30720123648643494 0.621711790561676
vn -0.7204872369766235 0.30720123648643494 0.621711790561676
vn -0.7204882502555847 -0.3072017431259155 0.6217104196548462
vn -0.8274929523468018 -0.2687221169471741 0.4929947555065155
vn -0.8274929523468018 -0.2687221169471741 0.4929947555065155
vn -0.8274929523468018 -0.2687221169471741 0.4929947555065155
vn -0.8602322340011597 -0.2809049189090729 0.4255501925945282
vn -0.8602322340011597 -0.2809049189090729 0.4255501925945282
vn -0.8602322340011597 -0.2809049189090729 0.4255501925945282
vn -0.8445091247558594 -0.4172603487968445 0.33570578694343567
vn -0.8445091247558594 -0.4172603487968445 0.33570578694343567
f 422/422/422 207/207/207 423/423/423
f 419/419/419 420/420/420 421/421/421
f 416/416/416 417/417/417 418/418/418
f 202/202/202 203/203/203 415/415/415
f 413/413/413 200/200/200 414/414/414
f 201/201/201 411/411/411 412/412/412
f 409/409/409 410/410/410 198/198/198
f 198/198/198 199/199/199 409/409/409
f 406/406/406 407/407/407 408/408/408
f 403/403/403 404/404/404 405/405/405
f 400/400/400 401/401/401 402/402/402
f 397/397/397 398/398/398 399/399/399
f 395/395/395 204/204/204 396/396/396
f 392/392/392 393/393/393 394/394/394
f 390/390/390 213/213/213 391/391/391
f 212/212/212 388/388/388 389/389/389
f 386/386/386 206/206/206 387/387/387
f 383/383/383 384/384/384 385/385/385
f 381/381/381 211/211/211 382/382/382
f 210/210/210 379/379/379 380/380/380
f 377/377/377 205/205/205 378/378/378
f 374/374/374 375/375/375 376/376/376
f 373/373/373 209/209/209 208/208/208
f 208/208/208 372/372/372 373/373/373
f 369/369/369 370/370/370 371/371/371
f 366/366/366 367/367/367 368/368/368
f 364/364/364 197/197/197 365/365/365
f 196/196/196 362/362/362 363/363/363
f 359/359/359 360/360/360 361/361/361
f 356/356/356 357/357/357 358/358/358
f 353/353/353 354/354/354 355/355/355
f 352/352/352 194/194/194 195/195/195
f 350/350/350 191/191/191 351/351/351
f 192/192/192 193/193/193 190/190/190
f 348/348/348 189/189/189 349/349/349
f 346/346/346 347/347/347 188/188/188
f 344/344/344 185/185/185 345/345/345
f 186/186/186 187/187/187 184/184/184
f 341/341/341 342/342/342 343/343/343
f 340/340/340 182/182/182 183/183/183
f 178/178/178 179/179/179 180/180/180
f 180/180/180 181/181/181 178/178/178
f 337/337/337 338/338/338 339/339/339
f 335/335/335 336/336/336 177/177/177
f 333/333/333 334/334/334 176/176/176
f 331/331/331 332/332/332 175/175/175
f 172/172/172 173/173/173 174/174/174
f 329/329/329 165/165/165 330/330/330
f 326/326/326 327/327/327 328/328/328
f 323/323/323 324/324/324 325/325/325
f 160/160/160 161/161/161 322/322/322
f 320/320/320 158/158/158 321/321/321
f 159/159/159 318/318/318 319/319/319
f 316/316/316 317/317/317 156/156/156
f 156/156/156 157/157/157 316/316/316
f 313/313/313 314/314/314 315/315/315
f 310/310/310 311/311/311 312/312/312
f 307/307/307 308/308/308 309/309/309
f 304/304/304 305/305/305 306/306/306
f 302/302/302 162/162/162 303/303/303
f 299/299/299 300/300/300 301/301/301
f 297/297/297 171/171/171 298/298/298
f 170/170/170 295/295/295 296/296/296
f 293/293/293 164/164/164 294/294/294
f 290/290/290 291/291/291 292/292/292
f 288/288/288 169/169/169 289/289/289
f 168/168/168 286/286/286 287/287/287
f 284/284/284 163/163/163 285/285/285
f 281/281/281 282/282/282 283/283/283
f 280/280/280 167/167/167 166/166/166
f 166/166/166 279/279/279 280/280/280
f 276/276/276 277/277/277 278/278/278
f 273/273/273 274/274/274 275/275/275
f 271/271/271 155/155/155 272/272/272
f 154/154/154 269/269/269 270/270/270
f 266/266/266 267/267/267 268/268/268
f 263/263/263 264/264/264 265/265/265
f 260/260/260 261/261/261 262/262/262
f 259/259/259 152/152/152 153/153/153
f 257/257/257 149/149/149 258/258/258
f 150/150/150 151/151/151 148/148/148
f 255/255/255 147/147/147 256/256/256
f 253/253/253 254/254/254 146/146/146
f 251/251/251 143/143/143 252/252/252
f 144/144/144 145/145/145 142/142/142
f 248/248/248 249/249/249 250/250/250
f 247/247/247 140/140/140 141/141/141
f 136/136/136 137/137/137 138/138/138
f 138/138/138 139/139/139 136/136/136
f 244/244/244 245/245/245 246/246/246
f 242/242/242 243/243/243 135/135/135
f 240/240/240 241/241/241 134/134/134
f 238/238/238 239/239/239 133/133/133
f 130/130/130 131/131/131 132/132/132
f 112/112/112 124/124/124 118/118/118
f 118/118/118 124/124/124 117/117/117
f 117/117/117 124/124/124 103/103/103
f 118/118/118 116/116/116 109/109/109
f 109/109/109 112/112/112 118/118/118
f 117/117/117 115/115/115 116/116/116
f 116/116/116 118/118/118 117/117/117
f 102/102/102 115/115/115 117/117/117
f 117/117/117 103/103/103 102/102/102
f 116/116/116 114/114/114 106/106/106
f 106/106/106 109/109/109 116/116/116
f 115/115/115 113/113/113 114/114/114
f 114/114/114 116/116/116 115/115/115
f 122/122/122 113/113/113 115/115/115
f 115/115/115 102/102/102 122/122/122
f 114/114/114 129/129/129 127/127/127
f 127/127/127 106/106/106 114/114/114
f 113/113/113 128/128/128 129/129/129
f 129/129/129 114/114/114 113/113/113
f 123/123/123 128/128/128 113/113/113
f 113/113/113 122/122/122 123/123/123
f 112/112/112 111/111/111 124/124/124
f 111/111/111 110/110/110 124/124/124
f 110/110/110 101/101/101 124/124/124
f 111/111/111 112/112/112 109/109/109
f 109/109/109 108/108/108 111/111/111
f 110/110/110 111/111/111 108/108/108
f 108/108/108 107/107/107 110/110/110
f 101/101/101 110/110/110 107/107/107
f 107/107/107 121/121/121 101/101/101
f 108/108/108 109/109/109 106/106/106
f 106/106/106 105/105/105 108/108/108
f 107/107/107 108/108/108 105/105/105
f 105/105/105 104/104/104 107/107/107
f 121/121/121 107/107/107 104/104/104
f 104/104/104 119/119/119 121/121/121
f 105/105/105 106/106/106 127/127/127
f 127/127/127 126/126/126 105/105/105
f 104/104/104 105/105/105 126/126/126
f 126/126/126 125/125/125 104/104/104
f 119/119/119 104/104/104 125/125/125
f 125/125/125 120/120/120 119/119/119
f 92/92/92 100/100/100 124/124/124
f 100/100/100 99/99/99 124/124/124
f 99/99/99 103/103/103 124/124/124
f 100/100/100 92/92/92 89/89/89
f 89/89/89 98/98/98 100/100/100
f 99/99/99 100/100/100 98/98/98
f 98/98/98 97/97/97 99/99/99
f 102/102/102 103/103/103 99/99/99
f 99/99/99 97/97/97 102/102/102
f 98/98/98 89/89/89 86/86/86
f 86/86/86 96/96/96 98/98/98
f 97/97/97 98/98/98 96/96/96
f 96/96/96 95/95/95 97/97/97
f 122/122/122 102/102/102 97/97/97
f 97/97/97 95/95/95 122/122/122
f 96/96/96 86/86/86 83/83/83
f 83/83/83 94/94/94 96/96/96
f 95/95/95 96/96/96 94/94/94
f 94/94/94 93/93/93 95/95/95
f 123/123/123 122/122/122 95/95/95
f 95/95/95 93/93/93 123/123/123
f 92/92/92 124/124/124 91/91/91
f 91/91/91 124/124/124 90/90/90
f 90/90/90 124/124/124 101/101/101
f 91/91/91 88/88/88 89/89/89
f 89/89/89 92/92/92 91/91/91
f 90/90/90 87/87/87 88/88/88
f 88/88/88 91/91/91 90/90/90
f 101/101/101 121/121/121 87/87/87
f 87/87/87 90/90/90 101/101/101
f 88/88/88 85/85/85 86/86/86
f 86/86/86 89/89/89 88/88/88
f 87/87/87 84/84/84 85/85/85
f 85/85/85 88/88/88 87/87/87
f 121/121/121 119/119/119 84/84/84
f 84/84/84 87/87/87 121/121/121
f 85/85/85 82/82/82 83/83/83
f 83/83/83 86/86/86 85/85/85
f 84/84/84 81/81/81 82/82/82
f 82/82/82 85/85/85 84/84/84
f 119/119/119 120/120/120 81/81/81
f 81/81/81 84/84/84 119/119/119
f 62/62/62 68/68/68 72/72/72
f 68/68/68 67/67/67 72/72/72
f 67/67/67 44/44/44 72/72/72
f 68/68/68 62/62/62 59/59/59
f 59/59/59 66/66/66 68/68/68
f 67/67/67 68/68/68 66/66/66
f 66/66/66 65/65/65 67/67/67
f 43/43/43 44/44/44 67/67/67
f 67/67/67 65/65/65 43/43/43
f 66/66/66 59/59/59 56/56/56
f 56/56/56 64/64/64 66/66/66
f 65/65/65 66/66/66 64/64/64
f 64/64/64 63/63/63 65/65/65
f 71/71/71 43/43/43 65/65/65
f 65/65/65 63/63/63 71/71/71
f 64/64/64 56/56/56 78/78/78
f 78/78/78 80/80/80 64/64/64
f 63/63/63 64/64/64 80/80/80
f 80/80/80 79/79/79 63/63/63
f 73/73/73 71/71/71 63/63/63
f 63/63/63 79/79/79 73/73/73
f 62/62/62 72/72/72 61/61/61
f 61/61/61 72/72/72 60/60/60
f 60/60/60 72/72/72 42/42/42
f 61/61/61 58/58/58 59/59/59
f 59/59/59 62/62/62 61/61/61
f 60/60/60 57/57/57 58/58/58
f 58/58/58 61/61/61 60/60/60
f 42/42/42 70/70/70 57/57/57
f 57/57/57 60/60/60 42/42/42
f 58/58/58 55/55/55 56/56/56
f 56/56/56 59/59/59 58/58/58
f 57/57/57 54/54/54 55/55/55
f 55/55/55 58/58/58 57/57/57
f 70/70/70 69/69/69 54/54/54
f 54/54/54 57/57/57 70/70/70
f 55/55/55 77/77/77 78/78/78
f 78/78/78 56/56/56 55/55/55
f 54/54/54 76/76/76 77/77/77
f 77/77/77 55/55/55 54/54/54
f 69/69/69 75/75/75 76/76/76
f 76/76/76 54/54/54 69/69/69
f 235/235/235 236/236/236 237/237/237
f 232/232/232 233/233/233 234/234/234
f 53/53/53 45/45/45 49/49/49
f 47/47/47 45/45/45 53/53/53
f 53/53/53 49/49/49 52/52/52
f 52/52/52 51/51/51 53/53/53
f 47/47/47 53/53/53 51/51/51
f 51/51/51 50/50/50 47/47/47
f 48/48/48 49/49/49 45/45/45
f 47/47/47 48/48/48 45/45/45
f 48/48/48 46/46/46 52/52/52
f 52/52/52 49/49/49 48/48/48
f 47/47/47 50/50/50 46/46/46
f 46/46/46 48/48/48 47/47/47
f 33/33/33 72/72/72 41/41/41
f 41/41/41 72/72/72 40/40/40
f 40/40/40 72/72/72 44/44/44
f 41/41/41 39/39/39 30/30/30
f 30/30/30 33/33/33 41/41/41
f 40/40/40 38/38/38 39/39/39
f 39/39/39 41/41/41 40/40/40
f 43/43/43 38/38/38 40/40/40
f 40/40/40 44/44/44 43/43/43
f 39/39/39 37/37/37 27/27/27
f 27/27/27 30/30/30 39/39/39
f 38/38/38 36/36/36 37/37/37
f 37/37/37 39/39/39 38/38/38
f 71/71/71 36/36/36 38/38/38
f 38/38/38 43/43/43 71/71/71
f 37/37/37 35/35/35 24/24/24
f 24/24/24 27/27/27 37/37/37
f 36/36/36 34/34/34 35/35/35
f 35/35/35 37/37/37 36/36/36
f 73/73/73 34/34/34 36/36/36
f 36/36/36 71/71/71 73/73/73
f 33/33/33 32/32/32 72/72/72
f 32/32/32 31/31/31 72/72/72
f 31/31/31 42/42/42 72/72/72
f 32/32/32 33/33/33 30/30/30
f 30/30/30 29/29/29 32/32/32
f 31/31/31 32/32/32 29/29/29
f 29/29/29 28/28/28 31/31/31
f 42/42/42 31/31/31 28/28/28
f 28/28/28 70/70/70 42/42/42
f 29/29/29 30/30/30 27/27/27
f 27/27/27 26/26/26 29/29/29
f 28/28/28 29/29/29 26/26/26
f 26/26/26 25/25/25 28/28/28
f 70/70/70 28/28/28 25/25/25
f 25/25/25 69/69/69 70/70/70
f 26/26/26 27/27/27 24/24/24
f 24/24/24 23/23/23 26/26/26
f 25/25/25 26/26/26 23/23/23
f 23/23/23 74/74/74 25/25/25
f 69/69/69 25/25/25 74/74/74
f 74/74/74 75/75/75 69/69/69
f 230/230/230 231/231/231 22/22/22
f 19/19/19 229/229/229 22/22/22
f 18/18/18 228/228/228 22/22/22
f 227/227/227 17/17/17 22/22/22
f 226/226/226 16/16/16 22/22/22
f 225/225/225 15/15/15 22/22/22
f 223/223/223 224/224/224 22/22/22
f 222/222/222 5/5/5 22/22/22
f 21/21/21 4/4/4 22/22/22
f 3/3/3 221/221/221 22/22/22
f 2/2/2 220/220/220 22/22/22
f 1/1/1 20/20/20 22/22/22
f 217/217/217 218/218/218 219/219/219
f 214/214/214 215/215/215 216/216/216
f 14/14/14 10/10/10 6/6/6
f 8/8/8 14/14/14 6/6/6
f 14/14/14 12/12/12 13/13/13
f 13/13/13 10/10/10 14/14/14
f 8/8/8 11/11/11 12/12/12
f 12/12/12 14/14/14 8/8/8
f 9/9/9 6/6/6 10/10/10
f 8/8/8 6/6/6 9/9/9
f 9/9/9 10/10/10 13/13/13
f 13/13/13 7/7/7 9/9/9
f 8/8/8 9/9/9 7/7/7
f 7/7/7 11/11/11 8/8/8
