# Recovered local-space geometry; original node transforms not applied
o mesh_0
v 28.246562957763672 0.03895040974020958 0.4182615280151367
v 68.7601547241211 1.28901207447052 0.8482646942138672
v 51.17560577392578 1.9606542587280273 -0.10518074035644531
v 52.66307830810547 0.1963130235671997 1.4443531036376953
v 51.76006317138672 -1.5360280275344849 -0.21537113189697266
v 65.16436004638672 3.5859017372131348 -1.3228464126586914
v 66.22321319580078 1.5198606252670288 -4.374979019165039
v 67.41878509521484 -0.9958409070968628 -1.8704862594604492
v 52.150611877441406 0.2671748995780945 -1.850203514099121
v -40.08988952636719 -21.90213394165039 11.991683006286621
v -40.08988952636719 -12.645203590393066 21.113143920898438
v -40.089881896972656 5.303937996359309e-06 24.415584564208984
v -17.23906707763672 -33.200565338134766 18.445499420166016
v -30.004419326782227 -30.849184036254883 16.975000381469727
v -17.23906135559082 -19.168354034423828 32.24114990234375
v -30.00441551208496 -17.810779571533203 29.694181442260742
v -17.239055633544922 5.991674242977751e-06 37.25117492675781
v -30.004411697387695 5.554024028242566e-06 34.31018829345703
v -1.896077275276184 -29.594850540161133 16.58392333984375
v -1.896074652671814 -17.00620460510254 29.016813278198242
v -1.8960739374160767 2.8655999813054223e-06 33.52802276611328
v 14.149675369262695 -19.0132999420166 12.258861541748047
v 14.154118537902832 -10.5175199508667 20.808162689208984
v 14.155309677124023 -1.132487795985071e-06 23.899715423583984
v 30.473560333251953 -13.485983848571777 8.756324768066406
v 30.47357749938965 -7.709640026092529 15.040343284606934
v 30.473581314086914 -4.504598564381013e-06 17.08032989501953
v 38.96699905395508 -9.300622940063477 5.990561008453369
v 38.96699905395508 -5.369719505310059 9.667518615722656
v 38.96699905395508 -6.406488409993472e-06 10.828819274902344
v -40.08988952636719 21.902151107788086 11.991679191589355
v -40.089881896972656 12.645212173461914 21.113143920898438
v -17.239046096801758 33.20057678222656 18.445491790771484
v -30.004404067993164 30.849185943603516 16.975000381469727
v -17.23904800415039 19.168367385864258 32.24114227294922
v -30.00440788269043 17.8107852935791 29.694181442260742
v -1.896077275276184 29.594852447509766 16.58391571044922
v -1.896074652671814 17.006210327148438 29.01680564880371
v 14.149688720703125 19.01329803466797 12.258853912353516
v 14.15412712097168 10.517516136169434 20.808155059814453
v 30.473560333251953 13.485974311828613 8.75632095336914
v 30.47357749938965 7.709629058837891 15.040339469909668
v 38.96699905395508 9.300612449645996 5.990561008453369
v 38.96699905395508 5.369707107543945 9.66751480102539
v 14.14895248413086 -22.052587509155273 0.0
v -46.12096405029297 6.143938662717119e-06 0.0
v 14.14896011352539 22.052574157714844 0.0
v 41.696842193603516 -9.967350706574507e-06 0.0
v -29.92662811279297 -35.988670349121094 0.0
v -40.08988952636719 -21.90213394165039 -11.991683006286621
v -40.08988952636719 -12.645203590393066 -21.113143920898438
v -40.089881896972656 5.303937996359309e-06 -24.415584564208984
v -17.23906707763672 -33.200565338134766 -18.445499420166016
v -30.004419326782227 -30.849184036254883 -16.975000381469727
v -17.23906135559082 -19.168354034423828 -32.24114990234375
v -30.00441551208496 -17.810779571533203 -29.694181442260742
v -17.239055633544922 5.991674242977751e-06 -37.25117492675781
v -30.004411697387695 5.554024028242566e-06 -34.31018829345703
v -1.896077275276184 -29.594850540161133 -16.58392333984375
v -1.896074652671814 -17.00620460510254 -29.016813278198242
v -1.8960739374160767 2.8655999813054223e-06 -33.52802276611328
v 14.149675369262695 -19.0132999420166 -12.258861541748047
v 14.154118537902832 -10.5175199508667 -20.808162689208984
v 14.155309677124023 -1.132487795985071e-06 -23.899715423583984
v 30.473560333251953 -13.485983848571777 -8.756324768066406
v 30.47357749938965 -7.709640026092529 -15.040343284606934
v 30.473581314086914 -4.504598564381013e-06 -17.08032989501953
v 38.96699905395508 -9.300622940063477 -5.990561008453369
v 38.96699905395508 -5.369719505310059 -9.667518615722656
v 38.96699905395508 -6.406488409993472e-06 -10.828819274902344
v -40.08988952636719 21.902151107788086 -11.991679191589355
v -40.089881896972656 12.645212173461914 -21.113143920898438
v -17.239046096801758 33.20057678222656 -18.445491790771484
v -30.004404067993164 30.849185943603516 -16.975000381469727
v -17.23904800415039 19.168367385864258 -32.24114227294922
v -30.00440788269043 17.8107852935791 -29.694181442260742
v -1.896077275276184 29.594852447509766 -16.58391571044922
v -1.896074652671814 17.006210327148438 -29.01680564880371
v 14.149688720703125 19.01329803466797 -12.258853912353516
v 14.15412712097168 10.517516136169434 -20.808155059814453
v 30.473560333251953 13.485974311828613 -8.75632095336914
v 30.47357749938965 7.709629058837891 -15.040339469909668
v 38.96699905395508 9.300612449645996 -5.990561008453369
v 38.96699905395508 5.369707107543945 -9.66751480102539
v -1.900238037109375 -34.875308990478516 0.0
v -39.86971664428711 26.55133056640625 0.0
v -29.92662811279297 35.98869323730469 0.0
v -39.86972427368164 -26.551326751708984 0.0
v -17.874961853027344 -38.608985900878906 0.0
v 38.982154846191406 -11.116121292114258 0.0
v 30.480167388916016 -16.034772872924805 0.0
v 30.480167388916016 16.03474998474121 0.0
v 38.982154846191406 11.116100311279297 0.0
v -1.900238037109375 34.875301361083984 0.0
v -17.874961853027344 38.608978271484375 0.0
v 68.7601547241211 1.28901207447052 0.8482646942138672
v 66.22321319580078 1.5198606252670288 -4.374979019165039
v 65.16436004638672 3.5859017372131348 -1.3228464126586914
v 68.7601547241211 1.28901207447052 0.8482646942138672
v 67.41878509521484 -0.9958409070968628 -1.8704862594604492
v 66.22321319580078 1.5198606252670288 -4.374979019165039
vt 0.11960753053426743 0.28287798166275024
vt 0.11958998441696167 0.251292884349823
vt 0.1175641193985939 0.26708030700683594
vt 0.11959875375032425 0.2670854330062866
vt 0.1216333881020546 0.26708030700683594
vt 0.11552071571350098 0.2512826919555664
vt 0.11958998441696167 0.251292884349823
vt 0.12365923076868057 0.2512826919555664
vt 0.11959875375032425 0.2670854330062866
vt 0.08944682776927948 0.3576652407646179
vt 0.07931410521268845 0.35136979818344116
vt 0.06773916631937027 0.34850120544433594
vt 0.10152339190244675 0.3279472589492798
vt 0.09877276420593262 0.34289491176605225
vt 0.0837012231349945 0.32587385177612305
vt 0.0832369327545166 0.33784329891204834
vt 0.065735824406147 0.3251701593399048
vt 0.06693112105131149 0.33573997020721436
vt 0.09901130199432373 0.310264527797699
vt 0.08171826601028442 0.31119048595428467
vt 0.06451591104269028 0.3116573691368103
vt 0.090093694627285 0.28854167461395264
vt 0.07622400671243668 0.29149729013442993
vt 0.06322842836380005 0.2925724983215332
vt 0.08010710030794144 0.27110135555267334
vt 0.07131236791610718 0.27398228645324707
vt 0.06193460896611214 0.2748815417289734
vt 0.07193227857351303 0.261655330657959
vt 0.06695760786533356 0.26349520683288574
vt 0.061214759945869446 0.2638893723487854
vt 0.04379670321941376 0.35382014513015747
vt 0.05554274097084999 0.3491683602333069
vt 0.029568985104560852 0.32899338006973267
vt 0.034141089767217636 0.34183770418167114
vt 0.04771313816308975 0.326393187046051
vt 0.050406817346811295 0.3371095061302185
vt 0.030071891844272614 0.31202393770217896
vt 0.0473894402384758 0.31206756830215454
vt 0.036444175988435745 0.28990399837493896
vt 0.050240401178598404 0.2920553684234619
vt 0.043967634439468384 0.271422803401947
vt 0.052596189081668854 0.2740556001663208
vt 0.0510169118642807 0.26083827018737793
vt 0.055593401193618774 0.26296764612197876
vt 0.10338553041219711 0.2828086018562317
vt 0.0639934092760086 0.3741455078125
vt 0.023388829082250595 0.28449100255966187
vt 0.06207980588078499 0.25347065925598145
vt 0.11425952613353729 0.3518832325935364
vt 0.08944682776927948 0.3576652407646179
vt 0.07931410521268845 0.35136979818344116
vt 0.06773916631937027 0.34850120544433594
vt 0.10152339190244675 0.3279472589492798
vt 0.09877276420593262 0.34289491176605225
vt 0.0837012231349945 0.32587385177612305
vt 0.0832369327545166 0.33784329891204834
vt 0.065735824406147 0.3251701593399048
vt 0.06693112105131149 0.33573997020721436
vt 0.09902188181877136 0.31025952100753784
vt 0.08172771334648132 0.31118935346603394
vt 0.06452572345733643 0.3116569519042969
vt 0.090093694627285 0.28854167461395264
vt 0.07622400671243668 0.29149729013442993
vt 0.06322842836380005 0.2925724983215332
vt 0.08010710030794144 0.27110135555267334
vt 0.07131236791610718 0.27398228645324707
vt 0.06193460896611214 0.2748815417289734
vt 0.07193227857351303 0.261655330657959
vt 0.06695760786533356 0.26349520683288574
vt 0.061214759945869446 0.2638893723487854
vt 0.04379670321941376 0.35382014513015747
vt 0.05554274097084999 0.3491683602333069
vt 0.029568985104560852 0.32899338006973267
vt 0.034141089767217636 0.34183770418167114
vt 0.04771313816308975 0.326393187046051
vt 0.050406817346811295 0.3371095061302185
vt 0.030083507299423218 0.31202948093414307
vt 0.04739939048886299 0.31206780672073364
vt 0.036444175988435745 0.28990399837493896
vt 0.050240401178598404 0.2920553684234619
vt 0.043967634439468384 0.271422803401947
vt 0.052596189081668854 0.2740556001663208
vt 0.0510169118642807 0.26083827018737793
vt 0.055593401193618774 0.26296764612197876
vt 0.11679409444332123 0.3060598373413086
vt 0.033783670514822006 0.36319416761398315
vt 0.01756826788187027 0.34994369745254517
vt 0.0972529724240303 0.3684613108634949
vt 0.12078283727169037 0.3312634229660034
vt 0.07582798600196838 0.25760626792907715
vt 0.08793864399194717 0.26562178134918213
vt 0.03640137240290642 0.26611149311065674
vt 0.047710008919239044 0.2565886974334717
vt 0.0122227743268013 0.30746930837631226
vt 0.009872183203697205 0.33148902654647827
vt 0.11958998441696167 0.251292884349823
vt 0.11958998441696167 0.251292884349823
vt 0.11552071571350098 0.2512826919555664
vt 0.11958998441696167 0.251292884349823
vt 0.12365923076868057 0.2512826919555664
vt 0.11958998441696167 0.251292884349823
vn -0.9858452081680298 -0.05139259994029999 0.15958765149116516
vn 0.020860567688941956 0.2497369945049286 0.9680889844894409
vn -0.11464642733335495 0.9919710755348206 0.053381431847810745
vn 0.02588869072496891 -0.24126963317394257 0.9701127409934998
vn -0.01787670888006687 -0.9995046257972717 -0.025906268507242203
vn -0.10619817674160004 0.9892659187316895 0.10037384927272797
vn -0.1806710660457611 0.33323240280151367 -0.9253724217414856
vn 0.019977964460849762 -0.9988337755203247 -0.04395453631877899
vn -0.11934835463762283 -0.18794694542884827 -0.9749010801315308
vn -0.8200196027755737 -0.48604851961135864 0.30219972133636475
vn -0.8413122296333313 -0.23156172037124634 0.48843929171562195
vn -0.8397620916366577 0.03808172419667244 0.5416174530982971
vn 0.0641050785779953 -0.8795059323310852 0.47155049443244934
vn -0.39586278796195984 -0.7856020331382751 0.4755229651927948
vn 0.014752903021872044 -0.5683562159538269 0.8226503133773804
vn -0.484711229801178 -0.4198329448699951 0.7673299908638
vn 0.04108501225709915 -0.037077657878398895 0.9984674453735352
vn -0.48188215494155884 0.011341449804604053 0.8761626482009888
vn 0.429554283618927 -0.7701159119606018 0.47159796953201294
vn 0.40128859877586365 -0.44902268052101135 0.7983396053314209
vn 0.43029096722602844 1.7834062759902736e-07 0.9026902318000793
vn 0.4706062376499176 -0.7671220898628235 0.43595123291015625
vn 0.4518141746520996 -0.4604690670967102 0.7640891075134277
vn 0.4259941875934601 1.9021103980776388e-07 0.9047259092330933
vn 0.4359557330608368 -0.7789889574050903 0.450687050819397
vn 0.4642517864704132 -0.4504046142101288 0.7626309394836426
vn 0.5217769145965576 2.528660445477726e-07 0.853082001209259
vn 0.7593557238578796 -0.5338408946990967 0.37201181054115295
vn 0.7833878397941589 -0.25398433208465576 0.5672701597213745
vn 0.8313937783241272 1.9353645086539473e-07 0.5556837320327759
vn -0.8444382548332214 0.43218812346458435 0.31644538044929504
vn -0.8715172410011292 0.24182374775409698 0.4265899360179901
vn -0.025623418390750885 0.882634162902832 0.46936190128326416
vn -0.47949710488319397 0.7411389350891113 0.46988892555236816
vn -0.020281760022044182 0.5257094502449036 0.8504223823547363
vn -0.5644078254699707 0.4056042432785034 0.7189778685569763
vn 0.36140206456184387 0.7970560789108276 0.48382866382598877
vn 0.4012887179851532 0.4490227997303009 0.7983394861221313
vn 0.516986608505249 0.7394060492515564 0.43128132820129395
vn 0.45181435346603394 0.46046918630599976 0.7640891075134277
vn 0.4101085662841797 0.7948514819145203 0.4472382962703705
vn 0.46425187587738037 0.45040473341941833 0.762630820274353
vn 0.7197739481925964 0.5970646739006042 0.35417401790618896
vn 0.7833878397941589 0.2539844214916229 0.5672701597213745
vn 0.5244764089584351 -0.8514251112937927 0.0
vn -1.0 1.0371132930231397e-07 -1.2803867965871518e-09
vn 0.45056283473968506 0.8927448391914368 0.0
vn 1.0 -1.2818391903479665e-09 -6.40919584071753e-09
vn -0.5613729953765869 -0.8275629281997681 2.6595543545226974e-09
vn -0.8200196027755737 -0.48604851961135864 -0.30219972133636475
vn -0.8413122296333313 -0.23156172037124634 -0.48843929171562195
vn -0.8397620916366577 0.03808172419667244 -0.5416173934936523
vn 0.0641050785779953 -0.8795060515403748 -0.47155049443244934
vn -0.39586278796195984 -0.7856020331382751 -0.4755229651927948
vn 0.014752903021872044 -0.5683562159538269 -0.8226503133773804
vn -0.484711229801178 -0.4198329448699951 -0.7673299908638
vn 0.04108501970767975 -0.0370776541531086 -0.9984674453735352
vn -0.48188215494155884 0.011341449804604053 -0.8761626482009888
vn 0.429554283618927 -0.7701159119606018 -0.47159796953201294
vn 0.40128856897354126 -0.44902268052101135 -0.7983396053314209
vn 0.43029093742370605 1.7834062759902736e-07 -0.9026902914047241
vn 0.4706062376499176 -0.7671220898628235 -0.43595120310783386
vn 0.4518141448497772 -0.460469126701355 -0.7640891075134277
vn 0.4259941577911377 1.927814707869402e-07 -0.9047259092330933
vn 0.4359557032585144 -0.7789889574050903 -0.450687050819397
vn 0.4642517864704132 -0.4504046142101288 -0.7626309394836426
vn 0.5217769145965576 2.528660445477726e-07 -0.853082001209259
vn 0.7593558430671692 -0.5338408946990967 -0.37201187014579773
vn 0.7833878397941589 -0.25398433208465576 -0.5672702193260193
vn 0.8313937783241272 1.9353645086539473e-07 -0.5556837320327759
vn -0.8444382548332214 0.43218812346458435 -0.31644538044929504
vn -0.8715172410011292 0.24182374775409698 -0.4265899360179901
vn -0.025623416528105736 0.8826341032981873 -0.4693617820739746
vn -0.47949716448783875 0.7411389946937561 -0.46988895535469055
vn -0.020281754434108734 0.5257094502449036 -0.8504223823547363
vn -0.5644077658653259 0.40560421347618103 -0.7189778089523315
vn 0.3614020347595215 0.7970560789108276 -0.48382866382598877
vn 0.4012886583805084 0.4490227699279785 -0.7983394861221313
vn 0.516986608505249 0.7394059896469116 -0.4312813878059387
vn 0.4518142342567444 0.460469126701355 -0.764089047908783
vn 0.4101085662841797 0.7948514819145203 -0.44723832607269287
vn 0.46425187587738037 0.4504048228263855 -0.7626309394836426
vn 0.7197739481925964 0.5970646739006042 -0.35417404770851135
vn 0.7833878397941589 0.2539844214916229 -0.5672701597213745
vn 0.3804944157600403 -0.9247832298278809 5.262688951290784e-09
vn -0.8268202543258667 0.5624664425849915 0.0
vn -0.38626351952552795 0.92238849401474 0.0
vn -0.8695353269577026 -0.49387097358703613 0.0
vn -0.06725624948740005 -0.9977357387542725 0.0
vn 0.7141852378845215 -0.6999567747116089 -5.46573275528317e-09
vn 0.4073762893676758 -0.9132604002952576 5.137018366241364e-09
vn 0.4527460038661957 0.8916395306587219 0.0
vn 0.8042759299278259 0.5942560434341431 -4.124096175672776e-09
vn 0.4949372708797455 0.8689287304878235 2.6167792377407295e-09
vn 0.09407197684049606 0.9955654144287109 0.0
vn 0.6296750903129578 0.7270464897155762 -0.27370181679725647
vn 0.6296750903129578 0.7270464897155762 -0.27370181679725647
vn 0.6296750903129578 0.7270464897155762 -0.27370181679725647
vn 0.8993494510650635 -0.007802804931998253 -0.4371609389781952
vn 0.8993494510650635 -0.007802804931998253 -0.4371609389781952
vn 0.8993494510650635 -0.007802804931998253 -0.4371609389781952
f 70/70/70 84/84/84 48/48/48
f 84/84/84 83/83/83 48/48/48
f 83/83/83 93/93/93 48/48/48
f 84/84/84 70/70/70 67/67/67
f 67/67/67 82/82/82 84/84/84
f 83/83/83 84/84/84 82/82/82
f 82/82/82 81/81/81 83/83/83
f 92/92/92 93/93/93 83/83/83
f 83/83/83 81/81/81 92/92/92
f 82/82/82 67/67/67 64/64/64
f 64/64/64 80/80/80 82/82/82
f 81/81/81 82/82/82 80/80/80
f 80/80/80 79/79/79 81/81/81
f 47/47/47 92/92/92 81/81/81
f 81/81/81 79/79/79 47/47/47
f 80/80/80 64/64/64 61/61/61
f 61/61/61 78/78/78 80/80/80
f 79/79/79 80/80/80 78/78/78
f 78/78/78 77/77/77 79/79/79
f 94/94/94 47/47/47 79/79/79
f 79/79/79 77/77/77 94/94/94
f 78/78/78 61/61/61 57/57/57
f 57/57/57 75/75/75 78/78/78
f 77/77/77 78/78/78 75/75/75
f 75/75/75 73/73/73 77/77/77
f 95/95/95 94/94/94 77/77/77
f 77/77/77 73/73/73 95/95/95
f 76/76/76 58/58/58 52/52/52
f 52/52/52 72/72/72 76/76/76
f 76/76/76 72/72/72 71/71/71
f 71/71/71 74/74/74 76/76/76
f 74/74/74 71/71/71 86/86/86
f 86/86/86 87/87/87 74/74/74
f 75/75/75 57/57/57 58/58/58
f 58/58/58 76/76/76 75/75/75
f 75/75/75 76/76/76 74/74/74
f 74/74/74 73/73/73 75/75/75
f 73/73/73 74/74/74 87/87/87
f 87/87/87 95/95/95 73/73/73
f 46/46/46 72/72/72 52/52/52
f 46/46/46 71/71/71 72/72/72
f 46/46/46 86/86/86 71/71/71
f 70/70/70 48/48/48 69/69/69
f 69/69/69 48/48/48 68/68/68
f 68/68/68 48/48/48 90/90/90
f 69/69/69 66/66/66 67/67/67
f 67/67/67 70/70/70 69/69/69
f 68/68/68 65/65/65 66/66/66
f 66/66/66 69/69/69 68/68/68
f 90/90/90 91/91/91 65/65/65
f 65/65/65 68/68/68 90/90/90
f 66/66/66 63/63/63 64/64/64
f 64/64/64 67/67/67 66/66/66
f 65/65/65 62/62/62 63/63/63
f 63/63/63 66/66/66 65/65/65
f 91/91/91 45/45/45 62/62/62
f 62/62/62 65/65/65 91/91/91
f 63/63/63 60/60/60 61/61/61
f 61/61/61 64/64/64 63/63/63
f 62/62/62 59/59/59 60/60/60
f 60/60/60 63/63/63 62/62/62
f 45/45/45 85/85/85 59/59/59
f 59/59/59 62/62/62 45/45/45
f 60/60/60 55/55/55 57/57/57
f 57/57/57 61/61/61 60/60/60
f 59/59/59 53/53/53 55/55/55
f 55/55/55 60/60/60 59/59/59
f 85/85/85 89/89/89 53/53/53
f 53/53/53 59/59/59 85/85/85
f 58/58/58 56/56/56 51/51/51
f 51/51/51 52/52/52 58/58/58
f 56/56/56 54/54/54 50/50/50
f 50/50/50 51/51/51 56/56/56
f 50/50/50 54/54/54 49/49/49
f 49/49/49 88/88/88 50/50/50
f 57/57/57 55/55/55 56/56/56
f 56/56/56 58/58/58 57/57/57
f 55/55/55 53/53/53 54/54/54
f 54/54/54 56/56/56 55/55/55
f 54/54/54 53/53/53 89/89/89
f 89/89/89 49/49/49 54/54/54
f 46/46/46 52/52/52 51/51/51
f 46/46/46 51/51/51 50/50/50
f 46/46/46 50/50/50 88/88/88
f 30/30/30 48/48/48 44/44/44
f 44/44/44 48/48/48 43/43/43
f 43/43/43 48/48/48 93/93/93
f 44/44/44 42/42/42 27/27/27
f 27/27/27 30/30/30 44/44/44
f 43/43/43 41/41/41 42/42/42
f 42/42/42 44/44/44 43/43/43
f 92/92/92 41/41/41 43/43/43
f 43/43/43 93/93/93 92/92/92
f 42/42/42 40/40/40 24/24/24
f 24/24/24 27/27/27 42/42/42
f 41/41/41 39/39/39 40/40/40
f 40/40/40 42/42/42 41/41/41
f 47/47/47 39/39/39 41/41/41
f 41/41/41 92/92/92 47/47/47
f 40/40/40 38/38/38 21/21/21
f 21/21/21 24/24/24 40/40/40
f 39/39/39 37/37/37 38/38/38
f 38/38/38 40/40/40 39/39/39
f 94/94/94 37/37/37 39/39/39
f 39/39/39 47/47/47 94/94/94
f 38/38/38 35/35/35 17/17/17
f 17/17/17 21/21/21 38/38/38
f 37/37/37 33/33/33 35/35/35
f 35/35/35 38/38/38 37/37/37
f 95/95/95 33/33/33 37/37/37
f 37/37/37 94/94/94 95/95/95
f 36/36/36 32/32/32 12/12/12
f 12/12/12 18/18/18 36/36/36
f 36/36/36 34/34/34 31/31/31
f 31/31/31 32/32/32 36/36/36
f 34/34/34 87/87/87 86/86/86
f 86/86/86 31/31/31 34/34/34
f 35/35/35 36/36/36 18/18/18
f 18/18/18 17/17/17 35/35/35
f 35/35/35 33/33/33 34/34/34
f 34/34/34 36/36/36 35/35/35
f 33/33/33 95/95/95 87/87/87
f 87/87/87 34/34/34 33/33/33
f 46/46/46 12/12/12 32/32/32
f 46/46/46 32/32/32 31/31/31
f 46/46/46 31/31/31 86/86/86
f 30/30/30 29/29/29 48/48/48
f 29/29/29 28/28/28 48/48/48
f 28/28/28 90/90/90 48/48/48
f 29/29/29 30/30/30 27/27/27
f 27/27/27 26/26/26 29/29/29
f 28/28/28 29/29/29 26/26/26
f 26/26/26 25/25/25 28/28/28
f 90/90/90 28/28/28 25/25/25
f 25/25/25 91/91/91 90/90/90
f 26/26/26 27/27/27 24/24/24
f 24/24/24 23/23/23 26/26/26
f 25/25/25 26/26/26 23/23/23
f 23/23/23 22/22/22 25/25/25
f 91/91/91 25/25/25 22/22/22
f 22/22/22 45/45/45 91/91/91
f 23/23/23 24/24/24 21/21/21
f 21/21/21 20/20/20 23/23/23
f 22/22/22 23/23/23 20/20/20
f 20/20/20 19/19/19 22/22/22
f 45/45/45 22/22/22 19/19/19
f 19/19/19 85/85/85 45/45/45
f 20/20/20 21/21/21 17/17/17
f 17/17/17 15/15/15 20/20/20
f 19/19/19 20/20/20 15/15/15
f 15/15/15 13/13/13 19/19/19
f 85/85/85 19/19/19 13/13/13
f 13/13/13 89/89/89 85/85/85
f 18/18/18 12/12/12 11/11/11
f 11/11/11 16/16/16 18/18/18
f 16/16/16 11/11/11 10/10/10
f 10/10/10 14/14/14 16/16/16
f 10/10/10 88/88/88 49/49/49
f 49/49/49 14/14/14 10/10/10
f 17/17/17 18/18/18 16/16/16
f 16/16/16 15/15/15 17/17/17
f 15/15/15 16/16/16 14/14/14
f 14/14/14 13/13/13 15/15/15
f 14/14/14 49/49/49 89/89/89
f 89/89/89 13/13/13 14/14/14
f 46/46/46 11/11/11 12/12/12
f 46/46/46 10/10/10 11/11/11
f 46/46/46 88/88/88 10/10/10
f 99/99/99 100/100/100 101/101/101
f 96/96/96 97/97/97 98/98/98
f 9/9/9 5/5/5 1/1/1
f 3/3/3 9/9/9 1/1/1
f 9/9/9 7/7/7 8/8/8
f 8/8/8 5/5/5 9/9/9
f 3/3/3 6/6/6 7/7/7
f 7/7/7 9/9/9 3/3/3
f 4/4/4 1/1/1 5/5/5
f 3/3/3 1/1/1 4/4/4
f 4/4/4 5/5/5 8/8/8
f 8/8/8 2/2/2 4/4/4
f 3/3/3 4/4/4 2/2/2
f 2/2/2 6/6/6 3/3/3
