# Recovered local-space geometry; original node transforms not applied
o mesh_0
v 6.036706963641336e-06 -1.0804534156250156e-07 -50.53801727294922
v 7.4053791649930645e-06 30.377357482910156 -41.47371292114258
v 15.188693046569824 26.307559967041016 -41.47371292114258
v 26.307575225830078 15.188678741455078 -41.47371292114258
v 30.377361297607422 4.483881639316678e-06 -41.47371292114258
v 26.307575225830078 -15.188668251037598 -41.47371292114258
v 15.188693046569824 -26.307552337646484 -41.47371292114258
v 2.2099546185927466e-05 -30.377349853515625 -41.47371292114258
v -15.188647270202637 -26.30756950378418 -41.47371292114258
v -26.307546615600586 -15.18869400024414 -41.47371292114258
v -30.377349853515625 -2.3769975086906925e-05 -41.47371292114258
v -26.30756187438965 15.188652992248535 -41.47371292114258
v -15.188693046569824 26.30754280090332 -41.47371292114258
v 1.108439846575493e-05 38.66045379638672 -23.170024871826172
v 19.33024024963379 33.480934143066406 -23.170028686523438
v 33.48093795776367 19.330223083496094 -23.17003059387207
v 38.66045379638672 4.317067123338347e-06 -23.17003059387207
v 33.48094177246094 -19.330215454101562 -23.17003059387207
v 19.33024787902832 -33.48092269897461 -23.170028686523438
v 3.261330857640132e-05 -38.66044616699219 -23.170024871826172
v -19.330196380615234 -33.480934143066406 -23.17002296447754
v -33.480899810791016 -19.33024787902832 -23.170019149780273
v -38.66043472290039 -3.158252366119996e-05 -23.170019149780273
v -33.480934143066406 19.330190658569336 -23.170019149780273
v -19.330242156982422 33.48091125488281 -23.17002296447754
v 1.456438531022286e-05 42.24932098388672 -2.1991609922000777e-12
v 21.124675750732422 36.58898162841797 -3.189737299180706e-06
v 36.58899688720703 21.12466049194336 -5.524785137822619e-06
v 42.24933624267578 4.511271527007921e-06 -6.379472324624658e-06
v 36.58900833129883 -21.124652862548828 -5.524786502064671e-06
v 21.12468719482422 -36.5889778137207 -3.1897391181701096e-06
v 3.605350502766669e-05 -42.24932098388672 -5.443927860587783e-12
v -21.12462615966797 -36.58899688720703 3.1897297958494164e-06
v -36.58895492553711 -21.12468719482422 5.524778771359706e-06
v -42.249305725097656 -3.4773187508108094e-05 6.3794682318985e-06
v -36.5889892578125 21.1246280670166 5.524783773580566e-06
v -21.124679565429688 36.588966369628906 3.1897379813017324e-06
v 1.456438531022286e-05 -9.69578559306683e-06 -2.1991609922000777e-12
v 5.838357537868433e-06 -1.5471582059944922e-07 -56.53801727294922
v 5.581358891504351e-06 34.53867721557617 -45.796142578125
v 17.269351959228516 29.911367416381836 -45.796146392822266
v 29.91138458251953 17.269338607788086 -45.796142578125
v 34.53868103027344 4.442237241164548e-06 -45.796146392822266
v 29.91138458251953 -17.26932716369629 -45.796146392822266
v 17.269351959228516 -29.911359786987305 -45.796146392822266
v 2.385693551332224e-05 -34.53866958618164 -45.796146392822266
v -17.269304275512695 -29.911380767822266 -45.796142578125
v -29.911354064941406 -17.269357681274414 -45.796142578125
v -34.53866958618164 -2.5952136638807133e-05 -45.796142578125
v -29.911373138427734 17.269311904907227 -45.796142578125
v -17.26935577392578 29.91135025024414 -45.796146392822266
v 9.0548919615685e-06 44.421539306640625 -24.84630012512207
v 22.210783004760742 38.47018051147461 -24.846303939819336
v 38.470184326171875 22.210765838623047 -24.84630584716797
v 44.421539306640625 5.195509402255993e-06 -24.84630584716797
v 38.47018814086914 -22.210756301879883 -24.84630584716797
v 22.210792541503906 -38.47016906738281 -24.84630584716797
v 3.5430384741630405e-05 -44.421531677246094 -24.846302032470703
v -22.210737228393555 -38.47018051147461 -24.84630012512207
v -38.47014236450195 -22.21079444885254 -24.846296310424805
v -44.4215202331543 -3.7519585021073e-05 -24.846296310424805
v -38.470184326171875 22.21072769165039 -24.846296310424805
v -22.210790634155273 38.47015380859375 -24.84630012512207
v 6.661390443696291e-07 48.246517181396484 -0.18345403671264648
v -41.7827033996582 -24.123268127441406 -0.18345579504966736
v -24.123252868652344 -41.78271484375 -0.1834549903869629
v -1.2111615887988592e-07 -48.246517181396484 -0.18345406651496887
v 24.123252868652344 -41.78271484375 -0.183453768491745
v 41.7827033996582 -24.123268127441406 -0.18345408141613007
v 48.246517181396484 -1.616044573893305e-05 -0.18345478177070618
v 41.782718658447266 24.123239517211914 -0.18345417082309723
v 24.123275756835938 41.78269577026367 -0.18345285952091217
v -48.246517181396484 -1.667519063630607e-05 -0.18345531821250916
v -41.782718658447266 24.123241424560547 -0.18345434963703156
v -24.123275756835938 41.78269577026367 -0.18345534801483154
v 21.124675750732422 36.58898162841797 -3.189737299180706e-06
v 1.456438531022286e-05 42.24932098388672 -2.1991609922000777e-12
v 36.58899688720703 21.12466049194336 -5.524785137822619e-06
v 42.24933624267578 4.511271527007921e-06 -6.379472324624658e-06
v 36.58900833129883 -21.124652862548828 -5.524786502064671e-06
v 21.12468719482422 -36.5889778137207 -3.1897391181701096e-06
v 3.605350502766669e-05 -42.24932098388672 -5.443927860587783e-12
v -21.12462615966797 -36.58899688720703 3.1897297958494164e-06
v -36.58895492553711 -21.12468719482422 5.524778771359706e-06
v -42.249305725097656 -3.4773187508108094e-05 6.3794682318985e-06
v -36.5889892578125 21.1246280670166 5.524783773580566e-06
v -21.124679565429688 36.588966369628906 3.1897379813017324e-06
vt 0.06281403452157974 0.7556564211845398
vt 0.0889466181397438 0.7822869420051575
vt 0.06293199211359024 0.7822751402854919
vt 0.03691748529672623 0.7822869420051575
vt 0.06293199211359024 0.7822751402854919
vt 0.0889466181397438 0.7822869420051575
vt 0.06293199211359024 0.7822751402854919
vt 0.03691748529672623 0.7822869420051575
vt 0.06293199211359024 0.7822751402854919
vt 0.0889466181397438 0.7822869420051575
vt 0.06293199211359024 0.7822751402854919
vt 0.03691748529672623 0.7822869420051575
vt 0.06293199211359024 0.7822751402854919
vt 0.11114457994699478 0.8160285949707031
vt 0.06293199211359024 0.8159565329551697
vt 0.014719495549798012 0.8160285949707031
vt 0.06293199211359024 0.8159565329551697
vt 0.11114457994699478 0.8160285949707031
vt 0.06293199211359024 0.8159565329551697
vt 0.014719495549798012 0.8160285949707031
vt 0.06293199211359024 0.8159565329551697
vt 0.11114457994699478 0.8160285949707031
vt 0.06293199211359024 0.8159565329551697
vt 0.014719495549798012 0.8160285949707031
vt 0.06293199211359024 0.8159565329551697
vt 0.12342724949121475 0.8743701577186584
vt 0.06293199211359024 0.8743287324905396
vt 0.0024367659352719784 0.8743700385093689
vt 0.06293199211359024 0.8743287324905396
vt 0.12342724949121475 0.8743701577186584
vt 0.06293199211359024 0.8743287324905396
vt 0.0024367659352719784 0.8743700385093689
vt 0.06293199211359024 0.8743287324905396
vt 0.12342724949121475 0.8743701577186584
vt 0.06293199211359024 0.8743287324905396
vt 0.0024367659352719784 0.8743700385093689
vt 0.06293199211359024 0.8743287324905396
vt 0.312604159116745 0.1274232268333435
vt 0.47654083371162415 0.5629571080207825
vt 0.477155476808548 0.563583493232727
vt 0.4765435755252838 0.5635831952095032
vt 0.47593173384666443 0.563583493232727
vt 0.4765435755252838 0.5635831952095032
vt 0.477155476808548 0.563583493232727
vt 0.4765435755252838 0.5635831952095032
vt 0.47593173384666443 0.563583493232727
vt 0.4765435755252838 0.5635831952095032
vt 0.477155476808548 0.563583493232727
vt 0.4765435755252838 0.5635831952095032
vt 0.47593173384666443 0.563583493232727
vt 0.4765435755252838 0.5635831952095032
vt 0.4776775538921356 0.5643770694732666
vt 0.4765435755252838 0.5643754005432129
vt 0.475409597158432 0.5643770694732666
vt 0.4765435755252838 0.5643754005432129
vt 0.4776775538921356 0.5643770694732666
vt 0.4765435755252838 0.5643754005432129
vt 0.475409597158432 0.5643770694732666
vt 0.4765435755252838 0.5643754005432129
vt 0.4776775538921356 0.5643770694732666
vt 0.4765435755252838 0.5643754005432129
vt 0.475409597158432 0.5643770694732666
vt 0.4765435755252838 0.5643754005432129
vt 0.47796645760536194 0.5657492876052856
vt 0.47796645760536194 0.5657492876052856
vt 0.4765435755252838 0.5657483339309692
vt 0.4751207232475281 0.5657492876052856
vt 0.4765435755252838 0.5657483339309692
vt 0.47796645760536194 0.5657492876052856
vt 0.4765435755252838 0.5657483339309692
vt 0.4751207232475281 0.5657492876052856
vt 0.4765435755252838 0.5657483339309692
vt 0.4765435755252838 0.5657483339309692
vt 0.4751207232475281 0.5657492876052856
vt 0.4765435755252838 0.5657483339309692
vt 0.31260406970977783 0.24956828355789185
vt 0.3729088604450226 0.23916703462600708
vt 0.2532152235507965 0.2394723892211914
vt 0.31260406970977783 0.24956828355789185
vt 0.3729088604450226 0.23916703462600708
vt 0.31260406970977783 0.24956828355789185
vt 0.2532152235507965 0.2394723892211914
vt 0.31260406970977783 0.24956828355789185
vt 0.3729088604450226 0.23916703462600708
vt 0.31260406970977783 0.24956828355789185
vt 0.2532152235507965 0.2394723892211914
vt 0.31260406970977783 0.24956828355789185
vn 3.8989913520026676e-09 -7.927948786345951e-08 -1.0
vn 0.052835021167993546 0.718585193157196 -0.6934289932250977
vn 0.4050493538379669 0.5958953499794006 -0.6934289932250977
vn 0.6487308144569397 0.3135358393192291 -0.6934288740158081
vn 0.7185852527618408 -0.05283521115779877 -0.6934289336204529
vn 0.595895528793335 -0.40504905581474304 -0.6934289932250977
vn 0.31353604793548584 -0.6487305760383606 -0.6934290528297424
vn -0.05283493176102638 -0.7185853123664856 -0.6934289336204529
vn -0.4050489664077759 -0.5958959460258484 -0.6934288144111633
vn -0.6487305760383606 -0.3135366141796112 -0.6934287548065186
vn -0.7185854911804199 0.05283482372760773 -0.6934286952018738
vn -0.5958958268165588 0.40504884719848633 -0.6934288740158081
vn -0.31353655457496643 0.648730456829071 -0.6934289336204529
vn 0.0032659482676535845 0.9583377242088318 -0.2856188416481018
vn 0.48199769854545593 0.828311562538147 -0.28561899065971375
vn 0.8315780162811279 0.47633999586105347 -0.2856190502643585
vn 0.958337664604187 -0.0032662886660546064 -0.2856191098690033
vn 0.8283117413520813 -0.4819972813129425 -0.2856191098690033
vn 0.4763403832912445 -0.8315777778625488 -0.2856190800666809
vn -0.003266007173806429 -0.958337664604187 -0.2856190800666809
vn -0.48199722170829773 -0.8283119797706604 -0.28561893105506897
vn -0.8315776586532593 -0.47634077072143555 -0.28561872243881226
vn -0.9583377838134766 0.0032655128743499517 -0.2856186330318451
vn -0.82831209897995 0.4819968640804291 -0.2856188118457794
vn -0.4763409197330475 0.8315776586532593 -0.2856189012527466
vn -0.08792245388031006 0.9843887090682983 -0.15247470140457153
vn 0.41605162620544434 0.8964667320251465 -0.1524745672941208
vn 0.8085446357727051 0.5683370232582092 -0.15247486531734467
vn 0.9843886494636536 0.08792220056056976 -0.15247516334056854
vn 0.8964666724205017 -0.4160514175891876 -0.1524752825498581
vn 0.5683373212814331 -0.808544397354126 -0.1524749994277954
vn 0.08792246878147125 -0.9843886494636536 -0.15247491002082825
vn -0.4160512089729309 -0.896466851234436 -0.15247493982315063
vn -0.8085442185401917 -0.568337619304657 -0.15247489511966705
vn -0.9843886494636536 -0.08792290091514587 -0.15247482061386108
vn -0.8964670300483704 0.41605085134506226 -0.15247483551502228
vn -0.5683377385139465 0.8085441589355469 -0.15247488021850586
vn 1.5099581673894136e-07 0.0 1.0
vn 4.174541956558642e-08 5.7399951458592113e-08 1.0
vn -0.05215782672166824 -0.715091347694397 0.69708251953125
vn -0.40271589159965515 -0.5932081937789917 0.6970824599266052
vn -0.645366370677948 -0.3123754858970642 0.6970823407173157
vn -0.7150914669036865 0.052157942205667496 0.6970824003219604
vn -0.5932084321975708 0.4027157425880432 0.6970824599266052
vn -0.31237560510635376 0.6453661918640137 0.6970824599266052
vn 0.05215774476528168 0.7150914669036865 0.6970824003219604
vn 0.4027155339717865 0.5932087302207947 0.6970822215080261
vn 0.6453662514686584 0.3123762309551239 0.6970822215080261
vn 0.7150915861129761 -0.052157558500766754 0.6970822215080261
vn 0.5932087302207947 -0.40271538496017456 0.6970822811126709
vn 0.31237608194351196 -0.6453660726547241 0.6970823407173157
vn -0.003551123896613717 -0.9560045003890991 0.293330579996109
vn -0.4810780882835388 -0.8261483311653137 0.293330579996109
vn -0.8296999931335449 -0.4749264419078827 0.29333049058914185
vn -0.9560045003890991 0.0035514964256435633 0.2933305501937866
vn -0.8261486887931824 0.4810777008533478 0.293330579996109
vn -0.47492676973342896 0.8296997547149658 0.29333069920539856
vn 0.0035511802416294813 0.9560043811798096 0.2933308482170105
vn 0.4810774624347687 0.8261485695838928 0.2933308780193329
vn 0.8296994566917419 0.4749271869659424 0.2933307886123657
vn 0.9560044407844543 -0.003550685942173004 0.29333075881004333
vn 0.8261487483978271 -0.4810772240161896 0.2933307886123657
vn 0.47492730617523193 -0.8296994566917419 0.29333072900772095
vn 0.08791971951723099 -0.9843594431877136 0.1526651829481125
vn 0.8085203766822815 0.5683204531669617 0.1526658982038498
vn 0.41603901982307434 0.8964400291442871 0.15266570448875427
vn -0.08791954070329666 0.9843594431877136 0.15266528725624084
vn -0.5683203339576721 0.8085206151008606 0.15266509354114532
vn -0.8964400291442871 0.4160393178462982 0.15266503393650055
vn -0.9843595027923584 -0.08791925013065338 0.15266498923301697
vn -0.8085209131240845 -0.5683199763298035 0.15266484022140503
vn -0.41603949666023254 -0.8964399695396423 0.15266470611095428
vn 0.9843593835830688 0.08791998028755188 0.152665913105011
vn 0.8964401483535767 -0.41603875160217285 0.15266579389572144
vn 0.568320631980896 -0.8085203170776367 0.15266557037830353
vn 1.5099581673894136e-07 0.0 1.0
vn 1.5099581673894136e-07 0.0 1.0
vn 1.5099581673894136e-07 -8.152310952496376e-15 1.0
vn 1.5099580252808664e-07 1.2228466428744564e-14 1.0
vn 1.5099580252808664e-07 4.0761563232811354e-15 1.0
vn 1.5099580252808664e-07 -8.152312646562271e-15 1.0
vn 1.5099581673894136e-07 0.0 1.0
vn 1.5099580252808664e-07 -7.7746511903403e-21 1.0
vn 1.5099581673894136e-07 -8.152314340628165e-15 1.0
vn 1.5099580252808664e-07 -8.152310952496376e-15 1.0
vn 1.5099583094979607e-07 2.0380778228273888e-14 1.0
vn 1.5099580252808664e-07 0.0 1.0
f 63/63/63 52/52/52 64/64/64
f 64/64/64 75/75/75 63/63/63
f 62/62/62 63/63/63 75/75/75
f 75/75/75 74/74/74 62/62/62
f 61/61/61 62/62/62 74/74/74
f 74/74/74 73/73/73 61/61/61
f 60/60/60 61/61/61 73/73/73
f 73/73/73 65/65/65 60/60/60
f 59/59/59 60/60/60 65/65/65
f 65/65/65 66/66/66 59/59/59
f 58/58/58 59/59/59 66/66/66
f 66/66/66 67/67/67 58/58/58
f 57/57/57 58/58/58 67/67/67
f 67/67/67 68/68/68 57/57/57
f 56/56/56 57/57/57 68/68/68
f 68/68/68 69/69/69 56/56/56
f 55/55/55 56/56/56 69/69/69
f 69/69/69 70/70/70 55/55/55
f 54/54/54 55/55/55 70/70/70
f 70/70/70 71/71/71 54/54/54
f 53/53/53 54/54/54 71/71/71
f 71/71/71 72/72/72 53/53/53
f 52/52/52 53/53/53 72/72/72
f 72/72/72 64/64/64 52/52/52
f 51/51/51 40/40/40 52/52/52
f 52/52/52 63/63/63 51/51/51
f 50/50/50 51/51/51 63/63/63
f 63/63/63 62/62/62 50/50/50
f 49/49/49 50/50/50 62/62/62
f 62/62/62 61/61/61 49/49/49
f 48/48/48 49/49/49 61/61/61
f 61/61/61 60/60/60 48/48/48
f 47/47/47 48/48/48 60/60/60
f 60/60/60 59/59/59 47/47/47
f 46/46/46 47/47/47 59/59/59
f 59/59/59 58/58/58 46/46/46
f 45/45/45 46/46/46 58/58/58
f 58/58/58 57/57/57 45/45/45
f 44/44/44 45/45/45 57/57/57
f 57/57/57 56/56/56 44/44/44
f 43/43/43 44/44/44 56/56/56
f 56/56/56 55/55/55 43/43/43
f 42/42/42 43/43/43 55/55/55
f 55/55/55 54/54/54 42/42/42
f 41/41/41 42/42/42 54/54/54
f 54/54/54 53/53/53 41/41/41
f 40/40/40 41/41/41 53/53/53
f 53/53/53 52/52/52 40/40/40
f 39/39/39 40/40/40 51/51/51
f 39/39/39 51/51/51 50/50/50
f 39/39/39 50/50/50 49/49/49
f 39/39/39 49/49/49 48/48/48
f 39/39/39 48/48/48 47/47/47
f 39/39/39 47/47/47 46/46/46
f 39/39/39 46/46/46 45/45/45
f 39/39/39 45/45/45 44/44/44
f 39/39/39 44/44/44 43/43/43
f 39/39/39 43/43/43 42/42/42
f 39/39/39 42/42/42 41/41/41
f 39/39/39 41/41/41 40/40/40
f 77/77/77 87/87/87 38/38/38
f 87/87/87 86/86/86 38/38/38
f 86/86/86 85/85/85 38/38/38
f 85/85/85 84/84/84 38/38/38
f 84/84/84 83/83/83 38/38/38
f 83/83/83 82/82/82 38/38/38
f 82/82/82 81/81/81 38/38/38
f 81/81/81 80/80/80 38/38/38
f 80/80/80 79/79/79 38/38/38
f 79/79/79 78/78/78 38/38/38
f 78/78/78 76/76/76 38/38/38
f 76/76/76 77/77/77 38/38/38
f 25/25/25 37/37/37 26/26/26
f 26/26/26 14/14/14 25/25/25
f 24/24/24 36/36/36 37/37/37
f 37/37/37 25/25/25 24/24/24
f 23/23/23 35/35/35 36/36/36
f 36/36/36 24/24/24 23/23/23
f 22/22/22 34/34/34 35/35/35
f 35/35/35 23/23/23 22/22/22
f 21/21/21 33/33/33 34/34/34
f 34/34/34 22/22/22 21/21/21
f 20/20/20 32/32/32 33/33/33
f 33/33/33 21/21/21 20/20/20
f 19/19/19 31/31/31 32/32/32
f 32/32/32 20/20/20 19/19/19
f 18/18/18 30/30/30 31/31/31
f 31/31/31 19/19/19 18/18/18
f 17/17/17 29/29/29 30/30/30
f 30/30/30 18/18/18 17/17/17
f 16/16/16 28/28/28 29/29/29
f 29/29/29 17/17/17 16/16/16
f 15/15/15 27/27/27 28/28/28
f 28/28/28 16/16/16 15/15/15
f 14/14/14 26/26/26 27/27/27
f 27/27/27 15/15/15 14/14/14
f 13/13/13 25/25/25 14/14/14
f 14/14/14 2/2/2 13/13/13
f 12/12/12 24/24/24 25/25/25
f 25/25/25 13/13/13 12/12/12
f 11/11/11 23/23/23 24/24/24
f 24/24/24 12/12/12 11/11/11
f 10/10/10 22/22/22 23/23/23
f 23/23/23 11/11/11 10/10/10
f 9/9/9 21/21/21 22/22/22
f 22/22/22 10/10/10 9/9/9
f 8/8/8 20/20/20 21/21/21
f 21/21/21 9/9/9 8/8/8
f 7/7/7 19/19/19 20/20/20
f 20/20/20 8/8/8 7/7/7
f 6/6/6 18/18/18 19/19/19
f 19/19/19 7/7/7 6/6/6
f 5/5/5 17/17/17 18/18/18
f 18/18/18 6/6/6 5/5/5
f 4/4/4 16/16/16 17/17/17
f 17/17/17 5/5/5 4/4/4
f 3/3/3 15/15/15 16/16/16
f 16/16/16 4/4/4 3/3/3
f 2/2/2 14/14/14 15/15/15
f 15/15/15 3/3/3 2/2/2
f 1/1/1 13/13/13 2/2/2
f 1/1/1 12/12/12 13/13/13
f 1/1/1 11/11/11 12/12/12
f 1/1/1 10/10/10 11/11/11
f 1/1/1 9/9/9 10/10/10
f 1/1/1 8/8/8 9/9/9
f 1/1/1 7/7/7 8/8/8
f 1/1/1 6/6/6 7/7/7
f 1/1/1 5/5/5 6/6/6
f 1/1/1 4/4/4 5/5/5
f 1/1/1 3/3/3 4/4/4
f 1/1/1 2/2/2 3/3/3
