# Recovered local-space geometry; original node transforms not applied
o mesh_0
v -1.3667735402123071e-05 -1.0804534156250156e-07 50.53801727294922
v -1.3667735402123071e-05 30.377357482910156 41.47371292114258
v -15.188699722290039 26.307559967041016 41.47371292114258
v -26.307580947875977 15.188678741455078 41.47371292114258
v -30.37736701965332 4.483881639316678e-06 41.47371292114258
v -26.307580947875977 -15.188668251037598 41.47371292114258
v -15.188699722290039 -26.307552337646484 41.47371292114258
v -2.8361902877804823e-05 -30.377349853515625 41.47371292114258
v 15.188640594482422 -26.30756950378418 41.47371292114258
v 26.307540893554688 -15.18869400024414 41.47371292114258
v 30.377344131469727 -2.3769975086906925e-05 41.47371292114258
v 26.30755615234375 15.188652992248535 41.47371292114258
v 15.188685417175293 26.30754280090332 41.47371292114258
v -1.4456086319114547e-05 40.128211975097656 23.170024871826172
v -20.064125061035156 34.75204849243164 23.170024871826172
v -34.75205612182617 20.064102172851562 23.170024871826172
v -40.12822341918945 4.754431756737176e-06 23.170024871826172
v -34.75206756591797 -20.06409454345703 23.170024871826172
v -20.064136505126953 -34.752037048339844 23.170024871826172
v -3.6802346585318446e-05 -40.128204345703125 23.170024871826172
v 20.064069747924805 -34.752052307128906 23.170024871826172
v 34.75201416015625 -20.064130783081055 23.170024871826172
v 40.12819290161133 -3.250810186727904e-05 23.170024871826172
v 34.75204849243164 20.064069747924805 23.170024871826172
v 20.064117431640625 34.75202560424805 23.170024871826172
v 0.0 42.24932098388672 -1.0995804961000388e-12
v -36.58898162841797 -21.124670028686523 2.762389385679853e-06
v -21.124656677246094 -36.5889892578125 1.5948648979247082e-06
v 0.0 -42.24932098388672 -2.7219639302938914e-12
v 21.124656677246094 -36.5889892578125 -1.5948695590850548e-06
v 36.58898162841797 -21.124670028686523 -2.7623932510323357e-06
v 42.24932098388672 -1.5130957763176411e-05 -3.189736162312329e-06
v 36.588993072509766 21.124645233154297 -2.7623925689113094e-06
v 21.124677658081055 36.58897399902344 -1.594868649590353e-06
v 6.036706963641336e-06 -1.0804534156250156e-07 -50.53801727294922
v 7.4053791649930645e-06 30.377357482910156 -41.47371292114258
v 15.188693046569824 26.307559967041016 -41.47371292114258
v 26.307575225830078 15.188678741455078 -41.47371292114258
v 30.377361297607422 4.483881639316678e-06 -41.47371292114258
v 26.307575225830078 -15.188668251037598 -41.47371292114258
v 15.188693046569824 -26.307552337646484 -41.47371292114258
v 2.2099546185927466e-05 -30.377349853515625 -41.47371292114258
v -15.188647270202637 -26.30756950378418 -41.47371292114258
v -26.307546615600586 -15.18869400024414 -41.47371292114258
v -30.377349853515625 -2.3769975086906925e-05 -41.47371292114258
v -26.30756187438965 15.188652992248535 -41.47371292114258
v -15.188693046569824 26.30754280090332 -41.47371292114258
v 1.108439846575493e-05 38.66045379638672 -23.170024871826172
v 19.33024024963379 33.480934143066406 -23.170028686523438
v 33.48093795776367 19.330223083496094 -23.17003059387207
v 38.66045379638672 4.317067123338347e-06 -23.17003059387207
v 33.48094177246094 -19.330215454101562 -23.17003059387207
v 19.33024787902832 -33.48092269897461 -23.170028686523438
v 3.261330857640132e-05 -38.66044616699219 -23.170024871826172
v -19.330196380615234 -33.480934143066406 -23.17002296447754
v -33.480899810791016 -19.33024787902832 -23.170019149780273
v -38.66043472290039 -3.158252366119996e-05 -23.170019149780273
v -33.480934143066406 19.330190658569336 -23.170019149780273
v -19.330242156982422 33.48091125488281 -23.17002296447754
v -42.24932098388672 -1.5130957763176411e-05 3.18973411594925e-06
v -36.588993072509766 21.124645233154297 2.762391886790283e-06
v -21.124677658081055 36.58897399902344 1.5948689906508662e-06
v -13.674745559692383 -49.62153625488281 81.6097412109375
v -15.751014709472656 -21.41732406616211 64.43106079101562
v 2.2254579067230225 -26.234100341796875 64.43106079101562
v -12.18661880493164 -7.503617763519287 47.377994537353516
v 7.086069583892822 -12.667722702026367 47.377994537353516
v 48.0775260925293 -17.297088623046875 81.6097412109375
v 19.799673080444336 -16.907297134399414 64.43106079101562
v 26.164878845214844 0.5809601545333862 64.43106079101562
v 6.3811845779418945 -12.912527084350586 47.377994537353516
v 13.205365180969238 5.836743354797363 47.377994537353516
v 21.258150100708008 47.03745651245117 81.6097412109375
v 18.405261993408203 18.901185989379883 64.43106079101562
v 1.5383148193359375 26.76637077331543 64.43106079101562
v 13.387802124023438 5.113204479217529 47.377994537353516
v -4.695353031158447 13.545524597167969 47.377994537353516
v -48.9506950378418 17.769250869750977 81.6097412109375
v -20.672840118408203 17.379453659057617 64.43106079101562
v -27.038047790527344 -0.10880422592163086 64.43106079101562
v -6.2838311195373535 12.759587287902832 47.377994537353516
v -13.108012199401855 -5.989680290222168 47.377994537353516
v -19.5565185546875 41.225067138671875 97.28453826904297
v -1.7777438163757324 20.29219627380371 76.10675048828125
v -14.75000286102295 14.243133544921875 76.10675048828125
v 4.21773624420166 11.763364791870117 46.5236930847168
v -11.708247184753418 4.336963176727295 46.5236930847168
v 42.39328384399414 15.729104042053223 97.28453826904297
v 20.301712036132812 -0.13212978839874268 76.10675048828125
v 15.406275749206543 13.317978858947754 76.10675048828125
v 11.706518173217773 -5.249053955078125 46.5236930847168
v 5.696415424346924 11.263579368591309 46.5236930847168
v 21.570144653320312 -39.42049026489258 97.38822937011719
v 3.439110279083252 -19.18549156188965 76.3277587890625
v 16.407123565673828 -13.136570930480957 75.92813873291016
v -2.8764095306396484 -11.472061157226562 46.88522720336914
v 13.044355392456055 -4.045833587646484 46.16923522949219
v -37.72405242919922 -25.100133895874023 97.38822937011719
v -18.864259719848633 -5.2263994216918945 76.3277587890625
v -11.708124160766602 -17.617862701416016 75.92813873291016
v -11.352804183959961 1.8738058805465698 46.88522720336914
v -2.5672497749328613 -13.339137077331543 46.16923522949219
v 19.08551597595215 41.49009704589844 110.52976989746094
v 14.47797966003418 14.41537094116211 89.35198211669922
v 1.5057222843170166 20.464441299438477 89.35198211669922
v 10.673553466796875 3.8294477462768555 45.55693435668945
v -3.720534324645996 10.541526794433594 45.55693435668945
v 39.37503433227539 -22.354694366455078 110.52976989746094
v 13.024436950683594 -15.626974105834961 89.35198211669922
v 20.181095123291016 -3.231288433074951 89.35198211669922
v 3.2455086708068848 -11.239005088806152 45.55693435668945
v 11.18657398223877 2.5153145790100098 45.55693435668945
v -16.256860733032227 -41.852718353271484 110.63346862792969
v -12.410355567932129 -14.956734657287598 89.57299041748047
v 0.5590626001358032 -21.00263786315918 89.17337036132812
v -9.535135269165039 -4.757678031921387 45.88369369506836
v 4.855798244476318 -11.466248512268066 45.236568450927734
v -43.40040969848633 12.774219512939453 110.63346862792969
v -16.05339813232422 11.101369857788086 89.57299041748047
v -20.94593620300293 -2.345628261566162 89.17337036132812
v -5.2194294929504395 8.864439010620117 45.88369369506836
v -10.648216247558594 -6.056424140930176 45.236568450927734
v -2.795163631439209 31.706418991088867 124.2863998413086
v 3.9448885917663574 13.526676177978516 92.15235137939453
v -6.121526718139648 12.645981788635254 92.15235137939453
v 5.862941741943359 6.4209794998168945 47.264583587646484
v -6.495549201965332 5.339755535125732 47.264583587646484
v 32.14621353149414 -0.16595011949539185 124.2863998413086
v 13.660806655883789 -5.354122638702393 92.15235137939453
v 13.660810470581055 4.750746250152588 92.15235137939453
v 6.723217964172363 -6.673315048217773 47.264583587646484
v 6.723221302032471 5.732381343841553 47.264583587646484
v 5.0157790184021 -31.72435188293457 124.44375610351562
v -2.1264638900756836 -13.92253303527832 92.48768615722656
v 7.937097549438477 -13.040907859802246 91.88133239746094
v -4.45371675491333 -7.2804951667785645 47.81315994262695
v 7.90126895904541 -6.198129653930664 46.726749420166016
v -30.862308502197266 -7.90712308883667 124.44375610351562
v -13.55201244354248 0.7232867479324341 92.48768615722656
v -11.796645164489746 -9.225142478942871 91.88133239746094
v -6.85449743270874 3.619868755340576 47.81315994262695
v -4.699440956115723 -8.593767166137695 46.726749420166016
v -13.674745559692383 -49.62153625488281 81.6097412109375
v 2.2254581451416016 -26.234100341796875 64.43106079101562
v -15.751014709472656 -21.41732406616211 64.43106079101562
v 7.0860700607299805 -12.667722702026367 47.37799835205078
v -12.18661880493164 -7.503618240356445 47.37799835205078
v 48.0775260925293 -17.297088623046875 81.6097412109375
v 26.164878845214844 0.5809593200683594 64.43106079101562
v 19.799671173095703 -16.907297134399414 64.43106079101562
v 13.205365180969238 5.836742401123047 47.37799835205078
v 6.3811845779418945 -12.912527084350586 47.37799835205078
v 21.258148193359375 47.037452697753906 81.6097412109375
v 1.5383148193359375 26.766372680664062 64.43106079101562
v 18.405261993408203 18.90118408203125 64.43106079101562
v -4.695353031158447 13.545524597167969 47.37799835205078
v 13.387803077697754 5.1132049560546875 47.37799835205078
v -48.9506950378418 17.769248962402344 81.6097412109375
v -27.038047790527344 -0.10880470275878906 64.43106079101562
v -20.672840118408203 17.37945556640625 64.43106079101562
v -13.108012199401855 -5.989681243896484 47.37799835205078
v -6.2838311195373535 12.759586334228516 47.37799835205078
v -19.5565185546875 41.225067138671875 97.2845458984375
v -14.75000286102295 14.243133544921875 76.10675048828125
v -1.7777438163757324 20.292198181152344 76.10675048828125
v -11.708247184753418 4.336963653564453 46.52369689941406
v 4.21773624420166 11.76336669921875 46.52369689941406
v 42.39328384399414 15.729103088378906 97.2845458984375
v 15.406275749206543 13.317977905273438 76.10675048828125
v 20.301712036132812 -0.13212966918945312 76.10675048828125
v 5.696415901184082 11.263580322265625 46.52369689941406
v 11.706517219543457 -5.249053955078125 46.52369689941406
v 21.570144653320312 -39.42049026489258 97.38822937011719
v 16.407123565673828 -13.136570930480957 75.92814636230469
v 3.43911075592041 -19.18549156188965 76.3277587890625
v 13.044354438781738 -4.045833587646484 46.16923522949219
v -2.8764095306396484 -11.472061157226562 46.885231018066406
v -37.72405242919922 -25.100133895874023 97.38822937011719
v -11.708124160766602 -17.617862701416016 75.92814636230469
v -18.864259719848633 -5.226398468017578 76.3277587890625
v -2.5672497749328613 -13.339137077331543 46.16923522949219
v -11.352804183959961 1.8738059997558594 46.885231018066406
v 19.085514068603516 41.49009704589844 110.52976989746094
v 1.5057220458984375 20.464439392089844 89.35198974609375
v 14.477978706359863 14.41537094116211 89.35198974609375
v -3.720534324645996 10.541526794433594 45.55693817138672
v 10.673554420471191 3.829448699951172 45.55693817138672
v 39.37503433227539 -22.354694366455078 110.52976989746094
v 20.181095123291016 -3.2312889099121094 89.35198974609375
v 13.02443790435791 -15.626974105834961 89.35198974609375
v 11.18657398223877 2.5153141021728516 45.55693817138672
v 3.245509147644043 -11.239005088806152 45.55693817138672
v -16.256860733032227 -41.852718353271484 110.63346862792969
v 0.5590624809265137 -21.00263786315918 89.17337036132812
v -12.410355567932129 -14.956734657287598 89.572998046875
v 4.85579776763916 -11.466248512268066 45.236572265625
v -9.535135269165039 -4.757678985595703 45.883697509765625
v -43.40040969848633 12.774219512939453 110.63346862792969
v -20.94593620300293 -2.3456287384033203 89.17337036132812
v -16.05339813232422 11.101371765136719 89.572998046875
v -10.648216247558594 -6.056423187255859 45.236572265625
v -5.2194294929504395 8.86444091796875 45.883697509765625
v -2.795163631439209 31.7064208984375 124.28639221191406
v -6.121526718139648 12.645980834960938 92.15235900878906
v 3.944888114929199 13.526676177978516 92.15235900878906
v -6.495549201965332 5.339756011962891 47.26458740234375
v 5.862941741943359 6.420978546142578 47.26458740234375
v 32.14621353149414 -0.16595077514648438 124.28639221191406
v 13.660809516906738 4.75074577331543 92.15235900878906
v 13.660805702209473 -5.354122161865234 92.15235900878906
v 6.723221778869629 5.732381820678711 47.26458740234375
v 6.723217964172363 -6.673315048217773 47.26458740234375
v 5.015778541564941 -31.72435188293457 124.44377136230469
v 7.937097549438477 -13.040907859802246 91.88133239746094
v -2.1264638900756836 -13.92253303527832 92.48768615722656
v 7.90126895904541 -6.198129653930664 46.72675323486328
v -4.45371675491333 -7.280494689941406 47.81316375732422
v -30.862308502197266 -7.907123565673828 124.44377136230469
v -11.796645164489746 -9.225142478942871 91.88133239746094
v -13.55201244354248 0.7232875823974609 92.48768615722656
v -4.699440956115723 -8.593767166137695 46.72675323486328
v -6.85449743270874 3.6198692321777344 47.81316375732422
v -1.3570504961535335e-05 -1.7027265641900158e-07 56.53801727294922
v -1.191235969599802e-05 34.38870620727539 45.935672760009766
v -17.194374084472656 29.781490325927734 45.935672760009766
v -29.781513214111328 17.194353103637695 45.935672760009766
v -34.38871383666992 4.4430589696276e-06 45.935672760009766
v -29.781511306762695 -17.1943416595459 45.935672760009766
v -17.194374084472656 -29.78148078918457 45.935672760009766
v -3.0247911126934923e-05 -34.38869857788086 45.935672760009766
v 17.194311141967773 -29.78150177001953 45.935672760009766
v 29.781469345092773 -17.194372177124023 45.935672760009766
v 34.388694763183594 -2.5876426661852747e-05 45.935672760009766
v 29.78148651123047 17.194324493408203 45.935672760009766
v 17.19436264038086 29.781471252441406 45.935672760009766
v -1.3528705494536553e-05 45.892120361328125 24.836565017700195
v -22.946081161499023 39.74374008178711 24.836563110351562
v -39.74374771118164 22.946056365966797 24.836563110351562
v -45.89213180541992 6.392803697963245e-06 24.836563110351562
v -39.74375915527344 -22.946046829223633 24.836563110351562
v -22.946094512939453 -39.74372863769531 24.836565017700195
v -3.980087785748765e-05 -45.892112731933594 24.836566925048828
v 22.946022033691406 -39.743743896484375 24.836566925048828
v 39.74370193481445 -22.946090698242188 24.836566925048828
v 45.8921012878418 -3.726865179487504e-05 24.836566925048828
v 39.743743896484375 22.946020126342773 24.836566925048828
v 22.946077346801758 39.74371337890625 24.836566925048828
v 6.661390443696291e-07 48.246517181396484 -0.18345403671264648
v -41.7827033996582 -24.123268127441406 -0.18345579504966736
v -24.123252868652344 -41.78271484375 -0.1834549903869629
v -1.2111615887988592e-07 -48.246517181396484 -0.18345406651496887
v 24.123252868652344 -41.78271484375 -0.183453768491745
v 41.7827033996582 -24.123268127441406 -0.18345408141613007
v 48.246517181396484 -1.616044573893305e-05 -0.18345478177070618
v 41.782718658447266 24.123239517211914 -0.18345417082309723
v 24.123275756835938 41.78269577026367 -0.18345285952091217
v 5.838357537868433e-06 -1.5471582059944922e-07 -56.53801727294922
v 5.581358891504351e-06 34.53867721557617 -45.796142578125
v 17.269351959228516 29.911367416381836 -45.796146392822266
v 29.91138458251953 17.269338607788086 -45.796142578125
v 34.53868103027344 4.442237241164548e-06 -45.796146392822266
v 29.91138458251953 -17.26932716369629 -45.796146392822266
v 17.269351959228516 -29.911359786987305 -45.796146392822266
v 2.385693551332224e-05 -34.53866958618164 -45.796146392822266
v -17.269304275512695 -29.911380767822266 -45.796142578125
v -29.911354064941406 -17.269357681274414 -45.796142578125
v -34.53866958618164 -2.5952136638807133e-05 -45.796142578125
v -29.911373138427734 17.269311904907227 -45.796142578125
v -17.26935577392578 29.91135025024414 -45.796146392822266
v 9.0548919615685e-06 44.421539306640625 -24.84630012512207
v 22.210783004760742 38.47018051147461 -24.846303939819336
v 38.470184326171875 22.210765838623047 -24.84630584716797
v 44.421539306640625 5.195509402255993e-06 -24.84630584716797
v 38.47018814086914 -22.210756301879883 -24.84630584716797
v 22.210792541503906 -38.47016906738281 -24.84630584716797
v 3.5430384741630405e-05 -44.421531677246094 -24.846302032470703
v -22.210737228393555 -38.47018051147461 -24.84630012512207
v -38.47014236450195 -22.21079444885254 -24.846296310424805
v -44.4215202331543 -3.7519585021073e-05 -24.846296310424805
v -38.470184326171875 22.21072769165039 -24.846296310424805
v -22.210790634155273 38.47015380859375 -24.84630012512207
v -48.246517181396484 -1.667519063630607e-05 -0.18345531821250916
v -41.782718658447266 24.123241424560547 -0.18345434963703156
v -24.123275756835938 41.78269577026367 -0.18345534801483154
v -14.005207061767578 -50.74626159667969 87.42411804199219
v 7.053071975708008 -28.101728439331055 68.34089660644531
v -14.771965026855469 -7.041194915771484 49.397212982177734
v 9.524871826171875 -13.551519393920898 49.397212982177734
v 49.174720764160156 -17.674497604370117 87.42411804199219
v 28.451711654663086 5.277248382568359 68.34089660644531
v 5.70379638671875 -15.41568374633789 49.397212982177734
v 14.306955337524414 8.221282958984375 49.397212982177734
v 21.735307693481445 48.14740753173828 87.42411804199219
v 23.31126594543457 17.264686584472656 68.34089660644531
v 15.830995559692383 4.252275466918945 49.397212982177734
v -6.96621036529541 14.882797241210938 49.397212982177734
v -50.096710205078125 18.202545166015625 87.42411804199219
v -19.468856811523438 22.464111328125 68.34089660644531
v -29.37369155883789 -4.74920654296875 68.34089660644531
v -5.632816314697266 15.304176330566406 49.397212982177734
v -14.235973358154297 -8.332786560058594 49.397212982177734
v -20.02296257019043 42.20063781738281 103.03311157226562
v 1.623769760131836 22.395809173583984 79.50741577148438
v -18.56224822998047 12.982917785644531 79.50741577148438
v 6.19268798828125 12.939949035644531 46.64458465576172
v 43.35906219482422 16.115234375 103.03311157226562
v 22.061321258544922 -3.696962356567383 79.50741577148438
v 14.443578720092773 17.232627868652344 79.50741577148438
v 0.048516273498535156 -21.218509674072266 79.86274719238281
v 20.227924346923828 -11.805839538574219 79.18756103515625
v -4.848356246948242 -12.596918106079102 47.13273620605469
v 15.22275161743164 -3.2347679138183594 46.15267562866211
v -21.22170639038086 -2.022594451904297 79.86273193359375
v -12.673168182373047 3.7466678619384766 47.13273620605469
v -1.597330093383789 -15.432098388671875 46.15267562866211
v 19.51244354248047 42.47179412841797 115.83546447753906
v 18.25531005859375 13.159137725830078 92.30976867675781
v -1.9307012557983398 22.572044372558594 92.30976867675781
v 12.61579704284668 3.143177032470703 43.6593132019043
v -5.530652046203613 11.605010986328125 43.6593132019043
v 40.271034240722656 -22.849029541015625 115.83546447753906
v 22.54050064086914 0.019765853881835938 92.30976867675781
v -16.647018432617188 -42.79783630371094 115.94488525390625
v -16.16775131225586 -13.668889999389648 92.66511535644531
v 4.01384162902832 -23.076862335205078 91.98992919921875
v -11.479307174682617 -4.048313140869141 44.0999641418457
v -44.41810607910156 13.092033386230469 115.94488525390625
v -15.135059356689453 14.963943481445312 92.66510009765625
v -22.748289108276367 -5.960807800292969 91.98992919921875
v -4.709556579589844 10.864219665527344 44.0999641418457
v -2.8740978240966797 32.46192169189453 130.2737579345703
v 6.704336166381836 14.096580505371094 94.57710266113281
v -8.959920883178711 12.726139068603516 94.57710266113281
v 7.452167510986328 6.720342636108398 44.71278381347656
v -8.12802505493164 5.357257843017578 44.71278381347656
v 32.875091552734375 -0.14730262756347656 130.2737579345703
v 13.962320327758789 -8.148225784301758 94.57710266113281
v 13.962326049804688 7.575870513916016 94.57710266113281
v 6.864339828491211 -8.278711318969727 44.71278381347656
v 6.864345550537109 7.360994338989258 44.71278381347656
v -4.871735572814941 -14.456866264343262 95.11624145507812
v 10.788082122802734 -13.084976196289062 94.09178161621094
v -6.038571357727051 -7.554897308349609 45.45347213745117
v 9.53720474243164 -6.190372467041016 43.96638107299805
v -31.590129852294922 -8.06744384765625 130.43971252441406
v -14.347414016723633 3.4136085510253906 95.11624145507812
v -11.615907669067383 -12.06705093383789 94.09178161621094
v -7.283266544342041 5.176828384399414 45.45347213745117
v -4.566412925720215 -10.220748901367188 43.96638107299805
v -20.919950485229492 -20.606388092041016 68.34089660644531
v 18.546871185302734 -21.93606948852539 68.34089660644531
v -2.935235023498535 29.503631591796875 68.34089660644531
v -13.884998321533203 3.57757568359375 46.64458465576172
v 22.05451202392578 -40.30937576293945 103.14250183105469
v -38.610511779785156 -25.657941818237305 103.14250183105469
v -10.086109161376953 -21.304840087890625 79.18756103515625
v 11.404088973999023 -19.269044876098633 92.30976867675781
v 6.6631622314453125 -12.505724906921387 43.21417236328125
v -11.553560256958008 -7.946319580078125 43.21417236328125
v 13.962324142456055 7.575870513916016 87.14593505859375
v 5.117427825927734 -32.435306549072266 130.43971252441406
v -14.005207061767578 -50.74626159667969 81.00704193115234
v -20.919950485229492 -20.606388092041016 61.92382049560547
v 7.05307149887085 -28.101728439331055 61.92382049560547
v -14.771965026855469 -7.041194915771484 42.98013687133789
v 9.524871826171875 -13.551519393920898 42.98013687133789
v 49.174720764160156 -17.674497604370117 81.00704193115234
v 18.546871185302734 -21.93606948852539 61.92382049560547
v 28.451711654663086 5.277248382568359 61.92382049560547
v 5.703795909881592 -15.41568374633789 42.98013687133789
v 14.306955337524414 8.221282958984375 42.98013687133789
v 21.735307693481445 48.14740753173828 81.00704193115234
v 23.31126594543457 17.264686584472656 61.92382049560547
v -2.935235023498535 29.503631591796875 61.92382049560547
v 15.830995559692383 4.252275466918945 42.98013687133789
v -6.96621036529541 14.882797241210938 42.98013687133789
v -50.096710205078125 18.202545166015625 81.00704193115234
v -19.468856811523438 22.464111328125 61.92382049560547
v -29.37369155883789 -4.74920654296875 61.92382049560547
v -5.632816314697266 15.304176330566406 42.98013687133789
v -14.235973358154297 -8.332786560058594 42.98013687133789
v -20.02296257019043 42.20063781738281 96.61603546142578
v 1.6237692832946777 22.395809173583984 73.09033966064453
v -18.56224822998047 12.982917785644531 73.09033966064453
v 6.192687511444092 12.939949035644531 40.227508544921875
v -13.884998321533203 3.57757568359375 40.227508544921875
v 43.35906219482422 16.115234375 96.61603546142578
v 22.061321258544922 -3.696962356567383 73.09033966064453
v 14.443578720092773 17.232627868652344 73.09033966064453
v 22.05451202392578 -40.30937576293945 96.72542572021484
v 0.048516273498535156 -21.218509674072266 73.44567108154297
v 20.227924346923828 -11.805839538574219 72.7704849243164
v -4.848356246948242 -12.596918106079102 40.715660095214844
v 15.22275161743164 -3.2347679138183594 39.735599517822266
v -38.610511779785156 -25.657941818237305 96.72542572021484
v -21.22170639038086 -2.022594451904297 73.4456558227539
v -10.086109161376953 -21.304840087890625 72.7704849243164
v -12.673168182373047 3.7466678619384766 40.715660095214844
v -1.597330093383789 -15.432098388671875 39.735599517822266
v 19.51244354248047 42.47179412841797 109.41838836669922
v 18.25531005859375 13.159137725830078 85.89269256591797
v -1.9307012557983398 22.572044372558594 85.89269256591797
v 12.61579704284668 3.143177032470703 37.24223709106445
v -5.530652046203613 11.605010986328125 37.24223709106445
v 40.271034240722656 -22.849029541015625 109.41838836669922
v 11.404088973999023 -19.269044876098633 85.89269256591797
v 22.54050064086914 0.019765853881835938 85.89269256591797
v -16.647018432617188 -42.79783630371094 109.5278091430664
v -16.16775131225586 -13.668889999389648 86.24803924560547
v 4.013841152191162 -23.076862335205078 85.5728530883789
v -11.479307174682617 -4.048313140869141 37.68288803100586
v 6.663161754608154 -12.505724906921387 36.797096252441406
v -44.41810607910156 13.092033386230469 109.5278091430664
v -15.135059356689453 14.963943481445312 86.2480239868164
v -22.748289108276367 -5.960807800292969 85.5728530883789
v -4.709556579589844 10.864219665527344 37.68288803100586
v -11.553560256958008 -7.946319580078125 36.797096252441406
v -2.8740978240966797 32.46192169189453 123.85668182373047
v 6.704335689544678 14.096580505371094 88.16002655029297
v -8.959920883178711 12.726139068603516 88.16002655029297
v 7.45216703414917 6.720342636108398 38.29570770263672
v -8.12802505493164 5.357257843017578 38.29570770263672
v 32.875091552734375 -0.14730262756347656 123.85668182373047
v 13.962320327758789 -8.148225784301758 88.16002655029297
v 13.962326049804688 7.575870513916016 88.16002655029297
v 5.117427349090576 -32.435306549072266 124.02262878417969
v -4.871735572814941 -14.456866264343262 88.69916534423828
v 10.788082122802734 -13.084976196289062 87.6747055053711
v -6.038571357727051 -7.554897308349609 39.03639602661133
v 9.53720474243164 -6.190372467041016 37.5493049621582
v -31.590129852294922 -8.06744384765625 124.02262878417969
v -14.347414016723633 3.4136085510253906 88.69916534423828
v -11.615907669067383 -12.06705093383789 87.6747055053711
v -7.283266544342041 5.176828384399414 39.03639602661133
v -4.566412925720215 -10.220748901367188 37.5493049621582
v 13.962324142456055 7.575870513916016 80.7288589477539
v 6.864345073699951 7.360994338989258 38.29570770263672
v 6.864339351654053 -8.278711318969727 38.29570770263672
v 36.588993072509766 21.124645233154297 -2.7623925689113094e-06
v 0.0 -42.24932098388672 -2.7219639302938914e-12
v -36.588993072509766 21.124645233154297 2.762391886790283e-06
vt 0.06351727992296219 0.7574644684791565
vt 0.08942417055368423 0.7834457755088806
vt 0.06363425403833389 0.7834340929985046
vt 0.03784430772066116 0.7834457755088806
vt 0.06363425403833389 0.7834340929985046
vt 0.08942417055368423 0.7834457755088806
vt 0.06363425403833389 0.7834340929985046
vt 0.03784430772066116 0.7834457755088806
vt 0.06363425403833389 0.7834340929985046
vt 0.08942417055368423 0.7834457755088806
vt 0.06363425403833389 0.7834340929985046
vt 0.03784430772066116 0.7834457755088806
vt 0.06363425403833389 0.7834340929985046
vt 0.11143053323030472 0.8168962597846985
vt 0.06363425403833389 0.8168248534202576
vt 0.01583794690668583 0.8168962001800537
vt 0.06363425403833389 0.8168248534202576
vt 0.11143053323030472 0.8168962597846985
vt 0.06363425403833389 0.8168248534202576
vt 0.01583794690668583 0.8168962001800537
vt 0.06363425403833389 0.8168248534202576
vt 0.11143053323030472 0.8168962597846985
vt 0.06363425403833389 0.8168248534202576
vt 0.01583794690668583 0.8168962001800537
vt 0.06363425403833389 0.8168248534202576
vt 0.12360719591379166 0.8747340440750122
vt 0.12360719591379166 0.8747340440750122
vt 0.06363419443368912 0.874692976474762
vt 0.0036612539552152157 0.8747339844703674
vt 0.06363419443368912 0.874692976474762
vt 0.12360719591379166 0.8747340440750122
vt 0.06363419443368912 0.874692976474762
vt 0.0036612539552152157 0.8747339844703674
vt 0.06363419443368912 0.874692976474762
vt 0.06281403452157974 0.7556564211845398
vt 0.0889466181397438 0.7822869420051575
vt 0.06293199211359024 0.7822751402854919
vt 0.03691748529672623 0.7822869420051575
vt 0.06293199211359024 0.7822751402854919
vt 0.0889466181397438 0.7822869420051575
vt 0.06293199211359024 0.7822751402854919
vt 0.03691748529672623 0.7822869420051575
vt 0.06293199211359024 0.7822751402854919
vt 0.0889466181397438 0.7822869420051575
vt 0.06293199211359024 0.7822751402854919
vt 0.03691748529672623 0.7822869420051575
vt 0.06293199211359024 0.7822751402854919
vt 0.11114457994699478 0.8160285949707031
vt 0.06293199211359024 0.8159565329551697
vt 0.014719495549798012 0.8160285949707031
vt 0.06293199211359024 0.8159565329551697
vt 0.11114457994699478 0.8160285949707031
vt 0.06293199211359024 0.8159565329551697
vt 0.014719495549798012 0.8160285949707031
vt 0.06293199211359024 0.8159565329551697
vt 0.11114457994699478 0.8160285949707031
vt 0.06293199211359024 0.8159565329551697
vt 0.014719495549798012 0.8160285949707031
vt 0.06293199211359024 0.8159565329551697
vt 0.06363419443368912 0.874692976474762
vt 0.0036612539552152157 0.8747339844703674
vt 0.06363419443368912 0.874692976474762
vt 0.11374533921480179 0.793397068977356
vt 0.12023473531007767 0.7730598449707031
vt 0.10718870908021927 0.7730498313903809
vt 0.12278763204813004 0.7527197599411011
vt 0.10401628166437149 0.7527053356170654
vt 0.11374533921480179 0.793397068977356
vt 0.12023473531007767 0.7730598449707031
vt 0.10718870908021927 0.7730498313903809
vt 0.12278763204813004 0.7527197599411011
vt 0.10401628166437149 0.7527053356170654
vt 0.11374533921480179 0.793397068977356
vt 0.12023473531007767 0.7730598449707031
vt 0.10718870908021927 0.7730498313903809
vt 0.12278763204813004 0.7527197599411011
vt 0.10401628166437149 0.7527053356170654
vt 0.11374533921480179 0.793397068977356
vt 0.12023473531007767 0.7730598449707031
vt 0.10718870908021927 0.7730498313903809
vt 0.12278763204813004 0.7527197599411011
vt 0.10401628166437149 0.7527053356170654
vt 0.11374533921480179 0.793397068977356
vt 0.12023473531007767 0.7730598449707031
vt 0.10718870908021927 0.7730498313903809
vt 0.12278763204813004 0.7527197599411011
vt 0.10401628166437149 0.7527053356170654
vt 0.11374533921480179 0.793397068977356
vt 0.12023473531007767 0.7730598449707031
vt 0.10718870908021927 0.7730498313903809
vt 0.12278763204813004 0.7527197599411011
vt 0.10401628166437149 0.7527053356170654
vt 0.11374533921480179 0.793397068977356
vt 0.12023473531007767 0.7730598449707031
vt 0.10718870908021927 0.7730498313903809
vt 0.12278763204813004 0.7527197599411011
vt 0.10401628166437149 0.7527053356170654
vt 0.11374533921480179 0.793397068977356
vt 0.12023473531007767 0.7730598449707031
vt 0.10718870908021927 0.7730498313903809
vt 0.12278763204813004 0.7527197599411011
vt 0.10401628166437149 0.7527053356170654
vt 0.11374533921480179 0.793397068977356
vt 0.12023473531007767 0.7730598449707031
vt 0.10718870908021927 0.7730498313903809
vt 0.12278763204813004 0.7527197599411011
vt 0.10401628166437149 0.7527053356170654
vt 0.11374533921480179 0.793397068977356
vt 0.12023473531007767 0.7730598449707031
vt 0.10718870908021927 0.7730498313903809
vt 0.12278763204813004 0.7527197599411011
vt 0.10401628166437149 0.7527053356170654
vt 0.11374533921480179 0.793397068977356
vt 0.12023473531007767 0.7730598449707031
vt 0.10718870908021927 0.7730498313903809
vt 0.12278763204813004 0.7527197599411011
vt 0.10401628166437149 0.7527053356170654
vt 0.11374533921480179 0.793397068977356
vt 0.12023473531007767 0.7730598449707031
vt 0.10718870908021927 0.7730498313903809
vt 0.12278763204813004 0.7527197599411011
vt 0.10401628166437149 0.7527053356170654
vt 0.11374533921480179 0.793397068977356
vt 0.12023473531007767 0.7730598449707031
vt 0.10718870908021927 0.7730498313903809
vt 0.12278763204813004 0.7527197599411011
vt 0.10401628166437149 0.7527053356170654
vt 0.11374533921480179 0.793397068977356
vt 0.12023473531007767 0.7730598449707031
vt 0.10718870908021927 0.7730498313903809
vt 0.12278763204813004 0.7527197599411011
vt 0.10401628166437149 0.7527053356170654
vt 0.11374533921480179 0.793397068977356
vt 0.12023473531007767 0.7730598449707031
vt 0.10718870908021927 0.7730498313903809
vt 0.12278763204813004 0.7527197599411011
vt 0.10401628166437149 0.7527053356170654
vt 0.11374533921480179 0.793397068977356
vt 0.12023473531007767 0.7730598449707031
vt 0.10718870908021927 0.7730498313903809
vt 0.12278763204813004 0.7527197599411011
vt 0.10401628166437149 0.7527053356170654
vt 0.11374533921480179 0.793397068977356
vt 0.10718870908021927 0.7730498313903809
vt 0.12023473531007767 0.7730598449707031
vt 0.10401628166437149 0.7527053356170654
vt 0.12278763204813004 0.7527197599411011
vt 0.11374533921480179 0.793397068977356
vt 0.10718870908021927 0.7730498313903809
vt 0.12023473531007767 0.7730598449707031
vt 0.10401628166437149 0.7527053356170654
vt 0.12278763204813004 0.7527197599411011
vt 0.11374533921480179 0.793397068977356
vt 0.10718870908021927 0.7730498313903809
vt 0.12023473531007767 0.7730598449707031
vt 0.10401628166437149 0.7527053356170654
vt 0.12278763204813004 0.7527197599411011
vt 0.11374533921480179 0.793397068977356
vt 0.10718870908021927 0.7730498313903809
vt 0.12023473531007767 0.7730598449707031
vt 0.10401628166437149 0.7527053356170654
vt 0.12278763204813004 0.7527197599411011
vt 0.11374533921480179 0.793397068977356
vt 0.10718870908021927 0.7730498313903809
vt 0.12023473531007767 0.7730598449707031
vt 0.10401628166437149 0.7527053356170654
vt 0.12278763204813004 0.7527197599411011
vt 0.11374533921480179 0.793397068977356
vt 0.10718870908021927 0.7730498313903809
vt 0.12023473531007767 0.7730598449707031
vt 0.10401628166437149 0.7527053356170654
vt 0.12278763204813004 0.7527197599411011
vt 0.11374533921480179 0.793397068977356
vt 0.10718870908021927 0.7730498313903809
vt 0.12023473531007767 0.7730598449707031
vt 0.10401628166437149 0.7527053356170654
vt 0.12278763204813004 0.7527197599411011
vt 0.11374533921480179 0.793397068977356
vt 0.10718870908021927 0.7730498313903809
vt 0.12023473531007767 0.7730598449707031
vt 0.10401628166437149 0.7527053356170654
vt 0.12278763204813004 0.7527197599411011
vt 0.11374533921480179 0.793397068977356
vt 0.10718870908021927 0.7730498313903809
vt 0.12023473531007767 0.7730598449707031
vt 0.10401628166437149 0.7527053356170654
vt 0.12278763204813004 0.7527197599411011
vt 0.11374533921480179 0.793397068977356
vt 0.10718870908021927 0.7730498313903809
vt 0.12023473531007767 0.7730598449707031
vt 0.10401628166437149 0.7527053356170654
vt 0.12278763204813004 0.7527197599411011
vt 0.11374533921480179 0.793397068977356
vt 0.10718870908021927 0.7730498313903809
vt 0.12023473531007767 0.7730598449707031
vt 0.10401628166437149 0.7527053356170654
vt 0.12278763204813004 0.7527197599411011
vt 0.11374533921480179 0.793397068977356
vt 0.10718870908021927 0.7730498313903809
vt 0.12023473531007767 0.7730598449707031
vt 0.10401628166437149 0.7527053356170654
vt 0.12278763204813004 0.7527197599411011
vt 0.11374533921480179 0.793397068977356
vt 0.10718870908021927 0.7730498313903809
vt 0.12023473531007767 0.7730598449707031
vt 0.10401628166437149 0.7527053356170654
vt 0.12278763204813004 0.7527197599411011
vt 0.11374533921480179 0.793397068977356
vt 0.10718870908021927 0.7730498313903809
vt 0.12023473531007767 0.7730598449707031
vt 0.10401628166437149 0.7527053356170654
vt 0.12278763204813004 0.7527197599411011
vt 0.11374533921480179 0.793397068977356
vt 0.10718870908021927 0.7730498313903809
vt 0.12023473531007767 0.7730598449707031
vt 0.10401628166437149 0.7527053356170654
vt 0.12278763204813004 0.7527197599411011
vt 0.11374533921480179 0.793397068977356
vt 0.10718870908021927 0.7730498313903809
vt 0.12023473531007767 0.7730598449707031
vt 0.10401628166437149 0.7527053356170654
vt 0.12278763204813004 0.7527197599411011
vt 0.47655734419822693 0.5629996657371521
vt 0.47716668248176575 0.5636107325553894
vt 0.476560115814209 0.5636104345321655
vt 0.4759535491466522 0.5636107325553894
vt 0.476560115814209 0.5636104345321655
vt 0.47716668248176575 0.5636107325553894
vt 0.476560115814209 0.5636104345321655
vt 0.4759535491466522 0.5636107325553894
vt 0.476560115814209 0.5636104345321655
vt 0.47716668248176575 0.5636107325553894
vt 0.476560115814209 0.5636104345321655
vt 0.4759535491466522 0.5636107325553894
vt 0.476560115814209 0.5636104345321655
vt 0.47768428921699524 0.5643975138664246
vt 0.476560115814209 0.5643958449363708
vt 0.47543594241142273 0.5643975138664246
vt 0.476560115814209 0.5643958449363708
vt 0.47768428921699524 0.5643975138664246
vt 0.476560115814209 0.5643958449363708
vt 0.47543594241142273 0.5643975138664246
vt 0.476560115814209 0.5643958449363708
vt 0.47768428921699524 0.5643975138664246
vt 0.476560115814209 0.5643958449363708
vt 0.47543594241142273 0.5643975138664246
vt 0.476560115814209 0.5643958449363708
vt 0.477970689535141 0.5657578706741333
vt 0.477970689535141 0.5657578706741333
vt 0.476560115814209 0.5657569169998169
vt 0.475149542093277 0.5657578706741333
vt 0.476560115814209 0.5657569169998169
vt 0.477970689535141 0.5657578706741333
vt 0.476560115814209 0.5657569169998169
vt 0.475149542093277 0.5657578706741333
vt 0.476560115814209 0.5657569169998169
vt 0.47654083371162415 0.5629571080207825
vt 0.477155476808548 0.563583493232727
vt 0.4765435755252838 0.5635831952095032
vt 0.47593173384666443 0.563583493232727
vt 0.4765435755252838 0.5635831952095032
vt 0.477155476808548 0.563583493232727
vt 0.4765435755252838 0.5635831952095032
vt 0.47593173384666443 0.563583493232727
vt 0.4765435755252838 0.5635831952095032
vt 0.477155476808548 0.563583493232727
vt 0.4765435755252838 0.5635831952095032
vt 0.47593173384666443 0.563583493232727
vt 0.4765435755252838 0.5635831952095032
vt 0.4776775538921356 0.5643770694732666
vt 0.4765435755252838 0.5643754005432129
vt 0.475409597158432 0.5643770694732666
vt 0.4765435755252838 0.5643754005432129
vt 0.4776775538921356 0.5643770694732666
vt 0.4765435755252838 0.5643754005432129
vt 0.475409597158432 0.5643770694732666
vt 0.4765435755252838 0.5643754005432129
vt 0.4776775538921356 0.5643770694732666
vt 0.4765435755252838 0.5643754005432129
vt 0.475409597158432 0.5643770694732666
vt 0.4765435755252838 0.5643754005432129
vt 0.476560115814209 0.5657569169998169
vt 0.475149542093277 0.5657578706741333
vt 0.476560115814209 0.5657569169998169
vt 0.4765239655971527 0.6147815585136414
vt 0.4747343063354492 0.6092276573181152
vt 0.4789921045303345 0.6036784648895264
vt 0.47386837005615234 0.6036745309829712
vt 0.4765239655971527 0.6147815585136414
vt 0.4747343063354492 0.6092276573181152
vt 0.4789921045303345 0.6036784648895264
vt 0.47386837005615234 0.6036745309829712
vt 0.4765239655971527 0.6147815585136414
vt 0.4782952666282654 0.6092303991317749
vt 0.4789921045303345 0.6036784648895264
vt 0.47386837005615234 0.6036745309829712
vt 0.4765239655971527 0.6147815585136414
vt 0.4782952666282654 0.6092303991317749
vt 0.4747343063354492 0.6092276573181152
vt 0.4789921045303345 0.6036784648895264
vt 0.47386837005615234 0.6036745309829712
vt 0.4765239655971527 0.6147815585136414
vt 0.4782952666282654 0.6092303991317749
vt 0.4747343063354492 0.6092276573181152
vt 0.4789921045303345 0.6036784648895264
vt 0.4765239655971527 0.6147815585136414
vt 0.4782952666282654 0.6092303991317749
vt 0.4747343063354492 0.6092276573181152
vt 0.4782952666282654 0.6092303991317749
vt 0.4747343063354492 0.6092276573181152
vt 0.4789921045303345 0.6036784648895264
vt 0.47386837005615234 0.6036745309829712
vt 0.4782952666282654 0.6092303991317749
vt 0.4789921045303345 0.6036784648895264
vt 0.47386837005615234 0.6036745309829712
vt 0.4765239655971527 0.6147815585136414
vt 0.4782952666282654 0.6092303991317749
vt 0.4747343063354492 0.6092276573181152
vt 0.4789921045303345 0.6036784648895264
vt 0.47386837005615234 0.6036745309829712
vt 0.4765239655971527 0.6147815585136414
vt 0.4747343063354492 0.6092276573181152
vt 0.4765239655971527 0.6147815585136414
vt 0.4782952666282654 0.6092303991317749
vt 0.4747343063354492 0.6092276573181152
vt 0.4789921045303345 0.6036784648895264
vt 0.4765239655971527 0.6147815585136414
vt 0.4782952666282654 0.6092303991317749
vt 0.4747343063354492 0.6092276573181152
vt 0.4789921045303345 0.6036784648895264
vt 0.4765239655971527 0.6147815585136414
vt 0.4782952666282654 0.6092303991317749
vt 0.4747343063354492 0.6092276573181152
vt 0.4789921045303345 0.6036784648895264
vt 0.47386837005615234 0.6036745309829712
vt 0.4765239655971527 0.6147815585136414
vt 0.4782952666282654 0.6092303991317749
vt 0.4747343063354492 0.6092276573181152
vt 0.4789921045303345 0.6036784648895264
vt 0.47386837005615234 0.6036745309829712
vt 0.4782952666282654 0.6092303991317749
vt 0.4747343063354492 0.6092276573181152
vt 0.4789921045303345 0.6036784648895264
vt 0.47386837005615234 0.6036745309829712
vt 0.4765239655971527 0.6147815585136414
vt 0.4782952666282654 0.6092303991317749
vt 0.4747343063354492 0.6092276573181152
vt 0.4789921045303345 0.6036784648895264
vt 0.47386837005615234 0.6036745309829712
vt 0.4782952666282654 0.6092303991317749
vt 0.4782952666282654 0.6092303991317749
vt 0.4747343063354492 0.6092276573181152
vt 0.47386837005615234 0.6036745309829712
vt 0.4765239655971527 0.6147815585136414
vt 0.4765239655971527 0.6147815585136414
vt 0.4747343063354492 0.6092276573181152
vt 0.4782952666282654 0.6092303991317749
vt 0.47386837005615234 0.6036745309829712
vt 0.47386837005615234 0.6036745309829712
vt 0.4747343063354492 0.6092276573181152
vt 0.4765239655971527 0.6147815585136414
vt 0.4765239655971527 0.6147815585136414
vt 0.4782952666282654 0.6092303991317749
vt 0.4747343063354492 0.6092276573181152
vt 0.4789921045303345 0.6036784648895264
vt 0.47386837005615234 0.6036745309829712
vt 0.4765239655971527 0.6147815585136414
vt 0.4782952666282654 0.6092303991317749
vt 0.4747343063354492 0.6092276573181152
vt 0.4789921045303345 0.6036784648895264
vt 0.47386837005615234 0.6036745309829712
vt 0.4765239655971527 0.6147815585136414
vt 0.4782952666282654 0.6092303991317749
vt 0.4747343063354492 0.6092276573181152
vt 0.4789921045303345 0.6036784648895264
vt 0.47386837005615234 0.6036745309829712
vt 0.4765239655971527 0.6147815585136414
vt 0.4782952666282654 0.6092303991317749
vt 0.4747343063354492 0.6092276573181152
vt 0.4789921045303345 0.6036784648895264
vt 0.47386837005615234 0.6036745309829712
vt 0.4765239655971527 0.6147815585136414
vt 0.4782952666282654 0.6092303991317749
vt 0.4747343063354492 0.6092276573181152
vt 0.4789921045303345 0.6036784648895264
vt 0.47386837005615234 0.6036745309829712
vt 0.4765239655971527 0.6147815585136414
vt 0.4782952666282654 0.6092303991317749
vt 0.4747343063354492 0.6092276573181152
vt 0.4765239655971527 0.6147815585136414
vt 0.4782952666282654 0.6092303991317749
vt 0.4747343063354492 0.6092276573181152
vt 0.4789921045303345 0.6036784648895264
vt 0.47386837005615234 0.6036745309829712
vt 0.4765239655971527 0.6147815585136414
vt 0.4782952666282654 0.6092303991317749
vt 0.4747343063354492 0.6092276573181152
vt 0.4789921045303345 0.6036784648895264
vt 0.47386837005615234 0.6036745309829712
vt 0.4765239655971527 0.6147815585136414
vt 0.4782952666282654 0.6092303991317749
vt 0.4747343063354492 0.6092276573181152
vt 0.4789921045303345 0.6036784648895264
vt 0.47386837005615234 0.6036745309829712
vt 0.4765239655971527 0.6147815585136414
vt 0.4782952666282654 0.6092303991317749
vt 0.4747343063354492 0.6092276573181152
vt 0.4765239655971527 0.6147815585136414
vt 0.4782952666282654 0.6092303991317749
vt 0.4747343063354492 0.6092276573181152
vt 0.4789921045303345 0.6036784648895264
vt 0.47386837005615234 0.6036745309829712
vt 0.4765239655971527 0.6147815585136414
vt 0.4782952666282654 0.6092303991317749
vt 0.4747343063354492 0.6092276573181152
vt 0.4789921045303345 0.6036784648895264
vt 0.47386837005615234 0.6036745309829712
vt 0.4765239655971527 0.6147815585136414
vt 0.4782952666282654 0.6092303991317749
vt 0.4747343063354492 0.6092276573181152
vt 0.4789921045303345 0.6036784648895264
vt 0.47386837005615234 0.6036745309829712
vt 0.4765239655971527 0.6147815585136414
vt 0.4782952666282654 0.6092303991317749
vt 0.4747343063354492 0.6092276573181152
vt 0.4765239655971527 0.6147815585136414
vt 0.4782952666282654 0.6092303991317749
vt 0.4747343063354492 0.6092276573181152
vt 0.4789921045303345 0.6036784648895264
vt 0.47386837005615234 0.6036745309829712
vt 0.4765239655971527 0.6147815585136414
vt 0.4782952666282654 0.6092303991317749
vt 0.4747343063354492 0.6092276573181152
vt 0.4789921045303345 0.6036784648895264
vt 0.47386837005615234 0.6036745309829712
vt 0.4747343063354492 0.6092276573181152
vt 0.47386837005615234 0.6036745309829712
vt 0.4789921045303345 0.6036784648895264
vt 0.0024367659352719784 0.8743700385093689
vt 0.0024367659352719784 0.8743700385093689
vt 0.0024367659352719784 0.8743700385093689
vn -1.8195292383893502e-08 -7.278116953557401e-08 1.0
vn -0.05053700879216194 0.6910341382026672 0.7210533618927002
vn -0.389283686876297 0.5731844902038574 0.7210532426834106
vn -0.6237217783927917 0.3017506003379822 0.7210531830787659
vn -0.691034197807312 -0.05053718388080597 0.7210533022880554
vn -0.5731846690177917 -0.3892833888530731 0.7210532426834106
vn -0.30175071954727173 -0.6237216591835022 0.7210532426834106
vn 0.05053688585758209 -0.691034197807312 0.7210532426834106
vn 0.389283150434494 -0.5731849074363708 0.7210531830787659
vn 0.6237215995788574 -0.3017512559890747 0.7210531830787659
vn 0.691034197807312 0.05053679272532463 0.7210532426834106
vn 0.5731848478317261 0.3892832100391388 0.7210532426834106
vn 0.30175113677978516 0.6237214803695679 0.7210532426834106
vn -0.004852277226746082 0.9579139947891235 0.28701433539390564
vn -0.48315972089767456 0.8271514177322388 0.28701427578926086
vn -0.8320043087005615 0.4747544825077057 0.28701403737068176
vn -0.9579140543937683 -0.004852538462728262 0.2870141267776489
vn -0.8271516561508179 -0.4831593632698059 0.2870142459869385
vn -0.4747546911239624 -0.8320040106773376 0.2870144248008728
vn 0.004852308426052332 -0.9579139351844788 0.2870146334171295
vn 0.48315900564193726 -0.8271517157554626 0.2870147228240967
vn 0.8320037126541138 -0.47475510835647583 0.2870146930217743
vn 0.9579139947891235 0.004851908423006535 0.2870146930217743
vn 0.8271517753601074 0.4831588864326477 0.2870147228240967
vn 0.47475501894950867 0.8320037722587585 0.28701457381248474
vn 0.00032024356187321246 0.9995126128196716 -0.031216388568282127
vn -0.8657633066177368 -0.49947914481163025 -0.031217016279697418
vn -0.5000335574150085 -0.865443229675293 -0.031216785311698914
vn -0.000320243532769382 -0.9995126128196716 -0.03121640905737877
vn 0.49947884678840637 -0.8657634854316711 -0.031216081231832504
vn 0.8654431700706482 -0.5000339150428772 -0.03121597319841385
vn 0.9995126128196716 -0.0003205801185686141 -0.031215937808156013
vn 0.8657636642456055 0.49947860836982727 -0.03121590055525303
vn 0.500033974647522 0.8654429912567139 -0.03121590055525303
vn 3.8989913520026676e-09 -7.927948786345951e-08 -1.0
vn 0.052835021167993546 0.718585193157196 -0.6934289932250977
vn 0.4050493538379669 0.5958953499794006 -0.6934289932250977
vn 0.6487308144569397 0.3135358393192291 -0.6934288740158081
vn 0.7185852527618408 -0.05283521115779877 -0.6934289336204529
vn 0.595895528793335 -0.40504905581474304 -0.6934289932250977
vn 0.31353604793548584 -0.6487305760383606 -0.6934290528297424
vn -0.05283493176102638 -0.7185853123664856 -0.6934289336204529
vn -0.4050489664077759 -0.5958959460258484 -0.6934288144111633
vn -0.6487305760383606 -0.3135366141796112 -0.6934287548065186
vn -0.7185854911804199 0.05283482372760773 -0.6934286952018738
vn -0.5958958268165588 0.40504884719848633 -0.6934288740158081
vn -0.31353655457496643 0.648730456829071 -0.6934289336204529
vn 0.003265969455242157 0.9583378434181213 -0.2856188416481018
vn 0.4819977879524231 0.828311562538147 -0.2856188118457794
vn 0.8315781354904175 0.47633999586105347 -0.28561872243881226
vn 0.9583378434181213 -0.0032663620077073574 -0.2856188118457794
vn 0.8283118009567261 -0.48199737071990967 -0.2856188118457794
vn 0.4763403534889221 -0.8315778374671936 -0.28561896085739136
vn -0.0032660590950399637 -0.958337664604187 -0.2856190800666809
vn -0.48199722170829773 -0.8283118009567261 -0.2856191098690033
vn -0.8315776586532593 -0.476340651512146 -0.28561902046203613
vn -0.9583377242088318 0.003265595529228449 -0.2856189012527466
vn -0.8283119797706604 0.48199692368507385 -0.28561902046203613
vn -0.4763408303260803 0.8315775394439697 -0.28561896085739136
vn -0.9995126724243164 0.0003199742641299963 -0.031217049807310104
vn -0.8654434084892273 0.5000332593917847 -0.03121693804860115
vn -0.4994793236255646 0.8657631874084473 -0.031216878443956375
vn 0.1400197148323059 0.522561252117157 0.841025710105896
vn 0.17090097069740295 0.6378117799758911 0.7509920001029968
vn 0.18043994903564453 0.6734112501144409 0.7169092297554016
vn 0.19796407222747803 0.7388120889663696 0.6441793441772461
vn 0.19796423614025116 0.7388120889663696 0.6441792249679565
vn -0.5083692073822021 0.18503126502037048 0.841025710105896
vn -0.6252079606056213 0.22755712270736694 0.7465472221374512
vn -0.6611508727073669 0.24063926935195923 0.710614025592804
vn -0.7268005013465881 0.2645338475704193 0.6338634490966797
vn -0.7268005609512329 0.2645339071750641 0.6338634490966797
vn -0.22863444685935974 -0.4903082549571991 0.8410257697105408
vn -0.2776816487312317 -0.5954903364181519 0.753846287727356
vn -0.29287129640579224 -0.6280645132064819 0.7209447622299194
vn -0.3208785057067871 -0.6881259679794312 0.650783896446228
vn -0.32087865471839905 -0.6881259679794312 0.6507837772369385
vn 0.5083690285682678 -0.18503129482269287 0.8410257697105408
vn 0.6116828918457031 -0.2226344496011734 0.7591297626495361
vn 0.6438318490982056 -0.2343357652425766 0.7284005880355835
vn 0.7035003304481506 -0.2560533285140991 0.6629660725593567
vn 0.7035003304481506 -0.2560533881187439 0.6629660129547119
vn 0.2639283239841461 -0.5659962296485901 0.7810186743736267
vn 0.34515389800071716 -0.740185022354126 0.5770571231842041
vn 0.3669363260269165 -0.7868978977203369 0.496134489774704
vn 0.3992711305618286 -0.8562401533126831 0.32777369022369385
vn 0.3992709815502167 -0.8562401533126831 0.3277736008167267
vn -0.5909342765808105 -0.21508236229419708 0.7775192856788635
vn -0.7725183367729187 -0.2811735272407532 0.5693477392196655
vn -0.8208616375923157 -0.2987689673900604 0.4867476522922516
vn -0.8917785286903381 -0.32458066940307617 0.3152434229850769
vn -0.8917785882949829 -0.3245806097984314 0.3152433931827545
vn -0.24808305501937866 0.5829682350158691 0.7736942768096924
vn -0.33439794182777405 0.7542325854301453 0.5650762915611267
vn -0.3569304049015045 0.8002808690071106 0.4818207621574402
vn -0.39222192764282227 0.8660407662391663 0.31005704402923584
vn -0.3905823528766632 0.8671475052833557 0.30903181433677673
vn 0.5557548999786377 0.2958965003490448 0.7769052386283875
vn 0.7180883884429932 0.39624878764152527 0.5721328258514404
vn 0.7621375322341919 0.4226838946342468 0.49039244651794434
vn 0.8254601359367371 0.4639663100242615 0.32148224115371704
vn 0.8267594575881958 0.4623769521713257 0.3204314708709717
vn -0.26392862200737 -0.5659960508346558 0.7810186743736267
vn -0.3550362288951874 -0.7613768577575684 0.542452335357666
vn -0.378263384103775 -0.8111876845359802 0.44597241282463074
vn -0.40943729877471924 -0.8780403137207031 0.2478029429912567
vn -0.40943729877471924 -0.8780404329299927 0.2478029876947403
vn -0.5446078181266785 0.31442978978157043 0.7775192856788635
vn -0.7315428853034973 0.42235681414604187 0.5352193117141724
vn -0.7788377404212952 0.44966253638267517 0.43728208541870117
vn -0.8414448499679565 0.48580873012542725 0.2365596890449524
vn -0.8414448499679565 0.48580870032310486 0.2365597039461136
vn 0.2871149480342865 0.5647675395011902 0.7736941576004028
vn 0.3714226186275482 0.761665403842926 0.5309529900550842
vn 0.3927608132362366 0.8114740252494812 0.4327225983142853
vn 0.4181859493255615 0.8782213926315308 0.23205114901065826
vn 0.4195656478404999 0.8776997327804565 0.23153366148471832
vn 0.5839022397994995 -0.2355344146490097 0.7769052386283875
vn 0.7871543765068054 -0.30237212777137756 0.5375491976737976
vn 0.8389171957969666 -0.3194778263568878 0.44062671065330505
vn 0.9088635444641113 -0.33952903747558594 0.24225418269634247
vn 0.9084503054618835 -0.3410128355026245 0.24171984195709229
vn 0.07533082365989685 -0.8610380291938782 0.502930223941803
vn 0.08206360787153244 -0.9379943609237671 0.33679693937301636
vn 0.08371921628713608 -0.9569182991981506 0.27802610397338867
vn 0.08604166656732559 -0.9834641814231873 0.15935811400413513
vn 0.086041659116745 -0.9834641814231873 0.15935811400413513
vn -0.8668092489242554 3.272298556566966e-07 0.49863988161087036
vn -0.943524181842804 3.561905543847388e-07 0.3313036262989044
vn -0.9622591733932495 3.269909427672246e-07 0.27213504910469055
vn -0.9882664084434509 3.1949144840837107e-07 0.15274062752723694
vn -0.9882664084434509 2.659016615780274e-07 0.15274064242839813
vn -0.046296000480651855 0.8682229518890381 0.49400967359542847
vn -0.06283433735370636 0.9426672458648682 0.32776570320129395
vn -0.06659331172704697 0.9609234929084778 0.2686844766139984
vn -0.07525483518838882 0.98581463098526 0.15002138912677765
vn -0.07323861867189407 0.9860478639602661 0.14948494732379913
vn 0.858731746673584 0.12117397785186768 0.49789226055145264
vn 0.9319306015968323 0.1441548466682434 0.33275333046913147
vn 0.9500380754470825 0.14945639669895172 0.27402645349502563
vn 0.9746605157852173 0.16028915345668793 0.1560271680355072
vn 0.9750868082046509 0.1582215577363968 0.15547232329845428
vn -0.1400197148323059 -0.522561252117157 -0.841025710105896
vn -0.18043988943099976 -0.6734111905097961 -0.7169092893600464
vn -0.17090094089508057 -0.6378117203712463 -0.7509920597076416
vn -0.19796419143676758 -0.7388120293617249 -0.6441793441772461
vn -0.19796401262283325 -0.7388119697570801 -0.6441794037818909
vn 0.5083691477775574 -0.18503132462501526 -0.841025710105896
vn 0.6611508131027222 -0.240639328956604 -0.7106140851974487
vn 0.6252079606056213 -0.22755718231201172 -0.7465472221374512
vn 0.7268004417419434 -0.2645339071750641 -0.6338635087013245
vn 0.7268004417419434 -0.2645338773727417 -0.6338635087013245
vn 0.22863449156284332 0.49030816555023193 -0.8410256505012512
vn 0.292871356010437 0.6280644536018372 -0.7209448218345642
vn 0.27768173813819885 0.5954903364181519 -0.7538463473320007
vn 0.3208785951137543 0.6881259083747864 -0.650783896446228
vn 0.3208785057067871 0.6881259083747864 -0.6507839560508728
vn -0.5083691477775574 0.18503129482269287 -0.8410258293151855
vn -0.6438317894935608 0.23433572053909302 -0.7284005880355835
vn -0.6116828322410583 0.2226344347000122 -0.7591297626495361
vn -0.7035002708435059 0.2560533881187439 -0.6629661321640015
vn -0.7035002708435059 0.25605329871177673 -0.6629661917686462
vn -0.26392844319343567 0.5659963488578796 -0.7810185551643372
vn -0.36693641543388367 0.7868978381156921 -0.49613451957702637
vn -0.34515395760536194 0.740185022354126 -0.5770570635795593
vn -0.39927104115486145 0.8562400937080383 -0.3277736306190491
vn -0.399271160364151 0.8562400341033936 -0.32777369022369385
vn 0.5909344553947449 0.21508242189884186 -0.777519166469574
vn 0.8208617568016052 0.2987689971923828 -0.4867476522922516
vn 0.7725183963775635 0.2811735272407532 -0.5693476796150208
vn 0.8917785882949829 0.3245805501937866 -0.3152433931827545
vn 0.8917785882949829 0.3245806097984314 -0.3152434229850769
vn 0.2480834424495697 -0.58296799659729 -0.7736943364143372
vn 0.35693055391311646 -0.8002808094024658 -0.4818207621574402
vn 0.3343982398509979 -0.7542324662208557 -0.5650762915611267
vn 0.3905823528766632 -0.8671475052833557 -0.30903175473213196
vn 0.3922220468521118 -0.8660407066345215 -0.31005704402923584
vn -0.5557546615600586 -0.2958967983722687 -0.7769052982330322
vn -0.7621374130249023 -0.4226840138435364 -0.4903924763202667
vn -0.7180882096290588 -0.3962489664554596 -0.57213294506073
vn -0.8267595171928406 -0.4623769223690033 -0.3204314410686493
vn -0.8254601359367371 -0.46396633982658386 -0.32148224115371704
vn 0.26392844319343567 0.5659958720207214 -0.781018853187561
vn 0.37826335430145264 0.8111876845359802 -0.4459724426269531
vn 0.3550361394882202 0.7613768577575684 -0.5424524545669556
vn 0.40943723917007446 0.8780403733253479 -0.24780292809009552
vn 0.40943726897239685 0.8780403733253479 -0.24780291318893433
vn 0.5446078181266785 -0.31442970037460327 -0.7775194644927979
vn 0.7788376808166504 -0.4496624767780304 -0.437281996011734
vn 0.7315428853034973 -0.4223567545413971 -0.5352193713188171
vn 0.8414448499679565 -0.48580873012542725 -0.2365596741437912
vn 0.8414448499679565 -0.48580873012542725 -0.23655965924263
vn -0.28711530566215515 -0.5647673606872559 -0.7736942768096924
vn -0.3927609920501709 -0.8114739656448364 -0.4327225685119629
vn -0.3714228868484497 -0.7616652846336365 -0.5309529900550842
vn -0.4195656180381775 -0.8776997327804565 -0.23153367638587952
vn -0.4181860089302063 -0.878221333026886 -0.23205113410949707
vn -0.5839020609855652 0.23553472757339478 -0.7769052386283875
vn -0.8389171957969666 0.31947800517082214 -0.4406268000602722
vn -0.7871542572975159 0.30237236618995667 -0.5375491976737976
vn -0.9084502458572388 0.34101277589797974 -0.2417198121547699
vn -0.9088635444641113 0.3395290970802307 -0.24225418269634247
vn -0.07533089071512222 0.8610379099845886 -0.5029304027557373
vn -0.08371924608945847 0.9569182395935059 -0.27802619338035583
vn -0.082063689827919 0.9379943013191223 -0.3367970585823059
vn -0.08604154735803604 0.983464241027832 -0.15935808420181274
vn -0.086041659116745 0.9834641814231873 -0.15935811400413513
vn 0.8668091893196106 -3.272298556566966e-07 -0.4986402094364166
vn 0.96225905418396 -3.3984633773798123e-07 -0.27213504910469055
vn 0.943524181842804 -3.5619061122815765e-07 -0.33130374550819397
vn 0.9882664084434509 -3.038875888705661e-07 -0.15274061262607574
vn 0.9882664084434509 -3.3848445468720456e-07 -0.15274061262607574
vn 0.046296026557683945 -0.8682231903076172 -0.49400949478149414
vn 0.06659330427646637 -0.9609235525131226 -0.26868438720703125
vn 0.06283435225486755 -0.9426673650741577 -0.3277656137943268
vn 0.07323857396841049 -0.9860478639602661 -0.14948494732379913
vn 0.07525482028722763 -0.98581463098526 -0.15002138912677765
vn -0.8587318062782288 -0.12117398530244827 -0.4978920817375183
vn -0.9500380754470825 -0.14945639669895172 -0.27402639389038086
vn -0.9319306015968323 -0.1441548466682434 -0.3327532410621643
vn -0.9750868082046509 -0.1582215428352356 -0.15547232329845428
vn -0.9746603965759277 -0.16028913855552673 -0.1560271680355072
vn 2.867665749306525e-08 9.2547395524889e-08 -1.0
vn 0.0500982366502285 -0.6894181370735168 -0.7226291298866272
vn 0.3880957067012787 -0.5720043778419495 -0.7226290106773376
vn 0.6221029758453369 -0.3013225197792053 -0.7226289510726929
vn 0.6894181370735168 0.0500984787940979 -0.7226290702819824
vn 0.5720045566558838 0.3880953788757324 -0.7226290702819824
vn 0.30132269859313965 0.6221027374267578 -0.722629189491272
vn -0.05009812116622925 0.6894182562828064 -0.7226290106773376
vn -0.3880951404571533 0.5720047950744629 -0.7226290106773376
vn -0.622102677822113 0.30132317543029785 -0.7226289510726929
vn -0.6894182562828064 -0.05009806156158447 -0.7226290702819824
vn -0.5720046758651733 -0.3880952298641205 -0.7226290702819824
vn -0.3013230860233307 -0.622102677822113 -0.7226290106773376
vn 0.005044080782681704 -0.9561319351196289 -0.2928929924964905
vn 0.4824347198009491 -0.8255122900009155 -0.2928928732872009
vn 0.8305568695068359 -0.47369736433029175 -0.2928926944732666
vn 0.9561319947242737 0.0050443969666957855 -0.29289278388023376
vn 0.8255124688148499 0.48243436217308044 -0.2928928732872009
vn 0.4736975431442261 0.8305566310882568 -0.29289305210113525
vn -0.0050440882332623005 0.9561319351196289 -0.29289329051971436
vn -0.48243406414985657 0.8255124688148499 -0.29289335012435913
vn -0.8305562734603882 0.4736980199813843 -0.29289332032203674
vn -0.9561319351196289 -0.005043667275458574 -0.29289329051971436
vn -0.8255126476287842 -0.4824340045452118 -0.2928933799266815
vn -0.4736979603767395 -0.830556333065033 -0.29289326071739197
vn -0.00031171811860986054 -0.9995485544204712 0.03004649095237255
vn 0.8657901287078857 0.499504417181015 0.030047094449400902
vn 0.5000441074371338 0.865478515625 0.030046910047531128
vn 0.00031170257716439664 0.9995485544204712 0.030046498402953148
vn -0.4995042383670807 0.8657902479171753 0.030046163126826286
vn -0.8654783964157104 0.5000443458557129 0.030046094208955765
vn -0.9995484948158264 0.0003120547335129231 0.030046049505472183
vn -0.8657904267311096 -0.4995039105415344 0.030046021565794945
vn -0.5000445246696472 -0.8654783368110657 0.03004603087902069
vn 4.174541956558642e-08 5.7399951458592113e-08 1.0
vn -0.05215782672166824 -0.715091347694397 0.69708251953125
vn -0.40271589159965515 -0.5932081937789917 0.6970824599266052
vn -0.645366370677948 -0.3123754858970642 0.6970823407173157
vn -0.7150914669036865 0.052157942205667496 0.6970824003219604
vn -0.5932084321975708 0.4027157425880432 0.6970824599266052
vn -0.31237560510635376 0.6453661918640137 0.6970824599266052
vn 0.05215774476528168 0.7150914669036865 0.6970824003219604
vn 0.4027155339717865 0.5932087302207947 0.6970822215080261
vn 0.6453662514686584 0.3123762309551239 0.6970822215080261
vn 0.7150915861129761 -0.052157558500766754 0.6970822215080261
vn 0.5932087302207947 -0.40271538496017456 0.6970822811126709
vn 0.31237608194351196 -0.6453660726547241 0.6970823407173157
vn -0.003551123896613717 -0.9560045003890991 0.293330579996109
vn -0.4810780882835388 -0.8261483311653137 0.293330579996109
vn -0.8296999931335449 -0.4749264419078827 0.29333049058914185
vn -0.9560045003890991 0.0035514964256435633 0.2933305501937866
vn -0.8261486887931824 0.4810777008533478 0.293330579996109
vn -0.47492676973342896 0.8296997547149658 0.29333069920539856
vn 0.0035511802416294813 0.9560043811798096 0.2933308482170105
vn 0.4810774624347687 0.8261485695838928 0.2933308780193329
vn 0.8296994566917419 0.4749271869659424 0.2933307886123657
vn 0.9560044407844543 -0.003550685942173004 0.29333075881004333
vn 0.8261487483978271 -0.4810772240161896 0.2933307886123657
vn 0.47492730617523193 -0.8296994566917419 0.29333072900772095
vn 0.9995484352111816 -0.0003113762359134853 0.03004710003733635
vn 0.8654788136482239 -0.5000438094139099 0.03004702925682068
vn 0.49950462579727173 -0.8657900094985962 0.030046965926885605
vn -0.1481984555721283 -0.5530847907066345 -0.8198380470275879
vn -0.18762671947479248 -0.7002328038215637 -0.6888180375099182
vn -0.20450741052627563 -0.7632321119308472 -0.612905740737915
vn -0.20450766384601593 -0.7632321715354919 -0.6129056215286255
vn 0.5380637049674988 -0.19583922624588013 -0.8198380470275879
vn 0.6869015097618103 -0.2500118315219879 -0.6823931336402893
vn 0.7500234842300415 -0.27298635244369507 -0.6024478673934937
vn 0.750023365020752 -0.27298641204833984 -0.6024478077888489
vn 0.24198928475379944 0.5189476609230042 -0.8198381066322327
vn 0.2899549901485443 0.6218104958534241 -0.7275148034095764
vn 0.3317144215106964 0.7113634943962097 -0.6196189522743225
vn 0.33171457052230835 0.7113635540008545 -0.6196187138557434
vn -0.5380635857582092 0.19583909213542938 -0.8198381662368774
vn -0.6392521858215332 0.2326687127351761 -0.7329543232917786
vn -0.6705251336097717 0.24405120313167572 -0.7005962133407593
vn -0.7282026410102844 0.26504412293434143 -0.632038414478302
vn -0.7282027006149292 0.26504430174827576 -0.6320383548736572
vn -0.2770620584487915 0.5941616892814636 -0.755121648311615
vn -0.3529101312160492 0.7568185329437256 -0.5501638054847717
vn -0.37300905585289 0.799920916557312 -0.47009655833244324
vn -0.40256595611572266 0.863305926322937 -0.30437394976615906
vn 0.6200581192970276 0.22568254172801971 -0.751395583152771
vn 0.6200581192970276 0.22568254172801971 -0.751395583152771
vn 0.6200581192970276 0.22568254172801971 -0.751395583152771
vn 0.3413534164428711 -0.770435094833374 -0.5384306907653809
vn 0.3623396158218384 -0.812780499458313 -0.4561775028705597
vn 0.3951316475868225 -0.8724507093429565 -0.2875777781009674
vn 0.393513947725296 -0.8736066818237305 -0.2862837314605713
vn -0.7339928150177002 -0.4047892987728119 -0.5453441143035889
vn -0.8320331573486328 -0.4676680862903595 -0.29834115505218506
vn -0.8333842754364014 -0.466106116771698 -0.2970113754272461
vn 0.2770625352859497 0.5941616296768188 -0.7551215291023254
vn 0.36169952154159546 0.7756659984588623 -0.5172194242477417
vn 0.38300850987434387 0.8213633298873901 -0.42268988490104675
vn 0.4113583266735077 0.8821598291397095 -0.229299858212471
vn 0.41135820746421814 0.882159948348999 -0.22929994761943817
vn 0.5714485049247742 -0.3299262821674347 -0.7513955235481262
vn 0.5714485049247742 -0.3299262821674347 -0.7513955235481262
vn -0.30111631751060486 -0.5923084020614624 -0.7473284602165222
vn -0.3782879710197449 -0.7751758694648743 -0.505964994430542
vn -0.39754894375801086 -0.8209295272827148 -0.40991413593292236
vn -0.41990721225738525 -0.8818438649177551 -0.21454443037509918
vn -0.61263108253479 0.24712269008159637 -0.7507421374320984
vn -0.8015532493591309 0.30816903710365295 -0.5123907327651978
vn -0.8491332530975342 0.3235706388950348 -0.4174622893333435
vn -0.9129512906074524 0.3410523235797882 -0.22406089305877686
vn -0.0768195241689682 0.8780533671379089 -0.4723568856716156
vn -0.08273724466562271 0.9456934332847595 -0.3143540322780609
vn -0.08418410271406174 0.9622316956520081 -0.25888848304748535
vn -0.08620794862508774 0.985364556312561 -0.14705407619476318
vn -0.08620788156986237 0.985364556312561 -0.1470540463924408
vn 0.8836390972137451 -3.215588719740481e-07 -0.4681687653064728
vn -0.2975701689720154 0.1895064115524292 -0.9357025623321533
vn 0.8836390972137451 -3.215588719740481e-07 -0.4681687653064728
vn -0.9876976609230042 0.033207908272743225 0.15280894935131073
vn -0.9862966537475586 3.6085302212995884e-07 0.1649821698665619
vn 0.06321615725755692 -0.949982762336731 -0.3058376610279083
vn 0.06686265766620636 -0.9659168124198914 -0.25006818771362305
vn 0.07539070397615433 -0.9875084161758423 -0.13835950195789337
vn 0.07338635623455048 -0.9877524375915527 -0.1376938372850418
vn -0.8753530979156494 -0.12351921945810318 -0.46743977069854736
vn -0.9393996596336365 -0.1452021300792694 -0.3105553090572357
vn -0.9551857113838196 -0.15018844604492188 -0.25507596135139465
vn -0.9764718413352966 -0.16059377789497375 -0.1439186930656433
vn -0.976908802986145 -0.15853944420814514 -0.14322929084300995
vn -0.17837437987327576 -0.6657031178474426 -0.7245839834213257
vn 0.6520925164222717 -0.23734234273433685 -0.7200305461883545
vn 0.304703027009964 0.6534375548362732 -0.6929469108581543
vn -0.40256592631340027 0.8633059859275818 -0.30437391996383667
vn 0.26018059253692627 -0.611396849155426 -0.7473286390304565
vn -0.5830986499786377 -0.3104551136493683 -0.7507420182228088
vn -0.7745482921600342 -0.4293968379497528 -0.4644279479980469
vn 0.5714485049247742 -0.3299262821674347 -0.7513955235481262
vn -0.4212943911552429 -0.8813397884368896 -0.21389536559581757
vn -0.9125576615333557 0.3425433039665222 -0.22338883578777313
vn -0.9876976609230042 0.033207908272743225 0.15280894935131073
vn 0.04717794060707092 -0.8847594857215881 -0.4636538326740265
vn 0.1481984555721283 0.5530847907066345 0.8198380470275879
vn 0.17837437987327576 0.6657031178474426 0.7245839834213257
vn 0.18762674927711487 0.7002326846122742 0.688818097114563
vn 0.20450741052627563 0.7632321119308472 0.612905740737915
vn 0.20450766384601593 0.7632321715354919 0.6129056215286255
vn -0.5380637049674988 0.19583922624588013 0.8198380470275879
vn -0.6520925164222717 0.23734234273433685 0.7200305461883545
vn -0.6869015097618103 0.2500118017196655 0.6823931336402893
vn -0.7500234842300415 0.27298635244369507 0.6024478673934937
vn -0.750023365020752 0.27298641204833984 0.6024478077888489
vn -0.24198928475379944 -0.5189476609230042 0.8198381066322327
vn -0.2899549901485443 -0.6218104958534241 0.7275148034095764
vn -0.304703027009964 -0.6534375548362732 0.6929469108581543
vn -0.3317144215106964 -0.7113634943962097 0.6196189522743225
vn -0.33171457052230835 -0.7113635540008545 0.6196187138557434
vn 0.5380635857582092 -0.19583910703659058 0.8198381662368774
vn 0.6392521858215332 -0.2326687127351761 0.7329543232917786
vn 0.6705251336097717 -0.24405120313167572 0.7005962133407593
vn 0.7282026410102844 -0.26504412293434143 0.632038414478302
vn 0.7282027006149292 -0.26504430174827576 0.6320383548736572
vn 0.2770620584487915 -0.5941616892814636 0.755121648311615
vn 0.3529101312160492 -0.7568185329437256 0.5501638054847717
vn 0.3730091154575348 -0.7999209761619568 0.4700966477394104
vn 0.40256595611572266 -0.863305926322937 0.30437394976615906
vn 0.40256592631340027 -0.8633059859275818 0.30437391996383667
vn -0.6200581192970276 -0.22568254172801971 0.751395583152771
vn -0.6200581192970276 -0.22568254172801971 0.751395583152771
vn -0.6200581192970276 -0.22568254172801971 0.751395583152771
vn -0.26018059253692627 0.611396849155426 0.7473286390304565
vn -0.3413534164428711 0.770435094833374 0.5384306907653809
vn -0.3623396158218384 0.812780499458313 0.4561775028705597
vn -0.3951316475868225 0.8724507093429565 0.2875777781009674
vn -0.393513947725296 0.8736066818237305 0.2862837314605713
vn 0.5830986499786377 0.3104551434516907 0.7507421374320984
vn 0.7339928150177002 0.40478938817977905 0.5453441739082336
vn 0.7745482921600342 0.4293968677520752 0.4644278883934021
vn 0.8320331573486328 0.4676680862903595 0.29834115505218506
vn 0.8333842754364014 0.466106116771698 0.2970113754272461
vn -0.2770625054836273 -0.5941615700721741 0.7551214694976807
vn -0.36169949173927307 -0.7756658792495728 0.5172194242477417
vn -0.3830084800720215 -0.8213633894920349 0.42268985509872437
vn -0.4113583266735077 -0.8821598291397095 0.229299858212471
vn -0.41135820746421814 -0.882159948348999 0.22929994761943817
vn -0.5714485049247742 0.3299262821674347 0.751395583152771
vn -0.5714485049247742 0.3299262821674347 0.751395583152771
vn -0.5714485049247742 0.3299262821674347 0.751395583152771
vn 0.30111631751060486 0.5923084020614624 0.7473284602165222
vn 0.3782879710197449 0.7751758694648743 0.505964994430542
vn 0.3975489139556885 0.8209295272827148 0.40991413593292236
vn 0.41990721225738525 0.8818438649177551 0.21454443037509918
vn 0.4212943911552429 0.8813397884368896 0.21389536559581757
vn 0.6126311421394348 -0.24712270498275757 0.7507420778274536
vn 0.8015532493591309 -0.30816903710365295 0.5123907327651978
vn 0.849133312702179 -0.3235706388950348 0.41746219992637634
vn 0.9129512906074524 -0.3410523235797882 0.22406089305877686
vn 0.9125576615333557 -0.3425433039665222 0.22338883578777313
vn 0.0768195241689682 -0.8780533671379089 0.4723568856716156
vn 0.08273724466562271 -0.9456934332847595 0.3143540322780609
vn 0.08418411016464233 -0.9622316956520081 0.25888848304748535
vn 0.08620794862508774 -0.985364556312561 0.14705407619476318
vn 0.08620788156986237 -0.985364556312561 0.1470540463924408
vn -0.8836390972137451 3.215588719740481e-07 0.4681687653064728
vn 0.2975701689720154 -0.1895064264535904 0.9357025623321533
vn -0.8836390972137451 3.215588719740481e-07 0.4681687653064728
vn -0.047177936881780624 0.8847594261169434 0.46365395188331604
vn -0.06321614980697632 0.9499826431274414 0.3058377206325531
vn -0.06686265766620636 0.9659168124198914 0.2500682473182678
vn -0.07539070397615433 0.9875084161758423 0.13835950195789337
vn -0.07338635623455048 0.9877524375915527 0.1376938372850418
vn 0.8753531575202942 0.12351923435926437 0.4674399197101593
vn 0.9393996596336365 0.1452021300792694 0.3105553686618805
vn 0.9551857709884644 0.15018846094608307 0.25507599115371704
vn 0.9764718413352966 0.16059377789497375 0.1439186930656433
vn 0.976908802986145 0.15853944420814514 0.14322929084300995
vn 0.9876976609230042 -0.033207908272743225 -0.15280896425247192
vn 0.9862966537475586 -3.6085302212995884e-07 -0.1649821698665619
vn 0.9876976609230042 -0.033207908272743225 -0.15280896425247192
vn 0.8657636642456055 0.49947860836982727 -0.03121590055525303
vn -0.000320243532769382 -0.9995126128196716 -0.03121640905737877
vn -0.8654434084892273 0.5000332593917847 -0.03121693804860115
f 436/436/436 424/424/424 438/438/438
f 438/438/438 437/437/437 436/436/436
f 433/433/433 435/435/435 434/434/434
f 434/434/434 432/432/432 433/433/433
f 431/431/431 433/433/433 432/432/432
f 428/428/428 430/430/430 429/429/429
f 429/429/429 427/427/427 428/428/428
f 426/426/426 428/428/428 427/427/427
f 423/423/423 425/425/425 424/424/424
f 420/420/420 422/422/422 421/421/421
f 421/421/421 419/419/419 420/420/420
f 418/418/418 420/420/420 419/419/419
f 415/415/415 417/417/417 416/416/416
f 416/416/416 414/414/414 415/415/415
f 413/413/413 415/415/415 414/414/414
f 410/410/410 412/412/412 411/411/411
f 411/411/411 409/409/409 410/410/410
f 408/408/408 410/410/410 409/409/409
f 405/405/405 407/407/407 406/406/406
f 402/402/402 404/404/404 403/403/403
f 403/403/403 401/401/401 402/402/402
f 400/400/400 402/402/402 401/401/401
f 397/397/397 399/399/399 398/398/398
f 398/398/398 396/396/396 397/397/397
f 395/395/395 397/397/397 396/396/396
f 392/392/392 394/394/394 393/393/393
f 393/393/393 391/391/391 392/392/392
f 390/390/390 392/392/392 391/391/391
f 387/387/387 389/389/389 388/388/388
f 384/384/384 386/386/386 385/385/385
f 385/385/385 383/383/383 384/384/384
f 382/382/382 384/384/384 383/383/383
f 379/379/379 381/381/381 380/380/380
f 380/380/380 378/378/378 379/379/379
f 377/377/377 379/379/379 378/378/378
f 374/374/374 376/376/376 375/375/375
f 375/375/375 373/373/373 374/374/374
f 372/372/372 374/374/374 373/373/373
f 369/369/369 371/371/371 370/370/370
f 370/370/370 368/368/368 369/369/369
f 367/367/367 369/369/369 368/368/368
f 364/364/364 366/366/366 365/365/365
f 365/365/365 363/363/363 364/364/364
f 362/362/362 364/364/364 363/363/363
f 360/360/360 340/340/340 339/339/339
f 339/339/339 337/337/337 360/360/360
f 347/347/347 346/346/346 348/348/348
f 348/348/348 349/349/349 347/347/347
f 345/345/345 346/346/346 347/347/347
f 342/342/342 341/341/341 343/343/343
f 343/343/343 344/344/344 342/342/342
f 361/361/361 341/341/341 342/342/342
f 336/336/336 337/337/337 338/338/338
f 333/333/333 332/332/332 334/334/334
f 334/334/334 335/335/335 333/333/333
f 331/331/331 332/332/332 333/333/333
f 329/329/329 328/328/328 330/330/330
f 330/330/330 359/359/359 329/329/329
f 327/327/327 328/328/328 329/329/329
f 325/325/325 324/324/324 326/326/326
f 326/326/326 358/358/358 325/325/325
f 323/323/323 324/324/324 325/325/325
f 321/321/321 357/357/357 322/322/322
f 318/318/318 317/317/317 319/319/319
f 319/319/319 320/320/320 318/318/318
f 316/316/316 317/317/317 318/318/318
f 356/356/356 313/313/313 314/314/314
f 314/314/314 315/315/315 356/356/356
f 355/355/355 313/313/313 356/356/356
f 310/310/310 309/309/309 311/311/311
f 311/311/311 312/312/312 310/310/310
f 354/354/354 309/309/309 310/310/310
f 306/306/306 307/307/307 308/308/308
f 304/304/304 303/303/303 305/305/305
f 305/305/305 353/353/353 304/304/304
f 302/302/302 303/303/303 304/304/304
f 299/299/299 298/298/298 300/300/300
f 300/300/300 301/301/301 299/299/299
f 297/297/297 298/298/298 299/299/299
f 352/352/352 294/294/294 295/295/295
f 295/295/295 296/296/296 352/352/352
f 293/293/293 294/294/294 352/352/352
f 290/290/290 351/351/351 291/291/291
f 291/291/291 292/292/292 290/290/290
f 289/289/289 351/351/351 290/290/290
f 286/286/286 350/350/350 287/287/287
f 287/287/287 288/288/288 286/286/286
f 285/285/285 350/350/350 286/286/286
f 281/281/281 270/270/270 248/248/248
f 248/248/248 284/284/284 281/281/281
f 280/280/280 281/281/281 284/284/284
f 284/284/284 283/283/283 280/280/280
f 279/279/279 280/280/280 283/283/283
f 283/283/283 282/282/282 279/279/279
f 278/278/278 279/279/279 282/282/282
f 282/282/282 249/249/249 278/278/278
f 277/277/277 278/278/278 249/249/249
f 249/249/249 250/250/250 277/277/277
f 276/276/276 277/277/277 250/250/250
f 250/250/250 251/251/251 276/276/276
f 275/275/275 276/276/276 251/251/251
f 251/251/251 252/252/252 275/275/275
f 274/274/274 275/275/275 252/252/252
f 252/252/252 253/253/253 274/274/274
f 273/273/273 274/274/274 253/253/253
f 253/253/253 254/254/254 273/273/273
f 272/272/272 273/273/273 254/254/254
f 254/254/254 255/255/255 272/272/272
f 271/271/271 272/272/272 255/255/255
f 255/255/255 256/256/256 271/271/271
f 270/270/270 271/271/271 256/256/256
f 256/256/256 248/248/248 270/270/270
f 269/269/269 258/258/258 270/270/270
f 270/270/270 281/281/281 269/269/269
f 268/268/268 269/269/269 281/281/281
f 281/281/281 280/280/280 268/268/268
f 267/267/267 268/268/268 280/280/280
f 280/280/280 279/279/279 267/267/267
f 266/266/266 267/267/267 279/279/279
f 279/279/279 278/278/278 266/266/266
f 265/265/265 266/266/266 278/278/278
f 278/278/278 277/277/277 265/265/265
f 264/264/264 265/265/265 277/277/277
f 277/277/277 276/276/276 264/264/264
f 263/263/263 264/264/264 276/276/276
f 276/276/276 275/275/275 263/263/263
f 262/262/262 263/263/263 275/275/275
f 275/275/275 274/274/274 262/262/262
f 261/261/261 262/262/262 274/274/274
f 274/274/274 273/273/273 261/261/261
f 260/260/260 261/261/261 273/273/273
f 273/273/273 272/272/272 260/260/260
f 259/259/259 260/260/260 272/272/272
f 272/272/272 271/271/271 259/259/259
f 258/258/258 259/259/259 271/271/271
f 271/271/271 270/270/270 258/258/258
f 257/257/257 258/258/258 269/269/269
f 257/257/257 269/269/269 268/268/268
f 257/257/257 268/268/268 267/267/267
f 257/257/257 267/267/267 266/266/266
f 257/257/257 266/266/266 265/265/265
f 257/257/257 265/265/265 264/264/264
f 257/257/257 264/264/264 263/263/263
f 257/257/257 263/263/263 262/262/262
f 257/257/257 262/262/262 261/261/261
f 257/257/257 261/261/261 260/260/260
f 257/257/257 260/260/260 259/259/259
f 257/257/257 259/259/259 258/258/258
f 247/247/247 236/236/236 248/248/248
f 248/248/248 256/256/256 247/247/247
f 246/246/246 247/247/247 256/256/256
f 256/256/256 255/255/255 246/246/246
f 245/245/245 246/246/246 255/255/255
f 255/255/255 254/254/254 245/245/245
f 244/244/244 245/245/245 254/254/254
f 254/254/254 253/253/253 244/244/244
f 243/243/243 244/244/244 253/253/253
f 253/253/253 252/252/252 243/243/243
f 242/242/242 243/243/243 252/252/252
f 252/252/252 251/251/251 242/242/242
f 241/241/241 242/242/242 251/251/251
f 251/251/251 250/250/250 241/241/241
f 240/240/240 241/241/241 250/250/250
f 250/250/250 249/249/249 240/240/240
f 239/239/239 240/240/240 249/249/249
f 249/249/249 282/282/282 239/239/239
f 238/238/238 239/239/239 282/282/282
f 282/282/282 283/283/283 238/238/238
f 237/237/237 238/238/238 283/283/283
f 283/283/283 284/284/284 237/237/237
f 236/236/236 237/237/237 284/284/284
f 284/284/284 248/248/248 236/236/236
f 235/235/235 224/224/224 236/236/236
f 236/236/236 247/247/247 235/235/235
f 234/234/234 235/235/235 247/247/247
f 247/247/247 246/246/246 234/234/234
f 233/233/233 234/234/234 246/246/246
f 246/246/246 245/245/245 233/233/233
f 232/232/232 233/233/233 245/245/245
f 245/245/245 244/244/244 232/232/232
f 231/231/231 232/232/232 244/244/244
f 244/244/244 243/243/243 231/231/231
f 230/230/230 231/231/231 243/243/243
f 243/243/243 242/242/242 230/230/230
f 229/229/229 230/230/230 242/242/242
f 242/242/242 241/241/241 229/229/229
f 228/228/228 229/229/229 241/241/241
f 241/241/241 240/240/240 228/228/228
f 227/227/227 228/228/228 240/240/240
f 240/240/240 239/239/239 227/227/227
f 226/226/226 227/227/227 239/239/239
f 239/239/239 238/238/238 226/226/226
f 225/225/225 226/226/226 238/238/238
f 238/238/238 237/237/237 225/225/225
f 224/224/224 225/225/225 237/237/237
f 237/237/237 236/236/236 224/224/224
f 223/223/223 224/224/224 235/235/235
f 223/223/223 235/235/235 234/234/234
f 223/223/223 234/234/234 233/233/233
f 223/223/223 233/233/233 232/232/232
f 223/223/223 232/232/232 231/231/231
f 223/223/223 231/231/231 230/230/230
f 223/223/223 230/230/230 229/229/229
f 223/223/223 229/229/229 228/228/228
f 223/223/223 228/228/228 227/227/227
f 223/223/223 227/227/227 226/226/226
f 223/223/223 226/226/226 225/225/225
f 223/223/223 225/225/225 224/224/224
f 219/219/219 220/220/220 222/222/222
f 222/222/222 221/221/221 219/219/219
f 218/218/218 220/220/220 219/219/219
f 214/214/214 215/215/215 217/217/217
f 217/217/217 216/216/216 214/214/214
f 213/213/213 215/215/215 214/214/214
f 209/209/209 210/210/210 212/212/212
f 212/212/212 211/211/211 209/209/209
f 208/208/208 210/210/210 209/209/209
f 204/204/204 205/205/205 207/207/207
f 207/207/207 206/206/206 204/204/204
f 203/203/203 205/205/205 204/204/204
f 199/199/199 200/200/200 202/202/202
f 202/202/202 201/201/201 199/199/199
f 198/198/198 200/200/200 199/199/199
f 194/194/194 195/195/195 197/197/197
f 197/197/197 196/196/196 194/194/194
f 193/193/193 195/195/195 194/194/194
f 189/189/189 190/190/190 192/192/192
f 192/192/192 191/191/191 189/189/189
f 188/188/188 190/190/190 189/189/189
f 184/184/184 185/185/185 187/187/187
f 187/187/187 186/186/186 184/184/184
f 183/183/183 185/185/185 184/184/184
f 179/179/179 180/180/180 182/182/182
f 182/182/182 181/181/181 179/179/179
f 178/178/178 180/180/180 179/179/179
f 174/174/174 175/175/175 177/177/177
f 177/177/177 176/176/176 174/174/174
f 173/173/173 175/175/175 174/174/174
f 169/169/169 170/170/170 172/172/172
f 172/172/172 171/171/171 169/169/169
f 168/168/168 170/170/170 169/169/169
f 164/164/164 165/165/165 167/167/167
f 167/167/167 166/166/166 164/164/164
f 163/163/163 165/165/165 164/164/164
f 159/159/159 160/160/160 162/162/162
f 162/162/162 161/161/161 159/159/159
f 158/158/158 160/160/160 159/159/159
f 154/154/154 155/155/155 157/157/157
f 157/157/157 156/156/156 154/154/154
f 153/153/153 155/155/155 154/154/154
f 149/149/149 150/150/150 152/152/152
f 152/152/152 151/151/151 149/149/149
f 148/148/148 150/150/150 149/149/149
f 144/144/144 145/145/145 147/147/147
f 147/147/147 146/146/146 144/144/144
f 143/143/143 145/145/145 144/144/144
f 140/140/140 142/142/142 141/141/141
f 141/141/141 139/139/139 140/140/140
f 138/138/138 140/140/140 139/139/139
f 135/135/135 137/137/137 136/136/136
f 136/136/136 134/134/134 135/135/135
f 133/133/133 135/135/135 134/134/134
f 130/130/130 132/132/132 131/131/131
f 131/131/131 129/129/129 130/130/130
f 128/128/128 130/130/130 129/129/129
f 125/125/125 127/127/127 126/126/126
f 126/126/126 124/124/124 125/125/125
f 123/123/123 125/125/125 124/124/124
f 120/120/120 122/122/122 121/121/121
f 121/121/121 119/119/119 120/120/120
f 118/118/118 120/120/120 119/119/119
f 115/115/115 117/117/117 116/116/116
f 116/116/116 114/114/114 115/115/115
f 113/113/113 115/115/115 114/114/114
f 110/110/110 112/112/112 111/111/111
f 111/111/111 109/109/109 110/110/110
f 108/108/108 110/110/110 109/109/109
f 105/105/105 107/107/107 106/106/106
f 106/106/106 104/104/104 105/105/105
f 103/103/103 105/105/105 104/104/104
f 100/100/100 102/102/102 101/101/101
f 101/101/101 99/99/99 100/100/100
f 98/98/98 100/100/100 99/99/99
f 95/95/95 97/97/97 96/96/96
f 96/96/96 94/94/94 95/95/95
f 93/93/93 95/95/95 94/94/94
f 90/90/90 92/92/92 91/91/91
f 91/91/91 89/89/89 90/90/90
f 88/88/88 90/90/90 89/89/89
f 85/85/85 87/87/87 86/86/86
f 86/86/86 84/84/84 85/85/85
f 83/83/83 85/85/85 84/84/84
f 80/80/80 82/82/82 81/81/81
f 81/81/81 79/79/79 80/80/80
f 78/78/78 80/80/80 79/79/79
f 75/75/75 77/77/77 76/76/76
f 76/76/76 74/74/74 75/75/75
f 73/73/73 75/75/75 74/74/74
f 70/70/70 72/72/72 71/71/71
f 71/71/71 69/69/69 70/70/70
f 68/68/68 70/70/70 69/69/69
f 65/65/65 67/67/67 66/66/66
f 66/66/66 64/64/64 65/65/65
f 63/63/63 65/65/65 64/64/64
f 59/59/59 62/62/62 26/26/26
f 26/26/26 48/48/48 59/59/59
f 58/58/58 441/441/441 62/62/62
f 62/62/62 59/59/59 58/58/58
f 57/57/57 60/60/60 441/441/441
f 441/441/441 58/58/58 57/57/57
f 56/56/56 27/27/27 60/60/60
f 60/60/60 57/57/57 56/56/56
f 55/55/55 28/28/28 27/27/27
f 27/27/27 56/56/56 55/55/55
f 54/54/54 440/440/440 28/28/28
f 28/28/28 55/55/55 54/54/54
f 53/53/53 30/30/30 440/440/440
f 440/440/440 54/54/54 53/53/53
f 52/52/52 31/31/31 30/30/30
f 30/30/30 53/53/53 52/52/52
f 51/51/51 32/32/32 31/31/31
f 31/31/31 52/52/52 51/51/51
f 50/50/50 439/439/439 32/32/32
f 32/32/32 51/51/51 50/50/50
f 49/49/49 34/34/34 439/439/439
f 439/439/439 50/50/50 49/49/49
f 48/48/48 26/26/26 34/34/34
f 34/34/34 49/49/49 48/48/48
f 47/47/47 59/59/59 48/48/48
f 48/48/48 36/36/36 47/47/47
f 46/46/46 58/58/58 59/59/59
f 59/59/59 47/47/47 46/46/46
f 45/45/45 57/57/57 58/58/58
f 58/58/58 46/46/46 45/45/45
f 44/44/44 56/56/56 57/57/57
f 57/57/57 45/45/45 44/44/44
f 43/43/43 55/55/55 56/56/56
f 56/56/56 44/44/44 43/43/43
f 42/42/42 54/54/54 55/55/55
f 55/55/55 43/43/43 42/42/42
f 41/41/41 53/53/53 54/54/54
f 54/54/54 42/42/42 41/41/41
f 40/40/40 52/52/52 53/53/53
f 53/53/53 41/41/41 40/40/40
f 39/39/39 51/51/51 52/52/52
f 52/52/52 40/40/40 39/39/39
f 38/38/38 50/50/50 51/51/51
f 51/51/51 39/39/39 38/38/38
f 37/37/37 49/49/49 50/50/50
f 50/50/50 38/38/38 37/37/37
f 36/36/36 48/48/48 49/49/49
f 49/49/49 37/37/37 36/36/36
f 35/35/35 47/47/47 36/36/36
f 35/35/35 46/46/46 47/47/47
f 35/35/35 45/45/45 46/46/46
f 35/35/35 44/44/44 45/45/45
f 35/35/35 43/43/43 44/44/44
f 35/35/35 42/42/42 43/43/43
f 35/35/35 41/41/41 42/42/42
f 35/35/35 40/40/40 41/41/41
f 35/35/35 39/39/39 40/40/40
f 35/35/35 38/38/38 39/39/39
f 35/35/35 37/37/37 38/38/38
f 35/35/35 36/36/36 37/37/37
f 25/25/25 34/34/34 26/26/26
f 26/26/26 14/14/14 25/25/25
f 24/24/24 33/33/33 34/34/34
f 34/34/34 25/25/25 24/24/24
f 23/23/23 32/32/32 33/33/33
f 33/33/33 24/24/24 23/23/23
f 22/22/22 31/31/31 32/32/32
f 32/32/32 23/23/23 22/22/22
f 21/21/21 30/30/30 31/31/31
f 31/31/31 22/22/22 21/21/21
f 20/20/20 29/29/29 30/30/30
f 30/30/30 21/21/21 20/20/20
f 19/19/19 28/28/28 29/29/29
f 29/29/29 20/20/20 19/19/19
f 18/18/18 27/27/27 28/28/28
f 28/28/28 19/19/19 18/18/18
f 17/17/17 60/60/60 27/27/27
f 27/27/27 18/18/18 17/17/17
f 16/16/16 61/61/61 60/60/60
f 60/60/60 17/17/17 16/16/16
f 15/15/15 62/62/62 61/61/61
f 61/61/61 16/16/16 15/15/15
f 14/14/14 26/26/26 62/62/62
f 62/62/62 15/15/15 14/14/14
f 13/13/13 25/25/25 14/14/14
f 14/14/14 2/2/2 13/13/13
f 12/12/12 24/24/24 25/25/25
f 25/25/25 13/13/13 12/12/12
f 11/11/11 23/23/23 24/24/24
f 24/24/24 12/12/12 11/11/11
f 10/10/10 22/22/22 23/23/23
f 23/23/23 11/11/11 10/10/10
f 9/9/9 21/21/21 22/22/22
f 22/22/22 10/10/10 9/9/9
f 8/8/8 20/20/20 21/21/21
f 21/21/21 9/9/9 8/8/8
f 7/7/7 19/19/19 20/20/20
f 20/20/20 8/8/8 7/7/7
f 6/6/6 18/18/18 19/19/19
f 19/19/19 7/7/7 6/6/6
f 5/5/5 17/17/17 18/18/18
f 18/18/18 6/6/6 5/5/5
f 4/4/4 16/16/16 17/17/17
f 17/17/17 5/5/5 4/4/4
f 3/3/3 15/15/15 16/16/16
f 16/16/16 4/4/4 3/3/3
f 2/2/2 14/14/14 15/15/15
f 15/15/15 3/3/3 2/2/2
f 1/1/1 13/13/13 2/2/2
f 1/1/1 12/12/12 13/13/13
f 1/1/1 11/11/11 12/12/12
f 1/1/1 10/10/10 11/11/11
f 1/1/1 9/9/9 10/10/10
f 1/1/1 8/8/8 9/9/9
f 1/1/1 7/7/7 8/8/8
f 1/1/1 6/6/6 7/7/7
f 1/1/1 5/5/5 6/6/6
f 1/1/1 4/4/4 5/5/5
f 1/1/1 3/3/3 4/4/4
f 1/1/1 2/2/2 3/3/3
