# Recovered local-space geometry; original node transforms not applied
o mesh_0
v -1.3570504961535335e-05 -1.7027265641900158e-07 56.53801727294922
v -1.191235969599802e-05 34.38870620727539 45.935672760009766
v -17.194374084472656 29.781490325927734 45.935672760009766
v -29.781513214111328 17.194353103637695 45.935672760009766
v -34.38871383666992 4.4430589696276e-06 45.935672760009766
v -29.781511306762695 -17.1943416595459 45.935672760009766
v -17.194374084472656 -29.78148078918457 45.935672760009766
v -3.0247911126934923e-05 -34.38869857788086 45.935672760009766
v 17.194311141967773 -29.78150177001953 45.935672760009766
v 29.781469345092773 -17.194372177124023 45.935672760009766
v 34.388694763183594 -2.5876426661852747e-05 45.935672760009766
v 29.78148651123047 17.194324493408203 45.935672760009766
v 17.19436264038086 29.781471252441406 45.935672760009766
v -1.3528705494536553e-05 45.892120361328125 24.836565017700195
v -22.946081161499023 39.74374008178711 24.836563110351562
v -39.74374771118164 22.946056365966797 24.836563110351562
v -45.89213180541992 6.392803697963245e-06 24.836563110351562
v -39.74375915527344 -22.946046829223633 24.836563110351562
v -22.946094512939453 -39.74372863769531 24.836565017700195
v -3.980087785748765e-05 -45.892112731933594 24.836566925048828
v 22.946022033691406 -39.743743896484375 24.836566925048828
v 39.74370193481445 -22.946090698242188 24.836566925048828
v 45.8921012878418 -3.726865179487504e-05 24.836566925048828
v 39.743743896484375 22.946020126342773 24.836566925048828
v 22.946077346801758 39.74371337890625 24.836566925048828
v 6.661390443696291e-07 48.246517181396484 -0.18345403671264648
v -41.7827033996582 -24.123268127441406 -0.18345579504966736
v -24.123252868652344 -41.78271484375 -0.1834549903869629
v -1.2111615887988592e-07 -48.246517181396484 -0.18345406651496887
v 24.123252868652344 -41.78271484375 -0.183453768491745
v 41.7827033996582 -24.123268127441406 -0.18345408141613007
v 48.246517181396484 -1.616044573893305e-05 -0.18345478177070618
v 41.782718658447266 24.123239517211914 -0.18345417082309723
v 24.123275756835938 41.78269577026367 -0.18345285952091217
v -15.686309814453125 -56.728031158447266 76.44818878173828
v 6.491730690002441 -17.943496704101562 43.329891204833984
v -14.425642013549805 -12.338699340820312 43.32988739013672
v 1.3616751432418823 -32.12515640258789 59.84348678588867
v -18.1462459564209 -26.887550354003906 59.8349723815918
v 55.00217056274414 -19.736473083496094 76.44818878173828
v 32.005027770996094 -0.6186462640762329 59.867210388183594
v 25.09984588623047 -19.600479125976562 59.87013244628906
v 18.492244720458984 4.884499549865723 43.390357971191406
v 11.085704803466797 -15.464787483215332 43.390357971191406
v 24.312286376953125 53.907039642333984 76.44818878173828
v 3.236945152282715 32.60803985595703 59.81555938720703
v 21.54818344116211 24.082183837890625 59.82522964477539
v -3.2922942638397217 18.765907287597656 43.291282653808594
v 16.334033966064453 9.613991737365723 43.291282653808594
v -56.055511474609375 20.414920806884766 76.44818878173828
v -32.967464447021484 1.2639986276626587 59.7863883972168
v -26.05754280090332 20.244108200073242 59.78506088256836
v -18.344467163085938 -4.938282489776611 43.22028350830078
v -10.937925338745117 15.411002159118652 43.22028350830078
v -22.78229522705078 48.05153274536133 92.4539566040039
v -18.122156143188477 19.96056365966797 72.61006927490234
v -4.045712471008301 26.53192138671875 72.61945343017578
v -15.133279800415039 9.879087448120117 44.409339904785156
v 2.151789426803589 17.939241409301758 44.409339904785156
v 49.327205657958984 18.380603790283203 92.47349548339844
v 21.282533645629883 16.21698570251465 72.65898895263672
v 26.60460090637207 1.6223033666610718 72.67247009277344
v 11.433679580688477 14.238269805908203 44.48873519897461
v 17.956668853759766 -3.683511972427368 44.48873519897461
v 24.773094177246094 -46.02672576904297 92.59857177734375
v 19.760196685791016 -18.682493209838867 72.51405334472656
v 5.687024116516113 -25.250539779663086 72.91841888427734
v 16.428529739379883 -9.467329025268555 44.17369842529297
v -0.8528993129730225 -17.523929595947266 44.8786735534668
v -44.16485595703125 -28.846206665039062 92.58061218261719
v -17.050077438354492 -21.413074493408203 72.47029876708984
v -24.816347122192383 -7.963804244995117 72.86898803710938
v -7.755011558532715 -17.14373016357422 44.101383209228516
v -17.286903381347656 -0.6300966739654541 44.80606460571289
v 22.165435791015625 48.33917999267578 105.69918823242188
v 3.7065176963806152 26.85117530822754 86.07870483398438
v 17.788625717163086 20.291961669921875 86.0890121459961
v -1.6475558280944824 16.76380157470703 43.95198059082031
v 13.974889755249023 9.47892951965332 43.95198059082031
v 45.78727340698242 -25.972009658813477 105.7187271118164
v 26.230541229248047 -5.952879905700684 86.12398529052734
v 18.47160530090332 -19.411264419555664 86.13932800292969
v 17.11209487915039 -0.08748507499694824 44.02406692504883
v 8.493358612060547 -15.015564918518066 44.02406692504883
v -19.33468246459961 -48.56270217895508 105.84381103515625
v -1.666382074356079 -27.280406951904297 85.9797134399414
v -15.743082046508789 -20.719764709472656 86.38140869140625
v 2.711879253387451 -17.603012084960938 43.73595428466797
v -12.906697273254395 -10.32046890258789 44.37718200683594
v -50.48610305786133 15.29025936126709 105.82585144042969
v -27.506446838378906 -0.6568610668182373 85.93944549560547
v -22.193649291992188 13.936797142028809 86.33457946777344
v -17.03232192993164 -4.454747200012207 43.67060470581055
v -11.138616561889648 11.739075660705566 44.311607360839844
v -3.528670310974121 39.54890441894531 121.0826187133789
v -7.186608791351318 19.407251358032227 90.05231475830078
v 3.738719940185547 20.36458969116211 90.05631256103516
v -7.617780685424805 11.76593017578125 46.22917556762695
v 5.795353889465332 12.939422607421875 46.22917556762695
v 39.92613983154297 -0.09711696952581406 121.1087875366211
v 20.40701675415039 5.239157199859619 90.08682250976562
v 20.409130096435547 -5.728036880493164 90.09260559082031
v 13.16146183013916 6.304563522338867 46.27199172973633
v 13.161458969116211 -7.1598052978515625 46.27199172973633
v 5.662918567657471 -39.44841003417969 121.2944107055664
v 8.944060325622559 -19.710805892944336 89.87036895751953
v -1.9831852912902832 -20.64760398864746 90.42042541503906
v 8.961275100708008 -12.548625946044922 45.75522994995117
v -4.448613166809082 -13.722429275512695 46.83576202392578
v -38.591224670410156 -9.210420608520508 121.27070617675781
v -18.430667877197266 -10.798321723937988 89.83927917480469
v -20.315210342407227 0.005993962287902832 90.38733673095703
v -10.991288185119629 -10.191437721252441 45.71648025512695
v -13.329301834106445 3.0651488304138184 46.796791076660156
v 5.838357537868433e-06 -1.5471582059944922e-07 -56.53801727294922
v 5.581358891504351e-06 34.53867721557617 -45.796142578125
v 17.269351959228516 29.911367416381836 -45.796146392822266
v 29.91138458251953 17.269338607788086 -45.796142578125
v 34.53868103027344 4.442237241164548e-06 -45.796146392822266
v 29.91138458251953 -17.26932716369629 -45.796146392822266
v 17.269351959228516 -29.911359786987305 -45.796146392822266
v 2.385693551332224e-05 -34.53866958618164 -45.796146392822266
v -17.269304275512695 -29.911380767822266 -45.796142578125
v -29.911354064941406 -17.269357681274414 -45.796142578125
v -34.53866958618164 -2.5952136638807133e-05 -45.796142578125
v -29.911373138427734 17.269311904907227 -45.796142578125
v -17.26935577392578 29.91135025024414 -45.796146392822266
v 9.0548919615685e-06 44.421539306640625 -24.84630012512207
v 22.210783004760742 38.47018051147461 -24.846303939819336
v 38.470184326171875 22.210765838623047 -24.84630584716797
v 44.421539306640625 5.195509402255993e-06 -24.84630584716797
v 38.47018814086914 -22.210756301879883 -24.84630584716797
v 22.210792541503906 -38.47016906738281 -24.84630584716797
v 3.5430384741630405e-05 -44.421531677246094 -24.846302032470703
v -22.210737228393555 -38.47018051147461 -24.84630012512207
v -38.47014236450195 -22.21079444885254 -24.846296310424805
v -44.4215202331543 -3.7519585021073e-05 -24.846296310424805
v -38.470184326171875 22.21072769165039 -24.846296310424805
v -22.210790634155273 38.47015380859375 -24.84630012512207
v -48.246517181396484 -1.667519063630607e-05 -0.18345531821250916
v -41.782718658447266 24.123241424560547 -0.18345434963703156
v -24.123275756835938 41.78269577026367 -0.18345534801483154
v -12.834627151489258 -46.486167907714844 86.65589904785156
v -14.707796096801758 -17.523975372314453 68.87555694580078
v 3.271131992340088 -22.331586837768555 68.86693572998047
v -10.998833656311035 -3.070746421813965 51.243072509765625
v 8.273855209350586 -8.23484992980957 51.24306869506836
v 45.02730941772461 -16.186901092529297 86.65589904785156
v 15.97499942779541 -15.515230178833008 68.83946228027344
v 22.343210220336914 1.9719339609146118 68.84241485595703
v 2.020381450653076 -11.325324058532715 51.181175231933594
v 8.844561576843262 7.423946857452393 51.181175231933594
v 19.886343002319336 44.09560775756836 86.65589904785156
v 16.706594467163086 15.258380889892578 68.88578033447266
v -0.1557466983795166 23.13344383239746 68.89558410644531
v 11.462531089782715 0.9844493865966797 51.28269958496094
v -6.620625019073486 9.416769027709961 51.28269577026367
v -45.900482177734375 16.6590633392334 86.65589904785156
v -16.939483642578125 16.02062225341797 68.92723846435547
v -23.303255081176758 -1.46815824508667 68.92588806152344
v -2.0628294944763184 11.2232666015625 51.35579299926758
v -8.887009620666504 -7.5260009765625 51.35578918457031
v -17.97294807434082 37.8290901184082 101.97064971923828
v 0.3305637836456299 15.770915031433105 79.44037628173828
v -12.64419937133789 9.72722053527832 79.44922637939453
v 6.613361835479736 6.625924110412598 48.490333557128906
v -9.3126220703125 -0.8004775047302246 48.490333557128906
v 38.847679138183594 14.438610076904297 101.94965362548828
v 15.581806182861328 -1.8500341176986694 79.38871765136719
v 10.694202423095703 11.602925300598145 79.40143585205078
v 6.355846405029297 -7.196537494659424 48.41515350341797
v 0.34574365615844727 9.316095352172852 48.41515350341797
v 20.081645965576172 -35.92267990112305 102.0303955078125
v 1.392704963684082 -14.582913398742676 79.58789825439453
v 14.360158920288086 -8.532917022705078 79.18640899658203
v -5.218082427978516 -6.272077560424805 48.74982833862305
v 10.700860977172852 1.1570515632629395 48.0234260559082
v -34.389522552490234 -23.324756622314453 102.0496597290039
v -14.48410415649414 -2.803523063659668 79.63591766357422
v -7.324008941650391 -15.19247055053711 79.22920227050781
v -6.395181655883789 4.645869255065918 48.81852340698242
v 2.3933072090148926 -10.564875602722168 48.09182357788086
v 17.501943588256836 38.094120025634766 115.21588134765625
v 12.312082290649414 9.77059555053711 92.4720687866211
v -0.6576998233795166 15.824974060058594 92.4816665649414
v 8.21692943572998 -1.4387941360473633 47.04375076293945
v -6.177158355712891 5.273284912109375 47.04375076293945
v 36.10738754272461 -20.468114852905273 115.19488525390625
v 8.560713768005371 -13.049839973449707 92.42339324951172
v 15.724775314331055 -0.6584289073944092 92.43769073486328
v -1.8031601905822754 -8.324152946472168 46.97629165649414
v 6.137905120849609 5.430166721343994 46.97629165649414
v -14.534171104431152 -38.464111328125 115.275634765625
v -10.151226043701172 -10.312402725219727 92.62692260742188
v 2.8194451332092285 -16.355247497558594 92.22171783447266
v -7.018094062805176 0.5072317123413086 47.27840805053711
v 7.373191833496094 -6.200050354003906 46.625770568847656
v -39.896995544433594 11.361013412475586 115.2948989868164
v -11.25565242767334 9.263664245605469 92.6720962524414
v -16.141517639160156 -4.1854166984558105 92.26087951660156
v 0.22984600067138672 6.81863260269165 47.33974075317383
v -5.197514533996582 -8.102500915527344 46.686885833740234
v -2.343179225921631 26.540191650390625 127.3039779663086
v 4.439028263092041 7.8786139488220215 94.1158218383789
v -5.627493858337402 6.999139308929443 94.11935424804688
v 6.3791913986206055 0.5201945304870605 48.220733642578125
v -5.979299068450928 -0.5610294342041016 48.220733642578125
v 26.945358276367188 -0.16594810783863068 127.27823638916016
v 7.979414939880371 -5.35412073135376 94.08154296875
v 7.981153964996338 4.750748157501221 94.0866470336914
v 0.7936201095581055 -6.673313617706299 48.181026458740234
v 0.7936234474182129 5.732382774353027 48.181026458740234
v 4.738002300262451 -26.5150146484375 127.4078140258789
v -2.5058703422546387 -8.257482528686523 94.42759704589844
v 7.552221298217773 -7.355595588684082 93.75991821289062
v -4.8926005363464355 -1.3649959564208984 48.71551513671875
v 7.461837291717529 -0.2818422317504883 47.6236572265625
v -25.709918975830078 -7.180079460144043 127.43110656738281
v -7.951894283294678 1.5912702083587646 94.45880126953125
v -6.175894737243652 -8.349676132202148 93.78939819335938
v -1.0047764778137207 4.568553924560547 48.75164794921875
v 1.1510801315307617 -7.644437789916992 47.659584045410156
vt 0.47655734419822693 0.5629996657371521
vt 0.47716668248176575 0.5636107325553894
vt 0.476560115814209 0.5636104345321655
vt 0.4759535491466522 0.5636107325553894
vt 0.476560115814209 0.5636104345321655
vt 0.47716668248176575 0.5636107325553894
vt 0.476560115814209 0.5636104345321655
vt 0.4759535491466522 0.5636107325553894
vt 0.476560115814209 0.5636104345321655
vt 0.47716668248176575 0.5636107325553894
vt 0.476560115814209 0.5636104345321655
vt 0.4759535491466522 0.5636107325553894
vt 0.476560115814209 0.5636104345321655
vt 0.47768428921699524 0.5643975138664246
vt 0.476560115814209 0.5643958449363708
vt 0.47543594241142273 0.5643975138664246
vt 0.476560115814209 0.5643958449363708
vt 0.47768428921699524 0.5643975138664246
vt 0.476560115814209 0.5643958449363708
vt 0.47543594241142273 0.5643975138664246
vt 0.476560115814209 0.5643958449363708
vt 0.47768428921699524 0.5643975138664246
vt 0.476560115814209 0.5643958449363708
vt 0.47543594241142273 0.5643975138664246
vt 0.476560115814209 0.5643958449363708
vt 0.477970689535141 0.5657578706741333
vt 0.477970689535141 0.5657578706741333
vt 0.476560115814209 0.5657569169998169
vt 0.475149542093277 0.5657578706741333
vt 0.476560115814209 0.5657569169998169
vt 0.477970689535141 0.5657578706741333
vt 0.476560115814209 0.5657569169998169
vt 0.475149542093277 0.5657578706741333
vt 0.476560115814209 0.5657569169998169
vt 0.47773876786231995 0.5638447999954224
vt 0.47750991582870483 0.5628876686096191
vt 0.47795143723487854 0.5628880262374878
vt 0.47758451104164124 0.563366174697876
vt 0.47789135575294495 0.5633664131164551
vt 0.47773876786231995 0.5638447999954224
vt 0.47758451104164124 0.563366174697876
vt 0.47789135575294495 0.5633664131164551
vt 0.47750991582870483 0.5628876686096191
vt 0.47795143723487854 0.5628880262374878
vt 0.47773876786231995 0.5638447999954224
vt 0.47758451104164124 0.563366174697876
vt 0.47789135575294495 0.5633664131164551
vt 0.47750991582870483 0.5628876686096191
vt 0.47795143723487854 0.5628880262374878
vt 0.47773876786231995 0.5638447999954224
vt 0.47758451104164124 0.563366174697876
vt 0.47789135575294495 0.5633664131164551
vt 0.47750991582870483 0.5628876686096191
vt 0.47795143723487854 0.5628880262374878
vt 0.47773876786231995 0.5638447999954224
vt 0.47758451104164124 0.563366174697876
vt 0.47789135575294495 0.5633664131164551
vt 0.47750991582870483 0.5628876686096191
vt 0.47795143723487854 0.5628880262374878
vt 0.47773876786231995 0.5638447999954224
vt 0.47758451104164124 0.563366174697876
vt 0.47789135575294495 0.5633664131164551
vt 0.47750991582870483 0.5628876686096191
vt 0.47795143723487854 0.5628880262374878
vt 0.47773876786231995 0.5638447999954224
vt 0.47758451104164124 0.563366174697876
vt 0.47789135575294495 0.5633664131164551
vt 0.47750991582870483 0.5628876686096191
vt 0.47795143723487854 0.5628880262374878
vt 0.47773876786231995 0.5638447999954224
vt 0.47758451104164124 0.563366174697876
vt 0.47789135575294495 0.5633664131164551
vt 0.47750991582870483 0.5628876686096191
vt 0.47795143723487854 0.5628880262374878
vt 0.47773876786231995 0.5638447999954224
vt 0.47758451104164124 0.563366174697876
vt 0.47789135575294495 0.5633664131164551
vt 0.47750991582870483 0.5628876686096191
vt 0.47795143723487854 0.5628880262374878
vt 0.47773876786231995 0.5638447999954224
vt 0.47758451104164124 0.563366174697876
vt 0.47789135575294495 0.5633664131164551
vt 0.47750991582870483 0.5628876686096191
vt 0.47795143723487854 0.5628880262374878
vt 0.47773876786231995 0.5638447999954224
vt 0.47758451104164124 0.563366174697876
vt 0.47789135575294495 0.5633664131164551
vt 0.47750991582870483 0.5628876686096191
vt 0.47795143723487854 0.5628880262374878
vt 0.47773876786231995 0.5638447999954224
vt 0.47758451104164124 0.563366174697876
vt 0.47789135575294495 0.5633664131164551
vt 0.47750991582870483 0.5628876686096191
vt 0.47795143723487854 0.5628880262374878
vt 0.47773876786231995 0.5638447999954224
vt 0.47758451104164124 0.563366174697876
vt 0.47789135575294495 0.5633664131164551
vt 0.47750991582870483 0.5628876686096191
vt 0.47795143723487854 0.5628880262374878
vt 0.47773876786231995 0.5638447999954224
vt 0.47758451104164124 0.563366174697876
vt 0.47789135575294495 0.5633664131164551
vt 0.47750991582870483 0.5628876686096191
vt 0.47795143723487854 0.5628880262374878
vt 0.47773876786231995 0.5638447999954224
vt 0.47758451104164124 0.563366174697876
vt 0.47789135575294495 0.5633664131164551
vt 0.47750991582870483 0.5628876686096191
vt 0.47795143723487854 0.5628880262374878
vt 0.47773876786231995 0.5638447999954224
vt 0.47758451104164124 0.563366174697876
vt 0.47789135575294495 0.5633664131164551
vt 0.47750991582870483 0.5628876686096191
vt 0.47795143723487854 0.5628880262374878
vt 0.47654083371162415 0.5629571080207825
vt 0.477155476808548 0.563583493232727
vt 0.4765435755252838 0.5635831952095032
vt 0.47593173384666443 0.563583493232727
vt 0.4765435755252838 0.5635831952095032
vt 0.477155476808548 0.563583493232727
vt 0.4765435755252838 0.5635831952095032
vt 0.47593173384666443 0.563583493232727
vt 0.4765435755252838 0.5635831952095032
vt 0.477155476808548 0.563583493232727
vt 0.4765435755252838 0.5635831952095032
vt 0.47593173384666443 0.563583493232727
vt 0.4765435755252838 0.5635831952095032
vt 0.4776775538921356 0.5643770694732666
vt 0.4765435755252838 0.5643754005432129
vt 0.475409597158432 0.5643770694732666
vt 0.4765435755252838 0.5643754005432129
vt 0.4776775538921356 0.5643770694732666
vt 0.4765435755252838 0.5643754005432129
vt 0.475409597158432 0.5643770694732666
vt 0.4765435755252838 0.5643754005432129
vt 0.4776775538921356 0.5643770694732666
vt 0.4765435755252838 0.5643754005432129
vt 0.475409597158432 0.5643770694732666
vt 0.4765435755252838 0.5643754005432129
vt 0.476560115814209 0.5657569169998169
vt 0.475149542093277 0.5657578706741333
vt 0.476560115814209 0.5657569169998169
vt 0.47773876786231995 0.5638447999954224
vt 0.47789135575294495 0.5633664131164551
vt 0.47758451104164124 0.563366174697876
vt 0.47795143723487854 0.5628880262374878
vt 0.47750991582870483 0.5628876686096191
vt 0.47773876786231995 0.5638447999954224
vt 0.47789135575294495 0.5633664131164551
vt 0.47758451104164124 0.563366174697876
vt 0.47795143723487854 0.5628880262374878
vt 0.47750991582870483 0.5628876686096191
vt 0.47773876786231995 0.5638447999954224
vt 0.47789135575294495 0.5633664131164551
vt 0.47758451104164124 0.563366174697876
vt 0.47795143723487854 0.5628880262374878
vt 0.47750991582870483 0.5628876686096191
vt 0.47773876786231995 0.5638447999954224
vt 0.47789135575294495 0.5633664131164551
vt 0.47758451104164124 0.563366174697876
vt 0.47795143723487854 0.5628880262374878
vt 0.47750991582870483 0.5628876686096191
vt 0.47773876786231995 0.5638447999954224
vt 0.47789135575294495 0.5633664131164551
vt 0.47758451104164124 0.563366174697876
vt 0.47795143723487854 0.5628880262374878
vt 0.47750991582870483 0.5628876686096191
vt 0.47773876786231995 0.5638447999954224
vt 0.47789135575294495 0.5633664131164551
vt 0.47758451104164124 0.563366174697876
vt 0.47795143723487854 0.5628880262374878
vt 0.47750991582870483 0.5628876686096191
vt 0.47773876786231995 0.5638447999954224
vt 0.47789135575294495 0.5633664131164551
vt 0.47758451104164124 0.563366174697876
vt 0.47795143723487854 0.5628880262374878
vt 0.47750991582870483 0.5628876686096191
vt 0.47773876786231995 0.5638447999954224
vt 0.47789135575294495 0.5633664131164551
vt 0.47758451104164124 0.563366174697876
vt 0.47795143723487854 0.5628880262374878
vt 0.47750991582870483 0.5628876686096191
vt 0.47773876786231995 0.5638447999954224
vt 0.47789135575294495 0.5633664131164551
vt 0.47758451104164124 0.563366174697876
vt 0.47795143723487854 0.5628880262374878
vt 0.47750991582870483 0.5628876686096191
vt 0.47773876786231995 0.5638447999954224
vt 0.47789135575294495 0.5633664131164551
vt 0.47758451104164124 0.563366174697876
vt 0.47795143723487854 0.5628880262374878
vt 0.47750991582870483 0.5628876686096191
vt 0.47773876786231995 0.5638447999954224
vt 0.47789135575294495 0.5633664131164551
vt 0.47758451104164124 0.563366174697876
vt 0.47795143723487854 0.5628880262374878
vt 0.47750991582870483 0.5628876686096191
vt 0.47773876786231995 0.5638447999954224
vt 0.47789135575294495 0.5633664131164551
vt 0.47758451104164124 0.563366174697876
vt 0.47795143723487854 0.5628880262374878
vt 0.47750991582870483 0.5628876686096191
vt 0.47773876786231995 0.5638447999954224
vt 0.47789135575294495 0.5633664131164551
vt 0.47758451104164124 0.563366174697876
vt 0.47795143723487854 0.5628880262374878
vt 0.47750991582870483 0.5628876686096191
vt 0.47773876786231995 0.5638447999954224
vt 0.47789135575294495 0.5633664131164551
vt 0.47758451104164124 0.563366174697876
vt 0.47795143723487854 0.5628880262374878
vt 0.47750991582870483 0.5628876686096191
vt 0.47773876786231995 0.5638447999954224
vt 0.47789135575294495 0.5633664131164551
vt 0.47758451104164124 0.563366174697876
vt 0.47795143723487854 0.5628880262374878
vt 0.47750991582870483 0.5628876686096191
vt 0.47773876786231995 0.5638447999954224
vt 0.47789135575294495 0.5633664131164551
vt 0.47758451104164124 0.563366174697876
vt 0.47795143723487854 0.5628880262374878
vt 0.47750991582870483 0.5628876686096191
vn 2.867665749306525e-08 9.2547395524889e-08 -1.0
vn 0.0500982366502285 -0.6894181370735168 -0.7226291298866272
vn 0.3880957067012787 -0.5720043778419495 -0.7226290106773376
vn 0.6221029758453369 -0.3013225197792053 -0.7226289510726929
vn 0.6894181370735168 0.0500984787940979 -0.7226290702819824
vn 0.5720045566558838 0.3880953788757324 -0.7226290702819824
vn 0.30132269859313965 0.6221027374267578 -0.722629189491272
vn -0.05009812116622925 0.6894182562828064 -0.7226290106773376
vn -0.3880951404571533 0.5720047950744629 -0.7226290106773376
vn -0.622102677822113 0.30132317543029785 -0.7226289510726929
vn -0.6894182562828064 -0.05009806156158447 -0.7226290702819824
vn -0.5720046758651733 -0.3880952298641205 -0.7226290702819824
vn -0.3013230860233307 -0.622102677822113 -0.7226290106773376
vn 0.005044080782681704 -0.9561319351196289 -0.2928929924964905
vn 0.4824347198009491 -0.8255122900009155 -0.2928928732872009
vn 0.8305568695068359 -0.47369736433029175 -0.2928926944732666
vn 0.9561319947242737 0.0050443969666957855 -0.29289278388023376
vn 0.8255124688148499 0.48243436217308044 -0.2928928732872009
vn 0.4736975431442261 0.8305566310882568 -0.29289305210113525
vn -0.0050440882332623005 0.9561319351196289 -0.29289329051971436
vn -0.48243406414985657 0.8255124688148499 -0.29289335012435913
vn -0.8305562734603882 0.4736980199813843 -0.29289332032203674
vn -0.9561319351196289 -0.005043667275458574 -0.29289329051971436
vn -0.8255126476287842 -0.4824340045452118 -0.2928933799266815
vn -0.4736979603767395 -0.830556333065033 -0.29289326071739197
vn -0.00031171811860986054 -0.9995485544204712 0.03004649095237255
vn 0.8657901287078857 0.499504417181015 0.030047094449400902
vn 0.5000441074371338 0.865478515625 0.030046910047531128
vn 0.00031170257716439664 0.9995485544204712 0.030046498402953148
vn -0.4995042383670807 0.8657902479171753 0.030046163126826286
vn -0.8654783964157104 0.5000443458557129 0.030046094208955765
vn -0.9995484948158264 0.0003120547335129231 0.030046049505472183
vn -0.8657904267311096 -0.4995039105415344 0.030046021565794945
vn -0.5000445246696472 -0.8654783368110657 0.03004603087902069
vn 0.1313055157661438 0.4904593825340271 0.8615153431892395
vn 0.19143082201480865 0.7144294381141663 0.673011839389801
vn 0.1914796382188797 0.7144439220428467 0.6729825735092163
vn 0.17314888536930084 0.646229088306427 0.7432412505149841
vn 0.16325075924396515 0.6093030571937561 0.7759503722190857
vn -0.47690698504447937 0.17362113296985626 0.8616353273391724
vn -0.6350634098052979 0.23114700615406036 0.7370654940605164
vn -0.5976698398590088 0.21753819286823273 0.7716656923294067
vn -0.7037338018417358 0.2561383545398712 0.6626853346824646
vn -0.7037298679351807 0.25612032413482666 0.6626965403556824
vn -0.21473915874958038 -0.4602246880531311 0.8614408373832703
vn -0.2808842957019806 -0.602338969707489 0.7471893429756165
vn -0.26514244079589844 -0.5685710906982422 0.7787338495254517
vn -0.3100602328777313 -0.6649255752563477 0.6795121431350708
vn -0.3100030720233917 -0.6649174690246582 0.6795461177825928
vn 0.47744622826576233 -0.17375941574573517 0.861308753490448
vn 0.616770327091217 -0.22448499500751495 0.7544540166854858
vn 0.5835591554641724 -0.21239644289016724 0.7838025689125061
vn 0.67872154712677 -0.2470346987247467 0.6916002631187439
vn 0.6787230968475342 -0.24704182147979736 0.691596269607544
vn 0.24748870730400085 -0.5313003063201904 0.8102279305458069
vn 0.3607648015022278 -0.7736958265304565 0.5208104848861694
vn 0.33668020367622375 -0.7220625877380371 0.6043774485588074
vn 0.39651355147361755 -0.8503267168998718 0.3460080027580261
vn 0.39659419655799866 -0.850267231464386 0.34606167674064636
vn -0.5547756552696228 -0.20155774056911469 0.807216465473175
vn -0.8077188730239868 -0.2939639687538147 0.5110532641410828
vn -0.7541432976722717 -0.2744532525539398 0.5966098308563232
vn -0.8862276077270508 -0.3225601613521576 0.33249902725219727
vn -0.886152982711792 -0.3226841986179352 0.33257779479026794
vn -0.232524111866951 0.5477040410041809 0.8037118911743164
vn -0.35153526067733765 0.7876274585723877 0.5060296058654785
vn -0.32668840885162354 0.7364561557769775 0.5923740267753601
vn -0.38851186633110046 0.8618780374526978 0.32592177391052246
vn -0.3901198208332062 0.8607149124145508 0.327072411775589
vn 0.5220597982406616 0.2775556445121765 0.8064839839935303
vn 0.7495369911193848 0.4159594476222992 0.5149487257003784
vn 0.7006906867027283 0.3868420720100403 0.5994879603385925
vn 0.8212094306945801 0.45957985520362854 0.3382328748703003
vn 0.8198927640914917 0.46108582615852356 0.3393755257129669
vn -0.24702566862106323 -0.5290687084197998 0.8118279576301575
vn -0.3733089566230774 -0.8005260825157166 0.46882688999176025
vn -0.3474142551422119 -0.744975745677948 0.569486141204834
vn -0.4079331159591675 -0.8748147487640381 0.26132309436798096
vn -0.4078181982040405 -0.874855101108551 0.2613677680492401
vn -0.509046196937561 0.29439395666122437 0.8088288903236389
vn -0.7690579891204834 0.44404336810112 0.45975595712661743
vn -0.7161899209022522 0.4135338366031647 0.562193751335144
vn -0.8387210369110107 0.48423612117767334 0.24912326037883759
vn -0.8387966752052307 0.4840705990791321 0.24919074773788452
vn 0.26915958523750305 0.5282078981399536 0.8053257465362549
vn 0.38772234320640564 0.801601767539978 0.4550890028476715
vn 0.3636026978492737 0.7459953427314758 0.5579283237457275
vn 0.41804593801498413 0.8750997185707092 0.24379929900169373
vn 0.41667449474334717 0.8755941987037659 0.2443714141845703
vn 0.5461515188217163 -0.22070515155792236 0.8080889582633972
vn 0.8282443284988403 -0.31515422463417053 0.46334561705589294
vn 0.7705496549606323 -0.29580381512641907 0.5645826458930969
vn 0.9053815603256226 -0.33959993720054626 0.2548648416996002
vn 0.9057474732398987 -0.33820003271102905 0.2554256021976471
vn 0.07344900071620941 -0.8404562473297119 0.5368785262107849
vn 0.08320171386003494 -0.951037585735321 0.29766595363616943
vn 0.08128589391708374 -0.9291563630104065 0.3606400787830353
vn 0.08588193356990814 -0.98163902759552 0.17032074928283691
vn 0.08591772615909576 -0.981634259223938 0.17033065855503082
vn -0.8463864922523499 0.00011773182632168755 0.5325693488121033
vn -0.9566013216972351 4.707010248239385e-06 0.2913999557495117
vn -0.9349161982536316 6.969490186747862e-06 0.3548685610294342
vn -0.9866009950637817 2.0964132829703885e-07 0.16315187513828278
vn -0.9865986108779907 -5.192894968786277e-05 0.16316623985767365
vn -0.046134285628795624 0.8480753898620605 0.5278634428977966
vn -0.06638424098491669 0.9553990364074707 0.28776034712791443
vn -0.06242021173238754 0.934253990650177 0.3511027991771698
vn -0.07329357415437698 0.9844255447387695 0.15979482233524323
vn -0.07478474825620651 0.9842422008514404 0.16023337841033936
vn 0.8384494781494141 0.11927219480276108 0.5317676663398743
vn 0.9443345069885254 0.14873601496219635 0.29344525933265686
vn 0.9233492612838745 0.14297917485237122 0.3563469350337982
vn 0.9733197689056396 0.15810994803905487 0.1662825047969818
vn 0.9729917049407959 0.15964289009571075 0.166737362742424
vn 4.174541956558642e-08 5.7399951458592113e-08 1.0
vn -0.05215782672166824 -0.715091347694397 0.69708251953125
vn -0.40271589159965515 -0.5932081937789917 0.6970824599266052
vn -0.645366370677948 -0.3123754858970642 0.6970823407173157
vn -0.7150914669036865 0.052157942205667496 0.6970824003219604
vn -0.5932084321975708 0.4027157425880432 0.6970824599266052
vn -0.31237560510635376 0.6453661918640137 0.6970824599266052
vn 0.05215774476528168 0.7150914669036865 0.6970824003219604
vn 0.4027155339717865 0.5932087302207947 0.6970822215080261
vn 0.6453662514686584 0.3123762309551239 0.6970822215080261
vn 0.7150915861129761 -0.052157558500766754 0.6970822215080261
vn 0.5932087302207947 -0.40271538496017456 0.6970822811126709
vn 0.31237608194351196 -0.6453660726547241 0.6970823407173157
vn -0.003551123896613717 -0.9560045003890991 0.293330579996109
vn -0.4810780882835388 -0.8261483311653137 0.293330579996109
vn -0.8296999931335449 -0.4749264419078827 0.29333049058914185
vn -0.9560045003890991 0.0035514964256435633 0.2933305501937866
vn -0.8261486887931824 0.4810777008533478 0.293330579996109
vn -0.47492676973342896 0.8296997547149658 0.29333069920539856
vn 0.0035511802416294813 0.9560043811798096 0.2933308482170105
vn 0.4810774624347687 0.8261485695838928 0.2933308780193329
vn 0.8296994566917419 0.4749271869659424 0.2933307886123657
vn 0.9560044407844543 -0.003550685942173004 0.29333075881004333
vn 0.8261487483978271 -0.4810772240161896 0.2933307886123657
vn 0.47492730617523193 -0.8296994566917419 0.29333072900772095
vn 0.9995484352111816 -0.0003113762359134853 0.03004710003733635
vn 0.8654788136482239 -0.5000438094139099 0.03004702925682068
vn 0.49950462579727173 -0.8657900094985962 0.030046965926885605
vn -0.14067623019218445 -0.524578332901001 -0.8396593332290649
vn -0.17092961072921753 -0.6378753781318665 -0.7509316205978394
vn -0.18031543493270874 -0.6729177236557007 -0.7174037098884583
vn -0.19753652811050415 -0.7373901009559631 -0.645937442779541
vn -0.1975862830877304 -0.7374013066291809 -0.6459094285964966
vn 0.5105531215667725 -0.1857837587594986 -0.8395355343818665
vn 0.6252899765968323 -0.22758260369300842 -0.7464707493782043
vn 0.6606233716011047 -0.2404443919658661 -0.7111703753471375
vn 0.7252843976020813 -0.26399892568588257 -0.6358200311660767
vn 0.725281834602356 -0.2639811336994171 -0.6358304023742676
vn 0.2293665111064911 0.4921724498271942 -0.8397364616394043
vn 0.27771317958831787 0.595586895942688 -0.7537584900856018
vn 0.2926636338233948 0.6276382803916931 -0.7214001417160034
vn 0.32033073902130127 0.6868326663970947 -0.6524178981781006
vn 0.3202737271785736 0.6868285536766052 -0.6524503231048584
vn -0.5100417137145996 0.18565745651721954 -0.8398743867874146
vn -0.6117599606513977 0.22266417741775513 -0.7590588927268982
vn -0.6434406042098999 0.23419451713562012 -0.7287915349006653
vn -0.702316403388977 0.2556154727935791 -0.6643887758255005
vn -0.702317476272583 0.2556229829788208 -0.6643847227096558
vn -0.2666991949081421 0.5714203715324402 -0.7761123180389404
vn -0.34540319442749023 0.7406769394874573 -0.5762762427330017
vn -0.3666268289089203 0.7862056493759155 -0.4974590241909027
vn -0.3983561396598816 0.8544957041740417 -0.33339086174964905
vn -0.398433119058609 0.8544433116912842 -0.33343347907066345
vn 0.5967151522636414 0.21752317249774933 -0.7724083662033081
vn 0.7730513215065002 0.2813952565193176 -0.5685142278671265
vn 0.8201401233673096 0.2985248267650604 -0.4881120026111603
vn 0.8899928331375122 0.32378897070884705 -0.32105058431625366
vn 0.8899275064468384 0.32390689849853516 -0.3211130201816559
vn 0.25081464648246765 -0.5885933041572571 -0.7685375213623047
vn 0.3346538245677948 -0.7547358870506287 -0.5642521977424622
vn 0.35655340552330017 -0.7996268272399902 -0.4831840693950653
vn 0.3912457227706909 -0.8643786311149597 -0.31587401032447815
vn 0.3895522654056549 -0.8655095100402832 -0.314868688583374
vn -0.5610466599464417 -0.29891082644462585 -0.7719320058822632
vn -0.7185520529747009 -0.39652445912361145 -0.5713592171669006
vn -0.7615236639976501 -0.4222480356693268 -0.4917197823524475
vn -0.8238435387611389 -0.462891548871994 -0.3271287679672241
vn -0.8252043128013611 -0.4612095355987549 -0.3260730803012848
vn 0.2669891119003296 0.5731762647628784 -0.7747166156768799
vn 0.3555300533771515 0.7624788880348206 -0.54057776927948
vn 0.3781310021877289 0.8109322786331177 -0.4465487599372864
vn 0.40894630551338196 0.8767197728157043 -0.25322991609573364
vn 0.4088398218154907 0.8767591118812561 -0.2532656788825989
vn 0.5516995787620544 -0.318074107170105 -0.771010160446167
vn 0.732626736164093 -0.42295095324516296 -0.5332641005516052
vn 0.7786034941673279 -0.4495062530040741 -0.4378592371940613
vn 0.8401759266853333 -0.4852711260318756 -0.2421085685491562
vn 0.8402487635612488 -0.4851181209087372 -0.24216243624687195
vn -0.2904353737831116 -0.57196444272995 -0.76714026927948
vn -0.3718952238559723 -0.76278156042099 -0.5290164947509766
vn -0.3926868140697479 -0.8112062215805054 -0.433291494846344
vn -0.4177338182926178 -0.8769542574882507 -0.23759153485298157
vn -0.41920793056488037 -0.8763948678970337 -0.23705898225307465
vn -0.5911669135093689 0.23832251131534576 -0.7705349326133728
vn -0.7882781028747559 0.3027496039867401 -0.5356869697570801
vn -0.8386361002922058 0.3194320797920227 -0.4411945343017578
vn -0.9075555801391602 0.33910807967185974 -0.24768652021884918
vn -0.9070942401885986 0.34075549244880676 -0.24711483716964722
vn -0.07552801072597504 0.8624886274337769 -0.5004087686538696
vn -0.08208146691322327 0.9381588101387024 -0.3363341689109802
vn -0.0837131217122078 0.9568222165107727 -0.2783582806587219
vn -0.08598310500383377 0.9831572771072388 -0.16127268970012665
vn -0.08601446449756622 0.9831532835960388 -0.1612803190946579
vn 0.868276834487915 0.00010114619362866506 -0.4960799515247345
vn 0.9436903595924377 4.698565589933423e-06 -0.33083033561706543
vn 0.9621646404266357 3.036579983017873e-06 -0.27246907353401184
vn 0.9879652261734009 -4.608495510183275e-05 -0.15467619895935059
vn 0.9879634976387024 -2.658201196936716e-07 -0.1546873301267624
vn 0.04536401852965355 -0.8697302937507629 -0.49143823981285095
vn 0.06280837208032608 -0.9428084492683411 -0.3273642957210541
vn 0.06650727987289429 -0.9608355760574341 -0.2690200209617615
vn 0.07563230395317078 -0.9854888319969177 -0.1519589126110077
vn 0.07305669784545898 -0.985786497592926 -0.15128692984580994
vn -0.8603137135505676 -0.12034302204847336 -0.49535635113716125
vn -0.9320729970932007 -0.14413891732692719 -0.3323614001274109
vn -0.9499565362930298 -0.14936195313930511 -0.2743603587150574
vn -0.9742919206619263 -0.16065043210983276 -0.15794523060321808
vn -0.9748343229293823 -0.1580180674791336 -0.1572524756193161
f 220/220/220 219/219/219 221/221/221
f 221/221/221 222/222/222 220/220/220
f 218/218/218 219/219/219 220/220/220
f 215/215/215 214/214/214 216/216/216
f 216/216/216 217/217/217 215/215/215
f 213/213/213 214/214/214 215/215/215
f 210/210/210 209/209/209 211/211/211
f 211/211/211 212/212/212 210/210/210
f 208/208/208 209/209/209 210/210/210
f 205/205/205 204/204/204 206/206/206
f 206/206/206 207/207/207 205/205/205
f 203/203/203 204/204/204 205/205/205
f 200/200/200 199/199/199 201/201/201
f 201/201/201 202/202/202 200/200/200
f 198/198/198 199/199/199 200/200/200
f 195/195/195 194/194/194 196/196/196
f 196/196/196 197/197/197 195/195/195
f 193/193/193 194/194/194 195/195/195
f 190/190/190 189/189/189 191/191/191
f 191/191/191 192/192/192 190/190/190
f 188/188/188 189/189/189 190/190/190
f 185/185/185 184/184/184 186/186/186
f 186/186/186 187/187/187 185/185/185
f 183/183/183 184/184/184 185/185/185
f 180/180/180 179/179/179 181/181/181
f 181/181/181 182/182/182 180/180/180
f 178/178/178 179/179/179 180/180/180
f 175/175/175 174/174/174 176/176/176
f 176/176/176 177/177/177 175/175/175
f 173/173/173 174/174/174 175/175/175
f 170/170/170 169/169/169 171/171/171
f 171/171/171 172/172/172 170/170/170
f 168/168/168 169/169/169 170/170/170
f 165/165/165 164/164/164 166/166/166
f 166/166/166 167/167/167 165/165/165
f 163/163/163 164/164/164 165/165/165
f 160/160/160 159/159/159 161/161/161
f 161/161/161 162/162/162 160/160/160
f 158/158/158 159/159/159 160/160/160
f 155/155/155 154/154/154 156/156/156
f 156/156/156 157/157/157 155/155/155
f 153/153/153 154/154/154 155/155/155
f 150/150/150 149/149/149 151/151/151
f 151/151/151 152/152/152 150/150/150
f 148/148/148 149/149/149 150/150/150
f 145/145/145 144/144/144 146/146/146
f 146/146/146 147/147/147 145/145/145
f 143/143/143 144/144/144 145/145/145
f 139/139/139 128/128/128 26/26/26
f 26/26/26 142/142/142 139/139/139
f 138/138/138 139/139/139 142/142/142
f 142/142/142 141/141/141 138/138/138
f 137/137/137 138/138/138 141/141/141
f 141/141/141 140/140/140 137/137/137
f 136/136/136 137/137/137 140/140/140
f 140/140/140 27/27/27 136/136/136
f 135/135/135 136/136/136 27/27/27
f 27/27/27 28/28/28 135/135/135
f 134/134/134 135/135/135 28/28/28
f 28/28/28 29/29/29 134/134/134
f 133/133/133 134/134/134 29/29/29
f 29/29/29 30/30/30 133/133/133
f 132/132/132 133/133/133 30/30/30
f 30/30/30 31/31/31 132/132/132
f 131/131/131 132/132/132 31/31/31
f 31/31/31 32/32/32 131/131/131
f 130/130/130 131/131/131 32/32/32
f 32/32/32 33/33/33 130/130/130
f 129/129/129 130/130/130 33/33/33
f 33/33/33 34/34/34 129/129/129
f 128/128/128 129/129/129 34/34/34
f 34/34/34 26/26/26 128/128/128
f 127/127/127 116/116/116 128/128/128
f 128/128/128 139/139/139 127/127/127
f 126/126/126 127/127/127 139/139/139
f 139/139/139 138/138/138 126/126/126
f 125/125/125 126/126/126 138/138/138
f 138/138/138 137/137/137 125/125/125
f 124/124/124 125/125/125 137/137/137
f 137/137/137 136/136/136 124/124/124
f 123/123/123 124/124/124 136/136/136
f 136/136/136 135/135/135 123/123/123
f 122/122/122 123/123/123 135/135/135
f 135/135/135 134/134/134 122/122/122
f 121/121/121 122/122/122 134/134/134
f 134/134/134 133/133/133 121/121/121
f 120/120/120 121/121/121 133/133/133
f 133/133/133 132/132/132 120/120/120
f 119/119/119 120/120/120 132/132/132
f 132/132/132 131/131/131 119/119/119
f 118/118/118 119/119/119 131/131/131
f 131/131/131 130/130/130 118/118/118
f 117/117/117 118/118/118 130/130/130
f 130/130/130 129/129/129 117/117/117
f 116/116/116 117/117/117 129/129/129
f 129/129/129 128/128/128 116/116/116
f 115/115/115 116/116/116 127/127/127
f 115/115/115 127/127/127 126/126/126
f 115/115/115 126/126/126 125/125/125
f 115/115/115 125/125/125 124/124/124
f 115/115/115 124/124/124 123/123/123
f 115/115/115 123/123/123 122/122/122
f 115/115/115 122/122/122 121/121/121
f 115/115/115 121/121/121 120/120/120
f 115/115/115 120/120/120 119/119/119
f 115/115/115 119/119/119 118/118/118
f 115/115/115 118/118/118 117/117/117
f 115/115/115 117/117/117 116/116/116
f 111/111/111 113/113/113 114/114/114
f 114/114/114 112/112/112 111/111/111
f 110/110/110 111/111/111 112/112/112
f 106/106/106 108/108/108 109/109/109
f 109/109/109 107/107/107 106/106/106
f 105/105/105 106/106/106 107/107/107
f 101/101/101 103/103/103 104/104/104
f 104/104/104 102/102/102 101/101/101
f 100/100/100 101/101/101 102/102/102
f 96/96/96 98/98/98 99/99/99
f 99/99/99 97/97/97 96/96/96
f 95/95/95 96/96/96 97/97/97
f 91/91/91 93/93/93 94/94/94
f 94/94/94 92/92/92 91/91/91
f 90/90/90 91/91/91 92/92/92
f 86/86/86 88/88/88 89/89/89
f 89/89/89 87/87/87 86/86/86
f 85/85/85 86/86/86 87/87/87
f 81/81/81 83/83/83 84/84/84
f 84/84/84 82/82/82 81/81/81
f 80/80/80 81/81/81 82/82/82
f 76/76/76 78/78/78 79/79/79
f 79/79/79 77/77/77 76/76/76
f 75/75/75 76/76/76 77/77/77
f 71/71/71 73/73/73 74/74/74
f 74/74/74 72/72/72 71/71/71
f 70/70/70 71/71/71 72/72/72
f 66/66/66 68/68/68 69/69/69
f 69/69/69 67/67/67 66/66/66
f 65/65/65 66/66/66 67/67/67
f 61/61/61 63/63/63 64/64/64
f 64/64/64 62/62/62 61/61/61
f 60/60/60 61/61/61 62/62/62
f 56/56/56 58/58/58 59/59/59
f 59/59/59 57/57/57 56/56/56
f 55/55/55 56/56/56 57/57/57
f 51/51/51 53/53/53 54/54/54
f 54/54/54 52/52/52 51/51/51
f 50/50/50 51/51/51 52/52/52
f 46/46/46 48/48/48 49/49/49
f 49/49/49 47/47/47 46/46/46
f 45/45/45 46/46/46 47/47/47
f 41/41/41 43/43/43 44/44/44
f 44/44/44 42/42/42 41/41/41
f 40/40/40 41/41/41 42/42/42
f 38/38/38 36/36/36 37/37/37
f 37/37/37 39/39/39 38/38/38
f 35/35/35 38/38/38 39/39/39
f 25/25/25 14/14/14 26/26/26
f 26/26/26 34/34/34 25/25/25
f 24/24/24 25/25/25 34/34/34
f 34/34/34 33/33/33 24/24/24
f 23/23/23 24/24/24 33/33/33
f 33/33/33 32/32/32 23/23/23
f 22/22/22 23/23/23 32/32/32
f 32/32/32 31/31/31 22/22/22
f 21/21/21 22/22/22 31/31/31
f 31/31/31 30/30/30 21/21/21
f 20/20/20 21/21/21 30/30/30
f 30/30/30 29/29/29 20/20/20
f 19/19/19 20/20/20 29/29/29
f 29/29/29 28/28/28 19/19/19
f 18/18/18 19/19/19 28/28/28
f 28/28/28 27/27/27 18/18/18
f 17/17/17 18/18/18 27/27/27
f 27/27/27 140/140/140 17/17/17
f 16/16/16 17/17/17 140/140/140
f 140/140/140 141/141/141 16/16/16
f 15/15/15 16/16/16 141/141/141
f 141/141/141 142/142/142 15/15/15
f 14/14/14 15/15/15 142/142/142
f 142/142/142 26/26/26 14/14/14
f 13/13/13 2/2/2 14/14/14
f 14/14/14 25/25/25 13/13/13
f 12/12/12 13/13/13 25/25/25
f 25/25/25 24/24/24 12/12/12
f 11/11/11 12/12/12 24/24/24
f 24/24/24 23/23/23 11/11/11
f 10/10/10 11/11/11 23/23/23
f 23/23/23 22/22/22 10/10/10
f 9/9/9 10/10/10 22/22/22
f 22/22/22 21/21/21 9/9/9
f 8/8/8 9/9/9 21/21/21
f 21/21/21 20/20/20 8/8/8
f 7/7/7 8/8/8 20/20/20
f 20/20/20 19/19/19 7/7/7
f 6/6/6 7/7/7 19/19/19
f 19/19/19 18/18/18 6/6/6
f 5/5/5 6/6/6 18/18/18
f 18/18/18 17/17/17 5/5/5
f 4/4/4 5/5/5 17/17/17
f 17/17/17 16/16/16 4/4/4
f 3/3/3 4/4/4 16/16/16
f 16/16/16 15/15/15 3/3/3
f 2/2/2 3/3/3 15/15/15
f 15/15/15 14/14/14 2/2/2
f 1/1/1 2/2/2 13/13/13
f 1/1/1 13/13/13 12/12/12
f 1/1/1 12/12/12 11/11/11
f 1/1/1 11/11/11 10/10/10
f 1/1/1 10/10/10 9/9/9
f 1/1/1 9/9/9 8/8/8
f 1/1/1 8/8/8 7/7/7
f 1/1/1 7/7/7 6/6/6
f 1/1/1 6/6/6 5/5/5
f 1/1/1 5/5/5 4/4/4
f 1/1/1 4/4/4 3/3/3
f 1/1/1 3/3/3 2/2/2
