# Recovered local-space geometry; original node transforms not applied
o mesh_0
v -1.3667735402123071e-05 -1.0804534156250156e-07 50.53801727294922
v -1.3667735402123071e-05 30.377357482910156 41.47371292114258
v -15.188699722290039 26.307559967041016 41.47371292114258
v -26.307580947875977 15.188678741455078 41.47371292114258
v -30.37736701965332 4.483881639316678e-06 41.47371292114258
v -26.307580947875977 -15.188668251037598 41.47371292114258
v -15.188699722290039 -26.307552337646484 41.47371292114258
v -2.8361902877804823e-05 -30.377349853515625 41.47371292114258
v 15.188640594482422 -26.30756950378418 41.47371292114258
v 26.307540893554688 -15.18869400024414 41.47371292114258
v 30.377344131469727 -2.3769975086906925e-05 41.47371292114258
v 26.30755615234375 15.188652992248535 41.47371292114258
v 15.188685417175293 26.30754280090332 41.47371292114258
v -1.4456086319114547e-05 40.128211975097656 23.170024871826172
v -20.064125061035156 34.75204849243164 23.170024871826172
v -34.75205612182617 20.064102172851562 23.170024871826172
v -40.12822341918945 4.754431756737176e-06 23.170024871826172
v -34.75206756591797 -20.06409454345703 23.170024871826172
v -20.064136505126953 -34.752037048339844 23.170024871826172
v -3.6802346585318446e-05 -40.128204345703125 23.170024871826172
v 20.064069747924805 -34.752052307128906 23.170024871826172
v 34.75201416015625 -20.064130783081055 23.170024871826172
v 40.12819290161133 -3.250810186727904e-05 23.170024871826172
v 34.75204849243164 20.064069747924805 23.170024871826172
v 20.064117431640625 34.75202560424805 23.170024871826172
v -1.456438531022286e-05 42.24932098388672 0.0
v -21.124675750732422 36.58898162841797 0.0
v -36.58899688720703 21.12466049194336 0.0
v -42.24933624267578 4.511271527007921e-06 0.0
v -36.58900833129883 -21.124652862548828 0.0
v -21.12468719482422 -36.5889778137207 0.0
v -3.605350502766669e-05 -42.24932098388672 0.0
v 21.12462615966797 -36.58899688720703 0.0
v 36.58895492553711 -21.12468719482422 0.0
v 42.249305725097656 -3.4773187508108094e-05 0.0
v 36.5889892578125 21.1246280670166 0.0
v 21.124679565429688 36.588966369628906 0.0
v -1.456438531022286e-05 -9.69578559306683e-06 0.0
v -14.894546508789062 -53.77312469482422 81.6097412109375
v 7.637948036193848 -13.665760040283203 47.377994537353516
v -13.279425621032715 -8.060962677001953 47.377994537353516
v 2.3625431060791016 -28.389860153198242 64.43106079101562
v -17.147998809814453 -23.162033081054688 64.43106079101562
v 52.12751770019531 -18.690185546875 81.6097412109375
v 28.34489631652832 0.7135335206985474 64.43106079101562
v 21.436498641967773 -18.26712989807129 64.43106079101562
v 14.279449462890625 6.417832851409912 47.377994537353516
v 6.8729095458984375 -13.9314546585083 47.377994537353516
v 23.019437789916992 51.13451385498047 81.6097412109375
v 1.6167608499526978 29.133543014526367 64.43106079101562
v 19.923091888427734 20.5971622467041 64.43106079101562
v -5.148873329162598 14.784462928771973 47.377994537353516
v 14.477455139160156 5.632548809051514 47.377994537353516
v -53.18085861206055 19.36863136291504 81.6097412109375
v -29.39824104309082 -0.03509372100234032 64.43106079101562
v -22.48984146118164 18.94556999206543 64.43106079101562
v -14.279448509216309 -6.417829513549805 47.377994537353516
v -6.872908115386963 13.931455612182617 47.377994537353516
v -21.278257369995117 44.82611083984375 97.28453826904297
v -16.06156349182129 15.541604995727539 76.10675048828125
v -1.9822824001312256 22.10687828063965 76.10675048828125
v -12.760231018066406 4.790064811706543 46.5236930847168
v 4.524837970733643 12.850218772888184 46.5236930847168
v 45.958194732666016 17.15438461303711 97.28453826904297
v 16.668180465698242 14.53749942779541 76.10675048828125
v 21.981380462646484 -0.060409825295209885 76.10675048828125
v 6.129703998565674 12.307782173156738 46.5236930847168
v 12.652693748474121 -5.613999843597412 46.5236930847168
v 23.358057022094727 -42.70154571533203 97.38822937011719
v 17.754438400268555 -14.1746187210083 75.92813873291016
v 3.679765462875366 -20.7397403717041 76.3277587890625
v 14.10469913482666 -4.308099746704102 46.16923522949219
v -3.1747055053710938 -12.368062973022461 46.88522720336914
v -40.99616241455078 -27.15912437438965 97.38822937011719
v -12.76009750366211 -19.038333892822266 75.92813873291016
v -20.52692222595215 -5.589412212371826 76.3277587890625
v -2.839162826538086 -14.394471168518066 46.16923522949219
v -12.374455451965332 2.1167075634002686 46.88522720336914
v 20.661396026611328 45.1137580871582 110.52976989746094
v 1.5813870429992676 22.2938232421875 89.35198211669922
v 15.660665512084961 15.728540420532227 89.35198211669922
v -4.0908660888671875 11.5241117477417 45.55693435668945
v 11.53157901763916 4.23923921585083 45.55693435668945
v 42.682376861572266 -24.17939567565918 110.52976989746094
v 21.8504695892334 -3.4240434169769287 89.35198211669922
v 14.083081245422363 -16.877546310424805 89.35198211669922
v 12.08837890625 2.8129608631134033 45.55693435668945
v 3.469642400741577 -12.115118980407715 45.55693435668945
v -17.69701385498047 -45.34133529663086 110.63346862792969
v 0.553941547870636 -22.711957931518555 89.17337036132812
v -13.522255897521973 -16.150110244750977 89.57299041748047
v 5.217350482940674 -12.361754417419434 45.236568450927734
v -10.401671409606934 -5.080691337585449 45.88369369506836
v -47.156925201416016 13.94733715057373 110.63346862792969
v -22.786243438720703 -2.4628028869628906 89.17337036132812
v -17.47618865966797 12.131730079650879 89.57299041748047
v -11.609740257263184 -6.490269184112549 45.236568450927734
v -5.717672824859619 9.70390510559082 45.88369369506836
v -3.0865261554718018 34.49516296386719 124.2863998413086
v -6.696753025054932 13.80815601348877 92.15235137939453
v 4.228705883026123 14.764006614685059 92.15235137939453
v -7.102693557739258 5.8784332275390625 47.264583587646484
v 6.310441017150879 7.051926136016846 47.264583587646484
v 34.836666107177734 -0.09711633622646332 124.2863998413086
v 14.773760795593262 5.239159107208252 92.15235137939453
v 14.773756980895996 -5.728034973144531 92.15235137939453
v 7.244134902954102 6.304564952850342 47.264583587646484
v 7.244131565093994 -7.159803867340088 47.264583587646484
v 5.390983581542969 -34.348636627197266 124.44375610351562
v 8.561600685119629 -14.070791244506836 91.88133239746094
v -2.3607614040374756 -15.027652740478516 92.48768615722656
v 8.522714614868164 -6.644067287445068 46.726749420166016
v -4.886616230010986 -7.8187994956970215 47.81315994262695
v -33.54885482788086 -8.498902320861816 124.44375610351562
v -12.856173515319824 -9.929397583007812 91.88133239746094
v -14.76133918762207 0.8680059909820557 92.48768615722656
v -5.1533098220825195 -9.24414348602295 46.726749420166016
v -7.492273807525635 4.011775493621826 47.81315994262695
v -14.005207061767578 -50.74626159667969 81.6097412109375
v -16.12947654724121 -21.889989852905273 64.43106079101562
v 2.2625961303710938 -26.818124771118164 64.43106079101562
v -12.482675552368164 -7.6546101570129395 47.377994537353516
v 7.235581398010254 -12.938105583190918 47.377994537353516
v 49.17472457885742 -17.674497604370117 81.6097412109375
v 20.243112564086914 -17.275693893432617 64.43106079101562
v 26.755475997924805 0.6168761253356934 64.43106079101562
v 6.514399528503418 -13.188567161560059 47.377994537353516
v 13.496349334716797 5.994168281555176 47.377994537353516
v 21.735307693481445 48.147403717041016 81.6097412109375
v 18.816463470458984 19.36064910888672 64.43106079101562
v 1.5595669746398926 27.407670974731445 64.43106079101562
v 13.683004379272461 5.253901958465576 47.377994537353516
v -4.818218231201172 13.881169319152832 47.377994537353516
v -50.09670639038086 18.202545166015625 81.6097412109375
v -21.165090560913086 17.80373764038086 64.43106079101562
v -27.67745590209961 -0.08883506059646606 64.43106079101562
v -6.443419933319092 13.077061653137207 47.377994537353516
v -13.425369262695312 -6.1056718826293945 47.377994537353516
v -20.02296257019043 42.20063781738281 97.28453826904297
v -1.8331561088562012 20.7838191986084 76.10675048828125
v -15.105321884155273 14.594908714294434 76.10675048828125
v 4.300934314727783 12.057808876037598 46.5236930847168
v -11.993244171142578 4.459714412689209 46.5236930847168
v 43.359066009521484 16.115234375 97.28453826904297
v 20.756757736206055 -0.11269986629486084 76.10675048828125
v 15.748144149780273 13.648364067077637 76.10675048828125
v 11.962850570678711 -5.3479228019714355 46.5236930847168
v 5.8137993812561035 11.546467781066895 46.5236930847168
v 22.054513931274414 -40.30937576293945 97.38822937011719
v 3.5043070316314697 -19.606557846069336 76.3277587890625
v 16.772130966186523 -13.417792320251465 75.92813873291016
v -2.9572219848632812 -11.714800834655762 46.88522720336914
v 13.33161735534668 -4.116885185241699 46.16923522949219
v -38.610511779785156 -25.657941818237305 97.38822937011719
v -19.314697265625 -5.324744701385498 76.3277587890625
v -11.993118286132812 -18.002687454223633 75.92813873291016
v -11.629583358764648 1.9396113157272339 46.88522720336914
v -2.6409149169921875 -13.625041007995605 46.16923522949219
v 19.51244354248047 42.47179412841797 110.52976989746094
v 14.798385620117188 14.771126747131348 89.35198211669922
v 1.5262210369110107 20.960046768188477 89.35198211669922
v 10.906005859375 3.9404659271240234 45.55693435668945
v -3.820862293243408 10.807723045349121 45.55693435668945
v 40.27103805541992 -22.849029541015625 110.52976989746094
v 13.311239242553711 -15.965771675109863 89.35198211669922
v 20.633352279663086 -3.28350830078125 89.35198211669922
v 3.30622935295105 -11.47635555267334 45.55693435668945
v 11.430885314941406 2.5959510803222656 45.55693435668945
v -16.647018432617188 -42.79783630371094 110.63346862792969
v -12.711584091186523 -15.280035972595215 89.57299041748047
v 0.5576752424240112 -21.465715408325195 89.17337036132812
v -9.769891738891602 -4.845186710357666 45.88369369506836
v 4.953747749328613 -11.708853721618652 45.236568450927734
v -44.4181022644043 13.092034339904785 110.63346862792969
v -16.438852310180664 11.380509376525879 89.57299041748047
v -21.444499969482422 -2.3773722648620605 89.17337036132812
v -5.354410171508789 9.091862678527832 45.88369369506836
v -10.908706665039062 -6.173958778381348 45.236568450927734
v -2.8740978240966797 32.4619255065918 124.2863998413086
v 4.021778583526611 13.861886024475098 92.15235137939453
v -6.277363300323486 12.960831642150879 92.15235137939453
v 5.984175205230713 6.591911315917969 47.264583587646484
v -6.660032749176025 5.485690593719482 47.264583587646484
v 32.87509536743164 -0.14730215072631836 124.2863998413086
v 13.962320327758789 -5.45542049407959 92.15235137939453
v 13.962324142456055 4.883063793182373 92.15235137939453
v 6.864340782165527 -6.805111408233643 47.264583587646484
v 6.864344120025635 5.887393951416016 47.264583587646484
v 5.117426872253418 -32.435306549072266 124.44375610351562
v -2.1899383068084717 -14.221924781799316 92.48768615722656
v 8.106284141540527 -13.319916725158691 91.88133239746094
v -4.570995330810547 -7.426329135894775 47.81315994262695
v 8.06962776184082 -6.318940162658691 46.726749420166016
v -31.590129852294922 -8.06744384765625 124.44375610351562
v -13.879634857177734 0.7624932527542114 92.48768615722656
v -12.083686828613281 -9.415934562683105 91.88133239746094
v -7.027279853820801 3.726041793823242 47.81315994262695
v -4.822400093078613 -8.769963264465332 46.726749420166016
v -21.124675750732422 36.58898162841797 0.0
v -1.456438531022286e-05 42.24932098388672 0.0
v -36.58899688720703 21.12466049194336 0.0
v -42.24933624267578 4.511271527007921e-06 0.0
v -36.58900833129883 -21.124652862548828 0.0
v -21.12468719482422 -36.5889778137207 0.0
v -3.605350502766669e-05 -42.24932098388672 0.0
v 21.12462615966797 -36.58899688720703 0.0
v 36.58895492553711 -21.12468719482422 0.0
v 42.249305725097656 -3.4773187508108094e-05 0.0
v 36.5889892578125 21.1246280670166 0.0
v 21.124679565429688 36.588966369628906 0.0
vt 0.3128097653388977 0.005599558353424072
vt 0.33871665596961975 0.03158086538314819
vt 0.3129267394542694 0.03156918287277222
vt 0.2871367931365967 0.03158086538314819
vt 0.3129267394542694 0.03156918287277222
vt 0.33871665596961975 0.03158086538314819
vt 0.3129267394542694 0.03156918287277222
vt 0.2871367931365967 0.03158086538314819
vt 0.3129267394542694 0.03156918287277222
vt 0.33871665596961975 0.03158086538314819
vt 0.3129267394542694 0.03156918287277222
vt 0.2871367931365967 0.03158086538314819
vt 0.3129267394542694 0.03156918287277222
vt 0.36072301864624023 0.06503134965896606
vt 0.3129267394542694 0.06495994329452515
vt 0.2651304304599762 0.06503129005432129
vt 0.3129267394542694 0.06495994329452515
vt 0.36072301864624023 0.06503134965896606
vt 0.3129267394542694 0.06495994329452515
vt 0.2651304304599762 0.06503129005432129
vt 0.3129267394542694 0.06495994329452515
vt 0.36072301864624023 0.06503134965896606
vt 0.3129267394542694 0.06495994329452515
vt 0.2651304304599762 0.06503129005432129
vt 0.3129267394542694 0.06495994329452515
vt 0.3728996813297272 0.12286913394927979
vt 0.31292667984962463 0.12282806634902954
vt 0.25295373797416687 0.12286907434463501
vt 0.31292667984962463 0.12282806634902954
vt 0.3728996813297272 0.12286913394927979
vt 0.31292667984962463 0.12282806634902954
vt 0.25295373797416687 0.12286907434463501
vt 0.31292667984962463 0.12282806634902954
vt 0.3728996813297272 0.12286913394927979
vt 0.31292667984962463 0.12282806634902954
vt 0.25295373797416687 0.12286907434463501
vt 0.31292667984962463 0.12282806634902954
vt 0.31276845932006836 0.1274888515472412
vt 0.3630378246307373 0.041532158851623535
vt 0.353308767080307 0.0008404254913330078
vt 0.37208011746406555 0.0008548498153686523
vt 0.3564811944961548 0.021184921264648438
vt 0.3695272207260132 0.021194934844970703
vt 0.3630378246307373 0.041532158851623535
vt 0.3564811944961548 0.021184921264648438
vt 0.3695272207260132 0.021194934844970703
vt 0.353308767080307 0.0008404254913330078
vt 0.37208011746406555 0.0008548498153686523
vt 0.3630378246307373 0.041532158851623535
vt 0.3564811944961548 0.021184921264648438
vt 0.3695272207260132 0.021194934844970703
vt 0.353308767080307 0.0008404254913330078
vt 0.37208011746406555 0.0008548498153686523
vt 0.3630378246307373 0.041532158851623535
vt 0.3564811944961548 0.021184921264648438
vt 0.3695272207260132 0.021194934844970703
vt 0.353308767080307 0.0008404254913330078
vt 0.37208011746406555 0.0008548498153686523
vt 0.3630378246307373 0.041532158851623535
vt 0.3564811944961548 0.021184921264648438
vt 0.3695272207260132 0.021194934844970703
vt 0.353308767080307 0.0008404254913330078
vt 0.37208011746406555 0.0008548498153686523
vt 0.3630378246307373 0.041532158851623535
vt 0.3564811944961548 0.021184921264648438
vt 0.3695272207260132 0.021194934844970703
vt 0.353308767080307 0.0008404254913330078
vt 0.37208011746406555 0.0008548498153686523
vt 0.3630378246307373 0.041532158851623535
vt 0.3564811944961548 0.021184921264648438
vt 0.3695272207260132 0.021194934844970703
vt 0.353308767080307 0.0008404254913330078
vt 0.37208011746406555 0.0008548498153686523
vt 0.3630378246307373 0.041532158851623535
vt 0.3564811944961548 0.021184921264648438
vt 0.3695272207260132 0.021194934844970703
vt 0.353308767080307 0.0008404254913330078
vt 0.37208011746406555 0.0008548498153686523
vt 0.3630378246307373 0.041532158851623535
vt 0.3564811944961548 0.021184921264648438
vt 0.3695272207260132 0.021194934844970703
vt 0.353308767080307 0.0008404254913330078
vt 0.37208011746406555 0.0008548498153686523
vt 0.3630378246307373 0.041532158851623535
vt 0.3564811944961548 0.021184921264648438
vt 0.3695272207260132 0.021194934844970703
vt 0.353308767080307 0.0008404254913330078
vt 0.37208011746406555 0.0008548498153686523
vt 0.3630378246307373 0.041532158851623535
vt 0.3564811944961548 0.021184921264648438
vt 0.3695272207260132 0.021194934844970703
vt 0.353308767080307 0.0008404254913330078
vt 0.37208011746406555 0.0008548498153686523
vt 0.3630378246307373 0.041532158851623535
vt 0.3564811944961548 0.021184921264648438
vt 0.3695272207260132 0.021194934844970703
vt 0.353308767080307 0.0008404254913330078
vt 0.37208011746406555 0.0008548498153686523
vt 0.3630378246307373 0.041532158851623535
vt 0.3564811944961548 0.021184921264648438
vt 0.3695272207260132 0.021194934844970703
vt 0.353308767080307 0.0008404254913330078
vt 0.37208011746406555 0.0008548498153686523
vt 0.3630378246307373 0.041532158851623535
vt 0.3564811944961548 0.021184921264648438
vt 0.3695272207260132 0.021194934844970703
vt 0.353308767080307 0.0008404254913330078
vt 0.37208011746406555 0.0008548498153686523
vt 0.3630378246307373 0.041532158851623535
vt 0.3564811944961548 0.021184921264648438
vt 0.3695272207260132 0.021194934844970703
vt 0.353308767080307 0.0008404254913330078
vt 0.37208011746406555 0.0008548498153686523
vt 0.3630378246307373 0.041532158851623535
vt 0.3564811944961548 0.021184921264648438
vt 0.3695272207260132 0.021194934844970703
vt 0.353308767080307 0.0008404254913330078
vt 0.37208011746406555 0.0008548498153686523
vt 0.3630378246307373 0.041532158851623535
vt 0.3695272207260132 0.021194934844970703
vt 0.3564811944961548 0.021184921264648438
vt 0.37208011746406555 0.0008548498153686523
vt 0.353308767080307 0.0008404254913330078
vt 0.3630378246307373 0.041532158851623535
vt 0.3695272207260132 0.021194934844970703
vt 0.3564811944961548 0.021184921264648438
vt 0.37208011746406555 0.0008548498153686523
vt 0.353308767080307 0.0008404254913330078
vt 0.3630378246307373 0.041532158851623535
vt 0.3695272207260132 0.021194934844970703
vt 0.3564811944961548 0.021184921264648438
vt 0.37208011746406555 0.0008548498153686523
vt 0.353308767080307 0.0008404254913330078
vt 0.3630378246307373 0.041532158851623535
vt 0.3695272207260132 0.021194934844970703
vt 0.3564811944961548 0.021184921264648438
vt 0.37208011746406555 0.0008548498153686523
vt 0.353308767080307 0.0008404254913330078
vt 0.3630378246307373 0.041532158851623535
vt 0.3695272207260132 0.021194934844970703
vt 0.3564811944961548 0.021184921264648438
vt 0.37208011746406555 0.0008548498153686523
vt 0.353308767080307 0.0008404254913330078
vt 0.3630378246307373 0.041532158851623535
vt 0.3695272207260132 0.021194934844970703
vt 0.3564811944961548 0.021184921264648438
vt 0.37208011746406555 0.0008548498153686523
vt 0.353308767080307 0.0008404254913330078
vt 0.3630378246307373 0.041532158851623535
vt 0.3695272207260132 0.021194934844970703
vt 0.3564811944961548 0.021184921264648438
vt 0.37208011746406555 0.0008548498153686523
vt 0.353308767080307 0.0008404254913330078
vt 0.3630378246307373 0.041532158851623535
vt 0.3695272207260132 0.021194934844970703
vt 0.3564811944961548 0.021184921264648438
vt 0.37208011746406555 0.0008548498153686523
vt 0.353308767080307 0.0008404254913330078
vt 0.3630378246307373 0.041532158851623535
vt 0.3695272207260132 0.021194934844970703
vt 0.3564811944961548 0.021184921264648438
vt 0.37208011746406555 0.0008548498153686523
vt 0.353308767080307 0.0008404254913330078
vt 0.3630378246307373 0.041532158851623535
vt 0.3695272207260132 0.021194934844970703
vt 0.3564811944961548 0.021184921264648438
vt 0.37208011746406555 0.0008548498153686523
vt 0.353308767080307 0.0008404254913330078
vt 0.3630378246307373 0.041532158851623535
vt 0.3695272207260132 0.021194934844970703
vt 0.3564811944961548 0.021184921264648438
vt 0.37208011746406555 0.0008548498153686523
vt 0.353308767080307 0.0008404254913330078
vt 0.3630378246307373 0.041532158851623535
vt 0.3695272207260132 0.021194934844970703
vt 0.3564811944961548 0.021184921264648438
vt 0.37208011746406555 0.0008548498153686523
vt 0.353308767080307 0.0008404254913330078
vt 0.3630378246307373 0.041532158851623535
vt 0.3695272207260132 0.021194934844970703
vt 0.3564811944961548 0.021184921264648438
vt 0.37208011746406555 0.0008548498153686523
vt 0.353308767080307 0.0008404254913330078
vt 0.3630378246307373 0.041532158851623535
vt 0.3695272207260132 0.021194934844970703
vt 0.3564811944961548 0.021184921264648438
vt 0.37208011746406555 0.0008548498153686523
vt 0.353308767080307 0.0008404254913330078
vt 0.3630378246307373 0.041532158851623535
vt 0.3695272207260132 0.021194934844970703
vt 0.3564811944961548 0.021184921264648438
vt 0.37208011746406555 0.0008548498153686523
vt 0.353308767080307 0.0008404254913330078
vt 0.3630378246307373 0.041532158851623535
vt 0.3695272207260132 0.021194934844970703
vt 0.3564811944961548 0.021184921264648438
vt 0.37208011746406555 0.0008548498153686523
vt 0.353308767080307 0.0008404254913330078
vt 0.3127683699131012 0.24928629398345947
vt 0.37290158867836 0.23891466856002808
vt 0.25354859232902527 0.23921912908554077
vt 0.3127683699131012 0.24928629398345947
vt 0.37290158867836 0.23891466856002808
vt 0.3127683699131012 0.24928629398345947
vt 0.25354859232902527 0.23921912908554077
vt 0.3127683699131012 0.24928629398345947
vt 0.37290158867836 0.23891466856002808
vt 0.3127683699131012 0.24928629398345947
vt 0.25354859232902527 0.23921912908554077
vt 0.3127683699131012 0.24928629398345947
vn -1.8195292383893502e-08 -7.278116953557401e-08 1.0
vn -0.05053700879216194 0.6910341382026672 0.7210533618927002
vn -0.389283686876297 0.5731844902038574 0.7210532426834106
vn -0.6237217783927917 0.3017506003379822 0.7210531830787659
vn -0.691034197807312 -0.05053718388080597 0.7210533022880554
vn -0.5731846690177917 -0.3892833888530731 0.7210532426834106
vn -0.30175071954727173 -0.6237216591835022 0.7210532426834106
vn 0.05053688585758209 -0.691034197807312 0.7210532426834106
vn 0.389283150434494 -0.5731849074363708 0.7210531830787659
vn 0.6237215995788574 -0.3017512559890747 0.7210531830787659
vn 0.691034197807312 0.05053679272532463 0.7210532426834106
vn 0.5731848478317261 0.3892832100391388 0.7210532426834106
vn 0.30175113677978516 0.6237214803695679 0.7210532426834106
vn -0.004852256737649441 0.9579139947891235 0.2870144248008728
vn -0.4831596314907074 0.8271514177322388 0.2870144248008728
vn -0.8320041298866272 0.47475457191467285 0.28701433539390564
vn -0.9579140543937683 -0.004852444399148226 0.28701451420783997
vn -0.8271517157554626 -0.48315930366516113 0.28701457381248474
vn -0.4747547507286072 -0.8320039510726929 0.28701454401016235
vn 0.004852234851568937 -0.9579139351844788 0.28701460361480713
vn 0.4831589460372925 -0.8271517753601074 0.28701457381248474
vn 0.8320038318634033 -0.47475525736808777 0.2870144546031952
vn 0.9579139947891235 0.004851824603974819 0.2870143949985504
vn 0.8271518349647522 0.4831588864326477 0.28701457381248474
vn 0.47475507855415344 0.8320037722587585 0.2870144844055176
vn 0.08859510719776154 0.9919200539588928 0.09080583602190018
vn -0.4192348122596741 0.9033252596855164 0.09080561250448227
vn -0.814730703830719 0.5726852416992188 0.09080587327480316
vn -0.9919200539588928 0.08859504014253616 0.09080593287944794
vn -0.9033254384994507 -0.41923457384109497 0.09080597758293152
vn -0.5726855397224426 -0.8147303462028503 0.09080591797828674
vn -0.08859515935182571 -0.9919199347496033 0.0908060148358345
vn 0.4192342162132263 -0.9033254981040955 0.09080610424280167
vn 0.814730167388916 -0.5726858377456665 0.0908060222864151
vn 0.9919199347496033 -0.08859554678201675 0.09080591797828674
vn 0.903325617313385 0.4192339777946472 0.09080597013235092
vn 0.5726858973503113 0.8147301077842712 0.09080608934164047
vn 0.0 0.0 -1.0
vn -0.13196058571338654 -0.49248427152633667 -0.8602590560913086
vn -0.191036194562912 -0.7129562497138977 -0.6746840476989746
vn -0.19103597104549408 -0.7129561901092529 -0.6746841669082642
vn -0.17301581799983978 -0.6457042098045349 -0.7437282204627991
vn -0.16327396035194397 -0.6093475222587585 -0.7759105563163757
vn 0.4791090488433838 -0.17438144981861115 -0.8602591753005981
vn 0.6344966292381287 -0.23093797266483307 -0.7376189231872559
vn 0.59773188829422 -0.2175566405057907 -0.7716124057769775
vn 0.7021325826644897 -0.25555554032325745 -0.6646061539649963
vn 0.702132523059845 -0.25555548071861267 -0.6646062135696411
vn 0.215474933385849 0.46208757162094116 -0.8602590560913086
vn 0.2806651294231415 0.6018881797790527 -0.747634768486023
vn 0.26516807079315186 0.5686547756195068 -0.7786639928817749
vn 0.3094298541545868 0.6635739207267761 -0.6811188459396362
vn 0.30942970514297485 0.6635739207267761 -0.681118905544281
vn -0.4791089594364166 0.17438147962093353 -0.8602591156959534
vn -0.6163616180419922 0.22433742880821228 -0.7548319697380066
vn -0.5836241841316223 0.2124219536781311 -0.7837473750114441
vn -0.6775031089782715 0.24659116566181183 -0.6929519176483154
vn -0.6775031089782715 0.24659115076065063 -0.6929519772529602
vn -0.2506730854511261 0.5375704765319824 -0.8050968647003174
vn -0.36037886142730713 0.7728354334831238 -0.5223528146743774
vn -0.3369547426700592 0.722602128982544 -0.603579044342041
vn -0.3955081105232239 0.8481705188751221 -0.352392315864563
vn -0.3955081105232239 0.8481703996658325 -0.352392315864563
vn 0.5615019798278809 0.20436982810497284 -0.8018407225608826
vn 0.8068171739578247 0.29365721344947815 -0.5126514434814453
vn 0.754734456539154 0.2747006416320801 -0.5957478284835815
vn 0.8839961290359497 0.3217480182647705 -0.33915963768959045
vn 0.8839960098266602 0.3217479884624481 -0.33915963768959045
vn 0.23583942651748657 -0.5541968941688538 -0.7982766628265381
vn 0.35108619928359985 -0.7867987751960754 -0.5076280236244202
vn 0.32698875665664673 -0.7370216250419617 -0.5915045142173767
vn 0.3873051404953003 -0.8598715662956238 -0.33258959650993347
vn 0.3889092803001404 -0.8587263822555542 -0.3336743712425232
vn -0.5281152129173279 -0.28118056058883667 -0.8012688755989075
vn -0.748760461807251 -0.4154384136199951 -0.5164967179298401
vn -0.7012051343917847 -0.38716065883636475 -0.5986801981925964
vn -0.8193081617355347 -0.45820969343185425 -0.34464192390441895
vn -0.8179723620414734 -0.45975756645202637 -0.3457516133785248
vn 0.25067341327667236 0.5375702977180481 -0.8050969243049622
vn 0.37314802408218384 0.8002176880836487 -0.4694807529449463
vn 0.34800946712493896 0.7463078498840332 -0.5673746466636658
vn 0.40721839666366577 0.8732817769050598 -0.26749229431152344
vn 0.40721839666366577 0.8732817769050598 -0.26749229431152344
vn 0.5174828767776489 -0.29876908659935 -0.8018407225608826
vn 0.7687757015228271 -0.44385313987731934 -0.46041107177734375
vn 0.7175100445747375 -0.41425493359565735 -0.5599751472473145
vn 0.8372860550880432 -0.4834076464176178 -0.2554781436920166
vn 0.8372860550880432 -0.4834076762199402 -0.2554781436920166
vn -0.27294492721557617 -0.5368944406509399 -0.7982765436172485
vn -0.3876150846481323 -0.8012871742248535 -0.45573392510414124
vn -0.3641747534275055 -0.7473690509796143 -0.5557124018669128
vn -0.4175785183906555 -0.873542845249176 -0.25010210275650024
vn -0.41619664430618286 -0.8740435242652893 -0.25065574049949646
vn -0.5548627376556396 0.22382043302059174 -0.8012688755989075
vn -0.8279117941856384 0.31508123874664307 -0.46398934721946716
vn -0.7719224095344543 0.2962563633918762 -0.5624659657478333
vn -0.9037637710571289 0.339253693819046 -0.26099422574043274
vn -0.904154360294342 0.33776992559432983 -0.26156526803970337
vn -0.07369057834148407 0.8422899842262268 -0.5339637398719788
vn -0.08319438993930817 0.9509196281433105 -0.298044890165329
vn -0.08130902051925659 0.9293695092201233 -0.3600848913192749
vn -0.0858478844165802 0.9812494516372681 -0.17256787419319153
vn -0.0858478993177414 0.9812494516372681 -0.17256788909435272
vn 0.8482458591461182 -2.950436908122356e-07 -0.5296026468276978
vn 0.9564850926399231 -2.9927505806881527e-07 -0.29178115725517273
vn 0.9351322650909424 -3.252652049923199e-07 -0.35429877042770386
vn 0.986221194267273 -2.444874098728178e-07 -0.16543209552764893
vn 0.986221194267273 -2.937614169695735e-07 -0.16543208062648773
vn 0.04532233625650406 -0.8499622941017151 -0.5248904824256897
vn 0.06629243493080139 -0.9552897214889526 -0.2881437838077545
vn 0.06239823251962662 -0.9344403743743896 -0.3506104052066803
vn 0.0730934590101242 -0.9840931296348572 -0.1619199961423874
vn 0.07510458678007126 -0.9838463664054871 -0.16249871253967285
vn -0.8403946757316589 -0.11858644336462021 -0.5288421511650085
vn -0.9442319273948669 -0.14863352477550507 -0.29382672905921936
vn -0.9235354661941528 -0.14297015964984894 -0.3558676242828369
vn -0.9729964733123779 -0.15788237750530243 -0.16837823390960693
vn -0.9725559949874878 -0.15994301438331604 -0.16897651553153992
vn 0.13775944709777832 0.5141258835792542 0.8465795516967773
vn 0.16878867149353027 0.629928708076477 0.7580898404121399
vn 0.17839278280735016 0.6657711863517761 0.7245169878005981
vn 0.19607046246528625 0.7317449450492859 0.6527678370475769
vn 0.19607064127922058 0.7317449450492859 0.6527676582336426
vn -0.5001629590988159 0.18204441666603088 0.8465794920921326
vn -0.6176027059555054 0.22478900849819183 0.7536823153495789
vn -0.6538065671920776 0.23796619474887848 0.718268096446991
vn -0.7200660705566406 0.26208269596099854 0.6425087451934814
vn -0.7200661301612854 0.2620828151702881 0.6425086855888367
vn -0.22494374215602875 -0.4823934733867645 0.8465794920921326
vn -0.27421483397483826 -0.5880557298660278 0.7609183192253113
vn -0.28950390219688416 -0.6208429932594299 0.7285200953483582
vn -0.3177467882633209 -0.681410014629364 0.6593310832977295
vn -0.31774693727493286 -0.6814099550247192 0.6593310236930847
vn 0.5001628994941711 -0.18204444646835327 0.8465795516967773
vn 0.6039043068885803 -0.21980325877666473 0.766150176525116
vn 0.6362465023994446 -0.2315748631954193 0.7359099984169006
vn 0.696378767490387 -0.2534612715244293 0.6714268326759338
vn 0.696378767490387 -0.2534613311290741 0.6714268326759338
vn 0.26024192571640015 -0.5580908060073853 0.7879142165184021
vn 0.34291285276412964 -0.7353792786598206 0.584489643573761
vn 0.3651582896709442 -0.7830847501754761 0.5034259557723999
vn 0.39827173948287964 -0.8540968894958496 0.3345121145248413
vn 0.3982716202735901 -0.8540968298912048 0.33451205492019653
vn -0.5827528238296509 -0.21210451424121857 0.7844812273979187
vn -0.7676588892936707 -0.27940478920936584 0.5767432451248169
vn -0.8170545101165771 -0.29738327860832214 0.4939485192298889
vn -0.8897131681442261 -0.32382887601852417 0.3217845857143402
vn -0.8897131681442261 -0.32382887601852417 0.3217845857143402
vn -0.24468134343624115 0.5749746561050415 0.7807273864746094
vn -0.33237525820732117 0.7495307326316833 0.5724775195121765
vn -0.35534778237342834 0.7966265082359314 0.4889930188655853
vn -0.3913431167602539 0.8641003370285034 0.3165144622325897
vn -0.38971295952796936 0.8652172684669495 0.3154725730419159
vn 0.5480723977088928 0.291806161403656 0.7838786840438843
vn 0.7134747505187988 0.3937668800354004 0.5795700550079346
vn 0.7585106492042542 0.42072102427482605 0.4976499080657959
vn 0.823472261428833 0.4628489017486572 0.32812246680259705
vn 0.8247813582420349 0.46127066016197205 0.3270551562309265
vn -0.2602422833442688 -0.5580906271934509 0.7879142165184021
vn -0.35311418771743774 -0.7572547793388367 0.5494320392608643
vn -0.37687578797340393 -0.8082117438316345 0.45250239968299866
vn -0.40885066986083984 -0.8767821788787842 0.25316867232322693
vn -0.4088505804538727 -0.8767821192741394 0.25316864252090454
vn -0.5370677709579468 0.31007644534111023 0.7844812273979187
vn -0.727704644203186 0.42014080286026 0.5421509742736816
vn -0.7761080861091614 0.4480865001678467 0.443705677986145
vn -0.8403457999229431 0.48517417907714844 0.24171262979507446
vn -0.8403457999229431 0.48517417907714844 0.24171262979507446
vn 0.28317806124687195 0.5570235252380371 0.780727207660675
vn 0.3694395422935486 0.7577567100524902 0.537883996963501
vn 0.39136379957199097 0.808711588382721 0.43911272287368774
vn 0.41766032576560974 0.8771175146102905 0.23711752891540527
vn 0.41904065012931824 0.8766014575958252 0.23659008741378784
vn 0.5758306980133057 -0.23227843642234802 0.7838786840438843
vn 0.7829894423484802 -0.3006983697414398 0.5445255041122437
vn 0.8359326720237732 -0.31828391551971436 0.44711512327194214
vn 0.9076187014579773 -0.3390640318393707 0.24751542508602142
vn 0.907211422920227 -0.3405478298664093 0.24697089195251465
vn 0.07488905638456345 -0.8559895157814026 0.511540412902832
vn 0.08186164498329163 -0.9356868267059326 0.3432040810585022
vn 0.0835791751742363 -0.9553181529045105 0.2835167944431305
vn 0.08599057793617249 -0.9828806519508362 0.16294562816619873
vn 0.08599060028791428 -0.9828806519508362 0.16294562816619873
vn -0.8618124127388 3.1799183375369466e-07 0.5072271227836609
vn -0.941279411315918 3.473136018783407e-07 0.33762866258621216
vn -0.960719108581543 3.19034086260217e-07 0.27752259373664856
vn -0.9877275824546814 3.1210174711304717e-07 0.15618664026260376
vn -0.9877275824546814 2.5975143103096343e-07 0.15618665516376495
vn -0.046034056693315506 0.8633098602294922 0.5025705695152283
vn -0.06271794438362122 0.9404672384262085 0.33404770493507385
vn -0.06651334464550018 0.9594212770462036 0.2740197479724884
vn -0.07521527260541916 0.9852960705757141 0.1534089893102646
vn -0.07320039719343185 0.9855329394340515 0.15286104381084442
vn 0.8537961840629578 0.12047738581895828 0.5064753293991089
vn 0.9296852350234985 0.1438380479812622 0.3391108512878418
vn 0.9484896659851074 0.14923709630966187 0.2794559895992279
vn 0.9741060137748718 0.16019786894321442 0.15954355895519257
vn 0.9745360612869263 0.15813219547271729 0.15897688269615173
vn 0.0 0.0 -1.0
vn 0.0 0.0 -1.0
vn 0.0 0.0 -1.0
vn 0.0 0.0 -1.0
vn 0.0 0.0 -1.0
vn 0.0 0.0 -1.0
vn 0.0 0.0 -1.0
vn 0.0 0.0 -1.0
vn 0.0 0.0 -1.0
vn 0.0 0.0 -1.0
vn 0.0 0.0 -1.0
vn 0.0 0.0 -1.0
f 196/196/196 198/198/198 197/197/197
f 197/197/197 195/195/195 196/196/196
f 194/194/194 196/196/196 195/195/195
f 191/191/191 193/193/193 192/192/192
f 192/192/192 190/190/190 191/191/191
f 189/189/189 191/191/191 190/190/190
f 186/186/186 188/188/188 187/187/187
f 187/187/187 185/185/185 186/186/186
f 184/184/184 186/186/186 185/185/185
f 181/181/181 183/183/183 182/182/182
f 182/182/182 180/180/180 181/181/181
f 179/179/179 181/181/181 180/180/180
f 176/176/176 178/178/178 177/177/177
f 177/177/177 175/175/175 176/176/176
f 174/174/174 176/176/176 175/175/175
f 171/171/171 173/173/173 172/172/172
f 172/172/172 170/170/170 171/171/171
f 169/169/169 171/171/171 170/170/170
f 166/166/166 168/168/168 167/167/167
f 167/167/167 165/165/165 166/166/166
f 164/164/164 166/166/166 165/165/165
f 161/161/161 163/163/163 162/162/162
f 162/162/162 160/160/160 161/161/161
f 159/159/159 161/161/161 160/160/160
f 156/156/156 158/158/158 157/157/157
f 157/157/157 155/155/155 156/156/156
f 154/154/154 156/156/156 155/155/155
f 151/151/151 153/153/153 152/152/152
f 152/152/152 150/150/150 151/151/151
f 149/149/149 151/151/151 150/150/150
f 146/146/146 148/148/148 147/147/147
f 147/147/147 145/145/145 146/146/146
f 144/144/144 146/146/146 145/145/145
f 141/141/141 143/143/143 142/142/142
f 142/142/142 140/140/140 141/141/141
f 139/139/139 141/141/141 140/140/140
f 136/136/136 138/138/138 137/137/137
f 137/137/137 135/135/135 136/136/136
f 134/134/134 136/136/136 135/135/135
f 131/131/131 133/133/133 132/132/132
f 132/132/132 130/130/130 131/131/131
f 129/129/129 131/131/131 130/130/130
f 126/126/126 128/128/128 127/127/127
f 127/127/127 125/125/125 126/126/126
f 124/124/124 126/126/126 125/125/125
f 121/121/121 123/123/123 122/122/122
f 122/122/122 120/120/120 121/121/121
f 119/119/119 121/121/121 120/120/120
f 115/115/115 116/116/116 118/118/118
f 118/118/118 117/117/117 115/115/115
f 114/114/114 116/116/116 115/115/115
f 110/110/110 111/111/111 113/113/113
f 113/113/113 112/112/112 110/110/110
f 109/109/109 111/111/111 110/110/110
f 105/105/105 106/106/106 108/108/108
f 108/108/108 107/107/107 105/105/105
f 104/104/104 106/106/106 105/105/105
f 100/100/100 101/101/101 103/103/103
f 103/103/103 102/102/102 100/100/100
f 99/99/99 101/101/101 100/100/100
f 95/95/95 96/96/96 98/98/98
f 98/98/98 97/97/97 95/95/95
f 94/94/94 96/96/96 95/95/95
f 90/90/90 91/91/91 93/93/93
f 93/93/93 92/92/92 90/90/90
f 89/89/89 91/91/91 90/90/90
f 85/85/85 86/86/86 88/88/88
f 88/88/88 87/87/87 85/85/85
f 84/84/84 86/86/86 85/85/85
f 80/80/80 81/81/81 83/83/83
f 83/83/83 82/82/82 80/80/80
f 79/79/79 81/81/81 80/80/80
f 75/75/75 76/76/76 78/78/78
f 78/78/78 77/77/77 75/75/75
f 74/74/74 76/76/76 75/75/75
f 70/70/70 71/71/71 73/73/73
f 73/73/73 72/72/72 70/70/70
f 69/69/69 71/71/71 70/70/70
f 65/65/65 66/66/66 68/68/68
f 68/68/68 67/67/67 65/65/65
f 64/64/64 66/66/66 65/65/65
f 60/60/60 61/61/61 63/63/63
f 63/63/63 62/62/62 60/60/60
f 59/59/59 61/61/61 60/60/60
f 55/55/55 56/56/56 58/58/58
f 58/58/58 57/57/57 55/55/55
f 54/54/54 56/56/56 55/55/55
f 50/50/50 51/51/51 53/53/53
f 53/53/53 52/52/52 50/50/50
f 49/49/49 51/51/51 50/50/50
f 45/45/45 46/46/46 48/48/48
f 48/48/48 47/47/47 45/45/45
f 44/44/44 46/46/46 45/45/45
f 42/42/42 43/43/43 41/41/41
f 41/41/41 40/40/40 42/42/42
f 39/39/39 43/43/43 42/42/42
f 200/200/200 210/210/210 38/38/38
f 210/210/210 209/209/209 38/38/38
f 209/209/209 208/208/208 38/38/38
f 208/208/208 207/207/207 38/38/38
f 207/207/207 206/206/206 38/38/38
f 206/206/206 205/205/205 38/38/38
f 205/205/205 204/204/204 38/38/38
f 204/204/204 203/203/203 38/38/38
f 203/203/203 202/202/202 38/38/38
f 202/202/202 201/201/201 38/38/38
f 201/201/201 199/199/199 38/38/38
f 199/199/199 200/200/200 38/38/38
f 25/25/25 37/37/37 26/26/26
f 26/26/26 14/14/14 25/25/25
f 24/24/24 36/36/36 37/37/37
f 37/37/37 25/25/25 24/24/24
f 23/23/23 35/35/35 36/36/36
f 36/36/36 24/24/24 23/23/23
f 22/22/22 34/34/34 35/35/35
f 35/35/35 23/23/23 22/22/22
f 21/21/21 33/33/33 34/34/34
f 34/34/34 22/22/22 21/21/21
f 20/20/20 32/32/32 33/33/33
f 33/33/33 21/21/21 20/20/20
f 19/19/19 31/31/31 32/32/32
f 32/32/32 20/20/20 19/19/19
f 18/18/18 30/30/30 31/31/31
f 31/31/31 19/19/19 18/18/18
f 17/17/17 29/29/29 30/30/30
f 30/30/30 18/18/18 17/17/17
f 16/16/16 28/28/28 29/29/29
f 29/29/29 17/17/17 16/16/16
f 15/15/15 27/27/27 28/28/28
f 28/28/28 16/16/16 15/15/15
f 14/14/14 26/26/26 27/27/27
f 27/27/27 15/15/15 14/14/14
f 13/13/13 25/25/25 14/14/14
f 14/14/14 2/2/2 13/13/13
f 12/12/12 24/24/24 25/25/25
f 25/25/25 13/13/13 12/12/12
f 11/11/11 23/23/23 24/24/24
f 24/24/24 12/12/12 11/11/11
f 10/10/10 22/22/22 23/23/23
f 23/23/23 11/11/11 10/10/10
f 9/9/9 21/21/21 22/22/22
f 22/22/22 10/10/10 9/9/9
f 8/8/8 20/20/20 21/21/21
f 21/21/21 9/9/9 8/8/8
f 7/7/7 19/19/19 20/20/20
f 20/20/20 8/8/8 7/7/7
f 6/6/6 18/18/18 19/19/19
f 19/19/19 7/7/7 6/6/6
f 5/5/5 17/17/17 18/18/18
f 18/18/18 6/6/6 5/5/5
f 4/4/4 16/16/16 17/17/17
f 17/17/17 5/5/5 4/4/4
f 3/3/3 15/15/15 16/16/16
f 16/16/16 4/4/4 3/3/3
f 2/2/2 14/14/14 15/15/15
f 15/15/15 3/3/3 2/2/2
f 1/1/1 13/13/13 2/2/2
f 1/1/1 12/12/12 13/13/13
f 1/1/1 11/11/11 12/12/12
f 1/1/1 10/10/10 11/11/11
f 1/1/1 9/9/9 10/10/10
f 1/1/1 8/8/8 9/9/9
f 1/1/1 7/7/7 8/8/8
f 1/1/1 6/6/6 7/7/7
f 1/1/1 5/5/5 6/6/6
f 1/1/1 4/4/4 5/5/5
f 1/1/1 3/3/3 4/4/4
f 1/1/1 2/2/2 3/3/3
