# Recovered local-space geometry; original node transforms not applied
o mesh_0
v -1.3667735402123071e-05 -1.0804534156250156e-07 50.53801727294922
v -1.3667735402123071e-05 30.377357482910156 41.47371292114258
v -15.188699722290039 26.307559967041016 41.47371292114258
v -26.307580947875977 15.188678741455078 41.47371292114258
v -30.37736701965332 4.483881639316678e-06 41.47371292114258
v -26.307580947875977 -15.188668251037598 41.47371292114258
v -15.188699722290039 -26.307552337646484 41.47371292114258
v -2.8361902877804823e-05 -30.377349853515625 41.47371292114258
v 15.188640594482422 -26.30756950378418 41.47371292114258
v 26.307540893554688 -15.18869400024414 41.47371292114258
v 30.377344131469727 -2.3769975086906925e-05 41.47371292114258
v 26.30755615234375 15.188652992248535 41.47371292114258
v 15.188685417175293 26.30754280090332 41.47371292114258
v -1.4456086319114547e-05 40.128211975097656 23.170024871826172
v -20.064125061035156 34.75204849243164 23.170024871826172
v -34.75205612182617 20.064102172851562 23.170024871826172
v -40.12822341918945 4.754431756737176e-06 23.170024871826172
v -34.75206756591797 -20.06409454345703 23.170024871826172
v -20.064136505126953 -34.752037048339844 23.170024871826172
v -3.6802346585318446e-05 -40.128204345703125 23.170024871826172
v 20.064069747924805 -34.752052307128906 23.170024871826172
v 34.75201416015625 -20.064130783081055 23.170024871826172
v 40.12819290161133 -3.250810186727904e-05 23.170024871826172
v 34.75204849243164 20.064069747924805 23.170024871826172
v 20.064117431640625 34.75202560424805 23.170024871826172
v -1.456438531022286e-05 42.24932098388672 0.0
v -21.124675750732422 36.58898162841797 0.0
v -36.58899688720703 21.12466049194336 0.0
v -42.24933624267578 4.511271527007921e-06 0.0
v -36.58900833129883 -21.124652862548828 0.0
v -21.12468719482422 -36.5889778137207 0.0
v -3.605350502766669e-05 -42.24932098388672 0.0
v 21.12462615966797 -36.58899688720703 0.0
v 36.58895492553711 -21.12468719482422 0.0
v 42.249305725097656 -3.4773187508108094e-05 0.0
v 36.5889892578125 21.1246280670166 0.0
v 21.124679565429688 36.588966369628906 0.0
v -1.456438531022286e-05 -9.69578559306683e-06 0.0
v -14.005207061767578 -50.74626159667969 81.6097412109375
v -16.12947654724121 -21.889989852905273 64.43106079101562
v 2.2625961303710938 -26.818124771118164 64.43106079101562
v -12.482675552368164 -7.6546101570129395 47.377994537353516
v 7.235581398010254 -12.938105583190918 47.377994537353516
v 49.17472457885742 -17.674497604370117 81.6097412109375
v 20.243112564086914 -17.275693893432617 64.43106079101562
v 26.755475997924805 0.6168761253356934 64.43106079101562
v 6.514399528503418 -13.188567161560059 47.377994537353516
v 13.496349334716797 5.994168281555176 47.377994537353516
v 21.735307693481445 48.147403717041016 81.6097412109375
v 18.816463470458984 19.36064910888672 64.43106079101562
v 1.5595669746398926 27.407670974731445 64.43106079101562
v 13.683004379272461 5.253901958465576 47.377994537353516
v -4.818218231201172 13.881169319152832 47.377994537353516
v -50.09670639038086 18.202545166015625 81.6097412109375
v -21.165090560913086 17.80373764038086 64.43106079101562
v -27.67745590209961 -0.08883506059646606 64.43106079101562
v -6.443419933319092 13.077061653137207 47.377994537353516
v -13.425369262695312 -6.1056718826293945 47.377994537353516
v -20.02296257019043 42.20063781738281 97.28453826904297
v -1.8331561088562012 20.7838191986084 76.10675048828125
v -15.105321884155273 14.594908714294434 76.10675048828125
v 4.300934314727783 12.057808876037598 46.5236930847168
v -11.993244171142578 4.459714412689209 46.5236930847168
v 43.359066009521484 16.115234375 97.28453826904297
v 20.756757736206055 -0.11269986629486084 76.10675048828125
v 15.748144149780273 13.648364067077637 76.10675048828125
v 11.962850570678711 -5.3479228019714355 46.5236930847168
v 5.8137993812561035 11.546467781066895 46.5236930847168
v 22.054513931274414 -40.30937576293945 97.38822937011719
v 3.5043070316314697 -19.606557846069336 76.3277587890625
v 16.772130966186523 -13.417792320251465 75.92813873291016
v -2.9572219848632812 -11.714800834655762 46.88522720336914
v 13.33161735534668 -4.116885185241699 46.16923522949219
v -38.610511779785156 -25.657941818237305 97.38822937011719
v -19.314697265625 -5.324744701385498 76.3277587890625
v -11.993118286132812 -18.002687454223633 75.92813873291016
v -11.629583358764648 1.9396113157272339 46.88522720336914
v -2.6409149169921875 -13.625041007995605 46.16923522949219
v 19.51244354248047 42.47179412841797 110.52976989746094
v 14.798385620117188 14.771126747131348 89.35198211669922
v 1.5262210369110107 20.960046768188477 89.35198211669922
v 10.906005859375 3.9404659271240234 45.55693435668945
v -3.820862293243408 10.807723045349121 45.55693435668945
v 40.27103805541992 -22.849029541015625 110.52976989746094
v 13.311239242553711 -15.965771675109863 89.35198211669922
v 20.633352279663086 -3.28350830078125 89.35198211669922
v 3.30622935295105 -11.47635555267334 45.55693435668945
v 11.430885314941406 2.5959510803222656 45.55693435668945
v -16.647018432617188 -42.79783630371094 110.63346862792969
v -12.711584091186523 -15.280035972595215 89.57299041748047
v 0.5576752424240112 -21.465715408325195 89.17337036132812
v -9.769891738891602 -4.845186710357666 45.88369369506836
v 4.953747749328613 -11.708853721618652 45.236568450927734
v -44.4181022644043 13.092034339904785 110.63346862792969
v -16.438852310180664 11.380509376525879 89.57299041748047
v -21.444499969482422 -2.3773722648620605 89.17337036132812
v -5.354410171508789 9.091862678527832 45.88369369506836
v -10.908706665039062 -6.173958778381348 45.236568450927734
v -2.8740978240966797 32.4619255065918 124.2863998413086
v 4.021778583526611 13.861886024475098 92.15235137939453
v -6.277363300323486 12.960831642150879 92.15235137939453
v 5.984175205230713 6.591911315917969 47.264583587646484
v -6.660032749176025 5.485690593719482 47.264583587646484
v 32.87509536743164 -0.14730215072631836 124.2863998413086
v 13.962320327758789 -5.45542049407959 92.15235137939453
v 13.962324142456055 4.883063793182373 92.15235137939453
v 6.864340782165527 -6.805111408233643 47.264583587646484
v 6.864344120025635 5.887393951416016 47.264583587646484
v 5.117426872253418 -32.435306549072266 124.44375610351562
v -2.1899383068084717 -14.221924781799316 92.48768615722656
v 8.106284141540527 -13.319916725158691 91.88133239746094
v -4.570995330810547 -7.426329135894775 47.81315994262695
v 8.06962776184082 -6.318940162658691 46.726749420166016
v -31.590129852294922 -8.06744384765625 124.44375610351562
v -13.879634857177734 0.7624932527542114 92.48768615722656
v -12.083686828613281 -9.415934562683105 91.88133239746094
v -7.027279853820801 3.726041793823242 47.81315994262695
v -4.822400093078613 -8.769963264465332 46.726749420166016
v -14.005207061767578 -50.74626159667969 81.60974884033203
v 2.2625961303710938 -26.818124771118164 64.43106842041016
v -16.12947654724121 -21.889989852905273 64.43106842041016
v 7.235581398010254 -12.938105583190918 47.37800598144531
v -12.482675552368164 -7.654609680175781 47.37800598144531
v 49.17472457885742 -17.674497604370117 81.60974884033203
v 26.755474090576172 0.6168766021728516 64.43106842041016
v 20.24311065673828 -17.275693893432617 64.43106842041016
v 13.496350288391113 5.994167327880859 47.37800598144531
v 6.514399528503418 -13.188567161560059 47.37800598144531
v 21.735305786132812 48.14740753173828 81.60974884033203
v 1.5595674514770508 27.407670974731445 64.43106842041016
v 18.816463470458984 19.36065101623535 64.43106842041016
v -4.818218231201172 13.881166458129883 47.37800598144531
v 13.683003425598145 5.253902435302734 47.37800598144531
v -50.09670639038086 18.202547073364258 81.60974884033203
v -27.67745590209961 -0.08883476257324219 64.43106842041016
v -21.165090560913086 17.803735733032227 64.43106842041016
v -13.425369262695312 -6.105670928955078 47.37800598144531
v -6.443419933319092 13.077058792114258 47.37800598144531
v -20.02296257019043 42.20063781738281 97.2845458984375
v -15.105321884155273 14.594911575317383 76.10675811767578
v -1.8331561088562012 20.783823013305664 76.10675811767578
v -11.993244171142578 4.459714889526367 46.52369689941406
v 4.300934791564941 12.057809829711914 46.52369689941406
v 43.359066009521484 16.115236282348633 97.2845458984375
v 15.748143196105957 13.64836311340332 76.10675811767578
v 20.756755828857422 -0.11269950866699219 76.10675811767578
v 5.813799858093262 11.546464920043945 46.52369689941406
v 11.962849617004395 -5.347923278808594 46.52369689941406
v 22.05451202392578 -40.30937576293945 97.38823699951172
v 16.77212905883789 -13.417792320251465 75.92814636230469
v 3.5043067932128906 -19.606557846069336 76.32776641845703
v 13.331616401672363 -4.116886138916016 46.16924285888672
v -2.9572219848632812 -11.714800834655762 46.88523864746094
v -38.610511779785156 -25.657941818237305 97.38823699951172
v -11.993118286132812 -18.002687454223633 75.92814636230469
v -19.314697265625 -5.324745178222656 76.32776641845703
v -2.6409149169921875 -13.625041007995605 46.16924285888672
v -11.629583358764648 1.9396114349365234 46.88523864746094
v 19.51244354248047 42.47179412841797 110.52978515625
v 1.5262212753295898 20.960046768188477 89.35198974609375
v 14.798386573791504 14.771127700805664 89.35198974609375
v -3.820862293243408 10.80772590637207 45.556941986083984
v 10.906006813049316 3.9404659271240234 45.556941986083984
v 40.27103805541992 -22.849029541015625 110.52978515625
v 20.633350372314453 -3.28350830078125 89.35198974609375
v 13.311238288879395 -15.965771675109863 89.35198974609375
v 11.430886268615723 2.5959510803222656 45.556941986083984
v 3.306229591369629 -11.47635555267334 45.556941986083984
v -16.647018432617188 -42.79783630371094 110.63348388671875
v 0.5576753616333008 -21.465715408325195 89.17337799072266
v -12.711584091186523 -15.280035972595215 89.572998046875
v 4.953747749328613 -11.708853721618652 45.236576080322266
v -9.769891738891602 -4.845186233520508 45.88370132446289
v -44.4181022644043 13.092035293579102 110.63348388671875
v -21.444499969482422 -2.3773727416992188 89.17337799072266
v -16.438852310180664 11.380510330200195 89.572998046875
v -10.908706665039062 -6.173957824707031 45.236576080322266
v -5.354410171508789 9.091859817504883 45.88370132446289
v -2.8740978240966797 32.46192169189453 124.28640747070312
v -6.277363300323486 12.960832595825195 92.15235900878906
v 4.0217790603637695 13.861886978149414 92.15235900878906
v -6.660032749176025 5.485691070556641 47.26458740234375
v 5.984175682067871 6.591911315917969 47.26458740234375
v 32.87509536743164 -0.14730262756347656 124.28640747070312
v 13.962323188781738 4.883064270019531 92.15235900878906
v 13.962319374084473 -5.455421447753906 92.15235900878906
v 6.864344596862793 5.887393951416016 47.26458740234375
v 6.864340782165527 -6.805110931396484 47.26458740234375
v 5.117426872253418 -32.435306549072266 124.44375610351562
v 8.106284141540527 -13.319916725158691 91.88134002685547
v -2.189938545227051 -14.221924781799316 92.4876937866211
v 8.06962776184082 -6.318939208984375 46.72676086425781
v -4.570995330810547 -7.426328659057617 47.81317138671875
v -31.590129852294922 -8.06744384765625 124.44375610351562
v -12.083686828613281 -9.415934562683105 91.88134002685547
v -13.879634857177734 0.7624931335449219 92.4876937866211
v -4.822400093078613 -8.769963264465332 46.72676086425781
v -7.027279853820801 3.726041793823242 47.81317138671875
v -1.3570504961535335e-05 -1.7027265641900158e-07 56.53801727294922
v -1.191235969599802e-05 34.38870620727539 45.935672760009766
v -17.194374084472656 29.781490325927734 45.935672760009766
v -29.781513214111328 17.194353103637695 45.935672760009766
v -34.38871383666992 4.4430589696276e-06 45.935672760009766
v -29.781511306762695 -17.1943416595459 45.935672760009766
v -17.194374084472656 -29.78148078918457 45.935672760009766
v -3.0247911126934923e-05 -34.38869857788086 45.935672760009766
v 17.194311141967773 -29.78150177001953 45.935672760009766
v 29.781469345092773 -17.194372177124023 45.935672760009766
v 34.388694763183594 -2.5876426661852747e-05 45.935672760009766
v 29.78148651123047 17.194324493408203 45.935672760009766
v 17.19436264038086 29.781471252441406 45.935672760009766
v -1.3528705494536553e-05 45.892120361328125 24.836565017700195
v -22.946081161499023 39.74374008178711 24.836563110351562
v -39.74374771118164 22.946056365966797 24.836563110351562
v -45.89213180541992 6.392803697963245e-06 24.836563110351562
v -39.74375915527344 -22.946046829223633 24.836563110351562
v -22.946094512939453 -39.74372863769531 24.836565017700195
v -3.980087785748765e-05 -45.892112731933594 24.836566925048828
v 22.946022033691406 -39.743743896484375 24.836566925048828
v 39.74370193481445 -22.946090698242188 24.836566925048828
v 45.8921012878418 -3.726865179487504e-05 24.836566925048828
v 39.743743896484375 22.946020126342773 24.836566925048828
v 22.946077346801758 39.74371337890625 24.836566925048828
v 6.661390443696291e-07 48.246517181396484 -0.18345403671264648
v -41.7827033996582 -24.123268127441406 -0.18345579504966736
v -24.123252868652344 -41.78271484375 -0.1834549903869629
v -1.2111615887988592e-07 -48.246517181396484 -0.18345406651496887
v 24.123252868652344 -41.78271484375 -0.183453768491745
v 41.7827033996582 -24.123268127441406 -0.18345408141613007
v 48.246517181396484 -1.616044573893305e-05 -0.18345478177070618
v 41.782718658447266 24.123239517211914 -0.18345417082309723
v 24.123275756835938 41.78269577026367 -0.18345285952091217
v -48.246517181396484 -1.667519063630607e-05 -0.18345531821250916
v -41.782718658447266 24.123241424560547 -0.18345434963703156
v -24.123275756835938 41.78269577026367 -0.18345534801483154
v -14.005207061767578 -50.74626159667969 87.42411804199219
v 7.053071975708008 -28.101728439331055 68.34089660644531
v -14.771965026855469 -7.041194915771484 49.397212982177734
v 9.524871826171875 -13.551519393920898 49.397212982177734
v 49.174720764160156 -17.674497604370117 87.42411804199219
v 28.451711654663086 5.277248382568359 68.34089660644531
v 5.70379638671875 -15.41568374633789 49.397212982177734
v 14.306955337524414 8.221282958984375 49.397212982177734
v 21.735307693481445 48.14740753173828 87.42411804199219
v 23.31126594543457 17.264686584472656 68.34089660644531
v 15.830995559692383 4.252275466918945 49.397212982177734
v -6.96621036529541 14.882797241210938 49.397212982177734
v -50.096710205078125 18.202545166015625 87.42411804199219
v -19.468856811523438 22.464111328125 68.34089660644531
v -29.37369155883789 -4.74920654296875 68.34089660644531
v -5.632816314697266 15.304176330566406 49.397212982177734
v -14.235973358154297 -8.332786560058594 49.397212982177734
v -20.02296257019043 42.20063781738281 103.03311157226562
v 1.623769760131836 22.395809173583984 79.50741577148438
v -18.56224822998047 12.982917785644531 79.50741577148438
v 6.19268798828125 12.939949035644531 46.64458465576172
v 43.35906219482422 16.115234375 103.03311157226562
v 22.061321258544922 -3.696962356567383 79.50741577148438
v 14.443578720092773 17.232627868652344 79.50741577148438
v 0.048516273498535156 -21.218509674072266 79.86274719238281
v 20.227924346923828 -11.805839538574219 79.18756103515625
v -4.848356246948242 -12.596918106079102 47.13273620605469
v 15.22275161743164 -3.2347679138183594 46.15267562866211
v -21.22170639038086 -2.022594451904297 79.86273193359375
v -12.673168182373047 3.7466678619384766 47.13273620605469
v -1.597330093383789 -15.432098388671875 46.15267562866211
v 19.51244354248047 42.47179412841797 115.83546447753906
v 18.25531005859375 13.159137725830078 92.30976867675781
v -1.9307012557983398 22.572044372558594 92.30976867675781
v 12.61579704284668 3.143177032470703 43.6593132019043
v -5.530652046203613 11.605010986328125 43.6593132019043
v 40.271034240722656 -22.849029541015625 115.83546447753906
v 22.54050064086914 0.019765853881835938 92.30976867675781
v -16.647018432617188 -42.79783630371094 115.94488525390625
v -16.16775131225586 -13.668889999389648 92.66511535644531
v 4.01384162902832 -23.076862335205078 91.98992919921875
v -11.479307174682617 -4.048313140869141 44.0999641418457
v -44.41810607910156 13.092033386230469 115.94488525390625
v -15.135059356689453 14.963943481445312 92.66510009765625
v -22.748289108276367 -5.960807800292969 91.98992919921875
v -4.709556579589844 10.864219665527344 44.0999641418457
v -2.8740978240966797 32.46192169189453 130.2737579345703
v 6.704336166381836 14.096580505371094 94.57710266113281
v -8.959920883178711 12.726139068603516 94.57710266113281
v 7.452167510986328 6.720342636108398 44.71278381347656
v -8.12802505493164 5.357257843017578 44.71278381347656
v 32.875091552734375 -0.14730262756347656 130.2737579345703
v 13.962320327758789 -8.148225784301758 94.57710266113281
v 13.962326049804688 7.575870513916016 94.57710266113281
v 6.864339828491211 -8.278711318969727 44.71278381347656
v 6.864345550537109 7.360994338989258 44.71278381347656
v -4.871735572814941 -14.456866264343262 95.11624145507812
v 10.788082122802734 -13.084976196289062 94.09178161621094
v -6.038571357727051 -7.554897308349609 45.45347213745117
v 9.53720474243164 -6.190372467041016 43.96638107299805
v -31.590129852294922 -8.06744384765625 130.43971252441406
v -14.347414016723633 3.4136085510253906 95.11624145507812
v -11.615907669067383 -12.06705093383789 94.09178161621094
v -7.283266544342041 5.176828384399414 45.45347213745117
v -4.566412925720215 -10.220748901367188 43.96638107299805
v -20.919950485229492 -20.606388092041016 68.34089660644531
v 18.546871185302734 -21.93606948852539 68.34089660644531
v -2.935235023498535 29.503631591796875 68.34089660644531
v -13.884998321533203 3.57757568359375 46.64458465576172
v 22.05451202392578 -40.30937576293945 103.14250183105469
v -38.610511779785156 -25.657941818237305 103.14250183105469
v -10.086109161376953 -21.304840087890625 79.18756103515625
v 11.404088973999023 -19.269044876098633 92.30976867675781
v 6.6631622314453125 -12.505724906921387 43.21417236328125
v -11.553560256958008 -7.946319580078125 43.21417236328125
v 13.962326049804688 7.575870513916016 94.57710266113281
v 5.117427825927734 -32.435306549072266 130.43971252441406
v -14.005207061767578 -50.74626159667969 81.00704193115234
v -20.919950485229492 -20.606388092041016 61.92382049560547
v 7.05307149887085 -28.101728439331055 61.92382049560547
v -14.771965026855469 -7.041194915771484 42.98013687133789
v 9.524871826171875 -13.551519393920898 42.98013687133789
v 49.174720764160156 -17.674497604370117 81.00704193115234
v 18.546871185302734 -21.93606948852539 61.92382049560547
v 28.451711654663086 5.277248382568359 61.92382049560547
v 5.703795909881592 -15.41568374633789 42.98013687133789
v 14.306955337524414 8.221282958984375 42.98013687133789
v 21.735307693481445 48.14740753173828 81.00704193115234
v 23.31126594543457 17.264686584472656 61.92382049560547
v -2.935235023498535 29.503631591796875 61.92382049560547
v 15.830995559692383 4.252275466918945 42.98013687133789
v -6.96621036529541 14.882797241210938 42.98013687133789
v -50.096710205078125 18.202545166015625 81.00704193115234
v -19.468856811523438 22.464111328125 61.92382049560547
v -29.37369155883789 -4.74920654296875 61.92382049560547
v -5.632816314697266 15.304176330566406 42.98013687133789
v -14.235973358154297 -8.332786560058594 42.98013687133789
v -20.02296257019043 42.20063781738281 96.61603546142578
v 1.6237692832946777 22.395809173583984 73.09033966064453
v -18.56224822998047 12.982917785644531 73.09033966064453
v 6.192687511444092 12.939949035644531 40.227508544921875
v -13.884998321533203 3.57757568359375 40.227508544921875
v 43.35906219482422 16.115234375 96.61603546142578
v 22.061321258544922 -3.696962356567383 73.09033966064453
v 14.443578720092773 17.232627868652344 73.09033966064453
v 22.05451202392578 -40.30937576293945 96.72542572021484
v 0.048516273498535156 -21.218509674072266 73.44567108154297
v 20.227924346923828 -11.805839538574219 72.7704849243164
v -4.848356246948242 -12.596918106079102 40.715660095214844
v 15.22275161743164 -3.2347679138183594 39.735599517822266
v -38.610511779785156 -25.657941818237305 96.72542572021484
v -21.22170639038086 -2.022594451904297 73.4456558227539
v -10.086109161376953 -21.304840087890625 72.7704849243164
v -12.673168182373047 3.7466678619384766 40.715660095214844
v -1.597330093383789 -15.432098388671875 39.735599517822266
v 19.51244354248047 42.47179412841797 109.41838836669922
v 18.25531005859375 13.159137725830078 85.89269256591797
v -1.9307012557983398 22.572044372558594 85.89269256591797
v 12.61579704284668 3.143177032470703 37.24223709106445
v -5.530652046203613 11.605010986328125 37.24223709106445
v 40.271034240722656 -22.849029541015625 109.41838836669922
v 11.404088973999023 -19.269044876098633 85.89269256591797
v 22.54050064086914 0.019765853881835938 85.89269256591797
v -16.647018432617188 -42.79783630371094 109.5278091430664
v -16.16775131225586 -13.668889999389648 86.24803924560547
v 4.013841152191162 -23.076862335205078 85.5728530883789
v -11.479307174682617 -4.048313140869141 37.68288803100586
v 6.663161754608154 -12.505724906921387 36.797096252441406
v -44.41810607910156 13.092033386230469 109.5278091430664
v -15.135059356689453 14.963943481445312 86.2480239868164
v -22.748289108276367 -5.960807800292969 85.5728530883789
v -4.709556579589844 10.864219665527344 37.68288803100586
v -11.553560256958008 -7.946319580078125 36.797096252441406
v -2.8740978240966797 32.46192169189453 123.85668182373047
v 6.704335689544678 14.096580505371094 88.16002655029297
v -8.959920883178711 12.726139068603516 88.16002655029297
v 7.45216703414917 6.720342636108398 38.29570770263672
v -8.12802505493164 5.357257843017578 38.29570770263672
v 32.875091552734375 -0.14730262756347656 123.85668182373047
v 13.962320327758789 -8.148225784301758 88.16002655029297
v 13.962326049804688 7.575870513916016 88.16002655029297
v 5.117427349090576 -32.435306549072266 124.02262878417969
v -4.871735572814941 -14.456866264343262 88.69916534423828
v 10.788082122802734 -13.084976196289062 87.6747055053711
v -6.038571357727051 -7.554897308349609 39.03639602661133
v 9.53720474243164 -6.190372467041016 37.5493049621582
v -31.590129852294922 -8.06744384765625 124.02262878417969
v -14.347414016723633 3.4136085510253906 88.69916534423828
v -11.615907669067383 -12.06705093383789 87.6747055053711
v -7.283266544342041 5.176828384399414 39.03639602661133
v -4.566412925720215 -10.220748901367188 37.5493049621582
v 13.962326049804688 7.575870513916016 88.16002655029297
v 6.864345073699951 7.360994338989258 38.29570770263672
v 6.864339351654053 -8.278711318969727 38.29570770263672
v -21.124675750732422 36.58898162841797 0.0
v -1.456438531022286e-05 42.24932098388672 0.0
v -36.58899688720703 21.12466049194336 0.0
v -42.24933624267578 4.511271527007921e-06 0.0
v -36.58900833129883 -21.124652862548828 0.0
v -21.12468719482422 -36.5889778137207 0.0
v -3.605350502766669e-05 -42.24932098388672 0.0
v 21.12462615966797 -36.58899688720703 0.0
v 36.58895492553711 -21.12468719482422 0.0
v 42.249305725097656 -3.4773187508108094e-05 0.0
v 36.5889892578125 21.1246280670166 0.0
v 21.124679565429688 36.588966369628906 0.0
vt 0.06351727992296219 0.7574644684791565
vt 0.08942417055368423 0.7834457755088806
vt 0.06363425403833389 0.7834340929985046
vt 0.03784430772066116 0.7834457755088806
vt 0.06363425403833389 0.7834340929985046
vt 0.08942417055368423 0.7834457755088806
vt 0.06363425403833389 0.7834340929985046
vt 0.03784430772066116 0.7834457755088806
vt 0.06363425403833389 0.7834340929985046
vt 0.08942417055368423 0.7834457755088806
vt 0.06363425403833389 0.7834340929985046
vt 0.03784430772066116 0.7834457755088806
vt 0.06363425403833389 0.7834340929985046
vt 0.11143053323030472 0.8168962597846985
vt 0.06363425403833389 0.8168248534202576
vt 0.01583794690668583 0.8168962001800537
vt 0.06363425403833389 0.8168248534202576
vt 0.11143053323030472 0.8168962597846985
vt 0.06363425403833389 0.8168248534202576
vt 0.01583794690668583 0.8168962001800537
vt 0.06363425403833389 0.8168248534202576
vt 0.11143053323030472 0.8168962597846985
vt 0.06363425403833389 0.8168248534202576
vt 0.01583794690668583 0.8168962001800537
vt 0.06363425403833389 0.8168248534202576
vt 0.12360719591379166 0.8747340440750122
vt 0.06363419443368912 0.874692976474762
vt 0.0036612539552152157 0.8747339844703674
vt 0.06363419443368912 0.874692976474762
vt 0.12360719591379166 0.8747340440750122
vt 0.06363419443368912 0.874692976474762
vt 0.0036612539552152157 0.8747339844703674
vt 0.06363419443368912 0.874692976474762
vt 0.12360719591379166 0.8747340440750122
vt 0.06363419443368912 0.874692976474762
vt 0.0036612539552152157 0.8747339844703674
vt 0.06363419443368912 0.874692976474762
vt 0.31276845932006836 0.1274888515472412
vt 0.11374533921480179 0.793397068977356
vt 0.12023473531007767 0.7730598449707031
vt 0.10718870908021927 0.7730498313903809
vt 0.12278763204813004 0.7527197599411011
vt 0.10401628166437149 0.7527053356170654
vt 0.11374533921480179 0.793397068977356
vt 0.12023473531007767 0.7730598449707031
vt 0.10718870908021927 0.7730498313903809
vt 0.12278763204813004 0.7527197599411011
vt 0.10401628166437149 0.7527053356170654
vt 0.11374533921480179 0.793397068977356
vt 0.12023473531007767 0.7730598449707031
vt 0.10718870908021927 0.7730498313903809
vt 0.12278763204813004 0.7527197599411011
vt 0.10401628166437149 0.7527053356170654
vt 0.11374533921480179 0.793397068977356
vt 0.12023473531007767 0.7730598449707031
vt 0.10718870908021927 0.7730498313903809
vt 0.12278763204813004 0.7527197599411011
vt 0.10401628166437149 0.7527053356170654
vt 0.11374533921480179 0.793397068977356
vt 0.12023473531007767 0.7730598449707031
vt 0.10718870908021927 0.7730498313903809
vt 0.12278763204813004 0.7527197599411011
vt 0.10401628166437149 0.7527053356170654
vt 0.11374533921480179 0.793397068977356
vt 0.12023473531007767 0.7730598449707031
vt 0.10718870908021927 0.7730498313903809
vt 0.12278763204813004 0.7527197599411011
vt 0.10401628166437149 0.7527053356170654
vt 0.11374533921480179 0.793397068977356
vt 0.12023473531007767 0.7730598449707031
vt 0.10718870908021927 0.7730498313903809
vt 0.12278763204813004 0.7527197599411011
vt 0.10401628166437149 0.7527053356170654
vt 0.11374533921480179 0.793397068977356
vt 0.12023473531007767 0.7730598449707031
vt 0.10718870908021927 0.7730498313903809
vt 0.12278763204813004 0.7527197599411011
vt 0.10401628166437149 0.7527053356170654
vt 0.11374533921480179 0.793397068977356
vt 0.12023473531007767 0.7730598449707031
vt 0.10718870908021927 0.7730498313903809
vt 0.12278763204813004 0.7527197599411011
vt 0.10401628166437149 0.7527053356170654
vt 0.11374533921480179 0.793397068977356
vt 0.12023473531007767 0.7730598449707031
vt 0.10718870908021927 0.7730498313903809
vt 0.12278763204813004 0.7527197599411011
vt 0.10401628166437149 0.7527053356170654
vt 0.11374533921480179 0.793397068977356
vt 0.12023473531007767 0.7730598449707031
vt 0.10718870908021927 0.7730498313903809
vt 0.12278763204813004 0.7527197599411011
vt 0.10401628166437149 0.7527053356170654
vt 0.11374533921480179 0.793397068977356
vt 0.12023473531007767 0.7730598449707031
vt 0.10718870908021927 0.7730498313903809
vt 0.12278763204813004 0.7527197599411011
vt 0.10401628166437149 0.7527053356170654
vt 0.11374533921480179 0.793397068977356
vt 0.12023473531007767 0.7730598449707031
vt 0.10718870908021927 0.7730498313903809
vt 0.12278763204813004 0.7527197599411011
vt 0.10401628166437149 0.7527053356170654
vt 0.11374533921480179 0.793397068977356
vt 0.12023473531007767 0.7730598449707031
vt 0.10718870908021927 0.7730498313903809
vt 0.12278763204813004 0.7527197599411011
vt 0.10401628166437149 0.7527053356170654
vt 0.11374533921480179 0.793397068977356
vt 0.12023473531007767 0.7730598449707031
vt 0.10718870908021927 0.7730498313903809
vt 0.12278763204813004 0.7527197599411011
vt 0.10401628166437149 0.7527053356170654
vt 0.11374533921480179 0.793397068977356
vt 0.12023473531007767 0.7730598449707031
vt 0.10718870908021927 0.7730498313903809
vt 0.12278763204813004 0.7527197599411011
vt 0.10401628166437149 0.7527053356170654
vt 0.11374533921480179 0.793397068977356
vt 0.10718870908021927 0.7730498313903809
vt 0.12023473531007767 0.7730598449707031
vt 0.10401628166437149 0.7527053356170654
vt 0.12278763204813004 0.7527197599411011
vt 0.11374533921480179 0.793397068977356
vt 0.10718870908021927 0.7730498313903809
vt 0.12023473531007767 0.7730598449707031
vt 0.10401628166437149 0.7527053356170654
vt 0.12278763204813004 0.7527197599411011
vt 0.11374533921480179 0.793397068977356
vt 0.10718870908021927 0.7730498313903809
vt 0.12023473531007767 0.7730598449707031
vt 0.10401628166437149 0.7527053356170654
vt 0.12278763204813004 0.7527197599411011
vt 0.11374533921480179 0.793397068977356
vt 0.10718870908021927 0.7730498313903809
vt 0.12023473531007767 0.7730598449707031
vt 0.10401628166437149 0.7527053356170654
vt 0.12278763204813004 0.7527197599411011
vt 0.11374533921480179 0.793397068977356
vt 0.10718870908021927 0.7730498313903809
vt 0.12023473531007767 0.7730598449707031
vt 0.10401628166437149 0.7527053356170654
vt 0.12278763204813004 0.7527197599411011
vt 0.11374533921480179 0.793397068977356
vt 0.10718870908021927 0.7730498313903809
vt 0.12023473531007767 0.7730598449707031
vt 0.10401628166437149 0.7527053356170654
vt 0.12278763204813004 0.7527197599411011
vt 0.11374533921480179 0.793397068977356
vt 0.10718870908021927 0.7730498313903809
vt 0.12023473531007767 0.7730598449707031
vt 0.10401628166437149 0.7527053356170654
vt 0.12278763204813004 0.7527197599411011
vt 0.11374533921480179 0.793397068977356
vt 0.10718870908021927 0.7730498313903809
vt 0.12023473531007767 0.7730598449707031
vt 0.10401628166437149 0.7527053356170654
vt 0.12278763204813004 0.7527197599411011
vt 0.11374533921480179 0.793397068977356
vt 0.10718870908021927 0.7730498313903809
vt 0.12023473531007767 0.7730598449707031
vt 0.10401628166437149 0.7527053356170654
vt 0.12278763204813004 0.7527197599411011
vt 0.11374533921480179 0.793397068977356
vt 0.10718870908021927 0.7730498313903809
vt 0.12023473531007767 0.7730598449707031
vt 0.10401628166437149 0.7527053356170654
vt 0.12278763204813004 0.7527197599411011
vt 0.11374533921480179 0.793397068977356
vt 0.10718870908021927 0.7730498313903809
vt 0.12023473531007767 0.7730598449707031
vt 0.10401628166437149 0.7527053356170654
vt 0.12278763204813004 0.7527197599411011
vt 0.11374533921480179 0.793397068977356
vt 0.10718870908021927 0.7730498313903809
vt 0.12023473531007767 0.7730598449707031
vt 0.10401628166437149 0.7527053356170654
vt 0.12278763204813004 0.7527197599411011
vt 0.11374533921480179 0.793397068977356
vt 0.10718870908021927 0.7730498313903809
vt 0.12023473531007767 0.7730598449707031
vt 0.10401628166437149 0.7527053356170654
vt 0.12278763204813004 0.7527197599411011
vt 0.11374533921480179 0.793397068977356
vt 0.10718870908021927 0.7730498313903809
vt 0.12023473531007767 0.7730598449707031
vt 0.10401628166437149 0.7527053356170654
vt 0.12278763204813004 0.7527197599411011
vt 0.11374533921480179 0.793397068977356
vt 0.10718870908021927 0.7730498313903809
vt 0.12023473531007767 0.7730598449707031
vt 0.10401628166437149 0.7527053356170654
vt 0.12278763204813004 0.7527197599411011
vt 0.11374533921480179 0.793397068977356
vt 0.10718870908021927 0.7730498313903809
vt 0.12023473531007767 0.7730598449707031
vt 0.10401628166437149 0.7527053356170654
vt 0.12278763204813004 0.7527197599411011
vt 0.47655734419822693 0.5629996657371521
vt 0.47716668248176575 0.5636107325553894
vt 0.476560115814209 0.5636104345321655
vt 0.4759535491466522 0.5636107325553894
vt 0.476560115814209 0.5636104345321655
vt 0.47716668248176575 0.5636107325553894
vt 0.476560115814209 0.5636104345321655
vt 0.4759535491466522 0.5636107325553894
vt 0.476560115814209 0.5636104345321655
vt 0.47716668248176575 0.5636107325553894
vt 0.476560115814209 0.5636104345321655
vt 0.4759535491466522 0.5636107325553894
vt 0.476560115814209 0.5636104345321655
vt 0.47768428921699524 0.5643975138664246
vt 0.476560115814209 0.5643958449363708
vt 0.47543594241142273 0.5643975138664246
vt 0.476560115814209 0.5643958449363708
vt 0.47768428921699524 0.5643975138664246
vt 0.476560115814209 0.5643958449363708
vt 0.47543594241142273 0.5643975138664246
vt 0.476560115814209 0.5643958449363708
vt 0.47768428921699524 0.5643975138664246
vt 0.476560115814209 0.5643958449363708
vt 0.47543594241142273 0.5643975138664246
vt 0.476560115814209 0.5643958449363708
vt 0.477970689535141 0.5657578706741333
vt 0.477970689535141 0.5657578706741333
vt 0.476560115814209 0.5657569169998169
vt 0.475149542093277 0.5657578706741333
vt 0.476560115814209 0.5657569169998169
vt 0.477970689535141 0.5657578706741333
vt 0.476560115814209 0.5657569169998169
vt 0.475149542093277 0.5657578706741333
vt 0.476560115814209 0.5657569169998169
vt 0.476560115814209 0.5657569169998169
vt 0.475149542093277 0.5657578706741333
vt 0.476560115814209 0.5657569169998169
vt 0.4765239655971527 0.6147815585136414
vt 0.4747343063354492 0.6092276573181152
vt 0.4789921045303345 0.6036784648895264
vt 0.47386837005615234 0.6036745309829712
vt 0.4765239655971527 0.6147815585136414
vt 0.4747343063354492 0.6092276573181152
vt 0.4789921045303345 0.6036784648895264
vt 0.47386837005615234 0.6036745309829712
vt 0.4765239655971527 0.6147815585136414
vt 0.4782952666282654 0.6092303991317749
vt 0.4789921045303345 0.6036784648895264
vt 0.47386837005615234 0.6036745309829712
vt 0.4765239655971527 0.6147815585136414
vt 0.4782952666282654 0.6092303991317749
vt 0.4747343063354492 0.6092276573181152
vt 0.4789921045303345 0.6036784648895264
vt 0.47386837005615234 0.6036745309829712
vt 0.4765239655971527 0.6147815585136414
vt 0.4782952666282654 0.6092303991317749
vt 0.4747343063354492 0.6092276573181152
vt 0.4789921045303345 0.6036784648895264
vt 0.4765239655971527 0.6147815585136414
vt 0.4782952666282654 0.6092303991317749
vt 0.4747343063354492 0.6092276573181152
vt 0.4782952666282654 0.6092303991317749
vt 0.4747343063354492 0.6092276573181152
vt 0.4789921045303345 0.6036784648895264
vt 0.47386837005615234 0.6036745309829712
vt 0.4782952666282654 0.6092303991317749
vt 0.4789921045303345 0.6036784648895264
vt 0.47386837005615234 0.6036745309829712
vt 0.4765239655971527 0.6147815585136414
vt 0.4782952666282654 0.6092303991317749
vt 0.4747343063354492 0.6092276573181152
vt 0.4789921045303345 0.6036784648895264
vt 0.47386837005615234 0.6036745309829712
vt 0.4765239655971527 0.6147815585136414
vt 0.4747343063354492 0.6092276573181152
vt 0.4765239655971527 0.6147815585136414
vt 0.4782952666282654 0.6092303991317749
vt 0.4747343063354492 0.6092276573181152
vt 0.4789921045303345 0.6036784648895264
vt 0.4765239655971527 0.6147815585136414
vt 0.4782952666282654 0.6092303991317749
vt 0.4747343063354492 0.6092276573181152
vt 0.4789921045303345 0.6036784648895264
vt 0.4765239655971527 0.6147815585136414
vt 0.4782952666282654 0.6092303991317749
vt 0.4747343063354492 0.6092276573181152
vt 0.4789921045303345 0.6036784648895264
vt 0.47386837005615234 0.6036745309829712
vt 0.4765239655971527 0.6147815585136414
vt 0.4782952666282654 0.6092303991317749
vt 0.4747343063354492 0.6092276573181152
vt 0.4789921045303345 0.6036784648895264
vt 0.47386837005615234 0.6036745309829712
vt 0.4782952666282654 0.6092303991317749
vt 0.4747343063354492 0.6092276573181152
vt 0.4789921045303345 0.6036784648895264
vt 0.47386837005615234 0.6036745309829712
vt 0.4765239655971527 0.6147815585136414
vt 0.4782952666282654 0.6092303991317749
vt 0.4747343063354492 0.6092276573181152
vt 0.4789921045303345 0.6036784648895264
vt 0.47386837005615234 0.6036745309829712
vt 0.4782952666282654 0.6092303991317749
vt 0.4782952666282654 0.6092303991317749
vt 0.4747343063354492 0.6092276573181152
vt 0.47386837005615234 0.6036745309829712
vt 0.4765239655971527 0.6147815585136414
vt 0.4765239655971527 0.6147815585136414
vt 0.4747343063354492 0.6092276573181152
vt 0.4782952666282654 0.6092303991317749
vt 0.47386837005615234 0.6036745309829712
vt 0.47386837005615234 0.6036745309829712
vt 0.4747343063354492 0.6092276573181152
vt 0.4765239655971527 0.6147815585136414
vt 0.4765239655971527 0.6147815585136414
vt 0.4782952666282654 0.6092303991317749
vt 0.4747343063354492 0.6092276573181152
vt 0.4789921045303345 0.6036784648895264
vt 0.47386837005615234 0.6036745309829712
vt 0.4765239655971527 0.6147815585136414
vt 0.4782952666282654 0.6092303991317749
vt 0.4747343063354492 0.6092276573181152
vt 0.4789921045303345 0.6036784648895264
vt 0.47386837005615234 0.6036745309829712
vt 0.4765239655971527 0.6147815585136414
vt 0.4782952666282654 0.6092303991317749
vt 0.4747343063354492 0.6092276573181152
vt 0.4789921045303345 0.6036784648895264
vt 0.47386837005615234 0.6036745309829712
vt 0.4765239655971527 0.6147815585136414
vt 0.4782952666282654 0.6092303991317749
vt 0.4747343063354492 0.6092276573181152
vt 0.4789921045303345 0.6036784648895264
vt 0.47386837005615234 0.6036745309829712
vt 0.4765239655971527 0.6147815585136414
vt 0.4782952666282654 0.6092303991317749
vt 0.4747343063354492 0.6092276573181152
vt 0.4789921045303345 0.6036784648895264
vt 0.47386837005615234 0.6036745309829712
vt 0.4765239655971527 0.6147815585136414
vt 0.4782952666282654 0.6092303991317749
vt 0.4747343063354492 0.6092276573181152
vt 0.4765239655971527 0.6147815585136414
vt 0.4782952666282654 0.6092303991317749
vt 0.4747343063354492 0.6092276573181152
vt 0.4789921045303345 0.6036784648895264
vt 0.47386837005615234 0.6036745309829712
vt 0.4765239655971527 0.6147815585136414
vt 0.4782952666282654 0.6092303991317749
vt 0.4747343063354492 0.6092276573181152
vt 0.4789921045303345 0.6036784648895264
vt 0.47386837005615234 0.6036745309829712
vt 0.4765239655971527 0.6147815585136414
vt 0.4782952666282654 0.6092303991317749
vt 0.4747343063354492 0.6092276573181152
vt 0.4789921045303345 0.6036784648895264
vt 0.47386837005615234 0.6036745309829712
vt 0.4765239655971527 0.6147815585136414
vt 0.4782952666282654 0.6092303991317749
vt 0.4747343063354492 0.6092276573181152
vt 0.4765239655971527 0.6147815585136414
vt 0.4782952666282654 0.6092303991317749
vt 0.4747343063354492 0.6092276573181152
vt 0.4789921045303345 0.6036784648895264
vt 0.47386837005615234 0.6036745309829712
vt 0.4765239655971527 0.6147815585136414
vt 0.4782952666282654 0.6092303991317749
vt 0.4747343063354492 0.6092276573181152
vt 0.4789921045303345 0.6036784648895264
vt 0.47386837005615234 0.6036745309829712
vt 0.4765239655971527 0.6147815585136414
vt 0.4782952666282654 0.6092303991317749
vt 0.4747343063354492 0.6092276573181152
vt 0.4789921045303345 0.6036784648895264
vt 0.47386837005615234 0.6036745309829712
vt 0.4765239655971527 0.6147815585136414
vt 0.4782952666282654 0.6092303991317749
vt 0.4747343063354492 0.6092276573181152
vt 0.4765239655971527 0.6147815585136414
vt 0.4782952666282654 0.6092303991317749
vt 0.4747343063354492 0.6092276573181152
vt 0.4789921045303345 0.6036784648895264
vt 0.47386837005615234 0.6036745309829712
vt 0.4765239655971527 0.6147815585136414
vt 0.4782952666282654 0.6092303991317749
vt 0.4747343063354492 0.6092276573181152
vt 0.4789921045303345 0.6036784648895264
vt 0.47386837005615234 0.6036745309829712
vt 0.4747343063354492 0.6092276573181152
vt 0.47386837005615234 0.6036745309829712
vt 0.4789921045303345 0.6036784648895264
vt 0.3127683699131012 0.24928629398345947
vt 0.37290158867836 0.23891466856002808
vt 0.25354859232902527 0.23921912908554077
vt 0.3127683699131012 0.24928629398345947
vt 0.37290158867836 0.23891466856002808
vt 0.3127683699131012 0.24928629398345947
vt 0.25354859232902527 0.23921912908554077
vt 0.3127683699131012 0.24928629398345947
vt 0.37290158867836 0.23891466856002808
vt 0.3127683699131012 0.24928629398345947
vt 0.25354859232902527 0.23921912908554077
vt 0.3127683699131012 0.24928629398345947
vn -1.8195292383893502e-08 -7.278116953557401e-08 1.0
vn -0.05053700879216194 0.6910341382026672 0.7210533618927002
vn -0.389283686876297 0.5731844902038574 0.7210532426834106
vn -0.6237217783927917 0.3017506003379822 0.7210531830787659
vn -0.691034197807312 -0.05053718388080597 0.7210533022880554
vn -0.5731846690177917 -0.3892833888530731 0.7210532426834106
vn -0.30175071954727173 -0.6237216591835022 0.7210532426834106
vn 0.05053688585758209 -0.691034197807312 0.7210532426834106
vn 0.389283150434494 -0.5731849074363708 0.7210531830787659
vn 0.6237215995788574 -0.3017512559890747 0.7210531830787659
vn 0.691034197807312 0.05053679272532463 0.7210532426834106
vn 0.5731848478317261 0.3892832100391388 0.7210532426834106
vn 0.30175113677978516 0.6237214803695679 0.7210532426834106
vn -0.004852256737649441 0.9579139947891235 0.2870144248008728
vn -0.4831596314907074 0.8271514177322388 0.2870144248008728
vn -0.8320041298866272 0.47475457191467285 0.28701433539390564
vn -0.9579140543937683 -0.004852444399148226 0.28701451420783997
vn -0.8271517157554626 -0.48315930366516113 0.28701457381248474
vn -0.4747547507286072 -0.8320039510726929 0.28701454401016235
vn 0.004852234851568937 -0.9579139351844788 0.28701460361480713
vn 0.4831589460372925 -0.8271517753601074 0.28701457381248474
vn 0.8320038318634033 -0.47475525736808777 0.2870144546031952
vn 0.9579139947891235 0.004851824603974819 0.2870143949985504
vn 0.8271518349647522 0.4831588864326477 0.28701457381248474
vn 0.47475507855415344 0.8320037722587585 0.2870144844055176
vn 0.08859510719776154 0.9919200539588928 0.09080583602190018
vn -0.4192348122596741 0.9033252596855164 0.09080561250448227
vn -0.814730703830719 0.5726852416992188 0.09080587327480316
vn -0.9919200539588928 0.08859504014253616 0.09080593287944794
vn -0.9033254384994507 -0.41923457384109497 0.09080597758293152
vn -0.5726855397224426 -0.8147303462028503 0.09080591797828674
vn -0.08859515935182571 -0.9919199347496033 0.0908060148358345
vn 0.4192342162132263 -0.9033254981040955 0.09080610424280167
vn 0.814730167388916 -0.5726858377456665 0.0908060222864151
vn 0.9919199347496033 -0.08859554678201675 0.09080591797828674
vn 0.903325617313385 0.4192339777946472 0.09080597013235092
vn 0.5726858973503113 0.8147301077842712 0.09080608934164047
vn 0.0 0.0 -1.0
vn 0.13775944709777832 0.5141258835792542 0.8465795516967773
vn 0.16878867149353027 0.629928708076477 0.7580898404121399
vn 0.17839278280735016 0.6657711863517761 0.7245169878005981
vn 0.19607046246528625 0.7317449450492859 0.6527678370475769
vn 0.19607064127922058 0.7317449450492859 0.6527676582336426
vn -0.5001629590988159 0.18204441666603088 0.8465794920921326
vn -0.6176027059555054 0.22478900849819183 0.7536823153495789
vn -0.6538065671920776 0.23796619474887848 0.718268096446991
vn -0.7200660705566406 0.26208269596099854 0.6425087451934814
vn -0.7200661301612854 0.2620828151702881 0.6425086855888367
vn -0.22494374215602875 -0.4823934733867645 0.8465794920921326
vn -0.27421483397483826 -0.5880557298660278 0.7609183192253113
vn -0.28950390219688416 -0.6208429932594299 0.7285200953483582
vn -0.3177467882633209 -0.681410014629364 0.6593310832977295
vn -0.31774693727493286 -0.6814099550247192 0.6593310236930847
vn 0.5001628994941711 -0.18204444646835327 0.8465795516967773
vn 0.6039043068885803 -0.21980325877666473 0.766150176525116
vn 0.6362465023994446 -0.2315748631954193 0.7359099984169006
vn 0.696378767490387 -0.2534612715244293 0.6714268326759338
vn 0.696378767490387 -0.2534613311290741 0.6714268326759338
vn 0.26024192571640015 -0.5580908060073853 0.7879142165184021
vn 0.34291285276412964 -0.7353792786598206 0.584489643573761
vn 0.3651582896709442 -0.7830847501754761 0.5034259557723999
vn 0.39827173948287964 -0.8540968894958496 0.3345121145248413
vn 0.3982716202735901 -0.8540968298912048 0.33451205492019653
vn -0.5827528238296509 -0.21210451424121857 0.7844812273979187
vn -0.7676588892936707 -0.27940478920936584 0.5767432451248169
vn -0.8170545101165771 -0.29738327860832214 0.4939485192298889
vn -0.8897131681442261 -0.32382887601852417 0.3217845857143402
vn -0.8897131681442261 -0.32382887601852417 0.3217845857143402
vn -0.24468134343624115 0.5749746561050415 0.7807273864746094
vn -0.33237525820732117 0.7495307326316833 0.5724775195121765
vn -0.35534778237342834 0.7966265082359314 0.4889930188655853
vn -0.3913431167602539 0.8641003370285034 0.3165144622325897
vn -0.38971295952796936 0.8652172684669495 0.3154725730419159
vn 0.5480723977088928 0.291806161403656 0.7838786840438843
vn 0.7134747505187988 0.3937668800354004 0.5795700550079346
vn 0.7585106492042542 0.42072102427482605 0.4976499080657959
vn 0.823472261428833 0.4628489017486572 0.32812246680259705
vn 0.8247813582420349 0.46127066016197205 0.3270551562309265
vn -0.2602422833442688 -0.5580906271934509 0.7879142165184021
vn -0.35311418771743774 -0.7572547793388367 0.5494320392608643
vn -0.37687578797340393 -0.8082117438316345 0.45250239968299866
vn -0.40885066986083984 -0.8767821788787842 0.25316867232322693
vn -0.4088505804538727 -0.8767821192741394 0.25316864252090454
vn -0.5370677709579468 0.31007644534111023 0.7844812273979187
vn -0.727704644203186 0.42014080286026 0.5421509742736816
vn -0.7761080861091614 0.4480865001678467 0.443705677986145
vn -0.8403457999229431 0.48517417907714844 0.24171262979507446
vn -0.8403457999229431 0.48517417907714844 0.24171262979507446
vn 0.28317806124687195 0.5570235252380371 0.780727207660675
vn 0.3694395422935486 0.7577567100524902 0.537883996963501
vn 0.39136379957199097 0.808711588382721 0.43911272287368774
vn 0.41766032576560974 0.8771175146102905 0.23711752891540527
vn 0.41904065012931824 0.8766014575958252 0.23659008741378784
vn 0.5758306980133057 -0.23227843642234802 0.7838786840438843
vn 0.7829894423484802 -0.3006983697414398 0.5445255041122437
vn 0.8359326720237732 -0.31828391551971436 0.44711512327194214
vn 0.9076187014579773 -0.3390640318393707 0.24751542508602142
vn 0.907211422920227 -0.3405478298664093 0.24697089195251465
vn 0.07488905638456345 -0.8559895157814026 0.511540412902832
vn 0.08186164498329163 -0.9356868267059326 0.3432040810585022
vn 0.0835791751742363 -0.9553181529045105 0.2835167944431305
vn 0.08599057793617249 -0.9828806519508362 0.16294562816619873
vn 0.08599060028791428 -0.9828806519508362 0.16294562816619873
vn -0.8618124127388 3.1799183375369466e-07 0.5072271227836609
vn -0.941279411315918 3.473136018783407e-07 0.33762866258621216
vn -0.960719108581543 3.19034086260217e-07 0.27752259373664856
vn -0.9877275824546814 3.1210174711304717e-07 0.15618664026260376
vn -0.9877275824546814 2.5975143103096343e-07 0.15618665516376495
vn -0.046034056693315506 0.8633098602294922 0.5025705695152283
vn -0.06271794438362122 0.9404672384262085 0.33404770493507385
vn -0.06651334464550018 0.9594212770462036 0.2740197479724884
vn -0.07521527260541916 0.9852960705757141 0.1534089893102646
vn -0.07320039719343185 0.9855329394340515 0.15286104381084442
vn 0.8537961840629578 0.12047738581895828 0.5064753293991089
vn 0.9296852350234985 0.1438380479812622 0.3391108512878418
vn 0.9484896659851074 0.14923709630966187 0.2794559895992279
vn 0.9741060137748718 0.16019786894321442 0.15954355895519257
vn 0.9745360612869263 0.15813219547271729 0.15897688269615173
vn -0.13775944709777832 -0.5141259431838989 -0.8465794920921326
vn -0.17839275300502777 -0.6657711267471313 -0.7245170474052429
vn -0.16878865659236908 -0.629928708076477 -0.7580898404121399
vn -0.1960706263780594 -0.7317448854446411 -0.6527677774429321
vn -0.19607040286064148 -0.7317448258399963 -0.6527678966522217
vn 0.5001628994941711 -0.1820444017648697 -0.8465795516967773
vn 0.6538065075874329 -0.23796620965003967 -0.7182681560516357
vn 0.6176026463508606 -0.22478897869586945 -0.7536822557449341
vn 0.7200660705566406 -0.2620828449726105 -0.6425086855888367
vn 0.7200660705566406 -0.2620827257633209 -0.6425088047981262
vn 0.22494368255138397 0.4823935031890869 -0.8465794920921326
vn 0.2895037531852722 0.6208429336547852 -0.7285201549530029
vn 0.2742147445678711 0.5880556702613831 -0.760918378829956
vn 0.31774675846099854 0.6814098954200745 -0.6593311429023743
vn 0.317746639251709 0.6814098954200745 -0.659331202507019
vn -0.5001628398895264 0.18204444646835327 -0.8465795516967773
vn -0.636246383190155 0.2315748631954193 -0.7359100580215454
vn -0.6039042472839355 0.21980322897434235 -0.7661502361297607
vn -0.6963787078857422 0.25346139073371887 -0.6714268922805786
vn -0.6963787078857422 0.2534612715244293 -0.6714269518852234
vn -0.2602420151233673 0.55809086561203 -0.7879142761230469
vn -0.3651582896709442 0.7830847501754761 -0.5034259557723999
vn -0.3429129123687744 0.7353792190551758 -0.584489643573761
vn -0.3982716202735901 0.8540968298912048 -0.3345120847225189
vn -0.39827167987823486 0.8540967702865601 -0.3345121145248413
vn 0.5827528238296509 0.21210448443889618 -0.7844812870025635
vn 0.8170545101165771 0.29738324880599976 -0.49394848942756653
vn 0.7676589488983154 0.27940475940704346 -0.5767432451248169
vn 0.8897132873535156 0.32382890582084656 -0.3217845857143402
vn 0.8897132873535156 0.32382890582084656 -0.3217845857143402
vn 0.24468138813972473 -0.5749745965003967 -0.7807273864746094
vn 0.35534778237342834 -0.7966265082359314 -0.4889930486679077
vn 0.33237528800964355 -0.7495306730270386 -0.5724775791168213
vn 0.3897128999233246 -0.8652172684669495 -0.3154725432395935
vn 0.3913430869579315 -0.8641002178192139 -0.31651443243026733
vn -0.548072338104248 -0.291806161403656 -0.783878743648529
vn -0.7585106492042542 -0.4207209646701813 -0.4976499378681183
vn -0.713474690914154 -0.393766850233078 -0.5795701146125793
vn -0.8247814774513245 -0.46127066016197205 -0.3270552158355713
vn -0.823472261428833 -0.4628489017486572 -0.32812249660491943
vn 0.2602423131465912 0.5580908060073853 -0.7879142165184021
vn 0.37687572836875916 0.8082118034362793 -0.4525023400783539
vn 0.35311412811279297 0.757254958152771 -0.5494320392608643
vn 0.40885066986083984 0.8767820596694946 -0.25316861271858215
vn 0.40885066986083984 0.8767820596694946 -0.25316864252090454
vn 0.5370679497718811 -0.310076504945755 -0.7844812273979187
vn 0.7761081457138062 -0.4480865001678467 -0.44370561838150024
vn 0.7277047634124756 -0.42014074325561523 -0.5421508550643921
vn 0.8403458595275879 -0.485174298286438 -0.24171258509159088
vn 0.8403457999229431 -0.48517417907714844 -0.24171259999275208
vn -0.2831781208515167 -0.5570237040519714 -0.780727207660675
vn -0.39136379957199097 -0.8087116479873657 -0.4391126036643982
vn -0.36943957209587097 -0.7577568888664246 -0.5378839373588562
vn -0.4190407395362854 -0.87660151720047 -0.23659010231494904
vn -0.4176603853702545 -0.8771175146102905 -0.23711752891540527
vn -0.5758308172225952 0.23227845132350922 -0.7838785648345947
vn -0.8359326720237732 0.31828388571739197 -0.44711509346961975
vn -0.782989501953125 0.30069833993911743 -0.5445254445075989
vn -0.907211422920227 0.3405478894710541 -0.24697087705135345
vn -0.9076187014579773 0.3390640318393707 -0.24751541018486023
vn -0.07488906383514404 0.8559895753860474 -0.5115402936935425
vn -0.0835791528224945 0.9553181529045105 -0.2835167348384857
vn -0.08186163753271103 0.9356867671012878 -0.34320396184921265
vn -0.0859905481338501 0.9828806519508362 -0.16294562816619873
vn -0.0859905481338501 0.9828806519508362 -0.16294562816619873
vn 0.8618123531341553 -3.1799174848856637e-07 -0.5072272419929504
vn 0.960719108581543 -3.3159886925204773e-07 -0.27752259373664856
vn 0.9412794709205627 -3.4731354503492184e-07 -0.33762872219085693
vn 0.9877275824546814 -2.9685875801988004e-07 -0.15618661046028137
vn 0.9877275824546814 -3.3065538218579604e-07 -0.15618661046028137
vn 0.046034038066864014 -0.8633096814155579 -0.502570629119873
vn 0.06651335209608078 -0.9594213366508484 -0.27401983737945557
vn 0.06271795183420181 -0.9404672980308533 -0.334047794342041
vn 0.07320041954517365 -0.9855329394340515 -0.1528610736131668
vn 0.07521528750658035 -0.9852960705757141 -0.15340901911258698
vn -0.8537962436676025 -0.12047738581895828 -0.5064754486083984
vn -0.9484896659851074 -0.14923709630966187 -0.2794560492038727
vn -0.9296852350234985 -0.1438380479812622 -0.3391108810901642
vn -0.9745360612869263 -0.15813221037387848 -0.15897689759731293
vn -0.9741060137748718 -0.1601978838443756 -0.15954357385635376
vn 2.867665749306525e-08 9.2547395524889e-08 -1.0
vn 0.0500982366502285 -0.6894181370735168 -0.7226291298866272
vn 0.3880957067012787 -0.5720043778419495 -0.7226290106773376
vn 0.6221029758453369 -0.3013225197792053 -0.7226289510726929
vn 0.6894181370735168 0.0500984787940979 -0.7226290702819824
vn 0.5720045566558838 0.3880953788757324 -0.7226290702819824
vn 0.30132269859313965 0.6221027374267578 -0.722629189491272
vn -0.05009812116622925 0.6894182562828064 -0.7226290106773376
vn -0.3880951404571533 0.5720047950744629 -0.7226290106773376
vn -0.622102677822113 0.30132317543029785 -0.7226289510726929
vn -0.6894182562828064 -0.05009806156158447 -0.7226290702819824
vn -0.5720046758651733 -0.3880952298641205 -0.7226290702819824
vn -0.3013230860233307 -0.622102677822113 -0.7226290106773376
vn 0.005044080782681704 -0.9561319351196289 -0.2928929924964905
vn 0.4824347198009491 -0.8255122900009155 -0.2928928732872009
vn 0.8305568695068359 -0.47369736433029175 -0.2928926944732666
vn 0.9561319947242737 0.0050443969666957855 -0.29289278388023376
vn 0.8255124688148499 0.48243436217308044 -0.2928928732872009
vn 0.4736975431442261 0.8305566310882568 -0.29289305210113525
vn -0.0050440882332623005 0.9561319351196289 -0.29289329051971436
vn -0.48243406414985657 0.8255124688148499 -0.29289335012435913
vn -0.8305562734603882 0.4736980199813843 -0.29289332032203674
vn -0.9561319351196289 -0.005043667275458574 -0.29289329051971436
vn -0.8255126476287842 -0.4824340045452118 -0.2928933799266815
vn -0.4736979603767395 -0.830556333065033 -0.29289326071739197
vn -0.0885743498802185 -0.9916886687278748 -0.0933186262845993
vn 0.9031145572662354 0.41913703083992004 -0.09331812709569931
vn 0.5725517868995667 0.814540445804596 -0.09331831336021423
vn 0.08857417106628418 0.9916886687278748 -0.09331871569156647
vn -0.4191366732120514 0.9031146168708801 -0.09331914782524109
vn -0.8145402073860168 0.572551965713501 -0.09331925213336945
vn -0.9916884899139404 0.08857455104589462 -0.09331928193569183
vn -0.9031147956848145 -0.41913652420043945 -0.09331918507814407
vn -0.5725520849227905 -0.8145401477813721 -0.09331902861595154
vn 0.9916886687278748 -0.08857394754886627 -0.09331811219453812
vn 0.8145407438278198 -0.572551429271698 -0.0933181643486023
vn 0.4191371500492096 -0.9031144976615906 -0.09331804513931274
vn -0.1481984555721283 -0.5530847907066345 -0.8198380470275879
vn -0.18762671947479248 -0.7002328038215637 -0.6888180375099182
vn -0.20450741052627563 -0.7632321119308472 -0.612905740737915
vn -0.20450766384601593 -0.7632321715354919 -0.6129056215286255
vn 0.5380637049674988 -0.19583922624588013 -0.8198380470275879
vn 0.6869015097618103 -0.2500118315219879 -0.6823931336402893
vn 0.7500234842300415 -0.27298635244369507 -0.6024478673934937
vn 0.750023365020752 -0.27298641204833984 -0.6024478077888489
vn 0.24198928475379944 0.5189476609230042 -0.8198381066322327
vn 0.2899549901485443 0.6218104958534241 -0.7275148034095764
vn 0.3317144215106964 0.7113634943962097 -0.6196189522743225
vn 0.33171457052230835 0.7113635540008545 -0.6196187138557434
vn -0.5380635857582092 0.19583909213542938 -0.8198381662368774
vn -0.6392521858215332 0.2326687127351761 -0.7329543232917786
vn -0.6705251336097717 0.24405120313167572 -0.7005962133407593
vn -0.7282026410102844 0.26504412293434143 -0.632038414478302
vn -0.7282027006149292 0.26504430174827576 -0.6320383548736572
vn -0.2770620584487915 0.5941616892814636 -0.755121648311615
vn -0.3529101312160492 0.7568185329437256 -0.5501638054847717
vn -0.37300905585289 0.799920916557312 -0.47009655833244324
vn -0.40256595611572266 0.863305926322937 -0.30437394976615906
vn 0.6200581192970276 0.22568254172801971 -0.751395583152771
vn 0.6200581192970276 0.22568254172801971 -0.751395583152771
vn 0.6200581192970276 0.22568254172801971 -0.751395583152771
vn 0.3413534164428711 -0.770435094833374 -0.5384306907653809
vn 0.3623396158218384 -0.812780499458313 -0.4561775028705597
vn 0.3951316475868225 -0.8724507093429565 -0.2875777781009674
vn 0.393513947725296 -0.8736066818237305 -0.2862837314605713
vn -0.7339928150177002 -0.4047892987728119 -0.5453441143035889
vn -0.8320331573486328 -0.4676680862903595 -0.29834115505218506
vn -0.8333842754364014 -0.466106116771698 -0.2970113754272461
vn 0.2770625352859497 0.5941616296768188 -0.7551215291023254
vn 0.36169952154159546 0.7756659984588623 -0.5172194242477417
vn 0.38300850987434387 0.8213633298873901 -0.42268988490104675
vn 0.4113583266735077 0.8821598291397095 -0.229299858212471
vn 0.41135820746421814 0.882159948348999 -0.22929994761943817
vn 0.5714485049247742 -0.3299262821674347 -0.7513955235481262
vn 0.5714485049247742 -0.3299262821674347 -0.7513955235481262
vn -0.30111631751060486 -0.5923084020614624 -0.7473284602165222
vn -0.3782879710197449 -0.7751758694648743 -0.505964994430542
vn -0.39754894375801086 -0.8209295272827148 -0.40991413593292236
vn -0.41990721225738525 -0.8818438649177551 -0.21454443037509918
vn -0.61263108253479 0.24712269008159637 -0.7507421374320984
vn -0.8015532493591309 0.30816903710365295 -0.5123907327651978
vn -0.8491332530975342 0.3235706388950348 -0.4174622893333435
vn -0.9129512906074524 0.3410523235797882 -0.22406089305877686
vn -0.0768195241689682 0.8780533671379089 -0.4723568856716156
vn -0.08273724466562271 0.9456934332847595 -0.3143540322780609
vn -0.08418410271406174 0.9622316956520081 -0.25888848304748535
vn -0.08620794862508774 0.985364556312561 -0.14705407619476318
vn -0.08620788156986237 0.985364556312561 -0.1470540463924408
vn 0.8836390972137451 -3.215588719740481e-07 -0.4681687653064728
vn 0.9510110020637512 -3.460757511675183e-07 -0.309157133102417
vn 0.8836390972137451 -3.215588719740481e-07 -0.4681687653064728
vn 0.9900203347206116 -3.61243365887276e-07 -0.1409253031015396
vn 0.9900203347206116 -3.622153599280864e-07 -0.1409253031015396
vn 0.06321615725755692 -0.949982762336731 -0.3058376610279083
vn 0.06686265766620636 -0.9659168124198914 -0.25006818771362305
vn 0.07539070397615433 -0.9875084161758423 -0.13835950195789337
vn 0.07338635623455048 -0.9877524375915527 -0.1376938372850418
vn -0.8753530979156494 -0.12351921945810318 -0.46743977069854736
vn -0.9393996596336365 -0.1452021300792694 -0.3105553090572357
vn -0.9551857113838196 -0.15018844604492188 -0.25507596135139465
vn -0.9764718413352966 -0.16059377789497375 -0.1439186930656433
vn -0.976908802986145 -0.15853944420814514 -0.14322929084300995
vn -0.17837437987327576 -0.6657031178474426 -0.7245839834213257
vn 0.6520925164222717 -0.23734234273433685 -0.7200305461883545
vn 0.304703027009964 0.6534375548362732 -0.6929469108581543
vn -0.40256592631340027 0.8633059859275818 -0.30437391996383667
vn 0.26018059253692627 -0.611396849155426 -0.7473286390304565
vn -0.5830986499786377 -0.3104551136493683 -0.7507420182228088
vn -0.7745482921600342 -0.4293968379497528 -0.4644279479980469
vn 0.5714485049247742 -0.3299262821674347 -0.7513955235481262
vn -0.4212943911552429 -0.8813397884368896 -0.21389536559581757
vn -0.9125576615333557 0.3425433039665222 -0.22338883578777313
vn 0.9900203347206116 -3.61243365887276e-07 -0.1409253031015396
vn 0.04717794060707092 -0.8847594857215881 -0.4636538326740265
vn 0.1481984555721283 0.5530847907066345 0.8198380470275879
vn 0.17837437987327576 0.6657031178474426 0.7245839834213257
vn 0.18762674927711487 0.7002326846122742 0.688818097114563
vn 0.20450741052627563 0.7632321119308472 0.612905740737915
vn 0.20450766384601593 0.7632321715354919 0.6129056215286255
vn -0.5380637049674988 0.19583922624588013 0.8198380470275879
vn -0.6520925164222717 0.23734234273433685 0.7200305461883545
vn -0.6869015097618103 0.2500118017196655 0.6823931336402893
vn -0.7500234842300415 0.27298635244369507 0.6024478673934937
vn -0.750023365020752 0.27298641204833984 0.6024478077888489
vn -0.24198928475379944 -0.5189476609230042 0.8198381066322327
vn -0.2899549901485443 -0.6218104958534241 0.7275148034095764
vn -0.304703027009964 -0.6534375548362732 0.6929469108581543
vn -0.3317144215106964 -0.7113634943962097 0.6196189522743225
vn -0.33171457052230835 -0.7113635540008545 0.6196187138557434
vn 0.5380635857582092 -0.19583910703659058 0.8198381662368774
vn 0.6392521858215332 -0.2326687127351761 0.7329543232917786
vn 0.6705251336097717 -0.24405120313167572 0.7005962133407593
vn 0.7282026410102844 -0.26504412293434143 0.632038414478302
vn 0.7282027006149292 -0.26504430174827576 0.6320383548736572
vn 0.2770620584487915 -0.5941616892814636 0.755121648311615
vn 0.3529101312160492 -0.7568185329437256 0.5501638054847717
vn 0.3730091154575348 -0.7999209761619568 0.4700966477394104
vn 0.40256595611572266 -0.863305926322937 0.30437394976615906
vn 0.40256592631340027 -0.8633059859275818 0.30437391996383667
vn -0.6200581192970276 -0.22568254172801971 0.751395583152771
vn -0.6200581192970276 -0.22568254172801971 0.751395583152771
vn -0.6200581192970276 -0.22568254172801971 0.751395583152771
vn -0.26018059253692627 0.611396849155426 0.7473286390304565
vn -0.3413534164428711 0.770435094833374 0.5384306907653809
vn -0.3623396158218384 0.812780499458313 0.4561775028705597
vn -0.3951316475868225 0.8724507093429565 0.2875777781009674
vn -0.393513947725296 0.8736066818237305 0.2862837314605713
vn 0.5830986499786377 0.3104551434516907 0.7507421374320984
vn 0.7339928150177002 0.40478938817977905 0.5453441739082336
vn 0.7745482921600342 0.4293968677520752 0.4644278883934021
vn 0.8320331573486328 0.4676680862903595 0.29834115505218506
vn 0.8333842754364014 0.466106116771698 0.2970113754272461
vn -0.2770625054836273 -0.5941615700721741 0.7551214694976807
vn -0.36169949173927307 -0.7756658792495728 0.5172194242477417
vn -0.3830084800720215 -0.8213633894920349 0.42268985509872437
vn -0.4113583266735077 -0.8821598291397095 0.229299858212471
vn -0.41135820746421814 -0.882159948348999 0.22929994761943817
vn -0.5714485049247742 0.3299262821674347 0.751395583152771
vn -0.5714485049247742 0.3299262821674347 0.751395583152771
vn -0.5714485049247742 0.3299262821674347 0.751395583152771
vn 0.30111631751060486 0.5923084020614624 0.7473284602165222
vn 0.3782879710197449 0.7751758694648743 0.505964994430542
vn 0.3975489139556885 0.8209295272827148 0.40991413593292236
vn 0.41990721225738525 0.8818438649177551 0.21454443037509918
vn 0.4212943911552429 0.8813397884368896 0.21389536559581757
vn 0.6126311421394348 -0.24712270498275757 0.7507420778274536
vn 0.8015532493591309 -0.30816903710365295 0.5123907327651978
vn 0.849133312702179 -0.3235706388950348 0.41746219992637634
vn 0.9129512906074524 -0.3410523235797882 0.22406089305877686
vn 0.9125576615333557 -0.3425433039665222 0.22338883578777313
vn 0.0768195241689682 -0.8780533671379089 0.4723568856716156
vn 0.08273724466562271 -0.9456934332847595 0.3143540322780609
vn 0.08418411016464233 -0.9622316956520081 0.25888848304748535
vn 0.08620794862508774 -0.985364556312561 0.14705407619476318
vn 0.08620788156986237 -0.985364556312561 0.1470540463924408
vn -0.8836390972137451 3.215588719740481e-07 0.4681687653064728
vn -0.9510110020637512 3.460757511675183e-07 0.309157133102417
vn -0.8836390972137451 3.215588719740481e-07 0.4681687653064728
vn -0.047177936881780624 0.8847594261169434 0.46365395188331604
vn -0.06321614980697632 0.9499826431274414 0.3058377206325531
vn -0.06686265766620636 0.9659168124198914 0.2500682473182678
vn -0.07539070397615433 0.9875084161758423 0.13835950195789337
vn -0.07338635623455048 0.9877524375915527 0.1376938372850418
vn 0.8753531575202942 0.12351923435926437 0.4674399197101593
vn 0.9393996596336365 0.1452021300792694 0.3105553686618805
vn 0.9551857709884644 0.15018846094608307 0.25507599115371704
vn 0.9764718413352966 0.16059377789497375 0.1439186930656433
vn 0.976908802986145 0.15853944420814514 0.14322929084300995
vn -0.9900203347206116 3.61243365887276e-07 0.1409253180027008
vn -0.9900203347206116 3.622153599280864e-07 0.1409253180027008
vn -0.9900203347206116 3.61243365887276e-07 0.1409253180027008
vn 0.0 0.0 -1.0
vn 0.0 0.0 -1.0
vn 0.0 0.0 -1.0
vn 0.0 0.0 -1.0
vn 0.0 0.0 -1.0
vn 0.0 0.0 -1.0
vn 0.0 0.0 -1.0
vn 0.0 0.0 -1.0
vn 0.0 0.0 -1.0
vn 0.0 0.0 -1.0
vn 0.0 0.0 -1.0
vn 0.0 0.0 -1.0
f 387/387/387 388/388/388 389/389/389
f 389/389/389 375/375/375 387/387/387
f 384/384/384 386/386/386 385/385/385
f 385/385/385 383/383/383 384/384/384
f 382/382/382 384/384/384 383/383/383
f 379/379/379 381/381/381 380/380/380
f 380/380/380 378/378/378 379/379/379
f 377/377/377 379/379/379 378/378/378
f 374/374/374 376/376/376 375/375/375
f 371/371/371 373/373/373 372/372/372
f 372/372/372 370/370/370 371/371/371
f 369/369/369 371/371/371 370/370/370
f 366/366/366 368/368/368 367/367/367
f 367/367/367 365/365/365 366/366/366
f 364/364/364 366/366/366 365/365/365
f 361/361/361 363/363/363 362/362/362
f 362/362/362 360/360/360 361/361/361
f 359/359/359 361/361/361 360/360/360
f 356/356/356 358/358/358 357/357/357
f 353/353/353 355/355/355 354/354/354
f 354/354/354 352/352/352 353/353/353
f 351/351/351 353/353/353 352/352/352
f 348/348/348 350/350/350 349/349/349
f 349/349/349 347/347/347 348/348/348
f 346/346/346 348/348/348 347/347/347
f 343/343/343 345/345/345 344/344/344
f 344/344/344 342/342/342 343/343/343
f 341/341/341 343/343/343 342/342/342
f 338/338/338 340/340/340 339/339/339
f 335/335/335 337/337/337 336/336/336
f 336/336/336 334/334/334 335/335/335
f 333/333/333 335/335/335 334/334/334
f 330/330/330 332/332/332 331/331/331
f 331/331/331 329/329/329 330/330/330
f 328/328/328 330/330/330 329/329/329
f 325/325/325 327/327/327 326/326/326
f 326/326/326 324/324/324 325/325/325
f 323/323/323 325/325/325 324/324/324
f 320/320/320 322/322/322 321/321/321
f 321/321/321 319/319/319 320/320/320
f 318/318/318 320/320/320 319/319/319
f 315/315/315 317/317/317 316/316/316
f 316/316/316 314/314/314 315/315/315
f 313/313/313 315/315/315 314/314/314
f 311/311/311 288/288/288 290/290/290
f 290/290/290 291/291/291 311/311/311
f 298/298/298 297/297/297 299/299/299
f 299/299/299 300/300/300 298/298/298
f 296/296/296 297/297/297 298/298/298
f 293/293/293 292/292/292 294/294/294
f 294/294/294 295/295/295 293/293/293
f 312/312/312 292/292/292 293/293/293
f 287/287/287 288/288/288 289/289/289
f 284/284/284 283/283/283 285/285/285
f 285/285/285 286/286/286 284/284/284
f 282/282/282 283/283/283 284/284/284
f 280/280/280 279/279/279 281/281/281
f 281/281/281 310/310/310 280/280/280
f 278/278/278 279/279/279 280/280/280
f 276/276/276 275/275/275 277/277/277
f 277/277/277 309/309/309 276/276/276
f 274/274/274 275/275/275 276/276/276
f 272/272/272 308/308/308 273/273/273
f 269/269/269 268/268/268 270/270/270
f 270/270/270 271/271/271 269/269/269
f 267/267/267 268/268/268 269/269/269
f 307/307/307 264/264/264 265/265/265
f 265/265/265 266/266/266 307/307/307
f 306/306/306 264/264/264 307/307/307
f 261/261/261 260/260/260 262/262/262
f 262/262/262 263/263/263 261/261/261
f 305/305/305 260/260/260 261/261/261
f 257/257/257 258/258/258 259/259/259
f 255/255/255 254/254/254 256/256/256
f 256/256/256 304/304/304 255/255/255
f 253/253/253 254/254/254 255/255/255
f 250/250/250 249/249/249 251/251/251
f 251/251/251 252/252/252 250/250/250
f 248/248/248 249/249/249 250/250/250
f 303/303/303 245/245/245 246/246/246
f 246/246/246 247/247/247 303/303/303
f 244/244/244 245/245/245 303/303/303
f 241/241/241 302/302/302 242/242/242
f 242/242/242 243/243/243 241/241/241
f 240/240/240 302/302/302 241/241/241
f 237/237/237 301/301/301 238/238/238
f 238/238/238 239/239/239 237/237/237
f 236/236/236 301/301/301 237/237/237
f 223/223/223 212/212/212 224/224/224
f 224/224/224 232/232/232 223/223/223
f 222/222/222 223/223/223 232/232/232
f 232/232/232 231/231/231 222/222/222
f 221/221/221 222/222/222 231/231/231
f 231/231/231 230/230/230 221/221/221
f 220/220/220 221/221/221 230/230/230
f 230/230/230 229/229/229 220/220/220
f 219/219/219 220/220/220 229/229/229
f 229/229/229 228/228/228 219/219/219
f 218/218/218 219/219/219 228/228/228
f 228/228/228 227/227/227 218/218/218
f 217/217/217 218/218/218 227/227/227
f 227/227/227 226/226/226 217/217/217
f 216/216/216 217/217/217 226/226/226
f 226/226/226 225/225/225 216/216/216
f 215/215/215 216/216/216 225/225/225
f 225/225/225 233/233/233 215/215/215
f 214/214/214 215/215/215 233/233/233
f 233/233/233 234/234/234 214/214/214
f 213/213/213 214/214/214 234/234/234
f 234/234/234 235/235/235 213/213/213
f 212/212/212 213/213/213 235/235/235
f 235/235/235 224/224/224 212/212/212
f 211/211/211 200/200/200 212/212/212
f 212/212/212 223/223/223 211/211/211
f 210/210/210 211/211/211 223/223/223
f 223/223/223 222/222/222 210/210/210
f 209/209/209 210/210/210 222/222/222
f 222/222/222 221/221/221 209/209/209
f 208/208/208 209/209/209 221/221/221
f 221/221/221 220/220/220 208/208/208
f 207/207/207 208/208/208 220/220/220
f 220/220/220 219/219/219 207/207/207
f 206/206/206 207/207/207 219/219/219
f 219/219/219 218/218/218 206/206/206
f 205/205/205 206/206/206 218/218/218
f 218/218/218 217/217/217 205/205/205
f 204/204/204 205/205/205 217/217/217
f 217/217/217 216/216/216 204/204/204
f 203/203/203 204/204/204 216/216/216
f 216/216/216 215/215/215 203/203/203
f 202/202/202 203/203/203 215/215/215
f 215/215/215 214/214/214 202/202/202
f 201/201/201 202/202/202 214/214/214
f 214/214/214 213/213/213 201/201/201
f 200/200/200 201/201/201 213/213/213
f 213/213/213 212/212/212 200/200/200
f 199/199/199 200/200/200 211/211/211
f 199/199/199 211/211/211 210/210/210
f 199/199/199 210/210/210 209/209/209
f 199/199/199 209/209/209 208/208/208
f 199/199/199 208/208/208 207/207/207
f 199/199/199 207/207/207 206/206/206
f 199/199/199 206/206/206 205/205/205
f 199/199/199 205/205/205 204/204/204
f 199/199/199 204/204/204 203/203/203
f 199/199/199 203/203/203 202/202/202
f 199/199/199 202/202/202 201/201/201
f 199/199/199 201/201/201 200/200/200
f 195/195/195 196/196/196 198/198/198
f 198/198/198 197/197/197 195/195/195
f 194/194/194 196/196/196 195/195/195
f 190/190/190 191/191/191 193/193/193
f 193/193/193 192/192/192 190/190/190
f 189/189/189 191/191/191 190/190/190
f 185/185/185 186/186/186 188/188/188
f 188/188/188 187/187/187 185/185/185
f 184/184/184 186/186/186 185/185/185
f 180/180/180 181/181/181 183/183/183
f 183/183/183 182/182/182 180/180/180
f 179/179/179 181/181/181 180/180/180
f 175/175/175 176/176/176 178/178/178
f 178/178/178 177/177/177 175/175/175
f 174/174/174 176/176/176 175/175/175
f 170/170/170 171/171/171 173/173/173
f 173/173/173 172/172/172 170/170/170
f 169/169/169 171/171/171 170/170/170
f 165/165/165 166/166/166 168/168/168
f 168/168/168 167/167/167 165/165/165
f 164/164/164 166/166/166 165/165/165
f 160/160/160 161/161/161 163/163/163
f 163/163/163 162/162/162 160/160/160
f 159/159/159 161/161/161 160/160/160
f 155/155/155 156/156/156 158/158/158
f 158/158/158 157/157/157 155/155/155
f 154/154/154 156/156/156 155/155/155
f 150/150/150 151/151/151 153/153/153
f 153/153/153 152/152/152 150/150/150
f 149/149/149 151/151/151 150/150/150
f 145/145/145 146/146/146 148/148/148
f 148/148/148 147/147/147 145/145/145
f 144/144/144 146/146/146 145/145/145
f 140/140/140 141/141/141 143/143/143
f 143/143/143 142/142/142 140/140/140
f 139/139/139 141/141/141 140/140/140
f 135/135/135 136/136/136 138/138/138
f 138/138/138 137/137/137 135/135/135
f 134/134/134 136/136/136 135/135/135
f 130/130/130 131/131/131 133/133/133
f 133/133/133 132/132/132 130/130/130
f 129/129/129 131/131/131 130/130/130
f 125/125/125 126/126/126 128/128/128
f 128/128/128 127/127/127 125/125/125
f 124/124/124 126/126/126 125/125/125
f 120/120/120 121/121/121 123/123/123
f 123/123/123 122/122/122 120/120/120
f 119/119/119 121/121/121 120/120/120
f 116/116/116 118/118/118 117/117/117
f 117/117/117 115/115/115 116/116/116
f 114/114/114 116/116/116 115/115/115
f 111/111/111 113/113/113 112/112/112
f 112/112/112 110/110/110 111/111/111
f 109/109/109 111/111/111 110/110/110
f 106/106/106 108/108/108 107/107/107
f 107/107/107 105/105/105 106/106/106
f 104/104/104 106/106/106 105/105/105
f 101/101/101 103/103/103 102/102/102
f 102/102/102 100/100/100 101/101/101
f 99/99/99 101/101/101 100/100/100
f 96/96/96 98/98/98 97/97/97
f 97/97/97 95/95/95 96/96/96
f 94/94/94 96/96/96 95/95/95
f 91/91/91 93/93/93 92/92/92
f 92/92/92 90/90/90 91/91/91
f 89/89/89 91/91/91 90/90/90
f 86/86/86 88/88/88 87/87/87
f 87/87/87 85/85/85 86/86/86
f 84/84/84 86/86/86 85/85/85
f 81/81/81 83/83/83 82/82/82
f 82/82/82 80/80/80 81/81/81
f 79/79/79 81/81/81 80/80/80
f 76/76/76 78/78/78 77/77/77
f 77/77/77 75/75/75 76/76/76
f 74/74/74 76/76/76 75/75/75
f 71/71/71 73/73/73 72/72/72
f 72/72/72 70/70/70 71/71/71
f 69/69/69 71/71/71 70/70/70
f 66/66/66 68/68/68 67/67/67
f 67/67/67 65/65/65 66/66/66
f 64/64/64 66/66/66 65/65/65
f 61/61/61 63/63/63 62/62/62
f 62/62/62 60/60/60 61/61/61
f 59/59/59 61/61/61 60/60/60
f 56/56/56 58/58/58 57/57/57
f 57/57/57 55/55/55 56/56/56
f 54/54/54 56/56/56 55/55/55
f 51/51/51 53/53/53 52/52/52
f 52/52/52 50/50/50 51/51/51
f 49/49/49 51/51/51 50/50/50
f 46/46/46 48/48/48 47/47/47
f 47/47/47 45/45/45 46/46/46
f 44/44/44 46/46/46 45/45/45
f 41/41/41 43/43/43 42/42/42
f 42/42/42 40/40/40 41/41/41
f 39/39/39 41/41/41 40/40/40
f 391/391/391 401/401/401 38/38/38
f 401/401/401 400/400/400 38/38/38
f 400/400/400 399/399/399 38/38/38
f 399/399/399 398/398/398 38/38/38
f 398/398/398 397/397/397 38/38/38
f 397/397/397 396/396/396 38/38/38
f 396/396/396 395/395/395 38/38/38
f 395/395/395 394/394/394 38/38/38
f 394/394/394 393/393/393 38/38/38
f 393/393/393 392/392/392 38/38/38
f 392/392/392 390/390/390 38/38/38
f 390/390/390 391/391/391 38/38/38
f 25/25/25 37/37/37 26/26/26
f 26/26/26 14/14/14 25/25/25
f 24/24/24 36/36/36 37/37/37
f 37/37/37 25/25/25 24/24/24
f 23/23/23 35/35/35 36/36/36
f 36/36/36 24/24/24 23/23/23
f 22/22/22 34/34/34 35/35/35
f 35/35/35 23/23/23 22/22/22
f 21/21/21 33/33/33 34/34/34
f 34/34/34 22/22/22 21/21/21
f 20/20/20 32/32/32 33/33/33
f 33/33/33 21/21/21 20/20/20
f 19/19/19 31/31/31 32/32/32
f 32/32/32 20/20/20 19/19/19
f 18/18/18 30/30/30 31/31/31
f 31/31/31 19/19/19 18/18/18
f 17/17/17 29/29/29 30/30/30
f 30/30/30 18/18/18 17/17/17
f 16/16/16 28/28/28 29/29/29
f 29/29/29 17/17/17 16/16/16
f 15/15/15 27/27/27 28/28/28
f 28/28/28 16/16/16 15/15/15
f 14/14/14 26/26/26 27/27/27
f 27/27/27 15/15/15 14/14/14
f 13/13/13 25/25/25 14/14/14
f 14/14/14 2/2/2 13/13/13
f 12/12/12 24/24/24 25/25/25
f 25/25/25 13/13/13 12/12/12
f 11/11/11 23/23/23 24/24/24
f 24/24/24 12/12/12 11/11/11
f 10/10/10 22/22/22 23/23/23
f 23/23/23 11/11/11 10/10/10
f 9/9/9 21/21/21 22/22/22
f 22/22/22 10/10/10 9/9/9
f 8/8/8 20/20/20 21/21/21
f 21/21/21 9/9/9 8/8/8
f 7/7/7 19/19/19 20/20/20
f 20/20/20 8/8/8 7/7/7
f 6/6/6 18/18/18 19/19/19
f 19/19/19 7/7/7 6/6/6
f 5/5/5 17/17/17 18/18/18
f 18/18/18 6/6/6 5/5/5
f 4/4/4 16/16/16 17/17/17
f 17/17/17 5/5/5 4/4/4
f 3/3/3 15/15/15 16/16/16
f 16/16/16 4/4/4 3/3/3
f 2/2/2 14/14/14 15/15/15
f 15/15/15 3/3/3 2/2/2
f 1/1/1 13/13/13 2/2/2
f 1/1/1 12/12/12 13/13/13
f 1/1/1 11/11/11 12/12/12
f 1/1/1 10/10/10 11/11/11
f 1/1/1 9/9/9 10/10/10
f 1/1/1 8/8/8 9/9/9
f 1/1/1 7/7/7 8/8/8
f 1/1/1 6/6/6 7/7/7
f 1/1/1 5/5/5 6/6/6
f 1/1/1 4/4/4 5/5/5
f 1/1/1 3/3/3 4/4/4
f 1/1/1 2/2/2 3/3/3
