# Recovered local-space geometry; original node transforms not applied
o mesh_0
v -1.3667735402123071e-05 -1.0804534156250156e-07 50.53801727294922
v -1.3667735402123071e-05 30.377357482910156 41.47371292114258
v -15.188699722290039 26.307559967041016 41.47371292114258
v -26.307580947875977 15.188678741455078 41.47371292114258
v -30.37736701965332 4.483881639316678e-06 41.47371292114258
v -26.307580947875977 -15.188668251037598 41.47371292114258
v -15.188699722290039 -26.307552337646484 41.47371292114258
v -2.8361902877804823e-05 -30.377349853515625 41.47371292114258
v 15.188640594482422 -26.30756950378418 41.47371292114258
v 26.307540893554688 -15.18869400024414 41.47371292114258
v 30.377344131469727 -2.3769975086906925e-05 41.47371292114258
v 26.30755615234375 15.188652992248535 41.47371292114258
v 15.188685417175293 26.30754280090332 41.47371292114258
v -1.4456086319114547e-05 40.128211975097656 23.170024871826172
v -20.064125061035156 34.75204849243164 23.170024871826172
v -34.75205612182617 20.064102172851562 23.170024871826172
v -40.12822341918945 4.754431756737176e-06 23.170024871826172
v -34.75206756591797 -20.06409454345703 23.170024871826172
v -20.064136505126953 -34.752037048339844 23.170024871826172
v -3.6802346585318446e-05 -40.128204345703125 23.170024871826172
v 20.064069747924805 -34.752052307128906 23.170024871826172
v 34.75201416015625 -20.064130783081055 23.170024871826172
v 40.12819290161133 -3.250810186727904e-05 23.170024871826172
v 34.75204849243164 20.064069747924805 23.170024871826172
v 20.064117431640625 34.75202560424805 23.170024871826172
v 0.0 42.24932098388672 -1.0995804961000388e-12
v -36.58898162841797 -21.124670028686523 2.762389385679853e-06
v -21.124656677246094 -36.5889892578125 1.5948648979247082e-06
v 0.0 -42.24932098388672 -2.7219639302938914e-12
v 21.124656677246094 -36.5889892578125 -1.5948695590850548e-06
v 36.58898162841797 -21.124670028686523 -2.7623932510323357e-06
v 42.24932098388672 -1.5130957763176411e-05 -3.189736162312329e-06
v 36.588993072509766 21.124645233154297 -2.7623925689113094e-06
v 21.124677658081055 36.58897399902344 -1.594868649590353e-06
v -14.894546508789062 -53.77312469482422 81.6097412109375
v 7.637948036193848 -13.665760040283203 47.377994537353516
v -13.279425621032715 -8.060962677001953 47.377994537353516
v 2.3625431060791016 -28.389860153198242 64.43106079101562
v -17.147998809814453 -23.162033081054688 64.43106079101562
v 52.12751770019531 -18.690185546875 81.6097412109375
v 28.34489631652832 0.7135335206985474 64.43106079101562
v 21.436498641967773 -18.26712989807129 64.43106079101562
v 14.279449462890625 6.417832851409912 47.377994537353516
v 6.8729095458984375 -13.9314546585083 47.377994537353516
v 23.019437789916992 51.13451385498047 81.6097412109375
v 1.6167608499526978 29.133543014526367 64.43106079101562
v 19.923091888427734 20.5971622467041 64.43106079101562
v -5.148873329162598 14.784462928771973 47.377994537353516
v 14.477455139160156 5.632548809051514 47.377994537353516
v -53.18085861206055 19.36863136291504 81.6097412109375
v -29.39824104309082 -0.03509372100234032 64.43106079101562
v -22.48984146118164 18.94556999206543 64.43106079101562
v -14.279448509216309 -6.417829513549805 47.377994537353516
v -6.872908115386963 13.931455612182617 47.377994537353516
v -21.278257369995117 44.82611083984375 97.28453826904297
v -16.06156349182129 15.541604995727539 76.10675048828125
v -1.9822824001312256 22.10687828063965 76.10675048828125
v -12.760231018066406 4.790064811706543 46.5236930847168
v 4.524837970733643 12.850218772888184 46.5236930847168
v 45.958194732666016 17.15438461303711 97.28453826904297
v 16.668180465698242 14.53749942779541 76.10675048828125
v 21.981380462646484 -0.060409825295209885 76.10675048828125
v 6.129703998565674 12.307782173156738 46.5236930847168
v 12.652693748474121 -5.613999843597412 46.5236930847168
v 23.358057022094727 -42.70154571533203 97.38822937011719
v 17.754438400268555 -14.1746187210083 75.92813873291016
v 3.679765462875366 -20.7397403717041 76.3277587890625
v 14.10469913482666 -4.308099746704102 46.16923522949219
v -3.1747055053710938 -12.368062973022461 46.88522720336914
v -40.99616241455078 -27.15912437438965 97.38822937011719
v -12.76009750366211 -19.038333892822266 75.92813873291016
v -20.52692222595215 -5.589412212371826 76.3277587890625
v -2.839162826538086 -14.394471168518066 46.16923522949219
v -12.374455451965332 2.1167075634002686 46.88522720336914
v 20.661396026611328 45.1137580871582 110.52976989746094
v 1.5813870429992676 22.2938232421875 89.35198211669922
v 15.660665512084961 15.728540420532227 89.35198211669922
v -4.0908660888671875 11.5241117477417 45.55693435668945
v 11.53157901763916 4.23923921585083 45.55693435668945
v 42.682376861572266 -24.17939567565918 110.52976989746094
v 21.8504695892334 -3.4240434169769287 89.35198211669922
v 14.083081245422363 -16.877546310424805 89.35198211669922
v 12.08837890625 2.8129608631134033 45.55693435668945
v 3.469642400741577 -12.115118980407715 45.55693435668945
v -17.69701385498047 -45.34133529663086 110.63346862792969
v 0.553941547870636 -22.711957931518555 89.17337036132812
v -13.522255897521973 -16.150110244750977 89.57299041748047
v 5.217350482940674 -12.361754417419434 45.236568450927734
v -10.401671409606934 -5.080691337585449 45.88369369506836
v -47.156925201416016 13.94733715057373 110.63346862792969
v -22.786243438720703 -2.4628028869628906 89.17337036132812
v -17.47618865966797 12.131730079650879 89.57299041748047
v -11.609740257263184 -6.490269184112549 45.236568450927734
v -5.717672824859619 9.70390510559082 45.88369369506836
v -3.0865261554718018 34.49516296386719 124.2863998413086
v -6.696753025054932 13.80815601348877 92.15235137939453
v 4.228705883026123 14.764006614685059 92.15235137939453
v -7.102693557739258 5.8784332275390625 47.264583587646484
v 6.310441017150879 7.051926136016846 47.264583587646484
v 34.836666107177734 -0.09711633622646332 124.2863998413086
v 14.773760795593262 5.239159107208252 92.15235137939453
v 14.773756980895996 -5.728034973144531 92.15235137939453
v 7.244134902954102 6.304564952850342 47.264583587646484
v 7.244131565093994 -7.159803867340088 47.264583587646484
v 5.390983581542969 -34.348636627197266 124.44375610351562
v 8.561600685119629 -14.070791244506836 91.88133239746094
v -2.3607614040374756 -15.027652740478516 92.48768615722656
v 8.522714614868164 -6.644067287445068 46.726749420166016
v -4.886616230010986 -7.8187994956970215 47.81315994262695
v -33.54885482788086 -8.498902320861816 124.44375610351562
v -12.856173515319824 -9.929397583007812 91.88133239746094
v -14.76133918762207 0.8680059909820557 92.48768615722656
v -5.1533098220825195 -9.24414348602295 46.726749420166016
v -7.492273807525635 4.011775493621826 47.81315994262695
v 6.036706963641336e-06 -1.0804534156250156e-07 -50.53801727294922
v 7.4053791649930645e-06 30.377357482910156 -41.47371292114258
v 15.188693046569824 26.307559967041016 -41.47371292114258
v 26.307575225830078 15.188678741455078 -41.47371292114258
v 30.377361297607422 4.483881639316678e-06 -41.47371292114258
v 26.307575225830078 -15.188668251037598 -41.47371292114258
v 15.188693046569824 -26.307552337646484 -41.47371292114258
v 2.2099546185927466e-05 -30.377349853515625 -41.47371292114258
v -15.188647270202637 -26.30756950378418 -41.47371292114258
v -26.307546615600586 -15.18869400024414 -41.47371292114258
v -30.377349853515625 -2.3769975086906925e-05 -41.47371292114258
v -26.30756187438965 15.188652992248535 -41.47371292114258
v -15.188693046569824 26.30754280090332 -41.47371292114258
v 1.108439846575493e-05 38.66045379638672 -23.170024871826172
v 19.33024024963379 33.480934143066406 -23.170028686523438
v 33.48093795776367 19.330223083496094 -23.17003059387207
v 38.66045379638672 4.317067123338347e-06 -23.17003059387207
v 33.48094177246094 -19.330215454101562 -23.17003059387207
v 19.33024787902832 -33.48092269897461 -23.170028686523438
v 3.261330857640132e-05 -38.66044616699219 -23.170024871826172
v -19.330196380615234 -33.480934143066406 -23.17002296447754
v -33.480899810791016 -19.33024787902832 -23.170019149780273
v -38.66043472290039 -3.158252366119996e-05 -23.170019149780273
v -33.480934143066406 19.330190658569336 -23.170019149780273
v -19.330242156982422 33.48091125488281 -23.17002296447754
v -42.24932098388672 -1.5130957763176411e-05 3.18973411594925e-06
v -36.588993072509766 21.124645233154297 2.762391886790283e-06
v -21.124677658081055 36.58897399902344 1.5948689906508662e-06
v -13.674745559692383 -49.62153625488281 81.6097412109375
v -15.751014709472656 -21.41732406616211 64.43106079101562
v 2.2254579067230225 -26.234100341796875 64.43106079101562
v -12.18661880493164 -7.503617763519287 47.377994537353516
v 7.086069583892822 -12.667722702026367 47.377994537353516
v 48.0775260925293 -17.297088623046875 81.6097412109375
v 19.799673080444336 -16.907297134399414 64.43106079101562
v 26.164878845214844 0.5809601545333862 64.43106079101562
v 6.3811845779418945 -12.912527084350586 47.377994537353516
v 13.205365180969238 5.836743354797363 47.377994537353516
v 21.258150100708008 47.03745651245117 81.6097412109375
v 18.405261993408203 18.901185989379883 64.43106079101562
v 1.5383148193359375 26.76637077331543 64.43106079101562
v 13.387802124023438 5.113204479217529 47.377994537353516
v -4.695353031158447 13.545524597167969 47.377994537353516
v -48.9506950378418 17.769250869750977 81.6097412109375
v -20.672840118408203 17.379453659057617 64.43106079101562
v -27.038047790527344 -0.10880422592163086 64.43106079101562
v -6.2838311195373535 12.759587287902832 47.377994537353516
v -13.108012199401855 -5.989680290222168 47.377994537353516
v -19.5565185546875 41.225067138671875 97.28453826904297
v -1.7777438163757324 20.29219627380371 76.10675048828125
v -14.75000286102295 14.243133544921875 76.10675048828125
v 4.21773624420166 11.763364791870117 46.5236930847168
v -11.708247184753418 4.336963176727295 46.5236930847168
v 42.39328384399414 15.729104042053223 97.28453826904297
v 20.301712036132812 -0.13212978839874268 76.10675048828125
v 15.406275749206543 13.317978858947754 76.10675048828125
v 11.706518173217773 -5.249053955078125 46.5236930847168
v 5.696415424346924 11.263579368591309 46.5236930847168
v 21.570144653320312 -39.42049026489258 97.38822937011719
v 3.439110279083252 -19.18549156188965 76.3277587890625
v 16.407123565673828 -13.136570930480957 75.92813873291016
v -2.8764095306396484 -11.472061157226562 46.88522720336914
v 13.044355392456055 -4.045833587646484 46.16923522949219
v -37.72405242919922 -25.100133895874023 97.38822937011719
v -18.864259719848633 -5.2263994216918945 76.3277587890625
v -11.708124160766602 -17.617862701416016 75.92813873291016
v -11.352804183959961 1.8738058805465698 46.88522720336914
v -2.5672497749328613 -13.339137077331543 46.16923522949219
v 19.08551597595215 41.49009704589844 110.52976989746094
v 14.47797966003418 14.41537094116211 89.35198211669922
v 1.5057222843170166 20.464441299438477 89.35198211669922
v 10.673553466796875 3.8294477462768555 45.55693435668945
v -3.720534324645996 10.541526794433594 45.55693435668945
v 39.37503433227539 -22.354694366455078 110.52976989746094
v 13.024436950683594 -15.626974105834961 89.35198211669922
v 20.181095123291016 -3.231288433074951 89.35198211669922
v 3.2455086708068848 -11.239005088806152 45.55693435668945
v 11.18657398223877 2.5153145790100098 45.55693435668945
v -16.256860733032227 -41.852718353271484 110.63346862792969
v -12.410355567932129 -14.956734657287598 89.57299041748047
v 0.5590626001358032 -21.00263786315918 89.17337036132812
v -9.535135269165039 -4.757678031921387 45.88369369506836
v 4.855798244476318 -11.466248512268066 45.236568450927734
v -43.40040969848633 12.774219512939453 110.63346862792969
v -16.05339813232422 11.101369857788086 89.57299041748047
v -20.94593620300293 -2.345628261566162 89.17337036132812
v -5.2194294929504395 8.864439010620117 45.88369369506836
v -10.648216247558594 -6.056424140930176 45.236568450927734
v -2.795163631439209 31.706418991088867 124.2863998413086
v 3.9448885917663574 13.526676177978516 92.15235137939453
v -6.121526718139648 12.645981788635254 92.15235137939453
v 5.862941741943359 6.4209794998168945 47.264583587646484
v -6.495549201965332 5.339755535125732 47.264583587646484
v 32.14621353149414 -0.16595011949539185 124.2863998413086
v 13.660806655883789 -5.354122638702393 92.15235137939453
v 13.660810470581055 4.750746250152588 92.15235137939453
v 6.723217964172363 -6.673315048217773 47.264583587646484
v 6.723221302032471 5.732381343841553 47.264583587646484
v 5.0157790184021 -31.72435188293457 124.44375610351562
v -2.1264638900756836 -13.92253303527832 92.48768615722656
v 7.937097549438477 -13.040907859802246 91.88133239746094
v -4.45371675491333 -7.2804951667785645 47.81315994262695
v 7.90126895904541 -6.198129653930664 46.726749420166016
v -30.862308502197266 -7.90712308883667 124.44375610351562
v -13.55201244354248 0.7232867479324341 92.48768615722656
v -11.796645164489746 -9.225142478942871 91.88133239746094
v -6.85449743270874 3.619868755340576 47.81315994262695
v -4.699440956115723 -8.593767166137695 46.726749420166016
v 36.588993072509766 21.124645233154297 -2.7623925689113094e-06
v 0.0 -42.24932098388672 -2.7219639302938914e-12
v -36.588993072509766 21.124645233154297 2.762391886790283e-06
vt 0.3128097653388977 0.005599558353424072
vt 0.33871665596961975 0.03158086538314819
vt 0.3129267394542694 0.03156918287277222
vt 0.2871367931365967 0.03158086538314819
vt 0.3129267394542694 0.03156918287277222
vt 0.33871665596961975 0.03158086538314819
vt 0.3129267394542694 0.03156918287277222
vt 0.2871367931365967 0.03158086538314819
vt 0.3129267394542694 0.03156918287277222
vt 0.33871665596961975 0.03158086538314819
vt 0.3129267394542694 0.03156918287277222
vt 0.2871367931365967 0.03158086538314819
vt 0.3129267394542694 0.03156918287277222
vt 0.36072301864624023 0.06503134965896606
vt 0.3129267394542694 0.06495994329452515
vt 0.2651304304599762 0.06503129005432129
vt 0.3129267394542694 0.06495994329452515
vt 0.36072301864624023 0.06503134965896606
vt 0.3129267394542694 0.06495994329452515
vt 0.2651304304599762 0.06503129005432129
vt 0.3129267394542694 0.06495994329452515
vt 0.36072301864624023 0.06503134965896606
vt 0.3129267394542694 0.06495994329452515
vt 0.2651304304599762 0.06503129005432129
vt 0.3129267394542694 0.06495994329452515
vt 0.3728996813297272 0.12286913394927979
vt 0.3728996813297272 0.12286913394927979
vt 0.31292667984962463 0.12282806634902954
vt 0.25295373797416687 0.12286907434463501
vt 0.31292667984962463 0.12282806634902954
vt 0.3728996813297272 0.12286913394927979
vt 0.31292667984962463 0.12282806634902954
vt 0.25295373797416687 0.12286907434463501
vt 0.31292667984962463 0.12282806634902954
vt 0.3630378246307373 0.041532158851623535
vt 0.353308767080307 0.0008404254913330078
vt 0.37208011746406555 0.0008548498153686523
vt 0.3564811944961548 0.021184921264648438
vt 0.3695272207260132 0.021194934844970703
vt 0.3630378246307373 0.041532158851623535
vt 0.3564811944961548 0.021184921264648438
vt 0.3695272207260132 0.021194934844970703
vt 0.353308767080307 0.0008404254913330078
vt 0.37208011746406555 0.0008548498153686523
vt 0.3630378246307373 0.041532158851623535
vt 0.3564811944961548 0.021184921264648438
vt 0.3695272207260132 0.021194934844970703
vt 0.353308767080307 0.0008404254913330078
vt 0.37208011746406555 0.0008548498153686523
vt 0.3630378246307373 0.041532158851623535
vt 0.3564811944961548 0.021184921264648438
vt 0.3695272207260132 0.021194934844970703
vt 0.353308767080307 0.0008404254913330078
vt 0.37208011746406555 0.0008548498153686523
vt 0.3630378246307373 0.041532158851623535
vt 0.3564811944961548 0.021184921264648438
vt 0.3695272207260132 0.021194934844970703
vt 0.353308767080307 0.0008404254913330078
vt 0.37208011746406555 0.0008548498153686523
vt 0.3630378246307373 0.041532158851623535
vt 0.3564811944961548 0.021184921264648438
vt 0.3695272207260132 0.021194934844970703
vt 0.353308767080307 0.0008404254913330078
vt 0.37208011746406555 0.0008548498153686523
vt 0.3630378246307373 0.041532158851623535
vt 0.3564811944961548 0.021184921264648438
vt 0.3695272207260132 0.021194934844970703
vt 0.353308767080307 0.0008404254913330078
vt 0.37208011746406555 0.0008548498153686523
vt 0.3630378246307373 0.041532158851623535
vt 0.3564811944961548 0.021184921264648438
vt 0.3695272207260132 0.021194934844970703
vt 0.353308767080307 0.0008404254913330078
vt 0.37208011746406555 0.0008548498153686523
vt 0.3630378246307373 0.041532158851623535
vt 0.3564811944961548 0.021184921264648438
vt 0.3695272207260132 0.021194934844970703
vt 0.353308767080307 0.0008404254913330078
vt 0.37208011746406555 0.0008548498153686523
vt 0.3630378246307373 0.041532158851623535
vt 0.3564811944961548 0.021184921264648438
vt 0.3695272207260132 0.021194934844970703
vt 0.353308767080307 0.0008404254913330078
vt 0.37208011746406555 0.0008548498153686523
vt 0.3630378246307373 0.041532158851623535
vt 0.3564811944961548 0.021184921264648438
vt 0.3695272207260132 0.021194934844970703
vt 0.353308767080307 0.0008404254913330078
vt 0.37208011746406555 0.0008548498153686523
vt 0.3630378246307373 0.041532158851623535
vt 0.3564811944961548 0.021184921264648438
vt 0.3695272207260132 0.021194934844970703
vt 0.353308767080307 0.0008404254913330078
vt 0.37208011746406555 0.0008548498153686523
vt 0.3630378246307373 0.041532158851623535
vt 0.3564811944961548 0.021184921264648438
vt 0.3695272207260132 0.021194934844970703
vt 0.353308767080307 0.0008404254913330078
vt 0.37208011746406555 0.0008548498153686523
vt 0.3630378246307373 0.041532158851623535
vt 0.3564811944961548 0.021184921264648438
vt 0.3695272207260132 0.021194934844970703
vt 0.353308767080307 0.0008404254913330078
vt 0.37208011746406555 0.0008548498153686523
vt 0.3630378246307373 0.041532158851623535
vt 0.3564811944961548 0.021184921264648438
vt 0.3695272207260132 0.021194934844970703
vt 0.353308767080307 0.0008404254913330078
vt 0.37208011746406555 0.0008548498153686523
vt 0.3630378246307373 0.041532158851623535
vt 0.3564811944961548 0.021184921264648438
vt 0.3695272207260132 0.021194934844970703
vt 0.353308767080307 0.0008404254913330078
vt 0.37208011746406555 0.0008548498153686523
vt 0.31210651993751526 0.003791511058807373
vt 0.3382391035556793 0.03042203187942505
vt 0.31222447752952576 0.03041023015975952
vt 0.28620997071266174 0.03042203187942505
vt 0.31222447752952576 0.03041023015975952
vt 0.3382391035556793 0.03042203187942505
vt 0.31222447752952576 0.03041023015975952
vt 0.28620997071266174 0.03042203187942505
vt 0.31222447752952576 0.03041023015975952
vt 0.3382391035556793 0.03042203187942505
vt 0.31222447752952576 0.03041023015975952
vt 0.28620997071266174 0.03042203187942505
vt 0.31222447752952576 0.03041023015975952
vt 0.3604370653629303 0.0641636848449707
vt 0.31222447752952576 0.06409162282943726
vt 0.2640119791030884 0.0641636848449707
vt 0.31222447752952576 0.06409162282943726
vt 0.3604370653629303 0.0641636848449707
vt 0.31222447752952576 0.06409162282943726
vt 0.2640119791030884 0.0641636848449707
vt 0.31222447752952576 0.06409162282943726
vt 0.3604370653629303 0.0641636848449707
vt 0.31222447752952576 0.06409162282943726
vt 0.2640119791030884 0.0641636848449707
vt 0.31222447752952576 0.06409162282943726
vt 0.31292667984962463 0.12282806634902954
vt 0.25295373797416687 0.12286907434463501
vt 0.31292667984962463 0.12282806634902954
vt 0.3630378246307373 0.041532158851623535
vt 0.3695272207260132 0.021194934844970703
vt 0.3564811944961548 0.021184921264648438
vt 0.37208011746406555 0.0008548498153686523
vt 0.353308767080307 0.0008404254913330078
vt 0.3630378246307373 0.041532158851623535
vt 0.3695272207260132 0.021194934844970703
vt 0.3564811944961548 0.021184921264648438
vt 0.37208011746406555 0.0008548498153686523
vt 0.353308767080307 0.0008404254913330078
vt 0.3630378246307373 0.041532158851623535
vt 0.3695272207260132 0.021194934844970703
vt 0.3564811944961548 0.021184921264648438
vt 0.37208011746406555 0.0008548498153686523
vt 0.353308767080307 0.0008404254913330078
vt 0.3630378246307373 0.041532158851623535
vt 0.3695272207260132 0.021194934844970703
vt 0.3564811944961548 0.021184921264648438
vt 0.37208011746406555 0.0008548498153686523
vt 0.353308767080307 0.0008404254913330078
vt 0.3630378246307373 0.041532158851623535
vt 0.3695272207260132 0.021194934844970703
vt 0.3564811944961548 0.021184921264648438
vt 0.37208011746406555 0.0008548498153686523
vt 0.353308767080307 0.0008404254913330078
vt 0.3630378246307373 0.041532158851623535
vt 0.3695272207260132 0.021194934844970703
vt 0.3564811944961548 0.021184921264648438
vt 0.37208011746406555 0.0008548498153686523
vt 0.353308767080307 0.0008404254913330078
vt 0.3630378246307373 0.041532158851623535
vt 0.3695272207260132 0.021194934844970703
vt 0.3564811944961548 0.021184921264648438
vt 0.37208011746406555 0.0008548498153686523
vt 0.353308767080307 0.0008404254913330078
vt 0.3630378246307373 0.041532158851623535
vt 0.3695272207260132 0.021194934844970703
vt 0.3564811944961548 0.021184921264648438
vt 0.37208011746406555 0.0008548498153686523
vt 0.353308767080307 0.0008404254913330078
vt 0.3630378246307373 0.041532158851623535
vt 0.3695272207260132 0.021194934844970703
vt 0.3564811944961548 0.021184921264648438
vt 0.37208011746406555 0.0008548498153686523
vt 0.353308767080307 0.0008404254913330078
vt 0.3630378246307373 0.041532158851623535
vt 0.3695272207260132 0.021194934844970703
vt 0.3564811944961548 0.021184921264648438
vt 0.37208011746406555 0.0008548498153686523
vt 0.353308767080307 0.0008404254913330078
vt 0.3630378246307373 0.041532158851623535
vt 0.3695272207260132 0.021194934844970703
vt 0.3564811944961548 0.021184921264648438
vt 0.37208011746406555 0.0008548498153686523
vt 0.353308767080307 0.0008404254913330078
vt 0.3630378246307373 0.041532158851623535
vt 0.3695272207260132 0.021194934844970703
vt 0.3564811944961548 0.021184921264648438
vt 0.37208011746406555 0.0008548498153686523
vt 0.353308767080307 0.0008404254913330078
vt 0.3630378246307373 0.041532158851623535
vt 0.3695272207260132 0.021194934844970703
vt 0.3564811944961548 0.021184921264648438
vt 0.37208011746406555 0.0008548498153686523
vt 0.353308767080307 0.0008404254913330078
vt 0.3630378246307373 0.041532158851623535
vt 0.3695272207260132 0.021194934844970703
vt 0.3564811944961548 0.021184921264648438
vt 0.37208011746406555 0.0008548498153686523
vt 0.353308767080307 0.0008404254913330078
vt 0.3630378246307373 0.041532158851623535
vt 0.3695272207260132 0.021194934844970703
vt 0.3564811944961548 0.021184921264648438
vt 0.37208011746406555 0.0008548498153686523
vt 0.353308767080307 0.0008404254913330078
vt 0.3630378246307373 0.041532158851623535
vt 0.3695272207260132 0.021194934844970703
vt 0.3564811944961548 0.021184921264648438
vt 0.37208011746406555 0.0008548498153686523
vt 0.353308767080307 0.0008404254913330078
vt 0.25172924995422363 0.12250512838363647
vt 0.25172924995422363 0.12250512838363647
vt 0.25172924995422363 0.12250512838363647
vn -1.8195292383893502e-08 -7.278116953557401e-08 1.0
vn -0.05053700879216194 0.6910341382026672 0.7210533618927002
vn -0.389283686876297 0.5731844902038574 0.7210532426834106
vn -0.6237217783927917 0.3017506003379822 0.7210531830787659
vn -0.691034197807312 -0.05053718388080597 0.7210533022880554
vn -0.5731846690177917 -0.3892833888530731 0.7210532426834106
vn -0.30175071954727173 -0.6237216591835022 0.7210532426834106
vn 0.05053688585758209 -0.691034197807312 0.7210532426834106
vn 0.389283150434494 -0.5731849074363708 0.7210531830787659
vn 0.6237215995788574 -0.3017512559890747 0.7210531830787659
vn 0.691034197807312 0.05053679272532463 0.7210532426834106
vn 0.5731848478317261 0.3892832100391388 0.7210532426834106
vn 0.30175113677978516 0.6237214803695679 0.7210532426834106
vn -0.004852277226746082 0.9579139947891235 0.28701433539390564
vn -0.48315972089767456 0.8271514177322388 0.28701427578926086
vn -0.8320043087005615 0.4747544825077057 0.28701403737068176
vn -0.9579140543937683 -0.004852538462728262 0.2870141267776489
vn -0.8271516561508179 -0.4831593632698059 0.2870142459869385
vn -0.4747546911239624 -0.8320040106773376 0.2870144248008728
vn 0.004852308426052332 -0.9579139351844788 0.2870146334171295
vn 0.48315900564193726 -0.8271517157554626 0.2870147228240967
vn 0.8320037126541138 -0.47475510835647583 0.2870146930217743
vn 0.9579139947891235 0.004851908423006535 0.2870146930217743
vn 0.8271517753601074 0.4831588864326477 0.2870147228240967
vn 0.47475501894950867 0.8320037722587585 0.28701457381248474
vn 0.00032024356187321246 0.9995126128196716 -0.031216388568282127
vn -0.8657633066177368 -0.49947914481163025 -0.031217016279697418
vn -0.5000335574150085 -0.865443229675293 -0.031216785311698914
vn -0.000320243532769382 -0.9995126128196716 -0.03121640905737877
vn 0.49947884678840637 -0.8657634854316711 -0.031216081231832504
vn 0.8654431700706482 -0.5000339150428772 -0.03121597319841385
vn 0.9995126128196716 -0.0003205801185686141 -0.031215937808156013
vn 0.8657636642456055 0.49947860836982727 -0.03121590055525303
vn 0.500033974647522 0.8654429912567139 -0.03121590055525303
vn -0.13196058571338654 -0.49248427152633667 -0.8602590560913086
vn -0.191036194562912 -0.7129562497138977 -0.6746840476989746
vn -0.19103597104549408 -0.7129561901092529 -0.6746841669082642
vn -0.17301581799983978 -0.6457042098045349 -0.7437282204627991
vn -0.16327396035194397 -0.6093475222587585 -0.7759105563163757
vn 0.4791090488433838 -0.17438144981861115 -0.8602591753005981
vn 0.6344966292381287 -0.23093797266483307 -0.7376189231872559
vn 0.59773188829422 -0.2175566405057907 -0.7716124057769775
vn 0.7021325826644897 -0.25555554032325745 -0.6646061539649963
vn 0.702132523059845 -0.25555548071861267 -0.6646062135696411
vn 0.215474933385849 0.46208757162094116 -0.8602590560913086
vn 0.2806651294231415 0.6018881797790527 -0.747634768486023
vn 0.26516807079315186 0.5686547756195068 -0.7786639928817749
vn 0.3094298541545868 0.6635739207267761 -0.6811188459396362
vn 0.30942970514297485 0.6635739207267761 -0.681118905544281
vn -0.4791089594364166 0.17438147962093353 -0.8602591156959534
vn -0.6163616180419922 0.22433742880821228 -0.7548319697380066
vn -0.5836241841316223 0.2124219536781311 -0.7837473750114441
vn -0.6775031089782715 0.24659116566181183 -0.6929519176483154
vn -0.6775031089782715 0.24659115076065063 -0.6929519772529602
vn -0.2506730854511261 0.5375704765319824 -0.8050968647003174
vn -0.36037886142730713 0.7728354334831238 -0.5223528146743774
vn -0.3369547426700592 0.722602128982544 -0.603579044342041
vn -0.3955081105232239 0.8481705188751221 -0.352392315864563
vn -0.3955081105232239 0.8481703996658325 -0.352392315864563
vn 0.5615019798278809 0.20436982810497284 -0.8018407225608826
vn 0.8068171739578247 0.29365721344947815 -0.5126514434814453
vn 0.754734456539154 0.2747006416320801 -0.5957478284835815
vn 0.8839961290359497 0.3217480182647705 -0.33915963768959045
vn 0.8839960098266602 0.3217479884624481 -0.33915963768959045
vn 0.23583942651748657 -0.5541968941688538 -0.7982766628265381
vn 0.35108619928359985 -0.7867987751960754 -0.5076280236244202
vn 0.32698875665664673 -0.7370216250419617 -0.5915045142173767
vn 0.3873051404953003 -0.8598715662956238 -0.33258959650993347
vn 0.3889092803001404 -0.8587263822555542 -0.3336743712425232
vn -0.5281152129173279 -0.28118056058883667 -0.8012688755989075
vn -0.748760461807251 -0.4154384136199951 -0.5164967179298401
vn -0.7012051343917847 -0.38716065883636475 -0.5986801981925964
vn -0.8193081617355347 -0.45820969343185425 -0.34464192390441895
vn -0.8179723620414734 -0.45975756645202637 -0.3457516133785248
vn 0.25067341327667236 0.5375702977180481 -0.8050969243049622
vn 0.37314802408218384 0.8002176880836487 -0.4694807529449463
vn 0.34800946712493896 0.7463078498840332 -0.5673746466636658
vn 0.40721839666366577 0.8732817769050598 -0.26749229431152344
vn 0.40721839666366577 0.8732817769050598 -0.26749229431152344
vn 0.5174828767776489 -0.29876908659935 -0.8018407225608826
vn 0.7687757015228271 -0.44385313987731934 -0.46041107177734375
vn 0.7175100445747375 -0.41425493359565735 -0.5599751472473145
vn 0.8372860550880432 -0.4834076464176178 -0.2554781436920166
vn 0.8372860550880432 -0.4834076762199402 -0.2554781436920166
vn -0.27294492721557617 -0.5368944406509399 -0.7982765436172485
vn -0.3876150846481323 -0.8012871742248535 -0.45573392510414124
vn -0.3641747534275055 -0.7473690509796143 -0.5557124018669128
vn -0.4175785183906555 -0.873542845249176 -0.25010210275650024
vn -0.41619664430618286 -0.8740435242652893 -0.25065574049949646
vn -0.5548627376556396 0.22382043302059174 -0.8012688755989075
vn -0.8279117941856384 0.31508123874664307 -0.46398934721946716
vn -0.7719224095344543 0.2962563633918762 -0.5624659657478333
vn -0.9037637710571289 0.339253693819046 -0.26099422574043274
vn -0.904154360294342 0.33776992559432983 -0.26156526803970337
vn -0.07369057834148407 0.8422899842262268 -0.5339637398719788
vn -0.08319438993930817 0.9509196281433105 -0.298044890165329
vn -0.08130902051925659 0.9293695092201233 -0.3600848913192749
vn -0.0858478844165802 0.9812494516372681 -0.17256787419319153
vn -0.0858478993177414 0.9812494516372681 -0.17256788909435272
vn 0.8482458591461182 -2.950436908122356e-07 -0.5296026468276978
vn 0.9564850926399231 -2.9927505806881527e-07 -0.29178115725517273
vn 0.9351322650909424 -3.252652049923199e-07 -0.35429877042770386
vn 0.986221194267273 -2.444874098728178e-07 -0.16543209552764893
vn 0.986221194267273 -2.937614169695735e-07 -0.16543208062648773
vn 0.04532233625650406 -0.8499622941017151 -0.5248904824256897
vn 0.06629243493080139 -0.9552897214889526 -0.2881437838077545
vn 0.06239823251962662 -0.9344403743743896 -0.3506104052066803
vn 0.0730934590101242 -0.9840931296348572 -0.1619199961423874
vn 0.07510458678007126 -0.9838463664054871 -0.16249871253967285
vn -0.8403946757316589 -0.11858644336462021 -0.5288421511650085
vn -0.9442319273948669 -0.14863352477550507 -0.29382672905921936
vn -0.9235354661941528 -0.14297015964984894 -0.3558676242828369
vn -0.9729964733123779 -0.15788237750530243 -0.16837823390960693
vn -0.9725559949874878 -0.15994301438331604 -0.16897651553153992
vn 3.8989913520026676e-09 -7.927948786345951e-08 -1.0
vn 0.052835021167993546 0.718585193157196 -0.6934289932250977
vn 0.4050493538379669 0.5958953499794006 -0.6934289932250977
vn 0.6487308144569397 0.3135358393192291 -0.6934288740158081
vn 0.7185852527618408 -0.05283521115779877 -0.6934289336204529
vn 0.595895528793335 -0.40504905581474304 -0.6934289932250977
vn 0.31353604793548584 -0.6487305760383606 -0.6934290528297424
vn -0.05283493176102638 -0.7185853123664856 -0.6934289336204529
vn -0.4050489664077759 -0.5958959460258484 -0.6934288144111633
vn -0.6487305760383606 -0.3135366141796112 -0.6934287548065186
vn -0.7185854911804199 0.05283482372760773 -0.6934286952018738
vn -0.5958958268165588 0.40504884719848633 -0.6934288740158081
vn -0.31353655457496643 0.648730456829071 -0.6934289336204529
vn 0.003265969455242157 0.9583378434181213 -0.2856188416481018
vn 0.4819977879524231 0.828311562538147 -0.2856188118457794
vn 0.8315781354904175 0.47633999586105347 -0.28561872243881226
vn 0.9583378434181213 -0.0032663620077073574 -0.2856188118457794
vn 0.8283118009567261 -0.48199737071990967 -0.2856188118457794
vn 0.4763403534889221 -0.8315778374671936 -0.28561896085739136
vn -0.0032660590950399637 -0.958337664604187 -0.2856190800666809
vn -0.48199722170829773 -0.8283118009567261 -0.2856191098690033
vn -0.8315776586532593 -0.476340651512146 -0.28561902046203613
vn -0.9583377242088318 0.003265595529228449 -0.2856189012527466
vn -0.8283119797706604 0.48199692368507385 -0.28561902046203613
vn -0.4763408303260803 0.8315775394439697 -0.28561896085739136
vn -0.9995126724243164 0.0003199742641299963 -0.031217049807310104
vn -0.8654434084892273 0.5000332593917847 -0.03121693804860115
vn -0.4994793236255646 0.8657631874084473 -0.031216878443956375
vn 0.1400197148323059 0.522561252117157 0.841025710105896
vn 0.17090097069740295 0.6378117799758911 0.7509920001029968
vn 0.18043994903564453 0.6734112501144409 0.7169092297554016
vn 0.19796407222747803 0.7388120889663696 0.6441793441772461
vn 0.19796423614025116 0.7388120889663696 0.6441792249679565
vn -0.5083692073822021 0.18503126502037048 0.841025710105896
vn -0.6252079606056213 0.22755712270736694 0.7465472221374512
vn -0.6611508727073669 0.24063926935195923 0.710614025592804
vn -0.7268005013465881 0.2645338475704193 0.6338634490966797
vn -0.7268005609512329 0.2645339071750641 0.6338634490966797
vn -0.22863444685935974 -0.4903082549571991 0.8410257697105408
vn -0.2776816487312317 -0.5954903364181519 0.753846287727356
vn -0.29287129640579224 -0.6280645132064819 0.7209447622299194
vn -0.3208785057067871 -0.6881259679794312 0.650783896446228
vn -0.32087865471839905 -0.6881259679794312 0.6507837772369385
vn 0.5083690285682678 -0.18503129482269287 0.8410257697105408
vn 0.6116828918457031 -0.2226344496011734 0.7591297626495361
vn 0.6438318490982056 -0.2343357652425766 0.7284005880355835
vn 0.7035003304481506 -0.2560533285140991 0.6629660725593567
vn 0.7035003304481506 -0.2560533881187439 0.6629660129547119
vn 0.2639283239841461 -0.5659962296485901 0.7810186743736267
vn 0.34515389800071716 -0.740185022354126 0.5770571231842041
vn 0.3669363260269165 -0.7868978977203369 0.496134489774704
vn 0.3992711305618286 -0.8562401533126831 0.32777369022369385
vn 0.3992709815502167 -0.8562401533126831 0.3277736008167267
vn -0.5909342765808105 -0.21508236229419708 0.7775192856788635
vn -0.7725183367729187 -0.2811735272407532 0.5693477392196655
vn -0.8208616375923157 -0.2987689673900604 0.4867476522922516
vn -0.8917785286903381 -0.32458066940307617 0.3152434229850769
vn -0.8917785882949829 -0.3245806097984314 0.3152433931827545
vn -0.24808305501937866 0.5829682350158691 0.7736942768096924
vn -0.33439794182777405 0.7542325854301453 0.5650762915611267
vn -0.3569304049015045 0.8002808690071106 0.4818207621574402
vn -0.39222192764282227 0.8660407662391663 0.31005704402923584
vn -0.3905823528766632 0.8671475052833557 0.30903181433677673
vn 0.5557548999786377 0.2958965003490448 0.7769052386283875
vn 0.7180883884429932 0.39624878764152527 0.5721328258514404
vn 0.7621375322341919 0.4226838946342468 0.49039244651794434
vn 0.8254601359367371 0.4639663100242615 0.32148224115371704
vn 0.8267594575881958 0.4623769521713257 0.3204314708709717
vn -0.26392862200737 -0.5659960508346558 0.7810186743736267
vn -0.3550362288951874 -0.7613768577575684 0.542452335357666
vn -0.378263384103775 -0.8111876845359802 0.44597241282463074
vn -0.40943729877471924 -0.8780403137207031 0.2478029429912567
vn -0.40943729877471924 -0.8780404329299927 0.2478029876947403
vn -0.5446078181266785 0.31442978978157043 0.7775192856788635
vn -0.7315428853034973 0.42235681414604187 0.5352193117141724
vn -0.7788377404212952 0.44966253638267517 0.43728208541870117
vn -0.8414448499679565 0.48580873012542725 0.2365596890449524
vn -0.8414448499679565 0.48580870032310486 0.2365597039461136
vn 0.2871149480342865 0.5647675395011902 0.7736941576004028
vn 0.3714226186275482 0.761665403842926 0.5309529900550842
vn 0.3927608132362366 0.8114740252494812 0.4327225983142853
vn 0.4181859493255615 0.8782213926315308 0.23205114901065826
vn 0.4195656478404999 0.8776997327804565 0.23153366148471832
vn 0.5839022397994995 -0.2355344146490097 0.7769052386283875
vn 0.7871543765068054 -0.30237212777137756 0.5375491976737976
vn 0.8389171957969666 -0.3194778263568878 0.44062671065330505
vn 0.9088635444641113 -0.33952903747558594 0.24225418269634247
vn 0.9084503054618835 -0.3410128355026245 0.24171984195709229
vn 0.07533082365989685 -0.8610380291938782 0.502930223941803
vn 0.08206360787153244 -0.9379943609237671 0.33679693937301636
vn 0.08371921628713608 -0.9569182991981506 0.27802610397338867
vn 0.08604166656732559 -0.9834641814231873 0.15935811400413513
vn 0.086041659116745 -0.9834641814231873 0.15935811400413513
vn -0.8668092489242554 3.272298556566966e-07 0.49863988161087036
vn -0.943524181842804 3.561905543847388e-07 0.3313036262989044
vn -0.9622591733932495 3.269909427672246e-07 0.27213504910469055
vn -0.9882664084434509 3.1949144840837107e-07 0.15274062752723694
vn -0.9882664084434509 2.659016615780274e-07 0.15274064242839813
vn -0.046296000480651855 0.8682229518890381 0.49400967359542847
vn -0.06283433735370636 0.9426672458648682 0.32776570320129395
vn -0.06659331172704697 0.9609234929084778 0.2686844766139984
vn -0.07525483518838882 0.98581463098526 0.15002138912677765
vn -0.07323861867189407 0.9860478639602661 0.14948494732379913
vn 0.858731746673584 0.12117397785186768 0.49789226055145264
vn 0.9319306015968323 0.1441548466682434 0.33275333046913147
vn 0.9500380754470825 0.14945639669895172 0.27402645349502563
vn 0.9746605157852173 0.16028915345668793 0.1560271680355072
vn 0.9750868082046509 0.1582215577363968 0.15547232329845428
vn 0.8657636642456055 0.49947860836982727 -0.03121590055525303
vn -0.000320243532769382 -0.9995126128196716 -0.03121640905737877
vn -0.8654434084892273 0.5000332593917847 -0.03121693804860115
f 220/220/220 222/222/222 221/221/221
f 221/221/221 219/219/219 220/220/220
f 218/218/218 220/220/220 219/219/219
f 215/215/215 217/217/217 216/216/216
f 216/216/216 214/214/214 215/215/215
f 213/213/213 215/215/215 214/214/214
f 210/210/210 212/212/212 211/211/211
f 211/211/211 209/209/209 210/210/210
f 208/208/208 210/210/210 209/209/209
f 205/205/205 207/207/207 206/206/206
f 206/206/206 204/204/204 205/205/205
f 203/203/203 205/205/205 204/204/204
f 200/200/200 202/202/202 201/201/201
f 201/201/201 199/199/199 200/200/200
f 198/198/198 200/200/200 199/199/199
f 195/195/195 197/197/197 196/196/196
f 196/196/196 194/194/194 195/195/195
f 193/193/193 195/195/195 194/194/194
f 190/190/190 192/192/192 191/191/191
f 191/191/191 189/189/189 190/190/190
f 188/188/188 190/190/190 189/189/189
f 185/185/185 187/187/187 186/186/186
f 186/186/186 184/184/184 185/185/185
f 183/183/183 185/185/185 184/184/184
f 180/180/180 182/182/182 181/181/181
f 181/181/181 179/179/179 180/180/180
f 178/178/178 180/180/180 179/179/179
f 175/175/175 177/177/177 176/176/176
f 176/176/176 174/174/174 175/175/175
f 173/173/173 175/175/175 174/174/174
f 170/170/170 172/172/172 171/171/171
f 171/171/171 169/169/169 170/170/170
f 168/168/168 170/170/170 169/169/169
f 165/165/165 167/167/167 166/166/166
f 166/166/166 164/164/164 165/165/165
f 163/163/163 165/165/165 164/164/164
f 160/160/160 162/162/162 161/161/161
f 161/161/161 159/159/159 160/160/160
f 158/158/158 160/160/160 159/159/159
f 155/155/155 157/157/157 156/156/156
f 156/156/156 154/154/154 155/155/155
f 153/153/153 155/155/155 154/154/154
f 150/150/150 152/152/152 151/151/151
f 151/151/151 149/149/149 150/150/150
f 148/148/148 150/150/150 149/149/149
f 145/145/145 147/147/147 146/146/146
f 146/146/146 144/144/144 145/145/145
f 143/143/143 145/145/145 144/144/144
f 139/139/139 142/142/142 26/26/26
f 26/26/26 128/128/128 139/139/139
f 138/138/138 225/225/225 142/142/142
f 142/142/142 139/139/139 138/138/138
f 137/137/137 140/140/140 225/225/225
f 225/225/225 138/138/138 137/137/137
f 136/136/136 27/27/27 140/140/140
f 140/140/140 137/137/137 136/136/136
f 135/135/135 28/28/28 27/27/27
f 27/27/27 136/136/136 135/135/135
f 134/134/134 224/224/224 28/28/28
f 28/28/28 135/135/135 134/134/134
f 133/133/133 30/30/30 224/224/224
f 224/224/224 134/134/134 133/133/133
f 132/132/132 31/31/31 30/30/30
f 30/30/30 133/133/133 132/132/132
f 131/131/131 32/32/32 31/31/31
f 31/31/31 132/132/132 131/131/131
f 130/130/130 223/223/223 32/32/32
f 32/32/32 131/131/131 130/130/130
f 129/129/129 34/34/34 223/223/223
f 223/223/223 130/130/130 129/129/129
f 128/128/128 26/26/26 34/34/34
f 34/34/34 129/129/129 128/128/128
f 127/127/127 139/139/139 128/128/128
f 128/128/128 116/116/116 127/127/127
f 126/126/126 138/138/138 139/139/139
f 139/139/139 127/127/127 126/126/126
f 125/125/125 137/137/137 138/138/138
f 138/138/138 126/126/126 125/125/125
f 124/124/124 136/136/136 137/137/137
f 137/137/137 125/125/125 124/124/124
f 123/123/123 135/135/135 136/136/136
f 136/136/136 124/124/124 123/123/123
f 122/122/122 134/134/134 135/135/135
f 135/135/135 123/123/123 122/122/122
f 121/121/121 133/133/133 134/134/134
f 134/134/134 122/122/122 121/121/121
f 120/120/120 132/132/132 133/133/133
f 133/133/133 121/121/121 120/120/120
f 119/119/119 131/131/131 132/132/132
f 132/132/132 120/120/120 119/119/119
f 118/118/118 130/130/130 131/131/131
f 131/131/131 119/119/119 118/118/118
f 117/117/117 129/129/129 130/130/130
f 130/130/130 118/118/118 117/117/117
f 116/116/116 128/128/128 129/129/129
f 129/129/129 117/117/117 116/116/116
f 115/115/115 127/127/127 116/116/116
f 115/115/115 126/126/126 127/127/127
f 115/115/115 125/125/125 126/126/126
f 115/115/115 124/124/124 125/125/125
f 115/115/115 123/123/123 124/124/124
f 115/115/115 122/122/122 123/123/123
f 115/115/115 121/121/121 122/122/122
f 115/115/115 120/120/120 121/121/121
f 115/115/115 119/119/119 120/120/120
f 115/115/115 118/118/118 119/119/119
f 115/115/115 117/117/117 118/118/118
f 115/115/115 116/116/116 117/117/117
f 111/111/111 112/112/112 114/114/114
f 114/114/114 113/113/113 111/111/111
f 110/110/110 112/112/112 111/111/111
f 106/106/106 107/107/107 109/109/109
f 109/109/109 108/108/108 106/106/106
f 105/105/105 107/107/107 106/106/106
f 101/101/101 102/102/102 104/104/104
f 104/104/104 103/103/103 101/101/101
f 100/100/100 102/102/102 101/101/101
f 96/96/96 97/97/97 99/99/99
f 99/99/99 98/98/98 96/96/96
f 95/95/95 97/97/97 96/96/96
f 91/91/91 92/92/92 94/94/94
f 94/94/94 93/93/93 91/91/91
f 90/90/90 92/92/92 91/91/91
f 86/86/86 87/87/87 89/89/89
f 89/89/89 88/88/88 86/86/86
f 85/85/85 87/87/87 86/86/86
f 81/81/81 82/82/82 84/84/84
f 84/84/84 83/83/83 81/81/81
f 80/80/80 82/82/82 81/81/81
f 76/76/76 77/77/77 79/79/79
f 79/79/79 78/78/78 76/76/76
f 75/75/75 77/77/77 76/76/76
f 71/71/71 72/72/72 74/74/74
f 74/74/74 73/73/73 71/71/71
f 70/70/70 72/72/72 71/71/71
f 66/66/66 67/67/67 69/69/69
f 69/69/69 68/68/68 66/66/66
f 65/65/65 67/67/67 66/66/66
f 61/61/61 62/62/62 64/64/64
f 64/64/64 63/63/63 61/61/61
f 60/60/60 62/62/62 61/61/61
f 56/56/56 57/57/57 59/59/59
f 59/59/59 58/58/58 56/56/56
f 55/55/55 57/57/57 56/56/56
f 51/51/51 52/52/52 54/54/54
f 54/54/54 53/53/53 51/51/51
f 50/50/50 52/52/52 51/51/51
f 46/46/46 47/47/47 49/49/49
f 49/49/49 48/48/48 46/46/46
f 45/45/45 47/47/47 46/46/46
f 41/41/41 42/42/42 44/44/44
f 44/44/44 43/43/43 41/41/41
f 40/40/40 42/42/42 41/41/41
f 38/38/38 39/39/39 37/37/37
f 37/37/37 36/36/36 38/38/38
f 35/35/35 39/39/39 38/38/38
f 25/25/25 34/34/34 26/26/26
f 26/26/26 14/14/14 25/25/25
f 24/24/24 33/33/33 34/34/34
f 34/34/34 25/25/25 24/24/24
f 23/23/23 32/32/32 33/33/33
f 33/33/33 24/24/24 23/23/23
f 22/22/22 31/31/31 32/32/32
f 32/32/32 23/23/23 22/22/22
f 21/21/21 30/30/30 31/31/31
f 31/31/31 22/22/22 21/21/21
f 20/20/20 29/29/29 30/30/30
f 30/30/30 21/21/21 20/20/20
f 19/19/19 28/28/28 29/29/29
f 29/29/29 20/20/20 19/19/19
f 18/18/18 27/27/27 28/28/28
f 28/28/28 19/19/19 18/18/18
f 17/17/17 140/140/140 27/27/27
f 27/27/27 18/18/18 17/17/17
f 16/16/16 141/141/141 140/140/140
f 140/140/140 17/17/17 16/16/16
f 15/15/15 142/142/142 141/141/141
f 141/141/141 16/16/16 15/15/15
f 14/14/14 26/26/26 142/142/142
f 142/142/142 15/15/15 14/14/14
f 13/13/13 25/25/25 14/14/14
f 14/14/14 2/2/2 13/13/13
f 12/12/12 24/24/24 25/25/25
f 25/25/25 13/13/13 12/12/12
f 11/11/11 23/23/23 24/24/24
f 24/24/24 12/12/12 11/11/11
f 10/10/10 22/22/22 23/23/23
f 23/23/23 11/11/11 10/10/10
f 9/9/9 21/21/21 22/22/22
f 22/22/22 10/10/10 9/9/9
f 8/8/8 20/20/20 21/21/21
f 21/21/21 9/9/9 8/8/8
f 7/7/7 19/19/19 20/20/20
f 20/20/20 8/8/8 7/7/7
f 6/6/6 18/18/18 19/19/19
f 19/19/19 7/7/7 6/6/6
f 5/5/5 17/17/17 18/18/18
f 18/18/18 6/6/6 5/5/5
f 4/4/4 16/16/16 17/17/17
f 17/17/17 5/5/5 4/4/4
f 3/3/3 15/15/15 16/16/16
f 16/16/16 4/4/4 3/3/3
f 2/2/2 14/14/14 15/15/15
f 15/15/15 3/3/3 2/2/2
f 1/1/1 13/13/13 2/2/2
f 1/1/1 12/12/12 13/13/13
f 1/1/1 11/11/11 12/12/12
f 1/1/1 10/10/10 11/11/11
f 1/1/1 9/9/9 10/10/10
f 1/1/1 8/8/8 9/9/9
f 1/1/1 7/7/7 8/8/8
f 1/1/1 6/6/6 7/7/7
f 1/1/1 5/5/5 6/6/6
f 1/1/1 4/4/4 5/5/5
f 1/1/1 3/3/3 4/4/4
f 1/1/1 2/2/2 3/3/3
