# Recovered local-space geometry; original node transforms not applied
o mesh_0
v -12.988122940063477 -3.8652658462524414 39.0602912902832
v -11.320952415466309 -9.329604148864746 40.217464447021484
v -34.986793518066406 -9.793639183044434 19.506404876708984
v -28.76679801940918 -24.0472469329834 19.506412506103516
v -26.360294342041016 -7.452524662017822 33.0948371887207
v -21.925914764404297 -18.238004684448242 34.415977478027344
v -0.25737667083740234 -0.14235299825668335 24.211334228515625
v -2.0337698459625244 2.1859538555145264 74.11277770996094
v -1.198399305343628 3.4503250122070312 53.41791915893555
v -3.656925678253174 0.46271437406539917 54.72280502319336
v -1.0235693454742432 -2.948568820953369 54.38847732543945
v 0.8292679786682129 5.073069095611572 72.60575866699219
v 4.8541083335876465 2.131254196166992 72.46209716796875
v 1.5514397621154785 -1.5779898166656494 73.65049743652344
v 1.5702948570251465 0.4911758303642273 54.36094284057617
v -4.0750322341918945 -13.943255424499512 40.217464447021484
v 4.505753517150879 -13.576026916503906 40.21746063232422
v 11.32392692565918 -8.363103866577148 40.21746063232422
v -7.650660514831543 -27.329832077026367 34.415977478027344
v 9.256795883178711 -26.59907341003418 34.41597366333008
v 22.687259674072266 -16.312402725219727 34.415977478027344
v -9.909658432006836 -36.05802536010742 19.506412506103516
v 12.425285339355469 -35.09041976928711 19.506412506103516
v 30.165828704833984 -21.4968204498291 19.506412506103516
v -32.05958938598633 0.0 19.506404876708984
v -0.3862342834472656 0.0 36.55397415161133
v -24.992769241333008 0.0 31.610950469970703
v 12.934026718139648 0.0 40.217464447021484
v 39.47675323486328 -1.9073486328125e-06 1.9073486328125e-05
v -12.988122940063477 3.8652658462524414 39.0602912902832
v -11.320952415466309 9.329604148864746 40.217464447021484
v -34.986793518066406 9.793639183044434 19.506404876708984
v -28.76679801940918 24.0472469329834 19.506412506103516
v -26.360294342041016 7.452524662017822 33.0948371887207
v -21.925914764404297 18.238004684448242 34.415977478027344
v -4.0750322341918945 13.943255424499512 40.217464447021484
v 4.505753517150879 13.576026916503906 40.21746063232422
v 11.32392692565918 8.363103866577148 40.21746063232422
v -7.650660514831543 27.329832077026367 34.415977478027344
v 9.256795883178711 26.59907341003418 34.41597366333008
v 22.687259674072266 16.312402725219727 34.415977478027344
v -9.909658432006836 36.05802536010742 19.506412506103516
v 12.425285339355469 35.09041976928711 19.506412506103516
v 30.165828704833984 21.4968204498291 19.506412506103516
v 26.801305770874023 0.0 34.41598129272461
v 35.89716720581055 0.0 19.506412506103516
v -13.718059539794922 0.0 37.68656539916992
v -37.989990234375 -10.682863235473633 1.52587890625e-05
v -35.015724182128906 -1.9073486328125e-06 1.52587890625e-05
v 1.5590629577636719 -3.814697265625e-06 1.9073486328125e-05
v -31.147058486938477 -26.241384506225586 1.9073486328125e-05
v -10.564807891845703 -39.351051330566406 1.9073486328125e-05
v 13.813520431518555 -38.294593811035156 2.288818359375e-05
v 33.17692947387695 -23.456626892089844 2.288818359375e-05
v -37.989990234375 10.682859420776367 1.52587890625e-05
v -31.147058486938477 26.241382598876953 1.9073486328125e-05
v -10.564807891845703 39.351051330566406 1.9073486328125e-05
v 13.813520431518555 38.294593811035156 1.9073486328125e-05
v 33.17692947387695 23.456623077392578 1.9073486328125e-05
v -2.0337698459625244 2.1859538555145264 74.11277770996094
v 4.8541083335876465 2.131254196166992 72.46209716796875
v 0.8292679786682129 5.073069095611572 72.60575866699219
v -2.0337698459625244 2.1859538555145264 74.11277770996094
v 1.5514397621154785 -1.5779898166656494 73.65049743652344
v 4.8541083335876465 2.131254196166992 72.46209716796875
v -37.989990234375 -10.682863235473633 1.52587890625e-05
v -35.015724182128906 -1.9073486328125e-06 1.52587890625e-05
v -31.147058486938477 -26.241384506225586 1.9073486328125e-05
v -10.564807891845703 -39.351051330566406 1.9073486328125e-05
v 13.813520431518555 -38.294593811035156 2.288818359375e-05
v 33.17692947387695 -23.456626892089844 2.288818359375e-05
v 39.47675323486328 -1.9073486328125e-06 1.9073486328125e-05
v -37.989990234375 10.682859420776367 1.52587890625e-05
v -31.147058486938477 26.241382598876953 1.9073486328125e-05
v -10.564807891845703 39.351051330566406 1.9073486328125e-05
v 13.813520431518555 38.294593811035156 1.9073486328125e-05
v 33.17692947387695 23.456623077392578 1.9073486328125e-05
vt 0.16143721342086792 0.014151334762573242
vt 0.17061831057071686 0.015002846717834473
vt 0.14138367772102356 0.041866958141326904
vt 0.15350279211997986 0.04287463426589966
vt 0.15000301599502563 0.025574803352355957
vt 0.16023004055023193 0.02666497230529785
vt 0.23853152990341187 0.040012359619140625
vt 0.2385169416666031 0.00569760799407959
vt 0.23682984709739685 0.02191162109375
vt 0.23852413892745972 0.02191746234893799
vt 0.24021850526332855 0.02191162109375
vt 0.2351282835006714 0.005685925483703613
vt 0.2385169416666031 0.00569760799407959
vt 0.2419055998325348 0.005685925483703613
vt 0.23852413892745972 0.02191746234893799
vt 0.17849978804588318 0.015841126441955566
vt 0.1878332644701004 0.015841126441955566
vt 0.19546446204185486 0.015443801879882812
vt 0.1748400330543518 0.026872634887695312
vt 0.19278384745121002 0.026872634887695312
vt 0.20683668553829193 0.02562689781188965
vt 0.17229798436164856 0.04347926378250122
vt 0.1956576257944107 0.04347926378250122
vt 0.21401053667068481 0.04247158765792847
vt 0.1341494470834732 0.040467143058776855
vt 0.180553138256073 0.0051604509353637695
vt 0.14377328753471375 0.023573637008666992
vt 0.20100905001163483 0.011911153793334961
vt 0.22819799184799194 0.06311202049255371
vt 0.16143721342086792 0.014151334762573242
vt 0.17061831057071686 0.015002846717834473
vt 0.14138367772102356 0.041866958141326904
vt 0.15350279211997986 0.04287463426589966
vt 0.15000301599502563 0.025574803352355957
vt 0.16023004055023193 0.02666497230529785
vt 0.17849978804588318 0.015841126441955566
vt 0.1878332644701004 0.015841126441955566
vt 0.19546446204185486 0.015443801879882812
vt 0.1748400330543518 0.026872634887695312
vt 0.19278384745121002 0.026872634887695312
vt 0.20683668553829193 0.02562689781188965
vt 0.17229798436164856 0.04347926378250122
vt 0.1956576257944107 0.04347926378250122
vt 0.21401053667068481 0.04247158765792847
vt 0.21525631844997406 0.02285158634185791
vt 0.22389258444309235 0.0406685471534729
vt 0.15804249048233032 0.011891484260559082
vt 0.1384442299604416 0.06291043758392334
vt 0.13119855523109436 0.06311202049255371
vt 0.22756989300251007 0.18897342681884766
vt 0.15075133740901947 0.06270897388458252
vt 0.1718747615814209 0.06291043758392334
vt 0.19710958003997803 0.06291043758392334
vt 0.21736130118370056 0.0635150671005249
vt 0.1384442299604416 0.06291043758392334
vt 0.15075133740901947 0.06270897388458252
vt 0.1718747615814209 0.06291043758392334
vt 0.19710958003997803 0.06291043758392334
vt 0.21736130118370056 0.0635150671005249
vt 0.2385169416666031 0.00569760799407959
vt 0.2385169416666031 0.00569760799407959
vt 0.2351282835006714 0.005685925483703613
vt 0.2385169416666031 0.00569760799407959
vt 0.2419055998325348 0.005685925483703613
vt 0.2385169416666031 0.00569760799407959
vt 0.20759491622447968 0.1266384720802307
vt 0.22756989300251007 0.13132625818252563
vt 0.17850342392921448 0.13742375373840332
vt 0.15399083495140076 0.16986459493637085
vt 0.15596622228622437 0.20828843116760254
vt 0.1837104856967926 0.2388077974319458
vt 0.22756989300251007 0.2470800280570984
vt 0.20759491622447968 0.1266384720802307
vt 0.17850342392921448 0.13742375373840332
vt 0.15399083495140076 0.16986459493637085
vt 0.15596622228622437 0.20828843116760254
vt 0.1837104856967926 0.2388077974319458
vn -0.23709644377231598 0.23401068150997162 0.9428808689117432
vn -0.17248880863189697 0.023947684094309807 0.9847203493118286
vn -0.9229306578636169 -0.15397286415100098 0.3528333902359009
vn -0.6665981411933899 -0.6403250694274902 0.3816159665584564
vn -0.6669670343399048 0.08650590479373932 0.7400484681129456
vn -0.5231477618217468 -0.37330517172813416 0.7661330699920654
vn -0.16248321533203125 0.25129958987236023 -0.9541738629341125
vn -0.9563407301902771 0.2854270040988922 0.06279976665973663
vn -0.04863489791750908 0.9925094246864319 -0.11207007616758347
vn -0.9849183559417725 -0.1711084097623825 0.02564680576324463
vn 0.010561659932136536 -0.9998754262924194 -0.01173116359859705
vn -0.08157929033041 0.9938086271286011 -0.07542701065540314
vn 0.9230385422706604 0.3418204188346863 -0.17651808261871338
vn 0.016530891880393028 -0.9985417723655701 0.051393020898103714
vn 0.983089804649353 -0.14705470204353333 -0.10913091152906418
vn -0.06079735979437828 -0.12811501324176788 0.9898940324783325
vn 0.02350861020386219 -0.13976621627807617 0.9899054169654846
vn 0.10094744712114334 -0.09781064838171005 0.9900720715522766
vn -0.1925000250339508 -0.6209996938705444 0.7598046660423279
vn 0.1979137510061264 -0.6183096766471863 0.7606071829795837
vn 0.5270283818244934 -0.3739441931247711 0.7631558179855347
vn -0.20680443942546844 -0.9228708744049072 0.3248714804649353
vn 0.4094037711620331 -0.8410417437553406 0.3536061942577362
vn 0.8308954834938049 -0.42617735266685486 0.35775068402290344
vn -0.9436631202697754 0.0 0.3309076726436615
vn -0.016733549535274506 1.2933365489686821e-09 0.9998599886894226
vn -0.6216616034507751 0.0 0.7832859754562378
vn 0.18604640662670135 -2.6236146588587417e-09 0.9825409650802612
vn 0.9837641716003418 7.704426430166222e-09 0.17946654558181763
vn -0.23709644377231598 -0.23401065170764923 0.9428808689117432
vn -0.17248880863189697 -0.023947685956954956 0.9847203493118286
vn -0.9229306578636169 0.15397284924983978 0.3528333306312561
vn -0.6665981411933899 0.6403250694274902 0.38161593675613403
vn -0.6669670343399048 -0.08650591224431992 0.7400485277175903
vn -0.5231477618217468 0.37330517172813416 0.7661330699920654
vn -0.06079735979437828 0.12811501324176788 0.9898940324783325
vn 0.023508617654442787 0.13976621627807617 0.9899054169654846
vn 0.10094743221998215 0.09781064093112946 0.9900720715522766
vn -0.1925000101327896 0.6209996938705444 0.7598046660423279
vn 0.1979137659072876 0.6183096766471863 0.7606071829795837
vn 0.5270284414291382 0.3739441931247711 0.7631559371948242
vn -0.20680440962314606 0.9228708148002625 0.3248714208602905
vn 0.40940380096435547 0.8410417437553406 0.3536061644554138
vn 0.8308954834938049 0.42617738246917725 0.35775062441825867
vn 0.730889618396759 5.291027171949736e-09 0.6824957728385925
vn 0.9339878559112549 0.0 0.35730472207069397
vn -0.20913510024547577 0.0 0.9778868556022644
vn -0.9867963790893555 0.053308527916669846 0.15294164419174194
vn -0.9887109398841858 0.0 0.14983618259429932
vn 1.0429855024085555e-07 -2.9038254467650404e-08 -1.0
vn -0.7492069005966187 -0.6416620016098022 0.16419169306755066
vn -0.25535646080970764 -0.9519131183624268 0.16927635669708252
vn 0.23768368363380432 -0.9556494355201721 0.17389842867851257
vn 0.7508596777915955 -0.6355257630348206 0.17976859211921692
vn -0.9867963790893555 -0.053308550268411636 0.15294164419174194
vn -0.7492069005966187 0.6416620016098022 0.16419163346290588
vn -0.25535646080970764 0.9519131183624268 0.16927635669708252
vn 0.2376837432384491 0.9556494355201721 0.173898383975029
vn 0.750859797000885 0.6355257034301758 0.17976845800876617
vn 0.22674061357975006 0.2644391357898712 0.9373691082000732
vn 0.22674061357975006 0.2644391357898712 0.9373691082000732
vn 0.22674061357975006 0.2644391357898712 0.9373691082000732
vn 0.23258905112743378 0.10276323556900024 0.9671308398246765
vn 0.23258905112743378 0.10276323556900024 0.9671308398246765
vn 0.23258905112743378 0.10276323556900024 0.9671308398246765
vn 1.0429855024085555e-07 -2.9038254467650404e-08 -1.0
vn 1.0429855024085555e-07 -2.9038254467650404e-08 -1.0
vn 1.4540820814090694e-07 -1.812305185922014e-07 -1.0
vn 0.0 0.0 -1.0
vn 1.58596549226786e-07 -4.886284443728073e-08 -1.0
vn 6.130141372295839e-08 -7.999777551503939e-08 -1.0
vn 8.180555266122571e-15 -1.6262771396213793e-07 -1.0
vn 1.0429855024085555e-07 2.9038254467650404e-08 -1.0
vn 1.4540822235176165e-07 1.8123049017049198e-07 -1.0
vn 0.0 0.0 -1.0
vn 0.0 0.0 -1.0
vn 0.0 0.0 -1.0
f 72/72/72 50/50/50 77/77/77
f 77/77/77 50/50/50 76/76/76
f 76/76/76 50/50/50 75/75/75
f 75/75/75 50/50/50 74/74/74
f 74/74/74 50/50/50 73/73/73
f 73/73/73 50/50/50 67/67/67
f 72/72/72 71/71/71 50/50/50
f 71/71/71 70/70/70 50/50/50
f 70/70/70 69/69/69 50/50/50
f 69/69/69 68/68/68 50/50/50
f 68/68/68 66/66/66 50/50/50
f 66/66/66 67/67/67 50/50/50
f 45/45/45 46/46/46 44/44/44
f 44/44/44 41/41/41 45/45/45
f 41/41/41 44/44/44 43/43/43
f 43/43/43 40/40/40 41/41/41
f 40/40/40 43/43/43 42/42/42
f 42/42/42 39/39/39 40/40/40
f 29/29/29 59/59/59 44/44/44
f 44/44/44 46/46/46 29/29/29
f 59/59/59 58/58/58 43/43/43
f 43/43/43 44/44/44 59/59/59
f 58/58/58 57/57/57 42/42/42
f 42/42/42 43/43/43 58/58/58
f 28/28/28 45/45/45 41/41/41
f 41/41/41 38/38/38 28/28/28
f 38/38/38 41/41/41 40/40/40
f 40/40/40 37/37/37 38/38/38
f 37/37/37 40/40/40 39/39/39
f 39/39/39 36/36/36 37/37/37
f 26/26/26 28/28/28 38/38/38
f 26/26/26 38/38/38 37/37/37
f 26/26/26 37/37/37 36/36/36
f 39/39/39 42/42/42 33/33/33
f 33/33/33 35/35/35 39/39/39
f 35/35/35 33/33/33 32/32/32
f 32/32/32 34/34/34 35/35/35
f 34/34/34 32/32/32 25/25/25
f 25/25/25 27/27/27 34/34/34
f 42/42/42 57/57/57 56/56/56
f 56/56/56 33/33/33 42/42/42
f 56/56/56 55/55/55 32/32/32
f 32/32/32 33/33/33 56/56/56
f 55/55/55 49/49/49 25/25/25
f 25/25/25 32/32/32 55/55/55
f 36/36/36 39/39/39 35/35/35
f 35/35/35 31/31/31 36/36/36
f 31/31/31 35/35/35 34/34/34
f 34/34/34 30/30/30 31/31/31
f 30/30/30 34/34/34 27/27/27
f 27/27/27 47/47/47 30/30/30
f 26/26/26 36/36/36 31/31/31
f 26/26/26 31/31/31 30/30/30
f 26/26/26 30/30/30 47/47/47
f 45/45/45 21/21/21 24/24/24
f 24/24/24 46/46/46 45/45/45
f 21/21/21 20/20/20 23/23/23
f 23/23/23 24/24/24 21/21/21
f 20/20/20 19/19/19 22/22/22
f 22/22/22 23/23/23 20/20/20
f 29/29/29 46/46/46 24/24/24
f 24/24/24 54/54/54 29/29/29
f 54/54/54 24/24/24 23/23/23
f 23/23/23 53/53/53 54/54/54
f 53/53/53 23/23/23 22/22/22
f 22/22/22 52/52/52 53/53/53
f 28/28/28 18/18/18 21/21/21
f 21/21/21 45/45/45 28/28/28
f 18/18/18 17/17/17 20/20/20
f 20/20/20 21/21/21 18/18/18
f 17/17/17 16/16/16 19/19/19
f 19/19/19 20/20/20 17/17/17
f 26/26/26 18/18/18 28/28/28
f 26/26/26 17/17/17 18/18/18
f 26/26/26 16/16/16 17/17/17
f 63/63/63 64/64/64 65/65/65
f 60/60/60 61/61/61 62/62/62
f 15/15/15 11/11/11 7/7/7
f 9/9/9 15/15/15 7/7/7
f 15/15/15 13/13/13 14/14/14
f 14/14/14 11/11/11 15/15/15
f 9/9/9 12/12/12 13/13/13
f 13/13/13 15/15/15 9/9/9
f 10/10/10 7/7/7 11/11/11
f 9/9/9 7/7/7 10/10/10
f 10/10/10 11/11/11 14/14/14
f 14/14/14 8/8/8 10/10/10
f 9/9/9 10/10/10 8/8/8
f 8/8/8 12/12/12 9/9/9
f 19/19/19 6/6/6 4/4/4
f 4/4/4 22/22/22 19/19/19
f 6/6/6 5/5/5 3/3/3
f 3/3/3 4/4/4 6/6/6
f 5/5/5 27/27/27 25/25/25
f 25/25/25 3/3/3 5/5/5
f 22/22/22 4/4/4 51/51/51
f 51/51/51 52/52/52 22/22/22
f 51/51/51 4/4/4 3/3/3
f 3/3/3 48/48/48 51/51/51
f 48/48/48 3/3/3 25/25/25
f 25/25/25 49/49/49 48/48/48
f 16/16/16 2/2/2 6/6/6
f 6/6/6 19/19/19 16/16/16
f 2/2/2 1/1/1 5/5/5
f 5/5/5 6/6/6 2/2/2
f 1/1/1 47/47/47 27/27/27
f 27/27/27 5/5/5 1/1/1
f 26/26/26 2/2/2 16/16/16
f 26/26/26 1/1/1 2/2/2
f 26/26/26 47/47/47 1/1/1
