# Recovered local-space geometry; original node transforms not applied
o mesh_0
v -12.988122940063477 -3.8652658462524414 39.0602912902832
v -11.320952415466309 -9.329604148864746 40.217464447021484
v -34.986793518066406 -9.793639183044434 19.506404876708984
v -28.76679801940918 -24.0472469329834 19.506412506103516
v -26.360294342041016 -7.452524662017822 33.0948371887207
v -21.925914764404297 -18.238004684448242 34.415977478027344
v -0.25737667083740234 -0.14235299825668335 24.211334228515625
v -2.0337698459625244 2.1859538555145264 74.11277770996094
v -1.198399305343628 3.4503250122070312 53.41791915893555
v -3.656925678253174 0.46271437406539917 54.72280502319336
v -1.0235693454742432 -2.948568820953369 54.38847732543945
v 0.8292679786682129 5.073069095611572 72.60575866699219
v 4.8541083335876465 2.131254196166992 72.46209716796875
v 1.5514397621154785 -1.5779898166656494 73.65049743652344
v 1.5702948570251465 0.4911758303642273 54.36094284057617
v -4.0750322341918945 -13.943255424499512 40.217464447021484
v 4.505753517150879 -13.576026916503906 40.21746063232422
v 11.32392692565918 -8.363103866577148 40.21746063232422
v -7.650660514831543 -27.329832077026367 34.415977478027344
v 9.256795883178711 -26.59907341003418 34.41597366333008
v 22.687259674072266 -16.312402725219727 34.415977478027344
v -9.909658432006836 -36.05802536010742 19.506412506103516
v 12.425285339355469 -35.09041976928711 19.506412506103516
v 30.165828704833984 -21.4968204498291 19.506412506103516
v -32.05958938598633 0.0 19.506404876708984
v -0.3862342834472656 0.0 36.55397415161133
v -24.992769241333008 0.0 31.610950469970703
v 12.934026718139648 0.0 40.217464447021484
v -12.988122940063477 3.8652658462524414 39.0602912902832
v -11.320952415466309 9.329604148864746 40.217464447021484
v -34.986793518066406 9.793639183044434 19.506404876708984
v -28.76679801940918 24.0472469329834 19.506412506103516
v -26.360294342041016 7.452524662017822 33.0948371887207
v -21.925914764404297 18.238004684448242 34.415977478027344
v -4.0750322341918945 13.943255424499512 40.217464447021484
v 4.505753517150879 13.576026916503906 40.21746063232422
v 11.32392692565918 8.363103866577148 40.21746063232422
v -7.650660514831543 27.329832077026367 34.415977478027344
v 9.256795883178711 26.59907341003418 34.41597366333008
v 22.687259674072266 16.312402725219727 34.415977478027344
v -9.909658432006836 36.05802536010742 19.506412506103516
v 12.425285339355469 35.09041976928711 19.506412506103516
v 30.165828704833984 21.4968204498291 19.506412506103516
v 26.801305770874023 0.0 34.41598129272461
v 35.89716720581055 0.0 19.506412506103516
v -13.718059539794922 0.0 37.68656539916992
v -31.147056579589844 -26.241384506225586 1.850317494245246e-05
v -10.564807891845703 -39.351051330566406 1.8521213860367425e-05
v -0.3862342834472656 0.0 -36.553951263427734
v -13.718060493469238 0.0 -37.686546325683594
v -24.992769241333008 0.0 -31.610933303833008
v -32.05958938598633 0.0 -19.506383895874023
v 12.934025764465332 0.0 -40.217445373535156
v 26.801305770874023 0.0 -34.415958404541016
v 35.89716720581055 0.0 -19.506397247314453
v -12.988123893737793 -3.8652725219726562 -39.060272216796875
v -11.320952415466309 -9.329611778259277 -40.217445373535156
v -4.0750322341918945 -13.943263053894043 -40.217437744140625
v -26.360294342041016 -7.452531337738037 -33.094810485839844
v -21.925914764404297 -18.238008499145508 -34.415950775146484
v -7.650660514831543 -27.329835891723633 -34.415950775146484
v -34.986793518066406 -9.793644905090332 -19.506385803222656
v -28.76679801940918 -24.047250747680664 -19.50638771057129
v -9.909658432006836 -36.05803298950195 -19.506385803222656
v 4.505753517150879 -13.576034545898438 -40.217430114746094
v 11.323925971984863 -8.36311149597168 -40.217437744140625
v 9.256794929504395 -26.599077224731445 -34.415950775146484
v 22.687259674072266 -16.312406539916992 -34.415950775146484
v 12.425284385681152 -35.09042739868164 -19.506385803222656
v 30.16582679748535 -21.496824264526367 -19.506393432617188
v -12.988123893737793 3.8652725219726562 -39.060272216796875
v -11.320952415466309 9.329611778259277 -40.217445373535156
v -4.0750322341918945 13.943263053894043 -40.217437744140625
v -26.360294342041016 7.452531337738037 -33.094810485839844
v -21.925914764404297 18.238008499145508 -34.415950775146484
v -7.650660514831543 27.329835891723633 -34.415950775146484
v -34.986793518066406 9.793644905090332 -19.506385803222656
v -28.76679801940918 24.047250747680664 -19.50638771057129
v -9.909658432006836 36.05803298950195 -19.506385803222656
v 4.505753517150879 13.576034545898438 -40.217430114746094
v 11.323925971984863 8.36311149597168 -40.217437744140625
v 9.256794929504395 26.599077224731445 -34.415950775146484
v 22.687259674072266 16.312406539916992 -34.415950775146484
v 12.425284385681152 35.09042739868164 -19.506385803222656
v 30.16582679748535 21.496824264526367 -19.506393432617188
v -35.015724182128906 -9.5367431640625e-07 1.3086944818496704e-05
v 39.47675323486328 -9.5367431640625e-07 1.2639909982681274e-05
v -37.989990234375 -10.682862281799316 1.472700841986807e-05
v 13.813521385192871 -38.294593811035156 1.9747931219171733e-05
v 33.17692947387695 -23.456626892089844 1.762319152476266e-05
v -37.989990234375 10.682860374450684 1.3786364434054121e-05
v -31.147056579589844 26.241382598876953 1.6074969607871026e-05
v -10.564807891845703 39.351051330566406 1.4760530575586017e-05
v 13.813521385192871 38.294593811035156 1.3697725080419332e-05
v 33.17692947387695 23.456623077392578 1.2946540664415807e-05
v -2.0337698459625244 2.1859538555145264 74.11277770996094
v 4.8541083335876465 2.131254196166992 72.46209716796875
v 0.8292679786682129 5.073069095611572 72.60575866699219
v -2.0337698459625244 2.1859538555145264 74.11277770996094
v 1.5514397621154785 -1.5779898166656494 73.65049743652344
v 4.8541083335876465 2.131254196166992 72.46209716796875
vt 0.16143721342086792 0.014151334762573242
vt 0.17061831057071686 0.015002846717834473
vt 0.14138367772102356 0.041866958141326904
vt 0.15350279211997986 0.04287463426589966
vt 0.15000301599502563 0.025574803352355957
vt 0.16023004055023193 0.02666497230529785
vt 0.23853152990341187 0.040012359619140625
vt 0.2385169416666031 0.00569760799407959
vt 0.23682984709739685 0.02191162109375
vt 0.23852413892745972 0.02191746234893799
vt 0.24021850526332855 0.02191162109375
vt 0.2351282835006714 0.005685925483703613
vt 0.2385169416666031 0.00569760799407959
vt 0.2419055998325348 0.005685925483703613
vt 0.23852413892745972 0.02191746234893799
vt 0.17849978804588318 0.015841126441955566
vt 0.1878332644701004 0.015841126441955566
vt 0.19546446204185486 0.015443801879882812
vt 0.1748400330543518 0.026872634887695312
vt 0.19278384745121002 0.026872634887695312
vt 0.20683668553829193 0.02562689781188965
vt 0.17229798436164856 0.04347926378250122
vt 0.1956576257944107 0.04347926378250122
vt 0.21401053667068481 0.04247158765792847
vt 0.1341494470834732 0.040467143058776855
vt 0.180553138256073 0.0051604509353637695
vt 0.14377328753471375 0.023573637008666992
vt 0.20100905001163483 0.011911153793334961
vt 0.16143721342086792 0.014151334762573242
vt 0.17061831057071686 0.015002846717834473
vt 0.14138367772102356 0.041866958141326904
vt 0.15350279211997986 0.04287463426589966
vt 0.15000301599502563 0.025574803352355957
vt 0.16023004055023193 0.02666497230529785
vt 0.17849978804588318 0.015841126441955566
vt 0.1878332644701004 0.015841126441955566
vt 0.19546446204185486 0.015443801879882812
vt 0.1748400330543518 0.026872634887695312
vt 0.19278384745121002 0.026872634887695312
vt 0.20683668553829193 0.02562689781188965
vt 0.17229798436164856 0.04347926378250122
vt 0.1956576257944107 0.04347926378250122
vt 0.21401053667068481 0.04247158765792847
vt 0.21525631844997406 0.02285158634185791
vt 0.22389258444309235 0.0406685471534729
vt 0.15804249048233032 0.011891484260559082
vt 0.15075133740901947 0.06270897388458252
vt 0.1718747615814209 0.06291043758392334
vt 0.18124426901340485 0.12009656429290771
vt 0.15581436455249786 0.11229276657104492
vt 0.14228619635105133 0.09993869066238403
vt 0.13447824120521545 0.08597993850708008
vt 0.20062553882598877 0.11344301700592041
vt 0.21542400121688843 0.10431331396102905
vt 0.2246706336736679 0.08720076084136963
vt 0.15986773371696472 0.11026638746261597
vt 0.16946616768836975 0.10864508152008057
vt 0.17787814140319824 0.10864508152008057
vt 0.1480565071105957 0.09787917137145996
vt 0.15964952111244202 0.09675729274749756
vt 0.17633001506328583 0.09675729274749756
vt 0.14197875559329987 0.08497345447540283
vt 0.15374641120433807 0.08375269174575806
vt 0.17345485091209412 0.08395618200302124
vt 0.18812492489814758 0.10864508152008057
vt 0.19626399874687195 0.110545814037323
vt 0.19272424280643463 0.09761172533035278
vt 0.20804089307785034 0.09974813461303711
vt 0.19616417586803436 0.08395618200302124
vt 0.21449005603790283 0.08538049459457397
vt 0.15986773371696472 0.11026638746261597
vt 0.16946616768836975 0.10864508152008057
vt 0.17787814140319824 0.10864508152008057
vt 0.1480565071105957 0.09787917137145996
vt 0.15964952111244202 0.09675729274749756
vt 0.17633001506328583 0.09675729274749756
vt 0.14197875559329987 0.08497345447540283
vt 0.15374641120433807 0.08375269174575806
vt 0.17345485091209412 0.08395618200302124
vt 0.18812492489814758 0.10864508152008057
vt 0.19626399874687195 0.110545814037323
vt 0.19272424280643463 0.09761172533035278
vt 0.20804089307785034 0.09974813461303711
vt 0.19616417586803436 0.08395618200302124
vt 0.21449005603790283 0.08538049459457397
vt 0.13119855523109436 0.06311202049255371
vt 0.22819799184799194 0.06311202049255371
vt 0.1384442299604416 0.06291043758392334
vt 0.19710958003997803 0.06291043758392334
vt 0.21736130118370056 0.0635150671005249
vt 0.1384442299604416 0.06291043758392334
vt 0.15075133740901947 0.06270897388458252
vt 0.1718747615814209 0.06291043758392334
vt 0.19710958003997803 0.06291043758392334
vt 0.21736130118370056 0.0635150671005249
vt 0.2385169416666031 0.00569760799407959
vt 0.2385169416666031 0.00569760799407959
vt 0.2351282835006714 0.005685925483703613
vt 0.2385169416666031 0.00569760799407959
vt 0.2419055998325348 0.005685925483703613
vt 0.2385169416666031 0.00569760799407959
vn -0.23709644377231598 0.23401068150997162 0.9428808689117432
vn -0.17248880863189697 0.023947684094309807 0.9847203493118286
vn -0.9229306578636169 -0.15397287905216217 0.3528333902359009
vn -0.6665981411933899 -0.6403250694274902 0.38161593675613403
vn -0.6669670343399048 0.08650590479373932 0.7400484681129456
vn -0.5231477618217468 -0.37330517172813416 0.7661330699920654
vn -0.16248321533203125 0.25129958987236023 -0.9541738629341125
vn -0.9563407301902771 0.2854270040988922 0.06279976665973663
vn -0.04863489791750908 0.9925094246864319 -0.11207007616758347
vn -0.9849183559417725 -0.1711084097623825 0.02564680576324463
vn 0.010561659932136536 -0.9998754262924194 -0.01173116359859705
vn -0.08157929033041 0.9938086271286011 -0.07542701065540314
vn 0.9230385422706604 0.3418204188346863 -0.17651808261871338
vn 0.016530891880393028 -0.9985417723655701 0.051393020898103714
vn 0.983089804649353 -0.14705470204353333 -0.10913091152906418
vn -0.06079735979437828 -0.12811501324176788 0.9898940324783325
vn 0.02350861020386219 -0.13976621627807617 0.9899054169654846
vn 0.10094744712114334 -0.09781064838171005 0.9900720715522766
vn -0.1925000250339508 -0.6209996938705444 0.7598046660423279
vn 0.1979137510061264 -0.6183096766471863 0.7606071829795837
vn 0.5270283818244934 -0.3739441931247711 0.7631558179855347
vn -0.20680440962314606 -0.9228708148002625 0.3248714208602905
vn 0.4094037711620331 -0.8410417437553406 0.3536061942577362
vn 0.8308954834938049 -0.42617741227149963 0.35775062441825867
vn -0.9436631202697754 0.0 0.3309076726436615
vn -0.016733549535274506 1.2933365489686821e-09 0.9998599886894226
vn -0.6216616034507751 0.0 0.7832859754562378
vn 0.18604640662670135 -2.6236146588587417e-09 0.9825409650802612
vn -0.23709644377231598 -0.23401065170764923 0.9428808689117432
vn -0.17248880863189697 -0.023947685956954956 0.9847203493118286
vn -0.9229306578636169 0.15397286415100098 0.3528333306312561
vn -0.6665981411933899 0.6403250694274902 0.38161590695381165
vn -0.6669670343399048 -0.08650591224431992 0.7400485277175903
vn -0.5231477618217468 0.37330517172813416 0.7661330699920654
vn -0.06079735979437828 0.12811501324176788 0.9898940324783325
vn 0.023508617654442787 0.13976621627807617 0.9899054169654846
vn 0.10094743221998215 0.09781064093112946 0.9900720715522766
vn -0.1925000101327896 0.6209996938705444 0.7598046660423279
vn 0.1979137659072876 0.6183096766471863 0.7606071829795837
vn 0.5270284414291382 0.3739441931247711 0.7631559371948242
vn -0.20680439472198486 0.9228708148002625 0.32487136125564575
vn 0.40940380096435547 0.8410417437553406 0.3536061644554138
vn 0.8308956027030945 0.426177442073822 0.35775062441825867
vn 0.730889618396759 5.291027171949736e-09 0.6824957728385925
vn 0.9339879751205444 0.0 0.35730472207069397
vn -0.20913510024547577 0.0 0.9778868556022644
vn -0.7595146298408508 -0.6504902243614197 1.380046512622357e-07
vn -0.25909554958343506 -0.9658517241477966 2.2560037393759558e-07
vn -0.01673341728746891 2.5866728758927593e-09 -0.9998599886894226
vn -0.20913487672805786 8.124131589681838e-09 -0.9778869152069092
vn -0.6216616630554199 0.0 -0.783285915851593
vn -0.9436631202697754 7.866185924854108e-09 -0.3309076726436615
vn 0.18604642152786255 0.0 -0.9825409650802612
vn 0.7308894991874695 0.0 -0.6824958324432373
vn 0.9339878559112549 0.0 -0.35730472207069397
vn -0.23709648847579956 0.2340102344751358 -0.9428809285163879
vn -0.1724887639284134 0.02394726127386093 -0.9847203493118286
vn -0.06079699099063873 -0.12811550498008728 -0.9898940324783325
vn -0.6669670939445496 0.0865054503083229 -0.7400484681129456
vn -0.5231476426124573 -0.37330541014671326 -0.7661328911781311
vn -0.1925000101327896 -0.6209996342658997 -0.7598047256469727
vn -0.9229307174682617 -0.15397296845912933 -0.35283342003822327
vn -0.6665982604026794 -0.6403250694274902 -0.38161593675613403
vn -0.20680446922779083 -0.9228708148002625 -0.3248712718486786
vn 0.023508446291089058 -0.13976645469665527 -0.9899054169654846
vn 0.10094714909791946 -0.0978110060095787 -0.9900720715522766
vn 0.19791361689567566 -0.6183095574378967 -0.7606073021888733
vn 0.5270284414291382 -0.3739442527294159 -0.7631557583808899
vn 0.40940380096435547 -0.8410418033599854 -0.35360604524612427
vn 0.8308954834938049 -0.426177442073822 -0.35775065422058105
vn -0.23709648847579956 -0.2340102344751358 -0.9428809285163879
vn -0.1724887639284134 -0.02394726872444153 -0.9847203493118286
vn -0.060796987265348434 0.1281154900789261 -0.9898940324783325
vn -0.6669670939445496 -0.0865054652094841 -0.7400484681129456
vn -0.5231476426124573 0.37330541014671326 -0.7661328911781311
vn -0.1925000101327896 0.6209996342658997 -0.7598047256469727
vn -0.9229305982589722 0.15397295355796814 -0.35283342003822327
vn -0.6665982007980347 0.640325129032135 -0.38161593675613403
vn -0.20680446922779083 0.9228708148002625 -0.3248712718486786
vn 0.023508446291089058 0.13976645469665527 -0.9899054169654846
vn 0.10094714164733887 0.0978110060095787 -0.9900720715522766
vn 0.19791361689567566 0.6183095574378967 -0.7606073021888733
vn 0.5270284414291382 0.3739442527294159 -0.7631557583808899
vn 0.40940383076667786 0.8410418033599854 -0.35360604524612427
vn 0.8308954834938049 0.426177442073822 -0.35775065422058105
vn -1.0 0.0 2.3447833896739212e-08
vn 1.0 1.1747367523184948e-08 4.307367973410692e-08
vn -0.9985440373420715 0.05394310876727104 4.506023643102708e-08
vn 0.24136115610599518 -0.970435380935669 2.2325379234189313e-07
vn 0.7632946372032166 -0.6460505723953247 1.2697587692400703e-07
vn -0.9985440373420715 -0.053943097591400146 3.180722885076648e-08
vn -0.7595146298408508 0.6504902243614197 1.0646073178577353e-07
vn -0.25909560918807983 0.9658516645431519 1.9789507632594905e-07
vn 0.24136126041412354 0.9704353213310242 1.891091159222924e-07
vn 0.7632947564125061 0.6460505723953247 7.935992840657491e-08
vn 0.22674061357975006 0.2644391357898712 0.9373691082000732
vn 0.22674061357975006 0.2644391357898712 0.9373691082000732
vn 0.22674061357975006 0.2644391357898712 0.9373691082000732
vn 0.23258905112743378 0.10276323556900024 0.9671308398246765
vn 0.23258905112743378 0.10276323556900024 0.9671308398246765
vn 0.23258905112743378 0.10276323556900024 0.9671308398246765
f 54/54/54 83/83/83 85/85/85
f 85/85/85 55/55/55 54/54/54
f 83/83/83 82/82/82 84/84/84
f 84/84/84 85/85/85 83/83/83
f 82/82/82 76/76/76 79/79/79
f 79/79/79 84/84/84 82/82/82
f 87/87/87 55/55/55 85/85/85
f 85/85/85 95/95/95 87/87/87
f 95/95/95 85/85/85 84/84/84
f 84/84/84 94/94/94 95/95/95
f 94/94/94 84/84/84 79/79/79
f 79/79/79 93/93/93 94/94/94
f 53/53/53 81/81/81 83/83/83
f 83/83/83 54/54/54 53/53/53
f 81/81/81 80/80/80 82/82/82
f 82/82/82 83/83/83 81/81/81
f 80/80/80 73/73/73 76/76/76
f 76/76/76 82/82/82 80/80/80
f 49/49/49 81/81/81 53/53/53
f 49/49/49 80/80/80 81/81/81
f 49/49/49 73/73/73 80/80/80
f 76/76/76 75/75/75 78/78/78
f 78/78/78 79/79/79 76/76/76
f 75/75/75 74/74/74 77/77/77
f 77/77/77 78/78/78 75/75/75
f 74/74/74 51/51/51 52/52/52
f 52/52/52 77/77/77 74/74/74
f 79/79/79 78/78/78 92/92/92
f 92/92/92 93/93/93 79/79/79
f 92/92/92 78/78/78 77/77/77
f 77/77/77 91/91/91 92/92/92
f 91/91/91 77/77/77 52/52/52
f 52/52/52 86/86/86 91/91/91
f 73/73/73 72/72/72 75/75/75
f 75/75/75 76/76/76 73/73/73
f 72/72/72 71/71/71 74/74/74
f 74/74/74 75/75/75 72/72/72
f 71/71/71 50/50/50 51/51/51
f 51/51/51 74/74/74 71/71/71
f 49/49/49 72/72/72 73/73/73
f 49/49/49 71/71/71 72/72/72
f 49/49/49 50/50/50 71/71/71
f 54/54/54 55/55/55 70/70/70
f 70/70/70 68/68/68 54/54/54
f 68/68/68 70/70/70 69/69/69
f 69/69/69 67/67/67 68/68/68
f 67/67/67 69/69/69 64/64/64
f 64/64/64 61/61/61 67/67/67
f 87/87/87 90/90/90 70/70/70
f 70/70/70 55/55/55 87/87/87
f 90/90/90 89/89/89 69/69/69
f 69/69/69 70/70/70 90/90/90
f 89/89/89 48/48/48 64/64/64
f 64/64/64 69/69/69 89/89/89
f 53/53/53 54/54/54 68/68/68
f 68/68/68 66/66/66 53/53/53
f 66/66/66 68/68/68 67/67/67
f 67/67/67 65/65/65 66/66/66
f 65/65/65 67/67/67 61/61/61
f 61/61/61 58/58/58 65/65/65
f 49/49/49 53/53/53 66/66/66
f 49/49/49 66/66/66 65/65/65
f 49/49/49 65/65/65 58/58/58
f 61/61/61 64/64/64 63/63/63
f 63/63/63 60/60/60 61/61/61
f 60/60/60 63/63/63 62/62/62
f 62/62/62 59/59/59 60/60/60
f 59/59/59 62/62/62 52/52/52
f 52/52/52 51/51/51 59/59/59
f 64/64/64 48/48/48 47/47/47
f 47/47/47 63/63/63 64/64/64
f 47/47/47 88/88/88 62/62/62
f 62/62/62 63/63/63 47/47/47
f 88/88/88 86/86/86 52/52/52
f 52/52/52 62/62/62 88/88/88
f 58/58/58 61/61/61 60/60/60
f 60/60/60 57/57/57 58/58/58
f 57/57/57 60/60/60 59/59/59
f 59/59/59 56/56/56 57/57/57
f 56/56/56 59/59/59 51/51/51
f 51/51/51 50/50/50 56/56/56
f 49/49/49 58/58/58 57/57/57
f 49/49/49 57/57/57 56/56/56
f 49/49/49 56/56/56 50/50/50
f 44/44/44 45/45/45 43/43/43
f 43/43/43 40/40/40 44/44/44
f 40/40/40 43/43/43 42/42/42
f 42/42/42 39/39/39 40/40/40
f 39/39/39 42/42/42 41/41/41
f 41/41/41 38/38/38 39/39/39
f 87/87/87 95/95/95 43/43/43
f 43/43/43 45/45/45 87/87/87
f 95/95/95 94/94/94 42/42/42
f 42/42/42 43/43/43 95/95/95
f 94/94/94 93/93/93 41/41/41
f 41/41/41 42/42/42 94/94/94
f 28/28/28 44/44/44 40/40/40
f 40/40/40 37/37/37 28/28/28
f 37/37/37 40/40/40 39/39/39
f 39/39/39 36/36/36 37/37/37
f 36/36/36 39/39/39 38/38/38
f 38/38/38 35/35/35 36/36/36
f 26/26/26 28/28/28 37/37/37
f 26/26/26 37/37/37 36/36/36
f 26/26/26 36/36/36 35/35/35
f 38/38/38 41/41/41 32/32/32
f 32/32/32 34/34/34 38/38/38
f 34/34/34 32/32/32 31/31/31
f 31/31/31 33/33/33 34/34/34
f 33/33/33 31/31/31 25/25/25
f 25/25/25 27/27/27 33/33/33
f 41/41/41 93/93/93 92/92/92
f 92/92/92 32/32/32 41/41/41
f 92/92/92 91/91/91 31/31/31
f 31/31/31 32/32/32 92/92/92
f 91/91/91 86/86/86 25/25/25
f 25/25/25 31/31/31 91/91/91
f 35/35/35 38/38/38 34/34/34
f 34/34/34 30/30/30 35/35/35
f 30/30/30 34/34/34 33/33/33
f 33/33/33 29/29/29 30/30/30
f 29/29/29 33/33/33 27/27/27
f 27/27/27 46/46/46 29/29/29
f 26/26/26 35/35/35 30/30/30
f 26/26/26 30/30/30 29/29/29
f 26/26/26 29/29/29 46/46/46
f 44/44/44 21/21/21 24/24/24
f 24/24/24 45/45/45 44/44/44
f 21/21/21 20/20/20 23/23/23
f 23/23/23 24/24/24 21/21/21
f 20/20/20 19/19/19 22/22/22
f 22/22/22 23/23/23 20/20/20
f 87/87/87 45/45/45 24/24/24
f 24/24/24 90/90/90 87/87/87
f 90/90/90 24/24/24 23/23/23
f 23/23/23 89/89/89 90/90/90
f 89/89/89 23/23/23 22/22/22
f 22/22/22 48/48/48 89/89/89
f 28/28/28 18/18/18 21/21/21
f 21/21/21 44/44/44 28/28/28
f 18/18/18 17/17/17 20/20/20
f 20/20/20 21/21/21 18/18/18
f 17/17/17 16/16/16 19/19/19
f 19/19/19 20/20/20 17/17/17
f 26/26/26 18/18/18 28/28/28
f 26/26/26 17/17/17 18/18/18
f 26/26/26 16/16/16 17/17/17
f 99/99/99 100/100/100 101/101/101
f 96/96/96 97/97/97 98/98/98
f 15/15/15 11/11/11 7/7/7
f 9/9/9 15/15/15 7/7/7
f 15/15/15 13/13/13 14/14/14
f 14/14/14 11/11/11 15/15/15
f 9/9/9 12/12/12 13/13/13
f 13/13/13 15/15/15 9/9/9
f 10/10/10 7/7/7 11/11/11
f 9/9/9 7/7/7 10/10/10
f 10/10/10 11/11/11 14/14/14
f 14/14/14 8/8/8 10/10/10
f 9/9/9 10/10/10 8/8/8
f 8/8/8 12/12/12 9/9/9
f 19/19/19 6/6/6 4/4/4
f 4/4/4 22/22/22 19/19/19
f 6/6/6 5/5/5 3/3/3
f 3/3/3 4/4/4 6/6/6
f 5/5/5 27/27/27 25/25/25
f 25/25/25 3/3/3 5/5/5
f 22/22/22 4/4/4 47/47/47
f 47/47/47 48/48/48 22/22/22
f 47/47/47 4/4/4 3/3/3
f 3/3/3 88/88/88 47/47/47
f 88/88/88 3/3/3 25/25/25
f 25/25/25 86/86/86 88/88/88
f 16/16/16 2/2/2 6/6/6
f 6/6/6 19/19/19 16/16/16
f 2/2/2 1/1/1 5/5/5
f 5/5/5 6/6/6 2/2/2
f 1/1/1 46/46/46 27/27/27
f 27/27/27 5/5/5 1/1/1
f 26/26/26 2/2/2 16/16/16
f 26/26/26 1/1/1 2/2/2
f 26/26/26 46/46/46 1/1/1
