# Recovered local-space geometry; original node transforms not applied
o mesh_0
v -0.3862342834472656 0.0 -36.553951263427734
v -13.718060493469238 0.0 -37.686546325683594
v -24.992769241333008 0.0 -31.610933303833008
v -32.05958938598633 0.0 -19.506383895874023
v 12.934025764465332 0.0 -40.217445373535156
v 26.801305770874023 0.0 -34.415958404541016
v 35.89716720581055 0.0 -19.506397247314453
v -12.988123893737793 -3.8652725219726562 -39.060272216796875
v -11.320952415466309 -9.329611778259277 -40.217445373535156
v -4.0750322341918945 -13.943263053894043 -40.217437744140625
v -26.360294342041016 -7.452531337738037 -33.094810485839844
v -21.925914764404297 -18.238008499145508 -34.415950775146484
v -7.650660514831543 -27.329835891723633 -34.415950775146484
v -34.986793518066406 -9.793644905090332 -19.506385803222656
v -28.76679801940918 -24.047250747680664 -19.50638771057129
v -9.909658432006836 -36.05803298950195 -19.506385803222656
v 4.505753517150879 -13.576034545898438 -40.217430114746094
v 11.323925971984863 -8.36311149597168 -40.217437744140625
v 9.256794929504395 -26.599077224731445 -34.415950775146484
v 22.687259674072266 -16.312406539916992 -34.415950775146484
v 12.425284385681152 -35.09042739868164 -19.506385803222656
v 30.16582679748535 -21.496824264526367 -19.506393432617188
v -12.988123893737793 3.8652725219726562 -39.060272216796875
v -11.320952415466309 9.329611778259277 -40.217445373535156
v -4.0750322341918945 13.943263053894043 -40.217437744140625
v -26.360294342041016 7.452531337738037 -33.094810485839844
v -21.925914764404297 18.238008499145508 -34.415950775146484
v -7.650660514831543 27.329835891723633 -34.415950775146484
v -34.986793518066406 9.793644905090332 -19.506385803222656
v -28.76679801940918 24.047250747680664 -19.50638771057129
v -9.909658432006836 36.05803298950195 -19.506385803222656
v 4.505753517150879 13.576034545898438 -40.217430114746094
v 11.323925971984863 8.36311149597168 -40.217437744140625
v 9.256794929504395 26.599077224731445 -34.415950775146484
v 22.687259674072266 16.312406539916992 -34.415950775146484
v 12.425284385681152 35.09042739868164 -19.506385803222656
v 30.16582679748535 21.496824264526367 -19.506393432617188
v -35.015724182128906 0.0 1.0915100574493408e-05
v 39.47675323486328 0.0 6.2063340919849e-06
v -37.989990234375 -10.682861328125 1.4195227777236141e-05
v -31.147056579589844 -26.241384506225586 1.793286355677992e-05
v -10.564807891845703 -39.351051330566406 1.796894139260985e-05
v 13.813522338867188 -38.294593811035156 1.660768066358287e-05
v 33.17692947387695 -23.45662498474121 1.2358201274764724e-05
v -37.989990234375 10.682861328125 1.2313939805608243e-05
v -31.147056579589844 26.241382598876953 1.3076454706606455e-05
v -10.564807891845703 39.351051330566406 1.0447574823047034e-05
v 1.5590639114379883 0.0 1.5035272554086987e-05
v 13.813522338867188 38.294593811035156 8.321962923218962e-06
v 33.17692947387695 23.45662498474121 6.819594091211911e-06
v -37.989990234375 10.682861328125 1.2313939805608243e-05
v -35.015724182128906 0.0 1.0915100574493408e-05
v -31.147056579589844 26.241382598876953 1.3076454706606455e-05
v -10.564807891845703 39.351051330566406 1.0447574823047034e-05
v 13.813522338867188 38.294593811035156 8.321962923218962e-06
v 33.17692947387695 23.45662498474121 6.819594091211911e-06
v 39.47675323486328 0.0 6.2063340919849e-06
v -37.989990234375 -10.682861328125 1.4195227777236141e-05
v -31.147056579589844 -26.241384506225586 1.793286355677992e-05
v -10.564807891845703 -39.351051330566406 1.796894139260985e-05
v 13.813522338867188 -38.294593811035156 1.660768066358287e-05
v 33.17692947387695 -23.45662498474121 1.2358201274764724e-05
vt 0.18124426901340485 0.12009656429290771
vt 0.15581436455249786 0.11229276657104492
vt 0.14228619635105133 0.09993869066238403
vt 0.13447824120521545 0.08597993850708008
vt 0.20062553882598877 0.11344301700592041
vt 0.21542400121688843 0.10431331396102905
vt 0.2246706336736679 0.08720076084136963
vt 0.15986773371696472 0.11026638746261597
vt 0.16946616768836975 0.10864508152008057
vt 0.17787814140319824 0.10864508152008057
vt 0.1480565071105957 0.09787917137145996
vt 0.15964952111244202 0.09675729274749756
vt 0.17633001506328583 0.09675729274749756
vt 0.14197875559329987 0.08497345447540283
vt 0.15374641120433807 0.08375269174575806
vt 0.17345485091209412 0.08395618200302124
vt 0.18812492489814758 0.10864508152008057
vt 0.19626399874687195 0.110545814037323
vt 0.19272424280643463 0.09761172533035278
vt 0.20804089307785034 0.09974813461303711
vt 0.19616417586803436 0.08395618200302124
vt 0.21449005603790283 0.08538049459457397
vt 0.15986773371696472 0.11026638746261597
vt 0.16946616768836975 0.10864508152008057
vt 0.17787814140319824 0.10864508152008057
vt 0.1480565071105957 0.09787917137145996
vt 0.15964952111244202 0.09675729274749756
vt 0.17633001506328583 0.09675729274749756
vt 0.14197875559329987 0.08497345447540283
vt 0.15374641120433807 0.08375269174575806
vt 0.17345485091209412 0.08395618200302124
vt 0.18812492489814758 0.10864508152008057
vt 0.19626399874687195 0.110545814037323
vt 0.19272424280643463 0.09761172533035278
vt 0.20804089307785034 0.09974813461303711
vt 0.19616417586803436 0.08395618200302124
vt 0.21449005603790283 0.08538049459457397
vt 0.13119855523109436 0.06311202049255371
vt 0.22819799184799194 0.06311202049255371
vt 0.1384442299604416 0.06291043758392334
vt 0.15075133740901947 0.06270897388458252
vt 0.1718747615814209 0.06291043758392334
vt 0.19710958003997803 0.06291043758392334
vt 0.21736130118370056 0.0635150671005249
vt 0.1384442299604416 0.06291043758392334
vt 0.15075133740901947 0.06270897388458252
vt 0.1718747615814209 0.06291043758392334
vt 0.22756989300251007 0.18897342681884766
vt 0.19710958003997803 0.06291043758392334
vt 0.21736130118370056 0.0635150671005249
vt 0.20759491622447968 0.1266384720802307
vt 0.22756989300251007 0.13132625818252563
vt 0.17850342392921448 0.13742375373840332
vt 0.15399083495140076 0.16986459493637085
vt 0.15596622228622437 0.20828843116760254
vt 0.1837104856967926 0.2388077974319458
vt 0.22756989300251007 0.2470800280570984
vt 0.20759491622447968 0.1266384720802307
vt 0.17850342392921448 0.13742375373840332
vt 0.15399083495140076 0.16986459493637085
vt 0.15596622228622437 0.20828843116760254
vt 0.1837104856967926 0.2388077974319458
vn -0.01673341728746891 2.5866728758927593e-09 -0.9998599886894226
vn -0.20913487672805786 8.124131589681838e-09 -0.9778869152069092
vn -0.6216616630554199 0.0 -0.783285915851593
vn -0.9436631202697754 3.933092962427054e-09 -0.3309077024459839
vn 0.18604642152786255 0.0 -0.9825409650802612
vn 0.7308894991874695 0.0 -0.6824958324432373
vn 0.9339878559112549 0.0 -0.35730475187301636
vn -0.23709648847579956 0.2340102344751358 -0.9428809285163879
vn -0.1724887639284134 0.02394726127386093 -0.9847203493118286
vn -0.06079699099063873 -0.12811550498008728 -0.9898940324783325
vn -0.6669670939445496 0.0865054503083229 -0.7400484681129456
vn -0.5231476426124573 -0.37330541014671326 -0.7661328911781311
vn -0.1925000101327896 -0.6209996342658997 -0.7598047256469727
vn -0.9229305982589722 -0.15397296845912933 -0.35283342003822327
vn -0.6665982007980347 -0.6403250694274902 -0.38161590695381165
vn -0.20680446922779083 -0.9228708148002625 -0.3248712718486786
vn 0.023508446291089058 -0.13976645469665527 -0.9899054169654846
vn 0.10094714909791946 -0.0978110060095787 -0.9900720715522766
vn 0.19791361689567566 -0.6183095574378967 -0.7606073021888733
vn 0.5270284414291382 -0.3739442527294159 -0.7631557583808899
vn 0.40940383076667786 -0.8410418033599854 -0.35360604524612427
vn 0.8308955430984497 -0.4261775016784668 -0.35775071382522583
vn -0.23709648847579956 -0.2340102344751358 -0.9428809285163879
vn -0.1724887639284134 -0.02394726872444153 -0.9847203493118286
vn -0.060796987265348434 0.1281154900789261 -0.9898940324783325
vn -0.6669670939445496 -0.0865054652094841 -0.7400484681129456
vn -0.5231476426124573 0.37330541014671326 -0.7661328911781311
vn -0.1925000101327896 0.6209996342658997 -0.7598047256469727
vn -0.9229305982589722 0.15397295355796814 -0.35283342003822327
vn -0.6665982007980347 0.6403250694274902 -0.38161587715148926
vn -0.20680446922779083 0.9228708148002625 -0.324871301651001
vn 0.023508446291089058 0.13976645469665527 -0.9899054169654846
vn 0.10094714164733887 0.0978110060095787 -0.9900720715522766
vn 0.19791361689567566 0.6183095574378967 -0.7606073021888733
vn 0.5270284414291382 0.3739442527294159 -0.7631557583808899
vn 0.40940383076667786 0.8410417437553406 -0.35360613465309143
vn 0.8308954238891602 0.4261774718761444 -0.35775065422058105
vn -0.9887109398841858 -1.5455418278520483e-08 -0.14983613789081573
vn 0.983764111995697 -1.5408851083975605e-08 -0.17946645617485046
vn -0.9867963790893555 0.05330841243267059 -0.15294155478477478
vn -0.7492068409919739 -0.6416621208190918 -0.1641913652420044
vn -0.25535649061203003 -0.9519131779670715 -0.1692759245634079
vn 0.2376837581396103 -0.9556494951248169 -0.17389799654483795
vn 0.750859797000885 -0.6355257034301758 -0.17976830899715424
vn -0.9867963790893555 -0.053308434784412384 -0.15294158458709717
vn -0.7492069602012634 0.6416620016098022 -0.1641913801431656
vn -0.2553565204143524 0.9519131779670715 -0.16927596926689148
vn -1.1265061061749293e-07 -1.6230596600053104e-07 1.0
vn 0.2376837432384491 0.9556494951248169 -0.17389805614948273
vn 0.7508597373962402 0.6355257630348206 -0.17976835370063782
vn -1.1265061061749293e-07 -1.6230596600053104e-07 1.0
vn -1.1265061061749293e-07 -1.6230596600053104e-07 1.0
vn -7.333495943839807e-08 -1.6755363319020944e-08 1.0
vn 4.469728054345978e-08 1.303548913256236e-07 1.0
vn 9.34932273821687e-08 1.4538869663738296e-07 1.0
vn 1.7019040399191e-07 1.2084521472388587e-07 1.0
vn 2.3284484029773012e-07 3.63914907097751e-08 1.0
vn -1.1265061061749293e-07 3.3840933610918e-07 1.0
vn -7.69849179960147e-08 2.0637131115108787e-07 1.0
vn 3.822969318889591e-08 6.277283404187983e-08 1.0
vn 5.332012875669534e-08 5.812353975898077e-08 1.0
vn 1.509736193838762e-07 8.937314532886376e-08 1.0
f 57/57/57 48/48/48 62/62/62
f 62/62/62 48/48/48 61/61/61
f 61/61/61 48/48/48 60/60/60
f 60/60/60 48/48/48 59/59/59
f 59/59/59 48/48/48 58/58/58
f 58/58/58 48/48/48 52/52/52
f 57/57/57 56/56/56 48/48/48
f 56/56/56 55/55/55 48/48/48
f 55/55/55 54/54/54 48/48/48
f 54/54/54 53/53/53 48/48/48
f 53/53/53 51/51/51 48/48/48
f 51/51/51 52/52/52 48/48/48
f 6/6/6 35/35/35 37/37/37
f 37/37/37 7/7/7 6/6/6
f 35/35/35 34/34/34 36/36/36
f 36/36/36 37/37/37 35/35/35
f 34/34/34 28/28/28 31/31/31
f 31/31/31 36/36/36 34/34/34
f 39/39/39 7/7/7 37/37/37
f 37/37/37 50/50/50 39/39/39
f 50/50/50 37/37/37 36/36/36
f 36/36/36 49/49/49 50/50/50
f 49/49/49 36/36/36 31/31/31
f 31/31/31 47/47/47 49/49/49
f 5/5/5 33/33/33 35/35/35
f 35/35/35 6/6/6 5/5/5
f 33/33/33 32/32/32 34/34/34
f 34/34/34 35/35/35 33/33/33
f 32/32/32 25/25/25 28/28/28
f 28/28/28 34/34/34 32/32/32
f 1/1/1 33/33/33 5/5/5
f 1/1/1 32/32/32 33/33/33
f 1/1/1 25/25/25 32/32/32
f 28/28/28 27/27/27 30/30/30
f 30/30/30 31/31/31 28/28/28
f 27/27/27 26/26/26 29/29/29
f 29/29/29 30/30/30 27/27/27
f 26/26/26 3/3/3 4/4/4
f 4/4/4 29/29/29 26/26/26
f 31/31/31 30/30/30 46/46/46
f 46/46/46 47/47/47 31/31/31
f 46/46/46 30/30/30 29/29/29
f 29/29/29 45/45/45 46/46/46
f 45/45/45 29/29/29 4/4/4
f 4/4/4 38/38/38 45/45/45
f 25/25/25 24/24/24 27/27/27
f 27/27/27 28/28/28 25/25/25
f 24/24/24 23/23/23 26/26/26
f 26/26/26 27/27/27 24/24/24
f 23/23/23 2/2/2 3/3/3
f 3/3/3 26/26/26 23/23/23
f 1/1/1 24/24/24 25/25/25
f 1/1/1 23/23/23 24/24/24
f 1/1/1 2/2/2 23/23/23
f 6/6/6 7/7/7 22/22/22
f 22/22/22 20/20/20 6/6/6
f 20/20/20 22/22/22 21/21/21
f 21/21/21 19/19/19 20/20/20
f 19/19/19 21/21/21 16/16/16
f 16/16/16 13/13/13 19/19/19
f 39/39/39 44/44/44 22/22/22
f 22/22/22 7/7/7 39/39/39
f 44/44/44 43/43/43 21/21/21
f 21/21/21 22/22/22 44/44/44
f 43/43/43 42/42/42 16/16/16
f 16/16/16 21/21/21 43/43/43
f 5/5/5 6/6/6 20/20/20
f 20/20/20 18/18/18 5/5/5
f 18/18/18 20/20/20 19/19/19
f 19/19/19 17/17/17 18/18/18
f 17/17/17 19/19/19 13/13/13
f 13/13/13 10/10/10 17/17/17
f 1/1/1 5/5/5 18/18/18
f 1/1/1 18/18/18 17/17/17
f 1/1/1 17/17/17 10/10/10
f 13/13/13 16/16/16 15/15/15
f 15/15/15 12/12/12 13/13/13
f 12/12/12 15/15/15 14/14/14
f 14/14/14 11/11/11 12/12/12
f 11/11/11 14/14/14 4/4/4
f 4/4/4 3/3/3 11/11/11
f 16/16/16 42/42/42 41/41/41
f 41/41/41 15/15/15 16/16/16
f 41/41/41 40/40/40 14/14/14
f 14/14/14 15/15/15 41/41/41
f 40/40/40 38/38/38 4/4/4
f 4/4/4 14/14/14 40/40/40
f 10/10/10 13/13/13 12/12/12
f 12/12/12 9/9/9 10/10/10
f 9/9/9 12/12/12 11/11/11
f 11/11/11 8/8/8 9/9/9
f 8/8/8 11/11/11 3/3/3
f 3/3/3 2/2/2 8/8/8
f 1/1/1 10/10/10 9/9/9
f 1/1/1 9/9/9 8/8/8
f 1/1/1 8/8/8 2/2/2
