# Recovered local-space geometry; original node transforms not applied
o mesh_0
v -14.07690715789795 -2.53433895111084 44.80860900878906
v -12.38563060760498 -9.351722717285156 46.12220764160156
v -40.61288833618164 -10.157703399658203 21.55933380126953
v -33.06599044799805 -27.718425750732422 21.516237258911133
v -30.467302322387695 -7.231254577636719 37.46330642700195
v -25.201406478881836 -20.68265151977539 38.808570861816406
v -0.09939150512218475 -0.24244889616966248 18.214250564575195
v -6.216280937194824 2.708209753036499 78.38288879394531
v -1.5752441883087158 9.405118942260742 52.786712646484375
v -9.656835556030273 0.4342508614063263 54.706172943115234
v -1.2124460935592651 -8.945198059082031 54.319427490234375
v 0.9072346687316895 10.481226921081543 75.20301818847656
v 10.317066192626953 2.962728977203369 74.79977416992188
v 2.2458839416503906 -6.170271873474121 77.44900512695312
v 7.518734455108643 0.6117904186248779 53.585365295410156
v -4.284447193145752 -14.721145629882812 46.16313934326172
v 4.779743194580078 -14.333416938781738 46.16315460205078
v 12.084402084350586 -8.795960426330566 46.1533088684082
v -8.71774673461914 -31.298418045043945 38.78766632080078
v 10.655086517333984 -30.45724868774414 38.79310607910156
v 26.12866973876953 -18.57135009765625 38.78104782104492
v -11.376792907714844 -41.51033020019531 21.53616714477539
v 14.34585189819336 -40.39017868041992 21.561641693115234
v 34.8460807800293 -24.628633499145508 21.57691192626953
v -37.69291687011719 2.9113223831700452e-08 21.571739196777344
v -0.5953678488731384 2.6450951651213472e-08 42.55032730102539
v -29.167224884033203 2.923247244268623e-08 35.92069625854492
v 13.551802635192871 0.0 46.185577392578125
v -14.07690715789795 2.53433895111084 44.80860900878906
v -12.38563060760498 9.351722717285156 46.12220764160156
v -40.61288833618164 10.157703399658203 21.55933380126953
v -33.06598663330078 27.718427658081055 21.516237258911133
v -30.467302322387695 7.231254577636719 37.46330642700195
v -25.201406478881836 20.68265151977539 38.808570861816406
v -4.284447193145752 14.721145629882812 46.16313934326172
v 4.779743194580078 14.333416938781738 46.16315460205078
v 12.084402084350586 8.795960426330566 46.1533088684082
v -8.71774673461914 31.298418045043945 38.78766632080078
v 10.655086517333984 30.45724868774414 38.79310607910156
v 26.12866973876953 18.57135009765625 38.78104782104492
v -11.376792907714844 41.51033020019531 21.53616714477539
v 14.34585189819336 40.39017868041992 21.561641693115234
v 34.84608459472656 24.628633499145508 21.57691192626953
v 30.86730194091797 0.0 38.82820129394531
v 41.52430725097656 0.0 21.588542938232422
v -15.215203285217285 -2.933632003987441e-08 43.49677658081055
v -35.69706726074219 -30.15257453918457 1.9046598026761785e-05
v -12.106634140014648 -45.149566650390625 1.9521168724168092e-05
v -0.5953673124313354 1.8893533848540756e-08 -42.5503044128418
v -15.215202331542969 2.933631648716073e-08 -43.49675750732422
v -29.167224884033203 0.0 -35.92068099975586
v -37.69291687011719 -2.911323448984149e-08 -21.571718215942383
v 13.551801681518555 0.0 -46.1855583190918
v 30.86730194091797 0.0 -38.82817840576172
v 41.52430725097656 0.0 -21.58852767944336
v -14.076909065246582 -2.5343472957611084 -44.80859375
v -12.385629653930664 -9.351733207702637 -46.12218475341797
v -4.284443378448486 -14.721156120300293 -46.163108825683594
v -30.467302322387695 -7.231264591217041 -37.463279724121094
v -25.201406478881836 -20.682655334472656 -38.80854034423828
v -8.71774673461914 -31.29842185974121 -38.78763961791992
v -40.61288833618164 -10.157710075378418 -21.559314727783203
v -33.06599044799805 -27.718429565429688 -21.516212463378906
v -11.37679386138916 -41.510337829589844 -21.53614044189453
v 4.779742240905762 -14.333425521850586 -46.163124084472656
v 12.084399223327637 -8.795971870422363 -46.15328598022461
v 10.655085563659668 -30.457250595092773 -38.79308319091797
v 26.12866973876953 -18.571353912353516 -38.78102111816406
v 14.34585189819336 -40.39018630981445 -21.561613082885742
v 34.8460807800293 -24.628637313842773 -21.576892852783203
v -14.076909065246582 2.5343472957611084 -44.80859375
v -12.385629653930664 9.351733207702637 -46.12218475341797
v -4.284443378448486 14.721156120300293 -46.163108825683594
v -30.467302322387695 7.231264591217041 -37.463279724121094
v -25.201406478881836 20.682655334472656 -38.80854034423828
v -8.71774673461914 31.29842185974121 -38.78763961791992
v -40.61288833618164 10.157710075378418 -21.559314727783203
v -33.06599044799805 27.718429565429688 -21.516212463378906
v -11.37679386138916 41.510337829589844 -21.53614044189453
v 4.779742240905762 14.333425521850586 -46.163124084472656
v 12.084399223327637 8.795971870422363 -46.15328598022461
v 10.655085563659668 30.457250595092773 -38.79308319091797
v 26.12866973876953 18.571353912353516 -38.78102111816406
v 14.34585189819336 40.39018630981445 -21.561613082885742
v 34.8460807800293 24.628637313842773 -21.576892852783203
v -41.015724182128906 -5.461380965243734e-07 1.3014170690439641e-05
v 45.47675323486328 -8.611345947429072e-07 1.2547370715765283e-05
v -43.97157669067383 -11.152548789978027 1.5169368452916387e-05
v 15.873794555664062 -43.92977523803711 2.0687648429884575e-05
v 38.1651725769043 -26.790904998779297 1.8130122043658048e-05
v -43.97157669067383 11.152546882629395 1.4039142115507275e-05
v -35.69706726074219 30.152572631835938 1.623023308638949e-05
v -12.106634140014648 45.149566650390625 1.5526120478170924e-05
v 15.873796463012695 43.92977523803711 1.4700088286190294e-05
v 38.16517639160156 26.79090118408203 1.3073273294139653e-05
v -6.216280937194824 2.708209753036499 78.38288879394531
v 0.9072346687316895 10.481226921081543 75.20301818847656
v 10.317066192626953 2.962728977203369 74.79977416992188
v -6.216280937194824 2.708209753036499 78.38288879394531
v 10.317066192626953 2.962728977203369 74.79977416992188
v 2.2458839416503906 -6.170271873474121 77.44900512695312
vt 0.45273464918136597 0.586757242679596
vt 0.4529407024383545 0.5867763757705688
vt 0.45228463411331177 0.5873792171478271
vt 0.4525566101074219 0.5874018669128418
vt 0.4524780511856079 0.5870136022567749
vt 0.45270758867263794 0.5870380401611328
vt 0.45446479320526123 0.5873376131057739
vt 0.45446449518203735 0.5865675210952759
vt 0.4544266164302826 0.5869313478469849
vt 0.4544646143913269 0.5869315266609192
vt 0.4545026421546936 0.5869313478469849
vt 0.45438843965530396 0.5865672826766968
vt 0.45446449518203735 0.5865675210952759
vt 0.45454052090644836 0.5865672826766968
vt 0.4544646143913269 0.5869315266609192
vt 0.45311760902404785 0.5867951512336731
vt 0.4533270597457886 0.5867951512336731
vt 0.45349830389022827 0.5867862701416016
vt 0.45303547382354736 0.5870427489280701
vt 0.4534381628036499 0.5870427489280701
vt 0.4537535309791565 0.5870147943496704
vt 0.4529784321784973 0.5874154567718506
vt 0.4535026550292969 0.5874154567718506
vt 0.4539145231246948 0.5873928070068359
vt 0.4521222710609436 0.5873478651046753
vt 0.45316368341445923 0.5865554809570312
vt 0.4523382782936096 0.5869686603546143
vt 0.4536227583885193 0.5867069959640503
vt 0.45273464918136597 0.586757242679596
vt 0.4529407024383545 0.5867763757705688
vt 0.45228463411331177 0.5873792171478271
vt 0.4525566101074219 0.5874018669128418
vt 0.4524780511856079 0.5870136022567749
vt 0.45270758867263794 0.5870380401611328
vt 0.45311760902404785 0.5867951512336731
vt 0.4533270597457886 0.5867951512336731
vt 0.45349830389022827 0.5867862701416016
vt 0.45303547382354736 0.5870427489280701
vt 0.4534381628036499 0.5870427489280701
vt 0.4537535309791565 0.5870147943496704
vt 0.4529784321784973 0.5874154567718506
vt 0.4535026550292969 0.5874154567718506
vt 0.4539145231246948 0.5873928070068359
vt 0.4539424777030945 0.5869524478912354
vt 0.45413628220558167 0.5873523950576782
vt 0.452658474445343 0.5867065191268921
vt 0.45249485969543457 0.5878469944000244
vt 0.45296889543533325 0.5878515243530273
vt 0.45317918062210083 0.5891348123550415
vt 0.45260846614837646 0.5889596939086914
vt 0.4523048996925354 0.5886824131011963
vt 0.45212966203689575 0.5883692502975464
vt 0.45361411571502686 0.5889855623245239
vt 0.45394623279571533 0.5887806415557861
vt 0.45415374636650085 0.5883966088294983
vt 0.4526994526386261 0.5889142751693726
vt 0.45291486382484436 0.5888778567314148
vt 0.453103631734848 0.5888778567314148
vt 0.45243436098098755 0.5886362791061401
vt 0.45269453525543213 0.5886110663414001
vt 0.45306891202926636 0.5886110663414001
vt 0.45229798555374146 0.5883466005325317
vt 0.4525620937347412 0.5883191823959351
vt 0.4530043601989746 0.5883238315582275
vt 0.45333361625671387 0.5888778567314148
vt 0.45351624488830566 0.5889204740524292
vt 0.45343679189682007 0.588630199432373
vt 0.45378053188323975 0.5886781811714172
vt 0.4535140097141266 0.5883238315582275
vt 0.4539252519607544 0.5883557796478271
vt 0.4526994526386261 0.5889142751693726
vt 0.45291486382484436 0.5888778567314148
vt 0.453103631734848 0.5888778567314148
vt 0.45243436098098755 0.5886362791061401
vt 0.45269453525543213 0.5886110663414001
vt 0.45306891202926636 0.5886110663414001
vt 0.45229798555374146 0.5883466005325317
vt 0.4525620937347412 0.5883191823959351
vt 0.4530043601989746 0.5883238315582275
vt 0.45333361625671387 0.5888778567314148
vt 0.45351624488830566 0.5889204740524292
vt 0.45343679189682007 0.588630199432373
vt 0.45378053188323975 0.5886781811714172
vt 0.4535140097141266 0.5883238315582275
vt 0.4539252519607544 0.5883557796478271
vt 0.45205605030059814 0.5878560543060303
vt 0.45423293113708496 0.5878560543060303
vt 0.4522186517715454 0.5878515243530273
vt 0.45353519916534424 0.5878515243530273
vt 0.4539896845817566 0.5878650546073914
vt 0.4522186517715454 0.5878515243530273
vt 0.45249485969543457 0.5878469944000244
vt 0.45296889543533325 0.5878515243530273
vt 0.45353519916534424 0.5878515243530273
vt 0.4539896845817566 0.5878650546073914
vt 0.45446449518203735 0.5865675210952759
vt 0.45438843965530396 0.5865672826766968
vt 0.45446449518203735 0.5865675210952759
vt 0.45446449518203735 0.5865675210952759
vt 0.45446449518203735 0.5865675210952759
vt 0.45454052090644836 0.5865672826766968
vn 0.24443306028842926 -0.2643875479698181 -0.9329264163970947
vn 0.17694082856178284 -0.015682343393564224 -0.9840966463088989
vn 0.9222898483276367 0.15436303615570068 -0.35433557629585266
vn 0.6673773527145386 0.6373729109764099 -0.3851794898509979
vn 0.6678874492645264 -0.08652795851230621 -0.7392153143882751
vn 0.5253053307533264 0.3725959062576294 -0.7650011777877808
vn 0.0925825834274292 -0.0052823093719780445 0.9956910014152527
vn 0.9493353366851807 -0.2931649386882782 -0.11321096867322922
vn 0.049654144793748856 -0.989922821521759 0.13261772692203522
vn 0.9820533394813538 0.18858008086681366 -0.0029616677202284336
vn -0.0006463857716880739 0.9981673359870911 0.06051056459546089
vn 0.07395774126052856 -0.9964730143547058 0.039645880460739136
vn -0.9213647842407227 -0.36480674147605896 0.1341751217842102
vn -0.019094044342637062 0.9935519695281982 -0.11175904422998428
vn -0.9755708575248718 0.16626091301441193 0.14359261095523834
vn 0.06545714288949966 0.13630641996860504 -0.9885018467903137
vn -0.0274515338242054 0.15111412107944489 -0.9881350994110107
vn -0.11234478652477264 0.10535172373056412 -0.9880687594413757
vn 0.19280041754245758 0.6220187544822693 -0.7588943839073181
vn -0.19947293400764465 0.6197386980056763 -0.7590352296829224
vn -0.5296248197555542 0.37387117743492126 -0.7613921165466309
vn 0.20644526183605194 0.9221621155738831 -0.3271045982837677
vn -0.40988239645957947 0.8398274183273315 -0.3559302091598511
vn -0.8291493058204651 0.42787453532218933 -0.3597705066204071
vn 0.9426122307777405 3.926272196252967e-09 -0.33388954401016235
vn 0.01627085730433464 -7.808822921617775e-09 -0.9998676180839539
vn 0.6231760382652283 5.301354022435589e-09 -0.7820816040039062
vn -0.198061004281044 0.0 -0.9801896810531616
vn 0.24443303048610687 0.2643875479698181 -0.9329264163970947
vn 0.17694081366062164 0.015682339668273926 -0.9840966463088989
vn 0.9222897291183472 -0.15436306595802307 -0.3543355464935303
vn 0.6673772931098938 -0.6373729705810547 -0.38517946004867554
vn 0.6678874492645264 0.08652795106172562 -0.7392153143882751
vn 0.5253053307533264 -0.3725959062576294 -0.7650011777877808
vn 0.06545715034008026 -0.13630643486976624 -0.9885018467903137
vn -0.02745152823626995 -0.15111413598060608 -0.9881350994110107
vn -0.11234477162361145 -0.10535172373056412 -0.9880686402320862
vn 0.19280041754245758 -0.6220187544822693 -0.7588943839073181
vn -0.19947293400764465 -0.6197386980056763 -0.7590352296829224
vn -0.5296247601509094 -0.37387117743492126 -0.7613921165466309
vn 0.20644529163837433 -0.9221621155738831 -0.3271045684814453
vn -0.40988242626190186 -0.8398275375366211 -0.3559302091598511
vn -0.8291493058204651 -0.42787453532218933 -0.3597705662250519
vn -0.7293997406959534 2.3785316827229508e-08 -0.6840878129005432
vn -0.9329888820648193 7.032581095245405e-08 -0.3599052429199219
vn 0.22908449172973633 -1.676432148656204e-08 -0.9734065532684326
vn 0.7607013583183289 0.6491020321846008 -1.282644888078721e-07
vn 0.25854748487472534 0.965998649597168 -2.2162997481700586e-07
vn 0.01627076230943203 1.3014701538693885e-09 0.9998676180839539
vn 0.22908417880535126 0.0 0.9734066128730774
vn 0.623176097869873 0.0 0.7820815443992615
vn 0.9426121711730957 3.926271752163757e-09 0.33388960361480713
vn -0.19806097447872162 0.0 0.9801898002624512
vn -0.7293996810913086 0.0 0.6840878129005432
vn -0.9329889416694641 0.0 0.35990533232688904
vn 0.2444329857826233 -0.26438698172569275 0.9329267144203186
vn 0.1769406497478485 -0.01568145491182804 0.9840965867042542
vn 0.06545700877904892 0.13630688190460205 0.9885019063949585
vn 0.6678875684738159 -0.08652712404727936 0.7392153143882751
vn 0.5253052711486816 0.3725960850715637 0.7650009989738464
vn 0.19280046224594116 0.622018575668335 0.7588945031166077
vn 0.9222897291183472 0.15436318516731262 0.35433557629585266
vn 0.6673773527145386 0.6373729109764099 0.3851794898509979
vn 0.20644526183605194 0.9221621751785278 0.32710444927215576
vn -0.027451228350400925 0.15111440420150757 0.988135039806366
vn -0.11234446614980698 0.10535208880901337 0.9880686402320862
vn -0.1994728147983551 0.6197386384010315 0.7590353488922119
vn -0.5296248197555542 0.3738712668418884 0.7613920569419861
vn -0.40988242626190186 0.8398274779319763 0.3559301197528839
vn -0.8291493058204651 0.42787453532218933 0.3597705066204071
vn 0.2444329857826233 0.26438695192337036 0.932926595211029
vn 0.1769406497478485 0.01568145491182804 0.9840965867042542
vn 0.06545701622962952 -0.13630688190460205 0.9885019063949585
vn 0.6678875684738159 0.08652712404727936 0.7392153143882751
vn 0.5253052115440369 -0.37259605526924133 0.7650010585784912
vn 0.19280043244361877 -0.622018575668335 0.7588945031166077
vn 0.9222897291183472 -0.15436317026615143 0.35433557629585266
vn 0.6673772931098938 -0.6373729705810547 0.3851794898509979
vn 0.2064453363418579 -0.9221622347831726 0.32710447907447815
vn -0.027451228350400925 -0.15111440420150757 0.988135039806366
vn -0.11234448105096817 -0.10535208880901337 0.9880686402320862
vn -0.1994727998971939 -0.6197386384010315 0.7590353488922119
vn -0.5296248197555542 -0.3738712966442108 0.7613920569419861
vn -0.40988242626190186 -0.8398274779319763 0.3559301197528839
vn -0.8291492462158203 -0.42787453532218933 0.35977059602737427
vn 1.0 7.792794853855867e-09 -3.117117941542347e-08
vn -1.0 4.311868906370364e-08 -4.899851191453308e-08
vn 0.9988883137702942 -0.04714155197143555 -3.7033569100231034e-08
vn -0.24197326600551605 0.9702829122543335 -2.2066825522415456e-07
vn -0.7631629109382629 0.6462061405181885 -1.5593457192153437e-07
vn 0.9988883137702942 0.04714156314730644 -3.438831441826551e-08
vn 0.7607014179229736 -0.649101972579956 -1.3023779388277035e-07
vn 0.25854748487472534 -0.965998649597168 -1.8601087958813878e-07
vn -0.24197331070899963 -0.9702829122543335 -1.7075520020171098e-07
vn -0.7631629109382629 -0.6462061405181885 -5.550213444394103e-08
vn -0.20432649552822113 -0.20438136160373688 -0.9573290944099426
vn -0.20432649552822113 -0.20438136160373688 -0.9573290944099426
vn -0.20432649552822113 -0.20438136160373688 -0.9573290944099426
vn -0.20937089622020721 -0.0972091406583786 -0.9729924201965332
vn -0.20937089622020721 -0.0972091406583786 -0.9729924201965332
vn -0.20937089622020721 -0.0972091406583786 -0.9729924201965332
f 54/54/54 55/55/55 85/85/85
f 85/85/85 83/83/83 54/54/54
f 83/83/83 85/85/85 84/84/84
f 84/84/84 82/82/82 83/83/83
f 82/82/82 84/84/84 79/79/79
f 79/79/79 76/76/76 82/82/82
f 87/87/87 95/95/95 85/85/85
f 85/85/85 55/55/55 87/87/87
f 95/95/95 94/94/94 84/84/84
f 84/84/84 85/85/85 95/95/95
f 94/94/94 93/93/93 79/79/79
f 79/79/79 84/84/84 94/94/94
f 53/53/53 54/54/54 83/83/83
f 83/83/83 81/81/81 53/53/53
f 81/81/81 83/83/83 82/82/82
f 82/82/82 80/80/80 81/81/81
f 80/80/80 82/82/82 76/76/76
f 76/76/76 73/73/73 80/80/80
f 49/49/49 53/53/53 81/81/81
f 49/49/49 81/81/81 80/80/80
f 49/49/49 80/80/80 73/73/73
f 76/76/76 79/79/79 78/78/78
f 78/78/78 75/75/75 76/76/76
f 75/75/75 78/78/78 77/77/77
f 77/77/77 74/74/74 75/75/75
f 74/74/74 77/77/77 52/52/52
f 52/52/52 51/51/51 74/74/74
f 79/79/79 93/93/93 92/92/92
f 92/92/92 78/78/78 79/79/79
f 92/92/92 91/91/91 77/77/77
f 77/77/77 78/78/78 92/92/92
f 91/91/91 86/86/86 52/52/52
f 52/52/52 77/77/77 91/91/91
f 73/73/73 76/76/76 75/75/75
f 75/75/75 72/72/72 73/73/73
f 72/72/72 75/75/75 74/74/74
f 74/74/74 71/71/71 72/72/72
f 71/71/71 74/74/74 51/51/51
f 51/51/51 50/50/50 71/71/71
f 49/49/49 73/73/73 72/72/72
f 49/49/49 72/72/72 71/71/71
f 49/49/49 71/71/71 50/50/50
f 54/54/54 68/68/68 70/70/70
f 70/70/70 55/55/55 54/54/54
f 68/68/68 67/67/67 69/69/69
f 69/69/69 70/70/70 68/68/68
f 67/67/67 61/61/61 64/64/64
f 64/64/64 69/69/69 67/67/67
f 87/87/87 55/55/55 70/70/70
f 70/70/70 90/90/90 87/87/87
f 90/90/90 70/70/70 69/69/69
f 69/69/69 89/89/89 90/90/90
f 89/89/89 69/69/69 64/64/64
f 64/64/64 48/48/48 89/89/89
f 53/53/53 66/66/66 68/68/68
f 68/68/68 54/54/54 53/53/53
f 66/66/66 65/65/65 67/67/67
f 67/67/67 68/68/68 66/66/66
f 65/65/65 58/58/58 61/61/61
f 61/61/61 67/67/67 65/65/65
f 49/49/49 66/66/66 53/53/53
f 49/49/49 65/65/65 66/66/66
f 49/49/49 58/58/58 65/65/65
f 61/61/61 60/60/60 63/63/63
f 63/63/63 64/64/64 61/61/61
f 60/60/60 59/59/59 62/62/62
f 62/62/62 63/63/63 60/60/60
f 59/59/59 51/51/51 52/52/52
f 52/52/52 62/62/62 59/59/59
f 64/64/64 63/63/63 47/47/47
f 47/47/47 48/48/48 64/64/64
f 47/47/47 63/63/63 62/62/62
f 62/62/62 88/88/88 47/47/47
f 88/88/88 62/62/62 52/52/52
f 52/52/52 86/86/86 88/88/88
f 58/58/58 57/57/57 60/60/60
f 60/60/60 61/61/61 58/58/58
f 57/57/57 56/56/56 59/59/59
f 59/59/59 60/60/60 57/57/57
f 56/56/56 50/50/50 51/51/51
f 51/51/51 59/59/59 56/56/56
f 49/49/49 57/57/57 58/58/58
f 49/49/49 56/56/56 57/57/57
f 49/49/49 50/50/50 56/56/56
f 44/44/44 40/40/40 43/43/43
f 43/43/43 45/45/45 44/44/44
f 40/40/40 39/39/39 42/42/42
f 42/42/42 43/43/43 40/40/40
f 39/39/39 38/38/38 41/41/41
f 41/41/41 42/42/42 39/39/39
f 87/87/87 45/45/45 43/43/43
f 43/43/43 95/95/95 87/87/87
f 95/95/95 43/43/43 42/42/42
f 42/42/42 94/94/94 95/95/95
f 94/94/94 42/42/42 41/41/41
f 41/41/41 93/93/93 94/94/94
f 28/28/28 37/37/37 40/40/40
f 40/40/40 44/44/44 28/28/28
f 37/37/37 36/36/36 39/39/39
f 39/39/39 40/40/40 37/37/37
f 36/36/36 35/35/35 38/38/38
f 38/38/38 39/39/39 36/36/36
f 26/26/26 37/37/37 28/28/28
f 26/26/26 36/36/36 37/37/37
f 26/26/26 35/35/35 36/36/36
f 38/38/38 34/34/34 32/32/32
f 32/32/32 41/41/41 38/38/38
f 34/34/34 33/33/33 31/31/31
f 31/31/31 32/32/32 34/34/34
f 33/33/33 27/27/27 25/25/25
f 25/25/25 31/31/31 33/33/33
f 41/41/41 32/32/32 92/92/92
f 92/92/92 93/93/93 41/41/41
f 92/92/92 32/32/32 31/31/31
f 31/31/31 91/91/91 92/92/92
f 91/91/91 31/31/31 25/25/25
f 25/25/25 86/86/86 91/91/91
f 35/35/35 30/30/30 34/34/34
f 34/34/34 38/38/38 35/35/35
f 30/30/30 29/29/29 33/33/33
f 33/33/33 34/34/34 30/30/30
f 29/29/29 46/46/46 27/27/27
f 27/27/27 33/33/33 29/29/29
f 26/26/26 30/30/30 35/35/35
f 26/26/26 29/29/29 30/30/30
f 26/26/26 46/46/46 29/29/29
f 44/44/44 45/45/45 24/24/24
f 24/24/24 21/21/21 44/44/44
f 21/21/21 24/24/24 23/23/23
f 23/23/23 20/20/20 21/21/21
f 20/20/20 23/23/23 22/22/22
f 22/22/22 19/19/19 20/20/20
f 87/87/87 90/90/90 24/24/24
f 24/24/24 45/45/45 87/87/87
f 90/90/90 89/89/89 23/23/23
f 23/23/23 24/24/24 90/90/90
f 89/89/89 48/48/48 22/22/22
f 22/22/22 23/23/23 89/89/89
f 28/28/28 44/44/44 21/21/21
f 21/21/21 18/18/18 28/28/28
f 18/18/18 21/21/21 20/20/20
f 20/20/20 17/17/17 18/18/18
f 17/17/17 20/20/20 19/19/19
f 19/19/19 16/16/16 17/17/17
f 26/26/26 28/28/28 18/18/18
f 26/26/26 18/18/18 17/17/17
f 26/26/26 17/17/17 16/16/16
f 99/99/99 100/100/100 101/101/101
f 96/96/96 97/97/97 98/98/98
f 15/15/15 7/7/7 11/11/11
f 9/9/9 7/7/7 15/15/15
f 15/15/15 11/11/11 14/14/14
f 14/14/14 13/13/13 15/15/15
f 9/9/9 15/15/15 13/13/13
f 13/13/13 12/12/12 9/9/9
f 10/10/10 11/11/11 7/7/7
f 9/9/9 10/10/10 7/7/7
f 10/10/10 8/8/8 14/14/14
f 14/14/14 11/11/11 10/10/10
f 9/9/9 12/12/12 8/8/8
f 8/8/8 10/10/10 9/9/9
f 19/19/19 22/22/22 4/4/4
f 4/4/4 6/6/6 19/19/19
f 6/6/6 4/4/4 3/3/3
f 3/3/3 5/5/5 6/6/6
f 5/5/5 3/3/3 25/25/25
f 25/25/25 27/27/27 5/5/5
f 22/22/22 48/48/48 47/47/47
f 47/47/47 4/4/4 22/22/22
f 47/47/47 88/88/88 3/3/3
f 3/3/3 4/4/4 47/47/47
f 88/88/88 86/86/86 25/25/25
f 25/25/25 3/3/3 88/88/88
f 16/16/16 19/19/19 6/6/6
f 6/6/6 2/2/2 16/16/16
f 2/2/2 6/6/6 5/5/5
f 5/5/5 1/1/1 2/2/2
f 1/1/1 5/5/5 27/27/27
f 27/27/27 46/46/46 1/1/1
f 26/26/26 16/16/16 2/2/2
f 26/26/26 2/2/2 1/1/1
f 26/26/26 1/1/1 46/46/46
