# Recovered local-space geometry; original node transforms not applied
o mesh_0
v -1.1920928955078125e-07 1.2645929814425472e-07 -6.016175270080566
v 5.909299850463867 -2.9802317058624794e-08 -8.591671019075875e-08
v -1.557127689011395e-07 40.18323516845703 1.2659222647926072e-06
v 1.3113021850585938e-06 -1.2645929814425472e-07 6.016175270080566
v 1.557127689011395e-07 -40.18323516845703 -1.2659222647926072e-06
v -5.909299850463867 2.9802317058624794e-08 8.591671019075875e-08
v -5.909299850463867 2.9802317058624794e-08 8.591671019075875e-08
v -1.1920928955078125e-07 1.2645929814425472e-07 -6.016175270080566
v 1.557127689011395e-07 -40.18323516845703 -1.2659222647926072e-06
v -1.557127689011395e-07 40.18323516845703 1.2659222647926072e-06
v 5.909299850463867 -2.9802317058624794e-08 -8.591671019075875e-08
v 1.3113021850585938e-06 -1.2645929814425472e-07 6.016175270080566
vt 0.43924838304519653 0.5016220808029175
vt 0.49872803688049316 0.5297263860702515
vt 0.49872803688049316 0.5016220808029175
vt 0.43924838304519653 0.5016220808029175
vt 0.49872803688049316 0.5297263860702515
vt 0.49872803688049316 0.5297263860702515
vt 0.49872803688049316 0.5016220808029175
vt 0.43924838304519653 0.5297263860702515
vt 0.49872803688049316 0.5016220808029175
vt 0.49872803688049316 0.5297263860702515
vt 0.49872803688049316 0.5016220808029175
vt 0.43924838304519653 0.5297263860702515
vn -2.1381556081223607e-08 3.207233589819225e-08 -1.0
vn 1.0 2.6252144902372265e-09 0.0
vn 4.2843504388656584e-07 1.0 2.856233436432376e-07
vn 1.7105243443893414e-07 -3.207233234547857e-08 1.0
vn 7.140583306863846e-07 -1.0 2.856233436432376e-07
vn -1.0 -2.6252149343264364e-09 8.400687789844596e-08
vn -1.0 -2.6252149343264364e-09 8.400687789844596e-08
vn -2.1381556081223607e-08 3.207233589819225e-08 -1.0
vn 7.140583306863846e-07 -1.0 2.856233436432376e-07
vn 4.2843504388656584e-07 1.0 2.856233436432376e-07
vn 1.0 2.6252144902372265e-09 0.0
vn 1.7105243443893414e-07 -3.207233234547857e-08 1.0
f 10/10/10 7/7/7 4/4/4
f 12/12/12 6/6/6 9/9/9
f 5/5/5 11/11/11 4/4/4
f 2/2/2 3/3/3 4/4/4
f 10/10/10 11/11/11 1/1/1
f 8/8/8 2/2/2 9/9/9
f 5/5/5 7/7/7 1/1/1
f 6/6/6 3/3/3 1/1/1
