# Recovered local-space geometry; original node transforms not applied
o mesh_0
v -7.006318092346191 0.0 -57.19057846069336
v -1.8090324401855469 13.27739143371582 -38.16603088378906
v -16.031410217285156 19.65020179748535 -37.033695220947266
v -14.388526916503906 4.102941989898682 -37.16450119018555
v -24.82132911682129 -7.505708694458008 -36.3338737487793
v -9.583590507507324 -10.741626739501953 -37.54704666137695
v -1.8090310096740723 -24.288986206054688 -38.16603088378906
v 5.965526103973389 -10.741626739501953 -38.78500747680664
v 21.203266143798828 -7.505697727203369 -39.99817657470703
v 10.770459175109863 4.102951526641846 -39.16756057739258
v 12.413329124450684 19.65021514892578 -39.29835891723633
v -1.8341362419960205e-06 20.605884552001953 -18.71184539794922
v -22.14385986328125 30.496192932128906 -17.97374725341797
v -19.585926055908203 6.367571830749512 -18.059005737304688
v -35.82951736450195 -11.648508071899414 -17.517578125
v -12.104777336120605 -16.670501708984375 -18.308368682861328
v 3.3472437621639983e-07 -37.69536209106445 -18.71184539794922
v 12.104774475097656 -16.670501708984375 -19.11532211303711
v 35.82951736450195 -11.648488998413086 -19.906108856201172
v 19.585926055908203 6.367586135864258 -19.364681243896484
v 22.143831253051758 30.496212005615234 -19.449939727783203
v -1.9256819996371632e-06 23.05409049987793 -1.8209333347840584e-06
v -24.78924560546875 34.119468688964844 -9.104666673920292e-07
v -21.925737380981445 7.124107360839844 -1.8209333347840584e-06
v -40.10984420776367 -13.032475471496582 -9.104666673920292e-07
v -13.550856590270996 -18.651138305664062 -1.8209333347840584e-06
v 4.475043908769294e-07 -42.17398452758789 -9.104666673920292e-07
v 13.550854682922363 -18.65113639831543 -1.8209333347840584e-06
v 40.10984802246094 -13.03245735168457 -9.104666673920292e-07
v 21.92572784423828 7.124123573303223 -1.8209333347840584e-06
v 24.78921127319336 34.1194953918457 -9.104666673920292e-07
v -3.814697265625e-06 9.059906005859375e-06 -1.3656999726663344e-06
v -7.006318092346191 0.0 -57.19057846069336
v -1.8090324401855469 13.27739143371582 -38.16603088378906
v -16.031410217285156 19.65020179748535 -37.033695220947266
v -14.388526916503906 4.102941989898682 -37.16450119018555
v -24.82132911682129 -7.505708694458008 -36.3338737487793
v -9.583590507507324 -10.741626739501953 -37.54704666137695
v -1.8090310096740723 -24.288986206054688 -38.16603088378906
v 5.965526103973389 -10.741626739501953 -38.78500747680664
v 21.203266143798828 -7.505697727203369 -39.99817657470703
v 10.770459175109863 4.102951526641846 -39.16756057739258
v 12.413329124450684 19.65021514892578 -39.29835891723633
v -1.8341362419960205e-06 20.605884552001953 -18.71184539794922
v -22.14385986328125 30.496192932128906 -17.97374725341797
v -19.585926055908203 6.367571830749512 -18.059005737304688
v -35.82951736450195 -11.648508071899414 -17.517578125
v -12.104777336120605 -16.670501708984375 -18.308368682861328
v 3.3472437621639983e-07 -37.69536209106445 -18.71184539794922
v 12.104774475097656 -16.670501708984375 -19.11532211303711
v 35.82951736450195 -11.648488998413086 -19.906108856201172
v 19.585926055908203 6.367586135864258 -19.364681243896484
v 22.143831253051758 30.496212005615234 -19.449939727783203
v -1.9256819996371632e-06 23.05409049987793 -1.8209333347840584e-06
v -24.78924560546875 34.119468688964844 -9.104666673920292e-07
v -21.925737380981445 7.124107360839844 -1.8209333347840584e-06
v -40.10984420776367 -13.032475471496582 -9.104666673920292e-07
v -13.550856590270996 -18.651138305664062 -1.8209333347840584e-06
v 4.475043908769294e-07 -42.17398452758789 -9.104666673920292e-07
v 13.550854682922363 -18.65113639831543 -1.8209333347840584e-06
v 40.10984802246094 -13.03245735168457 -9.104666673920292e-07
v 21.92572784423828 7.124123573303223 -1.8209333347840584e-06
v 24.78921127319336 34.1194953918457 -9.104666673920292e-07
v -7.006318092346191 0.0 -57.19057846069336
v -7.006318092346191 0.0 -57.19057846069336
v -7.006318092346191 0.0 -57.19057846069336
v -7.006318092346191 0.0 -57.19057846069336
v -1.9256819996371632e-06 23.05409049987793 -1.8209333347840584e-06
v -24.78924560546875 34.119468688964844 -9.104666673920292e-07
v -21.925737380981445 7.124107360839844 -1.8209333347840584e-06
v -40.10984420776367 -13.032475471496582 -9.104666673920292e-07
v -13.550856590270996 -18.651138305664062 -1.8209333347840584e-06
v 4.475043908769294e-07 -42.17398452758789 -9.104666673920292e-07
v 13.550854682922363 -18.65113639831543 -1.8209333347840584e-06
v 40.10984802246094 -13.03245735168457 -9.104666673920292e-07
v 21.92572784423828 7.124123573303223 -1.8209333347840584e-06
v 24.78921127319336 34.1194953918457 -9.104666673920292e-07
v -7.006318092346191 0.0 -57.19057846069336
v -7.006318092346191 0.0 -57.19057846069336
v -7.006318092346191 0.0 -57.19057846069336
v -7.006318092346191 0.0 -57.19057846069336
vt 0.8795488476753235 0.2538149952888489
vt 0.8795493841171265 0.29506921768188477
vt 0.928549587726593 0.29680973291397095
vt 0.8795493841171265 0.29506921768188477
vt 0.928549587726593 0.29680973291397095
vt 0.8795493841171265 0.29506921768188477
vt 0.928549587726593 0.29680973291397095
vt 0.8795493841171265 0.29506921768188477
vt 0.928549587726593 0.29680973291397095
vt 0.8795493841171265 0.29506921768188477
vt 0.928549587726593 0.29680973291397095
vt 0.8795592188835144 0.3296346664428711
vt 0.9527183175086975 0.33354079723358154
vt 0.8795592188835144 0.3296346664428711
vt 0.9527183175086975 0.33354079723358154
vt 0.8795592188835144 0.3296346664428711
vt 0.9527183175086975 0.33354079723358154
vt 0.8795592188835144 0.3296346664428711
vt 0.9527183175086975 0.33354079723358154
vt 0.8795592188835144 0.3296346664428711
vt 0.9527183175086975 0.33354079723358154
vt 0.8795629143714905 0.3684627413749695
vt 0.9582899212837219 0.36998504400253296
vt 0.8795629143714905 0.3684627413749695
vt 0.9582899212837219 0.36998504400253296
vt 0.8795629143714905 0.3684627413749695
vt 0.9582899212837219 0.36998504400253296
vt 0.8795629143714905 0.3684627413749695
vt 0.9582899212837219 0.36998504400253296
vt 0.8795629143714905 0.3684627413749695
vt 0.9582899212837219 0.36998504400253296
vt 0.907418429851532 0.25209254026412964
vt 0.878239095211029 0.37694263458251953
vt 0.8782395720481873 0.4181968569755554
vt 0.927239716053009 0.4199373722076416
vt 0.8782395720481873 0.4181968569755554
vt 0.927239716053009 0.4199373722076416
vt 0.8782395720481873 0.4181968569755554
vt 0.927239716053009 0.4199373722076416
vt 0.8782395720481873 0.4181968569755554
vt 0.927239716053009 0.4199373722076416
vt 0.8782395720481873 0.4181968569755554
vt 0.927239716053009 0.4199373722076416
vt 0.87824946641922 0.45276230573654175
vt 0.9514085650444031 0.4566684365272522
vt 0.87824946641922 0.45276230573654175
vt 0.9514085650444031 0.4566684365272522
vt 0.87824946641922 0.45276230573654175
vt 0.9514085650444031 0.4566684365272522
vt 0.87824946641922 0.45276230573654175
vt 0.9514085650444031 0.4566684365272522
vt 0.87824946641922 0.45276230573654175
vt 0.9514085650444031 0.4566684365272522
vt 0.878253161907196 0.49159038066864014
vt 0.9569802284240723 0.4931126832962036
vt 0.878253161907196 0.49159038066864014
vt 0.9569802284240723 0.4931126832962036
vt 0.878253161907196 0.49159038066864014
vt 0.9569802284240723 0.4931126832962036
vt 0.878253161907196 0.49159038066864014
vt 0.9569802284240723 0.4931126832962036
vt 0.878253161907196 0.49159038066864014
vt 0.9569802284240723 0.4931126832962036
vt 0.8795488476753235 0.2538149952888489
vt 0.8795488476753235 0.2538149952888489
vt 0.8795488476753235 0.2538149952888489
vt 0.8795488476753235 0.2538149952888489
vt 0.9953998923301697 0.25354379415512085
vt 0.9972988963127136 0.3662291169166565
vt 0.9953998923301697 0.25354379415512085
vt 0.9972988963127136 0.3662291169166565
vt 0.9953998923301697 0.25354379415512085
vt 0.9972988963127136 0.3662291169166565
vt 0.9953998923301697 0.25354379415512085
vt 0.9972988963127136 0.3662291169166565
vt 0.9953998923301697 0.25354379415512085
vt 0.9972988963127136 0.3662291169166565
vt 0.878239095211029 0.37694263458251953
vt 0.878239095211029 0.37694263458251953
vt 0.878239095211029 0.37694263458251953
vt 0.878239095211029 0.37694263458251953
vn -0.9401519298553467 -0.09659679234027863 -0.32677727937698364
vn -0.40418803691864014 0.8361541628837585 -0.3707806468009949
vn -0.95595782995224 -0.09921098500490189 -0.27622780203819275
vn -0.95236736536026 -0.09820790588855743 -0.28870683908462524
vn -0.2160489559173584 -0.9005033373832703 -0.3773815333843231
vn -0.2206915318965912 -0.8878611326217651 -0.40372994542121887
vn 0.7470715641975403 -0.4481372833251953 -0.49097564816474915
vn 0.7202222943305969 -0.4379054307937622 -0.5380695462226868
vn 0.6413931250572205 0.6056313514709473 -0.4709835648536682
vn 0.6162669062614441 0.5910820364952087 -0.5204201340675354
vn -0.402927041053772 0.8492547273635864 -0.3411981761455536
vn -0.4073132574558258 0.8838868737220764 -0.2298692911863327
vn -0.9805792570114136 -0.10353180766105652 -0.16656988859176636
vn -0.9726687073707581 -0.1018599271774292 -0.20866285264492035
vn -0.2079681158065796 -0.9591741561889648 -0.1916622519493103
vn -0.2132319062948227 -0.9433593153953552 -0.2541762590408325
vn 0.84554123878479 -0.4902002811431885 -0.21157436072826385
vn 0.8221900463104248 -0.4821455478668213 -0.3025544285774231
vn 0.7251455187797546 0.6588189005851746 -0.20030416548252106
vn 0.7045962810516357 0.64848393201828 -0.28811943531036377
vn -0.40539807081222534 0.8978654742240906 -0.1717265099287033
vn -0.40659692883491516 0.9061908721923828 -0.11617682874202728
vn -0.9867305159568787 -0.10466653108596802 -0.12412811070680618
vn -0.9867957234382629 -0.1044248417019844 -0.12381304055452347
vn -0.20530171692371368 -0.970445454120636 -0.1268339306116104
vn -0.20736658573150635 -0.9703509211540222 -0.12417007237672806
vn 0.8603857159614563 -0.49564415216445923 -0.11863090842962265
vn 0.8600707650184631 -0.4964367747306824 -0.1175960823893547
vn 0.7377997636795044 0.6656008958816528 -0.11237034946680069
vn 0.7369252443313599 0.6663461923599243 -0.11368400603532791
vn -0.4049599766731262 0.9072093963623047 -0.11392341554164886
vn 4.554262034162093e-08 1.974632013457267e-08 1.0
vn 0.28696349263191223 0.7469844222068787 -0.5997217893600464
vn 0.3401491641998291 0.8271338939666748 -0.44737908244132996
vn 0.32334890961647034 0.8088822364807129 -0.4910756051540375
vn -0.7152515649795532 0.6248658895492554 -0.3129822313785553
vn -0.7129156589508057 0.6168367266654968 -0.33356213569641113
vn -0.8352193832397461 -0.46899309754371643 -0.2871481776237488
vn -0.8327430486679077 -0.4641001522541046 -0.3019110858440399
vn 0.1629766970872879 -0.8974856734275818 -0.4098268747329712
vn 0.15179048478603363 -0.8820160627365112 -0.44610241055488586
vn 0.8607862591743469 -0.09461940079927444 -0.5000941753387451
vn 0.8295867443084717 -0.09229491651058197 -0.5506972670555115
vn 0.3949037790298462 0.896397590637207 -0.20130224525928497
vn 0.37811872363090515 0.8800995349884033 -0.2871432900428772
vn -0.7332005500793457 0.6571826338768005 -0.17472250759601593
vn -0.7287306785583496 0.645517885684967 -0.2286006212234497
vn -0.8555918335914612 -0.490283727645874 -0.16608576476573944
vn -0.8505167961120605 -0.4829590320587158 -0.20825892686843872
vn 0.19853903353214264 -0.9617223143577576 -0.18887148797512054
vn 0.18745157122612 -0.9482153654098511 -0.2564166784286499
vn 0.9720960259437561 -0.10368017107248306 -0.21042802929878235
vn 0.9471853375434875 -0.10202741622924805 -0.3040236234664917
vn 0.4047341048717499 0.906706690788269 -0.11863099783658981
vn 0.4029805064201355 0.9071391224861145 -0.12126646190881729
vn -0.7368355989456177 0.6647306084632874 -0.12331514805555344
vn -0.7376638054847717 0.6633580327033997 -0.1257309466600418
vn -0.8600814938545227 -0.49546900391578674 -0.12153405696153641
vn -0.8608106970787048 -0.494610458612442 -0.11985602974891663
vn 0.20557081699371338 -0.9717149138450623 -0.11623577773571014
vn 0.20391620695590973 -0.9723647832870483 -0.11368796974420547
vn 0.9877938032150269 -0.10477837175130844 -0.11526001244783401
vn 0.9878040552139282 -0.1049516499042511 -0.11501441150903702
vn -0.21823334693908691 -0.8439037799835205 -0.4901026487350464
vn 0.6288501620292664 -0.39157554507255554 -0.6717261672019958
vn 0.5394341945648193 0.5315225720405579 -0.65306556224823
vn -0.39462998509407043 0.8005832433700562 -0.45092537999153137
vn 4.554262034162093e-08 1.974632013457267e-08 1.0
vn 4.554262034162093e-08 1.974632013457267e-08 1.0
vn -3.285330762992089e-08 -3.72116666369493e-08 1.0
vn -4.7064339092628416e-09 4.941556852600115e-08 1.0
vn 2.5238170664465542e-08 -4.2744396466787293e-08 1.0
vn -4.8451340717292624e-08 1.0794166449556997e-08 1.0
vn 4.845133005915159e-08 1.0794175331341194e-08 1.0
vn -2.5238142242756112e-08 -4.274438580864626e-08 1.0
vn 4.706403711196572e-09 4.941554010429172e-08 1.0
vn 3.2853328946202964e-08 -3.721162400438516e-08 1.0
vn -0.7008429169654846 0.6025353670120239 -0.38179901242256165
vn -0.8177337050437927 -0.4530594050884247 -0.3550337851047516
vn 0.12797090411186218 -0.8146653175354004 -0.5656358003616333
vn 0.7188130617141724 -0.08176466077566147 -0.6903784871101379
f 63/63/63 62/62/62 52/52/52
f 52/52/52 53/53/53 63/63/63
f 61/61/61 60/60/60 50/50/50
f 50/50/50 51/51/51 61/61/61
f 59/59/59 58/58/58 48/48/48
f 48/48/48 49/49/49 59/59/59
f 57/57/57 56/56/56 46/46/46
f 46/46/46 47/47/47 57/57/57
f 55/55/55 54/54/54 44/44/44
f 44/44/44 45/45/45 55/55/55
f 53/53/53 52/52/52 42/42/42
f 42/42/42 43/43/43 53/53/53
f 51/51/51 50/50/50 40/40/40
f 40/40/40 41/41/41 51/51/51
f 49/49/49 48/48/48 38/38/38
f 38/38/38 39/39/39 49/49/49
f 47/47/47 46/46/46 36/36/36
f 36/36/36 37/37/37 47/47/47
f 45/45/45 44/44/44 34/34/34
f 34/34/34 35/35/35 45/45/45
f 81/81/81 43/43/43 42/42/42
f 80/80/80 41/41/41 40/40/40
f 79/79/79 39/39/39 38/38/38
f 78/78/78 37/37/37 36/36/36
f 33/33/33 35/35/35 34/34/34
f 77/77/77 68/68/68 32/32/32
f 76/76/76 77/77/77 32/32/32
f 75/75/75 76/76/76 32/32/32
f 74/74/74 75/75/75 32/32/32
f 73/73/73 74/74/74 32/32/32
f 72/72/72 73/73/73 32/32/32
f 71/71/71 72/72/72 32/32/32
f 70/70/70 71/71/71 32/32/32
f 69/69/69 70/70/70 32/32/32
f 68/68/68 69/69/69 32/32/32
f 22/22/22 31/31/31 21/21/21
f 21/21/21 12/12/12 22/22/22
f 30/30/30 29/29/29 19/19/19
f 19/19/19 20/20/20 30/30/30
f 28/28/28 27/27/27 17/17/17
f 17/17/17 18/18/18 28/28/28
f 26/26/26 25/25/25 15/15/15
f 15/15/15 16/16/16 26/26/26
f 24/24/24 23/23/23 13/13/13
f 13/13/13 14/14/14 24/24/24
f 12/12/12 21/21/21 11/11/11
f 11/11/11 2/2/2 12/12/12
f 20/20/20 19/19/19 9/9/9
f 9/9/9 10/10/10 20/20/20
f 18/18/18 17/17/17 7/7/7
f 7/7/7 8/8/8 18/18/18
f 16/16/16 15/15/15 5/5/5
f 5/5/5 6/6/6 16/16/16
f 14/14/14 13/13/13 3/3/3
f 3/3/3 4/4/4 14/14/14
f 67/67/67 2/2/2 11/11/11
f 66/66/66 10/10/10 9/9/9
f 65/65/65 8/8/8 7/7/7
f 64/64/64 6/6/6 5/5/5
f 1/1/1 4/4/4 3/3/3
