# Recovered local-space geometry; original node transforms not applied
o mesh_0
v 0.0 0.0 43.821311950683594
v 0.03176771104335785 14.67641830444336 36.11701965332031
v -14.276704788208008 19.65020179748535 42.12670135498047
v -13.967916488647461 4.5050506591796875 36.11701965332031
v -23.10019874572754 -7.505708694458008 42.12670135498047
v -8.620515823364258 -11.95256519317627 36.11701965332031
v 1.3131648302078247e-07 -24.288986206054688 42.12670135498047
v 8.684053421020508 -11.95256519317627 36.11701965332031
v 23.100204467773438 -7.505697727203369 42.12670135498047
v 14.031452178955078 4.505061626434326 36.11701965332031
v 14.276687622070312 19.65021514892578 42.12670135498047
v -1.7685815691947937e-06 22.355648040771484 21.257347106933594
v -23.753854751586914 32.69437789916992 23.716468811035156
v -21.2614803314209 6.90827751159668 21.257347106933594
v -38.43454360961914 -12.488141059875488 23.716468811035156
v -13.140323638916016 -18.086090087890625 21.257347106933594
v 5.569308996200562e-07 -40.41246795654297 23.716468811035156
v 13.140321731567383 -18.086088180541992 21.257347106933594
v 38.43455123901367 -12.488121032714844 23.716468811035156
v 21.261476516723633 6.9082932472229 21.257347106933594
v 23.75382423400879 32.694400787353516 23.716468811035156
v -40.10984420776367 -13.032475471496582 -4.552333336960146e-07
v 21.92572784423828 7.124123573303223 -9.104666673920292e-07
v 0.03355748951435089 8.017935752868652 41.59693145751953
v -7.138352870941162 9.825100898742676 45.81969451904297
v -7.6358795166015625 2.4457640647888184 41.59693145751953
v -11.550098419189453 -3.752854347229004 45.81969451904297
v -4.706416130065918 -6.570198059082031 41.59693145751953
v 6.51925802230835e-08 -12.144493103027344 45.81969451904297
v 3.902127265930176 -5.370813369750977 44.51091766357422
v 11.550102233886719 -3.7528488636016846 45.81969451904297
v 7.702990531921387 2.445770025253296 41.59693908691406
v 7.138343811035156 9.82510757446289 45.81969451904297
v -7.006318092346191 0.0 -57.19057846069336
v -1.8090324401855469 13.27739143371582 -38.16603088378906
v -16.031410217285156 19.65020179748535 -37.033695220947266
v -14.388526916503906 4.102941989898682 -37.16450119018555
v -24.82132911682129 -7.505708694458008 -36.3338737487793
v -9.583590507507324 -10.741626739501953 -37.54704666137695
v -1.8090310096740723 -24.288986206054688 -38.16603088378906
v 5.965526103973389 -10.741626739501953 -38.78500747680664
v 21.203266143798828 -7.505697727203369 -39.99817657470703
v 10.770459175109863 4.102951526641846 -39.16756057739258
v 12.413329124450684 19.65021514892578 -39.29835891723633
v -1.8341362419960205e-06 20.605884552001953 -18.71184539794922
v -22.14385986328125 30.496192932128906 -17.97374725341797
v -19.585926055908203 6.367571830749512 -18.059005737304688
v -35.82951736450195 -11.648508071899414 -17.517578125
v -12.104777336120605 -16.670501708984375 -18.308368682861328
v 3.3472437621639983e-07 -37.69536209106445 -18.71184539794922
v 12.104774475097656 -16.670501708984375 -19.11532211303711
v 35.82951736450195 -11.648488998413086 -19.906108856201172
v 19.585926055908203 6.367586135864258 -19.364681243896484
v 22.143831253051758 30.496212005615234 -19.449939727783203
v -1.925828655657824e-06 23.05409049987793 -9.104666673920292e-07
v -24.78924560546875 34.119468688964844 -4.552333336960146e-07
v -21.925737380981445 7.124107360839844 -9.104666673920292e-07
v -13.55085563659668 -18.651138305664062 -9.104666673920292e-07
v 4.4773526042263256e-07 -42.17398452758789 -4.552333336960146e-07
v 13.55085563659668 -18.65113639831543 -9.104666673920292e-07
v 40.10984802246094 -13.03245735168457 -4.552333336960146e-07
v 24.78921127319336 34.1194953918457 -4.552333336960146e-07
v 0.0 0.0 43.821311950683594
v -7.138352870941162 9.825100898742676 45.81969451904297
v 0.0 0.0 43.821311950683594
v -7.6358795166015625 2.4457640647888184 41.59693145751953
v 0.0 0.0 43.821311950683594
v -11.550098419189453 -3.752854347229004 45.81969451904297
v 0.0 0.0 43.821311950683594
v -4.706416130065918 -6.570198059082031 41.59693145751953
v 0.0 0.0 43.821311950683594
v 6.51925802230835e-08 -12.144493103027344 45.81969451904297
v 0.0 0.0 43.821311950683594
v 3.902127265930176 -5.370813369750977 44.51091766357422
v 0.0 0.0 43.821311950683594
v 11.550102233886719 -3.7528488636016846 45.81969451904297
v 0.0 0.0 43.821311950683594
v 7.702990531921387 2.445770025253296 41.59693908691406
v 0.0 0.0 43.821311950683594
v 7.138343811035156 9.82510757446289 45.81969451904297
v 0.03355748951435089 8.017935752868652 41.59693145751953
v -14.276704788208008 19.65020179748535 42.12670135498047
v -23.753854751586914 32.69437789916992 23.716468811035156
v -13.967916488647461 4.5050506591796875 36.11701965332031
v -21.2614803314209 6.90827751159668 21.257347106933594
v -23.10019874572754 -7.505708694458008 42.12670135498047
v -38.43454360961914 -12.488141059875488 23.716468811035156
v -8.620515823364258 -11.95256519317627 36.11701965332031
v -13.140323638916016 -18.086090087890625 21.257347106933594
v 1.3131648302078247e-07 -24.288986206054688 42.12670135498047
v 5.569308996200562e-07 -40.41246795654297 23.716468811035156
v 8.684053421020508 -11.95256519317627 36.11701965332031
v 13.140321731567383 -18.086088180541992 21.257347106933594
v 23.100204467773438 -7.505697727203369 42.12670135498047
v 38.43455123901367 -12.488121032714844 23.716468811035156
v 14.031452178955078 4.505061626434326 36.11701965332031
v 21.261476516723633 6.9082932472229 21.257347106933594
v 14.276687622070312 19.65021514892578 42.12670135498047
v 23.75382423400879 32.694400787353516 23.716468811035156
v -1.7685815691947937e-06 22.355648040771484 21.257347106933594
v 0.03176771104335785 14.67641830444336 36.11701965332031
v -24.78924560546875 34.119468688964844 -4.552333336960146e-07
v -21.925737380981445 7.124107360839844 -9.104666673920292e-07
v -40.10984420776367 -13.032475471496582 -4.552333336960146e-07
v -13.55085563659668 -18.651138305664062 -9.104666673920292e-07
v 4.4773526042263256e-07 -42.17398452758789 -4.552333336960146e-07
v 13.55085563659668 -18.65113639831543 -9.104666673920292e-07
v 40.10984802246094 -13.03245735168457 -4.552333336960146e-07
v 21.92572784423828 7.124123573303223 -9.104666673920292e-07
v 24.78921127319336 34.1194953918457 -4.552333336960146e-07
v -1.925828655657824e-06 23.05409049987793 -9.104666673920292e-07
v -7.006318092346191 0.0 -57.19057846069336
v -16.031410217285156 19.65020179748535 -37.033695220947266
v -7.006318092346191 0.0 -57.19057846069336
v -14.388526916503906 4.102941989898682 -37.16450119018555
v -7.006318092346191 0.0 -57.19057846069336
v -24.82132911682129 -7.505708694458008 -36.3338737487793
v -7.006318092346191 0.0 -57.19057846069336
v -9.583590507507324 -10.741626739501953 -37.54704666137695
v -7.006318092346191 0.0 -57.19057846069336
v -1.8090310096740723 -24.288986206054688 -38.16603088378906
v -7.006318092346191 0.0 -57.19057846069336
v 5.965526103973389 -10.741626739501953 -38.78500747680664
v -7.006318092346191 0.0 -57.19057846069336
v 21.203266143798828 -7.505697727203369 -39.99817657470703
v -7.006318092346191 0.0 -57.19057846069336
v 10.770459175109863 4.102951526641846 -39.16756057739258
v -7.006318092346191 0.0 -57.19057846069336
v -1.8090324401855469 13.27739143371582 -38.16603088378906
v 12.413329124450684 19.65021514892578 -39.29835891723633
v -22.14385986328125 30.496192932128906 -17.97374725341797
v -19.585926055908203 6.367571830749512 -18.059005737304688
v -35.82951736450195 -11.648508071899414 -17.517578125
v -12.104777336120605 -16.670501708984375 -18.308368682861328
v 3.3472437621639983e-07 -37.69536209106445 -18.71184539794922
v 12.104774475097656 -16.670501708984375 -19.11532211303711
v 35.82951736450195 -11.648488998413086 -19.906108856201172
v 19.585926055908203 6.367586135864258 -19.364681243896484
v -1.8341362419960205e-06 20.605884552001953 -18.71184539794922
v 22.143831253051758 30.496212005615234 -19.449939727783203
vt 0.8775841593742371 0.37694263458251953
vt 0.8775846362113953 0.4181968569755554
vt 0.926584780216217 0.4199373722076416
vt 0.8795493841171265 0.29506921768188477
vt 0.926584780216217 0.4199373722076416
vt 0.8795493841171265 0.29506921768188477
vt 0.926584780216217 0.4199373722076416
vt 0.8795493841171265 0.29506921768188477
vt 0.926584780216217 0.4199373722076416
vt 0.8795493841171265 0.29506921768188477
vt 0.926584780216217 0.4199373722076416
vt 0.877594530582428 0.45276230573654175
vt 0.9507536292076111 0.4566684365272522
vt 0.8795592188835144 0.3296346664428711
vt 0.9507536292076111 0.4566684365272522
vt 0.8795592188835144 0.3296346664428711
vt 0.9507536292076111 0.4566684365272522
vt 0.8795592188835144 0.3296346664428711
vt 0.9507536292076111 0.4566684365272522
vt 0.8795592188835144 0.3296346664428711
vt 0.9507536292076111 0.4566684365272522
vt 0.9563252925872803 0.4931126832962036
vt 0.8795629143714905 0.3684627413749695
vt 0.8775684237480164 0.3897923231124878
vt 0.8989428877830505 0.3909761905670166
vt 0.8795331120491028 0.26666468381881714
vt 0.8989428877830505 0.3909761905670166
vt 0.8795331120491028 0.26666468381881714
vt 0.8989428877830505 0.3909761905670166
vt 0.8795331120491028 0.26666468381881714
vt 0.8989428877830505 0.3909761905670166
vt 0.8795331120491028 0.26666468381881714
vt 0.8989428877830505 0.3909761905670166
vt 0.8775841593742371 0.37694263458251953
vt 0.8775846362113953 0.4181968569755554
vt 0.926584780216217 0.4199373722076416
vt 0.8795493841171265 0.29506921768188477
vt 0.926584780216217 0.4199373722076416
vt 0.8795493841171265 0.29506921768188477
vt 0.926584780216217 0.4199373722076416
vt 0.8795493841171265 0.29506921768188477
vt 0.926584780216217 0.4199373722076416
vt 0.8795493841171265 0.29506921768188477
vt 0.926584780216217 0.4199373722076416
vt 0.877594530582428 0.45276230573654175
vt 0.9507536292076111 0.4566684365272522
vt 0.8795592188835144 0.3296346664428711
vt 0.9507536292076111 0.4566684365272522
vt 0.8795592188835144 0.3296346664428711
vt 0.9507536292076111 0.4566684365272522
vt 0.8795592188835144 0.3296346664428711
vt 0.9507536292076111 0.4566684365272522
vt 0.8795592188835144 0.3296346664428711
vt 0.9507536292076111 0.4566684365272522
vt 0.877598226070404 0.49159038066864014
vt 0.9563252925872803 0.4931126832962036
vt 0.8795629143714905 0.3684627413749695
vt 0.8795629143714905 0.3684627413749695
vt 0.9563252925872803 0.4931126832962036
vt 0.8795629143714905 0.3684627413749695
vt 0.9563252925872803 0.4931126832962036
vt 0.9563252925872803 0.4931126832962036
vt 0.8795488476753235 0.2538149952888489
vt 0.9009076356887817 0.26784855127334595
vt 0.8775841593742371 0.37694263458251953
vt 0.8775684237480164 0.3897923231124878
vt 0.8795488476753235 0.2538149952888489
vt 0.9009076356887817 0.26784855127334595
vt 0.8775841593742371 0.37694263458251953
vt 0.8775684237480164 0.3897923231124878
vt 0.8795488476753235 0.2538149952888489
vt 0.9009076356887817 0.26784855127334595
vt 0.8775841593742371 0.37694263458251953
vt 0.8775684237480164 0.3897923231124878
vt 0.8795488476753235 0.2538149952888489
vt 0.9009076356887817 0.26784855127334595
vt 0.8775841593742371 0.37694263458251953
vt 0.8775684237480164 0.3897923231124878
vt 0.8795488476753235 0.2538149952888489
vt 0.9009076356887817 0.26784855127334595
vt 0.8795331120491028 0.26666468381881714
vt 0.928549587726593 0.29680973291397095
vt 0.9527183175086975 0.33354079723358154
vt 0.8775846362113953 0.4181968569755554
vt 0.877594530582428 0.45276230573654175
vt 0.928549587726593 0.29680973291397095
vt 0.9527183175086975 0.33354079723358154
vt 0.8775846362113953 0.4181968569755554
vt 0.877594530582428 0.45276230573654175
vt 0.928549587726593 0.29680973291397095
vt 0.9527183175086975 0.33354079723358154
vt 0.8775846362113953 0.4181968569755554
vt 0.877594530582428 0.45276230573654175
vt 0.928549587726593 0.29680973291397095
vt 0.9527183175086975 0.33354079723358154
vt 0.8775846362113953 0.4181968569755554
vt 0.877594530582428 0.45276230573654175
vt 0.928549587726593 0.29680973291397095
vt 0.9527183175086975 0.33354079723358154
vt 0.8795592188835144 0.3296346664428711
vt 0.8795493841171265 0.29506921768188477
vt 0.9582899212837219 0.36998504400253296
vt 0.877598226070404 0.49159038066864014
vt 0.9582899212837219 0.36998504400253296
vt 0.877598226070404 0.49159038066864014
vt 0.9582899212837219 0.36998504400253296
vt 0.877598226070404 0.49159038066864014
vt 0.9582899212837219 0.36998504400253296
vt 0.877598226070404 0.49159038066864014
vt 0.9582899212837219 0.36998504400253296
vt 0.8795629143714905 0.3684627413749695
vt 0.8795488476753235 0.2538149952888489
vt 0.928549587726593 0.29680973291397095
vt 0.8775841593742371 0.37694263458251953
vt 0.8775846362113953 0.4181968569755554
vt 0.8795488476753235 0.2538149952888489
vt 0.928549587726593 0.29680973291397095
vt 0.8775841593742371 0.37694263458251953
vt 0.8775846362113953 0.4181968569755554
vt 0.8795488476753235 0.2538149952888489
vt 0.928549587726593 0.29680973291397095
vt 0.8775841593742371 0.37694263458251953
vt 0.8775846362113953 0.4181968569755554
vt 0.8795488476753235 0.2538149952888489
vt 0.928549587726593 0.29680973291397095
vt 0.8775841593742371 0.37694263458251953
vt 0.8775846362113953 0.4181968569755554
vt 0.8795488476753235 0.2538149952888489
vt 0.8795493841171265 0.29506921768188477
vt 0.928549587726593 0.29680973291397095
vt 0.9527183175086975 0.33354079723358154
vt 0.877594530582428 0.45276230573654175
vt 0.9527183175086975 0.33354079723358154
vt 0.877594530582428 0.45276230573654175
vt 0.9527183175086975 0.33354079723358154
vt 0.877594530582428 0.45276230573654175
vt 0.9527183175086975 0.33354079723358154
vt 0.877594530582428 0.45276230573654175
vt 0.8795592188835144 0.3296346664428711
vt 0.9527183175086975 0.33354079723358154
vn -0.0022884916979819536 0.26733696460723877 0.9636003971099854
vn 0.08759579807519913 0.8094040155410767 0.5806824564933777
vn 0.48427027463912964 0.6729433536529541 0.5591328740119934
vn -0.7613144516944885 0.22052961587905884 0.6097270250320435
vn -0.4896591007709503 0.6704508066177368 0.5574314594268799
vn -0.446382999420166 -0.655285656452179 0.6093791127204895
vn -0.7874088883399963 -0.2597786486148834 0.5590190291404724
vn 0.4817017912864685 -0.6558372974395752 0.5812407732009888
vn 0.04719068482518196 -0.8118179440498352 0.5820005536079407
vn 0.7454540133476257 0.2707712948322296 0.6090822815895081
vn 0.7887982726097107 -0.24948038160800934 0.5617444515228271
vn -0.008519354276359081 0.9694188237190247 0.24526435136795044
vn 0.41904547810554504 0.8648255467414856 0.27654600143432617
vn -0.924503743648529 0.2917780578136444 0.24527253210544586
vn -0.6926021575927734 0.6661376953125 0.27669990062713623
vn -0.5639382600784302 -0.788851261138916 0.2443099319934845
vn -0.8472579717636108 -0.45360642671585083 0.2763967216014862
vn 0.5759537816047668 -0.7803118824958801 0.24370187520980835
vn 0.17062225937843323 -0.9458774328231812 0.2760509252548218
vn 0.9197459816932678 0.30722546577453613 0.24429455399513245
vn 0.9522591829299927 -0.13018359243869781 0.27614250779151917
vn -0.7432065010070801 0.6674678325653076 -0.046160466969013214
vn 0.8946599960327148 0.44453319907188416 -0.04442700371146202
vn -0.0016945824027061462 0.5506840944290161 0.834712028503418
vn 0.5365383625030518 0.42284834384918213 0.7302916646003723
vn -0.4530249834060669 0.2664507031440735 0.8507481217384338
vn -0.23735810816287994 0.6448308229446411 0.7265358567237854
vn -0.39326706528663635 -0.3473312258720398 0.8512943387031555
vn -0.6850354075431824 -0.02687911130487919 0.7280137538909912
vn 0.13944795727729797 -0.3690636456012726 0.918883204460144
vn -0.08235803246498108 -0.361843466758728 0.9285938143730164
vn 0.5199023485183716 0.05547431856393814 0.8524225354194641
vn 0.5650166869163513 -0.3767995834350586 0.734015166759491
vn -0.057464707642793655 0.8259814381599426 -0.5607606768608093
vn 0.04476878046989441 0.8929771184921265 -0.447870135307312
vn 0.32334890961647034 0.8088822364807129 -0.4910756051540375
vn -0.8731463551521301 0.3616340756416321 -0.3268581032752991
vn -0.7129156589508057 0.6168367266654968 -0.33356213569641113
vn -0.6346100568771362 -0.6844052076339722 -0.3589702248573303
vn -0.8327430486679077 -0.4641001522541046 -0.3019110858440399
vn 0.41258704662323 -0.7654035091400146 -0.493892103433609
vn 0.15179048478603363 -0.8820160627365112 -0.44610241055488586
vn 0.8167005181312561 0.19241967797279358 -0.5440358519554138
vn 0.8295867443084717 -0.09229491651058197 -0.5506972670555115
vn -0.007517635356634855 0.9718675017356873 -0.23540829122066498
vn 0.37811872363090515 0.8800995349884033 -0.2871432900428772
vn -0.9299261569976807 0.3025878071784973 -0.2089928686618805
vn -0.7287306785583496 0.645517885684967 -0.2286006212234497
vn -0.5822756886482239 -0.7801536321640015 -0.22872589528560638
vn -0.8505167961120605 -0.4829590320587158 -0.20825892686843872
vn 0.5556270480155945 -0.7871668934822083 -0.26766976714134216
vn 0.18745157122612 -0.9482153654098511 -0.2564166784286499
vn 0.9150499105453491 0.2976887822151184 -0.2721489667892456
vn 0.9471853375434875 -0.10202741622924805 -0.3040236234664917
vn -0.14657698571681976 0.9881316423416138 -0.04594673588871956
vn 0.4050843119621277 0.9132241606712341 -0.043913282454013824
vn -0.9847625494003296 0.1666935235261917 -0.049559950828552246
vn -0.4634246826171875 -0.8847606182098389 -0.04935770481824875
vn -0.8652510643005371 -0.49947378039360046 -0.04320374131202698
vn 0.6986731290817261 -0.7139597535133362 -0.04601522535085678
vn 0.2073608934879303 -0.9774422645568848 -0.04010111838579178
vn 0.993736982345581 -0.10404198616743088 -0.0407683402299881
vn -0.2535455524921417 0.08478768914937973 0.9636003971099854
vn -0.5983752608299255 -0.3536146283149719 0.718960165977478
vn -0.2535455524921417 0.08478768914937973 0.9636003971099854
vn -0.4530249834060669 0.2664507031440735 0.8507481217384338
vn -0.15896214544773102 -0.21254467964172363 0.9641347527503967
vn 0.14901110529899597 -0.6762307286262512 0.7214621901512146
vn -0.15896214544773102 -0.21254467964172363 0.9641347527503967
vn -0.39326706528663635 -0.3473312258720398 0.8512943387031555
vn -0.0607304722070694 0.08358827233314514 0.9946480989456177
vn 0.5463621020317078 -0.11884482949972153 0.8290743827819824
vn -0.0607304722070694 0.08358827233314514 0.9946480989456177
vn 0.13944795727729797 -0.3690636456012726 0.918883204460144
vn 0.2512631416320801 0.08550207316875458 0.9641349911689758
vn 0.2765272855758667 0.6394493579864502 0.7173821926116943
vn 0.2512631416320801 0.08550207316875458 0.9641349911689758
vn 0.5199023485183716 0.05547431856393814 0.8524225354194641
vn -0.0022884916979819536 0.26733696460723877 0.9636003971099854
vn -0.5399237871170044 0.4250044822692871 0.7265353798866272
vn -0.0016945824027061462 0.5506840944290161 0.834712028503418
vn -0.8513122797012329 -0.19521255791187286 0.48699018359184265
vn -0.9820632934570312 -0.11139995604753494 0.15212422609329224
vn -0.7613144516944885 0.22052961587905884 0.6097270250320435
vn -0.924503743648529 0.2917780578136444 0.24527253210544586
vn -0.07959441095590591 -0.8696405291557312 0.4872271418571472
vn -0.19752642512321472 -0.9684222340583801 0.15212410688400269
vn -0.446382999420166 -0.655285656452179 0.6093791127204895
vn -0.5639382600784302 -0.788851261138916 0.2443099319934845
vn 0.8024803400039673 -0.3446209132671356 0.4870954155921936
vn 0.8599851131439209 -0.4871178865432739 0.15212422609329224
vn 0.4817017912864685 -0.6558372974395752 0.5812407732009888
vn 0.5759537816047668 -0.7803118824958801 0.24370187520980835
vn 0.5742591619491577 0.6582340598106384 0.4867795705795288
vn 0.7290264368057251 0.6673669815063477 0.15212413668632507
vn 0.7454540133476257 0.2707712948322296 0.6090822815895081
vn 0.9197459816932678 0.30722546577453613 0.24429455399513245
vn -0.46932026743888855 0.7075819969177246 0.5282673239707947
vn -0.40942293405532837 0.8995727300643921 0.15212421119213104
vn -0.008519354276359081 0.9694188237190247 0.24526435136795044
vn 0.08759579807519913 0.8094040155410767 0.5806824564933777
vn -0.9934720993041992 -0.10538166016340256 -0.043681539595127106
vn -0.9847625494003296 0.1666935235261917 -0.049559950828552246
vn -0.20676319301128387 -0.9773536920547485 -0.0450439453125
vn -0.4634246826171875 -0.8847606182098389 -0.04935770481824875
vn 0.8657790422439575 -0.49875110387802124 -0.040914904326200485
vn 0.6986731290817261 -0.7139597535133362 -0.04601522535085678
vn 0.7419727444648743 0.6693655252456665 -0.03776601329445839
vn 0.8946599960327148 0.44453319907188416 -0.04442700371146202
vn -0.40731081366539 0.9124757647514343 -0.03854696452617645
vn -0.14657698571681976 0.9881316423416138 -0.04594673588871956
vn -0.8833643794059753 0.2723519504070282 -0.3814338743686676
vn -0.95595782995224 -0.09921099245548248 -0.27622783184051514
vn -0.8833643794059753 0.2723519504070282 -0.3814338743686676
vn -0.8731463551521301 0.3616340756416321 -0.3268581032752991
vn -0.5561684966087341 -0.6962867975234985 -0.4537194073200226
vn -0.2160489559173584 -0.9005033373832703 -0.3773815333843231
vn -0.5561684966087341 -0.6962867975234985 -0.4537194073200226
vn -0.6346100568771362 -0.6844052076339722 -0.3589702248573303
vn 0.40117859840393066 -0.6394088268280029 -0.655905544757843
vn 0.7470715641975403 -0.4481373131275177 -0.49097558856010437
vn 0.40117859840393066 -0.6394088268280029 -0.655905544757843
vn 0.41258704662323 -0.7654035091400146 -0.493892103433609
vn 0.6640487909317017 0.23736287653446198 -0.7090120315551758
vn 0.6413931250572205 0.6056313514709473 -0.4709835648536682
vn 0.6640487909317017 0.23736287653446198 -0.7090120315551758
vn 0.8167005181312561 0.19241967797279358 -0.5440358519554138
vn -0.057464707642793655 0.8259814381599426 -0.5607606768608093
vn 0.04476878046989441 0.8929771184921265 -0.447870135307312
vn -0.402927041053772 0.8492547273635864 -0.3411981761455536
vn -0.9805792570114136 -0.10353180766105652 -0.16656988859176636
vn -0.9299261569976807 0.3025878071784973 -0.2089928686618805
vn -0.2079681158065796 -0.9591741561889648 -0.1916622519493103
vn -0.5822756886482239 -0.7801536321640015 -0.22872589528560638
vn 0.84554123878479 -0.4902002811431885 -0.21157439053058624
vn 0.5556270480155945 -0.7871668934822083 -0.26766976714134216
vn 0.7251455187797546 0.6588188409805298 -0.20030412077903748
vn 0.9150499105453491 0.2976887822151184 -0.2721489667892456
vn -0.007517635356634855 0.9718675017356873 -0.23540829122066498
vn -0.40539804100990295 0.8978654742240906 -0.1717265099287033
f 111/111/111 110/110/110 140/140/140
f 140/140/140 139/139/139 111/111/111
f 62/62/62 109/109/109 138/138/138
f 138/138/138 54/54/54 62/62/62
f 23/23/23 108/108/108 137/137/137
f 137/137/137 53/53/53 23/23/23
f 61/61/61 107/107/107 136/136/136
f 136/136/136 52/52/52 61/61/61
f 60/60/60 106/106/106 135/135/135
f 135/135/135 51/51/51 60/60/60
f 59/59/59 105/105/105 134/134/134
f 134/134/134 50/50/50 59/59/59
f 58/58/58 104/104/104 133/133/133
f 133/133/133 49/49/49 58/58/58
f 22/22/22 103/103/103 132/132/132
f 132/132/132 48/48/48 22/22/22
f 57/57/57 102/102/102 131/131/131
f 131/131/131 47/47/47 57/57/57
f 56/56/56 55/55/55 45/45/45
f 45/45/45 46/46/46 56/56/56
f 139/139/139 140/140/140 130/130/130
f 130/130/130 129/129/129 139/139/139
f 54/54/54 138/138/138 127/127/127
f 127/127/127 44/44/44 54/54/54
f 53/53/53 137/137/137 125/125/125
f 125/125/125 43/43/43 53/53/53
f 52/52/52 136/136/136 123/123/123
f 123/123/123 42/42/42 52/52/52
f 51/51/51 135/135/135 121/121/121
f 121/121/121 41/41/41 51/51/51
f 50/50/50 134/134/134 119/119/119
f 119/119/119 40/40/40 50/50/50
f 49/49/49 133/133/133 117/117/117
f 117/117/117 39/39/39 49/49/49
f 48/48/48 132/132/132 115/115/115
f 115/115/115 38/38/38 48/48/48
f 47/47/47 131/131/131 113/113/113
f 113/113/113 37/37/37 47/47/47
f 46/46/46 45/45/45 35/35/35
f 35/35/35 36/36/36 46/46/46
f 128/128/128 129/129/129 130/130/130
f 126/126/126 44/44/44 127/127/127
f 124/124/124 43/43/43 125/125/125
f 122/122/122 42/42/42 123/123/123
f 120/120/120 41/41/41 121/121/121
f 118/118/118 40/40/40 119/119/119
f 116/116/116 39/39/39 117/117/117
f 114/114/114 38/38/38 115/115/115
f 112/112/112 37/37/37 113/113/113
f 34/34/34 36/36/36 35/35/35
f 81/81/81 80/80/80 98/98/98
f 98/98/98 101/101/101 81/81/81
f 78/78/78 96/96/96 11/11/11
f 11/11/11 33/33/33 78/78/78
f 76/76/76 94/94/94 10/10/10
f 10/10/10 32/32/32 76/76/76
f 74/74/74 92/92/92 9/9/9
f 9/9/9 31/31/31 74/74/74
f 72/72/72 90/90/90 8/8/8
f 8/8/8 30/30/30 72/72/72
f 70/70/70 88/88/88 7/7/7
f 7/7/7 29/29/29 70/70/70
f 68/68/68 86/86/86 6/6/6
f 6/6/6 28/28/28 68/68/68
f 66/66/66 84/84/84 5/5/5
f 5/5/5 27/27/27 66/66/66
f 64/64/64 82/82/82 4/4/4
f 4/4/4 26/26/26 64/64/64
f 24/24/24 2/2/2 3/3/3
f 3/3/3 25/25/25 24/24/24
f 111/111/111 100/100/100 99/99/99
f 99/99/99 110/110/110 111/111/111
f 62/62/62 21/21/21 97/97/97
f 97/97/97 109/109/109 62/62/62
f 23/23/23 20/20/20 95/95/95
f 95/95/95 108/108/108 23/23/23
f 61/61/61 19/19/19 93/93/93
f 93/93/93 107/107/107 61/61/61
f 60/60/60 18/18/18 91/91/91
f 91/91/91 106/106/106 60/60/60
f 59/59/59 17/17/17 89/89/89
f 89/89/89 105/105/105 59/59/59
f 58/58/58 16/16/16 87/87/87
f 87/87/87 104/104/104 58/58/58
f 22/22/22 15/15/15 85/85/85
f 85/85/85 103/103/103 22/22/22
f 57/57/57 14/14/14 83/83/83
f 83/83/83 102/102/102 57/57/57
f 56/56/56 13/13/13 12/12/12
f 12/12/12 55/55/55 56/56/56
f 100/100/100 101/101/101 98/98/98
f 98/98/98 99/99/99 100/100/100
f 21/21/21 11/11/11 96/96/96
f 96/96/96 97/97/97 21/21/21
f 20/20/20 10/10/10 94/94/94
f 94/94/94 95/95/95 20/20/20
f 19/19/19 9/9/9 92/92/92
f 92/92/92 93/93/93 19/19/19
f 18/18/18 8/8/8 90/90/90
f 90/90/90 91/91/91 18/18/18
f 17/17/17 7/7/7 88/88/88
f 88/88/88 89/89/89 17/17/17
f 16/16/16 6/6/6 86/86/86
f 86/86/86 87/87/87 16/16/16
f 15/15/15 5/5/5 84/84/84
f 84/84/84 85/85/85 15/15/15
f 14/14/14 4/4/4 82/82/82
f 82/82/82 83/83/83 14/14/14
f 13/13/13 3/3/3 2/2/2
f 2/2/2 12/12/12 13/13/13
f 79/79/79 80/80/80 81/81/81
f 77/77/77 78/78/78 33/33/33
f 75/75/75 76/76/76 32/32/32
f 73/73/73 74/74/74 31/31/31
f 71/71/71 72/72/72 30/30/30
f 69/69/69 70/70/70 29/29/29
f 67/67/67 68/68/68 28/28/28
f 65/65/65 66/66/66 27/27/27
f 63/63/63 64/64/64 26/26/26
f 1/1/1 24/24/24 25/25/25
