# Recovered local-space geometry; original node transforms not applied
o mesh_0
v 0.0 0.0 43.821311950683594
v 0.03176771104335785 14.67641830444336 36.11701965332031
v -14.276704788208008 19.65020179748535 42.12670135498047
v -13.967916488647461 4.5050506591796875 36.11701965332031
v -23.10019874572754 -7.505708694458008 42.12670135498047
v -8.620515823364258 -11.95256519317627 36.11701965332031
v 1.3131648302078247e-07 -24.288986206054688 42.12670135498047
v 8.684053421020508 -11.95256519317627 36.11701965332031
v 23.100204467773438 -7.505697727203369 42.12670135498047
v 14.031452178955078 4.505061626434326 36.11701965332031
v 14.276687622070312 19.65021514892578 42.12670135498047
v -1.7685815691947937e-06 22.355648040771484 21.257347106933594
v -23.753854751586914 32.69437789916992 23.716468811035156
v -21.2614803314209 6.90827751159668 21.257347106933594
v -38.43454360961914 -12.488141059875488 23.716468811035156
v -13.140323638916016 -18.086090087890625 21.257347106933594
v 5.569308996200562e-07 -40.41246795654297 23.716468811035156
v 13.140321731567383 -18.086088180541992 21.257347106933594
v 38.43455123901367 -12.488121032714844 23.716468811035156
v 21.261476516723633 6.9082932472229 21.257347106933594
v 23.75382423400879 32.694400787353516 23.716468811035156
v -1.9259750843048096e-06 23.05409049987793 0.0
v -24.78924560546875 34.119468688964844 0.0
v -21.925737380981445 7.124107360839844 0.0
v -40.10984420776367 -13.032475471496582 0.0
v -13.55085563659668 -18.651138305664062 0.0
v 4.4796615839004517e-07 -42.17398452758789 0.0
v 13.55085563659668 -18.65113639831543 0.0
v 40.10984802246094 -13.03245735168457 0.0
v 21.92572784423828 7.124123573303223 0.0
v 24.78921127319336 34.1194953918457 0.0
v 0.03355748951435089 8.017935752868652 41.59693145751953
v -7.138352870941162 9.825100898742676 45.81969451904297
v -7.6358795166015625 2.4457640647888184 41.59693145751953
v -11.550098419189453 -3.752854347229004 45.81969451904297
v -4.706416130065918 -6.570198059082031 41.59693145751953
v 6.51925802230835e-08 -12.144493103027344 45.81969451904297
v 3.902127265930176 -5.370813369750977 44.51091766357422
v 11.550102233886719 -3.7528488636016846 45.81969451904297
v 7.702990531921387 2.445770025253296 41.59693908691406
v 7.138343811035156 9.82510757446289 45.81969451904297
v -3.814697265625e-06 9.726732969284058e-06 -7.62939453125e-06
v 0.0 0.0 43.821311950683594
v 0.03176771104335785 14.67641830444336 36.11701965332031
v -14.276704788208008 19.65020179748535 42.12670135498047
v -13.967916488647461 4.5050506591796875 36.11701965332031
v -23.10019874572754 -7.505708694458008 42.12670135498047
v -8.620515823364258 -11.95256519317627 36.11701965332031
v 1.3131648302078247e-07 -24.288986206054688 42.12670135498047
v 8.684053421020508 -11.95256519317627 36.11701965332031
v 23.100204467773438 -7.505697727203369 42.12670135498047
v 14.031452178955078 4.505061626434326 36.11701965332031
v 14.276687622070312 19.65021514892578 42.12670135498047
v -1.7685815691947937e-06 22.355648040771484 21.257347106933594
v -23.753854751586914 32.69437789916992 23.716468811035156
v -21.2614803314209 6.90827751159668 21.257347106933594
v -38.43454360961914 -12.488141059875488 23.716468811035156
v -13.140323638916016 -18.086090087890625 21.257347106933594
v 5.569308996200562e-07 -40.41246795654297 23.716468811035156
v 13.140321731567383 -18.086088180541992 21.257347106933594
v 38.43455123901367 -12.488121032714844 23.716468811035156
v 21.261476516723633 6.9082932472229 21.257347106933594
v 23.75382423400879 32.694400787353516 23.716468811035156
v -1.9259750843048096e-06 23.05409049987793 0.0
v -24.78924560546875 34.119468688964844 0.0
v -21.925737380981445 7.124107360839844 0.0
v -40.10984420776367 -13.032475471496582 0.0
v -13.55085563659668 -18.651138305664062 0.0
v 4.4796615839004517e-07 -42.17398452758789 0.0
v 13.55085563659668 -18.65113639831543 0.0
v 40.10984802246094 -13.03245735168457 0.0
v 21.92572784423828 7.124123573303223 0.0
v 24.78921127319336 34.1194953918457 0.0
v 0.03355748951435089 8.017935752868652 41.59693145751953
v -7.138352870941162 9.825100898742676 45.81969451904297
v -7.6358795166015625 2.4457640647888184 41.59693145751953
v -11.550098419189453 -3.752854347229004 45.81969451904297
v -4.706416130065918 -6.570198059082031 41.59693145751953
v 6.51925802230835e-08 -12.144493103027344 45.81969451904297
v 3.902127265930176 -5.370813369750977 44.51091766357422
v 11.550102233886719 -3.7528488636016846 45.81969451904297
v 7.702990531921387 2.445770025253296 41.59693908691406
v 7.138343811035156 9.82510757446289 45.81969451904297
v 0.0 0.0 43.821311950683594
v 0.0 0.0 43.821311950683594
v 0.0 0.0 43.821311950683594
v 0.0 0.0 43.821311950683594
v -24.78924560546875 34.119468688964844 0.0
v -1.9259750843048096e-06 23.05409049987793 0.0
v -21.925737380981445 7.124107360839844 0.0
v -40.10984420776367 -13.032475471496582 0.0
v -13.55085563659668 -18.651138305664062 0.0
v 4.4796615839004517e-07 -42.17398452758789 0.0
v 13.55085563659668 -18.65113639831543 0.0
v 40.10984802246094 -13.03245735168457 0.0
v 21.92572784423828 7.124123573303223 0.0
v 24.78921127319336 34.1194953918457 0.0
v 0.0 0.0 43.821311950683594
v 0.0 0.0 43.821311950683594
v 0.0 0.0 43.821311950683594
v 0.0 0.0 43.821311950683594
vt 0.8795488476753235 0.2538149952888489
vt 0.8795493841171265 0.29506921768188477
vt 0.928549587726593 0.29680973291397095
vt 0.8795493841171265 0.29506921768188477
vt 0.928549587726593 0.29680973291397095
vt 0.8795493841171265 0.29506921768188477
vt 0.928549587726593 0.29680973291397095
vt 0.8795493841171265 0.29506921768188477
vt 0.928549587726593 0.29680973291397095
vt 0.8795493841171265 0.29506921768188477
vt 0.928549587726593 0.29680973291397095
vt 0.8795592188835144 0.3296346664428711
vt 0.9527183175086975 0.33354079723358154
vt 0.8795592188835144 0.3296346664428711
vt 0.9527183175086975 0.33354079723358154
vt 0.8795592188835144 0.3296346664428711
vt 0.9527183175086975 0.33354079723358154
vt 0.8795592188835144 0.3296346664428711
vt 0.9527183175086975 0.33354079723358154
vt 0.8795592188835144 0.3296346664428711
vt 0.9527183175086975 0.33354079723358154
vt 0.8795629143714905 0.3684627413749695
vt 0.9582899212837219 0.36998504400253296
vt 0.8795629143714905 0.3684627413749695
vt 0.9582899212837219 0.36998504400253296
vt 0.8795629143714905 0.3684627413749695
vt 0.9582899212837219 0.36998504400253296
vt 0.8795629143714905 0.3684627413749695
vt 0.9582899212837219 0.36998504400253296
vt 0.8795629143714905 0.3684627413749695
vt 0.9582899212837219 0.36998504400253296
vt 0.8795331120491028 0.26666468381881714
vt 0.9009076356887817 0.26784855127334595
vt 0.8795331120491028 0.26666468381881714
vt 0.9009076356887817 0.26784855127334595
vt 0.8795331120491028 0.26666468381881714
vt 0.9009076356887817 0.26784855127334595
vt 0.8795331120491028 0.26666468381881714
vt 0.9009076356887817 0.26784855127334595
vt 0.8795331120491028 0.26666468381881714
vt 0.9009076356887817 0.26784855127334595
vt 0.907418429851532 0.25209254026412964
vt 0.878239095211029 0.37694263458251953
vt 0.8782395720481873 0.4181968569755554
vt 0.927239716053009 0.4199373722076416
vt 0.8782395720481873 0.4181968569755554
vt 0.927239716053009 0.4199373722076416
vt 0.8782395720481873 0.4181968569755554
vt 0.927239716053009 0.4199373722076416
vt 0.8782395720481873 0.4181968569755554
vt 0.927239716053009 0.4199373722076416
vt 0.8782395720481873 0.4181968569755554
vt 0.927239716053009 0.4199373722076416
vt 0.87824946641922 0.45276230573654175
vt 0.9514085650444031 0.4566684365272522
vt 0.87824946641922 0.45276230573654175
vt 0.9514085650444031 0.4566684365272522
vt 0.87824946641922 0.45276230573654175
vt 0.9514085650444031 0.4566684365272522
vt 0.87824946641922 0.45276230573654175
vt 0.9514085650444031 0.4566684365272522
vt 0.87824946641922 0.45276230573654175
vt 0.9514085650444031 0.4566684365272522
vt 0.878253161907196 0.49159038066864014
vt 0.9569802284240723 0.4931126832962036
vt 0.878253161907196 0.49159038066864014
vt 0.9569802284240723 0.4931126832962036
vt 0.878253161907196 0.49159038066864014
vt 0.9569802284240723 0.4931126832962036
vt 0.878253161907196 0.49159038066864014
vt 0.9569802284240723 0.4931126832962036
vt 0.878253161907196 0.49159038066864014
vt 0.9569802284240723 0.4931126832962036
vt 0.8782233595848083 0.3897923231124878
vt 0.8995978236198425 0.3909761905670166
vt 0.8782233595848083 0.3897923231124878
vt 0.8995978236198425 0.3909761905670166
vt 0.8782233595848083 0.3897923231124878
vt 0.8995978236198425 0.3909761905670166
vt 0.8782233595848083 0.3897923231124878
vt 0.8995978236198425 0.3909761905670166
vt 0.8782233595848083 0.3897923231124878
vt 0.8995978236198425 0.3909761905670166
vt 0.8795488476753235 0.2538149952888489
vt 0.8795488476753235 0.2538149952888489
vt 0.8795488476753235 0.2538149952888489
vt 0.8795488476753235 0.2538149952888489
vt 0.9972988963127136 0.3662291169166565
vt 0.9953998923301697 0.25354379415512085
vt 0.9953998923301697 0.25354379415512085
vt 0.9972988963127136 0.3662291169166565
vt 0.9953998923301697 0.25354379415512085
vt 0.9972988963127136 0.3662291169166565
vt 0.9953998923301697 0.25354379415512085
vt 0.9972988963127136 0.3662291169166565
vt 0.9953998923301697 0.25354379415512085
vt 0.9972988963127136 0.3662291169166565
vt 0.878239095211029 0.37694263458251953
vt 0.878239095211029 0.37694263458251953
vt 0.878239095211029 0.37694263458251953
vt 0.878239095211029 0.37694263458251953
vn -0.3782544434070587 -0.4404259920120239 0.8142164945602417
vn -0.4728204011917114 0.6861147880554199 0.5528900027275085
vn -0.8513122797012329 -0.19521255791187286 0.48699018359184265
vn -0.7705610990524292 -0.26468414068222046 0.5798085331916809
vn -0.07959441840648651 -0.8696405291557312 0.4872271418571472
vn 0.009785463102161884 -0.8139898180961609 0.5807967185974121
vn 0.8024802803993225 -0.34462085366249084 0.48709535598754883
vn 0.7668662667274475 -0.2939261794090271 0.5705466866493225
vn 0.5742591619491577 0.6582341194152832 0.4867796301841736
vn 0.4678378403186798 0.6673446893692017 0.5794642567634583
vn -0.46932026743888855 0.7075819969177246 0.5282673239707947
vn -0.4248894453048706 0.8611283898353577 0.27915382385253906
vn -0.9820632934570312 -0.11139994859695435 0.15212422609329224
vn -0.950510561466217 -0.13719679415225983 0.27875959873199463
vn -0.19752642512321472 -0.9684222340583801 0.15212410688400269
vn -0.16488386690616608 -0.9463321566581726 0.2779729664325714
vn 0.8599851131439209 -0.4871178865432739 0.15212422609329224
vn 0.8489945530891418 -0.44943663477897644 0.27787619829177856
vn 0.7290264368057251 0.6673669815063477 0.15212413668632507
vn 0.6885835528373718 0.6694991588592529 0.27861008048057556
vn -0.40942296385765076 0.8995727300643921 0.15212419629096985
vn -0.40443095564842224 0.9139525890350342 0.03356299176812172
vn -0.9937385320663452 -0.1054099053144455 0.03704974800348282
vn -0.9941967129707336 -0.10220865905284882 0.033562950789928436
vn -0.20683112740516663 -0.9776749014854431 0.037049632519483566
vn -0.21001729369163513 -0.9771214127540588 0.033562831580638885
vn 0.8659096956253052 -0.49882635474205017 0.03704981505870819
vn 0.864398717880249 -0.5016855597496033 0.03356296569108963
vn 0.7419925928115845 0.6693835258483887 0.03704970329999924
vn 0.7442450523376465 0.6670629382133484 0.033562835305929184
vn -0.4073339104652405 0.9125275015830994 0.03704977035522461
vn -0.5211167931556702 0.47102677822113037 0.7117381691932678
vn -0.5983753204345703 -0.3536146283149719 0.718960165977478
vn -0.5359963774681091 -0.3917868435382843 0.7478041052818298
vn 0.14901110529899597 -0.6762307286262512 0.7214621901512146
vn 0.20417316257953644 -0.6287093162536621 0.750358521938324
vn 0.5463621020317078 -0.11884482949972153 0.8290743827819824
vn 0.42581096291542053 -0.07101374119520187 0.9020211100578308
vn 0.2765272855758667 0.6394493579864502 0.7173821926116943
vn 0.20382124185562134 0.6344424486160278 0.7456136345863342
vn -0.5399237871170044 0.4250044822692871 0.7265353798866272
vn 1.4772201950563613e-07 3.309346823243686e-07 -1.0
vn 0.5357570648193359 0.22364218533039093 0.8142165541648865
vn 0.4461051821708679 0.7458924055099487 0.4946056008338928
vn 0.48427027463912964 0.6729433536529541 0.5591328740119934
vn -0.5706835389137268 0.6555413603782654 0.494556188583374
vn -0.4896591007709503 0.6704508066177368 0.5574314594268799
vn -0.7993577718734741 -0.341403990983963 0.4944397807121277
vn -0.7874088883399963 -0.2597786486148834 0.5590190291404724
vn 0.09425774216651917 -0.878427267074585 0.46848824620246887
vn 0.04719068482518196 -0.8118179440498352 0.5820005536079407
vn 0.8477367162704468 -0.1918306201696396 0.4945133626461029
vn 0.7887982726097107 -0.24948038160800934 0.5617444515228271
vn 0.40993377566337585 0.896961510181427 0.16557282209396362
vn 0.41904547810554504 0.8648255467414856 0.27654600143432617
vn -0.7262915372848511 0.6670264601707458 0.16606111824512482
vn -0.6926021575927734 0.6661376953125 0.27669990062713623
vn -0.8588945269584656 -0.48475655913352966 0.1652611941099167
vn -0.8472579717636108 -0.45360642671585083 0.2763967216014862
vn 0.1957460641860962 -0.9667973518371582 0.16427534818649292
vn 0.17062225937843323 -0.9458774328231812 0.2760509252548218
vn 0.9799336194992065 -0.11260592192411423 0.16446898877620697
vn 0.9522591829299927 -0.13018359243869781 0.27614250779151917
vn 0.40742915868759155 0.9127442836761475 0.02998959831893444
vn 0.40474754571914673 0.9138070940971375 0.033704910427331924
vn -0.7421687245368958 0.6695418357849121 0.02998953126370907
vn -0.7440082430839539 0.6673197746276855 0.03370501101016998
vn -0.8661148548126221 -0.49894461035728455 0.02998942695558071
vn -0.8645700216293335 -0.5013807415962219 0.03370492160320282
vn 0.20688067376613617 -0.9779064655303955 0.029989436268806458
vn 0.2096749246120453 -0.9771900773048401 0.033704861998558044
vn 0.9939740300178528 -0.10543391853570938 0.02998928911983967
vn 0.9941561818122864 -0.10255502164363861 0.03370475023984909
vn 0.5183623433113098 0.4698977768421173 0.7144904136657715
vn 0.5365383625030518 0.42284834384918213 0.7302916646003723
vn -0.28693968057632446 0.6411660313606262 0.7117385268211365
vn -0.23735810816287994 0.6448308229446411 0.7265358567237854
vn -0.697189211845398 -0.0754503682255745 0.7129056453704834
vn -0.6850354075431824 -0.02687911130487919 0.7280137538909912
vn -0.05962187424302101 -0.5294630527496338 0.8462353944778442
vn -0.08235803246498108 -0.361843466758728 0.9285938143730164
vn 0.6052874326705933 -0.3451007604598999 0.7173093557357788
vn 0.5650166869163513 -0.3767995834350586 0.734015166759491
vn 0.30124497413635254 -0.4922724664211273 0.8166514039039612
vn 0.04903923720121384 0.1621716320514679 0.9855432510375977
vn 0.04909670725464821 0.5829662084579468 0.811011791229248
vn -0.5396161079406738 0.2271634042263031 0.8106856942176819
vn 1.4772201950563613e-07 3.309346823243686e-07 -1.0
vn 1.4772201950563613e-07 3.309346823243686e-07 -1.0
vn -3.603862239742739e-07 -3.822763972038956e-08 -1.0
vn -2.6908898576039064e-07 2.4275658461192506e-07 -1.0
vn -7.5008742328464e-08 -3.5456059777061455e-07 -1.0
vn -3.140281137348211e-07 -1.8090284470417828e-07 -1.0
vn 3.1402805689140223e-07 -1.8090278786075942e-07 -1.0
vn 7.500891996414794e-08 -3.545604556620674e-07 -1.0
vn 2.6908878680842463e-07 2.4275658461192506e-07 -1.0
vn 3.603861387091456e-07 -3.822728444902168e-08 -1.0
vn -0.04929499700665474 0.5834020376205444 0.8106861710548401
vn -0.5696064829826355 0.13345226645469666 0.8110110759735107
vn -0.16938835382461548 0.0034745861776173115 0.9855432510375977
vn 0.3750886023044586 -0.43862056732177734 0.8166520595550537
f 82/82/82 52/52/52 53/53/53
f 53/53/53 83/83/83 82/82/82
f 80/80/80 50/50/50 51/51/51
f 51/51/51 81/81/81 80/80/80
f 78/78/78 48/48/48 49/49/49
f 49/49/49 79/79/79 78/78/78
f 76/76/76 46/46/46 47/47/47
f 47/47/47 77/77/77 76/76/76
f 74/74/74 44/44/44 45/45/45
f 45/45/45 75/75/75 74/74/74
f 73/73/73 63/63/63 62/62/62
f 62/62/62 72/72/72 73/73/73
f 71/71/71 61/61/61 60/60/60
f 60/60/60 70/70/70 71/71/71
f 69/69/69 59/59/59 58/58/58
f 58/58/58 68/68/68 69/69/69
f 67/67/67 57/57/57 56/56/56
f 56/56/56 66/66/66 67/67/67
f 65/65/65 55/55/55 54/54/54
f 54/54/54 64/64/64 65/65/65
f 63/63/63 53/53/53 52/52/52
f 52/52/52 62/62/62 63/63/63
f 61/61/61 51/51/51 50/50/50
f 50/50/50 60/60/60 61/61/61
f 59/59/59 49/49/49 48/48/48
f 48/48/48 58/58/58 59/59/59
f 57/57/57 47/47/47 46/46/46
f 46/46/46 56/56/56 57/57/57
f 55/55/55 45/45/45 44/44/44
f 44/44/44 54/54/54 55/55/55
f 101/101/101 82/82/82 83/83/83
f 100/100/100 80/80/80 81/81/81
f 99/99/99 78/78/78 79/79/79
f 98/98/98 76/76/76 77/77/77
f 43/43/43 74/74/74 75/75/75
f 89/89/89 97/97/97 42/42/42
f 97/97/97 96/96/96 42/42/42
f 96/96/96 95/95/95 42/42/42
f 95/95/95 94/94/94 42/42/42
f 94/94/94 93/93/93 42/42/42
f 93/93/93 92/92/92 42/42/42
f 92/92/92 91/91/91 42/42/42
f 91/91/91 90/90/90 42/42/42
f 90/90/90 88/88/88 42/42/42
f 88/88/88 89/89/89 42/42/42
f 32/32/32 41/41/41 11/11/11
f 11/11/11 2/2/2 32/32/32
f 39/39/39 9/9/9 10/10/10
f 10/10/10 40/40/40 39/39/39
f 37/37/37 7/7/7 8/8/8
f 8/8/8 38/38/38 37/37/37
f 35/35/35 5/5/5 6/6/6
f 6/6/6 36/36/36 35/35/35
f 33/33/33 3/3/3 4/4/4
f 4/4/4 34/34/34 33/33/33
f 22/22/22 12/12/12 21/21/21
f 21/21/21 31/31/31 22/22/22
f 30/30/30 20/20/20 19/19/19
f 19/19/19 29/29/29 30/30/30
f 28/28/28 18/18/18 17/17/17
f 17/17/17 27/27/27 28/28/28
f 26/26/26 16/16/16 15/15/15
f 15/15/15 25/25/25 26/26/26
f 24/24/24 14/14/14 13/13/13
f 13/13/13 23/23/23 24/24/24
f 12/12/12 2/2/2 11/11/11
f 11/11/11 21/21/21 12/12/12
f 20/20/20 10/10/10 9/9/9
f 9/9/9 19/19/19 20/20/20
f 18/18/18 8/8/8 7/7/7
f 7/7/7 17/17/17 18/18/18
f 16/16/16 6/6/6 5/5/5
f 5/5/5 15/15/15 16/16/16
f 14/14/14 4/4/4 3/3/3
f 3/3/3 13/13/13 14/14/14
f 87/87/87 41/41/41 32/32/32
f 86/86/86 39/39/39 40/40/40
f 85/85/85 37/37/37 38/38/38
f 84/84/84 35/35/35 36/36/36
f 1/1/1 33/33/33 34/34/34
