# Recovered local-space geometry; original node transforms not applied
o mesh_0
v 57.09991455078125 23.457887649536133 18.03717041015625
v 40.547698974609375 9.686140060424805 16.894994735717773
v 46.4069938659668 -1.825940671551507e-06 35.95622634887695
v 40.547698974609375 -9.686168670654297 16.89499855041504
v 41.304847717285156 -31.03676414489746 17.8397274017334
v 33.114906311035156 -1.0421593287901487e-05 0.11807101964950562
v 40.54769515991211 -19.372352600097656 0.11808930337429047
v 36.72743225097656 1.3827366274199449e-07 0.11806195974349976
v 34.35080337524414 18.72052574157715 10.926339149475098
v 34.35079574584961 21.616592407226562 0.11805246025323868
v 34.35081100463867 10.808306694030762 18.83856964111328
v 34.35079574584961 2.390004738117568e-06 21.73464584350586
v 28.99384307861328 31.848649978637695 18.50587272644043
v 28.99382972717285 36.77566146850586 0.11805018782615662
v 28.993833541870117 18.387826919555664 31.966699600219727
v 28.99382781982422 4.263287792127812e-06 36.89372253417969
v 17.157751083374023 35.29920196533203 20.49803352355957
v 17.157745361328125 20.3799991607666 35.417240142822266
v 17.157737731933594 8.402263119933195e-06 40.8780517578125
v 5.321658611297607 34.27175521850586 19.90483856201172
v -16.22298240661621 26.055377960205078 15.161102294921875
v 5.321652889251709 19.78680992126465 34.38977813720703
v -16.22298812866211 15.043091773986816 26.173431396484375
v 5.321646690368652 1.254123890248593e-05 39.691650390625
v -16.222991943359375 2.007520743063651e-05 30.20418357849121
v -39.71198654174805 12.074180603027344 7.089070796966553
v -39.71198654174805 6.971043109893799 12.192214965820312
v -39.711997985839844 2.8289105102885514e-05 14.060091972351074
v 34.35079574584961 -10.808294296264648 18.838581085205078
v 34.35080337524414 -18.720521926879883 10.926346778869629
v 34.35078811645508 -21.616592407226562 0.11806458234786987
v 28.99382781982422 -18.387826919555664 31.966691970825195
v 28.99381446838379 -31.848665237426758 18.50587272644043
v 28.993818283081055 -36.775665283203125 0.11807350814342499
v 17.157733917236328 -20.37998390197754 35.4172477722168
v 17.157724380493164 -35.2991943359375 20.498044967651367
v 17.157726287841797 -40.75999450683594 0.1180810034275055
v 5.321640968322754 -19.78677749633789 34.389801025390625
v -16.222993850708008 -15.043035507202148 26.17342758178711
v 5.3216328620910645 -34.2717170715332 19.904863357543945
v -16.222999572753906 -26.055362701416016 15.161124229431152
v 5.321633815765381 -39.5735969543457 0.1180698573589325
v -16.223003387451172 -30.08612632751465 0.11807288974523544
v -39.71199417114258 -6.9709858894348145 12.192207336425781
v -39.71199417114258 -12.074124336242676 7.089081764221191
v -39.71200180053711 -13.942023277282715 0.1180664524435997
v -44.398712158203125 1.4322819879453164e-05 0.1180567741394043
v 40.54770278930664 19.372325897216797 0.1180659830570221
v 49.18416213989258 -31.036779403686523 -17.80097770690918
v 40.54769515991211 -9.686162948608398 -16.658845901489258
v 50.066043853759766 -1.2745267152786255 -33.94802474975586
v 40.54769515991211 9.686131477355957 -16.65886688232422
v 41.88818359375 31.036724090576172 -17.8010311126709
v 34.350791931152344 -18.72053337097168 -10.690211296081543
v 34.350807189941406 -10.80831241607666 -18.60243797302246
v 28.99382972717285 -31.848655700683594 -18.269737243652344
v 28.993824005126953 -18.387840270996094 -31.73057746887207
v 28.99382781982422 -1.620436887606047e-05 -36.6575927734375
v 17.157737731933594 -35.29920196533203 -20.261903762817383
v 17.157737731933594 -20.380008697509766 -35.18111038208008
v 17.157739639282227 -1.620436887606047e-05 -40.64192199707031
v 5.321644306182861 -34.27174758911133 -19.668703079223633
v -16.222991943359375 -26.055368423461914 -14.924982070922852
v 5.321646690368652 -19.786813735961914 -34.15364456176758
v -16.222991943359375 -15.043079376220703 -25.937299728393555
v 5.321647644042969 -1.620436887606047e-05 -39.45552444458008
v -16.222993850708008 -1.620436887606047e-05 -29.968069076538086
v -39.711997985839844 -12.074152946472168 -6.852946758270264
v -39.71199035644531 -6.971023082733154 -11.956092834472656
v 34.35079574584961 10.80828857421875 -18.60245704650879
v 34.35079574584961 -8.74336819833843e-06 -21.49852180480957
v 34.350807189941406 18.72051429748535 -10.690237045288086
v 28.993833541870117 18.387813568115234 -31.730581283569336
v 28.99382209777832 31.848651885986328 -18.269763946533203
v 17.15774154663086 20.379974365234375 -35.181129455566406
v 17.15773582458496 35.29918670654297 -20.26193618774414
v 5.321647644042969 19.786773681640625 -34.15367889404297
v -16.222990036010742 15.043047904968262 -25.93730354309082
v 5.321643352508545 34.2717170715332 -19.668745040893555
v -16.222993850708008 26.05536460876465 -14.925015449523926
v -39.711997985839844 6.971005439758301 -11.956092834472656
v -39.71200180053711 -8.743369107833132e-06 -13.823976516723633
v -39.71199035644531 12.074151039123535 -6.852963447570801
v -39.71199417114258 13.942049980163574 0.11805246770381927
v -16.222991943359375 30.086130142211914 0.11804397404193878
v 17.157739639282227 40.7599983215332 0.11805582046508789
v 5.321648120880127 39.57360076904297 0.1180512011051178
v 33.114906311035156 -1.0421593287901487e-05 0.11807101964950562
v 40.54769515991211 -19.372352600097656 0.11808930337429047
v 40.54770278930664 19.372325897216797 0.1180659830570221
v 36.72743225097656 1.3827366274199449e-07 0.11806195974349976
v 34.35078811645508 -21.616592407226562 0.11806458234786987
v 28.993818283081055 -36.775665283203125 0.11807350814342499
v 17.157726287841797 -40.75999450683594 0.1180810034275055
v 5.321633815765381 -39.5735969543457 0.1180698573589325
v -16.223003387451172 -30.08612632751465 0.11807288974523544
v -39.71200180053711 -13.942023277282715 0.1180664524435997
v -44.398712158203125 1.4322819879453164e-05 0.1180567741394043
v 34.35079574584961 21.616592407226562 0.11805246025323868
v 28.99382972717285 36.77566146850586 0.11805018782615662
v 17.157739639282227 40.7599983215332 0.11805582046508789
v -16.222991943359375 30.086130142211914 0.11804397404193878
v 5.321648120880127 39.57360076904297 0.1180512011051178
v -39.71199417114258 13.942049980163574 0.11805246770381927
vt 0.5128579139709473 0.21251147985458374
vt 0.5016051530838013 0.23002368211746216
vt 0.5128579139709473 0.21251147985458374
vt 0.5241109132766724 0.23002368211746216
vt 0.5128579139709473 0.21251147985458374
vt 0.5127909183502197 0.24584585428237915
vt 0.5016051530838013 0.23002368211746216
vt 0.5443121194839478 0.12617450952529907
vt 0.5525477528572083 0.14019161462783813
vt 0.5668121576309204 0.14019161462783813
vt 0.536076545715332 0.14019161462783813
vt 0.5218120813369751 0.14019161462783813
vt 0.5583231449127197 0.1535317301750183
vt 0.5825909376144409 0.1535317301750183
vt 0.5303011536598206 0.1535317301750183
vt 0.5060334205627441 0.1535317301750183
vt 0.5598411560058594 0.16652578115463257
vt 0.5287833213806152 0.16652578115463257
vt 0.501886248588562 0.16652578115463257
vt 0.5593891143798828 0.17951971292495728
vt 0.5557745695114136 0.20317202806472778
vt 0.5292352437973022 0.17951971292495728
vt 0.5328497886657715 0.20317202806472778
vt 0.5031211376190186 0.17951971292495728
vt 0.5129963159561157 0.20317202806472778
vt 0.5496238470077515 0.22961705923080444
vt 0.5390004515647888 0.22961705923080444
vt 0.529800295829773 0.22961705923080444
vt 0.536076545715332 0.14019161462783813
vt 0.552547812461853 0.14019161462783813
vt 0.56681227684021 0.14019161462783813
vt 0.5303012132644653 0.1535317301750183
vt 0.5583231449127197 0.1535317301750183
vt 0.5825909376144409 0.1535317301750183
vt 0.5287833213806152 0.16652578115463257
vt 0.5598411560058594 0.16652578115463257
vt 0.5867380499839783 0.16652578115463257
vt 0.5292352437973022 0.17951971292495728
vt 0.5328497886657715 0.20317202806472778
vt 0.5593891143798828 0.17951971292495728
vt 0.5557746291160583 0.20317202806472778
vt 0.5855031609535217 0.17951971292495728
vt 0.5756279230117798 0.20317202806472778
vt 0.5390005111694336 0.22961705923080444
vt 0.5496238470077515 0.22961705923080444
vt 0.5588240623474121 0.22961705923080444
vt 0.5443121194839478 0.24463456869125366
vt 0.5241109132766724 0.23002368211746216
vt 0.5132018327713013 0.21400612592697144
vt 0.5244021415710449 0.23143655061721802
vt 0.5132018327713013 0.21400612592697144
vt 0.5020013451576233 0.23143655061721802
vt 0.5132018327713013 0.21400612592697144
vt 0.5522990226745605 0.1420232653617859
vt 0.5359045267105103 0.1420232653617859
vt 0.5580474138259888 0.15530115365982056
vt 0.530156135559082 0.15530115365982056
vt 0.5060014724731445 0.15530115365982056
vt 0.5595583915710449 0.16823464632034302
vt 0.5286452770233154 0.16823464632034302
vt 0.5018736720085144 0.16823464632034302
vt 0.5591084361076355 0.18116801977157593
vt 0.5555107593536377 0.2047101855278015
vt 0.5290951728820801 0.18116801977157593
vt 0.5326929092407227 0.2047101855278015
vt 0.5031027793884277 0.18116801977157593
vt 0.5129319429397583 0.2047101855278015
vt 0.5493887662887573 0.23103195428848267
vt 0.5388148427009583 0.23103183507919312
vt 0.5359045267105103 0.1420232653617859
vt 0.5217065811157227 0.1420232653617859
vt 0.5522991418838501 0.1420232653617859
vt 0.530156135559082 0.15530115365982056
vt 0.5580475330352783 0.15530115365982056
vt 0.5286452770233154 0.16823464632034302
vt 0.5595583915710449 0.16823464632034302
vt 0.5290951728820801 0.18116801977157593
vt 0.5326929092407227 0.2047101855278015
vt 0.5591084361076355 0.18116801977157593
vt 0.5555107593536377 0.2047101855278015
vt 0.538814902305603 0.23103195428848267
vt 0.5296576023101807 0.23103183507919312
vt 0.5493887662887573 0.23103183507919312
vt 0.5588240623474121 0.22961705923080444
vt 0.5756279230117798 0.20317202806472778
vt 0.5867380499839783 0.16652578115463257
vt 0.5855031609535217 0.17951971292495728
vt 0.5131349563598633 0.24718493223190308
vt 0.5020013451576233 0.23143655061721802
vt 0.5244021415710449 0.23143655061721802
vt 0.5441017150878906 0.12807148694992065
vt 0.5664969682693481 0.1420232653617859
vt 0.5822020769119263 0.15530115365982056
vt 0.5863299369812012 0.16823464632034302
vt 0.5851007699966431 0.18116801977157593
vt 0.5752716064453125 0.2047101855278015
vt 0.5585459470748901 0.23103195428848267
vt 0.5441017150878906 0.24597936868667603
vt 0.5664970278739929 0.1420232653617859
vt 0.5822020769119263 0.15530115365982056
vt 0.5863299369812012 0.16823464632034302
vt 0.5752716064453125 0.2047101855278015
vt 0.5851008296012878 0.18116801977157593
vt 0.5585460662841797 0.23103183507919312
vn 0.7666047811508179 -0.5896719694137573 -0.25417327880859375
vn 0.8658867478370667 -0.4899953305721283 -0.10072105377912521
vn 0.9375893473625183 -3.0646262416667014e-07 -0.34774449467658997
vn 0.925817608833313 0.06575528532266617 -0.3722071945667267
vn 0.9747335314750671 0.19481495022773743 -0.10927785933017731
vn 0.9992333054542542 -0.035414695739746094 0.01669059321284294
vn 0.9143779277801514 0.3508290946483612 0.20206919312477112
vn 1.0 -1.9796651429260237e-07 -6.436374633267405e-08
vn 0.9693681001663208 0.20316801965236664 0.1380155384540558
vn 0.9693681001663208 0.24495629966259003 0.017941458150744438
vn 0.9693681001663208 0.10694022476673126 0.22110913693904877
vn 0.9693681597709656 -0.017942219972610474 0.24495640397071838
vn 0.7051016688346863 0.6432110071182251 0.29851511120796204
vn 0.7051013112068176 0.7062949538230896 -0.0630839541554451
vn 0.7051012516021729 0.40777984261512756 0.580127477645874
vn 0.7051012516021729 0.06308341026306152 0.7062950730323792
vn 0.11205865442752838 0.8129578232765198 0.5714390873908997
vn 0.112058125436306 0.418322890996933 0.901359498500824
vn 0.11205819249153137 -0.08840200304985046 0.9897617101669312
vn -0.2549174726009369 0.8391032218933105 0.4805445671081543
vn -0.48707014322280884 0.7582849860191345 0.43332067131996155
vn -0.2549173831939697 0.48641207814216614 0.8357155323028564
vn -0.48706990480422974 0.44003310799598694 0.7544095516204834
vn -0.25491806864738464 0.003388115903362632 0.9669567346572876
vn -0.48706990480422974 0.003874704474583268 0.8733543753623962
vn -0.7576205730438232 0.5868634581565857 0.2856612801551819
vn -0.7576206922531128 0.36540859937667847 0.5408210754394531
vn -0.7576209902763367 0.04604153707623482 0.6510689854621887
vn 0.9693679809570312 -0.13801604509353638 0.20316818356513977
vn 0.969368040561676 -0.22110944986343384 0.1069403663277626
vn 0.969368040561676 -0.24495655298233032 -0.017941776663064957
vn 0.7051012516021729 -0.2985156774520874 0.6432111859321594
vn 0.7051008939743042 -0.5801277160644531 0.4077800214290619
vn 0.705100953578949 -0.7062953114509583 0.06308368593454361
vn 0.11205839365720749 -0.5714390873908997 0.8129578828811646
vn 0.1120576411485672 -0.9013595581054688 0.4183228611946106
vn 0.1120581105351448 -0.9897616505622864 -0.08840178698301315
vn -0.25491780042648315 -0.4805445075035095 0.8391031622886658
vn -0.4870704710483551 -0.4333205819129944 0.7582846879959106
vn -0.2549179792404175 -0.8357151746749878 0.4864123463630676
vn -0.4870704114437103 -0.7544090747833252 0.44003334641456604
vn -0.2549181282520294 -0.9669567346572876 0.0033879627007991076
vn -0.487070232629776 -0.8733541965484619 0.00387509330175817
vn -0.7576208114624023 -0.2856612503528595 0.5868631601333618
vn -0.7576210498809814 -0.5408204793930054 0.3654087781906128
vn -0.7576212286949158 -0.6510684490203857 0.04604257643222809
vn -1.0 1.222530414679568e-07 1.4725904406986956e-07
vn 0.8553631901741028 -0.32818663120269775 -0.40080833435058594
vn 0.9124726057052612 0.3543238341808319 0.2045692652463913
vn 0.9326425194740295 0.1389450877904892 0.33297476172447205
vn 0.8951940536499023 -0.005345697049051523 0.4456445574760437
vn 0.9095120429992676 0.02112049236893654 0.41514062881469727
vn 0.9713186621665955 -0.20592471957206726 0.11889093369245529
vn 0.969368040561676 -0.20316830277442932 -0.13801555335521698
vn 0.9693681001663208 -0.10694066435098648 -0.221109077334404
vn 0.7051013112068176 -0.6432114839553833 -0.29851508140563965
vn 0.7051010727882385 -0.407780259847641 -0.5801273584365845
vn 0.7051011919975281 -0.06308390200138092 -0.7062950730323792
vn 0.11205819994211197 -0.8129580020904541 -0.5714387893676758
vn 0.11205781251192093 -0.41832301020622253 -0.901359498500824
vn 0.11205815523862839 0.08840160816907883 -0.9897616505622864
vn -0.25491759181022644 -0.8391030430793762 -0.4805445671081543
vn -0.487070232629776 -0.7582846879959106 -0.4333208203315735
vn -0.25491762161254883 -0.4864124059677124 -0.8357152342796326
vn -0.48706987500190735 -0.44003334641456604 -0.7544094324111938
vn -0.25491783022880554 -0.003388110315427184 -0.9669567942619324
vn -0.4870697557926178 -0.0038748267106711864 -0.8733544945716858
vn -0.7576209902763367 -0.5868632197380066 -0.285660982131958
vn -0.7576208710670471 -0.36540859937667847 -0.540820837020874
vn 0.9693681001663208 0.13801582157611847 -0.20316818356513977
vn 0.9693681001663208 0.017941631376743317 -0.24495640397071838
vn 0.9693681597709656 0.22110921144485474 -0.10694058239459991
vn 0.7051013112068176 0.2985152304172516 -0.643211305141449
vn 0.7051010727882385 0.5801274180412292 -0.40778014063835144
vn 0.11205825954675674 0.571438729763031 -0.8129580020904541
vn 0.1120578795671463 0.9013594388961792 -0.4183231294155121
vn -0.25491759181022644 0.4805442988872528 -0.8391032218933105
vn -0.48707008361816406 0.4333207607269287 -0.7582848072052002
vn -0.25491786003112793 0.835715115070343 -0.48641249537467957
vn -0.4870699346065521 0.7544093132019043 -0.4400334656238556
vn -0.7576206922531128 0.285661518573761 -0.5868631601333618
vn -0.7576209306716919 -0.04604174569249153 -0.6510688662528992
vn -0.7576208114624023 0.5408207774162292 -0.36540883779525757
vn -0.7576208710670471 0.651068925857544 -0.04604228958487511
vn -0.4870697855949402 0.8733544945716858 -0.0038751675747334957
vn 0.11205847561359406 0.9897617101669312 0.08840169757604599
vn -0.25491809844970703 0.9669567346572876 -0.003388201119378209
vn 0.9992333054542542 -0.035414695739746094 0.01669059321284294
vn 0.9143779277801514 0.3508290946483612 0.20206919312477112
vn 0.8553631901741028 -0.32818663120269775 -0.40080833435058594
vn 1.0 -1.9796651429260237e-07 -6.436374633267405e-08
vn 0.969368040561676 -0.24495655298233032 -0.017941776663064957
vn 0.705100953578949 -0.7062953114509583 0.06308368593454361
vn 0.1120581105351448 -0.9897616505622864 -0.08840178698301315
vn -0.2549181282520294 -0.9669567346572876 0.0033879627007991076
vn -0.487070232629776 -0.8733541965484619 0.00387509330175817
vn -0.7576212286949158 -0.6510684490203857 0.04604257643222809
vn -1.0 1.222530414679568e-07 1.4725904406986956e-07
vn 0.9693681001663208 0.24495629966259003 0.017941458150744438
vn 0.7051013112068176 0.7062949538230896 -0.0630839541554451
vn 0.11205847561359406 0.9897617101669312 0.08840169757604599
vn -0.4870697855949402 0.8733544945716858 -0.0038751675747334957
vn -0.25491809844970703 0.9669567346572876 -0.003388201119378209
vn -0.7576208710670471 0.651068925857544 -0.04604228958487511
f 76/76/76 79/79/79 103/103/103
f 103/103/103 101/101/101 76/76/76
f 75/75/75 77/77/77 79/79/79
f 79/79/79 76/76/76 75/75/75
f 61/61/61 66/66/66 77/77/77
f 77/77/77 75/75/75 61/61/61
f 83/83/83 98/98/98 104/104/104
f 81/81/81 98/98/98 83/83/83
f 82/82/82 98/98/98 81/81/81
f 104/104/104 102/102/102 80/80/80
f 80/80/80 83/83/83 104/104/104
f 83/83/83 80/80/80 78/78/78
f 78/78/78 81/81/81 83/83/83
f 81/81/81 78/78/78 67/67/67
f 67/67/67 82/82/82 81/81/81
f 102/102/102 103/103/103 79/79/79
f 79/79/79 80/80/80 102/102/102
f 80/80/80 79/79/79 77/77/77
f 77/77/77 78/78/78 80/80/80
f 78/78/78 77/77/77 66/66/66
f 66/66/66 67/67/67 78/78/78
f 76/76/76 101/101/101 100/100/100
f 100/100/100 74/74/74 76/76/76
f 75/75/75 76/76/76 74/74/74
f 74/74/74 73/73/73 75/75/75
f 61/61/61 75/75/75 73/73/73
f 73/73/73 58/58/58 61/61/61
f 72/72/72 74/74/74 100/100/100
f 100/100/100 99/99/99 72/72/72
f 70/70/70 73/73/73 74/74/74
f 74/74/74 72/72/72 70/70/70
f 71/71/71 58/58/58 73/73/73
f 73/73/73 70/70/70 71/71/71
f 91/91/91 72/72/72 99/99/99
f 91/91/91 70/70/70 72/72/72
f 91/91/91 71/71/71 70/70/70
f 60/60/60 64/64/64 66/66/66
f 66/66/66 61/61/61 60/60/60
f 59/59/59 62/62/62 64/64/64
f 64/64/64 60/60/60 59/59/59
f 94/94/94 95/95/95 62/62/62
f 62/62/62 59/59/59 94/94/94
f 69/69/69 98/98/98 82/82/82
f 68/68/68 98/98/98 69/69/69
f 97/97/97 98/98/98 68/68/68
f 82/82/82 67/67/67 65/65/65
f 65/65/65 69/69/69 82/82/82
f 69/69/69 65/65/65 63/63/63
f 63/63/63 68/68/68 69/69/69
f 68/68/68 63/63/63 96/96/96
f 96/96/96 97/97/97 68/68/68
f 67/67/67 66/66/66 64/64/64
f 64/64/64 65/65/65 67/67/67
f 65/65/65 64/64/64 62/62/62
f 62/62/62 63/63/63 65/65/65
f 63/63/63 62/62/62 95/95/95
f 95/95/95 96/96/96 63/63/63
f 60/60/60 61/61/61 58/58/58
f 58/58/58 57/57/57 60/60/60
f 59/59/59 60/60/60 57/57/57
f 57/57/57 56/56/56 59/59/59
f 94/94/94 59/59/59 56/56/56
f 56/56/56 93/93/93 94/94/94
f 55/55/55 57/57/57 58/58/58
f 58/58/58 71/71/71 55/55/55
f 54/54/54 56/56/56 57/57/57
f 57/57/57 55/55/55 54/54/54
f 92/92/92 93/93/93 56/56/56
f 56/56/56 54/54/54 92/92/92
f 91/91/91 55/55/55 71/71/71
f 91/91/91 54/54/54 55/55/55
f 91/91/91 92/92/92 54/54/54
f 88/88/88 53/53/53 90/90/90
f 88/88/88 52/52/52 53/53/53
f 88/88/88 51/51/51 52/52/52
f 88/88/88 50/50/50 51/51/51
f 88/88/88 49/49/49 50/50/50
f 88/88/88 89/89/89 49/49/49
f 36/36/36 40/40/40 42/42/42
f 42/42/42 37/37/37 36/36/36
f 35/35/35 38/38/38 40/40/40
f 40/40/40 36/36/36 35/35/35
f 19/19/19 24/24/24 38/38/38
f 38/38/38 35/35/35 19/19/19
f 45/45/45 47/47/47 46/46/46
f 44/44/44 47/47/47 45/45/45
f 28/28/28 47/47/47 44/44/44
f 46/46/46 43/43/43 41/41/41
f 41/41/41 45/45/45 46/46/46
f 45/45/45 41/41/41 39/39/39
f 39/39/39 44/44/44 45/45/45
f 44/44/44 39/39/39 25/25/25
f 25/25/25 28/28/28 44/44/44
f 43/43/43 42/42/42 40/40/40
f 40/40/40 41/41/41 43/43/43
f 41/41/41 40/40/40 38/38/38
f 38/38/38 39/39/39 41/41/41
f 39/39/39 38/38/38 24/24/24
f 24/24/24 25/25/25 39/39/39
f 36/36/36 37/37/37 34/34/34
f 34/34/34 33/33/33 36/36/36
f 35/35/35 36/36/36 33/33/33
f 33/33/33 32/32/32 35/35/35
f 19/19/19 35/35/35 32/32/32
f 32/32/32 16/16/16 19/19/19
f 30/30/30 33/33/33 34/34/34
f 34/34/34 31/31/31 30/30/30
f 29/29/29 32/32/32 33/33/33
f 33/33/33 30/30/30 29/29/29
f 12/12/12 16/16/16 32/32/32
f 32/32/32 29/29/29 12/12/12
f 8/8/8 30/30/30 31/31/31
f 8/8/8 29/29/29 30/30/30
f 8/8/8 12/12/12 29/29/29
f 18/18/18 22/22/22 24/24/24
f 24/24/24 19/19/19 18/18/18
f 17/17/17 20/20/20 22/22/22
f 22/22/22 18/18/18 17/17/17
f 86/86/86 87/87/87 20/20/20
f 20/20/20 17/17/17 86/86/86
f 27/27/27 47/47/47 28/28/28
f 26/26/26 47/47/47 27/27/27
f 84/84/84 47/47/47 26/26/26
f 28/28/28 25/25/25 23/23/23
f 23/23/23 27/27/27 28/28/28
f 27/27/27 23/23/23 21/21/21
f 21/21/21 26/26/26 27/27/27
f 26/26/26 21/21/21 85/85/85
f 85/85/85 84/84/84 26/26/26
f 25/25/25 24/24/24 22/22/22
f 22/22/22 23/23/23 25/25/25
f 23/23/23 22/22/22 20/20/20
f 20/20/20 21/21/21 23/23/23
f 21/21/21 20/20/20 87/87/87
f 87/87/87 85/85/85 21/21/21
f 18/18/18 19/19/19 16/16/16
f 16/16/16 15/15/15 18/18/18
f 17/17/17 18/18/18 15/15/15
f 15/15/15 13/13/13 17/17/17
f 86/86/86 17/17/17 13/13/13
f 13/13/13 14/14/14 86/86/86
f 11/11/11 15/15/15 16/16/16
f 16/16/16 12/12/12 11/11/11
f 9/9/9 13/13/13 15/15/15
f 15/15/15 11/11/11 9/9/9
f 10/10/10 14/14/14 13/13/13
f 13/13/13 9/9/9 10/10/10
f 8/8/8 11/11/11 12/12/12
f 8/8/8 9/9/9 11/11/11
f 8/8/8 10/10/10 9/9/9
f 6/6/6 5/5/5 7/7/7
f 6/6/6 4/4/4 5/5/5
f 6/6/6 3/3/3 4/4/4
f 6/6/6 2/2/2 3/3/3
f 6/6/6 1/1/1 2/2/2
f 6/6/6 48/48/48 1/1/1
