# Recovered local-space geometry; original node transforms not applied
o mesh_0
v 34.350791931152344 -21.616594314575195 0.11808603256940842
v 28.99382209777832 -36.77566146850586 0.11809495836496353
v 5.321638584136963 -39.5735969543457 0.11808943748474121
v -39.71200180053711 -13.942037582397461 0.11806738376617432
v -44.398712158203125 -1.2823677479900653e-06 0.11805770546197891
v 33.11490249633789 -8.74336819833843e-06 0.11807288229465485
v 40.547698974609375 19.372329711914062 0.11806784570217133
v 40.547698974609375 -19.37234878540039 0.11809023469686508
v 49.18416213989258 -31.036779403686523 -17.80097770690918
v 40.54769515991211 -9.686162948608398 -16.658845901489258
v 50.066043853759766 -1.2745267152786255 -33.94802474975586
v 40.54769515991211 9.686131477355957 -16.65886688232422
v 41.88818359375 31.036724090576172 -17.8010311126709
v 34.350791931152344 -18.72053337097168 -10.690211296081543
v 34.350807189941406 -10.80831241607666 -18.60243797302246
v 28.99382972717285 -31.848655700683594 -18.269737243652344
v 28.993824005126953 -18.387840270996094 -31.73057746887207
v 28.99382781982422 -1.620436887606047e-05 -36.6575927734375
v 17.157737731933594 -35.29920196533203 -20.261903762817383
v 17.157730102539062 -40.7599983215332 0.1180940642952919
v 17.157737731933594 -20.380008697509766 -35.18111038208008
v 17.157739639282227 -1.620436887606047e-05 -40.64192199707031
v 5.321644306182861 -34.27174758911133 -19.668703079223633
v -16.222991943359375 -26.055368423461914 -14.924982070922852
v -16.222999572753906 -30.08612823486328 0.11808221787214279
v 5.321646690368652 -19.786813735961914 -34.15364456176758
v -16.222991943359375 -15.043079376220703 -25.937299728393555
v 5.321647644042969 -1.620436887606047e-05 -39.45552444458008
v -16.222993850708008 -1.620436887606047e-05 -29.968069076538086
v -39.711997985839844 -12.074152946472168 -6.852946758270264
v -39.71199035644531 -6.971023082733154 -11.956092834472656
v 34.35079574584961 10.80828857421875 -18.60245704650879
v 34.35079574584961 -8.74336819833843e-06 -21.49852180480957
v 34.350807189941406 18.72051429748535 -10.690237045288086
v 28.993833541870117 18.387813568115234 -31.730581283569336
v 28.99382209777832 31.848651885986328 -18.269763946533203
v 17.15774154663086 20.379974365234375 -35.181129455566406
v 17.15773582458496 35.29918670654297 -20.26193618774414
v 5.321647644042969 19.786773681640625 -34.15367889404297
v -16.222990036010742 15.043047904968262 -25.93730354309082
v 5.321643352508545 34.2717170715332 -19.668745040893555
v -16.222993850708008 26.05536460876465 -14.925015449523926
v -39.711997985839844 6.971005439758301 -11.956092834472656
v -39.71200180053711 -8.74336819833843e-06 -13.823976516723633
v -39.71199035644531 12.074151039123535 -6.852963447570801
v -39.71200180053711 13.942035675048828 0.11805059760808945
v -16.22300148010254 -1.2823677479900653e-06 0.11806542426347733
v 36.7274284362793 -1.2823677479900653e-06 0.1180768832564354
v 25.063753128051758 -1.2823677479900653e-06 0.11807414144277573
v 34.350791931152344 21.61659049987793 0.11806738376617432
v 28.99382209777832 36.77566146850586 0.11805951595306396
v -16.222999572753906 30.086124420166016 0.11804863810539246
v 17.157730102539062 40.7599983215332 0.1180567592382431
v 5.321638584136963 39.5735969543457 0.11805586516857147
v 5.713494300842285 -1.2823677479900653e-06 0.11806894838809967
v 34.350791931152344 -21.616594314575195 0.11808603256940842
v 36.7274284362793 -1.2823677479900653e-06 0.1180768832564354
v 25.063753128051758 -1.2823677479900653e-06 0.11807414144277573
v 28.99382209777832 -36.77566146850586 0.11809495836496353
v -16.222999572753906 -30.08612823486328 0.11808221787214279
v -39.71200180053711 -13.942037582397461 0.11806738376617432
v -44.398712158203125 -1.2823677479900653e-06 0.11805770546197891
v 17.157730102539062 -40.7599983215332 0.1180940642952919
v 5.321638584136963 -39.5735969543457 0.11808943748474121
v 25.063753128051758 -1.2823677479900653e-06 0.11807414144277573
v 34.350791931152344 21.61659049987793 0.11806738376617432
v 28.99382209777832 36.77566146850586 0.11805951595306396
v -16.222999572753906 30.086124420166016 0.11804863810539246
v -39.71200180053711 13.942035675048828 0.11805059760808945
v 17.157730102539062 40.7599983215332 0.1180567592382431
v 5.321638584136963 39.5735969543457 0.11805586516857147
vt 0.5664969682693481 0.1420232653617859
vt 0.5822020769119263 0.15530115365982056
vt 0.5851007699966431 0.18116801977157593
vt 0.5585459470748901 0.23103195428848267
vt 0.5441017150878906 0.24597936868667603
vt 0.5131349563598633 0.24718493223190308
vt 0.5244021415710449 0.23143655061721802
vt 0.5020013451576233 0.23143655061721802
vt 0.5132018327713013 0.21400612592697144
vt 0.5244021415710449 0.23143655061721802
vt 0.5132018327713013 0.21400612592697144
vt 0.5020013451576233 0.23143655061721802
vt 0.5132018327713013 0.21400612592697144
vt 0.5522990226745605 0.1420232653617859
vt 0.5359045267105103 0.1420232653617859
vt 0.5580474138259888 0.15530115365982056
vt 0.530156135559082 0.15530115365982056
vt 0.5060014724731445 0.15530115365982056
vt 0.5595583915710449 0.16823464632034302
vt 0.5863299369812012 0.16823464632034302
vt 0.5286452770233154 0.16823464632034302
vt 0.5018736720085144 0.16823464632034302
vt 0.5591084361076355 0.18116801977157593
vt 0.5555107593536377 0.2047101855278015
vt 0.5752716064453125 0.2047101855278015
vt 0.5290951728820801 0.18116801977157593
vt 0.5326929092407227 0.2047101855278015
vt 0.5031027793884277 0.18116801977157593
vt 0.5129319429397583 0.2047101855278015
vt 0.5493887662887573 0.23103195428848267
vt 0.5388148427009583 0.23103183507919312
vt 0.5359045267105103 0.1420232653617859
vt 0.5217065811157227 0.1420232653617859
vt 0.5522991418838501 0.1420232653617859
vt 0.530156135559082 0.15530115365982056
vt 0.5580475330352783 0.15530115365982056
vt 0.5286452770233154 0.16823464632034302
vt 0.5595583915710449 0.16823464632034302
vt 0.5290951728820801 0.18116801977157593
vt 0.5326929092407227 0.2047101855278015
vt 0.5591084361076355 0.18116801977157593
vt 0.5555107593536377 0.2047101855278015
vt 0.538814902305603 0.23103195428848267
vt 0.5296576023101807 0.23103183507919312
vt 0.5493887662887573 0.23103183507919312
vt 0.5585460662841797 0.23103183507919312
vt 0.5893380045890808 0.20747333765029907
vt 0.5441017150878906 0.12807148694992065
vt 0.5893380045890808 0.15904492139816284
vt 0.5664970278739929 0.1420232653617859
vt 0.5822020769119263 0.15530115365982056
vt 0.5752716064453125 0.2047101855278015
vt 0.5863299369812012 0.16823464632034302
vt 0.5851008296012878 0.18116801977157593
vt 0.5893380045890808 0.18174225091934204
vt 0.6080487966537476 0.14815133810043335
vt 0.5893380045890808 0.14536362886428833
vt 0.5893380045890808 0.15904492139816284
vt 0.621170163154602 0.15443485975265503
vt 0.615379810333252 0.20747333765029907
vt 0.6014058589935303 0.23502546548843384
vt 0.5893380045890808 0.24052280187606812
vt 0.6246190071105957 0.16831845045089722
vt 0.623591959476471 0.18220192193984985
vt 0.5893380045890808 0.15904492139816284
vt 0.6080487966537476 0.14815133810043335
vt 0.621170163154602 0.15443485975265503
vt 0.615379810333252 0.20747333765029907
vt 0.6014058589935303 0.23502546548843384
vt 0.6246190071105957 0.16831845045089722
vt 0.623591959476471 0.18220192193984985
vn 0.9632998108863831 -0.2592817544937134 -0.06947401911020279
vn 0.6941384077072144 -0.6953136324882507 -0.18630845844745636
vn -0.2961357533931732 -0.9226001501083374 -0.2472095489501953
vn -0.7901062369346619 -0.592083215713501 -0.1586492359638214
vn -0.9757964015007019 -6.928143392315178e-08 -0.21868102252483368
vn 0.9617172479629517 0.05420553311705589 0.268629252910614
vn 0.9214270114898682 -0.3535339832305908 -0.1612023562192917
vn 0.9124398827552795 0.35008594393730164 0.21188043057918549
vn 0.9124725461006165 0.35432398319244385 0.20456922054290771
vn 0.9326424598693848 0.13894519209861755 0.33297497034072876
vn 0.8951939940452576 -0.005345548037439585 0.4456446170806885
vn 0.9095120429992676 0.02112049236893654 0.41514071822166443
vn 0.9713186621665955 -0.20592471957206726 0.11889104545116425
vn 0.969368040561676 -0.20316822826862335 -0.13801558315753937
vn 0.9693681001663208 -0.10694065690040588 -0.22110898792743683
vn 0.7051014304161072 -0.643211305141449 -0.2985149919986725
vn 0.7051010727882385 -0.407780259847641 -0.5801273584365845
vn 0.7051011323928833 -0.06308387219905853 -0.7062951326370239
vn 0.11205818504095078 -0.8129580020904541 -0.5714387893676758
vn 0.10871150344610214 -0.9602012038230896 -0.25728484988212585
vn 0.11205779016017914 -0.41832301020622253 -0.901359498500824
vn 0.11205816268920898 0.08840163052082062 -0.9897616505622864
vn -0.2549177408218384 -0.8391031622886658 -0.4805445373058319
vn -0.4870701730251312 -0.7582847476005554 -0.4333208203315735
vn -0.5010843276977539 -0.8359107375144958 -0.22398151457309723
vn -0.2549176812171936 -0.4864124059677124 -0.8357152342796326
vn -0.48706984519958496 -0.44003334641456604 -0.7544094324111938
vn -0.25491783022880554 -0.003388097509741783 -0.9669567942619324
vn -0.4870697557926178 -0.0038748502265661955 -0.8733544945716858
vn -0.7576207518577576 -0.586863100528717 -0.2856615483760834
vn -0.7576208114624023 -0.3654085397720337 -0.5408209562301636
vn 0.969368040561676 0.1380157470703125 -0.20316806435585022
vn 0.9693681001663208 0.017941754311323166 -0.24495629966259003
vn 0.9693681001663208 0.22110919654369354 -0.10694035142660141
vn 0.7051013112068176 0.298515260219574 -0.643211305141449
vn 0.7051010727882385 0.580127477645874 -0.4077800512313843
vn 0.11205827444791794 0.5714387893676758 -0.8129580020904541
vn 0.1120578944683075 0.901359498500824 -0.41832298040390015
vn -0.25491759181022644 0.4805443584918976 -0.8391031622886658
vn -0.48707008361816406 0.4333208501338959 -0.7582847476005554
vn -0.25491786003112793 0.8357151746749878 -0.4864124059677124
vn -0.4870700240135193 0.7544093728065491 -0.4400332570075989
vn -0.7576207518577576 0.2856615483760834 -0.586863100528717
vn -0.7576209306716919 -0.04604187235236168 -0.6510688662528992
vn -0.7576208710670471 0.5408208966255188 -0.3654085695743561
vn -0.7167770862579346 0.6735421419143677 -0.18047606945037842
vn -2.609482976367872e-07 5.355737471290922e-07 1.0
vn 0.9973247051239014 -1.5829760968699702e-07 -0.07310010492801666
vn -2.0350718443751248e-07 4.7060908059393114e-07 1.0
vn 0.9732017517089844 0.22211825847625732 -0.05951502546668053
vn 0.6941383481025696 0.6953136324882507 -0.1863085925579071
vn -0.44698917865753174 0.8640587329864502 -0.23152372241020203
vn 0.108711376786232 0.9602011442184448 -0.257285475730896
vn -0.19675731658935547 0.9470438957214355 -0.25376051664352417
vn -2.1057961419046478e-07 4.424125279456348e-07 1.0
vn -9.281365720426038e-08 5.102174895910139e-07 1.0
vn -2.3507287494339835e-07 4.3135389660164947e-07 1.0
vn -2.0350718443751248e-07 4.7060908059393114e-07 1.0
vn -1.5915138362743164e-07 5.507700393536652e-07 1.0
vn -1.6859391394064005e-07 5.581844675361936e-07 1.0
vn -2.609219791338546e-07 5.801375664304942e-07 1.0
vn -2.739523381478648e-07 6.019980673954706e-07 1.0
vn -2.986012077599298e-07 5.323514074007107e-07 1.0
vn -1.962071536354415e-07 5.328739689502981e-07 1.0
vn -2.0350718443751248e-07 4.7060908059393114e-07 1.0
vn -2.4933663667070505e-07 4.1973663655880955e-07 1.0
vn -2.1759763058071258e-07 3.9506974758296565e-07 1.0
vn -4.405956417485868e-07 5.579368576036359e-07 1.0
vn -2.8700128495984245e-07 5.7992122037831e-07 1.0
vn -1.146947141705823e-07 3.3124985066024237e-07 1.0
vn -2.8345351665848284e-07 4.0549352320340404e-07 1.0
f 47/47/47 55/55/55 71/71/71
f 71/71/71 68/68/68 47/47/47
f 55/55/55 65/65/65 67/67/67
f 67/67/67 70/70/70 55/55/55
f 70/70/70 71/71/71 55/55/55
f 69/69/69 62/62/62 47/47/47
f 68/68/68 69/69/69 47/47/47
f 66/66/66 67/67/67 58/58/58
f 66/66/66 49/49/49 57/57/57
f 47/47/47 60/60/60 64/64/64
f 64/64/64 55/55/55 47/47/47
f 55/55/55 63/63/63 59/59/59
f 59/59/59 65/65/65 55/55/55
f 63/63/63 55/55/55 64/64/64
f 61/61/61 47/47/47 62/62/62
f 60/60/60 47/47/47 61/61/61
f 56/56/56 58/58/58 59/59/59
f 56/56/56 57/57/57 49/49/49
f 38/38/38 41/41/41 54/54/54
f 54/54/54 53/53/53 38/38/38
f 37/37/37 39/39/39 41/41/41
f 41/41/41 38/38/38 37/37/37
f 22/22/22 28/28/28 39/39/39
f 39/39/39 37/37/37 22/22/22
f 45/45/45 5/5/5 46/46/46
f 43/43/43 5/5/5 45/45/45
f 44/44/44 5/5/5 43/43/43
f 46/46/46 52/52/52 42/42/42
f 42/42/42 45/45/45 46/46/46
f 45/45/45 42/42/42 40/40/40
f 40/40/40 43/43/43 45/45/45
f 43/43/43 40/40/40 29/29/29
f 29/29/29 44/44/44 43/43/43
f 52/52/52 54/54/54 41/41/41
f 41/41/41 42/42/42 52/52/52
f 42/42/42 41/41/41 39/39/39
f 39/39/39 40/40/40 42/42/42
f 40/40/40 39/39/39 28/28/28
f 28/28/28 29/29/29 40/40/40
f 38/38/38 53/53/53 51/51/51
f 51/51/51 36/36/36 38/38/38
f 37/37/37 38/38/38 36/36/36
f 36/36/36 35/35/35 37/37/37
f 22/22/22 37/37/37 35/35/35
f 35/35/35 18/18/18 22/22/22
f 34/34/34 36/36/36 51/51/51
f 51/51/51 50/50/50 34/34/34
f 32/32/32 35/35/35 36/36/36
f 36/36/36 34/34/34 32/32/32
f 33/33/33 18/18/18 35/35/35
f 35/35/35 32/32/32 33/33/33
f 48/48/48 34/34/34 50/50/50
f 48/48/48 32/32/32 34/34/34
f 48/48/48 33/33/33 32/32/32
f 21/21/21 26/26/26 28/28/28
f 28/28/28 22/22/22 21/21/21
f 19/19/19 23/23/23 26/26/26
f 26/26/26 21/21/21 19/19/19
f 20/20/20 3/3/3 23/23/23
f 23/23/23 19/19/19 20/20/20
f 31/31/31 5/5/5 44/44/44
f 30/30/30 5/5/5 31/31/31
f 4/4/4 5/5/5 30/30/30
f 44/44/44 29/29/29 27/27/27
f 27/27/27 31/31/31 44/44/44
f 31/31/31 27/27/27 24/24/24
f 24/24/24 30/30/30 31/31/31
f 30/30/30 24/24/24 25/25/25
f 25/25/25 4/4/4 30/30/30
f 29/29/29 28/28/28 26/26/26
f 26/26/26 27/27/27 29/29/29
f 27/27/27 26/26/26 23/23/23
f 23/23/23 24/24/24 27/27/27
f 24/24/24 23/23/23 3/3/3
f 3/3/3 25/25/25 24/24/24
f 21/21/21 22/22/22 18/18/18
f 18/18/18 17/17/17 21/21/21
f 19/19/19 21/21/21 17/17/17
f 17/17/17 16/16/16 19/19/19
f 20/20/20 19/19/19 16/16/16
f 16/16/16 2/2/2 20/20/20
f 15/15/15 17/17/17 18/18/18
f 18/18/18 33/33/33 15/15/15
f 14/14/14 16/16/16 17/17/17
f 17/17/17 15/15/15 14/14/14
f 1/1/1 2/2/2 16/16/16
f 16/16/16 14/14/14 1/1/1
f 48/48/48 15/15/15 33/33/33
f 48/48/48 14/14/14 15/15/15
f 48/48/48 1/1/1 14/14/14
f 6/6/6 13/13/13 7/7/7
f 6/6/6 12/12/12 13/13/13
f 6/6/6 11/11/11 12/12/12
f 6/6/6 10/10/10 11/11/11
f 6/6/6 9/9/9 10/10/10
f 6/6/6 8/8/8 9/9/9
