# Recovered local-space geometry; original node transforms not applied
o mesh_0
v 61.72675704956055 20.059131622314453 16.293378829956055
v 45.73426818847656 6.72783899307251 16.305126190185547
v 52.03253173828125 -3.1553927328786813e-06 33.86975860595703
v 46.10342788696289 -9.2855806350708 14.664887428283691
v 47.153255462646484 -29.872602462768555 17.17577362060547
v 39.110565185546875 -0.22732847929000854 0.0980195552110672
v 46.03370666503906 -17.267475128173828 1.3318326473236084
v 42.72743225097656 -9.75643160927575e-07 0.11806157976388931
v 40.17435073852539 19.971412658691406 11.64853286743164
v 40.17434310913086 23.060991287231445 0.11805276572704315
v 40.17436218261719 11.530506134033203 20.089458465576172
v 40.17434310913086 -2.013372977671679e-06 23.179044723510742
v 32.99809646606445 35.71833419799805 20.74003791809082
v 32.99808120727539 41.243988037109375 0.11804758012294769
v 32.99808120727539 20.621994018554688 35.836387634277344
v 32.998077392578125 2.9171642381697893e-06 41.362056732177734
v 17.80865478515625 40.46468734741211 23.480327606201172
v 17.808643341064453 23.362295150756836 40.582725524902344
v 17.808635711669922 8.69353607413359e-06 46.84264373779297
v 3.831373929977417 39.30507278442383 22.81082534790039
v -19.105356216430664 30.61267852783203 17.79224967956543
v 3.831369400024414 22.692798614501953 39.423095703125
v -19.10536003112793 17.67424964904785 30.73072624206543
v 3.831359624862671 1.582253389642574e-05 45.503623962402344
v -19.105369567871094 1.9567289200494997e-05 35.46649169921875
v -44.352840423583984 15.367637634277344 8.990548133850098
v -44.35284423828125 8.872523307800293 15.485668182373047
v -44.35285186767578 2.9540688046836294e-05 17.86304473876953
v 40.174339294433594 -11.530492782592773 20.08946990966797
v 40.17435073852539 -19.971412658691406 11.64854621887207
v 40.17433547973633 -23.060993194580078 0.11806211620569229
v 32.99808120727539 -20.621994018554688 35.83637619018555
v 32.9980583190918 -35.71835708618164 20.740039825439453
v 32.99806594848633 -41.24400329589844 0.11807391792535782
v 17.808637619018555 -23.36227798461914 40.582733154296875
v 17.808618545532227 -40.46467971801758 23.4803409576416
v 17.808624267578125 -46.72458267211914 0.11808308959007263
v 3.831355333328247 -22.692764282226562 39.423118591308594
v -19.10537338256836 -17.674182891845703 30.730724334716797
v 3.831345796585083 -39.305030822753906 22.810853958129883
v -19.105379104614258 -30.612653732299805 17.792280197143555
v 3.8313469886779785 -45.38557052612305 0.11807186901569366
v -19.10538101196289 -35.34843444824219 0.11807345598936081
v -44.35285186767578 -8.87246322631836 15.485660552978516
v -44.35285186767578 -15.367571830749512 8.99056625366211
v -44.35285568237305 -17.744976043701172 0.11807490885257721
v -50.398712158203125 1.5363935744971968e-05 0.11805747449398041
v 45.701271057128906 17.395000457763672 -2.2337257862091064
v 54.65899658203125 -28.91083526611328 -16.573562622070312
v 46.143131256103516 -8.860825538635254 -14.6563720703125
v 55.437583923339844 -1.2860273122787476 -31.274742126464844
v 46.00447082519531 9.814102172851562 -14.167434692382812
v 47.716094970703125 29.801176071166992 -17.08768653869629
v 40.174339294433594 -19.971424102783203 -11.412406921386719
v 40.17435073852539 -11.53051471710205 -19.85332489013672
v 32.99808120727539 -35.718345642089844 -20.5039005279541
v 32.998069763183594 -20.62200927734375 -35.60026550292969
v 32.998077392578125 -1.7992491848417558e-05 -41.12592315673828
v 17.808635711669922 -40.46468734741211 -23.24419593811035
v 17.80863380432129 -23.362306594848633 -40.346595764160156
v 17.808637619018555 -1.86240049515618e-05 -46.60651397705078
v 3.8313584327697754 -39.3050651550293 -22.574689865112305
v -19.105369567871094 -30.61266326904297 -17.556133270263672
v 3.8313615322113037 -22.692806243896484 -39.18695831298828
v -19.10536766052246 -17.674236297607422 -30.49459457397461
v 3.831362724304199 -2.0947831217199564e-05 -45.26749801635742
v -19.105369567871094 -1.6861096810316667e-05 -35.230377197265625
v -44.35285568237305 -15.367607116699219 -8.75442123413086
v -44.35284423828125 -8.872506141662598 -15.249544143676758
v 40.174346923828125 11.530485153198242 -19.85334587097168
v 40.17434310913086 -7.850905603845604e-06 -22.942920684814453
v 40.174354553222656 19.97140121459961 -11.41243839263916
v 32.998085021972656 20.621980667114258 -35.60026931762695
v 32.998069763183594 35.71833801269531 -20.50393295288086
v 17.80864143371582 23.362266540527344 -40.34661865234375
v 17.808631896972656 40.46467208862305 -23.244234085083008
v 3.831362009048462 22.692758560180664 -39.18699645996094
v -19.105365753173828 17.674198150634766 -30.494600296020508
v 3.831355571746826 39.305030822753906 -22.574735641479492
v -19.10536766052246 30.612659454345703 -17.556171417236328
v -44.35285568237305 8.872483253479004 -15.24954605102539
v -44.35285949707031 -1.0132681381946895e-05 -17.626930236816406
v -44.352848052978516 15.36760139465332 -8.754447937011719
v -44.352848052978516 17.745004653930664 0.11804535984992981
v -19.105369567871094 35.34844207763672 0.11804260313510895
v 17.808637619018555 46.72459030151367 0.11805469542741776
v 3.8313608169555664 45.38557434082031 0.11804744601249695
vt 0.44111737608909607 0.5943683385848999
vt 0.4410780072212219 0.594429612159729
vt 0.44111737608909607 0.5943683385848999
vt 0.44115668535232544 0.594429612159729
vt 0.44111737608909607 0.5943683385848999
vt 0.4411171078681946 0.5944849252700806
vt 0.4410780072212219 0.594429612159729
vt 0.4412273168563843 0.5940665006637573
vt 0.4412561058998108 0.5941154956817627
vt 0.4413059651851654 0.5941154956817627
vt 0.44119852781295776 0.5941154956817627
vt 0.44114866852760315 0.5941154956817627
vt 0.44127631187438965 0.5941621661186218
vt 0.44136112928390503 0.5941621661186218
vt 0.4411783218383789 0.5941621661186218
vt 0.4410935044288635 0.5941621661186218
vt 0.44128158688545227 0.5942076444625854
vt 0.4411730468273163 0.5942076444625854
vt 0.4410789906978607 0.5942076444625854
vt 0.4412800371646881 0.5942530632019043
vt 0.4412674009799957 0.594335675239563
vt 0.44117459654808044 0.5942530632019043
vt 0.4411872327327728 0.594335675239563
vt 0.44108331203460693 0.5942530632019043
vt 0.4411178529262543 0.594335675239563
vt 0.4412458837032318 0.5944281816482544
vt 0.44120875000953674 0.5944281816482544
vt 0.4411765933036804 0.5944281816482544
vt 0.44119852781295776 0.5941154956817627
vt 0.4412561058998108 0.5941154956817627
vt 0.4413059651851654 0.5941154956817627
vt 0.4411783218383789 0.5941621661186218
vt 0.44127631187438965 0.5941621661186218
vt 0.44136112928390503 0.5941621661186218
vt 0.4411730468273163 0.5942076444625854
vt 0.44128158688545227 0.5942076444625854
vt 0.44137564301490784 0.5942076444625854
vt 0.44117459654808044 0.5942530632019043
vt 0.4411872327327728 0.594335675239563
vt 0.4412800371646881 0.5942530632019043
vt 0.4412674009799957 0.594335675239563
vt 0.4413713216781616 0.5942530632019043
vt 0.4413367807865143 0.594335675239563
vt 0.44120875000953674 0.5944281816482544
vt 0.4412458837032318 0.5944281816482544
vt 0.44127804040908813 0.5944281816482544
vt 0.4412273168563843 0.5944806337356567
vt 0.44115668535232544 0.594429612159729
vt 0.4411185681819916 0.5943735837936401
vt 0.441157728433609 0.5944344997406006
vt 0.4411185681819916 0.5943735837936401
vt 0.44107940793037415 0.5944344997406006
vt 0.4411185681819916 0.5943735837936401
vt 0.44125524163246155 0.5941219329833984
vt 0.44119793176651 0.5941219329833984
vt 0.44127532839775085 0.5941684246063232
vt 0.4411778450012207 0.5941684246063232
vt 0.441093385219574 0.5941684246063232
vt 0.44128063321113586 0.594213604927063
vt 0.4411725699901581 0.594213604927063
vt 0.44107896089553833 0.594213604927063
vt 0.4412790536880493 0.5942587852478027
vt 0.4412664771080017 0.5943411588668823
vt 0.44117411971092224 0.5942587852478027
vt 0.44118669629096985 0.5943411588668823
vt 0.44108325242996216 0.5942587852478027
vt 0.44111761450767517 0.5943411588668823
vt 0.44124504923820496 0.594433069229126
vt 0.4412080943584442 0.594433069229126
vt 0.44119793176651 0.5941219329833984
vt 0.4411482810974121 0.5941219329833984
vt 0.44125524163246155 0.5941219329833984
vt 0.4411778450012207 0.5941684246063232
vt 0.44127532839775085 0.5941684246063232
vt 0.4411725699901581 0.594213604927063
vt 0.44128063321113586 0.594213604927063
vt 0.44117411971092224 0.5942587852478027
vt 0.44118669629096985 0.5943411588668823
vt 0.4412790536880493 0.5942587852478027
vt 0.4412664771080017 0.5943411588668823
vt 0.4412080943584442 0.594433069229126
vt 0.44117608666419983 0.594433069229126
vt 0.44124504923820496 0.594433069229126
vt 0.44127804040908813 0.5944281816482544
vt 0.4413367807865143 0.594335675239563
vt 0.44137564301490784 0.5942076444625854
vt 0.4413713216781616 0.5942530632019043
vn -0.7442881464958191 0.6064652800559998 0.2797054946422577
vn -0.8741634488105774 0.4583147466182709 0.16058042645454407
vn -0.9330036640167236 -0.04305604100227356 0.3572818636894226
vn -0.9152888059616089 -0.06818801909685135 0.39698463678359985
vn -0.9734293818473816 -0.20246315002441406 0.10697613656520844
vn -0.9994242787361145 0.03068944439291954 -0.014465711079537868
vn -0.8995378613471985 -0.38094842433929443 -0.21379932761192322
vn -1.0 2.004683494760684e-07 5.9369924088059634e-08
vn -0.9637108445167542 -0.2206459790468216 -0.15025557577610016
vn -0.9637109041213989 -0.26621270179748535 -0.019802654162049294
vn -0.9637109041213989 -0.11595660448074341 -0.2404482364654541
vn -0.9637109637260437 0.019803378731012344 -0.26621273159980774
vn -0.6993361115455627 -0.648369312286377 -0.3009091019630432
vn -0.6993358731269836 -0.7119590640068054 0.06358989328145981
vn -0.6993356943130493 -0.41105014085769653 -0.5847797989845276
vn -0.6993357539176941 -0.06358934193849564 -0.711959183216095
vn -0.12496500462293625 -0.8116974830627441 -0.5705532431602478
vn -0.12496448308229446 -0.4176744222640991 -0.8999621868133545
vn -0.12496449798345566 0.08826500922441483 -0.9882273077964783
vn 0.25167223811149597 -0.8398285508155823 -0.48098766803741455
vn 0.48901137709617615 -0.7574463486671448 -0.4326002299785614
vn 0.2516721189022064 -0.4868188202381134 -0.8364619612693787
vn 0.4890111982822418 -0.43966713547706604 -0.7533663511276245
vn 0.2516728639602661 -0.003367040306329727 -0.9678065180778503
vn 0.48901131749153137 -0.004079492762684822 -0.87226802110672
vn 0.7591928839683533 -0.5851497054100037 -0.2850017547607422
vn 0.7591930627822876 -0.36425384879112244 -0.5393931865692139
vn 0.7591931223869324 -0.04575565829873085 -0.6492551565170288
vn -0.9637107849121094 0.15025608241558075 -0.22064603865146637
vn -0.9637108445167542 0.24044853448867798 -0.11595670878887177
vn -0.9637108445167542 0.2662128508090973 0.019802937284111977
vn -0.6993357539176941 0.30090969800949097 -0.6483694314956665
vn -0.6993353962898254 0.5847800970077515 -0.4110502004623413
vn -0.6993354558944702 0.7119595408439636 -0.06358963251113892
vn -0.12496473640203476 0.5705532431602478 -0.8116974830627441
vn -0.12496401369571686 0.8999623656272888 -0.4176744520664215
vn -0.1249644011259079 0.9882273077964783 0.08826474100351334
vn 0.25167256593704224 0.48098763823509216 -0.8398284316062927
vn 0.4890117943286896 0.432600200176239 -0.7574462294578552
vn 0.25167274475097656 0.83646160364151 -0.4868190586566925
vn 0.4890116751194 0.7533659338951111 -0.43966734409332275
vn 0.2516729235649109 0.9678065180778503 -0.003366892458871007
vn 0.48901164531707764 0.8722678422927856 -0.00407982524484396
vn 0.7591931223869324 0.2850017249584198 -0.5851494073867798
vn 0.7591933012008667 0.5393927097320557 -0.3642541170120239
vn 0.7591935396194458 0.6492547392845154 -0.04575667530298233
vn 1.0 -1.1822541523542895e-07 -1.5669293418341113e-07
vn -0.8434973955154419 0.3673214018344879 0.39190196990966797
vn -0.9054332375526428 -0.37256231904029846 -0.203440323472023
vn -0.9237861633300781 -0.15151476860046387 -0.3516569137573242
vn -0.8868152499198914 0.012771924026310444 -0.46194759011268616
vn -0.896164059638977 -0.014771653339266777 -0.44347697496414185
vn -0.9703559875488281 0.2032158523797989 -0.1308158040046692
vn -0.9637109041213989 0.2206462174654007 0.15025562047958374
vn -0.9637108445167542 0.11595706641674042 0.2404482215642929
vn -0.6993356943130493 0.6483697295188904 0.3009090721607208
vn -0.699335515499115 0.4110504686832428 0.5847797393798828
vn -0.6993357539176941 0.06358987092971802 0.7119592428207397
vn -0.12496455013751984 0.811697781085968 0.5705528855323792
vn -0.12496420741081238 0.41767463088035583 0.8999621272087097
vn -0.12496452778577805 -0.08826453238725662 0.9882274270057678
vn 0.25167229771614075 0.839828610420227 0.4809877276420593
vn 0.48901158571243286 0.7574461698532104 0.4326005280017853
vn 0.2516723871231079 0.48681914806365967 0.8364616632461548
vn 0.48901116847991943 0.43966731429100037 0.7533662915229797
vn 0.2516726851463318 0.0033670812845230103 0.9678065776824951
vn 0.48901107907295227 0.004079542122781277 0.87226802110672
vn 0.7591931819915771 0.5851494073867798 0.2850015461444855
vn 0.7591931819915771 0.36425402760505676 0.5393931269645691
vn -0.9637109041213989 -0.15025582909584045 0.22064606845378876
vn -0.9637109637260437 -0.019802769646048546 0.2662127614021301
vn -0.9637108445167542 -0.24044832587242126 0.11595694720745087
vn -0.6993358731269836 -0.3009091317653656 0.648369550704956
vn -0.699335515499115 -0.5847798585891724 0.41105031967163086
vn -0.12496457248926163 -0.5705529451370239 0.8116978406906128
vn -0.12496426701545715 -0.8999621272087097 0.41767463088035583
vn 0.2516724169254303 -0.48098742961883545 0.839828610420227
vn 0.48901134729385376 -0.43260037899017334 0.7574462294578552
vn 0.251672625541687 -0.83646160364151 0.48681914806365967
vn 0.4890112280845642 -0.7533661127090454 0.4396674931049347
vn 0.759192943572998 -0.28500208258628845 0.5851495265960693
vn 0.7591931819915771 0.04575595259666443 0.6492550373077393
vn 0.7591930627822876 -0.5393930673599243 0.3642541170120239
vn 0.7591930627822876 -0.6492551565170288 0.04575633257627487
vn 0.4890112280845642 -0.8722680807113647 0.0040799095295369625
vn -0.12496482580900192 -0.988227367401123 -0.08826468139886856
vn 0.2516729235649109 -0.9678065180778503 0.0033671362325549126
f 76/76/76 86/86/86 87/87/87
f 87/87/87 79/79/79 76/76/76
f 75/75/75 76/76/76 79/79/79
f 79/79/79 77/77/77 75/75/75
f 61/61/61 75/75/75 77/77/77
f 77/77/77 66/66/66 61/61/61
f 83/83/83 84/84/84 47/47/47
f 81/81/81 83/83/83 47/47/47
f 82/82/82 81/81/81 47/47/47
f 84/84/84 83/83/83 80/80/80
f 80/80/80 85/85/85 84/84/84
f 83/83/83 81/81/81 78/78/78
f 78/78/78 80/80/80 83/83/83
f 81/81/81 82/82/82 67/67/67
f 67/67/67 78/78/78 81/81/81
f 85/85/85 80/80/80 79/79/79
f 79/79/79 87/87/87 85/85/85
f 80/80/80 78/78/78 77/77/77
f 77/77/77 79/79/79 80/80/80
f 78/78/78 67/67/67 66/66/66
f 66/66/66 77/77/77 78/78/78
f 76/76/76 74/74/74 14/14/14
f 14/14/14 86/86/86 76/76/76
f 75/75/75 73/73/73 74/74/74
f 74/74/74 76/76/76 75/75/75
f 61/61/61 58/58/58 73/73/73
f 73/73/73 75/75/75 61/61/61
f 72/72/72 10/10/10 14/14/14
f 14/14/14 74/74/74 72/72/72
f 70/70/70 72/72/72 74/74/74
f 74/74/74 73/73/73 70/70/70
f 71/71/71 70/70/70 73/73/73
f 73/73/73 58/58/58 71/71/71
f 8/8/8 10/10/10 72/72/72
f 8/8/8 72/72/72 70/70/70
f 8/8/8 70/70/70 71/71/71
f 60/60/60 61/61/61 66/66/66
f 66/66/66 64/64/64 60/60/60
f 59/59/59 60/60/60 64/64/64
f 64/64/64 62/62/62 59/59/59
f 37/37/37 59/59/59 62/62/62
f 62/62/62 42/42/42 37/37/37
f 69/69/69 82/82/82 47/47/47
f 68/68/68 69/69/69 47/47/47
f 46/46/46 68/68/68 47/47/47
f 82/82/82 69/69/69 65/65/65
f 65/65/65 67/67/67 82/82/82
f 69/69/69 68/68/68 63/63/63
f 63/63/63 65/65/65 69/69/69
f 68/68/68 46/46/46 43/43/43
f 43/43/43 63/63/63 68/68/68
f 67/67/67 65/65/65 64/64/64
f 64/64/64 66/66/66 67/67/67
f 65/65/65 63/63/63 62/62/62
f 62/62/62 64/64/64 65/65/65
f 63/63/63 43/43/43 42/42/42
f 42/42/42 62/62/62 63/63/63
f 60/60/60 57/57/57 58/58/58
f 58/58/58 61/61/61 60/60/60
f 59/59/59 56/56/56 57/57/57
f 57/57/57 60/60/60 59/59/59
f 37/37/37 34/34/34 56/56/56
f 56/56/56 59/59/59 37/37/37
f 55/55/55 71/71/71 58/58/58
f 58/58/58 57/57/57 55/55/55
f 54/54/54 55/55/55 57/57/57
f 57/57/57 56/56/56 54/54/54
f 31/31/31 54/54/54 56/56/56
f 56/56/56 34/34/34 31/31/31
f 8/8/8 71/71/71 55/55/55
f 8/8/8 55/55/55 54/54/54
f 8/8/8 54/54/54 31/31/31
f 6/6/6 48/48/48 53/53/53
f 6/6/6 53/53/53 52/52/52
f 6/6/6 52/52/52 51/51/51
f 6/6/6 51/51/51 50/50/50
f 6/6/6 50/50/50 49/49/49
f 6/6/6 49/49/49 7/7/7
f 36/36/36 37/37/37 42/42/42
f 42/42/42 40/40/40 36/36/36
f 35/35/35 36/36/36 40/40/40
f 40/40/40 38/38/38 35/35/35
f 19/19/19 35/35/35 38/38/38
f 38/38/38 24/24/24 19/19/19
f 45/45/45 46/46/46 47/47/47
f 44/44/44 45/45/45 47/47/47
f 28/28/28 44/44/44 47/47/47
f 46/46/46 45/45/45 41/41/41
f 41/41/41 43/43/43 46/46/46
f 45/45/45 44/44/44 39/39/39
f 39/39/39 41/41/41 45/45/45
f 44/44/44 28/28/28 25/25/25
f 25/25/25 39/39/39 44/44/44
f 43/43/43 41/41/41 40/40/40
f 40/40/40 42/42/42 43/43/43
f 41/41/41 39/39/39 38/38/38
f 38/38/38 40/40/40 41/41/41
f 39/39/39 25/25/25 24/24/24
f 24/24/24 38/38/38 39/39/39
f 36/36/36 33/33/33 34/34/34
f 34/34/34 37/37/37 36/36/36
f 35/35/35 32/32/32 33/33/33
f 33/33/33 36/36/36 35/35/35
f 19/19/19 16/16/16 32/32/32
f 32/32/32 35/35/35 19/19/19
f 30/30/30 31/31/31 34/34/34
f 34/34/34 33/33/33 30/30/30
f 29/29/29 30/30/30 33/33/33
f 33/33/33 32/32/32 29/29/29
f 12/12/12 29/29/29 32/32/32
f 32/32/32 16/16/16 12/12/12
f 8/8/8 31/31/31 30/30/30
f 8/8/8 30/30/30 29/29/29
f 8/8/8 29/29/29 12/12/12
f 18/18/18 19/19/19 24/24/24
f 24/24/24 22/22/22 18/18/18
f 17/17/17 18/18/18 22/22/22
f 22/22/22 20/20/20 17/17/17
f 86/86/86 17/17/17 20/20/20
f 20/20/20 87/87/87 86/86/86
f 27/27/27 28/28/28 47/47/47
f 26/26/26 27/27/27 47/47/47
f 84/84/84 26/26/26 47/47/47
f 28/28/28 27/27/27 23/23/23
f 23/23/23 25/25/25 28/28/28
f 27/27/27 26/26/26 21/21/21
f 21/21/21 23/23/23 27/27/27
f 26/26/26 84/84/84 85/85/85
f 85/85/85 21/21/21 26/26/26
f 25/25/25 23/23/23 22/22/22
f 22/22/22 24/24/24 25/25/25
f 23/23/23 21/21/21 20/20/20
f 20/20/20 22/22/22 23/23/23
f 21/21/21 85/85/85 87/87/87
f 87/87/87 20/20/20 21/21/21
f 18/18/18 15/15/15 16/16/16
f 16/16/16 19/19/19 18/18/18
f 17/17/17 13/13/13 15/15/15
f 15/15/15 18/18/18 17/17/17
f 86/86/86 14/14/14 13/13/13
f 13/13/13 17/17/17 86/86/86
f 11/11/11 12/12/12 16/16/16
f 16/16/16 15/15/15 11/11/11
f 9/9/9 11/11/11 15/15/15
f 15/15/15 13/13/13 9/9/9
f 10/10/10 9/9/9 13/13/13
f 13/13/13 14/14/14 10/10/10
f 8/8/8 12/12/12 11/11/11
f 8/8/8 11/11/11 9/9/9
f 8/8/8 9/9/9 10/10/10
f 6/6/6 7/7/7 5/5/5
f 6/6/6 5/5/5 4/4/4
f 6/6/6 4/4/4 3/3/3
f 6/6/6 3/3/3 2/2/2
f 6/6/6 2/2/2 1/1/1
f 6/6/6 1/1/1 48/48/48
