# Recovered local-space geometry; original node transforms not applied
o mesh_0
v 57.09991455078125 23.457887649536133 17.958465576171875
v 40.547698974609375 9.686140060424805 16.8162899017334
v 46.4069938659668 -1.825940671551507e-06 35.87752151489258
v 40.547698974609375 -9.686168670654297 16.816293716430664
v 41.304847717285156 -31.03676414489746 17.761022567749023
v 33.114906311035156 -1.2099817467969842e-05 0.03936431556940079
v 40.54771041870117 19.372323989868164 0.039359286427497864
v 40.54769515991211 -19.37235450744629 0.039383530616760254
v 36.72743225097656 1.5589157555950806e-06 0.039342209696769714
v 34.35080337524414 18.72052574157715 10.847634315490723
v 34.35080337524414 21.616594314575195 0.03933270275592804
v 34.35081100463867 10.808306694030762 18.759864807128906
v 34.35079574584961 2.390004738117568e-06 21.655941009521484
v 28.99384307861328 31.848649978637695 18.427167892456055
v 28.99383544921875 36.77566146850586 0.03933602571487427
v 28.993833541870117 18.387826919555664 31.88799476623535
v 28.99382781982422 4.263287792127812e-06 36.81501770019531
v 17.157751083374023 35.29920196533203 20.419328689575195
v 17.15774917602539 40.75999450683594 0.039350055158138275
v 17.157745361328125 20.3799991607666 35.33853530883789
v 17.157737731933594 8.402263119933195e-06 40.799346923828125
v 5.321657657623291 39.573604583740234 0.039341703057289124
v 5.321658611297607 34.27175521850586 19.826133728027344
v -16.22298240661621 26.055377960205078 15.0823974609375
v -16.222984313964844 30.086137771606445 0.039334483444690704
v 5.321652889251709 19.78680992126465 34.311073303222656
v -16.22298812866211 15.043091773986816 26.0947265625
v 5.321646690368652 1.254123890248593e-05 39.612945556640625
v -16.222991943359375 2.007520743063651e-05 30.125478744506836
v -39.71198654174805 12.074180603027344 7.010365962982178
v -39.71199035644531 13.94206428527832 0.039349496364593506
v -39.71198654174805 6.971043109893799 12.113510131835938
v -39.711997985839844 2.8289105102885514e-05 13.9813871383667
v -44.39870834350586 2.9928007279522717e-05 0.03935100883245468
v 34.35079574584961 -10.808294296264648 18.759876251220703
v 34.35080337524414 -18.720521926879883 10.847641944885254
v 34.35078811645508 -21.61659049987793 0.03933829814195633
v 28.99382781982422 -18.387826919555664 31.88798713684082
v 28.99381446838379 -31.848665237426758 18.427167892456055
v 28.99381446838379 -36.77566909790039 0.039347223937511444
v 17.157733917236328 -20.37998390197754 35.33854293823242
v 17.157724380493164 -35.2991943359375 20.419340133666992
v 17.1577205657959 -40.75999069213867 0.03936311602592468
v 5.321640968322754 -19.78677749633789 34.31109619140625
v -16.222993850708008 -15.043035507202148 26.094722747802734
v 5.3216328620910645 -34.2717170715332 19.82615852355957
v -16.222999572753906 -26.055362701416016 15.082419395446777
v 5.321629524230957 -39.5735969543457 0.03934543579816818
v -16.223007202148438 -30.086122512817383 0.039358727633953094
v -39.71199417114258 -6.9709858894348145 12.113502502441406
v -39.71199417114258 -12.074124336242676 7.010376930236816
v -39.712005615234375 -13.942008018493652 0.039360687136650085
v 25.063756942749023 5.637599315377884e-06 0.0393487885594368
v -16.222997665405273 2.0075211068615317e-05 0.039338208734989166
v 5.713499069213867 1.2404212611727417e-05 0.0393473282456398
v 34.35080337524414 21.616594314575195 0.03933270275592804
v 36.72743225097656 1.5589157555950806e-06 0.039342209696769714
v 25.063756942749023 5.637599315377884e-06 0.0393487885594368
v 28.99383544921875 36.77566146850586 0.03933602571487427
v -16.222984313964844 30.086137771606445 0.039334483444690704
v -39.71199035644531 13.94206428527832 0.039349496364593506
v -44.39870834350586 2.9928007279522717e-05 0.03935100883245468
v 17.15774917602539 40.75999450683594 0.039350055158138275
v 5.321657657623291 39.573604583740234 0.039341703057289124
v 25.063756942749023 5.637599315377884e-06 0.0393487885594368
v 34.35078811645508 -21.61659049987793 0.03933829814195633
v 28.99381446838379 -36.77566909790039 0.039347223937511444
v -16.223007202148438 -30.086122512817383 0.039358727633953094
v -39.712005615234375 -13.942008018493652 0.039360687136650085
v 17.1577205657959 -40.75999069213867 0.03936311602592468
v 5.321629524230957 -39.5735969543457 0.03934543579816818
vt 0.5128579139709473 0.21251147985458374
vt 0.5016051530838013 0.23002368211746216
vt 0.5128579139709473 0.21251147985458374
vt 0.5241109132766724 0.23002368211746216
vt 0.5128579139709473 0.21251147985458374
vt 0.5127909183502197 0.24584585428237915
vt 0.5241109132766724 0.23002368211746216
vt 0.5016051530838013 0.23002368211746216
vt 0.5443121194839478 0.12617450952529907
vt 0.5525477528572083 0.14019161462783813
vt 0.5668121576309204 0.14019161462783813
vt 0.536076545715332 0.14019161462783813
vt 0.5218120813369751 0.14019161462783813
vt 0.5583231449127197 0.1535317301750183
vt 0.5825909376144409 0.1535317301750183
vt 0.5303011536598206 0.1535317301750183
vt 0.5060334205627441 0.1535317301750183
vt 0.5598411560058594 0.16652578115463257
vt 0.5867380499839783 0.16652578115463257
vt 0.5287833213806152 0.16652578115463257
vt 0.501886248588562 0.16652578115463257
vt 0.5855031609535217 0.17951971292495728
vt 0.5593891143798828 0.17951971292495728
vt 0.5557745695114136 0.20317202806472778
vt 0.5756279230117798 0.20317202806472778
vt 0.5292352437973022 0.17951971292495728
vt 0.5328497886657715 0.20317202806472778
vt 0.5031211376190186 0.17951971292495728
vt 0.5129963159561157 0.20317202806472778
vt 0.5496238470077515 0.22961705923080444
vt 0.5588240623474121 0.22961705923080444
vt 0.5390004515647888 0.22961705923080444
vt 0.529800295829773 0.22961705923080444
vt 0.5443121194839478 0.24463456869125366
vt 0.536076545715332 0.14019161462783813
vt 0.552547812461853 0.14019161462783813
vt 0.56681227684021 0.14019161462783813
vt 0.5303012132644653 0.1535317301750183
vt 0.5583231449127197 0.1535317301750183
vt 0.5825909376144409 0.1535317301750183
vt 0.5287833213806152 0.16652578115463257
vt 0.5598411560058594 0.16652578115463257
vt 0.5867380499839783 0.16652578115463257
vt 0.5292352437973022 0.17951971292495728
vt 0.5328497886657715 0.20317202806472778
vt 0.5593891143798828 0.17951971292495728
vt 0.5557746291160583 0.20317202806472778
vt 0.5855031609535217 0.17951971292495728
vt 0.5756279230117798 0.20317202806472778
vt 0.5390005111694336 0.22961705923080444
vt 0.5496238470077515 0.22961705923080444
vt 0.5588240623474121 0.22961705923080444
vt 0.5895730257034302 0.1576274037361145
vt 0.5895730257034302 0.20628267526626587
vt 0.5895730257034302 0.18043118715286255
vt 0.6083714962005615 0.14668291807174683
vt 0.5895730257034302 0.14388221502304077
vt 0.5895730257034302 0.1576274037361145
vt 0.6215542554855347 0.1529960036277771
vt 0.6157369613647461 0.20628267526626587
vt 0.601697564125061 0.23396390676498413
vt 0.5895730257034302 0.23948699235916138
vt 0.6250192523002625 0.16694456338882446
vt 0.6239874958992004 0.18089300394058228
vt 0.5895730257034302 0.1576274037361145
vt 0.6083714962005615 0.14668291807174683
vt 0.6215542554855347 0.1529960036277771
vt 0.6157369613647461 0.20628267526626587
vt 0.601697564125061 0.23396390676498413
vt 0.6250192523002625 0.16694456338882446
vt 0.6239874958992004 0.18089300394058228
vn 0.7666047215461731 -0.5896721482276917 -0.25417304039001465
vn 0.8658867478370667 -0.4899953603744507 -0.10072100907564163
vn 0.9375893473625183 -3.027118111731397e-07 -0.3477444350719452
vn 0.9258175492286682 0.06575526297092438 -0.3722071349620819
vn 0.9747335314750671 0.19481496512889862 -0.10927785187959671
vn 0.9582330584526062 -0.12881559133529663 -0.2553350627422333
vn 0.7359097599983215 -0.2823549807071686 -0.61539626121521
vn 0.91622394323349 0.35153743624687195 0.19223713874816895
vn 0.9973247051239014 -2.2298887358829234e-07 0.07310020178556442
vn 0.9693681001663208 0.2031678706407547 0.1380157470703125
vn 0.9632998108863831 0.2592814564704895 0.06947409361600876
vn 0.9693682193756104 0.10694022476673126 0.22110913693904877
vn 0.9693681597709656 -0.017942223697900772 0.24495640397071838
vn 0.7051016092300415 0.6432110071182251 0.298515260219574
vn 0.6941385865211487 0.6953133940696716 0.1863085925579071
vn 0.7051012516021729 0.40777984261512756 0.580127477645874
vn 0.7051012516021729 0.06308341026306152 0.7062950730323792
vn 0.11205864697694778 0.812957763671875 0.5714390277862549
vn 0.10871191322803497 0.9602011442184448 0.25728490948677063
vn 0.112058125436306 0.418322890996933 0.901359498500824
vn 0.11205819249153137 -0.08840200304985046 0.9897617101669312
vn -0.2961355745792389 0.9226003289222717 0.24720953404903412
vn -0.2549173831939697 0.8391032814979553 0.4805445373058319
vn -0.4870699942111969 0.7582849264144897 0.43332070112228394
vn -0.5010839700698853 0.835910975933075 0.22398142516613007
vn -0.2549173831939697 0.48641207814216614 0.8357155323028564
vn -0.48706990480422974 0.44003310799598694 0.7544095516204834
vn -0.25491806864738464 0.003388115903362632 0.9669567346572876
vn -0.48706990480422974 0.003874704474583268 0.8733543753623962
vn -0.7576204538345337 0.5868634581565857 0.28566160798072815
vn -0.790105938911438 0.5920836329460144 0.15864919126033783
vn -0.7576207518577576 0.3654085695743561 0.5408210158348083
vn -0.7576209902763367 0.04604154825210571 0.6510688662528992
vn -0.9757964015007019 3.707600058078242e-07 0.21868100762367249
vn 0.9693679809570312 -0.13801604509353638 0.2031681388616562
vn 0.969368040561676 -0.22110942006111145 0.10694022476673126
vn 0.9732016324996948 -0.22211842238903046 0.05951488018035889
vn 0.7051012516021729 -0.2985156774520874 0.6432111859321594
vn 0.7051008939743042 -0.5801277756690979 0.4077799618244171
vn 0.6941379904747009 -0.6953140497207642 0.18630841374397278
vn 0.11205839365720749 -0.5714390873908997 0.8129578828811646
vn 0.11205761134624481 -0.9013596177101135 0.41832274198532104
vn 0.10871102660894394 -0.9602012038230896 0.2572850286960602
vn -0.25491780042648315 -0.4805445075035095 0.8391031622886658
vn -0.4870704710483551 -0.4333205819129944 0.7582846879959106
vn -0.25491800904273987 -0.8357152342796326 0.48641225695610046
vn -0.4870704710483551 -0.7544091939926147 0.4400331377983093
vn -0.19675731658935547 -0.9470439553260803 0.25376027822494507
vn -0.446989506483078 -0.8640585541725159 0.23152363300323486
vn -0.7576209306716919 -0.28566116094589233 0.5868630409240723
vn -0.757621169090271 -0.5408205389976501 0.36540845036506653
vn -0.716777503490448 -0.6735417246818542 0.18047593533992767
vn -5.965395075691049e-07 -1.4716060547925736e-07 -1.0
vn -2.13875566146271e-07 -3.135799033771036e-07 -1.0
vn 1.2857962872203643e-07 -1.0424805196862508e-07 -1.0
vn -8.971805414148548e-07 -3.5868953318640706e-07 -1.0
vn -5.640471272272407e-07 -1.2942318505793082e-07 -1.0
vn -5.965395075691049e-07 -1.4716060547925736e-07 -1.0
vn -7.39075176170445e-07 -6.849669631492361e-08 -1.0
vn -8.220893477073332e-08 -1.2382086822526617e-07 -1.0
vn -5.041698614149936e-07 -3.9794255002334467e-08 -1.0
vn -4.5429558781506785e-07 -4.0133190282176656e-07 -1.0
vn -1.715990691764091e-07 1.1508187469644326e-07 -1.0
vn 5.081768108539109e-07 -1.322912339674076e-07 -1.0
vn -5.965395075691049e-07 -1.4716060547925736e-07 -1.0
vn -9.679054073785665e-07 6.945823827209097e-08 -1.0
vn -8.013017236407904e-07 -2.505863108126505e-07 -1.0
vn -7.347209702857072e-07 -6.820047815381258e-07 -1.0
vn -5.032317176301149e-07 -7.64450362567004e-07 -1.0
vn 1.9472702206257964e-07 -3.3266138643739396e-07 -1.0
vn 3.318373273941688e-07 -2.0176793213977362e-07 -1.0
f 54/54/54 55/55/55 71/71/71
f 71/71/71 68/68/68 54/54/54
f 55/55/55 65/65/65 67/67/67
f 67/67/67 70/70/70 55/55/55
f 70/70/70 71/71/71 55/55/55
f 69/69/69 62/62/62 54/54/54
f 68/68/68 69/69/69 54/54/54
f 66/66/66 67/67/67 58/58/58
f 66/66/66 53/53/53 57/57/57
f 54/54/54 60/60/60 64/64/64
f 64/64/64 55/55/55 54/54/54
f 55/55/55 63/63/63 59/59/59
f 59/59/59 65/65/65 55/55/55
f 63/63/63 55/55/55 64/64/64
f 61/61/61 54/54/54 62/62/62
f 60/60/60 54/54/54 61/61/61
f 56/56/56 58/58/58 59/59/59
f 56/56/56 57/57/57 53/53/53
f 42/42/42 46/46/46 48/48/48
f 48/48/48 43/43/43 42/42/42
f 41/41/41 44/44/44 46/46/46
f 46/46/46 42/42/42 41/41/41
f 21/21/21 28/28/28 44/44/44
f 44/44/44 41/41/41 21/21/21
f 51/51/51 34/34/34 52/52/52
f 50/50/50 34/34/34 51/51/51
f 33/33/33 34/34/34 50/50/50
f 52/52/52 49/49/49 47/47/47
f 47/47/47 51/51/51 52/52/52
f 51/51/51 47/47/47 45/45/45
f 45/45/45 50/50/50 51/51/51
f 50/50/50 45/45/45 29/29/29
f 29/29/29 33/33/33 50/50/50
f 49/49/49 48/48/48 46/46/46
f 46/46/46 47/47/47 49/49/49
f 47/47/47 46/46/46 44/44/44
f 44/44/44 45/45/45 47/47/47
f 45/45/45 44/44/44 28/28/28
f 28/28/28 29/29/29 45/45/45
f 42/42/42 43/43/43 40/40/40
f 40/40/40 39/39/39 42/42/42
f 41/41/41 42/42/42 39/39/39
f 39/39/39 38/38/38 41/41/41
f 21/21/21 41/41/41 38/38/38
f 38/38/38 17/17/17 21/21/21
f 36/36/36 39/39/39 40/40/40
f 40/40/40 37/37/37 36/36/36
f 35/35/35 38/38/38 39/39/39
f 39/39/39 36/36/36 35/35/35
f 13/13/13 17/17/17 38/38/38
f 38/38/38 35/35/35 13/13/13
f 9/9/9 36/36/36 37/37/37
f 9/9/9 35/35/35 36/36/36
f 9/9/9 13/13/13 35/35/35
f 20/20/20 26/26/26 28/28/28
f 28/28/28 21/21/21 20/20/20
f 18/18/18 23/23/23 26/26/26
f 26/26/26 20/20/20 18/18/18
f 19/19/19 22/22/22 23/23/23
f 23/23/23 18/18/18 19/19/19
f 32/32/32 34/34/34 33/33/33
f 30/30/30 34/34/34 32/32/32
f 31/31/31 34/34/34 30/30/30
f 33/33/33 29/29/29 27/27/27
f 27/27/27 32/32/32 33/33/33
f 32/32/32 27/27/27 24/24/24
f 24/24/24 30/30/30 32/32/32
f 30/30/30 24/24/24 25/25/25
f 25/25/25 31/31/31 30/30/30
f 29/29/29 28/28/28 26/26/26
f 26/26/26 27/27/27 29/29/29
f 27/27/27 26/26/26 23/23/23
f 23/23/23 24/24/24 27/27/27
f 24/24/24 23/23/23 22/22/22
f 22/22/22 25/25/25 24/24/24
f 20/20/20 21/21/21 17/17/17
f 17/17/17 16/16/16 20/20/20
f 18/18/18 20/20/20 16/16/16
f 16/16/16 14/14/14 18/18/18
f 19/19/19 18/18/18 14/14/14
f 14/14/14 15/15/15 19/19/19
f 12/12/12 16/16/16 17/17/17
f 17/17/17 13/13/13 12/12/12
f 10/10/10 14/14/14 16/16/16
f 16/16/16 12/12/12 10/10/10
f 11/11/11 15/15/15 14/14/14
f 14/14/14 10/10/10 11/11/11
f 9/9/9 12/12/12 13/13/13
f 9/9/9 10/10/10 12/12/12
f 9/9/9 11/11/11 10/10/10
f 6/6/6 5/5/5 8/8/8
f 6/6/6 4/4/4 5/5/5
f 6/6/6 3/3/3 4/4/4
f 6/6/6 2/2/2 3/3/3
f 6/6/6 1/1/1 2/2/2
f 6/6/6 7/7/7 1/1/1
