# Recovered local-space geometry; original node transforms not applied
o mesh_0
v 0.0 -0.5 -0.0025411248207092285
v 0.0 0.5 0.2317500114440918
v 0.0 -0.5 0.5
v 0.0 0.5 0.5
v -0.015973687171936035 -0.5 -0.0025411248207092285
v -0.015973687171936035 0.5 0.2317500114440918
v -0.015973687171936035 0.5 0.5
v -0.015973687171936035 -0.5 0.5
vt 0.0 0.5025411248207092
vt 1.0 0.2682499885559082
vt 0.0 0.0
vt 1.0 0.0
vt 0.0 0.5025411248207092
vt 1.0 0.2682499885559082
vt 1.0 0.0
vt 0.0 0.0
vn 1.0 0.0 0.0
vn 1.0 0.0 0.0
vn 1.0 0.0 0.0
vn 1.0 0.0 0.0
vn -1.0 0.0 0.0
vn -1.0 0.0 0.0
vn -1.0 0.0 0.0
vn -1.0 0.0 0.0
f 7/7/7 6/6/6 5/5/5
f 5/5/5 8/8/8 7/7/7
f 4/4/4 3/3/3 1/1/1
f 1/1/1 2/2/2 4/4/4
