# Recovered local-space geometry; original node transforms not applied
o mesh_0
v 57.09991455078125 23.457887649536133 17.958465576171875
v 40.547698974609375 9.686140060424805 16.8162899017334
v 46.4069938659668 -1.825940671551507e-06 35.87752151489258
v 40.547698974609375 -9.686168670654297 16.816293716430664
v 41.304847717285156 -31.03676414489746 17.761022567749023
v 33.114906311035156 -1.2099817467969842e-05 0.03936431556940079
v 40.54771041870117 19.372323989868164 0.039359286427497864
v 40.54769515991211 -19.37235450744629 0.039383530616760254
v 36.72743225097656 1.5589157555950806e-06 0.039342209696769714
v 34.35080337524414 18.72052574157715 10.847634315490723
v 34.35080337524414 21.616594314575195 0.03933270275592804
v 34.35081100463867 10.808306694030762 18.759864807128906
v 34.35079574584961 2.390004738117568e-06 21.655941009521484
v 28.99384307861328 31.848649978637695 18.427167892456055
v 28.99383544921875 36.77566146850586 0.03933602571487427
v 28.993833541870117 18.387826919555664 31.88799476623535
v 28.99382781982422 4.263287792127812e-06 36.81501770019531
v 17.157751083374023 35.29920196533203 20.419328689575195
v 17.15774917602539 40.75999450683594 0.039350055158138275
v 17.157745361328125 20.3799991607666 35.33853530883789
v 17.157737731933594 8.402263119933195e-06 40.799346923828125
v 5.321657657623291 39.573604583740234 0.039341703057289124
v 5.321658611297607 34.27175521850586 19.826133728027344
v -16.22298240661621 26.055377960205078 15.0823974609375
v -16.222984313964844 30.086137771606445 0.039334483444690704
v 5.321652889251709 19.78680992126465 34.311073303222656
v -16.22298812866211 15.043091773986816 26.0947265625
v 5.321646690368652 1.254123890248593e-05 39.612945556640625
v -16.222991943359375 2.007520743063651e-05 30.125478744506836
v -39.71198654174805 12.074180603027344 7.010365962982178
v -39.71199035644531 13.94206428527832 0.039349496364593506
v -39.71198654174805 6.971043109893799 12.113510131835938
v -39.711997985839844 2.8289105102885514e-05 13.9813871383667
v -44.39870834350586 2.9928007279522717e-05 0.03935100883245468
v 34.35079574584961 -10.808294296264648 18.759876251220703
v 34.35080337524414 -18.720521926879883 10.847641944885254
v 34.35078811645508 -21.61659049987793 0.03933829814195633
v 28.99382781982422 -18.387826919555664 31.88798713684082
v 28.99381446838379 -31.848665237426758 18.427167892456055
v 28.99381446838379 -36.77566909790039 0.039347223937511444
v 17.157733917236328 -20.37998390197754 35.33854293823242
v 17.157724380493164 -35.2991943359375 20.419340133666992
v 17.1577205657959 -40.75999069213867 0.03936311602592468
v 5.321640968322754 -19.78677749633789 34.31109619140625
v -16.222993850708008 -15.043035507202148 26.094722747802734
v 5.3216328620910645 -34.2717170715332 19.82615852355957
v -16.222999572753906 -26.055362701416016 15.082419395446777
v 5.321629524230957 -39.5735969543457 0.03934543579816818
v -16.223007202148438 -30.086122512817383 0.039358727633953094
v -39.71199417114258 -6.9709858894348145 12.113502502441406
v -39.71199417114258 -12.074124336242676 7.010376930236816
v -39.712005615234375 -13.942008018493652 0.039360687136650085
v 25.063756942749023 5.637599315377884e-06 0.0393487885594368
v -16.222997665405273 2.0075211068615317e-05 0.039338208734989166
v 5.713499069213867 1.2404212611727417e-05 0.0393473282456398
v 6.478472709655762 8.43026065826416 40.58985137939453
v 1.3507702350616455 9.022178649902344 38.55474090576172
v 1.128212332725525 6.403119087219238 39.22054672241211
v 5.847652435302734 1.1656405925750732 42.431724548339844
v 1.1278820037841797 -7.174067497253418 39.443016052246094
v 0.8632345199584961 -4.286304473876953 40.17012405395508
v -1.3629860877990723 -1.7037993669509888 40.09624099731445
v -4.450387954711914 -5.295414924621582 37.94838333129883
v -4.334227085113525 -6.562922477722168 37.62923812866211
v -4.070365905761719 -9.442115783691406 36.9042854309082
v 9.077340126037598 8.43026351928711 33.449520111083984
v 3.9496381282806396 9.022178649902344 31.414405822753906
v 3.727079153060913 6.4031195640563965 32.08021545410156
v 8.44652271270752 1.1656426191329956 35.291385650634766
v 1.660035490989685 0.5693932175636292 41.077571868896484
v 4.258904457092285 0.5693942904472351 33.93724060058594
v -2.619981050491333 0.8251098394393921 39.446861267089844
v -0.021112492308020592 0.8251113891601562 32.30652618408203
v -2.3731400966644287 6.470614910125732 37.92691421508789
v 0.2257286161184311 6.470614433288574 30.786579132080078
v -4.625385284423828 1.276977300643921 38.58810043334961
v -2.026519536972046 1.2769783735275269 31.447769165039062
v -4.115732192993164 6.83821439743042 37.18783950805664
v -1.5168662071228027 6.838215351104736 30.047504425048828
v 6.716168403625488 23.209606170654297 36.462100982666016
v 7.627495765686035 17.918262481689453 38.3026123046875
v 10.226365089416504 17.91826629638672 31.162269592285156
v 9.315035820007324 23.209613800048828 29.3217716217041
v -2.913057565689087 19.961605072021484 33.883506774902344
v -0.3141891360282898 19.961610794067383 26.74317169189453
v -0.7764585614204407 19.961610794067383 28.01325035095215
v -3.459876775741577 13.994807243347168 35.385887145996094
v -0.861009418964386 13.9948091506958 28.24555015563965
v 0.5607966780662537 -0.9861860275268555 41.001060485839844
v 5.712509632110596 -1.9904592037200928 42.58977127075195
v 8.311379432678223 -1.9904590845108032 35.449432373046875
v 3.159666061401367 -0.9861849546432495 33.8607292175293
v 3.4621026515960693 -4.286303997039795 33.02979278564453
v 6.9496564865112305 -15.299302101135254 39.24509048461914
v 9.548527717590332 -15.299301147460938 32.10475540161133
v 1.2358814477920532 -1.7037973403930664 32.95590591430664
v -1.8515208959579468 -5.295413017272949 30.808048248291016
v -3.758218288421631 -12.848167419433594 36.046669006347656
v -1.1593546867370605 -12.84817123413086 28.906341552734375
v 3.726748466491699 -7.174066066741943 32.30268096923828
v 1.4665215015411377 -10.86922836303711 38.51260757446289
v 4.065389156341553 -10.869220733642578 31.372283935546875
v 1.4576162099838257 -13.250041961669922 37.83049011230469
v 4.0564866065979 -13.250040054321289 30.69015121459961
v 6.2628254890441895 -17.086122512817383 38.48560333251953
v 8.861693382263184 -17.086122512817383 31.34526824951172
v 4.85143518447876 -18.10626220703125 37.68100357055664
v 7.450302600860596 -18.106264114379883 30.54067039489746
v 3.17649507522583 -18.583871841430664 36.93519592285156
v 5.775364875793457 -18.583871841430664 29.794858932495117
v 0.3611987829208374 -14.043647766113281 37.20512771606445
v 2.9600627422332764 -14.043643951416016 30.064802169799805
v 1.69899320602417 -18.743070602416992 36.35202407836914
v 4.297860145568848 -18.743070602416992 29.211698532104492
v -6.560769081115723 1.7130658626556396 37.75933074951172
v -9.730683326721191 3.0135393142700195 36.23475646972656
v -7.1318182945251465 3.0135397911071777 29.09442138671875
v -3.9618985652923584 1.7130669355392456 30.618999481201172
v -8.360288619995117 8.685656547546387 35.11615753173828
v -5.5401082038879395 7.138683319091797 36.58373260498047
v -2.941237211227417 7.1386871337890625 29.44339942932129
v -5.761417865753174 8.685660362243652 27.975826263427734
v -12.6268892288208 4.896789073944092 34.643619537353516
v -10.028017044067383 4.896790027618408 27.503280639648438
v -10.821279525756836 11.389850616455078 33.4493408203125
v -8.222411155700684 11.389853477478027 26.309009552001953
v -15.746524810791016 7.533083915710449 32.756439208984375
v -13.147656440734863 7.533083915710449 25.616100311279297
v -14.550268173217773 10.116231918334961 32.455265045166016
v -11.951398849487305 10.116230964660645 25.31493377685547
v -17.99481773376465 8.896483421325684 31.549354553222656
v -19.499910354614258 14.366752624511719 29.44173812866211
v -16.901037216186523 14.366755485534668 22.30139923095703
v -15.395952224731445 8.896483421325684 24.409019470214844
v -10.538336753845215 -6.115929126739502 35.49858474731445
v -11.965713500976562 -6.627202033996582 34.833274841308594
v -9.366843223571777 -6.627199649810791 27.692941665649414
v -7.939464569091797 -6.115926265716553 28.35824966430664
v -12.611470222473145 -1.201022744178772 36.145484924316406
v -10.012604713439941 -1.2010215520858765 29.005151748657227
v -14.512375831604004 -1.8067281246185303 35.28090286254883
v -11.913505554199219 -1.8067270517349243 28.140565872192383
v -16.049877166748047 -2.6182897090911865 34.48988342285156
v -13.451008796691895 -2.6182894706726074 27.349550247192383
v -17.157047271728516 -3.6988751888275146 33.778785705566406
v -14.558176040649414 -3.698873996734619 26.63844871520996
v -17.766944885253906 -5.111653804779053 33.15394973754883
v -15.168081283569336 -5.11165189743042 26.01361083984375
v -16.95433235168457 -14.169342994689941 30.866954803466797
v -14.355463027954102 -14.169342041015625 23.726619720458984
v -12.30617904663086 -7.765987873077393 34.38463592529297
v -9.707306861877441 -7.765987396240234 27.244300842285156
v -11.88474178314209 -12.555197715759277 33.17240524291992
v -9.285868644714355 -12.555191040039062 26.03207015991211
v -15.851582527160645 -17.1600341796875 30.41553497314453
v -13.252715110778809 -17.1600341796875 23.27520751953125
v -13.844830513000488 -18.778987884521484 30.684301376342773
v -11.245965003967285 -18.778989791870117 23.543970108032227
v -11.33702564239502 -13.012442588806152 33.24137496948242
v -8.738154411315918 -13.012439727783203 26.10103416442871
v -10.629121780395508 -19.164411544799805 31.744823455810547
v -8.030248641967773 -19.164411544799805 24.6044864654541
v -8.587057113647461 -18.45577049255371 32.69013214111328
v -5.988191604614258 -18.455774307250977 25.5498046875
v -10.382285118103027 -12.196067810058594 33.8216552734375
v -7.783412456512451 -12.19606876373291 26.681324005126953
v 5.321658611297607 34.27175521850586 19.826133728027344
v -16.22298240661621 26.055377960205078 15.0823974609375
v 5.321652889251709 19.78680992126465 34.311073303222656
v -16.22298812866211 15.043091773986816 26.0947265625
v -16.222984313964844 30.086137771606445 0.039334483444690704
v -16.22298240661621 26.055377960205078 15.0823974609375
v -16.22298240661621 26.055377960205078 15.0823974609375
v -39.71198654174805 12.074180603027344 7.010365962982178
v -16.22298812866211 15.043091773986816 26.0947265625
v -16.22298812866211 15.043091773986816 26.0947265625
v -39.71198654174805 6.971043109893799 12.113510131835938
v -16.222991943359375 2.007520743063651e-05 30.125478744506836
v -39.71199035644531 13.94206428527832 0.039349496364593506
v -39.71198654174805 12.074180603027344 7.010365962982178
v -39.71198654174805 12.074180603027344 7.010365962982178
v -44.39870834350586 2.9928007279522717e-05 0.03935100883245468
v -39.71198654174805 6.971043109893799 12.113510131835938
v -39.71198654174805 6.971043109893799 12.113510131835938
v -44.39870834350586 2.9928007279522717e-05 0.03935100883245468
v -39.711997985839844 2.8289105102885514e-05 13.9813871383667
v 5.321658611297607 34.27175521850586 19.826133728027344
v 5.321657657623291 39.573604583740234 0.039341703057289124
v 5.321652889251709 19.78680992126465 34.311073303222656
v 5.321646690368652 1.254123890248593e-05 39.612945556640625
v 5.321646690368652 1.254123890248593e-05 39.612945556640625
v -16.222991943359375 2.007520743063651e-05 30.125478744506836
v 5.321640968322754 -19.78677749633789 34.31109619140625
v -16.222993850708008 -15.043035507202148 26.094722747802734
v 5.3216328620910645 -34.2717170715332 19.82615852355957
v -16.222999572753906 -26.055362701416016 15.082419395446777
v -16.222991943359375 2.007520743063651e-05 30.125478744506836
v -39.711997985839844 2.8289105102885514e-05 13.9813871383667
v -16.222993850708008 -15.043035507202148 26.094722747802734
v -16.222993850708008 -15.043035507202148 26.094722747802734
v -39.71199417114258 -6.9709858894348145 12.113502502441406
v -16.222999572753906 -26.055362701416016 15.082419395446777
v -16.222999572753906 -26.055362701416016 15.082419395446777
v -39.71199417114258 -12.074124336242676 7.010376930236816
v -16.223007202148438 -30.086122512817383 0.039358727633953094
v -39.711997985839844 2.8289105102885514e-05 13.9813871383667
v -44.39870834350586 2.9928007279522717e-05 0.03935100883245468
v -39.71199417114258 -6.9709858894348145 12.113502502441406
v -39.71199417114258 -6.9709858894348145 12.113502502441406
v -44.39870834350586 2.9928007279522717e-05 0.03935100883245468
v -39.71199417114258 -12.074124336242676 7.010376930236816
v -39.71199417114258 -12.074124336242676 7.010376930236816
v -44.39870834350586 2.9928007279522717e-05 0.03935100883245468
v -39.712005615234375 -13.942008018493652 0.039360687136650085
v 5.321640968322754 -19.78677749633789 34.31109619140625
v 5.3216328620910645 -34.2717170715332 19.82615852355957
v 5.321629524230957 -39.5735969543457 0.03934543579816818
v 34.35080337524414 21.616594314575195 0.03933270275592804
v 36.72743225097656 1.5589157555950806e-06 0.039342209696769714
v 25.063756942749023 5.637599315377884e-06 0.0393487885594368
v 28.99383544921875 36.77566146850586 0.03933602571487427
v -16.222984313964844 30.086137771606445 0.039334483444690704
v -39.71199035644531 13.94206428527832 0.039349496364593506
v -44.39870834350586 2.9928007279522717e-05 0.03935100883245468
v 17.15774917602539 40.75999450683594 0.039350055158138275
v 5.321657657623291 39.573604583740234 0.039341703057289124
v 25.063756942749023 5.637599315377884e-06 0.0393487885594368
v 34.35078811645508 -21.61659049987793 0.03933829814195633
v 28.99381446838379 -36.77566909790039 0.039347223937511444
v -16.223007202148438 -30.086122512817383 0.039358727633953094
v -39.712005615234375 -13.942008018493652 0.039360687136650085
v 17.1577205657959 -40.75999069213867 0.03936311602592468
v 5.321629524230957 -39.5735969543457 0.03934543579816818
v 1.3507702350616455 9.022178649902344 38.55474090576172
v 6.478472709655762 8.43026065826416 40.58985137939453
v 1.128212332725525 6.403119087219238 39.22054672241211
v 1.3507702350616455 9.022178649902344 38.55474090576172
v 3.9496381282806396 9.022178649902344 31.414405822753906
v 6.478472709655762 8.43026065826416 40.58985137939453
v 5.847652435302734 1.1656405925750732 42.431724548339844
v 9.077340126037598 8.43026351928711 33.449520111083984
v 5.847652435302734 1.1656405925750732 42.431724548339844
v 8.44652271270752 1.1656426191329956 35.291385650634766
v 1.660035490989685 0.5693932175636292 41.077571868896484
v 4.258904457092285 0.5693942904472351 33.93724060058594
v 1.128212332725525 6.403119087219238 39.22054672241211
v 3.727079153060913 6.4031195640563965 32.08021545410156
v -0.021112492308020592 0.8251113891601562 32.30652618408203
v -2.619981050491333 0.8251098394393921 39.446861267089844
v -2.3731400966644287 6.470614910125732 37.92691421508789
v 0.2257286161184311 6.470614433288574 30.786579132080078
v 9.315035820007324 23.209613800048828 29.3217716217041
v 6.716168403625488 23.209606170654297 36.462100982666016
v 7.627495765686035 17.918262481689453 38.3026123046875
v 10.226365089416504 17.91826629638672 31.162269592285156
v 0.8632345199584961 -4.286304473876953 40.17012405395508
v 0.5607966780662537 -0.9861860275268555 41.001060485839844
v 3.159666061401367 -0.9861849546432495 33.8607292175293
v 5.712509632110596 -1.9904592037200928 42.58977127075195
v 8.311379432678223 -1.9904590845108032 35.449432373046875
v -1.3629860877990723 -1.7037993669509888 40.09624099731445
v 0.8632345199584961 -4.286304473876953 40.17012405395508
v 3.4621026515960693 -4.286303997039795 33.02979278564453
v -4.450387954711914 -5.295414924621582 37.94838333129883
v -1.3629860877990723 -1.7037993669509888 40.09624099731445
v 1.2358814477920532 -1.7037973403930664 32.95590591430664
v 1.1278820037841797 -7.174067497253418 39.443016052246094
v 1.1278820037841797 -7.174067497253418 39.443016052246094
v 3.726748466491699 -7.174066066741943 32.30268096923828
v 1.4665215015411377 -10.86922836303711 38.51260757446289
v 4.065389156341553 -10.869220733642578 31.372283935546875
v 6.9496564865112305 -15.299302101135254 39.24509048461914
v 9.548527717590332 -15.299301147460938 32.10475540161133
v 6.2628254890441895 -17.086122512817383 38.48560333251953
v 8.861693382263184 -17.086122512817383 31.34526824951172
v 4.85143518447876 -18.10626220703125 37.68100357055664
v 7.450302600860596 -18.106264114379883 30.54067039489746
v 1.4576162099838257 -13.250041961669922 37.83049011230469
v 4.0564866065979 -13.250040054321289 30.69015121459961
v 0.3611987829208374 -14.043647766113281 37.20512771606445
v 2.9600627422332764 -14.043643951416016 30.064802169799805
v 3.17649507522583 -18.583871841430664 36.93519592285156
v 1.69899320602417 -18.743070602416992 36.35202407836914
v 4.297860145568848 -18.743070602416992 29.211698532104492
v 5.775364875793457 -18.583871841430664 29.794858932495117
v -2.3731400966644287 6.470614910125732 37.92691421508789
v -2.619981050491333 0.8251098394393921 39.446861267089844
v 1.660035490989685 0.5693932175636292 41.077571868896484
v -2.913057565689087 19.961605072021484 33.883506774902344
v -3.459876775741577 13.994807243347168 35.385887145996094
v 7.627495765686035 17.918262481689453 38.3026123046875
v 6.716168403625488 23.209606170654297 36.462100982666016
v 1.4665215015411377 -10.86922836303711 38.51260757446289
v 6.9496564865112305 -15.299302101135254 39.24509048461914
v 5.712509632110596 -1.9904592037200928 42.58977127075195
v 0.5607966780662537 -0.9861860275268555 41.001060485839844
v 1.4576162099838257 -13.250041961669922 37.83049011230469
v 6.2628254890441895 -17.086122512817383 38.48560333251953
v 0.3611987829208374 -14.043647766113281 37.20512771606445
v 1.69899320602417 -18.743070602416992 36.35202407836914
v 3.17649507522583 -18.583871841430664 36.93519592285156
v 4.85143518447876 -18.10626220703125 37.68100357055664
v -4.625385284423828 1.276977300643921 38.58810043334961
v -4.115732192993164 6.83821439743042 37.18783950805664
v -3.758218288421631 -12.848167419433594 36.046669006347656
v -9.730683326721191 3.0135393142700195 36.23475646972656
v -7.1318182945251465 3.0135397911071777 29.09442138671875
v -8.360288619995117 8.685656547546387 35.11615753173828
v -5.761417865753174 8.685660362243652 27.975826263427734
v -12.6268892288208 4.896789073944092 34.643619537353516
v -10.028017044067383 4.896790027618408 27.503280639648438
v -15.746524810791016 7.533083915710449 32.756439208984375
v -13.147656440734863 7.533083915710449 25.616100311279297
v -14.550268173217773 10.116231918334961 32.455265045166016
v -17.99481773376465 8.896483421325684 31.549354553222656
v -15.395952224731445 8.896483421325684 24.409019470214844
v -11.951398849487305 10.116230964660645 25.31493377685547
v -10.538336753845215 -6.115929126739502 35.49858474731445
v -7.939464569091797 -6.115926265716553 28.35824966430664
v -12.611470222473145 -1.201022744178772 36.145484924316406
v -10.012604713439941 -1.2010215520858765 29.005151748657227
v -14.512375831604004 -1.8067281246185303 35.28090286254883
v -11.913505554199219 -1.8067270517349243 28.140565872192383
v -16.049877166748047 -2.6182897090911865 34.48988342285156
v -13.451008796691895 -2.6182894706726074 27.349550247192383
v -17.157047271728516 -3.6988751888275146 33.778785705566406
v -14.558176040649414 -3.698873996734619 26.63844871520996
v -17.766944885253906 -5.111653804779053 33.15394973754883
v -15.168081283569336 -5.11165189743042 26.01361083984375
v -11.965713500976562 -6.627202033996582 34.833274841308594
v -9.366843223571777 -6.627199649810791 27.692941665649414
v -12.30617904663086 -7.765987873077393 34.38463592529297
v -9.707306861877441 -7.765987396240234 27.244300842285156
v -16.95433235168457 -14.169342994689941 30.866954803466797
v -14.355463027954102 -14.169342041015625 23.726619720458984
v -15.851582527160645 -17.1600341796875 30.41553497314453
v -13.252715110778809 -17.1600341796875 23.27520751953125
v -11.88474178314209 -12.555197715759277 33.17240524291992
v -9.285868644714355 -12.555191040039062 26.03207015991211
v -13.844830513000488 -18.778987884521484 30.684301376342773
v -11.245965003967285 -18.778989791870117 23.543970108032227
v -10.629121780395508 -19.164411544799805 31.744823455810547
v -8.030248641967773 -19.164411544799805 24.6044864654541
v -11.33702564239502 -13.012442588806152 33.24137496948242
v -8.738154411315918 -13.012439727783203 26.10103416442871
v -5.5401082038879395 7.138683319091797 36.58373260498047
v -6.560769081115723 1.7130658626556396 37.75933074951172
v -8.360288619995117 8.685656547546387 35.11615753173828
v -12.6268892288208 4.896789073944092 34.643619537353516
v -9.730683326721191 3.0135393142700195 36.23475646972656
v -19.499910354614258 14.366752624511719 29.44173812866211
v -17.99481773376465 8.896483421325684 31.549354553222656
v -14.550268173217773 10.116231918334961 32.455265045166016
v -10.821279525756836 11.389850616455078 33.4493408203125
v -15.746524810791016 7.533083915710449 32.756439208984375
v -11.965713500976562 -6.627202033996582 34.833274841308594
v -10.538336753845215 -6.115929126739502 35.49858474731445
v -12.611470222473145 -1.201022744178772 36.145484924316406
v -14.512375831604004 -1.8067281246185303 35.28090286254883
v -16.049877166748047 -2.6182897090911865 34.48988342285156
v -10.629121780395508 -19.164411544799805 31.744823455810547
v -8.587057113647461 -18.45577049255371 32.69013214111328
v -10.382285118103027 -12.196067810058594 33.8216552734375
v -11.33702564239502 -13.012442588806152 33.24137496948242
v -11.88474178314209 -12.555197715759277 33.17240524291992
v -16.95433235168457 -14.169342994689941 30.866954803466797
v -15.851582527160645 -17.1600341796875 30.41553497314453
v -13.844830513000488 -18.778987884521484 30.684301376342773
v -12.30617904663086 -7.765987873077393 34.38463592529297
v -17.157047271728516 -3.6988751888275146 33.778785705566406
v -17.766944885253906 -5.111653804779053 33.15394973754883
v -6.560769081115723 1.7130658626556396 37.75933074951172
v -3.9618985652923584 1.7130669355392456 30.618999481201172
v -2.941237211227417 7.1386871337890625 29.44339942932129
v -5.5401082038879395 7.138683319091797 36.58373260498047
v -16.901037216186523 14.366755485534668 22.30139923095703
v -19.499910354614258 14.366752624511719 29.44173812866211
v -10.821279525756836 11.389850616455078 33.4493408203125
v -8.222411155700684 11.389853477478027 26.309009552001953
v -7.783412456512451 -12.19606876373291 26.681324005126953
v -10.382285118103027 -12.196067810058594 33.8216552734375
v -8.587057113647461 -18.45577049255371 32.69013214111328
v -5.988191604614258 -18.455774307250977 25.5498046875
vt 0.5128579139709473 0.21251147985458374
vt 0.5016051530838013 0.23002368211746216
vt 0.5128579139709473 0.21251147985458374
vt 0.5241109132766724 0.23002368211746216
vt 0.5128579139709473 0.21251147985458374
vt 0.5127909183502197 0.24584585428237915
vt 0.5241109132766724 0.23002368211746216
vt 0.5016051530838013 0.23002368211746216
vt 0.5443121194839478 0.12617450952529907
vt 0.5525477528572083 0.14019161462783813
vt 0.5668121576309204 0.14019161462783813
vt 0.536076545715332 0.14019161462783813
vt 0.5218120813369751 0.14019161462783813
vt 0.5583231449127197 0.1535317301750183
vt 0.5825909376144409 0.1535317301750183
vt 0.5303011536598206 0.1535317301750183
vt 0.5060334205627441 0.1535317301750183
vt 0.5598411560058594 0.16652578115463257
vt 0.5867380499839783 0.16652578115463257
vt 0.5287833213806152 0.16652578115463257
vt 0.501886248588562 0.16652578115463257
vt 0.5855031609535217 0.17951971292495728
vt 0.5593891143798828 0.17951971292495728
vt 0.5557745695114136 0.20317202806472778
vt 0.5756279230117798 0.20317202806472778
vt 0.5292352437973022 0.17951971292495728
vt 0.5328497886657715 0.20317202806472778
vt 0.5031211376190186 0.17951971292495728
vt 0.5129963159561157 0.20317202806472778
vt 0.5496238470077515 0.22961705923080444
vt 0.5588240623474121 0.22961705923080444
vt 0.5390004515647888 0.22961705923080444
vt 0.529800295829773 0.22961705923080444
vt 0.5443121194839478 0.24463456869125366
vt 0.536076545715332 0.14019161462783813
vt 0.552547812461853 0.14019161462783813
vt 0.56681227684021 0.14019161462783813
vt 0.5303012132644653 0.1535317301750183
vt 0.5583231449127197 0.1535317301750183
vt 0.5825909376144409 0.1535317301750183
vt 0.5287833213806152 0.16652578115463257
vt 0.5598411560058594 0.16652578115463257
vt 0.5867380499839783 0.16652578115463257
vt 0.5292352437973022 0.17951971292495728
vt 0.5328497886657715 0.20317202806472778
vt 0.5593891143798828 0.17951971292495728
vt 0.5557746291160583 0.20317202806472778
vt 0.5855031609535217 0.17951971292495728
vt 0.5756279230117798 0.20317202806472778
vt 0.5390005111694336 0.22961705923080444
vt 0.5496238470077515 0.22961705923080444
vt 0.5588240623474121 0.22961705923080444
vt 0.5895730257034302 0.1576274037361145
vt 0.5895730257034302 0.20628267526626587
vt 0.5895730257034302 0.18043118715286255
vt 0.11322104185819626 0.12225115299224854
vt 0.11322497576475143 0.10386824607849121
vt 0.11320794373750687 0.10392999649047852
vt 0.11317398399114609 0.1223750114440918
vt 0.11311990767717361 0.1043633222579956
vt 0.1131386086344719 0.1043630838394165
vt 0.11315532773733139 0.09730541706085205
vt 0.11313208192586899 0.08518540859222412
vt 0.11312387138605118 0.08518540859222412
vt 0.11310525983572006 0.08518540859222412
vt 0.06073610484600067 0.12154930830001831
vt 0.060738712549209595 0.10301607847213745
vt 0.06072726845741272 0.10307854413986206
vt 0.06070457398891449 0.12167423963546753
vt 0.060701966285705566 0.10689228773117065
vt 0.060701966285705566 0.10689228773117065
vt 0.060703158378601074 0.09150022268295288
vt 0.060703158378601074 0.09150022268295288
vt 0.060727670788764954 0.09053319692611694
vt 0.060727670788764954 0.09053319692611694
vt 0.060705170035362244 0.08418029546737671
vt 0.060705170035362244 0.08418029546737671
vt 0.060729071497917175 0.08418029546737671
vt 0.060729071497917175 0.08418029546737671
vt 0.060800179839134216 0.11755460500717163
vt 0.060777291655540466 0.12254947423934937
vt 0.060777291655540466 0.12254947423934937
vt 0.060800179839134216 0.11755460500717163
vt 0.06078612804412842 0.08418029546737671
vt 0.06078612804412842 0.08418029546737671
vt 0.06078612804412842 0.08418029546737671
vt 0.06076021492481232 0.08418029546737671
vt 0.06076021492481232 0.08418029546737671
vt 0.060695335268974304 0.10351532697677612
vt 0.06069090962409973 0.12161177396774292
vt 0.06069090962409973 0.12161177396774292
vt 0.060695335268974304 0.10351532697677612
vt 0.06068107485771179 0.10351532697677612
vt 0.060633257031440735 0.12167423963546753
vt 0.060633257031440735 0.12167423963546753
vt 0.06069211661815643 0.09639972448348999
vt 0.06067664921283722 0.08418029546737671
vt 0.060643911361694336 0.08418029546737671
vt 0.060643911361694336 0.08418029546737671
vt 0.06066840887069702 0.10351532697677612
vt 0.060652539134025574 0.10351532697677612
vt 0.060652539134025574 0.10351532697677612
vt 0.06064210832118988 0.1027030348777771
vt 0.06064210832118988 0.1027030348777771
vt 0.060625433921813965 0.11863201856613159
vt 0.060625433921813965 0.11863201856613159
vt 0.06062100827693939 0.11324971914291382
vt 0.06062100827693939 0.11324971914291382
vt 0.06061899662017822 0.10710257291793823
vt 0.06061899662017822 0.10710257291793823
vt 0.060638681054115295 0.0985214114189148
vt 0.060638681054115295 0.0985214114189148
vt 0.06061840057373047 0.10176676511764526
vt 0.06061840057373047 0.10176676511764526
vt 0.06070698797702789 0.07711547613143921
vt 0.060712605714797974 0.06535190343856812
vt 0.060712605714797974 0.06535190343856812
vt 0.06070698797702789 0.07711547613143921
vt 0.06073731184005737 0.06839340925216675
vt 0.06073048710823059 0.07898730039596558
vt 0.06073048710823059 0.07898730039596558
vt 0.06073731184005737 0.06839340925216675
vt 0.06072084605693817 0.054376065731048584
vt 0.06072084605693817 0.054376065731048584
vt 0.06074896454811096 0.058705270290374756
vt 0.06074896454811096 0.058705270290374756
vt 0.060732290148735046 0.042354047298431396
vt 0.060732290148735046 0.042354047298431396
vt 0.06074333190917969 0.04578584432601929
vt 0.06074333190917969 0.04578584432601929
vt 0.06073811650276184 0.03386658430099487
vt 0.06076182425022125 0.02668970823287964
vt 0.06076182425022125 0.02668970823287964
vt 0.06073811650276184 0.03386658430099487
vt 0.060673028230667114 0.06213754415512085
vt 0.060670822858810425 0.05686444044113159
vt 0.060670822858810425 0.05686444044113159
vt 0.060673028230667114 0.06213754415512085
vt 0.06069432199001312 0.056333720684051514
vt 0.06069432199001312 0.056333720684051514
vt 0.0606917142868042 0.04933589696884155
vt 0.0606917142868042 0.04933589696884155
vt 0.06068830192089081 0.043571412563323975
vt 0.06068830192089081 0.043571412563323975
vt 0.060683473944664 0.039257943630218506
vt 0.060683473944664 0.039257943630218506
vt 0.06067745387554169 0.03661292791366577
vt 0.06067745387554169 0.03661292791366577
vt 0.06063808500766754 0.03655046224594116
vt 0.06063808500766754 0.03655046224594116
vt 0.0606658011674881 0.05527395009994507
vt 0.0606658011674881 0.05527395009994507
vt 0.06064511835575104 0.055211007595062256
vt 0.06064511835575104 0.055211007595062256
vt 0.06062522530555725 0.03951448202133179
vt 0.06062522530555725 0.03951448202133179
vt 0.060618191957473755 0.04616039991378784
vt 0.060618191957473755 0.04616039991378784
vt 0.06064310669898987 0.05701988935470581
vt 0.06064310669898987 0.05701988935470581
vt 0.06061659753322601 0.05753535032272339
vt 0.06061659753322601 0.05753535032272339
vt 0.06061960756778717 0.06507152318954468
vt 0.06061960756778717 0.06507152318954468
vt 0.06064672768115997 0.06070202589035034
vt 0.06064672768115997 0.06070202589035034
vt 0.5593891143798828 0.17951971292495728
vt 0.5557745695114136 0.20317202806472778
vt 0.5292352437973022 0.17951971292495728
vt 0.5328497886657715 0.20317202806472778
vt 0.5756279230117798 0.20317202806472778
vt 0.5557745695114136 0.20317202806472778
vt 0.5557745695114136 0.20317202806472778
vt 0.5496238470077515 0.22961705923080444
vt 0.5328497886657715 0.20317202806472778
vt 0.5328497886657715 0.20317202806472778
vt 0.5390004515647888 0.22961705923080444
vt 0.5129963159561157 0.20317202806472778
vt 0.5588240623474121 0.22961705923080444
vt 0.5496238470077515 0.22961705923080444
vt 0.5496238470077515 0.22961705923080444
vt 0.5443121194839478 0.24463456869125366
vt 0.5390004515647888 0.22961705923080444
vt 0.5390004515647888 0.22961705923080444
vt 0.5443121194839478 0.24463456869125366
vt 0.529800295829773 0.22961705923080444
vt 0.5593891143798828 0.17951971292495728
vt 0.5855031609535217 0.17951971292495728
vt 0.5292352437973022 0.17951971292495728
vt 0.5031211376190186 0.17951971292495728
vt 0.5031212568283081 0.17951971292495728
vt 0.5129963159561157 0.20317202806472778
vt 0.5292352437973022 0.17951971292495728
vt 0.5328497886657715 0.20317202806472778
vt 0.5593891143798828 0.17951971292495728
vt 0.5557746291160583 0.20317202806472778
vt 0.5129963159561157 0.20317202806472778
vt 0.5298004150390625 0.22961705923080444
vt 0.5328497886657715 0.20317202806472778
vt 0.5328497886657715 0.20317202806472778
vt 0.5390005111694336 0.22961705923080444
vt 0.5557746291160583 0.20317202806472778
vt 0.5557746291160583 0.20317202806472778
vt 0.5496238470077515 0.22961705923080444
vt 0.5756279230117798 0.20317202806472778
vt 0.5298004150390625 0.22961705923080444
vt 0.5443122386932373 0.24463456869125366
vt 0.5390005111694336 0.22961705923080444
vt 0.5390005111694336 0.22961705923080444
vt 0.5443122386932373 0.24463456869125366
vt 0.5496238470077515 0.22961705923080444
vt 0.5496238470077515 0.22961705923080444
vt 0.5443122386932373 0.24463456869125366
vt 0.5588240623474121 0.22961705923080444
vt 0.5292352437973022 0.17951971292495728
vt 0.5593891143798828 0.17951971292495728
vt 0.5855031609535217 0.17951971292495728
vt 0.6083714962005615 0.14668291807174683
vt 0.5895730257034302 0.14388221502304077
vt 0.5895730257034302 0.1576274037361145
vt 0.6215542554855347 0.1529960036277771
vt 0.6157369613647461 0.20628267526626587
vt 0.601697564125061 0.23396390676498413
vt 0.5895730257034302 0.23948699235916138
vt 0.6250192523002625 0.16694456338882446
vt 0.6239874958992004 0.18089300394058228
vt 0.5895730257034302 0.1576274037361145
vt 0.6083714962005615 0.14668291807174683
vt 0.6215542554855347 0.1529960036277771
vt 0.6157369613647461 0.20628267526626587
vt 0.601697564125061 0.23396390676498413
vt 0.6250192523002625 0.16694456338882446
vt 0.6239874958992004 0.18089300394058228
vt 0.060738712549209595 0.10301607847213745
vt 0.06073610484600067 0.12154930830001831
vt 0.06072726845741272 0.10307854413986206
vt 0.060738712549209595 0.10301607847213745
vt 0.060738712549209595 0.10301607847213745
vt 0.06073610484600067 0.12154930830001831
vt 0.06070457398891449 0.12167423963546753
vt 0.06073610484600067 0.12154930830001831
vt 0.06070457398891449 0.12167423963546753
vt 0.06070457398891449 0.12167423963546753
vt 0.060701966285705566 0.10689228773117065
vt 0.060701966285705566 0.10689228773117065
vt 0.06072726845741272 0.10307854413986206
vt 0.06072726845741272 0.10307854413986206
vt 0.060703158378601074 0.09150022268295288
vt 0.060703158378601074 0.09150022268295288
vt 0.060727670788764954 0.09053319692611694
vt 0.060727670788764954 0.09053319692611694
vt 0.060800179839134216 0.11755460500717163
vt 0.060800179839134216 0.11755460500717163
vt 0.060777291655540466 0.12254947423934937
vt 0.060777291655540466 0.12254947423934937
vt 0.06068107485771179 0.10351532697677612
vt 0.060695335268974304 0.10351532697677612
vt 0.060695335268974304 0.10351532697677612
vt 0.06069090962409973 0.12161177396774292
vt 0.06069090962409973 0.12161177396774292
vt 0.06069211661815643 0.09639972448348999
vt 0.06068107485771179 0.10351532697677612
vt 0.06068107485771179 0.10351532697677612
vt 0.06067664921283722 0.08418029546737671
vt 0.06069211661815643 0.09639972448348999
vt 0.06069211661815643 0.09639972448348999
vt 0.06066840887069702 0.10351532697677612
vt 0.06066840887069702 0.10351532697677612
vt 0.06066840887069702 0.10351532697677612
vt 0.060652539134025574 0.10351532697677612
vt 0.060652539134025574 0.10351532697677612
vt 0.060633257031440735 0.12167423963546753
vt 0.060633257031440735 0.12167423963546753
vt 0.060625433921813965 0.11863201856613159
vt 0.060625433921813965 0.11863201856613159
vt 0.06062100827693939 0.11324971914291382
vt 0.06062100827693939 0.11324971914291382
vt 0.06064210832118988 0.1027030348777771
vt 0.06064210832118988 0.1027030348777771
vt 0.060638681054115295 0.0985214114189148
vt 0.060638681054115295 0.0985214114189148
vt 0.06061899662017822 0.10710257291793823
vt 0.06061840057373047 0.10176676511764526
vt 0.06061840057373047 0.10176676511764526
vt 0.06061899662017822 0.10710257291793823
vt 0.11320839077234268 0.09148633480072021
vt 0.11317173391580582 0.09244585037231445
vt 0.1131700947880745 0.10771286487579346
vt 0.11329580098390579 0.08518540859222412
vt 0.11325711756944656 0.08518540859222412
vt 0.11328256875276566 0.12324285507202148
vt 0.11331679672002792 0.11828851699829102
vt 0.1130959615111351 0.1043633222579956
vt 0.11306724697351456 0.1223750114440918
vt 0.11315350979566574 0.12231302261352539
vt 0.11316003650426865 0.1043630838394165
vt 0.11308052390813828 0.10355734825134277
vt 0.11305568367242813 0.11935734748840332
vt 0.11307539790868759 0.09940946102142334
vt 0.11304483562707901 0.10262882709503174
vt 0.11304598301649094 0.10792148113250732
vt 0.11304906755685806 0.11401891708374023
vt 0.1131746843457222 0.08518540859222412
vt 0.1132107600569725 0.08518540859222412
vt 0.113083116710186 0.08518540859222412
vt 0.060712605714797974 0.06535190343856812
vt 0.060712605714797974 0.06535190343856812
vt 0.06073731184005737 0.06839340925216675
vt 0.06073731184005737 0.06839340925216675
vt 0.06072084605693817 0.054376065731048584
vt 0.06072084605693817 0.054376065731048584
vt 0.060732290148735046 0.042354047298431396
vt 0.060732290148735046 0.042354047298431396
vt 0.06074333190917969 0.04578584432601929
vt 0.06073811650276184 0.03386658430099487
vt 0.06073811650276184 0.03386658430099487
vt 0.06074333190917969 0.04578584432601929
vt 0.060673028230667114 0.06213754415512085
vt 0.060673028230667114 0.06213754415512085
vt 0.06069432199001312 0.056333720684051514
vt 0.06069432199001312 0.056333720684051514
vt 0.0606917142868042 0.04933589696884155
vt 0.0606917142868042 0.04933589696884155
vt 0.06068830192089081 0.043571412563323975
vt 0.06068830192089081 0.043571412563323975
vt 0.060683473944664 0.039257943630218506
vt 0.060683473944664 0.039257943630218506
vt 0.06067745387554169 0.03661292791366577
vt 0.06067745387554169 0.03661292791366577
vt 0.060670822858810425 0.05686444044113159
vt 0.060670822858810425 0.05686444044113159
vt 0.0606658011674881 0.05527395009994507
vt 0.0606658011674881 0.05527395009994507
vt 0.06063808500766754 0.03655046224594116
vt 0.06063808500766754 0.03655046224594116
vt 0.06062522530555725 0.03951448202133179
vt 0.06062522530555725 0.03951448202133179
vt 0.06064511835575104 0.055211007595062256
vt 0.06064511835575104 0.055211007595062256
vt 0.060618191957473755 0.04616039991378784
vt 0.060618191957473755 0.04616039991378784
vt 0.06061659753322601 0.05753535032272339
vt 0.06061659753322601 0.05753535032272339
vt 0.06064310669898987 0.05701988935470581
vt 0.06064310669898987 0.05701988935470581
vt 0.11321262270212173 0.08003437519073486
vt 0.11317751556634903 0.07817745208740234
vt 0.11322277039289474 0.0695263147354126
vt 0.11319815367460251 0.05562245845794678
vt 0.11318593472242355 0.06650960445404053
vt 0.11325954645872116 0.028161287307739258
vt 0.11322403699159622 0.03527975082397461
vt 0.11323197931051254 0.04710233211517334
vt 0.11324023455381393 0.05991673469543457
vt 0.11321517080068588 0.04369831085205078
vt 0.11312352865934372 0.05809056758880615
vt 0.11312674731016159 0.06332135200500488
vt 0.11315863579511642 0.057564735412597656
vt 0.11315470188856125 0.05062365531921387
vt 0.11314945667982101 0.044905900955200195
vt 0.1130421832203865 0.05875670909881592
vt 0.11304677277803421 0.06623148918151855
vt 0.11308734863996506 0.0618971586227417
vt 0.11308201402425766 0.058245301246643066
vt 0.1130850538611412 0.056450605392456055
vt 0.11307456344366074 0.037941575050354004
vt 0.11305525153875351 0.04088187217712402
vt 0.11304470151662827 0.04747426509857178
vt 0.11311610788106918 0.05651295185089111
vt 0.11314239352941513 0.04062700271606445
vt 0.1131332740187645 0.03800368309020996
vt 0.06070698797702789 0.07711547613143921
vt 0.06070698797702789 0.07711547613143921
vt 0.06073048710823059 0.07898730039596558
vt 0.06073048710823059 0.07898730039596558
vt 0.06076182425022125 0.02668970823287964
vt 0.06076182425022125 0.02668970823287964
vt 0.06074896454811096 0.058705270290374756
vt 0.06074896454811096 0.058705270290374756
vt 0.06064672768115997 0.06070202589035034
vt 0.06064672768115997 0.06070202589035034
vt 0.06061960756778717 0.06507152318954468
vt 0.06061960756778717 0.06507152318954468
vn 0.7666047215461731 -0.5896721482276917 -0.25417304039001465
vn 0.8658867478370667 -0.4899953603744507 -0.10072100907564163
vn 0.9375893473625183 -3.027118111731397e-07 -0.3477444350719452
vn 0.9258175492286682 0.06575526297092438 -0.3722071349620819
vn 0.9747335314750671 0.19481496512889862 -0.10927785187959671
vn 0.9582330584526062 -0.12881559133529663 -0.2553350627422333
vn 0.7359097599983215 -0.2823549807071686 -0.61539626121521
vn 0.91622394323349 0.35153743624687195 0.19223713874816895
vn 0.9973247051239014 -2.2298887358829234e-07 0.07310020178556442
vn 0.9693681001663208 0.2031678706407547 0.1380157470703125
vn 0.9632998108863831 0.2592814564704895 0.06947409361600876
vn 0.9693682193756104 0.10694022476673126 0.22110913693904877
vn 0.9693681597709656 -0.017942223697900772 0.24495640397071838
vn 0.7051016092300415 0.6432110071182251 0.298515260219574
vn 0.6941385865211487 0.6953133940696716 0.1863085925579071
vn 0.7051012516021729 0.40777984261512756 0.580127477645874
vn 0.7051012516021729 0.06308341026306152 0.7062950730323792
vn 0.11205864697694778 0.812957763671875 0.5714390277862549
vn 0.10871191322803497 0.9602011442184448 0.25728490948677063
vn 0.112058125436306 0.418322890996933 0.901359498500824
vn 0.11205819249153137 -0.08840200304985046 0.9897617101669312
vn -0.391419917345047 0.8888569474220276 0.23816759884357452
vn -0.391419380903244 0.8888570070266724 0.23816826939582825
vn -0.391419917345047 0.8888569474220276 0.23816759884357452
vn -0.391419917345047 0.8888569474220276 0.23816759884357452
vn -0.39141833782196045 0.650688648223877 0.6506888270378113
vn -0.39141973853111267 0.6506896615028381 0.6506869792938232
vn -0.3914197087287903 0.23816926777362823 0.8888565897941589
vn -0.39141809940338135 0.23816727101802826 0.8888578414916992
vn -0.5530940294265747 0.8047307729721069 0.21562786400318146
vn -0.5530940294265747 0.8047307729721069 0.21562786400318146
vn -0.5530945062637329 0.5891039967536926 0.5891035795211792
vn -0.5530954599380493 0.21562762558460236 0.8047298789024353
vn -0.9444412589073181 0.3174808621406555 0.08506947010755539
vn 0.9693679809570312 -0.13801604509353638 0.2031681388616562
vn 0.969368040561676 -0.22110942006111145 0.10694022476673126
vn 0.9732016324996948 -0.22211842238903046 0.05951488018035889
vn 0.7051012516021729 -0.2985156774520874 0.6432111859321594
vn 0.7051008939743042 -0.5801277756690979 0.4077799618244171
vn 0.6941379904747009 -0.6953140497207642 0.18630841374397278
vn 0.11205839365720749 -0.5714390873908997 0.8129578828811646
vn 0.11205761134624481 -0.9013596177101135 0.41832274198532104
vn 0.10871102660894394 -0.9602012038230896 0.2572850286960602
vn -0.39141952991485596 -0.23816817998886108 0.8888570666313171
vn -0.39142000675201416 -0.23816734552383423 0.8888569474220276
vn -0.39141926169395447 -0.6506882905960083 0.650688648223877
vn -0.3914199471473694 -0.6506875157356262 0.6506891250610352
vn -0.3914199769496918 -0.8888564705848694 0.23816928267478943
vn -0.39141878485679626 -0.888857364654541 0.23816783726215363
vn -0.5530946254730225 -0.21562784910202026 0.8047303557395935
vn -0.5530954003334045 -0.5891027450561523 0.5891039371490479
vn -0.5530961155891418 -0.8047292828559875 0.21562811732292175
vn -5.640472977574973e-07 -5.018122237743228e-07 -1.0
vn -5.540442202800477e-07 -1.2382065506244544e-07 -1.0
vn 7.191810595941206e-07 -1.3502398132914095e-07 -1.0
vn -0.3303658664226532 0.25881850719451904 0.9076735973358154
vn -0.33036577701568604 0.2588180899620056 0.9076737761497498
vn -0.3303658366203308 0.2588186264038086 0.9076735973358154
vn -0.33036622405052185 0.25881871581077576 0.9076734185218811
vn -0.33036571741104126 -0.2588196098804474 0.9076733589172363
vn -0.330365926027298 -0.2588192820549011 0.9076734781265259
vn -0.3303653597831726 -0.25882020592689514 0.9076734185218811
vn -0.33036577701568604 -0.25881943106651306 0.9076733589172363
vn -0.33036595582962036 -0.2588191330432892 0.9076734185218811
vn -0.3303656280040741 -0.2588202655315399 0.9076732993125916
vn 0.10028867423534393 0.9942885637283325 0.036502543836832047
vn 0.10028832405805588 0.9942886233329773 0.036502011120319366
vn -0.9396690130233765 -0.0070951879024505615 -0.34201139211654663
vn 0.9396803379058838 0.005117965396493673 0.3420155942440033
vn 0.12623532116413116 -0.990935742855072 0.04594578593969345
vn 0.12623532116413116 -0.990935742855072 0.04594578593969345
vn -0.052388641983270645 -0.9984447360038757 -0.019068121910095215
vn -0.052388641983270645 -0.9984447360038757 -0.019068121910095215
vn 0.01698930189013481 0.9998365640640259 0.006183667108416557
vn 0.016989106312394142 0.9998365640640259 0.0061834645457565784
vn -0.1908768117427826 -0.9791524410247803 -0.06947356462478638
vn -0.1908768117427826 -0.9791524410247803 -0.06947356462478638
vn 0.17938001453876495 0.9816110134124756 0.06528890132904053
vn 0.17938043177127838 0.9816110134124756 0.06528918445110321
vn 0.9046998620033264 0.27035248279571533 0.3292836546897888
vn 0.9046998620033264 0.27035248279571533 0.3292836546897888
vn 0.9046998620033264 0.27035248279571533 0.3292836546897888
vn 0.9046999216079712 0.27035200595855713 0.3292841613292694
vn -0.2921219766139984 0.9504527449607849 -0.10632282495498657
vn -0.29212188720703125 0.9504526257514954 -0.10632342100143433
vn -0.29212188720703125 0.9504526257514954 -0.10632342100143433
vn 0.3054126501083374 -0.9457094669342041 0.11116069555282593
vn 0.3054126501083374 -0.9457094669342041 0.11116069555282593
vn 0.17229588329792023 0.9830470681190491 0.06271054595708847
vn 0.17229588329792023 0.9830470681190491 0.06271054595708847
vn 0.17229588329792023 0.9830470681190491 0.06271054595708847
vn 0.17229604721069336 0.9830470085144043 0.06271080672740936
vn -0.9396926164627075 -1.0191604360443307e-07 -0.3420201539993286
vn 0.9396917223930359 0.0013967306585982442 0.34202006459236145
vn 0.9396917223930359 0.0013967306585982442 0.34202006459236145
vn 0.7266921401023865 0.6340041756629944 0.26449429988861084
vn -0.6603869199752808 0.7114182114601135 -0.24036075174808502
vn 0.6598566770553589 -0.7119749784469604 0.2401682436466217
vn 0.6598566770553589 -0.7119749784469604 0.2401682436466217
vn 0.6598566770553589 -0.7119749784469604 0.2401682436466217
vn -0.9396927356719971 2.9167054549361637e-07 -0.34201979637145996
vn -0.939692497253418 -9.225880717167456e-07 -0.3420204520225525
vn -0.9348887205123901 0.10098686069250107 -0.34027186036109924
vn -0.9348886609077454 0.10098759084939957 -0.34027159214019775
vn 0.8382681608200073 -0.4519045650959015 0.305104523897171
vn 0.8382681608200073 -0.4519045650959015 0.305104523897171
vn 0.5048604011535645 -0.8434159159660339 0.1837541162967682
vn 0.5048604011535645 -0.8434159159660339 0.1837541162967682
vn 0.23742073774337769 -0.9675557017326355 0.08641386777162552
vn 0.23742073774337769 -0.9675557017326355 0.08641386777162552
vn -0.5053378939628601 0.8430920839309692 -0.18392762541770935
vn -0.5053367018699646 0.8430929780006409 -0.18392685055732727
vn -0.9204732775688171 -0.2012147456407547 -0.33502471446990967
vn -0.9204731583595276 -0.20121505856513977 -0.3350249230861664
vn -0.3272782266139984 -0.9373897314071655 -0.11911943554878235
vn -0.3272782266139984 -0.9373897314071655 -0.11911943554878235
vn -0.3272782266139984 -0.9373897314071655 -0.11911943554878235
vn -0.3272775113582611 -0.9373900890350342 -0.1191195398569107
vn 0.4140121042728424 0.8977120518684387 0.15068872272968292
vn 0.4140121042728424 0.8977120518684387 0.15068872272968292
vn 0.4140121042728424 0.8977120518684387 0.15068872272968292
vn 0.41401225328445435 0.8977119326591492 0.15068885684013367
vn -0.46942955255508423 -0.866281270980835 -0.17085859179496765
vn -0.46942955255508423 -0.866281270980835 -0.17085859179496765
vn 0.6429093480110168 0.7293224930763245 0.23400059342384338
vn 0.6429089903831482 0.7293230295181274 0.23400001227855682
vn -0.557513415813446 -0.8049863576889038 -0.20291811227798462
vn -0.557513415813446 -0.8049863576889038 -0.20291811227798462
vn -0.8738932609558105 0.36761555075645447 -0.31807130575180054
vn -0.8738932609558105 0.36761555075645447 -0.31807130575180054
vn -0.875373125076294 -0.36360642313957214 -0.31861022114753723
vn -0.875373125076294 -0.36360642313957214 -0.31861022114753723
vn -0.875373125076294 -0.36360642313957214 -0.31861022114753723
vn -0.875373899936676 -0.3636051416397095 -0.3186095356941223
vn 0.2911660373210907 -0.9507846832275391 0.10597552359104156
vn 0.2911660373210907 -0.9507846832275391 0.10597552359104156
vn 0.2911660373210907 -0.9507846832275391 0.10597552359104156
vn 0.2911660671234131 -0.9507846832275391 0.10597551614046097
vn 0.886562705039978 0.3314853310585022 0.3226828873157501
vn 0.8865624666213989 0.3314865529537201 0.3226820230484009
vn -0.2625003457069397 0.9601902365684509 -0.0955420508980751
vn -0.26250070333480835 0.9601901173591614 -0.0955423042178154
vn -0.4018813967704773 0.9039334058761597 -0.14627273380756378
vn -0.4018815755844116 0.9039333462715149 -0.14627288281917572
vn -0.6051753759384155 0.7650136947631836 -0.22026577591896057
vn -0.6051756143569946 0.7650134563446045 -0.2202659696340561
vn -0.82095867395401 0.4865622818470001 -0.2988046705722809
vn -0.8209570050239563 0.48656585812568665 -0.29880303144454956
vn -0.9396910071372986 0.0020524149294942617 -0.342018723487854
vn -0.9396907091140747 0.002051909454166889 -0.34201952815055847
vn 0.8677104711532593 -0.38384318351745605 0.31582111120224
vn 0.8677104711532593 -0.38384318351745605 0.31582111120224
vn 0.9396854043006897 -0.0038808409590274096 0.3420180082321167
vn 0.9396854043006897 -0.0038808409590274096 0.3420180082321167
vn -0.9013259410858154 -0.2828265130519867 -0.3280559182167053
vn -0.9013260006904602 -0.28282636404037476 -0.32805588841438293
vn -0.5952413082122803 -0.7737897038459778 -0.21665017306804657
vn -0.595242440700531 -0.7737888693809509 -0.2166500836610794
vn 0.6083681583404541 0.7621403932571411 0.22142814099788666
vn 0.6083681583404541 0.7621403932571411 0.22142814099788666
vn -0.10632439702749252 -0.9935782551765442 -0.03869855776429176
vn -0.10632361471652985 -0.9935782551765442 -0.03869861364364624
vn 0.28317761421203613 -0.9535131454467773 0.10306840389966965
vn 0.283176451921463 -0.953513503074646 0.10306835174560547
vn -0.5614586472511292 0.8018749356269836 -0.20435462892055511
vn -0.5614586472511292 0.8018749356269836 -0.20435462892055511
vn -0.39141973853111267 0.6506896615028381 0.6506869792938232
vn -0.39141973853111267 0.6506896615028381 0.6506869792938232
vn -0.39141809940338135 0.23816727101802826 0.8888578414916992
vn -0.39141809940338135 0.23816727101802826 0.8888578414916992
vn -0.5530940294265747 0.8047307729721069 0.21562786400318146
vn -0.5530946850776672 0.8047308921813965 0.21562620997428894
vn -0.5530945062637329 0.5891039967536926 0.5891035795211792
vn -0.5530945062637329 0.5891039967536926 0.5891035795211792
vn -0.5530950427055359 0.5891048312187195 0.5891022682189941
vn -0.5530954599380493 0.21562762558460236 0.8047298789024353
vn -0.5530954599380493 0.21562762558460236 0.8047298789024353
vn -0.5530948042869568 0.21562571823596954 0.8047309517860413
vn -0.9444412589073181 0.3174808621406555 0.08506947010755539
vn -0.9444412589073181 0.3174808621406555 0.08506947010755539
vn -0.9444411993026733 0.23241223394870758 0.23241251707077026
vn -0.9444411993026733 0.23241223394870758 0.23241251707077026
vn -0.9444411993026733 0.23241223394870758 0.23241251707077026
vn -0.9444412589073181 0.08507030457258224 0.3174803555011749
vn -0.9444412589073181 0.08507030457258224 0.3174803555011749
vn -0.9444412589073181 0.08507030457258224 0.3174803555011749
vn -0.09934397041797638 0.9025856256484985 0.4188913404941559
vn -0.09636921435594559 0.9614301323890686 0.2576141655445099
vn -0.09934447705745697 0.5722165107727051 0.8140632510185242
vn -0.09934473782777786 0.08852268755435944 0.9911076426506042
vn -0.39142000675201416 -0.23816734552383423 0.8888569474220276
vn -0.39142000675201416 -0.23816734552383423 0.8888569474220276
vn -0.3914199471473694 -0.6506875157356262 0.6506891250610352
vn -0.3914199471473694 -0.6506875157356262 0.6506891250610352
vn -0.39141878485679626 -0.888857364654541 0.23816783726215363
vn -0.39141878485679626 -0.888857364654541 0.23816783726215363
vn -0.5530946254730225 -0.21562784910202026 0.8047303557395935
vn -0.5530946254730225 -0.21562784910202026 0.8047303557395935
vn -0.5530953407287598 -0.21562577784061432 0.8047304153442383
vn -0.5530954003334045 -0.5891027450561523 0.5891039371490479
vn -0.5530954003334045 -0.5891027450561523 0.5891039371490479
vn -0.5530955195426941 -0.589102566242218 0.5891040563583374
vn -0.5530961155891418 -0.8047292828559875 0.21562811732292175
vn -0.5530961155891418 -0.8047292828559875 0.21562811732292175
vn -0.5530954599380493 -0.8047303557395935 0.21562623977661133
vn -0.9444414377212524 -0.08506932854652405 0.3174803853034973
vn -0.9444414377212524 -0.08506932854652405 0.3174803853034973
vn -0.9444414377212524 -0.08506932854652405 0.3174803853034973
vn -0.9444413781166077 -0.23241199553012848 0.23241204023361206
vn -0.9444413781166077 -0.23241199553012848 0.23241204023361206
vn -0.9444413781166077 -0.23241199553012848 0.23241204023361206
vn -0.9444414377212524 -0.3174798786640167 0.08507029712200165
vn -0.9444414377212524 -0.3174798786640167 0.08507029712200165
vn -0.9444414377212524 -0.3174798786640167 0.08507029712200165
vn -0.0993443951010704 -0.41889140009880066 0.9025856852531433
vn -0.09934502840042114 -0.8140630722045898 0.5722166299819946
vn -0.09637032449245453 -0.9614299535751343 0.2576148211956024
vn -5.640472977574973e-07 -5.018122237743228e-07 -1.0
vn -5.640472977574973e-07 -5.018122237743228e-07 -1.0
vn -1.2303137282287935e-06 -2.155668852310555e-07 -1.0
vn -1.2303137282287935e-06 -2.155668852310555e-07 -1.0
vn -5.540442202800477e-07 -1.2382065506244544e-07 -1.0
vn -5.540442202800477e-07 -1.2382065506244544e-07 -1.0
vn -4.542954457065207e-07 4.423214150506283e-08 -1.0
vn 7.191810595941206e-07 -1.3502398132914095e-07 -1.0
vn 7.191810595941206e-07 -1.3502398132914095e-07 -1.0
vn 7.546727687213206e-08 -3.5511089890860603e-07 -1.0
vn -5.640470703838218e-07 2.4296585365846113e-07 -1.0
vn -1.3717636875298922e-06 -1.0404939843056127e-07 -1.0
vn -5.521677053366147e-07 -6.820047815381258e-07 -1.0
vn -5.521677053366147e-07 -6.820047815381258e-07 -1.0
vn 1.497062953603745e-06 3.299659567801427e-08 -1.0
vn 1.497062953603745e-06 3.299659567801427e-08 -1.0
vn 0.10028867423534393 0.9942885637283325 0.036502543836832047
vn 0.10028867423534393 0.9942885637283325 0.036502543836832047
vn -0.939669132232666 -0.007095064967870712 -0.34201139211654663
vn -0.939669132232666 -0.007095064967870712 -0.34201139211654663
vn -0.939669132232666 -0.007095064967870712 -0.34201139211654663
vn 0.9396803379058838 0.005117965396493673 0.3420155942440033
vn 0.9396803379058838 0.005117965396493673 0.3420155942440033
vn 0.9396804571151733 0.005118031520396471 0.3420155644416809
vn 0.12623532116413116 -0.990935742855072 0.04594578593969345
vn 0.12623561918735504 -0.9909358024597168 0.045945730060338974
vn -0.052388641983270645 -0.9984447360038757 -0.019068121910095215
vn -0.05238876864314079 -0.9984447956085205 -0.019068105146288872
vn 0.01698930189013481 0.9998365640640259 0.006183667108416557
vn 0.01698930189013481 0.9998365640640259 0.006183667108416557
vn -0.1908768117427826 -0.9791524410247803 -0.06947356462478638
vn -0.19087715446949005 -0.9791524410247803 -0.06947378814220428
vn 0.17938001453876495 0.9816110134124756 0.06528890132904053
vn 0.17938001453876495 0.9816110134124756 0.06528890132904053
vn -0.29212188720703125 0.9504526257514954 -0.10632342100143433
vn -0.2921219766139984 0.9504526257514954 -0.1063227728009224
vn 0.3054126501083374 -0.9457094669342041 0.11116069555282593
vn 0.30541279911994934 -0.9457094669342041 0.11116062104701996
vn -0.9396926760673523 -4.537030520168628e-07 -0.34202030301094055
vn -0.9396926760673523 -4.537030520168628e-07 -0.34202030301094055
vn -0.9396926760673523 -4.537030520168628e-07 -0.34202030301094055
vn 0.9396917223930359 0.0013967306585982442 0.34202006459236145
vn 0.9396917819976807 0.001397069776430726 0.342019647359848
vn 0.7266921997070312 0.6340041160583496 0.264494389295578
vn 0.7266921997070312 0.6340041160583496 0.264494389295578
vn 0.7266921997070312 0.6340041160583496 0.264494389295578
vn -0.6603869795799255 0.7114181518554688 -0.2403607815504074
vn -0.6603869795799255 0.7114181518554688 -0.2403607815504074
vn -0.6603869795799255 0.7114181518554688 -0.2403607815504074
vn 0.6598566174507141 -0.7119752168655396 0.2401677370071411
vn -0.9396927356719971 2.9167054549361637e-07 -0.34201979637145996
vn -0.9396927356719971 2.9167054549361637e-07 -0.34201979637145996
vn -0.9348887205123901 0.10098686069250107 -0.34027186036109924
vn -0.9348887205123901 0.10098686069250107 -0.34027186036109924
vn 0.8382681608200073 -0.4519045650959015 0.305104523897171
vn 0.8382676839828491 -0.4519054591655731 0.3051045835018158
vn 0.5048604011535645 -0.8434159159660339 0.1837541162967682
vn 0.504860520362854 -0.8434158563613892 0.1837541162967682
vn 0.23742073774337769 -0.9675557017326355 0.08641386777162552
vn 0.23741987347602844 -0.9675559401512146 0.08641378581523895
vn -0.5053378939628601 0.8430920839309692 -0.18392762541770935
vn -0.5053378939628601 0.8430920839309692 -0.18392762541770935
vn -0.9204732775688171 -0.2012147456407547 -0.33502471446990967
vn -0.9204732775688171 -0.2012147456407547 -0.33502471446990967
vn 0.09374373406171799 -0.9950116276741028 0.03412000462412834
vn 0.09374373406171799 -0.9950116276741028 0.03412000462412834
vn 0.09374373406171799 -0.9950116276741028 0.03412000462412834
vn 0.09374499320983887 -0.9950113892555237 0.03412017971277237
vn -0.3303672969341278 0.2588188052177429 0.9076730012893677
vn -0.33036643266677856 0.2588188052177429 0.9076732993125916
vn -0.3303658366203308 0.2588185667991638 0.9076735973358154
vn -0.33036622405052185 0.2588196396827698 0.907673180103302
vn -0.33036625385284424 0.25881823897361755 0.9076736569404602
vn -0.33036643266677856 0.25881993770599365 0.9076730012893677
vn -0.33036619424819946 0.25882086157798767 0.9076728224754333
vn -0.330366313457489 -0.2588191628456116 0.9076732397079468
vn -0.33036598563194275 -0.25881895422935486 0.9076734185218811
vn -0.3303667902946472 -0.2588194012641907 0.9076730012893677
vn -0.3303668200969696 -0.25881919264793396 0.9076730608940125
vn -0.330366313457489 -0.25881898403167725 0.9076732993125916
vn -0.330366849899292 -0.2588197588920593 0.9076728820800781
vn -0.33037063479423523 -0.25881993770599365 0.9076714515686035
vn -0.3303714394569397 -0.25882041454315186 0.9076711535453796
vn -0.33036789298057556 -0.2588191628456116 0.9076727032661438
vn -0.33036527037620544 -0.2588195502758026 0.9076735377311707
vn -0.3303668797016144 0.25881868600845337 0.9076732993125916
vn -0.33036676049232483 0.258818656206131 0.9076733589172363
vn -0.33036431670188904 -0.25882112979888916 0.9076735377311707
vn -0.46942955255508423 -0.866281270980835 -0.17085859179496765
vn -0.4694303870201111 -0.8662809729576111 -0.1708584874868393
vn 0.6429093480110168 0.7293224930763245 0.23400059342384338
vn 0.6429093480110168 0.7293224930763245 0.23400059342384338
vn -0.557513415813446 -0.8049863576889038 -0.20291811227798462
vn -0.5575127601623535 -0.8049867749214172 -0.20291824638843536
vn -0.8738932609558105 0.36761555075645447 -0.31807130575180054
vn -0.8738930821418762 0.36761680245399475 -0.3180707097053528
vn 0.30560600757598877 -0.9456387162208557 0.11123139411211014
vn 0.30560600757598877 -0.9456387162208557 0.11123139411211014
vn 0.30560600757598877 -0.9456387162208557 0.11123139411211014
vn 0.30560556054115295 -0.9456388354301453 0.11123144626617432
vn 0.886562705039978 0.3314853310585022 0.3226828873157501
vn 0.886562705039978 0.3314853310585022 0.3226828873157501
vn -0.2625003457069397 0.9601902365684509 -0.0955420508980751
vn -0.2625003457069397 0.9601902365684509 -0.0955420508980751
vn -0.4018813967704773 0.9039334058761597 -0.14627273380756378
vn -0.4018813967704773 0.9039334058761597 -0.14627273380756378
vn -0.6051753759384155 0.7650136947631836 -0.22026577591896057
vn -0.6051753759384155 0.7650136947631836 -0.22026577591896057
vn -0.82095867395401 0.4865622818470001 -0.2988046705722809
vn -0.82095867395401 0.4865622818470001 -0.2988046705722809
vn -0.9396910071372986 0.0020524149294942617 -0.342018723487854
vn -0.9396910071372986 0.0020524149294942617 -0.342018723487854
vn 0.8677104711532593 -0.38384318351745605 0.31582111120224
vn 0.8677111268043518 -0.38384175300598145 0.3158210515975952
vn 0.9396854043006897 -0.0038808409590274096 0.3420180082321167
vn 0.9396854043006897 -0.0038806304801255465 0.34201791882514954
vn -0.9013259410858154 -0.2828265130519867 -0.3280559182167053
vn -0.9013259410858154 -0.2828265130519867 -0.3280559182167053
vn -0.5952413082122803 -0.7737897038459778 -0.21665017306804657
vn -0.5952413082122803 -0.7737897038459778 -0.21665017306804657
vn 0.6083681583404541 0.7621403932571411 0.22142814099788666
vn 0.6083733439445496 0.7621353268623352 0.22143080830574036
vn -0.10632439702749252 -0.9935782551765442 -0.03869855776429176
vn -0.10632439702749252 -0.9935782551765442 -0.03869855776429176
vn 0.28317761421203613 -0.9535131454467773 0.10306840389966965
vn 0.28317761421203613 -0.9535131454467773 0.10306840389966965
vn -0.5614586472511292 0.8018749356269836 -0.20435462892055511
vn -0.5614561438560486 0.8018770813941956 -0.20435303449630737
vn -0.3303656578063965 0.2588188052177429 0.9076735973358154
vn -0.33036544919013977 0.2588185966014862 0.9076738357543945
vn -0.3303664028644562 0.2588193416595459 0.907673180103302
vn -0.3303663432598114 0.2588191628456116 0.9076733589172363
vn -0.3303660452365875 0.25881919264793396 0.9076733589172363
vn -0.33036601543426514 0.2588173449039459 0.9076738953590393
vn -0.3303661644458771 0.25881680846214294 0.9076740145683289
vn -0.33036625385284424 0.25881800055503845 0.9076735973358154
vn -0.33036619424819946 0.2588183283805847 0.9076736569404602
vn -0.33036622405052185 0.2588195204734802 0.907673180103302
vn -0.3303661346435547 -0.2588188648223877 0.9076734185218811
vn -0.33036649227142334 -0.2588183581829071 0.9076735377311707
vn -0.3303653597831726 -0.25881829857826233 0.9076738357543945
vn -0.33036544919013977 -0.2588188052177429 0.9076736569404602
vn -0.3303658366203308 -0.25881853699684143 0.907673716545105
vn -0.3303643465042114 -0.258820116519928 0.907673716545105
vn -0.3303614854812622 -0.2588232457637787 0.9076738357543945
vn -0.33036547899246216 -0.2588195204734802 0.9076734781265259
vn -0.3303651213645935 -0.25881943106651306 0.9076735973358154
vn -0.33036646246910095 -0.2588196098804474 0.9076730608940125
vn -0.33036667108535767 -0.2588192820549011 0.9076731204986572
vn -0.33036723732948303 -0.25881969928741455 0.9076728820800781
vn -0.3303665816783905 -0.2588192820549011 0.9076731204986572
vn -0.33036720752716064 -0.2588185667991638 0.9076731204986572
vn -0.3303658068180084 -0.2588192820549011 0.9076734185218811
vn -0.33036643266677856 -0.2588200569152832 0.9076729416847229
vn -0.1908770352602005 -0.9791523814201355 -0.06947378069162369
vn -0.1908770352602005 -0.9791523814201355 -0.06947378069162369
vn 0.17938072979450226 0.9816108345985413 0.06528983265161514
vn 0.17938072979450226 0.9816108345985413 0.06528983265161514
vn -0.2921218276023865 0.9504526257514954 -0.10632340610027313
vn -0.2921217083930969 0.9504526853561401 -0.10632327198982239
vn 0.3054124414920807 -0.9457095265388489 0.11116074025630951
vn 0.3054124414920807 -0.9457095265388489 0.11116074025630951
vn -0.6603869199752808 0.7114179134368896 -0.24036166071891785
vn -0.6603869199752808 0.7114179134368896 -0.24036166071891785
vn 0.6598565578460693 -0.71197509765625 0.2401685267686844
vn 0.6598565578460693 -0.71197509765625 0.2401685267686844
f 99/99/99 98/98/98 382/382/382
f 382/382/382 383/383/383 99/99/99
f 381/381/381 264/264/264 97/97/97
f 97/97/97 380/380/380 381/381/381
f 379/379/379 88/88/88 87/87/87
f 87/87/87 378/378/378 379/379/379
f 86/86/86 376/376/376 84/84/84
f 376/376/376 377/377/377 84/84/84
f 86/86/86 85/85/85 376/376/376
f 351/351/351 354/354/354 290/290/290
f 290/290/290 289/289/289 351/351/351
f 375/375/375 78/78/78 79/79/79
f 79/79/79 374/374/374 375/375/375
f 77/77/77 76/76/76 372/372/372
f 372/372/372 373/373/373 77/77/77
f 64/64/64 63/63/63 363/363/363
f 363/363/363 65/65/65 64/64/64
f 369/369/369 356/356/356 366/366/366
f 356/356/356 371/371/371 366/366/366
f 356/356/356 370/370/370 371/371/371
f 356/356/356 360/360/360 370/370/370
f 365/365/365 369/369/369 366/366/366
f 364/364/364 368/368/368 361/361/361
f 364/364/364 365/365/365 368/368/368
f 365/365/365 367/367/367 368/368/368
f 365/365/365 366/366/366 367/367/367
f 361/361/361 363/363/363 364/364/364
f 361/361/361 305/305/305 363/363/363
f 305/305/305 65/65/65 363/363/363
f 361/361/361 362/362/362 305/305/305
f 356/356/356 359/359/359 360/360/360
f 356/356/356 358/358/358 359/359/359
f 356/356/356 357/357/357 358/358/358
f 353/353/353 354/354/354 351/351/351
f 353/353/353 355/355/355 354/354/354
f 355/355/355 349/349/349 354/354/354
f 349/349/349 348/348/348 354/354/354
f 351/351/351 352/352/352 353/353/353
f 346/346/346 350/350/350 347/347/347
f 346/346/346 348/348/348 350/350/350
f 348/348/348 349/349/349 350/350/350
f 346/346/346 347/347/347 303/303/303
f 303/303/303 304/304/304 346/346/346
f 166/166/166 345/345/345 344/344/344
f 344/344/344 165/165/165 166/166/166
f 343/343/343 164/164/164 163/163/163
f 163/163/163 342/342/342 343/343/343
f 341/341/341 162/162/162 161/161/161
f 161/161/161 340/340/340 341/341/341
f 160/160/160 339/339/339 338/338/338
f 338/338/338 159/159/159 160/160/160
f 337/337/337 158/158/158 157/157/157
f 157/157/157 336/336/336 337/337/337
f 335/335/335 156/156/156 155/155/155
f 155/155/155 334/334/334 335/335/335
f 154/154/154 333/333/333 332/332/332
f 332/332/332 153/153/153 154/154/154
f 152/152/152 331/331/331 330/330/330
f 330/330/330 151/151/151 152/152/152
f 329/329/329 150/150/150 149/149/149
f 149/149/149 328/328/328 329/329/329
f 327/327/327 148/148/148 147/147/147
f 147/147/147 326/326/326 327/327/327
f 325/325/325 146/146/146 145/145/145
f 145/145/145 324/324/324 325/325/325
f 323/323/323 144/144/144 143/143/143
f 143/143/143 322/322/322 323/323/323
f 321/321/321 142/142/142 141/141/141
f 141/141/141 320/320/320 321/321/321
f 319/319/319 140/140/140 139/139/139
f 139/139/139 318/318/318 319/319/319
f 137/137/137 138/138/138 135/135/135
f 135/135/135 136/136/136 137/137/137
f 316/316/316 317/317/317 314/314/314
f 314/314/314 315/315/315 316/316/316
f 133/133/133 134/134/134 131/131/131
f 131/131/131 132/132/132 133/133/133
f 130/130/130 313/313/313 312/312/312
f 312/312/312 129/129/129 130/130/130
f 128/128/128 311/311/311 310/310/310
f 310/310/310 127/127/127 128/128/128
f 309/309/309 126/126/126 125/125/125
f 125/125/125 308/308/308 309/309/309
f 124/124/124 307/307/307 306/306/306
f 306/306/306 123/123/123 124/124/124
f 121/121/121 122/122/122 119/119/119
f 119/119/119 120/120/120 121/121/121
f 117/117/117 118/118/118 115/115/115
f 115/115/115 116/116/116 117/117/117
f 305/305/305 60/60/60 65/65/65
f 286/286/286 304/304/304 303/303/303
f 303/303/303 287/287/287 286/286/286
f 297/297/297 302/302/302 298/298/298
f 297/297/297 301/301/301 302/302/302
f 297/297/297 299/299/299 301/301/301
f 299/299/299 300/300/300 301/301/301
f 294/294/294 293/293/293 297/297/297
f 297/297/297 298/298/298 294/294/294
f 60/60/60 294/294/294 61/61/61
f 294/294/294 295/295/295 61/61/61
f 295/295/295 296/296/296 61/61/61
f 60/60/60 293/293/293 294/294/294
f 291/291/291 292/292/292 289/289/289
f 289/289/289 290/290/290 291/291/291
f 58/58/58 288/288/288 59/59/59
f 58/58/58 287/287/287 288/288/288
f 58/58/58 286/286/286 287/287/287
f 284/284/284 285/285/285 282/282/282
f 282/282/282 283/283/283 284/284/284
f 281/281/281 114/114/114 113/113/113
f 113/113/113 280/280/280 281/281/281
f 279/279/279 112/112/112 111/111/111
f 111/111/111 278/278/278 279/279/279
f 110/110/110 277/277/277 276/276/276
f 276/276/276 109/109/109 110/110/110
f 108/108/108 275/275/275 274/274/274
f 274/274/274 107/107/107 108/108/108
f 106/106/106 273/273/273 272/272/272
f 272/272/272 105/105/105 106/106/106
f 271/271/271 104/104/104 103/103/103
f 103/103/103 270/270/270 271/271/271
f 269/269/269 102/102/102 101/101/101
f 101/101/101 268/268/268 269/269/269
f 100/100/100 267/267/267 98/98/98
f 98/98/98 99/99/99 100/100/100
f 266/266/266 97/97/97 264/264/264
f 264/264/264 265/265/265 266/266/266
f 263/263/263 96/96/96 261/261/261
f 261/261/261 262/262/262 263/263/263
f 95/95/95 260/260/260 259/259/259
f 259/259/259 94/94/94 95/95/95
f 258/258/258 93/93/93 256/256/256
f 256/256/256 257/257/257 258/258/258
f 91/91/91 92/92/92 89/89/89
f 89/89/89 90/90/90 91/91/91
f 88/88/88 255/255/255 254/254/254
f 254/254/254 87/87/87 88/88/88
f 84/84/84 253/253/253 86/86/86
f 253/253/253 252/252/252 86/86/86
f 252/252/252 85/85/85 86/86/86
f 82/82/82 83/83/83 80/80/80
f 80/80/80 81/81/81 82/82/82
f 251/251/251 79/79/79 78/78/78
f 78/78/78 250/250/250 251/251/251
f 248/248/248 249/249/249 76/76/76
f 76/76/76 77/77/77 248/248/248
f 247/247/247 75/75/75 74/74/74
f 74/74/74 246/246/246 247/247/247
f 73/73/73 245/245/245 244/244/244
f 244/244/244 72/72/72 73/73/73
f 71/71/71 243/243/243 242/242/242
f 242/242/242 70/70/70 71/71/71
f 69/69/69 241/241/241 239/239/239
f 239/239/239 240/240/240 69/69/69
f 238/238/238 68/68/68 236/236/236
f 236/236/236 237/237/237 238/238/238
f 66/66/66 67/67/67 234/234/234
f 234/234/234 235/235/235 66/66/66
f 60/60/60 64/64/64 65/65/65
f 60/60/60 61/61/61 64/64/64
f 61/61/61 63/63/63 64/64/64
f 61/61/61 62/62/62 63/63/63
f 58/58/58 59/59/59 56/56/56
f 56/56/56 57/57/57 58/58/58
f 54/54/54 55/55/55 233/233/233
f 233/233/233 230/230/230 54/54/54
f 55/55/55 227/227/227 229/229/229
f 229/229/229 232/232/232 55/55/55
f 232/232/232 233/233/233 55/55/55
f 231/231/231 224/224/224 54/54/54
f 230/230/230 231/231/231 54/54/54
f 228/228/228 229/229/229 220/220/220
f 228/228/228 53/53/53 219/219/219
f 54/54/54 222/222/222 226/226/226
f 226/226/226 55/55/55 54/54/54
f 55/55/55 225/225/225 221/221/221
f 221/221/221 227/227/227 55/55/55
f 225/225/225 55/55/55 226/226/226
f 223/223/223 54/54/54 224/224/224
f 222/222/222 54/54/54 223/223/223
f 218/218/218 220/220/220 221/221/221
f 218/218/218 219/219/219 53/53/53
f 42/42/42 216/216/216 217/217/217
f 217/217/217 43/43/43 42/42/42
f 41/41/41 215/215/215 216/216/216
f 216/216/216 42/42/42 41/41/41
f 21/21/21 190/190/190 215/215/215
f 215/215/215 41/41/41 21/21/21
f 212/212/212 213/213/213 214/214/214
f 209/209/209 210/210/210 211/211/211
f 206/206/206 207/207/207 208/208/208
f 52/52/52 205/205/205 203/203/203
f 203/203/203 204/204/204 52/52/52
f 51/51/51 202/202/202 200/200/200
f 200/200/200 201/201/201 51/51/51
f 50/50/50 199/199/199 197/197/197
f 197/197/197 198/198/198 50/50/50
f 49/49/49 48/48/48 195/195/195
f 195/195/195 196/196/196 49/49/49
f 47/47/47 46/46/46 193/193/193
f 193/193/193 194/194/194 47/47/47
f 45/45/45 44/44/44 191/191/191
f 191/191/191 192/192/192 45/45/45
f 42/42/42 43/43/43 40/40/40
f 40/40/40 39/39/39 42/42/42
f 41/41/41 42/42/42 39/39/39
f 39/39/39 38/38/38 41/41/41
f 21/21/21 41/41/41 38/38/38
f 38/38/38 17/17/17 21/21/21
f 36/36/36 39/39/39 40/40/40
f 40/40/40 37/37/37 36/36/36
f 35/35/35 38/38/38 39/39/39
f 39/39/39 36/36/36 35/35/35
f 13/13/13 17/17/17 38/38/38
f 38/38/38 35/35/35 13/13/13
f 9/9/9 36/36/36 37/37/37
f 9/9/9 35/35/35 36/36/36
f 9/9/9 13/13/13 35/35/35
f 20/20/20 189/189/189 190/190/190
f 190/190/190 21/21/21 20/20/20
f 18/18/18 187/187/187 189/189/189
f 189/189/189 20/20/20 18/18/18
f 19/19/19 188/188/188 187/187/187
f 187/187/187 18/18/18 19/19/19
f 184/184/184 185/185/185 186/186/186
f 181/181/181 182/182/182 183/183/183
f 179/179/179 34/34/34 180/180/180
f 33/33/33 178/178/178 176/176/176
f 176/176/176 177/177/177 33/33/33
f 32/32/32 175/175/175 173/173/173
f 173/173/173 174/174/174 32/32/32
f 30/30/30 172/172/172 171/171/171
f 171/171/171 31/31/31 30/30/30
f 29/29/29 28/28/28 169/169/169
f 169/169/169 170/170/170 29/29/29
f 27/27/27 26/26/26 167/167/167
f 167/167/167 168/168/168 27/27/27
f 24/24/24 23/23/23 22/22/22
f 22/22/22 25/25/25 24/24/24
f 20/20/20 21/21/21 17/17/17
f 17/17/17 16/16/16 20/20/20
f 18/18/18 20/20/20 16/16/16
f 16/16/16 14/14/14 18/18/18
f 19/19/19 18/18/18 14/14/14
f 14/14/14 15/15/15 19/19/19
f 12/12/12 16/16/16 17/17/17
f 17/17/17 13/13/13 12/12/12
f 10/10/10 14/14/14 16/16/16
f 16/16/16 12/12/12 10/10/10
f 11/11/11 15/15/15 14/14/14
f 14/14/14 10/10/10 11/11/11
f 9/9/9 12/12/12 13/13/13
f 9/9/9 10/10/10 12/12/12
f 9/9/9 11/11/11 10/10/10
f 6/6/6 5/5/5 8/8/8
f 6/6/6 4/4/4 5/5/5
f 6/6/6 3/3/3 4/4/4
f 6/6/6 2/2/2 3/3/3
f 6/6/6 1/1/1 2/2/2
f 6/6/6 7/7/7 1/1/1
