# Recovered local-space geometry; original node transforms not applied
o mesh_0
v 34.350791931152344 -21.616594314575195 0.11808603256940842
v 28.99382209777832 -36.77566146850586 0.11809495836496353
v 5.321638584136963 -39.5735969543457 0.11808943748474121
v -39.71200180053711 -13.942037582397461 0.11806738376617432
v -44.398712158203125 -1.2823677479900653e-06 0.11805770546197891
v 33.11490249633789 -8.74336819833843e-06 0.11807288229465485
v 40.547698974609375 19.372329711914062 0.11806784570217133
v 40.547698974609375 -19.37234878540039 0.11809023469686508
v 49.18416213989258 -31.036779403686523 -17.80097770690918
v 40.54769515991211 -9.686162948608398 -16.658845901489258
v 50.066043853759766 -1.2745267152786255 -33.94802474975586
v 40.54769515991211 9.686131477355957 -16.65886688232422
v 41.88818359375 31.036724090576172 -17.8010311126709
v 34.350791931152344 -18.72053337097168 -10.690211296081543
v 34.350807189941406 -10.80831241607666 -18.60243797302246
v 28.99382972717285 -31.848655700683594 -18.269737243652344
v 28.993824005126953 -18.387840270996094 -31.73057746887207
v 28.99382781982422 -1.620436887606047e-05 -36.6575927734375
v 17.157737731933594 -35.29920196533203 -20.261903762817383
v 17.157730102539062 -40.7599983215332 0.1180940642952919
v 17.157737731933594 -20.380008697509766 -35.18111038208008
v 17.157739639282227 -1.620436887606047e-05 -40.64192199707031
v 5.321644306182861 -34.27174758911133 -19.668703079223633
v -16.222991943359375 -26.055368423461914 -14.924982070922852
v -16.222999572753906 -30.08612823486328 0.11808221787214279
v 5.321646690368652 -19.786813735961914 -34.15364456176758
v -16.222991943359375 -15.043079376220703 -25.937299728393555
v 5.321647644042969 -1.620436887606047e-05 -39.45552444458008
v -16.222993850708008 -1.620436887606047e-05 -29.968069076538086
v -39.711997985839844 -12.074152946472168 -6.852946758270264
v -39.71199035644531 -6.971023082733154 -11.956092834472656
v 34.35079574584961 10.80828857421875 -18.60245704650879
v 34.35079574584961 -8.74336819833843e-06 -21.49852180480957
v 34.350807189941406 18.72051429748535 -10.690237045288086
v 28.993833541870117 18.387813568115234 -31.730581283569336
v 28.99382209777832 31.848651885986328 -18.269763946533203
v 17.15774154663086 20.379974365234375 -35.181129455566406
v 17.15773582458496 35.29918670654297 -20.26193618774414
v 5.321647644042969 19.786773681640625 -34.15367889404297
v -16.222990036010742 15.043047904968262 -25.93730354309082
v 5.321643352508545 34.2717170715332 -19.668745040893555
v -16.222993850708008 26.05536460876465 -14.925015449523926
v -39.711997985839844 6.971005439758301 -11.956092834472656
v -39.71200180053711 -8.74336819833843e-06 -13.823976516723633
v -39.71199035644531 12.074151039123535 -6.852963447570801
v -39.71200180053711 13.942035675048828 0.11805059760808945
v -16.22300148010254 -1.2823677479900653e-06 0.11806542426347733
v 36.7274284362793 -1.2823677479900653e-06 0.1180768832564354
v 25.063753128051758 -1.2823677479900653e-06 0.11807414144277573
v 34.350791931152344 21.61659049987793 0.11806738376617432
v 28.99382209777832 36.77566146850586 0.11805951595306396
v -16.222999572753906 30.086124420166016 0.11804863810539246
v 17.157730102539062 40.7599983215332 0.1180567592382431
v 5.321638584136963 39.5735969543457 0.11805586516857147
v 5.713494300842285 -1.2823677479900653e-06 0.11806894838809967
v 6.478474140167236 -8.430253028869629 -40.76630783081055
v 1.3507717847824097 -9.022172927856445 -38.731197357177734
v 1.1282131671905518 -6.40311336517334 -39.397003173828125
v 5.847651481628418 -1.1656328439712524 -42.60818099975586
v 1.1278786659240723 7.174074172973633 -39.61947250366211
v 0.8632327318191528 4.286311149597168 -40.346580505371094
v -1.3629870414733887 1.703804612159729 -40.27269744873047
v -4.450388431549072 5.295419692993164 -38.124839782714844
v -4.334229469299316 6.56292724609375 -37.805694580078125
v -4.070367813110352 9.442120552062988 -37.08074188232422
v 9.077340126037598 -8.430258750915527 -33.6259765625
v 3.9496402740478516 -9.022172927856445 -31.590862274169922
v 3.727080821990967 -6.40311336517334 -32.25667190551758
v 8.446520805358887 -1.1656352281570435 -35.46784210205078
v 1.6600358486175537 -0.5693861246109009 -41.2540283203125
v 4.258904457092285 -0.5693874955177307 -34.11369705200195
v -2.619980812072754 -0.8251043558120728 -39.62331771850586
v -0.02111225575208664 -0.825106143951416 -32.48298263549805
v -2.373138904571533 -6.470609664916992 -38.103370666503906
v 0.22573047876358032 -6.470609664916992 -30.963035583496094
v -4.625385761260986 -1.2769728899002075 -38.764556884765625
v -2.026520252227783 -1.2769742012023926 -31.624225616455078
v -4.115731239318848 -6.838209629058838 -37.364295959472656
v -1.5168647766113281 -6.8382110595703125 -30.223962783813477
v 6.716174602508545 -23.2096004486084 -36.6385612487793
v 7.627499103546143 -17.918256759643555 -38.47907257080078
v 10.226373672485352 -17.91826057434082 -31.338729858398438
v 9.315041542053223 -23.20960807800293 -29.498231887817383
v -2.9130523204803467 -19.961599349975586 -34.059967041015625
v -0.3141840994358063 -19.961606979370117 -26.919631958007812
v -0.7764534950256348 -19.961606979370117 -28.18971061706543
v -3.4598734378814697 -13.994802474975586 -35.562347412109375
v -0.8610061407089233 -13.994804382324219 -28.422008514404297
v 0.5607966184616089 0.9861928224563599 -41.17751693725586
v 5.712507247924805 1.9904673099517822 -42.76622772216797
v 8.31137752532959 1.9904650449752808 -35.62588882446289
v 3.1596662998199463 0.98619145154953 -34.03718566894531
v 3.4621009826660156 4.286311149597168 -33.20624923706055
v 6.949651718139648 15.299310684204102 -39.42154312133789
v 9.548521041870117 15.299306869506836 -32.28120803833008
v 1.235880970954895 1.7038023471832275 -33.132362365722656
v -1.8515225648880005 5.295417308807373 -30.98450469970703
v -3.7582223415374756 12.848172187805176 -36.223121643066406
v -1.1593586206436157 12.848175048828125 -29.082796096801758
v 3.726745367050171 7.174073219299316 -32.4791374206543
v 1.466517686843872 10.869234085083008 -38.689064025878906
v 4.0653862953186035 10.86922550201416 -31.54874038696289
v 1.4576117992401123 13.25004768371582 -38.00694274902344
v 4.056483268737793 13.250046730041504 -30.866605758666992
v 6.262818813323975 17.086130142211914 -38.66205596923828
v 8.861688613891602 17.086130142211914 -31.52172088623047
v 4.851428985595703 18.106271743774414 -37.85745620727539
v 7.450296401977539 18.106271743774414 -30.717124938964844
v 3.1764893531799316 18.583877563476562 -37.11164855957031
v 5.775359630584717 18.583877563476562 -29.9713134765625
v 0.3611941933631897 14.04365348815918 -37.3815803527832
v 2.9600584506988525 14.043648719787598 -30.241256713867188
v 1.6989885568618774 18.74307632446289 -36.52847671508789
v 4.297852993011475 18.743074417114258 -29.388153076171875
v -6.560769081115723 -1.713061809539795 -37.935787200927734
v -9.730684280395508 -3.013536214828491 -36.41121292114258
v -7.131818771362305 -3.013537645339966 -29.270877838134766
v -3.9618988037109375 -1.71306312084198 -30.795455932617188
v -8.360289573669434 -8.685652732849121 -35.2926139831543
v -5.540105819702148 -7.138680458068848 -36.760189056396484
v -2.9412355422973633 -7.138682842254639 -29.619857788085938
v -5.761416912078857 -8.685656547546387 -28.152284622192383
v -12.626890182495117 -4.896787166595459 -34.82007598876953
v -10.028016090393066 -4.896789073944092 -27.679737091064453
v -10.821276664733887 -11.389847755432129 -33.625797271728516
v -8.222406387329102 -11.389851570129395 -26.4854679107666
v -15.7465238571167 -7.533082485198975 -32.93289566040039
v -13.147653579711914 -7.533083438873291 -25.792560577392578
v -14.55026626586914 -10.116230964660645 -32.63172149658203
v -11.951396942138672 -10.116232872009277 -25.49139404296875
v -17.994815826416016 -8.896483421325684 -31.725811004638672
v -19.49990463256836 -14.366752624511719 -29.61819839477539
v -16.90103530883789 -14.366756439208984 -22.477859497070312
v -15.395950317382812 -8.896484375 -24.585479736328125
v -10.538339614868164 6.115930080413818 -35.67504119873047
v -11.965718269348145 6.627202987670898 -35.00973129272461
v -9.36684513092041 6.627201080322266 -27.869396209716797
v -7.9394636154174805 6.115926742553711 -28.534706115722656
v -12.611472129821777 1.2010232210159302 -36.32194137573242
v -10.012603759765625 1.2010219097137451 -29.181608200073242
v -14.512377738952637 1.8067280054092407 -35.457359313964844
v -11.913504600524902 1.8067266941070557 -28.31702423095703
v -16.049877166748047 2.618291139602661 -34.66633987426758
v -13.451008796691895 2.618288993835449 -27.52600860595703
v -17.157047271728516 3.69887638092041 -33.95524215698242
v -14.558175086975098 3.698873281478882 -26.81490707397461
v -17.766948699951172 5.111655235290527 -33.330406188964844
v -15.168082237243652 5.111652851104736 -26.19007110595703
v -16.95433807373047 14.169342041015625 -31.043407440185547
v -14.35546588897705 14.169342994689941 -23.903076171875
v -12.306183815002441 7.765988349914551 -34.561092376708984
v -9.707308769226074 7.765989303588867 -27.42075538635254
v -11.884748458862305 12.555195808410645 -33.34886169433594
v -9.285874366760254 12.555192947387695 -26.208524703979492
v -15.851587295532227 17.1600341796875 -30.591991424560547
v -13.25271987915039 17.160032272338867 -23.451663970947266
v -13.84483528137207 18.778987884521484 -30.86075782775879
v -11.245969772338867 18.77899169921875 -23.720426559448242
v -11.337032318115234 13.01244068145752 -33.41782760620117
v -8.738158226013184 13.012441635131836 -26.277488708496094
v -10.629125595092773 19.16441535949707 -31.921276092529297
v -8.030252456665039 19.164413452148438 -24.78093910217285
v -8.587063789367676 18.455774307250977 -32.86658477783203
v -5.988195419311523 18.45577621459961 -25.726259231567383
v -10.382291793823242 12.19607162475586 -33.998111724853516
v -7.783416748046875 12.196069717407227 -26.857778549194336
v 5.321644306182861 -34.27174758911133 -19.668703079223633
v -16.222991943359375 -26.055368423461914 -14.924982070922852
v 5.321646690368652 -19.786813735961914 -34.15364456176758
v -16.222991943359375 -15.043079376220703 -25.937299728393555
v -16.222999572753906 -30.08612823486328 0.11808221787214279
v -16.222991943359375 -26.055368423461914 -14.924982070922852
v -16.222991943359375 -26.055368423461914 -14.924982070922852
v -39.711997985839844 -12.074152946472168 -6.852946758270264
v -16.222991943359375 -15.043079376220703 -25.937299728393555
v -16.222991943359375 -15.043079376220703 -25.937299728393555
v -39.71199035644531 -6.971023082733154 -11.956092834472656
v -16.222993850708008 -1.620436887606047e-05 -29.968069076538086
v -39.71200180053711 -13.942037582397461 0.11806738376617432
v -39.711997985839844 -12.074152946472168 -6.852946758270264
v -39.711997985839844 -12.074152946472168 -6.852946758270264
v -44.398712158203125 -1.2823677479900653e-06 0.11805770546197891
v -39.71199035644531 -6.971023082733154 -11.956092834472656
v -39.71199035644531 -6.971023082733154 -11.956092834472656
v -44.398712158203125 -1.2823677479900653e-06 0.11805770546197891
v -39.71200180053711 -8.74336819833843e-06 -13.823976516723633
v 5.321644306182861 -34.27174758911133 -19.668703079223633
v 5.321638584136963 -39.5735969543457 0.11808943748474121
v 5.321646690368652 -19.786813735961914 -34.15364456176758
v 5.321647644042969 -1.620436887606047e-05 -39.45552444458008
v 5.321647644042969 -1.620436887606047e-05 -39.45552444458008
v -16.222993850708008 -1.620436887606047e-05 -29.968069076538086
v 5.321647644042969 19.786773681640625 -34.15367889404297
v -16.222990036010742 15.043047904968262 -25.93730354309082
v 5.321643352508545 34.2717170715332 -19.668745040893555
v -16.222993850708008 26.05536460876465 -14.925015449523926
v -16.222993850708008 -1.620436887606047e-05 -29.968069076538086
v -39.71200180053711 -8.74336819833843e-06 -13.823976516723633
v -16.222990036010742 15.043047904968262 -25.93730354309082
v -16.222990036010742 15.043047904968262 -25.93730354309082
v -39.711997985839844 6.971005439758301 -11.956092834472656
v -16.222993850708008 26.05536460876465 -14.925015449523926
v -16.222993850708008 26.05536460876465 -14.925015449523926
v -39.71199035644531 12.074151039123535 -6.852963447570801
v -16.222999572753906 30.086124420166016 0.11804863810539246
v -39.71200180053711 -8.74336819833843e-06 -13.823976516723633
v -44.398712158203125 -1.2823677479900653e-06 0.11805770546197891
v -39.711997985839844 6.971005439758301 -11.956092834472656
v -39.711997985839844 6.971005439758301 -11.956092834472656
v -44.398712158203125 -1.2823677479900653e-06 0.11805770546197891
v -39.71199035644531 12.074151039123535 -6.852963447570801
v -39.71199035644531 12.074151039123535 -6.852963447570801
v -44.398712158203125 -1.2823677479900653e-06 0.11805770546197891
v -39.71200180053711 13.942035675048828 0.11805059760808945
v 5.321647644042969 19.786773681640625 -34.15367889404297
v 5.321643352508545 34.2717170715332 -19.668745040893555
v 5.321638584136963 39.5735969543457 0.11805586516857147
v 34.350791931152344 -21.616594314575195 0.11808603256940842
v 36.7274284362793 -1.2823677479900653e-06 0.1180768832564354
v 25.063753128051758 -1.2823677479900653e-06 0.11807414144277573
v 28.99382209777832 -36.77566146850586 0.11809495836496353
v -16.222999572753906 -30.08612823486328 0.11808221787214279
v -39.71200180053711 -13.942037582397461 0.11806738376617432
v -44.398712158203125 -1.2823677479900653e-06 0.11805770546197891
v 17.157730102539062 -40.7599983215332 0.1180940642952919
v 5.321638584136963 -39.5735969543457 0.11808943748474121
v 25.063753128051758 -1.2823677479900653e-06 0.11807414144277573
v 34.350791931152344 21.61659049987793 0.11806738376617432
v 28.99382209777832 36.77566146850586 0.11805951595306396
v -16.222999572753906 30.086124420166016 0.11804863810539246
v -39.71200180053711 13.942035675048828 0.11805059760808945
v 17.157730102539062 40.7599983215332 0.1180567592382431
v 5.321638584136963 39.5735969543457 0.11805586516857147
v 1.3507717847824097 -9.022172927856445 -38.731197357177734
v 6.478474140167236 -8.430253028869629 -40.76630783081055
v 1.1282131671905518 -6.40311336517334 -39.397003173828125
v 1.3507717847824097 -9.022172927856445 -38.731197357177734
v 3.9496402740478516 -9.022172927856445 -31.590862274169922
v 6.478474140167236 -8.430253028869629 -40.76630783081055
v 5.847651481628418 -1.1656328439712524 -42.60818099975586
v 9.077340126037598 -8.430258750915527 -33.6259765625
v 5.847651481628418 -1.1656328439712524 -42.60818099975586
v 8.446520805358887 -1.1656352281570435 -35.46784210205078
v 1.6600358486175537 -0.5693861246109009 -41.2540283203125
v 4.258904457092285 -0.5693874955177307 -34.11369705200195
v 1.1282131671905518 -6.40311336517334 -39.397003173828125
v 3.727080821990967 -6.40311336517334 -32.25667190551758
v -0.02111225575208664 -0.825106143951416 -32.48298263549805
v -2.619980812072754 -0.8251043558120728 -39.62331771850586
v -2.373138904571533 -6.470609664916992 -38.103370666503906
v 0.22573047876358032 -6.470609664916992 -30.963035583496094
v 9.315041542053223 -23.20960807800293 -29.498231887817383
v 6.716174602508545 -23.2096004486084 -36.6385612487793
v 7.627499103546143 -17.918256759643555 -38.47907257080078
v 10.226373672485352 -17.91826057434082 -31.338729858398438
v 0.8632327318191528 4.286311149597168 -40.346580505371094
v 0.5607966184616089 0.9861928224563599 -41.17751693725586
v 3.1596662998199463 0.98619145154953 -34.03718566894531
v 5.712507247924805 1.9904673099517822 -42.76622772216797
v 8.31137752532959 1.9904650449752808 -35.62588882446289
v -1.3629870414733887 1.703804612159729 -40.27269744873047
v 0.8632327318191528 4.286311149597168 -40.346580505371094
v 3.4621009826660156 4.286311149597168 -33.20624923706055
v -4.450388431549072 5.295419692993164 -38.124839782714844
v -1.3629870414733887 1.703804612159729 -40.27269744873047
v 1.235880970954895 1.7038023471832275 -33.132362365722656
v 1.1278786659240723 7.174074172973633 -39.61947250366211
v 1.1278786659240723 7.174074172973633 -39.61947250366211
v 3.726745367050171 7.174073219299316 -32.4791374206543
v 1.466517686843872 10.869234085083008 -38.689064025878906
v 4.0653862953186035 10.86922550201416 -31.54874038696289
v 6.949651718139648 15.299310684204102 -39.42154312133789
v 9.548521041870117 15.299306869506836 -32.28120803833008
v 6.262818813323975 17.086130142211914 -38.66205596923828
v 8.861688613891602 17.086130142211914 -31.52172088623047
v 4.851428985595703 18.106271743774414 -37.85745620727539
v 7.450296401977539 18.106271743774414 -30.717124938964844
v 1.4576117992401123 13.25004768371582 -38.00694274902344
v 4.056483268737793 13.250046730041504 -30.866605758666992
v 0.3611941933631897 14.04365348815918 -37.3815803527832
v 2.9600584506988525 14.043648719787598 -30.241256713867188
v 3.1764893531799316 18.583877563476562 -37.11164855957031
v 1.6989885568618774 18.74307632446289 -36.52847671508789
v 4.297852993011475 18.743074417114258 -29.388153076171875
v 5.775359630584717 18.583877563476562 -29.9713134765625
v -2.373138904571533 -6.470609664916992 -38.103370666503906
v -2.619980812072754 -0.8251043558120728 -39.62331771850586
v 1.6600358486175537 -0.5693861246109009 -41.2540283203125
v -2.9130523204803467 -19.961599349975586 -34.059967041015625
v -3.4598734378814697 -13.994802474975586 -35.562347412109375
v 7.627499103546143 -17.918256759643555 -38.47907257080078
v 6.716174602508545 -23.2096004486084 -36.6385612487793
v 1.466517686843872 10.869234085083008 -38.689064025878906
v 6.949651718139648 15.299310684204102 -39.42154312133789
v 5.712507247924805 1.9904673099517822 -42.76622772216797
v 0.5607966184616089 0.9861928224563599 -41.17751693725586
v 1.4576117992401123 13.25004768371582 -38.00694274902344
v 6.262818813323975 17.086130142211914 -38.66205596923828
v 0.3611941933631897 14.04365348815918 -37.3815803527832
v 1.6989885568618774 18.74307632446289 -36.52847671508789
v 3.1764893531799316 18.583877563476562 -37.11164855957031
v 4.851428985595703 18.106271743774414 -37.85745620727539
v -4.625385761260986 -1.2769728899002075 -38.764556884765625
v -4.115731239318848 -6.838209629058838 -37.364295959472656
v -3.7582223415374756 12.848172187805176 -36.223121643066406
v -9.730684280395508 -3.013536214828491 -36.41121292114258
v -7.131818771362305 -3.013537645339966 -29.270877838134766
v -8.360289573669434 -8.685652732849121 -35.2926139831543
v -5.761416912078857 -8.685656547546387 -28.152284622192383
v -12.626890182495117 -4.896787166595459 -34.82007598876953
v -10.028016090393066 -4.896789073944092 -27.679737091064453
v -15.7465238571167 -7.533082485198975 -32.93289566040039
v -13.147653579711914 -7.533083438873291 -25.792560577392578
v -14.55026626586914 -10.116230964660645 -32.63172149658203
v -17.994815826416016 -8.896483421325684 -31.725811004638672
v -15.395950317382812 -8.896484375 -24.585479736328125
v -11.951396942138672 -10.116232872009277 -25.49139404296875
v -10.538339614868164 6.115930080413818 -35.67504119873047
v -7.9394636154174805 6.115926742553711 -28.534706115722656
v -12.611472129821777 1.2010232210159302 -36.32194137573242
v -10.012603759765625 1.2010219097137451 -29.181608200073242
v -14.512377738952637 1.8067280054092407 -35.457359313964844
v -11.913504600524902 1.8067266941070557 -28.31702423095703
v -16.049877166748047 2.618291139602661 -34.66633987426758
v -13.451008796691895 2.618288993835449 -27.52600860595703
v -17.157047271728516 3.69887638092041 -33.95524215698242
v -14.558175086975098 3.698873281478882 -26.81490707397461
v -17.766948699951172 5.111655235290527 -33.330406188964844
v -15.168082237243652 5.111652851104736 -26.19007110595703
v -11.965718269348145 6.627202987670898 -35.00973129272461
v -9.36684513092041 6.627201080322266 -27.869396209716797
v -12.306183815002441 7.765988349914551 -34.561092376708984
v -9.707308769226074 7.765989303588867 -27.42075538635254
v -16.95433807373047 14.169342041015625 -31.043407440185547
v -14.35546588897705 14.169342994689941 -23.903076171875
v -15.851587295532227 17.1600341796875 -30.591991424560547
v -13.25271987915039 17.160032272338867 -23.451663970947266
v -11.884748458862305 12.555195808410645 -33.34886169433594
v -9.285874366760254 12.555192947387695 -26.208524703979492
v -13.84483528137207 18.778987884521484 -30.86075782775879
v -11.245969772338867 18.77899169921875 -23.720426559448242
v -10.629125595092773 19.16441535949707 -31.921276092529297
v -8.030252456665039 19.164413452148438 -24.78093910217285
v -11.337032318115234 13.01244068145752 -33.41782760620117
v -8.738158226013184 13.012441635131836 -26.277488708496094
v -5.540105819702148 -7.138680458068848 -36.760189056396484
v -6.560769081115723 -1.713061809539795 -37.935787200927734
v -8.360289573669434 -8.685652732849121 -35.2926139831543
v -12.626890182495117 -4.896787166595459 -34.82007598876953
v -9.730684280395508 -3.013536214828491 -36.41121292114258
v -19.49990463256836 -14.366752624511719 -29.61819839477539
v -17.994815826416016 -8.896483421325684 -31.725811004638672
v -14.55026626586914 -10.116230964660645 -32.63172149658203
v -10.821276664733887 -11.389847755432129 -33.625797271728516
v -15.7465238571167 -7.533082485198975 -32.93289566040039
v -11.965718269348145 6.627202987670898 -35.00973129272461
v -10.538339614868164 6.115930080413818 -35.67504119873047
v -12.611472129821777 1.2010232210159302 -36.32194137573242
v -14.512377738952637 1.8067280054092407 -35.457359313964844
v -16.049877166748047 2.618291139602661 -34.66633987426758
v -10.629125595092773 19.16441535949707 -31.921276092529297
v -8.587063789367676 18.455774307250977 -32.86658477783203
v -10.382291793823242 12.19607162475586 -33.998111724853516
v -11.337032318115234 13.01244068145752 -33.41782760620117
v -11.884748458862305 12.555195808410645 -33.34886169433594
v -16.95433807373047 14.169342041015625 -31.043407440185547
v -15.851587295532227 17.1600341796875 -30.591991424560547
v -13.84483528137207 18.778987884521484 -30.86075782775879
v -12.306183815002441 7.765988349914551 -34.561092376708984
v -17.157047271728516 3.69887638092041 -33.95524215698242
v -17.766948699951172 5.111655235290527 -33.330406188964844
v -6.560769081115723 -1.713061809539795 -37.935787200927734
v -3.9618988037109375 -1.71306312084198 -30.795455932617188
v -2.9412355422973633 -7.138682842254639 -29.619857788085938
v -5.540105819702148 -7.138680458068848 -36.760189056396484
v -16.90103530883789 -14.366756439208984 -22.477859497070312
v -19.49990463256836 -14.366752624511719 -29.61819839477539
v -10.821276664733887 -11.389847755432129 -33.625797271728516
v -8.222406387329102 -11.389851570129395 -26.4854679107666
v -7.783416748046875 12.196069717407227 -26.857778549194336
v -10.382291793823242 12.19607162475586 -33.998111724853516
v -8.587063789367676 18.455774307250977 -32.86658477783203
v -5.988195419311523 18.45577621459961 -25.726259231567383
vt 0.5664969682693481 0.1420232653617859
vt 0.5822020769119263 0.15530115365982056
vt 0.5851007699966431 0.18116801977157593
vt 0.5585459470748901 0.23103195428848267
vt 0.5441017150878906 0.24597936868667603
vt 0.5131349563598633 0.24718493223190308
vt 0.5244021415710449 0.23143655061721802
vt 0.5020013451576233 0.23143655061721802
vt 0.5132018327713013 0.21400612592697144
vt 0.5244021415710449 0.23143655061721802
vt 0.5132018327713013 0.21400612592697144
vt 0.5020013451576233 0.23143655061721802
vt 0.5132018327713013 0.21400612592697144
vt 0.5522990226745605 0.1420232653617859
vt 0.5359045267105103 0.1420232653617859
vt 0.5580474138259888 0.15530115365982056
vt 0.530156135559082 0.15530115365982056
vt 0.5060014724731445 0.15530115365982056
vt 0.5595583915710449 0.16823464632034302
vt 0.5863299369812012 0.16823464632034302
vt 0.5286452770233154 0.16823464632034302
vt 0.5018736720085144 0.16823464632034302
vt 0.5591084361076355 0.18116801977157593
vt 0.5555107593536377 0.2047101855278015
vt 0.5752716064453125 0.2047101855278015
vt 0.5290951728820801 0.18116801977157593
vt 0.5326929092407227 0.2047101855278015
vt 0.5031027793884277 0.18116801977157593
vt 0.5129319429397583 0.2047101855278015
vt 0.5493887662887573 0.23103195428848267
vt 0.5388148427009583 0.23103183507919312
vt 0.5359045267105103 0.1420232653617859
vt 0.5217065811157227 0.1420232653617859
vt 0.5522991418838501 0.1420232653617859
vt 0.530156135559082 0.15530115365982056
vt 0.5580475330352783 0.15530115365982056
vt 0.5286452770233154 0.16823464632034302
vt 0.5595583915710449 0.16823464632034302
vt 0.5290951728820801 0.18116801977157593
vt 0.5326929092407227 0.2047101855278015
vt 0.5591084361076355 0.18116801977157593
vt 0.5555107593536377 0.2047101855278015
vt 0.538814902305603 0.23103195428848267
vt 0.5296576023101807 0.23103183507919312
vt 0.5493887662887573 0.23103183507919312
vt 0.5585460662841797 0.23103183507919312
vt 0.5893380045890808 0.20747333765029907
vt 0.5441017150878906 0.12807148694992065
vt 0.5893380045890808 0.15904492139816284
vt 0.5664970278739929 0.1420232653617859
vt 0.5822020769119263 0.15530115365982056
vt 0.5752716064453125 0.2047101855278015
vt 0.5863299369812012 0.16823464632034302
vt 0.5851008296012878 0.18116801977157593
vt 0.5893380045890808 0.18174225091934204
vt 0.11322104185819626 0.12225115299224854
vt 0.11322497576475143 0.10386824607849121
vt 0.11320794373750687 0.10392999649047852
vt 0.11317398399114609 0.1223750114440918
vt 0.11311990767717361 0.1043633222579956
vt 0.1131386086344719 0.1043630838394165
vt 0.11315532773733139 0.09730541706085205
vt 0.11313208192586899 0.08518540859222412
vt 0.11312387138605118 0.08518540859222412
vt 0.11310525983572006 0.08518540859222412
vt 0.06073610484600067 0.12154930830001831
vt 0.060738712549209595 0.10301607847213745
vt 0.06072726845741272 0.10307854413986206
vt 0.06070457398891449 0.12167423963546753
vt 0.060701966285705566 0.10689228773117065
vt 0.060701966285705566 0.10689228773117065
vt 0.060703158378601074 0.09150022268295288
vt 0.060703158378601074 0.09150022268295288
vt 0.060727670788764954 0.09053319692611694
vt 0.060727670788764954 0.09053319692611694
vt 0.060705170035362244 0.08418029546737671
vt 0.060705170035362244 0.08418029546737671
vt 0.060729071497917175 0.08418029546737671
vt 0.060729071497917175 0.08418029546737671
vt 0.060800179839134216 0.11755460500717163
vt 0.060777291655540466 0.12254947423934937
vt 0.060777291655540466 0.12254947423934937
vt 0.060800179839134216 0.11755460500717163
vt 0.06078612804412842 0.08418029546737671
vt 0.06078612804412842 0.08418029546737671
vt 0.06078612804412842 0.08418029546737671
vt 0.06076021492481232 0.08418029546737671
vt 0.06076021492481232 0.08418029546737671
vt 0.060695335268974304 0.10351532697677612
vt 0.06069090962409973 0.12161177396774292
vt 0.06069090962409973 0.12161177396774292
vt 0.060695335268974304 0.10351532697677612
vt 0.06068107485771179 0.10351532697677612
vt 0.060633257031440735 0.12167423963546753
vt 0.060633257031440735 0.12167423963546753
vt 0.06069211661815643 0.09639972448348999
vt 0.06067664921283722 0.08418029546737671
vt 0.060643911361694336 0.08418029546737671
vt 0.060643911361694336 0.08418029546737671
vt 0.06066840887069702 0.10351532697677612
vt 0.060652539134025574 0.10351532697677612
vt 0.060652539134025574 0.10351532697677612
vt 0.06064210832118988 0.1027030348777771
vt 0.06064210832118988 0.1027030348777771
vt 0.060625433921813965 0.11863201856613159
vt 0.060625433921813965 0.11863201856613159
vt 0.06062100827693939 0.11324971914291382
vt 0.06062100827693939 0.11324971914291382
vt 0.06061899662017822 0.10710257291793823
vt 0.06061899662017822 0.10710257291793823
vt 0.060638681054115295 0.0985214114189148
vt 0.060638681054115295 0.0985214114189148
vt 0.06061840057373047 0.10176676511764526
vt 0.06061840057373047 0.10176676511764526
vt 0.06070698797702789 0.07711547613143921
vt 0.060712605714797974 0.06535190343856812
vt 0.060712605714797974 0.06535190343856812
vt 0.06070698797702789 0.07711547613143921
vt 0.06073731184005737 0.06839340925216675
vt 0.06073048710823059 0.07898730039596558
vt 0.06073048710823059 0.07898730039596558
vt 0.06073731184005737 0.06839340925216675
vt 0.06072084605693817 0.054376065731048584
vt 0.06072084605693817 0.054376065731048584
vt 0.06074896454811096 0.058705270290374756
vt 0.06074896454811096 0.058705270290374756
vt 0.060732290148735046 0.042354047298431396
vt 0.060732290148735046 0.042354047298431396
vt 0.06074333190917969 0.04578584432601929
vt 0.06074333190917969 0.04578584432601929
vt 0.06073811650276184 0.03386658430099487
vt 0.06076182425022125 0.02668970823287964
vt 0.06076182425022125 0.02668970823287964
vt 0.06073811650276184 0.03386658430099487
vt 0.060673028230667114 0.06213754415512085
vt 0.060670822858810425 0.05686444044113159
vt 0.060670822858810425 0.05686444044113159
vt 0.060673028230667114 0.06213754415512085
vt 0.06069432199001312 0.056333720684051514
vt 0.06069432199001312 0.056333720684051514
vt 0.0606917142868042 0.04933589696884155
vt 0.0606917142868042 0.04933589696884155
vt 0.06068830192089081 0.043571412563323975
vt 0.06068830192089081 0.043571412563323975
vt 0.060683473944664 0.039257943630218506
vt 0.060683473944664 0.039257943630218506
vt 0.06067745387554169 0.03661292791366577
vt 0.06067745387554169 0.03661292791366577
vt 0.06063808500766754 0.03655046224594116
vt 0.06063808500766754 0.03655046224594116
vt 0.0606658011674881 0.05527395009994507
vt 0.0606658011674881 0.05527395009994507
vt 0.06064511835575104 0.055211007595062256
vt 0.06064511835575104 0.055211007595062256
vt 0.06062522530555725 0.03951448202133179
vt 0.06062522530555725 0.03951448202133179
vt 0.060618191957473755 0.04616039991378784
vt 0.060618191957473755 0.04616039991378784
vt 0.06064310669898987 0.05701988935470581
vt 0.06064310669898987 0.05701988935470581
vt 0.06061659753322601 0.05753535032272339
vt 0.06061659753322601 0.05753535032272339
vt 0.06061960756778717 0.06507152318954468
vt 0.06061960756778717 0.06507152318954468
vt 0.06064672768115997 0.06070202589035034
vt 0.06064672768115997 0.06070202589035034
vt 0.5591084361076355 0.18116801977157593
vt 0.5555107593536377 0.2047101855278015
vt 0.5290951728820801 0.18116801977157593
vt 0.5326929092407227 0.2047101855278015
vt 0.5752716064453125 0.2047101855278015
vt 0.5555107593536377 0.2047101855278015
vt 0.5555107593536377 0.2047101855278015
vt 0.5493887662887573 0.23103195428848267
vt 0.5326929092407227 0.2047101855278015
vt 0.5326929092407227 0.2047101855278015
vt 0.5388148427009583 0.23103183507919312
vt 0.5129319429397583 0.2047101855278015
vt 0.5585459470748901 0.23103195428848267
vt 0.5493887662887573 0.23103195428848267
vt 0.5493887662887573 0.23103195428848267
vt 0.5441017150878906 0.24597936868667603
vt 0.5388148427009583 0.23103183507919312
vt 0.5388148427009583 0.23103183507919312
vt 0.5441017150878906 0.24597936868667603
vt 0.5296576023101807 0.23103183507919312
vt 0.5591084361076355 0.18116801977157593
vt 0.5851007699966431 0.18116801977157593
vt 0.5290951728820801 0.18116801977157593
vt 0.5031027793884277 0.18116801977157593
vt 0.5031028389930725 0.18116801977157593
vt 0.5129319429397583 0.2047101855278015
vt 0.5290951728820801 0.18116801977157593
vt 0.5326929092407227 0.2047101855278015
vt 0.5591084361076355 0.18116801977157593
vt 0.5555107593536377 0.2047101855278015
vt 0.5129319429397583 0.2047101855278015
vt 0.5296577215194702 0.23103195428848267
vt 0.5326929092407227 0.2047101855278015
vt 0.5326929092407227 0.2047101855278015
vt 0.538814902305603 0.23103195428848267
vt 0.5555107593536377 0.2047101855278015
vt 0.5555107593536377 0.2047101855278015
vt 0.5493887662887573 0.23103183507919312
vt 0.5752716064453125 0.2047101855278015
vt 0.5296577215194702 0.23103195428848267
vt 0.5441019535064697 0.24597936868667603
vt 0.538814902305603 0.23103195428848267
vt 0.538814902305603 0.23103195428848267
vt 0.5441019535064697 0.24597936868667603
vt 0.5493887662887573 0.23103183507919312
vt 0.5493887662887573 0.23103183507919312
vt 0.5441019535064697 0.24597936868667603
vt 0.5585460662841797 0.23103183507919312
vt 0.5290951728820801 0.18116801977157593
vt 0.5591084361076355 0.18116801977157593
vt 0.5851008296012878 0.18116801977157593
vt 0.6080487966537476 0.14815133810043335
vt 0.5893380045890808 0.14536362886428833
vt 0.5893380045890808 0.15904492139816284
vt 0.621170163154602 0.15443485975265503
vt 0.615379810333252 0.20747333765029907
vt 0.6014058589935303 0.23502546548843384
vt 0.5893380045890808 0.24052280187606812
vt 0.6246190071105957 0.16831845045089722
vt 0.623591959476471 0.18220192193984985
vt 0.5893380045890808 0.15904492139816284
vt 0.6080487966537476 0.14815133810043335
vt 0.621170163154602 0.15443485975265503
vt 0.615379810333252 0.20747333765029907
vt 0.6014058589935303 0.23502546548843384
vt 0.6246190071105957 0.16831845045089722
vt 0.623591959476471 0.18220192193984985
vt 0.060738712549209595 0.10301607847213745
vt 0.06073610484600067 0.12154930830001831
vt 0.06072726845741272 0.10307854413986206
vt 0.060738712549209595 0.10301607847213745
vt 0.060738712549209595 0.10301607847213745
vt 0.06073610484600067 0.12154930830001831
vt 0.06070457398891449 0.12167423963546753
vt 0.06073610484600067 0.12154930830001831
vt 0.06070457398891449 0.12167423963546753
vt 0.06070457398891449 0.12167423963546753
vt 0.060701966285705566 0.10689228773117065
vt 0.060701966285705566 0.10689228773117065
vt 0.06072726845741272 0.10307854413986206
vt 0.06072726845741272 0.10307854413986206
vt 0.060703158378601074 0.09150022268295288
vt 0.060703158378601074 0.09150022268295288
vt 0.060727670788764954 0.09053319692611694
vt 0.060727670788764954 0.09053319692611694
vt 0.060800179839134216 0.11755460500717163
vt 0.060800179839134216 0.11755460500717163
vt 0.060777291655540466 0.12254947423934937
vt 0.060777291655540466 0.12254947423934937
vt 0.06068107485771179 0.10351532697677612
vt 0.060695335268974304 0.10351532697677612
vt 0.060695335268974304 0.10351532697677612
vt 0.06069090962409973 0.12161177396774292
vt 0.06069090962409973 0.12161177396774292
vt 0.06069211661815643 0.09639972448348999
vt 0.06068107485771179 0.10351532697677612
vt 0.06068107485771179 0.10351532697677612
vt 0.06067664921283722 0.08418029546737671
vt 0.06069211661815643 0.09639972448348999
vt 0.06069211661815643 0.09639972448348999
vt 0.06066840887069702 0.10351532697677612
vt 0.06066840887069702 0.10351532697677612
vt 0.06066840887069702 0.10351532697677612
vt 0.060652539134025574 0.10351532697677612
vt 0.060652539134025574 0.10351532697677612
vt 0.060633257031440735 0.12167423963546753
vt 0.060633257031440735 0.12167423963546753
vt 0.060625433921813965 0.11863201856613159
vt 0.060625433921813965 0.11863201856613159
vt 0.06062100827693939 0.11324971914291382
vt 0.06062100827693939 0.11324971914291382
vt 0.06064210832118988 0.1027030348777771
vt 0.06064210832118988 0.1027030348777771
vt 0.060638681054115295 0.0985214114189148
vt 0.060638681054115295 0.0985214114189148
vt 0.06061899662017822 0.10710257291793823
vt 0.06061840057373047 0.10176676511764526
vt 0.06061840057373047 0.10176676511764526
vt 0.06061899662017822 0.10710257291793823
vt 0.11320839077234268 0.09148633480072021
vt 0.11317173391580582 0.09244585037231445
vt 0.1131700947880745 0.10771286487579346
vt 0.11329580098390579 0.08518540859222412
vt 0.11325711756944656 0.08518540859222412
vt 0.11328256875276566 0.12324285507202148
vt 0.11331679672002792 0.11828851699829102
vt 0.1130959615111351 0.1043633222579956
vt 0.11306724697351456 0.1223750114440918
vt 0.11315350979566574 0.12231302261352539
vt 0.11316003650426865 0.1043630838394165
vt 0.11308052390813828 0.10355734825134277
vt 0.11305568367242813 0.11935734748840332
vt 0.11307539790868759 0.09940946102142334
vt 0.11304483562707901 0.10262882709503174
vt 0.11304598301649094 0.10792148113250732
vt 0.11304906755685806 0.11401891708374023
vt 0.1131746843457222 0.08518540859222412
vt 0.1132107600569725 0.08518540859222412
vt 0.113083116710186 0.08518540859222412
vt 0.060712605714797974 0.06535190343856812
vt 0.060712605714797974 0.06535190343856812
vt 0.06073731184005737 0.06839340925216675
vt 0.06073731184005737 0.06839340925216675
vt 0.06072084605693817 0.054376065731048584
vt 0.06072084605693817 0.054376065731048584
vt 0.060732290148735046 0.042354047298431396
vt 0.060732290148735046 0.042354047298431396
vt 0.06074333190917969 0.04578584432601929
vt 0.06073811650276184 0.03386658430099487
vt 0.06073811650276184 0.03386658430099487
vt 0.06074333190917969 0.04578584432601929
vt 0.060673028230667114 0.06213754415512085
vt 0.060673028230667114 0.06213754415512085
vt 0.06069432199001312 0.056333720684051514
vt 0.06069432199001312 0.056333720684051514
vt 0.0606917142868042 0.04933589696884155
vt 0.0606917142868042 0.04933589696884155
vt 0.06068830192089081 0.043571412563323975
vt 0.06068830192089081 0.043571412563323975
vt 0.060683473944664 0.039257943630218506
vt 0.060683473944664 0.039257943630218506
vt 0.06067745387554169 0.03661292791366577
vt 0.06067745387554169 0.03661292791366577
vt 0.060670822858810425 0.05686444044113159
vt 0.060670822858810425 0.05686444044113159
vt 0.0606658011674881 0.05527395009994507
vt 0.0606658011674881 0.05527395009994507
vt 0.06063808500766754 0.03655046224594116
vt 0.06063808500766754 0.03655046224594116
vt 0.06062522530555725 0.03951448202133179
vt 0.06062522530555725 0.03951448202133179
vt 0.06064511835575104 0.055211007595062256
vt 0.06064511835575104 0.055211007595062256
vt 0.060618191957473755 0.04616039991378784
vt 0.060618191957473755 0.04616039991378784
vt 0.06061659753322601 0.05753535032272339
vt 0.06061659753322601 0.05753535032272339
vt 0.06064310669898987 0.05701988935470581
vt 0.06064310669898987 0.05701988935470581
vt 0.11321262270212173 0.08003437519073486
vt 0.11317751556634903 0.07817745208740234
vt 0.11322277039289474 0.0695263147354126
vt 0.11319815367460251 0.05562245845794678
vt 0.11318593472242355 0.06650960445404053
vt 0.11325954645872116 0.028161287307739258
vt 0.11322403699159622 0.03527975082397461
vt 0.11323197931051254 0.04710233211517334
vt 0.11324023455381393 0.05991673469543457
vt 0.11321517080068588 0.04369831085205078
vt 0.11312352865934372 0.05809056758880615
vt 0.11312674731016159 0.06332135200500488
vt 0.11315863579511642 0.057564735412597656
vt 0.11315470188856125 0.05062365531921387
vt 0.11314945667982101 0.044905900955200195
vt 0.1130421832203865 0.05875670909881592
vt 0.11304677277803421 0.06623148918151855
vt 0.11308734863996506 0.0618971586227417
vt 0.11308201402425766 0.058245301246643066
vt 0.1130850538611412 0.056450605392456055
vt 0.11307456344366074 0.037941575050354004
vt 0.11305525153875351 0.04088187217712402
vt 0.11304470151662827 0.04747426509857178
vt 0.11311610788106918 0.05651295185089111
vt 0.11314239352941513 0.04062700271606445
vt 0.1131332740187645 0.03800368309020996
vt 0.06070698797702789 0.07711547613143921
vt 0.06070698797702789 0.07711547613143921
vt 0.06073048710823059 0.07898730039596558
vt 0.06073048710823059 0.07898730039596558
vt 0.06076182425022125 0.02668970823287964
vt 0.06076182425022125 0.02668970823287964
vt 0.06074896454811096 0.058705270290374756
vt 0.06074896454811096 0.058705270290374756
vt 0.06064672768115997 0.06070202589035034
vt 0.06064672768115997 0.06070202589035034
vt 0.06061960756778717 0.06507152318954468
vt 0.06061960756778717 0.06507152318954468
vn 0.9632998108863831 -0.2592817544937134 -0.06947401911020279
vn 0.6941384077072144 -0.6953136324882507 -0.18630845844745636
vn -0.3914199769496918 -0.8888570070266724 -0.23816771805286407
vn -0.5530945062637329 -0.8047305345535278 -0.2156280279159546
vn -0.9444413185119629 -0.3174804151058197 -0.08506942540407181
vn 0.9617172479629517 0.05420553311705589 0.268629252910614
vn 0.9214270114898682 -0.3535339832305908 -0.1612023562192917
vn 0.9124398827552795 0.35008594393730164 0.21188043057918549
vn 0.9124725461006165 0.35432398319244385 0.20456922054290771
vn 0.9326424598693848 0.13894519209861755 0.33297497034072876
vn 0.8951939940452576 -0.005345548037439585 0.4456446170806885
vn 0.9095120429992676 0.02112049236893654 0.41514071822166443
vn 0.9713186621665955 -0.20592471957206726 0.11889104545116425
vn 0.969368040561676 -0.20316822826862335 -0.13801558315753937
vn 0.9693681001663208 -0.10694065690040588 -0.22110898792743683
vn 0.7051014304161072 -0.643211305141449 -0.2985149919986725
vn 0.7051010727882385 -0.407780259847641 -0.5801273584365845
vn 0.7051011323928833 -0.06308387219905853 -0.7062951326370239
vn 0.11205818504095078 -0.8129580020904541 -0.5714387893676758
vn 0.10871150344610214 -0.9602012038230896 -0.25728484988212585
vn 0.11205779016017914 -0.41832301020622253 -0.901359498500824
vn 0.11205816268920898 0.08840163052082062 -0.9897616505622864
vn -0.3914194703102112 -0.8888569474220276 -0.23816832900047302
vn -0.3914199769496918 -0.8888570070266724 -0.23816771805286407
vn -0.3914199769496918 -0.8888570070266724 -0.23816771805286407
vn -0.3914187252521515 -0.6506887674331665 -0.6506885290145874
vn -0.39141950011253357 -0.6506892442703247 -0.650687575340271
vn -0.39141929149627686 -0.23816947638988495 -0.8888567090034485
vn -0.3914182782173157 -0.23816825449466705 -0.8888574838638306
vn -0.5530945062637329 -0.8047305345535278 -0.2156280279159546
vn -0.5530949831008911 -0.5891040563583374 -0.5891030430793762
vn 0.969368040561676 0.1380157470703125 -0.20316806435585022
vn 0.9693681001663208 0.017941754311323166 -0.24495629966259003
vn 0.9693681001663208 0.22110919654369354 -0.10694035142660141
vn 0.7051013112068176 0.298515260219574 -0.643211305141449
vn 0.7051010727882385 0.580127477645874 -0.4077800512313843
vn 0.11205827444791794 0.5714387893676758 -0.8129580020904541
vn 0.1120578944683075 0.901359498500824 -0.41832298040390015
vn -0.39141932129859924 0.2381681501865387 -0.8888570666313171
vn -0.39141950011253357 0.23816800117492676 -0.8888571262359619
vn -0.39141884446144104 0.6506883502006531 -0.650688886642456
vn -0.39141955971717834 0.6506875157356262 -0.6506893634796143
vn -0.5530945062637329 0.21562787890434265 -0.8047304749488831
vn -0.5530954003334045 -0.21562829613685608 -0.804729700088501
vn -0.5530949831008911 0.5891030430793762 -0.5891040563583374
vn -0.5530955791473389 0.804729700088501 -0.21562840044498444
vn -2.47891591698135e-07 5.581844675361936e-07 1.0
vn 0.9973247051239014 -1.5829760968699702e-07 -0.07310010492801666
vn -2.3507287494339835e-07 4.490992466799071e-07 1.0
vn 0.9732017517089844 0.22211825847625732 -0.05951502546668053
vn 0.6941383481025696 0.6953136324882507 -0.1863085925579071
vn -0.3914185166358948 0.8888574838638306 -0.23816780745983124
vn 0.108711376786232 0.9602011442184448 -0.257285475730896
vn -0.3914198875427246 0.8888564705848694 -0.23816949129104614
vn -3.3867402748910536e-07 5.211001621319156e-07 1.0
vn -0.3303658068180084 -0.2588185667991638 -0.9076735973358154
vn -0.33036571741104126 -0.2588181793689728 -0.9076737761497498
vn -0.33036577701568604 -0.2588186264038086 -0.9076735973358154
vn -0.33036622405052185 -0.25881871581077576 -0.9076735377311707
vn -0.33036553859710693 0.2588197588920593 -0.9076734781265259
vn -0.3303658962249756 0.2588191032409668 -0.9076735377311707
vn -0.33036553859710693 0.2588200569152832 -0.9076732993125916
vn -0.3303660452365875 0.2588191330432892 -0.9076733589172363
vn -0.3303660750389099 0.25881895422935486 -0.9076734185218811
vn -0.3303653299808502 0.25882065296173096 -0.907673180103302
vn 0.10028892755508423 -0.9942886233329773 -0.03650294989347458
vn 0.10028824210166931 -0.9942886233329773 -0.036501917988061905
vn -0.9396690726280212 0.00709504121914506 0.34201154112815857
vn 0.9396803975105286 -0.005117602646350861 -0.34201550483703613
vn 0.1262352466583252 0.990935742855072 -0.04594569280743599
vn 0.1262352466583252 0.990935742855072 -0.04594569280743599
vn -0.05238896980881691 0.998444676399231 0.019068269059062004
vn -0.05238896980881691 0.998444676399231 0.019068269059062004
vn 0.016989409923553467 -0.9998365640640259 -0.006183639168739319
vn 0.016989411786198616 -0.9998365640640259 -0.006183639634400606
vn -0.19087719917297363 0.9791524410247803 0.06947372853755951
vn -0.19087719917297363 0.9791524410247803 0.06947372853755951
vn 0.17938026785850525 -0.9816109538078308 -0.06528908014297485
vn 0.17938069999217987 -0.9816109538078308 -0.06528938561677933
vn 0.9046997427940369 -0.27035218477249146 -0.3292842209339142
vn 0.9046997427940369 -0.27035218477249146 -0.3292842209339142
vn 0.9046997427940369 -0.27035218477249146 -0.3292842209339142
vn 0.9046997427940369 -0.27035239338874817 -0.32928401231765747
vn -0.2921219766139984 -0.9504526853561401 0.10632248967885971
vn -0.2921217978000641 -0.9504527449607849 0.10632330179214478
vn -0.2921217978000641 -0.9504527449607849 0.10632330179214478
vn 0.30541253089904785 0.9457095265388489 -0.11116068810224533
vn 0.30541253089904785 0.9457095265388489 -0.11116068810224533
vn 0.17229607701301575 -0.9830470085144043 -0.06271094083786011
vn 0.17229607701301575 -0.9830470085144043 -0.06271094083786011
vn 0.17229607701301575 -0.9830470085144043 -0.06271094083786011
vn 0.17229598760604858 -0.9830470085144043 -0.06271085143089294
vn -0.9396926164627075 -4.183411022040673e-07 0.3420201539993286
vn 0.9396917223930359 -0.0013965173857286572 -0.3420197665691376
vn 0.9396917223930359 -0.0013965173857286572 -0.3420197665691376
vn 0.7266924977302551 -0.634003758430481 -0.26449450850486755
vn -0.6603868007659912 -0.7114183902740479 0.2403605580329895
vn 0.659856379032135 0.7119753360748291 -0.24016815423965454
vn 0.659856379032135 0.7119753360748291 -0.24016815423965454
vn 0.659856379032135 0.7119753360748291 -0.24016815423965454
vn -0.9396927356719971 -4.075823767379916e-07 0.34201982617378235
vn -0.939692497253418 9.340458291262621e-07 0.34202054142951965
vn -0.9348886013031006 -0.10098764300346375 0.3402719497680664
vn -0.9348885416984558 -0.10098804533481598 0.3402717709541321
vn 0.8382678031921387 0.45190516114234924 -0.3051045536994934
vn 0.8382678031921387 0.45190516114234924 -0.3051045536994934
vn 0.504860520362854 0.8434158563613892 -0.18375416100025177
vn 0.504860520362854 0.8434158563613892 -0.18375416100025177
vn 0.23741909861564636 0.9675562381744385 -0.08641351759433746
vn 0.23741909861564636 0.9675562381744385 -0.08641351759433746
vn -0.5053377747535706 -0.8430920839309692 0.18392787873744965
vn -0.5053356289863586 -0.8430936932563782 0.183926522731781
vn -0.9204732179641724 0.20121468603610992 0.335024893283844
vn -0.9204732775688171 0.20121464133262634 0.3350248634815216
vn -0.32727834582328796 0.9373896718025208 0.11911958456039429
vn -0.32727834582328796 0.9373896718025208 0.11911958456039429
vn -0.32727834582328796 0.9373896718025208 0.11911958456039429
vn -0.327277809381485 0.9373899698257446 0.11911965161561966
vn 0.41401180624961853 -0.897712230682373 -0.15068840980529785
vn 0.41401180624961853 -0.897712230682373 -0.15068840980529785
vn 0.41401180624961853 -0.897712230682373 -0.15068840980529785
vn 0.41401228308677673 -0.8977119326591492 -0.15068894624710083
vn -0.4694296717643738 0.8662811517715454 0.17085887491703033
vn -0.4694296717643738 0.8662811517715454 0.17085887491703033
vn 0.6429097652435303 -0.729322075843811 -0.23400089144706726
vn 0.642909586429596 -0.7293223142623901 -0.23400059342384338
vn -0.557513415813446 0.804986298084259 0.20291846990585327
vn -0.557513415813446 0.804986298084259 0.20291846990585327
vn -0.873893141746521 -0.36761587858200073 0.31807130575180054
vn -0.873893141746521 -0.36761587858200073 0.31807130575180054
vn -0.8753734230995178 0.36360570788383484 0.3186098635196686
vn -0.8753734230995178 0.36360570788383484 0.3186098635196686
vn -0.8753734230995178 0.36360570788383484 0.3186098635196686
vn -0.8753736615180969 0.3636053502559662 0.31860971450805664
vn 0.2911657989025116 0.9507847428321838 -0.10597558319568634
vn 0.2911657989025116 0.9507847428321838 -0.10597558319568634
vn 0.2911657989025116 0.9507847428321838 -0.10597558319568634
vn 0.2911660969257355 0.9507846832275391 -0.10597562789916992
vn 0.8865625858306885 -0.33148497343063354 -0.3226833641529083
vn 0.8865623474121094 -0.33148646354675293 -0.32268235087394714
vn -0.2625001072883606 -0.9601902961730957 0.09554203599691391
vn -0.26250046491622925 -0.9601901769638062 0.09554231911897659
vn -0.40188223123550415 -0.9039329886436462 0.14627322554588318
vn -0.4018813967704773 -0.9039334654808044 0.14627259969711304
vn -0.6051753759384155 -0.7650136351585388 0.22026561200618744
vn -0.6051756739616394 -0.7650133371353149 0.22026582062244415
vn -0.8209577798843384 -0.4865637719631195 0.29880431294441223
vn -0.8209569454193115 -0.4865660071372986 0.2988033592700958
vn -0.9396907687187195 -0.0020528954919427633 0.34201905131340027
vn -0.9396904706954956 -0.0020523900166153908 0.3420199155807495
vn 0.8677104115486145 0.38384339213371277 -0.3158213496208191
vn 0.8677104115486145 0.38384339213371277 -0.3158213496208191
vn 0.9396854043006897 0.003881247481331229 -0.3420180082321167
vn 0.9396854043006897 0.003881247481331229 -0.3420180082321167
vn -0.9013257622718811 0.2828267812728882 0.3280562460422516
vn -0.9013260006904602 0.28282618522644043 0.3280560374259949
vn -0.595241129398346 0.7737897634506226 0.2166503518819809
vn -0.5952432155609131 0.7737882137298584 0.21665018796920776
vn 0.6083688139915466 -0.7621396780014038 -0.22142833471298218
vn 0.6083688139915466 -0.7621396780014038 -0.22142833471298218
vn -0.1063254103064537 0.9935781359672546 0.038698710501194
vn -0.10632340610027313 0.9935782551765442 0.03869886323809624
vn 0.2831781208515167 0.9535130262374878 -0.1030682623386383
vn 0.28317660093307495 0.953513503074646 -0.10306820273399353
vn -0.5614557862281799 -0.8018772006034851 0.2043534815311432
vn -0.5614557862281799 -0.8018772006034851 0.2043534815311432
vn -0.39141950011253357 -0.6506892442703247 -0.650687575340271
vn -0.39141950011253357 -0.6506892442703247 -0.650687575340271
vn -0.3914182782173157 -0.23816825449466705 -0.8888574838638306
vn -0.3914182782173157 -0.23816825449466705 -0.8888574838638306
vn -0.5530945062637329 -0.8047305345535278 -0.2156280279159546
vn -0.5530951023101807 -0.8047304749488831 -0.21562625467777252
vn -0.5530949831008911 -0.5891040563583374 -0.5891030430793762
vn -0.5530949831008911 -0.5891040563583374 -0.5891030430793762
vn -0.5530951619148254 -0.5891042947769165 -0.5891027450561523
vn -0.5530954003334045 -0.21562829613685608 -0.804729700088501
vn -0.5530954003334045 -0.21562829613685608 -0.804729700088501
vn -0.553094744682312 -0.21562661230564117 -0.8047306537628174
vn -0.9444413185119629 -0.3174804151058197 -0.08506942540407181
vn -0.9444413185119629 -0.3174804151058197 -0.08506942540407181
vn -0.9444412589073181 -0.23241189122200012 -0.23241263628005981
vn -0.9444412589073181 -0.23241189122200012 -0.23241263628005981
vn -0.9444412589073181 -0.23241189122200012 -0.23241263628005981
vn -0.9444412589073181 -0.0850704088807106 -0.3174803555011749
vn -0.9444412589073181 -0.0850704088807106 -0.3174803555011749
vn -0.9444412589073181 -0.0850704088807106 -0.3174803555011749
vn -0.09934457391500473 -0.9025857448577881 -0.41889122128486633
vn -0.09636972099542618 -0.9614301919937134 -0.2576141953468323
vn -0.09934500604867935 -0.5722167491912842 -0.8140630125999451
vn -0.09934467822313309 -0.08852279186248779 -0.9911076426506042
vn -0.39141950011253357 0.23816800117492676 -0.8888571262359619
vn -0.39141950011253357 0.23816800117492676 -0.8888571262359619
vn -0.39141955971717834 0.6506875157356262 -0.6506893634796143
vn -0.39141955971717834 0.6506875157356262 -0.6506893634796143
vn -0.3914185166358948 0.8888574838638306 -0.23816780745983124
vn -0.3914185166358948 0.8888574838638306 -0.23816780745983124
vn -0.5530945062637329 0.21562787890434265 -0.8047304749488831
vn -0.5530945062637329 0.21562787890434265 -0.8047304749488831
vn -0.5530950427055359 0.21562644839286804 -0.8047305941581726
vn -0.5530949831008911 0.5891030430793762 -0.5891040563583374
vn -0.5530949831008911 0.5891030430793762 -0.5891040563583374
vn -0.5530951023101807 0.5891026258468628 -0.5891043543815613
vn -0.5530955791473389 0.804729700088501 -0.21562840044498444
vn -0.5530955791473389 0.804729700088501 -0.21562840044498444
vn -0.5530948638916016 0.8047307729721069 -0.21562626957893372
vn -0.9444413781166077 0.08506947755813599 -0.3174804747104645
vn -0.9444413781166077 0.08506947755813599 -0.3174804747104645
vn -0.9444413781166077 0.08506947755813599 -0.3174804747104645
vn -0.9444411993026733 0.23241253197193146 -0.23241190612316132
vn -0.9444411993026733 0.23241253197193146 -0.23241190612316132
vn -0.9444411993026733 0.23241253197193146 -0.23241190612316132
vn -0.9444412589073181 0.31748029589653015 -0.08507043123245239
vn -0.9444412589073181 0.31748029589653015 -0.08507043123245239
vn -0.9444412589073181 0.31748029589653015 -0.08507043123245239
vn -0.09934433549642563 0.41889116168022156 -0.9025858044624329
vn -0.09934500604867935 0.8140629529953003 -0.572216808795929
vn -0.09637033939361572 0.9614297747612 -0.2576150894165039
vn -2.3507287494339835e-07 4.490992466799071e-07 1.0
vn -2.3507287494339835e-07 4.490992466799071e-07 1.0
vn 4.9445560534877586e-08 5.713357040804112e-07 1.0
vn 4.9445560534877586e-08 5.713357040804112e-07 1.0
vn -2.47891591698135e-07 5.581844675361936e-07 1.0
vn -2.47891591698135e-07 5.581844675361936e-07 1.0
vn -2.739523381478648e-07 6.02090608481376e-07 1.0
vn -3.3867402748910536e-07 5.211001621319156e-07 1.0
vn -3.3867402748910536e-07 5.211001621319156e-07 1.0
vn -2.6837133759727294e-07 5.373718181544973e-07 1.0
vn -2.3507287494339835e-07 4.1360854652339185e-07 1.0
vn -2.6360038418715703e-07 4.258647550159367e-07 1.0
vn -3.000502033501107e-07 5.579368576036359e-07 1.0
vn -3.000502033501107e-07 5.579368576036359e-07 1.0
vn -1.0856828680516628e-07 3.295297403838049e-07 1.0
vn -1.0856828680516628e-07 3.295297403838049e-07 1.0
vn 0.10028892755508423 -0.9942886233329773 -0.03650294989347458
vn 0.10028892755508423 -0.9942886233329773 -0.03650294989347458
vn -0.9396690130233765 0.007094815373420715 0.342011421918869
vn -0.9396690130233765 0.007094815373420715 0.342011421918869
vn -0.9396690130233765 0.007094815373420715 0.342011421918869
vn 0.9396803975105286 -0.005117602646350861 -0.34201550483703613
vn 0.9396803975105286 -0.005117602646350861 -0.34201550483703613
vn 0.9396803975105286 -0.0051176585257053375 -0.34201541543006897
vn 0.1262352466583252 0.990935742855072 -0.04594569280743599
vn 0.12623558938503265 0.9909358024597168 -0.04594563692808151
vn -0.05238896980881691 0.998444676399231 0.019068269059062004
vn -0.052389051765203476 0.998444676399231 0.019068250432610512
vn 0.016989409923553467 -0.9998365640640259 -0.006183639168739319
vn 0.016989409923553467 -0.9998365640640259 -0.006183639168739319
vn -0.19087719917297363 0.9791524410247803 0.06947372853755951
vn -0.19087746739387512 0.979152262210846 0.06947394460439682
vn 0.17938026785850525 -0.9816109538078308 -0.06528908014297485
vn 0.17938026785850525 -0.9816109538078308 -0.06528908014297485
vn -0.2921217978000641 -0.9504527449607849 0.10632330179214478
vn -0.29212185740470886 -0.9504528045654297 0.10632262378931046
vn 0.30541253089904785 0.9457095265388489 -0.11116068810224533
vn 0.3054125905036926 0.9457095265388489 -0.11116068810224533
vn -0.9396925568580627 -6.655427853274887e-08 0.34202033281326294
vn -0.9396925568580627 -6.655427853274887e-08 0.34202033281326294
vn -0.9396925568580627 -6.655427853274887e-08 0.34202033281326294
vn 0.9396917223930359 -0.0013965173857286572 -0.3420197665691376
vn 0.9396917223930359 -0.0013965641846880317 -0.3420197367668152
vn 0.7266925573348999 -0.6340036988258362 -0.26449450850486755
vn 0.7266925573348999 -0.6340036988258362 -0.26449450850486755
vn 0.7266925573348999 -0.6340036988258362 -0.26449450850486755
vn -0.6603869199752808 -0.7114181518554688 0.2403607964515686
vn -0.6603869199752808 -0.7114181518554688 0.2403607964515686
vn -0.6603869199752808 -0.7114181518554688 0.2403607964515686
vn 0.659856379032135 0.7119755148887634 -0.2401677370071411
vn -0.9396927356719971 -4.075823767379916e-07 0.34201982617378235
vn -0.9396927356719971 -4.075823767379916e-07 0.34201982617378235
vn -0.9348886013031006 -0.10098764300346375 0.3402719497680664
vn -0.9348886013031006 -0.10098764300346375 0.3402719497680664
vn 0.8382678031921387 0.45190516114234924 -0.3051045536994934
vn 0.8382683992385864 0.45190414786338806 -0.305104523897171
vn 0.504860520362854 0.8434158563613892 -0.18375416100025177
vn 0.5048602819442749 0.8434159755706787 -0.18375414609909058
vn 0.23741909861564636 0.9675562381744385 -0.08641351759433746
vn 0.2374192625284195 0.9675561189651489 -0.08641351759433746
vn -0.5053377747535706 -0.8430920839309692 0.18392787873744965
vn -0.5053377747535706 -0.8430920839309692 0.18392787873744965
vn -0.9204732179641724 0.20121468603610992 0.335024893283844
vn -0.9204732179641724 0.20121468603610992 0.335024893283844
vn 0.09374403953552246 0.9950115084648132 -0.03411976248025894
vn 0.09374403953552246 0.9950115084648132 -0.03411976248025894
vn 0.09374403953552246 0.9950115084648132 -0.03411976248025894
vn 0.0937427505850792 0.9950116276741028 -0.03411957994103432
vn -0.33036717772483826 -0.2588188648223877 -0.9076730608940125
vn -0.3303663432598114 -0.2588188052177429 -0.9076733589172363
vn -0.3303658962249756 -0.25881850719451904 -0.9076735973358154
vn -0.33036619424819946 -0.2588198184967041 -0.9076731204986572
vn -0.33036622405052185 -0.2588179409503937 -0.9076736569404602
vn -0.3303664028644562 -0.258820116519928 -0.9076729416847229
vn -0.33036619424819946 -0.2588210701942444 -0.9076727628707886
vn -0.3303663432598114 0.2588197886943817 -0.9076730608940125
vn -0.3303658962249756 0.2588191330432892 -0.9076734185218811
vn -0.3303668200969696 0.2588193714618683 -0.9076730012893677
vn -0.33036699891090393 0.258819043636322 -0.9076730608940125
vn -0.3303665816783905 0.2588191032409668 -0.907673180103302
vn -0.33036693930625916 0.2588195204734802 -0.9076729416847229
vn -0.3303707242012024 0.25881990790367126 -0.9076714515686035
vn -0.33037158846855164 0.25882044434547424 -0.9076709747314453
vn -0.33036813139915466 0.25881919264793396 -0.9076725840568542
vn -0.3303655982017517 0.25881946086883545 -0.9076734185218811
vn -0.3303667902946472 -0.25881877541542053 -0.907673180103302
vn -0.33036667108535767 -0.25881874561309814 -0.9076732397079468
vn -0.33036404848098755 0.2588215470314026 -0.9076734185218811
vn -0.4694296717643738 0.8662811517715454 0.17085887491703033
vn -0.46943071484565735 0.8662806153297424 0.1708587259054184
vn 0.6429097652435303 -0.729322075843811 -0.23400089144706726
vn 0.6429097652435303 -0.729322075843811 -0.23400089144706726
vn -0.557513415813446 0.804986298084259 0.20291846990585327
vn -0.5575129985809326 0.8049865365028381 0.20291858911514282
vn -0.873893141746521 -0.36761587858200073 0.31807130575180054
vn -0.8738930225372314 -0.36761635541915894 0.3180710971355438
vn 0.3056059777736664 0.9456387162208557 -0.1112312451004982
vn 0.3056059777736664 0.9456387162208557 -0.1112312451004982
vn 0.3056059777736664 0.9456387162208557 -0.1112312451004982
vn 0.30560579895973206 0.9456387758255005 -0.11123126745223999
vn 0.8865625858306885 -0.33148497343063354 -0.3226833641529083
vn 0.8865625858306885 -0.33148497343063354 -0.3226833641529083
vn -0.2625001072883606 -0.9601902961730957 0.09554203599691391
vn -0.2625001072883606 -0.9601902961730957 0.09554203599691391
vn -0.40188223123550415 -0.9039329886436462 0.14627322554588318
vn -0.40188223123550415 -0.9039329886436462 0.14627322554588318
vn -0.6051753759384155 -0.7650136351585388 0.22026561200618744
vn -0.6051753759384155 -0.7650136351585388 0.22026561200618744
vn -0.8209577798843384 -0.4865637719631195 0.29880431294441223
vn -0.8209577798843384 -0.4865637719631195 0.29880431294441223
vn -0.9396907687187195 -0.0020528954919427633 0.34201905131340027
vn -0.9396907687187195 -0.0020528954919427633 0.34201905131340027
vn 0.8677104115486145 0.38384339213371277 -0.3158213496208191
vn 0.8677111268043518 0.38384175300598145 -0.3158213794231415
vn 0.9396854043006897 0.003881247481331229 -0.3420180082321167
vn 0.9396853446960449 0.003881473559886217 -0.34201812744140625
vn -0.9013257622718811 0.2828267812728882 0.3280562460422516
vn -0.9013257622718811 0.2828267812728882 0.3280562460422516
vn -0.595241129398346 0.7737897634506226 0.2166503518819809
vn -0.595241129398346 0.7737897634506226 0.2166503518819809
vn 0.6083688139915466 -0.7621396780014038 -0.22142833471298218
vn 0.608372151851654 -0.7621365189552307 -0.2214299738407135
vn -0.1063254103064537 0.9935781359672546 0.038698710501194
vn -0.1063254103064537 0.9935781359672546 0.038698710501194
vn 0.2831781208515167 0.9535130262374878 -0.1030682623386383
vn 0.2831781208515167 0.9535130262374878 -0.1030682623386383
vn -0.5614557862281799 -0.8018772006034851 0.2043534815311432
vn -0.5614560842514038 -0.801876962184906 0.2043536752462387
vn -0.3303655683994293 -0.2588188946247101 -0.9076735973358154
vn -0.3303654193878174 -0.25881868600845337 -0.907673716545105
vn -0.3303662836551666 -0.25881946086883545 -0.9076732993125916
vn -0.33036625385284424 -0.2588193118572235 -0.9076732397079468
vn -0.3303658366203308 -0.25881922245025635 -0.9076734185218811
vn -0.330365926027298 -0.2588169574737549 -0.9076740145683289
vn -0.3303660452365875 -0.2588164210319519 -0.907674252986908
vn -0.3303660750389099 -0.2588178217411041 -0.907673716545105
vn -0.3303661346435547 -0.2588181793689728 -0.907673716545105
vn -0.3303661048412323 -0.25881966948509216 -0.907673180103302
vn -0.3303662836551666 0.25881871581077576 -0.9076734185218811
vn -0.3303661644458771 0.2588181495666504 -0.907673716545105
vn -0.33036524057388306 0.2588180899620056 -0.9076739549636841
vn -0.3303656280040741 0.258818656206131 -0.9076736569404602
vn -0.3303661048412323 0.2588184177875519 -0.9076736569404602
vn -0.33036521077156067 0.25882017612457275 -0.9076734781265259
vn -0.33036190271377563 0.25882282853126526 -0.9076738357543945
vn -0.3303661644458771 0.25881972908973694 -0.907673180103302
vn -0.33036482334136963 0.2588200867176056 -0.9076736569404602
vn -0.33036571741104126 0.2588198184967041 -0.9076732993125916
vn -0.3303672671318054 0.2588191032409668 -0.9076729416847229
vn -0.33036765456199646 0.25881922245025635 -0.9076727628707886
vn -0.33036479353904724 0.25881990790367126 -0.907673716545105
vn -0.3303678035736084 0.25881853699684143 -0.9076728820800781
vn -0.3303658962249756 0.2588188648223877 -0.9076734781265259
vn -0.33036646246910095 0.2588198781013489 -0.9076730012893677
vn -0.19087719917297363 0.9791523218154907 0.06947386264801025
vn -0.19087719917297363 0.9791523218154907 0.06947386264801025
vn 0.17938068509101868 -0.9816108345985413 -0.06528961658477783
vn 0.17938068509101868 -0.9816108345985413 -0.06528961658477783
vn -0.29212161898612976 -0.9504528045654297 0.1063232496380806
vn -0.29212144017219543 -0.9504528045654297 0.10632295161485672
vn 0.30541226267814636 0.9457096457481384 -0.11116059124469757
vn 0.30541226267814636 0.9457096457481384 -0.11116059124469757
vn -0.6603866815567017 -0.7114182114601135 0.24036146700382233
vn -0.6603866815567017 -0.7114182114601135 0.24036146700382233
vn 0.6598563194274902 0.7119752764701843 -0.240168496966362
vn 0.6598563194274902 0.7119752764701843 -0.240168496966362
f 99/99/99 98/98/98 382/382/382
f 382/382/382 383/383/383 99/99/99
f 381/381/381 264/264/264 97/97/97
f 97/97/97 380/380/380 381/381/381
f 379/379/379 88/88/88 87/87/87
f 87/87/87 378/378/378 379/379/379
f 86/86/86 376/376/376 84/84/84
f 376/376/376 377/377/377 84/84/84
f 86/86/86 85/85/85 376/376/376
f 351/351/351 354/354/354 290/290/290
f 290/290/290 289/289/289 351/351/351
f 375/375/375 78/78/78 79/79/79
f 79/79/79 374/374/374 375/375/375
f 77/77/77 76/76/76 372/372/372
f 372/372/372 373/373/373 77/77/77
f 64/64/64 63/63/63 363/363/363
f 363/363/363 65/65/65 64/64/64
f 369/369/369 356/356/356 366/366/366
f 356/356/356 371/371/371 366/366/366
f 356/356/356 370/370/370 371/371/371
f 356/356/356 360/360/360 370/370/370
f 365/365/365 369/369/369 366/366/366
f 364/364/364 368/368/368 361/361/361
f 364/364/364 365/365/365 368/368/368
f 365/365/365 367/367/367 368/368/368
f 365/365/365 366/366/366 367/367/367
f 361/361/361 363/363/363 364/364/364
f 361/361/361 305/305/305 363/363/363
f 305/305/305 65/65/65 363/363/363
f 361/361/361 362/362/362 305/305/305
f 356/356/356 359/359/359 360/360/360
f 356/356/356 358/358/358 359/359/359
f 356/356/356 357/357/357 358/358/358
f 353/353/353 354/354/354 351/351/351
f 353/353/353 355/355/355 354/354/354
f 355/355/355 349/349/349 354/354/354
f 349/349/349 348/348/348 354/354/354
f 351/351/351 352/352/352 353/353/353
f 346/346/346 350/350/350 347/347/347
f 346/346/346 348/348/348 350/350/350
f 348/348/348 349/349/349 350/350/350
f 346/346/346 347/347/347 303/303/303
f 303/303/303 304/304/304 346/346/346
f 166/166/166 345/345/345 344/344/344
f 344/344/344 165/165/165 166/166/166
f 343/343/343 164/164/164 163/163/163
f 163/163/163 342/342/342 343/343/343
f 341/341/341 162/162/162 161/161/161
f 161/161/161 340/340/340 341/341/341
f 160/160/160 339/339/339 338/338/338
f 338/338/338 159/159/159 160/160/160
f 337/337/337 158/158/158 157/157/157
f 157/157/157 336/336/336 337/337/337
f 335/335/335 156/156/156 155/155/155
f 155/155/155 334/334/334 335/335/335
f 154/154/154 333/333/333 332/332/332
f 332/332/332 153/153/153 154/154/154
f 152/152/152 331/331/331 330/330/330
f 330/330/330 151/151/151 152/152/152
f 329/329/329 150/150/150 149/149/149
f 149/149/149 328/328/328 329/329/329
f 327/327/327 148/148/148 147/147/147
f 147/147/147 326/326/326 327/327/327
f 325/325/325 146/146/146 145/145/145
f 145/145/145 324/324/324 325/325/325
f 323/323/323 144/144/144 143/143/143
f 143/143/143 322/322/322 323/323/323
f 321/321/321 142/142/142 141/141/141
f 141/141/141 320/320/320 321/321/321
f 319/319/319 140/140/140 139/139/139
f 139/139/139 318/318/318 319/319/319
f 137/137/137 138/138/138 135/135/135
f 135/135/135 136/136/136 137/137/137
f 316/316/316 317/317/317 314/314/314
f 314/314/314 315/315/315 316/316/316
f 133/133/133 134/134/134 131/131/131
f 131/131/131 132/132/132 133/133/133
f 130/130/130 313/313/313 312/312/312
f 312/312/312 129/129/129 130/130/130
f 128/128/128 311/311/311 310/310/310
f 310/310/310 127/127/127 128/128/128
f 309/309/309 126/126/126 125/125/125
f 125/125/125 308/308/308 309/309/309
f 124/124/124 307/307/307 306/306/306
f 306/306/306 123/123/123 124/124/124
f 121/121/121 122/122/122 119/119/119
f 119/119/119 120/120/120 121/121/121
f 117/117/117 118/118/118 115/115/115
f 115/115/115 116/116/116 117/117/117
f 305/305/305 60/60/60 65/65/65
f 286/286/286 304/304/304 303/303/303
f 303/303/303 287/287/287 286/286/286
f 297/297/297 302/302/302 298/298/298
f 297/297/297 301/301/301 302/302/302
f 297/297/297 299/299/299 301/301/301
f 299/299/299 300/300/300 301/301/301
f 294/294/294 293/293/293 297/297/297
f 297/297/297 298/298/298 294/294/294
f 60/60/60 294/294/294 61/61/61
f 294/294/294 295/295/295 61/61/61
f 295/295/295 296/296/296 61/61/61
f 60/60/60 293/293/293 294/294/294
f 291/291/291 292/292/292 289/289/289
f 289/289/289 290/290/290 291/291/291
f 58/58/58 288/288/288 59/59/59
f 58/58/58 287/287/287 288/288/288
f 58/58/58 286/286/286 287/287/287
f 284/284/284 285/285/285 282/282/282
f 282/282/282 283/283/283 284/284/284
f 281/281/281 114/114/114 113/113/113
f 113/113/113 280/280/280 281/281/281
f 279/279/279 112/112/112 111/111/111
f 111/111/111 278/278/278 279/279/279
f 110/110/110 277/277/277 276/276/276
f 276/276/276 109/109/109 110/110/110
f 108/108/108 275/275/275 274/274/274
f 274/274/274 107/107/107 108/108/108
f 106/106/106 273/273/273 272/272/272
f 272/272/272 105/105/105 106/106/106
f 271/271/271 104/104/104 103/103/103
f 103/103/103 270/270/270 271/271/271
f 269/269/269 102/102/102 101/101/101
f 101/101/101 268/268/268 269/269/269
f 100/100/100 267/267/267 98/98/98
f 98/98/98 99/99/99 100/100/100
f 266/266/266 97/97/97 264/264/264
f 264/264/264 265/265/265 266/266/266
f 263/263/263 96/96/96 261/261/261
f 261/261/261 262/262/262 263/263/263
f 95/95/95 260/260/260 259/259/259
f 259/259/259 94/94/94 95/95/95
f 258/258/258 93/93/93 256/256/256
f 256/256/256 257/257/257 258/258/258
f 91/91/91 92/92/92 89/89/89
f 89/89/89 90/90/90 91/91/91
f 88/88/88 255/255/255 254/254/254
f 254/254/254 87/87/87 88/88/88
f 84/84/84 253/253/253 86/86/86
f 253/253/253 252/252/252 86/86/86
f 252/252/252 85/85/85 86/86/86
f 82/82/82 83/83/83 80/80/80
f 80/80/80 81/81/81 82/82/82
f 251/251/251 79/79/79 78/78/78
f 78/78/78 250/250/250 251/251/251
f 248/248/248 249/249/249 76/76/76
f 76/76/76 77/77/77 248/248/248
f 247/247/247 75/75/75 74/74/74
f 74/74/74 246/246/246 247/247/247
f 73/73/73 245/245/245 244/244/244
f 244/244/244 72/72/72 73/73/73
f 71/71/71 243/243/243 242/242/242
f 242/242/242 70/70/70 71/71/71
f 69/69/69 241/241/241 239/239/239
f 239/239/239 240/240/240 69/69/69
f 238/238/238 68/68/68 236/236/236
f 236/236/236 237/237/237 238/238/238
f 66/66/66 67/67/67 234/234/234
f 234/234/234 235/235/235 66/66/66
f 60/60/60 64/64/64 65/65/65
f 60/60/60 61/61/61 64/64/64
f 61/61/61 63/63/63 64/64/64
f 61/61/61 62/62/62 63/63/63
f 58/58/58 59/59/59 56/56/56
f 56/56/56 57/57/57 58/58/58
f 47/47/47 55/55/55 233/233/233
f 233/233/233 230/230/230 47/47/47
f 55/55/55 227/227/227 229/229/229
f 229/229/229 232/232/232 55/55/55
f 232/232/232 233/233/233 55/55/55
f 231/231/231 224/224/224 47/47/47
f 230/230/230 231/231/231 47/47/47
f 228/228/228 229/229/229 220/220/220
f 228/228/228 49/49/49 219/219/219
f 47/47/47 222/222/222 226/226/226
f 226/226/226 55/55/55 47/47/47
f 55/55/55 225/225/225 221/221/221
f 221/221/221 227/227/227 55/55/55
f 225/225/225 55/55/55 226/226/226
f 223/223/223 47/47/47 224/224/224
f 222/222/222 47/47/47 223/223/223
f 218/218/218 220/220/220 221/221/221
f 218/218/218 219/219/219 49/49/49
f 38/38/38 216/216/216 217/217/217
f 217/217/217 53/53/53 38/38/38
f 37/37/37 215/215/215 216/216/216
f 216/216/216 38/38/38 37/37/37
f 22/22/22 190/190/190 215/215/215
f 215/215/215 37/37/37 22/22/22
f 212/212/212 213/213/213 214/214/214
f 209/209/209 210/210/210 211/211/211
f 206/206/206 207/207/207 208/208/208
f 46/46/46 205/205/205 203/203/203
f 203/203/203 204/204/204 46/46/46
f 45/45/45 202/202/202 200/200/200
f 200/200/200 201/201/201 45/45/45
f 43/43/43 199/199/199 197/197/197
f 197/197/197 198/198/198 43/43/43
f 52/52/52 54/54/54 195/195/195
f 195/195/195 196/196/196 52/52/52
f 42/42/42 41/41/41 193/193/193
f 193/193/193 194/194/194 42/42/42
f 40/40/40 39/39/39 191/191/191
f 191/191/191 192/192/192 40/40/40
f 38/38/38 53/53/53 51/51/51
f 51/51/51 36/36/36 38/38/38
f 37/37/37 38/38/38 36/36/36
f 36/36/36 35/35/35 37/37/37
f 22/22/22 37/37/37 35/35/35
f 35/35/35 18/18/18 22/22/22
f 34/34/34 36/36/36 51/51/51
f 51/51/51 50/50/50 34/34/34
f 32/32/32 35/35/35 36/36/36
f 36/36/36 34/34/34 32/32/32
f 33/33/33 18/18/18 35/35/35
f 35/35/35 32/32/32 33/33/33
f 48/48/48 34/34/34 50/50/50
f 48/48/48 32/32/32 34/34/34
f 48/48/48 33/33/33 32/32/32
f 21/21/21 189/189/189 190/190/190
f 190/190/190 22/22/22 21/21/21
f 19/19/19 187/187/187 189/189/189
f 189/189/189 21/21/21 19/19/19
f 20/20/20 188/188/188 187/187/187
f 187/187/187 19/19/19 20/20/20
f 184/184/184 185/185/185 186/186/186
f 181/181/181 182/182/182 183/183/183
f 179/179/179 5/5/5 180/180/180
f 44/44/44 178/178/178 176/176/176
f 176/176/176 177/177/177 44/44/44
f 31/31/31 175/175/175 173/173/173
f 173/173/173 174/174/174 31/31/31
f 30/30/30 172/172/172 171/171/171
f 171/171/171 4/4/4 30/30/30
f 29/29/29 28/28/28 169/169/169
f 169/169/169 170/170/170 29/29/29
f 27/27/27 26/26/26 167/167/167
f 167/167/167 168/168/168 27/27/27
f 24/24/24 23/23/23 3/3/3
f 3/3/3 25/25/25 24/24/24
f 21/21/21 22/22/22 18/18/18
f 18/18/18 17/17/17 21/21/21
f 19/19/19 21/21/21 17/17/17
f 17/17/17 16/16/16 19/19/19
f 20/20/20 19/19/19 16/16/16
f 16/16/16 2/2/2 20/20/20
f 15/15/15 17/17/17 18/18/18
f 18/18/18 33/33/33 15/15/15
f 14/14/14 16/16/16 17/17/17
f 17/17/17 15/15/15 14/14/14
f 1/1/1 2/2/2 16/16/16
f 16/16/16 14/14/14 1/1/1
f 48/48/48 15/15/15 33/33/33
f 48/48/48 14/14/14 15/15/15
f 48/48/48 1/1/1 14/14/14
f 6/6/6 13/13/13 7/7/7
f 6/6/6 12/12/12 13/13/13
f 6/6/6 11/11/11 12/12/12
f 6/6/6 10/10/10 11/11/11
f 6/6/6 9/9/9 10/10/10
f 6/6/6 8/8/8 9/9/9
