# Recovered local-space geometry; original node transforms not applied
o mesh_0
v 1.273787893296685e-05 -1.707002411421854e-06 -52.706398010253906
v 18.640779495239258 -10.762251853942871 -46.846580505371094
v 10.762263298034668 -18.640771865844727 -46.846580505371094
v 1.4290424587670714e-05 -21.52450942993164 -46.846580505371094
v -10.76223373413086 -18.640769958496094 -46.846580505371094
v -18.640748977661133 -10.762260437011719 -46.846580505371094
v -21.52448844909668 -1.0768297215690836e-05 -46.84657287597656
v -18.640758514404297 10.762239456176758 -46.84657287597656
v -10.762251853942871 18.64075469970703 -46.84657287597656
v -9.683644748292863e-07 21.52450180053711 -46.846580505371094
v 10.762248992919922 18.64077377319336 -46.846580505371094
v 18.64076805114746 10.762264251708984 -46.846580505371094
v 21.524513244628906 1.9749280909309164e-05 -46.846580505371094
v 34.700679779052734 -20.03443717956543 -18.506797790527344
v 20.034448623657227 -34.70066452026367 -18.506797790527344
v 2.4780842068139464e-05 -40.06887435913086 -18.50679588317871
v -20.03441047668457 -34.7006721496582 -18.506792068481445
v -34.70063400268555 -20.03445053100586 -18.50678825378418
v -40.06885528564453 -2.3398308258038014e-05 -18.506786346435547
v -34.700653076171875 20.03441047668457 -18.506786346435547
v -20.03443717956543 34.70064163208008 -18.506786346435547
v -1.3366130588110536e-05 40.06886672973633 -18.50678825378418
v 20.034423828125 34.7006721496582 -18.506792068481445
v 34.70065689086914 20.03446388244629 -18.50679588317871
v 40.068885803222656 3.5729499359149486e-05 -18.506797790527344
v 36.789432525634766 -21.24037742614746 -1.2136461009504274e-05
v 21.240394592285156 -36.78940963745117 -1.1277092198724858e-05
v 2.4780842068139464e-05 -42.480751037597656 -8.929253453970887e-06
v -21.240346908569336 -36.7894172668457 -5.722046353184851e-06
v -36.78937911987305 -21.240394592285156 -2.5148399345198413e-06
v -42.4807243347168 -2.09808349609375e-05 -1.6700141713954508e-07
v -36.789398193359375 21.240346908569336 6.923687578819226e-07
v -21.24037742614746 36.78938674926758 -1.6699823390808888e-07
v -1.3366130588110536e-05 42.48073959350586 -2.514835159672657e-06
v 21.2403621673584 36.7894172668457 -5.722041350963991e-06
v 36.78940963745117 21.240402221679688 -8.929247997002676e-06
v 42.48076629638672 3.4332275390625e-05 -1.1277088560746051e-05
v 1.2563114069052972e-05 -1.6061017049651127e-06 -5.722044534195447e-06
v 28.758277893066406 -16.603591918945312 -35.07609558105469
v 16.603605270385742 -28.758272171020508 -35.07609558105469
v 2.0012470486108214e-05 -33.20718765258789 -35.07609558105469
v -16.603572845458984 -28.758275985717773 -35.07609558105469
v -28.75824546813965 -16.603605270385742 -35.076087951660156
v -33.20716857910156 -1.8332664694753475e-05 -35.076087951660156
v -28.758258819580078 16.60357093811035 -35.076087951660156
v -16.603593826293945 28.75824546813965 -35.076087951660156
v -8.597759006079286e-06 33.207183837890625 -35.076087951660156
v 16.60358238220215 28.758275985717773 -35.07609558105469
v 28.75826072692871 16.603612899780273 -35.07609558105469
v 33.20719909667969 3.0304725441965275e-05 -35.07609558105469
v 21.240394592285156 -36.78940963745117 -1.1277092198724858e-05
v 36.789432525634766 -21.24037742614746 -1.2136461009504274e-05
v 2.4780842068139464e-05 -42.480751037597656 -8.929253453970887e-06
v -21.240346908569336 -36.7894172668457 -5.722046353184851e-06
v -36.78937911987305 -21.240394592285156 -2.5148399345198413e-06
v -42.4807243347168 -2.09808349609375e-05 -1.6700141713954508e-07
v -36.789398193359375 21.240346908569336 6.923687578819226e-07
v -21.24037742614746 36.78938674926758 -1.6699823390808888e-07
v -1.3366130588110536e-05 42.48073959350586 -2.514835159672657e-06
v 21.2403621673584 36.7894172668457 -5.722041350963991e-06
v 36.78940963745117 21.240402221679688 -8.929247997002676e-06
v 42.48076629638672 3.4332275390625e-05 -1.1277088560746051e-05
vt 0.06224074587225914 0.00474095344543457
vt 0.09261888265609741 0.035031676292419434
vt 0.062354542315006256 0.03502374887466431
vt 0.03209017962217331 0.035031676292419434
vt 0.062354542315006256 0.03502374887466431
vt 0.09261888265609741 0.035031676292419434
vt 0.062354542315006256 0.03502374887466431
vt 0.03209017962217331 0.035031676292419434
vt 0.062354542315006256 0.03502374887466431
vt 0.09261888265609741 0.035031676292419434
vt 0.062354542315006256 0.03502374887466431
vt 0.03209017962217331 0.035031676292419434
vt 0.062354542315006256 0.03502374887466431
vt 0.11640390008687973 0.09112292528152466
vt 0.06235619634389877 0.09104681015014648
vt 0.008308460004627705 0.09112292528152466
vt 0.06235619634389877 0.09104681015014648
vt 0.11640390008687973 0.09112292528152466
vt 0.06235619634389877 0.09104681015014648
vt 0.008308460004627705 0.09112292528152466
vt 0.06235619634389877 0.09104681015014648
vt 0.11640390008687973 0.09112292528152466
vt 0.06235619634389877 0.09104681015014648
vt 0.008308460004627705 0.09112292528152466
vt 0.06235619634389877 0.09104681015014648
vt 0.12234121561050415 0.12320488691329956
vt 0.062356166541576385 0.12316375970840454
vt 0.002371164970099926 0.12320488691329956
vt 0.062356166541576385 0.12316375970840454
vt 0.12234121561050415 0.12320488691329956
vt 0.062356166541576385 0.12316375970840454
vt 0.002371164970099926 0.12320488691329956
vt 0.062356166541576385 0.12316375970840454
vt 0.12234121561050415 0.12320488691329956
vt 0.062356166541576385 0.12316375970840454
vt 0.002371164970099926 0.12320488691329956
vt 0.062356166541576385 0.12316375970840454
vt 0.061861567199230194 0.12649035453796387
vt 0.10614306479692459 0.0618366003036499
vt 0.06214722618460655 0.061795830726623535
vt 0.018569201231002808 0.0618366003036499
vt 0.06256504356861115 0.061795830726623535
vt 0.10614306479692459 0.0618366003036499
vt 0.062147218734025955 0.061795830726623535
vt 0.018569163978099823 0.06183665990829468
vt 0.06256503611803055 0.061795830726623535
vt 0.10614307224750519 0.0618366003036499
vt 0.06214723736047745 0.061795830726623535
vt 0.018569204956293106 0.0618366003036499
vt 0.06256504356861115 0.061795830726623535
vt 0.06186150014400482 0.2492823600769043
vt 0.12248573452234268 0.23882609605789185
vt 0.002158090239390731 0.23913300037384033
vt 0.06186150014400482 0.2492823600769043
vt 0.12248573452234268 0.23882609605789185
vt 0.06186150014400482 0.2492823600769043
vt 0.002158090239390731 0.23913300037384033
vt 0.06186150014400482 0.2492823600769043
vt 0.12248573452234268 0.23882609605789185
vt 0.06186150014400482 0.2492823600769043
vt 0.002158090239390731 0.23913300037384033
vt 0.06186150014400482 0.2492823600769043
vn -1.761042511816413e-07 1.0579156395351674e-07 -1.0
vn 0.49305588006973267 -0.2395714670419693 -0.8363620042800903
vn 0.30721309781074524 -0.4540030062198639 -0.8363621234893799
vn 0.03905264660716057 -0.5467846989631653 -0.8363620042800903
vn -0.23957161605358124 -0.4930557906627655 -0.8363620042800903
vn -0.4540031850337982 -0.30721285939216614 -0.8363620042800903
vn -0.5467848777770996 -0.03905268758535385 -0.8363618850708008
vn -0.4930560886859894 0.23957154154777527 -0.8363620042800903
vn -0.30721360445022583 0.4540030062198639 -0.8363619446754456
vn -0.03905344381928444 0.5467847585678101 -0.8363619446754456
vn 0.23957139253616333 0.493056058883667 -0.8363620638847351
vn 0.4540029764175415 0.30721333622932434 -0.8363620638847351
vn 0.5467846393585205 0.039053212851285934 -0.8363620042800903
vn 0.7905284762382507 -0.5556731224060059 -0.25747254490852356
vn 0.40678107738494873 -0.8764914274215698 -0.2574722468852997
vn -0.0859626978635788 -0.9624544382095337 -0.2574721574783325
vn -0.5556731820106506 -0.7905285954475403 -0.2574721574783325
vn -0.8764913082122803 -0.4067813456058502 -0.25747212767601013
vn -0.9624545574188232 0.08596248924732208 -0.25747206807136536
vn -0.7905288338661194 0.5556730031967163 -0.2574721574783325
vn -0.40678176283836365 0.876491129398346 -0.25747212767601013
vn 0.08596215397119522 0.9624544978141785 -0.25747203826904297
vn 0.5556726455688477 0.7905288934707642 -0.25747227668762207
vn 0.8764910101890564 0.4067818820476532 -0.257472425699234
vn 0.9624543786048889 -0.08596223592758179 -0.257472425699234
vn 0.899526059627533 -0.4174710512161255 -0.1287274956703186
vn 0.5702765583992004 -0.811303973197937 -0.12872739136219025
vn 0.08822222799062729 -0.9877480268478394 -0.12872718274593353
vn -0.4174712002277374 -0.899526059627533 -0.12872710824012756
vn -0.8113037347793579 -0.5702767372131348 -0.12872721254825592
vn -0.9877480268478394 -0.08822252601385117 -0.12872691452503204
vn -0.8995261788368225 0.4174709618091583 -0.128726989030838
vn -0.5702770948410034 0.8113036155700684 -0.12872715294361115
vn -0.08822286874055862 0.9877479672431946 -0.1287270337343216
vn 0.41747069358825684 0.8995264172554016 -0.12872709333896637
vn 0.8113033175468445 0.5702772736549377 -0.12872737646102905
vn 0.9877480268478394 0.0882229283452034 -0.12872745096683502
vn 1.307661960936457e-07 -7.54979225803254e-08 1.0
vn 0.7250458002090454 -0.4078637957572937 -0.5549377202987671
vn 0.42397597432136536 -0.7157434225082397 -0.5549376010894775
vn 0.009302259422838688 -0.8318400382995605 -0.554937481880188
vn -0.40786391496658325 -0.7250457406044006 -0.5549376010894775
vn -0.7157436013221741 -0.42397594451904297 -0.5549373626708984
vn -0.8318400382995605 -0.00930255837738514 -0.554937481880188
vn -0.725045919418335 0.4078638255596161 -0.5549374222755432
vn -0.4239766001701355 0.7157431840896606 -0.5549374222755432
vn -0.009302979335188866 0.8318400979042053 -0.5549374222755432
vn 0.407863587141037 0.7250459790229797 -0.554937481880188
vn 0.7157430648803711 0.4239765703678131 -0.5549376010894775
vn 0.831839919090271 0.00930285919457674 -0.5549377202987671
vn 1.307661960936457e-07 -7.54979225803254e-08 1.0
vn 1.307661960936457e-07 -7.54979225803254e-08 1.0
vn 1.3076622451535513e-07 -7.549789415861596e-08 1.0
vn 1.3076622451535513e-07 -7.549789415861596e-08 1.0
vn 1.3076621030450042e-07 -7.54978870531886e-08 1.0
vn 1.3076621030450042e-07 -7.549787284233389e-08 1.0
vn 1.307661960936457e-07 -7.549791547489804e-08 1.0
vn 1.3076621030450042e-07 -7.54978870531886e-08 1.0
vn 1.3076621030450042e-07 -7.549787994776125e-08 1.0
vn 1.3076621030450042e-07 -7.54978870531886e-08 1.0
vn 1.3076616767193627e-07 -7.549785863147918e-08 1.0
vn 1.307661960936457e-07 -7.549791547489804e-08 1.0
f 39/39/39 50/50/50 25/25/25
f 25/25/25 14/14/14 39/39/39
f 50/50/50 49/49/49 24/24/24
f 24/24/24 25/25/25 50/50/50
f 49/49/49 48/48/48 23/23/23
f 23/23/23 24/24/24 49/49/49
f 48/48/48 47/47/47 22/22/22
f 22/22/22 23/23/23 48/48/48
f 47/47/47 46/46/46 21/21/21
f 21/21/21 22/22/22 47/47/47
f 46/46/46 45/45/45 20/20/20
f 20/20/20 21/21/21 46/46/46
f 45/45/45 44/44/44 19/19/19
f 19/19/19 20/20/20 45/45/45
f 44/44/44 43/43/43 18/18/18
f 18/18/18 19/19/19 44/44/44
f 43/43/43 42/42/42 17/17/17
f 17/17/17 18/18/18 43/43/43
f 42/42/42 41/41/41 16/16/16
f 16/16/16 17/17/17 42/42/42
f 41/41/41 40/40/40 15/15/15
f 15/15/15 16/16/16 41/41/41
f 40/40/40 39/39/39 14/14/14
f 14/14/14 15/15/15 40/40/40
f 52/52/52 62/62/62 38/38/38
f 62/62/62 61/61/61 38/38/38
f 61/61/61 60/60/60 38/38/38
f 60/60/60 59/59/59 38/38/38
f 59/59/59 58/58/58 38/38/38
f 58/58/58 57/57/57 38/38/38
f 57/57/57 56/56/56 38/38/38
f 56/56/56 55/55/55 38/38/38
f 55/55/55 54/54/54 38/38/38
f 54/54/54 53/53/53 38/38/38
f 53/53/53 51/51/51 38/38/38
f 51/51/51 52/52/52 38/38/38
f 25/25/25 37/37/37 26/26/26
f 26/26/26 14/14/14 25/25/25
f 24/24/24 36/36/36 37/37/37
f 37/37/37 25/25/25 24/24/24
f 23/23/23 35/35/35 36/36/36
f 36/36/36 24/24/24 23/23/23
f 22/22/22 34/34/34 35/35/35
f 35/35/35 23/23/23 22/22/22
f 21/21/21 33/33/33 34/34/34
f 34/34/34 22/22/22 21/21/21
f 20/20/20 32/32/32 33/33/33
f 33/33/33 21/21/21 20/20/20
f 19/19/19 31/31/31 32/32/32
f 32/32/32 20/20/20 19/19/19
f 18/18/18 30/30/30 31/31/31
f 31/31/31 19/19/19 18/18/18
f 17/17/17 29/29/29 30/30/30
f 30/30/30 18/18/18 17/17/17
f 16/16/16 28/28/28 29/29/29
f 29/29/29 17/17/17 16/16/16
f 15/15/15 27/27/27 28/28/28
f 28/28/28 16/16/16 15/15/15
f 14/14/14 26/26/26 27/27/27
f 27/27/27 15/15/15 14/14/14
f 2/2/2 13/13/13 50/50/50
f 50/50/50 39/39/39 2/2/2
f 13/13/13 12/12/12 49/49/49
f 49/49/49 50/50/50 13/13/13
f 12/12/12 11/11/11 48/48/48
f 48/48/48 49/49/49 12/12/12
f 11/11/11 10/10/10 47/47/47
f 47/47/47 48/48/48 11/11/11
f 10/10/10 9/9/9 46/46/46
f 46/46/46 47/47/47 10/10/10
f 9/9/9 8/8/8 45/45/45
f 45/45/45 46/46/46 9/9/9
f 8/8/8 7/7/7 44/44/44
f 44/44/44 45/45/45 8/8/8
f 7/7/7 6/6/6 43/43/43
f 43/43/43 44/44/44 7/7/7
f 6/6/6 5/5/5 42/42/42
f 42/42/42 43/43/43 6/6/6
f 5/5/5 4/4/4 41/41/41
f 41/41/41 42/42/42 5/5/5
f 4/4/4 3/3/3 40/40/40
f 40/40/40 41/41/41 4/4/4
f 3/3/3 2/2/2 39/39/39
f 39/39/39 40/40/40 3/3/3
f 1/1/1 13/13/13 2/2/2
f 1/1/1 12/12/12 13/13/13
f 1/1/1 11/11/11 12/12/12
f 1/1/1 10/10/10 11/11/11
f 1/1/1 9/9/9 10/10/10
f 1/1/1 8/8/8 9/9/9
f 1/1/1 7/7/7 8/8/8
f 1/1/1 6/6/6 7/7/7
f 1/1/1 5/5/5 6/6/6
f 1/1/1 4/4/4 5/5/5
f 1/1/1 3/3/3 4/4/4
f 1/1/1 2/2/2 3/3/3
