# Recovered local-space geometry; original node transforms not applied
o mesh_0
v -7.54122174839722e-06 2.284441507072188e-07 58.706390380859375
v -6.203454631759087e-06 24.729022979736328 51.919151306152344
v -12.364524841308594 21.41596221923828 51.919151306152344
v -21.41597557067871 12.364513397216797 51.919151306152344
v -24.72903060913086 3.3396117942174897e-06 51.919151306152344
v -21.415973663330078 -12.36450481414795 51.919151306152344
v -12.36452579498291 -21.415956497192383 51.919151306152344
v -1.972475365619175e-05 -24.729022979736328 51.919151306152344
v 12.364486694335938 -21.415969848632812 51.919151306152344
v 21.41594886779785 -12.364526748657227 51.919151306152344
v 24.72901725769043 -1.8318316506338306e-05 51.919151306152344
v 21.41596221923828 12.364493370056152 51.919151306152344
v 12.364521980285645 21.41594886779785 51.919151306152344
v -5.960718226560857e-06 45.873802185058594 20.024269104003906
v -22.936914443969727 39.727874755859375 20.024269104003906
v -39.727882385253906 22.936904907226562 20.024267196655273
v -45.873809814453125 8.460993740300182e-06 20.024267196655273
v -39.7278938293457 -22.9368896484375 20.024267196655273
v -22.936927795410156 -39.72787094116211 20.024267196655273
v -3.2559881219640374e-05 -45.873802185058594 20.024269104003906
v 22.93687629699707 -39.72789001464844 20.024269104003906
v 39.72785568237305 -22.936931610107422 20.02427101135254
v 45.87379455566406 -3.5819601180264726e-05 20.02427101135254
v 39.72789001464844 22.936866760253906 20.02427101135254
v 22.936927795410156 39.72785568237305 20.024269104003906
v 3.174018274876289e-06 48.48074722290039 -1.5171691458704117e-08
v -41.98554992675781 -24.24038314819336 2.1364303393056616e-07
v -24.24036407470703 -41.985557556152344 -8.389096137761953e-07
v 3.659486537799239e-06 -48.48074722290039 -2.27565635668725e-07
v 24.240371704101562 -41.985557556152344 1.8655930489330785e-07
v 41.985557556152344 -24.24038314819336 2.9088369046803564e-08
v 48.480751037597656 -1.4458050827670377e-05 -3.6496203392744064e-08
v 41.985572814941406 24.2403564453125 -6.68771917844424e-07
v 24.24039649963379 41.98554992675781 5.658305326505797e-07
v -6.0398701862141024e-06 38.25825119018555 38.31439971923828
v -19.129138946533203 33.13262176513672 38.31439971923828
v -33.132625579833984 19.129133224487305 38.31439971923828
v -38.25826644897461 6.8825411290163174e-06 38.31439971923828
v -33.13263702392578 -19.129119873046875 38.31439971923828
v -19.129148483276367 -33.13261413574219 38.31439971923828
v -2.634861448314041e-05 -38.25825500488281 38.31439971923828
v 19.129098892211914 -33.13262939453125 38.31439971923828
v 33.13260269165039 -19.129150390625 38.31439971923828
v 38.25824737548828 -2.81467946479097e-05 38.31439971923828
v 33.132625579833984 19.12909698486328 38.31439971923828
v 19.129150390625 33.13260269165039 38.31439971923828
v 4.880409505858552e-06 2.4377851559620467e-07 -58.706390380859375
v 5.477855211211136e-06 24.729022979736328 -51.919151306152344
v 12.364522933959961 21.41596221923828 -51.919151306152344
v 21.415973663330078 12.364513397216797 -51.91915512084961
v 24.729028701782227 3.3396117942174897e-06 -51.91915512084961
v 21.415973663330078 -12.364505767822266 -51.91915512084961
v 12.364522933959961 -21.415956497192383 -51.919151306152344
v 1.8999155145138502e-05 -24.729022979736328 -51.919151306152344
v -12.36448860168457 -21.415969848632812 -51.919151306152344
v -21.41594886779785 -12.36452579498291 -51.91914749145508
v -24.729019165039062 -1.8341148461331613e-05 -51.91914749145508
v -21.41596221923828 12.364493370056152 -51.91914749145508
v -12.364523887634277 21.41594696044922 -51.919151306152344
v 8.999650162877515e-06 45.873802185058594 -20.024269104003906
v 22.936920166015625 39.727874755859375 -20.024272918701172
v 39.727882385253906 22.936904907226562 -20.024272918701172
v 45.873817443847656 8.460993740300182e-06 -20.024272918701172
v 39.72789764404297 -22.9368896484375 -20.024272918701172
v 22.936933517456055 -39.72787094116211 -20.02427101135254
v 3.559880860848352e-05 -45.873802185058594 -20.024269104003906
v -22.936870574951172 -39.72789001464844 -20.02426528930664
v -39.72785186767578 -22.936931610107422 -20.024263381958008
v -45.8737907409668 -3.581959754228592e-05 -20.024263381958008
v -39.72788619995117 22.936866760253906 -20.024263381958008
v -22.936922073364258 39.72785568237305 -20.02426528930664
v -48.480743408203125 -1.442770917492453e-05 4.00593989979825e-07
v -41.985565185546875 24.2403564453125 6.68771917844424e-07
v -24.240388870239258 41.98554992675781 -5.961716169622377e-07
v 6.48090690447134e-06 38.25825119018555 -38.31439971923828
v 19.129140853881836 33.13261795043945 -38.31440734863281
v 33.13262939453125 19.129133224487305 -38.31440353393555
v 38.258270263671875 6.79094273436931e-06 -38.31440734863281
v 33.13263702392578 -19.129119873046875 -38.31440734863281
v 19.129150390625 -33.13261413574219 -38.31440734863281
v 2.6301124307792634e-05 -38.25825500488281 -38.31439971923828
v -19.12909698486328 -33.13262939453125 -38.314395904541016
v -33.132598876953125 -19.129150390625 -38.314395904541016
v -38.258243560791016 -2.7871998099726625e-05 -38.314395904541016
v -33.13262176513672 19.12909698486328 -38.314395904541016
v -19.129148483276367 33.13260269165039 -38.314395904541016
vt 0.47711604833602905 0.5569429397583008
vt 0.47814905643463135 0.5579729080200195
vt 0.47711992263793945 0.5579726696014404
vt 0.4760907292366028 0.5579729080200195
vt 0.47711992263793945 0.5579726696014404
vt 0.47814905643463135 0.5579729080200195
vt 0.47711992263793945 0.5579726696014404
vt 0.4760907292366028 0.5579729080200195
vt 0.47711992263793945 0.5579726696014404
vt 0.47814905643463135 0.5579729080200195
vt 0.47711992263793945 0.5579726696014404
vt 0.4760907292366028 0.5579729080200195
vt 0.47711992263793945 0.5579726696014404
vt 0.4789579510688782 0.5598804950714111
vt 0.47711998224258423 0.559877872467041
vt 0.4752820134162903 0.5598804950714111
vt 0.47711998224258423 0.559877872467041
vt 0.4789579510688782 0.5598804950714111
vt 0.47711998224258423 0.559877872467041
vt 0.4752820134162903 0.5598804950714111
vt 0.47711998224258423 0.559877872467041
vt 0.4789579510688782 0.5598804950714111
vt 0.47711998224258423 0.559877872467041
vt 0.4752820134162903 0.5598804950714111
vt 0.47711998224258423 0.559877872467041
vt 0.4791598320007324 0.5609713792800903
vt 0.4791598320007324 0.5609713792800903
vt 0.47711998224258423 0.5609699487686157
vt 0.47508007287979126 0.5609713792800903
vt 0.47711998224258423 0.5609699487686157
vt 0.4791598320007324 0.5609713792800903
vt 0.47711998224258423 0.5609699487686157
vt 0.47508007287979126 0.5609713792800903
vt 0.47711998224258423 0.5609699487686157
vt 0.47860896587371826 0.5588845014572144
vt 0.47711285948753357 0.5588830709457397
vt 0.4756309390068054 0.5588845014572144
vt 0.4771270751953125 0.5588830709457397
vt 0.47860896587371826 0.5588845014572144
vt 0.47711285948753357 0.5588830709457397
vt 0.4756309390068054 0.5588845014572144
vt 0.4771270751953125 0.5588830709457397
vt 0.47860896587371826 0.5588845014572144
vt 0.47711285948753357 0.5588830709457397
vt 0.4756309390068054 0.5588845014572144
vt 0.4771270751953125 0.5588830709457397
vt 0.47711604833602905 0.5569429397583008
vt 0.47814905643463135 0.5579729080200195
vt 0.47711992263793945 0.5579726696014404
vt 0.4760907292366028 0.5579729080200195
vt 0.47711992263793945 0.5579726696014404
vt 0.47814905643463135 0.5579729080200195
vt 0.47711992263793945 0.5579726696014404
vt 0.4760907292366028 0.5579729080200195
vt 0.47711992263793945 0.5579726696014404
vt 0.47814905643463135 0.5579729080200195
vt 0.47711992263793945 0.5579726696014404
vt 0.4760907292366028 0.5579729080200195
vt 0.47711992263793945 0.5579726696014404
vt 0.4789579510688782 0.5598804950714111
vt 0.47711998224258423 0.559877872467041
vt 0.4752820134162903 0.5598804950714111
vt 0.47711998224258423 0.559877872467041
vt 0.4789579510688782 0.5598804950714111
vt 0.47711998224258423 0.559877872467041
vt 0.4752820134162903 0.5598804950714111
vt 0.47711998224258423 0.559877872467041
vt 0.4789579510688782 0.5598804950714111
vt 0.47711998224258423 0.559877872467041
vt 0.4752820134162903 0.5598804950714111
vt 0.47711998224258423 0.559877872467041
vt 0.47711998224258423 0.5609699487686157
vt 0.47508007287979126 0.5609713792800903
vt 0.47711998224258423 0.5609699487686157
vt 0.47860896587371826 0.5588845014572144
vt 0.47711285948753357 0.5588830709457397
vt 0.4756309390068054 0.5588845014572144
vt 0.4771270751953125 0.5588830709457397
vt 0.47860896587371826 0.5588845014572144
vt 0.47711285948753357 0.5588830709457397
vt 0.4756309390068054 0.5588845014572144
vt 0.4771270751953125 0.5588830709457397
vt 0.47860896587371826 0.5588845014572144
vt 0.47711285948753357 0.5588830709457397
vt 0.4756309390068054 0.5588845014572144
vt 0.4771270751953125 0.5588830709457397
vn 1.29091990430652e-08 6.712783573448178e-08 -1.0
vn -0.03900168836116791 -0.5469965934753418 -0.8362258076667786
vn 0.23972193896770477 -0.4932137131690979 -0.8362258076667786
vn 0.4542122483253479 -0.3072744905948639 -0.8362258076667786
vn 0.5469965934753418 -0.03900148719549179 -0.8362258076667786
vn 0.4932136535644531 0.23972187936306 -0.8362258672714233
vn 0.30727463960647583 0.4542120397090912 -0.8362258672714233
vn 0.03900172561407089 0.546996533870697 -0.8362258672714233
vn -0.23972168564796448 0.4932138919830322 -0.8362259268760681
vn -0.45421192049980164 0.3072749078273773 -0.8362259864807129
vn -0.5469965934753418 0.039001770317554474 -0.8362259268760681
vn -0.49321386218070984 -0.23972173035144806 -0.8362258076667786
vn -0.3072749376296997 -0.45421192049980164 -0.8362258672714233
vn 0.08594217896461487 -0.9622238278388977 -0.2583393454551697
vn 0.5555403232574463 -0.7903391122817993 -0.2583391070365906
vn 0.8762815594673157 -0.40668368339538574 -0.2583390176296234
vn 0.9622239470481873 0.08594223111867905 -0.25833892822265625
vn 0.7903392910957336 0.5555400848388672 -0.25833895802497864
vn 0.40668395161628723 0.8762813806533813 -0.2583390772342682
vn -0.08594200760126114 0.9622238874435425 -0.2583392858505249
vn -0.5555396676063538 0.7903394103050232 -0.25833946466445923
vn -0.876281201839447 0.40668413043022156 -0.258339524269104
vn -0.9622238278388977 -0.08594171702861786 -0.25833961367607117
vn -0.7903395891189575 -0.5555395483970642 -0.25833961367607117
vn -0.40668410062789917 -0.876281201839447 -0.258339524269104
vn 0.0 -1.0 -6.478465763848362e-09
vn 0.8660252690315247 0.5000002384185791 3.6149839388599503e-07
vn 0.4999999701976776 0.866025447845459 2.8764387138835446e-07
vn 1.5548318188507437e-08 1.0 -2.591386438766108e-09
vn -0.49999991059303284 0.866025447845459 -2.8505249360932794e-07
vn -0.8660253882408142 0.5000002384185791 -3.627941680406366e-07
vn -1.0 2.2804202615134272e-07 -4.845892931371054e-07
vn -0.8660256266593933 -0.49999961256980896 -3.64089800086731e-07
vn -0.5000003576278687 -0.8660253286361694 -3.472458445230586e-07
vn -0.00929971132427454 -0.8310416340827942 -0.5561326742172241
vn 0.4074671268463135 -0.7243528366088867 -0.5561326146125793
vn 0.715053379535675 -0.4235743582248688 -0.5561325550079346
vn 0.8310416340827942 -0.009299635887145996 -0.5561326742172241
vn 0.7243528366088867 0.4074670970439911 -0.5561326742172241
vn 0.4235745370388031 0.715053141117096 -0.5561327338218689
vn 0.00929976161569357 0.8310415148735046 -0.5561326742172241
vn -0.40746673941612244 0.724353015422821 -0.5561326742172241
vn -0.7150530219078064 0.4235747456550598 -0.5561327338218689
vn -0.8310415148735046 0.009299899451434612 -0.5561326146125793
vn -0.7243531346321106 -0.4074666500091553 -0.5561327338218689
vn -0.4235748052597046 -0.7150530219078064 -0.5561326742172241
vn 1.3425567146896356e-07 5.0345875024504494e-08 1.0
vn 0.039001740515232086 -0.5469965934753418 0.8362258076667786
vn -0.23972176015377045 -0.4932136535644531 0.8362259268760681
vn -0.4542120397090912 -0.3072745203971863 0.8362259268760681
vn -0.5469963550567627 -0.03900155425071716 0.8362261056900024
vn -0.493213415145874 0.23972192406654358 0.8362259864807129
vn -0.3072744905948639 0.4542120397090912 0.8362259268760681
vn -0.03900165855884552 0.5469964742660522 0.8362258672714233
vn 0.2397218942642212 0.49321383237838745 0.8362257480621338
vn 0.45421212911605835 0.3072749078273773 0.8362258672714233
vn 0.5469966530799866 0.03900177404284477 0.8362257480621338
vn 0.49321407079696655 -0.23972174525260925 0.8362258076667786
vn 0.30727508664131165 -0.45421189069747925 0.8362258076667786
vn -0.08594214916229248 -0.9622239470481873 0.25833937525749207
vn -0.5555403232574463 -0.7903390526771545 0.2583392262458801
vn -0.8762814998626709 -0.4066837430000305 0.2583390772342682
vn -0.9622239470481873 0.08594220131635666 0.2583390176296234
vn -0.7903392910957336 0.5555400252342224 0.2583390772342682
vn -0.40668395161628723 0.8762813806533813 0.2583391070365906
vn 0.08594207465648651 0.9622238874435425 0.2583392858505249
vn 0.5555396676063538 0.790339469909668 0.2583393454551697
vn 0.8762813210487366 0.40668416023254395 0.25833943486213684
vn 0.9622239470481873 -0.08594173192977905 0.2583394944667816
vn 0.790339469909668 -0.5555395483970642 0.258339524269104
vn 0.40668413043022156 -0.876281201839447 0.25833946466445923
vn 1.0 2.850524651876185e-07 4.5997103370609693e-07
vn 0.8660256266593933 -0.49999964237213135 4.1073477063946484e-07
vn 0.5000003576278687 -0.8660253286361694 3.381759938747564e-07
vn 0.009299787692725658 -0.8310415148735046 0.5561326146125793
vn -0.4074670076370239 -0.7243527770042419 0.5561327934265137
vn -0.7150533199310303 -0.4235743582248688 0.5561326146125793
vn -0.8310414552688599 -0.00929971132427454 0.5561327934265137
vn -0.7243527770042419 0.4074670970439911 0.5561327338218689
vn -0.4235744774341583 0.7150530815124512 0.5561328530311584
vn -0.009299617260694504 0.8310416340827942 0.5561326742172241
vn 0.4074668288230896 0.7243530750274658 0.5561325550079346
vn 0.7150530815124512 0.4235748052597046 0.5561326146125793
vn 0.831041693687439 0.009299877099692822 0.5561325550079346
vn 0.7243531942367554 -0.4074665904045105 0.5561326146125793
vn 0.42357486486434937 -0.7150530219078064 0.5561326146125793
f 75/75/75 60/60/60 71/71/71
f 71/71/71 86/86/86 75/75/75
f 86/86/86 71/71/71 70/70/70
f 70/70/70 85/85/85 86/86/86
f 85/85/85 70/70/70 69/69/69
f 69/69/69 84/84/84 85/85/85
f 84/84/84 69/69/69 68/68/68
f 68/68/68 83/83/83 84/84/84
f 83/83/83 68/68/68 67/67/67
f 67/67/67 82/82/82 83/83/83
f 82/82/82 67/67/67 66/66/66
f 66/66/66 81/81/81 82/82/82
f 81/81/81 66/66/66 65/65/65
f 65/65/65 80/80/80 81/81/81
f 80/80/80 65/65/65 64/64/64
f 64/64/64 79/79/79 80/80/80
f 79/79/79 64/64/64 63/63/63
f 63/63/63 78/78/78 79/79/79
f 78/78/78 63/63/63 62/62/62
f 62/62/62 77/77/77 78/78/78
f 77/77/77 62/62/62 61/61/61
f 61/61/61 76/76/76 77/77/77
f 76/76/76 61/61/61 60/60/60
f 60/60/60 75/75/75 76/76/76
f 71/71/71 60/60/60 26/26/26
f 26/26/26 74/74/74 71/71/71
f 70/70/70 71/71/71 74/74/74
f 74/74/74 73/73/73 70/70/70
f 69/69/69 70/70/70 73/73/73
f 73/73/73 72/72/72 69/69/69
f 68/68/68 69/69/69 72/72/72
f 72/72/72 27/27/27 68/68/68
f 67/67/67 68/68/68 27/27/27
f 27/27/27 28/28/28 67/67/67
f 66/66/66 67/67/67 28/28/28
f 28/28/28 29/29/29 66/66/66
f 65/65/65 66/66/66 29/29/29
f 29/29/29 30/30/30 65/65/65
f 64/64/64 65/65/65 30/30/30
f 30/30/30 31/31/31 64/64/64
f 63/63/63 64/64/64 31/31/31
f 31/31/31 32/32/32 63/63/63
f 62/62/62 63/63/63 32/32/32
f 32/32/32 33/33/33 62/62/62
f 61/61/61 62/62/62 33/33/33
f 33/33/33 34/34/34 61/61/61
f 60/60/60 61/61/61 34/34/34
f 34/34/34 26/26/26 60/60/60
f 48/48/48 75/75/75 86/86/86
f 86/86/86 59/59/59 48/48/48
f 59/59/59 86/86/86 85/85/85
f 85/85/85 58/58/58 59/59/59
f 58/58/58 85/85/85 84/84/84
f 84/84/84 57/57/57 58/58/58
f 57/57/57 84/84/84 83/83/83
f 83/83/83 56/56/56 57/57/57
f 56/56/56 83/83/83 82/82/82
f 82/82/82 55/55/55 56/56/56
f 55/55/55 82/82/82 81/81/81
f 81/81/81 54/54/54 55/55/55
f 54/54/54 81/81/81 80/80/80
f 80/80/80 53/53/53 54/54/54
f 53/53/53 80/80/80 79/79/79
f 79/79/79 52/52/52 53/53/53
f 52/52/52 79/79/79 78/78/78
f 78/78/78 51/51/51 52/52/52
f 51/51/51 78/78/78 77/77/77
f 77/77/77 50/50/50 51/51/51
f 50/50/50 77/77/77 76/76/76
f 76/76/76 49/49/49 50/50/50
f 49/49/49 76/76/76 75/75/75
f 75/75/75 48/48/48 49/49/49
f 47/47/47 48/48/48 59/59/59
f 47/47/47 59/59/59 58/58/58
f 47/47/47 58/58/58 57/57/57
f 47/47/47 57/57/57 56/56/56
f 47/47/47 56/56/56 55/55/55
f 47/47/47 55/55/55 54/54/54
f 47/47/47 54/54/54 53/53/53
f 47/47/47 53/53/53 52/52/52
f 47/47/47 52/52/52 51/51/51
f 47/47/47 51/51/51 50/50/50
f 47/47/47 50/50/50 49/49/49
f 47/47/47 49/49/49 48/48/48
f 35/35/35 14/14/14 25/25/25
f 25/25/25 46/46/46 35/35/35
f 46/46/46 25/25/25 24/24/24
f 24/24/24 45/45/45 46/46/46
f 45/45/45 24/24/24 23/23/23
f 23/23/23 44/44/44 45/45/45
f 44/44/44 23/23/23 22/22/22
f 22/22/22 43/43/43 44/44/44
f 43/43/43 22/22/22 21/21/21
f 21/21/21 42/42/42 43/43/43
f 42/42/42 21/21/21 20/20/20
f 20/20/20 41/41/41 42/42/42
f 41/41/41 20/20/20 19/19/19
f 19/19/19 40/40/40 41/41/41
f 40/40/40 19/19/19 18/18/18
f 18/18/18 39/39/39 40/40/40
f 39/39/39 18/18/18 17/17/17
f 17/17/17 38/38/38 39/39/39
f 38/38/38 17/17/17 16/16/16
f 16/16/16 37/37/37 38/38/38
f 37/37/37 16/16/16 15/15/15
f 15/15/15 36/36/36 37/37/37
f 36/36/36 15/15/15 14/14/14
f 14/14/14 35/35/35 36/36/36
f 25/25/25 14/14/14 26/26/26
f 26/26/26 34/34/34 25/25/25
f 24/24/24 25/25/25 34/34/34
f 34/34/34 33/33/33 24/24/24
f 23/23/23 24/24/24 33/33/33
f 33/33/33 32/32/32 23/23/23
f 22/22/22 23/23/23 32/32/32
f 32/32/32 31/31/31 22/22/22
f 21/21/21 22/22/22 31/31/31
f 31/31/31 30/30/30 21/21/21
f 20/20/20 21/21/21 30/30/30
f 30/30/30 29/29/29 20/20/20
f 19/19/19 20/20/20 29/29/29
f 29/29/29 28/28/28 19/19/19
f 18/18/18 19/19/19 28/28/28
f 28/28/28 27/27/27 18/18/18
f 17/17/17 18/18/18 27/27/27
f 27/27/27 72/72/72 17/17/17
f 16/16/16 17/17/17 72/72/72
f 72/72/72 73/73/73 16/16/16
f 15/15/15 16/16/16 73/73/73
f 73/73/73 74/74/74 15/15/15
f 14/14/14 15/15/15 74/74/74
f 74/74/74 26/26/26 14/14/14
f 2/2/2 35/35/35 46/46/46
f 46/46/46 13/13/13 2/2/2
f 13/13/13 46/46/46 45/45/45
f 45/45/45 12/12/12 13/13/13
f 12/12/12 45/45/45 44/44/44
f 44/44/44 11/11/11 12/12/12
f 11/11/11 44/44/44 43/43/43
f 43/43/43 10/10/10 11/11/11
f 10/10/10 43/43/43 42/42/42
f 42/42/42 9/9/9 10/10/10
f 9/9/9 42/42/42 41/41/41
f 41/41/41 8/8/8 9/9/9
f 8/8/8 41/41/41 40/40/40
f 40/40/40 7/7/7 8/8/8
f 7/7/7 40/40/40 39/39/39
f 39/39/39 6/6/6 7/7/7
f 6/6/6 39/39/39 38/38/38
f 38/38/38 5/5/5 6/6/6
f 5/5/5 38/38/38 37/37/37
f 37/37/37 4/4/4 5/5/5
f 4/4/4 37/37/37 36/36/36
f 36/36/36 3/3/3 4/4/4
f 3/3/3 36/36/36 35/35/35
f 35/35/35 2/2/2 3/3/3
f 1/1/1 2/2/2 13/13/13
f 1/1/1 13/13/13 12/12/12
f 1/1/1 12/12/12 11/11/11
f 1/1/1 11/11/11 10/10/10
f 1/1/1 10/10/10 9/9/9
f 1/1/1 9/9/9 8/8/8
f 1/1/1 8/8/8 7/7/7
f 1/1/1 7/7/7 6/6/6
f 1/1/1 6/6/6 5/5/5
f 1/1/1 5/5/5 4/4/4
f 1/1/1 4/4/4 3/3/3
f 1/1/1 3/3/3 2/2/2
