# Recovered local-space geometry; original node transforms not applied
o mesh_0
v -7.62939453125e-06 2.897816955282906e-07 52.706390380859375
v -7.733212441962678e-06 21.52450180053711 46.84657287597656
v -10.762264251708984 18.640766143798828 46.84657287597656
v -18.640777587890625 10.762252807617188 46.84657287597656
v -21.52450942993164 3.3928868106158916e-06 46.84657287597656
v -18.640777587890625 -10.762245178222656 46.84657287597656
v -10.762264251708984 -18.64076042175293 46.84657287597656
v -1.8134111087420024e-05 -21.52450180053711 46.84657287597656
v 10.762228012084961 -18.640771865844727 46.84657287597656
v 18.6407527923584 -10.762263298034668 46.84657287597656
v 21.52449607849121 -1.6621122995275073e-05 46.84657287597656
v 18.640764236450195 10.762234687805176 46.84657287597656
v 10.762259483337402 18.6407527923584 46.84657287597656
v -7.595515853608958e-06 40.068870544433594 18.506786346435547
v -20.034446716308594 34.70065689086914 18.506786346435547
v -34.700660705566406 20.03443717956543 18.506786346435547
v -40.068878173828125 6.341811968013644e-06 18.506786346435547
v -34.7006721496582 -20.034425735473633 18.506786346435547
v -20.03445816040039 -34.700653076171875 18.506786346435547
v -2.9411383366095833e-05 -40.068870544433594 18.506786346435547
v 20.034412384033203 -34.70066833496094 18.506786346435547
v 34.70063781738281 -20.034460067749023 18.506786346435547
v 40.06886291503906 -3.0915209208615124e-05 18.506786346435547
v 34.70066833496094 20.034404754638672 18.506786346435547
v 20.03445816040039 34.70063781738281 18.506786346435547
v 3.174018274876289e-06 42.48074722290039 -8.156349944402064e-13
v -36.789398193359375 -21.240381240844727 2.777520876406925e-06
v -21.24036407470703 -36.789405822753906 1.6036011629694258e-06
v 3.174018274876289e-06 -42.48074722290039 -2.446904874900402e-12
v 21.240371704101562 -36.789405822753906 -1.6036052556955838e-06
v 36.789405822753906 -21.240381240844727 -2.7775242870120564e-06
v 42.480751037597656 -1.3335406038095243e-05 -3.2072080102807377e-06
v 36.7894172668457 21.240358352661133 -2.77752360489103e-06
v 21.240394592285156 36.789398193359375 -1.6036044598877197e-06
v -7.322253622987773e-06 33.20718002319336 35.076087951660156
v -16.60360336303711 28.758262634277344 35.076087951660156
v -28.758270263671875 16.603595733642578 35.076087951660156
v -33.20719528198242 5.6306907936232165e-06 35.076087951660156
v -28.758277893066406 -16.60358428955078 35.076087951660156
v -16.60361099243164 -28.758258819580078 35.076087951660156
v -2.4669303456903435e-05 -33.207183837890625 35.076087951660156
v 16.603565216064453 -28.758270263671875 35.076087951660156
v 28.75824737548828 -16.60361099243164 35.076087951660156
v 33.207176208496094 -2.5246165023418143e-05 35.076087951660156
v 28.75826644897461 16.603565216064453 35.076087951660156
v 16.60361099243164 28.75824737548828 35.076087951660156
v 6.018987733114045e-06 2.897816955282906e-07 -52.706390380859375
v 7.007613021414727e-06 21.52450180053711 -46.84657287597656
v 10.762263298034668 18.640766143798828 -46.84657287597656
v 18.640777587890625 10.762252807617188 -46.84657669067383
v 21.52450942993164 3.3928868106158916e-06 -46.84657669067383
v 18.640777587890625 -10.762245178222656 -46.84657669067383
v 10.762263298034668 -18.64076042175293 -46.84657287597656
v 1.740851075737737e-05 -21.52450180053711 -46.84657287597656
v -10.762228965759277 -18.640771865844727 -46.84657287597656
v -18.6407527923584 -10.762263298034668 -46.8465690612793
v -21.52449607849121 -1.6621122995275073e-05 -46.8465690612793
v -18.640764236450195 10.762234687805176 -46.8465690612793
v -10.762260437011719 18.6407527923584 -46.84657287597656
v 1.1149105375807267e-05 40.068870544433594 -18.506786346435547
v 20.034452438354492 34.70065689086914 -18.506790161132812
v 34.70066452026367 20.03443717956543 -18.506792068481445
v 40.06888198852539 6.341811968013644e-06 -18.506792068481445
v 34.70067596435547 -20.034425735473633 -18.506792068481445
v 20.03446388244629 -34.700653076171875 -18.506790161132812
v 3.2964970159810036e-05 -40.068870544433594 -18.506786346435547
v -20.034406661987305 -34.70066833496094 -18.50678253173828
v -34.70063400268555 -20.034460067749023 -18.50678062438965
v -40.0688591003418 -3.0915209208615124e-05 -18.50678062438965
v -34.70066452026367 20.034404754638672 -18.50678062438965
v -20.034452438354492 34.70063781738281 -18.50678253173828
v -42.480743408203125 -1.3335406038095243e-05 3.2072064186650096e-06
v -36.78940963745117 21.240358352661133 2.77752360489103e-06
v -21.240386962890625 36.789398193359375 1.6036052556955838e-06
v 8.3739487308776e-06 33.20718002319336 -35.076087951660156
v 16.603605270385742 28.758262634277344 -35.07609176635742
v 28.758272171020508 16.603595733642578 -35.07609176635742
v 33.20719909667969 5.6306907936232165e-06 -35.07609176635742
v 28.75827980041504 -16.60358428955078 -35.07609176635742
v 16.603612899780273 -28.758258819580078 -35.07609176635742
v 2.572099765529856e-05 -33.207183837890625 -35.076087951660156
v -16.60356330871582 -28.758270263671875 -35.07608413696289
v -28.75824546813965 -16.60361099243164 -35.07608413696289
v -33.20717239379883 -2.5246165023418143e-05 -35.07608413696289
v -28.758264541625977 16.603565216064453 -35.07608413696289
v -16.603609085083008 28.75824737548828 -35.07608413696289
vt 0.06224074587225914 0.00474095344543457
vt 0.09261888265609741 0.035031676292419434
vt 0.062354542315006256 0.03502374887466431
vt 0.03209017962217331 0.035031676292419434
vt 0.062354542315006256 0.03502374887466431
vt 0.09261888265609741 0.035031676292419434
vt 0.062354542315006256 0.03502374887466431
vt 0.03209017962217331 0.035031676292419434
vt 0.062354542315006256 0.03502374887466431
vt 0.09261888265609741 0.035031676292419434
vt 0.062354542315006256 0.03502374887466431
vt 0.03209017962217331 0.035031676292419434
vt 0.062354542315006256 0.03502374887466431
vt 0.11640390008687973 0.09112292528152466
vt 0.06235619634389877 0.09104681015014648
vt 0.008308460004627705 0.09112292528152466
vt 0.06235619634389877 0.09104681015014648
vt 0.11640390008687973 0.09112292528152466
vt 0.06235619634389877 0.09104681015014648
vt 0.008308460004627705 0.09112292528152466
vt 0.06235619634389877 0.09104681015014648
vt 0.11640390008687973 0.09112292528152466
vt 0.06235619634389877 0.09104681015014648
vt 0.008308460004627705 0.09112292528152466
vt 0.06235619634389877 0.09104681015014648
vt 0.12234121561050415 0.12320488691329956
vt 0.12234121561050415 0.12320488691329956
vt 0.062356166541576385 0.12316375970840454
vt 0.002371164970099926 0.12320488691329956
vt 0.062356166541576385 0.12316375970840454
vt 0.12234121561050415 0.12320488691329956
vt 0.062356166541576385 0.12316375970840454
vt 0.002371164970099926 0.12320488691329956
vt 0.062356166541576385 0.12316375970840454
vt 0.10614306479692459 0.0618366003036499
vt 0.06214722618460655 0.061795830726623535
vt 0.018569201231002808 0.0618366003036499
vt 0.06256504356861115 0.061795830726623535
vt 0.10614306479692459 0.0618366003036499
vt 0.062147218734025955 0.061795830726623535
vt 0.018569163978099823 0.06183665990829468
vt 0.06256503611803055 0.061795830726623535
vt 0.10614307224750519 0.0618366003036499
vt 0.06214723736047745 0.061795830726623535
vt 0.018569204956293106 0.0618366003036499
vt 0.06256504356861115 0.061795830726623535
vt 0.06224074587225914 0.00474095344543457
vt 0.09261888265609741 0.035031676292419434
vt 0.062354542315006256 0.03502374887466431
vt 0.03209017962217331 0.035031676292419434
vt 0.062354542315006256 0.03502374887466431
vt 0.09261888265609741 0.035031676292419434
vt 0.062354542315006256 0.03502374887466431
vt 0.03209017962217331 0.035031676292419434
vt 0.062354542315006256 0.03502374887466431
vt 0.09261888265609741 0.035031676292419434
vt 0.062354542315006256 0.03502374887466431
vt 0.03209017962217331 0.035031676292419434
vt 0.062354542315006256 0.03502374887466431
vt 0.11640390008687973 0.09112292528152466
vt 0.06235619634389877 0.09104681015014648
vt 0.008308460004627705 0.09112292528152466
vt 0.06235619634389877 0.09104681015014648
vt 0.11640390008687973 0.09112292528152466
vt 0.06235619634389877 0.09104681015014648
vt 0.008308460004627705 0.09112292528152466
vt 0.06235619634389877 0.09104681015014648
vt 0.11640390008687973 0.09112292528152466
vt 0.06235619634389877 0.09104681015014648
vt 0.008308460004627705 0.09112292528152466
vt 0.06235619634389877 0.09104681015014648
vt 0.062356166541576385 0.12316375970840454
vt 0.002371164970099926 0.12320488691329956
vt 0.062356166541576385 0.12316375970840454
vt 0.10614306479692459 0.0618366003036499
vt 0.06214722618460655 0.061795830726623535
vt 0.018569201231002808 0.0618366003036499
vt 0.06256504356861115 0.061795830726623535
vt 0.10614306479692459 0.0618366003036499
vt 0.062147218734025955 0.061795830726623535
vt 0.018569163978099823 0.06183665990829468
vt 0.06256503611803055 0.061795830726623535
vt 0.10614307224750519 0.0618366003036499
vt 0.06214723736047745 0.061795830726623535
vt 0.018569204956293106 0.0618366003036499
vt 0.06256504356861115 0.061795830726623535
vn 2.580281988073807e-09 -5.547606463096599e-08 1.0
vn 0.039052944630384445 0.5467846989631653 0.8363620042800903
vn -0.23957166075706482 0.4930558204650879 0.8363620042800903
vn -0.4540032148361206 0.3072129487991333 0.8363620638847351
vn -0.5467846989631653 0.03905276209115982 0.8363621234893799
vn -0.4930557608604431 -0.23957157135009766 0.8363620638847351
vn -0.3072131276130676 -0.4540030062198639 0.8363621234893799
vn -0.03905295208096504 -0.5467846393585205 0.8363620042800903
vn 0.23957140743732452 -0.49305590987205505 0.8363620042800903
vn 0.4540027379989624 -0.30721336603164673 0.8363620638847351
vn 0.5467846393585205 -0.03905301168560982 0.8363620042800903
vn 0.4930560290813446 0.2395714670419693 0.8363620638847351
vn 0.30721336603164673 0.45400282740592957 0.8363620042800903
vn -0.08596279472112656 0.9624543786048889 0.2574722468852997
vn -0.5556735396385193 0.7905284762382507 0.25747206807136536
vn -0.8764914870262146 0.4067811667919159 0.25747182965278625
vn -0.9624544978141785 -0.08596280962228775 0.25747179985046387
vn -0.7905287742614746 -0.5556731820106506 0.2574719190597534
vn -0.40678146481513977 -0.8764913082122803 0.2574719786643982
vn 0.08596264570951462 -0.9624544382095337 0.2574721872806549
vn 0.555672824382782 -0.7905288934707642 0.25747233629226685
vn 0.8764912486076355 -0.4067816138267517 0.257472425699234
vn 0.9624543786048889 0.08596234023571014 0.2574724853038788
vn 0.7905288338661194 0.5556726455688477 0.2574724853038788
vn 0.4067815840244293 0.876491129398346 0.257472425699234
vn -1.5548570431178632e-08 1.0 1.2957140915759169e-09
vn -0.8660253882408142 -0.5000002384185791 -4.081500151187356e-07
vn -0.4999999403953552 -0.866025447845459 -3.161542281304719e-07
vn -5.1828563663036675e-09 -1.0 1.2957140915759169e-09
vn 0.5 -0.8660253882408142 3.0449280075117713e-07
vn 0.8660252690315247 -0.5000002384185791 3.8871422702868585e-07
vn 1.0 -2.3841140261993132e-07 4.7423137061741727e-07
vn 0.8660256266593933 0.49999964237213135 3.861227924062405e-07
vn 0.5000003576278687 0.8660253286361694 3.822356973159913e-07
vn 0.0093024717643857 0.8318400382995605 0.5549375414848328
vn -0.4078640639781952 0.7250457406044006 0.554937481880188
vn -0.7157435417175293 0.42397600412368774 0.554937481880188
vn -0.8318400382995605 0.00930242333561182 0.554937481880188
vn -0.7250458002090454 -0.40786391496658325 0.554937481880188
vn -0.42397621273994446 -0.7157433032989502 0.5549375414848328
vn -0.009302487596869469 -0.8318400382995605 0.5549375414848328
vn 0.40786364674568176 -0.7250459790229797 0.5549376010894775
vn 0.7157431840896606 -0.42397645115852356 0.5549375414848328
vn 0.8318400979042053 -0.00930266734212637 0.5549376010894775
vn 0.7250459790229797 0.4078634977340698 0.5549375414848328
vn 0.42397642135620117 0.7157431840896606 0.5549375414848328
vn -1.677183263382176e-07 -5.6766200628999286e-08 -1.0
vn -0.03905298933386803 0.5467846989631653 -0.8363620042800903
vn 0.2395714968442917 0.49305590987205505 -0.8363621234893799
vn 0.4540029764175415 0.3072129487991333 -0.8363620638847351
vn 0.546784520149231 0.03905276954174042 -0.8363621234893799
vn 0.4930555820465088 -0.239571675658226 -0.8363621234893799
vn 0.3072129487991333 -0.4540029764175415 -0.8363620638847351
vn 0.03905290737748146 -0.5467846393585205 -0.8363620042800903
vn -0.23957160115242004 -0.49305590987205505 -0.8363619446754456
vn -0.4540029466152191 -0.30721330642700195 -0.8363619446754456
vn -0.5467847585678101 -0.03905298933386803 -0.8363619446754456
vn -0.49305611848831177 0.23957136273384094 -0.8363618850708008
vn -0.30721351504325867 0.4540027976036072 -0.8363619446754456
vn 0.08596272766590118 0.9624543786048889 -0.2574722468852997
vn 0.5556734800338745 0.7905283570289612 -0.25747212767601013
vn 0.8764914870262146 0.4067811667919159 -0.2574719786643982
vn 0.9624544978141785 -0.08596284687519073 -0.25747188925743103
vn 0.7905286550521851 -0.5556731224060059 -0.2574719786643982
vn 0.406781405210495 -0.8764913082122803 -0.25747203826904297
vn -0.08596271276473999 -0.9624544978141785 -0.2574722170829773
vn -0.555672824382782 -0.7905287742614746 -0.2574722468852997
vn -0.8764911890029907 -0.4067815840244293 -0.25747227668762207
vn -0.9624543786048889 0.08596231788396835 -0.25747236609458923
vn -0.7905289530754089 0.5556727051734924 -0.2574723958969116
vn -0.40678155422210693 0.8764911890029907 -0.25747233629226685
vn -1.0 -2.487770984771487e-07 -4.7293562488448515e-07
vn -0.8660257458686829 0.49999964237213135 -3.653913722700963e-07
vn -0.5000003576278687 0.8660252094268799 -3.653914291135152e-07
vn -0.009302575141191483 0.8318400979042053 -0.5549376010894775
vn 0.407863974571228 0.7250457406044006 -0.5549376606941223
vn 0.7157434821128845 0.42397597432136536 -0.5549375414848328
vn 0.8318399786949158 0.009302408434450626 -0.5549376010894775
vn 0.7250457406044006 -0.4078640639781952 -0.5549376010894775
vn 0.4239761531352997 -0.7157432436943054 -0.5549376606941223
vn 0.009302381426095963 -0.8318400382995605 -0.554937481880188
vn -0.4078637957572937 -0.7250459790229797 -0.554937481880188
vn -0.7157432436943054 -0.42397645115852356 -0.554937481880188
vn -0.8318400382995605 -0.009302669204771519 -0.554937481880188
vn -0.7250460386276245 0.40786346793174744 -0.554937481880188
vn -0.4239765405654907 0.7157431840896606 -0.554937481880188
f 75/75/75 86/86/86 71/71/71
f 71/71/71 60/60/60 75/75/75
f 86/86/86 85/85/85 70/70/70
f 70/70/70 71/71/71 86/86/86
f 85/85/85 84/84/84 69/69/69
f 69/69/69 70/70/70 85/85/85
f 84/84/84 83/83/83 68/68/68
f 68/68/68 69/69/69 84/84/84
f 83/83/83 82/82/82 67/67/67
f 67/67/67 68/68/68 83/83/83
f 82/82/82 81/81/81 66/66/66
f 66/66/66 67/67/67 82/82/82
f 81/81/81 80/80/80 65/65/65
f 65/65/65 66/66/66 81/81/81
f 80/80/80 79/79/79 64/64/64
f 64/64/64 65/65/65 80/80/80
f 79/79/79 78/78/78 63/63/63
f 63/63/63 64/64/64 79/79/79
f 78/78/78 77/77/77 62/62/62
f 62/62/62 63/63/63 78/78/78
f 77/77/77 76/76/76 61/61/61
f 61/61/61 62/62/62 77/77/77
f 76/76/76 75/75/75 60/60/60
f 60/60/60 61/61/61 76/76/76
f 71/71/71 74/74/74 26/26/26
f 26/26/26 60/60/60 71/71/71
f 70/70/70 73/73/73 74/74/74
f 74/74/74 71/71/71 70/70/70
f 69/69/69 72/72/72 73/73/73
f 73/73/73 70/70/70 69/69/69
f 68/68/68 27/27/27 72/72/72
f 72/72/72 69/69/69 68/68/68
f 67/67/67 28/28/28 27/27/27
f 27/27/27 68/68/68 67/67/67
f 66/66/66 29/29/29 28/28/28
f 28/28/28 67/67/67 66/66/66
f 65/65/65 30/30/30 29/29/29
f 29/29/29 66/66/66 65/65/65
f 64/64/64 31/31/31 30/30/30
f 30/30/30 65/65/65 64/64/64
f 63/63/63 32/32/32 31/31/31
f 31/31/31 64/64/64 63/63/63
f 62/62/62 33/33/33 32/32/32
f 32/32/32 63/63/63 62/62/62
f 61/61/61 34/34/34 33/33/33
f 33/33/33 62/62/62 61/61/61
f 60/60/60 26/26/26 34/34/34
f 34/34/34 61/61/61 60/60/60
f 48/48/48 59/59/59 86/86/86
f 86/86/86 75/75/75 48/48/48
f 59/59/59 58/58/58 85/85/85
f 85/85/85 86/86/86 59/59/59
f 58/58/58 57/57/57 84/84/84
f 84/84/84 85/85/85 58/58/58
f 57/57/57 56/56/56 83/83/83
f 83/83/83 84/84/84 57/57/57
f 56/56/56 55/55/55 82/82/82
f 82/82/82 83/83/83 56/56/56
f 55/55/55 54/54/54 81/81/81
f 81/81/81 82/82/82 55/55/55
f 54/54/54 53/53/53 80/80/80
f 80/80/80 81/81/81 54/54/54
f 53/53/53 52/52/52 79/79/79
f 79/79/79 80/80/80 53/53/53
f 52/52/52 51/51/51 78/78/78
f 78/78/78 79/79/79 52/52/52
f 51/51/51 50/50/50 77/77/77
f 77/77/77 78/78/78 51/51/51
f 50/50/50 49/49/49 76/76/76
f 76/76/76 77/77/77 50/50/50
f 49/49/49 48/48/48 75/75/75
f 75/75/75 76/76/76 49/49/49
f 47/47/47 59/59/59 48/48/48
f 47/47/47 58/58/58 59/59/59
f 47/47/47 57/57/57 58/58/58
f 47/47/47 56/56/56 57/57/57
f 47/47/47 55/55/55 56/56/56
f 47/47/47 54/54/54 55/55/55
f 47/47/47 53/53/53 54/54/54
f 47/47/47 52/52/52 53/53/53
f 47/47/47 51/51/51 52/52/52
f 47/47/47 50/50/50 51/51/51
f 47/47/47 49/49/49 50/50/50
f 47/47/47 48/48/48 49/49/49
f 35/35/35 46/46/46 25/25/25
f 25/25/25 14/14/14 35/35/35
f 46/46/46 45/45/45 24/24/24
f 24/24/24 25/25/25 46/46/46
f 45/45/45 44/44/44 23/23/23
f 23/23/23 24/24/24 45/45/45
f 44/44/44 43/43/43 22/22/22
f 22/22/22 23/23/23 44/44/44
f 43/43/43 42/42/42 21/21/21
f 21/21/21 22/22/22 43/43/43
f 42/42/42 41/41/41 20/20/20
f 20/20/20 21/21/21 42/42/42
f 41/41/41 40/40/40 19/19/19
f 19/19/19 20/20/20 41/41/41
f 40/40/40 39/39/39 18/18/18
f 18/18/18 19/19/19 40/40/40
f 39/39/39 38/38/38 17/17/17
f 17/17/17 18/18/18 39/39/39
f 38/38/38 37/37/37 16/16/16
f 16/16/16 17/17/17 38/38/38
f 37/37/37 36/36/36 15/15/15
f 15/15/15 16/16/16 37/37/37
f 36/36/36 35/35/35 14/14/14
f 14/14/14 15/15/15 36/36/36
f 25/25/25 34/34/34 26/26/26
f 26/26/26 14/14/14 25/25/25
f 24/24/24 33/33/33 34/34/34
f 34/34/34 25/25/25 24/24/24
f 23/23/23 32/32/32 33/33/33
f 33/33/33 24/24/24 23/23/23
f 22/22/22 31/31/31 32/32/32
f 32/32/32 23/23/23 22/22/22
f 21/21/21 30/30/30 31/31/31
f 31/31/31 22/22/22 21/21/21
f 20/20/20 29/29/29 30/30/30
f 30/30/30 21/21/21 20/20/20
f 19/19/19 28/28/28 29/29/29
f 29/29/29 20/20/20 19/19/19
f 18/18/18 27/27/27 28/28/28
f 28/28/28 19/19/19 18/18/18
f 17/17/17 72/72/72 27/27/27
f 27/27/27 18/18/18 17/17/17
f 16/16/16 73/73/73 72/72/72
f 72/72/72 17/17/17 16/16/16
f 15/15/15 74/74/74 73/73/73
f 73/73/73 16/16/16 15/15/15
f 14/14/14 26/26/26 74/74/74
f 74/74/74 15/15/15 14/14/14
f 2/2/2 13/13/13 46/46/46
f 46/46/46 35/35/35 2/2/2
f 13/13/13 12/12/12 45/45/45
f 45/45/45 46/46/46 13/13/13
f 12/12/12 11/11/11 44/44/44
f 44/44/44 45/45/45 12/12/12
f 11/11/11 10/10/10 43/43/43
f 43/43/43 44/44/44 11/11/11
f 10/10/10 9/9/9 42/42/42
f 42/42/42 43/43/43 10/10/10
f 9/9/9 8/8/8 41/41/41
f 41/41/41 42/42/42 9/9/9
f 8/8/8 7/7/7 40/40/40
f 40/40/40 41/41/41 8/8/8
f 7/7/7 6/6/6 39/39/39
f 39/39/39 40/40/40 7/7/7
f 6/6/6 5/5/5 38/38/38
f 38/38/38 39/39/39 6/6/6
f 5/5/5 4/4/4 37/37/37
f 37/37/37 38/38/38 5/5/5
f 4/4/4 3/3/3 36/36/36
f 36/36/36 37/37/37 4/4/4
f 3/3/3 2/2/2 35/35/35
f 35/35/35 36/36/36 3/3/3
f 1/1/1 13/13/13 2/2/2
f 1/1/1 12/12/12 13/13/13
f 1/1/1 11/11/11 12/12/12
f 1/1/1 10/10/10 11/11/11
f 1/1/1 9/9/9 10/10/10
f 1/1/1 8/8/8 9/9/9
f 1/1/1 7/7/7 8/8/8
f 1/1/1 6/6/6 7/7/7
f 1/1/1 5/5/5 6/6/6
f 1/1/1 4/4/4 5/5/5
f 1/1/1 3/3/3 4/4/4
f 1/1/1 2/2/2 3/3/3
