# Recovered local-space geometry; original node transforms not applied
o mesh_0
v -7.62939453125e-06 2.897816955282906e-07 52.706390380859375
v -7.733212441962678e-06 21.52450180053711 46.84657287597656
v -10.762264251708984 18.640766143798828 46.84657287597656
v -18.640777587890625 10.762252807617188 46.84657287597656
v -21.52450942993164 3.3928868106158916e-06 46.84657287597656
v -18.640777587890625 -10.762245178222656 46.84657287597656
v -10.762264251708984 -18.64076042175293 46.84657287597656
v -1.8134111087420024e-05 -21.52450180053711 46.84657287597656
v 10.762228012084961 -18.640771865844727 46.84657287597656
v 18.6407527923584 -10.762263298034668 46.84657287597656
v 21.52449607849121 -1.6621122995275073e-05 46.84657287597656
v 18.640764236450195 10.762234687805176 46.84657287597656
v 10.762259483337402 18.6407527923584 46.84657287597656
v -7.595515853608958e-06 40.068870544433594 18.506786346435547
v -20.034446716308594 34.70065689086914 18.506786346435547
v -34.700660705566406 20.03443717956543 18.506786346435547
v -40.068878173828125 6.341811968013644e-06 18.506786346435547
v -34.7006721496582 -20.034425735473633 18.506786346435547
v -20.03445816040039 -34.700653076171875 18.506786346435547
v -2.9411383366095833e-05 -40.068870544433594 18.506786346435547
v 20.034412384033203 -34.70066833496094 18.506786346435547
v 34.70063781738281 -20.034460067749023 18.506786346435547
v 40.06886291503906 -3.0915209208615124e-05 18.506786346435547
v 34.70066833496094 20.034404754638672 18.506786346435547
v 20.03445816040039 34.70063781738281 18.506786346435547
v -7.62939453125e-06 42.48074722290039 0.0
v -21.240381240844727 36.789405822753906 0.0
v -36.78940963745117 21.240375518798828 0.0
v -42.48075485229492 6.4144151110667735e-06 0.0
v -36.78942108154297 -21.24036407470703 0.0
v -21.24039077758789 -36.789398193359375 0.0
v -2.9236218324513175e-05 -42.48074722290039 0.0
v 21.240345001220703 -36.7894172668457 0.0
v 36.78938293457031 -21.240398406982422 0.0
v 42.48073959350586 -3.308522718725726e-05 0.0
v 36.7894172668457 21.240341186523438 0.0
v 21.240398406982422 36.78938674926758 0.0
v -7.62939453125e-06 -7.870463377912529e-06 0.0
v -7.322253622987773e-06 33.20718002319336 35.076087951660156
v -16.60360336303711 28.758262634277344 35.076087951660156
v -28.758270263671875 16.603595733642578 35.076087951660156
v -33.20719528198242 5.6306907936232165e-06 35.076087951660156
v -28.758277893066406 -16.60358428955078 35.076087951660156
v -16.60361099243164 -28.758258819580078 35.076087951660156
v -2.4669303456903435e-05 -33.207183837890625 35.076087951660156
v 16.603565216064453 -28.758270263671875 35.076087951660156
v 28.75824737548828 -16.60361099243164 35.076087951660156
v 33.207176208496094 -2.5246165023418143e-05 35.076087951660156
v 28.75826644897461 16.603565216064453 35.076087951660156
v 16.60361099243164 28.75824737548828 35.076087951660156
v -21.240381240844727 36.789405822753906 0.0
v -7.62939453125e-06 42.48074722290039 0.0
v -36.78940963745117 21.240375518798828 0.0
v -42.48075485229492 6.4144151110667735e-06 0.0
v -36.78942108154297 -21.24036407470703 0.0
v -21.24039077758789 -36.789398193359375 0.0
v -2.9236218324513175e-05 -42.48074722290039 0.0
v 21.240345001220703 -36.7894172668457 0.0
v 36.78938293457031 -21.240398406982422 0.0
v 42.48073959350586 -3.308522718725726e-05 0.0
v 36.7894172668457 21.240341186523438 0.0
v 21.240398406982422 36.78938674926758 0.0
vt 0.06224074587225914 0.00474095344543457
vt 0.09261888265609741 0.035031676292419434
vt 0.062354542315006256 0.03502374887466431
vt 0.03209017962217331 0.035031676292419434
vt 0.062354542315006256 0.03502374887466431
vt 0.09261888265609741 0.035031676292419434
vt 0.062354542315006256 0.03502374887466431
vt 0.03209017962217331 0.035031676292419434
vt 0.062354542315006256 0.03502374887466431
vt 0.09261888265609741 0.035031676292419434
vt 0.062354542315006256 0.03502374887466431
vt 0.03209017962217331 0.035031676292419434
vt 0.062354542315006256 0.03502374887466431
vt 0.11640390008687973 0.09112292528152466
vt 0.06235619634389877 0.09104681015014648
vt 0.008308460004627705 0.09112292528152466
vt 0.06235619634389877 0.09104681015014648
vt 0.11640390008687973 0.09112292528152466
vt 0.06235619634389877 0.09104681015014648
vt 0.008308460004627705 0.09112292528152466
vt 0.06235619634389877 0.09104681015014648
vt 0.11640390008687973 0.09112292528152466
vt 0.06235619634389877 0.09104681015014648
vt 0.008308460004627705 0.09112292528152466
vt 0.06235619634389877 0.09104681015014648
vt 0.12234121561050415 0.12320488691329956
vt 0.062356166541576385 0.12316375970840454
vt 0.002371164970099926 0.12320488691329956
vt 0.062356166541576385 0.12316375970840454
vt 0.12234121561050415 0.12320488691329956
vt 0.062356166541576385 0.12316375970840454
vt 0.002371164970099926 0.12320488691329956
vt 0.062356166541576385 0.12316375970840454
vt 0.12234121561050415 0.12320488691329956
vt 0.062356166541576385 0.12316375970840454
vt 0.002371164970099926 0.12320488691329956
vt 0.062356166541576385 0.12316375970840454
vt 0.061861567199230194 0.12649035453796387
vt 0.10614306479692459 0.0618366003036499
vt 0.06214722618460655 0.061795830726623535
vt 0.018569201231002808 0.0618366003036499
vt 0.06256504356861115 0.061795830726623535
vt 0.10614306479692459 0.0618366003036499
vt 0.062147218734025955 0.061795830726623535
vt 0.018569163978099823 0.06183665990829468
vt 0.06256503611803055 0.061795830726623535
vt 0.10614307224750519 0.0618366003036499
vt 0.06214723736047745 0.061795830726623535
vt 0.018569204956293106 0.0618366003036499
vt 0.06256504356861115 0.061795830726623535
vt 0.06186150014400482 0.2492823600769043
vt 0.12248573452234268 0.23882609605789185
vt 0.002158090239390731 0.23913300037384033
vt 0.06186150014400482 0.2492823600769043
vt 0.12248573452234268 0.23882609605789185
vt 0.06186150014400482 0.2492823600769043
vt 0.002158090239390731 0.23913300037384033
vt 0.06186150014400482 0.2492823600769043
vt 0.12248573452234268 0.23882609605789185
vt 0.06186150014400482 0.2492823600769043
vt 0.002158090239390731 0.23913300037384033
vt 0.06186150014400482 0.2492823600769043
vn 5.160563976147614e-09 -5.418592508021902e-08 1.0
vn 0.039052944630384445 0.5467846989631653 0.8363620042800903
vn -0.23957166075706482 0.4930558204650879 0.8363620042800903
vn -0.4540032148361206 0.3072129786014557 0.8363620638847351
vn -0.5467846989631653 0.03905276209115982 0.8363621234893799
vn -0.4930557608604431 -0.23957160115242004 0.8363620638847351
vn -0.3072131276130676 -0.4540030062198639 0.8363621234893799
vn -0.039052948355674744 -0.5467846393585205 0.8363620042800903
vn 0.2395714670419693 -0.4930560290813446 0.8363620638847351
vn 0.4540027976036072 -0.30721336603164673 0.8363620042800903
vn 0.5467846393585205 -0.03905301168560982 0.8363620042800903
vn 0.4930560290813446 0.2395714670419693 0.8363620638847351
vn 0.30721336603164673 0.45400282740592957 0.8363620042800903
vn -0.08596277236938477 0.9624543786048889 0.25747230648994446
vn -0.555673360824585 0.790528416633606 0.2574722170829773
vn -0.876491367816925 0.40678128600120544 0.25747212767601013
vn -0.9624544382095337 -0.08596272766590118 0.25747212767601013
vn -0.7905286550521851 -0.5556730628013611 0.2574721872806549
vn -0.40678149461746216 -0.8764912486076355 0.2574721574783325
vn 0.08596255630254745 -0.9624544978141785 0.25747227668762207
vn 0.555672824382782 -0.7905287742614746 0.2574722468852997
vn 0.8764911890029907 -0.4067816436290741 0.2574721574783325
vn 0.9624544382095337 0.08596226572990417 0.2574722468852997
vn 0.7905290126800537 0.5556726455688477 0.25747233629226685
vn 0.4067816734313965 0.8764912486076355 0.25747230648994446
vn 0.0882224589586258 0.9877480864524841 0.1287272572517395
vn -0.4174714982509613 0.8995259404182434 0.12872718274593353
vn -0.8113038539886475 0.5702765583992004 0.1287272423505783
vn -0.9877480268478394 0.08822236955165863 0.1287272423505783
vn -0.8995260000228882 -0.4174712598323822 0.1287272572517395
vn -0.5702768564224243 -0.8113036751747131 0.12872706353664398
vn -0.08822255581617355 -0.9877480268478394 0.12872713804244995
vn 0.4174709618091583 -0.8995261788368225 0.12872716784477234
vn 0.8113035559654236 -0.570277214050293 0.12872712314128876
vn 0.9877479672431946 -0.08822285383939743 0.12872716784477234
vn 0.8995262980461121 0.41747069358825684 0.12872722744941711
vn 0.5702771544456482 0.811303436756134 0.12872731685638428
vn 0.0 0.0 -1.0
vn 0.0093024717643857 0.8318400382995605 0.5549375414848328
vn -0.4078640639781952 0.7250457406044006 0.554937481880188
vn -0.7157435417175293 0.42397600412368774 0.554937481880188
vn -0.8318400382995605 0.00930242333561182 0.554937481880188
vn -0.7250458002090454 -0.40786391496658325 0.554937481880188
vn -0.42397621273994446 -0.7157433032989502 0.5549375414848328
vn -0.009302487596869469 -0.8318400382995605 0.5549375414848328
vn 0.40786364674568176 -0.7250459790229797 0.5549376010894775
vn 0.7157431840896606 -0.42397645115852356 0.5549375414848328
vn 0.8318400979042053 -0.00930266734212637 0.5549376010894775
vn 0.7250459790229797 0.4078634977340698 0.5549375414848328
vn 0.42397642135620117 0.7157431840896606 0.5549375414848328
vn 0.0 0.0 -1.0
vn 0.0 0.0 -1.0
vn 0.0 0.0 -1.0
vn 0.0 0.0 -1.0
vn 0.0 0.0 -1.0
vn 0.0 0.0 -1.0
vn 0.0 0.0 -1.0
vn 0.0 0.0 -1.0
vn 0.0 0.0 -1.0
vn 0.0 0.0 -1.0
vn 0.0 0.0 -1.0
vn 0.0 0.0 -1.0
f 39/39/39 50/50/50 25/25/25
f 25/25/25 14/14/14 39/39/39
f 50/50/50 49/49/49 24/24/24
f 24/24/24 25/25/25 50/50/50
f 49/49/49 48/48/48 23/23/23
f 23/23/23 24/24/24 49/49/49
f 48/48/48 47/47/47 22/22/22
f 22/22/22 23/23/23 48/48/48
f 47/47/47 46/46/46 21/21/21
f 21/21/21 22/22/22 47/47/47
f 46/46/46 45/45/45 20/20/20
f 20/20/20 21/21/21 46/46/46
f 45/45/45 44/44/44 19/19/19
f 19/19/19 20/20/20 45/45/45
f 44/44/44 43/43/43 18/18/18
f 18/18/18 19/19/19 44/44/44
f 43/43/43 42/42/42 17/17/17
f 17/17/17 18/18/18 43/43/43
f 42/42/42 41/41/41 16/16/16
f 16/16/16 17/17/17 42/42/42
f 41/41/41 40/40/40 15/15/15
f 15/15/15 16/16/16 41/41/41
f 40/40/40 39/39/39 14/14/14
f 14/14/14 15/15/15 40/40/40
f 52/52/52 62/62/62 38/38/38
f 62/62/62 61/61/61 38/38/38
f 61/61/61 60/60/60 38/38/38
f 60/60/60 59/59/59 38/38/38
f 59/59/59 58/58/58 38/38/38
f 58/58/58 57/57/57 38/38/38
f 57/57/57 56/56/56 38/38/38
f 56/56/56 55/55/55 38/38/38
f 55/55/55 54/54/54 38/38/38
f 54/54/54 53/53/53 38/38/38
f 53/53/53 51/51/51 38/38/38
f 51/51/51 52/52/52 38/38/38
f 25/25/25 37/37/37 26/26/26
f 26/26/26 14/14/14 25/25/25
f 24/24/24 36/36/36 37/37/37
f 37/37/37 25/25/25 24/24/24
f 23/23/23 35/35/35 36/36/36
f 36/36/36 24/24/24 23/23/23
f 22/22/22 34/34/34 35/35/35
f 35/35/35 23/23/23 22/22/22
f 21/21/21 33/33/33 34/34/34
f 34/34/34 22/22/22 21/21/21
f 20/20/20 32/32/32 33/33/33
f 33/33/33 21/21/21 20/20/20
f 19/19/19 31/31/31 32/32/32
f 32/32/32 20/20/20 19/19/19
f 18/18/18 30/30/30 31/31/31
f 31/31/31 19/19/19 18/18/18
f 17/17/17 29/29/29 30/30/30
f 30/30/30 18/18/18 17/17/17
f 16/16/16 28/28/28 29/29/29
f 29/29/29 17/17/17 16/16/16
f 15/15/15 27/27/27 28/28/28
f 28/28/28 16/16/16 15/15/15
f 14/14/14 26/26/26 27/27/27
f 27/27/27 15/15/15 14/14/14
f 2/2/2 13/13/13 50/50/50
f 50/50/50 39/39/39 2/2/2
f 13/13/13 12/12/12 49/49/49
f 49/49/49 50/50/50 13/13/13
f 12/12/12 11/11/11 48/48/48
f 48/48/48 49/49/49 12/12/12
f 11/11/11 10/10/10 47/47/47
f 47/47/47 48/48/48 11/11/11
f 10/10/10 9/9/9 46/46/46
f 46/46/46 47/47/47 10/10/10
f 9/9/9 8/8/8 45/45/45
f 45/45/45 46/46/46 9/9/9
f 8/8/8 7/7/7 44/44/44
f 44/44/44 45/45/45 8/8/8
f 7/7/7 6/6/6 43/43/43
f 43/43/43 44/44/44 7/7/7
f 6/6/6 5/5/5 42/42/42
f 42/42/42 43/43/43 6/6/6
f 5/5/5 4/4/4 41/41/41
f 41/41/41 42/42/42 5/5/5
f 4/4/4 3/3/3 40/40/40
f 40/40/40 41/41/41 4/4/4
f 3/3/3 2/2/2 39/39/39
f 39/39/39 40/40/40 3/3/3
f 1/1/1 13/13/13 2/2/2
f 1/1/1 12/12/12 13/13/13
f 1/1/1 11/11/11 12/12/12
f 1/1/1 10/10/10 11/11/11
f 1/1/1 9/9/9 10/10/10
f 1/1/1 8/8/8 9/9/9
f 1/1/1 7/7/7 8/8/8
f 1/1/1 6/6/6 7/7/7
f 1/1/1 5/5/5 6/6/6
f 1/1/1 4/4/4 5/5/5
f 1/1/1 3/3/3 4/4/4
f 1/1/1 2/2/2 3/3/3
