# Recovered local-space geometry; original node transforms not applied
o mesh_0
v -32.0 1.3987644251756137e-06 -32.0
v 32.0 1.3987644251756137e-06 -32.0
v -32.0 -1.3987644251756137e-06 32.0
v 32.0 -1.3987644251756137e-06 32.0
vt 0.0037411150988191366 1.0
vt 0.4968200623989105 1.0
vt 0.0037411150988191366 0.0
vt 0.4968200623989105 0.0
vn 0.0 -1.0 -4.371138828673793e-08
vn 0.0 -1.0 -4.371138828673793e-08
vn 0.0 -1.0 -4.371138828673793e-08
vn 0.0 -1.0 -4.371138828673793e-08
f 4/4/4 3/3/3 1/1/1
f 1/1/1 2/2/2 4/4/4
